<?xml version="1.0" encoding="UTF-8" standalone="no"?>
<!DOCTYPE svg PUBLIC "-//W3C//DTD SVG 1.1//EN"
 "http://www.w3.org/Graphics/SVG/1.1/DTD/svg11.dtd">
<!-- Generated by graphviz version 2.40.1 (20161225.0304)
 -->
<!-- Title: o2::soa::DefaultIndexPolicy Pages: 1 -->
<svg width="258pt" height="442pt"
 viewBox="0.00 0.00 258.00 442.00" xmlns="http://www.w3.org/2000/svg" xmlns:xlink="http://www.w3.org/1999/xlink">
<g id="graph0" class="graph" transform="scale(1 1) rotate(0) translate(4 438)">
<title>o2::soa::DefaultIndexPolicy</title>
<!-- Node2 -->
<g id="node1" class="node">
<title>Node2</title>
<polygon fill="#bfbfbf" stroke="#000000" points="0,-.5 0,-233.5 150,-233.5 150,-.5 0,-.5"/>
<text text-anchor="middle" x="75" y="-221.5" font-family="Helvetica,sans-Serif" font-size="10.00" fill="#000000">o2::soa::DefaultIndexPolicy</text>
<polyline fill="none" stroke="#000000" points="0,-214.5 150,-214.5 "/>
<text text-anchor="middle" x="75" y="-202.5" font-family="Helvetica,sans-Serif" font-size="10.00" fill="#000000"> </text>
<polyline fill="none" stroke="#000000" points="0,-195.5 150,-195.5 "/>
<text text-anchor="start" x="8" y="-183.5" font-family="Helvetica,sans-Serif" font-size="10.00" fill="#000000">+ DefaultIndexPolicy()</text>
<text text-anchor="start" x="8" y="-172.5" font-family="Helvetica,sans-Serif" font-size="10.00" fill="#000000">+ DefaultIndexPolicy()</text>
<text text-anchor="start" x="8" y="-161.5" font-family="Helvetica,sans-Serif" font-size="10.00" fill="#000000">+ DefaultIndexPolicy()</text>
<text text-anchor="start" x="8" y="-150.5" font-family="Helvetica,sans-Serif" font-size="10.00" fill="#000000">+ operator=()</text>
<text text-anchor="start" x="8" y="-139.5" font-family="Helvetica,sans-Serif" font-size="10.00" fill="#000000">+ operator=()</text>
<text text-anchor="start" x="8" y="-128.5" font-family="Helvetica,sans-Serif" font-size="10.00" fill="#000000">+ DefaultIndexPolicy()</text>
<text text-anchor="start" x="8" y="-117.5" font-family="Helvetica,sans-Serif" font-size="10.00" fill="#000000">+ limitRange()</text>
<text text-anchor="start" x="8" y="-106.5" font-family="Helvetica,sans-Serif" font-size="10.00" fill="#000000">+ getIndices()</text>
<text text-anchor="start" x="8" y="-95.5" font-family="Helvetica,sans-Serif" font-size="10.00" fill="#000000">+ getOffsets()</text>
<text text-anchor="start" x="8" y="-84.5" font-family="Helvetica,sans-Serif" font-size="10.00" fill="#000000">+ setCursor()</text>
<text text-anchor="start" x="8" y="-73.5" font-family="Helvetica,sans-Serif" font-size="10.00" fill="#000000">+ moveByIndex()</text>
<text text-anchor="start" x="8" y="-62.5" font-family="Helvetica,sans-Serif" font-size="10.00" fill="#000000">+ moveToEnd()</text>
<text text-anchor="start" x="8" y="-51.5" font-family="Helvetica,sans-Serif" font-size="10.00" fill="#000000">+ operator!=()</text>
<text text-anchor="start" x="8" y="-40.5" font-family="Helvetica,sans-Serif" font-size="10.00" fill="#000000">+ operator==()</text>
<text text-anchor="start" x="8" y="-29.5" font-family="Helvetica,sans-Serif" font-size="10.00" fill="#000000">+ operator!=()</text>
<text text-anchor="start" x="8" y="-18.5" font-family="Helvetica,sans-Serif" font-size="10.00" fill="#000000">+ operator==()</text>
<text text-anchor="start" x="8" y="-7.5" font-family="Helvetica,sans-Serif" font-size="10.00" fill="#000000">+ size()</text>
</g>
<!-- Node3 -->
<g id="node2" class="node">
<title>Node3</title>
<g id="a_node2"><a xlink:href="../../d9/d4f/structo2_1_1soa_1_1IndexPolicyBase.html" target="_top" xlink:title="{o2::soa::IndexPolicyBase\n||}">
<polygon fill="none" stroke="#000000" points="112,-271.5 112,-328.5 250,-328.5 250,-271.5 112,-271.5"/>
<text text-anchor="middle" x="181" y="-316.5" font-family="Helvetica,sans-Serif" font-size="10.00" fill="#000000">o2::soa::IndexPolicyBase</text>
<polyline fill="none" stroke="#000000" points="112,-309.5 250,-309.5 "/>
<text text-anchor="middle" x="181" y="-297.5" font-family="Helvetica,sans-Serif" font-size="10.00" fill="#000000"> </text>
<polyline fill="none" stroke="#000000" points="112,-290.5 250,-290.5 "/>
<text text-anchor="middle" x="181" y="-278.5" font-family="Helvetica,sans-Serif" font-size="10.00" fill="#000000"> </text>
</a>
</g>
</g>
<!-- Node3&#45;&gt;Node2 -->
<g id="edge1" class="edge">
<title>Node3&#45;&gt;Node2</title>
<path fill="none" stroke="#191970" d="M159.3731,-262.6629C154.291,-253.8891 148.6076,-244.0773 142.6566,-233.8035"/>
<polygon fill="none" stroke="#191970" points="156.3966,-264.5073 164.4375,-271.4063 162.4538,-260.9988 156.3966,-264.5073"/>
</g>
<!-- Node4 -->
<g id="node3" class="node">
<title>Node4</title>
<polygon fill="none" stroke="#bfbfbf" points="24,-376.5 24,-433.5 74,-433.5 74,-376.5 24,-376.5"/>
<text text-anchor="middle" x="49" y="-421.5" font-family="Helvetica,sans-Serif" font-size="10.00" fill="#000000">int64_t</text>
<polyline fill="none" stroke="#bfbfbf" points="24,-414.5 74,-414.5 "/>
<text text-anchor="middle" x="49" y="-402.5" font-family="Helvetica,sans-Serif" font-size="10.00" fill="#000000"> </text>
<polyline fill="none" stroke="#bfbfbf" points="24,-395.5 74,-395.5 "/>
<text text-anchor="middle" x="49" y="-383.5" font-family="Helvetica,sans-Serif" font-size="10.00" fill="#000000"> </text>
</g>
<!-- Node4&#45;&gt;Node2 -->
<g id="edge4" class="edge">
<title>Node4&#45;&gt;Node2</title>
<path fill="none" stroke="#404040" d="M45.2476,-376.1851C43.5844,-362.0026 41.8206,-344.6339 41,-329 39.6489,-303.2577 38.2048,-296.6258 41,-271 41.898,-262.7675 43.0584,-254.3305 44.4066,-245.8525"/>
<polygon fill="none" stroke="#404040" points="44.4342,-245.6887 41.4879,-239.1069 46.4302,-233.8559 49.3765,-240.4376 44.4342,-245.6887"/>
<text text-anchor="middle" x="72" y="-297.5" font-family="Helvetica,sans-Serif" font-size="10.00" fill="#000000"> +mMaxRow</text>
</g>
<!-- Node4&#45;&gt;Node3 -->
<g id="edge2" class="edge">
<title>Node4&#45;&gt;Node3</title>
<path fill="none" stroke="#404040" d="M74.0705,-378.0977C84.1781,-367.8675 96.2203,-356.418 108,-347 112.8067,-343.157 117.937,-339.3443 123.1654,-335.6501"/>
<polygon fill="none" stroke="#404040" points="123.3841,-335.5002 126.0711,-328.8084 133.2816,-328.7149 130.5946,-335.4067 123.3841,-335.5002"/>
<text text-anchor="middle" x="142.5" y="-350" font-family="Helvetica,sans-Serif" font-size="10.00" fill="#000000"> +mRowIndex</text>
</g>
<!-- Node5 -->
<g id="node4" class="node">
<title>Node5</title>
<polygon fill="none" stroke="#bfbfbf" points="150.5,-376.5 150.5,-433.5 211.5,-433.5 211.5,-376.5 150.5,-376.5"/>
<text text-anchor="middle" x="181" y="-421.5" font-family="Helvetica,sans-Serif" font-size="10.00" fill="#000000">unsigned</text>
<polyline fill="none" stroke="#bfbfbf" points="150.5,-414.5 211.5,-414.5 "/>
<text text-anchor="middle" x="181" y="-402.5" font-family="Helvetica,sans-Serif" font-size="10.00" fill="#000000"> </text>
<polyline fill="none" stroke="#bfbfbf" points="150.5,-395.5 211.5,-395.5 "/>
<text text-anchor="middle" x="181" y="-383.5" font-family="Helvetica,sans-Serif" font-size="10.00" fill="#000000"> </text>
</g>
<!-- Node5&#45;&gt;Node3 -->
<g id="edge3" class="edge">
<title>Node5&#45;&gt;Node3</title>
<path fill="none" stroke="#404040" d="M181,-376.3083C181,-365.4281 181,-352.817 181,-341.0192"/>
<polygon fill="none" stroke="#404040" points="181.0001,-340.657 177,-334.6571 181,-328.657 185,-334.657 181.0001,-340.657"/>
<text text-anchor="middle" x="206.5" y="-350" font-family="Helvetica,sans-Serif" font-size="10.00" fill="#000000"> +mOffset</text>
</g>
</g>
</svg>
