<?xml version="1.0" encoding="UTF-8" standalone="no"?>
<!DOCTYPE svg PUBLIC "-//W3C//DTD SVG 1.1//EN"
 "http://www.w3.org/Graphics/SVG/1.1/DTD/svg11.dtd">
<!-- Generated by graphviz version 2.40.1 (20161225.0304)
 -->
<!-- Title: DptDptCorrelationsFilterAnalysisTask Pages: 1 -->
<svg width="1378pt" height="816pt"
 viewBox="0.00 0.00 1377.50 816.00" xmlns="http://www.w3.org/2000/svg" xmlns:xlink="http://www.w3.org/1999/xlink">
<g id="graph0" class="graph" transform="scale(1 1) rotate(0) translate(4 812)">
<title>DptDptCorrelationsFilterAnalysisTask</title>
<!-- Node1 -->
<g id="node1" class="node">
<title>Node1</title>
<polygon fill="#bfbfbf" stroke="#000000" points="284.5,-.5 284.5,-79.5 418.5,-79.5 418.5,-.5 284.5,-.5"/>
<text text-anchor="start" x="292.5" y="-67.5" font-family="Helvetica,sans-Serif" font-size="10.00" fill="#000000">DptDptCorrelationsFilter</text>
<text text-anchor="middle" x="351.5" y="-56.5" font-family="Helvetica,sans-Serif" font-size="10.00" fill="#000000">AnalysisTask</text>
<polyline fill="none" stroke="#000000" points="284.5,-49.5 418.5,-49.5 "/>
<text text-anchor="middle" x="351.5" y="-37.5" font-family="Helvetica,sans-Serif" font-size="10.00" fill="#000000"> </text>
<polyline fill="none" stroke="#000000" points="284.5,-30.5 418.5,-30.5 "/>
<text text-anchor="start" x="292.5" y="-18.5" font-family="Helvetica,sans-Serif" font-size="10.00" fill="#000000">+ init()</text>
<text text-anchor="start" x="292.5" y="-7.5" font-family="Helvetica,sans-Serif" font-size="10.00" fill="#000000">+ process()</text>
</g>
<!-- Node2 -->
<g id="node2" class="node">
<title>Node2</title>
<g id="a_node2"><a xlink:href="../../d8/d71/structo2_1_1framework_1_1Configurable.html" target="_top" xlink:title="{o2::framework::Configurable\l\&lt; int \&gt;\n||+ Configurable()\l+ operator int()\l+ operator&#45;\&gt;()\l}">
<polygon fill="none" stroke="#000000" points="240,-375.5 240,-465.5 395,-465.5 395,-375.5 240,-375.5"/>
<text text-anchor="start" x="248" y="-453.5" font-family="Helvetica,sans-Serif" font-size="10.00" fill="#000000">o2::framework::Configurable</text>
<text text-anchor="middle" x="317.5" y="-442.5" font-family="Helvetica,sans-Serif" font-size="10.00" fill="#000000">&lt; int &gt;</text>
<polyline fill="none" stroke="#000000" points="240,-435.5 395,-435.5 "/>
<text text-anchor="middle" x="317.5" y="-423.5" font-family="Helvetica,sans-Serif" font-size="10.00" fill="#000000"> </text>
<polyline fill="none" stroke="#000000" points="240,-416.5 395,-416.5 "/>
<text text-anchor="start" x="248" y="-404.5" font-family="Helvetica,sans-Serif" font-size="10.00" fill="#000000">+ Configurable()</text>
<text text-anchor="start" x="248" y="-393.5" font-family="Helvetica,sans-Serif" font-size="10.00" fill="#000000">+ operator int()</text>
<text text-anchor="start" x="248" y="-382.5" font-family="Helvetica,sans-Serif" font-size="10.00" fill="#000000">+ operator&#45;&gt;()</text>
</a>
</g>
</g>
<!-- Node2&#45;&gt;Node1 -->
<g id="edge1" class="edge">
<title>Node2&#45;&gt;Node1</title>
<path fill="none" stroke="#404040" d="M321.5338,-375.3575C327.8775,-304.3638 340.1519,-166.9989 346.8548,-91.9849"/>
<polygon fill="none" stroke="#404040" points="346.8919,-91.5693 343.4418,-85.237 347.96,-79.6169 351.4101,-85.9491 346.8919,-91.5693"/>
<text text-anchor="middle" x="396" y="-236" font-family="Helvetica,sans-Serif" font-size="10.00" fill="#000000"> +cfgZVtxBins</text>
<text text-anchor="middle" x="396" y="-225" font-family="Helvetica,sans-Serif" font-size="10.00" fill="#000000">+cfgPtBins</text>
<text text-anchor="middle" x="396" y="-214" font-family="Helvetica,sans-Serif" font-size="10.00" fill="#000000">+cfgTrackOneCharge</text>
<text text-anchor="middle" x="396" y="-203" font-family="Helvetica,sans-Serif" font-size="10.00" fill="#000000">+cfgTrackType</text>
<text text-anchor="middle" x="396" y="-192" font-family="Helvetica,sans-Serif" font-size="10.00" fill="#000000">+cfgTrackTwoCharge</text>
<text text-anchor="middle" x="396" y="-181" font-family="Helvetica,sans-Serif" font-size="10.00" fill="#000000">+cfgEtaBins</text>
</g>
<!-- Node3 -->
<g id="node3" class="node">
<title>Node3</title>
<polygon fill="none" stroke="#bfbfbf" points="632,-734 632,-791 661,-791 661,-734 632,-734"/>
<text text-anchor="middle" x="646.5" y="-779" font-family="Helvetica,sans-Serif" font-size="10.00" fill="#000000">int</text>
<polyline fill="none" stroke="#bfbfbf" points="632,-772 661,-772 "/>
<text text-anchor="middle" x="646.5" y="-760" font-family="Helvetica,sans-Serif" font-size="10.00" fill="#000000"> </text>
<polyline fill="none" stroke="#bfbfbf" points="632,-753 661,-753 "/>
<text text-anchor="middle" x="646.5" y="-741" font-family="Helvetica,sans-Serif" font-size="10.00" fill="#000000"> </text>
</g>
<!-- Node3&#45;&gt;Node2 -->
<g id="edge2" class="edge">
<title>Node3&#45;&gt;Node2</title>
<path fill="none" stroke="#404040" d="M631.7183,-760.3563C591.3529,-753.6649 478.7224,-729.2367 425.5,-659 386.4282,-607.4376 421.3118,-575.4105 393.5,-517 386.6328,-502.5774 377.2774,-488.333 367.478,-475.3974"/>
<polygon fill="none" stroke="#404040" points="367.339,-475.2202 360.4883,-472.9688 359.9316,-465.7792 366.7823,-468.0306 367.339,-475.2202"/>
<text text-anchor="middle" x="445" y="-611" font-family="Helvetica,sans-Serif" font-size="10.00" fill="#000000"> +value</text>
<text text-anchor="middle" x="445" y="-600" font-family="Helvetica,sans-Serif" font-size="10.00" fill="#000000">+name</text>
<text text-anchor="middle" x="445" y="-589" font-family="Helvetica,sans-Serif" font-size="10.00" fill="#000000">+help</text>
</g>
<!-- Node4 -->
<g id="node4" class="node">
<title>Node4</title>
<g id="a_node4"><a xlink:href="../../d8/d71/structo2_1_1framework_1_1Configurable.html" target="_top" xlink:title="{o2::framework::Configurable\&lt; T \&gt;\n||+ Configurable()\l+ operator T()\l+ operator&#45;\&gt;()\l}">
<polygon fill="none" stroke="#000000" points="187.5,-563 187.5,-642 371.5,-642 371.5,-563 187.5,-563"/>
<text text-anchor="middle" x="279.5" y="-630" font-family="Helvetica,sans-Serif" font-size="10.00" fill="#000000">o2::framework::Configurable&lt; T &gt;</text>
<polyline fill="none" stroke="#000000" points="187.5,-623 371.5,-623 "/>
<text text-anchor="middle" x="279.5" y="-611" font-family="Helvetica,sans-Serif" font-size="10.00" fill="#000000"> </text>
<polyline fill="none" stroke="#000000" points="187.5,-604 371.5,-604 "/>
<text text-anchor="start" x="195.5" y="-592" font-family="Helvetica,sans-Serif" font-size="10.00" fill="#000000">+ Configurable()</text>
<text text-anchor="start" x="195.5" y="-581" font-family="Helvetica,sans-Serif" font-size="10.00" fill="#000000">+ operator T()</text>
<text text-anchor="start" x="195.5" y="-570" font-family="Helvetica,sans-Serif" font-size="10.00" fill="#000000">+ operator&#45;&gt;()</text>
</a>
</g>
</g>
<!-- Node3&#45;&gt;Node4 -->
<g id="edge4" class="edge">
<title>Node3&#45;&gt;Node4</title>
<path fill="none" stroke="#404040" d="M631.8563,-760.6798C579.3771,-753.9524 401.306,-729.3069 353.5,-699 335.166,-687.3771 319.6221,-669.5236 307.5845,-652.3195"/>
<polygon fill="none" stroke="#404040" points="307.5699,-652.2977 300.9118,-649.5282 300.9075,-642.3171 307.5656,-645.0866 307.5699,-652.2977"/>
<text text-anchor="middle" x="373.5" y="-691" font-family="Helvetica,sans-Serif" font-size="10.00" fill="#000000"> +name</text>
<text text-anchor="middle" x="373.5" y="-680" font-family="Helvetica,sans-Serif" font-size="10.00" fill="#000000">+help</text>
</g>
<!-- Node9 -->
<g id="node9" class="node">
<title>Node9</title>
<g id="a_node9"><a xlink:href="../../d8/d71/structo2_1_1framework_1_1Configurable.html" target="_top" xlink:title="{o2::framework::Configurable\l\&lt; float \&gt;\n||+ Configurable()\l+ operator float()\l+ operator&#45;\&gt;()\l}">
<polygon fill="none" stroke="#000000" points="413,-375.5 413,-465.5 568,-465.5 568,-375.5 413,-375.5"/>
<text text-anchor="start" x="421" y="-453.5" font-family="Helvetica,sans-Serif" font-size="10.00" fill="#000000">o2::framework::Configurable</text>
<text text-anchor="middle" x="490.5" y="-442.5" font-family="Helvetica,sans-Serif" font-size="10.00" fill="#000000">&lt; float &gt;</text>
<polyline fill="none" stroke="#000000" points="413,-435.5 568,-435.5 "/>
<text text-anchor="middle" x="490.5" y="-423.5" font-family="Helvetica,sans-Serif" font-size="10.00" fill="#000000"> </text>
<polyline fill="none" stroke="#000000" points="413,-416.5 568,-416.5 "/>
<text text-anchor="start" x="421" y="-404.5" font-family="Helvetica,sans-Serif" font-size="10.00" fill="#000000">+ Configurable()</text>
<text text-anchor="start" x="421" y="-393.5" font-family="Helvetica,sans-Serif" font-size="10.00" fill="#000000">+ operator float()</text>
<text text-anchor="start" x="421" y="-382.5" font-family="Helvetica,sans-Serif" font-size="10.00" fill="#000000">+ operator&#45;&gt;()</text>
</a>
</g>
</g>
<!-- Node3&#45;&gt;Node9 -->
<g id="edge12" class="edge">
<title>Node3&#45;&gt;Node9</title>
<path fill="none" stroke="#404040" d="M631.8917,-757.9922C599.5072,-747.111 522.1346,-716.0049 491.5,-659 461.4409,-603.066 467.0364,-528.5591 476.356,-477.8035"/>
<polygon fill="none" stroke="#404040" points="476.4091,-477.5324 473.639,-470.8746 478.7193,-465.7569 481.4894,-472.4147 476.4091,-477.5324"/>
<text text-anchor="middle" x="511.5" y="-605.5" font-family="Helvetica,sans-Serif" font-size="10.00" fill="#000000"> +name</text>
<text text-anchor="middle" x="511.5" y="-594.5" font-family="Helvetica,sans-Serif" font-size="10.00" fill="#000000">+help</text>
</g>
<!-- Node11 -->
<g id="node11" class="node">
<title>Node11</title>
<g id="a_node11"><a xlink:href="../../d4/d79/structo2_1_1framework_1_1OutputObj.html" target="_top" xlink:title="{o2::framework::OutputObj\l\&lt; TList \&gt;\n||+ spec()\l+ OutputObj()\l+ OutputObj()\l+ setObject()\l+ setObject()\l+ setObject()\l+ setHash()\l+ operator&#45;\&gt;()\l+ operator*()\l+ ref()\l}">
<polygon fill="none" stroke="#000000" points="880,-127.5 880,-294.5 1023,-294.5 1023,-127.5 880,-127.5"/>
<text text-anchor="start" x="888" y="-282.5" font-family="Helvetica,sans-Serif" font-size="10.00" fill="#000000">o2::framework::OutputObj</text>
<text text-anchor="middle" x="951.5" y="-271.5" font-family="Helvetica,sans-Serif" font-size="10.00" fill="#000000">&lt; TList &gt;</text>
<polyline fill="none" stroke="#000000" points="880,-264.5 1023,-264.5 "/>
<text text-anchor="middle" x="951.5" y="-252.5" font-family="Helvetica,sans-Serif" font-size="10.00" fill="#000000"> </text>
<polyline fill="none" stroke="#000000" points="880,-245.5 1023,-245.5 "/>
<text text-anchor="start" x="888" y="-233.5" font-family="Helvetica,sans-Serif" font-size="10.00" fill="#000000">+ spec()</text>
<text text-anchor="start" x="888" y="-222.5" font-family="Helvetica,sans-Serif" font-size="10.00" fill="#000000">+ OutputObj()</text>
<text text-anchor="start" x="888" y="-211.5" font-family="Helvetica,sans-Serif" font-size="10.00" fill="#000000">+ OutputObj()</text>
<text text-anchor="start" x="888" y="-200.5" font-family="Helvetica,sans-Serif" font-size="10.00" fill="#000000">+ setObject()</text>
<text text-anchor="start" x="888" y="-189.5" font-family="Helvetica,sans-Serif" font-size="10.00" fill="#000000">+ setObject()</text>
<text text-anchor="start" x="888" y="-178.5" font-family="Helvetica,sans-Serif" font-size="10.00" fill="#000000">+ setObject()</text>
<text text-anchor="start" x="888" y="-167.5" font-family="Helvetica,sans-Serif" font-size="10.00" fill="#000000">+ setHash()</text>
<text text-anchor="start" x="888" y="-156.5" font-family="Helvetica,sans-Serif" font-size="10.00" fill="#000000">+ operator&#45;&gt;()</text>
<text text-anchor="start" x="888" y="-145.5" font-family="Helvetica,sans-Serif" font-size="10.00" fill="#000000">+ operator*()</text>
<text text-anchor="start" x="888" y="-134.5" font-family="Helvetica,sans-Serif" font-size="10.00" fill="#000000">+ ref()</text>
</a>
</g>
</g>
<!-- Node3&#45;&gt;Node11 -->
<g id="edge17" class="edge">
<title>Node3&#45;&gt;Node11</title>
<path fill="none" stroke="#404040" d="M661.0238,-759.4709C715.5887,-747.8073 907.2616,-704.1917 947.5,-659 1032.2057,-563.8672 1010.174,-407.1145 983.303,-306.5108"/>
<polygon fill="none" stroke="#404040" points="983.2736,-306.4037 977.8271,-301.6776 980.0948,-294.8323 985.5413,-299.5584 983.2736,-306.4037"/>
<text text-anchor="middle" x="1022.5" y="-520" font-family="Helvetica,sans-Serif" font-size="10.00" fill="#000000"> +label</text>
</g>
<!-- Node15 -->
<g id="node15" class="node">
<title>Node15</title>
<g id="a_node15"><a xlink:href="../../da/d96/structo2_1_1framework_1_1InputSpec.html" target="_top" xlink:title="{o2::framework::InputSpec\n||+ InputSpec()\l+ InputSpec()\l+ InputSpec()\l+ InputSpec()\l+ InputSpec()\l+ operator==()\l}">
<polygon fill="none" stroke="#000000" points="1182.5,-546.5 1182.5,-658.5 1324.5,-658.5 1324.5,-546.5 1182.5,-546.5"/>
<text text-anchor="middle" x="1253.5" y="-646.5" font-family="Helvetica,sans-Serif" font-size="10.00" fill="#000000">o2::framework::InputSpec</text>
<polyline fill="none" stroke="#000000" points="1182.5,-639.5 1324.5,-639.5 "/>
<text text-anchor="middle" x="1253.5" y="-627.5" font-family="Helvetica,sans-Serif" font-size="10.00" fill="#000000"> </text>
<polyline fill="none" stroke="#000000" points="1182.5,-620.5 1324.5,-620.5 "/>
<text text-anchor="start" x="1190.5" y="-608.5" font-family="Helvetica,sans-Serif" font-size="10.00" fill="#000000">+ InputSpec()</text>
<text text-anchor="start" x="1190.5" y="-597.5" font-family="Helvetica,sans-Serif" font-size="10.00" fill="#000000">+ InputSpec()</text>
<text text-anchor="start" x="1190.5" y="-586.5" font-family="Helvetica,sans-Serif" font-size="10.00" fill="#000000">+ InputSpec()</text>
<text text-anchor="start" x="1190.5" y="-575.5" font-family="Helvetica,sans-Serif" font-size="10.00" fill="#000000">+ InputSpec()</text>
<text text-anchor="start" x="1190.5" y="-564.5" font-family="Helvetica,sans-Serif" font-size="10.00" fill="#000000">+ InputSpec()</text>
<text text-anchor="start" x="1190.5" y="-553.5" font-family="Helvetica,sans-Serif" font-size="10.00" fill="#000000">+ operator==()</text>
</a>
</g>
</g>
<!-- Node3&#45;&gt;Node15 -->
<g id="edge22" class="edge">
<title>Node3&#45;&gt;Node15</title>
<path fill="none" stroke="#404040" d="M661.0823,-762.0839C723.6514,-759.8175 974.7475,-745.7927 1171.2312,-659.631"/>
<polygon fill="none" stroke="#404040" points="1171.3632,-659.5719 1175.2039,-653.4687 1182.3148,-654.6665 1178.4742,-660.7697 1171.3632,-659.5719"/>
<text text-anchor="middle" x="1143.5" y="-685.5" font-family="Helvetica,sans-Serif" font-size="10.00" fill="#000000"> +binding</text>
</g>
<!-- Node19 -->
<g id="node19" class="node">
<title>Node19</title>
<g id="a_node19"><a xlink:href="../../d4/d79/structo2_1_1framework_1_1OutputObj.html" target="_top" xlink:title="{o2::framework::OutputObj\&lt; T \&gt;\n||+ OutputObj()\l+ OutputObj()\l+ setObject()\l+ setObject()\l+ setObject()\l+ setHash()\l+ spec()\l+ operator&#45;\&gt;()\l+ operator*()\l+ ref()\l}">
<polygon fill="none" stroke="#000000" points="698.5,-342.5 698.5,-498.5 870.5,-498.5 870.5,-342.5 698.5,-342.5"/>
<text text-anchor="middle" x="784.5" y="-486.5" font-family="Helvetica,sans-Serif" font-size="10.00" fill="#000000">o2::framework::OutputObj&lt; T &gt;</text>
<polyline fill="none" stroke="#000000" points="698.5,-479.5 870.5,-479.5 "/>
<text text-anchor="middle" x="784.5" y="-467.5" font-family="Helvetica,sans-Serif" font-size="10.00" fill="#000000"> </text>
<polyline fill="none" stroke="#000000" points="698.5,-460.5 870.5,-460.5 "/>
<text text-anchor="start" x="706.5" y="-448.5" font-family="Helvetica,sans-Serif" font-size="10.00" fill="#000000">+ OutputObj()</text>
<text text-anchor="start" x="706.5" y="-437.5" font-family="Helvetica,sans-Serif" font-size="10.00" fill="#000000">+ OutputObj()</text>
<text text-anchor="start" x="706.5" y="-426.5" font-family="Helvetica,sans-Serif" font-size="10.00" fill="#000000">+ setObject()</text>
<text text-anchor="start" x="706.5" y="-415.5" font-family="Helvetica,sans-Serif" font-size="10.00" fill="#000000">+ setObject()</text>
<text text-anchor="start" x="706.5" y="-404.5" font-family="Helvetica,sans-Serif" font-size="10.00" fill="#000000">+ setObject()</text>
<text text-anchor="start" x="706.5" y="-393.5" font-family="Helvetica,sans-Serif" font-size="10.00" fill="#000000">+ setHash()</text>
<text text-anchor="start" x="706.5" y="-382.5" font-family="Helvetica,sans-Serif" font-size="10.00" fill="#000000">+ spec()</text>
<text text-anchor="start" x="706.5" y="-371.5" font-family="Helvetica,sans-Serif" font-size="10.00" fill="#000000">+ operator&#45;&gt;()</text>
<text text-anchor="start" x="706.5" y="-360.5" font-family="Helvetica,sans-Serif" font-size="10.00" fill="#000000">+ operator*()</text>
<text text-anchor="start" x="706.5" y="-349.5" font-family="Helvetica,sans-Serif" font-size="10.00" fill="#000000">+ ref()</text>
</a>
</g>
</g>
<!-- Node3&#45;&gt;Node19 -->
<g id="edge26" class="edge">
<title>Node3&#45;&gt;Node19</title>
<path fill="none" stroke="#404040" d="M661.1184,-756.6777C690.5716,-744.0437 756.4569,-710.9976 782.5,-659 805.1877,-613.7018 806.6461,-557.2252 801.985,-510.6018"/>
<polygon fill="none" stroke="#404040" points="801.9836,-510.5886 797.3364,-505.0747 800.6387,-498.6641 805.286,-504.178 801.9836,-510.5886"/>
<text text-anchor="middle" x="821.5" y="-600" font-family="Helvetica,sans-Serif" font-size="10.00" fill="#000000"> +label</text>
</g>
<!-- Node4&#45;&gt;Node2 -->
<g id="edge3" class="edge">
<title>Node4&#45;&gt;Node2</title>
<path fill="none" stroke="#ffa500" d="M278.6336,-552.5238C279.1516,-540.7908 280.2916,-528.3905 282.5,-517 285.8242,-499.8543 291.7324,-481.6942 297.7591,-465.8089"/>
<polygon fill="#ffa500" stroke="#ffa500" points="275.1322,-552.5193 278.3273,-562.6209 282.129,-552.7316 275.1322,-552.5193"/>
<text text-anchor="middle" x="302" y="-520" font-family="Helvetica,sans-Serif" font-size="10.00" fill="#000000"> &lt; int &gt;</text>
</g>
<!-- Node4&#45;&gt;Node9 -->
<g id="edge13" class="edge">
<title>Node4&#45;&gt;Node9</title>
<path fill="none" stroke="#ffa500" d="M336.1372,-556.5759C357.7274,-538.8167 382.4395,-518.1818 404.5,-499 416.704,-488.3886 429.6789,-476.7432 441.7512,-465.7465"/>
<polygon fill="#ffa500" stroke="#ffa500" points="333.8435,-553.9305 328.3348,-562.9806 338.2849,-559.3411 333.8435,-553.9305"/>
<text text-anchor="middle" x="404.5" y="-520" font-family="Helvetica,sans-Serif" font-size="10.00" fill="#000000"> &lt; float &gt;</text>
</g>
<!-- Node5 -->
<g id="node5" class="node">
<title>Node5</title>
<polygon fill="none" stroke="#bfbfbf" points="265,-734 265,-791 294,-791 294,-734 265,-734"/>
<text text-anchor="middle" x="279.5" y="-779" font-family="Helvetica,sans-Serif" font-size="10.00" fill="#000000">T</text>
<polyline fill="none" stroke="#bfbfbf" points="265,-772 294,-772 "/>
<text text-anchor="middle" x="279.5" y="-760" font-family="Helvetica,sans-Serif" font-size="10.00" fill="#000000"> </text>
<polyline fill="none" stroke="#bfbfbf" points="265,-753 294,-753 "/>
<text text-anchor="middle" x="279.5" y="-741" font-family="Helvetica,sans-Serif" font-size="10.00" fill="#000000"> </text>
</g>
<!-- Node5&#45;&gt;Node4 -->
<g id="edge5" class="edge">
<title>Node5&#45;&gt;Node4</title>
<path fill="none" stroke="#404040" d="M279.5,-733.8952C279.5,-711.8577 279.5,-680.7968 279.5,-654.4075"/>
<polygon fill="none" stroke="#404040" points="279.5001,-654.2754 275.5,-648.2755 279.5,-642.2754 283.5,-648.2754 279.5001,-654.2754"/>
<text text-anchor="middle" x="299" y="-685.5" font-family="Helvetica,sans-Serif" font-size="10.00" fill="#000000"> +value</text>
</g>
<!-- Node6 -->
<g id="node6" class="node">
<title>Node6</title>
<g id="a_node6"><a xlink:href="../../d6/d86/structo2_1_1framework_1_1Produces.html" target="_top" xlink:title="{o2::framework::Produces\l\&lt; aod::AcceptedEvents \&gt;\n||}">
<polygon fill="none" stroke="#000000" points="0,-177 0,-245 141,-245 141,-177 0,-177"/>
<text text-anchor="start" x="8" y="-233" font-family="Helvetica,sans-Serif" font-size="10.00" fill="#000000">o2::framework::Produces</text>
<text text-anchor="middle" x="70.5" y="-222" font-family="Helvetica,sans-Serif" font-size="10.00" fill="#000000">&lt; aod::AcceptedEvents &gt;</text>
<polyline fill="none" stroke="#000000" points="0,-215 141,-215 "/>
<text text-anchor="middle" x="70.5" y="-203" font-family="Helvetica,sans-Serif" font-size="10.00" fill="#000000"> </text>
<polyline fill="none" stroke="#000000" points="0,-196 141,-196 "/>
<text text-anchor="middle" x="70.5" y="-184" font-family="Helvetica,sans-Serif" font-size="10.00" fill="#000000"> </text>
</a>
</g>
</g>
<!-- Node6&#45;&gt;Node1 -->
<g id="edge6" class="edge">
<title>Node6&#45;&gt;Node1</title>
<path fill="none" stroke="#404040" d="M88.861,-176.9043C104.1054,-151.6662 128.0247,-118.2775 157.5,-98 191.4737,-74.6278 235.046,-60.4968 272.287,-52.0454"/>
<polygon fill="none" stroke="#404040" points="272.404,-52.0203 277.4285,-46.8479 284.1356,-49.4965 279.1111,-54.6689 272.404,-52.0203"/>
<text text-anchor="middle" x="202" y="-101" font-family="Helvetica,sans-Serif" font-size="10.00" fill="#000000"> +acceptedevents</text>
</g>
<!-- Node7 -->
<g id="node7" class="node">
<title>Node7</title>
<g id="a_node7"><a xlink:href="../../d6/d86/structo2_1_1framework_1_1Produces.html" target="_top" xlink:title="{o2::framework::Produces\&lt; T \&gt;\n||}">
<polygon fill="none" stroke="#000000" points="18,-392 18,-449 185,-449 185,-392 18,-392"/>
<text text-anchor="middle" x="101.5" y="-437" font-family="Helvetica,sans-Serif" font-size="10.00" fill="#000000">o2::framework::Produces&lt; T &gt;</text>
<polyline fill="none" stroke="#000000" points="18,-430 185,-430 "/>
<text text-anchor="middle" x="101.5" y="-418" font-family="Helvetica,sans-Serif" font-size="10.00" fill="#000000"> </text>
<polyline fill="none" stroke="#000000" points="18,-411 185,-411 "/>
<text text-anchor="middle" x="101.5" y="-399" font-family="Helvetica,sans-Serif" font-size="10.00" fill="#000000"> </text>
</a>
</g>
</g>
<!-- Node7&#45;&gt;Node6 -->
<g id="edge7" class="edge">
<title>Node7&#45;&gt;Node6</title>
<path fill="none" stroke="#ffa500" d="M83.2303,-382.4984C75.8411,-365.0982 68.1931,-343.9475 64.5,-324 59.654,-297.8249 61.6189,-267.7011 64.5423,-245.1417"/>
<polygon fill="#ffa500" stroke="#ffa500" points="80.0636,-383.9925 87.282,-391.7479 86.4754,-381.1838 80.0636,-383.9925"/>
<text text-anchor="middle" x="128.5" y="-316" font-family="Helvetica,sans-Serif" font-size="10.00" fill="#000000"> &lt; aod::AcceptedEvents &gt;</text>
</g>
<!-- Node8 -->
<g id="node8" class="node">
<title>Node8</title>
<g id="a_node8"><a xlink:href="../../d6/d86/structo2_1_1framework_1_1Produces.html" target="_top" xlink:title="{o2::framework::Produces\l\&lt; aod::ScannedTracks \&gt;\n||}">
<polygon fill="none" stroke="#000000" points="171.5,-177 171.5,-245 309.5,-245 309.5,-177 171.5,-177"/>
<text text-anchor="start" x="179.5" y="-233" font-family="Helvetica,sans-Serif" font-size="10.00" fill="#000000">o2::framework::Produces</text>
<text text-anchor="middle" x="240.5" y="-222" font-family="Helvetica,sans-Serif" font-size="10.00" fill="#000000">&lt; aod::ScannedTracks &gt;</text>
<polyline fill="none" stroke="#000000" points="171.5,-215 309.5,-215 "/>
<text text-anchor="middle" x="240.5" y="-203" font-family="Helvetica,sans-Serif" font-size="10.00" fill="#000000"> </text>
<polyline fill="none" stroke="#000000" points="171.5,-196 309.5,-196 "/>
<text text-anchor="middle" x="240.5" y="-184" font-family="Helvetica,sans-Serif" font-size="10.00" fill="#000000"> </text>
</a>
</g>
</g>
<!-- Node7&#45;&gt;Node8 -->
<g id="edge9" class="edge">
<title>Node7&#45;&gt;Node8</title>
<path fill="none" stroke="#ffa500" d="M141.2927,-384.5361C158.6077,-367.4198 178.1696,-345.9264 192.5,-324 208.5921,-299.3781 221.2831,-268.4652 229.5637,-245.1986"/>
<polygon fill="#ffa500" stroke="#ffa500" points="138.764,-382.113 134.0314,-391.5921 143.6423,-387.1332 138.764,-382.113"/>
<text text-anchor="middle" x="259.5" y="-316" font-family="Helvetica,sans-Serif" font-size="10.00" fill="#000000"> &lt; aod::ScannedTracks &gt;</text>
</g>
<!-- Node8&#45;&gt;Node1 -->
<g id="edge8" class="edge">
<title>Node8&#45;&gt;Node1</title>
<path fill="none" stroke="#404040" d="M237.6046,-176.9563C237.2394,-153.0286 240.2704,-121.2634 255.5,-98 260.6744,-90.096 267.3355,-83.1047 274.7339,-76.9641"/>
<polygon fill="none" stroke="#404040" points="274.8649,-76.8653 277.2444,-70.058 284.4432,-69.6363 282.0637,-76.4435 274.8649,-76.8653"/>
<text text-anchor="middle" x="296.5" y="-101" font-family="Helvetica,sans-Serif" font-size="10.00" fill="#000000"> +scannedtracks</text>
</g>
<!-- Node9&#45;&gt;Node1 -->
<g id="edge10" class="edge">
<title>Node9&#45;&gt;Node1</title>
<path fill="none" stroke="#404040" d="M494.032,-375.2554C496.7027,-314.9039 494.2308,-206.4497 451.5,-127 443.6498,-112.4041 432.3021,-99.1351 420.0461,-87.6015"/>
<polygon fill="none" stroke="#404040" points="419.946,-87.5121 412.8067,-86.4965 410.9983,-79.5159 418.1375,-80.5314 419.946,-87.5121"/>
<text text-anchor="middle" x="527.5" y="-236" font-family="Helvetica,sans-Serif" font-size="10.00" fill="#000000"> +cfgZVtxLow</text>
<text text-anchor="middle" x="527.5" y="-225" font-family="Helvetica,sans-Serif" font-size="10.00" fill="#000000">+cfgEtaHigh</text>
<text text-anchor="middle" x="527.5" y="-214" font-family="Helvetica,sans-Serif" font-size="10.00" fill="#000000">+cfgPtLow</text>
<text text-anchor="middle" x="527.5" y="-203" font-family="Helvetica,sans-Serif" font-size="10.00" fill="#000000">+cfgEtaLow</text>
<text text-anchor="middle" x="527.5" y="-192" font-family="Helvetica,sans-Serif" font-size="10.00" fill="#000000">+cfgPtHigh</text>
<text text-anchor="middle" x="527.5" y="-181" font-family="Helvetica,sans-Serif" font-size="10.00" fill="#000000">+cfgZVtxHigh</text>
</g>
<!-- Node10 -->
<g id="node10" class="node">
<title>Node10</title>
<g id="a_node10"><a xlink:href="../../d4/dc3/classfloat.html" target="_top" xlink:title="{float\n||}">
<polygon fill="none" stroke="#000000" points="540.5,-574 540.5,-631 578.5,-631 578.5,-574 540.5,-574"/>
<text text-anchor="middle" x="559.5" y="-619" font-family="Helvetica,sans-Serif" font-size="10.00" fill="#000000">float</text>
<polyline fill="none" stroke="#000000" points="540.5,-612 578.5,-612 "/>
<text text-anchor="middle" x="559.5" y="-600" font-family="Helvetica,sans-Serif" font-size="10.00" fill="#000000"> </text>
<polyline fill="none" stroke="#000000" points="540.5,-593 578.5,-593 "/>
<text text-anchor="middle" x="559.5" y="-581" font-family="Helvetica,sans-Serif" font-size="10.00" fill="#000000"> </text>
</a>
</g>
</g>
<!-- Node10&#45;&gt;Node9 -->
<g id="edge11" class="edge">
<title>Node10&#45;&gt;Node9</title>
<path fill="none" stroke="#404040" d="M548.5667,-573.6616C538.752,-547.7734 524.0629,-509.0282 511.9148,-476.9855"/>
<polygon fill="none" stroke="#404040" points="511.822,-476.7405 505.9548,-472.5482 507.5679,-465.5198 513.4352,-469.7121 511.822,-476.7405"/>
<text text-anchor="middle" x="550" y="-520" font-family="Helvetica,sans-Serif" font-size="10.00" fill="#000000"> +value</text>
</g>
<!-- Node11&#45;&gt;Node1 -->
<g id="edge14" class="edge">
<title>Node11&#45;&gt;Node1</title>
<path fill="none" stroke="#404040" d="M879.7219,-190.5433C766.6492,-158.3175 547.8676,-95.9648 430.4804,-62.5094"/>
<polygon fill="none" stroke="#404040" points="430.2936,-62.4563 423.427,-64.6585 418.7532,-59.1672 425.6198,-56.9649 430.2936,-62.4563"/>
<text text-anchor="middle" x="604" y="-101" font-family="Helvetica,sans-Serif" font-size="10.00" fill="#000000"> +fOutput</text>
</g>
<!-- Node12 -->
<g id="node12" class="node">
<title>Node12</title>
<polygon fill="none" stroke="#bfbfbf" points="1024.5,-392 1024.5,-449 1138.5,-449 1138.5,-392 1024.5,-392"/>
<text text-anchor="middle" x="1081.5" y="-437" font-family="Helvetica,sans-Serif" font-size="10.00" fill="#000000">shared_ptr&lt; TList &gt;</text>
<polyline fill="none" stroke="#bfbfbf" points="1024.5,-430 1138.5,-430 "/>
<text text-anchor="middle" x="1081.5" y="-418" font-family="Helvetica,sans-Serif" font-size="10.00" fill="#000000"> </text>
<polyline fill="none" stroke="#bfbfbf" points="1024.5,-411 1138.5,-411 "/>
<text text-anchor="middle" x="1081.5" y="-399" font-family="Helvetica,sans-Serif" font-size="10.00" fill="#000000"> </text>
</g>
<!-- Node12&#45;&gt;Node11 -->
<g id="edge15" class="edge">
<title>Node12&#45;&gt;Node11</title>
<path fill="none" stroke="#404040" d="M1063.6966,-391.8092C1049.7645,-369.357 1029.5559,-336.79 1010.1163,-305.4623"/>
<polygon fill="none" stroke="#404040" points="1009.8905,-305.0985 1003.3281,-302.1094 1003.5633,-294.9021 1010.1258,-297.8913 1009.8905,-305.0985"/>
<text text-anchor="middle" x="1040.5" y="-316" font-family="Helvetica,sans-Serif" font-size="10.00" fill="#000000"> +object</text>
</g>
<!-- Node13 -->
<g id="node13" class="node">
<title>Node13</title>
<polygon fill="none" stroke="#bfbfbf" points="1025,-574 1025,-631 1164,-631 1164,-574 1025,-574"/>
<text text-anchor="middle" x="1094.5" y="-619" font-family="Helvetica,sans-Serif" font-size="10.00" fill="#000000">OutputObjHandlingPolicy</text>
<polyline fill="none" stroke="#bfbfbf" points="1025,-612 1164,-612 "/>
<text text-anchor="middle" x="1094.5" y="-600" font-family="Helvetica,sans-Serif" font-size="10.00" fill="#000000"> </text>
<polyline fill="none" stroke="#bfbfbf" points="1025,-593 1164,-593 "/>
<text text-anchor="middle" x="1094.5" y="-581" font-family="Helvetica,sans-Serif" font-size="10.00" fill="#000000"> </text>
</g>
<!-- Node13&#45;&gt;Node11 -->
<g id="edge16" class="edge">
<title>Node13&#45;&gt;Node11</title>
<path fill="none" stroke="#404040" d="M1114.0067,-573.6278C1126.2935,-553.6375 1141.0164,-525.8864 1147.5,-499 1163.8579,-431.1667 1180.389,-403.5407 1147.5,-342 1123.3649,-296.8394 1076.008,-264.532 1033.891,-243.3009"/>
<polygon fill="none" stroke="#404040" points="1033.8171,-243.2649 1026.671,-244.2316 1023.0302,-238.0071 1030.1763,-237.0403 1033.8171,-243.2649"/>
<text text-anchor="middle" x="1186" y="-418" font-family="Helvetica,sans-Serif" font-size="10.00" fill="#000000"> +policy</text>
</g>
<!-- Node13&#45;&gt;Node19 -->
<g id="edge25" class="edge">
<title>Node13&#45;&gt;Node19</title>
<path fill="none" stroke="#404040" d="M1024.6241,-574.072C982.4068,-555.4608 928.447,-529.0633 884.5,-499 883.2191,-498.1238 881.9332,-497.2365 880.6434,-496.3394"/>
<polygon fill="none" stroke="#404040" points="880.4902,-496.2308 873.2821,-496.0237 870.7009,-489.2903 877.909,-489.4974 880.4902,-496.2308"/>
<text text-anchor="middle" x="948" y="-520" font-family="Helvetica,sans-Serif" font-size="10.00" fill="#000000"> +policy</text>
</g>
<!-- Node14 -->
<g id="node14" class="node">
<title>Node14</title>
<polygon fill="none" stroke="#bfbfbf" points="900.5,-574 900.5,-631 938.5,-631 938.5,-574 900.5,-574"/>
<text text-anchor="middle" x="919.5" y="-619" font-family="Helvetica,sans-Serif" font-size="10.00" fill="#000000">bool</text>
<polyline fill="none" stroke="#bfbfbf" points="900.5,-612 938.5,-612 "/>
<text text-anchor="middle" x="919.5" y="-600" font-family="Helvetica,sans-Serif" font-size="10.00" fill="#000000"> </text>
<polyline fill="none" stroke="#bfbfbf" points="900.5,-593 938.5,-593 "/>
<text text-anchor="middle" x="919.5" y="-581" font-family="Helvetica,sans-Serif" font-size="10.00" fill="#000000"> </text>
</g>
<!-- Node14&#45;&gt;Node11 -->
<g id="edge18" class="edge">
<title>Node14&#45;&gt;Node11</title>
<path fill="none" stroke="#404040" d="M938.5712,-576.4815C948.8682,-559.0266 957.5971,-535.8666 947.5,-517 940.6948,-504.2843 927.3052,-511.7157 920.5,-499 887.5748,-437.4787 912.4112,-411.3074 920.5,-342 921.8512,-330.4222 923.8526,-318.3834 926.1995,-306.5026"/>
<polygon fill="none" stroke="#404040" points="926.211,-306.447 923.5142,-299.7591 928.6503,-294.6975 931.3471,-301.3853 926.211,-306.447"/>
<text text-anchor="middle" x="951.5" y="-418" font-family="Helvetica,sans-Serif" font-size="10.00" fill="#000000"> +isdangling</text>
</g>
<!-- Node14&#45;&gt;Node19 -->
<g id="edge28" class="edge">
<title>Node14&#45;&gt;Node19</title>
<path fill="none" stroke="#404040" d="M900.3277,-586.0933C886.5016,-574.4945 867.2287,-558.7966 849.5,-546 837.5044,-537.3415 830.6343,-539.6374 821.5,-528 817.089,-522.3802 813.1857,-516.2006 809.7346,-509.7318"/>
<polygon fill="none" stroke="#404040" points="809.5818,-509.4167 803.364,-505.7643 804.344,-498.6201 810.5618,-502.2724 809.5818,-509.4167"/>
<text text-anchor="middle" x="852.5" y="-520" font-family="Helvetica,sans-Serif" font-size="10.00" fill="#000000"> +isdangling</text>
</g>
<!-- Node15&#45;&gt;Node11 -->
<g id="edge19" class="edge">
<title>Node15&#45;&gt;Node11</title>
<path fill="none" stroke="#404040" d="M1258.1595,-546.3495C1259.9294,-489.4649 1254.2281,-401.5905 1210.5,-342 1168.2469,-284.4196 1093.3891,-250.4427 1034.9819,-231.5832"/>
<polygon fill="none" stroke="#404040" points="1034.6168,-231.4694 1027.6981,-233.5023 1023.1606,-227.8978 1030.0792,-225.8648 1034.6168,-231.4694"/>
<text text-anchor="middle" x="1273.5" y="-418" font-family="Helvetica,sans-Serif" font-size="10.00" fill="#000000"> +spec</text>
</g>
<!-- Node15&#45;&gt;Node19 -->
<g id="edge29" class="edge">
<title>Node15&#45;&gt;Node19</title>
<path fill="none" stroke="#404040" d="M1182.3691,-550.212C1179.4225,-548.7052 1176.4606,-547.293 1173.5,-546 1116.4637,-521.0912 1097.9107,-527.1144 1036.5,-517 969.3767,-505.9447 947.3753,-524.9702 884.5,-499 883.4736,-498.5761 882.449,-498.1385 881.4264,-497.6879"/>
<polygon fill="none" stroke="#404040" points="881.3516,-497.6516 874.2059,-498.6203 870.5633,-492.3968 877.7091,-491.4281 881.3516,-497.6516"/>
<text text-anchor="middle" x="1134.5" y="-520" font-family="Helvetica,sans-Serif" font-size="10.00" fill="#000000"> +spec</text>
</g>
<!-- Node16 -->
<g id="node16" class="node">
<title>Node16</title>
<polygon fill="none" stroke="#bfbfbf" points="1281.5,-734 1281.5,-791 1369.5,-791 1369.5,-734 1281.5,-734"/>
<text text-anchor="middle" x="1325.5" y="-779" font-family="Helvetica,sans-Serif" font-size="10.00" fill="#000000">enum Lifetime</text>
<polyline fill="none" stroke="#bfbfbf" points="1281.5,-772 1369.5,-772 "/>
<text text-anchor="middle" x="1325.5" y="-760" font-family="Helvetica,sans-Serif" font-size="10.00" fill="#000000"> </text>
<polyline fill="none" stroke="#bfbfbf" points="1281.5,-753 1369.5,-753 "/>
<text text-anchor="middle" x="1325.5" y="-741" font-family="Helvetica,sans-Serif" font-size="10.00" fill="#000000"> </text>
</g>
<!-- Node16&#45;&gt;Node15 -->
<g id="edge20" class="edge">
<title>Node16&#45;&gt;Node15</title>
<path fill="none" stroke="#404040" d="M1312.6278,-733.8952C1304.6,-716.0556 1293.9114,-692.303 1283.831,-669.9022"/>
<polygon fill="none" stroke="#404040" points="1283.714,-669.6422 1277.6041,-665.8121 1278.7896,-658.6991 1284.8995,-662.5291 1283.714,-669.6422"/>
<text text-anchor="middle" x="1320.5" y="-685.5" font-family="Helvetica,sans-Serif" font-size="10.00" fill="#000000"> +lifetime</text>
</g>
<!-- Node17 -->
<g id="node17" class="node">
<title>Node17</title>
<polygon fill="none" stroke="#bfbfbf" points="1099.5,-717.5 1099.5,-807.5 1263.5,-807.5 1263.5,-717.5 1099.5,-717.5"/>
<text text-anchor="start" x="1107.5" y="-795.5" font-family="Helvetica,sans-Serif" font-size="10.00" fill="#000000">variant&lt; o2::framework</text>
<text text-anchor="start" x="1107.5" y="-784.5" font-family="Helvetica,sans-Serif" font-size="10.00" fill="#000000">::ConcreteDataMatcher,</text>
<text text-anchor="start" x="1107.5" y="-773.5" font-family="Helvetica,sans-Serif" font-size="10.00" fill="#000000"> o2::framework::data_matcher</text>
<text text-anchor="middle" x="1181.5" y="-762.5" font-family="Helvetica,sans-Serif" font-size="10.00" fill="#000000">::DataDescriptorMatcher &gt;</text>
<polyline fill="none" stroke="#bfbfbf" points="1099.5,-755.5 1263.5,-755.5 "/>
<text text-anchor="middle" x="1181.5" y="-743.5" font-family="Helvetica,sans-Serif" font-size="10.00" fill="#000000"> </text>
<polyline fill="none" stroke="#bfbfbf" points="1099.5,-736.5 1263.5,-736.5 "/>
<text text-anchor="middle" x="1181.5" y="-724.5" font-family="Helvetica,sans-Serif" font-size="10.00" fill="#000000"> </text>
</g>
<!-- Node17&#45;&gt;Node15 -->
<g id="edge21" class="edge">
<title>Node17&#45;&gt;Node15</title>
<path fill="none" stroke="#404040" d="M1201.9397,-717.0784C1208.5943,-702.2904 1216.1273,-685.5505 1223.339,-669.5244"/>
<polygon fill="none" stroke="#404040" points="1223.3413,-669.5192 1222.1558,-662.4062 1228.2657,-658.5761 1229.4512,-665.6891 1223.3413,-669.5192"/>
<text text-anchor="middle" x="1245.5" y="-685.5" font-family="Helvetica,sans-Serif" font-size="10.00" fill="#000000"> +matcher</text>
</g>
<!-- Node18 -->
<g id="node18" class="node">
<title>Node18</title>
<polygon fill="none" stroke="#bfbfbf" points="597,-574 597,-631 658,-631 658,-574 597,-574"/>
<text text-anchor="middle" x="627.5" y="-619" font-family="Helvetica,sans-Serif" font-size="10.00" fill="#000000">unsigned</text>
<polyline fill="none" stroke="#bfbfbf" points="597,-612 658,-612 "/>
<text text-anchor="middle" x="627.5" y="-600" font-family="Helvetica,sans-Serif" font-size="10.00" fill="#000000"> </text>
<polyline fill="none" stroke="#bfbfbf" points="597,-593 658,-593 "/>
<text text-anchor="middle" x="627.5" y="-581" font-family="Helvetica,sans-Serif" font-size="10.00" fill="#000000"> </text>
</g>
<!-- Node18&#45;&gt;Node11 -->
<g id="edge23" class="edge">
<title>Node18&#45;&gt;Node11</title>
<path fill="none" stroke="#404040" d="M616.8821,-573.6633C599.9107,-522.1608 573.22,-413.1106 621.5,-342 676.2219,-261.4011 789.1525,-230.3908 867.5634,-218.46"/>
<polygon fill="none" stroke="#404040" points="867.9582,-218.4036 873.3313,-213.5943 879.8373,-216.7043 874.4642,-221.5137 867.9582,-218.4036"/>
<text text-anchor="middle" x="655.5" y="-418" font-family="Helvetica,sans-Serif" font-size="10.00" fill="#000000"> +mTaskHash</text>
</g>
<!-- Node18&#45;&gt;Node19 -->
<g id="edge30" class="edge">
<title>Node18&#45;&gt;Node19</title>
<path fill="none" stroke="#404040" d="M632.6929,-573.9543C636.9369,-556.3126 644.2873,-533.895 656.5,-517 658.1249,-514.7521 671.1548,-504.5431 688.3275,-491.5502"/>
<polygon fill="none" stroke="#404040" points="688.6626,-491.2979 691.0488,-484.493 698.248,-484.0784 695.8618,-490.8833 688.6626,-491.2979"/>
<text text-anchor="middle" x="690.5" y="-520" font-family="Helvetica,sans-Serif" font-size="10.00" fill="#000000"> +mTaskHash</text>
</g>
<!-- Node19&#45;&gt;Node11 -->
<g id="edge24" class="edge">
<title>Node19&#45;&gt;Node11</title>
<path fill="none" stroke="#ffa500" d="M828.9323,-333.7811C833.5704,-326.5645 838.4472,-319.538 843.5,-313 854.3031,-299.0215 867.0574,-285.2207 879.9453,-272.5033"/>
<polygon fill="#ffa500" stroke="#ffa500" points="825.927,-331.9859 823.601,-342.3223 831.8652,-335.6925 825.927,-331.9859"/>
<text text-anchor="middle" x="868" y="-316" font-family="Helvetica,sans-Serif" font-size="10.00" fill="#000000"> &lt; TList &gt;</text>
</g>
<!-- Node20 -->
<g id="node20" class="node">
<title>Node20</title>
<polygon fill="none" stroke="#bfbfbf" points="676,-574 676,-631 773,-631 773,-574 676,-574"/>
<text text-anchor="middle" x="724.5" y="-619" font-family="Helvetica,sans-Serif" font-size="10.00" fill="#000000">shared_ptr&lt; T &gt;</text>
<polyline fill="none" stroke="#bfbfbf" points="676,-612 773,-612 "/>
<text text-anchor="middle" x="724.5" y="-600" font-family="Helvetica,sans-Serif" font-size="10.00" fill="#000000"> </text>
<polyline fill="none" stroke="#bfbfbf" points="676,-593 773,-593 "/>
<text text-anchor="middle" x="724.5" y="-581" font-family="Helvetica,sans-Serif" font-size="10.00" fill="#000000"> </text>
</g>
<!-- Node20&#45;&gt;Node19 -->
<g id="edge27" class="edge">
<title>Node20&#45;&gt;Node19</title>
<path fill="none" stroke="#404040" d="M723.876,-573.8358C724.2357,-556.966 725.9699,-535.3994 731.5,-517 732.22,-514.6046 733.0048,-512.202 733.846,-509.7991"/>
<polygon fill="none" stroke="#404040" points="733.8539,-509.7782 732.2746,-502.7422 738.162,-498.5782 739.7413,-505.6142 733.8539,-509.7782"/>
<text text-anchor="middle" x="752.5" y="-520" font-family="Helvetica,sans-Serif" font-size="10.00" fill="#000000"> +object</text>
</g>
</g>
</svg>
