<?xml version="1.0" encoding="UTF-8" standalone="no"?>
<!DOCTYPE svg PUBLIC "-//W3C//DTD SVG 1.1//EN"
 "http://www.w3.org/Graphics/SVG/1.1/DTD/svg11.dtd">
<!-- Generated by graphviz version 2.40.1 (20161225.0304)
 -->
<!-- Title: o2::mch::raw::DataBlock Pages: 1 -->
<svg width="330pt" height="309pt"
 viewBox="0.00 0.00 330.00 309.00" xmlns="http://www.w3.org/2000/svg" xmlns:xlink="http://www.w3.org/1999/xlink">
<g id="graph0" class="graph" transform="scale(1 1) rotate(0) translate(4 305)">
<title>o2::mch::raw::DataBlock</title>
<!-- Node1 -->
<g id="node1" class="node">
<title>Node1</title>
<polygon fill="#bfbfbf" stroke="#000000" points="60.5,-.5 60.5,-57.5 195.5,-57.5 195.5,-.5 60.5,-.5"/>
<text text-anchor="middle" x="128" y="-45.5" font-family="Helvetica,sans-Serif" font-size="10.00" fill="#000000">o2::mch::raw::DataBlock</text>
<polyline fill="none" stroke="#000000" points="60.5,-38.5 195.5,-38.5 "/>
<text text-anchor="middle" x="128" y="-26.5" font-family="Helvetica,sans-Serif" font-size="10.00" fill="#000000"> </text>
<polyline fill="none" stroke="#000000" points="60.5,-19.5 195.5,-19.5 "/>
<text text-anchor="start" x="68.5" y="-7.5" font-family="Helvetica,sans-Serif" font-size="10.00" fill="#000000">+ size()</text>
</g>
<!-- Node2 -->
<g id="node2" class="node">
<title>Node2</title>
<polygon fill="none" stroke="#bfbfbf" points="0,-105.5 0,-162.5 134,-162.5 134,-105.5 0,-105.5"/>
<text text-anchor="middle" x="67" y="-150.5" font-family="Helvetica,sans-Serif" font-size="10.00" fill="#000000">span&lt; const std::byte &gt;</text>
<polyline fill="none" stroke="#bfbfbf" points="0,-143.5 134,-143.5 "/>
<text text-anchor="middle" x="67" y="-131.5" font-family="Helvetica,sans-Serif" font-size="10.00" fill="#000000"> </text>
<polyline fill="none" stroke="#bfbfbf" points="0,-124.5 134,-124.5 "/>
<text text-anchor="middle" x="67" y="-112.5" font-family="Helvetica,sans-Serif" font-size="10.00" fill="#000000"> </text>
</g>
<!-- Node2&#45;&gt;Node1 -->
<g id="edge1" class="edge">
<title>Node2&#45;&gt;Node1</title>
<path fill="none" stroke="#404040" d="M83.6685,-105.3083C90.3256,-93.8493 98.0981,-80.4705 105.2593,-68.1439"/>
<polygon fill="none" stroke="#404040" points="105.3236,-68.0331 104.8789,-60.8357 111.3516,-57.657 111.7963,-64.8544 105.3236,-68.0331"/>
<text text-anchor="middle" x="124.5" y="-79" font-family="Helvetica,sans-Serif" font-size="10.00" fill="#000000"> +payload</text>
</g>
<!-- Node3 -->
<g id="node3" class="node">
<title>Node3</title>
<g id="a_node3"><a xlink:href="../../dc/d33/structo2_1_1mch_1_1raw_1_1DataBlockHeader.html" target="_top" xlink:title="A lightweight struct to describe a MCH Raw Data Block. ">
<polygon fill="none" stroke="#000000" points="152,-105.5 152,-162.5 322,-162.5 322,-105.5 152,-105.5"/>
<text text-anchor="middle" x="237" y="-150.5" font-family="Helvetica,sans-Serif" font-size="10.00" fill="#000000">o2::mch::raw::DataBlockHeader</text>
<polyline fill="none" stroke="#000000" points="152,-143.5 322,-143.5 "/>
<text text-anchor="middle" x="237" y="-131.5" font-family="Helvetica,sans-Serif" font-size="10.00" fill="#000000"> </text>
<polyline fill="none" stroke="#000000" points="152,-124.5 322,-124.5 "/>
<text text-anchor="middle" x="237" y="-112.5" font-family="Helvetica,sans-Serif" font-size="10.00" fill="#000000"> </text>
</a>
</g>
</g>
<!-- Node3&#45;&gt;Node1 -->
<g id="edge2" class="edge">
<title>Node3&#45;&gt;Node1</title>
<path fill="none" stroke="#404040" d="M207.2153,-105.3083C194.719,-93.2706 180.0233,-79.1142 166.705,-66.2847"/>
<polygon fill="none" stroke="#404040" points="166.3911,-65.9823 159.2948,-64.7004 157.7487,-57.657 164.845,-58.9388 166.3911,-65.9823"/>
<text text-anchor="middle" x="208" y="-79" font-family="Helvetica,sans-Serif" font-size="10.00" fill="#000000"> +header</text>
</g>
<!-- Node4 -->
<g id="node4" class="node">
<title>Node4</title>
<polygon fill="none" stroke="#bfbfbf" points="206.5,-243.5 206.5,-300.5 267.5,-300.5 267.5,-243.5 206.5,-243.5"/>
<text text-anchor="middle" x="237" y="-288.5" font-family="Helvetica,sans-Serif" font-size="10.00" fill="#000000">unsigned</text>
<polyline fill="none" stroke="#bfbfbf" points="206.5,-281.5 267.5,-281.5 "/>
<text text-anchor="middle" x="237" y="-269.5" font-family="Helvetica,sans-Serif" font-size="10.00" fill="#000000"> </text>
<polyline fill="none" stroke="#bfbfbf" points="206.5,-262.5 267.5,-262.5 "/>
<text text-anchor="middle" x="237" y="-250.5" font-family="Helvetica,sans-Serif" font-size="10.00" fill="#000000"> </text>
</g>
<!-- Node4&#45;&gt;Node3 -->
<g id="edge3" class="edge">
<title>Node4&#45;&gt;Node3</title>
<path fill="none" stroke="#404040" d="M237,-243.4063C237,-223.5153 237,-196.7072 237,-174.6065"/>
<polygon fill="none" stroke="#404040" points="237.0001,-174.5571 233,-168.5571 237,-162.5571 241,-168.557 237.0001,-174.5571"/>
<text text-anchor="middle" x="272.5" y="-217" font-family="Helvetica,sans-Serif" font-size="10.00" fill="#000000"> +payloadSize</text>
<text text-anchor="middle" x="272.5" y="-206" font-family="Helvetica,sans-Serif" font-size="10.00" fill="#000000">+bc</text>
<text text-anchor="middle" x="272.5" y="-195" font-family="Helvetica,sans-Serif" font-size="10.00" fill="#000000">+solarId</text>
<text text-anchor="middle" x="272.5" y="-184" font-family="Helvetica,sans-Serif" font-size="10.00" fill="#000000">+orbit</text>
</g>
</g>
</svg>
