<?xml version="1.0" encoding="UTF-8" standalone="no"?>
<!DOCTYPE svg PUBLIC "-//W3C//DTD SVG 1.1//EN"
 "http://www.w3.org/Graphics/SVG/1.1/DTD/svg11.dtd">
<!-- Generated by graphviz version 2.40.1 (20161225.0304)
 -->
<!-- Title: o2::header::RAWDataHeaderV6 Pages: 1 -->
<svg width="1081pt" height="490pt"
 viewBox="0.00 0.00 1081.00 490.00" xmlns="http://www.w3.org/2000/svg" xmlns:xlink="http://www.w3.org/1999/xlink">
<g id="graph0" class="graph" transform="scale(1 1) rotate(0) translate(4 486)">
<title>o2::header::RAWDataHeaderV6</title>
<!-- Node1 -->
<g id="node1" class="node">
<title>Node1</title>
<polygon fill="#bfbfbf" stroke="#000000" points="476,-.5 476,-266.5 643,-266.5 643,-.5 476,-.5"/>
<text text-anchor="middle" x="559.5" y="-254.5" font-family="Helvetica,sans-Serif" font-size="10.00" fill="#000000">o2::header::RAWDataHeaderV6</text>
<polyline fill="none" stroke="#000000" points="476,-247.5 643,-247.5 "/>
<text text-anchor="start" x="484" y="-235.5" font-family="Helvetica,sans-Serif" font-size="10.00" fill="#000000">+ word0</text>
<text text-anchor="start" x="484" y="-224.5" font-family="Helvetica,sans-Serif" font-size="10.00" fill="#000000">+ version</text>
<text text-anchor="start" x="484" y="-213.5" font-family="Helvetica,sans-Serif" font-size="10.00" fill="#000000">+ headerSize</text>
<text text-anchor="start" x="484" y="-202.5" font-family="Helvetica,sans-Serif" font-size="10.00" fill="#000000">+ zero0</text>
<text text-anchor="start" x="484" y="-191.5" font-family="Helvetica,sans-Serif" font-size="10.00" fill="#000000">+ word1</text>
<text text-anchor="start" x="484" y="-180.5" font-family="Helvetica,sans-Serif" font-size="10.00" fill="#000000">+ offsetToNext</text>
<text text-anchor="start" x="484" y="-169.5" font-family="Helvetica,sans-Serif" font-size="10.00" fill="#000000">+ memorySize</text>
<text text-anchor="start" x="484" y="-158.5" font-family="Helvetica,sans-Serif" font-size="10.00" fill="#000000">+ packetCounter</text>
<text text-anchor="start" x="484" y="-147.5" font-family="Helvetica,sans-Serif" font-size="10.00" fill="#000000">+ word2</text>
<text text-anchor="start" x="484" y="-136.5" font-family="Helvetica,sans-Serif" font-size="10.00" fill="#000000">+ bunchCrossing</text>
<text text-anchor="start" x="484" y="-125.5" font-family="Helvetica,sans-Serif" font-size="10.00" fill="#000000">+ reserved2</text>
<text text-anchor="start" x="484" y="-114.5" font-family="Helvetica,sans-Serif" font-size="10.00" fill="#000000">+ orbit</text>
<text text-anchor="start" x="484" y="-103.5" font-family="Helvetica,sans-Serif" font-size="10.00" fill="#000000">+ word3</text>
<text text-anchor="start" x="484" y="-92.5" font-family="Helvetica,sans-Serif" font-size="10.00" fill="#000000">+ word4</text>
<text text-anchor="start" x="484" y="-81.5" font-family="Helvetica,sans-Serif" font-size="10.00" fill="#000000">+ pageCnt</text>
<text text-anchor="start" x="484" y="-70.5" font-family="Helvetica,sans-Serif" font-size="10.00" fill="#000000">+ stop</text>
<text text-anchor="start" x="484" y="-59.5" font-family="Helvetica,sans-Serif" font-size="10.00" fill="#000000">+ zero4</text>
<text text-anchor="start" x="484" y="-48.5" font-family="Helvetica,sans-Serif" font-size="10.00" fill="#000000">+ word5</text>
<text text-anchor="start" x="484" y="-37.5" font-family="Helvetica,sans-Serif" font-size="10.00" fill="#000000">+ word6</text>
<text text-anchor="start" x="484" y="-26.5" font-family="Helvetica,sans-Serif" font-size="10.00" fill="#000000">+ detectorField</text>
<polyline fill="none" stroke="#000000" points="476,-19.5 643,-19.5 "/>
<text text-anchor="middle" x="559.5" y="-7.5" font-family="Helvetica,sans-Serif" font-size="10.00" fill="#000000"> </text>
</g>
<!-- Node2 -->
<g id="node2" class="node">
<title>Node2</title>
<polygon fill="none" stroke="#bfbfbf" points="0,-424.5 0,-481.5 113,-481.5 113,-424.5 0,-424.5"/>
<text text-anchor="middle" x="56.5" y="-469.5" font-family="Helvetica,sans-Serif" font-size="10.00" fill="#000000">anonymous:+@102</text>
<polyline fill="none" stroke="#bfbfbf" points="0,-462.5 113,-462.5 "/>
<text text-anchor="middle" x="56.5" y="-450.5" font-family="Helvetica,sans-Serif" font-size="10.00" fill="#000000"> </text>
<polyline fill="none" stroke="#bfbfbf" points="0,-443.5 113,-443.5 "/>
<text text-anchor="middle" x="56.5" y="-431.5" font-family="Helvetica,sans-Serif" font-size="10.00" fill="#000000"> </text>
</g>
<!-- Node2&#45;&gt;Node1 -->
<g id="edge1" class="edge">
<title>Node2&#45;&gt;Node1</title>
<path fill="none" stroke="#404040" d="M68.459,-424.3838C85.2592,-387.4 119.1775,-323.2296 166.5,-285 254.2364,-214.1219 378.9179,-173.6556 464.1731,-152.6846"/>
<polygon fill="none" stroke="#404040" points="464.2666,-152.6622 469.1639,-147.3691 475.9334,-149.8538 471.0362,-155.1469 464.2666,-152.6622"/>
<text text-anchor="middle" x="186.5" y="-343" font-family="Helvetica,sans-Serif" font-size="10.00" fill="#000000"> +@102</text>
</g>
<!-- Node3 -->
<g id="node3" class="node">
<title>Node3</title>
<polygon fill="none" stroke="#bfbfbf" points="131,-424.5 131,-481.5 238,-481.5 238,-424.5 131,-424.5"/>
<text text-anchor="middle" x="184.5" y="-469.5" font-family="Helvetica,sans-Serif" font-size="10.00" fill="#000000">anonymous:+@92</text>
<polyline fill="none" stroke="#bfbfbf" points="131,-462.5 238,-462.5 "/>
<text text-anchor="middle" x="184.5" y="-450.5" font-family="Helvetica,sans-Serif" font-size="10.00" fill="#000000"> </text>
<polyline fill="none" stroke="#bfbfbf" points="131,-443.5 238,-443.5 "/>
<text text-anchor="middle" x="184.5" y="-431.5" font-family="Helvetica,sans-Serif" font-size="10.00" fill="#000000"> </text>
</g>
<!-- Node3&#45;&gt;Node1 -->
<g id="edge2" class="edge">
<title>Node3&#45;&gt;Node1</title>
<path fill="none" stroke="#404040" d="M199.1662,-424.3111C218.5901,-388.4046 255.6759,-326.581 300.5,-285 348.8123,-240.1832 412.621,-202.665 464.814,-176.1757"/>
<polygon fill="none" stroke="#404040" points="465.0354,-176.0649 468.6094,-169.8018 475.7654,-170.692 472.1914,-176.9551 465.0354,-176.0649"/>
<text text-anchor="middle" x="317.5" y="-343" font-family="Helvetica,sans-Serif" font-size="10.00" fill="#000000"> +@92</text>
</g>
<!-- Node4 -->
<g id="node4" class="node">
<title>Node4</title>
<polygon fill="none" stroke="#bfbfbf" points="256,-424.5 256,-481.5 363,-481.5 363,-424.5 256,-424.5"/>
<text text-anchor="middle" x="309.5" y="-469.5" font-family="Helvetica,sans-Serif" font-size="10.00" fill="#000000">anonymous:+@88</text>
<polyline fill="none" stroke="#bfbfbf" points="256,-462.5 363,-462.5 "/>
<text text-anchor="middle" x="309.5" y="-450.5" font-family="Helvetica,sans-Serif" font-size="10.00" fill="#000000"> </text>
<polyline fill="none" stroke="#bfbfbf" points="256,-443.5 363,-443.5 "/>
<text text-anchor="middle" x="309.5" y="-431.5" font-family="Helvetica,sans-Serif" font-size="10.00" fill="#000000"> </text>
</g>
<!-- Node4&#45;&gt;Node1 -->
<g id="edge3" class="edge">
<title>Node4&#45;&gt;Node1</title>
<path fill="none" stroke="#404040" d="M325.7817,-424.2956C345.7343,-389.9719 381.3645,-331.3502 417.5,-285 432.9032,-265.2426 450.4079,-245.0477 467.7379,-226.1088"/>
<polygon fill="none" stroke="#404040" points="467.8106,-226.0301 468.9407,-218.908 475.9495,-217.2119 474.8194,-224.334 467.8106,-226.0301"/>
<text text-anchor="middle" x="434.5" y="-343" font-family="Helvetica,sans-Serif" font-size="10.00" fill="#000000"> +@88</text>
</g>
<!-- Node5 -->
<g id="node5" class="node">
<title>Node5</title>
<polygon fill="none" stroke="#bfbfbf" points="381,-424.5 381,-481.5 488,-481.5 488,-424.5 381,-424.5"/>
<text text-anchor="middle" x="434.5" y="-469.5" font-family="Helvetica,sans-Serif" font-size="10.00" fill="#000000">anonymous:+@94</text>
<polyline fill="none" stroke="#bfbfbf" points="381,-462.5 488,-462.5 "/>
<text text-anchor="middle" x="434.5" y="-450.5" font-family="Helvetica,sans-Serif" font-size="10.00" fill="#000000"> </text>
<polyline fill="none" stroke="#bfbfbf" points="381,-443.5 488,-443.5 "/>
<text text-anchor="middle" x="434.5" y="-431.5" font-family="Helvetica,sans-Serif" font-size="10.00" fill="#000000"> </text>
</g>
<!-- Node5&#45;&gt;Node1 -->
<g id="edge4" class="edge">
<title>Node5&#45;&gt;Node1</title>
<path fill="none" stroke="#404040" d="M445.7029,-424.3653C458.7654,-390.9776 481.3322,-333.2969 502.9427,-278.0605"/>
<polygon fill="none" stroke="#404040" points="503.0199,-277.8629 501.481,-270.8179 507.3921,-266.6877 508.9311,-273.7327 503.0199,-277.8629"/>
<text text-anchor="middle" x="514.5" y="-343" font-family="Helvetica,sans-Serif" font-size="10.00" fill="#000000"> +@94</text>
</g>
<!-- Node6 -->
<g id="node6" class="node">
<title>Node6</title>
<polygon fill="none" stroke="#bfbfbf" points="506,-424.5 506,-481.5 613,-481.5 613,-424.5 506,-424.5"/>
<text text-anchor="middle" x="559.5" y="-469.5" font-family="Helvetica,sans-Serif" font-size="10.00" fill="#000000">anonymous:+@90</text>
<polyline fill="none" stroke="#bfbfbf" points="506,-462.5 613,-462.5 "/>
<text text-anchor="middle" x="559.5" y="-450.5" font-family="Helvetica,sans-Serif" font-size="10.00" fill="#000000"> </text>
<polyline fill="none" stroke="#bfbfbf" points="506,-443.5 613,-443.5 "/>
<text text-anchor="middle" x="559.5" y="-431.5" font-family="Helvetica,sans-Serif" font-size="10.00" fill="#000000"> </text>
</g>
<!-- Node6&#45;&gt;Node1 -->
<g id="edge5" class="edge">
<title>Node6&#45;&gt;Node1</title>
<path fill="none" stroke="#404040" d="M559.5,-424.3653C559.5,-391.117 559.5,-333.7782 559.5,-278.7525"/>
<polygon fill="none" stroke="#404040" points="559.5001,-278.6877 555.5,-272.6878 559.5,-266.6877 563.5,-272.6877 559.5001,-278.6877"/>
<text text-anchor="middle" x="576.5" y="-343" font-family="Helvetica,sans-Serif" font-size="10.00" fill="#000000"> +@90</text>
</g>
<!-- Node7 -->
<g id="node7" class="node">
<title>Node7</title>
<polygon fill="none" stroke="#bfbfbf" points="631,-424.5 631,-481.5 738,-481.5 738,-424.5 631,-424.5"/>
<text text-anchor="middle" x="684.5" y="-469.5" font-family="Helvetica,sans-Serif" font-size="10.00" fill="#000000">anonymous:+@96</text>
<polyline fill="none" stroke="#bfbfbf" points="631,-462.5 738,-462.5 "/>
<text text-anchor="middle" x="684.5" y="-450.5" font-family="Helvetica,sans-Serif" font-size="10.00" fill="#000000"> </text>
<polyline fill="none" stroke="#bfbfbf" points="631,-443.5 738,-443.5 "/>
<text text-anchor="middle" x="684.5" y="-431.5" font-family="Helvetica,sans-Serif" font-size="10.00" fill="#000000"> </text>
</g>
<!-- Node7&#45;&gt;Node1 -->
<g id="edge6" class="edge">
<title>Node7&#45;&gt;Node1</title>
<path fill="none" stroke="#404040" d="M673.2971,-424.3653C660.2346,-390.9776 637.6678,-333.2969 616.0573,-278.0605"/>
<polygon fill="none" stroke="#404040" points="615.9801,-277.8629 610.0689,-273.7327 611.6079,-266.6877 617.519,-270.8179 615.9801,-277.8629"/>
<text text-anchor="middle" x="680.5" y="-343" font-family="Helvetica,sans-Serif" font-size="10.00" fill="#000000"> +@96</text>
</g>
<!-- Node8 -->
<g id="node8" class="node">
<title>Node8</title>
<polygon fill="none" stroke="#bfbfbf" points="756,-424.5 756,-481.5 863,-481.5 863,-424.5 756,-424.5"/>
<text text-anchor="middle" x="809.5" y="-469.5" font-family="Helvetica,sans-Serif" font-size="10.00" fill="#000000">anonymous:+@98</text>
<polyline fill="none" stroke="#bfbfbf" points="756,-462.5 863,-462.5 "/>
<text text-anchor="middle" x="809.5" y="-450.5" font-family="Helvetica,sans-Serif" font-size="10.00" fill="#000000"> </text>
<polyline fill="none" stroke="#bfbfbf" points="756,-443.5 863,-443.5 "/>
<text text-anchor="middle" x="809.5" y="-431.5" font-family="Helvetica,sans-Serif" font-size="10.00" fill="#000000"> </text>
</g>
<!-- Node8&#45;&gt;Node1 -->
<g id="edge7" class="edge">
<title>Node8&#45;&gt;Node1</title>
<path fill="none" stroke="#404040" d="M793.2183,-424.2956C773.2657,-389.9719 737.6355,-331.3502 701.5,-285 686.0968,-265.2426 668.5921,-245.0477 651.2621,-226.1088"/>
<polygon fill="none" stroke="#404040" points="651.1894,-226.0301 644.1806,-224.334 643.0505,-217.2119 650.0593,-218.908 651.1894,-226.0301"/>
<text text-anchor="middle" x="797.5" y="-343" font-family="Helvetica,sans-Serif" font-size="10.00" fill="#000000"> +@98</text>
</g>
<!-- Node9 -->
<g id="node9" class="node">
<title>Node9</title>
<polygon fill="none" stroke="#bfbfbf" points="881,-424.5 881,-481.5 942,-481.5 942,-424.5 881,-424.5"/>
<text text-anchor="middle" x="911.5" y="-469.5" font-family="Helvetica,sans-Serif" font-size="10.00" fill="#000000">unsigned</text>
<polyline fill="none" stroke="#bfbfbf" points="881,-462.5 942,-462.5 "/>
<text text-anchor="middle" x="911.5" y="-450.5" font-family="Helvetica,sans-Serif" font-size="10.00" fill="#000000"> </text>
<polyline fill="none" stroke="#bfbfbf" points="881,-443.5 942,-443.5 "/>
<text text-anchor="middle" x="911.5" y="-431.5" font-family="Helvetica,sans-Serif" font-size="10.00" fill="#000000"> </text>
</g>
<!-- Node9&#45;&gt;Node1 -->
<g id="edge8" class="edge">
<title>Node9&#45;&gt;Node1</title>
<path fill="none" stroke="#404040" d="M901.2186,-424.4839C887.1004,-388.4779 858.7955,-326.2617 818.5,-285 771.9482,-237.332 707.2615,-199.4784 654.1811,-173.5311"/>
<polygon fill="none" stroke="#404040" points="653.8563,-173.3751 646.7156,-174.3804 643.0412,-168.1757 650.1819,-167.1703 653.8563,-173.3751"/>
<text text-anchor="middle" x="926.5" y="-398" font-family="Helvetica,sans-Serif" font-size="10.00" fill="#000000"> +word7</text>
<text text-anchor="middle" x="926.5" y="-387" font-family="Helvetica,sans-Serif" font-size="10.00" fill="#000000">+triggerType</text>
<text text-anchor="middle" x="926.5" y="-376" font-family="Helvetica,sans-Serif" font-size="10.00" fill="#000000">+linkID</text>
<text text-anchor="middle" x="926.5" y="-365" font-family="Helvetica,sans-Serif" font-size="10.00" fill="#000000">+sourceID</text>
<text text-anchor="middle" x="926.5" y="-354" font-family="Helvetica,sans-Serif" font-size="10.00" fill="#000000">+zero6</text>
<text text-anchor="middle" x="926.5" y="-343" font-family="Helvetica,sans-Serif" font-size="10.00" fill="#000000">+detectorPAR</text>
<text text-anchor="middle" x="926.5" y="-332" font-family="Helvetica,sans-Serif" font-size="10.00" fill="#000000">+feeId</text>
<text text-anchor="middle" x="926.5" y="-321" font-family="Helvetica,sans-Serif" font-size="10.00" fill="#000000">+endPointID</text>
<text text-anchor="middle" x="926.5" y="-310" font-family="Helvetica,sans-Serif" font-size="10.00" fill="#000000">+priority</text>
<text text-anchor="middle" x="926.5" y="-299" font-family="Helvetica,sans-Serif" font-size="10.00" fill="#000000">+cruID</text>
<text text-anchor="middle" x="926.5" y="-288" font-family="Helvetica,sans-Serif" font-size="10.00" fill="#000000">...</text>
</g>
<!-- Node10 -->
<g id="node10" class="node">
<title>Node10</title>
<polygon fill="none" stroke="#bfbfbf" points="960,-424.5 960,-481.5 1073,-481.5 1073,-424.5 960,-424.5"/>
<text text-anchor="middle" x="1016.5" y="-469.5" font-family="Helvetica,sans-Serif" font-size="10.00" fill="#000000">anonymous:+@100</text>
<polyline fill="none" stroke="#bfbfbf" points="960,-462.5 1073,-462.5 "/>
<text text-anchor="middle" x="1016.5" y="-450.5" font-family="Helvetica,sans-Serif" font-size="10.00" fill="#000000"> </text>
<polyline fill="none" stroke="#bfbfbf" points="960,-443.5 1073,-443.5 "/>
<text text-anchor="middle" x="1016.5" y="-431.5" font-family="Helvetica,sans-Serif" font-size="10.00" fill="#000000"> </text>
</g>
<!-- Node10&#45;&gt;Node1 -->
<g id="edge9" class="edge">
<title>Node10&#45;&gt;Node1</title>
<path fill="none" stroke="#404040" d="M1015.136,-424.2237C1011.8827,-387.3623 1000.9644,-323.6349 964.5,-285 882.7631,-198.3978 746.8197,-160.9509 655.2301,-144.9935"/>
<polygon fill="none" stroke="#404040" points="655.0055,-144.9559 648.4267,-147.9087 643.1707,-142.9716 649.7496,-140.0188 655.0055,-144.9559"/>
<text text-anchor="middle" x="1032.5" y="-343" font-family="Helvetica,sans-Serif" font-size="10.00" fill="#000000"> +@100</text>
</g>
</g>
</svg>
