<?xml version="1.0" encoding="UTF-8" standalone="no"?>
<!DOCTYPE svg PUBLIC "-//W3C//DTD SVG 1.1//EN"
 "http://www.w3.org/Graphics/SVG/1.1/DTD/svg11.dtd">
<!-- Generated by graphviz version 2.40.1 (20161225.0304)
 -->
<!-- Title: HistogramTrackSelection Pages: 1 -->
<svg width="1220pt" height="805pt"
 viewBox="0.00 0.00 1220.00 805.00" xmlns="http://www.w3.org/2000/svg" xmlns:xlink="http://www.w3.org/1999/xlink">
<g id="graph0" class="graph" transform="scale(1 1) rotate(0) translate(4 801)">
<title>HistogramTrackSelection</title>
<!-- Node1 -->
<g id="node1" class="node">
<title>Node1</title>
<polygon fill="#bfbfbf" stroke="#000000" points="173,-.5 173,-68.5 311,-68.5 311,-.5 173,-.5"/>
<text text-anchor="middle" x="242" y="-56.5" font-family="Helvetica,sans-Serif" font-size="10.00" fill="#000000">HistogramTrackSelection</text>
<polyline fill="none" stroke="#000000" points="173,-49.5 311,-49.5 "/>
<text text-anchor="middle" x="242" y="-37.5" font-family="Helvetica,sans-Serif" font-size="10.00" fill="#000000"> </text>
<polyline fill="none" stroke="#000000" points="173,-30.5 311,-30.5 "/>
<text text-anchor="start" x="181" y="-18.5" font-family="Helvetica,sans-Serif" font-size="10.00" fill="#000000">+ init()</text>
<text text-anchor="start" x="181" y="-7.5" font-family="Helvetica,sans-Serif" font-size="10.00" fill="#000000">+ process()</text>
</g>
<!-- Node2 -->
<g id="node2" class="node">
<title>Node2</title>
<g id="a_node2"><a xlink:href="../../d8/d71/structo2_1_1framework_1_1Configurable.html" target="_top" xlink:title="{o2::framework::Configurable\l\&lt; int \&gt;\n||+ Configurable()\l+ operator int()\l+ operator&#45;\&gt;()\l}">
<polygon fill="none" stroke="#000000" points="104.5,-364.5 104.5,-454.5 259.5,-454.5 259.5,-364.5 104.5,-364.5"/>
<text text-anchor="start" x="112.5" y="-442.5" font-family="Helvetica,sans-Serif" font-size="10.00" fill="#000000">o2::framework::Configurable</text>
<text text-anchor="middle" x="182" y="-431.5" font-family="Helvetica,sans-Serif" font-size="10.00" fill="#000000">&lt; int &gt;</text>
<polyline fill="none" stroke="#000000" points="104.5,-424.5 259.5,-424.5 "/>
<text text-anchor="middle" x="182" y="-412.5" font-family="Helvetica,sans-Serif" font-size="10.00" fill="#000000"> </text>
<polyline fill="none" stroke="#000000" points="104.5,-405.5 259.5,-405.5 "/>
<text text-anchor="start" x="112.5" y="-393.5" font-family="Helvetica,sans-Serif" font-size="10.00" fill="#000000">+ Configurable()</text>
<text text-anchor="start" x="112.5" y="-382.5" font-family="Helvetica,sans-Serif" font-size="10.00" fill="#000000">+ operator int()</text>
<text text-anchor="start" x="112.5" y="-371.5" font-family="Helvetica,sans-Serif" font-size="10.00" fill="#000000">+ operator&#45;&gt;()</text>
</a>
</g>
</g>
<!-- Node2&#45;&gt;Node1 -->
<g id="edge1" class="edge">
<title>Node2&#45;&gt;Node1</title>
<path fill="none" stroke="#404040" d="M189.2374,-364.2662C200.743,-292.3562 223.0849,-152.7193 234.6567,-80.3959"/>
<polygon fill="none" stroke="#404040" points="234.6567,-80.3952 231.6549,-73.8386 236.5527,-68.5459 239.5544,-75.1026 234.6567,-80.3952"/>
<text text-anchor="middle" x="271" y="-197.5" font-family="Helvetica,sans-Serif" font-size="10.00" fill="#000000"> +selectedTracks</text>
</g>
<!-- Node3 -->
<g id="node3" class="node">
<title>Node3</title>
<polygon fill="none" stroke="#bfbfbf" points="609.5,-723 609.5,-780 638.5,-780 638.5,-723 609.5,-723"/>
<text text-anchor="middle" x="624" y="-768" font-family="Helvetica,sans-Serif" font-size="10.00" fill="#000000">int</text>
<polyline fill="none" stroke="#bfbfbf" points="609.5,-761 638.5,-761 "/>
<text text-anchor="middle" x="624" y="-749" font-family="Helvetica,sans-Serif" font-size="10.00" fill="#000000"> </text>
<polyline fill="none" stroke="#bfbfbf" points="609.5,-742 638.5,-742 "/>
<text text-anchor="middle" x="624" y="-730" font-family="Helvetica,sans-Serif" font-size="10.00" fill="#000000"> </text>
</g>
<!-- Node3&#45;&gt;Node2 -->
<g id="edge2" class="edge">
<title>Node3&#45;&gt;Node2</title>
<path fill="none" stroke="#404040" d="M609.1414,-749.71C543.8511,-741.544 283.2635,-705.7189 229,-648 204.8467,-622.3087 192.1994,-528.5312 186.3285,-466.5043"/>
<polygon fill="none" stroke="#404040" points="186.3284,-466.5027 181.8022,-460.889 185.2432,-454.5518 189.7694,-460.1655 186.3284,-466.5027"/>
<text text-anchor="middle" x="248.5" y="-600" font-family="Helvetica,sans-Serif" font-size="10.00" fill="#000000"> +value</text>
<text text-anchor="middle" x="248.5" y="-589" font-family="Helvetica,sans-Serif" font-size="10.00" fill="#000000">+name</text>
<text text-anchor="middle" x="248.5" y="-578" font-family="Helvetica,sans-Serif" font-size="10.00" fill="#000000">+help</text>
</g>
<!-- Node4 -->
<g id="node4" class="node">
<title>Node4</title>
<g id="a_node4"><a xlink:href="../../d8/d71/structo2_1_1framework_1_1Configurable.html" target="_top" xlink:title="{o2::framework::Configurable\&lt; T \&gt;\n||+ Configurable()\l+ operator T()\l+ operator&#45;\&gt;()\l}">
<polygon fill="none" stroke="#000000" points="0,-552 0,-631 184,-631 184,-552 0,-552"/>
<text text-anchor="middle" x="92" y="-619" font-family="Helvetica,sans-Serif" font-size="10.00" fill="#000000">o2::framework::Configurable&lt; T &gt;</text>
<polyline fill="none" stroke="#000000" points="0,-612 184,-612 "/>
<text text-anchor="middle" x="92" y="-600" font-family="Helvetica,sans-Serif" font-size="10.00" fill="#000000"> </text>
<polyline fill="none" stroke="#000000" points="0,-593 184,-593 "/>
<text text-anchor="start" x="8" y="-581" font-family="Helvetica,sans-Serif" font-size="10.00" fill="#000000">+ Configurable()</text>
<text text-anchor="start" x="8" y="-570" font-family="Helvetica,sans-Serif" font-size="10.00" fill="#000000">+ operator T()</text>
<text text-anchor="start" x="8" y="-559" font-family="Helvetica,sans-Serif" font-size="10.00" fill="#000000">+ operator&#45;&gt;()</text>
</a>
</g>
</g>
<!-- Node3&#45;&gt;Node4 -->
<g id="edge4" class="edge">
<title>Node3&#45;&gt;Node4</title>
<path fill="none" stroke="#404040" d="M609.3768,-750.9498C540.0068,-748.1208 244.2207,-733.5357 166,-688 146.9345,-676.9012 131.1043,-658.7854 119.0447,-641.2302"/>
<polygon fill="none" stroke="#404040" points="118.9387,-641.0676 112.3107,-638.2267 112.3839,-631.0159 119.0118,-633.8568 118.9387,-641.0676"/>
<text text-anchor="middle" x="186" y="-680" font-family="Helvetica,sans-Serif" font-size="10.00" fill="#000000"> +name</text>
<text text-anchor="middle" x="186" y="-669" font-family="Helvetica,sans-Serif" font-size="10.00" fill="#000000">+help</text>
</g>
<!-- Node6 -->
<g id="node6" class="node">
<title>Node6</title>
<g id="a_node6"><a xlink:href="../../d4/d79/structo2_1_1framework_1_1OutputObj.html" target="_top" xlink:title="{o2::framework::OutputObj\l\&lt; TH1F \&gt;\n||+ spec()\l+ OutputObj()\l+ OutputObj()\l+ setObject()\l+ setObject()\l+ setObject()\l+ setHash()\l+ operator&#45;\&gt;()\l+ operator*()\l+ ref()\l}">
<polygon fill="none" stroke="#000000" points="554.5,-116.5 554.5,-283.5 697.5,-283.5 697.5,-116.5 554.5,-116.5"/>
<text text-anchor="start" x="562.5" y="-271.5" font-family="Helvetica,sans-Serif" font-size="10.00" fill="#000000">o2::framework::OutputObj</text>
<text text-anchor="middle" x="626" y="-260.5" font-family="Helvetica,sans-Serif" font-size="10.00" fill="#000000">&lt; TH1F &gt;</text>
<polyline fill="none" stroke="#000000" points="554.5,-253.5 697.5,-253.5 "/>
<text text-anchor="middle" x="626" y="-241.5" font-family="Helvetica,sans-Serif" font-size="10.00" fill="#000000"> </text>
<polyline fill="none" stroke="#000000" points="554.5,-234.5 697.5,-234.5 "/>
<text text-anchor="start" x="562.5" y="-222.5" font-family="Helvetica,sans-Serif" font-size="10.00" fill="#000000">+ spec()</text>
<text text-anchor="start" x="562.5" y="-211.5" font-family="Helvetica,sans-Serif" font-size="10.00" fill="#000000">+ OutputObj()</text>
<text text-anchor="start" x="562.5" y="-200.5" font-family="Helvetica,sans-Serif" font-size="10.00" fill="#000000">+ OutputObj()</text>
<text text-anchor="start" x="562.5" y="-189.5" font-family="Helvetica,sans-Serif" font-size="10.00" fill="#000000">+ setObject()</text>
<text text-anchor="start" x="562.5" y="-178.5" font-family="Helvetica,sans-Serif" font-size="10.00" fill="#000000">+ setObject()</text>
<text text-anchor="start" x="562.5" y="-167.5" font-family="Helvetica,sans-Serif" font-size="10.00" fill="#000000">+ setObject()</text>
<text text-anchor="start" x="562.5" y="-156.5" font-family="Helvetica,sans-Serif" font-size="10.00" fill="#000000">+ setHash()</text>
<text text-anchor="start" x="562.5" y="-145.5" font-family="Helvetica,sans-Serif" font-size="10.00" fill="#000000">+ operator&#45;&gt;()</text>
<text text-anchor="start" x="562.5" y="-134.5" font-family="Helvetica,sans-Serif" font-size="10.00" fill="#000000">+ operator*()</text>
<text text-anchor="start" x="562.5" y="-123.5" font-family="Helvetica,sans-Serif" font-size="10.00" fill="#000000">+ ref()</text>
</a>
</g>
</g>
<!-- Node3&#45;&gt;Node6 -->
<g id="edge8" class="edge">
<title>Node3&#45;&gt;Node6</title>
<path fill="none" stroke="#404040" d="M638.5237,-744.2618C667.5493,-729.2901 733.7299,-692.5645 778,-648 838.1167,-587.4836 859.3991,-569.6765 884,-488 904.124,-421.1871 920.5007,-390.4696 884,-331 846.1846,-269.3883 769.3573,-235.6494 709.3273,-217.9157"/>
<polygon fill="none" stroke="#404040" points="709.1065,-217.8532 702.2427,-220.0643 697.5618,-214.5789 704.4256,-212.3678 709.1065,-217.8532"/>
<text text-anchor="middle" x="895" y="-509" font-family="Helvetica,sans-Serif" font-size="10.00" fill="#000000"> +label</text>
</g>
<!-- Node9 -->
<g id="node9" class="node">
<title>Node9</title>
<g id="a_node9"><a xlink:href="../../da/d96/structo2_1_1framework_1_1InputSpec.html" target="_top" xlink:title="{o2::framework::InputSpec\n||+ InputSpec()\l+ InputSpec()\l+ InputSpec()\l+ InputSpec()\l+ InputSpec()\l+ operator==()\l}">
<polygon fill="none" stroke="#000000" points="910,-535.5 910,-647.5 1052,-647.5 1052,-535.5 910,-535.5"/>
<text text-anchor="middle" x="981" y="-635.5" font-family="Helvetica,sans-Serif" font-size="10.00" fill="#000000">o2::framework::InputSpec</text>
<polyline fill="none" stroke="#000000" points="910,-628.5 1052,-628.5 "/>
<text text-anchor="middle" x="981" y="-616.5" font-family="Helvetica,sans-Serif" font-size="10.00" fill="#000000"> </text>
<polyline fill="none" stroke="#000000" points="910,-609.5 1052,-609.5 "/>
<text text-anchor="start" x="918" y="-597.5" font-family="Helvetica,sans-Serif" font-size="10.00" fill="#000000">+ InputSpec()</text>
<text text-anchor="start" x="918" y="-586.5" font-family="Helvetica,sans-Serif" font-size="10.00" fill="#000000">+ InputSpec()</text>
<text text-anchor="start" x="918" y="-575.5" font-family="Helvetica,sans-Serif" font-size="10.00" fill="#000000">+ InputSpec()</text>
<text text-anchor="start" x="918" y="-564.5" font-family="Helvetica,sans-Serif" font-size="10.00" fill="#000000">+ InputSpec()</text>
<text text-anchor="start" x="918" y="-553.5" font-family="Helvetica,sans-Serif" font-size="10.00" fill="#000000">+ InputSpec()</text>
<text text-anchor="start" x="918" y="-542.5" font-family="Helvetica,sans-Serif" font-size="10.00" fill="#000000">+ operator==()</text>
</a>
</g>
</g>
<!-- Node3&#45;&gt;Node9 -->
<g id="edge13" class="edge">
<title>Node3&#45;&gt;Node9</title>
<path fill="none" stroke="#404040" d="M638.5212,-751.0341C680.7709,-749.0879 806.1393,-739.0831 893,-688 907.1543,-679.6758 920.3429,-668.3384 931.9794,-656.3588"/>
<polygon fill="none" stroke="#404040" points="931.9955,-656.3415 933.1543,-649.2241 940.1699,-647.5563 939.0111,-654.6737 931.9955,-656.3415"/>
<text text-anchor="middle" x="945" y="-674.5" font-family="Helvetica,sans-Serif" font-size="10.00" fill="#000000"> +binding</text>
</g>
<!-- Node14 -->
<g id="node14" class="node">
<title>Node14</title>
<g id="a_node14"><a xlink:href="../../d4/d79/structo2_1_1framework_1_1OutputObj.html" target="_top" xlink:title="{o2::framework::OutputObj\&lt; T \&gt;\n||+ OutputObj()\l+ OutputObj()\l+ setObject()\l+ setObject()\l+ setObject()\l+ setHash()\l+ spec()\l+ operator&#45;\&gt;()\l+ operator*()\l+ ref()\l}">
<polygon fill="none" stroke="#000000" points="465,-331.5 465,-487.5 637,-487.5 637,-331.5 465,-331.5"/>
<text text-anchor="middle" x="551" y="-475.5" font-family="Helvetica,sans-Serif" font-size="10.00" fill="#000000">o2::framework::OutputObj&lt; T &gt;</text>
<polyline fill="none" stroke="#000000" points="465,-468.5 637,-468.5 "/>
<text text-anchor="middle" x="551" y="-456.5" font-family="Helvetica,sans-Serif" font-size="10.00" fill="#000000"> </text>
<polyline fill="none" stroke="#000000" points="465,-449.5 637,-449.5 "/>
<text text-anchor="start" x="473" y="-437.5" font-family="Helvetica,sans-Serif" font-size="10.00" fill="#000000">+ OutputObj()</text>
<text text-anchor="start" x="473" y="-426.5" font-family="Helvetica,sans-Serif" font-size="10.00" fill="#000000">+ OutputObj()</text>
<text text-anchor="start" x="473" y="-415.5" font-family="Helvetica,sans-Serif" font-size="10.00" fill="#000000">+ setObject()</text>
<text text-anchor="start" x="473" y="-404.5" font-family="Helvetica,sans-Serif" font-size="10.00" fill="#000000">+ setObject()</text>
<text text-anchor="start" x="473" y="-393.5" font-family="Helvetica,sans-Serif" font-size="10.00" fill="#000000">+ setObject()</text>
<text text-anchor="start" x="473" y="-382.5" font-family="Helvetica,sans-Serif" font-size="10.00" fill="#000000">+ setHash()</text>
<text text-anchor="start" x="473" y="-371.5" font-family="Helvetica,sans-Serif" font-size="10.00" fill="#000000">+ spec()</text>
<text text-anchor="start" x="473" y="-360.5" font-family="Helvetica,sans-Serif" font-size="10.00" fill="#000000">+ operator&#45;&gt;()</text>
<text text-anchor="start" x="473" y="-349.5" font-family="Helvetica,sans-Serif" font-size="10.00" fill="#000000">+ operator*()</text>
<text text-anchor="start" x="473" y="-338.5" font-family="Helvetica,sans-Serif" font-size="10.00" fill="#000000">+ ref()</text>
</a>
</g>
</g>
<!-- Node3&#45;&gt;Node14 -->
<g id="edge18" class="edge">
<title>Node3&#45;&gt;Node14</title>
<path fill="none" stroke="#404040" d="M622.2626,-722.7732C619.2904,-680.9679 611.9363,-601.1373 596,-535 593.194,-523.355 589.6836,-511.2896 585.8683,-499.4496"/>
<polygon fill="none" stroke="#404040" points="585.7509,-499.0962 580.0626,-494.6641 581.966,-487.7087 587.6543,-492.1408 585.7509,-499.0962"/>
<text text-anchor="middle" x="633" y="-589" font-family="Helvetica,sans-Serif" font-size="10.00" fill="#000000"> +label</text>
</g>
<!-- Node4&#45;&gt;Node2 -->
<g id="edge3" class="edge">
<title>Node4&#45;&gt;Node2</title>
<path fill="none" stroke="#ffa500" d="M116.1971,-542.568C129.6985,-515.2652 146.4033,-481.4844 159.6033,-454.7912"/>
<polygon fill="#ffa500" stroke="#ffa500" points="113.0463,-541.044 111.7509,-551.5593 119.321,-544.1469 113.0463,-541.044"/>
<text text-anchor="middle" x="151.5" y="-509" font-family="Helvetica,sans-Serif" font-size="10.00" fill="#000000"> &lt; int &gt;</text>
</g>
<!-- Node5 -->
<g id="node5" class="node">
<title>Node5</title>
<polygon fill="none" stroke="#bfbfbf" points="77.5,-723 77.5,-780 106.5,-780 106.5,-723 77.5,-723"/>
<text text-anchor="middle" x="92" y="-768" font-family="Helvetica,sans-Serif" font-size="10.00" fill="#000000">T</text>
<polyline fill="none" stroke="#bfbfbf" points="77.5,-761 106.5,-761 "/>
<text text-anchor="middle" x="92" y="-749" font-family="Helvetica,sans-Serif" font-size="10.00" fill="#000000"> </text>
<polyline fill="none" stroke="#bfbfbf" points="77.5,-742 106.5,-742 "/>
<text text-anchor="middle" x="92" y="-730" font-family="Helvetica,sans-Serif" font-size="10.00" fill="#000000"> </text>
</g>
<!-- Node5&#45;&gt;Node4 -->
<g id="edge5" class="edge">
<title>Node5&#45;&gt;Node4</title>
<path fill="none" stroke="#404040" d="M92,-722.8952C92,-700.8577 92,-669.7968 92,-643.4075"/>
<polygon fill="none" stroke="#404040" points="92.0001,-643.2754 88,-637.2755 92,-631.2754 96,-637.2754 92.0001,-643.2754"/>
<text text-anchor="middle" x="111.5" y="-674.5" font-family="Helvetica,sans-Serif" font-size="10.00" fill="#000000"> +value</text>
</g>
<!-- Node6&#45;&gt;Node1 -->
<g id="edge6" class="edge">
<title>Node6&#45;&gt;Node1</title>
<path fill="none" stroke="#404040" d="M554.223,-169.0649C488.3187,-140.6608 390.792,-98.6278 322.3176,-69.116"/>
<polygon fill="none" stroke="#404040" points="322.1823,-69.0578 315.0891,-70.3564 311.1622,-64.3082 318.2555,-63.0096 322.1823,-69.0578"/>
<text text-anchor="middle" x="400" y="-90" font-family="Helvetica,sans-Serif" font-size="10.00" fill="#000000"> +pt</text>
</g>
<!-- Node7 -->
<g id="node7" class="node">
<title>Node7</title>
<polygon fill="none" stroke="#bfbfbf" points="333.5,-563 333.5,-620 472.5,-620 472.5,-563 333.5,-563"/>
<text text-anchor="middle" x="403" y="-608" font-family="Helvetica,sans-Serif" font-size="10.00" fill="#000000">OutputObjHandlingPolicy</text>
<polyline fill="none" stroke="#bfbfbf" points="333.5,-601 472.5,-601 "/>
<text text-anchor="middle" x="403" y="-589" font-family="Helvetica,sans-Serif" font-size="10.00" fill="#000000"> </text>
<polyline fill="none" stroke="#bfbfbf" points="333.5,-582 472.5,-582 "/>
<text text-anchor="middle" x="403" y="-570" font-family="Helvetica,sans-Serif" font-size="10.00" fill="#000000"> </text>
</g>
<!-- Node7&#45;&gt;Node6 -->
<g id="edge7" class="edge">
<title>Node7&#45;&gt;Node6</title>
<path fill="none" stroke="#404040" d="M401.0492,-562.9484C397.5175,-503.6698 392.3753,-369.5604 415,-331 443.2717,-282.8153 496.975,-249.8484 543.1249,-229.0381"/>
<polygon fill="none" stroke="#404040" points="543.3677,-228.9323 547.2693,-222.8679 554.3679,-224.1368 550.4663,-230.2013 543.3677,-228.9323"/>
<text text-anchor="middle" x="435.5" y="-407" font-family="Helvetica,sans-Serif" font-size="10.00" fill="#000000"> +policy</text>
</g>
<!-- Node7&#45;&gt;Node14 -->
<g id="edge17" class="edge">
<title>Node7&#45;&gt;Node14</title>
<path fill="none" stroke="#404040" d="M426.451,-562.6616C440.9862,-544.7873 460.5054,-520.784 479.7735,-497.0894"/>
<polygon fill="none" stroke="#404040" points="479.8501,-496.9951 480.5322,-489.8163 487.4211,-487.6849 486.739,-494.8637 479.8501,-496.9951"/>
<text text-anchor="middle" x="489.5" y="-509" font-family="Helvetica,sans-Serif" font-size="10.00" fill="#000000"> +policy</text>
</g>
<!-- Node8 -->
<g id="node8" class="node">
<title>Node8</title>
<polygon fill="none" stroke="#bfbfbf" points="277,-563 277,-620 315,-620 315,-563 277,-563"/>
<text text-anchor="middle" x="296" y="-608" font-family="Helvetica,sans-Serif" font-size="10.00" fill="#000000">bool</text>
<polyline fill="none" stroke="#bfbfbf" points="277,-601 315,-601 "/>
<text text-anchor="middle" x="296" y="-589" font-family="Helvetica,sans-Serif" font-size="10.00" fill="#000000"> </text>
<polyline fill="none" stroke="#bfbfbf" points="277,-582 315,-582 "/>
<text text-anchor="middle" x="296" y="-570" font-family="Helvetica,sans-Serif" font-size="10.00" fill="#000000"> </text>
</g>
<!-- Node8&#45;&gt;Node6 -->
<g id="edge9" class="edge">
<title>Node8&#45;&gt;Node6</title>
<path fill="none" stroke="#404040" d="M291.6023,-562.7212C285.3268,-510.8295 279.748,-400.5281 332,-331 382.3548,-263.9965 474.6313,-230.5379 542.4179,-214.3173"/>
<polygon fill="none" stroke="#404040" points="542.6529,-214.2634 547.6058,-209.0224 554.3487,-211.5785 549.3958,-216.8196 542.6529,-214.2634"/>
<text text-anchor="middle" x="363" y="-407" font-family="Helvetica,sans-Serif" font-size="10.00" fill="#000000"> +isdangling</text>
</g>
<!-- Node8&#45;&gt;Node14 -->
<g id="edge20" class="edge">
<title>Node8&#45;&gt;Node14</title>
<path fill="none" stroke="#404040" d="M305.2719,-562.9539C309.6529,-553.0491 315.7697,-542.5467 324,-535 368.3601,-494.3244 398.0804,-516.6676 451,-488 452.1644,-487.3692 453.3292,-486.7249 454.4936,-486.068"/>
<polygon fill="none" stroke="#404040" points="454.6372,-485.9825 457.7459,-479.4759 464.9477,-479.8429 461.839,-486.3495 454.6372,-485.9825"/>
<text text-anchor="middle" x="421" y="-509" font-family="Helvetica,sans-Serif" font-size="10.00" fill="#000000"> +isdangling</text>
</g>
<!-- Node9&#45;&gt;Node6 -->
<g id="edge10" class="edge">
<title>Node9&#45;&gt;Node6</title>
<path fill="none" stroke="#404040" d="M983.8544,-535.3257C984.0149,-471.153 974.3854,-366.692 917,-302 889.0113,-270.4476 785.2315,-239.094 709.5643,-219.648"/>
<polygon fill="none" stroke="#404040" points="709.3087,-219.5832 702.509,-221.9843 697.6775,-216.6311 704.4771,-214.2301 709.3087,-219.5832"/>
<text text-anchor="middle" x="999" y="-407" font-family="Helvetica,sans-Serif" font-size="10.00" fill="#000000"> +spec</text>
</g>
<!-- Node9&#45;&gt;Node14 -->
<g id="edge21" class="edge">
<title>Node9&#45;&gt;Node14</title>
<path fill="none" stroke="#404040" d="M909.7754,-570.6482C819.9175,-544.1115 674.2429,-500.2404 651,-488 649.9961,-487.4713 648.9922,-486.9322 647.9887,-486.3833"/>
<polygon fill="none" stroke="#404040" points="647.6466,-486.1846 640.4492,-486.6292 637.2706,-480.1565 644.468,-479.7119 647.6466,-486.1846"/>
<text text-anchor="middle" x="746" y="-509" font-family="Helvetica,sans-Serif" font-size="10.00" fill="#000000"> +spec</text>
</g>
<!-- Node10 -->
<g id="node10" class="node">
<title>Node10</title>
<polygon fill="none" stroke="#bfbfbf" points="942,-723 942,-780 1030,-780 1030,-723 942,-723"/>
<text text-anchor="middle" x="986" y="-768" font-family="Helvetica,sans-Serif" font-size="10.00" fill="#000000">enum Lifetime</text>
<polyline fill="none" stroke="#bfbfbf" points="942,-761 1030,-761 "/>
<text text-anchor="middle" x="986" y="-749" font-family="Helvetica,sans-Serif" font-size="10.00" fill="#000000"> </text>
<polyline fill="none" stroke="#bfbfbf" points="942,-742 1030,-742 "/>
<text text-anchor="middle" x="986" y="-730" font-family="Helvetica,sans-Serif" font-size="10.00" fill="#000000"> </text>
</g>
<!-- Node10&#45;&gt;Node9 -->
<g id="edge11" class="edge">
<title>Node10&#45;&gt;Node9</title>
<path fill="none" stroke="#404040" d="M985.1061,-722.8952C984.5563,-705.3 983.8266,-681.9527 983.1351,-659.8235"/>
<polygon fill="none" stroke="#404040" points="983.1311,-659.6932 978.9456,-653.8211 982.7562,-647.6991 986.9417,-653.5712 983.1311,-659.6932"/>
<text text-anchor="middle" x="1008" y="-674.5" font-family="Helvetica,sans-Serif" font-size="10.00" fill="#000000"> +lifetime</text>
</g>
<!-- Node11 -->
<g id="node11" class="node">
<title>Node11</title>
<polygon fill="none" stroke="#bfbfbf" points="1048,-706.5 1048,-796.5 1212,-796.5 1212,-706.5 1048,-706.5"/>
<text text-anchor="start" x="1056" y="-784.5" font-family="Helvetica,sans-Serif" font-size="10.00" fill="#000000">variant&lt; o2::framework</text>
<text text-anchor="start" x="1056" y="-773.5" font-family="Helvetica,sans-Serif" font-size="10.00" fill="#000000">::ConcreteDataMatcher,</text>
<text text-anchor="start" x="1056" y="-762.5" font-family="Helvetica,sans-Serif" font-size="10.00" fill="#000000"> o2::framework::data_matcher</text>
<text text-anchor="middle" x="1130" y="-751.5" font-family="Helvetica,sans-Serif" font-size="10.00" fill="#000000">::DataDescriptorMatcher &gt;</text>
<polyline fill="none" stroke="#bfbfbf" points="1048,-744.5 1212,-744.5 "/>
<text text-anchor="middle" x="1130" y="-732.5" font-family="Helvetica,sans-Serif" font-size="10.00" fill="#000000"> </text>
<polyline fill="none" stroke="#bfbfbf" points="1048,-725.5 1212,-725.5 "/>
<text text-anchor="middle" x="1130" y="-713.5" font-family="Helvetica,sans-Serif" font-size="10.00" fill="#000000"> </text>
</g>
<!-- Node11&#45;&gt;Node9 -->
<g id="edge12" class="edge">
<title>Node11&#45;&gt;Node9</title>
<path fill="none" stroke="#404040" d="M1087.7011,-706.0784C1073.4002,-690.7217 1057.1389,-673.2599 1041.6975,-656.6785"/>
<polygon fill="none" stroke="#404040" points="1041.399,-656.3579 1034.3827,-654.6931 1033.2209,-647.5761 1040.2372,-649.241 1041.399,-656.3579"/>
<text text-anchor="middle" x="1094" y="-674.5" font-family="Helvetica,sans-Serif" font-size="10.00" fill="#000000"> +matcher</text>
</g>
<!-- Node12 -->
<g id="node12" class="node">
<title>Node12</title>
<polygon fill="none" stroke="#bfbfbf" points="708.5,-563 708.5,-620 769.5,-620 769.5,-563 708.5,-563"/>
<text text-anchor="middle" x="739" y="-608" font-family="Helvetica,sans-Serif" font-size="10.00" fill="#000000">unsigned</text>
<polyline fill="none" stroke="#bfbfbf" points="708.5,-601 769.5,-601 "/>
<text text-anchor="middle" x="739" y="-589" font-family="Helvetica,sans-Serif" font-size="10.00" fill="#000000"> </text>
<polyline fill="none" stroke="#bfbfbf" points="708.5,-582 769.5,-582 "/>
<text text-anchor="middle" x="739" y="-570" font-family="Helvetica,sans-Serif" font-size="10.00" fill="#000000"> </text>
</g>
<!-- Node12&#45;&gt;Node6 -->
<g id="edge14" class="edge">
<title>Node12&#45;&gt;Node6</title>
<path fill="none" stroke="#404040" d="M754.9404,-562.6073C762.5104,-544.6091 767.4791,-521.9299 755,-506 734.3928,-479.6944 705.0343,-512.2087 682,-488 678.575,-484.4004 658.5115,-378.1428 643.3704,-295.7391"/>
<polygon fill="none" stroke="#404040" points="643.3399,-295.5724 638.3229,-290.3926 641.1747,-283.7693 646.1916,-288.9491 643.3399,-295.5724"/>
<text text-anchor="middle" x="716" y="-407" font-family="Helvetica,sans-Serif" font-size="10.00" fill="#000000"> +mTaskHash</text>
</g>
<!-- Node12&#45;&gt;Node14 -->
<g id="edge22" class="edge">
<title>Node12&#45;&gt;Node14</title>
<path fill="none" stroke="#404040" d="M708.4086,-566.7176C695.1088,-556.4049 679.1333,-544.6204 664,-535 649.5707,-525.8271 642.9446,-528.1706 630,-517 622.9725,-510.9355 616.2091,-504.1352 609.7994,-496.9779"/>
<polygon fill="none" stroke="#404040" points="609.6934,-496.8544 602.75,-494.9078 601.8764,-487.7497 608.8198,-489.6964 609.6934,-496.8544"/>
<text text-anchor="middle" x="664" y="-509" font-family="Helvetica,sans-Serif" font-size="10.00" fill="#000000"> +mTaskHash</text>
</g>
<!-- Node13 -->
<g id="node13" class="node">
<title>Node13</title>
<polygon fill="none" stroke="#bfbfbf" points="759,-381 759,-438 875,-438 875,-381 759,-381"/>
<text text-anchor="middle" x="817" y="-426" font-family="Helvetica,sans-Serif" font-size="10.00" fill="#000000">shared_ptr&lt; TH1F &gt;</text>
<polyline fill="none" stroke="#bfbfbf" points="759,-419 875,-419 "/>
<text text-anchor="middle" x="817" y="-407" font-family="Helvetica,sans-Serif" font-size="10.00" fill="#000000"> </text>
<polyline fill="none" stroke="#bfbfbf" points="759,-400 875,-400 "/>
<text text-anchor="middle" x="817" y="-388" font-family="Helvetica,sans-Serif" font-size="10.00" fill="#000000"> </text>
</g>
<!-- Node13&#45;&gt;Node6 -->
<g id="edge15" class="edge">
<title>Node13&#45;&gt;Node6</title>
<path fill="none" stroke="#404040" d="M790.8427,-380.8092C768.8965,-356.7373 736.3503,-321.0387 705.9612,-287.7061"/>
<polygon fill="none" stroke="#404040" points="705.9598,-287.7046 698.9615,-285.9657 697.8751,-278.8368 704.8734,-280.5758 705.9598,-287.7046"/>
<text text-anchor="middle" x="749" y="-305" font-family="Helvetica,sans-Serif" font-size="10.00" fill="#000000"> +object</text>
</g>
<!-- Node14&#45;&gt;Node6 -->
<g id="edge16" class="edge">
<title>Node14&#45;&gt;Node6</title>
<path fill="none" stroke="#ffa500" d="M582.361,-321.8983C586.8885,-309.2514 591.5388,-296.2616 596.038,-283.6937"/>
<polygon fill="#ffa500" stroke="#ffa500" points="579.0026,-320.8954 578.9272,-331.4899 585.593,-323.2547 579.0026,-320.8954"/>
<text text-anchor="middle" x="614.5" y="-305" font-family="Helvetica,sans-Serif" font-size="10.00" fill="#000000"> &lt; TH1F &gt;</text>
</g>
<!-- Node15 -->
<g id="node15" class="node">
<title>Node15</title>
<polygon fill="none" stroke="#bfbfbf" points="490.5,-563 490.5,-620 587.5,-620 587.5,-563 490.5,-563"/>
<text text-anchor="middle" x="539" y="-608" font-family="Helvetica,sans-Serif" font-size="10.00" fill="#000000">shared_ptr&lt; T &gt;</text>
<polyline fill="none" stroke="#bfbfbf" points="490.5,-601 587.5,-601 "/>
<text text-anchor="middle" x="539" y="-589" font-family="Helvetica,sans-Serif" font-size="10.00" fill="#000000"> </text>
<polyline fill="none" stroke="#bfbfbf" points="490.5,-582 587.5,-582 "/>
<text text-anchor="middle" x="539" y="-570" font-family="Helvetica,sans-Serif" font-size="10.00" fill="#000000"> </text>
</g>
<!-- Node15&#45;&gt;Node14 -->
<g id="edge19" class="edge">
<title>Node15&#45;&gt;Node14</title>
<path fill="none" stroke="#404040" d="M538.6085,-562.9731C538.5613,-546.3391 538.8113,-524.9641 540,-506 540.1287,-503.9463 540.2702,-501.8692 540.4228,-499.7755"/>
<polygon fill="none" stroke="#404040" points="540.4361,-499.6114 536.9359,-493.3067 541.4093,-487.6509 544.9095,-493.9556 540.4361,-499.6114"/>
<text text-anchor="middle" x="561" y="-509" font-family="Helvetica,sans-Serif" font-size="10.00" fill="#000000"> +object</text>
</g>
</g>
</svg>
