<?xml version="1.0" encoding="UTF-8" standalone="no"?>
<!DOCTYPE svg PUBLIC "-//W3C//DTD SVG 1.1//EN"
 "http://www.w3.org/Graphics/SVG/1.1/DTD/svg11.dtd">
<!-- Generated by graphviz version 2.40.1 (20161225.0304)
 -->
<!-- Title: QATrackingKine Pages: 1 -->
<!--zoomable 816 -->
<svg id="main" version="1.1" xmlns="http://www.w3.org/2000/svg" xmlns:xlink="http://www.w3.org/1999/xlink" xml:space="preserve" onload="init(evt)">
<style type="text/css"><![CDATA[
.edge:hover path { stroke: red; }
.edge:hover polygon { stroke: red; fill: red; }
]]></style>
<script type="text/javascript"><![CDATA[
var edges = document.getElementsByTagName('g');
if (edges && edges.length) {
  for (var i=0;i<edges.length;i++) {
    if (edges[i].id.substr(0,4)=='edge') {
      edges[i].setAttribute('class','edge');
    }
  }
}
]]></script>
        <defs>
                <circle id="rim" cx="0" cy="0" r="7"/>
                <circle id="rim2" cx="0" cy="0" r="3.5"/>
                <g id="zoomPlus">
                        <use xlink:href="#rim" fill="#404040">
                                <set attributeName="fill" to="#808080" begin="zoomplus.mouseover" end="zoomplus.mouseout"/>
                        </use>
                        <path d="M-4,0h8M0,-4v8" fill="none" stroke="white" stroke-width="1.5" pointer-events="none"/>
                </g>
                <g id="zoomMin">
                        <use xlink:href="#rim" fill="#404040">
                                <set attributeName="fill" to="#808080" begin="zoomminus.mouseover" end="zoomminus.mouseout"/>
                        </use>
                        <path d="M-4,0h8" fill="none" stroke="white" stroke-width="1.5" pointer-events="none"/>
                </g>
                <g id="dirArrow">
                        <path fill="none" stroke="white" stroke-width="1.5" d="M0,-3.0v7 M-2.5,-0.5L0,-3.0L2.5,-0.5"/>
                </g>
               <g id="resetDef">
                       <use xlink:href="#rim2" fill="#404040">
                               <set attributeName="fill" to="#808080" begin="reset.mouseover" end="reset.mouseout"/>
                       </use>
               </g>
        </defs>

<script type="text/javascript">
var viewWidth = 1141;
var viewHeight = 816;
var sectionId = 'dynsection-0';
</script>
<script xlink:href="../../svgpan.js"/>
<svg id="graph" class="graph">
<g id="viewport">
<title>QATrackingKine</title>
<!-- Node1 -->
<g id="node1" class="node">
<title>Node1</title>
<polygon fill="#bfbfbf" stroke="#000000" points="152.8373,-.5 152.8373,-57.5 244.8373,-57.5 244.8373,-.5 152.8373,-.5"/>
<text text-anchor="middle" x="198.8373" y="-45.5" font-family="Helvetica,sans-Serif" font-size="10.00" fill="#000000">QATrackingKine</text>
<polyline fill="none" stroke="#000000" points="152.8373,-38.5 244.8373,-38.5 "/>
<text text-anchor="middle" x="198.8373" y="-26.5" font-family="Helvetica,sans-Serif" font-size="10.00" fill="#000000"> </text>
<polyline fill="none" stroke="#000000" points="152.8373,-19.5 244.8373,-19.5 "/>
<text text-anchor="start" x="160.8373" y="-7.5" font-family="Helvetica,sans-Serif" font-size="10.00" fill="#000000">+ process()</text>
</g>
<!-- Node2 -->
<g id="node2" class="node">
<title>Node2</title>
<g id="a_node2"><a xlink:href="../../d8/d71/structo2_1_1framework_1_1Configurable.html" target="_top" xlink:title="{o2::framework::Configurable\l\&lt; bool \&gt;\n||+ Configurable()\l+ operator bool()\l+ operator&#45;\&gt;()\l}">
<polygon fill="none" stroke="#000000" points="55.3373,-375.5 55.3373,-465.5 210.3373,-465.5 210.3373,-375.5 55.3373,-375.5"/>
<text text-anchor="start" x="63.3373" y="-453.5" font-family="Helvetica,sans-Serif" font-size="10.00" fill="#000000">o2::framework::Configurable</text>
<text text-anchor="middle" x="132.8373" y="-442.5" font-family="Helvetica,sans-Serif" font-size="10.00" fill="#000000">&lt; bool &gt;</text>
<polyline fill="none" stroke="#000000" points="55.3373,-435.5 210.3373,-435.5 "/>
<text text-anchor="middle" x="132.8373" y="-423.5" font-family="Helvetica,sans-Serif" font-size="10.00" fill="#000000"> </text>
<polyline fill="none" stroke="#000000" points="55.3373,-416.5 210.3373,-416.5 "/>
<text text-anchor="start" x="63.3373" y="-404.5" font-family="Helvetica,sans-Serif" font-size="10.00" fill="#000000">+ Configurable()</text>
<text text-anchor="start" x="63.3373" y="-393.5" font-family="Helvetica,sans-Serif" font-size="10.00" fill="#000000">+ operator bool()</text>
<text text-anchor="start" x="63.3373" y="-382.5" font-family="Helvetica,sans-Serif" font-size="10.00" fill="#000000">+ operator&#45;&gt;()</text>
</a>
</g>
</g>
<!-- Node2&#45;&gt;Node1 -->
<g id="edge1" class="edge">
<title>Node2&#45;&gt;Node1</title>
<path fill="none" stroke="#404040" d="M140.4728,-375.2075C153.4317,-298.3378 179.5313,-143.5201 191.9578,-69.8078"/>
<polygon fill="none" stroke="#404040" points="191.9771,-69.693 189.0303,-63.1115 193.9721,-57.8599 196.9189,-64.4414 191.9771,-69.693"/>
<text text-anchor="middle" x="199.3373" y="-208.5" font-family="Helvetica,sans-Serif" font-size="10.00" fill="#000000"> +ismc</text>
</g>
<!-- Node3 -->
<g id="node3" class="node">
<title>Node3</title>
<polygon fill="none" stroke="#bfbfbf" points="602.3373,-734 602.3373,-791 631.3373,-791 631.3373,-734 602.3373,-734"/>
<text text-anchor="middle" x="616.8373" y="-779" font-family="Helvetica,sans-Serif" font-size="10.00" fill="#000000">int</text>
<polyline fill="none" stroke="#bfbfbf" points="602.3373,-772 631.3373,-772 "/>
<text text-anchor="middle" x="616.8373" y="-760" font-family="Helvetica,sans-Serif" font-size="10.00" fill="#000000"> </text>
<polyline fill="none" stroke="#bfbfbf" points="602.3373,-753 631.3373,-753 "/>
<text text-anchor="middle" x="616.8373" y="-741" font-family="Helvetica,sans-Serif" font-size="10.00" fill="#000000"> </text>
</g>
<!-- Node3&#45;&gt;Node2 -->
<g id="edge2" class="edge">
<title>Node3&#45;&gt;Node2</title>
<path fill="none" stroke="#404040" d="M602.1743,-761.1514C513.8634,-752.8782 55.3783,-707.7355 18.8373,-659 -11.2904,-618.818 .7367,-592.847 18.8373,-546 29.1876,-519.2122 48.2061,-494.6147 67.7827,-474.4286"/>
<polygon fill="none" stroke="#404040" points="67.9807,-474.2314 69.4099,-467.1633 76.484,-465.7641 75.0548,-472.8322 67.9807,-474.2314"/>
<text text-anchor="middle" x="38.8373" y="-605.5" font-family="Helvetica,sans-Serif" font-size="10.00" fill="#000000"> +name</text>
<text text-anchor="middle" x="38.8373" y="-594.5" font-family="Helvetica,sans-Serif" font-size="10.00" fill="#000000">+help</text>
</g>
<!-- Node5 -->
<g id="node5" class="node">
<title>Node5</title>
<g id="a_node5"><a xlink:href="../../d8/d71/structo2_1_1framework_1_1Configurable.html" target="_top" xlink:title="{o2::framework::Configurable\&lt; T \&gt;\n||+ Configurable()\l+ operator T()\l+ operator&#45;\&gt;()\l}">
<polygon fill="none" stroke="#000000" points="67.8373,-563 67.8373,-642 251.8373,-642 251.8373,-563 67.8373,-563"/>
<text text-anchor="middle" x="159.8373" y="-630" font-family="Helvetica,sans-Serif" font-size="10.00" fill="#000000">o2::framework::Configurable&lt; T &gt;</text>
<polyline fill="none" stroke="#000000" points="67.8373,-623 251.8373,-623 "/>
<text text-anchor="middle" x="159.8373" y="-611" font-family="Helvetica,sans-Serif" font-size="10.00" fill="#000000"> </text>
<polyline fill="none" stroke="#000000" points="67.8373,-604 251.8373,-604 "/>
<text text-anchor="start" x="75.8373" y="-592" font-family="Helvetica,sans-Serif" font-size="10.00" fill="#000000">+ Configurable()</text>
<text text-anchor="start" x="75.8373" y="-581" font-family="Helvetica,sans-Serif" font-size="10.00" fill="#000000">+ operator T()</text>
<text text-anchor="start" x="75.8373" y="-570" font-family="Helvetica,sans-Serif" font-size="10.00" fill="#000000">+ operator&#45;&gt;()</text>
</a>
</g>
</g>
<!-- Node3&#45;&gt;Node5 -->
<g id="edge5" class="edge">
<title>Node3&#45;&gt;Node5</title>
<path fill="none" stroke="#404040" d="M602.1906,-759.4983C552.825,-749.1202 388.4861,-712.4407 260.8373,-659 252.8101,-655.6394 244.608,-651.7986 236.52,-647.7363"/>
<polygon fill="none" stroke="#404040" points="236.248,-647.5957 229.081,-648.3929 225.5887,-642.0839 232.7556,-641.2867 236.248,-647.5957"/>
<text text-anchor="middle" x="386.8373" y="-691" font-family="Helvetica,sans-Serif" font-size="10.00" fill="#000000"> +name</text>
<text text-anchor="middle" x="386.8373" y="-680" font-family="Helvetica,sans-Serif" font-size="10.00" fill="#000000">+help</text>
</g>
<!-- Node7 -->
<g id="node7" class="node">
<title>Node7</title>
<g id="a_node7"><a xlink:href="../../d4/d79/structo2_1_1framework_1_1OutputObj.html" target="_top" xlink:title="{o2::framework::OutputObj\l\&lt; TH1F \&gt;\n||+ spec()\l+ OutputObj()\l+ OutputObj()\l+ setObject()\l+ setObject()\l+ setObject()\l+ setHash()\l+ operator&#45;\&gt;()\l+ operator*()\l+ ref()\l}">
<polygon fill="none" stroke="#000000" points="504.3373,-127.5 504.3373,-294.5 647.3373,-294.5 647.3373,-127.5 504.3373,-127.5"/>
<text text-anchor="start" x="512.3373" y="-282.5" font-family="Helvetica,sans-Serif" font-size="10.00" fill="#000000">o2::framework::OutputObj</text>
<text text-anchor="middle" x="575.8373" y="-271.5" font-family="Helvetica,sans-Serif" font-size="10.00" fill="#000000">&lt; TH1F &gt;</text>
<polyline fill="none" stroke="#000000" points="504.3373,-264.5 647.3373,-264.5 "/>
<text text-anchor="middle" x="575.8373" y="-252.5" font-family="Helvetica,sans-Serif" font-size="10.00" fill="#000000"> </text>
<polyline fill="none" stroke="#000000" points="504.3373,-245.5 647.3373,-245.5 "/>
<text text-anchor="start" x="512.3373" y="-233.5" font-family="Helvetica,sans-Serif" font-size="10.00" fill="#000000">+ spec()</text>
<text text-anchor="start" x="512.3373" y="-222.5" font-family="Helvetica,sans-Serif" font-size="10.00" fill="#000000">+ OutputObj()</text>
<text text-anchor="start" x="512.3373" y="-211.5" font-family="Helvetica,sans-Serif" font-size="10.00" fill="#000000">+ OutputObj()</text>
<text text-anchor="start" x="512.3373" y="-200.5" font-family="Helvetica,sans-Serif" font-size="10.00" fill="#000000">+ setObject()</text>
<text text-anchor="start" x="512.3373" y="-189.5" font-family="Helvetica,sans-Serif" font-size="10.00" fill="#000000">+ setObject()</text>
<text text-anchor="start" x="512.3373" y="-178.5" font-family="Helvetica,sans-Serif" font-size="10.00" fill="#000000">+ setObject()</text>
<text text-anchor="start" x="512.3373" y="-167.5" font-family="Helvetica,sans-Serif" font-size="10.00" fill="#000000">+ setHash()</text>
<text text-anchor="start" x="512.3373" y="-156.5" font-family="Helvetica,sans-Serif" font-size="10.00" fill="#000000">+ operator&#45;&gt;()</text>
<text text-anchor="start" x="512.3373" y="-145.5" font-family="Helvetica,sans-Serif" font-size="10.00" fill="#000000">+ operator*()</text>
<text text-anchor="start" x="512.3373" y="-134.5" font-family="Helvetica,sans-Serif" font-size="10.00" fill="#000000">+ ref()</text>
</a>
</g>
</g>
<!-- Node3&#45;&gt;Node7 -->
<g id="edge9" class="edge">
<title>Node3&#45;&gt;Node7</title>
<path fill="none" stroke="#404040" d="M631.6252,-757.1761C663.0033,-745.0635 736.2794,-712.2947 771.8373,-659 807.5387,-605.4903 768.0798,-572.9404 799.8373,-517 805.7413,-506.6002 814.972,-509.9243 819.8373,-499 848.2256,-435.258 855.6551,-401.8835 819.8373,-342 785.2179,-284.12 715.2792,-250.3383 659.1209,-231.6239"/>
<polygon fill="none" stroke="#404040" points="658.7917,-231.5184 651.8571,-233.4963 647.3642,-227.8559 654.2988,-225.878 658.7917,-231.5184"/>
<text text-anchor="middle" x="817.8373" y="-520" font-family="Helvetica,sans-Serif" font-size="10.00" fill="#000000"> +label</text>
</g>
<!-- Node9 -->
<g id="node9" class="node">
<title>Node9</title>
<g id="a_node9"><a xlink:href="../../da/d96/structo2_1_1framework_1_1InputSpec.html" target="_top" xlink:title="{o2::framework::InputSpec\n||+ InputSpec()\l+ InputSpec()\l+ InputSpec()\l+ InputSpec()\l+ InputSpec()\l+ operator==()\l}">
<polygon fill="none" stroke="#000000" points="835.8373,-546.5 835.8373,-658.5 977.8373,-658.5 977.8373,-546.5 835.8373,-546.5"/>
<text text-anchor="middle" x="906.8373" y="-646.5" font-family="Helvetica,sans-Serif" font-size="10.00" fill="#000000">o2::framework::InputSpec</text>
<polyline fill="none" stroke="#000000" points="835.8373,-639.5 977.8373,-639.5 "/>
<text text-anchor="middle" x="906.8373" y="-627.5" font-family="Helvetica,sans-Serif" font-size="10.00" fill="#000000"> </text>
<polyline fill="none" stroke="#000000" points="835.8373,-620.5 977.8373,-620.5 "/>
<text text-anchor="start" x="843.8373" y="-608.5" font-family="Helvetica,sans-Serif" font-size="10.00" fill="#000000">+ InputSpec()</text>
<text text-anchor="start" x="843.8373" y="-597.5" font-family="Helvetica,sans-Serif" font-size="10.00" fill="#000000">+ InputSpec()</text>
<text text-anchor="start" x="843.8373" y="-586.5" font-family="Helvetica,sans-Serif" font-size="10.00" fill="#000000">+ InputSpec()</text>
<text text-anchor="start" x="843.8373" y="-575.5" font-family="Helvetica,sans-Serif" font-size="10.00" fill="#000000">+ InputSpec()</text>
<text text-anchor="start" x="843.8373" y="-564.5" font-family="Helvetica,sans-Serif" font-size="10.00" fill="#000000">+ InputSpec()</text>
<text text-anchor="start" x="843.8373" y="-553.5" font-family="Helvetica,sans-Serif" font-size="10.00" fill="#000000">+ operator==()</text>
</a>
</g>
</g>
<!-- Node3&#45;&gt;Node9 -->
<g id="edge14" class="edge">
<title>Node3&#45;&gt;Node9</title>
<path fill="none" stroke="#404040" d="M631.4688,-760.303C665.6318,-754.6608 752.4069,-737.3294 813.8373,-699 827.8157,-690.2782 841.1767,-678.998 853.1923,-667.2419"/>
<polygon fill="none" stroke="#404040" points="853.2645,-667.1688 854.6318,-660.0885 861.6934,-658.6274 860.3261,-665.7077 853.2645,-667.1688"/>
<text text-anchor="middle" x="863.8373" y="-685.5" font-family="Helvetica,sans-Serif" font-size="10.00" fill="#000000"> +binding</text>
</g>
<!-- Node14 -->
<g id="node14" class="node">
<title>Node14</title>
<g id="a_node14"><a xlink:href="../../d4/d79/structo2_1_1framework_1_1OutputObj.html" target="_top" xlink:title="{o2::framework::OutputObj\&lt; T \&gt;\n||+ OutputObj()\l+ OutputObj()\l+ setObject()\l+ setObject()\l+ setObject()\l+ setHash()\l+ spec()\l+ operator&#45;\&gt;()\l+ operator*()\l+ ref()\l}">
<polygon fill="none" stroke="#000000" points="408.8373,-342.5 408.8373,-498.5 580.8373,-498.5 580.8373,-342.5 408.8373,-342.5"/>
<text text-anchor="middle" x="494.8373" y="-486.5" font-family="Helvetica,sans-Serif" font-size="10.00" fill="#000000">o2::framework::OutputObj&lt; T &gt;</text>
<polyline fill="none" stroke="#000000" points="408.8373,-479.5 580.8373,-479.5 "/>
<text text-anchor="middle" x="494.8373" y="-467.5" font-family="Helvetica,sans-Serif" font-size="10.00" fill="#000000"> </text>
<polyline fill="none" stroke="#000000" points="408.8373,-460.5 580.8373,-460.5 "/>
<text text-anchor="start" x="416.8373" y="-448.5" font-family="Helvetica,sans-Serif" font-size="10.00" fill="#000000">+ OutputObj()</text>
<text text-anchor="start" x="416.8373" y="-437.5" font-family="Helvetica,sans-Serif" font-size="10.00" fill="#000000">+ OutputObj()</text>
<text text-anchor="start" x="416.8373" y="-426.5" font-family="Helvetica,sans-Serif" font-size="10.00" fill="#000000">+ setObject()</text>
<text text-anchor="start" x="416.8373" y="-415.5" font-family="Helvetica,sans-Serif" font-size="10.00" fill="#000000">+ setObject()</text>
<text text-anchor="start" x="416.8373" y="-404.5" font-family="Helvetica,sans-Serif" font-size="10.00" fill="#000000">+ setObject()</text>
<text text-anchor="start" x="416.8373" y="-393.5" font-family="Helvetica,sans-Serif" font-size="10.00" fill="#000000">+ setHash()</text>
<text text-anchor="start" x="416.8373" y="-382.5" font-family="Helvetica,sans-Serif" font-size="10.00" fill="#000000">+ spec()</text>
<text text-anchor="start" x="416.8373" y="-371.5" font-family="Helvetica,sans-Serif" font-size="10.00" fill="#000000">+ operator&#45;&gt;()</text>
<text text-anchor="start" x="416.8373" y="-360.5" font-family="Helvetica,sans-Serif" font-size="10.00" fill="#000000">+ operator*()</text>
<text text-anchor="start" x="416.8373" y="-349.5" font-family="Helvetica,sans-Serif" font-size="10.00" fill="#000000">+ ref()</text>
</a>
</g>
</g>
<!-- Node3&#45;&gt;Node14 -->
<g id="edge19" class="edge">
<title>Node3&#45;&gt;Node14</title>
<path fill="none" stroke="#404040" d="M617.6838,-733.6533C617.9389,-691.0156 614.5759,-609.3825 588.8373,-546 583.7278,-533.4176 577.0401,-520.9733 569.5833,-509.091"/>
<polygon fill="none" stroke="#404040" points="569.423,-508.846 562.7907,-506.0153 562.8527,-498.8044 569.485,-501.6351 569.423,-508.846"/>
<text text-anchor="middle" x="632.8373" y="-600" font-family="Helvetica,sans-Serif" font-size="10.00" fill="#000000"> +label</text>
</g>
<!-- Node4 -->
<g id="node4" class="node">
<title>Node4</title>
<polygon fill="none" stroke="#bfbfbf" points="269.8373,-574 269.8373,-631 307.8373,-631 307.8373,-574 269.8373,-574"/>
<text text-anchor="middle" x="288.8373" y="-619" font-family="Helvetica,sans-Serif" font-size="10.00" fill="#000000">bool</text>
<polyline fill="none" stroke="#bfbfbf" points="269.8373,-612 307.8373,-612 "/>
<text text-anchor="middle" x="288.8373" y="-600" font-family="Helvetica,sans-Serif" font-size="10.00" fill="#000000"> </text>
<polyline fill="none" stroke="#bfbfbf" points="269.8373,-593 307.8373,-593 "/>
<text text-anchor="middle" x="288.8373" y="-581" font-family="Helvetica,sans-Serif" font-size="10.00" fill="#000000"> </text>
</g>
<!-- Node4&#45;&gt;Node2 -->
<g id="edge3" class="edge">
<title>Node4&#45;&gt;Node2</title>
<path fill="none" stroke="#404040" d="M280.0558,-573.8317C275.708,-563.7943 269.4861,-553.235 260.8373,-546 238.8292,-527.5894 221.6559,-545.396 198.8373,-528 181.2121,-514.5631 167.2078,-494.9503 156.7159,-476.1442"/>
<polygon fill="none" stroke="#404040" points="156.7079,-476.1289 150.3663,-472.696 151.0961,-465.5219 157.4377,-468.9548 156.7079,-476.1289"/>
<text text-anchor="middle" x="218.3373" y="-520" font-family="Helvetica,sans-Serif" font-size="10.00" fill="#000000"> +value</text>
</g>
<!-- Node4&#45;&gt;Node7 -->
<g id="edge10" class="edge">
<title>Node4&#45;&gt;Node7</title>
<path fill="none" stroke="#404040" d="M277.1197,-573.8352C258.2271,-522.6054 227.6674,-413.9728 274.8373,-342 322.6046,-269.1158 420.6914,-236.5628 491.947,-222.1638"/>
<polygon fill="none" stroke="#404040" points="492.2448,-222.1067 497.3824,-217.0466 504.0293,-219.8428 498.8917,-224.9029 492.2448,-222.1067"/>
<text text-anchor="middle" x="305.8373" y="-418" font-family="Helvetica,sans-Serif" font-size="10.00" fill="#000000"> +isdangling</text>
</g>
<!-- Node4&#45;&gt;Node14 -->
<g id="edge21" class="edge">
<title>Node4&#45;&gt;Node14</title>
<path fill="none" stroke="#404040" d="M299.2291,-573.8089C303.6441,-564.2279 309.4951,-553.972 316.8373,-546 344.2565,-516.229 361.5226,-521.9838 394.8373,-499 396.1147,-498.1187 397.3974,-497.2266 398.6841,-496.325"/>
<polygon fill="none" stroke="#404040" points="398.8374,-496.2156 401.3988,-489.4747 408.6063,-489.2464 406.0449,-495.9873 398.8374,-496.2156"/>
<text text-anchor="middle" x="390.8373" y="-520" font-family="Helvetica,sans-Serif" font-size="10.00" fill="#000000"> +isdangling</text>
</g>
<!-- Node5&#45;&gt;Node2 -->
<g id="edge4" class="edge">
<title>Node5&#45;&gt;Node2</title>
<path fill="none" stroke="#ffa500" d="M136.2066,-553.2987C133.1557,-545.0228 130.5138,-536.3929 128.8373,-528 124.7949,-507.7627 124.9875,-484.9672 126.5122,-465.5924"/>
<polygon fill="#ffa500" stroke="#ffa500" points="133.0305,-554.7864 139.9428,-562.8159 139.5464,-552.2284 133.0305,-554.7864"/>
<text text-anchor="middle" x="152.3373" y="-520" font-family="Helvetica,sans-Serif" font-size="10.00" fill="#000000"> &lt; bool &gt;</text>
</g>
<!-- Node6 -->
<g id="node6" class="node">
<title>Node6</title>
<polygon fill="none" stroke="#bfbfbf" points="145.3373,-734 145.3373,-791 174.3373,-791 174.3373,-734 145.3373,-734"/>
<text text-anchor="middle" x="159.8373" y="-779" font-family="Helvetica,sans-Serif" font-size="10.00" fill="#000000">T</text>
<polyline fill="none" stroke="#bfbfbf" points="145.3373,-772 174.3373,-772 "/>
<text text-anchor="middle" x="159.8373" y="-760" font-family="Helvetica,sans-Serif" font-size="10.00" fill="#000000"> </text>
<polyline fill="none" stroke="#bfbfbf" points="145.3373,-753 174.3373,-753 "/>
<text text-anchor="middle" x="159.8373" y="-741" font-family="Helvetica,sans-Serif" font-size="10.00" fill="#000000"> </text>
</g>
<!-- Node6&#45;&gt;Node5 -->
<g id="edge6" class="edge">
<title>Node6&#45;&gt;Node5</title>
<path fill="none" stroke="#404040" d="M159.8373,-733.8952C159.8373,-711.8577 159.8373,-680.7968 159.8373,-654.4075"/>
<polygon fill="none" stroke="#404040" points="159.8374,-654.2754 155.8374,-648.2755 159.8373,-642.2754 163.8374,-648.2754 159.8374,-654.2754"/>
<text text-anchor="middle" x="179.3373" y="-685.5" font-family="Helvetica,sans-Serif" font-size="10.00" fill="#000000"> +value</text>
</g>
<!-- Node7&#45;&gt;Node1 -->
<g id="edge7" class="edge">
<title>Node7&#45;&gt;Node1</title>
<path fill="none" stroke="#404040" d="M504.0391,-176.3388C431.941,-141.5328 322.2903,-88.598 255.915,-56.5547"/>
<polygon fill="none" stroke="#404040" points="255.652,-56.4278 248.5097,-57.4215 244.8454,-51.2108 251.9877,-50.2171 255.652,-56.4278"/>
<text text-anchor="middle" x="370.3373" y="-101" font-family="Helvetica,sans-Serif" font-size="10.00" fill="#000000"> +hphi</text>
<text text-anchor="middle" x="370.3373" y="-90" font-family="Helvetica,sans-Serif" font-size="10.00" fill="#000000">+heta</text>
<text text-anchor="middle" x="370.3373" y="-79" font-family="Helvetica,sans-Serif" font-size="10.00" fill="#000000">+hpt</text>
</g>
<!-- Node8 -->
<g id="node8" class="node">
<title>Node8</title>
<polygon fill="none" stroke="#bfbfbf" points="326.3373,-574 326.3373,-631 465.3373,-631 465.3373,-574 326.3373,-574"/>
<text text-anchor="middle" x="395.8373" y="-619" font-family="Helvetica,sans-Serif" font-size="10.00" fill="#000000">OutputObjHandlingPolicy</text>
<polyline fill="none" stroke="#bfbfbf" points="326.3373,-612 465.3373,-612 "/>
<text text-anchor="middle" x="395.8373" y="-600" font-family="Helvetica,sans-Serif" font-size="10.00" fill="#000000"> </text>
<polyline fill="none" stroke="#bfbfbf" points="326.3373,-593 465.3373,-593 "/>
<text text-anchor="middle" x="395.8373" y="-581" font-family="Helvetica,sans-Serif" font-size="10.00" fill="#000000"> </text>
</g>
<!-- Node8&#45;&gt;Node7 -->
<g id="edge8" class="edge">
<title>Node8&#45;&gt;Node7</title>
<path fill="none" stroke="#404040" d="M380.8408,-573.7596C356.7924,-523.3429 316.4021,-417.1857 358.8373,-342 387.4828,-291.2466 444.5642,-257.9465 492.9943,-237.6244"/>
<polygon fill="none" stroke="#404040" points="493.015,-237.6161 497.0737,-231.6556 504.1367,-233.1095 500.078,-239.07 493.015,-237.6161"/>
<text text-anchor="middle" x="379.3373" y="-418" font-family="Helvetica,sans-Serif" font-size="10.00" fill="#000000"> +policy</text>
</g>
<!-- Node8&#45;&gt;Node14 -->
<g id="edge18" class="edge">
<title>Node8&#45;&gt;Node14</title>
<path fill="none" stroke="#404040" d="M416.683,-573.8277C426.1249,-560.2615 437.102,-543.6393 445.8373,-528 449.0879,-522.1803 452.3029,-516.1058 455.4389,-509.9347"/>
<polygon fill="none" stroke="#404040" points="455.6523,-509.505 454.738,-502.3521 460.9891,-498.757 461.9033,-505.91 455.6523,-509.505"/>
<text text-anchor="middle" x="471.3373" y="-520" font-family="Helvetica,sans-Serif" font-size="10.00" fill="#000000"> +policy</text>
</g>
<!-- Node9&#45;&gt;Node7 -->
<g id="edge11" class="edge">
<title>Node9&#45;&gt;Node7</title>
<path fill="none" stroke="#404040" d="M913.6347,-546.4374C918.1606,-482.6128 915.3322,-378.7135 860.8373,-313 834.5271,-281.2734 733.4597,-250.1319 659.1246,-230.7698"/>
<polygon fill="none" stroke="#404040" points="659.0613,-230.7536 652.2542,-233.1334 647.4393,-227.7652 654.2465,-225.3854 659.0613,-230.7536"/>
<text text-anchor="middle" x="931.8373" y="-418" font-family="Helvetica,sans-Serif" font-size="10.00" fill="#000000"> +spec</text>
</g>
<!-- Node9&#45;&gt;Node14 -->
<g id="edge22" class="edge">
<title>Node9&#45;&gt;Node14</title>
<path fill="none" stroke="#404040" d="M873.9025,-546.4377C864.4047,-534.8195 852.9895,-523.9983 839.8373,-517 793.5469,-492.3688 658.6707,-516.5273 592.4968,-498.856"/>
<polygon fill="none" stroke="#404040" points="592.3708,-498.8144 585.4185,-500.7293 580.977,-495.0484 587.9292,-493.1335 592.3708,-498.8144"/>
<text text-anchor="middle" x="870.8373" y="-520" font-family="Helvetica,sans-Serif" font-size="10.00" fill="#000000"> +spec</text>
</g>
<!-- Node10 -->
<g id="node10" class="node">
<title>Node10</title>
<polygon fill="none" stroke="#bfbfbf" points="862.8373,-734 862.8373,-791 950.8373,-791 950.8373,-734 862.8373,-734"/>
<text text-anchor="middle" x="906.8373" y="-779" font-family="Helvetica,sans-Serif" font-size="10.00" fill="#000000">enum Lifetime</text>
<polyline fill="none" stroke="#bfbfbf" points="862.8373,-772 950.8373,-772 "/>
<text text-anchor="middle" x="906.8373" y="-760" font-family="Helvetica,sans-Serif" font-size="10.00" fill="#000000"> </text>
<polyline fill="none" stroke="#bfbfbf" points="862.8373,-753 950.8373,-753 "/>
<text text-anchor="middle" x="906.8373" y="-741" font-family="Helvetica,sans-Serif" font-size="10.00" fill="#000000"> </text>
</g>
<!-- Node10&#45;&gt;Node9 -->
<g id="edge12" class="edge">
<title>Node10&#45;&gt;Node9</title>
<path fill="none" stroke="#404040" d="M906.8373,-733.8952C906.8373,-716.3 906.8373,-692.9527 906.8373,-670.8235"/>
<polygon fill="none" stroke="#404040" points="906.8374,-670.6991 902.8374,-664.6991 906.8373,-658.6991 910.8374,-664.6991 906.8374,-670.6991"/>
<text text-anchor="middle" x="931.8373" y="-685.5" font-family="Helvetica,sans-Serif" font-size="10.00" fill="#000000"> +lifetime</text>
</g>
<!-- Node11 -->
<g id="node11" class="node">
<title>Node11</title>
<polygon fill="none" stroke="#bfbfbf" points="968.8373,-717.5 968.8373,-807.5 1132.8373,-807.5 1132.8373,-717.5 968.8373,-717.5"/>
<text text-anchor="start" x="976.8373" y="-795.5" font-family="Helvetica,sans-Serif" font-size="10.00" fill="#000000">variant&lt; o2::framework</text>
<text text-anchor="start" x="976.8373" y="-784.5" font-family="Helvetica,sans-Serif" font-size="10.00" fill="#000000">::ConcreteDataMatcher,</text>
<text text-anchor="start" x="976.8373" y="-773.5" font-family="Helvetica,sans-Serif" font-size="10.00" fill="#000000"> o2::framework::data_matcher</text>
<text text-anchor="middle" x="1050.8373" y="-762.5" font-family="Helvetica,sans-Serif" font-size="10.00" fill="#000000">::DataDescriptorMatcher &gt;</text>
<polyline fill="none" stroke="#bfbfbf" points="968.8373,-755.5 1132.8373,-755.5 "/>
<text text-anchor="middle" x="1050.8373" y="-743.5" font-family="Helvetica,sans-Serif" font-size="10.00" fill="#000000"> </text>
<polyline fill="none" stroke="#bfbfbf" points="968.8373,-736.5 1132.8373,-736.5 "/>
<text text-anchor="middle" x="1050.8373" y="-724.5" font-family="Helvetica,sans-Serif" font-size="10.00" fill="#000000"> </text>
</g>
<!-- Node11&#45;&gt;Node9 -->
<g id="edge13" class="edge">
<title>Node11&#45;&gt;Node9</title>
<path fill="none" stroke="#404040" d="M1009.9579,-717.0784C996.1368,-701.7217 980.4213,-684.2599 965.498,-667.6785"/>
<polygon fill="none" stroke="#404040" points="965.3335,-667.4957 958.3465,-665.7118 957.3058,-658.5761 964.2928,-660.36 965.3335,-667.4957"/>
<text text-anchor="middle" x="1016.8373" y="-685.5" font-family="Helvetica,sans-Serif" font-size="10.00" fill="#000000"> +matcher</text>
</g>
<!-- Node12 -->
<g id="node12" class="node">
<title>Node12</title>
<polygon fill="none" stroke="#bfbfbf" points="701.3373,-574 701.3373,-631 762.3373,-631 762.3373,-574 701.3373,-574"/>
<text text-anchor="middle" x="731.8373" y="-619" font-family="Helvetica,sans-Serif" font-size="10.00" fill="#000000">unsigned</text>
<polyline fill="none" stroke="#bfbfbf" points="701.3373,-612 762.3373,-612 "/>
<text text-anchor="middle" x="731.8373" y="-600" font-family="Helvetica,sans-Serif" font-size="10.00" fill="#000000"> </text>
<polyline fill="none" stroke="#bfbfbf" points="701.3373,-593 762.3373,-593 "/>
<text text-anchor="middle" x="731.8373" y="-581" font-family="Helvetica,sans-Serif" font-size="10.00" fill="#000000"> </text>
</g>
<!-- Node12&#45;&gt;Node7 -->
<g id="edge15" class="edge">
<title>Node12&#45;&gt;Node7</title>
<path fill="none" stroke="#404040" d="M738.0146,-573.8245C747.2705,-523.9602 760.0485,-419.222 723.8373,-342 709.1756,-310.7331 683.1684,-283.804 657.0022,-262.6344"/>
<polygon fill="none" stroke="#404040" points="656.8246,-262.4953 649.6344,-261.9465 647.3755,-255.0983 654.5658,-255.6471 656.8246,-262.4953"/>
<text text-anchor="middle" x="781.8373" y="-418" font-family="Helvetica,sans-Serif" font-size="10.00" fill="#000000"> +mTaskHash</text>
</g>
<!-- Node12&#45;&gt;Node14 -->
<g id="edge23" class="edge">
<title>Node12&#45;&gt;Node14</title>
<path fill="none" stroke="#404040" d="M702.678,-573.8612C683.4,-555.9643 656.9515,-533.3026 630.8373,-517 616.5936,-508.1079 609.2602,-508.8379 591.8815,-499.6398"/>
<polygon fill="none" stroke="#404040" points="591.4685,-499.4005 584.2716,-499.8533 581.0855,-493.3841 588.2824,-492.9313 591.4685,-499.4005"/>
<text text-anchor="middle" x="678.8373" y="-520" font-family="Helvetica,sans-Serif" font-size="10.00" fill="#000000"> +mTaskHash</text>
</g>
<!-- Node13 -->
<g id="node13" class="node">
<title>Node13</title>
<polygon fill="none" stroke="#bfbfbf" points="598.8373,-392 598.8373,-449 714.8373,-449 714.8373,-392 598.8373,-392"/>
<text text-anchor="middle" x="656.8373" y="-437" font-family="Helvetica,sans-Serif" font-size="10.00" fill="#000000">shared_ptr&lt; TH1F &gt;</text>
<polyline fill="none" stroke="#bfbfbf" points="598.8373,-430 714.8373,-430 "/>
<text text-anchor="middle" x="656.8373" y="-418" font-family="Helvetica,sans-Serif" font-size="10.00" fill="#000000"> </text>
<polyline fill="none" stroke="#bfbfbf" points="598.8373,-411 714.8373,-411 "/>
<text text-anchor="middle" x="656.8373" y="-399" font-family="Helvetica,sans-Serif" font-size="10.00" fill="#000000"> </text>
</g>
<!-- Node13&#45;&gt;Node7 -->
<g id="edge16" class="edge">
<title>Node13&#45;&gt;Node7</title>
<path fill="none" stroke="#404040" d="M645.7445,-391.8092C637.1391,-369.5522 624.6908,-337.3556 612.6758,-306.2799"/>
<polygon fill="none" stroke="#404040" points="612.6043,-306.0947 606.7097,-301.9409 608.2768,-294.9021 614.1714,-299.0559 612.6043,-306.0947"/>
<text text-anchor="middle" x="639.8373" y="-316" font-family="Helvetica,sans-Serif" font-size="10.00" fill="#000000"> +object</text>
</g>
<!-- Node14&#45;&gt;Node7 -->
<g id="edge17" class="edge">
<title>Node14&#45;&gt;Node7</title>
<path fill="none" stroke="#ffa500" d="M528.7072,-332.8983C533.597,-320.2514 538.6192,-307.2616 543.4784,-294.6937"/>
<polygon fill="#ffa500" stroke="#ffa500" points="525.3405,-331.9006 524.9987,-342.4899 531.8695,-334.425 525.3405,-331.9006"/>
<text text-anchor="middle" x="561.3373" y="-316" font-family="Helvetica,sans-Serif" font-size="10.00" fill="#000000"> &lt; TH1F &gt;</text>
</g>
<!-- Node15 -->
<g id="node15" class="node">
<title>Node15</title>
<polygon fill="none" stroke="#bfbfbf" points="483.3373,-574 483.3373,-631 580.3373,-631 580.3373,-574 483.3373,-574"/>
<text text-anchor="middle" x="531.8373" y="-619" font-family="Helvetica,sans-Serif" font-size="10.00" fill="#000000">shared_ptr&lt; T &gt;</text>
<polyline fill="none" stroke="#bfbfbf" points="483.3373,-612 580.3373,-612 "/>
<text text-anchor="middle" x="531.8373" y="-600" font-family="Helvetica,sans-Serif" font-size="10.00" fill="#000000"> </text>
<polyline fill="none" stroke="#bfbfbf" points="483.3373,-593 580.3373,-593 "/>
<text text-anchor="middle" x="531.8373" y="-581" font-family="Helvetica,sans-Serif" font-size="10.00" fill="#000000"> </text>
</g>
<!-- Node15&#45;&gt;Node14 -->
<g id="edge20" class="edge">
<title>Node15&#45;&gt;Node14</title>
<path fill="none" stroke="#404040" d="M525.9746,-573.6616C522.4694,-556.42 517.8049,-533.4756 513.1557,-510.6065"/>
<polygon fill="none" stroke="#404040" points="513.1228,-510.4443 508.0076,-505.3615 510.7321,-498.6849 515.8472,-503.7677 513.1228,-510.4443"/>
<text text-anchor="middle" x="537.8373" y="-520" font-family="Helvetica,sans-Serif" font-size="10.00" fill="#000000"> +object</text>
</g>
</g>
</svg>
        <g id="navigator" transform="translate(0 0)" fill="#404254">
                <rect fill="#f2f5e9" fill-opacity="0.5" stroke="#606060" stroke-width=".5" x="0" y="0" width="60" height="60"/>
                <use id="zoomplus" xlink:href="#zoomPlus" x="17" y="9" onmousedown="handleZoom(evt,'in')"/>
                <use id="zoomminus" xlink:href="#zoomMin" x="42" y="9" onmousedown="handleZoom(evt,'out')"/>
                <use id="reset" xlink:href="#resetDef" x="30" y="36" onmousedown="handleReset()"/>
                <g id="arrowUp" xlink:href="#dirArrow" transform="translate(30 24)" onmousedown="handlePan(0,-1)">
                  <use xlink:href="#rim" fill="#404040">
                        <set attributeName="fill" to="#808080" begin="arrowUp.mouseover" end="arrowUp.mouseout"/>
                  </use>
                  <path fill="none" stroke="white" stroke-width="1.5" d="M0,-3.0v7 M-2.5,-0.5L0,-3.0L2.5,-0.5"/>
                </g>
                <g id="arrowRight" xlink:href="#dirArrow" transform="rotate(90) translate(36 -43)" onmousedown="handlePan(1,0)">
                  <use xlink:href="#rim" fill="#404040">
                        <set attributeName="fill" to="#808080" begin="arrowRight.mouseover" end="arrowRight.mouseout"/>
                  </use>
                  <path fill="none" stroke="white" stroke-width="1.5" d="M0,-3.0v7 M-2.5,-0.5L0,-3.0L2.5,-0.5"/>
                </g>
                <g id="arrowDown" xlink:href="#dirArrow" transform="rotate(180) translate(-30 -48)" onmousedown="handlePan(0,1)">
                  <use xlink:href="#rim" fill="#404040">
                        <set attributeName="fill" to="#808080" begin="arrowDown.mouseover" end="arrowDown.mouseout"/>
                  </use>
                  <path fill="none" stroke="white" stroke-width="1.5" d="M0,-3.0v7 M-2.5,-0.5L0,-3.0L2.5,-0.5"/>
                </g>
                <g id="arrowLeft" xlink:href="#dirArrow" transform="rotate(270) translate(-36 17)" onmousedown="handlePan(-1,0)">
                  <use xlink:href="#rim" fill="#404040">
                        <set attributeName="fill" to="#808080" begin="arrowLeft.mouseover" end="arrowLeft.mouseout"/>
                  </use>
                  <path fill="none" stroke="white" stroke-width="1.5" d="M0,-3.0v7 M-2.5,-0.5L0,-3.0L2.5,-0.5"/>
                </g>
        </g>
        <svg viewBox="0 0 15 15" width="100%" height="30px" preserveAspectRatio="xMaxYMin meet">
         <g id="arrow_out" transform="scale(0.3 0.3)">
          <a xlink:href="structQATrackingKine__coll__graph_org.svg" target="_base">
           <rect id="button" ry="5" rx="5" y="6" x="6" height="38" width="38"
                fill="#f2f5e9" fill-opacity="0.5" stroke="#606060" stroke-width="1.0"/>
           <path id="arrow"
             d="M 11.500037,31.436501 C 11.940474,20.09759 22.043105,11.32322 32.158766,21.979434 L 37.068811,17.246167 C 37.068811,17.246167 37.088388,32 37.088388,32 L 22.160133,31.978069 C 22.160133,31.978069 26.997745,27.140456 26.997745,27.140456 C 18.528582,18.264221 13.291696,25.230495 11.500037,31.436501 z"
             style="fill:#404040;"/>
          </a>
         </g>
        </svg>
</svg>
