<?xml version="1.0" encoding="UTF-8" standalone="no"?>
<!DOCTYPE svg PUBLIC "-//W3C//DTD SVG 1.1//EN"
 "http://www.w3.org/Graphics/SVG/1.1/DTD/svg11.dtd">
<!-- Generated by graphviz version 2.40.1 (20161225.0304)
 -->
<!-- Title: o2::header::NameHeader&lt; N &gt; Pages: 1 -->
<svg width="1001pt" height="1069pt"
 viewBox="0.00 0.00 1001.00 1069.00" xmlns="http://www.w3.org/2000/svg" xmlns:xlink="http://www.w3.org/1999/xlink">
<g id="graph0" class="graph" transform="scale(1 1) rotate(0) translate(4 1065)">
<title>o2::header::NameHeader&lt; N &gt;</title>
<!-- Node2 -->
<g id="node1" class="node">
<title>Node2</title>
<polygon fill="#bfbfbf" stroke="#000000" points="588.9998,-.5 588.9998,-112.5 757.9998,-112.5 757.9998,-.5 588.9998,-.5"/>
<text text-anchor="middle" x="673.4998" y="-100.5" font-family="Helvetica,sans-Serif" font-size="10.00" fill="#000000">o2::header::NameHeader&lt; N &gt;</text>
<polyline fill="none" stroke="#000000" points="588.9998,-93.5 757.9998,-93.5 "/>
<text text-anchor="middle" x="673.4998" y="-81.5" font-family="Helvetica,sans-Serif" font-size="10.00" fill="#000000"> </text>
<polyline fill="none" stroke="#000000" points="588.9998,-74.5 757.9998,-74.5 "/>
<text text-anchor="start" x="596.9998" y="-62.5" font-family="Helvetica,sans-Serif" font-size="10.00" fill="#000000">+ NameHeader()</text>
<text text-anchor="start" x="596.9998" y="-51.5" font-family="Helvetica,sans-Serif" font-size="10.00" fill="#000000">+ NameHeader()</text>
<text text-anchor="start" x="596.9998" y="-40.5" font-family="Helvetica,sans-Serif" font-size="10.00" fill="#000000">+ getName()</text>
<text text-anchor="start" x="596.9998" y="-29.5" font-family="Helvetica,sans-Serif" font-size="10.00" fill="#000000">+ getNameLength()</text>
<text text-anchor="start" x="596.9998" y="-18.5" font-family="Helvetica,sans-Serif" font-size="10.00" fill="#000000">+ sHeaderType()</text>
<text text-anchor="start" x="596.9998" y="-7.5" font-family="Helvetica,sans-Serif" font-size="10.00" fill="#000000">+ sHeaderType()</text>
</g>
<!-- Node3 -->
<g id="node2" class="node">
<title>Node3</title>
<g id="a_node2"><a xlink:href="../../d8/dbd/structo2_1_1header_1_1BaseHeader.html" target="_top" xlink:title="the base header struct Every header type must begin (i.e. derive) with this. Don&#39;t use this struct di...">
<polygon fill="none" stroke="#000000" points="491.9998,-182.5 491.9998,-349.5 664.9998,-349.5 664.9998,-182.5 491.9998,-182.5"/>
<text text-anchor="middle" x="578.4998" y="-337.5" font-family="Helvetica,sans-Serif" font-size="10.00" fill="#000000">o2::header::BaseHeader</text>
<polyline fill="none" stroke="#000000" points="491.9998,-330.5 664.9998,-330.5 "/>
<text text-anchor="middle" x="578.4998" y="-318.5" font-family="Helvetica,sans-Serif" font-size="10.00" fill="#000000"> </text>
<polyline fill="none" stroke="#000000" points="491.9998,-311.5 664.9998,-311.5 "/>
<text text-anchor="start" x="499.9998" y="-299.5" font-family="Helvetica,sans-Serif" font-size="10.00" fill="#000000">+ BaseHeader()</text>
<text text-anchor="start" x="499.9998" y="-288.5" font-family="Helvetica,sans-Serif" font-size="10.00" fill="#000000">+ BaseHeader()</text>
<text text-anchor="start" x="499.9998" y="-277.5" font-family="Helvetica,sans-Serif" font-size="10.00" fill="#000000">+ BaseHeader()</text>
<text text-anchor="start" x="499.9998" y="-266.5" font-family="Helvetica,sans-Serif" font-size="10.00" fill="#000000">+ size()</text>
<text text-anchor="start" x="499.9998" y="-255.5" font-family="Helvetica,sans-Serif" font-size="10.00" fill="#000000">+ data()</text>
<text text-anchor="start" x="499.9998" y="-244.5" font-family="Helvetica,sans-Serif" font-size="10.00" fill="#000000">+ next()</text>
<text text-anchor="start" x="499.9998" y="-233.5" font-family="Helvetica,sans-Serif" font-size="10.00" fill="#000000">+ next()</text>
<text text-anchor="start" x="499.9998" y="-222.5" font-family="Helvetica,sans-Serif" font-size="10.00" fill="#000000">+ sanityCheck()</text>
<text text-anchor="start" x="499.9998" y="-211.5" font-family="Helvetica,sans-Serif" font-size="10.00" fill="#000000">+ throwInconsistentStackError()</text>
<text text-anchor="start" x="499.9998" y="-200.5" font-family="Helvetica,sans-Serif" font-size="10.00" fill="#000000">+ get()</text>
<text text-anchor="start" x="499.9998" y="-189.5" font-family="Helvetica,sans-Serif" font-size="10.00" fill="#000000">+ get()</text>
</a>
</g>
</g>
<!-- Node3&#45;&gt;Node2 -->
<g id="edge1" class="edge">
<title>Node3&#45;&gt;Node2</title>
<path fill="none" stroke="#191970" d="M620.707,-172.922C630.0128,-152.4002 639.593,-131.2734 647.9949,-112.7449"/>
<polygon fill="none" stroke="#191970" points="617.3982,-171.744 616.4559,-182.2969 623.7733,-174.6349 617.3982,-171.744"/>
</g>
<!-- Node4 -->
<g id="node3" class="node">
<title>Node4</title>
<g id="a_node3"><a xlink:href="../../d9/db3/structo2_1_1header_1_1Descriptor.html" target="_top" xlink:title="{o2::header::Descriptor\l\&lt; gSizeHeaderDescriptionString \&gt;\n||+ Descriptor()\l+ Descriptor()\l+ Descriptor()\l+ Descriptor()\l+ operator=()\l+ operator ItgType()\l+ runtimeInit()\l+ operator==()\l+ operator==()\l+ operator\&lt;()\l+ operator!=()\l+ operator!=()\l+ as()\l+ print()\l}">
<polygon fill="none" stroke="#000000" points="281.9998,-452.5 281.9998,-663.5 466.9998,-663.5 466.9998,-452.5 281.9998,-452.5"/>
<text text-anchor="start" x="289.9998" y="-651.5" font-family="Helvetica,sans-Serif" font-size="10.00" fill="#000000">o2::header::Descriptor</text>
<text text-anchor="middle" x="374.4998" y="-640.5" font-family="Helvetica,sans-Serif" font-size="10.00" fill="#000000">&lt; gSizeHeaderDescriptionString &gt;</text>
<polyline fill="none" stroke="#000000" points="281.9998,-633.5 466.9998,-633.5 "/>
<text text-anchor="middle" x="374.4998" y="-621.5" font-family="Helvetica,sans-Serif" font-size="10.00" fill="#000000"> </text>
<polyline fill="none" stroke="#000000" points="281.9998,-614.5 466.9998,-614.5 "/>
<text text-anchor="start" x="289.9998" y="-602.5" font-family="Helvetica,sans-Serif" font-size="10.00" fill="#000000">+ Descriptor()</text>
<text text-anchor="start" x="289.9998" y="-591.5" font-family="Helvetica,sans-Serif" font-size="10.00" fill="#000000">+ Descriptor()</text>
<text text-anchor="start" x="289.9998" y="-580.5" font-family="Helvetica,sans-Serif" font-size="10.00" fill="#000000">+ Descriptor()</text>
<text text-anchor="start" x="289.9998" y="-569.5" font-family="Helvetica,sans-Serif" font-size="10.00" fill="#000000">+ Descriptor()</text>
<text text-anchor="start" x="289.9998" y="-558.5" font-family="Helvetica,sans-Serif" font-size="10.00" fill="#000000">+ operator=()</text>
<text text-anchor="start" x="289.9998" y="-547.5" font-family="Helvetica,sans-Serif" font-size="10.00" fill="#000000">+ operator ItgType()</text>
<text text-anchor="start" x="289.9998" y="-536.5" font-family="Helvetica,sans-Serif" font-size="10.00" fill="#000000">+ runtimeInit()</text>
<text text-anchor="start" x="289.9998" y="-525.5" font-family="Helvetica,sans-Serif" font-size="10.00" fill="#000000">+ operator==()</text>
<text text-anchor="start" x="289.9998" y="-514.5" font-family="Helvetica,sans-Serif" font-size="10.00" fill="#000000">+ operator==()</text>
<text text-anchor="start" x="289.9998" y="-503.5" font-family="Helvetica,sans-Serif" font-size="10.00" fill="#000000">+ operator&lt;()</text>
<text text-anchor="start" x="289.9998" y="-492.5" font-family="Helvetica,sans-Serif" font-size="10.00" fill="#000000">+ operator!=()</text>
<text text-anchor="start" x="289.9998" y="-481.5" font-family="Helvetica,sans-Serif" font-size="10.00" fill="#000000">+ operator!=()</text>
<text text-anchor="start" x="289.9998" y="-470.5" font-family="Helvetica,sans-Serif" font-size="10.00" fill="#000000">+ as()</text>
<text text-anchor="start" x="289.9998" y="-459.5" font-family="Helvetica,sans-Serif" font-size="10.00" fill="#000000">+ print()</text>
</a>
</g>
</g>
<!-- Node4&#45;&gt;Node3 -->
<g id="edge2" class="edge">
<title>Node4&#45;&gt;Node3</title>
<path fill="none" stroke="#404040" d="M411.2317,-452.2835C423.8345,-423.4862 439.6211,-393.2881 458.4998,-368 465.8131,-358.2037 474.2323,-348.7179 483.148,-339.7331"/>
<polygon fill="none" stroke="#404040" points="483.2319,-339.6513 484.7391,-332.5994 491.8282,-331.2784 490.321,-338.3303 483.2319,-339.6513"/>
<text text-anchor="middle" x="491.4998" y="-398.5" font-family="Helvetica,sans-Serif" font-size="10.00" fill="#000000"> +description</text>
</g>
<!-- Node5 -->
<g id="node4" class="node">
<title>Node5</title>
<polygon fill="none" stroke="#bfbfbf" points="558.9998,-1003.5 558.9998,-1060.5 597.9998,-1060.5 597.9998,-1003.5 558.9998,-1003.5"/>
<text text-anchor="middle" x="578.4998" y="-1048.5" font-family="Helvetica,sans-Serif" font-size="10.00" fill="#000000">Type</text>
<polyline fill="none" stroke="#bfbfbf" points="558.9998,-1041.5 597.9998,-1041.5 "/>
<text text-anchor="middle" x="578.4998" y="-1029.5" font-family="Helvetica,sans-Serif" font-size="10.00" fill="#000000"> </text>
<polyline fill="none" stroke="#bfbfbf" points="558.9998,-1022.5 597.9998,-1022.5 "/>
<text text-anchor="middle" x="578.4998" y="-1010.5" font-family="Helvetica,sans-Serif" font-size="10.00" fill="#000000"> </text>
</g>
<!-- Node5&#45;&gt;Node4 -->
<g id="edge3" class="edge">
<title>Node5&#45;&gt;Node4</title>
<path fill="none" stroke="#404040" d="M598.1476,-1023.0661C626.6713,-1008.8666 678.437,-978.1635 699.4998,-934 740.0601,-848.9548 755.3948,-797.8523 699.4998,-722 663.8906,-673.6766 628.7486,-696.4995 570.4998,-682 532.2197,-672.4712 515.9731,-682.5789 477.9673,-664.6548"/>
<polygon fill="none" stroke="#404040" points="477.9029,-664.6218 470.7385,-665.4419 467.226,-659.144 474.3904,-658.324 477.9029,-664.6218"/>
<text text-anchor="middle" x="747.9998" y="-825.5" font-family="Helvetica,sans-Serif" font-size="10.00" fill="#000000"> +itg</text>
</g>
<!-- Node9 -->
<g id="node8" class="node">
<title>Node9</title>
<g id="a_node8"><a xlink:href="../../d9/db3/structo2_1_1header_1_1Descriptor.html" target="_top" xlink:title="{o2::header::Descriptor\l\&lt; N, PrinterPolicy \&gt;\n||+ Descriptor()\l+ Descriptor()\l+ Descriptor()\l+ operator=()\l+ operator ItgType()\l+ Descriptor()\l+ runtimeInit()\l+ operator==()\l+ operator\&lt;()\l+ operator!=()\l+ operator==()\l+ operator!=()\l+ as()\l+ print()\l}">
<polygon fill="none" stroke="#000000" points="318.9998,-722.5 318.9998,-933.5 443.9998,-933.5 443.9998,-722.5 318.9998,-722.5"/>
<text text-anchor="start" x="326.9998" y="-921.5" font-family="Helvetica,sans-Serif" font-size="10.00" fill="#000000">o2::header::Descriptor</text>
<text text-anchor="middle" x="381.4998" y="-910.5" font-family="Helvetica,sans-Serif" font-size="10.00" fill="#000000">&lt; N, PrinterPolicy &gt;</text>
<polyline fill="none" stroke="#000000" points="318.9998,-903.5 443.9998,-903.5 "/>
<text text-anchor="middle" x="381.4998" y="-891.5" font-family="Helvetica,sans-Serif" font-size="10.00" fill="#000000"> </text>
<polyline fill="none" stroke="#000000" points="318.9998,-884.5 443.9998,-884.5 "/>
<text text-anchor="start" x="326.9998" y="-872.5" font-family="Helvetica,sans-Serif" font-size="10.00" fill="#000000">+ Descriptor()</text>
<text text-anchor="start" x="326.9998" y="-861.5" font-family="Helvetica,sans-Serif" font-size="10.00" fill="#000000">+ Descriptor()</text>
<text text-anchor="start" x="326.9998" y="-850.5" font-family="Helvetica,sans-Serif" font-size="10.00" fill="#000000">+ Descriptor()</text>
<text text-anchor="start" x="326.9998" y="-839.5" font-family="Helvetica,sans-Serif" font-size="10.00" fill="#000000">+ operator=()</text>
<text text-anchor="start" x="326.9998" y="-828.5" font-family="Helvetica,sans-Serif" font-size="10.00" fill="#000000">+ operator ItgType()</text>
<text text-anchor="start" x="326.9998" y="-817.5" font-family="Helvetica,sans-Serif" font-size="10.00" fill="#000000">+ Descriptor()</text>
<text text-anchor="start" x="326.9998" y="-806.5" font-family="Helvetica,sans-Serif" font-size="10.00" fill="#000000">+ runtimeInit()</text>
<text text-anchor="start" x="326.9998" y="-795.5" font-family="Helvetica,sans-Serif" font-size="10.00" fill="#000000">+ operator==()</text>
<text text-anchor="start" x="326.9998" y="-784.5" font-family="Helvetica,sans-Serif" font-size="10.00" fill="#000000">+ operator&lt;()</text>
<text text-anchor="start" x="326.9998" y="-773.5" font-family="Helvetica,sans-Serif" font-size="10.00" fill="#000000">+ operator!=()</text>
<text text-anchor="start" x="326.9998" y="-762.5" font-family="Helvetica,sans-Serif" font-size="10.00" fill="#000000">+ operator==()</text>
<text text-anchor="start" x="326.9998" y="-751.5" font-family="Helvetica,sans-Serif" font-size="10.00" fill="#000000">+ operator!=()</text>
<text text-anchor="start" x="326.9998" y="-740.5" font-family="Helvetica,sans-Serif" font-size="10.00" fill="#000000">+ as()</text>
<text text-anchor="start" x="326.9998" y="-729.5" font-family="Helvetica,sans-Serif" font-size="10.00" fill="#000000">+ print()</text>
</a>
</g>
</g>
<!-- Node5&#45;&gt;Node9 -->
<g id="edge8" class="edge">
<title>Node5&#45;&gt;Node9</title>
<path fill="none" stroke="#404040" d="M558.9156,-1018.4411C534.0256,-1000.686 490.4599,-967.8218 458.4998,-934 456.381,-931.7578 454.2706,-929.4557 452.1737,-927.1063"/>
<polygon fill="none" stroke="#404040" points="452.0093,-926.916 445.0596,-924.9918 444.1629,-917.8366 451.1125,-919.7608 452.0093,-926.916"/>
<text text-anchor="middle" x="524.9998" y="-966" font-family="Helvetica,sans-Serif" font-size="10.00" fill="#000000"> +itg</text>
</g>
<!-- Node10 -->
<g id="node9" class="node">
<title>Node10</title>
<g id="a_node9"><a xlink:href="../../d9/db3/structo2_1_1header_1_1Descriptor.html" target="_top" xlink:title="{o2::header::Descriptor\l\&lt; gSizeSerializationMethodString \&gt;\n||+ Descriptor()\l+ Descriptor()\l+ Descriptor()\l+ Descriptor()\l+ operator=()\l+ operator ItgType()\l+ runtimeInit()\l+ operator==()\l+ operator==()\l+ operator\&lt;()\l+ operator!=()\l+ operator!=()\l+ as()\l+ print()\l}">
<polygon fill="none" stroke="#000000" points="72.9998,-452.5 72.9998,-663.5 263.9998,-663.5 263.9998,-452.5 72.9998,-452.5"/>
<text text-anchor="start" x="80.9998" y="-651.5" font-family="Helvetica,sans-Serif" font-size="10.00" fill="#000000">o2::header::Descriptor</text>
<text text-anchor="middle" x="168.4998" y="-640.5" font-family="Helvetica,sans-Serif" font-size="10.00" fill="#000000">&lt; gSizeSerializationMethodString &gt;</text>
<polyline fill="none" stroke="#000000" points="72.9998,-633.5 263.9998,-633.5 "/>
<text text-anchor="middle" x="168.4998" y="-621.5" font-family="Helvetica,sans-Serif" font-size="10.00" fill="#000000"> </text>
<polyline fill="none" stroke="#000000" points="72.9998,-614.5 263.9998,-614.5 "/>
<text text-anchor="start" x="80.9998" y="-602.5" font-family="Helvetica,sans-Serif" font-size="10.00" fill="#000000">+ Descriptor()</text>
<text text-anchor="start" x="80.9998" y="-591.5" font-family="Helvetica,sans-Serif" font-size="10.00" fill="#000000">+ Descriptor()</text>
<text text-anchor="start" x="80.9998" y="-580.5" font-family="Helvetica,sans-Serif" font-size="10.00" fill="#000000">+ Descriptor()</text>
<text text-anchor="start" x="80.9998" y="-569.5" font-family="Helvetica,sans-Serif" font-size="10.00" fill="#000000">+ Descriptor()</text>
<text text-anchor="start" x="80.9998" y="-558.5" font-family="Helvetica,sans-Serif" font-size="10.00" fill="#000000">+ operator=()</text>
<text text-anchor="start" x="80.9998" y="-547.5" font-family="Helvetica,sans-Serif" font-size="10.00" fill="#000000">+ operator ItgType()</text>
<text text-anchor="start" x="80.9998" y="-536.5" font-family="Helvetica,sans-Serif" font-size="10.00" fill="#000000">+ runtimeInit()</text>
<text text-anchor="start" x="80.9998" y="-525.5" font-family="Helvetica,sans-Serif" font-size="10.00" fill="#000000">+ operator==()</text>
<text text-anchor="start" x="80.9998" y="-514.5" font-family="Helvetica,sans-Serif" font-size="10.00" fill="#000000">+ operator==()</text>
<text text-anchor="start" x="80.9998" y="-503.5" font-family="Helvetica,sans-Serif" font-size="10.00" fill="#000000">+ operator&lt;()</text>
<text text-anchor="start" x="80.9998" y="-492.5" font-family="Helvetica,sans-Serif" font-size="10.00" fill="#000000">+ operator!=()</text>
<text text-anchor="start" x="80.9998" y="-481.5" font-family="Helvetica,sans-Serif" font-size="10.00" fill="#000000">+ operator!=()</text>
<text text-anchor="start" x="80.9998" y="-470.5" font-family="Helvetica,sans-Serif" font-size="10.00" fill="#000000">+ as()</text>
<text text-anchor="start" x="80.9998" y="-459.5" font-family="Helvetica,sans-Serif" font-size="10.00" fill="#000000">+ print()</text>
</a>
</g>
</g>
<!-- Node5&#45;&gt;Node10 -->
<g id="edge14" class="edge">
<title>Node5&#45;&gt;Node10</title>
<path fill="none" stroke="#404040" d="M577.3116,-1003.2714C574.0404,-930.4461 563.9018,-742.8907 545.4998,-722 522.5551,-695.9523 502.9865,-713.1423 469.4998,-704 437.6304,-695.2993 430.7307,-689.2476 398.4998,-682 346.8666,-670.3894 325.7412,-687.1017 275.1973,-664.7209"/>
<polygon fill="none" stroke="#404040" points="275.1385,-664.6929 268,-665.7135 264.3124,-659.5166 271.4509,-658.496 275.1385,-664.6929"/>
<text text-anchor="middle" x="585.9998" y="-825.5" font-family="Helvetica,sans-Serif" font-size="10.00" fill="#000000"> +itg</text>
</g>
<!-- Node6 -->
<g id="node5" class="node">
<title>Node6</title>
<polygon fill="none" stroke="#bfbfbf" points="85.4998,-1003.5 85.4998,-1060.5 123.4998,-1060.5 123.4998,-1003.5 85.4998,-1003.5"/>
<text text-anchor="middle" x="104.4998" y="-1048.5" font-family="Helvetica,sans-Serif" font-size="10.00" fill="#000000">char</text>
<polyline fill="none" stroke="#bfbfbf" points="85.4998,-1041.5 123.4998,-1041.5 "/>
<text text-anchor="middle" x="104.4998" y="-1029.5" font-family="Helvetica,sans-Serif" font-size="10.00" fill="#000000"> </text>
<polyline fill="none" stroke="#bfbfbf" points="85.4998,-1022.5 123.4998,-1022.5 "/>
<text text-anchor="middle" x="104.4998" y="-1010.5" font-family="Helvetica,sans-Serif" font-size="10.00" fill="#000000"> </text>
</g>
<!-- Node6&#45;&gt;Node3 -->
<g id="edge12" class="edge">
<title>Node6&#45;&gt;Node3</title>
<path fill="none" stroke="#404040" d="M90.3686,-1003.4792C47.0452,-911.5257 -72.947,-619.1515 63.4998,-452 117.1117,-386.3237 346.0245,-321.8723 479.9321,-288.8217"/>
<polygon fill="none" stroke="#404040" points="480.1344,-288.7722 485.0098,-283.459 491.7895,-285.9159 486.914,-291.2291 480.1344,-288.7722"/>
<text text-anchor="middle" x="37.4998" y="-690.5" font-family="Helvetica,sans-Serif" font-size="10.00" fill="#000000"> +magicString</text>
</g>
<!-- Node6&#45;&gt;Node4 -->
<g id="edge4" class="edge">
<title>Node6&#45;&gt;Node4</title>
<path fill="none" stroke="#404040" d="M123.8114,-1014.6041C142.5346,-996.4802 170.0254,-966.2653 183.4998,-934 201.7704,-890.2497 175.0878,-756.603 207.4998,-722 238.3713,-689.0416 271.8061,-731.6636 307.4998,-704 318.1555,-695.7415 327.176,-685.3961 334.7989,-674.0464"/>
<polygon fill="none" stroke="#404040" points="334.8078,-674.032 334.5789,-666.8245 341.1439,-663.8411 341.3728,-671.0486 334.8078,-674.032"/>
<text text-anchor="middle" x="219.9998" y="-825.5" font-family="Helvetica,sans-Serif" font-size="10.00" fill="#000000"> +str</text>
</g>
<!-- Node6&#45;&gt;Node9 -->
<g id="edge9" class="edge">
<title>Node6&#45;&gt;Node9</title>
<path fill="none" stroke="#404040" d="M123.7425,-1022.2148C153.8511,-1006.9547 213.9886,-976.6787 265.4998,-952 282.7163,-943.7516 289.7458,-946.1147 304.4998,-934 306.3456,-932.4844 308.1695,-930.9148 309.9702,-929.2982"/>
<polygon fill="none" stroke="#404040" points="310.1131,-929.1611 311.6753,-922.1212 318.7745,-920.8556 317.2123,-927.8955 310.1131,-929.1611"/>
<text text-anchor="middle" x="277.9998" y="-966" font-family="Helvetica,sans-Serif" font-size="10.00" fill="#000000"> +str</text>
</g>
<!-- Node6&#45;&gt;Node10 -->
<g id="edge15" class="edge">
<title>Node6&#45;&gt;Node10</title>
<path fill="none" stroke="#404040" d="M97.8182,-1003.3304C86.0766,-948.0761 65.0997,-823.3433 88.4998,-722 92.1129,-706.3519 97.4323,-690.47 103.6404,-675.0606"/>
<polygon fill="none" stroke="#404040" points="103.6657,-675.0001 102.2972,-667.9201 108.3063,-663.9337 109.6748,-671.0138 103.6657,-675.0001"/>
<text text-anchor="middle" x="100.9998" y="-825.5" font-family="Helvetica,sans-Serif" font-size="10.00" fill="#000000"> +str</text>
</g>
<!-- Node7 -->
<g id="node6" class="node">
<title>Node7</title>
<polygon fill="none" stroke="#bfbfbf" points="465.9998,-1003.5 465.9998,-1060.5 494.9998,-1060.5 494.9998,-1003.5 465.9998,-1003.5"/>
<text text-anchor="middle" x="480.4998" y="-1048.5" font-family="Helvetica,sans-Serif" font-size="10.00" fill="#000000">int</text>
<polyline fill="none" stroke="#bfbfbf" points="465.9998,-1041.5 494.9998,-1041.5 "/>
<text text-anchor="middle" x="480.4998" y="-1029.5" font-family="Helvetica,sans-Serif" font-size="10.00" fill="#000000"> </text>
<polyline fill="none" stroke="#bfbfbf" points="465.9998,-1022.5 494.9998,-1022.5 "/>
<text text-anchor="middle" x="480.4998" y="-1010.5" font-family="Helvetica,sans-Serif" font-size="10.00" fill="#000000"> </text>
</g>
<!-- Node7&#45;&gt;Node4 -->
<g id="edge5" class="edge">
<title>Node7&#45;&gt;Node4</title>
<path fill="none" stroke="#404040" d="M495.0252,-1025.7411C522.3322,-1013.0662 580.6274,-981.4728 603.4998,-934 644.3968,-849.1162 652.8328,-802.275 603.4998,-722 582.8941,-688.4702 560.5875,-697.7008 524.4998,-682 506.134,-674.0096 497.4156,-675.8876 477.6061,-664.6976"/>
<polygon fill="none" stroke="#404040" points="477.4819,-664.6208 470.2749,-664.8653 467.2774,-658.3067 474.4843,-658.0623 477.4819,-664.6208"/>
<text text-anchor="middle" x="666.4998" y="-836.5" font-family="Helvetica,sans-Serif" font-size="10.00" fill="#000000"> +arraySize</text>
<text text-anchor="middle" x="666.4998" y="-825.5" font-family="Helvetica,sans-Serif" font-size="10.00" fill="#000000">+size</text>
<text text-anchor="middle" x="666.4998" y="-814.5" font-family="Helvetica,sans-Serif" font-size="10.00" fill="#000000">+bitcount</text>
</g>
<!-- Node7&#45;&gt;Node9 -->
<g id="edge10" class="edge">
<title>Node7&#45;&gt;Node9</title>
<path fill="none" stroke="#404040" d="M465.7077,-1026.5865C448.9763,-1019.6498 422.2724,-1005.9579 408.4998,-985 400.668,-973.0823 394.8958,-959.5963 390.6712,-945.6571"/>
<polygon fill="none" stroke="#404040" points="390.6146,-945.4481 385.1842,-940.7035 387.4753,-933.866 392.9056,-938.6106 390.6146,-945.4481"/>
<text text-anchor="middle" x="437.4998" y="-977" font-family="Helvetica,sans-Serif" font-size="10.00" fill="#000000"> +arraySize</text>
<text text-anchor="middle" x="437.4998" y="-966" font-family="Helvetica,sans-Serif" font-size="10.00" fill="#000000">+size</text>
<text text-anchor="middle" x="437.4998" y="-955" font-family="Helvetica,sans-Serif" font-size="10.00" fill="#000000">+bitcount</text>
</g>
<!-- Node7&#45;&gt;Node10 -->
<g id="edge16" class="edge">
<title>Node7&#45;&gt;Node10</title>
<path fill="none" stroke="#404040" d="M481.7507,-1003.4336C484.1506,-935.1892 486.474,-765.1462 452.4998,-722 418.2416,-678.4932 387.3249,-698.6126 334.4998,-682 310.3357,-674.4008 299.711,-677.6636 274.9464,-664.8118"/>
<polygon fill="none" stroke="#404040" points="274.7191,-664.6834 267.5275,-665.2135 264.2722,-658.7789 271.4638,-658.2489 274.7191,-664.6834"/>
<text text-anchor="middle" x="512.4998" y="-836.5" font-family="Helvetica,sans-Serif" font-size="10.00" fill="#000000"> +arraySize</text>
<text text-anchor="middle" x="512.4998" y="-825.5" font-family="Helvetica,sans-Serif" font-size="10.00" fill="#000000">+size</text>
<text text-anchor="middle" x="512.4998" y="-814.5" font-family="Helvetica,sans-Serif" font-size="10.00" fill="#000000">+bitcount</text>
</g>
<!-- Node8 -->
<g id="node7" class="node">
<title>Node8</title>
<polygon fill="none" stroke="#bfbfbf" points="212.9998,-1003.5 212.9998,-1060.5 319.9998,-1060.5 319.9998,-1003.5 212.9998,-1003.5"/>
<text text-anchor="middle" x="266.4998" y="-1048.5" font-family="Helvetica,sans-Serif" font-size="10.00" fill="#000000">anonymous:+@72</text>
<polyline fill="none" stroke="#bfbfbf" points="212.9998,-1041.5 319.9998,-1041.5 "/>
<text text-anchor="middle" x="266.4998" y="-1029.5" font-family="Helvetica,sans-Serif" font-size="10.00" fill="#000000"> </text>
<polyline fill="none" stroke="#bfbfbf" points="212.9998,-1022.5 319.9998,-1022.5 "/>
<text text-anchor="middle" x="266.4998" y="-1010.5" font-family="Helvetica,sans-Serif" font-size="10.00" fill="#000000"> </text>
</g>
<!-- Node8&#45;&gt;Node4 -->
<g id="edge6" class="edge">
<title>Node8&#45;&gt;Node4</title>
<path fill="none" stroke="#404040" d="M257.2989,-1003.1519C240.2704,-943.6715 211.1195,-805.957 275.4998,-722 292.4412,-699.907 316.1151,-723.9837 335.4998,-704 343.6344,-695.614 350.1191,-685.7277 355.2817,-675.1169"/>
<polygon fill="none" stroke="#404040" points="355.4059,-674.8316 354.134,-667.7336 360.1968,-663.8295 361.4687,-670.9275 355.4059,-674.8316"/>
<text text-anchor="middle" x="292.4998" y="-825.5" font-family="Helvetica,sans-Serif" font-size="10.00" fill="#000000"> +@72</text>
</g>
<!-- Node8&#45;&gt;Node9 -->
<g id="edge11" class="edge">
<title>Node8&#45;&gt;Node9</title>
<path fill="none" stroke="#404040" d="M282.7326,-1003.2045C291.7654,-987.1809 303.67,-966.0632 316.0763,-944.0555"/>
<polygon fill="none" stroke="#404040" points="316.1061,-944.0026 315.5681,-936.8115 321.9991,-933.5491 322.5371,-940.7401 316.1061,-944.0026"/>
<text text-anchor="middle" x="327.4998" y="-966" font-family="Helvetica,sans-Serif" font-size="10.00" fill="#000000"> +@72</text>
</g>
<!-- Node8&#45;&gt;Node10 -->
<g id="edge17" class="edge">
<title>Node8&#45;&gt;Node10</title>
<path fill="none" stroke="#404040" d="M245.7256,-1003.4943C232.3346,-986.7224 213.6924,-966.1045 193.4998,-952 176.1783,-939.901 161.2767,-951.5421 149.4998,-934 122.0303,-893.0833 133.5163,-769.9012 147.595,-675.5707"/>
<polygon fill="none" stroke="#404040" points="147.6061,-675.4975 144.5551,-668.9636 149.4129,-663.6343 152.4639,-670.1681 147.6061,-675.4975"/>
<text text-anchor="middle" x="166.4998" y="-825.5" font-family="Helvetica,sans-Serif" font-size="10.00" fill="#000000"> +@72</text>
</g>
<!-- Node9&#45;&gt;Node4 -->
<g id="edge7" class="edge">
<title>Node9&#45;&gt;Node4</title>
<path fill="none" stroke="#ffa500" d="M388.2377,-712.1336C388.2319,-701.9414 388.0113,-691.7853 387.4998,-682 387.189,-676.0555 386.795,-669.9573 386.3392,-663.8069"/>
<polygon fill="#ffa500" stroke="#ffa500" points="384.7367,-712.3041 388.1747,-722.3256 391.7365,-712.3474 384.7367,-712.3041"/>
<text text-anchor="start" x="388.4998" y="-696" font-family="Helvetica,sans-Serif" font-size="10.00" fill="#000000"> &lt; gSizeHeaderDescription</text>
<text text-anchor="middle" x="454.4998" y="-685" font-family="Helvetica,sans-Serif" font-size="10.00" fill="#000000">String &gt;</text>
</g>
<!-- Node9&#45;&gt;Node10 -->
<g id="edge18" class="edge">
<title>Node9&#45;&gt;Node10</title>
<path fill="none" stroke="#ffa500" d="M310.9703,-726.3371C308.8573,-724.8101 306.7003,-723.3609 304.4998,-722 263.1125,-696.4052 231.3251,-737.9882 196.4998,-704 185.1404,-692.9137 177.6229,-678.728 172.757,-663.5719"/>
<polygon fill="#ffa500" stroke="#ffa500" points="308.8814,-729.1471 318.9012,-732.5904 313.2156,-723.6503 308.8814,-729.1471"/>
<text text-anchor="start" x="196.4998" y="-696" font-family="Helvetica,sans-Serif" font-size="10.00" fill="#000000"> &lt; gSizeSerializationMethod</text>
<text text-anchor="middle" x="265.4998" y="-685" font-family="Helvetica,sans-Serif" font-size="10.00" fill="#000000">String &gt;</text>
</g>
<!-- Node10&#45;&gt;Node3 -->
<g id="edge13" class="edge">
<title>Node10&#45;&gt;Node3</title>
<path fill="none" stroke="#404040" d="M253.0476,-452.0324C280.3456,-422.2546 312.2168,-391.5966 345.4998,-368 386.5084,-338.9261 437.1202,-315.5396 480.6849,-298.5315"/>
<polygon fill="none" stroke="#404040" points="480.6858,-298.5313 484.8562,-292.6484 491.8905,-294.2354 487.7201,-300.1182 480.6858,-298.5313"/>
<text text-anchor="middle" x="381.4998" y="-398.5" font-family="Helvetica,sans-Serif" font-size="10.00" fill="#000000"> +serialization</text>
</g>
<!-- Node11 -->
<g id="node10" class="node">
<title>Node11</title>
<g id="a_node10"><a xlink:href="../../d2/d5f/classunsigned_01int.html" target="_top" xlink:title="{unsigned int\n||}">
<polygon fill="none" stroke="#000000" points="484.9998,-529.5 484.9998,-586.5 561.9998,-586.5 561.9998,-529.5 484.9998,-529.5"/>
<text text-anchor="middle" x="523.4998" y="-574.5" font-family="Helvetica,sans-Serif" font-size="10.00" fill="#000000">unsigned int</text>
<polyline fill="none" stroke="#000000" points="484.9998,-567.5 561.9998,-567.5 "/>
<text text-anchor="middle" x="523.4998" y="-555.5" font-family="Helvetica,sans-Serif" font-size="10.00" fill="#000000"> </text>
<polyline fill="none" stroke="#000000" points="484.9998,-548.5 561.9998,-548.5 "/>
<text text-anchor="middle" x="523.4998" y="-536.5" font-family="Helvetica,sans-Serif" font-size="10.00" fill="#000000"> </text>
</a>
</g>
</g>
<!-- Node11&#45;&gt;Node3 -->
<g id="edge19" class="edge">
<title>Node11&#45;&gt;Node3</title>
<path fill="none" stroke="#404040" d="M522.887,-529.2627C522.7032,-491.6911 524.4985,-424.0637 537.4998,-368 538.0033,-365.8285 538.5463,-363.6429 539.124,-361.4488"/>
<polygon fill="none" stroke="#404040" points="539.1958,-361.1996 537.0135,-354.3266 542.5185,-349.6688 544.7007,-356.5418 539.1958,-361.1996"/>
<text text-anchor="middle" x="574.4998" y="-398.5" font-family="Helvetica,sans-Serif" font-size="10.00" fill="#000000"> +sMagicString</text>
</g>
<!-- Node12 -->
<g id="node11" class="node">
<title>Node12</title>
<polygon fill="none" stroke="#bfbfbf" points="579.9998,-529.5 579.9998,-586.5 686.9998,-586.5 686.9998,-529.5 579.9998,-529.5"/>
<text text-anchor="middle" x="633.4998" y="-574.5" font-family="Helvetica,sans-Serif" font-size="10.00" fill="#000000">anonymous:+@74</text>
<polyline fill="none" stroke="#bfbfbf" points="579.9998,-567.5 686.9998,-567.5 "/>
<text text-anchor="middle" x="633.4998" y="-555.5" font-family="Helvetica,sans-Serif" font-size="10.00" fill="#000000"> </text>
<polyline fill="none" stroke="#bfbfbf" points="579.9998,-548.5 686.9998,-548.5 "/>
<text text-anchor="middle" x="633.4998" y="-536.5" font-family="Helvetica,sans-Serif" font-size="10.00" fill="#000000"> </text>
</g>
<!-- Node12&#45;&gt;Node3 -->
<g id="edge20" class="edge">
<title>Node12&#45;&gt;Node3</title>
<path fill="none" stroke="#404040" d="M631.9526,-529.3848C629.5273,-491.9451 623.7754,-424.4602 611.4998,-368 611.0308,-365.8431 610.5345,-363.6672 610.0144,-361.4786"/>
<polygon fill="none" stroke="#404040" points="609.9747,-361.3217 604.6228,-356.4888 607.0256,-349.6897 612.3775,-354.5227 609.9747,-361.3217"/>
<text text-anchor="middle" x="639.4998" y="-398.5" font-family="Helvetica,sans-Serif" font-size="10.00" fill="#000000"> +@74</text>
</g>
<!-- Node13 -->
<g id="node12" class="node">
<title>Node13</title>
<polygon fill="none" stroke="#bfbfbf" points="704.9998,-529.5 704.9998,-586.5 765.9998,-586.5 765.9998,-529.5 704.9998,-529.5"/>
<text text-anchor="middle" x="735.4998" y="-574.5" font-family="Helvetica,sans-Serif" font-size="10.00" fill="#000000">unsigned</text>
<polyline fill="none" stroke="#bfbfbf" points="704.9998,-567.5 765.9998,-567.5 "/>
<text text-anchor="middle" x="735.4998" y="-555.5" font-family="Helvetica,sans-Serif" font-size="10.00" fill="#000000"> </text>
<polyline fill="none" stroke="#bfbfbf" points="704.9998,-548.5 765.9998,-548.5 "/>
<text text-anchor="middle" x="735.4998" y="-536.5" font-family="Helvetica,sans-Serif" font-size="10.00" fill="#000000"> </text>
</g>
<!-- Node13&#45;&gt;Node3 -->
<g id="edge21" class="edge">
<title>Node13&#45;&gt;Node3</title>
<path fill="none" stroke="#404040" d="M725.3902,-529.142C709.1305,-483.3372 677.2966,-396.2798 660.4998,-368 658.8436,-365.2117 657.1173,-362.4172 655.3336,-359.6259"/>
<polygon fill="none" stroke="#404040" points="655.2828,-359.5491 648.6325,-356.761 648.6483,-349.5499 655.2986,-352.338 655.2828,-359.5491"/>
<text text-anchor="middle" x="733.9998" y="-426" font-family="Helvetica,sans-Serif" font-size="10.00" fill="#000000"> +headerVersion</text>
<text text-anchor="middle" x="733.9998" y="-415" font-family="Helvetica,sans-Serif" font-size="10.00" fill="#000000">+headerSize</text>
<text text-anchor="middle" x="733.9998" y="-404" font-family="Helvetica,sans-Serif" font-size="10.00" fill="#000000">+flagsNextHeader</text>
<text text-anchor="middle" x="733.9998" y="-393" font-family="Helvetica,sans-Serif" font-size="10.00" fill="#000000">+magicStringInt</text>
<text text-anchor="middle" x="733.9998" y="-382" font-family="Helvetica,sans-Serif" font-size="10.00" fill="#000000">+flagsUnused</text>
<text text-anchor="middle" x="733.9998" y="-371" font-family="Helvetica,sans-Serif" font-size="10.00" fill="#000000">+flags</text>
</g>
<!-- Node14 -->
<g id="node13" class="node">
<title>Node14</title>
<polygon fill="none" stroke="#bfbfbf" points="783.9998,-529.5 783.9998,-586.5 826.9998,-586.5 826.9998,-529.5 783.9998,-529.5"/>
<text text-anchor="middle" x="805.4998" y="-574.5" font-family="Helvetica,sans-Serif" font-size="10.00" fill="#000000">const</text>
<polyline fill="none" stroke="#bfbfbf" points="783.9998,-567.5 826.9998,-567.5 "/>
<text text-anchor="middle" x="805.4998" y="-555.5" font-family="Helvetica,sans-Serif" font-size="10.00" fill="#000000"> </text>
<polyline fill="none" stroke="#bfbfbf" points="783.9998,-548.5 826.9998,-548.5 "/>
<text text-anchor="middle" x="805.4998" y="-536.5" font-family="Helvetica,sans-Serif" font-size="10.00" fill="#000000"> </text>
</g>
<!-- Node14&#45;&gt;Node3 -->
<g id="edge22" class="edge">
<title>Node14&#45;&gt;Node3</title>
<path fill="none" stroke="#404040" d="M806.2298,-529.3104C806.7935,-481.9859 804.9739,-390.5391 783.4998,-368 752.078,-335.0199 723.3558,-365.7889 676.5462,-349.8573"/>
<polygon fill="none" stroke="#404040" points="676.371,-349.7855 669.3019,-351.2096 665.2684,-345.232 672.3375,-343.8079 676.371,-349.7855"/>
<text text-anchor="middle" x="856.9998" y="-409.5" font-family="Helvetica,sans-Serif" font-size="10.00" fill="#000000"> +sHeaderType</text>
<text text-anchor="middle" x="856.9998" y="-398.5" font-family="Helvetica,sans-Serif" font-size="10.00" fill="#000000">+sSerializationMethod</text>
<text text-anchor="middle" x="856.9998" y="-387.5" font-family="Helvetica,sans-Serif" font-size="10.00" fill="#000000">+sVersion</text>
</g>
<!-- Node15 -->
<g id="node14" class="node">
<title>Node15</title>
<polygon fill="none" stroke="#bfbfbf" points="885.9998,-529.5 885.9998,-586.5 992.9998,-586.5 992.9998,-529.5 885.9998,-529.5"/>
<text text-anchor="middle" x="939.4998" y="-574.5" font-family="Helvetica,sans-Serif" font-size="10.00" fill="#000000">anonymous:+@76</text>
<polyline fill="none" stroke="#bfbfbf" points="885.9998,-567.5 992.9998,-567.5 "/>
<text text-anchor="middle" x="939.4998" y="-555.5" font-family="Helvetica,sans-Serif" font-size="10.00" fill="#000000"> </text>
<polyline fill="none" stroke="#bfbfbf" points="885.9998,-548.5 992.9998,-548.5 "/>
<text text-anchor="middle" x="939.4998" y="-536.5" font-family="Helvetica,sans-Serif" font-size="10.00" fill="#000000"> </text>
</g>
<!-- Node15&#45;&gt;Node3 -->
<g id="edge23" class="edge">
<title>Node15&#45;&gt;Node3</title>
<path fill="none" stroke="#404040" d="M945.9344,-529.326C953.484,-487.3147 959.9971,-409.5318 916.4998,-368 879.8586,-333.0145 742.3811,-366.2592 676.8339,-349.4986"/>
<polygon fill="none" stroke="#404040" points="676.4917,-349.385 669.5368,-351.2903 665.1032,-345.6032 672.058,-343.6979 676.4917,-349.385"/>
<text text-anchor="middle" x="964.4998" y="-398.5" font-family="Helvetica,sans-Serif" font-size="10.00" fill="#000000"> +@76</text>
</g>
<!-- Node16 -->
<g id="node15" class="node">
<title>Node16</title>
<polygon fill="none" stroke="#bfbfbf" points="683.4998,-237.5 683.4998,-294.5 727.4998,-294.5 727.4998,-237.5 683.4998,-237.5"/>
<text text-anchor="middle" x="705.4998" y="-282.5" font-family="Helvetica,sans-Serif" font-size="10.00" fill="#000000">static</text>
<polyline fill="none" stroke="#bfbfbf" points="683.4998,-275.5 727.4998,-275.5 "/>
<text text-anchor="middle" x="705.4998" y="-263.5" font-family="Helvetica,sans-Serif" font-size="10.00" fill="#000000"> </text>
<polyline fill="none" stroke="#bfbfbf" points="683.4998,-256.5 727.4998,-256.5 "/>
<text text-anchor="middle" x="705.4998" y="-244.5" font-family="Helvetica,sans-Serif" font-size="10.00" fill="#000000"> </text>
</g>
<!-- Node16&#45;&gt;Node2 -->
<g id="edge24" class="edge">
<title>Node16&#45;&gt;Node2</title>
<path fill="none" stroke="#404040" d="M701.1174,-237.3092C696.7154,-208.4899 689.768,-163.0057 683.9427,-124.8682"/>
<polygon fill="none" stroke="#404040" points="683.9074,-124.6369 679.0473,-119.3097 682.0954,-112.7745 686.9556,-118.1017 683.9074,-124.6369"/>
<text text-anchor="middle" x="744.9998" y="-156" font-family="Helvetica,sans-Serif" font-size="10.00" fill="#000000"> +sHeaderType</text>
<text text-anchor="middle" x="744.9998" y="-145" font-family="Helvetica,sans-Serif" font-size="10.00" fill="#000000">+sSerializationMethod</text>
<text text-anchor="middle" x="744.9998" y="-134" font-family="Helvetica,sans-Serif" font-size="10.00" fill="#000000">+sVersion</text>
</g>
</g>
</svg>
