<?xml version="1.0" encoding="UTF-8" standalone="no"?>
<!DOCTYPE svg PUBLIC "-//W3C//DTD SVG 1.1//EN"
 "http://www.w3.org/Graphics/SVG/1.1/DTD/svg11.dtd">
<!-- Generated by graphviz version 2.40.1 (20161225.0304)
 -->
<!-- Title: o2::ft0::DigitBlockFT0 Pages: 1 -->
<!--zoomable 1107 -->
<svg id="main" version="1.1" xmlns="http://www.w3.org/2000/svg" xmlns:xlink="http://www.w3.org/1999/xlink" xml:space="preserve" onload="init(evt)">
<style type="text/css"><![CDATA[
.edge:hover path { stroke: red; }
.edge:hover polygon { stroke: red; fill: red; }
]]></style>
<script type="text/javascript"><![CDATA[
var edges = document.getElementsByTagName('g');
if (edges && edges.length) {
  for (var i=0;i<edges.length;i++) {
    if (edges[i].id.substr(0,4)=='edge') {
      edges[i].setAttribute('class','edge');
    }
  }
}
]]></script>
        <defs>
                <circle id="rim" cx="0" cy="0" r="7"/>
                <circle id="rim2" cx="0" cy="0" r="3.5"/>
                <g id="zoomPlus">
                        <use xlink:href="#rim" fill="#404040">
                                <set attributeName="fill" to="#808080" begin="zoomplus.mouseover" end="zoomplus.mouseout"/>
                        </use>
                        <path d="M-4,0h8M0,-4v8" fill="none" stroke="white" stroke-width="1.5" pointer-events="none"/>
                </g>
                <g id="zoomMin">
                        <use xlink:href="#rim" fill="#404040">
                                <set attributeName="fill" to="#808080" begin="zoomminus.mouseover" end="zoomminus.mouseout"/>
                        </use>
                        <path d="M-4,0h8" fill="none" stroke="white" stroke-width="1.5" pointer-events="none"/>
                </g>
                <g id="dirArrow">
                        <path fill="none" stroke="white" stroke-width="1.5" d="M0,-3.0v7 M-2.5,-0.5L0,-3.0L2.5,-0.5"/>
                </g>
               <g id="resetDef">
                       <use xlink:href="#rim2" fill="#404040">
                               <set attributeName="fill" to="#808080" begin="reset.mouseover" end="reset.mouseout"/>
                       </use>
               </g>
        </defs>

<script type="text/javascript">
var viewWidth = 924;
var viewHeight = 1107;
var sectionId = 'dynsection-0';
</script>
<script xlink:href="../../svgpan.js"/>
<svg id="graph" class="graph">
<g id="viewport">
<title>o2::ft0::DigitBlockFT0</title>
<!-- Node1 -->
<g id="node1" class="node">
<title>Node1</title>
<polygon fill="#bfbfbf" stroke="#000000" points="165.599,-.5 165.599,-134.5 287.599,-134.5 287.599,-.5 165.599,-.5"/>
<text text-anchor="middle" x="226.599" y="-122.5" font-family="Helvetica,sans-Serif" font-size="10.00" fill="#000000">o2::ft0::DigitBlockFT0</text>
<polyline fill="none" stroke="#000000" points="165.599,-115.5 287.599,-115.5 "/>
<text text-anchor="middle" x="226.599" y="-103.5" font-family="Helvetica,sans-Serif" font-size="10.00" fill="#000000"> </text>
<polyline fill="none" stroke="#000000" points="165.599,-96.5 287.599,-96.5 "/>
<text text-anchor="start" x="173.599" y="-84.5" font-family="Helvetica,sans-Serif" font-size="10.00" fill="#000000">+ DigitBlockFT0()</text>
<text text-anchor="start" x="173.599" y="-73.5" font-family="Helvetica,sans-Serif" font-size="10.00" fill="#000000">+ DigitBlockFT0()</text>
<text text-anchor="start" x="173.599" y="-62.5" font-family="Helvetica,sans-Serif" font-size="10.00" fill="#000000">+ DigitBlockFT0()</text>
<text text-anchor="start" x="173.599" y="-51.5" font-family="Helvetica,sans-Serif" font-size="10.00" fill="#000000">+ ~DigitBlockFT0()</text>
<text text-anchor="start" x="173.599" y="-40.5" font-family="Helvetica,sans-Serif" font-size="10.00" fill="#000000">+ proccess()</text>
<text text-anchor="start" x="173.599" y="-29.5" font-family="Helvetica,sans-Serif" font-size="10.00" fill="#000000">+ popData()</text>
<text text-anchor="start" x="173.599" y="-18.5" font-family="Helvetica,sans-Serif" font-size="10.00" fill="#000000">+ print()</text>
<text text-anchor="start" x="173.599" y="-7.5" font-family="Helvetica,sans-Serif" font-size="10.00" fill="#000000">+ print()</text>
</g>
<!-- Node2 -->
<g id="node2" class="node">
<title>Node2</title>
<polygon fill="none" stroke="#bfbfbf" points="91.099,-612 91.099,-669 120.099,-669 120.099,-612 91.099,-612"/>
<text text-anchor="middle" x="105.599" y="-657" font-family="Helvetica,sans-Serif" font-size="10.00" fill="#000000">int</text>
<polyline fill="none" stroke="#bfbfbf" points="91.099,-650 120.099,-650 "/>
<text text-anchor="middle" x="105.599" y="-638" font-family="Helvetica,sans-Serif" font-size="10.00" fill="#000000"> </text>
<polyline fill="none" stroke="#bfbfbf" points="91.099,-631 120.099,-631 "/>
<text text-anchor="middle" x="105.599" y="-619" font-family="Helvetica,sans-Serif" font-size="10.00" fill="#000000"> </text>
</g>
<!-- Node2&#45;&gt;Node1 -->
<g id="edge1" class="edge">
<title>Node2&#45;&gt;Node1</title>
<path fill="none" stroke="#404040" d="M90.9609,-615.128C51.0705,-542.3358 -51.1309,-328.6435 32.599,-182 58.4999,-136.6376 110.1824,-107.4417 153.6936,-89.8911"/>
<polygon fill="none" stroke="#404040" points="153.9473,-89.793 158.0991,-83.897 165.1384,-85.4617 160.9866,-91.3577 153.9473,-89.793"/>
<text text-anchor="middle" x="60.099" y="-280" font-family="Helvetica,sans-Serif" font-size="10.00" fill="#000000"> +sEventID</text>
</g>
<!-- Node5 -->
<g id="node5" class="node">
<title>Node5</title>
<g id="a_node5"><a xlink:href="../../d0/da1/structo2_1_1ft0_1_1Digit.html" target="_top" xlink:title="FIT digit implementation for. ">
<polygon fill="none" stroke="#000000" points="384.599,-182.5 384.599,-382.5 528.599,-382.5 528.599,-182.5 384.599,-182.5"/>
<text text-anchor="middle" x="456.599" y="-370.5" font-family="Helvetica,sans-Serif" font-size="10.00" fill="#000000">o2::ft0::Digit</text>
<polyline fill="none" stroke="#000000" points="384.599,-363.5 528.599,-363.5 "/>
<text text-anchor="middle" x="456.599" y="-351.5" font-family="Helvetica,sans-Serif" font-size="10.00" fill="#000000"> </text>
<polyline fill="none" stroke="#000000" points="384.599,-344.5 528.599,-344.5 "/>
<text text-anchor="start" x="392.599" y="-332.5" font-family="Helvetica,sans-Serif" font-size="10.00" fill="#000000">+ Digit()</text>
<text text-anchor="start" x="392.599" y="-321.5" font-family="Helvetica,sans-Serif" font-size="10.00" fill="#000000">+ Digit()</text>
<text text-anchor="start" x="392.599" y="-310.5" font-family="Helvetica,sans-Serif" font-size="10.00" fill="#000000">+ getOrbit()</text>
<text text-anchor="start" x="392.599" y="-299.5" font-family="Helvetica,sans-Serif" font-size="10.00" fill="#000000">+ getBC()</text>
<text text-anchor="start" x="392.599" y="-288.5" font-family="Helvetica,sans-Serif" font-size="10.00" fill="#000000">+ getTriggers()</text>
<text text-anchor="start" x="392.599" y="-277.5" font-family="Helvetica,sans-Serif" font-size="10.00" fill="#000000">+ getEventID()</text>
<text text-anchor="start" x="392.599" y="-266.5" font-family="Helvetica,sans-Serif" font-size="10.00" fill="#000000">+ getIntRecord()</text>
<text text-anchor="start" x="392.599" y="-255.5" font-family="Helvetica,sans-Serif" font-size="10.00" fill="#000000">+ getBunchChannelData()</text>
<text text-anchor="start" x="392.599" y="-244.5" font-family="Helvetica,sans-Serif" font-size="10.00" fill="#000000">+ printStream()</text>
<text text-anchor="start" x="392.599" y="-233.5" font-family="Helvetica,sans-Serif" font-size="10.00" fill="#000000">+ setTriggers()</text>
<text text-anchor="start" x="392.599" y="-222.5" font-family="Helvetica,sans-Serif" font-size="10.00" fill="#000000">+ setEventStatus()</text>
<text text-anchor="start" x="392.599" y="-211.5" font-family="Helvetica,sans-Serif" font-size="10.00" fill="#000000">+ setStatusFlag()</text>
<text text-anchor="start" x="392.599" y="-200.5" font-family="Helvetica,sans-Serif" font-size="10.00" fill="#000000">+ getStatusFlag()</text>
<text text-anchor="start" x="392.599" y="-189.5" font-family="Helvetica,sans-Serif" font-size="10.00" fill="#000000">+ ClassDefNV()</text>
</a>
</g>
</g>
<!-- Node2&#45;&gt;Node5 -->
<g id="edge10" class="edge">
<title>Node2&#45;&gt;Node5</title>
<path fill="none" stroke="#404040" d="M114.9379,-611.9127C130.3339,-568.3364 164.6093,-484.6091 216.599,-430 234.0481,-411.6718 241.8125,-409.6369 265.599,-401 308.7985,-385.3143 329.6727,-404.6964 373.676,-383.132"/>
<polygon fill="none" stroke="#404040" points="373.8544,-383.0352 377.2199,-376.6576 384.4014,-377.3114 381.0358,-383.689 373.8544,-383.0352"/>
<text text-anchor="middle" x="295.599" y="-404" font-family="Helvetica,sans-Serif" font-size="10.00" fill="#000000"> +mEventID</text>
</g>
<!-- Node3 -->
<g id="node3" class="node">
<title>Node3</title>
<g id="a_node3"><a xlink:href="../../d3/df0/classo2_1_1ft0_1_1LookUpTable.html" target="_top" xlink:title="{o2::ft0::LookUpTable\n||+ LookUpTable()\l+ ~LookUpTable()\l+ printFullMap()\l+ getChannel()\l+ getLink()\l+ getMCP()\l+ linear()\l}">
<polygon fill="none" stroke="#000000" points="96.599,-221 96.599,-344 212.599,-344 212.599,-221 96.599,-221"/>
<text text-anchor="middle" x="154.599" y="-332" font-family="Helvetica,sans-Serif" font-size="10.00" fill="#000000">o2::ft0::LookUpTable</text>
<polyline fill="none" stroke="#000000" points="96.599,-325 212.599,-325 "/>
<text text-anchor="middle" x="154.599" y="-313" font-family="Helvetica,sans-Serif" font-size="10.00" fill="#000000"> </text>
<polyline fill="none" stroke="#000000" points="96.599,-306 212.599,-306 "/>
<text text-anchor="start" x="104.599" y="-294" font-family="Helvetica,sans-Serif" font-size="10.00" fill="#000000">+ LookUpTable()</text>
<text text-anchor="start" x="104.599" y="-283" font-family="Helvetica,sans-Serif" font-size="10.00" fill="#000000">+ ~LookUpTable()</text>
<text text-anchor="start" x="104.599" y="-272" font-family="Helvetica,sans-Serif" font-size="10.00" fill="#000000">+ printFullMap()</text>
<text text-anchor="start" x="104.599" y="-261" font-family="Helvetica,sans-Serif" font-size="10.00" fill="#000000">+ getChannel()</text>
<text text-anchor="start" x="104.599" y="-250" font-family="Helvetica,sans-Serif" font-size="10.00" fill="#000000">+ getLink()</text>
<text text-anchor="start" x="104.599" y="-239" font-family="Helvetica,sans-Serif" font-size="10.00" fill="#000000">+ getMCP()</text>
<text text-anchor="start" x="104.599" y="-228" font-family="Helvetica,sans-Serif" font-size="10.00" fill="#000000">+ linear()</text>
</a>
</g>
</g>
<!-- Node3&#45;&gt;Node1 -->
<g id="edge2" class="edge">
<title>Node3&#45;&gt;Node1</title>
<path fill="none" stroke="#404040" d="M175.2313,-220.8896C183.0158,-197.6443 191.9805,-170.8748 200.2196,-146.2719"/>
<polygon fill="none" stroke="#404040" points="200.2613,-146.1472 198.3736,-139.1875 204.072,-134.7683 205.9596,-141.728 200.2613,-146.1472"/>
<text text-anchor="middle" x="235.599" y="-156" font-family="Helvetica,sans-Serif" font-size="10.00" fill="#000000"> +sLookupTable</text>
</g>
<!-- Node4 -->
<g id="node4" class="node">
<title>Node4</title>
<polygon fill="none" stroke="#bfbfbf" points="230.599,-248.5 230.599,-316.5 366.599,-316.5 366.599,-248.5 230.599,-248.5"/>
<text text-anchor="start" x="238.599" y="-304.5" font-family="Helvetica,sans-Serif" font-size="10.00" fill="#000000">vector&lt; o2::ft0::Channel</text>
<text text-anchor="middle" x="298.599" y="-293.5" font-family="Helvetica,sans-Serif" font-size="10.00" fill="#000000">Data &gt;</text>
<polyline fill="none" stroke="#bfbfbf" points="230.599,-286.5 366.599,-286.5 "/>
<text text-anchor="middle" x="298.599" y="-274.5" font-family="Helvetica,sans-Serif" font-size="10.00" fill="#000000"> </text>
<polyline fill="none" stroke="#bfbfbf" points="230.599,-267.5 366.599,-267.5 "/>
<text text-anchor="middle" x="298.599" y="-255.5" font-family="Helvetica,sans-Serif" font-size="10.00" fill="#000000"> </text>
</g>
<!-- Node4&#45;&gt;Node1 -->
<g id="edge3" class="edge">
<title>Node4&#45;&gt;Node1</title>
<path fill="none" stroke="#404040" d="M296.178,-248.376C293.4934,-221.7531 287.9368,-184.1838 276.599,-153 275.7268,-150.6012 274.7877,-148.193 273.7923,-145.7848"/>
<polygon fill="none" stroke="#404040" points="273.6655,-145.5012 267.5635,-141.6585 268.7637,-134.548 274.8657,-138.3907 273.6655,-145.5012"/>
<text text-anchor="middle" x="330.599" y="-156" font-family="Helvetica,sans-Serif" font-size="10.00" fill="#000000"> +mVecChannelData</text>
</g>
<!-- Node5&#45;&gt;Node1 -->
<g id="edge4" class="edge">
<title>Node5&#45;&gt;Node1</title>
<path fill="none" stroke="#404040" d="M409.6798,-182.4434C402.4597,-171.8445 394.4278,-161.7573 385.599,-153 361.1321,-128.7312 328.3511,-109.537 298.9114,-95.5352"/>
<polygon fill="none" stroke="#404040" points="298.7152,-95.4448 291.5919,-96.5671 287.8163,-90.4234 294.9396,-89.3011 298.7152,-95.4448"/>
<text text-anchor="middle" x="416.099" y="-156" font-family="Helvetica,sans-Serif" font-size="10.00" fill="#000000"> +mDigit</text>
</g>
<!-- Node6 -->
<g id="node6" class="node">
<title>Node6</title>
<g id="a_node6"><a xlink:href="../../d1/d21/structo2_1_1InteractionRecord.html" target="_top" xlink:title="{o2::InteractionRecord\n||+ InteractionRecord()\l+ InteractionRecord()\l+ InteractionRecord()\l+ InteractionRecord()\l+ clear()\l+ isDummy()\l+ setFromNS()\l+ bc2ns()\l+ operator==()\l+ operator!=()\l+ differenceInBC()\l+ toLong()\l+ setFromLong()\l+ operator\&gt;()\l+ operator\&gt;=()\l+ operator\&lt;()\l+ operator\&lt;=()\l+ operator&#45;&#45;()\l+ operator&#45;&#45;()\l+ operator++()\l+ operator++()\l+ operator+=()\l+ operator&#45;=()\l+ operator+=()\l+ operator&#45;=()\l+ operator+()\l+ operator&#45;()\l+ operator+()\l+ operator&#45;()\l+ print()\l+ asString()\l+ ClassDefNV()\l+ bc2ns()\l+ ns2bc()\l}">
<polygon fill="none" stroke="#000000" points="225.099,-430.5 225.099,-850.5 346.099,-850.5 346.099,-430.5 225.099,-430.5"/>
<text text-anchor="middle" x="285.599" y="-838.5" font-family="Helvetica,sans-Serif" font-size="10.00" fill="#000000">o2::InteractionRecord</text>
<polyline fill="none" stroke="#000000" points="225.099,-831.5 346.099,-831.5 "/>
<text text-anchor="middle" x="285.599" y="-819.5" font-family="Helvetica,sans-Serif" font-size="10.00" fill="#000000"> </text>
<polyline fill="none" stroke="#000000" points="225.099,-812.5 346.099,-812.5 "/>
<text text-anchor="start" x="233.099" y="-800.5" font-family="Helvetica,sans-Serif" font-size="10.00" fill="#000000">+ InteractionRecord()</text>
<text text-anchor="start" x="233.099" y="-789.5" font-family="Helvetica,sans-Serif" font-size="10.00" fill="#000000">+ InteractionRecord()</text>
<text text-anchor="start" x="233.099" y="-778.5" font-family="Helvetica,sans-Serif" font-size="10.00" fill="#000000">+ InteractionRecord()</text>
<text text-anchor="start" x="233.099" y="-767.5" font-family="Helvetica,sans-Serif" font-size="10.00" fill="#000000">+ InteractionRecord()</text>
<text text-anchor="start" x="233.099" y="-756.5" font-family="Helvetica,sans-Serif" font-size="10.00" fill="#000000">+ clear()</text>
<text text-anchor="start" x="233.099" y="-745.5" font-family="Helvetica,sans-Serif" font-size="10.00" fill="#000000">+ isDummy()</text>
<text text-anchor="start" x="233.099" y="-734.5" font-family="Helvetica,sans-Serif" font-size="10.00" fill="#000000">+ setFromNS()</text>
<text text-anchor="start" x="233.099" y="-723.5" font-family="Helvetica,sans-Serif" font-size="10.00" fill="#000000">+ bc2ns()</text>
<text text-anchor="start" x="233.099" y="-712.5" font-family="Helvetica,sans-Serif" font-size="10.00" fill="#000000">+ operator==()</text>
<text text-anchor="start" x="233.099" y="-701.5" font-family="Helvetica,sans-Serif" font-size="10.00" fill="#000000">+ operator!=()</text>
<text text-anchor="start" x="233.099" y="-690.5" font-family="Helvetica,sans-Serif" font-size="10.00" fill="#000000">+ differenceInBC()</text>
<text text-anchor="start" x="233.099" y="-679.5" font-family="Helvetica,sans-Serif" font-size="10.00" fill="#000000">+ toLong()</text>
<text text-anchor="start" x="233.099" y="-668.5" font-family="Helvetica,sans-Serif" font-size="10.00" fill="#000000">+ setFromLong()</text>
<text text-anchor="start" x="233.099" y="-657.5" font-family="Helvetica,sans-Serif" font-size="10.00" fill="#000000">+ operator&gt;()</text>
<text text-anchor="start" x="233.099" y="-646.5" font-family="Helvetica,sans-Serif" font-size="10.00" fill="#000000">+ operator&gt;=()</text>
<text text-anchor="start" x="233.099" y="-635.5" font-family="Helvetica,sans-Serif" font-size="10.00" fill="#000000">+ operator&lt;()</text>
<text text-anchor="start" x="233.099" y="-624.5" font-family="Helvetica,sans-Serif" font-size="10.00" fill="#000000">+ operator&lt;=()</text>
<text text-anchor="start" x="233.099" y="-613.5" font-family="Helvetica,sans-Serif" font-size="10.00" fill="#000000">+ operator&#45;&#45;()</text>
<text text-anchor="start" x="233.099" y="-602.5" font-family="Helvetica,sans-Serif" font-size="10.00" fill="#000000">+ operator&#45;&#45;()</text>
<text text-anchor="start" x="233.099" y="-591.5" font-family="Helvetica,sans-Serif" font-size="10.00" fill="#000000">+ operator++()</text>
<text text-anchor="start" x="233.099" y="-580.5" font-family="Helvetica,sans-Serif" font-size="10.00" fill="#000000">+ operator++()</text>
<text text-anchor="start" x="233.099" y="-569.5" font-family="Helvetica,sans-Serif" font-size="10.00" fill="#000000">+ operator+=()</text>
<text text-anchor="start" x="233.099" y="-558.5" font-family="Helvetica,sans-Serif" font-size="10.00" fill="#000000">+ operator&#45;=()</text>
<text text-anchor="start" x="233.099" y="-547.5" font-family="Helvetica,sans-Serif" font-size="10.00" fill="#000000">+ operator+=()</text>
<text text-anchor="start" x="233.099" y="-536.5" font-family="Helvetica,sans-Serif" font-size="10.00" fill="#000000">+ operator&#45;=()</text>
<text text-anchor="start" x="233.099" y="-525.5" font-family="Helvetica,sans-Serif" font-size="10.00" fill="#000000">+ operator+()</text>
<text text-anchor="start" x="233.099" y="-514.5" font-family="Helvetica,sans-Serif" font-size="10.00" fill="#000000">+ operator&#45;()</text>
<text text-anchor="start" x="233.099" y="-503.5" font-family="Helvetica,sans-Serif" font-size="10.00" fill="#000000">+ operator+()</text>
<text text-anchor="start" x="233.099" y="-492.5" font-family="Helvetica,sans-Serif" font-size="10.00" fill="#000000">+ operator&#45;()</text>
<text text-anchor="start" x="233.099" y="-481.5" font-family="Helvetica,sans-Serif" font-size="10.00" fill="#000000">+ print()</text>
<text text-anchor="start" x="233.099" y="-470.5" font-family="Helvetica,sans-Serif" font-size="10.00" fill="#000000">+ asString()</text>
<text text-anchor="start" x="233.099" y="-459.5" font-family="Helvetica,sans-Serif" font-size="10.00" fill="#000000">+ ClassDefNV()</text>
<text text-anchor="start" x="233.099" y="-448.5" font-family="Helvetica,sans-Serif" font-size="10.00" fill="#000000">+ bc2ns()</text>
<text text-anchor="start" x="233.099" y="-437.5" font-family="Helvetica,sans-Serif" font-size="10.00" fill="#000000">+ ns2bc()</text>
</a>
</g>
</g>
<!-- Node6&#45;&gt;Node5 -->
<g id="edge5" class="edge">
<title>Node6&#45;&gt;Node5</title>
<path fill="none" stroke="#404040" d="M318.6863,-430.3129C324.1246,-419.9407 330.3889,-410.08 337.599,-401 347.4044,-388.6517 357.2664,-392.5612 374.2405,-382.6698"/>
<polygon fill="none" stroke="#404040" points="374.5989,-382.4204 377.2375,-375.7093 384.4471,-375.5638 381.8085,-382.2748 374.5989,-382.4204"/>
<text text-anchor="middle" x="371.099" y="-404" font-family="Helvetica,sans-Serif" font-size="10.00" fill="#000000"> +mIntRecord</text>
</g>
<!-- Node7 -->
<g id="node7" class="node">
<title>Node7</title>
<polygon fill="none" stroke="#bfbfbf" points="56.599,-975.5 56.599,-1032.5 106.599,-1032.5 106.599,-975.5 56.599,-975.5"/>
<text text-anchor="middle" x="81.599" y="-1020.5" font-family="Helvetica,sans-Serif" font-size="10.00" fill="#000000">double</text>
<polyline fill="none" stroke="#bfbfbf" points="56.599,-1013.5 106.599,-1013.5 "/>
<text text-anchor="middle" x="81.599" y="-1001.5" font-family="Helvetica,sans-Serif" font-size="10.00" fill="#000000"> </text>
<polyline fill="none" stroke="#bfbfbf" points="56.599,-994.5 106.599,-994.5 "/>
<text text-anchor="middle" x="81.599" y="-982.5" font-family="Helvetica,sans-Serif" font-size="10.00" fill="#000000"> </text>
</g>
<!-- Node7&#45;&gt;Node6 -->
<g id="edge6" class="edge">
<title>Node7&#45;&gt;Node6</title>
<path fill="none" stroke="#404040" d="M86.6117,-975.2816C92.2107,-947.203 102.7666,-903.7278 119.599,-869 145.3923,-815.7845 183.726,-761.9948 217.0593,-719.983"/>
<polygon fill="none" stroke="#404040" points="217.2458,-719.7504 217.8761,-712.5668 224.7495,-710.3858 224.1191,-717.5693 217.2458,-719.7504"/>
<text text-anchor="middle" x="157.599" y="-877.5" font-family="Helvetica,sans-Serif" font-size="10.00" fill="#000000"> +DummyTime</text>
</g>
<!-- Node8 -->
<g id="node8" class="node">
<title>Node8</title>
<g id="a_node8"><a xlink:href="../../d2/d5f/classunsigned_01int.html" target="_top" xlink:title="{unsigned int\n||}">
<polygon fill="none" stroke="#000000" points="135.099,-975.5 135.099,-1032.5 212.099,-1032.5 212.099,-975.5 135.099,-975.5"/>
<text text-anchor="middle" x="173.599" y="-1020.5" font-family="Helvetica,sans-Serif" font-size="10.00" fill="#000000">unsigned int</text>
<polyline fill="none" stroke="#000000" points="135.099,-1013.5 212.099,-1013.5 "/>
<text text-anchor="middle" x="173.599" y="-1001.5" font-family="Helvetica,sans-Serif" font-size="10.00" fill="#000000"> </text>
<polyline fill="none" stroke="#000000" points="135.099,-994.5 212.099,-994.5 "/>
<text text-anchor="middle" x="173.599" y="-982.5" font-family="Helvetica,sans-Serif" font-size="10.00" fill="#000000"> </text>
</a>
</g>
</g>
<!-- Node8&#45;&gt;Node6 -->
<g id="edge7" class="edge">
<title>Node8&#45;&gt;Node6</title>
<path fill="none" stroke="#404040" d="M179.7879,-975.3503C185.9132,-947.8808 195.9012,-905.3383 206.599,-869 211.1537,-853.5284 216.1209,-837.5536 221.2741,-821.5751"/>
<polygon fill="none" stroke="#404040" points="221.3445,-821.3584 219.3964,-814.4154 225.0561,-809.9468 227.0042,-816.8897 221.3445,-821.3584"/>
<text text-anchor="middle" x="244.099" y="-877.5" font-family="Helvetica,sans-Serif" font-size="10.00" fill="#000000"> +DummyOrbit</text>
</g>
<!-- Node9 -->
<g id="node9" class="node">
<title>Node9</title>
<polygon fill="none" stroke="#bfbfbf" points="388.099,-975.5 388.099,-1032.5 449.099,-1032.5 449.099,-975.5 388.099,-975.5"/>
<text text-anchor="middle" x="418.599" y="-1020.5" font-family="Helvetica,sans-Serif" font-size="10.00" fill="#000000">unsigned</text>
<polyline fill="none" stroke="#bfbfbf" points="388.099,-1013.5 449.099,-1013.5 "/>
<text text-anchor="middle" x="418.599" y="-1001.5" font-family="Helvetica,sans-Serif" font-size="10.00" fill="#000000"> </text>
<polyline fill="none" stroke="#bfbfbf" points="388.099,-994.5 449.099,-994.5 "/>
<text text-anchor="middle" x="418.599" y="-982.5" font-family="Helvetica,sans-Serif" font-size="10.00" fill="#000000"> </text>
</g>
<!-- Node9&#45;&gt;Node5 -->
<g id="edge18" class="edge">
<title>Node9&#45;&gt;Node5</title>
<path fill="none" stroke="#404040" d="M417.2435,-975.2227C413.6667,-891.0543 405.6828,-638.1459 427.599,-430 428.8185,-418.4178 430.4941,-406.3916 432.4296,-394.4281"/>
<polygon fill="none" stroke="#404040" points="432.445,-394.3366 429.5007,-387.7539 434.4446,-382.5043 437.3889,-389.087 432.445,-394.3366"/>
<text text-anchor="middle" x="467.599" y="-638" font-family="Helvetica,sans-Serif" font-size="10.00" fill="#000000"> +mEventStatus</text>
</g>
<!-- Node9&#45;&gt;Node6 -->
<g id="edge8" class="edge">
<title>Node9&#45;&gt;Node6</title>
<path fill="none" stroke="#404040" d="M406.8039,-975.3309C397.5293,-952.565 384.4136,-919.871 373.599,-891 365.8539,-870.3233 357.9262,-848.6141 350.1555,-826.9828"/>
<polygon fill="none" stroke="#404040" points="350.1549,-826.981 344.3658,-822.6814 346.108,-815.6839 351.8971,-819.9835 350.1549,-826.981"/>
<text text-anchor="middle" x="389.099" y="-883" font-family="Helvetica,sans-Serif" font-size="10.00" fill="#000000"> +bc</text>
<text text-anchor="middle" x="389.099" y="-872" font-family="Helvetica,sans-Serif" font-size="10.00" fill="#000000">+orbit</text>
</g>
<!-- Node11 -->
<g id="node11" class="node">
<title>Node11</title>
<g id="a_node11"><a xlink:href="../../db/df8/structo2_1_1ft0_1_1Triggers.html" target="_top" xlink:title="{o2::ft0::Triggers\n||+ Triggers()\l+ Triggers()\l+ getOrA()\l+ getOrC()\l+ getVertex()\l+ getCen()\l+ getSCen()\l+ setTriggers()\l+ cleanTriggers()\l+ ClassDefNV()\l}">
<polygon fill="none" stroke="#000000" points="516.599,-562.5 516.599,-718.5 616.599,-718.5 616.599,-562.5 516.599,-562.5"/>
<text text-anchor="middle" x="566.599" y="-706.5" font-family="Helvetica,sans-Serif" font-size="10.00" fill="#000000">o2::ft0::Triggers</text>
<polyline fill="none" stroke="#000000" points="516.599,-699.5 616.599,-699.5 "/>
<text text-anchor="middle" x="566.599" y="-687.5" font-family="Helvetica,sans-Serif" font-size="10.00" fill="#000000"> </text>
<polyline fill="none" stroke="#000000" points="516.599,-680.5 616.599,-680.5 "/>
<text text-anchor="start" x="524.599" y="-668.5" font-family="Helvetica,sans-Serif" font-size="10.00" fill="#000000">+ Triggers()</text>
<text text-anchor="start" x="524.599" y="-657.5" font-family="Helvetica,sans-Serif" font-size="10.00" fill="#000000">+ Triggers()</text>
<text text-anchor="start" x="524.599" y="-646.5" font-family="Helvetica,sans-Serif" font-size="10.00" fill="#000000">+ getOrA()</text>
<text text-anchor="start" x="524.599" y="-635.5" font-family="Helvetica,sans-Serif" font-size="10.00" fill="#000000">+ getOrC()</text>
<text text-anchor="start" x="524.599" y="-624.5" font-family="Helvetica,sans-Serif" font-size="10.00" fill="#000000">+ getVertex()</text>
<text text-anchor="start" x="524.599" y="-613.5" font-family="Helvetica,sans-Serif" font-size="10.00" fill="#000000">+ getCen()</text>
<text text-anchor="start" x="524.599" y="-602.5" font-family="Helvetica,sans-Serif" font-size="10.00" fill="#000000">+ getSCen()</text>
<text text-anchor="start" x="524.599" y="-591.5" font-family="Helvetica,sans-Serif" font-size="10.00" fill="#000000">+ setTriggers()</text>
<text text-anchor="start" x="524.599" y="-580.5" font-family="Helvetica,sans-Serif" font-size="10.00" fill="#000000">+ cleanTriggers()</text>
<text text-anchor="start" x="524.599" y="-569.5" font-family="Helvetica,sans-Serif" font-size="10.00" fill="#000000">+ ClassDefNV()</text>
</a>
</g>
</g>
<!-- Node9&#45;&gt;Node11 -->
<g id="edge15" class="edge">
<title>Node9&#45;&gt;Node11</title>
<path fill="none" stroke="#404040" d="M423.6578,-975.4832C430.145,-945.9451 443.9014,-899.8705 470.599,-869 481.2731,-856.6576 492.3794,-863.7213 502.599,-851 530.0827,-816.7887 545.788,-770.8887 554.7513,-730.6815"/>
<polygon fill="none" stroke="#404040" points="554.8047,-730.4266 552.1214,-723.7333 557.2678,-718.6821 559.9511,-725.3754 554.8047,-730.4266"/>
<text text-anchor="middle" x="510.099" y="-877.5" font-family="Helvetica,sans-Serif" font-size="10.00" fill="#000000"> +triggersignals</text>
</g>
<!-- Node10 -->
<g id="node10" class="node">
<title>Node10</title>
<polygon fill="none" stroke="#bfbfbf" points="230.099,-975.5 230.099,-1032.5 367.099,-1032.5 367.099,-975.5 230.099,-975.5"/>
<text text-anchor="middle" x="298.599" y="-1020.5" font-family="Helvetica,sans-Serif" font-size="10.00" fill="#000000">static constexpr uint16_t</text>
<polyline fill="none" stroke="#bfbfbf" points="230.099,-1013.5 367.099,-1013.5 "/>
<text text-anchor="middle" x="298.599" y="-1001.5" font-family="Helvetica,sans-Serif" font-size="10.00" fill="#000000"> </text>
<polyline fill="none" stroke="#bfbfbf" points="230.099,-994.5 367.099,-994.5 "/>
<text text-anchor="middle" x="298.599" y="-982.5" font-family="Helvetica,sans-Serif" font-size="10.00" fill="#000000"> </text>
</g>
<!-- Node10&#45;&gt;Node6 -->
<g id="edge9" class="edge">
<title>Node10&#45;&gt;Node6</title>
<path fill="none" stroke="#404040" d="M294.7317,-975.2694C291.8602,-952.4696 288.1794,-919.76 286.599,-891 286.0915,-881.7638 285.6614,-872.3332 285.2994,-862.8042"/>
<polygon fill="none" stroke="#404040" points="285.2952,-862.6815 281.0883,-856.8247 284.8765,-850.6888 289.0834,-856.5456 285.2952,-862.6815"/>
<text text-anchor="middle" x="318.599" y="-877.5" font-family="Helvetica,sans-Serif" font-size="10.00" fill="#000000"> +DummyBC</text>
</g>
<!-- Node11&#45;&gt;Node5 -->
<g id="edge11" class="edge">
<title>Node11&#45;&gt;Node5</title>
<path fill="none" stroke="#404040" d="M543.0246,-562.4855C530.9946,-522.7966 516.089,-473.8062 502.599,-430 499.0394,-418.4408 495.3066,-406.3776 491.5722,-394.3466"/>
<polygon fill="none" stroke="#404040" points="491.5574,-394.2988 485.9573,-389.7558 487.9968,-382.8392 493.597,-387.3821 491.5574,-394.2988"/>
<text text-anchor="middle" x="525.599" y="-404" font-family="Helvetica,sans-Serif" font-size="10.00" fill="#000000"> +mTriggers</text>
</g>
<!-- Node12 -->
<g id="node12" class="node">
<title>Node12</title>
<polygon fill="none" stroke="#bfbfbf" points="531.599,-975.5 531.599,-1032.5 575.599,-1032.5 575.599,-975.5 531.599,-975.5"/>
<text text-anchor="middle" x="553.599" y="-1020.5" font-family="Helvetica,sans-Serif" font-size="10.00" fill="#000000">int8_t</text>
<polyline fill="none" stroke="#bfbfbf" points="531.599,-1013.5 575.599,-1013.5 "/>
<text text-anchor="middle" x="553.599" y="-1001.5" font-family="Helvetica,sans-Serif" font-size="10.00" fill="#000000"> </text>
<polyline fill="none" stroke="#bfbfbf" points="531.599,-994.5 575.599,-994.5 "/>
<text text-anchor="middle" x="553.599" y="-982.5" font-family="Helvetica,sans-Serif" font-size="10.00" fill="#000000"> </text>
</g>
<!-- Node12&#45;&gt;Node11 -->
<g id="edge12" class="edge">
<title>Node12&#45;&gt;Node11</title>
<path fill="none" stroke="#404040" d="M553.4372,-975.2875C553.3718,-947.9532 553.501,-905.6643 554.599,-869 555.9627,-823.4641 558.5127,-772.8712 560.9125,-730.89"/>
<polygon fill="none" stroke="#404040" points="560.9233,-730.7025 557.2771,-724.4812 561.6175,-718.7226 565.2637,-724.944 560.9233,-730.7025"/>
<text text-anchor="middle" x="579.099" y="-883" font-family="Helvetica,sans-Serif" font-size="10.00" fill="#000000"> +nChanA</text>
<text text-anchor="middle" x="579.099" y="-872" font-family="Helvetica,sans-Serif" font-size="10.00" fill="#000000">+nChanC</text>
</g>
<!-- Node13 -->
<g id="node13" class="node">
<title>Node13</title>
<polygon fill="none" stroke="#bfbfbf" points="599.599,-975.5 599.599,-1032.5 649.599,-1032.5 649.599,-975.5 599.599,-975.5"/>
<text text-anchor="middle" x="624.599" y="-1020.5" font-family="Helvetica,sans-Serif" font-size="10.00" fill="#000000">int32_t</text>
<polyline fill="none" stroke="#bfbfbf" points="599.599,-1013.5 649.599,-1013.5 "/>
<text text-anchor="middle" x="624.599" y="-1001.5" font-family="Helvetica,sans-Serif" font-size="10.00" fill="#000000"> </text>
<polyline fill="none" stroke="#bfbfbf" points="599.599,-994.5 649.599,-994.5 "/>
<text text-anchor="middle" x="624.599" y="-982.5" font-family="Helvetica,sans-Serif" font-size="10.00" fill="#000000"> </text>
</g>
<!-- Node13&#45;&gt;Node11 -->
<g id="edge13" class="edge">
<title>Node13&#45;&gt;Node11</title>
<path fill="none" stroke="#404040" d="M620.1854,-975.2864C615.9711,-947.9513 609.4187,-905.6618 603.599,-869 596.3583,-823.3861 588.1618,-772.6757 581.327,-730.6377"/>
<polygon fill="none" stroke="#404040" points="581.3183,-730.5836 576.4067,-725.3038 579.3912,-718.7393 584.3029,-724.0191 581.3183,-730.5836"/>
<text text-anchor="middle" x="627.099" y="-883" font-family="Helvetica,sans-Serif" font-size="10.00" fill="#000000"> +amplA</text>
<text text-anchor="middle" x="627.099" y="-872" font-family="Helvetica,sans-Serif" font-size="10.00" fill="#000000">+amplC</text>
</g>
<!-- Node14 -->
<g id="node14" class="node">
<title>Node14</title>
<polygon fill="none" stroke="#bfbfbf" points="667.599,-975.5 667.599,-1032.5 717.599,-1032.5 717.599,-975.5 667.599,-975.5"/>
<text text-anchor="middle" x="692.599" y="-1020.5" font-family="Helvetica,sans-Serif" font-size="10.00" fill="#000000">int16_t</text>
<polyline fill="none" stroke="#bfbfbf" points="667.599,-1013.5 717.599,-1013.5 "/>
<text text-anchor="middle" x="692.599" y="-1001.5" font-family="Helvetica,sans-Serif" font-size="10.00" fill="#000000"> </text>
<polyline fill="none" stroke="#bfbfbf" points="667.599,-994.5 717.599,-994.5 "/>
<text text-anchor="middle" x="692.599" y="-982.5" font-family="Helvetica,sans-Serif" font-size="10.00" fill="#000000"> </text>
</g>
<!-- Node14&#45;&gt;Node11 -->
<g id="edge14" class="edge">
<title>Node14&#45;&gt;Node11</title>
<path fill="none" stroke="#404040" d="M684.7615,-975.3695C677.0939,-947.9139 664.8176,-905.3811 652.599,-869 637.0545,-822.7156 618.087,-771.8208 601.9242,-729.8354"/>
<polygon fill="none" stroke="#404040" points="601.8781,-729.7161 595.9848,-725.5605 597.554,-718.5222 603.4474,-722.6778 601.8781,-729.7161"/>
<text text-anchor="middle" x="680.099" y="-883" font-family="Helvetica,sans-Serif" font-size="10.00" fill="#000000"> +timeA</text>
<text text-anchor="middle" x="680.099" y="-872" font-family="Helvetica,sans-Serif" font-size="10.00" fill="#000000">+timeC</text>
</g>
<!-- Node15 -->
<g id="node15" class="node">
<title>Node15</title>
<g id="a_node15"><a xlink:href="../../d7/dc7/classo2_1_1dataformats_1_1RangeReference.html" target="_top" xlink:title="{o2::dataformats::RangeReference\l\&lt; int, int \&gt;\n||+ RangeReference()\l+ RangeReference()\l+ RangeReference()\l+ ~RangeReference()\l+ set()\l+ clear()\l+ getFirstEntry()\l+ getEntries()\l+ setFirstEntry()\l+ setEntries()\l+ changeEntriesBy()\l+ operator==()\l}">
<polygon fill="none" stroke="#000000" points="684.599,-546 684.599,-735 864.599,-735 864.599,-546 684.599,-546"/>
<text text-anchor="start" x="692.599" y="-723" font-family="Helvetica,sans-Serif" font-size="10.00" fill="#000000">o2::dataformats::RangeReference</text>
<text text-anchor="middle" x="774.599" y="-712" font-family="Helvetica,sans-Serif" font-size="10.00" fill="#000000">&lt; int, int &gt;</text>
<polyline fill="none" stroke="#000000" points="684.599,-705 864.599,-705 "/>
<text text-anchor="middle" x="774.599" y="-693" font-family="Helvetica,sans-Serif" font-size="10.00" fill="#000000"> </text>
<polyline fill="none" stroke="#000000" points="684.599,-686 864.599,-686 "/>
<text text-anchor="start" x="692.599" y="-674" font-family="Helvetica,sans-Serif" font-size="10.00" fill="#000000">+ RangeReference()</text>
<text text-anchor="start" x="692.599" y="-663" font-family="Helvetica,sans-Serif" font-size="10.00" fill="#000000">+ RangeReference()</text>
<text text-anchor="start" x="692.599" y="-652" font-family="Helvetica,sans-Serif" font-size="10.00" fill="#000000">+ RangeReference()</text>
<text text-anchor="start" x="692.599" y="-641" font-family="Helvetica,sans-Serif" font-size="10.00" fill="#000000">+ ~RangeReference()</text>
<text text-anchor="start" x="692.599" y="-630" font-family="Helvetica,sans-Serif" font-size="10.00" fill="#000000">+ set()</text>
<text text-anchor="start" x="692.599" y="-619" font-family="Helvetica,sans-Serif" font-size="10.00" fill="#000000">+ clear()</text>
<text text-anchor="start" x="692.599" y="-608" font-family="Helvetica,sans-Serif" font-size="10.00" fill="#000000">+ getFirstEntry()</text>
<text text-anchor="start" x="692.599" y="-597" font-family="Helvetica,sans-Serif" font-size="10.00" fill="#000000">+ getEntries()</text>
<text text-anchor="start" x="692.599" y="-586" font-family="Helvetica,sans-Serif" font-size="10.00" fill="#000000">+ setFirstEntry()</text>
<text text-anchor="start" x="692.599" y="-575" font-family="Helvetica,sans-Serif" font-size="10.00" fill="#000000">+ setEntries()</text>
<text text-anchor="start" x="692.599" y="-564" font-family="Helvetica,sans-Serif" font-size="10.00" fill="#000000">+ changeEntriesBy()</text>
<text text-anchor="start" x="692.599" y="-553" font-family="Helvetica,sans-Serif" font-size="10.00" fill="#000000">+ operator==()</text>
</a>
</g>
</g>
<!-- Node15&#45;&gt;Node5 -->
<g id="edge16" class="edge">
<title>Node15&#45;&gt;Node5</title>
<path fill="none" stroke="#404040" d="M714.7436,-545.9757C689.1558,-508.3586 657.7862,-465.6357 625.599,-430 599.1005,-400.6624 567.0434,-371.3986 538.0027,-346.763"/>
<polygon fill="none" stroke="#404040" points="537.8753,-346.6559 530.7087,-345.8559 528.6908,-338.9329 535.8574,-339.7329 537.8753,-346.6559"/>
<text text-anchor="middle" x="617.099" y="-404" font-family="Helvetica,sans-Serif" font-size="10.00" fill="#000000"> +ref</text>
</g>
<!-- Node16 -->
<g id="node16" class="node">
<title>Node16</title>
<g id="a_node16"><a xlink:href="../../d7/dc7/classo2_1_1dataformats_1_1RangeReference.html" target="_top" xlink:title="{o2::dataformats::RangeReference\l\&lt; FirstEntry, NElem \&gt;\n||+ RangeReference()\l+ RangeReference()\l+ RangeReference()\l+ ~RangeReference()\l+ set()\l+ clear()\l+ getFirstEntry()\l+ getEntries()\l+ setFirstEntry()\l+ setEntries()\l+ changeEntriesBy()\l+ operator==()\l}">
<polygon fill="none" stroke="#000000" points="735.599,-909.5 735.599,-1098.5 915.599,-1098.5 915.599,-909.5 735.599,-909.5"/>
<text text-anchor="start" x="743.599" y="-1086.5" font-family="Helvetica,sans-Serif" font-size="10.00" fill="#000000">o2::dataformats::RangeReference</text>
<text text-anchor="middle" x="825.599" y="-1075.5" font-family="Helvetica,sans-Serif" font-size="10.00" fill="#000000">&lt; FirstEntry, NElem &gt;</text>
<polyline fill="none" stroke="#000000" points="735.599,-1068.5 915.599,-1068.5 "/>
<text text-anchor="middle" x="825.599" y="-1056.5" font-family="Helvetica,sans-Serif" font-size="10.00" fill="#000000"> </text>
<polyline fill="none" stroke="#000000" points="735.599,-1049.5 915.599,-1049.5 "/>
<text text-anchor="start" x="743.599" y="-1037.5" font-family="Helvetica,sans-Serif" font-size="10.00" fill="#000000">+ RangeReference()</text>
<text text-anchor="start" x="743.599" y="-1026.5" font-family="Helvetica,sans-Serif" font-size="10.00" fill="#000000">+ RangeReference()</text>
<text text-anchor="start" x="743.599" y="-1015.5" font-family="Helvetica,sans-Serif" font-size="10.00" fill="#000000">+ RangeReference()</text>
<text text-anchor="start" x="743.599" y="-1004.5" font-family="Helvetica,sans-Serif" font-size="10.00" fill="#000000">+ ~RangeReference()</text>
<text text-anchor="start" x="743.599" y="-993.5" font-family="Helvetica,sans-Serif" font-size="10.00" fill="#000000">+ set()</text>
<text text-anchor="start" x="743.599" y="-982.5" font-family="Helvetica,sans-Serif" font-size="10.00" fill="#000000">+ clear()</text>
<text text-anchor="start" x="743.599" y="-971.5" font-family="Helvetica,sans-Serif" font-size="10.00" fill="#000000">+ getFirstEntry()</text>
<text text-anchor="start" x="743.599" y="-960.5" font-family="Helvetica,sans-Serif" font-size="10.00" fill="#000000">+ getEntries()</text>
<text text-anchor="start" x="743.599" y="-949.5" font-family="Helvetica,sans-Serif" font-size="10.00" fill="#000000">+ setFirstEntry()</text>
<text text-anchor="start" x="743.599" y="-938.5" font-family="Helvetica,sans-Serif" font-size="10.00" fill="#000000">+ setEntries()</text>
<text text-anchor="start" x="743.599" y="-927.5" font-family="Helvetica,sans-Serif" font-size="10.00" fill="#000000">+ changeEntriesBy()</text>
<text text-anchor="start" x="743.599" y="-916.5" font-family="Helvetica,sans-Serif" font-size="10.00" fill="#000000">+ operator==()</text>
</a>
</g>
</g>
<!-- Node16&#45;&gt;Node15 -->
<g id="edge17" class="edge">
<title>Node16&#45;&gt;Node15</title>
<path fill="none" stroke="#ffa500" d="M810.9004,-899.2367C803.6401,-847.4889 794.9467,-785.5268 787.8876,-735.2138"/>
<polygon fill="#ffa500" stroke="#ffa500" points="807.4769,-900.0269 812.3325,-909.4436 814.4091,-899.0542 807.4769,-900.0269"/>
<text text-anchor="middle" x="837.599" y="-877.5" font-family="Helvetica,sans-Serif" font-size="10.00" fill="#000000"> &lt; int, int &gt;</text>
</g>
</g>
</svg>
        <g id="navigator" transform="translate(0 0)" fill="#404254">
                <rect fill="#f2f5e9" fill-opacity="0.5" stroke="#606060" stroke-width=".5" x="0" y="0" width="60" height="60"/>
                <use id="zoomplus" xlink:href="#zoomPlus" x="17" y="9" onmousedown="handleZoom(evt,'in')"/>
                <use id="zoomminus" xlink:href="#zoomMin" x="42" y="9" onmousedown="handleZoom(evt,'out')"/>
                <use id="reset" xlink:href="#resetDef" x="30" y="36" onmousedown="handleReset()"/>
                <g id="arrowUp" xlink:href="#dirArrow" transform="translate(30 24)" onmousedown="handlePan(0,-1)">
                  <use xlink:href="#rim" fill="#404040">
                        <set attributeName="fill" to="#808080" begin="arrowUp.mouseover" end="arrowUp.mouseout"/>
                  </use>
                  <path fill="none" stroke="white" stroke-width="1.5" d="M0,-3.0v7 M-2.5,-0.5L0,-3.0L2.5,-0.5"/>
                </g>
                <g id="arrowRight" xlink:href="#dirArrow" transform="rotate(90) translate(36 -43)" onmousedown="handlePan(1,0)">
                  <use xlink:href="#rim" fill="#404040">
                        <set attributeName="fill" to="#808080" begin="arrowRight.mouseover" end="arrowRight.mouseout"/>
                  </use>
                  <path fill="none" stroke="white" stroke-width="1.5" d="M0,-3.0v7 M-2.5,-0.5L0,-3.0L2.5,-0.5"/>
                </g>
                <g id="arrowDown" xlink:href="#dirArrow" transform="rotate(180) translate(-30 -48)" onmousedown="handlePan(0,1)">
                  <use xlink:href="#rim" fill="#404040">
                        <set attributeName="fill" to="#808080" begin="arrowDown.mouseover" end="arrowDown.mouseout"/>
                  </use>
                  <path fill="none" stroke="white" stroke-width="1.5" d="M0,-3.0v7 M-2.5,-0.5L0,-3.0L2.5,-0.5"/>
                </g>
                <g id="arrowLeft" xlink:href="#dirArrow" transform="rotate(270) translate(-36 17)" onmousedown="handlePan(-1,0)">
                  <use xlink:href="#rim" fill="#404040">
                        <set attributeName="fill" to="#808080" begin="arrowLeft.mouseover" end="arrowLeft.mouseout"/>
                  </use>
                  <path fill="none" stroke="white" stroke-width="1.5" d="M0,-3.0v7 M-2.5,-0.5L0,-3.0L2.5,-0.5"/>
                </g>
        </g>
        <svg viewBox="0 0 15 15" width="100%" height="30px" preserveAspectRatio="xMaxYMin meet">
         <g id="arrow_out" transform="scale(0.3 0.3)">
          <a xlink:href="classo2_1_1ft0_1_1DigitBlockFT0__coll__graph_org.svg" target="_base">
           <rect id="button" ry="5" rx="5" y="6" x="6" height="38" width="38"
                fill="#f2f5e9" fill-opacity="0.5" stroke="#606060" stroke-width="1.0"/>
           <path id="arrow"
             d="M 11.500037,31.436501 C 11.940474,20.09759 22.043105,11.32322 32.158766,21.979434 L 37.068811,17.246167 C 37.068811,17.246167 37.088388,32 37.088388,32 L 22.160133,31.978069 C 22.160133,31.978069 26.997745,27.140456 26.997745,27.140456 C 18.528582,18.264221 13.291696,25.230495 11.500037,31.436501 z"
             style="fill:#404040;"/>
          </a>
         </g>
        </svg>
</svg>
