<?xml version="1.0" encoding="UTF-8" standalone="no"?>
<!DOCTYPE svg PUBLIC "-//W3C//DTD SVG 1.1//EN"
 "http://www.w3.org/Graphics/SVG/1.1/DTD/svg11.dtd">
<!-- Generated by graphviz version 2.40.1 (20161225.0304)
 -->
<!-- Title: o2::tof::Compressor&lt; RDH, verbose &gt;::DecoderSummary_t Pages: 1 -->
<svg width="299pt" height="358pt"
 viewBox="0.00 0.00 299.00 358.00" xmlns="http://www.w3.org/2000/svg" xmlns:xlink="http://www.w3.org/1999/xlink">
<g id="graph0" class="graph" transform="scale(1 1) rotate(0) translate(4 354)">
<title>o2::tof::Compressor&lt; RDH, verbose &gt;::DecoderSummary_t</title>
<!-- Node1 -->
<g id="node1" class="node">
<title>Node1</title>
<polygon fill="#bfbfbf" stroke="#000000" points="4.5,-.5 4.5,-134.5 213.5,-134.5 213.5,-.5 4.5,-.5"/>
<text text-anchor="start" x="12.5" y="-122.5" font-family="Helvetica,sans-Serif" font-size="10.00" fill="#000000">o2::tof::Compressor</text>
<text text-anchor="middle" x="109" y="-111.5" font-family="Helvetica,sans-Serif" font-size="10.00" fill="#000000">&lt; RDH, verbose &gt;::DecoderSummary_t</text>
<polyline fill="none" stroke="#000000" points="4.5,-104.5 213.5,-104.5 "/>
<text text-anchor="start" x="12.5" y="-92.5" font-family="Helvetica,sans-Serif" font-size="10.00" fill="#000000">+ tofOrbit</text>
<text text-anchor="start" x="12.5" y="-81.5" font-family="Helvetica,sans-Serif" font-size="10.00" fill="#000000">+ drmHeadW5</text>
<text text-anchor="start" x="12.5" y="-70.5" font-family="Helvetica,sans-Serif" font-size="10.00" fill="#000000">+ drmDataTrailer</text>
<text text-anchor="start" x="12.5" y="-59.5" font-family="Helvetica,sans-Serif" font-size="10.00" fill="#000000">+ ltmDataHeader</text>
<text text-anchor="start" x="12.5" y="-48.5" font-family="Helvetica,sans-Serif" font-size="10.00" fill="#000000">+ trmDataTrailer</text>
<text text-anchor="start" x="12.5" y="-37.5" font-family="Helvetica,sans-Serif" font-size="10.00" fill="#000000">+ trmChainHeader</text>
<text text-anchor="start" x="12.5" y="-26.5" font-family="Helvetica,sans-Serif" font-size="10.00" fill="#000000">+ trmChainTrailer</text>
<polyline fill="none" stroke="#000000" points="4.5,-19.5 213.5,-19.5 "/>
<text text-anchor="middle" x="109" y="-7.5" font-family="Helvetica,sans-Serif" font-size="10.00" fill="#000000"> </text>
</g>
<!-- Node2 -->
<g id="node2" class="node">
<title>Node2</title>
<polygon fill="none" stroke="#bfbfbf" points="0,-292.5 0,-349.5 38,-349.5 38,-292.5 0,-292.5"/>
<text text-anchor="middle" x="19" y="-337.5" font-family="Helvetica,sans-Serif" font-size="10.00" fill="#000000">bool</text>
<polyline fill="none" stroke="#bfbfbf" points="0,-330.5 38,-330.5 "/>
<text text-anchor="middle" x="19" y="-318.5" font-family="Helvetica,sans-Serif" font-size="10.00" fill="#000000"> </text>
<polyline fill="none" stroke="#bfbfbf" points="0,-311.5 38,-311.5 "/>
<text text-anchor="middle" x="19" y="-299.5" font-family="Helvetica,sans-Serif" font-size="10.00" fill="#000000"> </text>
</g>
<!-- Node2&#45;&gt;Node1 -->
<g id="edge1" class="edge">
<title>Node2&#45;&gt;Node1</title>
<path fill="none" stroke="#404040" d="M17.3694,-292.4019C16.4789,-257.9273 18.439,-198.9056 38,-153 39.0754,-150.4761 40.2505,-147.9689 41.5107,-145.4842"/>
<polygon fill="none" stroke="#404040" points="41.6614,-145.2157 41.1116,-138.0256 47.5372,-134.7527 48.0869,-141.9428 41.6614,-145.2157"/>
<text text-anchor="middle" x="71.5" y="-222" font-family="Helvetica,sans-Serif" font-size="10.00" fill="#000000"> +hasErrors</text>
<text text-anchor="middle" x="71.5" y="-211" font-family="Helvetica,sans-Serif" font-size="10.00" fill="#000000">+decodeError</text>
<text text-anchor="middle" x="71.5" y="-200" font-family="Helvetica,sans-Serif" font-size="10.00" fill="#000000">+hasHits</text>
</g>
<!-- Node3 -->
<g id="node3" class="node">
<title>Node3</title>
<polygon fill="none" stroke="#bfbfbf" points="78.5,-292.5 78.5,-349.5 139.5,-349.5 139.5,-292.5 78.5,-292.5"/>
<text text-anchor="middle" x="109" y="-337.5" font-family="Helvetica,sans-Serif" font-size="10.00" fill="#000000">unsigned</text>
<polyline fill="none" stroke="#bfbfbf" points="78.5,-330.5 139.5,-330.5 "/>
<text text-anchor="middle" x="109" y="-318.5" font-family="Helvetica,sans-Serif" font-size="10.00" fill="#000000"> </text>
<polyline fill="none" stroke="#bfbfbf" points="78.5,-311.5 139.5,-311.5 "/>
<text text-anchor="middle" x="109" y="-299.5" font-family="Helvetica,sans-Serif" font-size="10.00" fill="#000000"> </text>
</g>
<!-- Node3&#45;&gt;Node1 -->
<g id="edge2" class="edge">
<title>Node3&#45;&gt;Node1</title>
<path fill="none" stroke="#404040" d="M109,-292.4131C109,-257.3039 109,-196.3034 109,-146.681"/>
<polygon fill="none" stroke="#404040" points="109.0001,-146.6594 105,-140.6595 109,-134.6594 113,-140.6594 109.0001,-146.6594"/>
<text text-anchor="middle" x="143.5" y="-216.5" font-family="Helvetica,sans-Serif" font-size="10.00" fill="#000000"> +trmErrors</text>
<text text-anchor="middle" x="143.5" y="-205.5" font-family="Helvetica,sans-Serif" font-size="10.00" fill="#000000">+trmDataHits</text>
</g>
<!-- Node4 -->
<g id="node4" class="node">
<title>Node4</title>
<polygon fill="none" stroke="#bfbfbf" points="179.5,-292.5 179.5,-349.5 222.5,-349.5 222.5,-292.5 179.5,-292.5"/>
<text text-anchor="middle" x="201" y="-337.5" font-family="Helvetica,sans-Serif" font-size="10.00" fill="#000000">const</text>
<polyline fill="none" stroke="#bfbfbf" points="179.5,-330.5 222.5,-330.5 "/>
<text text-anchor="middle" x="201" y="-318.5" font-family="Helvetica,sans-Serif" font-size="10.00" fill="#000000"> </text>
<polyline fill="none" stroke="#bfbfbf" points="179.5,-311.5 222.5,-311.5 "/>
<text text-anchor="middle" x="201" y="-299.5" font-family="Helvetica,sans-Serif" font-size="10.00" fill="#000000"> </text>
</g>
<!-- Node4&#45;&gt;Node1 -->
<g id="edge3" class="edge">
<title>Node4&#45;&gt;Node1</title>
<path fill="none" stroke="#404040" d="M201.9393,-292.3998C202.0365,-257.9231 198.8473,-198.8994 179,-153 177.8597,-150.3629 176.6132,-147.7417 175.2769,-145.1436"/>
<polygon fill="none" stroke="#404040" points="175.2273,-145.0558 168.7916,-141.8028 169.3192,-134.611 175.7549,-137.864 175.2273,-145.0558"/>
<text text-anchor="middle" x="246" y="-266" font-family="Helvetica,sans-Serif" font-size="10.00" fill="#000000"> +drmDataHeader</text>
<text text-anchor="middle" x="246" y="-255" font-family="Helvetica,sans-Serif" font-size="10.00" fill="#000000">+ltmDataTrailer</text>
<text text-anchor="middle" x="246" y="-244" font-family="Helvetica,sans-Serif" font-size="10.00" fill="#000000">+trmDataHeader</text>
<text text-anchor="middle" x="246" y="-233" font-family="Helvetica,sans-Serif" font-size="10.00" fill="#000000">+trmDataHit</text>
<text text-anchor="middle" x="246" y="-222" font-family="Helvetica,sans-Serif" font-size="10.00" fill="#000000">+drmHeadW1</text>
<text text-anchor="middle" x="246" y="-211" font-family="Helvetica,sans-Serif" font-size="10.00" fill="#000000">+drmHeadW2</text>
<text text-anchor="middle" x="246" y="-200" font-family="Helvetica,sans-Serif" font-size="10.00" fill="#000000">+tofDataHeader</text>
<text text-anchor="middle" x="246" y="-189" font-family="Helvetica,sans-Serif" font-size="10.00" fill="#000000">+drmHeadW3</text>
<text text-anchor="middle" x="246" y="-178" font-family="Helvetica,sans-Serif" font-size="10.00" fill="#000000">+drmHeadW4</text>
<text text-anchor="middle" x="246" y="-167" font-family="Helvetica,sans-Serif" font-size="10.00" fill="#000000">+trmError</text>
<text text-anchor="middle" x="246" y="-156" font-family="Helvetica,sans-Serif" font-size="10.00" fill="#000000">...</text>
</g>
</g>
</svg>
