<?xml version="1.0" encoding="UTF-8" standalone="no"?>
<!DOCTYPE svg PUBLIC "-//W3C//DTD SVG 1.1//EN"
 "http://www.w3.org/Graphics/SVG/1.1/DTD/svg11.dtd">
<!-- Generated by graphviz version 2.40.1 (20161225.0304)
 -->
<!-- Title: o2::framework::InitContext Pages: 1 -->
<svg width="1443pt" height="540pt"
 viewBox="0.00 0.00 1443.00 540.00" xmlns="http://www.w3.org/2000/svg" xmlns:xlink="http://www.w3.org/1999/xlink">
<g id="graph0" class="graph" transform="scale(1 1) rotate(0) translate(4 536)">
<title>o2::framework::InitContext</title>
<!-- Node1 -->
<g id="node1" class="node">
<title>Node1</title>
<polygon fill="#bfbfbf" stroke="#000000" points="827,-.5 827,-79.5 975,-79.5 975,-.5 827,-.5"/>
<text text-anchor="middle" x="901" y="-67.5" font-family="Helvetica,sans-Serif" font-size="10.00" fill="#000000">o2::framework::InitContext</text>
<polyline fill="none" stroke="#000000" points="827,-60.5 975,-60.5 "/>
<text text-anchor="middle" x="901" y="-48.5" font-family="Helvetica,sans-Serif" font-size="10.00" fill="#000000"> </text>
<polyline fill="none" stroke="#000000" points="827,-41.5 975,-41.5 "/>
<text text-anchor="start" x="835" y="-29.5" font-family="Helvetica,sans-Serif" font-size="10.00" fill="#000000">+ InitContext()</text>
<text text-anchor="start" x="835" y="-18.5" font-family="Helvetica,sans-Serif" font-size="10.00" fill="#000000">+ options()</text>
<text text-anchor="start" x="835" y="-7.5" font-family="Helvetica,sans-Serif" font-size="10.00" fill="#000000">+ services()</text>
</g>
<!-- Node2 -->
<g id="node2" class="node">
<title>Node2</title>
<g id="a_node2"><a xlink:href="../../dc/dba/structo2_1_1framework_1_1ServiceRegistry.html" target="_top" xlink:title="{o2::framework::ServiceRegistry\n||+ ServiceRegistry()\l+ ServiceRegistry()\l+ operator=()\l+ preProcessingCallbacks()\l+ postProcessingCallbacks()\l+ preDanglingCallbacks()\l+ postDanglingCallbacks()\l+ preEOSCallbacks()\l+ postEOSCallbacks()\l+ declareService()\l+ bindService()\l+ registerService()\l+ getPos()\l+ get()\l+ registerService()\l+ registerService()\l+ registerService()\l+ active()\l+ get()\l}">
<polygon fill="none" stroke="#000000" points="725,-127.5 725,-382.5 895,-382.5 895,-127.5 725,-127.5"/>
<text text-anchor="middle" x="810" y="-370.5" font-family="Helvetica,sans-Serif" font-size="10.00" fill="#000000">o2::framework::ServiceRegistry</text>
<polyline fill="none" stroke="#000000" points="725,-363.5 895,-363.5 "/>
<text text-anchor="middle" x="810" y="-351.5" font-family="Helvetica,sans-Serif" font-size="10.00" fill="#000000"> </text>
<polyline fill="none" stroke="#000000" points="725,-344.5 895,-344.5 "/>
<text text-anchor="start" x="733" y="-332.5" font-family="Helvetica,sans-Serif" font-size="10.00" fill="#000000">+ ServiceRegistry()</text>
<text text-anchor="start" x="733" y="-321.5" font-family="Helvetica,sans-Serif" font-size="10.00" fill="#000000">+ ServiceRegistry()</text>
<text text-anchor="start" x="733" y="-310.5" font-family="Helvetica,sans-Serif" font-size="10.00" fill="#000000">+ operator=()</text>
<text text-anchor="start" x="733" y="-299.5" font-family="Helvetica,sans-Serif" font-size="10.00" fill="#000000">+ preProcessingCallbacks()</text>
<text text-anchor="start" x="733" y="-288.5" font-family="Helvetica,sans-Serif" font-size="10.00" fill="#000000">+ postProcessingCallbacks()</text>
<text text-anchor="start" x="733" y="-277.5" font-family="Helvetica,sans-Serif" font-size="10.00" fill="#000000">+ preDanglingCallbacks()</text>
<text text-anchor="start" x="733" y="-266.5" font-family="Helvetica,sans-Serif" font-size="10.00" fill="#000000">+ postDanglingCallbacks()</text>
<text text-anchor="start" x="733" y="-255.5" font-family="Helvetica,sans-Serif" font-size="10.00" fill="#000000">+ preEOSCallbacks()</text>
<text text-anchor="start" x="733" y="-244.5" font-family="Helvetica,sans-Serif" font-size="10.00" fill="#000000">+ postEOSCallbacks()</text>
<text text-anchor="start" x="733" y="-233.5" font-family="Helvetica,sans-Serif" font-size="10.00" fill="#000000">+ declareService()</text>
<text text-anchor="start" x="733" y="-222.5" font-family="Helvetica,sans-Serif" font-size="10.00" fill="#000000">+ bindService()</text>
<text text-anchor="start" x="733" y="-211.5" font-family="Helvetica,sans-Serif" font-size="10.00" fill="#000000">+ registerService()</text>
<text text-anchor="start" x="733" y="-200.5" font-family="Helvetica,sans-Serif" font-size="10.00" fill="#000000">+ getPos()</text>
<text text-anchor="start" x="733" y="-189.5" font-family="Helvetica,sans-Serif" font-size="10.00" fill="#000000">+ get()</text>
<text text-anchor="start" x="733" y="-178.5" font-family="Helvetica,sans-Serif" font-size="10.00" fill="#000000">+ registerService()</text>
<text text-anchor="start" x="733" y="-167.5" font-family="Helvetica,sans-Serif" font-size="10.00" fill="#000000">+ registerService()</text>
<text text-anchor="start" x="733" y="-156.5" font-family="Helvetica,sans-Serif" font-size="10.00" fill="#000000">+ registerService()</text>
<text text-anchor="start" x="733" y="-145.5" font-family="Helvetica,sans-Serif" font-size="10.00" fill="#000000">+ active()</text>
<text text-anchor="start" x="733" y="-134.5" font-family="Helvetica,sans-Serif" font-size="10.00" fill="#000000">+ get()</text>
</a>
</g>
</g>
<!-- Node2&#45;&gt;Node1 -->
<g id="edge1" class="edge">
<title>Node2&#45;&gt;Node1</title>
<path fill="none" stroke="#404040" d="M846.9796,-127.2803C851.0054,-117.2208 855.3476,-107.3473 860,-98 861.3462,-95.2953 862.8102,-92.5771 864.3572,-89.8728"/>
<polygon fill="none" stroke="#404040" points="864.3989,-89.8045 864.1182,-82.5989 870.6615,-79.5683 870.9423,-86.774 864.3989,-89.8045"/>
<text text-anchor="middle" x="891.5" y="-101" font-family="Helvetica,sans-Serif" font-size="10.00" fill="#000000"> +mServices</text>
</g>
<!-- Node3 -->
<g id="node3" class="node">
<title>Node3</title>
<polygon fill="none" stroke="#bfbfbf" points="0,-452.5 0,-531.5 162,-531.5 162,-452.5 0,-452.5"/>
<text text-anchor="start" x="8" y="-519.5" font-family="Helvetica,sans-Serif" font-size="10.00" fill="#000000">array&lt; o2::framework</text>
<text text-anchor="start" x="8" y="-508.5" font-family="Helvetica,sans-Serif" font-size="10.00" fill="#000000">::ServiceMeta, MAX_SERVICES</text>
<text text-anchor="middle" x="81" y="-497.5" font-family="Helvetica,sans-Serif" font-size="10.00" fill="#000000">+MAX_DISTANCE &gt;</text>
<polyline fill="none" stroke="#bfbfbf" points="0,-490.5 162,-490.5 "/>
<text text-anchor="middle" x="81" y="-478.5" font-family="Helvetica,sans-Serif" font-size="10.00" fill="#000000"> </text>
<polyline fill="none" stroke="#bfbfbf" points="0,-471.5 162,-471.5 "/>
<text text-anchor="middle" x="81" y="-459.5" font-family="Helvetica,sans-Serif" font-size="10.00" fill="#000000"> </text>
</g>
<!-- Node3&#45;&gt;Node2 -->
<g id="edge2" class="edge">
<title>Node3&#45;&gt;Node2</title>
<path fill="none" stroke="#404040" d="M154.1954,-452.3778C188.1506,-435.0461 229.4497,-415.423 268,-401 419.7562,-344.2229 603.0162,-299.6106 712.8432,-275.3115"/>
<polygon fill="none" stroke="#404040" points="713.1595,-275.242 718.1604,-270.0467 724.8795,-272.6648 719.8785,-277.8601 713.1595,-275.242"/>
<text text-anchor="middle" x="311.5" y="-415" font-family="Helvetica,sans-Serif" font-size="10.00" fill="#000000"> +mServicesMeta</text>
</g>
<!-- Node4 -->
<g id="node4" class="node">
<title>Node4</title>
<polygon fill="none" stroke="#bfbfbf" points="180,-458 180,-526 368,-526 368,-458 180,-458"/>
<text text-anchor="start" x="188" y="-514" font-family="Helvetica,sans-Serif" font-size="10.00" fill="#000000">array&lt; unsigned int,</text>
<text text-anchor="middle" x="274" y="-503" font-family="Helvetica,sans-Serif" font-size="10.00" fill="#000000"> MAX_SERVICES+MAX_DISTANCE &gt;</text>
<polyline fill="none" stroke="#bfbfbf" points="180,-496 368,-496 "/>
<text text-anchor="middle" x="274" y="-484" font-family="Helvetica,sans-Serif" font-size="10.00" fill="#000000"> </text>
<polyline fill="none" stroke="#bfbfbf" points="180,-477 368,-477 "/>
<text text-anchor="middle" x="274" y="-465" font-family="Helvetica,sans-Serif" font-size="10.00" fill="#000000"> </text>
</g>
<!-- Node4&#45;&gt;Node2 -->
<g id="edge3" class="edge">
<title>Node4&#45;&gt;Node2</title>
<path fill="none" stroke="#404040" d="M321.0691,-457.9133C347.77,-439.5392 382.2952,-417.3499 415,-401 513.0124,-352.0013 631.6528,-310.3324 713.1718,-284.2058"/>
<polygon fill="none" stroke="#404040" points="713.4884,-284.1051 717.9922,-278.4734 724.9229,-280.4648 720.4191,-286.0964 713.4884,-284.1051"/>
<text text-anchor="middle" x="455.5" y="-415" font-family="Helvetica,sans-Serif" font-size="10.00" fill="#000000"> +mServicesKey</text>
</g>
<!-- Node5 -->
<g id="node5" class="node">
<title>Node5</title>
<polygon fill="none" stroke="#bfbfbf" points="386,-458 386,-526 534,-526 534,-458 386,-458"/>
<text text-anchor="start" x="394" y="-514" font-family="Helvetica,sans-Serif" font-size="10.00" fill="#000000">vector&lt; o2::framework</text>
<text text-anchor="middle" x="460" y="-503" font-family="Helvetica,sans-Serif" font-size="10.00" fill="#000000">::ServiceDanglingHandle &gt;</text>
<polyline fill="none" stroke="#bfbfbf" points="386,-496 534,-496 "/>
<text text-anchor="middle" x="460" y="-484" font-family="Helvetica,sans-Serif" font-size="10.00" fill="#000000"> </text>
<polyline fill="none" stroke="#bfbfbf" points="386,-477 534,-477 "/>
<text text-anchor="middle" x="460" y="-465" font-family="Helvetica,sans-Serif" font-size="10.00" fill="#000000"> </text>
</g>
<!-- Node5&#45;&gt;Node2 -->
<g id="edge4" class="edge">
<title>Node5&#45;&gt;Node2</title>
<path fill="none" stroke="#404040" d="M480.9335,-457.9185C493.499,-439.435 510.7571,-417.1382 530,-401 584.8372,-355.0104 656.5594,-317.9585 713.6854,-292.6883"/>
<polygon fill="none" stroke="#404040" points="713.908,-292.5912 717.8077,-286.5255 724.9066,-287.7922 721.007,-293.8579 713.908,-292.5912"/>
<text text-anchor="middle" x="591.5" y="-420.5" font-family="Helvetica,sans-Serif" font-size="10.00" fill="#000000"> +mPreDanglingHandles</text>
<text text-anchor="middle" x="591.5" y="-409.5" font-family="Helvetica,sans-Serif" font-size="10.00" fill="#000000">+mPostDanglingHandles</text>
</g>
<!-- Node6 -->
<g id="node6" class="node">
<title>Node6</title>
<polygon fill="none" stroke="#bfbfbf" points="552.5,-458 552.5,-526 709.5,-526 709.5,-458 552.5,-458"/>
<text text-anchor="start" x="560.5" y="-514" font-family="Helvetica,sans-Serif" font-size="10.00" fill="#000000">vector&lt; o2::framework</text>
<text text-anchor="middle" x="631" y="-503" font-family="Helvetica,sans-Serif" font-size="10.00" fill="#000000">::ServiceProcessingHandle &gt;</text>
<polyline fill="none" stroke="#bfbfbf" points="552.5,-496 709.5,-496 "/>
<text text-anchor="middle" x="631" y="-484" font-family="Helvetica,sans-Serif" font-size="10.00" fill="#000000"> </text>
<polyline fill="none" stroke="#bfbfbf" points="552.5,-477 709.5,-477 "/>
<text text-anchor="middle" x="631" y="-465" font-family="Helvetica,sans-Serif" font-size="10.00" fill="#000000"> </text>
</g>
<!-- Node6&#45;&gt;Node2 -->
<g id="edge5" class="edge">
<title>Node6&#45;&gt;Node2</title>
<path fill="none" stroke="#404040" d="M644.1791,-457.8075C651.7125,-440.1404 662.039,-418.646 674,-401 686.4634,-382.6127 701.2162,-364.2764 716.3294,-347.1191"/>
<polygon fill="none" stroke="#404040" points="716.7449,-346.6552 717.7679,-339.517 724.7504,-337.7158 723.7275,-344.854 716.7449,-346.6552"/>
<text text-anchor="middle" x="740" y="-420.5" font-family="Helvetica,sans-Serif" font-size="10.00" fill="#000000"> +mPreProcessingHandles</text>
<text text-anchor="middle" x="740" y="-409.5" font-family="Helvetica,sans-Serif" font-size="10.00" fill="#000000">+mPostProcessingHandles</text>
</g>
<!-- Node7 -->
<g id="node7" class="node">
<title>Node7</title>
<polygon fill="none" stroke="#bfbfbf" points="728,-458 728,-526 892,-526 892,-458 728,-458"/>
<text text-anchor="start" x="736" y="-514" font-family="Helvetica,sans-Serif" font-size="10.00" fill="#000000">array&lt; void *, MAX</text>
<text text-anchor="middle" x="810" y="-503" font-family="Helvetica,sans-Serif" font-size="10.00" fill="#000000">_SERVICES+MAX_DISTANCE &gt;</text>
<polyline fill="none" stroke="#bfbfbf" points="728,-496 892,-496 "/>
<text text-anchor="middle" x="810" y="-484" font-family="Helvetica,sans-Serif" font-size="10.00" fill="#000000"> </text>
<polyline fill="none" stroke="#bfbfbf" points="728,-477 892,-477 "/>
<text text-anchor="middle" x="810" y="-465" font-family="Helvetica,sans-Serif" font-size="10.00" fill="#000000"> </text>
</g>
<!-- Node7&#45;&gt;Node2 -->
<g id="edge6" class="edge">
<title>Node7&#45;&gt;Node2</title>
<path fill="none" stroke="#404040" d="M810,-457.7913C810,-440.5439 810,-418.3571 810,-395.0181"/>
<polygon fill="none" stroke="#404040" points="810.0001,-394.7283 806,-388.7283 810,-382.7283 814,-388.7282 810.0001,-394.7283"/>
<text text-anchor="middle" x="855" y="-415" font-family="Helvetica,sans-Serif" font-size="10.00" fill="#000000"> +mServicesValue</text>
</g>
<!-- Node8 -->
<g id="node8" class="node">
<title>Node8</title>
<polygon fill="none" stroke="#bfbfbf" points="910,-458 910,-526 1040,-526 1040,-458 910,-458"/>
<text text-anchor="start" x="918" y="-514" font-family="Helvetica,sans-Serif" font-size="10.00" fill="#000000">vector&lt; o2::framework</text>
<text text-anchor="middle" x="975" y="-503" font-family="Helvetica,sans-Serif" font-size="10.00" fill="#000000">::ServiceSpec &gt;</text>
<polyline fill="none" stroke="#bfbfbf" points="910,-496 1040,-496 "/>
<text text-anchor="middle" x="975" y="-484" font-family="Helvetica,sans-Serif" font-size="10.00" fill="#000000"> </text>
<polyline fill="none" stroke="#bfbfbf" points="910,-477 1040,-477 "/>
<text text-anchor="middle" x="975" y="-465" font-family="Helvetica,sans-Serif" font-size="10.00" fill="#000000"> </text>
</g>
<!-- Node8&#45;&gt;Node2 -->
<g id="edge7" class="edge">
<title>Node8&#45;&gt;Node2</title>
<path fill="none" stroke="#404040" d="M951.1838,-457.7913C937.8495,-438.6383 920.2745,-413.3943 902.0695,-387.2452"/>
<polygon fill="none" stroke="#404040" points="901.9253,-387.0382 895.2143,-384.3995 895.0689,-377.1898 901.7799,-379.8285 901.9253,-387.0382"/>
<text text-anchor="middle" x="955" y="-415" font-family="Helvetica,sans-Serif" font-size="10.00" fill="#000000"> +mSpecs</text>
</g>
<!-- Node9 -->
<g id="node9" class="node">
<title>Node9</title>
<polygon fill="none" stroke="#bfbfbf" points="1058,-458 1058,-526 1188,-526 1188,-458 1058,-458"/>
<text text-anchor="start" x="1066" y="-514" font-family="Helvetica,sans-Serif" font-size="10.00" fill="#000000">vector&lt; o2::framework</text>
<text text-anchor="middle" x="1123" y="-503" font-family="Helvetica,sans-Serif" font-size="10.00" fill="#000000">::ServiceEOSHandle &gt;</text>
<polyline fill="none" stroke="#bfbfbf" points="1058,-496 1188,-496 "/>
<text text-anchor="middle" x="1123" y="-484" font-family="Helvetica,sans-Serif" font-size="10.00" fill="#000000"> </text>
<polyline fill="none" stroke="#bfbfbf" points="1058,-477 1188,-477 "/>
<text text-anchor="middle" x="1123" y="-465" font-family="Helvetica,sans-Serif" font-size="10.00" fill="#000000"> </text>
</g>
<!-- Node9&#45;&gt;Node2 -->
<g id="edge8" class="edge">
<title>Node9&#45;&gt;Node2</title>
<path fill="none" stroke="#404040" d="M1079.5979,-457.7777C1053.2718,-438.5457 1018.2442,-415.5525 984,-401 950.8576,-386.9157 935.1579,-402.6797 905,-383 904.895,-382.9315 904.79,-382.8628 904.6852,-382.7939"/>
<polygon fill="none" stroke="#404040" points="904.9025,-382.9497 897.6955,-382.7062 895.1484,-375.96 902.3554,-376.2035 904.9025,-382.9497"/>
<text text-anchor="middle" x="1092.5" y="-420.5" font-family="Helvetica,sans-Serif" font-size="10.00" fill="#000000"> +mPreEOSHandles</text>
<text text-anchor="middle" x="1092.5" y="-409.5" font-family="Helvetica,sans-Serif" font-size="10.00" fill="#000000">+mPostEOSHandles</text>
</g>
<!-- Node10 -->
<g id="node10" class="node">
<title>Node10</title>
<polygon fill="none" stroke="#bfbfbf" points="1206.5,-463.5 1206.5,-520.5 1235.5,-520.5 1235.5,-463.5 1206.5,-463.5"/>
<text text-anchor="middle" x="1221" y="-508.5" font-family="Helvetica,sans-Serif" font-size="10.00" fill="#000000">int</text>
<polyline fill="none" stroke="#bfbfbf" points="1206.5,-501.5 1235.5,-501.5 "/>
<text text-anchor="middle" x="1221" y="-489.5" font-family="Helvetica,sans-Serif" font-size="10.00" fill="#000000"> </text>
<polyline fill="none" stroke="#bfbfbf" points="1206.5,-482.5 1235.5,-482.5 "/>
<text text-anchor="middle" x="1221" y="-470.5" font-family="Helvetica,sans-Serif" font-size="10.00" fill="#000000"> </text>
</g>
<!-- Node10&#45;&gt;Node2 -->
<g id="edge9" class="edge">
<title>Node10&#45;&gt;Node2</title>
<path fill="none" stroke="#404040" d="M1206.6662,-463.3793C1194.0247,-441.6881 1173.3557,-413.5451 1146,-401 1100.1393,-379.9688 969.2643,-405.4335 906.3561,-382.04"/>
<polygon fill="none" stroke="#404040" points="905.9934,-381.8742 898.8732,-383.0159 895.0808,-376.8826 902.201,-375.7409 905.9934,-381.8742"/>
<text text-anchor="middle" x="1242.5" y="-426" font-family="Helvetica,sans-Serif" font-size="10.00" fill="#000000"> +MAX_DISTANCE</text>
<text text-anchor="middle" x="1242.5" y="-415" font-family="Helvetica,sans-Serif" font-size="10.00" fill="#000000">+MAX_SERVICES</text>
<text text-anchor="middle" x="1242.5" y="-404" font-family="Helvetica,sans-Serif" font-size="10.00" fill="#000000">+MAX_SERVICES_MASK</text>
</g>
<!-- Node11 -->
<g id="node11" class="node">
<title>Node11</title>
<polygon fill="none" stroke="#bfbfbf" points="1289,-452.5 1289,-531.5 1429,-531.5 1429,-452.5 1289,-452.5"/>
<text text-anchor="start" x="1297" y="-519.5" font-family="Helvetica,sans-Serif" font-size="10.00" fill="#000000">array&lt; std::atomic</text>
<text text-anchor="start" x="1297" y="-508.5" font-family="Helvetica,sans-Serif" font-size="10.00" fill="#000000">&lt; bool &gt;, MAX_SERVICES</text>
<text text-anchor="middle" x="1359" y="-497.5" font-family="Helvetica,sans-Serif" font-size="10.00" fill="#000000">+MAX_DISTANCE &gt;</text>
<polyline fill="none" stroke="#bfbfbf" points="1289,-490.5 1429,-490.5 "/>
<text text-anchor="middle" x="1359" y="-478.5" font-family="Helvetica,sans-Serif" font-size="10.00" fill="#000000"> </text>
<polyline fill="none" stroke="#bfbfbf" points="1289,-471.5 1429,-471.5 "/>
<text text-anchor="middle" x="1359" y="-459.5" font-family="Helvetica,sans-Serif" font-size="10.00" fill="#000000"> </text>
</g>
<!-- Node11&#45;&gt;Node2 -->
<g id="edge10" class="edge">
<title>Node11&#45;&gt;Node2</title>
<path fill="none" stroke="#404040" d="M1345.2668,-452.29C1336.5401,-433.3633 1323.2028,-412.4096 1304,-401 1230.6765,-357.4339 1002.1992,-419.4526 906.0572,-382.0812"/>
<polygon fill="none" stroke="#404040" points="905.9169,-382.0169 898.7958,-383.1533 895.008,-377.0172 902.129,-375.8807 905.9169,-382.0169"/>
<text text-anchor="middle" x="1385" y="-415" font-family="Helvetica,sans-Serif" font-size="10.00" fill="#000000"> +mServicesBooked</text>
</g>
<!-- Node12 -->
<g id="node12" class="node">
<title>Node12</title>
<g id="a_node12"><a xlink:href="../../df/d6f/classo2_1_1framework_1_1ConfigParamRegistry.html" target="_top" xlink:title="{o2::framework::ConfigParam\lRegistry\n||+ ConfigParamRegistry()\l+ isSet()\l+ isDefault()\l+ get()\l}">
<polygon fill="none" stroke="#000000" points="913.5,-204.5 913.5,-305.5 1068.5,-305.5 1068.5,-204.5 913.5,-204.5"/>
<text text-anchor="start" x="921.5" y="-293.5" font-family="Helvetica,sans-Serif" font-size="10.00" fill="#000000">o2::framework::ConfigParam</text>
<text text-anchor="middle" x="991" y="-282.5" font-family="Helvetica,sans-Serif" font-size="10.00" fill="#000000">Registry</text>
<polyline fill="none" stroke="#000000" points="913.5,-275.5 1068.5,-275.5 "/>
<text text-anchor="middle" x="991" y="-263.5" font-family="Helvetica,sans-Serif" font-size="10.00" fill="#000000"> </text>
<polyline fill="none" stroke="#000000" points="913.5,-256.5 1068.5,-256.5 "/>
<text text-anchor="start" x="921.5" y="-244.5" font-family="Helvetica,sans-Serif" font-size="10.00" fill="#000000">+ ConfigParamRegistry()</text>
<text text-anchor="start" x="921.5" y="-233.5" font-family="Helvetica,sans-Serif" font-size="10.00" fill="#000000">+ isSet()</text>
<text text-anchor="start" x="921.5" y="-222.5" font-family="Helvetica,sans-Serif" font-size="10.00" fill="#000000">+ isDefault()</text>
<text text-anchor="start" x="921.5" y="-211.5" font-family="Helvetica,sans-Serif" font-size="10.00" fill="#000000">+ get()</text>
</a>
</g>
</g>
<!-- Node12&#45;&gt;Node1 -->
<g id="edge11" class="edge">
<title>Node12&#45;&gt;Node1</title>
<path fill="none" stroke="#404040" d="M969.7852,-204.3203C955.4512,-170.0779 936.5988,-125.0417 922.2561,-90.7786"/>
<polygon fill="none" stroke="#404040" points="922.2118,-90.6724 916.2051,-86.6823 917.578,-79.6031 923.5847,-83.5932 922.2118,-90.6724"/>
<text text-anchor="middle" x="956.5" y="-101" font-family="Helvetica,sans-Serif" font-size="10.00" fill="#000000"> +mOptions</text>
</g>
</g>
</svg>
