<?xml version="1.0" encoding="UTF-8" standalone="no"?>
<!DOCTYPE svg PUBLIC "-//W3C//DTD SVG 1.1//EN"
 "http://www.w3.org/Graphics/SVG/1.1/DTD/svg11.dtd">
<!-- Generated by graphviz version 2.40.1 (20161225.0304)
 -->
<!-- Title: o2::framework::DPLRawParser Pages: 1 -->
<!--zoomable 650 -->
<svg id="main" version="1.1" xmlns="http://www.w3.org/2000/svg" xmlns:xlink="http://www.w3.org/1999/xlink" xml:space="preserve" onload="init(evt)">
<style type="text/css"><![CDATA[
.edge:hover path { stroke: red; }
.edge:hover polygon { stroke: red; fill: red; }
]]></style>
<script type="text/javascript"><![CDATA[
var edges = document.getElementsByTagName('g');
if (edges && edges.length) {
  for (var i=0;i<edges.length;i++) {
    if (edges[i].id.substr(0,4)=='edge') {
      edges[i].setAttribute('class','edge');
    }
  }
}
]]></script>
        <defs>
                <circle id="rim" cx="0" cy="0" r="7"/>
                <circle id="rim2" cx="0" cy="0" r="3.5"/>
                <g id="zoomPlus">
                        <use xlink:href="#rim" fill="#404040">
                                <set attributeName="fill" to="#808080" begin="zoomplus.mouseover" end="zoomplus.mouseout"/>
                        </use>
                        <path d="M-4,0h8M0,-4v8" fill="none" stroke="white" stroke-width="1.5" pointer-events="none"/>
                </g>
                <g id="zoomMin">
                        <use xlink:href="#rim" fill="#404040">
                                <set attributeName="fill" to="#808080" begin="zoomminus.mouseover" end="zoomminus.mouseout"/>
                        </use>
                        <path d="M-4,0h8" fill="none" stroke="white" stroke-width="1.5" pointer-events="none"/>
                </g>
                <g id="dirArrow">
                        <path fill="none" stroke="white" stroke-width="1.5" d="M0,-3.0v7 M-2.5,-0.5L0,-3.0L2.5,-0.5"/>
                </g>
               <g id="resetDef">
                       <use xlink:href="#rim2" fill="#404040">
                               <set attributeName="fill" to="#808080" begin="reset.mouseover" end="reset.mouseout"/>
                       </use>
               </g>
        </defs>

<script type="text/javascript">
var viewWidth = 1117;
var viewHeight = 650;
var sectionId = 'dynsection-0';
</script>
<script xlink:href="../../svgpan.js"/>
<svg id="graph" class="graph">
<g id="viewport">
<title>o2::framework::DPLRawParser</title>
<!-- Node1 -->
<g id="node1" class="node">
<title>Node1</title>
<polygon fill="#bfbfbf" stroke="#000000" points="498.5,-.5 498.5,-90.5 662.5,-90.5 662.5,-.5 498.5,-.5"/>
<text text-anchor="middle" x="580.5" y="-78.5" font-family="Helvetica,sans-Serif" font-size="10.00" fill="#000000">o2::framework::DPLRawParser</text>
<polyline fill="none" stroke="#000000" points="498.5,-71.5 662.5,-71.5 "/>
<text text-anchor="middle" x="580.5" y="-59.5" font-family="Helvetica,sans-Serif" font-size="10.00" fill="#000000"> </text>
<polyline fill="none" stroke="#000000" points="498.5,-52.5 662.5,-52.5 "/>
<text text-anchor="start" x="506.5" y="-40.5" font-family="Helvetica,sans-Serif" font-size="10.00" fill="#000000">+ DPLRawParser()</text>
<text text-anchor="start" x="506.5" y="-29.5" font-family="Helvetica,sans-Serif" font-size="10.00" fill="#000000">+ DPLRawParser()</text>
<text text-anchor="start" x="506.5" y="-18.5" font-family="Helvetica,sans-Serif" font-size="10.00" fill="#000000">+ begin()</text>
<text text-anchor="start" x="506.5" y="-7.5" font-family="Helvetica,sans-Serif" font-size="10.00" fill="#000000">+ end()</text>
</g>
<!-- Node2 -->
<g id="node2" class="node">
<title>Node2</title>
<g id="a_node2"><a xlink:href="../../d8/d47/structo2_1_1header_1_1RAWDataHeaderV4.html" target="_top" xlink:title="{o2::header::RAWDataHeaderV4\n|+ word0\l+ version\l+ headerSize\l+ blockLength\l+ zero0\l+ word1\l+ offsetToNext\l+ memorySize\l+ packetCounter\l+ cruID\l+ word2\l+ word3\l+ word4\l+ triggerBC\l+ zero41\l+ heartbeatBC\l+ zero42\l+ word5\l+ word6\l+ detectorField\l+ stop\l+ pageCnt\l|}">
<polygon fill="none" stroke="#000000" points="497,-138.5 497,-426.5 664,-426.5 664,-138.5 497,-138.5"/>
<text text-anchor="middle" x="580.5" y="-414.5" font-family="Helvetica,sans-Serif" font-size="10.00" fill="#000000">o2::header::RAWDataHeaderV4</text>
<polyline fill="none" stroke="#000000" points="497,-407.5 664,-407.5 "/>
<text text-anchor="start" x="505" y="-395.5" font-family="Helvetica,sans-Serif" font-size="10.00" fill="#000000">+ word0</text>
<text text-anchor="start" x="505" y="-384.5" font-family="Helvetica,sans-Serif" font-size="10.00" fill="#000000">+ version</text>
<text text-anchor="start" x="505" y="-373.5" font-family="Helvetica,sans-Serif" font-size="10.00" fill="#000000">+ headerSize</text>
<text text-anchor="start" x="505" y="-362.5" font-family="Helvetica,sans-Serif" font-size="10.00" fill="#000000">+ blockLength</text>
<text text-anchor="start" x="505" y="-351.5" font-family="Helvetica,sans-Serif" font-size="10.00" fill="#000000">+ zero0</text>
<text text-anchor="start" x="505" y="-340.5" font-family="Helvetica,sans-Serif" font-size="10.00" fill="#000000">+ word1</text>
<text text-anchor="start" x="505" y="-329.5" font-family="Helvetica,sans-Serif" font-size="10.00" fill="#000000">+ offsetToNext</text>
<text text-anchor="start" x="505" y="-318.5" font-family="Helvetica,sans-Serif" font-size="10.00" fill="#000000">+ memorySize</text>
<text text-anchor="start" x="505" y="-307.5" font-family="Helvetica,sans-Serif" font-size="10.00" fill="#000000">+ packetCounter</text>
<text text-anchor="start" x="505" y="-296.5" font-family="Helvetica,sans-Serif" font-size="10.00" fill="#000000">+ cruID</text>
<text text-anchor="start" x="505" y="-285.5" font-family="Helvetica,sans-Serif" font-size="10.00" fill="#000000">+ word2</text>
<text text-anchor="start" x="505" y="-274.5" font-family="Helvetica,sans-Serif" font-size="10.00" fill="#000000">+ word3</text>
<text text-anchor="start" x="505" y="-263.5" font-family="Helvetica,sans-Serif" font-size="10.00" fill="#000000">+ word4</text>
<text text-anchor="start" x="505" y="-252.5" font-family="Helvetica,sans-Serif" font-size="10.00" fill="#000000">+ triggerBC</text>
<text text-anchor="start" x="505" y="-241.5" font-family="Helvetica,sans-Serif" font-size="10.00" fill="#000000">+ zero41</text>
<text text-anchor="start" x="505" y="-230.5" font-family="Helvetica,sans-Serif" font-size="10.00" fill="#000000">+ heartbeatBC</text>
<text text-anchor="start" x="505" y="-219.5" font-family="Helvetica,sans-Serif" font-size="10.00" fill="#000000">+ zero42</text>
<text text-anchor="start" x="505" y="-208.5" font-family="Helvetica,sans-Serif" font-size="10.00" fill="#000000">+ word5</text>
<text text-anchor="start" x="505" y="-197.5" font-family="Helvetica,sans-Serif" font-size="10.00" fill="#000000">+ word6</text>
<text text-anchor="start" x="505" y="-186.5" font-family="Helvetica,sans-Serif" font-size="10.00" fill="#000000">+ detectorField</text>
<text text-anchor="start" x="505" y="-175.5" font-family="Helvetica,sans-Serif" font-size="10.00" fill="#000000">+ stop</text>
<text text-anchor="start" x="505" y="-164.5" font-family="Helvetica,sans-Serif" font-size="10.00" fill="#000000">+ pageCnt</text>
<polyline fill="none" stroke="#000000" points="497,-157.5 664,-157.5 "/>
<text text-anchor="middle" x="580.5" y="-145.5" font-family="Helvetica,sans-Serif" font-size="10.00" fill="#000000"> </text>
</a>
</g>
</g>
<!-- Node2&#45;&gt;Node1 -->
<g id="edge1" class="edge">
<title>Node2&#45;&gt;Node1</title>
<path fill="none" stroke="#404040" d="M580.5,-138.4885C580.5,-125.9528 580.5,-113.817 580.5,-102.6789"/>
<polygon fill="none" stroke="#404040" points="580.5001,-102.5593 576.5,-96.5594 580.5,-90.5593 584.5,-96.5593 580.5001,-102.5593"/>
<text text-anchor="middle" x="609.5" y="-112" font-family="Helvetica,sans-Serif" font-size="10.00" fill="#000000"> +initializer</text>
</g>
<!-- Node3 -->
<g id="node3" class="node">
<title>Node3</title>
<polygon fill="none" stroke="#bfbfbf" points="0,-584.5 0,-641.5 113,-641.5 113,-584.5 0,-584.5"/>
<text text-anchor="middle" x="56.5" y="-629.5" font-family="Helvetica,sans-Serif" font-size="10.00" fill="#000000">anonymous:+@148</text>
<polyline fill="none" stroke="#bfbfbf" points="0,-622.5 113,-622.5 "/>
<text text-anchor="middle" x="56.5" y="-610.5" font-family="Helvetica,sans-Serif" font-size="10.00" fill="#000000"> </text>
<polyline fill="none" stroke="#bfbfbf" points="0,-603.5 113,-603.5 "/>
<text text-anchor="middle" x="56.5" y="-591.5" font-family="Helvetica,sans-Serif" font-size="10.00" fill="#000000"> </text>
</g>
<!-- Node3&#45;&gt;Node2 -->
<g id="edge2" class="edge">
<title>Node3&#45;&gt;Node2</title>
<path fill="none" stroke="#404040" d="M69.0363,-584.4521C86.5695,-547.543 121.713,-483.4541 169.5,-445 263.1803,-369.6156 396.1852,-325.6304 485.2623,-302.8514"/>
<polygon fill="none" stroke="#404040" points="485.3478,-302.83 490.1943,-297.4905 496.9872,-299.9105 492.1407,-305.2501 485.3478,-302.83"/>
<text text-anchor="middle" x="189.5" y="-503" font-family="Helvetica,sans-Serif" font-size="10.00" fill="#000000"> +@148</text>
</g>
<!-- Node4 -->
<g id="node4" class="node">
<title>Node4</title>
<polygon fill="none" stroke="#bfbfbf" points="131,-584.5 131,-641.5 244,-641.5 244,-584.5 131,-584.5"/>
<text text-anchor="middle" x="187.5" y="-629.5" font-family="Helvetica,sans-Serif" font-size="10.00" fill="#000000">anonymous:+@140</text>
<polyline fill="none" stroke="#bfbfbf" points="131,-622.5 244,-622.5 "/>
<text text-anchor="middle" x="187.5" y="-610.5" font-family="Helvetica,sans-Serif" font-size="10.00" fill="#000000"> </text>
<polyline fill="none" stroke="#bfbfbf" points="131,-603.5 244,-603.5 "/>
<text text-anchor="middle" x="187.5" y="-591.5" font-family="Helvetica,sans-Serif" font-size="10.00" fill="#000000"> </text>
</g>
<!-- Node4&#45;&gt;Node2 -->
<g id="edge3" class="edge">
<title>Node4&#45;&gt;Node2</title>
<path fill="none" stroke="#404040" d="M202.1746,-584.3201C221.6073,-548.4231 258.7022,-486.6094 303.5,-445 357.3252,-395.0057 429.1211,-353.428 486.1312,-324.8464"/>
<polygon fill="none" stroke="#404040" points="486.2073,-324.8088 489.809,-318.5616 496.961,-319.4834 493.3592,-325.7307 486.2073,-324.8088"/>
<text text-anchor="middle" x="323.5" y="-503" font-family="Helvetica,sans-Serif" font-size="10.00" fill="#000000"> +@140</text>
</g>
<!-- Node5 -->
<g id="node5" class="node">
<title>Node5</title>
<polygon fill="none" stroke="#bfbfbf" points="262,-584.5 262,-641.5 375,-641.5 375,-584.5 262,-584.5"/>
<text text-anchor="middle" x="318.5" y="-629.5" font-family="Helvetica,sans-Serif" font-size="10.00" fill="#000000">anonymous:+@150</text>
<polyline fill="none" stroke="#bfbfbf" points="262,-622.5 375,-622.5 "/>
<text text-anchor="middle" x="318.5" y="-610.5" font-family="Helvetica,sans-Serif" font-size="10.00" fill="#000000"> </text>
<polyline fill="none" stroke="#bfbfbf" points="262,-603.5 375,-603.5 "/>
<text text-anchor="middle" x="318.5" y="-591.5" font-family="Helvetica,sans-Serif" font-size="10.00" fill="#000000"> </text>
</g>
<!-- Node5&#45;&gt;Node2 -->
<g id="edge4" class="edge">
<title>Node5&#45;&gt;Node2</title>
<path fill="none" stroke="#404040" d="M334.514,-584.2248C354.1681,-549.8323 389.3577,-491.1436 425.5,-445 444.6011,-420.6132 466.7761,-395.711 488.2771,-372.9625"/>
<polygon fill="none" stroke="#404040" points="488.5168,-372.7109 489.76,-365.6077 496.795,-364.0234 495.5517,-371.1265 488.5168,-372.7109"/>
<text text-anchor="middle" x="445.5" y="-503" font-family="Helvetica,sans-Serif" font-size="10.00" fill="#000000"> +@150</text>
</g>
<!-- Node6 -->
<g id="node6" class="node">
<title>Node6</title>
<polygon fill="none" stroke="#bfbfbf" points="393,-584.5 393,-641.5 506,-641.5 506,-584.5 393,-584.5"/>
<text text-anchor="middle" x="449.5" y="-629.5" font-family="Helvetica,sans-Serif" font-size="10.00" fill="#000000">anonymous:+@152</text>
<polyline fill="none" stroke="#bfbfbf" points="393,-622.5 506,-622.5 "/>
<text text-anchor="middle" x="449.5" y="-610.5" font-family="Helvetica,sans-Serif" font-size="10.00" fill="#000000"> </text>
<polyline fill="none" stroke="#bfbfbf" points="393,-603.5 506,-603.5 "/>
<text text-anchor="middle" x="449.5" y="-591.5" font-family="Helvetica,sans-Serif" font-size="10.00" fill="#000000"> </text>
</g>
<!-- Node6&#45;&gt;Node2 -->
<g id="edge5" class="edge">
<title>Node6&#45;&gt;Node2</title>
<path fill="none" stroke="#404040" d="M460.8962,-584.2485C474.0578,-551.0432 496.7454,-493.8046 518.8469,-438.0446"/>
<polygon fill="none" stroke="#404040" points="518.9814,-437.7051 517.4738,-430.6534 523.4032,-426.5495 524.9109,-433.6012 518.9814,-437.7051"/>
<text text-anchor="middle" x="534.5" y="-503" font-family="Helvetica,sans-Serif" font-size="10.00" fill="#000000"> +@152</text>
</g>
<!-- Node7 -->
<g id="node7" class="node">
<title>Node7</title>
<polygon fill="none" stroke="#bfbfbf" points="524,-584.5 524,-641.5 637,-641.5 637,-584.5 524,-584.5"/>
<text text-anchor="middle" x="580.5" y="-629.5" font-family="Helvetica,sans-Serif" font-size="10.00" fill="#000000">anonymous:+@154</text>
<polyline fill="none" stroke="#bfbfbf" points="524,-622.5 637,-622.5 "/>
<text text-anchor="middle" x="580.5" y="-610.5" font-family="Helvetica,sans-Serif" font-size="10.00" fill="#000000"> </text>
<polyline fill="none" stroke="#bfbfbf" points="524,-603.5 637,-603.5 "/>
<text text-anchor="middle" x="580.5" y="-591.5" font-family="Helvetica,sans-Serif" font-size="10.00" fill="#000000"> </text>
</g>
<!-- Node7&#45;&gt;Node2 -->
<g id="edge6" class="edge">
<title>Node7&#45;&gt;Node2</title>
<path fill="none" stroke="#404040" d="M580.5,-584.2485C580.5,-551.1819 580.5,-494.2821 580.5,-438.7431"/>
<polygon fill="none" stroke="#404040" points="580.5001,-438.5495 576.5,-432.5495 580.5,-426.5495 584.5,-432.5495 580.5001,-438.5495"/>
<text text-anchor="middle" x="600.5" y="-503" font-family="Helvetica,sans-Serif" font-size="10.00" fill="#000000"> +@154</text>
</g>
<!-- Node8 -->
<g id="node8" class="node">
<title>Node8</title>
<polygon fill="none" stroke="#bfbfbf" points="655,-584.5 655,-641.5 768,-641.5 768,-584.5 655,-584.5"/>
<text text-anchor="middle" x="711.5" y="-629.5" font-family="Helvetica,sans-Serif" font-size="10.00" fill="#000000">anonymous:+@142</text>
<polyline fill="none" stroke="#bfbfbf" points="655,-622.5 768,-622.5 "/>
<text text-anchor="middle" x="711.5" y="-610.5" font-family="Helvetica,sans-Serif" font-size="10.00" fill="#000000"> </text>
<polyline fill="none" stroke="#bfbfbf" points="655,-603.5 768,-603.5 "/>
<text text-anchor="middle" x="711.5" y="-591.5" font-family="Helvetica,sans-Serif" font-size="10.00" fill="#000000"> </text>
</g>
<!-- Node8&#45;&gt;Node2 -->
<g id="edge7" class="edge">
<title>Node8&#45;&gt;Node2</title>
<path fill="none" stroke="#404040" d="M700.1038,-584.2485C686.9422,-551.0432 664.2546,-493.8046 642.1531,-438.0446"/>
<polygon fill="none" stroke="#404040" points="642.0186,-437.7051 636.0891,-433.6012 637.5968,-426.5495 643.5262,-430.6534 642.0186,-437.7051"/>
<text text-anchor="middle" x="711.5" y="-503" font-family="Helvetica,sans-Serif" font-size="10.00" fill="#000000"> +@142</text>
</g>
<!-- Node9 -->
<g id="node9" class="node">
<title>Node9</title>
<polygon fill="none" stroke="#bfbfbf" points="786,-584.5 786,-641.5 899,-641.5 899,-584.5 786,-584.5"/>
<text text-anchor="middle" x="842.5" y="-629.5" font-family="Helvetica,sans-Serif" font-size="10.00" fill="#000000">anonymous:+@144</text>
<polyline fill="none" stroke="#bfbfbf" points="786,-622.5 899,-622.5 "/>
<text text-anchor="middle" x="842.5" y="-610.5" font-family="Helvetica,sans-Serif" font-size="10.00" fill="#000000"> </text>
<polyline fill="none" stroke="#bfbfbf" points="786,-603.5 899,-603.5 "/>
<text text-anchor="middle" x="842.5" y="-591.5" font-family="Helvetica,sans-Serif" font-size="10.00" fill="#000000"> </text>
</g>
<!-- Node9&#45;&gt;Node2 -->
<g id="edge8" class="edge">
<title>Node9&#45;&gt;Node2</title>
<path fill="none" stroke="#404040" d="M826.486,-584.2248C806.8319,-549.8323 771.6423,-491.1436 735.5,-445 716.3989,-420.6132 694.2239,-395.711 672.7229,-372.9625"/>
<polygon fill="none" stroke="#404040" points="672.4832,-372.7109 665.4483,-371.1265 664.205,-364.0234 671.24,-365.6077 672.4832,-372.7109"/>
<text text-anchor="middle" x="833.5" y="-503" font-family="Helvetica,sans-Serif" font-size="10.00" fill="#000000"> +@144</text>
</g>
<!-- Node10 -->
<g id="node10" class="node">
<title>Node10</title>
<polygon fill="none" stroke="#bfbfbf" points="917,-584.5 917,-641.5 978,-641.5 978,-584.5 917,-584.5"/>
<text text-anchor="middle" x="947.5" y="-629.5" font-family="Helvetica,sans-Serif" font-size="10.00" fill="#000000">unsigned</text>
<polyline fill="none" stroke="#bfbfbf" points="917,-622.5 978,-622.5 "/>
<text text-anchor="middle" x="947.5" y="-610.5" font-family="Helvetica,sans-Serif" font-size="10.00" fill="#000000"> </text>
<polyline fill="none" stroke="#bfbfbf" points="917,-603.5 978,-603.5 "/>
<text text-anchor="middle" x="947.5" y="-591.5" font-family="Helvetica,sans-Serif" font-size="10.00" fill="#000000"> </text>
</g>
<!-- Node10&#45;&gt;Node2 -->
<g id="edge9" class="edge">
<title>Node10&#45;&gt;Node2</title>
<path fill="none" stroke="#404040" d="M937.7677,-584.4812C924.3347,-548.4722 897.1853,-486.2529 857.5,-445 806.0259,-391.4926 733.1497,-349.6814 675.0661,-321.8767"/>
<polygon fill="none" stroke="#404040" points="674.8849,-321.7914 667.7522,-322.852 664.0298,-316.6759 671.1625,-315.6153 674.8849,-321.7914"/>
<text text-anchor="middle" x="969.5" y="-558" font-family="Helvetica,sans-Serif" font-size="10.00" fill="#000000"> +word7</text>
<text text-anchor="middle" x="969.5" y="-547" font-family="Helvetica,sans-Serif" font-size="10.00" fill="#000000">+triggerType</text>
<text text-anchor="middle" x="969.5" y="-536" font-family="Helvetica,sans-Serif" font-size="10.00" fill="#000000">+heartbeatOrbit</text>
<text text-anchor="middle" x="969.5" y="-525" font-family="Helvetica,sans-Serif" font-size="10.00" fill="#000000">+linkID</text>
<text text-anchor="middle" x="969.5" y="-514" font-family="Helvetica,sans-Serif" font-size="10.00" fill="#000000">+zero6</text>
<text text-anchor="middle" x="969.5" y="-503" font-family="Helvetica,sans-Serif" font-size="10.00" fill="#000000">+par</text>
<text text-anchor="middle" x="969.5" y="-492" font-family="Helvetica,sans-Serif" font-size="10.00" fill="#000000">+feeId</text>
<text text-anchor="middle" x="969.5" y="-481" font-family="Helvetica,sans-Serif" font-size="10.00" fill="#000000">+endPointID</text>
<text text-anchor="middle" x="969.5" y="-470" font-family="Helvetica,sans-Serif" font-size="10.00" fill="#000000">+priority</text>
<text text-anchor="middle" x="969.5" y="-459" font-family="Helvetica,sans-Serif" font-size="10.00" fill="#000000">+triggerOrbit</text>
<text text-anchor="middle" x="969.5" y="-448" font-family="Helvetica,sans-Serif" font-size="10.00" fill="#000000">...</text>
</g>
<!-- Node11 -->
<g id="node11" class="node">
<title>Node11</title>
<polygon fill="none" stroke="#bfbfbf" points="996,-584.5 996,-641.5 1109,-641.5 1109,-584.5 996,-584.5"/>
<text text-anchor="middle" x="1052.5" y="-629.5" font-family="Helvetica,sans-Serif" font-size="10.00" fill="#000000">anonymous:+@146</text>
<polyline fill="none" stroke="#bfbfbf" points="996,-622.5 1109,-622.5 "/>
<text text-anchor="middle" x="1052.5" y="-610.5" font-family="Helvetica,sans-Serif" font-size="10.00" fill="#000000"> </text>
<polyline fill="none" stroke="#bfbfbf" points="996,-603.5 1109,-603.5 "/>
<text text-anchor="middle" x="1052.5" y="-591.5" font-family="Helvetica,sans-Serif" font-size="10.00" fill="#000000"> </text>
</g>
<!-- Node11&#45;&gt;Node2 -->
<g id="edge10" class="edge">
<title>Node11&#45;&gt;Node2</title>
<path fill="none" stroke="#404040" d="M1053.6325,-584.3887C1053.5233,-547.7057 1047.8512,-484.1709 1013.5,-445 927.2321,-346.6282 775.3471,-307.6493 676.3343,-292.31"/>
<polygon fill="none" stroke="#404040" points="676.0993,-292.2752 669.5766,-295.3499 664.2297,-290.5114 670.7524,-287.4367 676.0993,-292.2752"/>
<text text-anchor="middle" x="1072.5" y="-503" font-family="Helvetica,sans-Serif" font-size="10.00" fill="#000000"> +@146</text>
</g>
</g>
</svg>
        <g id="navigator" transform="translate(0 0)" fill="#404254">
                <rect fill="#f2f5e9" fill-opacity="0.5" stroke="#606060" stroke-width=".5" x="0" y="0" width="60" height="60"/>
                <use id="zoomplus" xlink:href="#zoomPlus" x="17" y="9" onmousedown="handleZoom(evt,'in')"/>
                <use id="zoomminus" xlink:href="#zoomMin" x="42" y="9" onmousedown="handleZoom(evt,'out')"/>
                <use id="reset" xlink:href="#resetDef" x="30" y="36" onmousedown="handleReset()"/>
                <g id="arrowUp" xlink:href="#dirArrow" transform="translate(30 24)" onmousedown="handlePan(0,-1)">
                  <use xlink:href="#rim" fill="#404040">
                        <set attributeName="fill" to="#808080" begin="arrowUp.mouseover" end="arrowUp.mouseout"/>
                  </use>
                  <path fill="none" stroke="white" stroke-width="1.5" d="M0,-3.0v7 M-2.5,-0.5L0,-3.0L2.5,-0.5"/>
                </g>
                <g id="arrowRight" xlink:href="#dirArrow" transform="rotate(90) translate(36 -43)" onmousedown="handlePan(1,0)">
                  <use xlink:href="#rim" fill="#404040">
                        <set attributeName="fill" to="#808080" begin="arrowRight.mouseover" end="arrowRight.mouseout"/>
                  </use>
                  <path fill="none" stroke="white" stroke-width="1.5" d="M0,-3.0v7 M-2.5,-0.5L0,-3.0L2.5,-0.5"/>
                </g>
                <g id="arrowDown" xlink:href="#dirArrow" transform="rotate(180) translate(-30 -48)" onmousedown="handlePan(0,1)">
                  <use xlink:href="#rim" fill="#404040">
                        <set attributeName="fill" to="#808080" begin="arrowDown.mouseover" end="arrowDown.mouseout"/>
                  </use>
                  <path fill="none" stroke="white" stroke-width="1.5" d="M0,-3.0v7 M-2.5,-0.5L0,-3.0L2.5,-0.5"/>
                </g>
                <g id="arrowLeft" xlink:href="#dirArrow" transform="rotate(270) translate(-36 17)" onmousedown="handlePan(-1,0)">
                  <use xlink:href="#rim" fill="#404040">
                        <set attributeName="fill" to="#808080" begin="arrowLeft.mouseover" end="arrowLeft.mouseout"/>
                  </use>
                  <path fill="none" stroke="white" stroke-width="1.5" d="M0,-3.0v7 M-2.5,-0.5L0,-3.0L2.5,-0.5"/>
                </g>
        </g>
        <svg viewBox="0 0 15 15" width="100%" height="30px" preserveAspectRatio="xMaxYMin meet">
         <g id="arrow_out" transform="scale(0.3 0.3)">
          <a xlink:href="classo2_1_1framework_1_1DPLRawParser__coll__graph_org.svg" target="_base">
           <rect id="button" ry="5" rx="5" y="6" x="6" height="38" width="38"
                fill="#f2f5e9" fill-opacity="0.5" stroke="#606060" stroke-width="1.0"/>
           <path id="arrow"
             d="M 11.500037,31.436501 C 11.940474,20.09759 22.043105,11.32322 32.158766,21.979434 L 37.068811,17.246167 C 37.068811,17.246167 37.088388,32 37.088388,32 L 22.160133,31.978069 C 22.160133,31.978069 26.997745,27.140456 26.997745,27.140456 C 18.528582,18.264221 13.291696,25.230495 11.500037,31.436501 z"
             style="fill:#404040;"/>
          </a>
         </g>
        </svg>
</svg>
