<?xml version="1.0" encoding="UTF-8" standalone="no"?>
<!DOCTYPE svg PUBLIC "-//W3C//DTD SVG 1.1//EN"
 "http://www.w3.org/Graphics/SVG/1.1/DTD/svg11.dtd">
<!-- Generated by graphviz version 2.40.1 (20161225.0304)
 -->
<!-- Title: o2::soa::IndexPolicyBase Pages: 1 -->
<svg width="158pt" height="171pt"
 viewBox="0.00 0.00 158.00 171.00" xmlns="http://www.w3.org/2000/svg" xmlns:xlink="http://www.w3.org/1999/xlink">
<g id="graph0" class="graph" transform="scale(1 1) rotate(0) translate(4 167)">
<title>o2::soa::IndexPolicyBase</title>
<!-- Node3 -->
<g id="node1" class="node">
<title>Node3</title>
<polygon fill="#bfbfbf" stroke="#000000" points="2,-.5 2,-57.5 140,-57.5 140,-.5 2,-.5"/>
<text text-anchor="middle" x="71" y="-45.5" font-family="Helvetica,sans-Serif" font-size="10.00" fill="#000000">o2::soa::IndexPolicyBase</text>
<polyline fill="none" stroke="#000000" points="2,-38.5 140,-38.5 "/>
<text text-anchor="middle" x="71" y="-26.5" font-family="Helvetica,sans-Serif" font-size="10.00" fill="#000000"> </text>
<polyline fill="none" stroke="#000000" points="2,-19.5 140,-19.5 "/>
<text text-anchor="middle" x="71" y="-7.5" font-family="Helvetica,sans-Serif" font-size="10.00" fill="#000000"> </text>
</g>
<!-- Node4 -->
<g id="node2" class="node">
<title>Node4</title>
<polygon fill="none" stroke="#bfbfbf" points="0,-105.5 0,-162.5 50,-162.5 50,-105.5 0,-105.5"/>
<text text-anchor="middle" x="25" y="-150.5" font-family="Helvetica,sans-Serif" font-size="10.00" fill="#000000">int64_t</text>
<polyline fill="none" stroke="#bfbfbf" points="0,-143.5 50,-143.5 "/>
<text text-anchor="middle" x="25" y="-131.5" font-family="Helvetica,sans-Serif" font-size="10.00" fill="#000000"> </text>
<polyline fill="none" stroke="#bfbfbf" points="0,-124.5 50,-124.5 "/>
<text text-anchor="middle" x="25" y="-112.5" font-family="Helvetica,sans-Serif" font-size="10.00" fill="#000000"> </text>
</g>
<!-- Node4&#45;&gt;Node3 -->
<g id="edge1" class="edge">
<title>Node4&#45;&gt;Node3</title>
<path fill="none" stroke="#404040" d="M21.3799,-105.421C21.2167,-95.7654 22.2436,-85.1267 26,-76 27.1851,-73.1207 28.6366,-70.3165 30.2835,-67.6048"/>
<polygon fill="none" stroke="#404040" points="30.4448,-67.3805 30.7021,-60.174 37.4533,-57.6398 37.196,-64.8463 30.4448,-67.3805"/>
<text text-anchor="middle" x="60.5" y="-79" font-family="Helvetica,sans-Serif" font-size="10.00" fill="#000000"> +mRowIndex</text>
</g>
<!-- Node5 -->
<g id="node3" class="node">
<title>Node5</title>
<polygon fill="none" stroke="#bfbfbf" points="86.5,-105.5 86.5,-162.5 147.5,-162.5 147.5,-105.5 86.5,-105.5"/>
<text text-anchor="middle" x="117" y="-150.5" font-family="Helvetica,sans-Serif" font-size="10.00" fill="#000000">unsigned</text>
<polyline fill="none" stroke="#bfbfbf" points="86.5,-143.5 147.5,-143.5 "/>
<text text-anchor="middle" x="117" y="-131.5" font-family="Helvetica,sans-Serif" font-size="10.00" fill="#000000"> </text>
<polyline fill="none" stroke="#bfbfbf" points="86.5,-124.5 147.5,-124.5 "/>
<text text-anchor="middle" x="117" y="-112.5" font-family="Helvetica,sans-Serif" font-size="10.00" fill="#000000"> </text>
</g>
<!-- Node5&#45;&gt;Node3 -->
<g id="edge2" class="edge">
<title>Node5&#45;&gt;Node3</title>
<path fill="none" stroke="#404040" d="M106.8717,-105.4274C103.3319,-95.9705 99.1905,-85.4514 95,-76 93.9138,-73.5501 92.7625,-71.0465 91.5751,-68.5334"/>
<polygon fill="none" stroke="#404040" points="91.4971,-68.3736 85.269,-64.7388 86.2287,-57.5919 92.4568,-61.2266 91.4971,-68.3736"/>
<text text-anchor="middle" x="124.5" y="-79" font-family="Helvetica,sans-Serif" font-size="10.00" fill="#000000"> +mOffset</text>
</g>
</g>
</svg>
