<?xml version="1.0" encoding="UTF-8" standalone="no"?>
<!DOCTYPE svg PUBLIC "-//W3C//DTD SVG 1.1//EN"
 "http://www.w3.org/Graphics/SVG/1.1/DTD/svg11.dtd">
<!-- Generated by graphviz version 2.40.1 (20161225.0304)
 -->
<!-- Title: o2::raw::RawFileWriter::PayloadCache Pages: 1 -->
<svg width="266pt" height="182pt"
 viewBox="0.00 0.00 266.00 182.00" xmlns="http://www.w3.org/2000/svg" xmlns:xlink="http://www.w3.org/1999/xlink">
<g id="graph0" class="graph" transform="scale(1 1) rotate(0) translate(4 178)">
<title>o2::raw::RawFileWriter::PayloadCache</title>
<!-- Node1 -->
<g id="node1" class="node">
<title>Node1</title>
<polygon fill="#bfbfbf" stroke="#000000" points="66,-.5 66,-68.5 191,-68.5 191,-.5 66,-.5"/>
<text text-anchor="start" x="74" y="-56.5" font-family="Helvetica,sans-Serif" font-size="10.00" fill="#000000">o2::raw::RawFileWriter</text>
<text text-anchor="middle" x="128.5" y="-45.5" font-family="Helvetica,sans-Serif" font-size="10.00" fill="#000000">::PayloadCache</text>
<polyline fill="none" stroke="#000000" points="66,-38.5 191,-38.5 "/>
<text text-anchor="middle" x="128.5" y="-26.5" font-family="Helvetica,sans-Serif" font-size="10.00" fill="#000000"> </text>
<polyline fill="none" stroke="#000000" points="66,-19.5 191,-19.5 "/>
<text text-anchor="start" x="74" y="-7.5" font-family="Helvetica,sans-Serif" font-size="10.00" fill="#000000">+ ClassDefNV()</text>
</g>
<!-- Node2 -->
<g id="node2" class="node">
<title>Node2</title>
<polygon fill="none" stroke="#bfbfbf" points="0,-116.5 0,-173.5 91,-173.5 91,-116.5 0,-116.5"/>
<text text-anchor="middle" x="45.5" y="-161.5" font-family="Helvetica,sans-Serif" font-size="10.00" fill="#000000">vector&lt; char &gt;</text>
<polyline fill="none" stroke="#bfbfbf" points="0,-154.5 91,-154.5 "/>
<text text-anchor="middle" x="45.5" y="-142.5" font-family="Helvetica,sans-Serif" font-size="10.00" fill="#000000"> </text>
<polyline fill="none" stroke="#bfbfbf" points="0,-135.5 91,-135.5 "/>
<text text-anchor="middle" x="45.5" y="-123.5" font-family="Helvetica,sans-Serif" font-size="10.00" fill="#000000"> </text>
</g>
<!-- Node2&#45;&gt;Node1 -->
<g id="edge1" class="edge">
<title>Node2&#45;&gt;Node1</title>
<path fill="none" stroke="#404040" d="M56.8258,-116.4115C61.3221,-106.6514 66.9855,-95.9497 73.5,-87 75.7917,-83.8516 78.2856,-80.7317 80.9046,-77.6755"/>
<polygon fill="none" stroke="#404040" points="80.9738,-77.5996 82.0615,-70.4709 89.0601,-68.7332 87.9724,-75.8618 80.9738,-77.5996"/>
<text text-anchor="middle" x="99" y="-90" font-family="Helvetica,sans-Serif" font-size="10.00" fill="#000000"> +payload</text>
</g>
<!-- Node3 -->
<g id="node3" class="node">
<title>Node3</title>
<polygon fill="none" stroke="#bfbfbf" points="109.5,-116.5 109.5,-173.5 147.5,-173.5 147.5,-116.5 109.5,-116.5"/>
<text text-anchor="middle" x="128.5" y="-161.5" font-family="Helvetica,sans-Serif" font-size="10.00" fill="#000000">bool</text>
<polyline fill="none" stroke="#bfbfbf" points="109.5,-154.5 147.5,-154.5 "/>
<text text-anchor="middle" x="128.5" y="-142.5" font-family="Helvetica,sans-Serif" font-size="10.00" fill="#000000"> </text>
<polyline fill="none" stroke="#bfbfbf" points="109.5,-135.5 147.5,-135.5 "/>
<text text-anchor="middle" x="128.5" y="-123.5" font-family="Helvetica,sans-Serif" font-size="10.00" fill="#000000"> </text>
</g>
<!-- Node3&#45;&gt;Node1 -->
<g id="edge2" class="edge">
<title>Node3&#45;&gt;Node1</title>
<path fill="none" stroke="#404040" d="M128.5,-116.2559C128.5,-105.4349 128.5,-92.8362 128.5,-80.8169"/>
<polygon fill="none" stroke="#404040" points="128.5001,-80.6001 124.5,-74.6001 128.5,-68.6001 132.5,-74.6 128.5001,-80.6001"/>
<text text-anchor="middle" x="166.5" y="-90" font-family="Helvetica,sans-Serif" font-size="10.00" fill="#000000"> +preformatted</text>
</g>
<!-- Node4 -->
<g id="node4" class="node">
<title>Node4</title>
<polygon fill="none" stroke="#bfbfbf" points="197,-116.5 197,-173.5 258,-173.5 258,-116.5 197,-116.5"/>
<text text-anchor="middle" x="227.5" y="-161.5" font-family="Helvetica,sans-Serif" font-size="10.00" fill="#000000">unsigned</text>
<polyline fill="none" stroke="#bfbfbf" points="197,-154.5 258,-154.5 "/>
<text text-anchor="middle" x="227.5" y="-142.5" font-family="Helvetica,sans-Serif" font-size="10.00" fill="#000000"> </text>
<polyline fill="none" stroke="#bfbfbf" points="197,-135.5 258,-135.5 "/>
<text text-anchor="middle" x="227.5" y="-123.5" font-family="Helvetica,sans-Serif" font-size="10.00" fill="#000000"> </text>
</g>
<!-- Node4&#45;&gt;Node1 -->
<g id="edge3" class="edge">
<title>Node4&#45;&gt;Node1</title>
<path fill="none" stroke="#404040" d="M220.4759,-116.3556C217.0775,-106.3729 212.2329,-95.5429 205.5,-87 202.7333,-83.4896 199.6671,-80.1254 196.3983,-76.9169"/>
<polygon fill="none" stroke="#404040" points="196.2729,-76.8045 189.1354,-75.7771 187.3385,-68.7934 194.4761,-69.8208 196.2729,-76.8045"/>
<text text-anchor="middle" x="233.5" y="-90" font-family="Helvetica,sans-Serif" font-size="10.00" fill="#000000"> +trigger</text>
</g>
</g>
</svg>
