<?xml version="1.0" encoding="UTF-8" standalone="no"?>
<!DOCTYPE svg PUBLIC "-//W3C//DTD SVG 1.1//EN"
 "http://www.w3.org/Graphics/SVG/1.1/DTD/svg11.dtd">
<!-- Generated by graphviz version 2.40.1 (20161225.0304)
 -->
<!-- Title: o2::framework::readers::RuntimeWatchdog Pages: 1 -->
<svg width="310pt" height="226pt"
 viewBox="0.00 0.00 310.00 226.00" xmlns="http://www.w3.org/2000/svg" xmlns:xlink="http://www.w3.org/1999/xlink">
<g id="graph0" class="graph" transform="scale(1 1) rotate(0) translate(4 222)">
<title>o2::framework::readers::RuntimeWatchdog</title>
<!-- Node1 -->
<g id="node1" class="node">
<title>Node1</title>
<polygon fill="#bfbfbf" stroke="#000000" points="34.5,-.5 34.5,-90.5 165.5,-90.5 165.5,-.5 34.5,-.5"/>
<text text-anchor="start" x="42.5" y="-78.5" font-family="Helvetica,sans-Serif" font-size="10.00" fill="#000000">o2::framework::readers</text>
<text text-anchor="middle" x="100" y="-67.5" font-family="Helvetica,sans-Serif" font-size="10.00" fill="#000000">::RuntimeWatchdog</text>
<polyline fill="none" stroke="#000000" points="34.5,-60.5 165.5,-60.5 "/>
<text text-anchor="middle" x="100" y="-48.5" font-family="Helvetica,sans-Serif" font-size="10.00" fill="#000000"> </text>
<polyline fill="none" stroke="#000000" points="34.5,-41.5 165.5,-41.5 "/>
<text text-anchor="start" x="42.5" y="-29.5" font-family="Helvetica,sans-Serif" font-size="10.00" fill="#000000">+ RuntimeWatchdog()</text>
<text text-anchor="start" x="42.5" y="-18.5" font-family="Helvetica,sans-Serif" font-size="10.00" fill="#000000">+ update()</text>
<text text-anchor="start" x="42.5" y="-7.5" font-family="Helvetica,sans-Serif" font-size="10.00" fill="#000000">+ printOut()</text>
</g>
<!-- Node2 -->
<g id="node2" class="node">
<title>Node2</title>
<polygon fill="none" stroke="#bfbfbf" points="0,-160.5 0,-217.5 50,-217.5 50,-160.5 0,-160.5"/>
<text text-anchor="middle" x="25" y="-205.5" font-family="Helvetica,sans-Serif" font-size="10.00" fill="#000000">double</text>
<polyline fill="none" stroke="#bfbfbf" points="0,-198.5 50,-198.5 "/>
<text text-anchor="middle" x="25" y="-186.5" font-family="Helvetica,sans-Serif" font-size="10.00" fill="#000000"> </text>
<polyline fill="none" stroke="#bfbfbf" points="0,-179.5 50,-179.5 "/>
<text text-anchor="middle" x="25" y="-167.5" font-family="Helvetica,sans-Serif" font-size="10.00" fill="#000000"> </text>
</g>
<!-- Node2&#45;&gt;Node1 -->
<g id="edge1" class="edge">
<title>Node2&#45;&gt;Node1</title>
<path fill="none" stroke="#404040" d="M28.3223,-160.4182C30.9948,-144.6006 35.7268,-124.9712 44,-109 45.4198,-106.2591 46.9835,-103.5407 48.6579,-100.8593"/>
<polygon fill="none" stroke="#404040" points="48.8132,-100.6325 48.9042,-93.4219 55.595,-90.7326 55.5041,-97.9432 48.8132,-100.6325"/>
<text text-anchor="middle" x="70" y="-123" font-family="Helvetica,sans-Serif" font-size="10.00" fill="#000000"> +runTime</text>
</g>
<!-- Node3 -->
<g id="node3" class="node">
<title>Node3</title>
<polygon fill="none" stroke="#bfbfbf" points="85.5,-160.5 85.5,-217.5 114.5,-217.5 114.5,-160.5 85.5,-160.5"/>
<text text-anchor="middle" x="100" y="-205.5" font-family="Helvetica,sans-Serif" font-size="10.00" fill="#000000">int</text>
<polyline fill="none" stroke="#bfbfbf" points="85.5,-198.5 114.5,-198.5 "/>
<text text-anchor="middle" x="100" y="-186.5" font-family="Helvetica,sans-Serif" font-size="10.00" fill="#000000"> </text>
<polyline fill="none" stroke="#bfbfbf" points="85.5,-179.5 114.5,-179.5 "/>
<text text-anchor="middle" x="100" y="-167.5" font-family="Helvetica,sans-Serif" font-size="10.00" fill="#000000"> </text>
</g>
<!-- Node3&#45;&gt;Node1 -->
<g id="edge2" class="edge">
<title>Node3&#45;&gt;Node1</title>
<path fill="none" stroke="#404040" d="M100,-160.3055C100,-143.7786 100,-122.4154 100,-102.6073"/>
<polygon fill="none" stroke="#404040" points="100.0001,-102.5321 96,-96.5321 100,-90.5321 104,-96.5321 100.0001,-102.5321"/>
<text text-anchor="middle" x="154.5" y="-123" font-family="Helvetica,sans-Serif" font-size="10.00" fill="#000000"> +numberTimeFrames</text>
</g>
<!-- Node4 -->
<g id="node4" class="node">
<title>Node4</title>
<polygon fill="none" stroke="#bfbfbf" points="201.5,-160.5 201.5,-217.5 262.5,-217.5 262.5,-160.5 201.5,-160.5"/>
<text text-anchor="middle" x="232" y="-205.5" font-family="Helvetica,sans-Serif" font-size="10.00" fill="#000000">unsigned</text>
<polyline fill="none" stroke="#bfbfbf" points="201.5,-198.5 262.5,-198.5 "/>
<text text-anchor="middle" x="232" y="-186.5" font-family="Helvetica,sans-Serif" font-size="10.00" fill="#000000"> </text>
<polyline fill="none" stroke="#bfbfbf" points="201.5,-179.5 262.5,-179.5 "/>
<text text-anchor="middle" x="232" y="-167.5" font-family="Helvetica,sans-Serif" font-size="10.00" fill="#000000"> </text>
</g>
<!-- Node4&#45;&gt;Node1 -->
<g id="edge3" class="edge">
<title>Node4&#45;&gt;Node1</title>
<path fill="none" stroke="#404040" d="M229.5168,-160.3254C226.8582,-143.9032 221.3607,-123.7044 210,-109 200.8515,-97.1589 188.8239,-87.1335 176.0864,-78.7932"/>
<polygon fill="none" stroke="#404040" points="175.9912,-78.7349 168.7853,-79.0094 165.7605,-72.4633 172.9664,-72.1889 175.9912,-78.7349"/>
<text text-anchor="middle" x="263.5" y="-134" font-family="Helvetica,sans-Serif" font-size="10.00" fill="#000000"> +runTimeLimit</text>
<text text-anchor="middle" x="263.5" y="-123" font-family="Helvetica,sans-Serif" font-size="10.00" fill="#000000">+startTime</text>
<text text-anchor="middle" x="263.5" y="-112" font-family="Helvetica,sans-Serif" font-size="10.00" fill="#000000">+lastTime</text>
</g>
</g>
</svg>
