<?xml version="1.0" encoding="UTF-8" standalone="no"?>
<!DOCTYPE svg PUBLIC "-//W3C//DTD SVG 1.1//EN"
 "http://www.w3.org/Graphics/SVG/1.1/DTD/svg11.dtd">
<!-- Generated by graphviz version 2.40.1 (20161225.0304)
 -->
<!-- Title: o2::framework::OutputObjHeader Pages: 1 -->
<!--zoomable 1047 -->
<svg id="main" version="1.1" xmlns="http://www.w3.org/2000/svg" xmlns:xlink="http://www.w3.org/1999/xlink" xml:space="preserve" onload="init(evt)">
<style type="text/css"><![CDATA[
.edge:hover path { stroke: red; }
.edge:hover polygon { stroke: red; fill: red; }
]]></style>
<script type="text/javascript"><![CDATA[
var edges = document.getElementsByTagName('g');
if (edges && edges.length) {
  for (var i=0;i<edges.length;i++) {
    if (edges[i].id.substr(0,4)=='edge') {
      edges[i].setAttribute('class','edge');
    }
  }
}
]]></script>
        <defs>
                <circle id="rim" cx="0" cy="0" r="7"/>
                <circle id="rim2" cx="0" cy="0" r="3.5"/>
                <g id="zoomPlus">
                        <use xlink:href="#rim" fill="#404040">
                                <set attributeName="fill" to="#808080" begin="zoomplus.mouseover" end="zoomplus.mouseout"/>
                        </use>
                        <path d="M-4,0h8M0,-4v8" fill="none" stroke="white" stroke-width="1.5" pointer-events="none"/>
                </g>
                <g id="zoomMin">
                        <use xlink:href="#rim" fill="#404040">
                                <set attributeName="fill" to="#808080" begin="zoomminus.mouseover" end="zoomminus.mouseout"/>
                        </use>
                        <path d="M-4,0h8" fill="none" stroke="white" stroke-width="1.5" pointer-events="none"/>
                </g>
                <g id="dirArrow">
                        <path fill="none" stroke="white" stroke-width="1.5" d="M0,-3.0v7 M-2.5,-0.5L0,-3.0L2.5,-0.5"/>
                </g>
               <g id="resetDef">
                       <use xlink:href="#rim2" fill="#404040">
                               <set attributeName="fill" to="#808080" begin="reset.mouseover" end="reset.mouseout"/>
                       </use>
               </g>
        </defs>

<script type="text/javascript">
var viewWidth = 1393;
var viewHeight = 1047;
var sectionId = 'dynsection-1';
</script>
<script xlink:href="../../svgpan.js"/>
<svg id="graph" class="graph">
<g id="viewport">
<title>o2::framework::OutputObjHeader</title>
<!-- Node2 -->
<g id="node1" class="node">
<title>Node2</title>
<polygon fill="#bfbfbf" stroke="#000000" points="1062.4624,-.5 1062.4624,-90.5 1205.4624,-90.5 1205.4624,-.5 1062.4624,-.5"/>
<text text-anchor="start" x="1070.4624" y="-78.5" font-family="Helvetica,sans-Serif" font-size="10.00" fill="#000000">o2::framework::OutputObj</text>
<text text-anchor="middle" x="1133.9624" y="-67.5" font-family="Helvetica,sans-Serif" font-size="10.00" fill="#000000">Header</text>
<polyline fill="none" stroke="#000000" points="1062.4624,-60.5 1205.4624,-60.5 "/>
<text text-anchor="middle" x="1133.9624" y="-48.5" font-family="Helvetica,sans-Serif" font-size="10.00" fill="#000000"> </text>
<polyline fill="none" stroke="#000000" points="1062.4624,-41.5 1205.4624,-41.5 "/>
<text text-anchor="start" x="1070.4624" y="-29.5" font-family="Helvetica,sans-Serif" font-size="10.00" fill="#000000">+ OutputObjHeader()</text>
<text text-anchor="start" x="1070.4624" y="-18.5" font-family="Helvetica,sans-Serif" font-size="10.00" fill="#000000">+ OutputObjHeader()</text>
<text text-anchor="start" x="1070.4624" y="-7.5" font-family="Helvetica,sans-Serif" font-size="10.00" fill="#000000">+ OutputObjHeader()</text>
</g>
<!-- Node3 -->
<g id="node2" class="node">
<title>Node3</title>
<g id="a_node2"><a xlink:href="../../d8/dbd/structo2_1_1header_1_1BaseHeader.html" target="_top" xlink:title="the base header struct Every header type must begin (i.e. derive) with this. Don&#39;t use this struct di...">
<polygon fill="none" stroke="#000000" points="639.4624,-160.5 639.4624,-327.5 812.4624,-327.5 812.4624,-160.5 639.4624,-160.5"/>
<text text-anchor="middle" x="725.9624" y="-315.5" font-family="Helvetica,sans-Serif" font-size="10.00" fill="#000000">o2::header::BaseHeader</text>
<polyline fill="none" stroke="#000000" points="639.4624,-308.5 812.4624,-308.5 "/>
<text text-anchor="middle" x="725.9624" y="-296.5" font-family="Helvetica,sans-Serif" font-size="10.00" fill="#000000"> </text>
<polyline fill="none" stroke="#000000" points="639.4624,-289.5 812.4624,-289.5 "/>
<text text-anchor="start" x="647.4624" y="-277.5" font-family="Helvetica,sans-Serif" font-size="10.00" fill="#000000">+ BaseHeader()</text>
<text text-anchor="start" x="647.4624" y="-266.5" font-family="Helvetica,sans-Serif" font-size="10.00" fill="#000000">+ BaseHeader()</text>
<text text-anchor="start" x="647.4624" y="-255.5" font-family="Helvetica,sans-Serif" font-size="10.00" fill="#000000">+ BaseHeader()</text>
<text text-anchor="start" x="647.4624" y="-244.5" font-family="Helvetica,sans-Serif" font-size="10.00" fill="#000000">+ size()</text>
<text text-anchor="start" x="647.4624" y="-233.5" font-family="Helvetica,sans-Serif" font-size="10.00" fill="#000000">+ data()</text>
<text text-anchor="start" x="647.4624" y="-222.5" font-family="Helvetica,sans-Serif" font-size="10.00" fill="#000000">+ next()</text>
<text text-anchor="start" x="647.4624" y="-211.5" font-family="Helvetica,sans-Serif" font-size="10.00" fill="#000000">+ next()</text>
<text text-anchor="start" x="647.4624" y="-200.5" font-family="Helvetica,sans-Serif" font-size="10.00" fill="#000000">+ sanityCheck()</text>
<text text-anchor="start" x="647.4624" y="-189.5" font-family="Helvetica,sans-Serif" font-size="10.00" fill="#000000">+ throwInconsistentStackError()</text>
<text text-anchor="start" x="647.4624" y="-178.5" font-family="Helvetica,sans-Serif" font-size="10.00" fill="#000000">+ get()</text>
<text text-anchor="start" x="647.4624" y="-167.5" font-family="Helvetica,sans-Serif" font-size="10.00" fill="#000000">+ get()</text>
</a>
</g>
</g>
<!-- Node3&#45;&gt;Node2 -->
<g id="edge1" class="edge">
<title>Node3&#45;&gt;Node2</title>
<path fill="none" stroke="#191970" d="M821.7815,-197.3821C895.3733,-161.5783 995.393,-112.9167 1062.1861,-80.4205"/>
<polygon fill="none" stroke="#191970" points="819.9497,-194.381 812.4887,-201.9033 823.0122,-200.6756 819.9497,-194.381"/>
</g>
<!-- Node4 -->
<g id="node3" class="node">
<title>Node4</title>
<g id="a_node3"><a xlink:href="../../d9/db3/structo2_1_1header_1_1Descriptor.html" target="_top" xlink:title="{o2::header::Descriptor\l\&lt; gSizeHeaderDescriptionString \&gt;\n||+ Descriptor()\l+ Descriptor()\l+ Descriptor()\l+ Descriptor()\l+ operator=()\l+ operator ItgType()\l+ runtimeInit()\l+ operator==()\l+ operator==()\l+ operator\&lt;()\l+ operator!=()\l+ operator!=()\l+ as()\l+ print()\l}">
<polygon fill="none" stroke="#000000" points="292.4624,-430.5 292.4624,-641.5 477.4624,-641.5 477.4624,-430.5 292.4624,-430.5"/>
<text text-anchor="start" x="300.4624" y="-629.5" font-family="Helvetica,sans-Serif" font-size="10.00" fill="#000000">o2::header::Descriptor</text>
<text text-anchor="middle" x="384.9624" y="-618.5" font-family="Helvetica,sans-Serif" font-size="10.00" fill="#000000">&lt; gSizeHeaderDescriptionString &gt;</text>
<polyline fill="none" stroke="#000000" points="292.4624,-611.5 477.4624,-611.5 "/>
<text text-anchor="middle" x="384.9624" y="-599.5" font-family="Helvetica,sans-Serif" font-size="10.00" fill="#000000"> </text>
<polyline fill="none" stroke="#000000" points="292.4624,-592.5 477.4624,-592.5 "/>
<text text-anchor="start" x="300.4624" y="-580.5" font-family="Helvetica,sans-Serif" font-size="10.00" fill="#000000">+ Descriptor()</text>
<text text-anchor="start" x="300.4624" y="-569.5" font-family="Helvetica,sans-Serif" font-size="10.00" fill="#000000">+ Descriptor()</text>
<text text-anchor="start" x="300.4624" y="-558.5" font-family="Helvetica,sans-Serif" font-size="10.00" fill="#000000">+ Descriptor()</text>
<text text-anchor="start" x="300.4624" y="-547.5" font-family="Helvetica,sans-Serif" font-size="10.00" fill="#000000">+ Descriptor()</text>
<text text-anchor="start" x="300.4624" y="-536.5" font-family="Helvetica,sans-Serif" font-size="10.00" fill="#000000">+ operator=()</text>
<text text-anchor="start" x="300.4624" y="-525.5" font-family="Helvetica,sans-Serif" font-size="10.00" fill="#000000">+ operator ItgType()</text>
<text text-anchor="start" x="300.4624" y="-514.5" font-family="Helvetica,sans-Serif" font-size="10.00" fill="#000000">+ runtimeInit()</text>
<text text-anchor="start" x="300.4624" y="-503.5" font-family="Helvetica,sans-Serif" font-size="10.00" fill="#000000">+ operator==()</text>
<text text-anchor="start" x="300.4624" y="-492.5" font-family="Helvetica,sans-Serif" font-size="10.00" fill="#000000">+ operator==()</text>
<text text-anchor="start" x="300.4624" y="-481.5" font-family="Helvetica,sans-Serif" font-size="10.00" fill="#000000">+ operator&lt;()</text>
<text text-anchor="start" x="300.4624" y="-470.5" font-family="Helvetica,sans-Serif" font-size="10.00" fill="#000000">+ operator!=()</text>
<text text-anchor="start" x="300.4624" y="-459.5" font-family="Helvetica,sans-Serif" font-size="10.00" fill="#000000">+ operator!=()</text>
<text text-anchor="start" x="300.4624" y="-448.5" font-family="Helvetica,sans-Serif" font-size="10.00" fill="#000000">+ as()</text>
<text text-anchor="start" x="300.4624" y="-437.5" font-family="Helvetica,sans-Serif" font-size="10.00" fill="#000000">+ print()</text>
</a>
</g>
</g>
<!-- Node4&#45;&gt;Node3 -->
<g id="edge2" class="edge">
<title>Node4&#45;&gt;Node3</title>
<path fill="none" stroke="#404040" d="M425.2678,-430.0807C440.68,-399.9593 460.7673,-369.0997 485.9624,-346 525.8087,-309.4675 580.6969,-284.824 627.9266,-268.9266"/>
<polygon fill="none" stroke="#404040" points="628.0318,-268.8923 632.4956,-263.2288 639.4402,-265.1709 634.9765,-270.8344 628.0318,-268.8923"/>
<text text-anchor="middle" x="518.9624" y="-376.5" font-family="Helvetica,sans-Serif" font-size="10.00" fill="#000000"> +description</text>
</g>
<!-- Node5 -->
<g id="node4" class="node">
<title>Node5</title>
<polygon fill="none" stroke="#bfbfbf" points="465.4624,-981.5 465.4624,-1038.5 504.4624,-1038.5 504.4624,-981.5 465.4624,-981.5"/>
<text text-anchor="middle" x="484.9624" y="-1026.5" font-family="Helvetica,sans-Serif" font-size="10.00" fill="#000000">Type</text>
<polyline fill="none" stroke="#bfbfbf" points="465.4624,-1019.5 504.4624,-1019.5 "/>
<text text-anchor="middle" x="484.9624" y="-1007.5" font-family="Helvetica,sans-Serif" font-size="10.00" fill="#000000"> </text>
<polyline fill="none" stroke="#bfbfbf" points="465.4624,-1000.5 504.4624,-1000.5 "/>
<text text-anchor="middle" x="484.9624" y="-988.5" font-family="Helvetica,sans-Serif" font-size="10.00" fill="#000000"> </text>
</g>
<!-- Node5&#45;&gt;Node4 -->
<g id="edge3" class="edge">
<title>Node5&#45;&gt;Node4</title>
<path fill="none" stroke="#404040" d="M504.5219,-995.6317C526.0151,-978.4991 559.3014,-947.6601 572.9624,-912 606.6691,-824.0132 589.774,-792.7103 572.9624,-700 569.5747,-681.318 572.1297,-672.6404 557.9624,-660 535.8497,-640.2705 518.3621,-654.86 488.2204,-642.1567"/>
<polygon fill="none" stroke="#404040" points="488.1905,-642.1416 481.03,-642.9948 477.4884,-636.7133 484.6489,-635.8601 488.1905,-642.1416"/>
<text text-anchor="middle" x="605.4624" y="-803.5" font-family="Helvetica,sans-Serif" font-size="10.00" fill="#000000"> +itg</text>
</g>
<!-- Node9 -->
<g id="node8" class="node">
<title>Node9</title>
<g id="a_node8"><a xlink:href="../../d9/db3/structo2_1_1header_1_1Descriptor.html" target="_top" xlink:title="{o2::header::Descriptor\l\&lt; N, PrinterPolicy \&gt;\n||+ Descriptor()\l+ Descriptor()\l+ Descriptor()\l+ operator=()\l+ operator ItgType()\l+ Descriptor()\l+ runtimeInit()\l+ operator==()\l+ operator\&lt;()\l+ operator!=()\l+ operator==()\l+ operator!=()\l+ as()\l+ print()\l}">
<polygon fill="none" stroke="#000000" points="321.4624,-700.5 321.4624,-911.5 446.4624,-911.5 446.4624,-700.5 321.4624,-700.5"/>
<text text-anchor="start" x="329.4624" y="-899.5" font-family="Helvetica,sans-Serif" font-size="10.00" fill="#000000">o2::header::Descriptor</text>
<text text-anchor="middle" x="383.9624" y="-888.5" font-family="Helvetica,sans-Serif" font-size="10.00" fill="#000000">&lt; N, PrinterPolicy &gt;</text>
<polyline fill="none" stroke="#000000" points="321.4624,-881.5 446.4624,-881.5 "/>
<text text-anchor="middle" x="383.9624" y="-869.5" font-family="Helvetica,sans-Serif" font-size="10.00" fill="#000000"> </text>
<polyline fill="none" stroke="#000000" points="321.4624,-862.5 446.4624,-862.5 "/>
<text text-anchor="start" x="329.4624" y="-850.5" font-family="Helvetica,sans-Serif" font-size="10.00" fill="#000000">+ Descriptor()</text>
<text text-anchor="start" x="329.4624" y="-839.5" font-family="Helvetica,sans-Serif" font-size="10.00" fill="#000000">+ Descriptor()</text>
<text text-anchor="start" x="329.4624" y="-828.5" font-family="Helvetica,sans-Serif" font-size="10.00" fill="#000000">+ Descriptor()</text>
<text text-anchor="start" x="329.4624" y="-817.5" font-family="Helvetica,sans-Serif" font-size="10.00" fill="#000000">+ operator=()</text>
<text text-anchor="start" x="329.4624" y="-806.5" font-family="Helvetica,sans-Serif" font-size="10.00" fill="#000000">+ operator ItgType()</text>
<text text-anchor="start" x="329.4624" y="-795.5" font-family="Helvetica,sans-Serif" font-size="10.00" fill="#000000">+ Descriptor()</text>
<text text-anchor="start" x="329.4624" y="-784.5" font-family="Helvetica,sans-Serif" font-size="10.00" fill="#000000">+ runtimeInit()</text>
<text text-anchor="start" x="329.4624" y="-773.5" font-family="Helvetica,sans-Serif" font-size="10.00" fill="#000000">+ operator==()</text>
<text text-anchor="start" x="329.4624" y="-762.5" font-family="Helvetica,sans-Serif" font-size="10.00" fill="#000000">+ operator&lt;()</text>
<text text-anchor="start" x="329.4624" y="-751.5" font-family="Helvetica,sans-Serif" font-size="10.00" fill="#000000">+ operator!=()</text>
<text text-anchor="start" x="329.4624" y="-740.5" font-family="Helvetica,sans-Serif" font-size="10.00" fill="#000000">+ operator==()</text>
<text text-anchor="start" x="329.4624" y="-729.5" font-family="Helvetica,sans-Serif" font-size="10.00" fill="#000000">+ operator!=()</text>
<text text-anchor="start" x="329.4624" y="-718.5" font-family="Helvetica,sans-Serif" font-size="10.00" fill="#000000">+ as()</text>
<text text-anchor="start" x="329.4624" y="-707.5" font-family="Helvetica,sans-Serif" font-size="10.00" fill="#000000">+ print()</text>
</a>
</g>
</g>
<!-- Node5&#45;&gt;Node9 -->
<g id="edge8" class="edge">
<title>Node5&#45;&gt;Node9</title>
<path fill="none" stroke="#404040" d="M465.3283,-1005.2639C444.7944,-999.1909 413.4437,-986.5159 397.9624,-963 390.1448,-951.1252 384.9237,-937.6042 381.5671,-923.594"/>
<polygon fill="none" stroke="#404040" points="381.5478,-923.498 376.4382,-918.4095 379.1701,-911.7359 384.2796,-916.8243 381.5478,-923.498"/>
<text text-anchor="middle" x="410.4624" y="-944" font-family="Helvetica,sans-Serif" font-size="10.00" fill="#000000"> +itg</text>
</g>
<!-- Node10 -->
<g id="node9" class="node">
<title>Node10</title>
<g id="a_node9"><a xlink:href="../../d9/db3/structo2_1_1header_1_1Descriptor.html" target="_top" xlink:title="{o2::header::Descriptor\l\&lt; gSizeSerializationMethodString \&gt;\n||+ Descriptor()\l+ Descriptor()\l+ Descriptor()\l+ Descriptor()\l+ operator=()\l+ operator ItgType()\l+ runtimeInit()\l+ operator==()\l+ operator==()\l+ operator\&lt;()\l+ operator!=()\l+ operator!=()\l+ as()\l+ print()\l}">
<polygon fill="none" stroke="#000000" points="83.4624,-430.5 83.4624,-641.5 274.4624,-641.5 274.4624,-430.5 83.4624,-430.5"/>
<text text-anchor="start" x="91.4624" y="-629.5" font-family="Helvetica,sans-Serif" font-size="10.00" fill="#000000">o2::header::Descriptor</text>
<text text-anchor="middle" x="178.9624" y="-618.5" font-family="Helvetica,sans-Serif" font-size="10.00" fill="#000000">&lt; gSizeSerializationMethodString &gt;</text>
<polyline fill="none" stroke="#000000" points="83.4624,-611.5 274.4624,-611.5 "/>
<text text-anchor="middle" x="178.9624" y="-599.5" font-family="Helvetica,sans-Serif" font-size="10.00" fill="#000000"> </text>
<polyline fill="none" stroke="#000000" points="83.4624,-592.5 274.4624,-592.5 "/>
<text text-anchor="start" x="91.4624" y="-580.5" font-family="Helvetica,sans-Serif" font-size="10.00" fill="#000000">+ Descriptor()</text>
<text text-anchor="start" x="91.4624" y="-569.5" font-family="Helvetica,sans-Serif" font-size="10.00" fill="#000000">+ Descriptor()</text>
<text text-anchor="start" x="91.4624" y="-558.5" font-family="Helvetica,sans-Serif" font-size="10.00" fill="#000000">+ Descriptor()</text>
<text text-anchor="start" x="91.4624" y="-547.5" font-family="Helvetica,sans-Serif" font-size="10.00" fill="#000000">+ Descriptor()</text>
<text text-anchor="start" x="91.4624" y="-536.5" font-family="Helvetica,sans-Serif" font-size="10.00" fill="#000000">+ operator=()</text>
<text text-anchor="start" x="91.4624" y="-525.5" font-family="Helvetica,sans-Serif" font-size="10.00" fill="#000000">+ operator ItgType()</text>
<text text-anchor="start" x="91.4624" y="-514.5" font-family="Helvetica,sans-Serif" font-size="10.00" fill="#000000">+ runtimeInit()</text>
<text text-anchor="start" x="91.4624" y="-503.5" font-family="Helvetica,sans-Serif" font-size="10.00" fill="#000000">+ operator==()</text>
<text text-anchor="start" x="91.4624" y="-492.5" font-family="Helvetica,sans-Serif" font-size="10.00" fill="#000000">+ operator==()</text>
<text text-anchor="start" x="91.4624" y="-481.5" font-family="Helvetica,sans-Serif" font-size="10.00" fill="#000000">+ operator&lt;()</text>
<text text-anchor="start" x="91.4624" y="-470.5" font-family="Helvetica,sans-Serif" font-size="10.00" fill="#000000">+ operator!=()</text>
<text text-anchor="start" x="91.4624" y="-459.5" font-family="Helvetica,sans-Serif" font-size="10.00" fill="#000000">+ operator!=()</text>
<text text-anchor="start" x="91.4624" y="-448.5" font-family="Helvetica,sans-Serif" font-size="10.00" fill="#000000">+ as()</text>
<text text-anchor="start" x="91.4624" y="-437.5" font-family="Helvetica,sans-Serif" font-size="10.00" fill="#000000">+ print()</text>
</a>
</g>
</g>
<!-- Node5&#45;&gt;Node10 -->
<g id="edge14" class="edge">
<title>Node5&#45;&gt;Node10</title>
<path fill="none" stroke="#404040" d="M486.2422,-981.479C488.7024,-912.9383 491.0047,-741.5672 454.9624,-700 432.7882,-674.4268 411.7585,-696.0456 380.9624,-682 365.5909,-674.9893 365.2492,-667.1935 349.9624,-660 325.1147,-648.3075 312.5001,-655.501 285.3853,-642.5922"/>
<polygon fill="none" stroke="#404040" points="285.2646,-642.5274 278.0864,-643.2158 274.6901,-636.8546 281.8683,-636.1662 285.2646,-642.5274"/>
<text text-anchor="middle" x="500.4624" y="-803.5" font-family="Helvetica,sans-Serif" font-size="10.00" fill="#000000"> +itg</text>
</g>
<!-- Node6 -->
<g id="node5" class="node">
<title>Node6</title>
<polygon fill="none" stroke="#bfbfbf" points="585.9624,-981.5 585.9624,-1038.5 623.9624,-1038.5 623.9624,-981.5 585.9624,-981.5"/>
<text text-anchor="middle" x="604.9624" y="-1026.5" font-family="Helvetica,sans-Serif" font-size="10.00" fill="#000000">char</text>
<polyline fill="none" stroke="#bfbfbf" points="585.9624,-1019.5 623.9624,-1019.5 "/>
<text text-anchor="middle" x="604.9624" y="-1007.5" font-family="Helvetica,sans-Serif" font-size="10.00" fill="#000000"> </text>
<polyline fill="none" stroke="#bfbfbf" points="585.9624,-1000.5 623.9624,-1000.5 "/>
<text text-anchor="middle" x="604.9624" y="-988.5" font-family="Helvetica,sans-Serif" font-size="10.00" fill="#000000"> </text>
</g>
<!-- Node6&#45;&gt;Node3 -->
<g id="edge12" class="edge">
<title>Node6&#45;&gt;Node3</title>
<path fill="none" stroke="#404040" d="M624.1477,-988.8202C639.9033,-970.0789 661.2972,-941.2367 671.9624,-912 742.6242,-718.2923 741.3317,-472.6574 733.844,-339.8174"/>
<polygon fill="none" stroke="#404040" points="733.8365,-339.6899 729.4886,-333.9371 733.1266,-327.711 737.4746,-333.4638 733.8365,-339.6899"/>
<text text-anchor="middle" x="761.9624" y="-668.5" font-family="Helvetica,sans-Serif" font-size="10.00" fill="#000000"> +magicString</text>
</g>
<!-- Node6&#45;&gt;Node4 -->
<g id="edge4" class="edge">
<title>Node6&#45;&gt;Node4</title>
<path fill="none" stroke="#404040" d="M614.8181,-981.1278C632.4244,-924.463 663.7168,-795.8684 621.9624,-700 611.5398,-676.0698 602.2309,-671.8263 578.9624,-660 544.6566,-642.5641 526.2267,-658.8393 488.7891,-642.6204"/>
<polygon fill="none" stroke="#404040" points="488.4511,-642.4531 481.2992,-643.3759 477.6967,-637.1292 484.8486,-636.2064 488.4511,-642.4531"/>
<text text-anchor="middle" x="655.4624" y="-803.5" font-family="Helvetica,sans-Serif" font-size="10.00" fill="#000000"> +str</text>
</g>
<!-- Node6&#45;&gt;Node9 -->
<g id="edge9" class="edge">
<title>Node6&#45;&gt;Node9</title>
<path fill="none" stroke="#404040" d="M585.5961,-1003.6589C564.4299,-996.1279 530.1762,-982.1341 504.9624,-963 486.6374,-949.0937 469.6322,-931.7448 454.507,-913.6994"/>
<polygon fill="none" stroke="#404040" points="454.3555,-913.5137 447.4637,-911.3917 446.7718,-904.2139 453.6636,-906.3359 454.3555,-913.5137"/>
<text text-anchor="middle" x="517.4624" y="-944" font-family="Helvetica,sans-Serif" font-size="10.00" fill="#000000"> +str</text>
</g>
<!-- Node6&#45;&gt;Node10 -->
<g id="edge15" class="edge">
<title>Node6&#45;&gt;Node10</title>
<path fill="none" stroke="#404040" d="M585.7189,-986.2417C571.5521,-967.3292 553.2106,-939.548 543.9624,-912 526.0659,-858.6911 561.0325,-699.4526 520.9624,-660 485.5295,-625.1133 349.6252,-659.4724 286.299,-641.9917"/>
<polygon fill="none" stroke="#404040" points="285.9339,-641.8593 278.9297,-643.5743 274.6527,-637.7684 281.6569,-636.0535 285.9339,-641.8593"/>
<text text-anchor="middle" x="556.4624" y="-803.5" font-family="Helvetica,sans-Serif" font-size="10.00" fill="#000000"> +str</text>
</g>
<!-- Node7 -->
<g id="node6" class="node">
<title>Node7</title>
<polygon fill="none" stroke="#bfbfbf" points="90.4624,-981.5 90.4624,-1038.5 119.4624,-1038.5 119.4624,-981.5 90.4624,-981.5"/>
<text text-anchor="middle" x="104.9624" y="-1026.5" font-family="Helvetica,sans-Serif" font-size="10.00" fill="#000000">int</text>
<polyline fill="none" stroke="#bfbfbf" points="90.4624,-1019.5 119.4624,-1019.5 "/>
<text text-anchor="middle" x="104.9624" y="-1007.5" font-family="Helvetica,sans-Serif" font-size="10.00" fill="#000000"> </text>
<polyline fill="none" stroke="#bfbfbf" points="90.4624,-1000.5 119.4624,-1000.5 "/>
<text text-anchor="middle" x="104.9624" y="-988.5" font-family="Helvetica,sans-Serif" font-size="10.00" fill="#000000"> </text>
</g>
<!-- Node7&#45;&gt;Node4 -->
<g id="edge5" class="edge">
<title>Node7&#45;&gt;Node4</title>
<path fill="none" stroke="#404040" d="M98.1548,-981.2238C86.0937,-923.0529 67.1688,-789.4149 122.9624,-700 142.1359,-669.2725 160.0184,-672.6337 193.9624,-660 228.5338,-647.1328 244.7081,-658.9765 281.3397,-642.0516"/>
<polygon fill="none" stroke="#404040" points="281.5638,-641.937 285.083,-635.6429 292.2464,-636.4706 288.7272,-642.7647 281.5638,-641.937"/>
<text text-anchor="middle" x="151.9624" y="-814.5" font-family="Helvetica,sans-Serif" font-size="10.00" fill="#000000"> +arraySize</text>
<text text-anchor="middle" x="151.9624" y="-803.5" font-family="Helvetica,sans-Serif" font-size="10.00" fill="#000000">+size</text>
<text text-anchor="middle" x="151.9624" y="-792.5" font-family="Helvetica,sans-Serif" font-size="10.00" fill="#000000">+bitcount</text>
</g>
<!-- Node7&#45;&gt;Node9 -->
<g id="edge10" class="edge">
<title>Node7&#45;&gt;Node9</title>
<path fill="none" stroke="#404040" d="M119.6033,-1001.3034C146.1672,-985.7393 204.3397,-952.6365 255.9624,-930 277.976,-920.3471 287.6957,-926.3727 306.9624,-912 308.6858,-910.7143 310.387,-909.3791 312.0652,-907.9996"/>
<polygon fill="none" stroke="#404040" points="312.4656,-907.6424 314.2801,-900.6633 321.4203,-899.654 319.6058,-906.6331 312.4656,-907.6424"/>
<text text-anchor="middle" x="284.9624" y="-955" font-family="Helvetica,sans-Serif" font-size="10.00" fill="#000000"> +arraySize</text>
<text text-anchor="middle" x="284.9624" y="-944" font-family="Helvetica,sans-Serif" font-size="10.00" fill="#000000">+size</text>
<text text-anchor="middle" x="284.9624" y="-933" font-family="Helvetica,sans-Serif" font-size="10.00" fill="#000000">+bitcount</text>
</g>
<!-- Node7&#45;&gt;Node10 -->
<g id="edge16" class="edge">
<title>Node7&#45;&gt;Node10</title>
<path fill="none" stroke="#404040" d="M90.209,-997.9382C70.8842,-981.078 37.9374,-948.4122 24.9624,-912 -6.6645,-823.2443 -9.7223,-787.606 24.9624,-700 36.132,-671.7879 54.7046,-645.5955 75.1584,-622.7952"/>
<polygon fill="none" stroke="#404040" points="75.2407,-622.7063 76.3794,-615.5856 83.3903,-613.898 82.2516,-621.0186 75.2407,-622.7063"/>
<text text-anchor="middle" x="53.9624" y="-814.5" font-family="Helvetica,sans-Serif" font-size="10.00" fill="#000000"> +arraySize</text>
<text text-anchor="middle" x="53.9624" y="-803.5" font-family="Helvetica,sans-Serif" font-size="10.00" fill="#000000">+size</text>
<text text-anchor="middle" x="53.9624" y="-792.5" font-family="Helvetica,sans-Serif" font-size="10.00" fill="#000000">+bitcount</text>
</g>
<!-- Node8 -->
<g id="node7" class="node">
<title>Node8</title>
<polygon fill="none" stroke="#bfbfbf" points="172.4624,-981.5 172.4624,-1038.5 279.4624,-1038.5 279.4624,-981.5 172.4624,-981.5"/>
<text text-anchor="middle" x="225.9624" y="-1026.5" font-family="Helvetica,sans-Serif" font-size="10.00" fill="#000000">anonymous:+@72</text>
<polyline fill="none" stroke="#bfbfbf" points="172.4624,-1019.5 279.4624,-1019.5 "/>
<text text-anchor="middle" x="225.9624" y="-1007.5" font-family="Helvetica,sans-Serif" font-size="10.00" fill="#000000"> </text>
<polyline fill="none" stroke="#bfbfbf" points="172.4624,-1000.5 279.4624,-1000.5 "/>
<text text-anchor="middle" x="225.9624" y="-988.5" font-family="Helvetica,sans-Serif" font-size="10.00" fill="#000000"> </text>
</g>
<!-- Node8&#45;&gt;Node4 -->
<g id="edge6" class="edge">
<title>Node8&#45;&gt;Node4</title>
<path fill="none" stroke="#404040" d="M231.0078,-981.2798C234.4228,-961.7517 239.0139,-935.3253 242.9624,-912 258.9014,-817.8419 219.73,-775.6888 277.9624,-700 289.8499,-684.5489 304.1267,-695.734 317.9624,-682 326.812,-673.2154 334.6141,-663.0459 341.4647,-652.2431"/>
<polygon fill="none" stroke="#404040" points="341.5967,-652.0218 341.2353,-644.8198 347.7444,-641.7162 348.1057,-648.9183 341.5967,-652.0218"/>
<text text-anchor="middle" x="294.9624" y="-803.5" font-family="Helvetica,sans-Serif" font-size="10.00" fill="#000000"> +@72</text>
</g>
<!-- Node8&#45;&gt;Node9 -->
<g id="edge11" class="edge">
<title>Node8&#45;&gt;Node9</title>
<path fill="none" stroke="#404040" d="M279.9075,-990.3043C293.6424,-983.3184 307.4683,-974.3048 317.9624,-963 328.9695,-951.1425 338.2865,-937.181 346.1331,-922.5569"/>
<polygon fill="none" stroke="#404040" points="346.1563,-922.5111 345.3066,-915.3502 351.5898,-911.8117 352.4395,-918.9726 346.1563,-922.5111"/>
<text text-anchor="middle" x="356.9624" y="-944" font-family="Helvetica,sans-Serif" font-size="10.00" fill="#000000"> +@72</text>
</g>
<!-- Node8&#45;&gt;Node10 -->
<g id="edge17" class="edge">
<title>Node8&#45;&gt;Node10</title>
<path fill="none" stroke="#404040" d="M217.1105,-981.3653C215.5133,-975.3469 214.0216,-969.0029 212.9624,-963 194.6841,-859.412 186.2246,-739.9386 182.3137,-653.7572"/>
<polygon fill="none" stroke="#404040" points="182.3045,-653.5447 178.0462,-647.7252 181.7803,-641.5562 186.0386,-647.3757 182.3045,-653.5447"/>
<text text-anchor="middle" x="221.9624" y="-803.5" font-family="Helvetica,sans-Serif" font-size="10.00" fill="#000000"> +@72</text>
</g>
<!-- Node9&#45;&gt;Node4 -->
<g id="edge7" class="edge">
<title>Node9&#45;&gt;Node4</title>
<path fill="none" stroke="#ffa500" d="M384.3919,-690.0145C384.4511,-674.039 384.5116,-657.701 384.5701,-641.9196"/>
<polygon fill="#ffa500" stroke="#ffa500" points="380.8904,-690.438 384.3533,-700.4509 387.8904,-690.464 380.8904,-690.438"/>
<text text-anchor="start" x="384.9624" y="-674" font-family="Helvetica,sans-Serif" font-size="10.00" fill="#000000"> &lt; gSizeHeaderDescription</text>
<text text-anchor="middle" x="450.9624" y="-663" font-family="Helvetica,sans-Serif" font-size="10.00" fill="#000000">String &gt;</text>
</g>
<!-- Node9&#45;&gt;Node10 -->
<g id="edge18" class="edge">
<title>Node9&#45;&gt;Node10</title>
<path fill="none" stroke="#ffa500" d="M313.3913,-704.4035C311.2909,-702.8564 309.1477,-701.3851 306.9624,-700 270.6654,-676.9947 242.8768,-711.8498 211.9624,-682 200.4653,-670.8989 192.5877,-656.7055 187.2541,-641.5462"/>
<polygon fill="#ffa500" stroke="#ffa500" points="311.2874,-707.2026 321.2798,-710.7246 315.6647,-701.74 311.2874,-707.2026"/>
<text text-anchor="start" x="211.9624" y="-674" font-family="Helvetica,sans-Serif" font-size="10.00" fill="#000000"> &lt; gSizeSerializationMethod</text>
<text text-anchor="middle" x="280.9624" y="-663" font-family="Helvetica,sans-Serif" font-size="10.00" fill="#000000">String &gt;</text>
</g>
<!-- Node10&#45;&gt;Node3 -->
<g id="edge13" class="edge">
<title>Node10&#45;&gt;Node3</title>
<path fill="none" stroke="#404040" d="M261.0208,-430.0267C289.4547,-399.1821 323.4426,-367.9269 359.9624,-346 442.6308,-296.3649 550.2265,-270.1567 627.3272,-256.805"/>
<polygon fill="none" stroke="#404040" points="627.597,-256.7598 632.8511,-251.8207 639.4311,-254.7709 634.177,-259.71 627.597,-256.7598"/>
<text text-anchor="middle" x="395.9624" y="-376.5" font-family="Helvetica,sans-Serif" font-size="10.00" fill="#000000"> +serialization</text>
</g>
<!-- Node11 -->
<g id="node10" class="node">
<title>Node11</title>
<g id="a_node10"><a xlink:href="../../d2/d5f/classunsigned_01int.html" target="_top" xlink:title="{unsigned int\n||}">
<polygon fill="none" stroke="#000000" points="495.4624,-507.5 495.4624,-564.5 572.4624,-564.5 572.4624,-507.5 495.4624,-507.5"/>
<text text-anchor="middle" x="533.9624" y="-552.5" font-family="Helvetica,sans-Serif" font-size="10.00" fill="#000000">unsigned int</text>
<polyline fill="none" stroke="#000000" points="495.4624,-545.5 572.4624,-545.5 "/>
<text text-anchor="middle" x="533.9624" y="-533.5" font-family="Helvetica,sans-Serif" font-size="10.00" fill="#000000"> </text>
<polyline fill="none" stroke="#000000" points="495.4624,-526.5 572.4624,-526.5 "/>
<text text-anchor="middle" x="533.9624" y="-514.5" font-family="Helvetica,sans-Serif" font-size="10.00" fill="#000000"> </text>
</a>
</g>
</g>
<!-- Node11&#45;&gt;Node3 -->
<g id="edge19" class="edge">
<title>Node11&#45;&gt;Node3</title>
<path fill="none" stroke="#404040" d="M535.7041,-507.4414C539.3477,-467.9558 550.5628,-395.918 584.9624,-346 596.8572,-328.7391 612.6617,-313.3421 629.3827,-300.0665"/>
<polygon fill="none" stroke="#404040" points="629.7682,-299.7726 632.1145,-292.9539 639.3111,-292.4971 636.9648,-299.3159 629.7682,-299.7726"/>
<text text-anchor="middle" x="621.9624" y="-376.5" font-family="Helvetica,sans-Serif" font-size="10.00" fill="#000000"> +sMagicString</text>
</g>
<!-- Node12 -->
<g id="node11" class="node">
<title>Node12</title>
<polygon fill="none" stroke="#bfbfbf" points="590.4624,-507.5 590.4624,-564.5 697.4624,-564.5 697.4624,-507.5 590.4624,-507.5"/>
<text text-anchor="middle" x="643.9624" y="-552.5" font-family="Helvetica,sans-Serif" font-size="10.00" fill="#000000">anonymous:+@74</text>
<polyline fill="none" stroke="#bfbfbf" points="590.4624,-545.5 697.4624,-545.5 "/>
<text text-anchor="middle" x="643.9624" y="-533.5" font-family="Helvetica,sans-Serif" font-size="10.00" fill="#000000"> </text>
<polyline fill="none" stroke="#bfbfbf" points="590.4624,-526.5 697.4624,-526.5 "/>
<text text-anchor="middle" x="643.9624" y="-514.5" font-family="Helvetica,sans-Serif" font-size="10.00" fill="#000000"> </text>
</g>
<!-- Node12&#45;&gt;Node3 -->
<g id="edge20" class="edge">
<title>Node12&#45;&gt;Node3</title>
<path fill="none" stroke="#404040" d="M646.7084,-507.4309C650.8615,-469.7554 660.2099,-401.7153 677.9624,-346 678.6865,-343.7273 679.4505,-341.4399 680.2489,-339.1442"/>
<polygon fill="none" stroke="#404040" points="680.3448,-338.8844 678.6713,-331.8702 684.5023,-327.6276 686.1758,-334.6419 680.3448,-338.8844"/>
<text text-anchor="middle" x="694.9624" y="-376.5" font-family="Helvetica,sans-Serif" font-size="10.00" fill="#000000"> +@74</text>
</g>
<!-- Node13 -->
<g id="node12" class="node">
<title>Node13</title>
<polygon fill="none" stroke="#bfbfbf" points="995.4624,-507.5 995.4624,-564.5 1056.4624,-564.5 1056.4624,-507.5 995.4624,-507.5"/>
<text text-anchor="middle" x="1025.9624" y="-552.5" font-family="Helvetica,sans-Serif" font-size="10.00" fill="#000000">unsigned</text>
<polyline fill="none" stroke="#bfbfbf" points="995.4624,-545.5 1056.4624,-545.5 "/>
<text text-anchor="middle" x="1025.9624" y="-533.5" font-family="Helvetica,sans-Serif" font-size="10.00" fill="#000000"> </text>
<polyline fill="none" stroke="#bfbfbf" points="995.4624,-526.5 1056.4624,-526.5 "/>
<text text-anchor="middle" x="1025.9624" y="-514.5" font-family="Helvetica,sans-Serif" font-size="10.00" fill="#000000"> </text>
</g>
<!-- Node13&#45;&gt;Node2 -->
<g id="edge25" class="edge">
<title>Node13&#45;&gt;Node2</title>
<path fill="none" stroke="#404040" d="M1029.9508,-507.4707C1033.3877,-482.361 1038.3512,-444.7953 1041.9624,-412 1054.2718,-300.2101 1029.939,-266.8731 1064.9624,-160 1071.6688,-139.5355 1082.5785,-118.8636 1093.7635,-100.8231"/>
<polygon fill="none" stroke="#404040" points="1093.8838,-100.6348 1093.7481,-93.425 1100.3511,-90.5266 1100.4869,-97.7365 1093.8838,-100.6348"/>
<text text-anchor="middle" x="1098.9624" y="-241.5" font-family="Helvetica,sans-Serif" font-size="10.00" fill="#000000"> +mTaskHash</text>
</g>
<!-- Node13&#45;&gt;Node3 -->
<g id="edge21" class="edge">
<title>Node13&#45;&gt;Node3</title>
<path fill="none" stroke="#404040" d="M1006.2967,-507.3918C990.0133,-482.8525 967.0248,-446.15 950.9624,-412 937.7411,-383.8906 948.4279,-369.3688 927.9624,-346 900.4008,-314.5284 860.8182,-291.5904 823.9837,-275.532"/>
<polygon fill="none" stroke="#404040" points="823.7182,-275.4204 816.6366,-276.781 812.6569,-270.7675 819.7385,-269.4068 823.7182,-275.4204"/>
<text text-anchor="middle" x="996.4624" y="-404" font-family="Helvetica,sans-Serif" font-size="10.00" fill="#000000"> +headerVersion</text>
<text text-anchor="middle" x="996.4624" y="-393" font-family="Helvetica,sans-Serif" font-size="10.00" fill="#000000">+headerSize</text>
<text text-anchor="middle" x="996.4624" y="-382" font-family="Helvetica,sans-Serif" font-size="10.00" fill="#000000">+flagsNextHeader</text>
<text text-anchor="middle" x="996.4624" y="-371" font-family="Helvetica,sans-Serif" font-size="10.00" fill="#000000">+magicStringInt</text>
<text text-anchor="middle" x="996.4624" y="-360" font-family="Helvetica,sans-Serif" font-size="10.00" fill="#000000">+flagsUnused</text>
<text text-anchor="middle" x="996.4624" y="-349" font-family="Helvetica,sans-Serif" font-size="10.00" fill="#000000">+flags</text>
</g>
<!-- Node14 -->
<g id="node13" class="node">
<title>Node14</title>
<polygon fill="none" stroke="#bfbfbf" points="754.4624,-507.5 754.4624,-564.5 797.4624,-564.5 797.4624,-507.5 754.4624,-507.5"/>
<text text-anchor="middle" x="775.9624" y="-552.5" font-family="Helvetica,sans-Serif" font-size="10.00" fill="#000000">const</text>
<polyline fill="none" stroke="#bfbfbf" points="754.4624,-545.5 797.4624,-545.5 "/>
<text text-anchor="middle" x="775.9624" y="-533.5" font-family="Helvetica,sans-Serif" font-size="10.00" fill="#000000"> </text>
<polyline fill="none" stroke="#bfbfbf" points="754.4624,-526.5 797.4624,-526.5 "/>
<text text-anchor="middle" x="775.9624" y="-514.5" font-family="Helvetica,sans-Serif" font-size="10.00" fill="#000000"> </text>
</g>
<!-- Node14&#45;&gt;Node3 -->
<g id="edge22" class="edge">
<title>Node14&#45;&gt;Node3</title>
<path fill="none" stroke="#404040" d="M771.0771,-507.4702C764.4678,-468.8715 752.3522,-398.1164 742.3395,-339.6425"/>
<polygon fill="none" stroke="#404040" points="742.3279,-339.5744 737.3726,-334.3356 740.3025,-327.7465 745.2578,-332.9853 742.3279,-339.5744"/>
<text text-anchor="middle" x="809.4624" y="-387.5" font-family="Helvetica,sans-Serif" font-size="10.00" fill="#000000"> +sHeaderType</text>
<text text-anchor="middle" x="809.4624" y="-376.5" font-family="Helvetica,sans-Serif" font-size="10.00" fill="#000000">+sSerializationMethod</text>
<text text-anchor="middle" x="809.4624" y="-365.5" font-family="Helvetica,sans-Serif" font-size="10.00" fill="#000000">+sVersion</text>
</g>
<!-- Node15 -->
<g id="node14" class="node">
<title>Node15</title>
<polygon fill="none" stroke="#bfbfbf" points="839.4624,-507.5 839.4624,-564.5 946.4624,-564.5 946.4624,-507.5 839.4624,-507.5"/>
<text text-anchor="middle" x="892.9624" y="-552.5" font-family="Helvetica,sans-Serif" font-size="10.00" fill="#000000">anonymous:+@76</text>
<polyline fill="none" stroke="#bfbfbf" points="839.4624,-545.5 946.4624,-545.5 "/>
<text text-anchor="middle" x="892.9624" y="-533.5" font-family="Helvetica,sans-Serif" font-size="10.00" fill="#000000"> </text>
<polyline fill="none" stroke="#bfbfbf" points="839.4624,-526.5 946.4624,-526.5 "/>
<text text-anchor="middle" x="892.9624" y="-514.5" font-family="Helvetica,sans-Serif" font-size="10.00" fill="#000000"> </text>
</g>
<!-- Node15&#45;&gt;Node3 -->
<g id="edge23" class="edge">
<title>Node15&#45;&gt;Node3</title>
<path fill="none" stroke="#404040" d="M896.1377,-507.32C899.0604,-468.0103 899.1396,-396.5231 868.9624,-346 857.3641,-326.5821 840.4829,-309.854 822.3535,-295.8869"/>
<polygon fill="none" stroke="#404040" points="822.1473,-295.7353 814.9439,-295.4018 812.4812,-288.6243 819.6846,-288.9577 822.1473,-295.7353"/>
<text text-anchor="middle" x="908.9624" y="-376.5" font-family="Helvetica,sans-Serif" font-size="10.00" fill="#000000"> +@76</text>
</g>
<!-- Node16 -->
<g id="node15" class="node">
<title>Node16</title>
<polygon fill="none" stroke="#bfbfbf" points="1142.4624,-215.5 1142.4624,-272.5 1281.4624,-272.5 1281.4624,-215.5 1142.4624,-215.5"/>
<text text-anchor="middle" x="1211.9624" y="-260.5" font-family="Helvetica,sans-Serif" font-size="10.00" fill="#000000">OutputObjHandlingPolicy</text>
<polyline fill="none" stroke="#bfbfbf" points="1142.4624,-253.5 1281.4624,-253.5 "/>
<text text-anchor="middle" x="1211.9624" y="-241.5" font-family="Helvetica,sans-Serif" font-size="10.00" fill="#000000"> </text>
<polyline fill="none" stroke="#bfbfbf" points="1142.4624,-234.5 1281.4624,-234.5 "/>
<text text-anchor="middle" x="1211.9624" y="-222.5" font-family="Helvetica,sans-Serif" font-size="10.00" fill="#000000"> </text>
</g>
<!-- Node16&#45;&gt;Node2 -->
<g id="edge24" class="edge">
<title>Node16&#45;&gt;Node2</title>
<path fill="none" stroke="#404040" d="M1200.6205,-215.1364C1189.0302,-185.6406 1170.7254,-139.0571 1156.2278,-102.1626"/>
<polygon fill="none" stroke="#404040" points="1156.0566,-101.7269 1150.1394,-97.6055 1151.6679,-90.5582 1157.5851,-94.6797 1156.0566,-101.7269"/>
<text text-anchor="middle" x="1196.4624" y="-123" font-family="Helvetica,sans-Serif" font-size="10.00" fill="#000000"> +mPolicy</text>
</g>
<!-- Node17 -->
<g id="node16" class="node">
<title>Node17</title>
<polygon fill="none" stroke="#bfbfbf" points="1299.9624,-215.5 1299.9624,-272.5 1343.9624,-272.5 1343.9624,-215.5 1299.9624,-215.5"/>
<text text-anchor="middle" x="1321.9624" y="-260.5" font-family="Helvetica,sans-Serif" font-size="10.00" fill="#000000">static</text>
<polyline fill="none" stroke="#bfbfbf" points="1299.9624,-253.5 1343.9624,-253.5 "/>
<text text-anchor="middle" x="1321.9624" y="-241.5" font-family="Helvetica,sans-Serif" font-size="10.00" fill="#000000"> </text>
<polyline fill="none" stroke="#bfbfbf" points="1299.9624,-234.5 1343.9624,-234.5 "/>
<text text-anchor="middle" x="1321.9624" y="-222.5" font-family="Helvetica,sans-Serif" font-size="10.00" fill="#000000"> </text>
</g>
<!-- Node17&#45;&gt;Node2 -->
<g id="edge26" class="edge">
<title>Node17&#45;&gt;Node2</title>
<path fill="none" stroke="#404040" d="M1315.5826,-215.2494C1310.7882,-198.0702 1302.9517,-176.4601 1290.9624,-160 1271.1486,-132.7978 1242.9371,-109.4093 1215.8812,-90.9928"/>
<polygon fill="none" stroke="#404040" points="1215.595,-90.8035 1208.3839,-90.8275 1205.5882,-84.1804 1212.7993,-84.1563 1215.595,-90.8035"/>
<text text-anchor="middle" x="1329.4624" y="-134" font-family="Helvetica,sans-Serif" font-size="10.00" fill="#000000"> +sHeaderType</text>
<text text-anchor="middle" x="1329.4624" y="-123" font-family="Helvetica,sans-Serif" font-size="10.00" fill="#000000">+sSerializationMethod</text>
<text text-anchor="middle" x="1329.4624" y="-112" font-family="Helvetica,sans-Serif" font-size="10.00" fill="#000000">+sVersion</text>
</g>
</g>
</svg>
        <g id="navigator" transform="translate(0 0)" fill="#404254">
                <rect fill="#f2f5e9" fill-opacity="0.5" stroke="#606060" stroke-width=".5" x="0" y="0" width="60" height="60"/>
                <use id="zoomplus" xlink:href="#zoomPlus" x="17" y="9" onmousedown="handleZoom(evt,'in')"/>
                <use id="zoomminus" xlink:href="#zoomMin" x="42" y="9" onmousedown="handleZoom(evt,'out')"/>
                <use id="reset" xlink:href="#resetDef" x="30" y="36" onmousedown="handleReset()"/>
                <g id="arrowUp" xlink:href="#dirArrow" transform="translate(30 24)" onmousedown="handlePan(0,-1)">
                  <use xlink:href="#rim" fill="#404040">
                        <set attributeName="fill" to="#808080" begin="arrowUp.mouseover" end="arrowUp.mouseout"/>
                  </use>
                  <path fill="none" stroke="white" stroke-width="1.5" d="M0,-3.0v7 M-2.5,-0.5L0,-3.0L2.5,-0.5"/>
                </g>
                <g id="arrowRight" xlink:href="#dirArrow" transform="rotate(90) translate(36 -43)" onmousedown="handlePan(1,0)">
                  <use xlink:href="#rim" fill="#404040">
                        <set attributeName="fill" to="#808080" begin="arrowRight.mouseover" end="arrowRight.mouseout"/>
                  </use>
                  <path fill="none" stroke="white" stroke-width="1.5" d="M0,-3.0v7 M-2.5,-0.5L0,-3.0L2.5,-0.5"/>
                </g>
                <g id="arrowDown" xlink:href="#dirArrow" transform="rotate(180) translate(-30 -48)" onmousedown="handlePan(0,1)">
                  <use xlink:href="#rim" fill="#404040">
                        <set attributeName="fill" to="#808080" begin="arrowDown.mouseover" end="arrowDown.mouseout"/>
                  </use>
                  <path fill="none" stroke="white" stroke-width="1.5" d="M0,-3.0v7 M-2.5,-0.5L0,-3.0L2.5,-0.5"/>
                </g>
                <g id="arrowLeft" xlink:href="#dirArrow" transform="rotate(270) translate(-36 17)" onmousedown="handlePan(-1,0)">
                  <use xlink:href="#rim" fill="#404040">
                        <set attributeName="fill" to="#808080" begin="arrowLeft.mouseover" end="arrowLeft.mouseout"/>
                  </use>
                  <path fill="none" stroke="white" stroke-width="1.5" d="M0,-3.0v7 M-2.5,-0.5L0,-3.0L2.5,-0.5"/>
                </g>
        </g>
        <svg viewBox="0 0 15 15" width="100%" height="30px" preserveAspectRatio="xMaxYMin meet">
         <g id="arrow_out" transform="scale(0.3 0.3)">
          <a xlink:href="structo2_1_1framework_1_1OutputObjHeader__coll__graph_org.svg" target="_base">
           <rect id="button" ry="5" rx="5" y="6" x="6" height="38" width="38"
                fill="#f2f5e9" fill-opacity="0.5" stroke="#606060" stroke-width="1.0"/>
           <path id="arrow"
             d="M 11.500037,31.436501 C 11.940474,20.09759 22.043105,11.32322 32.158766,21.979434 L 37.068811,17.246167 C 37.068811,17.246167 37.088388,32 37.088388,32 L 22.160133,31.978069 C 22.160133,31.978069 26.997745,27.140456 26.997745,27.140456 C 18.528582,18.264221 13.291696,25.230495 11.500037,31.436501 z"
             style="fill:#404040;"/>
          </a>
         </g>
        </svg>
</svg>
