<?xml version="1.0" encoding="UTF-8" standalone="no"?>
<!DOCTYPE svg PUBLIC "-//W3C//DTD SVG 1.1//EN"
 "http://www.w3.org/Graphics/SVG/1.1/DTD/svg11.dtd">
<!-- Generated by graphviz version 2.40.1 (20161225.0304)
 -->
<!-- Title: o2::cpv::CPVBlockHeader Pages: 1 -->
<!--zoomable 1003 -->
<svg id="main" version="1.1" xmlns="http://www.w3.org/2000/svg" xmlns:xlink="http://www.w3.org/1999/xlink" xml:space="preserve" onload="init(evt)">
<style type="text/css"><![CDATA[
.edge:hover path { stroke: red; }
.edge:hover polygon { stroke: red; fill: red; }
]]></style>
<script type="text/javascript"><![CDATA[
var edges = document.getElementsByTagName('g');
if (edges && edges.length) {
  for (var i=0;i<edges.length;i++) {
    if (edges[i].id.substr(0,4)=='edge') {
      edges[i].setAttribute('class','edge');
    }
  }
}
]]></script>
        <defs>
                <circle id="rim" cx="0" cy="0" r="7"/>
                <circle id="rim2" cx="0" cy="0" r="3.5"/>
                <g id="zoomPlus">
                        <use xlink:href="#rim" fill="#404040">
                                <set attributeName="fill" to="#808080" begin="zoomplus.mouseover" end="zoomplus.mouseout"/>
                        </use>
                        <path d="M-4,0h8M0,-4v8" fill="none" stroke="white" stroke-width="1.5" pointer-events="none"/>
                </g>
                <g id="zoomMin">
                        <use xlink:href="#rim" fill="#404040">
                                <set attributeName="fill" to="#808080" begin="zoomminus.mouseover" end="zoomminus.mouseout"/>
                        </use>
                        <path d="M-4,0h8" fill="none" stroke="white" stroke-width="1.5" pointer-events="none"/>
                </g>
                <g id="dirArrow">
                        <path fill="none" stroke="white" stroke-width="1.5" d="M0,-3.0v7 M-2.5,-0.5L0,-3.0L2.5,-0.5"/>
                </g>
               <g id="resetDef">
                       <use xlink:href="#rim2" fill="#404040">
                               <set attributeName="fill" to="#808080" begin="reset.mouseover" end="reset.mouseout"/>
                       </use>
               </g>
        </defs>

<script type="text/javascript">
var viewWidth = 1001;
var viewHeight = 1003;
var sectionId = 'dynsection-1';
</script>
<script xlink:href="../../svgpan.js"/>
<svg id="graph" class="graph">
<g id="viewport">
<title>o2::cpv::CPVBlockHeader</title>
<!-- Node2 -->
<g id="node1" class="node">
<title>Node2</title>
<polygon fill="#bfbfbf" stroke="#000000" points="632.9998,-.5 632.9998,-57.5 771.9998,-57.5 771.9998,-.5 632.9998,-.5"/>
<text text-anchor="middle" x="702.4998" y="-45.5" font-family="Helvetica,sans-Serif" font-size="10.00" fill="#000000">o2::cpv::CPVBlockHeader</text>
<polyline fill="none" stroke="#000000" points="632.9998,-38.5 771.9998,-38.5 "/>
<text text-anchor="middle" x="702.4998" y="-26.5" font-family="Helvetica,sans-Serif" font-size="10.00" fill="#000000"> </text>
<polyline fill="none" stroke="#000000" points="632.9998,-19.5 771.9998,-19.5 "/>
<text text-anchor="start" x="640.9998" y="-7.5" font-family="Helvetica,sans-Serif" font-size="10.00" fill="#000000">+ CPVBlockHeader()</text>
</g>
<!-- Node3 -->
<g id="node2" class="node">
<title>Node3</title>
<g id="a_node2"><a xlink:href="../../d8/dbd/structo2_1_1header_1_1BaseHeader.html" target="_top" xlink:title="the base header struct Every header type must begin (i.e. derive) with this. Don&#39;t use this struct di...">
<polygon fill="none" stroke="#000000" points="491.9998,-116.5 491.9998,-283.5 664.9998,-283.5 664.9998,-116.5 491.9998,-116.5"/>
<text text-anchor="middle" x="578.4998" y="-271.5" font-family="Helvetica,sans-Serif" font-size="10.00" fill="#000000">o2::header::BaseHeader</text>
<polyline fill="none" stroke="#000000" points="491.9998,-264.5 664.9998,-264.5 "/>
<text text-anchor="middle" x="578.4998" y="-252.5" font-family="Helvetica,sans-Serif" font-size="10.00" fill="#000000"> </text>
<polyline fill="none" stroke="#000000" points="491.9998,-245.5 664.9998,-245.5 "/>
<text text-anchor="start" x="499.9998" y="-233.5" font-family="Helvetica,sans-Serif" font-size="10.00" fill="#000000">+ BaseHeader()</text>
<text text-anchor="start" x="499.9998" y="-222.5" font-family="Helvetica,sans-Serif" font-size="10.00" fill="#000000">+ BaseHeader()</text>
<text text-anchor="start" x="499.9998" y="-211.5" font-family="Helvetica,sans-Serif" font-size="10.00" fill="#000000">+ BaseHeader()</text>
<text text-anchor="start" x="499.9998" y="-200.5" font-family="Helvetica,sans-Serif" font-size="10.00" fill="#000000">+ size()</text>
<text text-anchor="start" x="499.9998" y="-189.5" font-family="Helvetica,sans-Serif" font-size="10.00" fill="#000000">+ data()</text>
<text text-anchor="start" x="499.9998" y="-178.5" font-family="Helvetica,sans-Serif" font-size="10.00" fill="#000000">+ next()</text>
<text text-anchor="start" x="499.9998" y="-167.5" font-family="Helvetica,sans-Serif" font-size="10.00" fill="#000000">+ next()</text>
<text text-anchor="start" x="499.9998" y="-156.5" font-family="Helvetica,sans-Serif" font-size="10.00" fill="#000000">+ sanityCheck()</text>
<text text-anchor="start" x="499.9998" y="-145.5" font-family="Helvetica,sans-Serif" font-size="10.00" fill="#000000">+ throwInconsistentStackError()</text>
<text text-anchor="start" x="499.9998" y="-134.5" font-family="Helvetica,sans-Serif" font-size="10.00" fill="#000000">+ get()</text>
<text text-anchor="start" x="499.9998" y="-123.5" font-family="Helvetica,sans-Serif" font-size="10.00" fill="#000000">+ get()</text>
</a>
</g>
</g>
<!-- Node3&#45;&gt;Node2 -->
<g id="edge1" class="edge">
<title>Node3&#45;&gt;Node2</title>
<path fill="none" stroke="#191970" d="M645.3374,-107.8287C658.6072,-89.5293 671.5796,-71.6399 681.8033,-57.5411"/>
<polygon fill="none" stroke="#191970" points="642.2654,-106.1031 639.2284,-116.2533 647.9323,-110.2124 642.2654,-106.1031"/>
</g>
<!-- Node4 -->
<g id="node3" class="node">
<title>Node4</title>
<g id="a_node3"><a xlink:href="../../d9/db3/structo2_1_1header_1_1Descriptor.html" target="_top" xlink:title="{o2::header::Descriptor\l\&lt; gSizeHeaderDescriptionString \&gt;\n||+ Descriptor()\l+ Descriptor()\l+ Descriptor()\l+ Descriptor()\l+ operator=()\l+ operator ItgType()\l+ runtimeInit()\l+ operator==()\l+ operator==()\l+ operator\&lt;()\l+ operator!=()\l+ operator!=()\l+ as()\l+ print()\l}">
<polygon fill="none" stroke="#000000" points="281.9998,-386.5 281.9998,-597.5 466.9998,-597.5 466.9998,-386.5 281.9998,-386.5"/>
<text text-anchor="start" x="289.9998" y="-585.5" font-family="Helvetica,sans-Serif" font-size="10.00" fill="#000000">o2::header::Descriptor</text>
<text text-anchor="middle" x="374.4998" y="-574.5" font-family="Helvetica,sans-Serif" font-size="10.00" fill="#000000">&lt; gSizeHeaderDescriptionString &gt;</text>
<polyline fill="none" stroke="#000000" points="281.9998,-567.5 466.9998,-567.5 "/>
<text text-anchor="middle" x="374.4998" y="-555.5" font-family="Helvetica,sans-Serif" font-size="10.00" fill="#000000"> </text>
<polyline fill="none" stroke="#000000" points="281.9998,-548.5 466.9998,-548.5 "/>
<text text-anchor="start" x="289.9998" y="-536.5" font-family="Helvetica,sans-Serif" font-size="10.00" fill="#000000">+ Descriptor()</text>
<text text-anchor="start" x="289.9998" y="-525.5" font-family="Helvetica,sans-Serif" font-size="10.00" fill="#000000">+ Descriptor()</text>
<text text-anchor="start" x="289.9998" y="-514.5" font-family="Helvetica,sans-Serif" font-size="10.00" fill="#000000">+ Descriptor()</text>
<text text-anchor="start" x="289.9998" y="-503.5" font-family="Helvetica,sans-Serif" font-size="10.00" fill="#000000">+ Descriptor()</text>
<text text-anchor="start" x="289.9998" y="-492.5" font-family="Helvetica,sans-Serif" font-size="10.00" fill="#000000">+ operator=()</text>
<text text-anchor="start" x="289.9998" y="-481.5" font-family="Helvetica,sans-Serif" font-size="10.00" fill="#000000">+ operator ItgType()</text>
<text text-anchor="start" x="289.9998" y="-470.5" font-family="Helvetica,sans-Serif" font-size="10.00" fill="#000000">+ runtimeInit()</text>
<text text-anchor="start" x="289.9998" y="-459.5" font-family="Helvetica,sans-Serif" font-size="10.00" fill="#000000">+ operator==()</text>
<text text-anchor="start" x="289.9998" y="-448.5" font-family="Helvetica,sans-Serif" font-size="10.00" fill="#000000">+ operator==()</text>
<text text-anchor="start" x="289.9998" y="-437.5" font-family="Helvetica,sans-Serif" font-size="10.00" fill="#000000">+ operator&lt;()</text>
<text text-anchor="start" x="289.9998" y="-426.5" font-family="Helvetica,sans-Serif" font-size="10.00" fill="#000000">+ operator!=()</text>
<text text-anchor="start" x="289.9998" y="-415.5" font-family="Helvetica,sans-Serif" font-size="10.00" fill="#000000">+ operator!=()</text>
<text text-anchor="start" x="289.9998" y="-404.5" font-family="Helvetica,sans-Serif" font-size="10.00" fill="#000000">+ as()</text>
<text text-anchor="start" x="289.9998" y="-393.5" font-family="Helvetica,sans-Serif" font-size="10.00" fill="#000000">+ print()</text>
</a>
</g>
</g>
<!-- Node4&#45;&gt;Node3 -->
<g id="edge2" class="edge">
<title>Node4&#45;&gt;Node3</title>
<path fill="none" stroke="#404040" d="M411.2317,-386.2835C423.8345,-357.4862 439.6211,-327.2881 458.4998,-302 465.8131,-292.2037 474.2323,-282.7179 483.148,-273.7331"/>
<polygon fill="none" stroke="#404040" points="483.2319,-273.6513 484.7391,-266.5994 491.8282,-265.2784 490.321,-272.3303 483.2319,-273.6513"/>
<text text-anchor="middle" x="491.4998" y="-332.5" font-family="Helvetica,sans-Serif" font-size="10.00" fill="#000000"> +description</text>
</g>
<!-- Node5 -->
<g id="node4" class="node">
<title>Node5</title>
<polygon fill="none" stroke="#bfbfbf" points="558.9998,-937.5 558.9998,-994.5 597.9998,-994.5 597.9998,-937.5 558.9998,-937.5"/>
<text text-anchor="middle" x="578.4998" y="-982.5" font-family="Helvetica,sans-Serif" font-size="10.00" fill="#000000">Type</text>
<polyline fill="none" stroke="#bfbfbf" points="558.9998,-975.5 597.9998,-975.5 "/>
<text text-anchor="middle" x="578.4998" y="-963.5" font-family="Helvetica,sans-Serif" font-size="10.00" fill="#000000"> </text>
<polyline fill="none" stroke="#bfbfbf" points="558.9998,-956.5 597.9998,-956.5 "/>
<text text-anchor="middle" x="578.4998" y="-944.5" font-family="Helvetica,sans-Serif" font-size="10.00" fill="#000000"> </text>
</g>
<!-- Node5&#45;&gt;Node4 -->
<g id="edge3" class="edge">
<title>Node5&#45;&gt;Node4</title>
<path fill="none" stroke="#404040" d="M598.1476,-957.0661C626.6713,-942.8666 678.437,-912.1635 699.4998,-868 740.0601,-782.9548 755.3948,-731.8523 699.4998,-656 663.8906,-607.6766 628.7486,-630.4995 570.4998,-616 532.2197,-606.4712 515.9731,-616.5789 477.9673,-598.6548"/>
<polygon fill="none" stroke="#404040" points="477.9029,-598.6218 470.7385,-599.4419 467.226,-593.144 474.3904,-592.324 477.9029,-598.6218"/>
<text text-anchor="middle" x="747.9998" y="-759.5" font-family="Helvetica,sans-Serif" font-size="10.00" fill="#000000"> +itg</text>
</g>
<!-- Node9 -->
<g id="node8" class="node">
<title>Node9</title>
<g id="a_node8"><a xlink:href="../../d9/db3/structo2_1_1header_1_1Descriptor.html" target="_top" xlink:title="{o2::header::Descriptor\l\&lt; N, PrinterPolicy \&gt;\n||+ Descriptor()\l+ Descriptor()\l+ Descriptor()\l+ operator=()\l+ operator ItgType()\l+ Descriptor()\l+ runtimeInit()\l+ operator==()\l+ operator\&lt;()\l+ operator!=()\l+ operator==()\l+ operator!=()\l+ as()\l+ print()\l}">
<polygon fill="none" stroke="#000000" points="318.9998,-656.5 318.9998,-867.5 443.9998,-867.5 443.9998,-656.5 318.9998,-656.5"/>
<text text-anchor="start" x="326.9998" y="-855.5" font-family="Helvetica,sans-Serif" font-size="10.00" fill="#000000">o2::header::Descriptor</text>
<text text-anchor="middle" x="381.4998" y="-844.5" font-family="Helvetica,sans-Serif" font-size="10.00" fill="#000000">&lt; N, PrinterPolicy &gt;</text>
<polyline fill="none" stroke="#000000" points="318.9998,-837.5 443.9998,-837.5 "/>
<text text-anchor="middle" x="381.4998" y="-825.5" font-family="Helvetica,sans-Serif" font-size="10.00" fill="#000000"> </text>
<polyline fill="none" stroke="#000000" points="318.9998,-818.5 443.9998,-818.5 "/>
<text text-anchor="start" x="326.9998" y="-806.5" font-family="Helvetica,sans-Serif" font-size="10.00" fill="#000000">+ Descriptor()</text>
<text text-anchor="start" x="326.9998" y="-795.5" font-family="Helvetica,sans-Serif" font-size="10.00" fill="#000000">+ Descriptor()</text>
<text text-anchor="start" x="326.9998" y="-784.5" font-family="Helvetica,sans-Serif" font-size="10.00" fill="#000000">+ Descriptor()</text>
<text text-anchor="start" x="326.9998" y="-773.5" font-family="Helvetica,sans-Serif" font-size="10.00" fill="#000000">+ operator=()</text>
<text text-anchor="start" x="326.9998" y="-762.5" font-family="Helvetica,sans-Serif" font-size="10.00" fill="#000000">+ operator ItgType()</text>
<text text-anchor="start" x="326.9998" y="-751.5" font-family="Helvetica,sans-Serif" font-size="10.00" fill="#000000">+ Descriptor()</text>
<text text-anchor="start" x="326.9998" y="-740.5" font-family="Helvetica,sans-Serif" font-size="10.00" fill="#000000">+ runtimeInit()</text>
<text text-anchor="start" x="326.9998" y="-729.5" font-family="Helvetica,sans-Serif" font-size="10.00" fill="#000000">+ operator==()</text>
<text text-anchor="start" x="326.9998" y="-718.5" font-family="Helvetica,sans-Serif" font-size="10.00" fill="#000000">+ operator&lt;()</text>
<text text-anchor="start" x="326.9998" y="-707.5" font-family="Helvetica,sans-Serif" font-size="10.00" fill="#000000">+ operator!=()</text>
<text text-anchor="start" x="326.9998" y="-696.5" font-family="Helvetica,sans-Serif" font-size="10.00" fill="#000000">+ operator==()</text>
<text text-anchor="start" x="326.9998" y="-685.5" font-family="Helvetica,sans-Serif" font-size="10.00" fill="#000000">+ operator!=()</text>
<text text-anchor="start" x="326.9998" y="-674.5" font-family="Helvetica,sans-Serif" font-size="10.00" fill="#000000">+ as()</text>
<text text-anchor="start" x="326.9998" y="-663.5" font-family="Helvetica,sans-Serif" font-size="10.00" fill="#000000">+ print()</text>
</a>
</g>
</g>
<!-- Node5&#45;&gt;Node9 -->
<g id="edge8" class="edge">
<title>Node5&#45;&gt;Node9</title>
<path fill="none" stroke="#404040" d="M558.9156,-952.4411C534.0256,-934.686 490.4599,-901.8218 458.4998,-868 456.381,-865.7578 454.2706,-863.4557 452.1737,-861.1063"/>
<polygon fill="none" stroke="#404040" points="452.0093,-860.916 445.0596,-858.9918 444.1629,-851.8366 451.1125,-853.7608 452.0093,-860.916"/>
<text text-anchor="middle" x="524.9998" y="-900" font-family="Helvetica,sans-Serif" font-size="10.00" fill="#000000"> +itg</text>
</g>
<!-- Node10 -->
<g id="node9" class="node">
<title>Node10</title>
<g id="a_node9"><a xlink:href="../../d9/db3/structo2_1_1header_1_1Descriptor.html" target="_top" xlink:title="{o2::header::Descriptor\l\&lt; gSizeSerializationMethodString \&gt;\n||+ Descriptor()\l+ Descriptor()\l+ Descriptor()\l+ Descriptor()\l+ operator=()\l+ operator ItgType()\l+ runtimeInit()\l+ operator==()\l+ operator==()\l+ operator\&lt;()\l+ operator!=()\l+ operator!=()\l+ as()\l+ print()\l}">
<polygon fill="none" stroke="#000000" points="72.9998,-386.5 72.9998,-597.5 263.9998,-597.5 263.9998,-386.5 72.9998,-386.5"/>
<text text-anchor="start" x="80.9998" y="-585.5" font-family="Helvetica,sans-Serif" font-size="10.00" fill="#000000">o2::header::Descriptor</text>
<text text-anchor="middle" x="168.4998" y="-574.5" font-family="Helvetica,sans-Serif" font-size="10.00" fill="#000000">&lt; gSizeSerializationMethodString &gt;</text>
<polyline fill="none" stroke="#000000" points="72.9998,-567.5 263.9998,-567.5 "/>
<text text-anchor="middle" x="168.4998" y="-555.5" font-family="Helvetica,sans-Serif" font-size="10.00" fill="#000000"> </text>
<polyline fill="none" stroke="#000000" points="72.9998,-548.5 263.9998,-548.5 "/>
<text text-anchor="start" x="80.9998" y="-536.5" font-family="Helvetica,sans-Serif" font-size="10.00" fill="#000000">+ Descriptor()</text>
<text text-anchor="start" x="80.9998" y="-525.5" font-family="Helvetica,sans-Serif" font-size="10.00" fill="#000000">+ Descriptor()</text>
<text text-anchor="start" x="80.9998" y="-514.5" font-family="Helvetica,sans-Serif" font-size="10.00" fill="#000000">+ Descriptor()</text>
<text text-anchor="start" x="80.9998" y="-503.5" font-family="Helvetica,sans-Serif" font-size="10.00" fill="#000000">+ Descriptor()</text>
<text text-anchor="start" x="80.9998" y="-492.5" font-family="Helvetica,sans-Serif" font-size="10.00" fill="#000000">+ operator=()</text>
<text text-anchor="start" x="80.9998" y="-481.5" font-family="Helvetica,sans-Serif" font-size="10.00" fill="#000000">+ operator ItgType()</text>
<text text-anchor="start" x="80.9998" y="-470.5" font-family="Helvetica,sans-Serif" font-size="10.00" fill="#000000">+ runtimeInit()</text>
<text text-anchor="start" x="80.9998" y="-459.5" font-family="Helvetica,sans-Serif" font-size="10.00" fill="#000000">+ operator==()</text>
<text text-anchor="start" x="80.9998" y="-448.5" font-family="Helvetica,sans-Serif" font-size="10.00" fill="#000000">+ operator==()</text>
<text text-anchor="start" x="80.9998" y="-437.5" font-family="Helvetica,sans-Serif" font-size="10.00" fill="#000000">+ operator&lt;()</text>
<text text-anchor="start" x="80.9998" y="-426.5" font-family="Helvetica,sans-Serif" font-size="10.00" fill="#000000">+ operator!=()</text>
<text text-anchor="start" x="80.9998" y="-415.5" font-family="Helvetica,sans-Serif" font-size="10.00" fill="#000000">+ operator!=()</text>
<text text-anchor="start" x="80.9998" y="-404.5" font-family="Helvetica,sans-Serif" font-size="10.00" fill="#000000">+ as()</text>
<text text-anchor="start" x="80.9998" y="-393.5" font-family="Helvetica,sans-Serif" font-size="10.00" fill="#000000">+ print()</text>
</a>
</g>
</g>
<!-- Node5&#45;&gt;Node10 -->
<g id="edge14" class="edge">
<title>Node5&#45;&gt;Node10</title>
<path fill="none" stroke="#404040" d="M577.3116,-937.2714C574.0404,-864.4461 563.9018,-676.8907 545.4998,-656 522.5551,-629.9523 502.9865,-647.1423 469.4998,-638 437.6304,-629.2993 430.7307,-623.2476 398.4998,-616 346.8666,-604.3894 325.7412,-621.1017 275.1973,-598.7209"/>
<polygon fill="none" stroke="#404040" points="275.1385,-598.6929 268,-599.7135 264.3124,-593.5166 271.4509,-592.496 275.1385,-598.6929"/>
<text text-anchor="middle" x="585.9998" y="-759.5" font-family="Helvetica,sans-Serif" font-size="10.00" fill="#000000"> +itg</text>
</g>
<!-- Node6 -->
<g id="node5" class="node">
<title>Node6</title>
<polygon fill="none" stroke="#bfbfbf" points="85.4998,-937.5 85.4998,-994.5 123.4998,-994.5 123.4998,-937.5 85.4998,-937.5"/>
<text text-anchor="middle" x="104.4998" y="-982.5" font-family="Helvetica,sans-Serif" font-size="10.00" fill="#000000">char</text>
<polyline fill="none" stroke="#bfbfbf" points="85.4998,-975.5 123.4998,-975.5 "/>
<text text-anchor="middle" x="104.4998" y="-963.5" font-family="Helvetica,sans-Serif" font-size="10.00" fill="#000000"> </text>
<polyline fill="none" stroke="#bfbfbf" points="85.4998,-956.5 123.4998,-956.5 "/>
<text text-anchor="middle" x="104.4998" y="-944.5" font-family="Helvetica,sans-Serif" font-size="10.00" fill="#000000"> </text>
</g>
<!-- Node6&#45;&gt;Node3 -->
<g id="edge12" class="edge">
<title>Node6&#45;&gt;Node3</title>
<path fill="none" stroke="#404040" d="M90.3686,-937.4792C47.0452,-845.5257 -72.947,-553.1515 63.4998,-386 117.1117,-320.3237 346.0245,-255.8723 479.9321,-222.8217"/>
<polygon fill="none" stroke="#404040" points="480.1344,-222.7722 485.0098,-217.459 491.7895,-219.9159 486.914,-225.2291 480.1344,-222.7722"/>
<text text-anchor="middle" x="37.4998" y="-624.5" font-family="Helvetica,sans-Serif" font-size="10.00" fill="#000000"> +magicString</text>
</g>
<!-- Node6&#45;&gt;Node4 -->
<g id="edge4" class="edge">
<title>Node6&#45;&gt;Node4</title>
<path fill="none" stroke="#404040" d="M123.8114,-948.6041C142.5346,-930.4802 170.0254,-900.2653 183.4998,-868 201.7704,-824.2497 175.0878,-690.603 207.4998,-656 238.3713,-623.0416 271.8061,-665.6636 307.4998,-638 318.1555,-629.7415 327.176,-619.3961 334.7989,-608.0464"/>
<polygon fill="none" stroke="#404040" points="334.8078,-608.032 334.5789,-600.8245 341.1439,-597.8411 341.3728,-605.0486 334.8078,-608.032"/>
<text text-anchor="middle" x="219.9998" y="-759.5" font-family="Helvetica,sans-Serif" font-size="10.00" fill="#000000"> +str</text>
</g>
<!-- Node6&#45;&gt;Node9 -->
<g id="edge9" class="edge">
<title>Node6&#45;&gt;Node9</title>
<path fill="none" stroke="#404040" d="M123.7425,-956.2148C153.8511,-940.9547 213.9886,-910.6787 265.4998,-886 282.7163,-877.7516 289.7458,-880.1147 304.4998,-868 306.3456,-866.4844 308.1695,-864.9148 309.9702,-863.2982"/>
<polygon fill="none" stroke="#404040" points="310.1131,-863.1611 311.6753,-856.1212 318.7745,-854.8556 317.2123,-861.8955 310.1131,-863.1611"/>
<text text-anchor="middle" x="277.9998" y="-900" font-family="Helvetica,sans-Serif" font-size="10.00" fill="#000000"> +str</text>
</g>
<!-- Node6&#45;&gt;Node10 -->
<g id="edge15" class="edge">
<title>Node6&#45;&gt;Node10</title>
<path fill="none" stroke="#404040" d="M97.8182,-937.3304C86.0766,-882.0761 65.0997,-757.3433 88.4998,-656 92.1129,-640.3519 97.4323,-624.47 103.6404,-609.0606"/>
<polygon fill="none" stroke="#404040" points="103.6657,-609.0001 102.2972,-601.9201 108.3063,-597.9337 109.6748,-605.0138 103.6657,-609.0001"/>
<text text-anchor="middle" x="100.9998" y="-759.5" font-family="Helvetica,sans-Serif" font-size="10.00" fill="#000000"> +str</text>
</g>
<!-- Node7 -->
<g id="node6" class="node">
<title>Node7</title>
<polygon fill="none" stroke="#bfbfbf" points="465.9998,-937.5 465.9998,-994.5 494.9998,-994.5 494.9998,-937.5 465.9998,-937.5"/>
<text text-anchor="middle" x="480.4998" y="-982.5" font-family="Helvetica,sans-Serif" font-size="10.00" fill="#000000">int</text>
<polyline fill="none" stroke="#bfbfbf" points="465.9998,-975.5 494.9998,-975.5 "/>
<text text-anchor="middle" x="480.4998" y="-963.5" font-family="Helvetica,sans-Serif" font-size="10.00" fill="#000000"> </text>
<polyline fill="none" stroke="#bfbfbf" points="465.9998,-956.5 494.9998,-956.5 "/>
<text text-anchor="middle" x="480.4998" y="-944.5" font-family="Helvetica,sans-Serif" font-size="10.00" fill="#000000"> </text>
</g>
<!-- Node7&#45;&gt;Node4 -->
<g id="edge5" class="edge">
<title>Node7&#45;&gt;Node4</title>
<path fill="none" stroke="#404040" d="M495.0252,-959.7411C522.3322,-947.0662 580.6274,-915.4728 603.4998,-868 644.3968,-783.1162 652.8328,-736.275 603.4998,-656 582.8941,-622.4702 560.5875,-631.7008 524.4998,-616 506.134,-608.0096 497.4156,-609.8876 477.6061,-598.6976"/>
<polygon fill="none" stroke="#404040" points="477.4819,-598.6208 470.2749,-598.8653 467.2774,-592.3067 474.4843,-592.0623 477.4819,-598.6208"/>
<text text-anchor="middle" x="666.4998" y="-770.5" font-family="Helvetica,sans-Serif" font-size="10.00" fill="#000000"> +arraySize</text>
<text text-anchor="middle" x="666.4998" y="-759.5" font-family="Helvetica,sans-Serif" font-size="10.00" fill="#000000">+size</text>
<text text-anchor="middle" x="666.4998" y="-748.5" font-family="Helvetica,sans-Serif" font-size="10.00" fill="#000000">+bitcount</text>
</g>
<!-- Node7&#45;&gt;Node9 -->
<g id="edge10" class="edge">
<title>Node7&#45;&gt;Node9</title>
<path fill="none" stroke="#404040" d="M465.7077,-960.5865C448.9763,-953.6498 422.2724,-939.9579 408.4998,-919 400.668,-907.0823 394.8958,-893.5963 390.6712,-879.6571"/>
<polygon fill="none" stroke="#404040" points="390.6146,-879.4481 385.1842,-874.7035 387.4753,-867.866 392.9056,-872.6106 390.6146,-879.4481"/>
<text text-anchor="middle" x="437.4998" y="-911" font-family="Helvetica,sans-Serif" font-size="10.00" fill="#000000"> +arraySize</text>
<text text-anchor="middle" x="437.4998" y="-900" font-family="Helvetica,sans-Serif" font-size="10.00" fill="#000000">+size</text>
<text text-anchor="middle" x="437.4998" y="-889" font-family="Helvetica,sans-Serif" font-size="10.00" fill="#000000">+bitcount</text>
</g>
<!-- Node7&#45;&gt;Node10 -->
<g id="edge16" class="edge">
<title>Node7&#45;&gt;Node10</title>
<path fill="none" stroke="#404040" d="M481.7507,-937.4336C484.1506,-869.1892 486.474,-699.1462 452.4998,-656 418.2416,-612.4932 387.3249,-632.6126 334.4998,-616 310.3357,-608.4008 299.711,-611.6636 274.9464,-598.8118"/>
<polygon fill="none" stroke="#404040" points="274.7191,-598.6834 267.5275,-599.2135 264.2722,-592.7789 271.4638,-592.2489 274.7191,-598.6834"/>
<text text-anchor="middle" x="512.4998" y="-770.5" font-family="Helvetica,sans-Serif" font-size="10.00" fill="#000000"> +arraySize</text>
<text text-anchor="middle" x="512.4998" y="-759.5" font-family="Helvetica,sans-Serif" font-size="10.00" fill="#000000">+size</text>
<text text-anchor="middle" x="512.4998" y="-748.5" font-family="Helvetica,sans-Serif" font-size="10.00" fill="#000000">+bitcount</text>
</g>
<!-- Node8 -->
<g id="node7" class="node">
<title>Node8</title>
<polygon fill="none" stroke="#bfbfbf" points="212.9998,-937.5 212.9998,-994.5 319.9998,-994.5 319.9998,-937.5 212.9998,-937.5"/>
<text text-anchor="middle" x="266.4998" y="-982.5" font-family="Helvetica,sans-Serif" font-size="10.00" fill="#000000">anonymous:+@72</text>
<polyline fill="none" stroke="#bfbfbf" points="212.9998,-975.5 319.9998,-975.5 "/>
<text text-anchor="middle" x="266.4998" y="-963.5" font-family="Helvetica,sans-Serif" font-size="10.00" fill="#000000"> </text>
<polyline fill="none" stroke="#bfbfbf" points="212.9998,-956.5 319.9998,-956.5 "/>
<text text-anchor="middle" x="266.4998" y="-944.5" font-family="Helvetica,sans-Serif" font-size="10.00" fill="#000000"> </text>
</g>
<!-- Node8&#45;&gt;Node4 -->
<g id="edge6" class="edge">
<title>Node8&#45;&gt;Node4</title>
<path fill="none" stroke="#404040" d="M257.2989,-937.1519C240.2704,-877.6715 211.1195,-739.957 275.4998,-656 292.4412,-633.907 316.1151,-657.9837 335.4998,-638 343.6344,-629.614 350.1191,-619.7277 355.2817,-609.1169"/>
<polygon fill="none" stroke="#404040" points="355.4059,-608.8316 354.134,-601.7336 360.1968,-597.8295 361.4687,-604.9275 355.4059,-608.8316"/>
<text text-anchor="middle" x="292.4998" y="-759.5" font-family="Helvetica,sans-Serif" font-size="10.00" fill="#000000"> +@72</text>
</g>
<!-- Node8&#45;&gt;Node9 -->
<g id="edge11" class="edge">
<title>Node8&#45;&gt;Node9</title>
<path fill="none" stroke="#404040" d="M282.7326,-937.2045C291.7654,-921.1809 303.67,-900.0632 316.0763,-878.0555"/>
<polygon fill="none" stroke="#404040" points="316.1061,-878.0026 315.5681,-870.8115 321.9991,-867.5491 322.5371,-874.7401 316.1061,-878.0026"/>
<text text-anchor="middle" x="327.4998" y="-900" font-family="Helvetica,sans-Serif" font-size="10.00" fill="#000000"> +@72</text>
</g>
<!-- Node8&#45;&gt;Node10 -->
<g id="edge17" class="edge">
<title>Node8&#45;&gt;Node10</title>
<path fill="none" stroke="#404040" d="M245.7256,-937.4943C232.3346,-920.7224 213.6924,-900.1045 193.4998,-886 176.1783,-873.901 161.2767,-885.5421 149.4998,-868 122.0303,-827.0833 133.5163,-703.9012 147.595,-609.5707"/>
<polygon fill="none" stroke="#404040" points="147.6061,-609.4975 144.5551,-602.9636 149.4129,-597.6343 152.4639,-604.1681 147.6061,-609.4975"/>
<text text-anchor="middle" x="166.4998" y="-759.5" font-family="Helvetica,sans-Serif" font-size="10.00" fill="#000000"> +@72</text>
</g>
<!-- Node9&#45;&gt;Node4 -->
<g id="edge7" class="edge">
<title>Node9&#45;&gt;Node4</title>
<path fill="none" stroke="#ffa500" d="M388.2377,-646.1336C388.2319,-635.9414 388.0113,-625.7853 387.4998,-616 387.189,-610.0555 386.795,-603.9573 386.3392,-597.8069"/>
<polygon fill="#ffa500" stroke="#ffa500" points="384.7367,-646.3041 388.1747,-656.3256 391.7365,-646.3474 384.7367,-646.3041"/>
<text text-anchor="start" x="388.4998" y="-630" font-family="Helvetica,sans-Serif" font-size="10.00" fill="#000000"> &lt; gSizeHeaderDescription</text>
<text text-anchor="middle" x="454.4998" y="-619" font-family="Helvetica,sans-Serif" font-size="10.00" fill="#000000">String &gt;</text>
</g>
<!-- Node9&#45;&gt;Node10 -->
<g id="edge18" class="edge">
<title>Node9&#45;&gt;Node10</title>
<path fill="none" stroke="#ffa500" d="M310.9703,-660.3371C308.8573,-658.8101 306.7003,-657.3609 304.4998,-656 263.1125,-630.4052 231.3251,-671.9882 196.4998,-638 185.1404,-626.9137 177.6229,-612.728 172.757,-597.5719"/>
<polygon fill="#ffa500" stroke="#ffa500" points="308.8814,-663.1471 318.9012,-666.5904 313.2156,-657.6503 308.8814,-663.1471"/>
<text text-anchor="start" x="196.4998" y="-630" font-family="Helvetica,sans-Serif" font-size="10.00" fill="#000000"> &lt; gSizeSerializationMethod</text>
<text text-anchor="middle" x="265.4998" y="-619" font-family="Helvetica,sans-Serif" font-size="10.00" fill="#000000">String &gt;</text>
</g>
<!-- Node10&#45;&gt;Node3 -->
<g id="edge13" class="edge">
<title>Node10&#45;&gt;Node3</title>
<path fill="none" stroke="#404040" d="M253.0476,-386.0324C280.3456,-356.2546 312.2168,-325.5966 345.4998,-302 386.5084,-272.9261 437.1202,-249.5396 480.6849,-232.5315"/>
<polygon fill="none" stroke="#404040" points="480.6858,-232.5313 484.8562,-226.6484 491.8905,-228.2354 487.7201,-234.1182 480.6858,-232.5313"/>
<text text-anchor="middle" x="381.4998" y="-332.5" font-family="Helvetica,sans-Serif" font-size="10.00" fill="#000000"> +serialization</text>
</g>
<!-- Node11 -->
<g id="node10" class="node">
<title>Node11</title>
<g id="a_node10"><a xlink:href="../../d2/d5f/classunsigned_01int.html" target="_top" xlink:title="{unsigned int\n||}">
<polygon fill="none" stroke="#000000" points="484.9998,-463.5 484.9998,-520.5 561.9998,-520.5 561.9998,-463.5 484.9998,-463.5"/>
<text text-anchor="middle" x="523.4998" y="-508.5" font-family="Helvetica,sans-Serif" font-size="10.00" fill="#000000">unsigned int</text>
<polyline fill="none" stroke="#000000" points="484.9998,-501.5 561.9998,-501.5 "/>
<text text-anchor="middle" x="523.4998" y="-489.5" font-family="Helvetica,sans-Serif" font-size="10.00" fill="#000000"> </text>
<polyline fill="none" stroke="#000000" points="484.9998,-482.5 561.9998,-482.5 "/>
<text text-anchor="middle" x="523.4998" y="-470.5" font-family="Helvetica,sans-Serif" font-size="10.00" fill="#000000"> </text>
</a>
</g>
</g>
<!-- Node11&#45;&gt;Node3 -->
<g id="edge19" class="edge">
<title>Node11&#45;&gt;Node3</title>
<path fill="none" stroke="#404040" d="M522.887,-463.2627C522.7032,-425.6911 524.4985,-358.0637 537.4998,-302 538.0033,-299.8285 538.5463,-297.6429 539.124,-295.4488"/>
<polygon fill="none" stroke="#404040" points="539.1958,-295.1996 537.0135,-288.3266 542.5185,-283.6688 544.7007,-290.5418 539.1958,-295.1996"/>
<text text-anchor="middle" x="574.4998" y="-332.5" font-family="Helvetica,sans-Serif" font-size="10.00" fill="#000000"> +sMagicString</text>
</g>
<!-- Node12 -->
<g id="node11" class="node">
<title>Node12</title>
<polygon fill="none" stroke="#bfbfbf" points="579.9998,-463.5 579.9998,-520.5 686.9998,-520.5 686.9998,-463.5 579.9998,-463.5"/>
<text text-anchor="middle" x="633.4998" y="-508.5" font-family="Helvetica,sans-Serif" font-size="10.00" fill="#000000">anonymous:+@74</text>
<polyline fill="none" stroke="#bfbfbf" points="579.9998,-501.5 686.9998,-501.5 "/>
<text text-anchor="middle" x="633.4998" y="-489.5" font-family="Helvetica,sans-Serif" font-size="10.00" fill="#000000"> </text>
<polyline fill="none" stroke="#bfbfbf" points="579.9998,-482.5 686.9998,-482.5 "/>
<text text-anchor="middle" x="633.4998" y="-470.5" font-family="Helvetica,sans-Serif" font-size="10.00" fill="#000000"> </text>
</g>
<!-- Node12&#45;&gt;Node3 -->
<g id="edge20" class="edge">
<title>Node12&#45;&gt;Node3</title>
<path fill="none" stroke="#404040" d="M631.9526,-463.3848C629.5273,-425.9451 623.7754,-358.4602 611.4998,-302 611.0308,-299.8431 610.5345,-297.6672 610.0144,-295.4786"/>
<polygon fill="none" stroke="#404040" points="609.9747,-295.3217 604.6228,-290.4888 607.0256,-283.6897 612.3775,-288.5227 609.9747,-295.3217"/>
<text text-anchor="middle" x="639.4998" y="-332.5" font-family="Helvetica,sans-Serif" font-size="10.00" fill="#000000"> +@74</text>
</g>
<!-- Node13 -->
<g id="node12" class="node">
<title>Node13</title>
<polygon fill="none" stroke="#bfbfbf" points="704.9998,-463.5 704.9998,-520.5 765.9998,-520.5 765.9998,-463.5 704.9998,-463.5"/>
<text text-anchor="middle" x="735.4998" y="-508.5" font-family="Helvetica,sans-Serif" font-size="10.00" fill="#000000">unsigned</text>
<polyline fill="none" stroke="#bfbfbf" points="704.9998,-501.5 765.9998,-501.5 "/>
<text text-anchor="middle" x="735.4998" y="-489.5" font-family="Helvetica,sans-Serif" font-size="10.00" fill="#000000"> </text>
<polyline fill="none" stroke="#bfbfbf" points="704.9998,-482.5 765.9998,-482.5 "/>
<text text-anchor="middle" x="735.4998" y="-470.5" font-family="Helvetica,sans-Serif" font-size="10.00" fill="#000000"> </text>
</g>
<!-- Node13&#45;&gt;Node3 -->
<g id="edge21" class="edge">
<title>Node13&#45;&gt;Node3</title>
<path fill="none" stroke="#404040" d="M725.3902,-463.142C709.1305,-417.3372 677.2966,-330.2798 660.4998,-302 658.8436,-299.2117 657.1173,-296.4172 655.3336,-293.6259"/>
<polygon fill="none" stroke="#404040" points="655.2828,-293.5491 648.6325,-290.761 648.6483,-283.5499 655.2986,-286.338 655.2828,-293.5491"/>
<text text-anchor="middle" x="733.9998" y="-360" font-family="Helvetica,sans-Serif" font-size="10.00" fill="#000000"> +headerVersion</text>
<text text-anchor="middle" x="733.9998" y="-349" font-family="Helvetica,sans-Serif" font-size="10.00" fill="#000000">+headerSize</text>
<text text-anchor="middle" x="733.9998" y="-338" font-family="Helvetica,sans-Serif" font-size="10.00" fill="#000000">+flagsNextHeader</text>
<text text-anchor="middle" x="733.9998" y="-327" font-family="Helvetica,sans-Serif" font-size="10.00" fill="#000000">+magicStringInt</text>
<text text-anchor="middle" x="733.9998" y="-316" font-family="Helvetica,sans-Serif" font-size="10.00" fill="#000000">+flagsUnused</text>
<text text-anchor="middle" x="733.9998" y="-305" font-family="Helvetica,sans-Serif" font-size="10.00" fill="#000000">+flags</text>
</g>
<!-- Node14 -->
<g id="node13" class="node">
<title>Node14</title>
<polygon fill="none" stroke="#bfbfbf" points="783.9998,-463.5 783.9998,-520.5 826.9998,-520.5 826.9998,-463.5 783.9998,-463.5"/>
<text text-anchor="middle" x="805.4998" y="-508.5" font-family="Helvetica,sans-Serif" font-size="10.00" fill="#000000">const</text>
<polyline fill="none" stroke="#bfbfbf" points="783.9998,-501.5 826.9998,-501.5 "/>
<text text-anchor="middle" x="805.4998" y="-489.5" font-family="Helvetica,sans-Serif" font-size="10.00" fill="#000000"> </text>
<polyline fill="none" stroke="#bfbfbf" points="783.9998,-482.5 826.9998,-482.5 "/>
<text text-anchor="middle" x="805.4998" y="-470.5" font-family="Helvetica,sans-Serif" font-size="10.00" fill="#000000"> </text>
</g>
<!-- Node14&#45;&gt;Node3 -->
<g id="edge22" class="edge">
<title>Node14&#45;&gt;Node3</title>
<path fill="none" stroke="#404040" d="M806.2298,-463.3104C806.7935,-415.9859 804.9739,-324.5391 783.4998,-302 752.078,-269.0199 723.3558,-299.7889 676.5462,-283.8573"/>
<polygon fill="none" stroke="#404040" points="676.371,-283.7855 669.3019,-285.2096 665.2684,-279.232 672.3375,-277.8079 676.371,-283.7855"/>
<text text-anchor="middle" x="856.9998" y="-343.5" font-family="Helvetica,sans-Serif" font-size="10.00" fill="#000000"> +sHeaderType</text>
<text text-anchor="middle" x="856.9998" y="-332.5" font-family="Helvetica,sans-Serif" font-size="10.00" fill="#000000">+sSerializationMethod</text>
<text text-anchor="middle" x="856.9998" y="-321.5" font-family="Helvetica,sans-Serif" font-size="10.00" fill="#000000">+sVersion</text>
</g>
<!-- Node15 -->
<g id="node14" class="node">
<title>Node15</title>
<polygon fill="none" stroke="#bfbfbf" points="885.9998,-463.5 885.9998,-520.5 992.9998,-520.5 992.9998,-463.5 885.9998,-463.5"/>
<text text-anchor="middle" x="939.4998" y="-508.5" font-family="Helvetica,sans-Serif" font-size="10.00" fill="#000000">anonymous:+@76</text>
<polyline fill="none" stroke="#bfbfbf" points="885.9998,-501.5 992.9998,-501.5 "/>
<text text-anchor="middle" x="939.4998" y="-489.5" font-family="Helvetica,sans-Serif" font-size="10.00" fill="#000000"> </text>
<polyline fill="none" stroke="#bfbfbf" points="885.9998,-482.5 992.9998,-482.5 "/>
<text text-anchor="middle" x="939.4998" y="-470.5" font-family="Helvetica,sans-Serif" font-size="10.00" fill="#000000"> </text>
</g>
<!-- Node15&#45;&gt;Node3 -->
<g id="edge23" class="edge">
<title>Node15&#45;&gt;Node3</title>
<path fill="none" stroke="#404040" d="M945.9344,-463.326C953.484,-421.3147 959.9971,-343.5318 916.4998,-302 879.8586,-267.0145 742.3811,-300.2592 676.8339,-283.4986"/>
<polygon fill="none" stroke="#404040" points="676.4917,-283.385 669.5368,-285.2903 665.1032,-279.6032 672.058,-277.6979 676.4917,-283.385"/>
<text text-anchor="middle" x="964.4998" y="-332.5" font-family="Helvetica,sans-Serif" font-size="10.00" fill="#000000"> +@76</text>
</g>
<!-- Node16 -->
<g id="node15" class="node">
<title>Node16</title>
<polygon fill="none" stroke="#bfbfbf" points="683.4998,-171.5 683.4998,-228.5 721.4998,-228.5 721.4998,-171.5 683.4998,-171.5"/>
<text text-anchor="middle" x="702.4998" y="-216.5" font-family="Helvetica,sans-Serif" font-size="10.00" fill="#000000">bool</text>
<polyline fill="none" stroke="#bfbfbf" points="683.4998,-209.5 721.4998,-209.5 "/>
<text text-anchor="middle" x="702.4998" y="-197.5" font-family="Helvetica,sans-Serif" font-size="10.00" fill="#000000"> </text>
<polyline fill="none" stroke="#bfbfbf" points="683.4998,-190.5 721.4998,-190.5 "/>
<text text-anchor="middle" x="702.4998" y="-178.5" font-family="Helvetica,sans-Serif" font-size="10.00" fill="#000000"> </text>
</g>
<!-- Node16&#45;&gt;Node2 -->
<g id="edge24" class="edge">
<title>Node16&#45;&gt;Node2</title>
<path fill="none" stroke="#404040" d="M702.4998,-171.3784C702.4998,-143.6352 702.4998,-101.2695 702.4998,-69.9596"/>
<polygon fill="none" stroke="#404040" points="702.4999,-69.7149 698.4998,-63.715 702.4998,-57.7149 706.4998,-63.7149 702.4999,-69.7149"/>
<text text-anchor="middle" x="741.9998" y="-84.5" font-family="Helvetica,sans-Serif" font-size="10.00" fill="#000000"> +mHasPayload</text>
</g>
<!-- Node17 -->
<g id="node16" class="node">
<title>Node17</title>
<polygon fill="none" stroke="#bfbfbf" points="782.4998,-171.5 782.4998,-228.5 826.4998,-228.5 826.4998,-171.5 782.4998,-171.5"/>
<text text-anchor="middle" x="804.4998" y="-216.5" font-family="Helvetica,sans-Serif" font-size="10.00" fill="#000000">static</text>
<polyline fill="none" stroke="#bfbfbf" points="782.4998,-209.5 826.4998,-209.5 "/>
<text text-anchor="middle" x="804.4998" y="-197.5" font-family="Helvetica,sans-Serif" font-size="10.00" fill="#000000"> </text>
<polyline fill="none" stroke="#bfbfbf" points="782.4998,-190.5 826.4998,-190.5 "/>
<text text-anchor="middle" x="804.4998" y="-178.5" font-family="Helvetica,sans-Serif" font-size="10.00" fill="#000000"> </text>
</g>
<!-- Node17&#45;&gt;Node2 -->
<g id="edge25" class="edge">
<title>Node17&#45;&gt;Node2</title>
<path fill="none" stroke="#404040" d="M805.9664,-171.354C805.9314,-144.4356 802.0968,-104.1826 782.4998,-76 779.9104,-72.2762 776.9229,-68.8031 773.6561,-65.5704"/>
<polygon fill="none" stroke="#404040" points="773.5,-65.4348 766.3469,-64.522 764.4383,-57.568 771.5914,-58.4809 773.5,-65.4348"/>
<text text-anchor="middle" x="830.9998" y="-90" font-family="Helvetica,sans-Serif" font-size="10.00" fill="#000000"> +sHeaderType</text>
<text text-anchor="middle" x="830.9998" y="-79" font-family="Helvetica,sans-Serif" font-size="10.00" fill="#000000">+sVersion</text>
</g>
</g>
</svg>
        <g id="navigator" transform="translate(0 0)" fill="#404254">
                <rect fill="#f2f5e9" fill-opacity="0.5" stroke="#606060" stroke-width=".5" x="0" y="0" width="60" height="60"/>
                <use id="zoomplus" xlink:href="#zoomPlus" x="17" y="9" onmousedown="handleZoom(evt,'in')"/>
                <use id="zoomminus" xlink:href="#zoomMin" x="42" y="9" onmousedown="handleZoom(evt,'out')"/>
                <use id="reset" xlink:href="#resetDef" x="30" y="36" onmousedown="handleReset()"/>
                <g id="arrowUp" xlink:href="#dirArrow" transform="translate(30 24)" onmousedown="handlePan(0,-1)">
                  <use xlink:href="#rim" fill="#404040">
                        <set attributeName="fill" to="#808080" begin="arrowUp.mouseover" end="arrowUp.mouseout"/>
                  </use>
                  <path fill="none" stroke="white" stroke-width="1.5" d="M0,-3.0v7 M-2.5,-0.5L0,-3.0L2.5,-0.5"/>
                </g>
                <g id="arrowRight" xlink:href="#dirArrow" transform="rotate(90) translate(36 -43)" onmousedown="handlePan(1,0)">
                  <use xlink:href="#rim" fill="#404040">
                        <set attributeName="fill" to="#808080" begin="arrowRight.mouseover" end="arrowRight.mouseout"/>
                  </use>
                  <path fill="none" stroke="white" stroke-width="1.5" d="M0,-3.0v7 M-2.5,-0.5L0,-3.0L2.5,-0.5"/>
                </g>
                <g id="arrowDown" xlink:href="#dirArrow" transform="rotate(180) translate(-30 -48)" onmousedown="handlePan(0,1)">
                  <use xlink:href="#rim" fill="#404040">
                        <set attributeName="fill" to="#808080" begin="arrowDown.mouseover" end="arrowDown.mouseout"/>
                  </use>
                  <path fill="none" stroke="white" stroke-width="1.5" d="M0,-3.0v7 M-2.5,-0.5L0,-3.0L2.5,-0.5"/>
                </g>
                <g id="arrowLeft" xlink:href="#dirArrow" transform="rotate(270) translate(-36 17)" onmousedown="handlePan(-1,0)">
                  <use xlink:href="#rim" fill="#404040">
                        <set attributeName="fill" to="#808080" begin="arrowLeft.mouseover" end="arrowLeft.mouseout"/>
                  </use>
                  <path fill="none" stroke="white" stroke-width="1.5" d="M0,-3.0v7 M-2.5,-0.5L0,-3.0L2.5,-0.5"/>
                </g>
        </g>
        <svg viewBox="0 0 15 15" width="100%" height="30px" preserveAspectRatio="xMaxYMin meet">
         <g id="arrow_out" transform="scale(0.3 0.3)">
          <a xlink:href="structo2_1_1cpv_1_1CPVBlockHeader__coll__graph_org.svg" target="_base">
           <rect id="button" ry="5" rx="5" y="6" x="6" height="38" width="38"
                fill="#f2f5e9" fill-opacity="0.5" stroke="#606060" stroke-width="1.0"/>
           <path id="arrow"
             d="M 11.500037,31.436501 C 11.940474,20.09759 22.043105,11.32322 32.158766,21.979434 L 37.068811,17.246167 C 37.068811,17.246167 37.088388,32 37.088388,32 L 22.160133,31.978069 C 22.160133,31.978069 26.997745,27.140456 26.997745,27.140456 C 18.528582,18.264221 13.291696,25.230495 11.500037,31.436501 z"
             style="fill:#404040;"/>
          </a>
         </g>
        </svg>
</svg>
