<?xml version="1.0" encoding="UTF-8" standalone="no"?>
<!DOCTYPE svg PUBLIC "-//W3C//DTD SVG 1.1//EN"
 "http://www.w3.org/Graphics/SVG/1.1/DTD/svg11.dtd">
<!-- Generated by graphviz version 2.40.1 (20161225.0304)
 -->
<!-- Title: o2::mid::LocalBoardRO Pages: 1 -->
<svg width="244pt" height="204pt"
 viewBox="0.00 0.00 244.00 204.00" xmlns="http://www.w3.org/2000/svg" xmlns:xlink="http://www.w3.org/1999/xlink">
<g id="graph0" class="graph" transform="scale(1 1) rotate(0) translate(4 200)">
<title>o2::mid::LocalBoardRO</title>
<!-- Node1 -->
<g id="node1" class="node">
<title>Node1</title>
<polygon fill="#bfbfbf" stroke="#000000" points="47,-.5 47,-57.5 175,-57.5 175,-.5 47,-.5"/>
<text text-anchor="middle" x="111" y="-45.5" font-family="Helvetica,sans-Serif" font-size="10.00" fill="#000000">o2::mid::LocalBoardRO</text>
<polyline fill="none" stroke="#000000" points="47,-38.5 175,-38.5 "/>
<text text-anchor="middle" x="111" y="-26.5" font-family="Helvetica,sans-Serif" font-size="10.00" fill="#000000"> </text>
<polyline fill="none" stroke="#000000" points="47,-19.5 175,-19.5 "/>
<text text-anchor="middle" x="111" y="-7.5" font-family="Helvetica,sans-Serif" font-size="10.00" fill="#000000"> </text>
</g>
<!-- Node2 -->
<g id="node2" class="node">
<title>Node2</title>
<polygon fill="none" stroke="#bfbfbf" points="0,-138.5 0,-195.5 116,-195.5 116,-138.5 0,-138.5"/>
<text text-anchor="middle" x="58" y="-183.5" font-family="Helvetica,sans-Serif" font-size="10.00" fill="#000000">array&lt; uint16_t, 4 &gt;</text>
<polyline fill="none" stroke="#bfbfbf" points="0,-176.5 116,-176.5 "/>
<text text-anchor="middle" x="58" y="-164.5" font-family="Helvetica,sans-Serif" font-size="10.00" fill="#000000"> </text>
<polyline fill="none" stroke="#bfbfbf" points="0,-157.5 116,-157.5 "/>
<text text-anchor="middle" x="58" y="-145.5" font-family="Helvetica,sans-Serif" font-size="10.00" fill="#000000"> </text>
</g>
<!-- Node2&#45;&gt;Node1 -->
<g id="edge1" class="edge">
<title>Node2&#45;&gt;Node1</title>
<path fill="none" stroke="#404040" d="M57.5737,-138.3688C58.2923,-119.84 61.1452,-95.6059 70,-76 71.2674,-73.1937 72.7592,-70.4309 74.4099,-67.7366"/>
<polygon fill="none" stroke="#404040" points="74.5334,-67.5604 74.7048,-60.3513 81.4253,-57.7368 81.2539,-64.9459 74.5334,-67.5604"/>
<text text-anchor="middle" x="106.5" y="-101" font-family="Helvetica,sans-Serif" font-size="10.00" fill="#000000"> +patternsNBP</text>
<text text-anchor="middle" x="106.5" y="-90" font-family="Helvetica,sans-Serif" font-size="10.00" fill="#000000">+patternsBP</text>
</g>
<!-- Node3 -->
<g id="node3" class="node">
<title>Node3</title>
<polygon fill="none" stroke="#bfbfbf" points="134.5,-138.5 134.5,-195.5 195.5,-195.5 195.5,-138.5 134.5,-138.5"/>
<text text-anchor="middle" x="165" y="-183.5" font-family="Helvetica,sans-Serif" font-size="10.00" fill="#000000">unsigned</text>
<polyline fill="none" stroke="#bfbfbf" points="134.5,-176.5 195.5,-176.5 "/>
<text text-anchor="middle" x="165" y="-164.5" font-family="Helvetica,sans-Serif" font-size="10.00" fill="#000000"> </text>
<polyline fill="none" stroke="#bfbfbf" points="134.5,-157.5 195.5,-157.5 "/>
<text text-anchor="middle" x="165" y="-145.5" font-family="Helvetica,sans-Serif" font-size="10.00" fill="#000000"> </text>
</g>
<!-- Node3&#45;&gt;Node1 -->
<g id="edge2" class="edge">
<title>Node3&#45;&gt;Node1</title>
<path fill="none" stroke="#404040" d="M160.7897,-138.2618C157.4447,-119.9089 151.8309,-95.9094 143,-76 141.8349,-73.3733 140.521,-70.7362 139.1073,-68.1252"/>
<polygon fill="none" stroke="#404040" points="138.9977,-67.9411 132.4911,-64.8324 132.8582,-57.6306 139.3648,-60.7394 138.9977,-67.9411"/>
<text text-anchor="middle" x="196" y="-112" font-family="Helvetica,sans-Serif" font-size="10.00" fill="#000000"> +boardId</text>
<text text-anchor="middle" x="196" y="-101" font-family="Helvetica,sans-Serif" font-size="10.00" fill="#000000">+firedChambers</text>
<text text-anchor="middle" x="196" y="-90" font-family="Helvetica,sans-Serif" font-size="10.00" fill="#000000">+triggerWord</text>
<text text-anchor="middle" x="196" y="-79" font-family="Helvetica,sans-Serif" font-size="10.00" fill="#000000">+statusWord</text>
</g>
</g>
</svg>
