<?xml version="1.0" encoding="UTF-8" standalone="no"?>
<!DOCTYPE svg PUBLIC "-//W3C//DTD SVG 1.1//EN"
 "http://www.w3.org/Graphics/SVG/1.1/DTD/svg11.dtd">
<!-- Generated by graphviz version 2.40.1 (20161225.0304)
 -->
<!-- Title: o2::ctf::Metadata Pages: 1 -->
<svg width="430pt" height="204pt"
 viewBox="0.00 0.00 430.00 204.00" xmlns="http://www.w3.org/2000/svg" xmlns:xlink="http://www.w3.org/1999/xlink">
<g id="graph0" class="graph" transform="scale(1 1) rotate(0) translate(4 200)">
<title>o2::ctf::Metadata</title>
<!-- Node1 -->
<g id="node1" class="node">
<title>Node1</title>
<polygon fill="#bfbfbf" stroke="#000000" points="150.5,-.5 150.5,-68.5 249.5,-68.5 249.5,-.5 150.5,-.5"/>
<text text-anchor="middle" x="200" y="-56.5" font-family="Helvetica,sans-Serif" font-size="10.00" fill="#000000">o2::ctf::Metadata</text>
<polyline fill="none" stroke="#000000" points="150.5,-49.5 249.5,-49.5 "/>
<text text-anchor="middle" x="200" y="-37.5" font-family="Helvetica,sans-Serif" font-size="10.00" fill="#000000"> </text>
<polyline fill="none" stroke="#000000" points="150.5,-30.5 249.5,-30.5 "/>
<text text-anchor="start" x="158.5" y="-18.5" font-family="Helvetica,sans-Serif" font-size="10.00" fill="#000000">+ clear()</text>
<text text-anchor="start" x="158.5" y="-7.5" font-family="Helvetica,sans-Serif" font-size="10.00" fill="#000000">+ ClassDefNV()</text>
</g>
<!-- Node2 -->
<g id="node2" class="node">
<title>Node2</title>
<polygon fill="none" stroke="#bfbfbf" points="0,-138.5 0,-195.5 50,-195.5 50,-138.5 0,-138.5"/>
<text text-anchor="middle" x="25" y="-183.5" font-family="Helvetica,sans-Serif" font-size="10.00" fill="#000000">int32_t</text>
<polyline fill="none" stroke="#bfbfbf" points="0,-176.5 50,-176.5 "/>
<text text-anchor="middle" x="25" y="-164.5" font-family="Helvetica,sans-Serif" font-size="10.00" fill="#000000"> </text>
<polyline fill="none" stroke="#bfbfbf" points="0,-157.5 50,-157.5 "/>
<text text-anchor="middle" x="25" y="-145.5" font-family="Helvetica,sans-Serif" font-size="10.00" fill="#000000"> </text>
</g>
<!-- Node2&#45;&gt;Node1 -->
<g id="edge1" class="edge">
<title>Node2&#45;&gt;Node1</title>
<path fill="none" stroke="#404040" d="M31.1793,-138.1749C36.1388,-121.2864 44.707,-100.658 59,-87 80.7149,-66.2499 111.3687,-53.5485 138.5506,-45.8516"/>
<polygon fill="none" stroke="#404040" points="138.743,-45.8012 143.5304,-40.4085 150.3496,-42.7535 145.5622,-48.1462 138.743,-45.8012"/>
<text text-anchor="middle" x="74.5" y="-106.5" font-family="Helvetica,sans-Serif" font-size="10.00" fill="#000000"> +min</text>
<text text-anchor="middle" x="74.5" y="-95.5" font-family="Helvetica,sans-Serif" font-size="10.00" fill="#000000">+max</text>
</g>
<!-- Node3 -->
<g id="node3" class="node">
<title>Node3</title>
<polygon fill="none" stroke="#bfbfbf" points="68.5,-138.5 68.5,-195.5 113.5,-195.5 113.5,-138.5 68.5,-138.5"/>
<text text-anchor="middle" x="91" y="-183.5" font-family="Helvetica,sans-Serif" font-size="10.00" fill="#000000">size_t</text>
<polyline fill="none" stroke="#bfbfbf" points="68.5,-176.5 113.5,-176.5 "/>
<text text-anchor="middle" x="91" y="-164.5" font-family="Helvetica,sans-Serif" font-size="10.00" fill="#000000"> </text>
<polyline fill="none" stroke="#bfbfbf" points="68.5,-157.5 113.5,-157.5 "/>
<text text-anchor="middle" x="91" y="-145.5" font-family="Helvetica,sans-Serif" font-size="10.00" fill="#000000"> </text>
</g>
<!-- Node3&#45;&gt;Node1 -->
<g id="edge2" class="edge">
<title>Node3&#45;&gt;Node1</title>
<path fill="none" stroke="#404040" d="M91.4241,-138.3898C92.9645,-121.9898 97.1968,-101.7917 108,-87 116.2212,-75.7436 127.6392,-66.5505 139.6403,-59.1856"/>
<polygon fill="none" stroke="#404040" points="139.8238,-59.0819 143.0795,-52.6476 150.2711,-53.1781 147.0154,-59.6124 139.8238,-59.0819"/>
<text text-anchor="middle" x="151" y="-106.5" font-family="Helvetica,sans-Serif" font-size="10.00" fill="#000000"> +nLiterals</text>
<text text-anchor="middle" x="151" y="-95.5" font-family="Helvetica,sans-Serif" font-size="10.00" fill="#000000">+messageLength</text>
</g>
<!-- Node4 -->
<g id="node4" class="node">
<title>Node4</title>
<polygon fill="none" stroke="#bfbfbf" points="167.5,-138.5 167.5,-195.5 226.5,-195.5 226.5,-138.5 167.5,-138.5"/>
<text text-anchor="middle" x="197" y="-183.5" font-family="Helvetica,sans-Serif" font-size="10.00" fill="#000000">OptStore</text>
<polyline fill="none" stroke="#bfbfbf" points="167.5,-176.5 226.5,-176.5 "/>
<text text-anchor="middle" x="197" y="-164.5" font-family="Helvetica,sans-Serif" font-size="10.00" fill="#000000"> </text>
<polyline fill="none" stroke="#bfbfbf" points="167.5,-157.5 226.5,-157.5 "/>
<text text-anchor="middle" x="197" y="-145.5" font-family="Helvetica,sans-Serif" font-size="10.00" fill="#000000"> </text>
</g>
<!-- Node4&#45;&gt;Node1 -->
<g id="edge3" class="edge">
<title>Node4&#45;&gt;Node1</title>
<path fill="none" stroke="#404040" d="M197.651,-138.2495C198.0298,-121.5167 198.5164,-100.0253 198.9484,-80.9467"/>
<polygon fill="none" stroke="#404040" points="198.9509,-80.829 195.0878,-74.74 199.2227,-68.8321 203.0858,-74.9211 198.9509,-80.829"/>
<text text-anchor="middle" x="212" y="-101" font-family="Helvetica,sans-Serif" font-size="10.00" fill="#000000"> +opt</text>
</g>
<!-- Node5 -->
<g id="node5" class="node">
<title>Node5</title>
<polygon fill="none" stroke="#bfbfbf" points="244.5,-138.5 244.5,-195.5 273.5,-195.5 273.5,-138.5 244.5,-138.5"/>
<text text-anchor="middle" x="259" y="-183.5" font-family="Helvetica,sans-Serif" font-size="10.00" fill="#000000">int</text>
<polyline fill="none" stroke="#bfbfbf" points="244.5,-176.5 273.5,-176.5 "/>
<text text-anchor="middle" x="259" y="-164.5" font-family="Helvetica,sans-Serif" font-size="10.00" fill="#000000"> </text>
<polyline fill="none" stroke="#bfbfbf" points="244.5,-157.5 273.5,-157.5 "/>
<text text-anchor="middle" x="259" y="-145.5" font-family="Helvetica,sans-Serif" font-size="10.00" fill="#000000"> </text>
</g>
<!-- Node5&#45;&gt;Node1 -->
<g id="edge4" class="edge">
<title>Node5&#45;&gt;Node1</title>
<path fill="none" stroke="#404040" d="M249.9574,-138.3856C244.7385,-122.9138 237.6941,-103.6247 230,-87 228.8095,-84.4277 227.5365,-81.8141 226.2115,-79.1963"/>
<polygon fill="none" stroke="#404040" points="226.167,-79.1124 219.824,-75.6822 220.5506,-68.5078 226.8937,-71.938 226.167,-79.1124"/>
<text text-anchor="middle" x="281" y="-112" font-family="Helvetica,sans-Serif" font-size="10.00" fill="#000000"> +nDataWords</text>
<text text-anchor="middle" x="281" y="-101" font-family="Helvetica,sans-Serif" font-size="10.00" fill="#000000">+nDictWords</text>
<text text-anchor="middle" x="281" y="-90" font-family="Helvetica,sans-Serif" font-size="10.00" fill="#000000">+nLiteralWords</text>
</g>
<!-- Node6 -->
<g id="node6" class="node">
<title>Node6</title>
<polygon fill="none" stroke="#bfbfbf" points="324.5,-138.5 324.5,-195.5 385.5,-195.5 385.5,-138.5 324.5,-138.5"/>
<text text-anchor="middle" x="355" y="-183.5" font-family="Helvetica,sans-Serif" font-size="10.00" fill="#000000">unsigned</text>
<polyline fill="none" stroke="#bfbfbf" points="324.5,-176.5 385.5,-176.5 "/>
<text text-anchor="middle" x="355" y="-164.5" font-family="Helvetica,sans-Serif" font-size="10.00" fill="#000000"> </text>
<polyline fill="none" stroke="#bfbfbf" points="324.5,-157.5 385.5,-157.5 "/>
<text text-anchor="middle" x="355" y="-145.5" font-family="Helvetica,sans-Serif" font-size="10.00" fill="#000000"> </text>
</g>
<!-- Node6&#45;&gt;Node1 -->
<g id="edge5" class="edge">
<title>Node6&#45;&gt;Node1</title>
<path fill="none" stroke="#404040" d="M349.3591,-138.4298C344.7552,-121.6343 336.6968,-101.0143 323,-87 306.2175,-69.8285 282.9222,-57.963 261.1147,-49.9189"/>
<polygon fill="none" stroke="#404040" points="260.8958,-49.8437 253.9214,-51.6764 249.5473,-45.9434 256.5216,-44.1107 260.8958,-49.8437"/>
<text text-anchor="middle" x="382" y="-112" font-family="Helvetica,sans-Serif" font-size="10.00" fill="#000000"> +coderType</text>
<text text-anchor="middle" x="382" y="-101" font-family="Helvetica,sans-Serif" font-size="10.00" fill="#000000">+streamSize</text>
<text text-anchor="middle" x="382" y="-90" font-family="Helvetica,sans-Serif" font-size="10.00" fill="#000000">+probabilityBits</text>
</g>
</g>
</svg>
