<?xml version="1.0" encoding="UTF-8" standalone="no"?>
<!DOCTYPE svg PUBLIC "-//W3C//DTD SVG 1.1//EN"
 "http://www.w3.org/Graphics/SVG/1.1/DTD/svg11.dtd">
<!-- Generated by graphviz version 2.40.1 (20161225.0304)
 -->
<!-- Title: o2::zdc::OrbitRecData Pages: 1 -->
<svg width="639pt" height="661pt"
 viewBox="0.00 0.00 639.00 661.00" xmlns="http://www.w3.org/2000/svg" xmlns:xlink="http://www.w3.org/1999/xlink">
<g id="graph0" class="graph" transform="scale(1 1) rotate(0) translate(4 657)">
<title>o2::zdc::OrbitRecData</title>
<!-- Node1 -->
<g id="node1" class="node">
<title>Node1</title>
<polygon fill="#bfbfbf" stroke="#000000" points="249.5,-.5 249.5,-68.5 371.5,-68.5 371.5,-.5 249.5,-.5"/>
<text text-anchor="middle" x="310.5" y="-56.5" font-family="Helvetica,sans-Serif" font-size="10.00" fill="#000000">o2::zdc::OrbitRecData</text>
<polyline fill="none" stroke="#000000" points="249.5,-49.5 371.5,-49.5 "/>
<text text-anchor="middle" x="310.5" y="-37.5" font-family="Helvetica,sans-Serif" font-size="10.00" fill="#000000"> </text>
<polyline fill="none" stroke="#000000" points="249.5,-30.5 371.5,-30.5 "/>
<text text-anchor="start" x="257.5" y="-18.5" font-family="Helvetica,sans-Serif" font-size="10.00" fill="#000000">+ print()</text>
<text text-anchor="start" x="257.5" y="-7.5" font-family="Helvetica,sans-Serif" font-size="10.00" fill="#000000">+ ClassDefNV()</text>
</g>
<!-- Node2 -->
<g id="node2" class="node">
<title>Node2</title>
<polygon fill="none" stroke="#bfbfbf" points="0,-298 0,-355 163,-355 163,-298 0,-298"/>
<text text-anchor="middle" x="81.5" y="-343" font-family="Helvetica,sans-Serif" font-size="10.00" fill="#000000">array&lt; uint16_t, NChannels &gt;</text>
<polyline fill="none" stroke="#bfbfbf" points="0,-336 163,-336 "/>
<text text-anchor="middle" x="81.5" y="-324" font-family="Helvetica,sans-Serif" font-size="10.00" fill="#000000"> </text>
<polyline fill="none" stroke="#bfbfbf" points="0,-317 163,-317 "/>
<text text-anchor="middle" x="81.5" y="-305" font-family="Helvetica,sans-Serif" font-size="10.00" fill="#000000"> </text>
</g>
<!-- Node2&#45;&gt;Node1 -->
<g id="edge1" class="edge">
<title>Node2&#45;&gt;Node1</title>
<path fill="none" stroke="#404040" d="M87.6383,-297.8669C98.2261,-254.2302 123.5483,-170.4241 171.5,-116 189.8625,-95.159 214.8915,-78.2242 238.6533,-65.3008"/>
<polygon fill="none" stroke="#404040" points="238.8225,-65.2123 242.2823,-58.8854 249.4533,-59.6457 245.9934,-65.9726 238.8225,-65.2123"/>
<text text-anchor="middle" x="224.5" y="-90" font-family="Helvetica,sans-Serif" font-size="10.00" fill="#000000"> +scalers</text>
</g>
<!-- Node3 -->
<g id="node3" class="node">
<title>Node3</title>
<polygon fill="none" stroke="#bfbfbf" points="181,-292.5 181,-360.5 318,-360.5 318,-292.5 181,-292.5"/>
<text text-anchor="start" x="189" y="-348.5" font-family="Helvetica,sans-Serif" font-size="10.00" fill="#000000">array&lt; uint16_t, NScaler</text>
<text text-anchor="middle" x="249.5" y="-337.5" font-family="Helvetica,sans-Serif" font-size="10.00" fill="#000000">Combination &gt;</text>
<polyline fill="none" stroke="#bfbfbf" points="181,-330.5 318,-330.5 "/>
<text text-anchor="middle" x="249.5" y="-318.5" font-family="Helvetica,sans-Serif" font-size="10.00" fill="#000000"> </text>
<polyline fill="none" stroke="#bfbfbf" points="181,-311.5 318,-311.5 "/>
<text text-anchor="middle" x="249.5" y="-299.5" font-family="Helvetica,sans-Serif" font-size="10.00" fill="#000000"> </text>
</g>
<!-- Node3&#45;&gt;Node1 -->
<g id="edge2" class="edge">
<title>Node3&#45;&gt;Node1</title>
<path fill="none" stroke="#404040" d="M248.1921,-292.4372C247.4715,-244.9374 250.1787,-156.7861 275.5,-87 276.4259,-84.4482 277.5005,-81.8984 278.6864,-79.3743"/>
<polygon fill="none" stroke="#404040" points="278.82,-79.1246 278.1241,-71.9471 284.4819,-68.5442 285.1777,-75.7217 278.82,-79.1246"/>
<text text-anchor="middle" x="313" y="-90" font-family="Helvetica,sans-Serif" font-size="10.00" fill="#000000"> +scalersComb</text>
</g>
<!-- Node4 -->
<g id="node4" class="node">
<title>Node4</title>
<g id="a_node4"><a xlink:href="../../d1/d21/structo2_1_1InteractionRecord.html" target="_top" xlink:title="{o2::InteractionRecord\n||+ InteractionRecord()\l+ InteractionRecord()\l+ InteractionRecord()\l+ InteractionRecord()\l+ clear()\l+ isDummy()\l+ setFromNS()\l+ bc2ns()\l+ operator==()\l+ operator!=()\l+ differenceInBC()\l+ toLong()\l+ setFromLong()\l+ operator\&gt;()\l+ operator\&gt;=()\l+ operator\&lt;()\l+ operator\&lt;=()\l+ operator&#45;&#45;()\l+ operator&#45;&#45;()\l+ operator++()\l+ operator++()\l+ operator+=()\l+ operator&#45;=()\l+ operator+=()\l+ operator&#45;=()\l+ operator+()\l+ operator&#45;()\l+ operator+()\l+ operator&#45;()\l+ print()\l+ asString()\l+ ClassDefNV()\l+ bc2ns()\l+ ns2bc()\l}">
<polygon fill="none" stroke="#000000" points="336,-116.5 336,-536.5 457,-536.5 457,-116.5 336,-116.5"/>
<text text-anchor="middle" x="396.5" y="-524.5" font-family="Helvetica,sans-Serif" font-size="10.00" fill="#000000">o2::InteractionRecord</text>
<polyline fill="none" stroke="#000000" points="336,-517.5 457,-517.5 "/>
<text text-anchor="middle" x="396.5" y="-505.5" font-family="Helvetica,sans-Serif" font-size="10.00" fill="#000000"> </text>
<polyline fill="none" stroke="#000000" points="336,-498.5 457,-498.5 "/>
<text text-anchor="start" x="344" y="-486.5" font-family="Helvetica,sans-Serif" font-size="10.00" fill="#000000">+ InteractionRecord()</text>
<text text-anchor="start" x="344" y="-475.5" font-family="Helvetica,sans-Serif" font-size="10.00" fill="#000000">+ InteractionRecord()</text>
<text text-anchor="start" x="344" y="-464.5" font-family="Helvetica,sans-Serif" font-size="10.00" fill="#000000">+ InteractionRecord()</text>
<text text-anchor="start" x="344" y="-453.5" font-family="Helvetica,sans-Serif" font-size="10.00" fill="#000000">+ InteractionRecord()</text>
<text text-anchor="start" x="344" y="-442.5" font-family="Helvetica,sans-Serif" font-size="10.00" fill="#000000">+ clear()</text>
<text text-anchor="start" x="344" y="-431.5" font-family="Helvetica,sans-Serif" font-size="10.00" fill="#000000">+ isDummy()</text>
<text text-anchor="start" x="344" y="-420.5" font-family="Helvetica,sans-Serif" font-size="10.00" fill="#000000">+ setFromNS()</text>
<text text-anchor="start" x="344" y="-409.5" font-family="Helvetica,sans-Serif" font-size="10.00" fill="#000000">+ bc2ns()</text>
<text text-anchor="start" x="344" y="-398.5" font-family="Helvetica,sans-Serif" font-size="10.00" fill="#000000">+ operator==()</text>
<text text-anchor="start" x="344" y="-387.5" font-family="Helvetica,sans-Serif" font-size="10.00" fill="#000000">+ operator!=()</text>
<text text-anchor="start" x="344" y="-376.5" font-family="Helvetica,sans-Serif" font-size="10.00" fill="#000000">+ differenceInBC()</text>
<text text-anchor="start" x="344" y="-365.5" font-family="Helvetica,sans-Serif" font-size="10.00" fill="#000000">+ toLong()</text>
<text text-anchor="start" x="344" y="-354.5" font-family="Helvetica,sans-Serif" font-size="10.00" fill="#000000">+ setFromLong()</text>
<text text-anchor="start" x="344" y="-343.5" font-family="Helvetica,sans-Serif" font-size="10.00" fill="#000000">+ operator&gt;()</text>
<text text-anchor="start" x="344" y="-332.5" font-family="Helvetica,sans-Serif" font-size="10.00" fill="#000000">+ operator&gt;=()</text>
<text text-anchor="start" x="344" y="-321.5" font-family="Helvetica,sans-Serif" font-size="10.00" fill="#000000">+ operator&lt;()</text>
<text text-anchor="start" x="344" y="-310.5" font-family="Helvetica,sans-Serif" font-size="10.00" fill="#000000">+ operator&lt;=()</text>
<text text-anchor="start" x="344" y="-299.5" font-family="Helvetica,sans-Serif" font-size="10.00" fill="#000000">+ operator&#45;&#45;()</text>
<text text-anchor="start" x="344" y="-288.5" font-family="Helvetica,sans-Serif" font-size="10.00" fill="#000000">+ operator&#45;&#45;()</text>
<text text-anchor="start" x="344" y="-277.5" font-family="Helvetica,sans-Serif" font-size="10.00" fill="#000000">+ operator++()</text>
<text text-anchor="start" x="344" y="-266.5" font-family="Helvetica,sans-Serif" font-size="10.00" fill="#000000">+ operator++()</text>
<text text-anchor="start" x="344" y="-255.5" font-family="Helvetica,sans-Serif" font-size="10.00" fill="#000000">+ operator+=()</text>
<text text-anchor="start" x="344" y="-244.5" font-family="Helvetica,sans-Serif" font-size="10.00" fill="#000000">+ operator&#45;=()</text>
<text text-anchor="start" x="344" y="-233.5" font-family="Helvetica,sans-Serif" font-size="10.00" fill="#000000">+ operator+=()</text>
<text text-anchor="start" x="344" y="-222.5" font-family="Helvetica,sans-Serif" font-size="10.00" fill="#000000">+ operator&#45;=()</text>
<text text-anchor="start" x="344" y="-211.5" font-family="Helvetica,sans-Serif" font-size="10.00" fill="#000000">+ operator+()</text>
<text text-anchor="start" x="344" y="-200.5" font-family="Helvetica,sans-Serif" font-size="10.00" fill="#000000">+ operator&#45;()</text>
<text text-anchor="start" x="344" y="-189.5" font-family="Helvetica,sans-Serif" font-size="10.00" fill="#000000">+ operator+()</text>
<text text-anchor="start" x="344" y="-178.5" font-family="Helvetica,sans-Serif" font-size="10.00" fill="#000000">+ operator&#45;()</text>
<text text-anchor="start" x="344" y="-167.5" font-family="Helvetica,sans-Serif" font-size="10.00" fill="#000000">+ print()</text>
<text text-anchor="start" x="344" y="-156.5" font-family="Helvetica,sans-Serif" font-size="10.00" fill="#000000">+ asString()</text>
<text text-anchor="start" x="344" y="-145.5" font-family="Helvetica,sans-Serif" font-size="10.00" fill="#000000">+ ClassDefNV()</text>
<text text-anchor="start" x="344" y="-134.5" font-family="Helvetica,sans-Serif" font-size="10.00" fill="#000000">+ bc2ns()</text>
<text text-anchor="start" x="344" y="-123.5" font-family="Helvetica,sans-Serif" font-size="10.00" fill="#000000">+ ns2bc()</text>
</a>
</g>
</g>
<!-- Node4&#45;&gt;Node1 -->
<g id="edge3" class="edge">
<title>Node4&#45;&gt;Node1</title>
<path fill="none" stroke="#404040" d="M362.0698,-116.3932C358.5785,-106.3209 354.7337,-96.4699 350.5,-87 349.3162,-84.3521 347.9754,-81.7146 346.5203,-79.1112"/>
<polygon fill="none" stroke="#404040" points="346.3541,-78.8446 339.7848,-75.8704 340.0036,-68.6626 346.5728,-71.6368 346.3541,-78.8446"/>
<text text-anchor="middle" x="362" y="-90" font-family="Helvetica,sans-Serif" font-size="10.00" fill="#000000"> +ir</text>
</g>
<!-- Node5 -->
<g id="node5" class="node">
<title>Node5</title>
<polygon fill="none" stroke="#bfbfbf" points="223.5,-595.5 223.5,-652.5 273.5,-652.5 273.5,-595.5 223.5,-595.5"/>
<text text-anchor="middle" x="248.5" y="-640.5" font-family="Helvetica,sans-Serif" font-size="10.00" fill="#000000">double</text>
<polyline fill="none" stroke="#bfbfbf" points="223.5,-633.5 273.5,-633.5 "/>
<text text-anchor="middle" x="248.5" y="-621.5" font-family="Helvetica,sans-Serif" font-size="10.00" fill="#000000"> </text>
<polyline fill="none" stroke="#bfbfbf" points="223.5,-614.5 273.5,-614.5 "/>
<text text-anchor="middle" x="248.5" y="-602.5" font-family="Helvetica,sans-Serif" font-size="10.00" fill="#000000"> </text>
</g>
<!-- Node5&#45;&gt;Node4 -->
<g id="edge4" class="edge">
<title>Node5&#45;&gt;Node4</title>
<path fill="none" stroke="#404040" d="M249.5908,-595.3042C251.5622,-581.4983 256.1633,-565.6703 266.5,-555 286.1678,-534.6975 307.2166,-556.6875 327.5,-537 327.5906,-536.9121 327.681,-536.8241 327.7713,-536.736"/>
<polygon fill="none" stroke="#404040" points="327.59,-536.9278 328.8047,-529.8197 335.8332,-528.2071 334.6185,-535.3152 327.59,-536.9278"/>
<text text-anchor="middle" x="304.5" y="-563.5" font-family="Helvetica,sans-Serif" font-size="10.00" fill="#000000"> +DummyTime</text>
</g>
<!-- Node6 -->
<g id="node6" class="node">
<title>Node6</title>
<g id="a_node6"><a xlink:href="../../d2/d5f/classunsigned_01int.html" target="_top" xlink:title="{unsigned int\n||}">
<polygon fill="none" stroke="#000000" points="309,-595.5 309,-652.5 386,-652.5 386,-595.5 309,-595.5"/>
<text text-anchor="middle" x="347.5" y="-640.5" font-family="Helvetica,sans-Serif" font-size="10.00" fill="#000000">unsigned int</text>
<polyline fill="none" stroke="#000000" points="309,-633.5 386,-633.5 "/>
<text text-anchor="middle" x="347.5" y="-621.5" font-family="Helvetica,sans-Serif" font-size="10.00" fill="#000000"> </text>
<polyline fill="none" stroke="#000000" points="309,-614.5 386,-614.5 "/>
<text text-anchor="middle" x="347.5" y="-602.5" font-family="Helvetica,sans-Serif" font-size="10.00" fill="#000000"> </text>
</a>
</g>
</g>
<!-- Node6&#45;&gt;Node4 -->
<g id="edge5" class="edge">
<title>Node6&#45;&gt;Node4</title>
<path fill="none" stroke="#404040" d="M346.6841,-595.3878C346.6467,-582.9444 347.0299,-568.2168 348.5,-555 348.7311,-552.9227 348.9723,-550.8363 349.2232,-548.7422"/>
<polygon fill="none" stroke="#404040" points="349.2444,-548.575 346.0354,-542.1173 350.7622,-536.6714 353.9712,-543.1291 349.2444,-548.575"/>
<text text-anchor="middle" x="386" y="-563.5" font-family="Helvetica,sans-Serif" font-size="10.00" fill="#000000"> +DummyOrbit</text>
</g>
<!-- Node7 -->
<g id="node7" class="node">
<title>Node7</title>
<polygon fill="none" stroke="#bfbfbf" points="415,-595.5 415,-652.5 476,-652.5 476,-595.5 415,-595.5"/>
<text text-anchor="middle" x="445.5" y="-640.5" font-family="Helvetica,sans-Serif" font-size="10.00" fill="#000000">unsigned</text>
<polyline fill="none" stroke="#bfbfbf" points="415,-633.5 476,-633.5 "/>
<text text-anchor="middle" x="445.5" y="-621.5" font-family="Helvetica,sans-Serif" font-size="10.00" fill="#000000"> </text>
<polyline fill="none" stroke="#bfbfbf" points="415,-614.5 476,-614.5 "/>
<text text-anchor="middle" x="445.5" y="-602.5" font-family="Helvetica,sans-Serif" font-size="10.00" fill="#000000"> </text>
</g>
<!-- Node7&#45;&gt;Node4 -->
<g id="edge6" class="edge">
<title>Node7&#45;&gt;Node4</title>
<path fill="none" stroke="#404040" d="M440.8017,-595.4744C438.7089,-582.7684 436.0404,-566.5667 433.0536,-548.4323"/>
<polygon fill="none" stroke="#404040" points="433.0519,-548.4217 428.1299,-543.1515 431.1016,-536.5812 436.0236,-541.8513 433.0519,-548.4217"/>
<text text-anchor="middle" x="452" y="-569" font-family="Helvetica,sans-Serif" font-size="10.00" fill="#000000"> +bc</text>
<text text-anchor="middle" x="452" y="-558" font-family="Helvetica,sans-Serif" font-size="10.00" fill="#000000">+orbit</text>
</g>
<!-- Node8 -->
<g id="node8" class="node">
<title>Node8</title>
<polygon fill="none" stroke="#bfbfbf" points="494,-595.5 494,-652.5 631,-652.5 631,-595.5 494,-595.5"/>
<text text-anchor="middle" x="562.5" y="-640.5" font-family="Helvetica,sans-Serif" font-size="10.00" fill="#000000">static constexpr uint16_t</text>
<polyline fill="none" stroke="#bfbfbf" points="494,-633.5 631,-633.5 "/>
<text text-anchor="middle" x="562.5" y="-621.5" font-family="Helvetica,sans-Serif" font-size="10.00" fill="#000000"> </text>
<polyline fill="none" stroke="#bfbfbf" points="494,-614.5 631,-614.5 "/>
<text text-anchor="middle" x="562.5" y="-602.5" font-family="Helvetica,sans-Serif" font-size="10.00" fill="#000000"> </text>
</g>
<!-- Node8&#45;&gt;Node4 -->
<g id="edge7" class="edge">
<title>Node8&#45;&gt;Node4</title>
<path fill="none" stroke="#404040" d="M522.0061,-595.1835C502.8905,-579.7967 481.1189,-559.4212 466.5,-537 465.4811,-535.4374 464.4758,-533.8585 463.4837,-532.2646"/>
<polygon fill="none" stroke="#404040" points="463.2456,-531.8625 456.7458,-528.7395 457.1287,-521.5386 463.6285,-524.6616 463.2456,-531.8625"/>
<text text-anchor="middle" x="530.5" y="-563.5" font-family="Helvetica,sans-Serif" font-size="10.00" fill="#000000"> +DummyBC</text>
</g>
<!-- Node9 -->
<g id="node9" class="node">
<title>Node9</title>
<polygon fill="none" stroke="#bfbfbf" points="475.5,-298 475.5,-355 519.5,-355 519.5,-298 475.5,-298"/>
<text text-anchor="middle" x="497.5" y="-343" font-family="Helvetica,sans-Serif" font-size="10.00" fill="#000000">static</text>
<polyline fill="none" stroke="#bfbfbf" points="475.5,-336 519.5,-336 "/>
<text text-anchor="middle" x="497.5" y="-324" font-family="Helvetica,sans-Serif" font-size="10.00" fill="#000000"> </text>
<polyline fill="none" stroke="#bfbfbf" points="475.5,-317 519.5,-317 "/>
<text text-anchor="middle" x="497.5" y="-305" font-family="Helvetica,sans-Serif" font-size="10.00" fill="#000000"> </text>
</g>
<!-- Node9&#45;&gt;Node1 -->
<g id="edge8" class="edge">
<title>Node9&#45;&gt;Node1</title>
<path fill="none" stroke="#404040" d="M500.9577,-297.9978C504.6771,-254.5341 505.5487,-170.9534 466.5,-116 446.4111,-87.7287 413.4709,-68.5059 383.0236,-55.8653"/>
<polygon fill="none" stroke="#404040" points="382.6763,-55.7287 375.6287,-57.2558 371.5085,-51.3377 378.5561,-49.8106 382.6763,-55.7287"/>
<text text-anchor="middle" x="503.5" y="-90" font-family="Helvetica,sans-Serif" font-size="10.00" fill="#000000"> +NScalerCombination</text>
</g>
</g>
</svg>
