<?xml version="1.0" encoding="UTF-8" standalone="no"?>
<!DOCTYPE svg PUBLIC "-//W3C//DTD SVG 1.1//EN"
 "http://www.w3.org/Graphics/SVG/1.1/DTD/svg11.dtd">
<!-- Generated by graphviz version 2.40.1 (20161225.0304)
 -->
<!-- Title: o2::framework::ServiceRegistry Pages: 1 -->
<svg width="1437pt" height="413pt"
 viewBox="0.00 0.00 1437.00 413.00" xmlns="http://www.w3.org/2000/svg" xmlns:xlink="http://www.w3.org/1999/xlink">
<g id="graph0" class="graph" transform="scale(1 1) rotate(0) translate(4 409)">
<title>o2::framework::ServiceRegistry</title>
<!-- Node1 -->
<g id="node1" class="node">
<title>Node1</title>
<polygon fill="#bfbfbf" stroke="#000000" points="725,-.5 725,-255.5 895,-255.5 895,-.5 725,-.5"/>
<text text-anchor="middle" x="810" y="-243.5" font-family="Helvetica,sans-Serif" font-size="10.00" fill="#000000">o2::framework::ServiceRegistry</text>
<polyline fill="none" stroke="#000000" points="725,-236.5 895,-236.5 "/>
<text text-anchor="middle" x="810" y="-224.5" font-family="Helvetica,sans-Serif" font-size="10.00" fill="#000000"> </text>
<polyline fill="none" stroke="#000000" points="725,-217.5 895,-217.5 "/>
<text text-anchor="start" x="733" y="-205.5" font-family="Helvetica,sans-Serif" font-size="10.00" fill="#000000">+ ServiceRegistry()</text>
<text text-anchor="start" x="733" y="-194.5" font-family="Helvetica,sans-Serif" font-size="10.00" fill="#000000">+ ServiceRegistry()</text>
<text text-anchor="start" x="733" y="-183.5" font-family="Helvetica,sans-Serif" font-size="10.00" fill="#000000">+ operator=()</text>
<text text-anchor="start" x="733" y="-172.5" font-family="Helvetica,sans-Serif" font-size="10.00" fill="#000000">+ preProcessingCallbacks()</text>
<text text-anchor="start" x="733" y="-161.5" font-family="Helvetica,sans-Serif" font-size="10.00" fill="#000000">+ postProcessingCallbacks()</text>
<text text-anchor="start" x="733" y="-150.5" font-family="Helvetica,sans-Serif" font-size="10.00" fill="#000000">+ preDanglingCallbacks()</text>
<text text-anchor="start" x="733" y="-139.5" font-family="Helvetica,sans-Serif" font-size="10.00" fill="#000000">+ postDanglingCallbacks()</text>
<text text-anchor="start" x="733" y="-128.5" font-family="Helvetica,sans-Serif" font-size="10.00" fill="#000000">+ preEOSCallbacks()</text>
<text text-anchor="start" x="733" y="-117.5" font-family="Helvetica,sans-Serif" font-size="10.00" fill="#000000">+ postEOSCallbacks()</text>
<text text-anchor="start" x="733" y="-106.5" font-family="Helvetica,sans-Serif" font-size="10.00" fill="#000000">+ declareService()</text>
<text text-anchor="start" x="733" y="-95.5" font-family="Helvetica,sans-Serif" font-size="10.00" fill="#000000">+ bindService()</text>
<text text-anchor="start" x="733" y="-84.5" font-family="Helvetica,sans-Serif" font-size="10.00" fill="#000000">+ registerService()</text>
<text text-anchor="start" x="733" y="-73.5" font-family="Helvetica,sans-Serif" font-size="10.00" fill="#000000">+ getPos()</text>
<text text-anchor="start" x="733" y="-62.5" font-family="Helvetica,sans-Serif" font-size="10.00" fill="#000000">+ get()</text>
<text text-anchor="start" x="733" y="-51.5" font-family="Helvetica,sans-Serif" font-size="10.00" fill="#000000">+ registerService()</text>
<text text-anchor="start" x="733" y="-40.5" font-family="Helvetica,sans-Serif" font-size="10.00" fill="#000000">+ registerService()</text>
<text text-anchor="start" x="733" y="-29.5" font-family="Helvetica,sans-Serif" font-size="10.00" fill="#000000">+ registerService()</text>
<text text-anchor="start" x="733" y="-18.5" font-family="Helvetica,sans-Serif" font-size="10.00" fill="#000000">+ active()</text>
<text text-anchor="start" x="733" y="-7.5" font-family="Helvetica,sans-Serif" font-size="10.00" fill="#000000">+ get()</text>
</g>
<!-- Node2 -->
<g id="node2" class="node">
<title>Node2</title>
<polygon fill="none" stroke="#bfbfbf" points="0,-325.5 0,-404.5 162,-404.5 162,-325.5 0,-325.5"/>
<text text-anchor="start" x="8" y="-392.5" font-family="Helvetica,sans-Serif" font-size="10.00" fill="#000000">array&lt; o2::framework</text>
<text text-anchor="start" x="8" y="-381.5" font-family="Helvetica,sans-Serif" font-size="10.00" fill="#000000">::ServiceMeta, MAX_SERVICES</text>
<text text-anchor="middle" x="81" y="-370.5" font-family="Helvetica,sans-Serif" font-size="10.00" fill="#000000">+MAX_DISTANCE &gt;</text>
<polyline fill="none" stroke="#bfbfbf" points="0,-363.5 162,-363.5 "/>
<text text-anchor="middle" x="81" y="-351.5" font-family="Helvetica,sans-Serif" font-size="10.00" fill="#000000"> </text>
<polyline fill="none" stroke="#bfbfbf" points="0,-344.5 162,-344.5 "/>
<text text-anchor="middle" x="81" y="-332.5" font-family="Helvetica,sans-Serif" font-size="10.00" fill="#000000"> </text>
</g>
<!-- Node2&#45;&gt;Node1 -->
<g id="edge1" class="edge">
<title>Node2&#45;&gt;Node1</title>
<path fill="none" stroke="#404040" d="M153.7784,-325.3495C187.5469,-308.0121 228.6282,-288.3923 267,-274 419.1242,-216.942 602.9602,-172.3639 712.974,-148.1556"/>
<polygon fill="none" stroke="#404040" points="712.9777,-148.1549 717.9845,-142.9653 724.7006,-145.5909 719.6938,-150.7805 712.9777,-148.1549"/>
<text text-anchor="middle" x="310.5" y="-288" font-family="Helvetica,sans-Serif" font-size="10.00" fill="#000000"> +mServicesMeta</text>
</g>
<!-- Node3 -->
<g id="node3" class="node">
<title>Node3</title>
<polygon fill="none" stroke="#bfbfbf" points="180,-331 180,-399 368,-399 368,-331 180,-331"/>
<text text-anchor="start" x="188" y="-387" font-family="Helvetica,sans-Serif" font-size="10.00" fill="#000000">array&lt; unsigned int,</text>
<text text-anchor="middle" x="274" y="-376" font-family="Helvetica,sans-Serif" font-size="10.00" fill="#000000"> MAX_SERVICES+MAX_DISTANCE &gt;</text>
<polyline fill="none" stroke="#bfbfbf" points="180,-369 368,-369 "/>
<text text-anchor="middle" x="274" y="-357" font-family="Helvetica,sans-Serif" font-size="10.00" fill="#000000"> </text>
<polyline fill="none" stroke="#bfbfbf" points="180,-350 368,-350 "/>
<text text-anchor="middle" x="274" y="-338" font-family="Helvetica,sans-Serif" font-size="10.00" fill="#000000"> </text>
</g>
<!-- Node3&#45;&gt;Node1 -->
<g id="edge2" class="edge">
<title>Node3&#45;&gt;Node1</title>
<path fill="none" stroke="#404040" d="M320.3255,-330.8476C346.6242,-312.4533 380.6617,-290.2656 413,-274 511.5857,-224.4131 631.2247,-182.7344 713.2314,-156.7656"/>
<polygon fill="none" stroke="#404040" points="713.3515,-156.7279 717.875,-151.1121 724.7987,-153.1278 720.2751,-158.7436 713.3515,-156.7279"/>
<text text-anchor="middle" x="453.5" y="-288" font-family="Helvetica,sans-Serif" font-size="10.00" fill="#000000"> +mServicesKey</text>
</g>
<!-- Node4 -->
<g id="node4" class="node">
<title>Node4</title>
<polygon fill="none" stroke="#bfbfbf" points="386,-331 386,-399 534,-399 534,-331 386,-331"/>
<text text-anchor="start" x="394" y="-387" font-family="Helvetica,sans-Serif" font-size="10.00" fill="#000000">vector&lt; o2::framework</text>
<text text-anchor="middle" x="460" y="-376" font-family="Helvetica,sans-Serif" font-size="10.00" fill="#000000">::ServiceDanglingHandle &gt;</text>
<polyline fill="none" stroke="#bfbfbf" points="386,-369 534,-369 "/>
<text text-anchor="middle" x="460" y="-357" font-family="Helvetica,sans-Serif" font-size="10.00" fill="#000000"> </text>
<polyline fill="none" stroke="#bfbfbf" points="386,-350 534,-350 "/>
<text text-anchor="middle" x="460" y="-338" font-family="Helvetica,sans-Serif" font-size="10.00" fill="#000000"> </text>
</g>
<!-- Node4&#45;&gt;Node1 -->
<g id="edge3" class="edge">
<title>Node4&#45;&gt;Node1</title>
<path fill="none" stroke="#404040" d="M480.5346,-330.8931C492.8893,-312.4015 509.9029,-290.1053 529,-274 583.9631,-227.6476 656.1049,-190.5514 713.529,-165.3512"/>
<polygon fill="none" stroke="#404040" points="713.7949,-165.2361 717.713,-159.1823 724.8081,-160.4705 720.8901,-166.5244 713.7949,-165.2361"/>
<text text-anchor="middle" x="590.5" y="-293.5" font-family="Helvetica,sans-Serif" font-size="10.00" fill="#000000"> +mPreDanglingHandles</text>
<text text-anchor="middle" x="590.5" y="-282.5" font-family="Helvetica,sans-Serif" font-size="10.00" fill="#000000">+mPostDanglingHandles</text>
</g>
<!-- Node5 -->
<g id="node5" class="node">
<title>Node5</title>
<polygon fill="none" stroke="#bfbfbf" points="552.5,-331 552.5,-399 709.5,-399 709.5,-331 552.5,-331"/>
<text text-anchor="start" x="560.5" y="-387" font-family="Helvetica,sans-Serif" font-size="10.00" fill="#000000">vector&lt; o2::framework</text>
<text text-anchor="middle" x="631" y="-376" font-family="Helvetica,sans-Serif" font-size="10.00" fill="#000000">::ServiceProcessingHandle &gt;</text>
<polyline fill="none" stroke="#bfbfbf" points="552.5,-369 709.5,-369 "/>
<text text-anchor="middle" x="631" y="-357" font-family="Helvetica,sans-Serif" font-size="10.00" fill="#000000"> </text>
<polyline fill="none" stroke="#bfbfbf" points="552.5,-350 709.5,-350 "/>
<text text-anchor="middle" x="631" y="-338" font-family="Helvetica,sans-Serif" font-size="10.00" fill="#000000"> </text>
</g>
<!-- Node5&#45;&gt;Node1 -->
<g id="edge4" class="edge">
<title>Node5&#45;&gt;Node1</title>
<path fill="none" stroke="#404040" d="M644.1791,-330.8075C651.7125,-313.1404 662.039,-291.646 674,-274 686.4634,-255.6127 701.2162,-237.2764 716.3294,-220.1191"/>
<polygon fill="none" stroke="#404040" points="716.7449,-219.6552 717.7679,-212.517 724.7504,-210.7158 723.7275,-217.854 716.7449,-219.6552"/>
<text text-anchor="middle" x="740" y="-293.5" font-family="Helvetica,sans-Serif" font-size="10.00" fill="#000000"> +mPreProcessingHandles</text>
<text text-anchor="middle" x="740" y="-282.5" font-family="Helvetica,sans-Serif" font-size="10.00" fill="#000000">+mPostProcessingHandles</text>
</g>
<!-- Node6 -->
<g id="node6" class="node">
<title>Node6</title>
<polygon fill="none" stroke="#bfbfbf" points="728,-331 728,-399 892,-399 892,-331 728,-331"/>
<text text-anchor="start" x="736" y="-387" font-family="Helvetica,sans-Serif" font-size="10.00" fill="#000000">array&lt; void *, MAX</text>
<text text-anchor="middle" x="810" y="-376" font-family="Helvetica,sans-Serif" font-size="10.00" fill="#000000">_SERVICES+MAX_DISTANCE &gt;</text>
<polyline fill="none" stroke="#bfbfbf" points="728,-369 892,-369 "/>
<text text-anchor="middle" x="810" y="-357" font-family="Helvetica,sans-Serif" font-size="10.00" fill="#000000"> </text>
<polyline fill="none" stroke="#bfbfbf" points="728,-350 892,-350 "/>
<text text-anchor="middle" x="810" y="-338" font-family="Helvetica,sans-Serif" font-size="10.00" fill="#000000"> </text>
</g>
<!-- Node6&#45;&gt;Node1 -->
<g id="edge5" class="edge">
<title>Node6&#45;&gt;Node1</title>
<path fill="none" stroke="#404040" d="M810,-330.7913C810,-313.5439 810,-291.3571 810,-268.0181"/>
<polygon fill="none" stroke="#404040" points="810.0001,-267.7283 806,-261.7283 810,-255.7283 814,-261.7282 810.0001,-267.7283"/>
<text text-anchor="middle" x="855" y="-288" font-family="Helvetica,sans-Serif" font-size="10.00" fill="#000000"> +mServicesValue</text>
</g>
<!-- Node7 -->
<g id="node7" class="node">
<title>Node7</title>
<polygon fill="none" stroke="#bfbfbf" points="910,-331 910,-399 1040,-399 1040,-331 910,-331"/>
<text text-anchor="start" x="918" y="-387" font-family="Helvetica,sans-Serif" font-size="10.00" fill="#000000">vector&lt; o2::framework</text>
<text text-anchor="middle" x="975" y="-376" font-family="Helvetica,sans-Serif" font-size="10.00" fill="#000000">::ServiceSpec &gt;</text>
<polyline fill="none" stroke="#bfbfbf" points="910,-369 1040,-369 "/>
<text text-anchor="middle" x="975" y="-357" font-family="Helvetica,sans-Serif" font-size="10.00" fill="#000000"> </text>
<polyline fill="none" stroke="#bfbfbf" points="910,-350 1040,-350 "/>
<text text-anchor="middle" x="975" y="-338" font-family="Helvetica,sans-Serif" font-size="10.00" fill="#000000"> </text>
</g>
<!-- Node7&#45;&gt;Node1 -->
<g id="edge6" class="edge">
<title>Node7&#45;&gt;Node1</title>
<path fill="none" stroke="#404040" d="M951.1838,-330.7913C937.8495,-311.6383 920.2745,-286.3943 902.0695,-260.2452"/>
<polygon fill="none" stroke="#404040" points="901.9253,-260.0382 895.2143,-257.3995 895.0689,-250.1898 901.7799,-252.8285 901.9253,-260.0382"/>
<text text-anchor="middle" x="955" y="-288" font-family="Helvetica,sans-Serif" font-size="10.00" fill="#000000"> +mSpecs</text>
</g>
<!-- Node8 -->
<g id="node8" class="node">
<title>Node8</title>
<polygon fill="none" stroke="#bfbfbf" points="1058,-331 1058,-399 1188,-399 1188,-331 1058,-331"/>
<text text-anchor="start" x="1066" y="-387" font-family="Helvetica,sans-Serif" font-size="10.00" fill="#000000">vector&lt; o2::framework</text>
<text text-anchor="middle" x="1123" y="-376" font-family="Helvetica,sans-Serif" font-size="10.00" fill="#000000">::ServiceEOSHandle &gt;</text>
<polyline fill="none" stroke="#bfbfbf" points="1058,-369 1188,-369 "/>
<text text-anchor="middle" x="1123" y="-357" font-family="Helvetica,sans-Serif" font-size="10.00" fill="#000000"> </text>
<polyline fill="none" stroke="#bfbfbf" points="1058,-350 1188,-350 "/>
<text text-anchor="middle" x="1123" y="-338" font-family="Helvetica,sans-Serif" font-size="10.00" fill="#000000"> </text>
</g>
<!-- Node8&#45;&gt;Node1 -->
<g id="edge7" class="edge">
<title>Node8&#45;&gt;Node1</title>
<path fill="none" stroke="#404040" d="M1077.8214,-330.7913C1032.8509,-296.7402 962.4541,-243.4365 905.1187,-200.0228"/>
<polygon fill="none" stroke="#404040" points="904.8734,-199.8371 897.6753,-199.4041 895.3065,-192.5931 902.5046,-193.0261 904.8734,-199.8371"/>
<text text-anchor="middle" x="1088.5" y="-293.5" font-family="Helvetica,sans-Serif" font-size="10.00" fill="#000000"> +mPreEOSHandles</text>
<text text-anchor="middle" x="1088.5" y="-282.5" font-family="Helvetica,sans-Serif" font-size="10.00" fill="#000000">+mPostEOSHandles</text>
</g>
<!-- Node9 -->
<g id="node9" class="node">
<title>Node9</title>
<polygon fill="none" stroke="#bfbfbf" points="1206.5,-336.5 1206.5,-393.5 1235.5,-393.5 1235.5,-336.5 1206.5,-336.5"/>
<text text-anchor="middle" x="1221" y="-381.5" font-family="Helvetica,sans-Serif" font-size="10.00" fill="#000000">int</text>
<polyline fill="none" stroke="#bfbfbf" points="1206.5,-374.5 1235.5,-374.5 "/>
<text text-anchor="middle" x="1221" y="-362.5" font-family="Helvetica,sans-Serif" font-size="10.00" fill="#000000"> </text>
<polyline fill="none" stroke="#bfbfbf" points="1206.5,-355.5 1235.5,-355.5 "/>
<text text-anchor="middle" x="1221" y="-343.5" font-family="Helvetica,sans-Serif" font-size="10.00" fill="#000000"> </text>
</g>
<!-- Node9&#45;&gt;Node1 -->
<g id="edge8" class="edge">
<title>Node9&#45;&gt;Node1</title>
<path fill="none" stroke="#404040" d="M1206.2617,-338.0413C1203.3993,-333.5367 1200.2662,-329.0244 1197,-325 1175.9926,-299.1157 1169.8664,-292.2968 1142,-274 1068.1123,-225.4862 975.4278,-186.2768 906.7787,-160.7553"/>
<polygon fill="none" stroke="#404040" points="906.3762,-160.6072 899.3641,-162.2898 895.114,-156.4642 902.1261,-154.7817 906.3762,-160.6072"/>
<text text-anchor="middle" x="1238.5" y="-299" font-family="Helvetica,sans-Serif" font-size="10.00" fill="#000000"> +MAX_DISTANCE</text>
<text text-anchor="middle" x="1238.5" y="-288" font-family="Helvetica,sans-Serif" font-size="10.00" fill="#000000">+MAX_SERVICES</text>
<text text-anchor="middle" x="1238.5" y="-277" font-family="Helvetica,sans-Serif" font-size="10.00" fill="#000000">+MAX_SERVICES_MASK</text>
</g>
<!-- Node10 -->
<g id="node10" class="node">
<title>Node10</title>
<polygon fill="none" stroke="#bfbfbf" points="1289,-325.5 1289,-404.5 1429,-404.5 1429,-325.5 1289,-325.5"/>
<text text-anchor="start" x="1297" y="-392.5" font-family="Helvetica,sans-Serif" font-size="10.00" fill="#000000">array&lt; std::atomic</text>
<text text-anchor="start" x="1297" y="-381.5" font-family="Helvetica,sans-Serif" font-size="10.00" fill="#000000">&lt; bool &gt;, MAX_SERVICES</text>
<text text-anchor="middle" x="1359" y="-370.5" font-family="Helvetica,sans-Serif" font-size="10.00" fill="#000000">+MAX_DISTANCE &gt;</text>
<polyline fill="none" stroke="#bfbfbf" points="1289,-363.5 1429,-363.5 "/>
<text text-anchor="middle" x="1359" y="-351.5" font-family="Helvetica,sans-Serif" font-size="10.00" fill="#000000"> </text>
<polyline fill="none" stroke="#bfbfbf" points="1289,-344.5 1429,-344.5 "/>
<text text-anchor="middle" x="1359" y="-332.5" font-family="Helvetica,sans-Serif" font-size="10.00" fill="#000000"> </text>
</g>
<!-- Node10&#45;&gt;Node1 -->
<g id="edge9" class="edge">
<title>Node10&#45;&gt;Node1</title>
<path fill="none" stroke="#404040" d="M1341.3044,-325.3252C1331.4751,-307.3438 1317.6357,-287.2015 1300,-274 1182.6525,-186.1578 1012.8066,-150.8916 907.0205,-136.9234"/>
<polygon fill="none" stroke="#404040" points="906.9854,-136.919 900.5278,-140.1282 895.0817,-135.4016 901.5394,-132.1924 906.9854,-136.919"/>
<text text-anchor="middle" x="1379" y="-288" font-family="Helvetica,sans-Serif" font-size="10.00" fill="#000000"> +mServicesBooked</text>
</g>
</g>
</svg>
