<?xml version="1.0" encoding="UTF-8" standalone="no"?>
<!DOCTYPE svg PUBLIC "-//W3C//DTD SVG 1.1//EN"
 "http://www.w3.org/Graphics/SVG/1.1/DTD/svg11.dtd">
<!-- Generated by graphviz version 2.40.1 (20161225.0304)
 -->
<!-- Title: o2::raw::RawFileReader::LinkData Pages: 1 -->
<svg width="1393pt" height="1008pt"
 viewBox="0.00 0.00 1393.42 1008.00" xmlns="http://www.w3.org/2000/svg" xmlns:xlink="http://www.w3.org/1999/xlink">
<g id="graph0" class="graph" transform="scale(1 1) rotate(0) translate(4 1004)">
<title>o2::raw::RawFileReader::LinkData</title>
<!-- Node1 -->
<g id="node1" class="node">
<title>Node1</title>
<polygon fill="#bfbfbf" stroke="#000000" points="823.9166,-.5 823.9166,-244.5 984.9166,-244.5 984.9166,-.5 823.9166,-.5"/>
<text text-anchor="start" x="831.9166" y="-232.5" font-family="Helvetica,sans-Serif" font-size="10.00" fill="#000000">o2::raw::RawFileReader</text>
<text text-anchor="middle" x="904.4166" y="-221.5" font-family="Helvetica,sans-Serif" font-size="10.00" fill="#000000">::LinkData</text>
<polyline fill="none" stroke="#000000" points="823.9166,-214.5 984.9166,-214.5 "/>
<text text-anchor="middle" x="904.4166" y="-202.5" font-family="Helvetica,sans-Serif" font-size="10.00" fill="#000000"> </text>
<polyline fill="none" stroke="#000000" points="823.9166,-195.5 984.9166,-195.5 "/>
<text text-anchor="start" x="831.9166" y="-183.5" font-family="Helvetica,sans-Serif" font-size="10.00" fill="#000000">+ LinkData()</text>
<text text-anchor="start" x="831.9166" y="-172.5" font-family="Helvetica,sans-Serif" font-size="10.00" fill="#000000">+ LinkData()</text>
<text text-anchor="start" x="831.9166" y="-161.5" font-family="Helvetica,sans-Serif" font-size="10.00" fill="#000000">+ preprocessCRUPage()</text>
<text text-anchor="start" x="831.9166" y="-150.5" font-family="Helvetica,sans-Serif" font-size="10.00" fill="#000000">+ getLargestSuperPage()</text>
<text text-anchor="start" x="831.9166" y="-139.5" font-family="Helvetica,sans-Serif" font-size="10.00" fill="#000000">+ getLargestTF()</text>
<text text-anchor="start" x="831.9166" y="-128.5" font-family="Helvetica,sans-Serif" font-size="10.00" fill="#000000">+ getNextHBFSize()</text>
<text text-anchor="start" x="831.9166" y="-117.5" font-family="Helvetica,sans-Serif" font-size="10.00" fill="#000000">+ getNextTFSize()</text>
<text text-anchor="start" x="831.9166" y="-106.5" font-family="Helvetica,sans-Serif" font-size="10.00" fill="#000000">+ getNextTFSuperPagesStat()</text>
<text text-anchor="start" x="831.9166" y="-95.5" font-family="Helvetica,sans-Serif" font-size="10.00" fill="#000000">+ getNHBFinTF()</text>
<text text-anchor="start" x="831.9166" y="-84.5" font-family="Helvetica,sans-Serif" font-size="10.00" fill="#000000">+ readNextHBF()</text>
<text text-anchor="start" x="831.9166" y="-73.5" font-family="Helvetica,sans-Serif" font-size="10.00" fill="#000000">+ readNextTF()</text>
<text text-anchor="start" x="831.9166" y="-62.5" font-family="Helvetica,sans-Serif" font-size="10.00" fill="#000000">+ readNextSuperPage()</text>
<text text-anchor="start" x="831.9166" y="-51.5" font-family="Helvetica,sans-Serif" font-size="10.00" fill="#000000">+ skipNextHBF()</text>
<text text-anchor="start" x="831.9166" y="-40.5" font-family="Helvetica,sans-Serif" font-size="10.00" fill="#000000">+ skipNextTF()</text>
<text text-anchor="start" x="831.9166" y="-29.5" font-family="Helvetica,sans-Serif" font-size="10.00" fill="#000000">+ rewindToTF()</text>
<text text-anchor="start" x="831.9166" y="-18.5" font-family="Helvetica,sans-Serif" font-size="10.00" fill="#000000">+ print()</text>
<text text-anchor="start" x="831.9166" y="-7.5" font-family="Helvetica,sans-Serif" font-size="10.00" fill="#000000">+ describe()</text>
</g>
<!-- Node2 -->
<g id="node2" class="node">
<title>Node2</title>
<polygon fill="none" stroke="#bfbfbf" points="211.9166,-397 211.9166,-454 296.9166,-454 296.9166,-397 211.9166,-397"/>
<text text-anchor="middle" x="254.4166" y="-442" font-family="Helvetica,sans-Serif" font-size="10.00" fill="#000000">unsigned long</text>
<polyline fill="none" stroke="#bfbfbf" points="211.9166,-435 296.9166,-435 "/>
<text text-anchor="middle" x="254.4166" y="-423" font-family="Helvetica,sans-Serif" font-size="10.00" fill="#000000"> </text>
<polyline fill="none" stroke="#bfbfbf" points="211.9166,-416 296.9166,-416 "/>
<text text-anchor="middle" x="254.4166" y="-404" font-family="Helvetica,sans-Serif" font-size="10.00" fill="#000000"> </text>
</g>
<!-- Node2&#45;&gt;Node1 -->
<g id="edge1" class="edge">
<title>Node2&#45;&gt;Node1</title>
<path fill="none" stroke="#404040" d="M260.8485,-396.8579C267.9302,-371.6756 281.7342,-335.7428 306.4166,-314 451.8301,-185.9044 683.6421,-143.3684 811.7464,-129.3333"/>
<polygon fill="none" stroke="#404040" points="811.8795,-129.3194 817.4274,-124.7128 823.8135,-128.0622 818.2655,-132.6688 811.8795,-129.3194"/>
<text text-anchor="middle" x="391.4166" y="-277" font-family="Helvetica,sans-Serif" font-size="10.00" fill="#000000"> +spec</text>
</g>
<!-- Node3 -->
<g id="node3" class="node">
<title>Node3</title>
<g id="a_node3"><a xlink:href="../../d9/db3/structo2_1_1header_1_1Descriptor.html" target="_top" xlink:title="{o2::header::Descriptor\l\&lt; gSizeDataOriginString,\l printDataOrigin \&gt;\n||+ Descriptor()\l+ Descriptor()\l+ Descriptor()\l+ Descriptor()\l+ operator=()\l+ operator ItgType()\l+ runtimeInit()\l+ operator==()\l+ operator==()\l+ operator\&lt;()\l+ operator!=()\l+ operator!=()\l+ as()\l+ print()\l}">
<polygon fill="none" stroke="#000000" points="497.4166,-314.5 497.4166,-536.5 635.4166,-536.5 635.4166,-314.5 497.4166,-314.5"/>
<text text-anchor="start" x="505.4166" y="-524.5" font-family="Helvetica,sans-Serif" font-size="10.00" fill="#000000">o2::header::Descriptor</text>
<text text-anchor="start" x="505.4166" y="-513.5" font-family="Helvetica,sans-Serif" font-size="10.00" fill="#000000">&lt; gSizeDataOriginString,</text>
<text text-anchor="middle" x="566.4166" y="-502.5" font-family="Helvetica,sans-Serif" font-size="10.00" fill="#000000"> printDataOrigin &gt;</text>
<polyline fill="none" stroke="#000000" points="497.4166,-495.5 635.4166,-495.5 "/>
<text text-anchor="middle" x="566.4166" y="-483.5" font-family="Helvetica,sans-Serif" font-size="10.00" fill="#000000"> </text>
<polyline fill="none" stroke="#000000" points="497.4166,-476.5 635.4166,-476.5 "/>
<text text-anchor="start" x="505.4166" y="-464.5" font-family="Helvetica,sans-Serif" font-size="10.00" fill="#000000">+ Descriptor()</text>
<text text-anchor="start" x="505.4166" y="-453.5" font-family="Helvetica,sans-Serif" font-size="10.00" fill="#000000">+ Descriptor()</text>
<text text-anchor="start" x="505.4166" y="-442.5" font-family="Helvetica,sans-Serif" font-size="10.00" fill="#000000">+ Descriptor()</text>
<text text-anchor="start" x="505.4166" y="-431.5" font-family="Helvetica,sans-Serif" font-size="10.00" fill="#000000">+ Descriptor()</text>
<text text-anchor="start" x="505.4166" y="-420.5" font-family="Helvetica,sans-Serif" font-size="10.00" fill="#000000">+ operator=()</text>
<text text-anchor="start" x="505.4166" y="-409.5" font-family="Helvetica,sans-Serif" font-size="10.00" fill="#000000">+ operator ItgType()</text>
<text text-anchor="start" x="505.4166" y="-398.5" font-family="Helvetica,sans-Serif" font-size="10.00" fill="#000000">+ runtimeInit()</text>
<text text-anchor="start" x="505.4166" y="-387.5" font-family="Helvetica,sans-Serif" font-size="10.00" fill="#000000">+ operator==()</text>
<text text-anchor="start" x="505.4166" y="-376.5" font-family="Helvetica,sans-Serif" font-size="10.00" fill="#000000">+ operator==()</text>
<text text-anchor="start" x="505.4166" y="-365.5" font-family="Helvetica,sans-Serif" font-size="10.00" fill="#000000">+ operator&lt;()</text>
<text text-anchor="start" x="505.4166" y="-354.5" font-family="Helvetica,sans-Serif" font-size="10.00" fill="#000000">+ operator!=()</text>
<text text-anchor="start" x="505.4166" y="-343.5" font-family="Helvetica,sans-Serif" font-size="10.00" fill="#000000">+ operator!=()</text>
<text text-anchor="start" x="505.4166" y="-332.5" font-family="Helvetica,sans-Serif" font-size="10.00" fill="#000000">+ as()</text>
<text text-anchor="start" x="505.4166" y="-321.5" font-family="Helvetica,sans-Serif" font-size="10.00" fill="#000000">+ print()</text>
</a>
</g>
</g>
<!-- Node3&#45;&gt;Node1 -->
<g id="edge2" class="edge">
<title>Node3&#45;&gt;Node1</title>
<path fill="none" stroke="#404040" d="M635.6315,-363.4523C687.3156,-317.1201 758.3984,-253.3979 814.4833,-203.1207"/>
<polygon fill="none" stroke="#404040" points="814.7693,-202.8642 816.567,-195.8808 823.7047,-194.8542 821.907,-201.8376 814.7693,-202.8642"/>
<text text-anchor="middle" x="766.4166" y="-277" font-family="Helvetica,sans-Serif" font-size="10.00" fill="#000000"> +origin</text>
</g>
<!-- Node4 -->
<g id="node4" class="node">
<title>Node4</title>
<polygon fill="none" stroke="#bfbfbf" points="64.9166,-942.5 64.9166,-999.5 103.9166,-999.5 103.9166,-942.5 64.9166,-942.5"/>
<text text-anchor="middle" x="84.4166" y="-987.5" font-family="Helvetica,sans-Serif" font-size="10.00" fill="#000000">Type</text>
<polyline fill="none" stroke="#bfbfbf" points="64.9166,-980.5 103.9166,-980.5 "/>
<text text-anchor="middle" x="84.4166" y="-968.5" font-family="Helvetica,sans-Serif" font-size="10.00" fill="#000000"> </text>
<polyline fill="none" stroke="#bfbfbf" points="64.9166,-961.5 103.9166,-961.5 "/>
<text text-anchor="middle" x="84.4166" y="-949.5" font-family="Helvetica,sans-Serif" font-size="10.00" fill="#000000"> </text>
</g>
<!-- Node4&#45;&gt;Node3 -->
<g id="edge3" class="edge">
<title>Node4&#45;&gt;Node3</title>
<path fill="none" stroke="#404040" d="M83.922,-942.2408C83.1365,-855.9362 86.1587,-602.2071 147.4166,-555 204.8228,-510.7612 403.0992,-568.1889 486.2008,-536.5986"/>
<polygon fill="none" stroke="#404040" points="486.2483,-536.5766 490.01,-530.4244 497.1358,-531.5304 493.3741,-537.6827 486.2483,-536.5766"/>
<text text-anchor="middle" x="114.9166" y="-764.5" font-family="Helvetica,sans-Serif" font-size="10.00" fill="#000000"> +itg</text>
</g>
<!-- Node8 -->
<g id="node8" class="node">
<title>Node8</title>
<g id="a_node8"><a xlink:href="../../d9/db3/structo2_1_1header_1_1Descriptor.html" target="_top" xlink:title="{o2::header::Descriptor\l\&lt; N, PrinterPolicy \&gt;\n||+ Descriptor()\l+ Descriptor()\l+ Descriptor()\l+ operator=()\l+ operator ItgType()\l+ Descriptor()\l+ runtimeInit()\l+ operator==()\l+ operator\&lt;()\l+ operator!=()\l+ operator==()\l+ operator!=()\l+ as()\l+ print()\l}">
<polygon fill="none" stroke="#000000" points="273.9166,-661.5 273.9166,-872.5 398.9166,-872.5 398.9166,-661.5 273.9166,-661.5"/>
<text text-anchor="start" x="281.9166" y="-860.5" font-family="Helvetica,sans-Serif" font-size="10.00" fill="#000000">o2::header::Descriptor</text>
<text text-anchor="middle" x="336.4166" y="-849.5" font-family="Helvetica,sans-Serif" font-size="10.00" fill="#000000">&lt; N, PrinterPolicy &gt;</text>
<polyline fill="none" stroke="#000000" points="273.9166,-842.5 398.9166,-842.5 "/>
<text text-anchor="middle" x="336.4166" y="-830.5" font-family="Helvetica,sans-Serif" font-size="10.00" fill="#000000"> </text>
<polyline fill="none" stroke="#000000" points="273.9166,-823.5 398.9166,-823.5 "/>
<text text-anchor="start" x="281.9166" y="-811.5" font-family="Helvetica,sans-Serif" font-size="10.00" fill="#000000">+ Descriptor()</text>
<text text-anchor="start" x="281.9166" y="-800.5" font-family="Helvetica,sans-Serif" font-size="10.00" fill="#000000">+ Descriptor()</text>
<text text-anchor="start" x="281.9166" y="-789.5" font-family="Helvetica,sans-Serif" font-size="10.00" fill="#000000">+ Descriptor()</text>
<text text-anchor="start" x="281.9166" y="-778.5" font-family="Helvetica,sans-Serif" font-size="10.00" fill="#000000">+ operator=()</text>
<text text-anchor="start" x="281.9166" y="-767.5" font-family="Helvetica,sans-Serif" font-size="10.00" fill="#000000">+ operator ItgType()</text>
<text text-anchor="start" x="281.9166" y="-756.5" font-family="Helvetica,sans-Serif" font-size="10.00" fill="#000000">+ Descriptor()</text>
<text text-anchor="start" x="281.9166" y="-745.5" font-family="Helvetica,sans-Serif" font-size="10.00" fill="#000000">+ runtimeInit()</text>
<text text-anchor="start" x="281.9166" y="-734.5" font-family="Helvetica,sans-Serif" font-size="10.00" fill="#000000">+ operator==()</text>
<text text-anchor="start" x="281.9166" y="-723.5" font-family="Helvetica,sans-Serif" font-size="10.00" fill="#000000">+ operator&lt;()</text>
<text text-anchor="start" x="281.9166" y="-712.5" font-family="Helvetica,sans-Serif" font-size="10.00" fill="#000000">+ operator!=()</text>
<text text-anchor="start" x="281.9166" y="-701.5" font-family="Helvetica,sans-Serif" font-size="10.00" fill="#000000">+ operator==()</text>
<text text-anchor="start" x="281.9166" y="-690.5" font-family="Helvetica,sans-Serif" font-size="10.00" fill="#000000">+ operator!=()</text>
<text text-anchor="start" x="281.9166" y="-679.5" font-family="Helvetica,sans-Serif" font-size="10.00" fill="#000000">+ as()</text>
<text text-anchor="start" x="281.9166" y="-668.5" font-family="Helvetica,sans-Serif" font-size="10.00" fill="#000000">+ print()</text>
</a>
</g>
</g>
<!-- Node4&#45;&gt;Node8 -->
<g id="edge8" class="edge">
<title>Node4&#45;&gt;Node8</title>
<path fill="none" stroke="#404040" d="M104.1906,-954.9925C138.2316,-927.4354 209.5115,-869.7326 264.176,-825.4805"/>
<polygon fill="none" stroke="#404040" points="264.5041,-825.2149 266.6507,-818.3307 273.831,-817.6645 271.6844,-824.5487 264.5041,-825.2149"/>
<text text-anchor="middle" x="193.9166" y="-905" font-family="Helvetica,sans-Serif" font-size="10.00" fill="#000000"> +itg</text>
</g>
<!-- Node9 -->
<g id="node9" class="node">
<title>Node9</title>
<g id="a_node9"><a xlink:href="../../d9/db3/structo2_1_1header_1_1Descriptor.html" target="_top" xlink:title="{o2::header::Descriptor\l\&lt; gSizeDataDescriptionString,\l printDataDescription \&gt;\n||+ Descriptor()\l+ Descriptor()\l+ Descriptor()\l+ Descriptor()\l+ operator=()\l+ operator ItgType()\l+ runtimeInit()\l+ operator==()\l+ operator==()\l+ operator\&lt;()\l+ operator!=()\l+ operator!=()\l+ as()\l+ print()\l}">
<polygon fill="none" stroke="#000000" points="315.4166,-314.5 315.4166,-536.5 479.4166,-536.5 479.4166,-314.5 315.4166,-314.5"/>
<text text-anchor="start" x="323.4166" y="-524.5" font-family="Helvetica,sans-Serif" font-size="10.00" fill="#000000">o2::header::Descriptor</text>
<text text-anchor="start" x="323.4166" y="-513.5" font-family="Helvetica,sans-Serif" font-size="10.00" fill="#000000">&lt; gSizeDataDescriptionString,</text>
<text text-anchor="middle" x="397.4166" y="-502.5" font-family="Helvetica,sans-Serif" font-size="10.00" fill="#000000"> printDataDescription &gt;</text>
<polyline fill="none" stroke="#000000" points="315.4166,-495.5 479.4166,-495.5 "/>
<text text-anchor="middle" x="397.4166" y="-483.5" font-family="Helvetica,sans-Serif" font-size="10.00" fill="#000000"> </text>
<polyline fill="none" stroke="#000000" points="315.4166,-476.5 479.4166,-476.5 "/>
<text text-anchor="start" x="323.4166" y="-464.5" font-family="Helvetica,sans-Serif" font-size="10.00" fill="#000000">+ Descriptor()</text>
<text text-anchor="start" x="323.4166" y="-453.5" font-family="Helvetica,sans-Serif" font-size="10.00" fill="#000000">+ Descriptor()</text>
<text text-anchor="start" x="323.4166" y="-442.5" font-family="Helvetica,sans-Serif" font-size="10.00" fill="#000000">+ Descriptor()</text>
<text text-anchor="start" x="323.4166" y="-431.5" font-family="Helvetica,sans-Serif" font-size="10.00" fill="#000000">+ Descriptor()</text>
<text text-anchor="start" x="323.4166" y="-420.5" font-family="Helvetica,sans-Serif" font-size="10.00" fill="#000000">+ operator=()</text>
<text text-anchor="start" x="323.4166" y="-409.5" font-family="Helvetica,sans-Serif" font-size="10.00" fill="#000000">+ operator ItgType()</text>
<text text-anchor="start" x="323.4166" y="-398.5" font-family="Helvetica,sans-Serif" font-size="10.00" fill="#000000">+ runtimeInit()</text>
<text text-anchor="start" x="323.4166" y="-387.5" font-family="Helvetica,sans-Serif" font-size="10.00" fill="#000000">+ operator==()</text>
<text text-anchor="start" x="323.4166" y="-376.5" font-family="Helvetica,sans-Serif" font-size="10.00" fill="#000000">+ operator==()</text>
<text text-anchor="start" x="323.4166" y="-365.5" font-family="Helvetica,sans-Serif" font-size="10.00" fill="#000000">+ operator&lt;()</text>
<text text-anchor="start" x="323.4166" y="-354.5" font-family="Helvetica,sans-Serif" font-size="10.00" fill="#000000">+ operator!=()</text>
<text text-anchor="start" x="323.4166" y="-343.5" font-family="Helvetica,sans-Serif" font-size="10.00" fill="#000000">+ operator!=()</text>
<text text-anchor="start" x="323.4166" y="-332.5" font-family="Helvetica,sans-Serif" font-size="10.00" fill="#000000">+ as()</text>
<text text-anchor="start" x="323.4166" y="-321.5" font-family="Helvetica,sans-Serif" font-size="10.00" fill="#000000">+ print()</text>
</a>
</g>
</g>
<!-- Node4&#45;&gt;Node9 -->
<g id="edge13" class="edge">
<title>Node4&#45;&gt;Node9</title>
<path fill="none" stroke="#404040" d="M66.3877,-942.2415C55.6377,-923.3505 43.0232,-897.6555 37.4166,-873 5.9096,-734.4448 -40.7184,-643.5395 70.4166,-555 108.9006,-524.3403 241.452,-556.6929 304.0279,-535.9828"/>
<polygon fill="none" stroke="#404040" points="304.147,-535.9329 308.1301,-529.9216 315.2109,-531.2863 311.2278,-537.2975 304.147,-535.9329"/>
<text text-anchor="middle" x="49.9166" y="-764.5" font-family="Helvetica,sans-Serif" font-size="10.00" fill="#000000"> +itg</text>
</g>
<!-- Node5 -->
<g id="node5" class="node">
<title>Node5</title>
<polygon fill="none" stroke="#bfbfbf" points="486.4166,-942.5 486.4166,-999.5 524.4166,-999.5 524.4166,-942.5 486.4166,-942.5"/>
<text text-anchor="middle" x="505.4166" y="-987.5" font-family="Helvetica,sans-Serif" font-size="10.00" fill="#000000">char</text>
<polyline fill="none" stroke="#bfbfbf" points="486.4166,-980.5 524.4166,-980.5 "/>
<text text-anchor="middle" x="505.4166" y="-968.5" font-family="Helvetica,sans-Serif" font-size="10.00" fill="#000000"> </text>
<polyline fill="none" stroke="#bfbfbf" points="486.4166,-961.5 524.4166,-961.5 "/>
<text text-anchor="middle" x="505.4166" y="-949.5" font-family="Helvetica,sans-Serif" font-size="10.00" fill="#000000"> </text>
</g>
<!-- Node5&#45;&gt;Node3 -->
<g id="edge4" class="edge">
<title>Node5&#45;&gt;Node3</title>
<path fill="none" stroke="#404040" d="M515.7313,-942.2409C522.2104,-922.9204 530.1269,-896.7464 534.4166,-873 554.0086,-764.545 561.7188,-639.2698 564.6965,-548.9009"/>
<polygon fill="none" stroke="#404040" points="564.7039,-548.6598 560.8928,-542.5381 565.0778,-536.6656 568.8889,-542.7874 564.7039,-548.6598"/>
<text text-anchor="middle" x="571.9166" y="-764.5" font-family="Helvetica,sans-Serif" font-size="10.00" fill="#000000"> +str</text>
</g>
<!-- Node5&#45;&gt;Node8 -->
<g id="edge9" class="edge">
<title>Node5&#45;&gt;Node8</title>
<path fill="none" stroke="#404040" d="M486.3465,-952.1305C467.2017,-932.8605 437.2134,-901.7723 413.4166,-873 411.1741,-870.2887 408.9216,-867.518 406.6682,-864.7051"/>
<polygon fill="none" stroke="#404040" points="406.4481,-864.4259 399.592,-862.1912 399.0179,-855.003 405.874,-857.2377 406.4481,-864.4259"/>
<text text-anchor="middle" x="470.9166" y="-905" font-family="Helvetica,sans-Serif" font-size="10.00" fill="#000000"> +str</text>
</g>
<!-- Node5&#45;&gt;Node9 -->
<g id="edge14" class="edge">
<title>Node5&#45;&gt;Node9</title>
<path fill="none" stroke="#404040" d="M504.5919,-942.2855C501.9927,-860.5148 492.7791,-627.6467 470.4166,-555 469.719,-552.7338 468.9774,-550.4634 468.196,-548.1921"/>
<polygon fill="none" stroke="#404040" points="468.1581,-548.0903 462.3174,-543.861 463.975,-536.843 469.8156,-541.0722 468.1581,-548.0903"/>
<text text-anchor="middle" x="514.9166" y="-764.5" font-family="Helvetica,sans-Serif" font-size="10.00" fill="#000000"> +str</text>
</g>
<!-- Node6 -->
<g id="node6" class="node">
<title>Node6</title>
<polygon fill="none" stroke="#bfbfbf" points="672.9166,-942.5 672.9166,-999.5 701.9166,-999.5 701.9166,-942.5 672.9166,-942.5"/>
<text text-anchor="middle" x="687.4166" y="-987.5" font-family="Helvetica,sans-Serif" font-size="10.00" fill="#000000">int</text>
<polyline fill="none" stroke="#bfbfbf" points="672.9166,-980.5 701.9166,-980.5 "/>
<text text-anchor="middle" x="687.4166" y="-968.5" font-family="Helvetica,sans-Serif" font-size="10.00" fill="#000000"> </text>
<polyline fill="none" stroke="#bfbfbf" points="672.9166,-961.5 701.9166,-961.5 "/>
<text text-anchor="middle" x="687.4166" y="-949.5" font-family="Helvetica,sans-Serif" font-size="10.00" fill="#000000"> </text>
</g>
<!-- Node6&#45;&gt;Node1 -->
<g id="edge19" class="edge">
<title>Node6&#45;&gt;Node1</title>
<path fill="none" stroke="#404040" d="M701.9818,-957.7014C720.0641,-940.2212 750.2469,-907.6472 764.4166,-873 859.0386,-641.6332 764.9062,-556.2817 826.4166,-314 831.2491,-294.9652 837.5782,-275.3207 844.5436,-256.1963"/>
<polygon fill="none" stroke="#404040" points="844.6422,-255.9314 842.9893,-248.9122 848.8327,-244.6868 850.4857,-251.7059 844.6422,-255.9314"/>
<text text-anchor="middle" x="853.4166" y="-613" font-family="Helvetica,sans-Serif" font-size="10.00" fill="#000000"> +nHBFinTF</text>
<text text-anchor="middle" x="853.4166" y="-602" font-family="Helvetica,sans-Serif" font-size="10.00" fill="#000000">+nErrors</text>
<text text-anchor="middle" x="853.4166" y="-591" font-family="Helvetica,sans-Serif" font-size="10.00" fill="#000000">+fairMQChannel</text>
<text text-anchor="middle" x="853.4166" y="-580" font-family="Helvetica,sans-Serif" font-size="10.00" fill="#000000">+nextBlock2Read</text>
</g>
<!-- Node6&#45;&gt;Node3 -->
<g id="edge5" class="edge">
<title>Node6&#45;&gt;Node3</title>
<path fill="none" stroke="#404040" d="M691.7025,-942.3652C699.0675,-887.1704 711.3344,-762.535 689.4166,-661 680.3589,-619.0399 661.6318,-576.4651 641.4625,-539.2677"/>
<polygon fill="none" stroke="#404040" points="641.2668,-538.9141 634.8614,-535.6018 635.4554,-528.4151 641.8607,-531.7275 641.2668,-538.9141"/>
<text text-anchor="middle" x="731.4166" y="-775.5" font-family="Helvetica,sans-Serif" font-size="10.00" fill="#000000"> +arraySize</text>
<text text-anchor="middle" x="731.4166" y="-764.5" font-family="Helvetica,sans-Serif" font-size="10.00" fill="#000000">+size</text>
<text text-anchor="middle" x="731.4166" y="-753.5" font-family="Helvetica,sans-Serif" font-size="10.00" fill="#000000">+bitcount</text>
</g>
<!-- Node6&#45;&gt;Node8 -->
<g id="edge10" class="edge">
<title>Node6&#45;&gt;Node8</title>
<path fill="none" stroke="#404040" d="M672.6286,-964.2398C639.8342,-949.4368 558.2993,-913.6711 487.4166,-891 455.1775,-880.6887 441.5311,-891.8481 413.4166,-873 411.6955,-871.8462 409.9995,-870.6403 408.3288,-869.3875"/>
<polygon fill="none" stroke="#404040" points="408.3023,-869.3657 401.1281,-868.6375 399.0409,-861.735 406.2151,-862.4632 408.3023,-869.3657"/>
<text text-anchor="middle" x="605.4166" y="-916" font-family="Helvetica,sans-Serif" font-size="10.00" fill="#000000"> +arraySize</text>
<text text-anchor="middle" x="605.4166" y="-905" font-family="Helvetica,sans-Serif" font-size="10.00" fill="#000000">+size</text>
<text text-anchor="middle" x="605.4166" y="-894" font-family="Helvetica,sans-Serif" font-size="10.00" fill="#000000">+bitcount</text>
</g>
<!-- Node6&#45;&gt;Node9 -->
<g id="edge15" class="edge">
<title>Node6&#45;&gt;Node9</title>
<path fill="none" stroke="#404040" d="M672.769,-947.1052C655.0383,-918.1765 627.5133,-873.2525 627.4166,-873 593.1614,-783.5302 628.5006,-748.0146 588.4166,-661 587.5052,-659.0215 536.435,-596.0823 487.3392,-535.7756"/>
<polygon fill="none" stroke="#404040" points="487.0615,-535.4345 480.1712,-533.3074 479.4845,-526.1291 486.3748,-528.2561 487.0615,-535.4345"/>
<text text-anchor="middle" x="656.4166" y="-775.5" font-family="Helvetica,sans-Serif" font-size="10.00" fill="#000000"> +arraySize</text>
<text text-anchor="middle" x="656.4166" y="-764.5" font-family="Helvetica,sans-Serif" font-size="10.00" fill="#000000">+size</text>
<text text-anchor="middle" x="656.4166" y="-753.5" font-family="Helvetica,sans-Serif" font-size="10.00" fill="#000000">+bitcount</text>
</g>
<!-- Node7 -->
<g id="node7" class="node">
<title>Node7</title>
<polygon fill="none" stroke="#bfbfbf" points="282.9166,-942.5 282.9166,-999.5 389.9166,-999.5 389.9166,-942.5 282.9166,-942.5"/>
<text text-anchor="middle" x="336.4166" y="-987.5" font-family="Helvetica,sans-Serif" font-size="10.00" fill="#000000">anonymous:+@72</text>
<polyline fill="none" stroke="#bfbfbf" points="282.9166,-980.5 389.9166,-980.5 "/>
<text text-anchor="middle" x="336.4166" y="-968.5" font-family="Helvetica,sans-Serif" font-size="10.00" fill="#000000"> </text>
<polyline fill="none" stroke="#bfbfbf" points="282.9166,-961.5 389.9166,-961.5 "/>
<text text-anchor="middle" x="336.4166" y="-949.5" font-family="Helvetica,sans-Serif" font-size="10.00" fill="#000000"> </text>
</g>
<!-- Node7&#45;&gt;Node3 -->
<g id="edge6" class="edge">
<title>Node7&#45;&gt;Node3</title>
<path fill="none" stroke="#404040" d="M362.8822,-942.371C378.395,-923.9325 396.9444,-898.6798 407.4166,-873 443.72,-783.9768 407.4442,-747.0025 450.4166,-661 455.2008,-651.4251 460.5615,-651.9603 466.4166,-643 485.6345,-613.59 503.0643,-579.8873 517.7914,-547.9335"/>
<polygon fill="none" stroke="#404040" points="517.9246,-547.6401 516.7635,-540.5231 522.8864,-536.714 524.0476,-543.831 517.9246,-547.6401"/>
<text text-anchor="middle" x="467.4166" y="-764.5" font-family="Helvetica,sans-Serif" font-size="10.00" fill="#000000"> +@72</text>
</g>
<!-- Node7&#45;&gt;Node8 -->
<g id="edge11" class="edge">
<title>Node7&#45;&gt;Node8</title>
<path fill="none" stroke="#404040" d="M336.4166,-942.2045C336.4166,-926.616 336.4166,-906.2061 336.4166,-884.8459"/>
<polygon fill="none" stroke="#404040" points="336.4167,-884.5491 332.4166,-878.5491 336.4166,-872.5491 340.4166,-878.5491 336.4167,-884.5491"/>
<text text-anchor="middle" x="353.4166" y="-905" font-family="Helvetica,sans-Serif" font-size="10.00" fill="#000000"> +@72</text>
</g>
<!-- Node7&#45;&gt;Node9 -->
<g id="edge16" class="edge">
<title>Node7&#45;&gt;Node9</title>
<path fill="none" stroke="#404040" d="M297.2282,-942.4694C275.0581,-924.6201 248.282,-899.9464 230.4166,-873 190.0592,-812.1291 98.7842,-609.4873 147.4166,-555 169.0175,-530.7985 257.9287,-550.0642 303.9056,-535.8039"/>
<polygon fill="none" stroke="#404040" points="304.0495,-535.7439 308.0464,-529.7418 315.1241,-531.1228 311.1272,-537.1249 304.0495,-535.7439"/>
<text text-anchor="middle" x="247.4166" y="-764.5" font-family="Helvetica,sans-Serif" font-size="10.00" fill="#000000"> +@72</text>
</g>
<!-- Node8&#45;&gt;Node3 -->
<g id="edge7" class="edge">
<title>Node8&#45;&gt;Node3</title>
<path fill="none" stroke="#ffa500" d="M326.1141,-651.2301C325.0856,-609.8294 328.0554,-569.7431 341.4166,-555 363.517,-530.6139 460.2076,-553.9518 488.4166,-537 491.4539,-535.1747 494.4032,-533.1806 497.2641,-531.0436"/>
<polygon fill="#ffa500" stroke="#ffa500" points="322.6242,-651.6028 326.4465,-661.4841 329.6206,-651.376 322.6242,-651.6028"/>
<text text-anchor="start" x="341.4166" y="-602" font-family="Helvetica,sans-Serif" font-size="10.00" fill="#000000"> &lt; gSizeDataOriginString,</text>
<text text-anchor="middle" x="403.9166" y="-591" font-family="Helvetica,sans-Serif" font-size="10.00" fill="#000000"> printDataOrigin &gt;</text>
</g>
<!-- Node8&#45;&gt;Node9 -->
<g id="edge17" class="edge">
<title>Node8&#45;&gt;Node9</title>
<path fill="none" stroke="#ffa500" d="M265.654,-716.1673C220.0098,-683.204 168.8661,-645.8615 167.4166,-643 149.7422,-608.1102 141.6112,-584.3898 167.4166,-555 187.8217,-531.7605 278.3553,-551.971 305.4166,-537 308.8204,-535.1169 312.1492,-533.0532 315.3998,-530.8374"/>
<polygon fill="#ffa500" stroke="#ffa500" points="263.6471,-719.0352 273.8042,-722.0491 267.7434,-713.359 263.6471,-719.0352"/>
<text text-anchor="start" x="167.4166" y="-602" font-family="Helvetica,sans-Serif" font-size="10.00" fill="#000000"> &lt; gSizeDataDescriptionString,</text>
<text text-anchor="middle" x="242.9166" y="-591" font-family="Helvetica,sans-Serif" font-size="10.00" fill="#000000"> printDataDescription &gt;</text>
</g>
<!-- Node9&#45;&gt;Node1 -->
<g id="edge12" class="edge">
<title>Node9&#45;&gt;Node1</title>
<path fill="none" stroke="#404040" d="M479.6368,-321.2041C482.5245,-318.703 485.4531,-316.2945 488.4166,-314 587.9401,-236.9421 723.4595,-181.9562 812.3952,-151.212"/>
<polygon fill="none" stroke="#404040" points="812.4595,-151.1901 816.8434,-145.4645 823.8146,-147.3091 819.4307,-153.0346 812.4595,-151.1901"/>
<text text-anchor="middle" x="594.4166" y="-277" font-family="Helvetica,sans-Serif" font-size="10.00" fill="#000000"> +description</text>
</g>
<!-- Node10 -->
<g id="node10" class="node">
<title>Node10</title>
<polygon fill="none" stroke="#bfbfbf" points="835.9166,-391.5 835.9166,-459.5 972.9166,-459.5 972.9166,-391.5 835.9166,-391.5"/>
<text text-anchor="start" x="843.9166" y="-447.5" font-family="Helvetica,sans-Serif" font-size="10.00" fill="#000000">vector&lt; o2::raw::RawFile</text>
<text text-anchor="middle" x="904.4166" y="-436.5" font-family="Helvetica,sans-Serif" font-size="10.00" fill="#000000">Reader::LinkBlock &gt;</text>
<polyline fill="none" stroke="#bfbfbf" points="835.9166,-429.5 972.9166,-429.5 "/>
<text text-anchor="middle" x="904.4166" y="-417.5" font-family="Helvetica,sans-Serif" font-size="10.00" fill="#000000"> </text>
<polyline fill="none" stroke="#bfbfbf" points="835.9166,-410.5 972.9166,-410.5 "/>
<text text-anchor="middle" x="904.4166" y="-398.5" font-family="Helvetica,sans-Serif" font-size="10.00" fill="#000000"> </text>
</g>
<!-- Node10&#45;&gt;Node1 -->
<g id="edge18" class="edge">
<title>Node10&#45;&gt;Node1</title>
<path fill="none" stroke="#404040" d="M904.4166,-391.331C904.4166,-358.374 904.4166,-306.3296 904.4166,-256.7757"/>
<polygon fill="none" stroke="#404040" points="904.4167,-256.5811 900.4166,-250.5811 904.4166,-244.5811 908.4166,-250.581 904.4167,-256.5811"/>
<text text-anchor="middle" x="925.9166" y="-277" font-family="Helvetica,sans-Serif" font-size="10.00" fill="#000000"> +blocks</text>
</g>
<!-- Node11 -->
<g id="node11" class="node">
<title>Node11</title>
<polygon fill="none" stroke="#bfbfbf" points="991.4166,-397 991.4166,-454 1029.4166,-454 1029.4166,-397 991.4166,-397"/>
<text text-anchor="middle" x="1010.4166" y="-442" font-family="Helvetica,sans-Serif" font-size="10.00" fill="#000000">bool</text>
<polyline fill="none" stroke="#bfbfbf" points="991.4166,-435 1029.4166,-435 "/>
<text text-anchor="middle" x="1010.4166" y="-423" font-family="Helvetica,sans-Serif" font-size="10.00" fill="#000000"> </text>
<polyline fill="none" stroke="#bfbfbf" points="991.4166,-416 1029.4166,-416 "/>
<text text-anchor="middle" x="1010.4166" y="-404" font-family="Helvetica,sans-Serif" font-size="10.00" fill="#000000"> </text>
</g>
<!-- Node11&#45;&gt;Node1 -->
<g id="edge20" class="edge">
<title>Node11&#45;&gt;Node1</title>
<path fill="none" stroke="#404040" d="M1004.0182,-396.7944C998.7047,-374.1007 990.5577,-341.7348 981.4166,-314 975.1811,-295.0813 968.0229,-275.3491 960.6367,-256.0488"/>
<polygon fill="none" stroke="#404040" points="960.5936,-255.9371 954.6993,-251.783 956.2668,-244.7443 962.1611,-248.8984 960.5936,-255.9371"/>
<text text-anchor="middle" x="1012.4166" y="-288" font-family="Helvetica,sans-Serif" font-size="10.00" fill="#000000"> +openHB</text>
<text text-anchor="middle" x="1012.4166" y="-277" font-family="Helvetica,sans-Serif" font-size="10.00" fill="#000000">+cruDetector</text>
<text text-anchor="middle" x="1012.4166" y="-266" font-family="Helvetica,sans-Serif" font-size="10.00" fill="#000000">+continuousRO</text>
</g>
<!-- Node12 -->
<g id="node12" class="node">
<title>Node12</title>
<g id="a_node12"><a xlink:href="../../d2/d5f/classunsigned_01int.html" target="_top" xlink:title="{unsigned int\n||}">
<polygon fill="none" stroke="#000000" points="1047.9166,-397 1047.9166,-454 1124.9166,-454 1124.9166,-397 1047.9166,-397"/>
<text text-anchor="middle" x="1086.4166" y="-442" font-family="Helvetica,sans-Serif" font-size="10.00" fill="#000000">unsigned int</text>
<polyline fill="none" stroke="#000000" points="1047.9166,-435 1124.9166,-435 "/>
<text text-anchor="middle" x="1086.4166" y="-423" font-family="Helvetica,sans-Serif" font-size="10.00" fill="#000000"> </text>
<polyline fill="none" stroke="#000000" points="1047.9166,-416 1124.9166,-416 "/>
<text text-anchor="middle" x="1086.4166" y="-404" font-family="Helvetica,sans-Serif" font-size="10.00" fill="#000000"> </text>
</a>
</g>
</g>
<!-- Node12&#45;&gt;Node1 -->
<g id="edge21" class="edge">
<title>Node12&#45;&gt;Node1</title>
<path fill="none" stroke="#404040" d="M1086.0198,-396.9787C1084.416,-363.0426 1078.0499,-305.6239 1054.4166,-263 1039.2947,-235.7268 1017.0149,-210.6999 994.2272,-189.5644"/>
<polygon fill="none" stroke="#404040" points="994.0461,-189.4008 986.9124,-188.3473 985.1411,-181.3571 992.2748,-182.4106 994.0461,-189.4008"/>
<text text-anchor="middle" x="1095.4166" y="-277" font-family="Helvetica,sans-Serif" font-size="10.00" fill="#000000"> +subspec</text>
</g>
<!-- Node13 -->
<g id="node13" class="node">
<title>Node13</title>
<polygon fill="none" stroke="#bfbfbf" points="1216.9166,-738.5 1216.9166,-795.5 1277.9166,-795.5 1277.9166,-738.5 1216.9166,-738.5"/>
<text text-anchor="middle" x="1247.4166" y="-783.5" font-family="Helvetica,sans-Serif" font-size="10.00" fill="#000000">unsigned</text>
<polyline fill="none" stroke="#bfbfbf" points="1216.9166,-776.5 1277.9166,-776.5 "/>
<text text-anchor="middle" x="1247.4166" y="-764.5" font-family="Helvetica,sans-Serif" font-size="10.00" fill="#000000"> </text>
<polyline fill="none" stroke="#bfbfbf" points="1216.9166,-757.5 1277.9166,-757.5 "/>
<text text-anchor="middle" x="1247.4166" y="-745.5" font-family="Helvetica,sans-Serif" font-size="10.00" fill="#000000"> </text>
</g>
<!-- Node13&#45;&gt;Node1 -->
<g id="edge22" class="edge">
<title>Node13&#45;&gt;Node1</title>
<path fill="none" stroke="#404040" d="M1258.4998,-738.4642C1285.8664,-662.9685 1348.6792,-454.1934 1266.4166,-314 1209.3107,-216.6791 1083.8828,-166.426 996.7916,-142.2853"/>
<polygon fill="none" stroke="#404040" points="996.6228,-142.2399 989.7891,-144.5423 985.0354,-139.1198 991.8691,-136.8174 996.6228,-142.2399"/>
<text text-anchor="middle" x="1346.4166" y="-439.5" font-family="Helvetica,sans-Serif" font-size="10.00" fill="#000000"> +nTimeFrames</text>
<text text-anchor="middle" x="1346.4166" y="-428.5" font-family="Helvetica,sans-Serif" font-size="10.00" fill="#000000">+nHBFrames</text>
<text text-anchor="middle" x="1346.4166" y="-417.5" font-family="Helvetica,sans-Serif" font-size="10.00" fill="#000000">+nCRUPages</text>
<text text-anchor="middle" x="1346.4166" y="-406.5" font-family="Helvetica,sans-Serif" font-size="10.00" fill="#000000">+nSPages</text>
</g>
<!-- Node14 -->
<g id="node14" class="node">
<title>Node14</title>
<g id="a_node14"><a xlink:href="../../d3/d22/structo2_1_1header_1_1RDHAny.html" target="_top" xlink:title="{o2::header::RDHAny\n||+ RDHAny()\l+ RDHAny()\l+ operator=()\l+ GPUhdi()\l+ GPUhdi()\l+ GPUhdi()\l+ GPUhdi()\l+ GPUhdi()\l+ GPUhdi()\l+ GPUhdi()\l+ GPUhdi()\l# copyFrom()\l}">
<polygon fill="none" stroke="#000000" points="1142.9166,-336.5 1142.9166,-514.5 1257.9166,-514.5 1257.9166,-336.5 1142.9166,-336.5"/>
<text text-anchor="middle" x="1200.4166" y="-502.5" font-family="Helvetica,sans-Serif" font-size="10.00" fill="#000000">o2::header::RDHAny</text>
<polyline fill="none" stroke="#000000" points="1142.9166,-495.5 1257.9166,-495.5 "/>
<text text-anchor="middle" x="1200.4166" y="-483.5" font-family="Helvetica,sans-Serif" font-size="10.00" fill="#000000"> </text>
<polyline fill="none" stroke="#000000" points="1142.9166,-476.5 1257.9166,-476.5 "/>
<text text-anchor="start" x="1150.9166" y="-464.5" font-family="Helvetica,sans-Serif" font-size="10.00" fill="#000000">+ RDHAny()</text>
<text text-anchor="start" x="1150.9166" y="-453.5" font-family="Helvetica,sans-Serif" font-size="10.00" fill="#000000">+ RDHAny()</text>
<text text-anchor="start" x="1150.9166" y="-442.5" font-family="Helvetica,sans-Serif" font-size="10.00" fill="#000000">+ operator=()</text>
<text text-anchor="start" x="1150.9166" y="-431.5" font-family="Helvetica,sans-Serif" font-size="10.00" fill="#000000">+ GPUhdi()</text>
<text text-anchor="start" x="1150.9166" y="-420.5" font-family="Helvetica,sans-Serif" font-size="10.00" fill="#000000">+ GPUhdi()</text>
<text text-anchor="start" x="1150.9166" y="-409.5" font-family="Helvetica,sans-Serif" font-size="10.00" fill="#000000">+ GPUhdi()</text>
<text text-anchor="start" x="1150.9166" y="-398.5" font-family="Helvetica,sans-Serif" font-size="10.00" fill="#000000">+ GPUhdi()</text>
<text text-anchor="start" x="1150.9166" y="-387.5" font-family="Helvetica,sans-Serif" font-size="10.00" fill="#000000">+ GPUhdi()</text>
<text text-anchor="start" x="1150.9166" y="-376.5" font-family="Helvetica,sans-Serif" font-size="10.00" fill="#000000">+ GPUhdi()</text>
<text text-anchor="start" x="1150.9166" y="-365.5" font-family="Helvetica,sans-Serif" font-size="10.00" fill="#000000">+ GPUhdi()</text>
<text text-anchor="start" x="1150.9166" y="-354.5" font-family="Helvetica,sans-Serif" font-size="10.00" fill="#000000">+ GPUhdi()</text>
<text text-anchor="start" x="1150.9166" y="-343.5" font-family="Helvetica,sans-Serif" font-size="10.00" fill="#000000"># copyFrom()</text>
</a>
</g>
</g>
<!-- Node13&#45;&gt;Node14 -->
<g id="edge24" class="edge">
<title>Node13&#45;&gt;Node14</title>
<path fill="none" stroke="#404040" d="M1243.4902,-738.4713C1237.1474,-692.3844 1224.3467,-599.3752 1214.3404,-526.6699"/>
<polygon fill="none" stroke="#404040" points="1214.333,-526.6156 1209.5523,-521.2171 1212.6968,-514.7277 1217.4776,-520.1263 1214.333,-526.6156"/>
<text text-anchor="middle" x="1251.4166" y="-635" font-family="Helvetica,sans-Serif" font-size="10.00" fill="#000000"> +word7</text>
<text text-anchor="middle" x="1251.4166" y="-624" font-family="Helvetica,sans-Serif" font-size="10.00" fill="#000000">+word0</text>
<text text-anchor="middle" x="1251.4166" y="-613" font-family="Helvetica,sans-Serif" font-size="10.00" fill="#000000">+word1</text>
<text text-anchor="middle" x="1251.4166" y="-602" font-family="Helvetica,sans-Serif" font-size="10.00" fill="#000000">+word2</text>
<text text-anchor="middle" x="1251.4166" y="-591" font-family="Helvetica,sans-Serif" font-size="10.00" fill="#000000">+word3</text>
<text text-anchor="middle" x="1251.4166" y="-580" font-family="Helvetica,sans-Serif" font-size="10.00" fill="#000000">+word4</text>
<text text-anchor="middle" x="1251.4166" y="-569" font-family="Helvetica,sans-Serif" font-size="10.00" fill="#000000">+word5</text>
<text text-anchor="middle" x="1251.4166" y="-558" font-family="Helvetica,sans-Serif" font-size="10.00" fill="#000000">+word6</text>
</g>
<!-- Node14&#45;&gt;Node1 -->
<g id="edge23" class="edge">
<title>Node14&#45;&gt;Node1</title>
<path fill="none" stroke="#404040" d="M1170.1158,-336.1085C1158.7213,-310.6793 1143.9257,-284.1692 1125.4166,-263 1089.7522,-222.21 1039.3997,-188.9494 995.7634,-165.0476"/>
<polygon fill="none" stroke="#404040" points="995.689,-165.0077 988.5103,-165.691 985.1186,-159.3273 992.2972,-158.644 995.689,-165.0077"/>
<text text-anchor="middle" x="1163.9166" y="-277" font-family="Helvetica,sans-Serif" font-size="10.00" fill="#000000"> +rdhl</text>
</g>
</g>
</svg>
