<?xml version="1.0" encoding="UTF-8" standalone="no"?>
<!DOCTYPE svg PUBLIC "-//W3C//DTD SVG 1.1//EN"
 "http://www.w3.org/Graphics/SVG/1.1/DTD/svg11.dtd">
<!-- Generated by graphviz version 2.40.1 (20161225.0304)
 -->
<!-- Title: o2::tpc::zerosupp_link_based::Header Pages: 1 -->
<svg width="454pt" height="259pt"
 viewBox="0.00 0.00 453.50 259.00" xmlns="http://www.w3.org/2000/svg" xmlns:xlink="http://www.w3.org/1999/xlink">
<g id="graph0" class="graph" transform="scale(1 1) rotate(0) translate(4 255)">
<title>o2::tpc::zerosupp_link_based::Header</title>
<!-- Node1 -->
<g id="node1" class="node">
<title>Node1</title>
<polygon fill="#bfbfbf" stroke="#000000" points="147,-.5 147,-79.5 288,-79.5 288,-.5 147,-.5"/>
<text text-anchor="start" x="155" y="-67.5" font-family="Helvetica,sans-Serif" font-size="10.00" fill="#000000">o2::tpc::zerosupp_link</text>
<text text-anchor="middle" x="217.5" y="-56.5" font-family="Helvetica,sans-Serif" font-size="10.00" fill="#000000">_based::Header</text>
<polyline fill="none" stroke="#000000" points="147,-49.5 288,-49.5 "/>
<text text-anchor="middle" x="217.5" y="-37.5" font-family="Helvetica,sans-Serif" font-size="10.00" fill="#000000"> </text>
<polyline fill="none" stroke="#000000" points="147,-30.5 288,-30.5 "/>
<text text-anchor="start" x="155" y="-18.5" font-family="Helvetica,sans-Serif" font-size="10.00" fill="#000000">+ getChannelBits()</text>
<text text-anchor="start" x="155" y="-7.5" font-family="Helvetica,sans-Serif" font-size="10.00" fill="#000000">+ hasCorrectMagicWord()</text>
</g>
<!-- Node2 -->
<g id="node2" class="node">
<title>Node2</title>
<polygon fill="none" stroke="#bfbfbf" points="0,-193.5 0,-250.5 107,-250.5 107,-193.5 0,-193.5"/>
<text text-anchor="middle" x="53.5" y="-238.5" font-family="Helvetica,sans-Serif" font-size="10.00" fill="#000000">anonymous:+@40</text>
<polyline fill="none" stroke="#bfbfbf" points="0,-231.5 107,-231.5 "/>
<text text-anchor="middle" x="53.5" y="-219.5" font-family="Helvetica,sans-Serif" font-size="10.00" fill="#000000"> </text>
<polyline fill="none" stroke="#bfbfbf" points="0,-212.5 107,-212.5 "/>
<text text-anchor="middle" x="53.5" y="-200.5" font-family="Helvetica,sans-Serif" font-size="10.00" fill="#000000"> </text>
</g>
<!-- Node2&#45;&gt;Node1 -->
<g id="edge1" class="edge">
<title>Node2&#45;&gt;Node1</title>
<path fill="none" stroke="#404040" d="M72.326,-193.4481C90.1887,-167.3201 118.5396,-128.2418 147.5,-98 150.7833,-94.5715 154.2613,-91.148 157.8431,-87.7756"/>
<polygon fill="none" stroke="#404040" points="158.0337,-87.602 159.7784,-80.6051 166.908,-79.5244 165.1634,-86.5213 158.0337,-87.602"/>
<text text-anchor="middle" x="164.5" y="-134" font-family="Helvetica,sans-Serif" font-size="10.00" fill="#000000"> +@40</text>
</g>
<!-- Node3 -->
<g id="node3" class="node">
<title>Node3</title>
<polygon fill="none" stroke="#bfbfbf" points="125,-193.5 125,-250.5 232,-250.5 232,-193.5 125,-193.5"/>
<text text-anchor="middle" x="178.5" y="-238.5" font-family="Helvetica,sans-Serif" font-size="10.00" fill="#000000">anonymous:+@42</text>
<polyline fill="none" stroke="#bfbfbf" points="125,-231.5 232,-231.5 "/>
<text text-anchor="middle" x="178.5" y="-219.5" font-family="Helvetica,sans-Serif" font-size="10.00" fill="#000000"> </text>
<polyline fill="none" stroke="#bfbfbf" points="125,-212.5 232,-212.5 "/>
<text text-anchor="middle" x="178.5" y="-200.5" font-family="Helvetica,sans-Serif" font-size="10.00" fill="#000000"> </text>
</g>
<!-- Node3&#45;&gt;Node1 -->
<g id="edge2" class="edge">
<title>Node3&#45;&gt;Node1</title>
<path fill="none" stroke="#404040" d="M183.1066,-193.2908C187.3249,-168.0658 194.0333,-130.4319 201.5,-98 202.0185,-95.7478 202.5669,-93.4517 203.1361,-91.1361"/>
<polygon fill="none" stroke="#404040" points="203.1368,-91.1332 200.7506,-84.3283 206.1142,-79.5084 208.5004,-86.3133 203.1368,-91.1332"/>
<text text-anchor="middle" x="218.5" y="-134" font-family="Helvetica,sans-Serif" font-size="10.00" fill="#000000"> +@42</text>
</g>
<!-- Node4 -->
<g id="node4" class="node">
<title>Node4</title>
<polygon fill="none" stroke="#bfbfbf" points="250,-193.5 250,-250.5 311,-250.5 311,-193.5 250,-193.5"/>
<text text-anchor="middle" x="280.5" y="-238.5" font-family="Helvetica,sans-Serif" font-size="10.00" fill="#000000">unsigned</text>
<polyline fill="none" stroke="#bfbfbf" points="250,-231.5 311,-231.5 "/>
<text text-anchor="middle" x="280.5" y="-219.5" font-family="Helvetica,sans-Serif" font-size="10.00" fill="#000000"> </text>
<polyline fill="none" stroke="#bfbfbf" points="250,-212.5 311,-212.5 "/>
<text text-anchor="middle" x="280.5" y="-200.5" font-family="Helvetica,sans-Serif" font-size="10.00" fill="#000000"> </text>
</g>
<!-- Node4&#45;&gt;Node1 -->
<g id="edge3" class="edge">
<title>Node4&#45;&gt;Node1</title>
<path fill="none" stroke="#404040" d="M266.3212,-193.4565C263.5602,-187.4315 260.8096,-181.0617 258.5,-175 245.7835,-141.6242 245.9044,-132.1673 235.5,-98 234.8205,-95.7685 234.124,-93.4895 233.4185,-91.1878"/>
<polygon fill="none" stroke="#404040" points="233.3838,-91.0751 227.7956,-86.5175 229.8532,-79.6062 235.4415,-84.1638 233.3838,-91.0751"/>
<text text-anchor="middle" x="308" y="-167" font-family="Helvetica,sans-Serif" font-size="10.00" fill="#000000"> +magicWord</text>
<text text-anchor="middle" x="308" y="-156" font-family="Helvetica,sans-Serif" font-size="10.00" fill="#000000">+bitMaskLow</text>
<text text-anchor="middle" x="308" y="-145" font-family="Helvetica,sans-Serif" font-size="10.00" fill="#000000">+word0</text>
<text text-anchor="middle" x="308" y="-134" font-family="Helvetica,sans-Serif" font-size="10.00" fill="#000000">+word1</text>
<text text-anchor="middle" x="308" y="-123" font-family="Helvetica,sans-Serif" font-size="10.00" fill="#000000">+numWordsPayload</text>
<text text-anchor="middle" x="308" y="-112" font-family="Helvetica,sans-Serif" font-size="10.00" fill="#000000">+bitMaskHigh</text>
<text text-anchor="middle" x="308" y="-101" font-family="Helvetica,sans-Serif" font-size="10.00" fill="#000000">+bunchCrossing</text>
</g>
<!-- Node5 -->
<g id="node5" class="node">
<title>Node5</title>
<polygon fill="none" stroke="#bfbfbf" points="357.5,-193.5 357.5,-250.5 401.5,-250.5 401.5,-193.5 357.5,-193.5"/>
<text text-anchor="middle" x="379.5" y="-238.5" font-family="Helvetica,sans-Serif" font-size="10.00" fill="#000000">static</text>
<polyline fill="none" stroke="#bfbfbf" points="357.5,-231.5 401.5,-231.5 "/>
<text text-anchor="middle" x="379.5" y="-219.5" font-family="Helvetica,sans-Serif" font-size="10.00" fill="#000000"> </text>
<polyline fill="none" stroke="#bfbfbf" points="357.5,-212.5 401.5,-212.5 "/>
<text text-anchor="middle" x="379.5" y="-200.5" font-family="Helvetica,sans-Serif" font-size="10.00" fill="#000000"> </text>
</g>
<!-- Node5&#45;&gt;Node1 -->
<g id="edge4" class="edge">
<title>Node5&#45;&gt;Node1</title>
<path fill="none" stroke="#404040" d="M381.8022,-193.4969C382.4661,-166.1118 379.2045,-125.0156 357.5,-98 342.7668,-79.6615 321.2465,-67.0578 299.4776,-58.42"/>
<polygon fill="none" stroke="#404040" points="299.3739,-58.382 292.3642,-60.0746 288.1058,-54.2551 295.1155,-52.5626 299.3739,-58.382"/>
<text text-anchor="middle" x="413" y="-134" font-family="Helvetica,sans-Serif" font-size="10.00" fill="#000000"> +MagicWord</text>
</g>
</g>
</svg>
