<?xml version="1.0" encoding="UTF-8" standalone="no"?>
<!DOCTYPE svg PUBLIC "-//W3C//DTD SVG 1.1//EN"
 "http://www.w3.org/Graphics/SVG/1.1/DTD/svg11.dtd">
<!-- Generated by graphviz version 2.40.1 (20161225.0304)
 -->
<!-- Title: o2::soa::CombinationsBlockFullSameIndexPolicy&lt; T1, T, Ts &gt; Pages: 1 -->
<svg width="888pt" height="917pt"
 viewBox="0.00 0.00 888.47 917.00" xmlns="http://www.w3.org/2000/svg" xmlns:xlink="http://www.w3.org/1999/xlink">
<g id="graph0" class="graph" transform="scale(1 1) rotate(0) translate(4 913)">
<title>o2::soa::CombinationsBlockFullSameIndexPolicy&lt; T1, T, Ts &gt;</title>
<!-- Node5 -->
<g id="node1" class="node">
<title>Node5</title>
<polygon fill="#bfbfbf" stroke="#000000" points="609.9734,-.5 609.9734,-112.5 776.9734,-112.5 776.9734,-.5 609.9734,-.5"/>
<text text-anchor="start" x="617.9734" y="-100.5" font-family="Helvetica,sans-Serif" font-size="10.00" fill="#000000">o2::soa::CombinationsBlock</text>
<text text-anchor="start" x="617.9734" y="-89.5" font-family="Helvetica,sans-Serif" font-size="10.00" fill="#000000">FullSameIndexPolicy&lt; T1,</text>
<text text-anchor="middle" x="693.4734" y="-78.5" font-family="Helvetica,sans-Serif" font-size="10.00" fill="#000000"> T, Ts &gt;</text>
<polyline fill="none" stroke="#000000" points="609.9734,-71.5 776.9734,-71.5 "/>
<text text-anchor="middle" x="693.4734" y="-59.5" font-family="Helvetica,sans-Serif" font-size="10.00" fill="#000000"> </text>
<polyline fill="none" stroke="#000000" points="609.9734,-52.5 776.9734,-52.5 "/>
<text text-anchor="start" x="617.9734" y="-40.5" font-family="Helvetica,sans-Serif" font-size="10.00" fill="#000000">+ CombinationsBlockFullSame</text>
<text text-anchor="start" x="617.9734" y="-29.5" font-family="Helvetica,sans-Serif" font-size="10.00" fill="#000000">IndexPolicy()</text>
<text text-anchor="start" x="617.9734" y="-18.5" font-family="Helvetica,sans-Serif" font-size="10.00" fill="#000000">+ setRanges()</text>
<text text-anchor="start" x="617.9734" y="-7.5" font-family="Helvetica,sans-Serif" font-size="10.00" fill="#000000">+ addOne()</text>
</g>
<!-- Node6 -->
<g id="node2" class="node">
<title>Node6</title>
<g id="a_node2"><a xlink:href="../../d3/dc5/structo2_1_1soa_1_1CombinationsBlockSameIndexPolicyBase.html" target="_top" xlink:title="{o2::soa::CombinationsBlock\lSameIndexPolicyBase\&lt; T1,\l T, Ts... \&gt;\n||+ CombinationsBlockSameIndex\lPolicyBase()\l}">
<polygon fill="none" stroke="#000000" points="427.9734,-150.5 427.9734,-240.5 604.9734,-240.5 604.9734,-150.5 427.9734,-150.5"/>
<text text-anchor="start" x="435.9734" y="-228.5" font-family="Helvetica,sans-Serif" font-size="10.00" fill="#000000">o2::soa::CombinationsBlock</text>
<text text-anchor="start" x="435.9734" y="-217.5" font-family="Helvetica,sans-Serif" font-size="10.00" fill="#000000">SameIndexPolicyBase&lt; T1,</text>
<text text-anchor="middle" x="516.4734" y="-206.5" font-family="Helvetica,sans-Serif" font-size="10.00" fill="#000000"> T, Ts... &gt;</text>
<polyline fill="none" stroke="#000000" points="427.9734,-199.5 604.9734,-199.5 "/>
<text text-anchor="middle" x="516.4734" y="-187.5" font-family="Helvetica,sans-Serif" font-size="10.00" fill="#000000"> </text>
<polyline fill="none" stroke="#000000" points="427.9734,-180.5 604.9734,-180.5 "/>
<text text-anchor="start" x="435.9734" y="-168.5" font-family="Helvetica,sans-Serif" font-size="10.00" fill="#000000">+ CombinationsBlockSameIndex</text>
<text text-anchor="start" x="435.9734" y="-157.5" font-family="Helvetica,sans-Serif" font-size="10.00" fill="#000000">PolicyBase()</text>
</a>
</g>
</g>
<!-- Node6&#45;&gt;Node5 -->
<g id="edge1" class="edge">
<title>Node6&#45;&gt;Node5</title>
<path fill="none" stroke="#191970" d="M581.9668,-144.0674C595.0249,-133.8127 608.801,-122.9942 622.0467,-112.5922"/>
<polygon fill="none" stroke="#191970" points="579.6433,-141.4417 573.9403,-150.3707 583.9667,-146.9471 579.6433,-141.4417"/>
</g>
<!-- Node7 -->
<g id="node3" class="node">
<title>Node7</title>
<g id="a_node3"><a xlink:href="../../de/dac/structo2_1_1soa_1_1CombinationsIndexPolicyBase.html" target="_top" xlink:title="{o2::soa::CombinationsIndex\lPolicyBase\&lt; T, Ts... \&gt;\n||+ CombinationsIndexPolicyBase()\l+ moveToEnd()\l+ addOne()\l}">
<polygon fill="none" stroke="#000000" points="79.9734,-437.5 79.9734,-527.5 262.9734,-527.5 262.9734,-437.5 79.9734,-437.5"/>
<text text-anchor="start" x="87.9734" y="-515.5" font-family="Helvetica,sans-Serif" font-size="10.00" fill="#000000">o2::soa::CombinationsIndex</text>
<text text-anchor="middle" x="171.4734" y="-504.5" font-family="Helvetica,sans-Serif" font-size="10.00" fill="#000000">PolicyBase&lt; T, Ts... &gt;</text>
<polyline fill="none" stroke="#000000" points="79.9734,-497.5 262.9734,-497.5 "/>
<text text-anchor="middle" x="171.4734" y="-485.5" font-family="Helvetica,sans-Serif" font-size="10.00" fill="#000000"> </text>
<polyline fill="none" stroke="#000000" points="79.9734,-478.5 262.9734,-478.5 "/>
<text text-anchor="start" x="87.9734" y="-466.5" font-family="Helvetica,sans-Serif" font-size="10.00" fill="#000000">+ CombinationsIndexPolicyBase()</text>
<text text-anchor="start" x="87.9734" y="-455.5" font-family="Helvetica,sans-Serif" font-size="10.00" fill="#000000">+ moveToEnd()</text>
<text text-anchor="start" x="87.9734" y="-444.5" font-family="Helvetica,sans-Serif" font-size="10.00" fill="#000000">+ addOne()</text>
</a>
</g>
</g>
<!-- Node7&#45;&gt;Node6 -->
<g id="edge2" class="edge">
<title>Node7&#45;&gt;Node6</title>
<path fill="none" stroke="#191970" d="M179.6238,-427.505C190.6822,-374.488 216.0024,-296.888 272.4734,-259 318.5458,-228.0888 378.8101,-212.2205 427.9188,-204.0767"/>
<polygon fill="none" stroke="#191970" points="176.1672,-426.9429 177.6589,-437.4321 183.034,-428.3021 176.1672,-426.9429"/>
</g>
<!-- Node16 -->
<g id="node12" class="node">
<title>Node16</title>
<g id="a_node12"><a xlink:href="../../d3/dc5/structo2_1_1soa_1_1CombinationsBlockSameIndexPolicyBase.html" target="_top" xlink:title="{o2::soa::CombinationsBlock\lSameIndexPolicyBase\&lt; T1,\l T, Ts \&gt;\n||+ CombinationsBlockSameIndex\lPolicyBase()\l}">
<polygon fill="none" stroke="#000000" points="365.9734,-299.5 365.9734,-389.5 542.9734,-389.5 542.9734,-299.5 365.9734,-299.5"/>
<text text-anchor="start" x="373.9734" y="-377.5" font-family="Helvetica,sans-Serif" font-size="10.00" fill="#000000">o2::soa::CombinationsBlock</text>
<text text-anchor="start" x="373.9734" y="-366.5" font-family="Helvetica,sans-Serif" font-size="10.00" fill="#000000">SameIndexPolicyBase&lt; T1,</text>
<text text-anchor="middle" x="454.4734" y="-355.5" font-family="Helvetica,sans-Serif" font-size="10.00" fill="#000000"> T, Ts &gt;</text>
<polyline fill="none" stroke="#000000" points="365.9734,-348.5 542.9734,-348.5 "/>
<text text-anchor="middle" x="454.4734" y="-336.5" font-family="Helvetica,sans-Serif" font-size="10.00" fill="#000000"> </text>
<polyline fill="none" stroke="#000000" points="365.9734,-329.5 542.9734,-329.5 "/>
<text text-anchor="start" x="373.9734" y="-317.5" font-family="Helvetica,sans-Serif" font-size="10.00" fill="#000000">+ CombinationsBlockSameIndex</text>
<text text-anchor="start" x="373.9734" y="-306.5" font-family="Helvetica,sans-Serif" font-size="10.00" fill="#000000">PolicyBase()</text>
</a>
</g>
</g>
<!-- Node7&#45;&gt;Node16 -->
<g id="edge16" class="edge">
<title>Node7&#45;&gt;Node16</title>
<path fill="none" stroke="#191970" d="M272.7167,-433.1305C303.1842,-418.2736 336.3678,-402.0922 365.9432,-387.6702"/>
<polygon fill="none" stroke="#191970" points="270.8097,-430.1664 263.3554,-437.6954 273.8778,-436.4582 270.8097,-430.1664"/>
</g>
<!-- Node8 -->
<g id="node4" class="node">
<title>Node8</title>
<polygon fill="none" stroke="#bfbfbf" points="342.9734,-724.5 342.9734,-792.5 457.9734,-792.5 457.9734,-724.5 342.9734,-724.5"/>
<text text-anchor="start" x="350.9734" y="-780.5" font-family="Helvetica,sans-Serif" font-size="10.00" fill="#000000">tuple&lt; typename Ts</text>
<text text-anchor="middle" x="400.4734" y="-769.5" font-family="Helvetica,sans-Serif" font-size="10.00" fill="#000000">::iterator... &gt;</text>
<polyline fill="none" stroke="#bfbfbf" points="342.9734,-762.5 457.9734,-762.5 "/>
<text text-anchor="middle" x="400.4734" y="-750.5" font-family="Helvetica,sans-Serif" font-size="10.00" fill="#000000"> </text>
<polyline fill="none" stroke="#bfbfbf" points="342.9734,-743.5 457.9734,-743.5 "/>
<text text-anchor="middle" x="400.4734" y="-731.5" font-family="Helvetica,sans-Serif" font-size="10.00" fill="#000000"> </text>
</g>
<!-- Node8&#45;&gt;Node7 -->
<g id="edge3" class="edge">
<title>Node8&#45;&gt;Node7</title>
<path fill="none" stroke="#404040" d="M401.3062,-724.3468C400.5287,-684.4378 393.5879,-618.3543 359.4734,-575 356.169,-570.8006 316.2797,-550.9635 274.0913,-530.731"/>
<polygon fill="none" stroke="#404040" points="273.8702,-530.6253 266.7316,-531.6455 263.0443,-525.4484 270.1829,-524.4282 273.8702,-530.6253"/>
<text text-anchor="middle" x="425.4734" y="-618" font-family="Helvetica,sans-Serif" font-size="10.00" fill="#000000"> +mCurrent</text>
</g>
<!-- Node12 -->
<g id="node8" class="node">
<title>Node12</title>
<g id="a_node8"><a xlink:href="../../de/dac/structo2_1_1soa_1_1CombinationsIndexPolicyBase.html" target="_top" xlink:title="{o2::soa::CombinationsIndex\lPolicyBase\&lt; Ts \&gt;\n||+ CombinationsIndexPolicyBase()\l+ moveToEnd()\l+ addOne()\l}">
<polygon fill="none" stroke="#000000" points="73.9734,-575.5 73.9734,-665.5 256.9734,-665.5 256.9734,-575.5 73.9734,-575.5"/>
<text text-anchor="start" x="81.9734" y="-653.5" font-family="Helvetica,sans-Serif" font-size="10.00" fill="#000000">o2::soa::CombinationsIndex</text>
<text text-anchor="middle" x="165.4734" y="-642.5" font-family="Helvetica,sans-Serif" font-size="10.00" fill="#000000">PolicyBase&lt; Ts &gt;</text>
<polyline fill="none" stroke="#000000" points="73.9734,-635.5 256.9734,-635.5 "/>
<text text-anchor="middle" x="165.4734" y="-623.5" font-family="Helvetica,sans-Serif" font-size="10.00" fill="#000000"> </text>
<polyline fill="none" stroke="#000000" points="73.9734,-616.5 256.9734,-616.5 "/>
<text text-anchor="start" x="81.9734" y="-604.5" font-family="Helvetica,sans-Serif" font-size="10.00" fill="#000000">+ CombinationsIndexPolicyBase()</text>
<text text-anchor="start" x="81.9734" y="-593.5" font-family="Helvetica,sans-Serif" font-size="10.00" fill="#000000">+ moveToEnd()</text>
<text text-anchor="start" x="81.9734" y="-582.5" font-family="Helvetica,sans-Serif" font-size="10.00" fill="#000000">+ addOne()</text>
</a>
</g>
</g>
<!-- Node8&#45;&gt;Node12 -->
<g id="edge8" class="edge">
<title>Node8&#45;&gt;Node12</title>
<path fill="none" stroke="#404040" d="M342.685,-724.5647C315.5754,-708.645 282.6901,-689.3336 252.6448,-671.69"/>
<polygon fill="none" stroke="#404040" points="252.4978,-671.6037 245.2984,-672.0146 242.15,-665.5271 249.3494,-665.1161 252.4978,-671.6037"/>
<text text-anchor="middle" x="340.4734" y="-692.5" font-family="Helvetica,sans-Serif" font-size="10.00" fill="#000000"> +mCurrent</text>
</g>
<!-- Node9 -->
<g id="node5" class="node">
<title>Node9</title>
<polygon fill="none" stroke="#bfbfbf" points="5.4734,-730 5.4734,-787 43.4734,-787 43.4734,-730 5.4734,-730"/>
<text text-anchor="middle" x="24.4734" y="-775" font-family="Helvetica,sans-Serif" font-size="10.00" fill="#000000">bool</text>
<polyline fill="none" stroke="#bfbfbf" points="5.4734,-768 43.4734,-768 "/>
<text text-anchor="middle" x="24.4734" y="-756" font-family="Helvetica,sans-Serif" font-size="10.00" fill="#000000"> </text>
<polyline fill="none" stroke="#bfbfbf" points="5.4734,-749 43.4734,-749 "/>
<text text-anchor="middle" x="24.4734" y="-737" font-family="Helvetica,sans-Serif" font-size="10.00" fill="#000000"> </text>
</g>
<!-- Node9&#45;&gt;Node7 -->
<g id="edge4" class="edge">
<title>Node9&#45;&gt;Node7</title>
<path fill="none" stroke="#404040" d="M14.4013,-729.9139C2.856,-691.847 -11.1574,-623.6664 16.4734,-575 28.7062,-553.4544 48.1671,-536.3943 69.2247,-523.1041"/>
<polygon fill="none" stroke="#404040" points="69.3584,-523.0244 72.4637,-516.5162 79.6657,-516.8795 76.5603,-523.3877 69.3584,-523.0244"/>
<text text-anchor="middle" x="40.4734" y="-618" font-family="Helvetica,sans-Serif" font-size="10.00" fill="#000000"> +mIsEnd</text>
</g>
<!-- Node9&#45;&gt;Node12 -->
<g id="edge9" class="edge">
<title>Node9&#45;&gt;Node12</title>
<path fill="none" stroke="#404040" d="M38.3098,-729.9652C46.367,-715.1811 57.4931,-697.4571 70.4734,-684 73.9596,-680.3858 77.6852,-676.8655 81.5687,-673.4558"/>
<polygon fill="none" stroke="#404040" points="81.6545,-673.3845 83.7079,-666.4719 90.8786,-665.7087 88.8251,-672.6213 81.6545,-673.3845"/>
<text text-anchor="middle" x="94.4734" y="-692.5" font-family="Helvetica,sans-Serif" font-size="10.00" fill="#000000"> +mIsEnd</text>
</g>
<!-- Node10 -->
<g id="node6" class="node">
<title>Node10</title>
<g id="a_node6"><a xlink:href="../../dd/da8/structo2_1_1soa_1_1NTupleType.html" target="_top" xlink:title="{o2::soa::NTupleType\l\&lt; uint64_t, sizeof...(Ts)\&gt;\n||}">
<polygon fill="none" stroke="#000000" points="187.9734,-724.5 187.9734,-792.5 324.9734,-792.5 324.9734,-724.5 187.9734,-724.5"/>
<text text-anchor="start" x="195.9734" y="-780.5" font-family="Helvetica,sans-Serif" font-size="10.00" fill="#000000">o2::soa::NTupleType</text>
<text text-anchor="middle" x="256.4734" y="-769.5" font-family="Helvetica,sans-Serif" font-size="10.00" fill="#000000">&lt; uint64_t, sizeof...(Ts)&gt;</text>
<polyline fill="none" stroke="#000000" points="187.9734,-762.5 324.9734,-762.5 "/>
<text text-anchor="middle" x="256.4734" y="-750.5" font-family="Helvetica,sans-Serif" font-size="10.00" fill="#000000"> </text>
<polyline fill="none" stroke="#000000" points="187.9734,-743.5 324.9734,-743.5 "/>
<text text-anchor="middle" x="256.4734" y="-731.5" font-family="Helvetica,sans-Serif" font-size="10.00" fill="#000000"> </text>
</a>
</g>
</g>
<!-- Node10&#45;&gt;Node7 -->
<g id="edge5" class="edge">
<title>Node10&#45;&gt;Node7</title>
<path fill="none" stroke="#404040" d="M273.789,-724.4361C276.1428,-718.4313 278.1883,-712.1359 279.4734,-706 287.5991,-667.2026 286.151,-616.673 265.4734,-575 258.6479,-561.244 248.9467,-548.3467 238.3451,-536.8024"/>
<polygon fill="none" stroke="#404040" points="238.0265,-536.4727 230.9806,-534.9378 229.6875,-527.8436 236.7334,-529.3785 238.0265,-536.4727"/>
<text text-anchor="middle" x="319.9734" y="-618" font-family="Helvetica,sans-Serif" font-size="10.00" fill="#000000"> +mMaxOffset</text>
</g>
<!-- Node10&#45;&gt;Node12 -->
<g id="edge10" class="edge">
<title>Node10&#45;&gt;Node12</title>
<path fill="none" stroke="#404040" d="M187.8742,-746.6902C164.7426,-739.0776 141.3064,-726.5644 127.4734,-706 121.4132,-696.9907 121.1084,-686.857 123.9667,-676.8003"/>
<polygon fill="none" stroke="#404040" points="124.0029,-676.7083 122.4795,-669.66 128.3997,-665.5428 129.9231,-672.5912 124.0029,-676.7083"/>
<text text-anchor="middle" x="162.9734" y="-692.5" font-family="Helvetica,sans-Serif" font-size="10.00" fill="#000000"> +mMaxOffset</text>
</g>
<!-- Node11 -->
<g id="node7" class="node">
<title>Node11</title>
<g id="a_node7"><a xlink:href="../../dd/da8/structo2_1_1soa_1_1NTupleType.html" target="_top" xlink:title="{o2::soa::NTupleType\l\&lt; T, N, REST \&gt;\n||}">
<polygon fill="none" stroke="#000000" points="314.9734,-840.5 314.9734,-908.5 427.9734,-908.5 427.9734,-840.5 314.9734,-840.5"/>
<text text-anchor="start" x="322.9734" y="-896.5" font-family="Helvetica,sans-Serif" font-size="10.00" fill="#000000">o2::soa::NTupleType</text>
<text text-anchor="middle" x="371.4734" y="-885.5" font-family="Helvetica,sans-Serif" font-size="10.00" fill="#000000">&lt; T, N, REST &gt;</text>
<polyline fill="none" stroke="#000000" points="314.9734,-878.5 427.9734,-878.5 "/>
<text text-anchor="middle" x="371.4734" y="-866.5" font-family="Helvetica,sans-Serif" font-size="10.00" fill="#000000"> </text>
<polyline fill="none" stroke="#000000" points="314.9734,-859.5 427.9734,-859.5 "/>
<text text-anchor="middle" x="371.4734" y="-847.5" font-family="Helvetica,sans-Serif" font-size="10.00" fill="#000000"> </text>
</a>
</g>
</g>
<!-- Node11&#45;&gt;Node10 -->
<g id="edge6" class="edge">
<title>Node11&#45;&gt;Node10</title>
<path fill="none" stroke="#ffa500" d="M330.4682,-833.1382C317.3805,-819.9367 303.0474,-805.4789 290.5105,-792.833"/>
<polygon fill="#ffa500" stroke="#ffa500" points="328.0657,-835.6861 337.5917,-840.3236 333.0368,-830.7578 328.0657,-835.6861"/>
<text text-anchor="middle" x="379.4734" y="-814" font-family="Helvetica,sans-Serif" font-size="10.00" fill="#000000"> &lt; uint64_t, sizeof...(Ts)&gt;</text>
</g>
<!-- Node15 -->
<g id="node11" class="node">
<title>Node15</title>
<g id="a_node11"><a xlink:href="../../dd/da8/structo2_1_1soa_1_1NTupleType.html" target="_top" xlink:title="{o2::soa::NTupleType\l\&lt; uint64_t, sizeof...\l(Ts)+1 \&gt;\n||}">
<polygon fill="none" stroke="#000000" points="429.9734,-443 429.9734,-522 542.9734,-522 542.9734,-443 429.9734,-443"/>
<text text-anchor="start" x="437.9734" y="-510" font-family="Helvetica,sans-Serif" font-size="10.00" fill="#000000">o2::soa::NTupleType</text>
<text text-anchor="start" x="437.9734" y="-499" font-family="Helvetica,sans-Serif" font-size="10.00" fill="#000000">&lt; uint64_t, sizeof...</text>
<text text-anchor="middle" x="486.4734" y="-488" font-family="Helvetica,sans-Serif" font-size="10.00" fill="#000000">(Ts)+1 &gt;</text>
<polyline fill="none" stroke="#000000" points="429.9734,-481 542.9734,-481 "/>
<text text-anchor="middle" x="486.4734" y="-469" font-family="Helvetica,sans-Serif" font-size="10.00" fill="#000000"> </text>
<polyline fill="none" stroke="#000000" points="429.9734,-462 542.9734,-462 "/>
<text text-anchor="middle" x="486.4734" y="-450" font-family="Helvetica,sans-Serif" font-size="10.00" fill="#000000"> </text>
</a>
</g>
</g>
<!-- Node11&#45;&gt;Node15 -->
<g id="edge14" class="edge">
<title>Node11&#45;&gt;Node15</title>
<path fill="none" stroke="#ffa500" d="M435.9686,-835.2055C449.0281,-823.538 460.5669,-809.4082 466.4734,-793 499.7718,-700.4981 495.8327,-582.5857 490.7731,-522.1467"/>
<polygon fill="#ffa500" stroke="#ffa500" points="433.5383,-832.676 428.1347,-841.7892 438.042,-838.0348 433.5383,-832.676"/>
<text text-anchor="start" x="489.4734" y="-698" font-family="Helvetica,sans-Serif" font-size="10.00" fill="#000000"> &lt; uint64_t, sizeof...</text>
<text text-anchor="middle" x="538.4734" y="-687" font-family="Helvetica,sans-Serif" font-size="10.00" fill="#000000">(Ts)+1 &gt;</text>
</g>
<!-- Node12&#45;&gt;Node7 -->
<g id="edge7" class="edge">
<title>Node12&#45;&gt;Node7</title>
<path fill="none" stroke="#ffa500" d="M167.8826,-565.089C168.4212,-552.7026 168.9862,-539.7078 169.5044,-527.7879"/>
<polygon fill="#ffa500" stroke="#ffa500" points="164.3758,-565.171 167.4381,-575.3136 171.3692,-565.4751 164.3758,-565.171"/>
<text text-anchor="middle" x="197.9734" y="-549" font-family="Helvetica,sans-Serif" font-size="10.00" fill="#000000"> &lt; T, Ts... &gt;</text>
</g>
<!-- Node13 -->
<g id="node9" class="node">
<title>Node13</title>
<polygon fill="none" stroke="#bfbfbf" points="560.9734,-316 560.9734,-373 645.9734,-373 645.9734,-316 560.9734,-316"/>
<text text-anchor="middle" x="603.4734" y="-361" font-family="Helvetica,sans-Serif" font-size="10.00" fill="#000000">unsigned long</text>
<polyline fill="none" stroke="#bfbfbf" points="560.9734,-354 645.9734,-354 "/>
<text text-anchor="middle" x="603.4734" y="-342" font-family="Helvetica,sans-Serif" font-size="10.00" fill="#000000"> </text>
<polyline fill="none" stroke="#bfbfbf" points="560.9734,-335 645.9734,-335 "/>
<text text-anchor="middle" x="603.4734" y="-323" font-family="Helvetica,sans-Serif" font-size="10.00" fill="#000000"> </text>
</g>
<!-- Node13&#45;&gt;Node6 -->
<g id="edge11" class="edge">
<title>Node13&#45;&gt;Node6</title>
<path fill="none" stroke="#404040" d="M586.699,-315.7713C576.0057,-297.4575 561.7946,-273.1189 548.9546,-251.1286"/>
<polygon fill="none" stroke="#404040" points="548.8337,-250.9215 542.354,-247.757 542.7829,-240.5587 549.2626,-243.7231 548.8337,-250.9215"/>
<text text-anchor="middle" x="621.4734" y="-267.5" font-family="Helvetica,sans-Serif" font-size="10.00" fill="#000000"> +mSlidingWindowSize</text>
</g>
<!-- Node14 -->
<g id="node10" class="node">
<title>Node14</title>
<polygon fill="none" stroke="#bfbfbf" points="281.4734,-448.5 281.4734,-516.5 409.4734,-516.5 409.4734,-448.5 281.4734,-448.5"/>
<text text-anchor="start" x="289.4734" y="-504.5" font-family="Helvetica,sans-Serif" font-size="10.00" fill="#000000">vector&lt; std::pair&lt;</text>
<text text-anchor="middle" x="345.4734" y="-493.5" font-family="Helvetica,sans-Serif" font-size="10.00" fill="#000000"> uint64_t, uint64_t &gt; &gt;</text>
<polyline fill="none" stroke="#bfbfbf" points="281.4734,-486.5 409.4734,-486.5 "/>
<text text-anchor="middle" x="345.4734" y="-474.5" font-family="Helvetica,sans-Serif" font-size="10.00" fill="#000000"> </text>
<polyline fill="none" stroke="#bfbfbf" points="281.4734,-467.5 409.4734,-467.5 "/>
<text text-anchor="middle" x="345.4734" y="-455.5" font-family="Helvetica,sans-Serif" font-size="10.00" fill="#000000"> </text>
</g>
<!-- Node14&#45;&gt;Node6 -->
<g id="edge12" class="edge">
<title>Node14&#45;&gt;Node6</title>
<path fill="none" stroke="#404040" d="M302.5674,-448.3701C286.1029,-432.5751 269.1843,-412.3533 260.4734,-390 245.7884,-352.3158 237.8611,-332.5326 260.4734,-299 295.1927,-247.5137 360.3214,-221.6318 416.1957,-208.625"/>
<polygon fill="none" stroke="#404040" points="416.2433,-208.6146 421.2455,-203.4206 427.964,-206.0403 422.9617,-211.2344 416.2433,-208.6146"/>
<text text-anchor="middle" x="308.9734" y="-342" font-family="Helvetica,sans-Serif" font-size="10.00" fill="#000000"> +mGroupedIndices</text>
</g>
<!-- Node14&#45;&gt;Node16 -->
<g id="edge17" class="edge">
<title>Node14&#45;&gt;Node16</title>
<path fill="none" stroke="#404040" d="M342.3972,-448.1803C342.7403,-434.7772 345.1627,-419.8225 352.4734,-408 354.5579,-404.6291 356.8948,-401.4088 359.4353,-398.3353"/>
<polygon fill="none" stroke="#404040" points="359.4385,-398.3319 360.6014,-391.2151 367.618,-389.5514 366.455,-396.6682 359.4385,-398.3319"/>
<text text-anchor="middle" x="400.9734" y="-411" font-family="Helvetica,sans-Serif" font-size="10.00" fill="#000000"> +mGroupedIndices</text>
</g>
<!-- Node15&#45;&gt;Node6 -->
<g id="edge13" class="edge">
<title>Node15&#45;&gt;Node6</title>
<path fill="none" stroke="#404040" d="M543.4216,-471.9412C595.7305,-460.9473 667.6135,-442.1129 684.4734,-419 687.4233,-414.9561 722.0931,-315.7558 682.4734,-259 673.664,-246.3803 646.5141,-233.9536 616.6548,-223.4857"/>
<polygon fill="none" stroke="#404040" points="616.476,-223.4252 609.5095,-225.2876 605.1109,-219.5734 612.0774,-217.7109 616.476,-223.4252"/>
<text text-anchor="middle" x="746.4734" y="-342" font-family="Helvetica,sans-Serif" font-size="10.00" fill="#000000"> +mCurrentIndices</text>
</g>
<!-- Node15&#45;&gt;Node16 -->
<g id="edge18" class="edge">
<title>Node15&#45;&gt;Node16</title>
<path fill="none" stroke="#404040" d="M463.8458,-442.8466C460.4085,-435.1559 457.3776,-426.9959 455.4734,-419 454.1568,-413.4712 453.2627,-407.6457 452.6848,-401.7881"/>
<polygon fill="none" stroke="#404040" points="452.6843,-401.7795 448.3049,-396.0506 451.9087,-389.8046 456.2881,-395.5335 452.6843,-401.7795"/>
<text text-anchor="middle" x="501.4734" y="-411" font-family="Helvetica,sans-Serif" font-size="10.00" fill="#000000"> +mCurrentIndices</text>
</g>
<!-- Node16&#45;&gt;Node6 -->
<g id="edge15" class="edge">
<title>Node16&#45;&gt;Node6</title>
<path fill="none" stroke="#ffa500" d="M462.7138,-289.3124C465.191,-279.0094 468.3806,-268.5018 472.4734,-259 475.1264,-252.841 478.4215,-246.6655 482.0068,-240.7149"/>
<polygon fill="#ffa500" stroke="#ffa500" points="459.2938,-288.5684 460.5508,-299.0884 466.1285,-290.0806 459.2938,-288.5684"/>
<text text-anchor="middle" x="509.9734" y="-267.5" font-family="Helvetica,sans-Serif" font-size="10.00" fill="#000000"> &lt; T1, T, Ts... &gt;</text>
</g>
<!-- Node17 -->
<g id="node13" class="node">
<title>Node17</title>
<polygon fill="none" stroke="#bfbfbf" points="668.9734,-454 668.9734,-511 729.9734,-511 729.9734,-454 668.9734,-454"/>
<text text-anchor="middle" x="699.4734" y="-499" font-family="Helvetica,sans-Serif" font-size="10.00" fill="#000000">unsigned</text>
<polyline fill="none" stroke="#bfbfbf" points="668.9734,-492 729.9734,-492 "/>
<text text-anchor="middle" x="699.4734" y="-480" font-family="Helvetica,sans-Serif" font-size="10.00" fill="#000000"> </text>
<polyline fill="none" stroke="#bfbfbf" points="668.9734,-473 729.9734,-473 "/>
<text text-anchor="middle" x="699.4734" y="-461" font-family="Helvetica,sans-Serif" font-size="10.00" fill="#000000"> </text>
</g>
<!-- Node17&#45;&gt;Node5 -->
<g id="edge20" class="edge">
<title>Node17&#45;&gt;Node5</title>
<path fill="none" stroke="#404040" d="M730.4032,-463.2404C753.4312,-446.9257 783.1005,-421.2314 796.4734,-390 812.3933,-352.8206 804.5413,-338.6316 796.4734,-299 783.8183,-236.8341 754.6424,-170.8484 730.5618,-123.4293"/>
<polygon fill="none" stroke="#404040" points="730.5294,-123.3663 724.2269,-119.8622 725.0374,-112.6968 731.3399,-116.2009 730.5294,-123.3663"/>
<text text-anchor="middle" x="835.9734" y="-273" font-family="Helvetica,sans-Serif" font-size="10.00" fill="#000000"> +mBeginIndex</text>
<text text-anchor="middle" x="835.9734" y="-262" font-family="Helvetica,sans-Serif" font-size="10.00" fill="#000000">+mCurrentlyFixed</text>
</g>
<!-- Node17&#45;&gt;Node16 -->
<g id="edge19" class="edge">
<title>Node17&#45;&gt;Node16</title>
<path fill="none" stroke="#404040" d="M668.9394,-465.3012C638.01,-447.8797 588.6477,-420.0757 545.0735,-395.5319"/>
<polygon fill="none" stroke="#404040" points="544.8823,-395.4242 537.6914,-395.9647 534.4268,-389.5349 541.6176,-388.9944 544.8823,-395.4242"/>
<text text-anchor="middle" x="640.4734" y="-411" font-family="Helvetica,sans-Serif" font-size="10.00" fill="#000000"> +mSlidingWindowSize</text>
</g>
</g>
</svg>
