<?xml version="1.0" encoding="UTF-8" standalone="no"?>
<!DOCTYPE svg PUBLIC "-//W3C//DTD SVG 1.1//EN"
 "http://www.w3.org/Graphics/SVG/1.1/DTD/svg11.dtd">
<!-- Generated by graphviz version 2.40.1 (20161225.0304)
 -->
<!-- Title: o2::emcal::EMCALBlockHeader Pages: 1 -->
<svg width="1001pt" height="992pt"
 viewBox="0.00 0.00 1000.79 992.00" xmlns="http://www.w3.org/2000/svg" xmlns:xlink="http://www.w3.org/1999/xlink">
<g id="graph0" class="graph" transform="scale(1 1) rotate(0) translate(4 988)">
<title>o2::emcal::EMCALBlockHeader</title>
<!-- Node2 -->
<g id="node1" class="node">
<title>Node2</title>
<polygon fill="#bfbfbf" stroke="#000000" points="85.2888,-.5 85.2888,-57.5 251.2888,-57.5 251.2888,-.5 85.2888,-.5"/>
<text text-anchor="middle" x="168.2888" y="-45.5" font-family="Helvetica,sans-Serif" font-size="10.00" fill="#000000">o2::emcal::EMCALBlockHeader</text>
<polyline fill="none" stroke="#000000" points="85.2888,-38.5 251.2888,-38.5 "/>
<text text-anchor="middle" x="168.2888" y="-26.5" font-family="Helvetica,sans-Serif" font-size="10.00" fill="#000000"> </text>
<polyline fill="none" stroke="#000000" points="85.2888,-19.5 251.2888,-19.5 "/>
<text text-anchor="start" x="93.2888" y="-7.5" font-family="Helvetica,sans-Serif" font-size="10.00" fill="#000000">+ EMCALBlockHeader()</text>
</g>
<!-- Node3 -->
<g id="node2" class="node">
<title>Node3</title>
<g id="a_node2"><a xlink:href="../../d8/dbd/structo2_1_1header_1_1BaseHeader.html" target="_top" xlink:title="the base header struct Every header type must begin (i.e. derive) with this. Don&#39;t use this struct di...">
<polygon fill="none" stroke="#000000" points="325.7888,-105.5 325.7888,-272.5 498.7888,-272.5 498.7888,-105.5 325.7888,-105.5"/>
<text text-anchor="middle" x="412.2888" y="-260.5" font-family="Helvetica,sans-Serif" font-size="10.00" fill="#000000">o2::header::BaseHeader</text>
<polyline fill="none" stroke="#000000" points="325.7888,-253.5 498.7888,-253.5 "/>
<text text-anchor="middle" x="412.2888" y="-241.5" font-family="Helvetica,sans-Serif" font-size="10.00" fill="#000000"> </text>
<polyline fill="none" stroke="#000000" points="325.7888,-234.5 498.7888,-234.5 "/>
<text text-anchor="start" x="333.7888" y="-222.5" font-family="Helvetica,sans-Serif" font-size="10.00" fill="#000000">+ BaseHeader()</text>
<text text-anchor="start" x="333.7888" y="-211.5" font-family="Helvetica,sans-Serif" font-size="10.00" fill="#000000">+ BaseHeader()</text>
<text text-anchor="start" x="333.7888" y="-200.5" font-family="Helvetica,sans-Serif" font-size="10.00" fill="#000000">+ BaseHeader()</text>
<text text-anchor="start" x="333.7888" y="-189.5" font-family="Helvetica,sans-Serif" font-size="10.00" fill="#000000">+ size()</text>
<text text-anchor="start" x="333.7888" y="-178.5" font-family="Helvetica,sans-Serif" font-size="10.00" fill="#000000">+ data()</text>
<text text-anchor="start" x="333.7888" y="-167.5" font-family="Helvetica,sans-Serif" font-size="10.00" fill="#000000">+ next()</text>
<text text-anchor="start" x="333.7888" y="-156.5" font-family="Helvetica,sans-Serif" font-size="10.00" fill="#000000">+ next()</text>
<text text-anchor="start" x="333.7888" y="-145.5" font-family="Helvetica,sans-Serif" font-size="10.00" fill="#000000">+ sanityCheck()</text>
<text text-anchor="start" x="333.7888" y="-134.5" font-family="Helvetica,sans-Serif" font-size="10.00" fill="#000000">+ throwInconsistentStackError()</text>
<text text-anchor="start" x="333.7888" y="-123.5" font-family="Helvetica,sans-Serif" font-size="10.00" fill="#000000">+ get()</text>
<text text-anchor="start" x="333.7888" y="-112.5" font-family="Helvetica,sans-Serif" font-size="10.00" fill="#000000">+ get()</text>
</a>
</g>
</g>
<!-- Node3&#45;&gt;Node2 -->
<g id="edge1" class="edge">
<title>Node3&#45;&gt;Node2</title>
<path fill="none" stroke="#191970" d="M316.9286,-126.4687C280.6778,-102.6977 241.128,-76.7634 211.9441,-57.6264"/>
<polygon fill="none" stroke="#191970" points="315.2948,-129.5827 325.5765,-132.1395 319.1333,-123.729 315.2948,-129.5827"/>
</g>
<!-- Node4 -->
<g id="node3" class="node">
<title>Node4</title>
<g id="a_node3"><a xlink:href="../../d9/db3/structo2_1_1header_1_1Descriptor.html" target="_top" xlink:title="{o2::header::Descriptor\l\&lt; gSizeHeaderDescriptionString \&gt;\n||+ Descriptor()\l+ Descriptor()\l+ Descriptor()\l+ Descriptor()\l+ operator=()\l+ operator ItgType()\l+ runtimeInit()\l+ operator==()\l+ operator==()\l+ operator\&lt;()\l+ operator!=()\l+ operator!=()\l+ as()\l+ print()\l}">
<polygon fill="none" stroke="#000000" points="644.7888,-375.5 644.7888,-586.5 829.7888,-586.5 829.7888,-375.5 644.7888,-375.5"/>
<text text-anchor="start" x="652.7888" y="-574.5" font-family="Helvetica,sans-Serif" font-size="10.00" fill="#000000">o2::header::Descriptor</text>
<text text-anchor="middle" x="737.2888" y="-563.5" font-family="Helvetica,sans-Serif" font-size="10.00" fill="#000000">&lt; gSizeHeaderDescriptionString &gt;</text>
<polyline fill="none" stroke="#000000" points="644.7888,-556.5 829.7888,-556.5 "/>
<text text-anchor="middle" x="737.2888" y="-544.5" font-family="Helvetica,sans-Serif" font-size="10.00" fill="#000000"> </text>
<polyline fill="none" stroke="#000000" points="644.7888,-537.5 829.7888,-537.5 "/>
<text text-anchor="start" x="652.7888" y="-525.5" font-family="Helvetica,sans-Serif" font-size="10.00" fill="#000000">+ Descriptor()</text>
<text text-anchor="start" x="652.7888" y="-514.5" font-family="Helvetica,sans-Serif" font-size="10.00" fill="#000000">+ Descriptor()</text>
<text text-anchor="start" x="652.7888" y="-503.5" font-family="Helvetica,sans-Serif" font-size="10.00" fill="#000000">+ Descriptor()</text>
<text text-anchor="start" x="652.7888" y="-492.5" font-family="Helvetica,sans-Serif" font-size="10.00" fill="#000000">+ Descriptor()</text>
<text text-anchor="start" x="652.7888" y="-481.5" font-family="Helvetica,sans-Serif" font-size="10.00" fill="#000000">+ operator=()</text>
<text text-anchor="start" x="652.7888" y="-470.5" font-family="Helvetica,sans-Serif" font-size="10.00" fill="#000000">+ operator ItgType()</text>
<text text-anchor="start" x="652.7888" y="-459.5" font-family="Helvetica,sans-Serif" font-size="10.00" fill="#000000">+ runtimeInit()</text>
<text text-anchor="start" x="652.7888" y="-448.5" font-family="Helvetica,sans-Serif" font-size="10.00" fill="#000000">+ operator==()</text>
<text text-anchor="start" x="652.7888" y="-437.5" font-family="Helvetica,sans-Serif" font-size="10.00" fill="#000000">+ operator==()</text>
<text text-anchor="start" x="652.7888" y="-426.5" font-family="Helvetica,sans-Serif" font-size="10.00" fill="#000000">+ operator&lt;()</text>
<text text-anchor="start" x="652.7888" y="-415.5" font-family="Helvetica,sans-Serif" font-size="10.00" fill="#000000">+ operator!=()</text>
<text text-anchor="start" x="652.7888" y="-404.5" font-family="Helvetica,sans-Serif" font-size="10.00" fill="#000000">+ operator!=()</text>
<text text-anchor="start" x="652.7888" y="-393.5" font-family="Helvetica,sans-Serif" font-size="10.00" fill="#000000">+ as()</text>
<text text-anchor="start" x="652.7888" y="-382.5" font-family="Helvetica,sans-Serif" font-size="10.00" fill="#000000">+ print()</text>
</a>
</g>
</g>
<!-- Node4&#45;&gt;Node3 -->
<g id="edge2" class="edge">
<title>Node4&#45;&gt;Node3</title>
<path fill="none" stroke="#404040" d="M681.8257,-375.2957C660.3623,-343.7055 632.993,-311.9461 600.2888,-291 568.0818,-270.3724 549.0008,-287.909 509.8289,-272.8196"/>
<polygon fill="none" stroke="#404040" points="509.7935,-272.804 502.6874,-274.0301 498.8225,-267.9422 505.9286,-266.7161 509.7935,-272.804"/>
<text text-anchor="middle" x="701.2888" y="-321.5" font-family="Helvetica,sans-Serif" font-size="10.00" fill="#000000"> +description</text>
</g>
<!-- Node5 -->
<g id="node4" class="node">
<title>Node5</title>
<polygon fill="none" stroke="#bfbfbf" points="601.7888,-926.5 601.7888,-983.5 640.7888,-983.5 640.7888,-926.5 601.7888,-926.5"/>
<text text-anchor="middle" x="621.2888" y="-971.5" font-family="Helvetica,sans-Serif" font-size="10.00" fill="#000000">Type</text>
<polyline fill="none" stroke="#bfbfbf" points="601.7888,-964.5 640.7888,-964.5 "/>
<text text-anchor="middle" x="621.2888" y="-952.5" font-family="Helvetica,sans-Serif" font-size="10.00" fill="#000000"> </text>
<polyline fill="none" stroke="#bfbfbf" points="601.7888,-945.5 640.7888,-945.5 "/>
<text text-anchor="middle" x="621.2888" y="-933.5" font-family="Helvetica,sans-Serif" font-size="10.00" fill="#000000"> </text>
</g>
<!-- Node5&#45;&gt;Node4 -->
<g id="edge3" class="edge">
<title>Node5&#45;&gt;Node4</title>
<path fill="none" stroke="#404040" d="M641.0481,-939.6703C662.1373,-922.122 694.7421,-891.3361 711.2888,-857 735.8466,-806.0401 749.5642,-661.5228 747.2888,-605 747.2067,-602.96 747.117,-600.9016 747.0204,-598.8289"/>
<polygon fill="none" stroke="#404040" points="747.0197,-598.8144 742.7134,-593.0303 746.3964,-586.8306 750.7026,-592.6148 747.0197,-598.8144"/>
<text text-anchor="middle" x="758.7888" y="-748.5" font-family="Helvetica,sans-Serif" font-size="10.00" fill="#000000"> +itg</text>
</g>
<!-- Node9 -->
<g id="node8" class="node">
<title>Node9</title>
<g id="a_node8"><a xlink:href="../../d9/db3/structo2_1_1header_1_1Descriptor.html" target="_top" xlink:title="{o2::header::Descriptor\l\&lt; N, PrinterPolicy \&gt;\n||+ Descriptor()\l+ Descriptor()\l+ Descriptor()\l+ operator=()\l+ operator ItgType()\l+ Descriptor()\l+ runtimeInit()\l+ operator==()\l+ operator\&lt;()\l+ operator!=()\l+ operator==()\l+ operator!=()\l+ as()\l+ print()\l}">
<polygon fill="none" stroke="#000000" points="365.7888,-645.5 365.7888,-856.5 490.7888,-856.5 490.7888,-645.5 365.7888,-645.5"/>
<text text-anchor="start" x="373.7888" y="-844.5" font-family="Helvetica,sans-Serif" font-size="10.00" fill="#000000">o2::header::Descriptor</text>
<text text-anchor="middle" x="428.2888" y="-833.5" font-family="Helvetica,sans-Serif" font-size="10.00" fill="#000000">&lt; N, PrinterPolicy &gt;</text>
<polyline fill="none" stroke="#000000" points="365.7888,-826.5 490.7888,-826.5 "/>
<text text-anchor="middle" x="428.2888" y="-814.5" font-family="Helvetica,sans-Serif" font-size="10.00" fill="#000000"> </text>
<polyline fill="none" stroke="#000000" points="365.7888,-807.5 490.7888,-807.5 "/>
<text text-anchor="start" x="373.7888" y="-795.5" font-family="Helvetica,sans-Serif" font-size="10.00" fill="#000000">+ Descriptor()</text>
<text text-anchor="start" x="373.7888" y="-784.5" font-family="Helvetica,sans-Serif" font-size="10.00" fill="#000000">+ Descriptor()</text>
<text text-anchor="start" x="373.7888" y="-773.5" font-family="Helvetica,sans-Serif" font-size="10.00" fill="#000000">+ Descriptor()</text>
<text text-anchor="start" x="373.7888" y="-762.5" font-family="Helvetica,sans-Serif" font-size="10.00" fill="#000000">+ operator=()</text>
<text text-anchor="start" x="373.7888" y="-751.5" font-family="Helvetica,sans-Serif" font-size="10.00" fill="#000000">+ operator ItgType()</text>
<text text-anchor="start" x="373.7888" y="-740.5" font-family="Helvetica,sans-Serif" font-size="10.00" fill="#000000">+ Descriptor()</text>
<text text-anchor="start" x="373.7888" y="-729.5" font-family="Helvetica,sans-Serif" font-size="10.00" fill="#000000">+ runtimeInit()</text>
<text text-anchor="start" x="373.7888" y="-718.5" font-family="Helvetica,sans-Serif" font-size="10.00" fill="#000000">+ operator==()</text>
<text text-anchor="start" x="373.7888" y="-707.5" font-family="Helvetica,sans-Serif" font-size="10.00" fill="#000000">+ operator&lt;()</text>
<text text-anchor="start" x="373.7888" y="-696.5" font-family="Helvetica,sans-Serif" font-size="10.00" fill="#000000">+ operator!=()</text>
<text text-anchor="start" x="373.7888" y="-685.5" font-family="Helvetica,sans-Serif" font-size="10.00" fill="#000000">+ operator==()</text>
<text text-anchor="start" x="373.7888" y="-674.5" font-family="Helvetica,sans-Serif" font-size="10.00" fill="#000000">+ operator!=()</text>
<text text-anchor="start" x="373.7888" y="-663.5" font-family="Helvetica,sans-Serif" font-size="10.00" fill="#000000">+ as()</text>
<text text-anchor="start" x="373.7888" y="-652.5" font-family="Helvetica,sans-Serif" font-size="10.00" fill="#000000">+ print()</text>
</a>
</g>
</g>
<!-- Node5&#45;&gt;Node9 -->
<g id="edge8" class="edge">
<title>Node5&#45;&gt;Node9</title>
<path fill="none" stroke="#404040" d="M601.5183,-949.1404C580.4373,-942.1067 547.0222,-928.6161 524.2888,-908 510.9903,-895.9401 498.9046,-881.6103 488.14,-866.5881"/>
<polygon fill="none" stroke="#404040" points="488.0818,-866.5039 481.3794,-863.8434 481.2574,-856.6333 487.9598,-859.2938 488.0818,-866.5039"/>
<text text-anchor="middle" x="536.7888" y="-889" font-family="Helvetica,sans-Serif" font-size="10.00" fill="#000000"> +itg</text>
</g>
<!-- Node10 -->
<g id="node9" class="node">
<title>Node10</title>
<g id="a_node9"><a xlink:href="../../d9/db3/structo2_1_1header_1_1Descriptor.html" target="_top" xlink:title="{o2::header::Descriptor\l\&lt; gSizeSerializationMethodString \&gt;\n||+ Descriptor()\l+ Descriptor()\l+ Descriptor()\l+ Descriptor()\l+ operator=()\l+ operator ItgType()\l+ runtimeInit()\l+ operator==()\l+ operator==()\l+ operator\&lt;()\l+ operator!=()\l+ operator!=()\l+ as()\l+ print()\l}">
<polygon fill="none" stroke="#000000" points="435.7888,-375.5 435.7888,-586.5 626.7888,-586.5 626.7888,-375.5 435.7888,-375.5"/>
<text text-anchor="start" x="443.7888" y="-574.5" font-family="Helvetica,sans-Serif" font-size="10.00" fill="#000000">o2::header::Descriptor</text>
<text text-anchor="middle" x="531.2888" y="-563.5" font-family="Helvetica,sans-Serif" font-size="10.00" fill="#000000">&lt; gSizeSerializationMethodString &gt;</text>
<polyline fill="none" stroke="#000000" points="435.7888,-556.5 626.7888,-556.5 "/>
<text text-anchor="middle" x="531.2888" y="-544.5" font-family="Helvetica,sans-Serif" font-size="10.00" fill="#000000"> </text>
<polyline fill="none" stroke="#000000" points="435.7888,-537.5 626.7888,-537.5 "/>
<text text-anchor="start" x="443.7888" y="-525.5" font-family="Helvetica,sans-Serif" font-size="10.00" fill="#000000">+ Descriptor()</text>
<text text-anchor="start" x="443.7888" y="-514.5" font-family="Helvetica,sans-Serif" font-size="10.00" fill="#000000">+ Descriptor()</text>
<text text-anchor="start" x="443.7888" y="-503.5" font-family="Helvetica,sans-Serif" font-size="10.00" fill="#000000">+ Descriptor()</text>
<text text-anchor="start" x="443.7888" y="-492.5" font-family="Helvetica,sans-Serif" font-size="10.00" fill="#000000">+ Descriptor()</text>
<text text-anchor="start" x="443.7888" y="-481.5" font-family="Helvetica,sans-Serif" font-size="10.00" fill="#000000">+ operator=()</text>
<text text-anchor="start" x="443.7888" y="-470.5" font-family="Helvetica,sans-Serif" font-size="10.00" fill="#000000">+ operator ItgType()</text>
<text text-anchor="start" x="443.7888" y="-459.5" font-family="Helvetica,sans-Serif" font-size="10.00" fill="#000000">+ runtimeInit()</text>
<text text-anchor="start" x="443.7888" y="-448.5" font-family="Helvetica,sans-Serif" font-size="10.00" fill="#000000">+ operator==()</text>
<text text-anchor="start" x="443.7888" y="-437.5" font-family="Helvetica,sans-Serif" font-size="10.00" fill="#000000">+ operator==()</text>
<text text-anchor="start" x="443.7888" y="-426.5" font-family="Helvetica,sans-Serif" font-size="10.00" fill="#000000">+ operator&lt;()</text>
<text text-anchor="start" x="443.7888" y="-415.5" font-family="Helvetica,sans-Serif" font-size="10.00" fill="#000000">+ operator!=()</text>
<text text-anchor="start" x="443.7888" y="-404.5" font-family="Helvetica,sans-Serif" font-size="10.00" fill="#000000">+ operator!=()</text>
<text text-anchor="start" x="443.7888" y="-393.5" font-family="Helvetica,sans-Serif" font-size="10.00" fill="#000000">+ as()</text>
<text text-anchor="start" x="443.7888" y="-382.5" font-family="Helvetica,sans-Serif" font-size="10.00" fill="#000000">+ print()</text>
</a>
</g>
</g>
<!-- Node5&#45;&gt;Node10 -->
<g id="edge14" class="edge">
<title>Node5&#45;&gt;Node10</title>
<path fill="none" stroke="#404040" d="M622.3339,-926.2526C624.2172,-857.6037 625.0978,-686.7256 589.2888,-645 568.6486,-620.9495 539.6653,-652.0798 520.2888,-627 513.7544,-618.5423 509.6632,-608.9243 507.389,-598.7552"/>
<polygon fill="none" stroke="#404040" points="507.3437,-598.4612 502.4767,-593.1403 505.5163,-586.6011 510.3834,-591.922 507.3437,-598.4612"/>
<text text-anchor="middle" x="634.7888" y="-748.5" font-family="Helvetica,sans-Serif" font-size="10.00" fill="#000000"> +itg</text>
</g>
<!-- Node6 -->
<g id="node5" class="node">
<title>Node6</title>
<polygon fill="none" stroke="#bfbfbf" points="745.2888,-926.5 745.2888,-983.5 783.2888,-983.5 783.2888,-926.5 745.2888,-926.5"/>
<text text-anchor="middle" x="764.2888" y="-971.5" font-family="Helvetica,sans-Serif" font-size="10.00" fill="#000000">char</text>
<polyline fill="none" stroke="#bfbfbf" points="745.2888,-964.5 783.2888,-964.5 "/>
<text text-anchor="middle" x="764.2888" y="-952.5" font-family="Helvetica,sans-Serif" font-size="10.00" fill="#000000"> </text>
<polyline fill="none" stroke="#bfbfbf" points="745.2888,-945.5 783.2888,-945.5 "/>
<text text-anchor="middle" x="764.2888" y="-933.5" font-family="Helvetica,sans-Serif" font-size="10.00" fill="#000000"> </text>
</g>
<!-- Node6&#45;&gt;Node3 -->
<g id="edge12" class="edge">
<title>Node6&#45;&gt;Node3</title>
<path fill="none" stroke="#404040" d="M781.8631,-926.0775C792.5073,-907.1211 805.3326,-881.4148 812.2888,-857 841.6843,-753.8269 884.8391,-472.1286 839.2888,-375 814.4988,-322.1394 792.3793,-312.9774 738.2888,-291 646.8208,-253.8358 605.872,-308.4389 510.2092,-273.0857"/>
<polygon fill="none" stroke="#404040" points="510.0493,-273.0222 502.9957,-274.5214 498.899,-268.587 505.9525,-267.0878 510.0493,-273.0222"/>
<text text-anchor="middle" x="889.2888" y="-613.5" font-family="Helvetica,sans-Serif" font-size="10.00" fill="#000000"> +magicString</text>
</g>
<!-- Node6&#45;&gt;Node4 -->
<g id="edge4" class="edge">
<title>Node6&#45;&gt;Node4</title>
<path fill="none" stroke="#404040" d="M768.6631,-926.2139C777.0338,-866.1292 792.985,-723.142 775.2888,-605 774.9792,-602.9333 774.6421,-600.8535 774.28,-598.7642"/>
<polygon fill="none" stroke="#404040" points="774.2292,-598.5014 769.1615,-593.3712 771.948,-586.7202 777.0157,-591.8504 774.2292,-598.5014"/>
<text text-anchor="middle" x="795.7888" y="-748.5" font-family="Helvetica,sans-Serif" font-size="10.00" fill="#000000"> +str</text>
</g>
<!-- Node6&#45;&gt;Node9 -->
<g id="edge9" class="edge">
<title>Node6&#45;&gt;Node9</title>
<path fill="none" stroke="#404040" d="M745.2522,-947.9628C686.2971,-926.1479 510.3755,-860.8842 505.2888,-857 503.5799,-855.6951 501.8921,-854.342 500.2264,-852.9461"/>
<polygon fill="none" stroke="#404040" points="499.8224,-852.5799 492.6906,-851.5135 490.9319,-844.5201 498.0638,-845.5865 499.8224,-852.5799"/>
<text text-anchor="middle" x="648.7888" y="-889" font-family="Helvetica,sans-Serif" font-size="10.00" fill="#000000"> +str</text>
</g>
<!-- Node6&#45;&gt;Node10 -->
<g id="edge15" class="edge">
<title>Node6&#45;&gt;Node10</title>
<path fill="none" stroke="#404040" d="M745.1807,-938.3315C725.9109,-920.3323 696.9749,-889.8007 682.2888,-857 643.3758,-770.0895 716.6914,-714.2109 651.2888,-645 623.87,-615.9847 591.7141,-655.03 563.2888,-627 554.9238,-618.7513 548.5166,-608.8539 543.6365,-598.1489"/>
<polygon fill="none" stroke="#404040" points="543.5303,-597.8827 537.5924,-593.791 539.0855,-586.7362 545.0234,-590.8278 543.5303,-597.8827"/>
<text text-anchor="middle" x="694.7888" y="-748.5" font-family="Helvetica,sans-Serif" font-size="10.00" fill="#000000"> +str</text>
</g>
<!-- Node7 -->
<g id="node6" class="node">
<title>Node7</title>
<polygon fill="none" stroke="#bfbfbf" points="391.7888,-926.5 391.7888,-983.5 420.7888,-983.5 420.7888,-926.5 391.7888,-926.5"/>
<text text-anchor="middle" x="406.2888" y="-971.5" font-family="Helvetica,sans-Serif" font-size="10.00" fill="#000000">int</text>
<polyline fill="none" stroke="#bfbfbf" points="391.7888,-964.5 420.7888,-964.5 "/>
<text text-anchor="middle" x="406.2888" y="-952.5" font-family="Helvetica,sans-Serif" font-size="10.00" fill="#000000"> </text>
<polyline fill="none" stroke="#bfbfbf" points="391.7888,-945.5 420.7888,-945.5 "/>
<text text-anchor="middle" x="406.2888" y="-933.5" font-family="Helvetica,sans-Serif" font-size="10.00" fill="#000000"> </text>
</g>
<!-- Node7&#45;&gt;Node4 -->
<g id="edge5" class="edge">
<title>Node7&#45;&gt;Node4</title>
<path fill="none" stroke="#404040" d="M421.0994,-953.3416C445.0652,-949.7854 491.8231,-939.0389 513.2888,-908 546.5792,-859.8629 486.7158,-687.1813 527.2888,-645 557.4566,-613.6363 691.3586,-657.6122 722.2888,-627 730.4682,-618.9047 736.2284,-609.1216 740.1684,-598.4981"/>
<polygon fill="none" stroke="#404040" points="740.2702,-598.1629 738.1866,-591.2593 743.7577,-586.6808 745.8413,-593.5843 740.2702,-598.1629"/>
<text text-anchor="middle" x="556.2888" y="-759.5" font-family="Helvetica,sans-Serif" font-size="10.00" fill="#000000"> +arraySize</text>
<text text-anchor="middle" x="556.2888" y="-748.5" font-family="Helvetica,sans-Serif" font-size="10.00" fill="#000000">+size</text>
<text text-anchor="middle" x="556.2888" y="-737.5" font-family="Helvetica,sans-Serif" font-size="10.00" fill="#000000">+bitcount</text>
</g>
<!-- Node7&#45;&gt;Node9 -->
<g id="edge10" class="edge">
<title>Node7&#45;&gt;Node9</title>
<path fill="none" stroke="#404040" d="M405.5729,-926.4354C405.4601,-911.148 405.751,-892.0153 407.2888,-875 407.4746,-872.9444 407.6753,-870.8714 407.8895,-868.7853"/>
<polygon fill="none" stroke="#404040" points="407.9052,-868.6457 404.6057,-862.2337 409.2554,-856.7219 412.5549,-863.1338 407.9052,-868.6457"/>
<text text-anchor="middle" x="436.2888" y="-900" font-family="Helvetica,sans-Serif" font-size="10.00" fill="#000000"> +arraySize</text>
<text text-anchor="middle" x="436.2888" y="-889" font-family="Helvetica,sans-Serif" font-size="10.00" fill="#000000">+size</text>
<text text-anchor="middle" x="436.2888" y="-878" font-family="Helvetica,sans-Serif" font-size="10.00" fill="#000000">+bitcount</text>
</g>
<!-- Node7&#45;&gt;Node10 -->
<g id="edge16" class="edge">
<title>Node7&#45;&gt;Node10</title>
<path fill="none" stroke="#404040" d="M391.4176,-952.9219C368.3227,-948.8349 324.3091,-937.4305 303.2888,-908 285.9875,-883.7765 259.5196,-726.6948 298.2888,-645 310.3416,-619.6022 322.0279,-617.3373 347.2888,-605 376.6132,-590.6781 391.8151,-601.8941 424.8388,-586.9108"/>
<polygon fill="none" stroke="#404040" points="425.0097,-586.8235 428.532,-580.5312 435.695,-581.3624 432.1727,-587.6548 425.0097,-586.8235"/>
<text text-anchor="middle" x="327.2888" y="-759.5" font-family="Helvetica,sans-Serif" font-size="10.00" fill="#000000"> +arraySize</text>
<text text-anchor="middle" x="327.2888" y="-748.5" font-family="Helvetica,sans-Serif" font-size="10.00" fill="#000000">+size</text>
<text text-anchor="middle" x="327.2888" y="-737.5" font-family="Helvetica,sans-Serif" font-size="10.00" fill="#000000">+bitcount</text>
</g>
<!-- Node8 -->
<g id="node7" class="node">
<title>Node8</title>
<polygon fill="none" stroke="#bfbfbf" points="165.7888,-926.5 165.7888,-983.5 272.7888,-983.5 272.7888,-926.5 165.7888,-926.5"/>
<text text-anchor="middle" x="219.2888" y="-971.5" font-family="Helvetica,sans-Serif" font-size="10.00" fill="#000000">anonymous:+@72</text>
<polyline fill="none" stroke="#bfbfbf" points="165.7888,-964.5 272.7888,-964.5 "/>
<text text-anchor="middle" x="219.2888" y="-952.5" font-family="Helvetica,sans-Serif" font-size="10.00" fill="#000000"> </text>
<polyline fill="none" stroke="#bfbfbf" points="165.7888,-945.5 272.7888,-945.5 "/>
<text text-anchor="middle" x="219.2888" y="-933.5" font-family="Helvetica,sans-Serif" font-size="10.00" fill="#000000"> </text>
</g>
<!-- Node8&#45;&gt;Node4 -->
<g id="edge6" class="edge">
<title>Node8&#45;&gt;Node4</title>
<path fill="none" stroke="#404040" d="M216.7061,-926.3925C211.1444,-857.2533 201.48,-683.9082 240.2888,-645 260.4259,-624.8113 468.2327,-632.0934 496.2888,-627 530.0485,-620.8712 537.2909,-614.4035 570.2888,-605 596.3311,-597.5786 607.6259,-601.4549 634.1838,-587.5943"/>
<polygon fill="none" stroke="#404040" points="634.2723,-587.5443 637.5225,-581.1071 644.7145,-581.6315 641.4643,-588.0686 634.2723,-587.5443"/>
<text text-anchor="middle" x="257.2888" y="-748.5" font-family="Helvetica,sans-Serif" font-size="10.00" fill="#000000"> +@72</text>
</g>
<!-- Node8&#45;&gt;Node9 -->
<g id="edge11" class="edge">
<title>Node8&#45;&gt;Node9</title>
<path fill="none" stroke="#404040" d="M264.7739,-926.3148C291.5572,-908.2325 325.1886,-883.373 351.2888,-857 353.4238,-854.8427 355.5454,-852.6223 357.6492,-850.3513"/>
<polygon fill="none" stroke="#404040" points="357.6768,-850.3203 358.6871,-843.1803 365.6665,-841.3667 364.6562,-848.5067 357.6768,-850.3203"/>
<text text-anchor="middle" x="349.2888" y="-889" font-family="Helvetica,sans-Serif" font-size="10.00" fill="#000000"> +@72</text>
</g>
<!-- Node8&#45;&gt;Node10 -->
<g id="edge17" class="edge">
<title>Node8&#45;&gt;Node10</title>
<path fill="none" stroke="#404040" d="M197.5613,-926.3145C184.832,-907.6568 169.9782,-882.1893 163.2888,-857 139.105,-765.9343 106.2724,-720.0131 163.2888,-645 203.4833,-592.1185 242.3322,-618.8813 307.2888,-605 356.1245,-594.5637 375.9307,-609.0451 424.6665,-587.1328"/>
<polygon fill="none" stroke="#404040" points="424.7225,-587.1057 428.3832,-580.8929 435.5261,-581.8824 431.8654,-588.0953 424.7225,-587.1057"/>
<text text-anchor="middle" x="180.2888" y="-748.5" font-family="Helvetica,sans-Serif" font-size="10.00" fill="#000000"> +@72</text>
</g>
<!-- Node9&#45;&gt;Node2 -->
<g id="edge26" class="edge">
<title>Node9&#45;&gt;Node2</title>
<path fill="none" stroke="#404040" d="M365.6086,-648.8663C363.8729,-647.5162 362.0997,-646.2251 360.2888,-645 246.7225,-568.1736 150.4596,-687.5923 57.2888,-587 -32.4507,-490.1124 3.7772,-420.1647 31.2888,-291 50.147,-202.4622 69.4085,-183.615 114.2888,-105 121.4885,-92.3886 130.2742,-79.2822 138.6501,-67.5767"/>
<polygon fill="none" stroke="#404040" points="138.7836,-67.3936 139.0875,-60.1889 145.8549,-57.6984 145.551,-64.9031 138.7836,-67.3936"/>
<text text-anchor="middle" x="68.7888" y="-321.5" font-family="Helvetica,sans-Serif" font-size="10.00" fill="#000000"> +sHeaderType</text>
</g>
<!-- Node9&#45;&gt;Node4 -->
<g id="edge7" class="edge">
<title>Node9&#45;&gt;Node4</title>
<path fill="none" stroke="#ffa500" d="M498.8117,-649.8729C500.9311,-648.1728 503.0905,-646.5448 505.2888,-645 528.7651,-628.5024 542.4291,-641.3285 567.2888,-627 579.5444,-619.9361 578.365,-612.6106 590.2888,-605 608.7945,-593.1884 618.0619,-599.2374 636.2888,-587 639.1378,-585.0872 641.9672,-583.0813 644.7711,-580.9976"/>
<polygon fill="#ffa500" stroke="#ffa500" points="496.1146,-647.5778 490.8377,-656.7651 500.6921,-652.8738 496.1146,-647.5778"/>
<text text-anchor="start" x="590.2888" y="-619" font-family="Helvetica,sans-Serif" font-size="10.00" fill="#000000"> &lt; gSizeHeaderDescription</text>
<text text-anchor="middle" x="656.2888" y="-608" font-family="Helvetica,sans-Serif" font-size="10.00" fill="#000000">String &gt;</text>
</g>
<!-- Node9&#45;&gt;Node10 -->
<g id="edge18" class="edge">
<title>Node9&#45;&gt;Node10</title>
<path fill="none" stroke="#ffa500" d="M361.1431,-650.7538C351.774,-631.1003 347.3884,-613.8378 354.2888,-605 374.5881,-579.0012 397.624,-603.3196 426.2888,-587 429.4402,-585.2058 432.561,-583.2908 435.6451,-581.2736"/>
<polygon fill="#ffa500" stroke="#ffa500" points="358.1447,-652.5808 365.776,-659.9303 364.3935,-649.426 358.1447,-652.5808"/>
<text text-anchor="start" x="354.2888" y="-619" font-family="Helvetica,sans-Serif" font-size="10.00" fill="#000000"> &lt; gSizeSerializationMethod</text>
<text text-anchor="middle" x="423.2888" y="-608" font-family="Helvetica,sans-Serif" font-size="10.00" fill="#000000">String &gt;</text>
</g>
<!-- Node10&#45;&gt;Node3 -->
<g id="edge13" class="edge">
<title>Node10&#45;&gt;Node3</title>
<path fill="none" stroke="#404040" d="M528.1731,-375.2293C524.339,-346.8858 517.4232,-316.934 505.2888,-291 504.0463,-288.3445 502.7101,-285.7098 501.2921,-283.1"/>
<polygon fill="none" stroke="#404040" points="501.1435,-282.8489 494.6453,-279.7228 495.0316,-272.522 501.5299,-275.6482 501.1435,-282.8489"/>
<text text-anchor="middle" x="560.2888" y="-321.5" font-family="Helvetica,sans-Serif" font-size="10.00" fill="#000000"> +serialization</text>
</g>
<!-- Node11 -->
<g id="node10" class="node">
<title>Node11</title>
<g id="a_node10"><a xlink:href="../../d2/d5f/classunsigned_01int.html" target="_top" xlink:title="{unsigned int\n||}">
<polygon fill="none" stroke="#000000" points="66.7888,-452.5 66.7888,-509.5 143.7888,-509.5 143.7888,-452.5 66.7888,-452.5"/>
<text text-anchor="middle" x="105.2888" y="-497.5" font-family="Helvetica,sans-Serif" font-size="10.00" fill="#000000">unsigned int</text>
<polyline fill="none" stroke="#000000" points="66.7888,-490.5 143.7888,-490.5 "/>
<text text-anchor="middle" x="105.2888" y="-478.5" font-family="Helvetica,sans-Serif" font-size="10.00" fill="#000000"> </text>
<polyline fill="none" stroke="#000000" points="66.7888,-471.5 143.7888,-471.5 "/>
<text text-anchor="middle" x="105.2888" y="-459.5" font-family="Helvetica,sans-Serif" font-size="10.00" fill="#000000"> </text>
</a>
</g>
</g>
<!-- Node11&#45;&gt;Node2 -->
<g id="edge25" class="edge">
<title>Node11&#45;&gt;Node2</title>
<path fill="none" stroke="#404040" d="M105.4896,-452.2349C106.0503,-414.9165 108.0817,-347.8551 115.2888,-291 125.3169,-211.8902 145.7612,-120.9403 158.1207,-69.6866"/>
<polygon fill="none" stroke="#404040" points="158.1644,-69.5066 155.697,-62.7308 161.0026,-57.8471 163.47,-64.6229 158.1644,-69.5066"/>
<text text-anchor="middle" x="176.7888" y="-186.5" font-family="Helvetica,sans-Serif" font-size="10.00" fill="#000000"> +sVersion</text>
</g>
<!-- Node11&#45;&gt;Node3 -->
<g id="edge19" class="edge">
<title>Node11&#45;&gt;Node3</title>
<path fill="none" stroke="#404040" d="M106.0049,-452.3007C107.7382,-405.4134 113.606,-315.176 133.2888,-291 145.4644,-276.045 238.6533,-243.7461 314.0328,-219.4752"/>
<polygon fill="none" stroke="#404040" points="314.0599,-219.4666 318.5529,-213.8263 325.4874,-215.8043 320.9944,-221.4447 314.0599,-219.4666"/>
<text text-anchor="middle" x="170.2888" y="-321.5" font-family="Helvetica,sans-Serif" font-size="10.00" fill="#000000"> +sMagicString</text>
</g>
<!-- Node12 -->
<g id="node11" class="node">
<title>Node12</title>
<polygon fill="none" stroke="#bfbfbf" points="885.7888,-452.5 885.7888,-509.5 992.7888,-509.5 992.7888,-452.5 885.7888,-452.5"/>
<text text-anchor="middle" x="939.2888" y="-497.5" font-family="Helvetica,sans-Serif" font-size="10.00" fill="#000000">anonymous:+@74</text>
<polyline fill="none" stroke="#bfbfbf" points="885.7888,-490.5 992.7888,-490.5 "/>
<text text-anchor="middle" x="939.2888" y="-478.5" font-family="Helvetica,sans-Serif" font-size="10.00" fill="#000000"> </text>
<polyline fill="none" stroke="#bfbfbf" points="885.7888,-471.5 992.7888,-471.5 "/>
<text text-anchor="middle" x="939.2888" y="-459.5" font-family="Helvetica,sans-Serif" font-size="10.00" fill="#000000"> </text>
</g>
<!-- Node12&#45;&gt;Node3 -->
<g id="edge20" class="edge">
<title>Node12&#45;&gt;Node3</title>
<path fill="none" stroke="#404040" d="M938.3898,-452.4288C935.3328,-409.4372 922.6378,-329.0982 871.2888,-291 840.9478,-268.4887 582.4311,-285.5912 510.847,-271.9804"/>
<polygon fill="none" stroke="#404040" points="510.4263,-271.8657 503.585,-274.1453 498.8495,-268.707 505.6908,-266.4274 510.4263,-271.8657"/>
<text text-anchor="middle" x="934.2888" y="-321.5" font-family="Helvetica,sans-Serif" font-size="10.00" fill="#000000"> +@74</text>
</g>
<!-- Node13 -->
<g id="node12" class="node">
<title>Node13</title>
<polygon fill="none" stroke="#bfbfbf" points="170.7888,-452.5 170.7888,-509.5 231.7888,-509.5 231.7888,-452.5 170.7888,-452.5"/>
<text text-anchor="middle" x="201.2888" y="-497.5" font-family="Helvetica,sans-Serif" font-size="10.00" fill="#000000">unsigned</text>
<polyline fill="none" stroke="#bfbfbf" points="170.7888,-490.5 231.7888,-490.5 "/>
<text text-anchor="middle" x="201.2888" y="-478.5" font-family="Helvetica,sans-Serif" font-size="10.00" fill="#000000"> </text>
<polyline fill="none" stroke="#bfbfbf" points="170.7888,-471.5 231.7888,-471.5 "/>
<text text-anchor="middle" x="201.2888" y="-459.5" font-family="Helvetica,sans-Serif" font-size="10.00" fill="#000000"> </text>
</g>
<!-- Node13&#45;&gt;Node3 -->
<g id="edge21" class="edge">
<title>Node13&#45;&gt;Node3</title>
<path fill="none" stroke="#404040" d="M202.283,-452.2509C204.3936,-405.7349 210.6721,-316.5912 228.2888,-291 249.2215,-260.5917 282.3075,-238.2949 314.6869,-222.4446"/>
<polygon fill="none" stroke="#404040" points="314.7584,-222.4111 318.4912,-216.2414 325.6221,-217.314 321.8893,-223.4838 314.7584,-222.4111"/>
<text text-anchor="middle" x="273.7888" y="-349" font-family="Helvetica,sans-Serif" font-size="10.00" fill="#000000"> +headerVersion</text>
<text text-anchor="middle" x="273.7888" y="-338" font-family="Helvetica,sans-Serif" font-size="10.00" fill="#000000">+headerSize</text>
<text text-anchor="middle" x="273.7888" y="-327" font-family="Helvetica,sans-Serif" font-size="10.00" fill="#000000">+flagsNextHeader</text>
<text text-anchor="middle" x="273.7888" y="-316" font-family="Helvetica,sans-Serif" font-size="10.00" fill="#000000">+magicStringInt</text>
<text text-anchor="middle" x="273.7888" y="-305" font-family="Helvetica,sans-Serif" font-size="10.00" fill="#000000">+flagsUnused</text>
<text text-anchor="middle" x="273.7888" y="-294" font-family="Helvetica,sans-Serif" font-size="10.00" fill="#000000">+flags</text>
</g>
<!-- Node14 -->
<g id="node13" class="node">
<title>Node14</title>
<polygon fill="none" stroke="#bfbfbf" points="249.7888,-452.5 249.7888,-509.5 292.7888,-509.5 292.7888,-452.5 249.7888,-452.5"/>
<text text-anchor="middle" x="271.2888" y="-497.5" font-family="Helvetica,sans-Serif" font-size="10.00" fill="#000000">const</text>
<polyline fill="none" stroke="#bfbfbf" points="249.7888,-490.5 292.7888,-490.5 "/>
<text text-anchor="middle" x="271.2888" y="-478.5" font-family="Helvetica,sans-Serif" font-size="10.00" fill="#000000"> </text>
<polyline fill="none" stroke="#bfbfbf" points="249.7888,-471.5 292.7888,-471.5 "/>
<text text-anchor="middle" x="271.2888" y="-459.5" font-family="Helvetica,sans-Serif" font-size="10.00" fill="#000000"> </text>
</g>
<!-- Node14&#45;&gt;Node3 -->
<g id="edge22" class="edge">
<title>Node14&#45;&gt;Node3</title>
<path fill="none" stroke="#404040" d="M274.6639,-452.0395C278.3716,-429.5437 285.9759,-398.3502 301.2888,-375 308.2168,-364.4356 316.337,-367.5488 323.2888,-357 340.0855,-331.5123 329.2629,-318.6058 342.2888,-291 343.5067,-288.4188 344.7869,-285.8307 346.1194,-283.2434"/>
<polygon fill="none" stroke="#404040" points="346.1525,-283.1823 345.4932,-276.0014 351.8682,-272.631 352.5275,-279.8119 346.1525,-283.1823"/>
<text text-anchor="middle" x="397.7888" y="-332.5" font-family="Helvetica,sans-Serif" font-size="10.00" fill="#000000"> +sHeaderType</text>
<text text-anchor="middle" x="397.7888" y="-321.5" font-family="Helvetica,sans-Serif" font-size="10.00" fill="#000000">+sSerializationMethod</text>
<text text-anchor="middle" x="397.7888" y="-310.5" font-family="Helvetica,sans-Serif" font-size="10.00" fill="#000000">+sVersion</text>
</g>
<!-- Node15 -->
<g id="node14" class="node">
<title>Node15</title>
<polygon fill="none" stroke="#bfbfbf" points="310.7888,-452.5 310.7888,-509.5 417.7888,-509.5 417.7888,-452.5 310.7888,-452.5"/>
<text text-anchor="middle" x="364.2888" y="-497.5" font-family="Helvetica,sans-Serif" font-size="10.00" fill="#000000">anonymous:+@76</text>
<polyline fill="none" stroke="#bfbfbf" points="310.7888,-490.5 417.7888,-490.5 "/>
<text text-anchor="middle" x="364.2888" y="-478.5" font-family="Helvetica,sans-Serif" font-size="10.00" fill="#000000"> </text>
<polyline fill="none" stroke="#bfbfbf" points="310.7888,-471.5 417.7888,-471.5 "/>
<text text-anchor="middle" x="364.2888" y="-459.5" font-family="Helvetica,sans-Serif" font-size="10.00" fill="#000000"> </text>
</g>
<!-- Node15&#45;&gt;Node3 -->
<g id="edge23" class="edge">
<title>Node15&#45;&gt;Node3</title>
<path fill="none" stroke="#404040" d="M376.1506,-452.2146C386.7115,-429.2234 403.942,-397.2758 426.2888,-375 437.5723,-363.7523 449.3398,-370.8073 457.2888,-357 470.0341,-334.8614 469.4408,-309.0074 462.9331,-284.3115"/>
<polygon fill="none" stroke="#404040" points="462.8915,-284.1733 457.329,-279.5843 459.4257,-272.6847 464.9881,-277.2737 462.8915,-284.1733"/>
<text text-anchor="middle" x="484.2888" y="-321.5" font-family="Helvetica,sans-Serif" font-size="10.00" fill="#000000"> +@76</text>
</g>
<!-- Node16 -->
<g id="node15" class="node">
<title>Node16</title>
<polygon fill="none" stroke="#bfbfbf" points="517.2888,-160.5 517.2888,-217.5 555.2888,-217.5 555.2888,-160.5 517.2888,-160.5"/>
<text text-anchor="middle" x="536.2888" y="-205.5" font-family="Helvetica,sans-Serif" font-size="10.00" fill="#000000">bool</text>
<polyline fill="none" stroke="#bfbfbf" points="517.2888,-198.5 555.2888,-198.5 "/>
<text text-anchor="middle" x="536.2888" y="-186.5" font-family="Helvetica,sans-Serif" font-size="10.00" fill="#000000"> </text>
<polyline fill="none" stroke="#bfbfbf" points="517.2888,-179.5 555.2888,-179.5 "/>
<text text-anchor="middle" x="536.2888" y="-167.5" font-family="Helvetica,sans-Serif" font-size="10.00" fill="#000000"> </text>
</g>
<!-- Node16&#45;&gt;Node2 -->
<g id="edge24" class="edge">
<title>Node16&#45;&gt;Node2</title>
<path fill="none" stroke="#404040" d="M533.8275,-160.1684C530.7375,-141.8427 523.8049,-119.0113 508.2888,-105 472.7571,-72.9143 351.1572,-51.4491 263.5209,-39.7387"/>
<polygon fill="none" stroke="#404040" points="263.2915,-39.7087 256.823,-42.896 251.393,-38.151 257.8615,-34.9637 263.2915,-39.7087"/>
<text text-anchor="middle" x="511.7888" y="-79" font-family="Helvetica,sans-Serif" font-size="10.00" fill="#000000"> +mHasPayload</text>
</g>
</g>
</svg>
