<?xml version="1.0" encoding="UTF-8" standalone="no"?>
<!DOCTYPE svg PUBLIC "-//W3C//DTD SVG 1.1//EN"
 "http://www.w3.org/Graphics/SVG/1.1/DTD/svg11.dtd">
<!-- Generated by graphviz version 2.40.1 (20161225.0304)
 -->
<!-- Title: o2::itsmft::RawDecodingStat Pages: 1 -->
<svg width="391pt" height="259pt"
 viewBox="0.00 0.00 390.50 259.00" xmlns="http://www.w3.org/2000/svg" xmlns:xlink="http://www.w3.org/1999/xlink">
<g id="graph0" class="graph" transform="scale(1 1) rotate(0) translate(4 255)">
<title>o2::itsmft::RawDecodingStat</title>
<!-- Node1 -->
<g id="node1" class="node">
<title>Node1</title>
<polygon fill="#bfbfbf" stroke="#000000" points="119.5,-.5 119.5,-90.5 275.5,-90.5 275.5,-.5 119.5,-.5"/>
<text text-anchor="middle" x="197.5" y="-78.5" font-family="Helvetica,sans-Serif" font-size="10.00" fill="#000000">o2::itsmft::RawDecodingStat</text>
<polyline fill="none" stroke="#000000" points="119.5,-71.5 275.5,-71.5 "/>
<text text-anchor="middle" x="197.5" y="-59.5" font-family="Helvetica,sans-Serif" font-size="10.00" fill="#000000"> </text>
<polyline fill="none" stroke="#000000" points="119.5,-52.5 275.5,-52.5 "/>
<text text-anchor="start" x="127.5" y="-40.5" font-family="Helvetica,sans-Serif" font-size="10.00" fill="#000000">+ RawDecodingStat()</text>
<text text-anchor="start" x="127.5" y="-29.5" font-family="Helvetica,sans-Serif" font-size="10.00" fill="#000000">+ clear()</text>
<text text-anchor="start" x="127.5" y="-18.5" font-family="Helvetica,sans-Serif" font-size="10.00" fill="#000000">+ print()</text>
<text text-anchor="start" x="127.5" y="-7.5" font-family="Helvetica,sans-Serif" font-size="10.00" fill="#000000">+ ClassDefNV()</text>
</g>
<!-- Node2 -->
<g id="node2" class="node">
<title>Node2</title>
<polygon fill="none" stroke="#bfbfbf" points="0,-193.5 0,-250.5 157,-250.5 157,-193.5 0,-193.5"/>
<text text-anchor="middle" x="78.5" y="-238.5" font-family="Helvetica,sans-Serif" font-size="10.00" fill="#000000">array&lt; int, NErrorsDefined &gt;</text>
<polyline fill="none" stroke="#bfbfbf" points="0,-231.5 157,-231.5 "/>
<text text-anchor="middle" x="78.5" y="-219.5" font-family="Helvetica,sans-Serif" font-size="10.00" fill="#000000"> </text>
<polyline fill="none" stroke="#bfbfbf" points="0,-212.5 157,-212.5 "/>
<text text-anchor="middle" x="78.5" y="-200.5" font-family="Helvetica,sans-Serif" font-size="10.00" fill="#000000"> </text>
</g>
<!-- Node2&#45;&gt;Node1 -->
<g id="edge1" class="edge">
<title>Node2&#45;&gt;Node1</title>
<path fill="none" stroke="#404040" d="M86.1238,-193.2161C93.4037,-169.1982 106.0203,-134.8448 124.5,-109 126.796,-105.789 129.2855,-102.6324 131.9138,-99.5473"/>
<polygon fill="none" stroke="#404040" points="132.065,-99.3819 133.1597,-92.2544 140.1601,-90.5236 139.0653,-97.6511 132.065,-99.3819"/>
<text text-anchor="middle" x="159" y="-139.5" font-family="Helvetica,sans-Serif" font-size="10.00" fill="#000000"> +errorCounts</text>
</g>
<!-- Node3 -->
<g id="node3" class="node">
<title>Node3</title>
<polygon fill="none" stroke="#bfbfbf" points="175.5,-193.5 175.5,-250.5 219.5,-250.5 219.5,-193.5 175.5,-193.5"/>
<text text-anchor="middle" x="197.5" y="-238.5" font-family="Helvetica,sans-Serif" font-size="10.00" fill="#000000">static</text>
<polyline fill="none" stroke="#bfbfbf" points="175.5,-231.5 219.5,-231.5 "/>
<text text-anchor="middle" x="197.5" y="-219.5" font-family="Helvetica,sans-Serif" font-size="10.00" fill="#000000"> </text>
<polyline fill="none" stroke="#bfbfbf" points="175.5,-212.5 219.5,-212.5 "/>
<text text-anchor="middle" x="197.5" y="-200.5" font-family="Helvetica,sans-Serif" font-size="10.00" fill="#000000"> </text>
</g>
<!-- Node3&#45;&gt;Node1 -->
<g id="edge2" class="edge">
<title>Node3&#45;&gt;Node1</title>
<path fill="none" stroke="#404040" d="M197.5,-193.2494C197.5,-168.867 197.5,-133.1421 197.5,-102.9292"/>
<polygon fill="none" stroke="#404040" points="197.5001,-102.7991 193.5,-96.7991 197.5,-90.7991 201.5,-96.7991 197.5001,-102.7991"/>
<text text-anchor="middle" x="227.5" y="-139.5" font-family="Helvetica,sans-Serif" font-size="10.00" fill="#000000"> +ErrNames</text>
</g>
<!-- Node4 -->
<g id="node4" class="node">
<title>Node4</title>
<polygon fill="none" stroke="#bfbfbf" points="250,-193.5 250,-250.5 311,-250.5 311,-193.5 250,-193.5"/>
<text text-anchor="middle" x="280.5" y="-238.5" font-family="Helvetica,sans-Serif" font-size="10.00" fill="#000000">unsigned</text>
<polyline fill="none" stroke="#bfbfbf" points="250,-231.5 311,-231.5 "/>
<text text-anchor="middle" x="280.5" y="-219.5" font-family="Helvetica,sans-Serif" font-size="10.00" fill="#000000"> </text>
<polyline fill="none" stroke="#bfbfbf" points="250,-212.5 311,-212.5 "/>
<text text-anchor="middle" x="280.5" y="-200.5" font-family="Helvetica,sans-Serif" font-size="10.00" fill="#000000"> </text>
</g>
<!-- Node4&#45;&gt;Node1 -->
<g id="edge3" class="edge">
<title>Node4&#45;&gt;Node1</title>
<path fill="none" stroke="#404040" d="M279.3733,-193.1318C277.4218,-169.3745 272.22,-135.4309 258.5,-109 257.0001,-106.1105 255.3275,-103.2622 253.5215,-100.4684"/>
<polygon fill="none" stroke="#404040" points="253.4523,-100.3718 246.7074,-97.821 246.4678,-90.6138 253.2127,-93.1646 253.4523,-100.3718"/>
<text text-anchor="middle" x="329.5" y="-167" font-family="Helvetica,sans-Serif" font-size="10.00" fill="#000000"> +nTriggersProcessed</text>
<text text-anchor="middle" x="329.5" y="-156" font-family="Helvetica,sans-Serif" font-size="10.00" fill="#000000">+nRUsProcessed</text>
<text text-anchor="middle" x="329.5" y="-145" font-family="Helvetica,sans-Serif" font-size="10.00" fill="#000000">+nHitsDecoded</text>
<text text-anchor="middle" x="329.5" y="-134" font-family="Helvetica,sans-Serif" font-size="10.00" fill="#000000">+nNonEmptyChips</text>
<text text-anchor="middle" x="329.5" y="-123" font-family="Helvetica,sans-Serif" font-size="10.00" fill="#000000">+nBytesProcessed</text>
<text text-anchor="middle" x="329.5" y="-112" font-family="Helvetica,sans-Serif" font-size="10.00" fill="#000000">+nPagesProcessed</text>
</g>
</g>
</svg>
