<?xml version="1.0" encoding="UTF-8" standalone="no"?>
<!DOCTYPE svg PUBLIC "-//W3C//DTD SVG 1.1//EN"
 "http://www.w3.org/Graphics/SVG/1.1/DTD/svg11.dtd">
<!-- Generated by graphviz version 2.40.1 (20161225.0304)
 -->
<!-- Title: o2::mch::ClusterStruct Pages: 1 -->
<svg width="149pt" height="281pt"
 viewBox="0.00 0.00 148.50 281.00" xmlns="http://www.w3.org/2000/svg" xmlns:xlink="http://www.w3.org/1999/xlink">
<g id="graph0" class="graph" transform="scale(1 1) rotate(0) translate(4 277)">
<title>o2::mch::ClusterStruct</title>
<!-- Node1 -->
<g id="node1" class="node">
<title>Node1</title>
<polygon fill="#bfbfbf" stroke="#000000" points="0,-.5 0,-123.5 125,-123.5 125,-.5 0,-.5"/>
<text text-anchor="middle" x="62.5" y="-111.5" font-family="Helvetica,sans-Serif" font-size="10.00" fill="#000000">o2::mch::ClusterStruct</text>
<polyline fill="none" stroke="#000000" points="0,-104.5 125,-104.5 "/>
<text text-anchor="middle" x="62.5" y="-92.5" font-family="Helvetica,sans-Serif" font-size="10.00" fill="#000000"> </text>
<polyline fill="none" stroke="#000000" points="0,-85.5 125,-85.5 "/>
<text text-anchor="start" x="8" y="-73.5" font-family="Helvetica,sans-Serif" font-size="10.00" fill="#000000">+ getChamberId()</text>
<text text-anchor="start" x="8" y="-62.5" font-family="Helvetica,sans-Serif" font-size="10.00" fill="#000000">+ getDEId()</text>
<text text-anchor="start" x="8" y="-51.5" font-family="Helvetica,sans-Serif" font-size="10.00" fill="#000000">+ getClusterIndex()</text>
<text text-anchor="start" x="8" y="-40.5" font-family="Helvetica,sans-Serif" font-size="10.00" fill="#000000">+ getChamberId()</text>
<text text-anchor="start" x="8" y="-29.5" font-family="Helvetica,sans-Serif" font-size="10.00" fill="#000000">+ getDEId()</text>
<text text-anchor="start" x="8" y="-18.5" font-family="Helvetica,sans-Serif" font-size="10.00" fill="#000000">+ getClusterIndex()</text>
<text text-anchor="start" x="8" y="-7.5" font-family="Helvetica,sans-Serif" font-size="10.00" fill="#000000">+ buildUniqueId()</text>
</g>
<!-- Node2 -->
<g id="node2" class="node">
<title>Node2</title>
<g id="a_node2"><a xlink:href="../../d4/dc3/classfloat.html" target="_top" xlink:title="{float\n||}">
<polygon fill="none" stroke="#000000" points="9.5,-215.5 9.5,-272.5 47.5,-272.5 47.5,-215.5 9.5,-215.5"/>
<text text-anchor="middle" x="28.5" y="-260.5" font-family="Helvetica,sans-Serif" font-size="10.00" fill="#000000">float</text>
<polyline fill="none" stroke="#000000" points="9.5,-253.5 47.5,-253.5 "/>
<text text-anchor="middle" x="28.5" y="-241.5" font-family="Helvetica,sans-Serif" font-size="10.00" fill="#000000"> </text>
<polyline fill="none" stroke="#000000" points="9.5,-234.5 47.5,-234.5 "/>
<text text-anchor="middle" x="28.5" y="-222.5" font-family="Helvetica,sans-Serif" font-size="10.00" fill="#000000"> </text>
</a>
</g>
</g>
<!-- Node2&#45;&gt;Node1 -->
<g id="edge1" class="edge">
<title>Node2&#45;&gt;Node1</title>
<path fill="none" stroke="#404040" d="M33.8874,-215.1616C37.8851,-193.7619 43.5241,-163.5771 48.7403,-135.6549"/>
<polygon fill="none" stroke="#404040" points="48.7402,-135.6549 45.9101,-129.0223 50.9439,-123.8589 53.7741,-130.4915 48.7402,-135.6549"/>
<text text-anchor="middle" x="59" y="-189" font-family="Helvetica,sans-Serif" font-size="10.00" fill="#000000"> +x</text>
<text text-anchor="middle" x="59" y="-178" font-family="Helvetica,sans-Serif" font-size="10.00" fill="#000000">+y</text>
<text text-anchor="middle" x="59" y="-167" font-family="Helvetica,sans-Serif" font-size="10.00" fill="#000000">+ex</text>
<text text-anchor="middle" x="59" y="-156" font-family="Helvetica,sans-Serif" font-size="10.00" fill="#000000">+z</text>
<text text-anchor="middle" x="59" y="-145" font-family="Helvetica,sans-Serif" font-size="10.00" fill="#000000">+ey</text>
</g>
<!-- Node3 -->
<g id="node3" class="node">
<title>Node3</title>
<polygon fill="none" stroke="#bfbfbf" points="66,-215.5 66,-272.5 127,-272.5 127,-215.5 66,-215.5"/>
<text text-anchor="middle" x="96.5" y="-260.5" font-family="Helvetica,sans-Serif" font-size="10.00" fill="#000000">unsigned</text>
<polyline fill="none" stroke="#bfbfbf" points="66,-253.5 127,-253.5 "/>
<text text-anchor="middle" x="96.5" y="-241.5" font-family="Helvetica,sans-Serif" font-size="10.00" fill="#000000"> </text>
<polyline fill="none" stroke="#bfbfbf" points="66,-234.5 127,-234.5 "/>
<text text-anchor="middle" x="96.5" y="-222.5" font-family="Helvetica,sans-Serif" font-size="10.00" fill="#000000"> </text>
</g>
<!-- Node3&#45;&gt;Node1 -->
<g id="edge2" class="edge">
<title>Node3&#45;&gt;Node1</title>
<path fill="none" stroke="#404040" d="M91.1126,-215.1616C87.1149,-193.7619 81.4759,-163.5771 76.2597,-135.6549"/>
<polygon fill="none" stroke="#404040" points="76.2598,-135.6549 71.2259,-130.4915 74.0561,-123.8589 79.0899,-129.0223 76.2598,-135.6549"/>
<text text-anchor="middle" x="113.5" y="-178" font-family="Helvetica,sans-Serif" font-size="10.00" fill="#000000"> +firstDigit</text>
<text text-anchor="middle" x="113.5" y="-167" font-family="Helvetica,sans-Serif" font-size="10.00" fill="#000000">+uid</text>
<text text-anchor="middle" x="113.5" y="-156" font-family="Helvetica,sans-Serif" font-size="10.00" fill="#000000">+nDigits</text>
</g>
</g>
</svg>
