<?xml version="1.0" encoding="UTF-8" standalone="no"?>
<!DOCTYPE svg PUBLIC "-//W3C//DTD SVG 1.1//EN"
 "http://www.w3.org/Graphics/SVG/1.1/DTD/svg11.dtd">
<!-- Generated by graphviz version 2.40.1 (20161225.0304)
 -->
<!-- Title: DummyTask2 Pages: 1 -->
<svg width="773pt" height="805pt"
 viewBox="0.00 0.00 773.35 805.00" xmlns="http://www.w3.org/2000/svg" xmlns:xlink="http://www.w3.org/1999/xlink">
<g id="graph0" class="graph" transform="scale(1 1) rotate(0) translate(4 801)">
<title>DummyTask2</title>
<!-- Node1 -->
<g id="node1" class="node">
<title>Node1</title>
<polygon fill="#bfbfbf" stroke="#000000" points="325.8466,-.5 325.8466,-57.5 408.8466,-57.5 408.8466,-.5 325.8466,-.5"/>
<text text-anchor="middle" x="367.3466" y="-45.5" font-family="Helvetica,sans-Serif" font-size="10.00" fill="#000000">DummyTask2</text>
<polyline fill="none" stroke="#000000" points="325.8466,-38.5 408.8466,-38.5 "/>
<text text-anchor="middle" x="367.3466" y="-26.5" font-family="Helvetica,sans-Serif" font-size="10.00" fill="#000000"> </text>
<polyline fill="none" stroke="#000000" points="325.8466,-19.5 408.8466,-19.5 "/>
<text text-anchor="start" x="333.8466" y="-7.5" font-family="Helvetica,sans-Serif" font-size="10.00" fill="#000000">+ process()</text>
</g>
<!-- Node2 -->
<g id="node2" class="node">
<title>Node2</title>
<g id="a_node2"><a xlink:href="../../d4/d79/structo2_1_1framework_1_1OutputObj.html" target="_top" xlink:title="{o2::framework::OutputObj\l\&lt; TH1F \&gt;\n||+ spec()\l+ OutputObj()\l+ OutputObj()\l+ setObject()\l+ setObject()\l+ setObject()\l+ setHash()\l+ operator&#45;\&gt;()\l+ operator*()\l+ ref()\l}">
<polygon fill="none" stroke="#000000" points="295.8466,-127.5 295.8466,-294.5 438.8466,-294.5 438.8466,-127.5 295.8466,-127.5"/>
<text text-anchor="start" x="303.8466" y="-282.5" font-family="Helvetica,sans-Serif" font-size="10.00" fill="#000000">o2::framework::OutputObj</text>
<text text-anchor="middle" x="367.3466" y="-271.5" font-family="Helvetica,sans-Serif" font-size="10.00" fill="#000000">&lt; TH1F &gt;</text>
<polyline fill="none" stroke="#000000" points="295.8466,-264.5 438.8466,-264.5 "/>
<text text-anchor="middle" x="367.3466" y="-252.5" font-family="Helvetica,sans-Serif" font-size="10.00" fill="#000000"> </text>
<polyline fill="none" stroke="#000000" points="295.8466,-245.5 438.8466,-245.5 "/>
<text text-anchor="start" x="303.8466" y="-233.5" font-family="Helvetica,sans-Serif" font-size="10.00" fill="#000000">+ spec()</text>
<text text-anchor="start" x="303.8466" y="-222.5" font-family="Helvetica,sans-Serif" font-size="10.00" fill="#000000">+ OutputObj()</text>
<text text-anchor="start" x="303.8466" y="-211.5" font-family="Helvetica,sans-Serif" font-size="10.00" fill="#000000">+ OutputObj()</text>
<text text-anchor="start" x="303.8466" y="-200.5" font-family="Helvetica,sans-Serif" font-size="10.00" fill="#000000">+ setObject()</text>
<text text-anchor="start" x="303.8466" y="-189.5" font-family="Helvetica,sans-Serif" font-size="10.00" fill="#000000">+ setObject()</text>
<text text-anchor="start" x="303.8466" y="-178.5" font-family="Helvetica,sans-Serif" font-size="10.00" fill="#000000">+ setObject()</text>
<text text-anchor="start" x="303.8466" y="-167.5" font-family="Helvetica,sans-Serif" font-size="10.00" fill="#000000">+ setHash()</text>
<text text-anchor="start" x="303.8466" y="-156.5" font-family="Helvetica,sans-Serif" font-size="10.00" fill="#000000">+ operator&#45;&gt;()</text>
<text text-anchor="start" x="303.8466" y="-145.5" font-family="Helvetica,sans-Serif" font-size="10.00" fill="#000000">+ operator*()</text>
<text text-anchor="start" x="303.8466" y="-134.5" font-family="Helvetica,sans-Serif" font-size="10.00" fill="#000000">+ ref()</text>
</a>
</g>
</g>
<!-- Node2&#45;&gt;Node1 -->
<g id="edge1" class="edge">
<title>Node2&#45;&gt;Node1</title>
<path fill="none" stroke="#404040" d="M367.3466,-127.4574C367.3466,-107.4028 367.3466,-86.862 367.3466,-69.766"/>
<polygon fill="none" stroke="#404040" points="367.3467,-69.7067 363.3466,-63.7067 367.3466,-57.7067 371.3466,-63.7066 367.3467,-69.7067"/>
<text text-anchor="middle" x="381.3466" y="-101" font-family="Helvetica,sans-Serif" font-size="10.00" fill="#000000"> +pt1</text>
<text text-anchor="middle" x="381.3466" y="-90" font-family="Helvetica,sans-Serif" font-size="10.00" fill="#000000">+pt2</text>
<text text-anchor="middle" x="381.3466" y="-79" font-family="Helvetica,sans-Serif" font-size="10.00" fill="#000000">+pt3</text>
</g>
<!-- Node3 -->
<g id="node3" class="node">
<title>Node3</title>
<polygon fill="none" stroke="#bfbfbf" points="119.8466,-574 119.8466,-631 258.8466,-631 258.8466,-574 119.8466,-574"/>
<text text-anchor="middle" x="189.3466" y="-619" font-family="Helvetica,sans-Serif" font-size="10.00" fill="#000000">OutputObjHandlingPolicy</text>
<polyline fill="none" stroke="#bfbfbf" points="119.8466,-612 258.8466,-612 "/>
<text text-anchor="middle" x="189.3466" y="-600" font-family="Helvetica,sans-Serif" font-size="10.00" fill="#000000"> </text>
<polyline fill="none" stroke="#bfbfbf" points="119.8466,-593 258.8466,-593 "/>
<text text-anchor="middle" x="189.3466" y="-581" font-family="Helvetica,sans-Serif" font-size="10.00" fill="#000000"> </text>
</g>
<!-- Node3&#45;&gt;Node2 -->
<g id="edge2" class="edge">
<title>Node3&#45;&gt;Node2</title>
<path fill="none" stroke="#404040" d="M197.0925,-573.6453C200.5836,-559.8978 204.5423,-543.1783 207.3466,-528 222.49,-446.0352 193.8786,-416.456 231.3466,-342 244.5634,-315.7357 265.2119,-291.7955 286.4627,-271.7746"/>
<polygon fill="none" stroke="#404040" points="286.7276,-271.5326 288.4595,-264.5326 295.5872,-263.4388 293.8553,-270.4389 286.7276,-271.5326"/>
<text text-anchor="middle" x="251.8466" y="-418" font-family="Helvetica,sans-Serif" font-size="10.00" fill="#000000"> +policy</text>
</g>
<!-- Node11 -->
<g id="node11" class="node">
<title>Node11</title>
<g id="a_node11"><a xlink:href="../../d4/d79/structo2_1_1framework_1_1OutputObj.html" target="_top" xlink:title="{o2::framework::OutputObj\&lt; T \&gt;\n||+ OutputObj()\l+ OutputObj()\l+ setObject()\l+ setObject()\l+ setObject()\l+ setHash()\l+ spec()\l+ operator&#45;\&gt;()\l+ operator*()\l+ ref()\l}">
<polygon fill="none" stroke="#000000" points="281.3466,-342.5 281.3466,-498.5 453.3466,-498.5 453.3466,-342.5 281.3466,-342.5"/>
<text text-anchor="middle" x="367.3466" y="-486.5" font-family="Helvetica,sans-Serif" font-size="10.00" fill="#000000">o2::framework::OutputObj&lt; T &gt;</text>
<polyline fill="none" stroke="#000000" points="281.3466,-479.5 453.3466,-479.5 "/>
<text text-anchor="middle" x="367.3466" y="-467.5" font-family="Helvetica,sans-Serif" font-size="10.00" fill="#000000"> </text>
<polyline fill="none" stroke="#000000" points="281.3466,-460.5 453.3466,-460.5 "/>
<text text-anchor="start" x="289.3466" y="-448.5" font-family="Helvetica,sans-Serif" font-size="10.00" fill="#000000">+ OutputObj()</text>
<text text-anchor="start" x="289.3466" y="-437.5" font-family="Helvetica,sans-Serif" font-size="10.00" fill="#000000">+ OutputObj()</text>
<text text-anchor="start" x="289.3466" y="-426.5" font-family="Helvetica,sans-Serif" font-size="10.00" fill="#000000">+ setObject()</text>
<text text-anchor="start" x="289.3466" y="-415.5" font-family="Helvetica,sans-Serif" font-size="10.00" fill="#000000">+ setObject()</text>
<text text-anchor="start" x="289.3466" y="-404.5" font-family="Helvetica,sans-Serif" font-size="10.00" fill="#000000">+ setObject()</text>
<text text-anchor="start" x="289.3466" y="-393.5" font-family="Helvetica,sans-Serif" font-size="10.00" fill="#000000">+ setHash()</text>
<text text-anchor="start" x="289.3466" y="-382.5" font-family="Helvetica,sans-Serif" font-size="10.00" fill="#000000">+ spec()</text>
<text text-anchor="start" x="289.3466" y="-371.5" font-family="Helvetica,sans-Serif" font-size="10.00" fill="#000000">+ operator&#45;&gt;()</text>
<text text-anchor="start" x="289.3466" y="-360.5" font-family="Helvetica,sans-Serif" font-size="10.00" fill="#000000">+ operator*()</text>
<text text-anchor="start" x="289.3466" y="-349.5" font-family="Helvetica,sans-Serif" font-size="10.00" fill="#000000">+ ref()</text>
</a>
</g>
</g>
<!-- Node3&#45;&gt;Node11 -->
<g id="edge12" class="edge">
<title>Node3&#45;&gt;Node11</title>
<path fill="none" stroke="#404040" d="M217.5512,-573.6616C235.1874,-555.6291 258.9244,-531.3586 282.2974,-507.4604"/>
<polygon fill="none" stroke="#404040" points="282.4895,-507.2639 283.8251,-500.1776 290.88,-498.6849 289.5445,-505.7712 282.4895,-507.2639"/>
<text text-anchor="middle" x="288.8466" y="-520" font-family="Helvetica,sans-Serif" font-size="10.00" fill="#000000"> +policy</text>
</g>
<!-- Node4 -->
<g id="node4" class="node">
<title>Node4</title>
<polygon fill="none" stroke="#bfbfbf" points="395.8466,-723 395.8466,-780 424.8466,-780 424.8466,-723 395.8466,-723"/>
<text text-anchor="middle" x="410.3466" y="-768" font-family="Helvetica,sans-Serif" font-size="10.00" fill="#000000">int</text>
<polyline fill="none" stroke="#bfbfbf" points="395.8466,-761 424.8466,-761 "/>
<text text-anchor="middle" x="410.3466" y="-749" font-family="Helvetica,sans-Serif" font-size="10.00" fill="#000000"> </text>
<polyline fill="none" stroke="#bfbfbf" points="395.8466,-742 424.8466,-742 "/>
<text text-anchor="middle" x="410.3466" y="-730" font-family="Helvetica,sans-Serif" font-size="10.00" fill="#000000"> </text>
</g>
<!-- Node4&#45;&gt;Node2 -->
<g id="edge3" class="edge">
<title>Node4&#45;&gt;Node2</title>
<path fill="none" stroke="#404040" d="M395.571,-749.9252C334.086,-743.0513 99.6072,-713.5505 54.3466,-659 -36.0447,-550.0554 -3.7006,-452.0459 85.3466,-342 135.1362,-280.4692 220.3998,-246.4483 284.1689,-228.6095"/>
<polygon fill="none" stroke="#404040" points="284.2277,-228.5937 288.9768,-223.1673 295.8124,-225.4639 291.0633,-230.8904 284.2277,-228.5937"/>
<text text-anchor="middle" x="19.3466" y="-520" font-family="Helvetica,sans-Serif" font-size="10.00" fill="#000000"> +label</text>
</g>
<!-- Node6 -->
<g id="node6" class="node">
<title>Node6</title>
<g id="a_node6"><a xlink:href="../../da/d96/structo2_1_1framework_1_1InputSpec.html" target="_top" xlink:title="{o2::framework::InputSpec\n||+ InputSpec()\l+ InputSpec()\l+ InputSpec()\l+ InputSpec()\l+ InputSpec()\l+ operator==()\l}">
<polygon fill="none" stroke="#000000" points="464.3466,-546.5 464.3466,-658.5 606.3466,-658.5 606.3466,-546.5 464.3466,-546.5"/>
<text text-anchor="middle" x="535.3466" y="-646.5" font-family="Helvetica,sans-Serif" font-size="10.00" fill="#000000">o2::framework::InputSpec</text>
<polyline fill="none" stroke="#000000" points="464.3466,-639.5 606.3466,-639.5 "/>
<text text-anchor="middle" x="535.3466" y="-627.5" font-family="Helvetica,sans-Serif" font-size="10.00" fill="#000000"> </text>
<polyline fill="none" stroke="#000000" points="464.3466,-620.5 606.3466,-620.5 "/>
<text text-anchor="start" x="472.3466" y="-608.5" font-family="Helvetica,sans-Serif" font-size="10.00" fill="#000000">+ InputSpec()</text>
<text text-anchor="start" x="472.3466" y="-597.5" font-family="Helvetica,sans-Serif" font-size="10.00" fill="#000000">+ InputSpec()</text>
<text text-anchor="start" x="472.3466" y="-586.5" font-family="Helvetica,sans-Serif" font-size="10.00" fill="#000000">+ InputSpec()</text>
<text text-anchor="start" x="472.3466" y="-575.5" font-family="Helvetica,sans-Serif" font-size="10.00" fill="#000000">+ InputSpec()</text>
<text text-anchor="start" x="472.3466" y="-564.5" font-family="Helvetica,sans-Serif" font-size="10.00" fill="#000000">+ InputSpec()</text>
<text text-anchor="start" x="472.3466" y="-553.5" font-family="Helvetica,sans-Serif" font-size="10.00" fill="#000000">+ operator==()</text>
</a>
</g>
</g>
<!-- Node4&#45;&gt;Node6 -->
<g id="edge8" class="edge">
<title>Node4&#45;&gt;Node6</title>
<path fill="none" stroke="#404040" d="M424.9123,-726.8621C429.3066,-719.9393 434.3079,-712.5241 439.3466,-706 449.2916,-693.1231 460.5346,-679.9645 471.7335,-667.5363"/>
<polygon fill="none" stroke="#404040" points="471.772,-667.4941 472.8619,-660.3658 479.8611,-658.6302 478.7712,-665.7585 471.772,-667.4941"/>
<text text-anchor="middle" x="485.3466" y="-680" font-family="Helvetica,sans-Serif" font-size="10.00" fill="#000000"> +binding</text>
</g>
<!-- Node4&#45;&gt;Node11 -->
<g id="edge13" class="edge">
<title>Node4&#45;&gt;Node11</title>
<path fill="none" stroke="#404040" d="M409.2767,-722.8154C407.3128,-678.451 402.1921,-590.6219 390.3466,-517 389.9975,-514.8307 389.6262,-512.6379 389.2355,-510.4294"/>
<polygon fill="none" stroke="#404040" points="389.2118,-510.3033 384.166,-505.1516 386.9807,-498.5125 392.0265,-503.6643 389.2118,-510.3033"/>
<text text-anchor="middle" x="424.3466" y="-600" font-family="Helvetica,sans-Serif" font-size="10.00" fill="#000000"> +label</text>
</g>
<!-- Node5 -->
<g id="node5" class="node">
<title>Node5</title>
<polygon fill="none" stroke="#bfbfbf" points="63.3466,-574 63.3466,-631 101.3466,-631 101.3466,-574 63.3466,-574"/>
<text text-anchor="middle" x="82.3466" y="-619" font-family="Helvetica,sans-Serif" font-size="10.00" fill="#000000">bool</text>
<polyline fill="none" stroke="#bfbfbf" points="63.3466,-612 101.3466,-612 "/>
<text text-anchor="middle" x="82.3466" y="-600" font-family="Helvetica,sans-Serif" font-size="10.00" fill="#000000"> </text>
<polyline fill="none" stroke="#bfbfbf" points="63.3466,-593 101.3466,-593 "/>
<text text-anchor="middle" x="82.3466" y="-581" font-family="Helvetica,sans-Serif" font-size="10.00" fill="#000000"> </text>
</g>
<!-- Node5&#45;&gt;Node2 -->
<g id="edge4" class="edge">
<title>Node5&#45;&gt;Node2</title>
<path fill="none" stroke="#404040" d="M82.2577,-573.6497C83.5126,-522.1256 92.729,-413.0423 145.3466,-342 180.0534,-295.1402 236.9445,-262.0441 284.4444,-240.8407"/>
<polygon fill="none" stroke="#404040" points="284.6627,-240.746 288.5748,-234.6883 295.6711,-235.9695 291.7591,-242.0272 284.6627,-240.746"/>
<text text-anchor="middle" x="176.3466" y="-418" font-family="Helvetica,sans-Serif" font-size="10.00" fill="#000000"> +isdangling</text>
</g>
<!-- Node5&#45;&gt;Node11 -->
<g id="edge15" class="edge">
<title>Node5&#45;&gt;Node11</title>
<path fill="none" stroke="#404040" d="M91.4095,-573.72C95.7679,-563.7899 101.9238,-553.3312 110.3466,-546 164.9661,-498.4588 201.3958,-531.0134 266.3466,-499 267.7472,-498.3097 269.1471,-497.598 270.5452,-496.8668"/>
<polygon fill="none" stroke="#404040" points="270.7376,-496.7592 274.0235,-490.3403 281.2125,-490.9046 277.9266,-497.3236 270.7376,-496.7592"/>
<text text-anchor="middle" x="210.3466" y="-520" font-family="Helvetica,sans-Serif" font-size="10.00" fill="#000000"> +isdangling</text>
</g>
<!-- Node6&#45;&gt;Node2 -->
<g id="edge5" class="edge">
<title>Node6&#45;&gt;Node2</title>
<path fill="none" stroke="#404040" d="M513.9661,-546.4932C508.5049,-531.2091 502.8971,-514.5687 498.3466,-499 478.2624,-430.2864 491.9565,-407.1781 462.3466,-342 456.6274,-329.4107 449.5957,-316.82 441.9677,-304.6937"/>
<polygon fill="none" stroke="#404040" points="441.9676,-304.6936 435.3461,-301.8377 435.4356,-294.6271 442.0571,-297.483 441.9676,-304.6936"/>
<text text-anchor="middle" x="515.3466" y="-418" font-family="Helvetica,sans-Serif" font-size="10.00" fill="#000000"> +spec</text>
</g>
<!-- Node6&#45;&gt;Node11 -->
<g id="edge16" class="edge">
<title>Node6&#45;&gt;Node11</title>
<path fill="none" stroke="#404040" d="M463.8846,-548.8066C456.3296,-542.1028 448.9905,-535.0992 442.3466,-528 436.5203,-521.7745 430.7929,-515.0685 425.2602,-508.156"/>
<polygon fill="none" stroke="#404040" points="425.2151,-508.098 418.3734,-505.8194 417.8453,-498.6276 424.687,-500.9062 425.2151,-508.098"/>
<text text-anchor="middle" x="459.3466" y="-520" font-family="Helvetica,sans-Serif" font-size="10.00" fill="#000000"> +spec</text>
</g>
<!-- Node7 -->
<g id="node7" class="node">
<title>Node7</title>
<polygon fill="none" stroke="#bfbfbf" points="630.3466,-723 630.3466,-780 718.3466,-780 718.3466,-723 630.3466,-723"/>
<text text-anchor="middle" x="674.3466" y="-768" font-family="Helvetica,sans-Serif" font-size="10.00" fill="#000000">enum Lifetime</text>
<polyline fill="none" stroke="#bfbfbf" points="630.3466,-761 718.3466,-761 "/>
<text text-anchor="middle" x="674.3466" y="-749" font-family="Helvetica,sans-Serif" font-size="10.00" fill="#000000"> </text>
<polyline fill="none" stroke="#bfbfbf" points="630.3466,-742 718.3466,-742 "/>
<text text-anchor="middle" x="674.3466" y="-730" font-family="Helvetica,sans-Serif" font-size="10.00" fill="#000000"> </text>
</g>
<!-- Node7&#45;&gt;Node6 -->
<g id="edge6" class="edge">
<title>Node7&#45;&gt;Node6</title>
<path fill="none" stroke="#404040" d="M647.546,-722.7713C632.8373,-707.0044 613.9626,-686.7719 595.9066,-667.4168"/>
<polygon fill="none" stroke="#404040" points="595.8718,-667.3796 588.8541,-665.7208 587.6861,-658.6049 594.7038,-660.2637 595.8718,-667.3796"/>
<text text-anchor="middle" x="637.3466" y="-680" font-family="Helvetica,sans-Serif" font-size="10.00" fill="#000000"> +lifetime</text>
</g>
<!-- Node8 -->
<g id="node8" class="node">
<title>Node8</title>
<polygon fill="none" stroke="#bfbfbf" points="448.3466,-706.5 448.3466,-796.5 612.3466,-796.5 612.3466,-706.5 448.3466,-706.5"/>
<text text-anchor="start" x="456.3466" y="-784.5" font-family="Helvetica,sans-Serif" font-size="10.00" fill="#000000">variant&lt; o2::framework</text>
<text text-anchor="start" x="456.3466" y="-773.5" font-family="Helvetica,sans-Serif" font-size="10.00" fill="#000000">::ConcreteDataMatcher,</text>
<text text-anchor="start" x="456.3466" y="-762.5" font-family="Helvetica,sans-Serif" font-size="10.00" fill="#000000"> o2::framework::data_matcher</text>
<text text-anchor="middle" x="530.3466" y="-751.5" font-family="Helvetica,sans-Serif" font-size="10.00" fill="#000000">::DataDescriptorMatcher &gt;</text>
<polyline fill="none" stroke="#bfbfbf" points="448.3466,-744.5 612.3466,-744.5 "/>
<text text-anchor="middle" x="530.3466" y="-732.5" font-family="Helvetica,sans-Serif" font-size="10.00" fill="#000000"> </text>
<polyline fill="none" stroke="#bfbfbf" points="448.3466,-725.5 612.3466,-725.5 "/>
<text text-anchor="middle" x="530.3466" y="-713.5" font-family="Helvetica,sans-Serif" font-size="10.00" fill="#000000"> </text>
</g>
<!-- Node8&#45;&gt;Node6 -->
<g id="edge7" class="edge">
<title>Node8&#45;&gt;Node6</title>
<path fill="none" stroke="#404040" d="M531.8603,-706.3907C532.2397,-695.0845 532.6552,-682.7027 533.063,-670.5514"/>
<polygon fill="none" stroke="#404040" points="533.064,-670.5186 529.2675,-664.3878 533.4665,-658.5254 537.263,-664.6562 533.064,-670.5186"/>
<text text-anchor="middle" x="558.3466" y="-680" font-family="Helvetica,sans-Serif" font-size="10.00" fill="#000000"> +matcher</text>
</g>
<!-- Node9 -->
<g id="node9" class="node">
<title>Node9</title>
<polygon fill="none" stroke="#bfbfbf" points="643.8466,-574 643.8466,-631 704.8466,-631 704.8466,-574 643.8466,-574"/>
<text text-anchor="middle" x="674.3466" y="-619" font-family="Helvetica,sans-Serif" font-size="10.00" fill="#000000">unsigned</text>
<polyline fill="none" stroke="#bfbfbf" points="643.8466,-612 704.8466,-612 "/>
<text text-anchor="middle" x="674.3466" y="-600" font-family="Helvetica,sans-Serif" font-size="10.00" fill="#000000"> </text>
<polyline fill="none" stroke="#bfbfbf" points="643.8466,-593 704.8466,-593 "/>
<text text-anchor="middle" x="674.3466" y="-581" font-family="Helvetica,sans-Serif" font-size="10.00" fill="#000000"> </text>
</g>
<!-- Node9&#45;&gt;Node2 -->
<g id="edge9" class="edge">
<title>Node9&#45;&gt;Node2</title>
<path fill="none" stroke="#404040" d="M682.6238,-573.6871C695.5731,-522.2224 714.4819,-413.23 666.3466,-342 617.9768,-270.423 521.2006,-237.6398 450.813,-222.8291"/>
<polygon fill="none" stroke="#404040" points="450.6421,-222.7949 443.9726,-225.5369 438.8764,-220.4351 445.5458,-217.6931 450.6421,-222.7949"/>
<text text-anchor="middle" x="731.3466" y="-418" font-family="Helvetica,sans-Serif" font-size="10.00" fill="#000000"> +mTaskHash</text>
</g>
<!-- Node9&#45;&gt;Node11 -->
<g id="edge17" class="edge">
<title>Node9&#45;&gt;Node11</title>
<path fill="none" stroke="#404040" d="M649.4871,-573.7763C639.6798,-563.8523 627.7865,-553.3831 615.3466,-546 555.9972,-510.7762 528.3537,-531.2676 467.3466,-499 466.3436,-498.4695 465.3406,-497.9287 464.338,-497.3781"/>
<polygon fill="none" stroke="#404040" points="463.9956,-497.1786 456.7976,-497.6133 453.6279,-491.1362 460.8259,-490.7015 463.9956,-497.1786"/>
<text text-anchor="middle" x="607.3466" y="-520" font-family="Helvetica,sans-Serif" font-size="10.00" fill="#000000"> +mTaskHash</text>
</g>
<!-- Node10 -->
<g id="node10" class="node">
<title>Node10</title>
<polygon fill="none" stroke="#bfbfbf" points="541.3466,-392 541.3466,-449 657.3466,-449 657.3466,-392 541.3466,-392"/>
<text text-anchor="middle" x="599.3466" y="-437" font-family="Helvetica,sans-Serif" font-size="10.00" fill="#000000">shared_ptr&lt; TH1F &gt;</text>
<polyline fill="none" stroke="#bfbfbf" points="541.3466,-430 657.3466,-430 "/>
<text text-anchor="middle" x="599.3466" y="-418" font-family="Helvetica,sans-Serif" font-size="10.00" fill="#000000"> </text>
<polyline fill="none" stroke="#bfbfbf" points="541.3466,-411 657.3466,-411 "/>
<text text-anchor="middle" x="599.3466" y="-399" font-family="Helvetica,sans-Serif" font-size="10.00" fill="#000000"> </text>
</g>
<!-- Node10&#45;&gt;Node2 -->
<g id="edge10" class="edge">
<title>Node10&#45;&gt;Node2</title>
<path fill="none" stroke="#404040" d="M576.311,-391.6972C557.6984,-369.196 530.2582,-337.7051 503.3466,-313 486.4058,-297.4483 467.1786,-281.9142 448.626,-267.8278"/>
<polygon fill="none" stroke="#404040" points="448.5974,-267.8063 441.3976,-267.4023 439.0014,-260.601 446.2012,-261.005 448.5974,-267.8063"/>
<text text-anchor="middle" x="535.3466" y="-316" font-family="Helvetica,sans-Serif" font-size="10.00" fill="#000000"> +object</text>
</g>
<!-- Node11&#45;&gt;Node2 -->
<g id="edge11" class="edge">
<title>Node11&#45;&gt;Node2</title>
<path fill="none" stroke="#ffa500" d="M367.3466,-332.1539C367.3466,-319.7421 367.3466,-307.0152 367.3466,-294.6937"/>
<polygon fill="#ffa500" stroke="#ffa500" points="363.8467,-332.4899 367.3466,-342.4899 370.8467,-332.49 363.8467,-332.4899"/>
<text text-anchor="middle" x="392.8466" y="-316" font-family="Helvetica,sans-Serif" font-size="10.00" fill="#000000"> &lt; TH1F &gt;</text>
</g>
<!-- Node12 -->
<g id="node12" class="node">
<title>Node12</title>
<polygon fill="none" stroke="#bfbfbf" points="276.8466,-574 276.8466,-631 373.8466,-631 373.8466,-574 276.8466,-574"/>
<text text-anchor="middle" x="325.3466" y="-619" font-family="Helvetica,sans-Serif" font-size="10.00" fill="#000000">shared_ptr&lt; T &gt;</text>
<polyline fill="none" stroke="#bfbfbf" points="276.8466,-612 373.8466,-612 "/>
<text text-anchor="middle" x="325.3466" y="-600" font-family="Helvetica,sans-Serif" font-size="10.00" fill="#000000"> </text>
<polyline fill="none" stroke="#bfbfbf" points="276.8466,-593 373.8466,-593 "/>
<text text-anchor="middle" x="325.3466" y="-581" font-family="Helvetica,sans-Serif" font-size="10.00" fill="#000000"> </text>
</g>
<!-- Node12&#45;&gt;Node11 -->
<g id="edge14" class="edge">
<title>Node12&#45;&gt;Node11</title>
<path fill="none" stroke="#404040" d="M332.0016,-573.6616C335.9804,-556.42 341.2753,-533.4756 346.5528,-510.6065"/>
<polygon fill="none" stroke="#404040" points="346.6055,-510.3776 344.0572,-503.6318 349.3039,-498.6849 351.8523,-505.4307 346.6055,-510.3776"/>
<text text-anchor="middle" x="365.3466" y="-520" font-family="Helvetica,sans-Serif" font-size="10.00" fill="#000000"> +object</text>
</g>
</g>
</svg>
