<?xml version="1.0" encoding="UTF-8" standalone="no"?>
<!DOCTYPE svg PUBLIC "-//W3C//DTD SVG 1.1//EN"
 "http://www.w3.org/Graphics/SVG/1.1/DTD/svg11.dtd">
<!-- Generated by graphviz version 2.40.1 (20161225.0304)
 -->
<!-- Title: o2::vertexing::PrimaryVertexReader Pages: 1 -->
<!--zoomable 325 -->
<svg id="main" version="1.1" xmlns="http://www.w3.org/2000/svg" xmlns:xlink="http://www.w3.org/1999/xlink" xml:space="preserve" onload="init(evt)">
<style type="text/css"><![CDATA[
.edge:hover path { stroke: red; }
.edge:hover polygon { stroke: red; fill: red; }
]]></style>
<script type="text/javascript"><![CDATA[
var edges = document.getElementsByTagName('g');
if (edges && edges.length) {
  for (var i=0;i<edges.length;i++) {
    if (edges[i].id.substr(0,4)=='edge') {
      edges[i].setAttribute('class','edge');
    }
  }
}
]]></script>
        <defs>
                <circle id="rim" cx="0" cy="0" r="7"/>
                <circle id="rim2" cx="0" cy="0" r="3.5"/>
                <g id="zoomPlus">
                        <use xlink:href="#rim" fill="#404040">
                                <set attributeName="fill" to="#808080" begin="zoomplus.mouseover" end="zoomplus.mouseout"/>
                        </use>
                        <path d="M-4,0h8M0,-4v8" fill="none" stroke="white" stroke-width="1.5" pointer-events="none"/>
                </g>
                <g id="zoomMin">
                        <use xlink:href="#rim" fill="#404040">
                                <set attributeName="fill" to="#808080" begin="zoomminus.mouseover" end="zoomminus.mouseout"/>
                        </use>
                        <path d="M-4,0h8" fill="none" stroke="white" stroke-width="1.5" pointer-events="none"/>
                </g>
                <g id="dirArrow">
                        <path fill="none" stroke="white" stroke-width="1.5" d="M0,-3.0v7 M-2.5,-0.5L0,-3.0L2.5,-0.5"/>
                </g>
               <g id="resetDef">
                       <use xlink:href="#rim2" fill="#404040">
                               <set attributeName="fill" to="#808080" begin="reset.mouseover" end="reset.mouseout"/>
                       </use>
               </g>
        </defs>

<script type="text/javascript">
var viewWidth = 1694;
var viewHeight = 325;
var sectionId = 'dynsection-1';
</script>
<script xlink:href="../../svgpan.js"/>
<svg id="graph" class="graph">
<g id="viewport">
<title>o2::vertexing::PrimaryVertexReader</title>
<!-- Node2 -->
<g id="node1" class="node">
<title>Node2</title>
<polygon fill="#bfbfbf" stroke="#000000" points="708.5,-.5 708.5,-112.5 865.5,-112.5 865.5,-.5 708.5,-.5"/>
<text text-anchor="start" x="716.5" y="-100.5" font-family="Helvetica,sans-Serif" font-size="10.00" fill="#000000">o2::vertexing::PrimaryVertex</text>
<text text-anchor="middle" x="787" y="-89.5" font-family="Helvetica,sans-Serif" font-size="10.00" fill="#000000">Reader</text>
<polyline fill="none" stroke="#000000" points="708.5,-82.5 865.5,-82.5 "/>
<text text-anchor="middle" x="787" y="-70.5" font-family="Helvetica,sans-Serif" font-size="10.00" fill="#000000"> </text>
<polyline fill="none" stroke="#000000" points="708.5,-63.5 865.5,-63.5 "/>
<text text-anchor="start" x="716.5" y="-51.5" font-family="Helvetica,sans-Serif" font-size="10.00" fill="#000000">+ PrimaryVertexReader()</text>
<text text-anchor="start" x="716.5" y="-40.5" font-family="Helvetica,sans-Serif" font-size="10.00" fill="#000000">+ ~PrimaryVertexReader()</text>
<text text-anchor="start" x="716.5" y="-29.5" font-family="Helvetica,sans-Serif" font-size="10.00" fill="#000000">+ init()</text>
<text text-anchor="start" x="716.5" y="-18.5" font-family="Helvetica,sans-Serif" font-size="10.00" fill="#000000">+ run()</text>
<text text-anchor="start" x="716.5" y="-7.5" font-family="Helvetica,sans-Serif" font-size="10.00" fill="#000000"># connectTree()</text>
</g>
<!-- Node3 -->
<g id="node2" class="node">
<title>Node3</title>
<g id="a_node2"><a xlink:href="../../de/dac/classo2_1_1framework_1_1Task.html" target="_top" xlink:title="{o2::framework::Task\n||+ ~Task()\l+ init()\l+ run()\l+ endOfStream()\l}">
<polygon fill="none" stroke="#000000" points="0,-226.5 0,-316.5 116,-316.5 116,-226.5 0,-226.5"/>
<text text-anchor="middle" x="58" y="-304.5" font-family="Helvetica,sans-Serif" font-size="10.00" fill="#000000">o2::framework::Task</text>
<polyline fill="none" stroke="#000000" points="0,-297.5 116,-297.5 "/>
<text text-anchor="middle" x="58" y="-285.5" font-family="Helvetica,sans-Serif" font-size="10.00" fill="#000000"> </text>
<polyline fill="none" stroke="#000000" points="0,-278.5 116,-278.5 "/>
<text text-anchor="start" x="8" y="-266.5" font-family="Helvetica,sans-Serif" font-size="10.00" fill="#000000">+ ~Task()</text>
<text text-anchor="start" x="8" y="-255.5" font-family="Helvetica,sans-Serif" font-size="10.00" fill="#000000">+ init()</text>
<text text-anchor="start" x="8" y="-244.5" font-family="Helvetica,sans-Serif" font-size="10.00" fill="#000000">+ run()</text>
<text text-anchor="start" x="8" y="-233.5" font-family="Helvetica,sans-Serif" font-size="10.00" fill="#000000">+ endOfStream()</text>
</a>
</g>
</g>
<!-- Node3&#45;&gt;Node2 -->
<g id="edge1" class="edge">
<title>Node3&#45;&gt;Node2</title>
<path fill="none" stroke="#191970" d="M105.4528,-219.0319C136.5725,-188.1404 179.9215,-151.2609 226,-131 310.7687,-93.7268 574.8647,-70.9519 708.2408,-61.533"/>
<polygon fill="none" stroke="#191970" points="102.7666,-216.77 98.209,-226.3344 107.7363,-221.6997 102.7666,-216.77"/>
</g>
<!-- Node4 -->
<g id="node3" class="node">
<title>Node4</title>
<polygon fill="none" stroke="#bfbfbf" points="134.5,-237.5 134.5,-305.5 271.5,-305.5 271.5,-237.5 134.5,-237.5"/>
<text text-anchor="start" x="142.5" y="-293.5" font-family="Helvetica,sans-Serif" font-size="10.00" fill="#000000">vector&lt; o2::dataformats</text>
<text text-anchor="middle" x="203" y="-282.5" font-family="Helvetica,sans-Serif" font-size="10.00" fill="#000000">::RangeReference &gt;</text>
<polyline fill="none" stroke="#bfbfbf" points="134.5,-275.5 271.5,-275.5 "/>
<text text-anchor="middle" x="203" y="-263.5" font-family="Helvetica,sans-Serif" font-size="10.00" fill="#000000"> </text>
<polyline fill="none" stroke="#bfbfbf" points="134.5,-256.5 271.5,-256.5 "/>
<text text-anchor="middle" x="203" y="-244.5" font-family="Helvetica,sans-Serif" font-size="10.00" fill="#000000"> </text>
</g>
<!-- Node4&#45;&gt;Node2 -->
<g id="edge2" class="edge">
<title>Node4&#45;&gt;Node2</title>
<path fill="none" stroke="#404040" d="M214.9592,-237.3808C228.3661,-204.5032 253.4206,-156.1528 292,-131 356.9932,-88.626 572.1288,-69.1194 696.3474,-61.1952"/>
<polygon fill="none" stroke="#404040" points="696.4686,-61.1877 702.2083,-56.8224 708.4454,-60.4416 702.7057,-64.8069 696.4686,-61.1877"/>
<text text-anchor="middle" x="324" y="-167" font-family="Helvetica,sans-Serif" font-size="10.00" fill="#000000"> #mPV2TrIdx</text>
</g>
<!-- Node5 -->
<g id="node4" class="node">
<title>Node5</title>
<polygon fill="none" stroke="#bfbfbf" points="289.5,-243 289.5,-300 380.5,-300 380.5,-243 289.5,-243"/>
<text text-anchor="middle" x="335" y="-288" font-family="Helvetica,sans-Serif" font-size="10.00" fill="#000000">vector&lt; int &gt; *</text>
<polyline fill="none" stroke="#bfbfbf" points="289.5,-281 380.5,-281 "/>
<text text-anchor="middle" x="335" y="-269" font-family="Helvetica,sans-Serif" font-size="10.00" fill="#000000"> </text>
<polyline fill="none" stroke="#bfbfbf" points="289.5,-262 380.5,-262 "/>
<text text-anchor="middle" x="335" y="-250" font-family="Helvetica,sans-Serif" font-size="10.00" fill="#000000"> </text>
</g>
<!-- Node5&#45;&gt;Node2 -->
<g id="edge3" class="edge">
<title>Node5&#45;&gt;Node2</title>
<path fill="none" stroke="#404040" d="M344.1377,-242.8845C356.0302,-210.4693 380.0269,-158.5797 419,-131 462.7111,-100.0675 601.8928,-78.1532 695.9965,-66.4224"/>
<polygon fill="none" stroke="#404040" points="696.1885,-66.399 701.6571,-61.6985 708.0993,-64.9386 702.6307,-69.6391 696.1885,-66.399"/>
<text text-anchor="middle" x="454.5" y="-167" font-family="Helvetica,sans-Serif" font-size="10.00" fill="#000000"> #mPVTrIdxPtr</text>
</g>
<!-- Node6 -->
<g id="node5" class="node">
<title>Node6</title>
<polygon fill="none" stroke="#bfbfbf" points="398.5,-243 398.5,-300 511.5,-300 511.5,-243 398.5,-243"/>
<text text-anchor="middle" x="455" y="-288" font-family="Helvetica,sans-Serif" font-size="10.00" fill="#000000">unique_ptr&lt; TFile &gt;</text>
<polyline fill="none" stroke="#bfbfbf" points="398.5,-281 511.5,-281 "/>
<text text-anchor="middle" x="455" y="-269" font-family="Helvetica,sans-Serif" font-size="10.00" fill="#000000"> </text>
<polyline fill="none" stroke="#bfbfbf" points="398.5,-262 511.5,-262 "/>
<text text-anchor="middle" x="455" y="-250" font-family="Helvetica,sans-Serif" font-size="10.00" fill="#000000"> </text>
</g>
<!-- Node6&#45;&gt;Node2 -->
<g id="edge4" class="edge">
<title>Node6&#45;&gt;Node2</title>
<path fill="none" stroke="#404040" d="M470.6989,-242.9181C489.4585,-211.2732 523.6847,-160.8055 566,-131 604.7296,-103.7202 654.2199,-85.8144 696.5451,-74.4124"/>
<polygon fill="none" stroke="#404040" points="696.6631,-74.3819 701.4655,-69.0025 708.2781,-71.3665 703.4757,-76.7459 696.6631,-74.3819"/>
<text text-anchor="middle" x="585" y="-167" font-family="Helvetica,sans-Serif" font-size="10.00" fill="#000000"> #mFile</text>
</g>
<!-- Node7 -->
<g id="node6" class="node">
<title>Node7</title>
<polygon fill="none" stroke="#bfbfbf" points="529.5,-243 529.5,-300 646.5,-300 646.5,-243 529.5,-243"/>
<text text-anchor="middle" x="588" y="-288" font-family="Helvetica,sans-Serif" font-size="10.00" fill="#000000">unique_ptr&lt; TTree &gt;</text>
<polyline fill="none" stroke="#bfbfbf" points="529.5,-281 646.5,-281 "/>
<text text-anchor="middle" x="588" y="-269" font-family="Helvetica,sans-Serif" font-size="10.00" fill="#000000"> </text>
<polyline fill="none" stroke="#bfbfbf" points="529.5,-262 646.5,-262 "/>
<text text-anchor="middle" x="588" y="-250" font-family="Helvetica,sans-Serif" font-size="10.00" fill="#000000"> </text>
</g>
<!-- Node7&#45;&gt;Node2 -->
<g id="edge5" class="edge">
<title>Node7&#45;&gt;Node2</title>
<path fill="none" stroke="#404040" d="M595.6901,-242.9193C605.1542,-212.208 623.7921,-163.4471 654,-131 661.5669,-122.8722 678.4645,-112.0676 697.7624,-101.2146"/>
<polygon fill="none" stroke="#404040" points="697.8503,-101.1661 701.174,-94.7667 708.3596,-95.3735 705.0358,-101.7729 697.8503,-101.1661"/>
<text text-anchor="middle" x="675" y="-167" font-family="Helvetica,sans-Serif" font-size="10.00" fill="#000000"> #mTree</text>
</g>
<!-- Node8 -->
<g id="node7" class="node">
<title>Node8</title>
<polygon fill="none" stroke="#bfbfbf" points="664.5,-243 664.5,-300 747.5,-300 747.5,-243 664.5,-243"/>
<text text-anchor="middle" x="706" y="-288" font-family="Helvetica,sans-Serif" font-size="10.00" fill="#000000">vector&lt; int &gt;</text>
<polyline fill="none" stroke="#bfbfbf" points="664.5,-281 747.5,-281 "/>
<text text-anchor="middle" x="706" y="-269" font-family="Helvetica,sans-Serif" font-size="10.00" fill="#000000"> </text>
<polyline fill="none" stroke="#bfbfbf" points="664.5,-262 747.5,-262 "/>
<text text-anchor="middle" x="706" y="-250" font-family="Helvetica,sans-Serif" font-size="10.00" fill="#000000"> </text>
</g>
<!-- Node8&#45;&gt;Node2 -->
<g id="edge6" class="edge">
<title>Node8&#45;&gt;Node2</title>
<path fill="none" stroke="#404040" d="M701.9465,-242.9529C699.0428,-213.5623 698.0531,-167.0914 714,-131 715.1733,-128.3447 716.4858,-125.7297 717.9157,-123.1606"/>
<polygon fill="none" stroke="#404040" points="718.002,-123.0235 717.8155,-115.8148 724.398,-112.8701 724.5845,-120.0788 718.002,-123.0235"/>
<text text-anchor="middle" x="743" y="-167" font-family="Helvetica,sans-Serif" font-size="10.00" fill="#000000"> #mPVTrIdx</text>
</g>
<!-- Node9 -->
<g id="node8" class="node">
<title>Node9</title>
<polygon fill="none" stroke="#bfbfbf" points="765.5,-243 765.5,-300 930.5,-300 930.5,-243 765.5,-243"/>
<text text-anchor="middle" x="848" y="-288" font-family="Helvetica,sans-Serif" font-size="10.00" fill="#000000">vector&lt; o2::MCEventLabel &gt; *</text>
<polyline fill="none" stroke="#bfbfbf" points="765.5,-281 930.5,-281 "/>
<text text-anchor="middle" x="848" y="-269" font-family="Helvetica,sans-Serif" font-size="10.00" fill="#000000"> </text>
<polyline fill="none" stroke="#bfbfbf" points="765.5,-262 930.5,-262 "/>
<text text-anchor="middle" x="848" y="-250" font-family="Helvetica,sans-Serif" font-size="10.00" fill="#000000"> </text>
</g>
<!-- Node9&#45;&gt;Node2 -->
<g id="edge7" class="edge">
<title>Node9&#45;&gt;Node2</title>
<path fill="none" stroke="#404040" d="M812.3945,-242.9721C802.6116,-233.0491 793.256,-221.0896 788,-208 777.5884,-182.0708 775.6455,-151.5735 776.9356,-124.7642"/>
<polygon fill="none" stroke="#404040" points="776.9392,-124.709 773.347,-118.4563 777.7371,-112.7355 781.3293,-118.9882 776.9392,-124.709"/>
<text text-anchor="middle" x="821.5" y="-167" font-family="Helvetica,sans-Serif" font-size="10.00" fill="#000000"> #mLabelsPtr</text>
</g>
<!-- Node10 -->
<g id="node9" class="node">
<title>Node10</title>
<polygon fill="none" stroke="#bfbfbf" points="948.5,-243 948.5,-300 977.5,-300 977.5,-243 948.5,-243"/>
<text text-anchor="middle" x="963" y="-288" font-family="Helvetica,sans-Serif" font-size="10.00" fill="#000000">int</text>
<polyline fill="none" stroke="#bfbfbf" points="948.5,-281 977.5,-281 "/>
<text text-anchor="middle" x="963" y="-269" font-family="Helvetica,sans-Serif" font-size="10.00" fill="#000000"> </text>
<polyline fill="none" stroke="#bfbfbf" points="948.5,-262 977.5,-262 "/>
<text text-anchor="middle" x="963" y="-250" font-family="Helvetica,sans-Serif" font-size="10.00" fill="#000000"> </text>
</g>
<!-- Node10&#45;&gt;Node2 -->
<g id="edge8" class="edge">
<title>Node10&#45;&gt;Node2</title>
<path fill="none" stroke="#404040" d="M953.0612,-242.9647C949.7387,-236.6608 945.4492,-230.5218 940,-226 917.919,-207.6768 898.3673,-228.2109 878,-208 852.6476,-182.8423 872.5928,-162.0829 855,-131 853.3975,-128.1687 851.6695,-125.356 849.8426,-122.5741"/>
<polygon fill="none" stroke="#404040" points="849.763,-122.4613 843.035,-119.8662 842.8427,-112.6576 849.5707,-115.2527 849.763,-122.4613"/>
<text text-anchor="start" x="878" y="-200" font-family="Helvetica,sans-Serif" font-size="10.00" fill="#000000"> #mVertex2TrackIDRefsBranch</text>
<text text-anchor="middle" x="955" y="-189" font-family="Helvetica,sans-Serif" font-size="10.00" fill="#000000">Name</text>
<text text-anchor="middle" x="955" y="-178" font-family="Helvetica,sans-Serif" font-size="10.00" fill="#000000">#mVertexTrackIDsBranchName</text>
<text text-anchor="middle" x="955" y="-167" font-family="Helvetica,sans-Serif" font-size="10.00" fill="#000000">#mFileName</text>
<text text-anchor="middle" x="955" y="-156" font-family="Helvetica,sans-Serif" font-size="10.00" fill="#000000">#mVertexTreeName</text>
<text text-anchor="middle" x="955" y="-145" font-family="Helvetica,sans-Serif" font-size="10.00" fill="#000000">#mVertexLabelsBranchName</text>
<text text-anchor="middle" x="955" y="-134" font-family="Helvetica,sans-Serif" font-size="10.00" fill="#000000">#mVertexBranchName</text>
</g>
<!-- Node11 -->
<g id="node10" class="node">
<title>Node11</title>
<polygon fill="none" stroke="#bfbfbf" points="1007,-243 1007,-300 1045,-300 1045,-243 1007,-243"/>
<text text-anchor="middle" x="1026" y="-288" font-family="Helvetica,sans-Serif" font-size="10.00" fill="#000000">bool</text>
<polyline fill="none" stroke="#bfbfbf" points="1007,-281 1045,-281 "/>
<text text-anchor="middle" x="1026" y="-269" font-family="Helvetica,sans-Serif" font-size="10.00" fill="#000000"> </text>
<polyline fill="none" stroke="#bfbfbf" points="1007,-262 1045,-262 "/>
<text text-anchor="middle" x="1026" y="-250" font-family="Helvetica,sans-Serif" font-size="10.00" fill="#000000"> </text>
</g>
<!-- Node11&#45;&gt;Node2 -->
<g id="edge9" class="edge">
<title>Node11&#45;&gt;Node2</title>
<path fill="none" stroke="#404040" d="M1036.9165,-242.8501C1046.6171,-212.0789 1055.9136,-163.2665 1032,-131 1013.1309,-105.5401 939.2985,-85.3327 877.5707,-72.4234"/>
<polygon fill="none" stroke="#404040" points="877.5616,-72.4216 870.8822,-75.1392 865.8046,-70.0189 872.484,-67.3012 877.5616,-72.4216"/>
<text text-anchor="middle" x="1074.5" y="-167" font-family="Helvetica,sans-Serif" font-size="10.00" fill="#000000"> #mUseMC</text>
</g>
<!-- Node12 -->
<g id="node11" class="node">
<title>Node12</title>
<polygon fill="none" stroke="#bfbfbf" points="1063.5,-237.5 1063.5,-305.5 1200.5,-305.5 1200.5,-237.5 1063.5,-237.5"/>
<text text-anchor="start" x="1071.5" y="-293.5" font-family="Helvetica,sans-Serif" font-size="10.00" fill="#000000">vector&lt; o2::dataformats</text>
<text text-anchor="middle" x="1132" y="-282.5" font-family="Helvetica,sans-Serif" font-size="10.00" fill="#000000">::PrimaryVertex &gt; *</text>
<polyline fill="none" stroke="#bfbfbf" points="1063.5,-275.5 1200.5,-275.5 "/>
<text text-anchor="middle" x="1132" y="-263.5" font-family="Helvetica,sans-Serif" font-size="10.00" fill="#000000"> </text>
<polyline fill="none" stroke="#bfbfbf" points="1063.5,-256.5 1200.5,-256.5 "/>
<text text-anchor="middle" x="1132" y="-244.5" font-family="Helvetica,sans-Serif" font-size="10.00" fill="#000000"> </text>
</g>
<!-- Node12&#45;&gt;Node2 -->
<g id="edge10" class="edge">
<title>Node12&#45;&gt;Node2</title>
<path fill="none" stroke="#404040" d="M1135.4077,-237.3547C1136.5784,-205.6327 1132.8922,-159.1712 1106,-131 1074.9805,-98.5052 960.7624,-77.7447 877.8443,-66.6106"/>
<polygon fill="none" stroke="#404040" points="877.7493,-66.5982 871.28,-69.7838 865.8512,-65.0374 872.3205,-61.8518 877.7493,-66.5982"/>
<text text-anchor="middle" x="1171" y="-167" font-family="Helvetica,sans-Serif" font-size="10.00" fill="#000000"> #mVerticesPtr</text>
</g>
<!-- Node13 -->
<g id="node12" class="node">
<title>Node13</title>
<polygon fill="none" stroke="#bfbfbf" points="1218.5,-237.5 1218.5,-305.5 1355.5,-305.5 1355.5,-237.5 1218.5,-237.5"/>
<text text-anchor="start" x="1226.5" y="-293.5" font-family="Helvetica,sans-Serif" font-size="10.00" fill="#000000">vector&lt; o2::dataformats</text>
<text text-anchor="middle" x="1287" y="-282.5" font-family="Helvetica,sans-Serif" font-size="10.00" fill="#000000">::RangeReference &gt; *</text>
<polyline fill="none" stroke="#bfbfbf" points="1218.5,-275.5 1355.5,-275.5 "/>
<text text-anchor="middle" x="1287" y="-263.5" font-family="Helvetica,sans-Serif" font-size="10.00" fill="#000000"> </text>
<polyline fill="none" stroke="#bfbfbf" points="1218.5,-256.5 1355.5,-256.5 "/>
<text text-anchor="middle" x="1287" y="-244.5" font-family="Helvetica,sans-Serif" font-size="10.00" fill="#000000"> </text>
</g>
<!-- Node13&#45;&gt;Node2 -->
<g id="edge11" class="edge">
<title>Node13&#45;&gt;Node2</title>
<path fill="none" stroke="#404040" d="M1278.1906,-237.3814C1267.911,-204.7462 1247.6014,-156.7943 1212,-131 1159.9419,-93.2823 986.6496,-72.6523 878.0863,-63.1513"/>
<polygon fill="none" stroke="#404040" points="877.7897,-63.126 871.4703,-66.5994 865.8334,-62.1021 872.1529,-58.6286 877.7897,-63.126"/>
<text text-anchor="middle" x="1304.5" y="-167" font-family="Helvetica,sans-Serif" font-size="10.00" fill="#000000"> #mPV2TrIdxPtr</text>
</g>
<!-- Node14 -->
<g id="node13" class="node">
<title>Node14</title>
<polygon fill="none" stroke="#bfbfbf" points="1373.5,-243 1373.5,-300 1530.5,-300 1530.5,-243 1373.5,-243"/>
<text text-anchor="middle" x="1452" y="-288" font-family="Helvetica,sans-Serif" font-size="10.00" fill="#000000">vector&lt; o2::MCEventLabel &gt;</text>
<polyline fill="none" stroke="#bfbfbf" points="1373.5,-281 1530.5,-281 "/>
<text text-anchor="middle" x="1452" y="-269" font-family="Helvetica,sans-Serif" font-size="10.00" fill="#000000"> </text>
<polyline fill="none" stroke="#bfbfbf" points="1373.5,-262 1530.5,-262 "/>
<text text-anchor="middle" x="1452" y="-250" font-family="Helvetica,sans-Serif" font-size="10.00" fill="#000000"> </text>
</g>
<!-- Node14&#45;&gt;Node2 -->
<g id="edge12" class="edge">
<title>Node14&#45;&gt;Node2</title>
<path fill="none" stroke="#404040" d="M1439.2409,-242.8724C1422.9283,-209.9328 1391.3861,-157.0443 1347,-131 1269.4028,-85.4685 1015.4156,-66.935 877.712,-60.0877"/>
<polygon fill="none" stroke="#404040" points="877.5556,-60.0802 871.369,-63.7851 865.5697,-59.4993 871.7563,-55.7944 877.5556,-60.0802"/>
<text text-anchor="middle" x="1443.5" y="-167" font-family="Helvetica,sans-Serif" font-size="10.00" fill="#000000"> #mLabels</text>
</g>
<!-- Node15 -->
<g id="node14" class="node">
<title>Node15</title>
<polygon fill="none" stroke="#bfbfbf" points="1548.5,-237.5 1548.5,-305.5 1685.5,-305.5 1685.5,-237.5 1548.5,-237.5"/>
<text text-anchor="start" x="1556.5" y="-293.5" font-family="Helvetica,sans-Serif" font-size="10.00" fill="#000000">vector&lt; o2::dataformats</text>
<text text-anchor="middle" x="1617" y="-282.5" font-family="Helvetica,sans-Serif" font-size="10.00" fill="#000000">::PrimaryVertex &gt;</text>
<polyline fill="none" stroke="#bfbfbf" points="1548.5,-275.5 1685.5,-275.5 "/>
<text text-anchor="middle" x="1617" y="-263.5" font-family="Helvetica,sans-Serif" font-size="10.00" fill="#000000"> </text>
<polyline fill="none" stroke="#bfbfbf" points="1548.5,-256.5 1685.5,-256.5 "/>
<text text-anchor="middle" x="1617" y="-244.5" font-family="Helvetica,sans-Serif" font-size="10.00" fill="#000000"> </text>
</g>
<!-- Node15&#45;&gt;Node2 -->
<g id="edge13" class="edge">
<title>Node15&#45;&gt;Node2</title>
<path fill="none" stroke="#404040" d="M1593.2235,-237.4124C1567.8758,-204.0651 1524.4853,-154.9095 1474,-131 1370.5732,-82.0177 1039.7594,-64.6666 877.9119,-59.0049"/>
<polygon fill="none" stroke="#404040" points="877.6065,-58.9946 871.4738,-62.7879 865.6135,-58.5859 871.7463,-54.7926 877.6065,-58.9946"/>
<text text-anchor="middle" x="1596.5" y="-167" font-family="Helvetica,sans-Serif" font-size="10.00" fill="#000000"> #mVertices</text>
</g>
</g>
</svg>
        <g id="navigator" transform="translate(0 0)" fill="#404254">
                <rect fill="#f2f5e9" fill-opacity="0.5" stroke="#606060" stroke-width=".5" x="0" y="0" width="60" height="60"/>
                <use id="zoomplus" xlink:href="#zoomPlus" x="17" y="9" onmousedown="handleZoom(evt,'in')"/>
                <use id="zoomminus" xlink:href="#zoomMin" x="42" y="9" onmousedown="handleZoom(evt,'out')"/>
                <use id="reset" xlink:href="#resetDef" x="30" y="36" onmousedown="handleReset()"/>
                <g id="arrowUp" xlink:href="#dirArrow" transform="translate(30 24)" onmousedown="handlePan(0,-1)">
                  <use xlink:href="#rim" fill="#404040">
                        <set attributeName="fill" to="#808080" begin="arrowUp.mouseover" end="arrowUp.mouseout"/>
                  </use>
                  <path fill="none" stroke="white" stroke-width="1.5" d="M0,-3.0v7 M-2.5,-0.5L0,-3.0L2.5,-0.5"/>
                </g>
                <g id="arrowRight" xlink:href="#dirArrow" transform="rotate(90) translate(36 -43)" onmousedown="handlePan(1,0)">
                  <use xlink:href="#rim" fill="#404040">
                        <set attributeName="fill" to="#808080" begin="arrowRight.mouseover" end="arrowRight.mouseout"/>
                  </use>
                  <path fill="none" stroke="white" stroke-width="1.5" d="M0,-3.0v7 M-2.5,-0.5L0,-3.0L2.5,-0.5"/>
                </g>
                <g id="arrowDown" xlink:href="#dirArrow" transform="rotate(180) translate(-30 -48)" onmousedown="handlePan(0,1)">
                  <use xlink:href="#rim" fill="#404040">
                        <set attributeName="fill" to="#808080" begin="arrowDown.mouseover" end="arrowDown.mouseout"/>
                  </use>
                  <path fill="none" stroke="white" stroke-width="1.5" d="M0,-3.0v7 M-2.5,-0.5L0,-3.0L2.5,-0.5"/>
                </g>
                <g id="arrowLeft" xlink:href="#dirArrow" transform="rotate(270) translate(-36 17)" onmousedown="handlePan(-1,0)">
                  <use xlink:href="#rim" fill="#404040">
                        <set attributeName="fill" to="#808080" begin="arrowLeft.mouseover" end="arrowLeft.mouseout"/>
                  </use>
                  <path fill="none" stroke="white" stroke-width="1.5" d="M0,-3.0v7 M-2.5,-0.5L0,-3.0L2.5,-0.5"/>
                </g>
        </g>
        <svg viewBox="0 0 15 15" width="100%" height="30px" preserveAspectRatio="xMaxYMin meet">
         <g id="arrow_out" transform="scale(0.3 0.3)">
          <a xlink:href="classo2_1_1vertexing_1_1PrimaryVertexReader__coll__graph_org.svg" target="_base">
           <rect id="button" ry="5" rx="5" y="6" x="6" height="38" width="38"
                fill="#f2f5e9" fill-opacity="0.5" stroke="#606060" stroke-width="1.0"/>
           <path id="arrow"
             d="M 11.500037,31.436501 C 11.940474,20.09759 22.043105,11.32322 32.158766,21.979434 L 37.068811,17.246167 C 37.068811,17.246167 37.088388,32 37.088388,32 L 22.160133,31.978069 C 22.160133,31.978069 26.997745,27.140456 26.997745,27.140456 C 18.528582,18.264221 13.291696,25.230495 11.500037,31.436501 z"
             style="fill:#404040;"/>
          </a>
         </g>
        </svg>
</svg>
