<?xml version="1.0" encoding="UTF-8" standalone="no"?>
<!DOCTYPE svg PUBLIC "-//W3C//DTD SVG 1.1//EN"
 "http://www.w3.org/Graphics/SVG/1.1/DTD/svg11.dtd">
<!-- Generated by graphviz version 2.40.1 (20161225.0304)
 -->
<!-- Title: HFTrackIndexSkimsCreator Pages: 1 -->
<svg width="1893pt" height="849pt"
 viewBox="0.00 0.00 1893.00 849.00" xmlns="http://www.w3.org/2000/svg" xmlns:xlink="http://www.w3.org/1999/xlink">
<g id="graph0" class="graph" transform="scale(1 1) rotate(0) translate(4 845)">
<title>HFTrackIndexSkimsCreator</title>
<!-- Node1 -->
<g id="node1" class="node">
<title>Node1</title>
<polygon fill="#bfbfbf" stroke="#000000" points="544.5,-.5 544.5,-57.5 692.5,-57.5 692.5,-.5 544.5,-.5"/>
<text text-anchor="middle" x="618.5" y="-45.5" font-family="Helvetica,sans-Serif" font-size="10.00" fill="#000000">HFTrackIndexSkimsCreator</text>
<polyline fill="none" stroke="#000000" points="544.5,-38.5 692.5,-38.5 "/>
<text text-anchor="middle" x="618.5" y="-26.5" font-family="Helvetica,sans-Serif" font-size="10.00" fill="#000000"> </text>
<polyline fill="none" stroke="#000000" points="544.5,-19.5 692.5,-19.5 "/>
<text text-anchor="start" x="552.5" y="-7.5" font-family="Helvetica,sans-Serif" font-size="10.00" fill="#000000">+ process()</text>
</g>
<!-- Node2 -->
<g id="node2" class="node">
<title>Node2</title>
<g id="a_node2"><a xlink:href="../../d6/d86/structo2_1_1framework_1_1Produces.html" target="_top" xlink:title="{o2::framework::Produces\l\&lt; aod::HfTrackIndexProng2 \&gt;\n||}">
<polygon fill="none" stroke="#000000" points="0,-166 0,-234 161,-234 161,-166 0,-166"/>
<text text-anchor="start" x="8" y="-222" font-family="Helvetica,sans-Serif" font-size="10.00" fill="#000000">o2::framework::Produces</text>
<text text-anchor="middle" x="80.5" y="-211" font-family="Helvetica,sans-Serif" font-size="10.00" fill="#000000">&lt; aod::HfTrackIndexProng2 &gt;</text>
<polyline fill="none" stroke="#000000" points="0,-204 161,-204 "/>
<text text-anchor="middle" x="80.5" y="-192" font-family="Helvetica,sans-Serif" font-size="10.00" fill="#000000"> </text>
<polyline fill="none" stroke="#000000" points="0,-185 161,-185 "/>
<text text-anchor="middle" x="80.5" y="-173" font-family="Helvetica,sans-Serif" font-size="10.00" fill="#000000"> </text>
</a>
</g>
</g>
<!-- Node2&#45;&gt;Node1 -->
<g id="edge1" class="edge">
<title>Node2&#45;&gt;Node1</title>
<path fill="none" stroke="#404040" d="M91.6248,-165.9173C103.0344,-136.8353 123.7929,-96.5587 156.5,-76 187.506,-56.5105 407.2372,-41.01 532.1734,-33.654"/>
<polygon fill="none" stroke="#404040" points="532.3489,-33.6439 538.1063,-29.3019 544.3286,-32.9464 538.5712,-37.2884 532.3489,-33.6439"/>
<text text-anchor="middle" x="214.5" y="-84.5" font-family="Helvetica,sans-Serif" font-size="10.00" fill="#000000"> +rowTrackIndexProng2</text>
</g>
<!-- Node3 -->
<g id="node3" class="node">
<title>Node3</title>
<g id="a_node3"><a xlink:href="../../d6/d86/structo2_1_1framework_1_1Produces.html" target="_top" xlink:title="{o2::framework::Produces\&lt; T \&gt;\n||}">
<polygon fill="none" stroke="#000000" points="79,-425 79,-482 246,-482 246,-425 79,-425"/>
<text text-anchor="middle" x="162.5" y="-470" font-family="Helvetica,sans-Serif" font-size="10.00" fill="#000000">o2::framework::Produces&lt; T &gt;</text>
<polyline fill="none" stroke="#000000" points="79,-463 246,-463 "/>
<text text-anchor="middle" x="162.5" y="-451" font-family="Helvetica,sans-Serif" font-size="10.00" fill="#000000"> </text>
<polyline fill="none" stroke="#000000" points="79,-444 246,-444 "/>
<text text-anchor="middle" x="162.5" y="-432" font-family="Helvetica,sans-Serif" font-size="10.00" fill="#000000"> </text>
</a>
</g>
</g>
<!-- Node3&#45;&gt;Node2 -->
<g id="edge2" class="edge">
<title>Node3&#45;&gt;Node2</title>
<path fill="none" stroke="#ffa500" d="M119.6194,-417.6176C103.1302,-401.0736 86.1862,-380.0028 77.5,-357 62.3316,-316.831 66.963,-266.6621 72.7726,-234.0024"/>
<polygon fill="#ffa500" stroke="#ffa500" points="117.513,-420.4499 127.1322,-424.8909 122.382,-415.4206 117.513,-420.4499"/>
<text text-anchor="middle" x="151.5" y="-327" font-family="Helvetica,sans-Serif" font-size="10.00" fill="#000000"> &lt; aod::HfTrackIndexProng2 &gt;</text>
</g>
<!-- Node23 -->
<g id="node23" class="node">
<title>Node23</title>
<g id="a_node23"><a xlink:href="../../d6/d86/structo2_1_1framework_1_1Produces.html" target="_top" xlink:title="{o2::framework::Produces\l\&lt; aod::HfTrackIndexProng3 \&gt;\n||}">
<polygon fill="none" stroke="#000000" points="195,-166 195,-234 356,-234 356,-166 195,-166"/>
<text text-anchor="start" x="203" y="-222" font-family="Helvetica,sans-Serif" font-size="10.00" fill="#000000">o2::framework::Produces</text>
<text text-anchor="middle" x="275.5" y="-211" font-family="Helvetica,sans-Serif" font-size="10.00" fill="#000000">&lt; aod::HfTrackIndexProng3 &gt;</text>
<polyline fill="none" stroke="#000000" points="195,-204 356,-204 "/>
<text text-anchor="middle" x="275.5" y="-192" font-family="Helvetica,sans-Serif" font-size="10.00" fill="#000000"> </text>
<polyline fill="none" stroke="#000000" points="195,-185 356,-185 "/>
<text text-anchor="middle" x="275.5" y="-173" font-family="Helvetica,sans-Serif" font-size="10.00" fill="#000000"> </text>
</a>
</g>
</g>
<!-- Node3&#45;&gt;Node23 -->
<g id="edge37" class="edge">
<title>Node3&#45;&gt;Node23</title>
<path fill="none" stroke="#ffa500" d="M190.0223,-416.5192C202.0819,-399.1048 215.6904,-377.6573 225.5,-357 244.7653,-316.4308 259.2062,-266.5724 267.4942,-234.0772"/>
<polygon fill="#ffa500" stroke="#ffa500" points="187.142,-414.5305 184.2499,-424.723 192.8669,-418.5587 187.142,-414.5305"/>
<text text-anchor="middle" x="321.5" y="-327" font-family="Helvetica,sans-Serif" font-size="10.00" fill="#000000"> &lt; aod::HfTrackIndexProng3 &gt;</text>
</g>
<!-- Node4 -->
<g id="node4" class="node">
<title>Node4</title>
<g id="a_node4"><a xlink:href="../../d8/d71/structo2_1_1framework_1_1Configurable.html" target="_top" xlink:title="{o2::framework::Configurable\l\&lt; double \&gt;\n||+ Configurable()\l+ operator double()\l+ operator&#45;\&gt;()\l}">
<polygon fill="none" stroke="#000000" points="620,-408.5 620,-498.5 775,-498.5 775,-408.5 620,-408.5"/>
<text text-anchor="start" x="628" y="-486.5" font-family="Helvetica,sans-Serif" font-size="10.00" fill="#000000">o2::framework::Configurable</text>
<text text-anchor="middle" x="697.5" y="-475.5" font-family="Helvetica,sans-Serif" font-size="10.00" fill="#000000">&lt; double &gt;</text>
<polyline fill="none" stroke="#000000" points="620,-468.5 775,-468.5 "/>
<text text-anchor="middle" x="697.5" y="-456.5" font-family="Helvetica,sans-Serif" font-size="10.00" fill="#000000"> </text>
<polyline fill="none" stroke="#000000" points="620,-449.5 775,-449.5 "/>
<text text-anchor="start" x="628" y="-437.5" font-family="Helvetica,sans-Serif" font-size="10.00" fill="#000000">+ Configurable()</text>
<text text-anchor="start" x="628" y="-426.5" font-family="Helvetica,sans-Serif" font-size="10.00" fill="#000000">+ operator double()</text>
<text text-anchor="start" x="628" y="-415.5" font-family="Helvetica,sans-Serif" font-size="10.00" fill="#000000">+ operator&#45;&gt;()</text>
</a>
</g>
</g>
<!-- Node4&#45;&gt;Node1 -->
<g id="edge3" class="edge">
<title>Node4&#45;&gt;Node1</title>
<path fill="none" stroke="#404040" d="M689.1204,-408.473C673.666,-325.4301 640.903,-149.3809 626.0738,-69.697"/>
<polygon fill="none" stroke="#404040" points="626.0487,-69.562 621.0184,-64.3952 623.8531,-57.7646 628.8834,-62.9315 626.0487,-69.562"/>
<text text-anchor="middle" x="720" y="-230.5" font-family="Helvetica,sans-Serif" font-size="10.00" fill="#000000"> +d_maxmassDp</text>
<text text-anchor="middle" x="720" y="-219.5" font-family="Helvetica,sans-Serif" font-size="10.00" fill="#000000">+d_minmassDp</text>
<text text-anchor="middle" x="720" y="-208.5" font-family="Helvetica,sans-Serif" font-size="10.00" fill="#000000">+d_maxdzini</text>
<text text-anchor="middle" x="720" y="-197.5" font-family="Helvetica,sans-Serif" font-size="10.00" fill="#000000">+d_maxr</text>
<text text-anchor="middle" x="720" y="-186.5" font-family="Helvetica,sans-Serif" font-size="10.00" fill="#000000">+d_bz</text>
<text text-anchor="middle" x="720" y="-175.5" font-family="Helvetica,sans-Serif" font-size="10.00" fill="#000000">+d_minrelchi2change</text>
<text text-anchor="middle" x="720" y="-164.5" font-family="Helvetica,sans-Serif" font-size="10.00" fill="#000000">+d_minparamchange</text>
</g>
<!-- Node5 -->
<g id="node5" class="node">
<title>Node5</title>
<polygon fill="none" stroke="#bfbfbf" points="415.5,-607 415.5,-664 465.5,-664 465.5,-607 415.5,-607"/>
<text text-anchor="middle" x="440.5" y="-652" font-family="Helvetica,sans-Serif" font-size="10.00" fill="#000000">double</text>
<polyline fill="none" stroke="#bfbfbf" points="415.5,-645 465.5,-645 "/>
<text text-anchor="middle" x="440.5" y="-633" font-family="Helvetica,sans-Serif" font-size="10.00" fill="#000000"> </text>
<polyline fill="none" stroke="#bfbfbf" points="415.5,-626 465.5,-626 "/>
<text text-anchor="middle" x="440.5" y="-614" font-family="Helvetica,sans-Serif" font-size="10.00" fill="#000000"> </text>
</g>
<!-- Node5&#45;&gt;Node1 -->
<g id="edge9" class="edge">
<title>Node5&#45;&gt;Node1</title>
<path fill="none" stroke="#404040" d="M437.7077,-606.8404C433.5695,-558.7225 427.3287,-458.736 437.5,-375 452.177,-254.1704 459.0628,-217.3283 526.5,-116 538.8194,-97.4894 555.7661,-80.0244 571.7603,-65.6686"/>
<polygon fill="none" stroke="#404040" points="571.9802,-65.477 573.8741,-58.519 581.0252,-57.591 579.1314,-64.549 571.9802,-65.477"/>
<text text-anchor="middle" x="480.5" y="-349" font-family="Helvetica,sans-Serif" font-size="10.00" fill="#000000"> +mass2PiK</text>
<text text-anchor="middle" x="480.5" y="-338" font-family="Helvetica,sans-Serif" font-size="10.00" fill="#000000">+mass2KPi</text>
<text text-anchor="middle" x="480.5" y="-327" font-family="Helvetica,sans-Serif" font-size="10.00" fill="#000000">+mass3PiKPi</text>
<text text-anchor="middle" x="480.5" y="-316" font-family="Helvetica,sans-Serif" font-size="10.00" fill="#000000">+massPi</text>
<text text-anchor="middle" x="480.5" y="-305" font-family="Helvetica,sans-Serif" font-size="10.00" fill="#000000">+massK</text>
</g>
<!-- Node5&#45;&gt;Node4 -->
<g id="edge4" class="edge">
<title>Node5&#45;&gt;Node4</title>
<path fill="none" stroke="#404040" d="M459.3206,-606.7272C466.844,-596.9148 476.1808,-586.5316 486.5,-579 515.0328,-558.1749 527.4343,-562.4282 560.5,-550 582.6083,-541.6903 590.2401,-544.1394 610.5,-532 622.3776,-524.8832 634.0891,-516.0017 644.8833,-506.7971"/>
<polygon fill="none" stroke="#404040" points="645.1117,-506.5958 646.968,-499.6277 654.1141,-498.6612 652.2577,-505.6293 645.1117,-506.5958"/>
<text text-anchor="middle" x="580" y="-553" font-family="Helvetica,sans-Serif" font-size="10.00" fill="#000000"> +value</text>
</g>
<!-- Node6 -->
<g id="node6" class="node">
<title>Node6</title>
<polygon fill="none" stroke="#bfbfbf" points="871,-767 871,-824 900,-824 900,-767 871,-767"/>
<text text-anchor="middle" x="885.5" y="-812" font-family="Helvetica,sans-Serif" font-size="10.00" fill="#000000">int</text>
<polyline fill="none" stroke="#bfbfbf" points="871,-805 900,-805 "/>
<text text-anchor="middle" x="885.5" y="-793" font-family="Helvetica,sans-Serif" font-size="10.00" fill="#000000"> </text>
<polyline fill="none" stroke="#bfbfbf" points="871,-786 900,-786 "/>
<text text-anchor="middle" x="885.5" y="-774" font-family="Helvetica,sans-Serif" font-size="10.00" fill="#000000"> </text>
</g>
<!-- Node6&#45;&gt;Node4 -->
<g id="edge5" class="edge">
<title>Node6&#45;&gt;Node4</title>
<path fill="none" stroke="#404040" d="M870.841,-770.6873C859.1909,-750.1496 843.1391,-719.9193 832.5,-692 809.2765,-631.0566 828.132,-606.4676 795.5,-550 786.6665,-534.7142 774.7608,-520.2083 762.2943,-507.3071"/>
<polygon fill="none" stroke="#404040" points="762.1021,-507.1154 755.029,-505.711 753.605,-498.6419 760.678,-500.0462 762.1021,-507.1154"/>
<text text-anchor="middle" x="852.5" y="-638.5" font-family="Helvetica,sans-Serif" font-size="10.00" fill="#000000"> +name</text>
<text text-anchor="middle" x="852.5" y="-627.5" font-family="Helvetica,sans-Serif" font-size="10.00" fill="#000000">+help</text>
</g>
<!-- Node7 -->
<g id="node7" class="node">
<title>Node7</title>
<g id="a_node7"><a xlink:href="../../d8/d71/structo2_1_1framework_1_1Configurable.html" target="_top" xlink:title="{o2::framework::Configurable\&lt; T \&gt;\n||+ Configurable()\l+ operator T()\l+ operator&#45;\&gt;()\l}">
<polygon fill="none" stroke="#000000" points="573.5,-596 573.5,-675 757.5,-675 757.5,-596 573.5,-596"/>
<text text-anchor="middle" x="665.5" y="-663" font-family="Helvetica,sans-Serif" font-size="10.00" fill="#000000">o2::framework::Configurable&lt; T &gt;</text>
<polyline fill="none" stroke="#000000" points="573.5,-656 757.5,-656 "/>
<text text-anchor="middle" x="665.5" y="-644" font-family="Helvetica,sans-Serif" font-size="10.00" fill="#000000"> </text>
<polyline fill="none" stroke="#000000" points="573.5,-637 757.5,-637 "/>
<text text-anchor="start" x="581.5" y="-625" font-family="Helvetica,sans-Serif" font-size="10.00" fill="#000000">+ Configurable()</text>
<text text-anchor="start" x="581.5" y="-614" font-family="Helvetica,sans-Serif" font-size="10.00" fill="#000000">+ operator T()</text>
<text text-anchor="start" x="581.5" y="-603" font-family="Helvetica,sans-Serif" font-size="10.00" fill="#000000">+ operator&#45;&gt;()</text>
</a>
</g>
</g>
<!-- Node6&#45;&gt;Node7 -->
<g id="edge7" class="edge">
<title>Node6&#45;&gt;Node7</title>
<path fill="none" stroke="#404040" d="M870.8891,-790.3868C845.772,-781.1733 793.4523,-760.0985 755.5,-732 737.3383,-718.5538 719.8105,-701.1425 705.1245,-684.818"/>
<polygon fill="none" stroke="#404040" points="704.7436,-684.3846 697.7783,-682.5178 696.8226,-675.3703 703.7879,-677.2371 704.7436,-684.3846"/>
<text text-anchor="middle" x="775.5" y="-724" font-family="Helvetica,sans-Serif" font-size="10.00" fill="#000000"> +name</text>
<text text-anchor="middle" x="775.5" y="-713" font-family="Helvetica,sans-Serif" font-size="10.00" fill="#000000">+help</text>
</g>
<!-- Node9 -->
<g id="node9" class="node">
<title>Node9</title>
<g id="a_node9"><a xlink:href="../../d8/d71/structo2_1_1framework_1_1Configurable.html" target="_top" xlink:title="{o2::framework::Configurable\l\&lt; int \&gt;\n||+ Configurable()\l+ operator int()\l+ operator&#45;\&gt;()\l}">
<polygon fill="none" stroke="#000000" points="447,-408.5 447,-498.5 602,-498.5 602,-408.5 447,-408.5"/>
<text text-anchor="start" x="455" y="-486.5" font-family="Helvetica,sans-Serif" font-size="10.00" fill="#000000">o2::framework::Configurable</text>
<text text-anchor="middle" x="524.5" y="-475.5" font-family="Helvetica,sans-Serif" font-size="10.00" fill="#000000">&lt; int &gt;</text>
<polyline fill="none" stroke="#000000" points="447,-468.5 602,-468.5 "/>
<text text-anchor="middle" x="524.5" y="-456.5" font-family="Helvetica,sans-Serif" font-size="10.00" fill="#000000"> </text>
<polyline fill="none" stroke="#000000" points="447,-449.5 602,-449.5 "/>
<text text-anchor="start" x="455" y="-437.5" font-family="Helvetica,sans-Serif" font-size="10.00" fill="#000000">+ Configurable()</text>
<text text-anchor="start" x="455" y="-426.5" font-family="Helvetica,sans-Serif" font-size="10.00" fill="#000000">+ operator int()</text>
<text text-anchor="start" x="455" y="-415.5" font-family="Helvetica,sans-Serif" font-size="10.00" fill="#000000">+ operator&#45;&gt;()</text>
</a>
</g>
</g>
<!-- Node6&#45;&gt;Node9 -->
<g id="edge11" class="edge">
<title>Node6&#45;&gt;Node9</title>
<path fill="none" stroke="#404040" d="M870.8889,-793.5901C809.0083,-785.179 569.6786,-749.2927 525.5,-692 485.9742,-640.7414 494.3474,-563.1521 506.8601,-510.5025"/>
<polygon fill="none" stroke="#404040" points="506.9075,-510.3138 504.4943,-503.5185 509.8387,-498.6773 512.252,-505.4726 506.9075,-510.3138"/>
<text text-anchor="middle" x="545" y="-644" font-family="Helvetica,sans-Serif" font-size="10.00" fill="#000000"> +value</text>
<text text-anchor="middle" x="545" y="-633" font-family="Helvetica,sans-Serif" font-size="10.00" fill="#000000">+name</text>
<text text-anchor="middle" x="545" y="-622" font-family="Helvetica,sans-Serif" font-size="10.00" fill="#000000">+help</text>
</g>
<!-- Node10 -->
<g id="node10" class="node">
<title>Node10</title>
<g id="a_node10"><a xlink:href="../../d8/d71/structo2_1_1framework_1_1Configurable.html" target="_top" xlink:title="{o2::framework::Configurable\l\&lt; bool \&gt;\n||+ Configurable()\l+ operator bool()\l+ operator&#45;\&gt;()\l}">
<polygon fill="none" stroke="#000000" points="793,-408.5 793,-498.5 948,-498.5 948,-408.5 793,-408.5"/>
<text text-anchor="start" x="801" y="-486.5" font-family="Helvetica,sans-Serif" font-size="10.00" fill="#000000">o2::framework::Configurable</text>
<text text-anchor="middle" x="870.5" y="-475.5" font-family="Helvetica,sans-Serif" font-size="10.00" fill="#000000">&lt; bool &gt;</text>
<polyline fill="none" stroke="#000000" points="793,-468.5 948,-468.5 "/>
<text text-anchor="middle" x="870.5" y="-456.5" font-family="Helvetica,sans-Serif" font-size="10.00" fill="#000000"> </text>
<polyline fill="none" stroke="#000000" points="793,-449.5 948,-449.5 "/>
<text text-anchor="start" x="801" y="-437.5" font-family="Helvetica,sans-Serif" font-size="10.00" fill="#000000">+ Configurable()</text>
<text text-anchor="start" x="801" y="-426.5" font-family="Helvetica,sans-Serif" font-size="10.00" fill="#000000">+ operator bool()</text>
<text text-anchor="start" x="801" y="-415.5" font-family="Helvetica,sans-Serif" font-size="10.00" fill="#000000">+ operator&#45;&gt;()</text>
</a>
</g>
</g>
<!-- Node6&#45;&gt;Node10 -->
<g id="edge14" class="edge">
<title>Node6&#45;&gt;Node10</title>
<path fill="none" stroke="#404040" d="M884.2469,-766.9295C881.7841,-710.7783 876.2708,-585.0753 873.0242,-511.0515"/>
<polygon fill="none" stroke="#404040" points="873.0104,-510.7352 868.7513,-504.9163 872.4845,-498.7467 876.7436,-504.5657 873.0104,-510.7352"/>
<text text-anchor="middle" x="901.5" y="-638.5" font-family="Helvetica,sans-Serif" font-size="10.00" fill="#000000"> +name</text>
<text text-anchor="middle" x="901.5" y="-627.5" font-family="Helvetica,sans-Serif" font-size="10.00" fill="#000000">+help</text>
</g>
<!-- Node12 -->
<g id="node12" class="node">
<title>Node12</title>
<g id="a_node12"><a xlink:href="../../d4/d79/structo2_1_1framework_1_1OutputObj.html" target="_top" xlink:title="{o2::framework::OutputObj\l\&lt; TH1F \&gt;\n||+ spec()\l+ OutputObj()\l+ OutputObj()\l+ setObject()\l+ setObject()\l+ setObject()\l+ setHash()\l+ operator&#45;\&gt;()\l+ operator*()\l+ ref()\l}">
<polygon fill="none" stroke="#000000" points="1150,-116.5 1150,-283.5 1293,-283.5 1293,-116.5 1150,-116.5"/>
<text text-anchor="start" x="1158" y="-271.5" font-family="Helvetica,sans-Serif" font-size="10.00" fill="#000000">o2::framework::OutputObj</text>
<text text-anchor="middle" x="1221.5" y="-260.5" font-family="Helvetica,sans-Serif" font-size="10.00" fill="#000000">&lt; TH1F &gt;</text>
<polyline fill="none" stroke="#000000" points="1150,-253.5 1293,-253.5 "/>
<text text-anchor="middle" x="1221.5" y="-241.5" font-family="Helvetica,sans-Serif" font-size="10.00" fill="#000000"> </text>
<polyline fill="none" stroke="#000000" points="1150,-234.5 1293,-234.5 "/>
<text text-anchor="start" x="1158" y="-222.5" font-family="Helvetica,sans-Serif" font-size="10.00" fill="#000000">+ spec()</text>
<text text-anchor="start" x="1158" y="-211.5" font-family="Helvetica,sans-Serif" font-size="10.00" fill="#000000">+ OutputObj()</text>
<text text-anchor="start" x="1158" y="-200.5" font-family="Helvetica,sans-Serif" font-size="10.00" fill="#000000">+ OutputObj()</text>
<text text-anchor="start" x="1158" y="-189.5" font-family="Helvetica,sans-Serif" font-size="10.00" fill="#000000">+ setObject()</text>
<text text-anchor="start" x="1158" y="-178.5" font-family="Helvetica,sans-Serif" font-size="10.00" fill="#000000">+ setObject()</text>
<text text-anchor="start" x="1158" y="-167.5" font-family="Helvetica,sans-Serif" font-size="10.00" fill="#000000">+ setObject()</text>
<text text-anchor="start" x="1158" y="-156.5" font-family="Helvetica,sans-Serif" font-size="10.00" fill="#000000">+ setHash()</text>
<text text-anchor="start" x="1158" y="-145.5" font-family="Helvetica,sans-Serif" font-size="10.00" fill="#000000">+ operator&#45;&gt;()</text>
<text text-anchor="start" x="1158" y="-134.5" font-family="Helvetica,sans-Serif" font-size="10.00" fill="#000000">+ operator*()</text>
<text text-anchor="start" x="1158" y="-123.5" font-family="Helvetica,sans-Serif" font-size="10.00" fill="#000000">+ ref()</text>
</a>
</g>
</g>
<!-- Node6&#45;&gt;Node12 -->
<g id="edge19" class="edge">
<title>Node6&#45;&gt;Node12</title>
<path fill="none" stroke="#404040" d="M898.4279,-766.569C907.1428,-746.0924 918.3182,-717.7959 925.5,-692 942.6871,-630.2661 929.2499,-610.4558 950.5,-550 979.9177,-466.3075 995.0698,-447.2825 1046.5,-375 1073.4811,-337.0794 1108.9593,-299.919 1140.9138,-269.6642"/>
<polygon fill="none" stroke="#404040" points="1141.0651,-269.5225 1142.7096,-262.5014 1149.8232,-261.319 1148.1786,-268.3401 1141.0651,-269.5225"/>
<text text-anchor="middle" x="968.5" y="-553" font-family="Helvetica,sans-Serif" font-size="10.00" fill="#000000"> +label</text>
</g>
<!-- Node14 -->
<g id="node14" class="node">
<title>Node14</title>
<g id="a_node14"><a xlink:href="../../da/d96/structo2_1_1framework_1_1InputSpec.html" target="_top" xlink:title="{o2::framework::InputSpec\n||+ InputSpec()\l+ InputSpec()\l+ InputSpec()\l+ InputSpec()\l+ InputSpec()\l+ operator==()\l}">
<polygon fill="none" stroke="#000000" points="1474.5,-579.5 1474.5,-691.5 1616.5,-691.5 1616.5,-579.5 1474.5,-579.5"/>
<text text-anchor="middle" x="1545.5" y="-679.5" font-family="Helvetica,sans-Serif" font-size="10.00" fill="#000000">o2::framework::InputSpec</text>
<polyline fill="none" stroke="#000000" points="1474.5,-672.5 1616.5,-672.5 "/>
<text text-anchor="middle" x="1545.5" y="-660.5" font-family="Helvetica,sans-Serif" font-size="10.00" fill="#000000"> </text>
<polyline fill="none" stroke="#000000" points="1474.5,-653.5 1616.5,-653.5 "/>
<text text-anchor="start" x="1482.5" y="-641.5" font-family="Helvetica,sans-Serif" font-size="10.00" fill="#000000">+ InputSpec()</text>
<text text-anchor="start" x="1482.5" y="-630.5" font-family="Helvetica,sans-Serif" font-size="10.00" fill="#000000">+ InputSpec()</text>
<text text-anchor="start" x="1482.5" y="-619.5" font-family="Helvetica,sans-Serif" font-size="10.00" fill="#000000">+ InputSpec()</text>
<text text-anchor="start" x="1482.5" y="-608.5" font-family="Helvetica,sans-Serif" font-size="10.00" fill="#000000">+ InputSpec()</text>
<text text-anchor="start" x="1482.5" y="-597.5" font-family="Helvetica,sans-Serif" font-size="10.00" fill="#000000">+ InputSpec()</text>
<text text-anchor="start" x="1482.5" y="-586.5" font-family="Helvetica,sans-Serif" font-size="10.00" fill="#000000">+ operator==()</text>
</a>
</g>
</g>
<!-- Node6&#45;&gt;Node14 -->
<g id="edge24" class="edge">
<title>Node6&#45;&gt;Node14</title>
<path fill="none" stroke="#404040" d="M900.303,-794.6526C958.7685,-791.0639 1178.9869,-775.2624 1354.5,-732 1401.5563,-720.401 1416.3366,-716.5029 1463.2521,-692.376"/>
<polygon fill="none" stroke="#404040" points="1463.4755,-692.26 1466.9555,-685.9442 1474.1239,-686.7273 1470.6439,-693.0431 1463.4755,-692.26"/>
<text text-anchor="middle" x="1450.5" y="-718.5" font-family="Helvetica,sans-Serif" font-size="10.00" fill="#000000"> +binding</text>
</g>
<!-- Node19 -->
<g id="node19" class="node">
<title>Node19</title>
<g id="a_node19"><a xlink:href="../../d4/d79/structo2_1_1framework_1_1OutputObj.html" target="_top" xlink:title="{o2::framework::OutputObj\&lt; T \&gt;\n||+ OutputObj()\l+ OutputObj()\l+ setObject()\l+ setObject()\l+ setObject()\l+ setHash()\l+ spec()\l+ operator&#45;\&gt;()\l+ operator*()\l+ ref()\l}">
<polygon fill="none" stroke="#000000" points="1235.5,-375.5 1235.5,-531.5 1407.5,-531.5 1407.5,-375.5 1235.5,-375.5"/>
<text text-anchor="middle" x="1321.5" y="-519.5" font-family="Helvetica,sans-Serif" font-size="10.00" fill="#000000">o2::framework::OutputObj&lt; T &gt;</text>
<polyline fill="none" stroke="#000000" points="1235.5,-512.5 1407.5,-512.5 "/>
<text text-anchor="middle" x="1321.5" y="-500.5" font-family="Helvetica,sans-Serif" font-size="10.00" fill="#000000"> </text>
<polyline fill="none" stroke="#000000" points="1235.5,-493.5 1407.5,-493.5 "/>
<text text-anchor="start" x="1243.5" y="-481.5" font-family="Helvetica,sans-Serif" font-size="10.00" fill="#000000">+ OutputObj()</text>
<text text-anchor="start" x="1243.5" y="-470.5" font-family="Helvetica,sans-Serif" font-size="10.00" fill="#000000">+ OutputObj()</text>
<text text-anchor="start" x="1243.5" y="-459.5" font-family="Helvetica,sans-Serif" font-size="10.00" fill="#000000">+ setObject()</text>
<text text-anchor="start" x="1243.5" y="-448.5" font-family="Helvetica,sans-Serif" font-size="10.00" fill="#000000">+ setObject()</text>
<text text-anchor="start" x="1243.5" y="-437.5" font-family="Helvetica,sans-Serif" font-size="10.00" fill="#000000">+ setObject()</text>
<text text-anchor="start" x="1243.5" y="-426.5" font-family="Helvetica,sans-Serif" font-size="10.00" fill="#000000">+ setHash()</text>
<text text-anchor="start" x="1243.5" y="-415.5" font-family="Helvetica,sans-Serif" font-size="10.00" fill="#000000">+ spec()</text>
<text text-anchor="start" x="1243.5" y="-404.5" font-family="Helvetica,sans-Serif" font-size="10.00" fill="#000000">+ operator&#45;&gt;()</text>
<text text-anchor="start" x="1243.5" y="-393.5" font-family="Helvetica,sans-Serif" font-size="10.00" fill="#000000">+ operator*()</text>
<text text-anchor="start" x="1243.5" y="-382.5" font-family="Helvetica,sans-Serif" font-size="10.00" fill="#000000">+ ref()</text>
</a>
</g>
</g>
<!-- Node6&#45;&gt;Node19 -->
<g id="edge29" class="edge">
<title>Node6&#45;&gt;Node19</title>
<path fill="none" stroke="#404040" d="M900.3784,-794.2371C969.4981,-788.0413 1258.1845,-758.4362 1312.5,-692 1345.6937,-651.399 1348.2657,-592.6486 1342.3811,-543.6185"/>
<polygon fill="none" stroke="#404040" points="1342.3781,-543.5955 1337.608,-538.1875 1340.7654,-531.7044 1345.5355,-537.1124 1342.3781,-543.5955"/>
<text text-anchor="middle" x="1363.5" y="-633" font-family="Helvetica,sans-Serif" font-size="10.00" fill="#000000"> +label</text>
</g>
<!-- Node7&#45;&gt;Node4 -->
<g id="edge6" class="edge">
<title>Node7&#45;&gt;Node4</title>
<path fill="none" stroke="#ffa500" d="M663.5805,-585.604C663.8193,-573.8676 664.638,-561.4459 666.5,-550 669.2689,-532.979 674.4608,-514.848 679.8148,-498.9513"/>
<polygon fill="#ffa500" stroke="#ffa500" points="660.08,-585.6747 663.5083,-595.6995 667.0798,-585.7248 660.08,-585.6747"/>
<text text-anchor="middle" x="696" y="-553" font-family="Helvetica,sans-Serif" font-size="10.00" fill="#000000"> &lt; double &gt;</text>
</g>
<!-- Node7&#45;&gt;Node9 -->
<g id="edge12" class="edge">
<title>Node7&#45;&gt;Node9</title>
<path fill="none" stroke="#ffa500" d="M628.4163,-587.6331C607.1226,-560.1476 580.5378,-525.8325 559.5882,-498.7912"/>
<polygon fill="#ffa500" stroke="#ffa500" points="625.6657,-589.7976 634.557,-595.5593 631.1994,-585.5106 625.6657,-589.7976"/>
<text text-anchor="middle" x="628" y="-553" font-family="Helvetica,sans-Serif" font-size="10.00" fill="#000000"> &lt; int &gt;</text>
</g>
<!-- Node7&#45;&gt;Node10 -->
<g id="edge16" class="edge">
<title>Node7&#45;&gt;Node10</title>
<path fill="none" stroke="#ffa500" d="M718.6549,-589.1573C738.9961,-571.3496 762.378,-550.7908 783.5,-532 795.5077,-521.3176 808.3894,-509.7527 820.4622,-498.8672"/>
<polygon fill="#ffa500" stroke="#ffa500" points="716.2404,-586.6193 711.0189,-595.8381 720.8497,-591.8875 716.2404,-586.6193"/>
<text text-anchor="middle" x="785" y="-553" font-family="Helvetica,sans-Serif" font-size="10.00" fill="#000000"> &lt; bool &gt;</text>
</g>
<!-- Node8 -->
<g id="node8" class="node">
<title>Node8</title>
<polygon fill="none" stroke="#bfbfbf" points="440,-767 440,-824 469,-824 469,-767 440,-767"/>
<text text-anchor="middle" x="454.5" y="-812" font-family="Helvetica,sans-Serif" font-size="10.00" fill="#000000">T</text>
<polyline fill="none" stroke="#bfbfbf" points="440,-805 469,-805 "/>
<text text-anchor="middle" x="454.5" y="-793" font-family="Helvetica,sans-Serif" font-size="10.00" fill="#000000"> </text>
<polyline fill="none" stroke="#bfbfbf" points="440,-786 469,-786 "/>
<text text-anchor="middle" x="454.5" y="-774" font-family="Helvetica,sans-Serif" font-size="10.00" fill="#000000"> </text>
</g>
<!-- Node8&#45;&gt;Node7 -->
<g id="edge8" class="edge">
<title>Node8&#45;&gt;Node7</title>
<path fill="none" stroke="#404040" d="M469.0029,-784.5026C496.2971,-763.8055 556.7521,-717.9629 603.4475,-682.5541"/>
<polygon fill="none" stroke="#404040" points="603.6242,-682.4201 605.9882,-675.6074 613.186,-675.1694 610.822,-681.982 603.6242,-682.4201"/>
<text text-anchor="middle" x="586" y="-718.5" font-family="Helvetica,sans-Serif" font-size="10.00" fill="#000000"> +value</text>
</g>
<!-- Node9&#45;&gt;Node1 -->
<g id="edge10" class="edge">
<title>Node9&#45;&gt;Node1</title>
<path fill="none" stroke="#404040" d="M523.7047,-408.4294C523.8893,-342.3737 529.4089,-216.2423 564.5,-116 570.408,-99.1229 580.01,-82.0771 589.4909,-67.6007"/>
<polygon fill="none" stroke="#404040" points="589.5741,-67.4783 589.6379,-60.2674 596.3186,-57.5529 596.2548,-64.7638 589.5741,-67.4783"/>
<text text-anchor="middle" x="598.5" y="-203" font-family="Helvetica,sans-Serif" font-size="10.00" fill="#000000"> +do3prong</text>
<text text-anchor="middle" x="598.5" y="-192" font-family="Helvetica,sans-Serif" font-size="10.00" fill="#000000">+triggerindex</text>
</g>
<!-- Node10&#45;&gt;Node1 -->
<g id="edge13" class="edge">
<title>Node10&#45;&gt;Node1</title>
<path fill="none" stroke="#404040" d="M868.9829,-408.3819C864.4376,-338.5707 846.6191,-203.3323 777.5,-116 758.4488,-91.9288 730.8267,-73.5692 703.933,-60.0639"/>
<polygon fill="none" stroke="#404040" points="703.6996,-59.9518 696.5592,-60.9594 692.8828,-54.7558 700.0231,-53.7482 703.6996,-59.9518"/>
<text text-anchor="middle" x="887" y="-203" font-family="Helvetica,sans-Serif" font-size="10.00" fill="#000000"> +b_propdca</text>
<text text-anchor="middle" x="887" y="-192" font-family="Helvetica,sans-Serif" font-size="10.00" fill="#000000">+b_dovalplots</text>
</g>
<!-- Node11 -->
<g id="node11" class="node">
<title>Node11</title>
<polygon fill="none" stroke="#bfbfbf" points="993.5,-607 993.5,-664 1031.5,-664 1031.5,-607 993.5,-607"/>
<text text-anchor="middle" x="1012.5" y="-652" font-family="Helvetica,sans-Serif" font-size="10.00" fill="#000000">bool</text>
<polyline fill="none" stroke="#bfbfbf" points="993.5,-645 1031.5,-645 "/>
<text text-anchor="middle" x="1012.5" y="-633" font-family="Helvetica,sans-Serif" font-size="10.00" fill="#000000"> </text>
<polyline fill="none" stroke="#bfbfbf" points="993.5,-626 1031.5,-626 "/>
<text text-anchor="middle" x="1012.5" y="-614" font-family="Helvetica,sans-Serif" font-size="10.00" fill="#000000"> </text>
</g>
<!-- Node11&#45;&gt;Node10 -->
<g id="edge15" class="edge">
<title>Node11&#45;&gt;Node10</title>
<path fill="none" stroke="#404040" d="M1009.7322,-606.7216C1006.97,-589.2044 1001.4635,-567.004 990.5,-550 980.0627,-533.8121 965.9956,-519.0926 951.1686,-506.2971"/>
<polygon fill="none" stroke="#404040" points="951.102,-506.2419 943.93,-505.4916 941.8641,-498.5828 949.036,-499.333 951.102,-506.2419"/>
<text text-anchor="middle" x="1016" y="-553" font-family="Helvetica,sans-Serif" font-size="10.00" fill="#000000"> +value</text>
</g>
<!-- Node11&#45;&gt;Node12 -->
<g id="edge20" class="edge">
<title>Node11&#45;&gt;Node12</title>
<path fill="none" stroke="#404040" d="M1022.9303,-606.8604C1027.9598,-593.0146 1034.0665,-576.1511 1039.5,-561 1069.1107,-478.4323 1066.3094,-453.475 1105.5,-375 1119.1582,-347.6508 1136.3172,-319.4392 1153.2174,-293.8654"/>
<polygon fill="none" stroke="#404040" points="1153.2572,-293.8058 1153.2654,-286.5947 1159.925,-283.8288 1159.9168,-291.0399 1153.2572,-293.8058"/>
<text text-anchor="middle" x="1136.5" y="-451" font-family="Helvetica,sans-Serif" font-size="10.00" fill="#000000"> +isdangling</text>
</g>
<!-- Node11&#45;&gt;Node19 -->
<g id="edge31" class="edge">
<title>Node11&#45;&gt;Node19</title>
<path fill="none" stroke="#404040" d="M1021.3236,-606.8817C1025.6763,-596.8501 1031.8905,-586.2816 1040.5,-579 1057.5157,-564.6087 1114.913,-555.5356 1136.5,-550 1173.9053,-540.408 1186.515,-548.3467 1221.5,-532 1222.5061,-531.5299 1223.5112,-531.048 1224.5151,-530.5549"/>
<polygon fill="none" stroke="#404040" points="1224.6098,-530.5046 1228.0306,-524.1564 1235.2061,-524.8725 1231.7853,-531.2206 1224.6098,-530.5046"/>
<text text-anchor="middle" x="1167.5" y="-553" font-family="Helvetica,sans-Serif" font-size="10.00" fill="#000000"> +isdangling</text>
</g>
<!-- Node12&#45;&gt;Node1 -->
<g id="edge17" class="edge">
<title>Node12&#45;&gt;Node1</title>
<path fill="none" stroke="#404040" d="M1149.8115,-172.0665C1077.6156,-144.7245 962.6081,-103.3101 860.5,-76 809.3433,-62.3175 751.1061,-50.882 704.5828,-42.7176"/>
<polygon fill="none" stroke="#404040" points="704.5359,-42.7095 697.941,-45.6263 692.7121,-40.6605 699.307,-37.7438 704.5359,-42.7095"/>
<text text-anchor="middle" x="956.5" y="-90" font-family="Helvetica,sans-Serif" font-size="10.00" fill="#000000"> +hmass2</text>
<text text-anchor="middle" x="956.5" y="-79" font-family="Helvetica,sans-Serif" font-size="10.00" fill="#000000">+hmass3</text>
</g>
<!-- Node13 -->
<g id="node13" class="node">
<title>Node13</title>
<polygon fill="none" stroke="#bfbfbf" points="1050,-607 1050,-664 1189,-664 1189,-607 1050,-607"/>
<text text-anchor="middle" x="1119.5" y="-652" font-family="Helvetica,sans-Serif" font-size="10.00" fill="#000000">OutputObjHandlingPolicy</text>
<polyline fill="none" stroke="#bfbfbf" points="1050,-645 1189,-645 "/>
<text text-anchor="middle" x="1119.5" y="-633" font-family="Helvetica,sans-Serif" font-size="10.00" fill="#000000"> </text>
<polyline fill="none" stroke="#bfbfbf" points="1050,-626 1189,-626 "/>
<text text-anchor="middle" x="1119.5" y="-614" font-family="Helvetica,sans-Serif" font-size="10.00" fill="#000000"> </text>
</g>
<!-- Node13&#45;&gt;Node12 -->
<g id="edge18" class="edge">
<title>Node13&#45;&gt;Node12</title>
<path fill="none" stroke="#404040" d="M1139.7442,-606.7106C1148.1333,-593.3919 1157.1396,-577.0012 1162.5,-561 1188.9592,-482.0178 1171.9862,-457.1928 1185.5,-375 1189.7357,-349.2379 1195.0778,-321.4986 1200.3408,-295.8671"/>
<polygon fill="none" stroke="#404040" points="1200.3932,-295.6139 1197.6953,-288.9265 1202.8307,-283.864 1205.5286,-290.5514 1200.3932,-295.6139"/>
<text text-anchor="middle" x="1206" y="-451" font-family="Helvetica,sans-Serif" font-size="10.00" fill="#000000"> +policy</text>
</g>
<!-- Node13&#45;&gt;Node19 -->
<g id="edge28" class="edge">
<title>Node13&#45;&gt;Node19</title>
<path fill="none" stroke="#404040" d="M1151.5075,-606.6616C1171.7971,-588.3809 1199.202,-563.6892 1226.0786,-539.4737"/>
<polygon fill="none" stroke="#404040" points="1226.2469,-539.3221 1228.0269,-532.3342 1235.162,-531.2897 1233.3819,-538.2776 1226.2469,-539.3221"/>
<text text-anchor="middle" x="1229" y="-553" font-family="Helvetica,sans-Serif" font-size="10.00" fill="#000000"> +policy</text>
</g>
<!-- Node14&#45;&gt;Node12 -->
<g id="edge21" class="edge">
<title>Node14&#45;&gt;Node12</title>
<path fill="none" stroke="#404040" d="M1616.6936,-584.0305C1632.0113,-569.1313 1646.1076,-551.542 1654.5,-532 1682.0346,-467.8846 1685.3404,-437.5924 1654.5,-375 1630.9654,-327.2351 1607.2843,-325.4951 1559.5,-302 1531.4448,-288.2055 1521.5439,-292.6456 1491.5,-284 1428.6712,-265.92 1358.1414,-243.9181 1304.9267,-226.9678"/>
<polygon fill="none" stroke="#404040" points="1304.5926,-226.8613 1297.6604,-228.8475 1293.1607,-223.2126 1300.0929,-221.2263 1304.5926,-226.8613"/>
<text text-anchor="middle" x="1693.5" y="-451" font-family="Helvetica,sans-Serif" font-size="10.00" fill="#000000"> +spec</text>
</g>
<!-- Node14&#45;&gt;Node19 -->
<g id="edge32" class="edge">
<title>Node14&#45;&gt;Node19</title>
<path fill="none" stroke="#404040" d="M1476.4648,-579.4089C1457.7104,-564.171 1437.0615,-547.3937 1417.1206,-531.1917"/>
<polygon fill="none" stroke="#404040" points="1417.0234,-531.1128 1409.8443,-530.4337 1407.71,-523.5456 1414.8891,-524.2248 1417.0234,-531.1128"/>
<text text-anchor="middle" x="1471.5" y="-553" font-family="Helvetica,sans-Serif" font-size="10.00" fill="#000000"> +spec</text>
</g>
<!-- Node15 -->
<g id="node15" class="node">
<title>Node15</title>
<polygon fill="none" stroke="#bfbfbf" points="1475.5,-767 1475.5,-824 1563.5,-824 1563.5,-767 1475.5,-767"/>
<text text-anchor="middle" x="1519.5" y="-812" font-family="Helvetica,sans-Serif" font-size="10.00" fill="#000000">enum Lifetime</text>
<polyline fill="none" stroke="#bfbfbf" points="1475.5,-805 1563.5,-805 "/>
<text text-anchor="middle" x="1519.5" y="-793" font-family="Helvetica,sans-Serif" font-size="10.00" fill="#000000"> </text>
<polyline fill="none" stroke="#bfbfbf" points="1475.5,-786 1563.5,-786 "/>
<text text-anchor="middle" x="1519.5" y="-774" font-family="Helvetica,sans-Serif" font-size="10.00" fill="#000000"> </text>
</g>
<!-- Node15&#45;&gt;Node14 -->
<g id="edge22" class="edge">
<title>Node15&#45;&gt;Node14</title>
<path fill="none" stroke="#404040" d="M1524.1483,-766.8952C1527.0075,-749.3 1530.8014,-725.9527 1534.3974,-703.8235"/>
<polygon fill="none" stroke="#404040" points="1534.4428,-703.5437 1531.457,-696.9798 1536.3676,-691.6991 1539.3534,-698.263 1534.4428,-703.5437"/>
<text text-anchor="middle" x="1558.5" y="-718.5" font-family="Helvetica,sans-Serif" font-size="10.00" fill="#000000"> +lifetime</text>
</g>
<!-- Node16 -->
<g id="node16" class="node">
<title>Node16</title>
<polygon fill="none" stroke="#bfbfbf" points="1581.5,-750.5 1581.5,-840.5 1745.5,-840.5 1745.5,-750.5 1581.5,-750.5"/>
<text text-anchor="start" x="1589.5" y="-828.5" font-family="Helvetica,sans-Serif" font-size="10.00" fill="#000000">variant&lt; o2::framework</text>
<text text-anchor="start" x="1589.5" y="-817.5" font-family="Helvetica,sans-Serif" font-size="10.00" fill="#000000">::ConcreteDataMatcher,</text>
<text text-anchor="start" x="1589.5" y="-806.5" font-family="Helvetica,sans-Serif" font-size="10.00" fill="#000000"> o2::framework::data_matcher</text>
<text text-anchor="middle" x="1663.5" y="-795.5" font-family="Helvetica,sans-Serif" font-size="10.00" fill="#000000">::DataDescriptorMatcher &gt;</text>
<polyline fill="none" stroke="#bfbfbf" points="1581.5,-788.5 1745.5,-788.5 "/>
<text text-anchor="middle" x="1663.5" y="-776.5" font-family="Helvetica,sans-Serif" font-size="10.00" fill="#000000"> </text>
<polyline fill="none" stroke="#bfbfbf" points="1581.5,-769.5 1745.5,-769.5 "/>
<text text-anchor="middle" x="1663.5" y="-757.5" font-family="Helvetica,sans-Serif" font-size="10.00" fill="#000000"> </text>
</g>
<!-- Node16&#45;&gt;Node14 -->
<g id="edge23" class="edge">
<title>Node16&#45;&gt;Node14</title>
<path fill="none" stroke="#404040" d="M1630.0016,-750.0784C1618.8857,-735.0061 1606.2744,-717.906 1594.2492,-701.6006"/>
<polygon fill="none" stroke="#404040" points="1593.9787,-701.2338 1587.1982,-698.7791 1586.8561,-691.5761 1593.6366,-694.0308 1593.9787,-701.2338"/>
<text text-anchor="middle" x="1641.5" y="-718.5" font-family="Helvetica,sans-Serif" font-size="10.00" fill="#000000"> +matcher</text>
</g>
<!-- Node17 -->
<g id="node17" class="node">
<title>Node17</title>
<polygon fill="none" stroke="#bfbfbf" points="1395,-607 1395,-664 1456,-664 1456,-607 1395,-607"/>
<text text-anchor="middle" x="1425.5" y="-652" font-family="Helvetica,sans-Serif" font-size="10.00" fill="#000000">unsigned</text>
<polyline fill="none" stroke="#bfbfbf" points="1395,-645 1456,-645 "/>
<text text-anchor="middle" x="1425.5" y="-633" font-family="Helvetica,sans-Serif" font-size="10.00" fill="#000000"> </text>
<polyline fill="none" stroke="#bfbfbf" points="1395,-626 1456,-626 "/>
<text text-anchor="middle" x="1425.5" y="-614" font-family="Helvetica,sans-Serif" font-size="10.00" fill="#000000"> </text>
</g>
<!-- Node17&#45;&gt;Node12 -->
<g id="edge25" class="edge">
<title>Node17&#45;&gt;Node12</title>
<path fill="none" stroke="#404040" d="M1431.7688,-606.7008C1441.1414,-556.6475 1453.9742,-451.6289 1416.5,-375 1391.6169,-324.1178 1344.8064,-281.3317 1303.2863,-250.8036"/>
<polygon fill="none" stroke="#404040" points="1303.1561,-250.7099 1295.9496,-250.4515 1293.4165,-243.6999 1300.623,-243.9584 1303.1561,-250.7099"/>
<text text-anchor="middle" x="1476.5" y="-451" font-family="Helvetica,sans-Serif" font-size="10.00" fill="#000000"> +mTaskHash</text>
</g>
<!-- Node17&#45;&gt;Node19 -->
<g id="edge33" class="edge">
<title>Node17&#45;&gt;Node19</title>
<path fill="none" stroke="#404040" d="M1403.1348,-606.8039C1396.0017,-597.819 1388.0095,-587.9227 1380.5,-579 1373.6077,-570.8107 1370.1272,-570.1051 1364.5,-561 1360.8781,-555.1396 1357.4553,-548.9216 1354.2431,-542.5468"/>
<polygon fill="none" stroke="#404040" points="1354.232,-542.5236 1348.0292,-538.8459 1349.0383,-531.7057 1355.2411,-535.3834 1354.232,-542.5236"/>
<text text-anchor="middle" x="1398.5" y="-553" font-family="Helvetica,sans-Serif" font-size="10.00" fill="#000000"> +mTaskHash</text>
</g>
<!-- Node18 -->
<g id="node18" class="node">
<title>Node18</title>
<polygon fill="none" stroke="#bfbfbf" points="1529.5,-425 1529.5,-482 1645.5,-482 1645.5,-425 1529.5,-425"/>
<text text-anchor="middle" x="1587.5" y="-470" font-family="Helvetica,sans-Serif" font-size="10.00" fill="#000000">shared_ptr&lt; TH1F &gt;</text>
<polyline fill="none" stroke="#bfbfbf" points="1529.5,-463 1645.5,-463 "/>
<text text-anchor="middle" x="1587.5" y="-451" font-family="Helvetica,sans-Serif" font-size="10.00" fill="#000000"> </text>
<polyline fill="none" stroke="#bfbfbf" points="1529.5,-444 1645.5,-444 "/>
<text text-anchor="middle" x="1587.5" y="-432" font-family="Helvetica,sans-Serif" font-size="10.00" fill="#000000"> </text>
</g>
<!-- Node18&#45;&gt;Node12 -->
<g id="edge26" class="edge">
<title>Node18&#45;&gt;Node12</title>
<path fill="none" stroke="#404040" d="M1569.0031,-424.9354C1546.2102,-391.6328 1504.662,-336.7338 1457.5,-302 1411.3485,-268.0104 1352.1166,-242.4554 1304.5391,-225.4254"/>
<polygon fill="none" stroke="#404040" points="1304.3459,-225.3577 1297.3603,-227.1469 1293.022,-221.3868 1300.0076,-219.5976 1304.3459,-225.3577"/>
<text text-anchor="middle" x="1534.5" y="-327" font-family="Helvetica,sans-Serif" font-size="10.00" fill="#000000"> +object</text>
</g>
<!-- Node19&#45;&gt;Node12 -->
<g id="edge27" class="edge">
<title>Node19&#45;&gt;Node12</title>
<path fill="none" stroke="#ffa500" d="M1286.9997,-366.0416C1276.4626,-339.3301 1264.9063,-310.035 1254.4732,-283.5871"/>
<polygon fill="#ffa500" stroke="#ffa500" points="1283.7553,-367.3552 1290.6807,-375.3732 1290.2669,-364.7864 1283.7553,-367.3552"/>
<text text-anchor="middle" x="1309" y="-327" font-family="Helvetica,sans-Serif" font-size="10.00" fill="#000000"> &lt; TH1F &gt;</text>
</g>
<!-- Node20 -->
<g id="node20" class="node">
<title>Node20</title>
<polygon fill="none" stroke="#bfbfbf" points="1207,-607 1207,-664 1304,-664 1304,-607 1207,-607"/>
<text text-anchor="middle" x="1255.5" y="-652" font-family="Helvetica,sans-Serif" font-size="10.00" fill="#000000">shared_ptr&lt; T &gt;</text>
<polyline fill="none" stroke="#bfbfbf" points="1207,-645 1304,-645 "/>
<text text-anchor="middle" x="1255.5" y="-633" font-family="Helvetica,sans-Serif" font-size="10.00" fill="#000000"> </text>
<polyline fill="none" stroke="#bfbfbf" points="1207,-626 1304,-626 "/>
<text text-anchor="middle" x="1255.5" y="-614" font-family="Helvetica,sans-Serif" font-size="10.00" fill="#000000"> </text>
</g>
<!-- Node20&#45;&gt;Node19 -->
<g id="edge30" class="edge">
<title>Node20&#45;&gt;Node19</title>
<path fill="none" stroke="#404040" d="M1260.1142,-606.924C1263.2594,-590.0846 1268.0334,-568.519 1274.5,-550 1275.3279,-547.629 1276.1989,-545.2403 1277.1061,-542.8422"/>
<polygon fill="none" stroke="#404040" points="1277.1503,-542.731 1275.6545,-535.6768 1281.5908,-531.5828 1283.0866,-538.637 1277.1503,-542.731"/>
<text text-anchor="middle" x="1295.5" y="-553" font-family="Helvetica,sans-Serif" font-size="10.00" fill="#000000"> +object</text>
</g>
<!-- Node21 -->
<g id="node21" class="node">
<title>Node21</title>
<g id="a_node21"><a xlink:href="../../d1/d9a/structo2_1_1framework_1_1expressions_1_1Filter.html" target="_top" xlink:title="A struct, containing the root of the expression tree. ">
<polygon fill="none" stroke="#000000" points="1500.5,-160.5 1500.5,-239.5 1652.5,-239.5 1652.5,-160.5 1500.5,-160.5"/>
<text text-anchor="start" x="1508.5" y="-227.5" font-family="Helvetica,sans-Serif" font-size="10.00" fill="#000000">o2::framework::expressions</text>
<text text-anchor="middle" x="1576.5" y="-216.5" font-family="Helvetica,sans-Serif" font-size="10.00" fill="#000000">::Filter</text>
<polyline fill="none" stroke="#000000" points="1500.5,-209.5 1652.5,-209.5 "/>
<text text-anchor="middle" x="1576.5" y="-197.5" font-family="Helvetica,sans-Serif" font-size="10.00" fill="#000000"> </text>
<polyline fill="none" stroke="#000000" points="1500.5,-190.5 1652.5,-190.5 "/>
<text text-anchor="start" x="1508.5" y="-178.5" font-family="Helvetica,sans-Serif" font-size="10.00" fill="#000000">+ Filter()</text>
<text text-anchor="start" x="1508.5" y="-167.5" font-family="Helvetica,sans-Serif" font-size="10.00" fill="#000000">+ Filter()</text>
</a>
</g>
</g>
<!-- Node21&#45;&gt;Node1 -->
<g id="edge34" class="edge">
<title>Node21&#45;&gt;Node1</title>
<path fill="none" stroke="#404040" d="M1500.3686,-172.9293C1445.6694,-154.4228 1369.8305,-130.6767 1301.5,-116 1089.6429,-70.4953 835.3499,-45.8116 704.9506,-35.2788"/>
<polygon fill="none" stroke="#404040" points="704.6857,-35.2578 698.3866,-38.768 692.7237,-34.3035 699.0228,-30.7933 704.6857,-35.2578"/>
<text text-anchor="middle" x="1258" y="-84.5" font-family="Helvetica,sans-Serif" font-size="10.00" fill="#000000"> +filterSelectTracks</text>
</g>
<!-- Node22 -->
<g id="node22" class="node">
<title>Node22</title>
<polygon fill="none" stroke="#bfbfbf" points="1734,-419.5 1734,-487.5 1885,-487.5 1885,-419.5 1734,-419.5"/>
<text text-anchor="start" x="1742" y="-475.5" font-family="Helvetica,sans-Serif" font-size="10.00" fill="#000000">unique_ptr&lt; o2::framework</text>
<text text-anchor="middle" x="1809.5" y="-464.5" font-family="Helvetica,sans-Serif" font-size="10.00" fill="#000000">::expressions::Node &gt;</text>
<polyline fill="none" stroke="#bfbfbf" points="1734,-457.5 1885,-457.5 "/>
<text text-anchor="middle" x="1809.5" y="-445.5" font-family="Helvetica,sans-Serif" font-size="10.00" fill="#000000"> </text>
<polyline fill="none" stroke="#bfbfbf" points="1734,-438.5 1885,-438.5 "/>
<text text-anchor="middle" x="1809.5" y="-426.5" font-family="Helvetica,sans-Serif" font-size="10.00" fill="#000000"> </text>
</g>
<!-- Node22&#45;&gt;Node21 -->
<g id="edge35" class="edge">
<title>Node22&#45;&gt;Node21</title>
<path fill="none" stroke="#404040" d="M1786.9898,-419.35C1765.2843,-387.5117 1730.6382,-339.4451 1695.5,-302 1677.6585,-282.9871 1656.5012,-263.9171 1637.01,-247.4964"/>
<polygon fill="none" stroke="#404040" points="1636.8196,-247.3379 1629.6491,-246.5731 1627.5973,-239.6601 1634.7677,-240.4249 1636.8196,-247.3379"/>
<text text-anchor="middle" x="1757.5" y="-327" font-family="Helvetica,sans-Serif" font-size="10.00" fill="#000000"> +node</text>
</g>
<!-- Node23&#45;&gt;Node1 -->
<g id="edge36" class="edge">
<title>Node23&#45;&gt;Node1</title>
<path fill="none" stroke="#404040" d="M268.7526,-165.8522C265.3792,-137.9334 265.97,-99.3798 288.5,-76 305.2412,-58.6273 440.2049,-43.9442 532.2628,-35.8186"/>
<polygon fill="none" stroke="#404040" points="532.4335,-35.8038 538.0644,-31.299 544.3884,-34.7641 538.7575,-39.2689 532.4335,-35.8038"/>
<text text-anchor="middle" x="346.5" y="-84.5" font-family="Helvetica,sans-Serif" font-size="10.00" fill="#000000"> +rowTrackIndexProng3</text>
</g>
</g>
</svg>
