<?xml version="1.0" encoding="UTF-8" standalone="no"?>
<!DOCTYPE svg PUBLIC "-//W3C//DTD SVG 1.1//EN"
 "http://www.w3.org/Graphics/SVG/1.1/DTD/svg11.dtd">
<!-- Generated by graphviz version 2.40.1 (20161225.0304)
 -->
<!-- Title: o2::tpc::RawReader::Header Pages: 1 -->
<svg width="145pt" height="292pt"
 viewBox="0.00 0.00 145.00 292.00" xmlns="http://www.w3.org/2000/svg" xmlns:xlink="http://www.w3.org/1999/xlink">
<g id="graph0" class="graph" transform="scale(1 1) rotate(0) translate(4 288)">
<title>o2::tpc::RawReader::Header</title>
<!-- Node1 -->
<g id="node1" class="node">
<title>Node1</title>
<polygon fill="#bfbfbf" stroke="#000000" points="0,-.5 0,-112.5 110,-112.5 110,-.5 0,-.5"/>
<text text-anchor="start" x="8" y="-100.5" font-family="Helvetica,sans-Serif" font-size="10.00" fill="#000000">o2::tpc::RawReader</text>
<text text-anchor="middle" x="55" y="-89.5" font-family="Helvetica,sans-Serif" font-size="10.00" fill="#000000">::Header</text>
<polyline fill="none" stroke="#000000" points="0,-82.5 110,-82.5 "/>
<text text-anchor="middle" x="55" y="-70.5" font-family="Helvetica,sans-Serif" font-size="10.00" fill="#000000"> </text>
<polyline fill="none" stroke="#000000" points="0,-63.5 110,-63.5 "/>
<text text-anchor="start" x="8" y="-51.5" font-family="Helvetica,sans-Serif" font-size="10.00" fill="#000000">+ timeStamp()</text>
<text text-anchor="start" x="8" y="-40.5" font-family="Helvetica,sans-Serif" font-size="10.00" fill="#000000">+ eventCount()</text>
<text text-anchor="start" x="8" y="-29.5" font-family="Helvetica,sans-Serif" font-size="10.00" fill="#000000">+ reserved_2()</text>
<text text-anchor="start" x="8" y="-18.5" font-family="Helvetica,sans-Serif" font-size="10.00" fill="#000000">+ Header()</text>
<text text-anchor="start" x="8" y="-7.5" font-family="Helvetica,sans-Serif" font-size="10.00" fill="#000000">+ Header()</text>
</g>
<!-- Node2 -->
<g id="node2" class="node">
<title>Node2</title>
<polygon fill="none" stroke="#bfbfbf" points="24.5,-226.5 24.5,-283.5 85.5,-283.5 85.5,-226.5 24.5,-226.5"/>
<text text-anchor="middle" x="55" y="-271.5" font-family="Helvetica,sans-Serif" font-size="10.00" fill="#000000">unsigned</text>
<polyline fill="none" stroke="#bfbfbf" points="24.5,-264.5 85.5,-264.5 "/>
<text text-anchor="middle" x="55" y="-252.5" font-family="Helvetica,sans-Serif" font-size="10.00" fill="#000000"> </text>
<polyline fill="none" stroke="#bfbfbf" points="24.5,-245.5 85.5,-245.5 "/>
<text text-anchor="middle" x="55" y="-233.5" font-family="Helvetica,sans-Serif" font-size="10.00" fill="#000000"> </text>
</g>
<!-- Node2&#45;&gt;Node1 -->
<g id="edge1" class="edge">
<title>Node2&#45;&gt;Node1</title>
<path fill="none" stroke="#404040" d="M55,-226.1364C55,-199.8008 55,-159.8431 55,-125.3223"/>
<polygon fill="none" stroke="#404040" points="55.0001,-124.8854 51,-118.8854 55,-112.8854 59,-118.8853 55.0001,-124.8854"/>
<text text-anchor="middle" x="96" y="-200" font-family="Helvetica,sans-Serif" font-size="10.00" fill="#000000"> +headerVersion</text>
<text text-anchor="middle" x="96" y="-189" font-family="Helvetica,sans-Serif" font-size="10.00" fill="#000000">+eventCount_w</text>
<text text-anchor="middle" x="96" y="-178" font-family="Helvetica,sans-Serif" font-size="10.00" fill="#000000">+dataType</text>
<text text-anchor="middle" x="96" y="-167" font-family="Helvetica,sans-Serif" font-size="10.00" fill="#000000">+reserved_01</text>
<text text-anchor="middle" x="96" y="-156" font-family="Helvetica,sans-Serif" font-size="10.00" fill="#000000">+nWords</text>
<text text-anchor="middle" x="96" y="-145" font-family="Helvetica,sans-Serif" font-size="10.00" fill="#000000">+timeStamp_w</text>
<text text-anchor="middle" x="96" y="-134" font-family="Helvetica,sans-Serif" font-size="10.00" fill="#000000">+reserved_2_w</text>
</g>
</g>
</svg>
