<?xml version="1.0" encoding="UTF-8" standalone="no"?>
<!DOCTYPE svg PUBLIC "-//W3C//DTD SVG 1.1//EN"
 "http://www.w3.org/Graphics/SVG/1.1/DTD/svg11.dtd">
<!-- Generated by graphviz version 2.40.1 (20161225.0304)
 -->
<!-- Title: o2::fdd::Triggers Pages: 1 -->
<svg width="295pt" height="226pt"
 viewBox="0.00 0.00 295.00 226.00" xmlns="http://www.w3.org/2000/svg" xmlns:xlink="http://www.w3.org/1999/xlink">
<g id="graph0" class="graph" transform="scale(1 1) rotate(0) translate(4 222)">
<title>o2::fdd::Triggers</title>
<!-- Node1 -->
<g id="node1" class="node">
<title>Node1</title>
<polygon fill="#bfbfbf" stroke="#000000" points="77,-.5 77,-101.5 177,-101.5 177,-.5 77,-.5"/>
<text text-anchor="middle" x="127" y="-89.5" font-family="Helvetica,sans-Serif" font-size="10.00" fill="#000000">o2::fdd::Triggers</text>
<polyline fill="none" stroke="#000000" points="77,-82.5 177,-82.5 "/>
<text text-anchor="middle" x="127" y="-70.5" font-family="Helvetica,sans-Serif" font-size="10.00" fill="#000000"> </text>
<polyline fill="none" stroke="#000000" points="77,-63.5 177,-63.5 "/>
<text text-anchor="start" x="85" y="-51.5" font-family="Helvetica,sans-Serif" font-size="10.00" fill="#000000">+ Triggers()</text>
<text text-anchor="start" x="85" y="-40.5" font-family="Helvetica,sans-Serif" font-size="10.00" fill="#000000">+ Triggers()</text>
<text text-anchor="start" x="85" y="-29.5" font-family="Helvetica,sans-Serif" font-size="10.00" fill="#000000">+ cleanTriggers()</text>
<text text-anchor="start" x="85" y="-18.5" font-family="Helvetica,sans-Serif" font-size="10.00" fill="#000000">+ getTriggers()</text>
<text text-anchor="start" x="85" y="-7.5" font-family="Helvetica,sans-Serif" font-size="10.00" fill="#000000">+ ClassDefNV()</text>
</g>
<!-- Node2 -->
<g id="node2" class="node">
<title>Node2</title>
<polygon fill="none" stroke="#bfbfbf" points="0,-160.5 0,-217.5 44,-217.5 44,-160.5 0,-160.5"/>
<text text-anchor="middle" x="22" y="-205.5" font-family="Helvetica,sans-Serif" font-size="10.00" fill="#000000">int8_t</text>
<polyline fill="none" stroke="#bfbfbf" points="0,-198.5 44,-198.5 "/>
<text text-anchor="middle" x="22" y="-186.5" font-family="Helvetica,sans-Serif" font-size="10.00" fill="#000000"> </text>
<polyline fill="none" stroke="#bfbfbf" points="0,-179.5 44,-179.5 "/>
<text text-anchor="middle" x="22" y="-167.5" font-family="Helvetica,sans-Serif" font-size="10.00" fill="#000000"> </text>
</g>
<!-- Node2&#45;&gt;Node1 -->
<g id="edge1" class="edge">
<title>Node2&#45;&gt;Node1</title>
<path fill="none" stroke="#404040" d="M24.7228,-160.4473C27.0139,-147.3142 31.2326,-132.0201 39,-120 46.4977,-108.3973 56.6261,-97.9138 67.3435,-88.8237"/>
<polygon fill="none" stroke="#404040" points="67.4954,-88.7021 69.6784,-81.8293 76.8621,-81.2011 74.6791,-88.0738 67.4954,-88.7021"/>
<text text-anchor="middle" x="63.5" y="-134" font-family="Helvetica,sans-Serif" font-size="10.00" fill="#000000"> +nChanA</text>
<text text-anchor="middle" x="63.5" y="-123" font-family="Helvetica,sans-Serif" font-size="10.00" fill="#000000">+nChanC</text>
</g>
<!-- Node3 -->
<g id="node3" class="node">
<title>Node3</title>
<polygon fill="none" stroke="#bfbfbf" points="68,-160.5 68,-217.5 118,-217.5 118,-160.5 68,-160.5"/>
<text text-anchor="middle" x="93" y="-205.5" font-family="Helvetica,sans-Serif" font-size="10.00" fill="#000000">int32_t</text>
<polyline fill="none" stroke="#bfbfbf" points="68,-198.5 118,-198.5 "/>
<text text-anchor="middle" x="93" y="-186.5" font-family="Helvetica,sans-Serif" font-size="10.00" fill="#000000"> </text>
<polyline fill="none" stroke="#bfbfbf" points="68,-179.5 118,-179.5 "/>
<text text-anchor="middle" x="93" y="-167.5" font-family="Helvetica,sans-Serif" font-size="10.00" fill="#000000"> </text>
</g>
<!-- Node3&#45;&gt;Node1 -->
<g id="edge2" class="edge">
<title>Node3&#45;&gt;Node1</title>
<path fill="none" stroke="#404040" d="M91.8383,-160.4683C91.9396,-147.9073 92.9011,-133.0669 96,-120 96.5119,-117.8417 97.0911,-115.6678 97.7267,-113.4898"/>
<polygon fill="none" stroke="#404040" points="97.8056,-113.2525 95.9074,-106.2958 101.599,-101.8679 103.4972,-108.8246 97.8056,-113.2525"/>
<text text-anchor="middle" x="117.5" y="-134" font-family="Helvetica,sans-Serif" font-size="10.00" fill="#000000"> +amplA</text>
<text text-anchor="middle" x="117.5" y="-123" font-family="Helvetica,sans-Serif" font-size="10.00" fill="#000000">+amplC</text>
</g>
<!-- Node4 -->
<g id="node4" class="node">
<title>Node4</title>
<polygon fill="none" stroke="#bfbfbf" points="136,-160.5 136,-217.5 186,-217.5 186,-160.5 136,-160.5"/>
<text text-anchor="middle" x="161" y="-205.5" font-family="Helvetica,sans-Serif" font-size="10.00" fill="#000000">int16_t</text>
<polyline fill="none" stroke="#bfbfbf" points="136,-198.5 186,-198.5 "/>
<text text-anchor="middle" x="161" y="-186.5" font-family="Helvetica,sans-Serif" font-size="10.00" fill="#000000"> </text>
<polyline fill="none" stroke="#bfbfbf" points="136,-179.5 186,-179.5 "/>
<text text-anchor="middle" x="161" y="-167.5" font-family="Helvetica,sans-Serif" font-size="10.00" fill="#000000"> </text>
</g>
<!-- Node4&#45;&gt;Node1 -->
<g id="edge3" class="edge">
<title>Node4&#45;&gt;Node1</title>
<path fill="none" stroke="#404040" d="M153.9552,-160.4063C150.59,-146.7478 146.4213,-129.8278 142.3764,-113.41"/>
<polygon fill="none" stroke="#404040" points="142.3369,-113.2495 137.0177,-108.3806 139.4662,-101.5979 144.7854,-106.4668 142.3369,-113.2495"/>
<text text-anchor="middle" x="169.5" y="-134" font-family="Helvetica,sans-Serif" font-size="10.00" fill="#000000"> +timeA</text>
<text text-anchor="middle" x="169.5" y="-123" font-family="Helvetica,sans-Serif" font-size="10.00" fill="#000000">+timeC</text>
</g>
<!-- Node5 -->
<g id="node5" class="node">
<title>Node5</title>
<polygon fill="none" stroke="#bfbfbf" points="204.5,-160.5 204.5,-217.5 265.5,-217.5 265.5,-160.5 204.5,-160.5"/>
<text text-anchor="middle" x="235" y="-205.5" font-family="Helvetica,sans-Serif" font-size="10.00" fill="#000000">unsigned</text>
<polyline fill="none" stroke="#bfbfbf" points="204.5,-198.5 265.5,-198.5 "/>
<text text-anchor="middle" x="235" y="-186.5" font-family="Helvetica,sans-Serif" font-size="10.00" fill="#000000"> </text>
<polyline fill="none" stroke="#bfbfbf" points="204.5,-179.5 265.5,-179.5 "/>
<text text-anchor="middle" x="235" y="-167.5" font-family="Helvetica,sans-Serif" font-size="10.00" fill="#000000"> </text>
</g>
<!-- Node5&#45;&gt;Node1 -->
<g id="edge4" class="edge">
<title>Node5&#45;&gt;Node1</title>
<path fill="none" stroke="#404040" d="M219.8731,-160.1665C212.6821,-147.4114 203.572,-132.5024 194,-120 191.169,-116.3023 188.1596,-112.5913 185.0442,-108.9138"/>
<polygon fill="none" stroke="#404040" points="185.0289,-108.8962 178.0668,-107.0173 177.1235,-99.8682 184.0855,-101.7471 185.0289,-108.8962"/>
<text text-anchor="middle" x="247.5" y="-128.5" font-family="Helvetica,sans-Serif" font-size="10.00" fill="#000000"> +triggersignals</text>
</g>
</g>
</svg>
