<?xml version="1.0" encoding="UTF-8" standalone="no"?>
<!DOCTYPE svg PUBLIC "-//W3C//DTD SVG 1.1//EN"
 "http://www.w3.org/Graphics/SVG/1.1/DTD/svg11.dtd">
<!-- Generated by graphviz version 2.40.1 (20161225.0304)
 -->
<!-- Title: /home/travis/build/AliceO2Group/AliceO2/Detectors/CTF Pages: 1 -->
<svg width="764pt" height="663pt"
 viewBox="0.00 0.00 764.00 663.00" xmlns="http://www.w3.org/2000/svg" xmlns:xlink="http://www.w3.org/1999/xlink">
<g id="graph0" class="graph" transform="scale(1 1) rotate(0) translate(4 659)">
<title>/home/travis/build/AliceO2Group/AliceO2/Detectors/CTF</title>
<g id="clust1" class="cluster">
<title>clusterdir_051dca18e802f8e9474f2e30d29c04e0</title>
<g id="a_clust1"><a xlink:href="dir_051dca18e802f8e9474f2e30d29c04e0.html" target="_top" xlink:title="Detectors">
<polygon fill="#ddddee" stroke="#000000" points="253,-560 253,-647 491,-647 491,-560 253,-560"/>
<text text-anchor="middle" x="372" y="-635" font-family="Helvetica,sans-Serif" font-size="10.00" fill="#000000">Detectors</text>
</a>
</g>
</g>
<g id="clust2" class="cluster">
<title>clusterdir_22c28337d94ed0b7d4c6655ee55d3b27</title>
<g id="a_clust2"><a xlink:href="dir_22c28337d94ed0b7d4c6655ee55d3b27.html" target="_top">
<polygon fill="#eeeeff" stroke="#000000" points="261,-568 261,-620 483,-620 483,-568 261,-568"/>
</a>
</g>
</g>
<!-- dir_22c28337d94ed0b7d4c6655ee55d3b27 -->
<g id="node1" class="node">
<title>dir_22c28337d94ed0b7d4c6655ee55d3b27</title>
<text text-anchor="middle" x="448" y="-591.5" font-family="Helvetica,sans-Serif" font-size="10.00" fill="#000000">CTF</text>
</g>
<!-- dir_f34bb2841ccfd4447c7217216c5f7129 -->
<g id="node2" class="node">
<title>dir_f34bb2841ccfd4447c7217216c5f7129</title>
<g id="a_node2"><a xlink:href="dir_f34bb2841ccfd4447c7217216c5f7129.html" target="_top" xlink:title="test">
<polygon fill="#ffffff" stroke="#000000" points="403,-612 349,-612 349,-576 403,-576 403,-612"/>
<text text-anchor="middle" x="376" y="-591.5" font-family="Helvetica,sans-Serif" font-size="10.00" fill="#000000">test</text>
</a>
</g>
</g>
<!-- dir_d14e88a79bca429480864605ee348cef -->
<g id="node5" class="node">
<title>dir_d14e88a79bca429480864605ee348cef</title>
<g id="a_node5"><a xlink:href="dir_d14e88a79bca429480864605ee348cef.html" target="_top" xlink:title="FIT">
<polygon fill="none" stroke="#ff0000" points="656,-540 602,-540 602,-504 656,-504 656,-540"/>
<text text-anchor="middle" x="629" y="-519.5" font-family="Helvetica,sans-Serif" font-size="10.00" fill="#000000">FIT</text>
</a>
</g>
</g>
<!-- dir_f34bb2841ccfd4447c7217216c5f7129&#45;&gt;dir_d14e88a79bca429480864605ee348cef -->
<g id="edge25" class="edge">
<title>dir_f34bb2841ccfd4447c7217216c5f7129&#45;&gt;dir_d14e88a79bca429480864605ee348cef</title>
<path fill="none" stroke="#000000" d="M390.7758,-575.9032C396.7175,-569.8434 404.0479,-563.6952 412,-560 483.3942,-526.8247 511.99,-560.4989 588,-540 589.2666,-539.6584 590.5443,-539.2837 591.8263,-538.8816"/>
<polygon fill="#000000" stroke="#000000" points="593.3935,-542.0375 601.6203,-535.3614 591.0258,-535.4501 593.3935,-542.0375"/>
<g id="a_edge25&#45;headlabel"><a xlink:href="dir_000420_000165.html" target="_top" xlink:title="3">
<text text-anchor="middle" x="590.9711" y="-543.4252" font-family="Helvetica,sans-Serif" font-size="10.00" fill="#000000">3</text>
</a>
</g>
</g>
<!-- dir_a597e8e061b11201a1dff411feb10d0b -->
<g id="node6" class="node">
<title>dir_a597e8e061b11201a1dff411feb10d0b</title>
<g id="a_node6"><a xlink:href="dir_a597e8e061b11201a1dff411feb10d0b.html" target="_top" xlink:title="TPC">
<polygon fill="none" stroke="#ff0000" points="200,-324 146,-324 146,-288 200,-288 200,-324"/>
<text text-anchor="middle" x="173" y="-303.5" font-family="Helvetica,sans-Serif" font-size="10.00" fill="#000000">TPC</text>
</a>
</g>
</g>
<!-- dir_f34bb2841ccfd4447c7217216c5f7129&#45;&gt;dir_a597e8e061b11201a1dff411feb10d0b -->
<g id="edge26" class="edge">
<title>dir_f34bb2841ccfd4447c7217216c5f7129&#45;&gt;dir_a597e8e061b11201a1dff411feb10d0b</title>
<path fill="none" stroke="#000000" d="M360.153,-575.9867C354.0832,-570.0846 346.7436,-564.0178 339,-560 301.8579,-540.7288 277.9206,-568.1927 247,-540 231.3694,-525.7483 195.4622,-392.8091 180.1401,-333.8875"/>
<polygon fill="#000000" stroke="#000000" points="183.5053,-332.9208 177.6117,-324.1165 176.7285,-334.6745 183.5053,-332.9208"/>
<g id="a_edge26&#45;headlabel"><a xlink:href="dir_000420_000051.html" target="_top" xlink:title="1">
<text text-anchor="middle" x="187.1545" y="-333.1896" font-family="Helvetica,sans-Serif" font-size="10.00" fill="#000000">1</text>
</a>
</g>
</g>
<!-- dir_1306292b77b40360479b729ac9ee7efe -->
<g id="node8" class="node">
<title>dir_1306292b77b40360479b729ac9ee7efe</title>
<g id="a_node8"><a xlink:href="dir_1306292b77b40360479b729ac9ee7efe.html" target="_top" xlink:title="ITSMFT">
<polygon fill="none" stroke="#ff0000" points="373,-180 319,-180 319,-144 373,-144 373,-180"/>
<text text-anchor="middle" x="346" y="-159.5" font-family="Helvetica,sans-Serif" font-size="10.00" fill="#000000">ITSMFT</text>
</a>
</g>
</g>
<!-- dir_f34bb2841ccfd4447c7217216c5f7129&#45;&gt;dir_1306292b77b40360479b729ac9ee7efe -->
<g id="edge27" class="edge">
<title>dir_f34bb2841ccfd4447c7217216c5f7129&#45;&gt;dir_1306292b77b40360479b729ac9ee7efe</title>
<path fill="none" stroke="#000000" d="M390.6943,-575.7228C396.6271,-569.6435 403.9727,-563.529 412,-560 468.9029,-534.9837 636.7036,-570.2598 691,-540 734.1,-515.98 756,-499.3413 756,-450 756,-450 756,-450 756,-378 756,-210.3524 484.3572,-172.5149 383.2885,-164.2388"/>
<polygon fill="#000000" stroke="#000000" points="383.4571,-160.7416 373.2188,-163.4668 382.9219,-167.7211 383.4571,-160.7416"/>
<g id="a_edge27&#45;headlabel"><a xlink:href="dir_000420_000045.html" target="_top" xlink:title="1">
<text text-anchor="middle" x="387.2582" y="-155.6853" font-family="Helvetica,sans-Serif" font-size="10.00" fill="#000000">1</text>
</a>
</g>
</g>
<!-- dir_577c839d346a264df4e9e588ca2a45dd -->
<g id="node10" class="node">
<title>dir_577c839d346a264df4e9e588ca2a45dd</title>
<g id="a_node10"><a xlink:href="dir_577c839d346a264df4e9e588ca2a45dd.html" target="_top" xlink:title="TOF">
<polygon fill="none" stroke="#ff0000" points="310,-540 256,-540 256,-504 310,-504 310,-540"/>
<text text-anchor="middle" x="283" y="-519.5" font-family="Helvetica,sans-Serif" font-size="10.00" fill="#000000">TOF</text>
</a>
</g>
</g>
<!-- dir_f34bb2841ccfd4447c7217216c5f7129&#45;&gt;dir_577c839d346a264df4e9e588ca2a45dd -->
<g id="edge28" class="edge">
<title>dir_f34bb2841ccfd4447c7217216c5f7129&#45;&gt;dir_577c839d346a264df4e9e588ca2a45dd</title>
<path fill="none" stroke="#000000" d="M357.2686,-575.7999C351.5562,-570.5229 345.1557,-564.8737 339,-560 332.5878,-554.9232 325.5224,-549.7978 318.6329,-545.0254"/>
<polygon fill="#000000" stroke="#000000" points="320.3007,-541.927 310.0629,-539.1996 316.3653,-547.7161 320.3007,-541.927"/>
<g id="a_edge28&#45;headlabel"><a xlink:href="dir_000420_000139.html" target="_top" xlink:title="3">
<text text-anchor="middle" x="324.8696" y="-539.0998" font-family="Helvetica,sans-Serif" font-size="10.00" fill="#000000">3</text>
</a>
</g>
</g>
<!-- dir_bcbb2cf9a3d3d83e5515c82071a07177 -->
<g id="node11" class="node">
<title>dir_bcbb2cf9a3d3d83e5515c82071a07177</title>
<g id="a_node11"><a xlink:href="dir_bcbb2cf9a3d3d83e5515c82071a07177.html" target="_top" xlink:title="Framework">
<polygon fill="none" stroke="#ff0000" points="327.5,-396 256.5,-396 256.5,-360 327.5,-360 327.5,-396"/>
<text text-anchor="middle" x="292" y="-375.5" font-family="Helvetica,sans-Serif" font-size="10.00" fill="#000000">Framework</text>
</a>
</g>
</g>
<!-- dir_f34bb2841ccfd4447c7217216c5f7129&#45;&gt;dir_bcbb2cf9a3d3d83e5515c82071a07177 -->
<g id="edge29" class="edge">
<title>dir_f34bb2841ccfd4447c7217216c5f7129&#45;&gt;dir_bcbb2cf9a3d3d83e5515c82071a07177</title>
<path fill="none" stroke="#000000" d="M368.9827,-575.9555C354.2827,-538.1556 320.1752,-450.4506 302.7164,-405.5564"/>
<polygon fill="#000000" stroke="#000000" points="305.943,-404.1965 299.0564,-396.1451 299.4189,-406.7337 305.943,-404.1965"/>
<g id="a_edge29&#45;headlabel"><a xlink:href="dir_000420_000055.html" target="_top" xlink:title="5">
<text text-anchor="middle" x="309.892" y="-404.0177" font-family="Helvetica,sans-Serif" font-size="10.00" fill="#000000">5</text>
</a>
</g>
</g>
<!-- dir_2171f7ec022c5423887b07c69b2f5b48 -->
<g id="node12" class="node">
<title>dir_2171f7ec022c5423887b07c69b2f5b48</title>
<g id="a_node12"><a xlink:href="dir_2171f7ec022c5423887b07c69b2f5b48.html" target="_top" xlink:title="DataFormats">
<polygon fill="none" stroke="#ff0000" points="506,-252 426,-252 426,-216 506,-216 506,-252"/>
<text text-anchor="middle" x="466" y="-231.5" font-family="Helvetica,sans-Serif" font-size="10.00" fill="#000000">DataFormats</text>
</a>
</g>
</g>
<!-- dir_f34bb2841ccfd4447c7217216c5f7129&#45;&gt;dir_2171f7ec022c5423887b07c69b2f5b48 -->
<g id="edge30" class="edge">
<title>dir_f34bb2841ccfd4447c7217216c5f7129&#45;&gt;dir_2171f7ec022c5423887b07c69b2f5b48</title>
<path fill="none" stroke="#000000" d="M390.7084,-575.7547C396.6427,-569.6788 403.9857,-563.5584 412,-560 463.5451,-537.1135 626.7245,-581.4207 665,-540 741.6604,-457.0404 712.6547,-367.0818 632,-288 615.3221,-271.6474 558.5455,-255.4097 516.0051,-245.0771"/>
<polygon fill="#000000" stroke="#000000" points="516.6155,-241.6245 506.0763,-242.7088 514.9914,-248.4335 516.6155,-241.6245"/>
<g id="a_edge30&#45;headlabel"><a xlink:href="dir_000420_000079.html" target="_top" xlink:title="11">
<text text-anchor="middle" x="520.7708" y="-237.1967" font-family="Helvetica,sans-Serif" font-size="10.00" fill="#000000">11</text>
</a>
</g>
</g>
<!-- dir_60bab4a80e8540917b3a9a0f6e3beabd -->
<g id="node3" class="node">
<title>dir_60bab4a80e8540917b3a9a0f6e3beabd</title>
<g id="a_node3"><a xlink:href="dir_60bab4a80e8540917b3a9a0f6e3beabd.html" target="_top" xlink:title="workflow">
<polygon fill="#ffffff" stroke="#ff0000" points="330.5,-612 269.5,-612 269.5,-576 330.5,-576 330.5,-612"/>
<text text-anchor="middle" x="300" y="-591.5" font-family="Helvetica,sans-Serif" font-size="10.00" fill="#000000">workflow</text>
</a>
</g>
</g>
<!-- dir_4ab6b4cc6a7edbff49100e9123df213f -->
<g id="node4" class="node">
<title>dir_4ab6b4cc6a7edbff49100e9123df213f</title>
<g id="a_node4"><a xlink:href="dir_4ab6b4cc6a7edbff49100e9123df213f.html" target="_top" xlink:title="Common">
<polygon fill="none" stroke="#ff0000" points="448.5,-468 387.5,-468 387.5,-432 448.5,-432 448.5,-468"/>
<text text-anchor="middle" x="418" y="-447.5" font-family="Helvetica,sans-Serif" font-size="10.00" fill="#000000">Common</text>
</a>
</g>
</g>
<!-- dir_60bab4a80e8540917b3a9a0f6e3beabd&#45;&gt;dir_4ab6b4cc6a7edbff49100e9123df213f -->
<g id="edge42" class="edge">
<title>dir_60bab4a80e8540917b3a9a0f6e3beabd&#45;&gt;dir_4ab6b4cc6a7edbff49100e9123df213f</title>
<path fill="none" stroke="#000000" d="M314.9448,-575.7623C335.6033,-550.5518 373.004,-504.9103 396.6165,-476.0952"/>
<polygon fill="#000000" stroke="#000000" points="399.5455,-478.0428 403.1766,-468.0896 394.1311,-473.606 399.5455,-478.0428"/>
<g id="a_edge42&#45;headlabel"><a xlink:href="dir_000421_000029.html" target="_top" xlink:title="2">
<text text-anchor="middle" x="399.4633" y="-480.1227" font-family="Helvetica,sans-Serif" font-size="10.00" fill="#000000">2</text>
</a>
</g>
</g>
<!-- dir_60bab4a80e8540917b3a9a0f6e3beabd&#45;&gt;dir_d14e88a79bca429480864605ee348cef -->
<g id="edge43" class="edge">
<title>dir_60bab4a80e8540917b3a9a0f6e3beabd&#45;&gt;dir_d14e88a79bca429480864605ee348cef</title>
<path fill="none" stroke="#000000" d="M316.6848,-575.7518C323.3156,-569.6756 331.4104,-563.5557 340,-560 442.1718,-517.705 480.7782,-567.045 588,-540 589.272,-539.6792 590.5544,-539.3224 591.8404,-538.9359"/>
<polygon fill="#000000" stroke="#000000" points="593.3778,-542.1057 601.6541,-535.4911 591.0593,-535.5007 593.3778,-542.1057"/>
<g id="a_edge43&#45;headlabel"><a xlink:href="dir_000421_000165.html" target="_top" xlink:title="1">
<text text-anchor="middle" x="590.9264" y="-543.4752" font-family="Helvetica,sans-Serif" font-size="10.00" fill="#000000">1</text>
</a>
</g>
</g>
<!-- dir_60bab4a80e8540917b3a9a0f6e3beabd&#45;&gt;dir_a597e8e061b11201a1dff411feb10d0b -->
<g id="edge44" class="edge">
<title>dir_60bab4a80e8540917b3a9a0f6e3beabd&#45;&gt;dir_a597e8e061b11201a1dff411feb10d0b</title>
<path fill="none" stroke="#000000" d="M273.5636,-575.8038C261.2034,-566.2659 247.0343,-553.7209 237,-540 195.9708,-483.8963 190.9651,-463.8753 176,-396 171.5189,-375.6758 170.8871,-352.1517 171.3129,-334.2519"/>
<polygon fill="#000000" stroke="#000000" points="174.8137,-334.2912 171.6771,-324.1713 167.8182,-334.0384 174.8137,-334.2912"/>
<g id="a_edge44&#45;headlabel"><a xlink:href="dir_000421_000051.html" target="_top" xlink:title="1">
<text text-anchor="middle" x="177.5214" y="-335.486" font-family="Helvetica,sans-Serif" font-size="10.00" fill="#000000">1</text>
</a>
</g>
</g>
<!-- dir_b05a5fa85f84bfc9013183c9d87f9a36 -->
<g id="node7" class="node">
<title>dir_b05a5fa85f84bfc9013183c9d87f9a36</title>
<g id="a_node7"><a xlink:href="dir_b05a5fa85f84bfc9013183c9d87f9a36.html" target="_top" xlink:title="Utilities">
<polygon fill="none" stroke="#ff0000" points="274.5,-108 219.5,-108 219.5,-72 274.5,-72 274.5,-108"/>
<text text-anchor="middle" x="247" y="-87.5" font-family="Helvetica,sans-Serif" font-size="10.00" fill="#000000">Utilities</text>
</a>
</g>
</g>
<!-- dir_60bab4a80e8540917b3a9a0f6e3beabd&#45;&gt;dir_b05a5fa85f84bfc9013183c9d87f9a36 -->
<g id="edge45" class="edge">
<title>dir_60bab4a80e8540917b3a9a0f6e3beabd&#45;&gt;dir_b05a5fa85f84bfc9013183c9d87f9a36</title>
<path fill="none" stroke="#000000" d="M269.4325,-591.4198C200.3198,-583.7446 38,-554.5858 38,-450 38,-450 38,-450 38,-234 38,-151.734 149.1607,-112.871 209.3445,-97.8586"/>
<polygon fill="#000000" stroke="#000000" points="210.3357,-101.2204 219.2464,-95.4889 208.7064,-94.4126 210.3357,-101.2204"/>
<g id="a_edge45&#45;headlabel"><a xlink:href="dir_000421_000600.html" target="_top" xlink:title="1">
<text text-anchor="middle" x="207.5006" y="-102.3182" font-family="Helvetica,sans-Serif" font-size="10.00" fill="#000000">1</text>
</a>
</g>
</g>
<!-- dir_60bab4a80e8540917b3a9a0f6e3beabd&#45;&gt;dir_1306292b77b40360479b729ac9ee7efe -->
<g id="edge46" class="edge">
<title>dir_60bab4a80e8540917b3a9a0f6e3beabd&#45;&gt;dir_1306292b77b40360479b729ac9ee7efe</title>
<path fill="none" stroke="#000000" d="M320.2516,-575.7034C326.4272,-570.4237 333.3463,-564.7973 340,-560 400.9979,-516.0208 446.376,-534.2257 482,-468 510.0131,-415.9232 407.6239,-253.3808 364.3925,-188.8221"/>
<polygon fill="#000000" stroke="#000000" points="367.1965,-186.7201 358.7047,-180.3846 361.3922,-190.6329 367.1965,-186.7201"/>
<g id="a_edge46&#45;headlabel"><a xlink:href="dir_000421_000045.html" target="_top" xlink:title="1">
<text text-anchor="middle" x="371.56" y="-185.6137" font-family="Helvetica,sans-Serif" font-size="10.00" fill="#000000">1</text>
</a>
</g>
</g>
<!-- dir_8ba487e25de5ee77e05e9dce7582cb98 -->
<g id="node9" class="node">
<title>dir_8ba487e25de5ee77e05e9dce7582cb98</title>
<g id="a_node9"><a xlink:href="dir_8ba487e25de5ee77e05e9dce7582cb98.html" target="_top" xlink:title="Algorithm">
<polygon fill="none" stroke="#ff0000" points="241.5,-36 176.5,-36 176.5,0 241.5,0 241.5,-36"/>
<text text-anchor="middle" x="209" y="-15.5" font-family="Helvetica,sans-Serif" font-size="10.00" fill="#000000">Algorithm</text>
</a>
</g>
</g>
<!-- dir_60bab4a80e8540917b3a9a0f6e3beabd&#45;&gt;dir_8ba487e25de5ee77e05e9dce7582cb98 -->
<g id="edge47" class="edge">
<title>dir_60bab4a80e8540917b3a9a0f6e3beabd&#45;&gt;dir_8ba487e25de5ee77e05e9dce7582cb98</title>
<path fill="none" stroke="#000000" d="M269.4812,-590.467C211.1425,-583.219 86.5211,-565.2035 52,-540 14.6892,-512.7598 0,-496.1966 0,-450 0,-450 0,-450 0,-162 0,-81.8597 105.4903,-42.9084 166.5798,-27.0705"/>
<polygon fill="#000000" stroke="#000000" points="167.4869,-30.4516 176.3438,-24.6372 165.7941,-23.6593 167.4869,-30.4516"/>
<g id="a_edge47&#45;headlabel"><a xlink:href="dir_000421_000000.html" target="_top" xlink:title="1">
<text text-anchor="middle" x="164.6856" y="-31.5757" font-family="Helvetica,sans-Serif" font-size="10.00" fill="#000000">1</text>
</a>
</g>
</g>
<!-- dir_60bab4a80e8540917b3a9a0f6e3beabd&#45;&gt;dir_577c839d346a264df4e9e588ca2a45dd -->
<g id="edge48" class="edge">
<title>dir_60bab4a80e8540917b3a9a0f6e3beabd&#45;&gt;dir_577c839d346a264df4e9e588ca2a45dd</title>
<path fill="none" stroke="#000000" d="M295.7102,-575.8314C293.892,-568.131 291.7301,-558.9743 289.7095,-550.4166"/>
<polygon fill="#000000" stroke="#000000" points="293.0519,-549.3414 287.3476,-540.4133 286.2392,-550.95 293.0519,-549.3414"/>
<g id="a_edge48&#45;headlabel"><a xlink:href="dir_000421_000139.html" target="_top" xlink:title="1">
<text text-anchor="middle" x="296.6412" y="-549.6874" font-family="Helvetica,sans-Serif" font-size="10.00" fill="#000000">1</text>
</a>
</g>
</g>
<!-- dir_60bab4a80e8540917b3a9a0f6e3beabd&#45;&gt;dir_bcbb2cf9a3d3d83e5515c82071a07177 -->
<g id="edge49" class="edge">
<title>dir_60bab4a80e8540917b3a9a0f6e3beabd&#45;&gt;dir_bcbb2cf9a3d3d83e5515c82071a07177</title>
<path fill="none" stroke="#000000" d="M274.9572,-575.8695C264.188,-566.5148 252.7654,-554.105 247,-540 228.2229,-494.062 254.2341,-437.6893 273.8255,-405.0032"/>
<polygon fill="#000000" stroke="#000000" points="276.8402,-406.783 279.1385,-396.4405 270.8921,-403.0923 276.8402,-406.783"/>
<g id="a_edge49&#45;headlabel"><a xlink:href="dir_000421_000055.html" target="_top" xlink:title="22">
<text text-anchor="middle" x="277.3576" y="-408.8344" font-family="Helvetica,sans-Serif" font-size="10.00" fill="#000000">22</text>
</a>
</g>
</g>
<!-- dir_60bab4a80e8540917b3a9a0f6e3beabd&#45;&gt;dir_2171f7ec022c5423887b07c69b2f5b48 -->
<g id="edge50" class="edge">
<title>dir_60bab4a80e8540917b3a9a0f6e3beabd&#45;&gt;dir_2171f7ec022c5423887b07c69b2f5b48</title>
<path fill="none" stroke="#000000" d="M316.713,-575.8192C323.3468,-569.7503 331.4364,-563.6178 340,-560 383.1824,-541.7569 515.7096,-571.964 550,-540 593.2539,-499.6806 596.7754,-347.4606 562,-288 551.7239,-270.4294 533.3959,-258.1345 515.4886,-249.7657"/>
<polygon fill="#000000" stroke="#000000" points="516.7744,-246.5084 506.2074,-245.7401 513.9889,-252.9304 516.7744,-246.5084"/>
<g id="a_edge50&#45;headlabel"><a xlink:href="dir_000421_000079.html" target="_top" xlink:title="24">
<text text-anchor="middle" x="521.2019" y="-242.8339" font-family="Helvetica,sans-Serif" font-size="10.00" fill="#000000">24</text>
</a>
</g>
</g>
<!-- dir_4ab6b4cc6a7edbff49100e9123df213f&#45;&gt;dir_bcbb2cf9a3d3d83e5515c82071a07177 -->
<g id="edge1" class="edge">
<title>dir_4ab6b4cc6a7edbff49100e9123df213f&#45;&gt;dir_bcbb2cf9a3d3d83e5515c82071a07177</title>
<path fill="none" stroke="#000000" d="M387.2786,-435.6028C368.8959,-425.8248 345.5992,-412.6729 326.5897,-401.4047"/>
<polygon fill="#000000" stroke="#000000" points="328.2952,-398.3465 317.9172,-396.2137 324.7,-404.3528 328.2952,-398.3465"/>
<g id="a_edge1&#45;headlabel"><a xlink:href="dir_000029_000055.html" target="_top" xlink:title="2">
<text text-anchor="middle" x="332.8377" y="-395.2564" font-family="Helvetica,sans-Serif" font-size="10.00" fill="#000000">2</text>
</a>
</g>
</g>
<!-- dir_4ab6b4cc6a7edbff49100e9123df213f&#45;&gt;dir_2171f7ec022c5423887b07c69b2f5b48 -->
<g id="edge2" class="edge">
<title>dir_4ab6b4cc6a7edbff49100e9123df213f&#45;&gt;dir_2171f7ec022c5423887b07c69b2f5b48</title>
<path fill="none" stroke="#000000" d="M418.064,-431.9555C422.9806,-394.235 442.1533,-306.8188 455.1081,-261.8399"/>
<polygon fill="#000000" stroke="#000000" points="458.4954,-262.7289 458.0126,-252.1451 451.7899,-260.7199 458.4954,-262.7289"/>
<g id="a_edge2&#45;headlabel"><a xlink:href="dir_000029_000079.html" target="_top" xlink:title="2">
<text text-anchor="middle" x="460.1837" y="-264.4871" font-family="Helvetica,sans-Serif" font-size="10.00" fill="#000000">2</text>
</a>
</g>
</g>
<!-- dir_d14e88a79bca429480864605ee348cef&#45;&gt;dir_4ab6b4cc6a7edbff49100e9123df213f -->
<g id="edge3" class="edge">
<title>dir_d14e88a79bca429480864605ee348cef&#45;&gt;dir_4ab6b4cc6a7edbff49100e9123df213f</title>
<path fill="none" stroke="#000000" d="M601.8474,-512.7347C565.4731,-500.3226 500.6327,-478.1969 458.484,-463.8145"/>
<polygon fill="#000000" stroke="#000000" points="459.4054,-460.4308 448.8109,-460.5137 457.1447,-467.0557 459.4054,-460.4308"/>
<g id="a_edge3&#45;headlabel"><a xlink:href="dir_000165_000029.html" target="_top" xlink:title="29">
<text text-anchor="middle" x="463.7243" y="-456.4044" font-family="Helvetica,sans-Serif" font-size="10.00" fill="#000000">29</text>
</a>
</g>
</g>
<!-- dir_d14e88a79bca429480864605ee348cef&#45;&gt;dir_b05a5fa85f84bfc9013183c9d87f9a36 -->
<g id="edge4" class="edge">
<title>dir_d14e88a79bca429480864605ee348cef&#45;&gt;dir_b05a5fa85f84bfc9013183c9d87f9a36</title>
<path fill="none" stroke="#000000" d="M649.6421,-503.7555C675.9336,-478.391 718,-429.7256 718,-378 718,-378 718,-378 718,-234 718,-143.6063 396.728,-104.3011 284.8593,-93.3548"/>
<polygon fill="#000000" stroke="#000000" points="284.9927,-89.8517 274.7048,-92.3833 284.3259,-96.8199 284.9927,-89.8517"/>
<g id="a_edge4&#45;headlabel"><a xlink:href="dir_000165_000600.html" target="_top" xlink:title="2">
<text text-anchor="middle" x="288.8414" y="-84.8676" font-family="Helvetica,sans-Serif" font-size="10.00" fill="#000000">2</text>
</a>
</g>
</g>
<!-- dir_d14e88a79bca429480864605ee348cef&#45;&gt;dir_bcbb2cf9a3d3d83e5515c82071a07177 -->
<g id="edge5" class="edge">
<title>dir_d14e88a79bca429480864605ee348cef&#45;&gt;dir_bcbb2cf9a3d3d83e5515c82071a07177</title>
<path fill="none" stroke="#000000" d="M601.6871,-518.1955C544.9489,-509.961 416.4146,-489.4883 378,-468 363.1527,-459.6947 334.0409,-427.5656 313.8252,-404.0567"/>
<polygon fill="#000000" stroke="#000000" points="316.2365,-401.4903 307.0836,-396.1539 310.9109,-406.0333 316.2365,-401.4903"/>
<g id="a_edge5&#45;headlabel"><a xlink:href="dir_000165_000055.html" target="_top" xlink:title="97">
<text text-anchor="middle" x="320.7294" y="-399.8823" font-family="Helvetica,sans-Serif" font-size="10.00" fill="#000000">97</text>
</a>
</g>
</g>
<!-- dir_d14e88a79bca429480864605ee348cef&#45;&gt;dir_2171f7ec022c5423887b07c69b2f5b48 -->
<g id="edge6" class="edge">
<title>dir_d14e88a79bca429480864605ee348cef&#45;&gt;dir_2171f7ec022c5423887b07c69b2f5b48</title>
<path fill="none" stroke="#000000" d="M627.8232,-503.9073C630.3206,-461.3476 641.4051,-353.5516 591,-288 572.7658,-264.2864 542.4381,-250.9479 516.1526,-243.4642"/>
<polygon fill="#000000" stroke="#000000" points="516.8715,-240.0342 506.3099,-240.8732 515.0895,-246.8036 516.8715,-240.0342"/>
<g id="a_edge6&#45;headlabel"><a xlink:href="dir_000165_000079.html" target="_top" xlink:title="137">
<text text-anchor="middle" x="521.0704" y="-235.7035" font-family="Helvetica,sans-Serif" font-size="10.00" fill="#000000">137</text>
</a>
</g>
</g>
<!-- dir_a597e8e061b11201a1dff411feb10d0b&#45;&gt;dir_4ab6b4cc6a7edbff49100e9123df213f -->
<g id="edge7" class="edge">
<title>dir_a597e8e061b11201a1dff411feb10d0b&#45;&gt;dir_4ab6b4cc6a7edbff49100e9123df213f</title>
<path fill="none" stroke="#000000" d="M183.4641,-324.2118C196.0473,-344.5489 219.0099,-377.0857 247,-396 286.6773,-422.812 340.4083,-436.899 376.9808,-443.8731"/>
<polygon fill="#000000" stroke="#000000" points="376.8163,-447.4001 387.2796,-445.7359 378.0622,-440.5118 376.8163,-447.4001"/>
<g id="a_edge7&#45;headlabel"><a xlink:href="dir_000051_000029.html" target="_top" xlink:title="40">
<text text-anchor="middle" x="372.7738" y="-447.0543" font-family="Helvetica,sans-Serif" font-size="10.00" fill="#000000">40</text>
</a>
</g>
</g>
<!-- dir_a597e8e061b11201a1dff411feb10d0b&#45;&gt;dir_b05a5fa85f84bfc9013183c9d87f9a36 -->
<g id="edge8" class="edge">
<title>dir_a597e8e061b11201a1dff411feb10d0b&#45;&gt;dir_b05a5fa85f84bfc9013183c9d87f9a36</title>
<path fill="none" stroke="#000000" d="M175.745,-287.9362C180.7825,-257.3976 192.9625,-194.007 214,-144 217.8797,-134.7778 223.1748,-125.2838 228.3875,-116.8783"/>
<polygon fill="#000000" stroke="#000000" points="231.4723,-118.5523 233.9406,-108.249 225.5858,-114.7642 231.4723,-118.5523"/>
<g id="a_edge8&#45;headlabel"><a xlink:href="dir_000051_000600.html" target="_top" xlink:title="1">
<text text-anchor="middle" x="231.9147" y="-120.6115" font-family="Helvetica,sans-Serif" font-size="10.00" fill="#000000">1</text>
</a>
</g>
</g>
<!-- dir_a597e8e061b11201a1dff411feb10d0b&#45;&gt;dir_8ba487e25de5ee77e05e9dce7582cb98 -->
<g id="edge9" class="edge">
<title>dir_a597e8e061b11201a1dff411feb10d0b&#45;&gt;dir_8ba487e25de5ee77e05e9dce7582cb98</title>
<path fill="none" stroke="#000000" d="M173.7705,-287.6892C174.6428,-269.476 176.3045,-240.7526 179,-216 185.6227,-155.184 197.3142,-84.4293 203.9778,-46.1294"/>
<polygon fill="#000000" stroke="#000000" points="207.4351,-46.677 205.7156,-36.2227 200.5404,-45.4675 207.4351,-46.677"/>
<g id="a_edge9&#45;headlabel"><a xlink:href="dir_000051_000000.html" target="_top" xlink:title="5">
<text text-anchor="middle" x="209.6107" y="-48.2081" font-family="Helvetica,sans-Serif" font-size="10.00" fill="#000000">5</text>
</a>
</g>
</g>
<!-- dir_a597e8e061b11201a1dff411feb10d0b&#45;&gt;dir_bcbb2cf9a3d3d83e5515c82071a07177 -->
<g id="edge10" class="edge">
<title>dir_a597e8e061b11201a1dff411feb10d0b&#45;&gt;dir_bcbb2cf9a3d3d83e5515c82071a07177</title>
<path fill="none" stroke="#000000" d="M200.1153,-319.164C217.7883,-329.0053 240.8029,-342.7244 259.438,-354.4395"/>
<polygon fill="#000000" stroke="#000000" points="257.6063,-357.4224 267.9237,-359.8314 261.3605,-351.5142 257.6063,-357.4224"/>
<g id="a_edge10&#45;headlabel"><a xlink:href="dir_000051_000055.html" target="_top" xlink:title="104">
<text text-anchor="middle" x="253.0497" y="-355.3911" font-family="Helvetica,sans-Serif" font-size="10.00" fill="#000000">104</text>
</a>
</g>
</g>
<!-- dir_a597e8e061b11201a1dff411feb10d0b&#45;&gt;dir_2171f7ec022c5423887b07c69b2f5b48 -->
<g id="edge11" class="edge">
<title>dir_a597e8e061b11201a1dff411feb10d0b&#45;&gt;dir_2171f7ec022c5423887b07c69b2f5b48</title>
<path fill="none" stroke="#000000" d="M200.0396,-299.3555C249.022,-287.3188 353.1339,-261.735 415.5805,-246.3898"/>
<polygon fill="#000000" stroke="#000000" points="416.7298,-249.7116 425.6056,-243.9263 415.0593,-242.9138 416.7298,-249.7116"/>
<g id="a_edge11&#45;headlabel"><a xlink:href="dir_000051_000079.html" target="_top" xlink:title="183">
<text text-anchor="middle" x="413.9165" y="-250.8265" font-family="Helvetica,sans-Serif" font-size="10.00" fill="#000000">183</text>
</a>
</g>
</g>
<!-- dir_b05a5fa85f84bfc9013183c9d87f9a36&#45;&gt;dir_4ab6b4cc6a7edbff49100e9123df213f -->
<g id="edge12" class="edge">
<title>dir_b05a5fa85f84bfc9013183c9d87f9a36&#45;&gt;dir_4ab6b4cc6a7edbff49100e9123df213f</title>
<path fill="none" stroke="#000000" d="M255.6975,-108.3104C283.6884,-167.2387 371.5535,-352.2178 404.9465,-422.519"/>
<polygon fill="#000000" stroke="#000000" points="401.8329,-424.1216 409.285,-431.6526 408.1558,-421.1181 401.8329,-424.1216"/>
<g id="a_edge12&#45;headlabel"><a xlink:href="dir_000600_000029.html" target="_top" xlink:title="1">
<text text-anchor="middle" x="397.726" y="-419.5928" font-family="Helvetica,sans-Serif" font-size="10.00" fill="#000000">1</text>
</a>
</g>
</g>
<!-- dir_b05a5fa85f84bfc9013183c9d87f9a36&#45;&gt;dir_8ba487e25de5ee77e05e9dce7582cb98 -->
<g id="edge13" class="edge">
<title>dir_b05a5fa85f84bfc9013183c9d87f9a36&#45;&gt;dir_8ba487e25de5ee77e05e9dce7582cb98</title>
<path fill="none" stroke="#000000" d="M237.411,-71.8314C233.1683,-63.7925 228.0879,-54.1666 223.404,-45.2918"/>
<polygon fill="#000000" stroke="#000000" points="226.4811,-43.6235 218.7181,-36.4133 220.2904,-46.8908 226.4811,-43.6235"/>
<g id="a_edge13&#45;headlabel"><a xlink:href="dir_000600_000000.html" target="_top" xlink:title="1">
<text text-anchor="middle" x="230.6699" y="-42.9772" font-family="Helvetica,sans-Serif" font-size="10.00" fill="#000000">1</text>
</a>
</g>
</g>
<!-- dir_b05a5fa85f84bfc9013183c9d87f9a36&#45;&gt;dir_bcbb2cf9a3d3d83e5515c82071a07177 -->
<g id="edge14" class="edge">
<title>dir_b05a5fa85f84bfc9013183c9d87f9a36&#45;&gt;dir_bcbb2cf9a3d3d83e5515c82071a07177</title>
<path fill="none" stroke="#000000" d="M243.7424,-108.2566C237.3287,-148.5301 225.8387,-247.4867 252,-324 255.3971,-333.9355 261.3495,-343.5593 267.6406,-351.8625"/>
<polygon fill="#000000" stroke="#000000" points="264.9558,-354.1088 273.9625,-359.6883 270.401,-349.7099 264.9558,-354.1088"/>
<g id="a_edge14&#45;headlabel"><a xlink:href="dir_000600_000055.html" target="_top" xlink:title="34">
<text text-anchor="middle" x="260.4883" y="-350.5968" font-family="Helvetica,sans-Serif" font-size="10.00" fill="#000000">34</text>
</a>
</g>
</g>
<!-- dir_b05a5fa85f84bfc9013183c9d87f9a36&#45;&gt;dir_2171f7ec022c5423887b07c69b2f5b48 -->
<g id="edge15" class="edge">
<title>dir_b05a5fa85f84bfc9013183c9d87f9a36&#45;&gt;dir_2171f7ec022c5423887b07c69b2f5b48</title>
<path fill="none" stroke="#000000" d="M274.6971,-95.4362C305.413,-103.1611 354.7536,-119.1926 391,-144 416.3902,-161.3773 439.7865,-187.6696 453.8028,-207.356"/>
<polygon fill="#000000" stroke="#000000" points="451.0607,-209.5496 459.5561,-215.8805 456.8629,-205.6336 451.0607,-209.5496"/>
<g id="a_edge15&#45;headlabel"><a xlink:href="dir_000600_000079.html" target="_top" xlink:title="48">
<text text-anchor="middle" x="446.6964" y="-205.6585" font-family="Helvetica,sans-Serif" font-size="10.00" fill="#000000">48</text>
</a>
</g>
</g>
<!-- dir_1306292b77b40360479b729ac9ee7efe&#45;&gt;dir_4ab6b4cc6a7edbff49100e9123df213f -->
<g id="edge16" class="edge">
<title>dir_1306292b77b40360479b729ac9ee7efe&#45;&gt;dir_4ab6b4cc6a7edbff49100e9123df213f</title>
<path fill="none" stroke="#000000" d="M350.5022,-180.0089C362.6728,-228.6912 396.2971,-363.1886 410.9836,-421.9345"/>
<polygon fill="#000000" stroke="#000000" points="407.6751,-423.1318 413.4961,-431.9843 414.4661,-421.434 407.6751,-423.1318"/>
<g id="a_edge16&#45;headlabel"><a xlink:href="dir_000045_000029.html" target="_top" xlink:title="76">
<text text-anchor="middle" x="404.0489" y="-417.8331" font-family="Helvetica,sans-Serif" font-size="10.00" fill="#000000">76</text>
</a>
</g>
</g>
<!-- dir_1306292b77b40360479b729ac9ee7efe&#45;&gt;dir_b05a5fa85f84bfc9013183c9d87f9a36 -->
<g id="edge17" class="edge">
<title>dir_1306292b77b40360479b729ac9ee7efe&#45;&gt;dir_b05a5fa85f84bfc9013183c9d87f9a36</title>
<path fill="none" stroke="#000000" d="M321.0181,-143.8314C308.7072,-134.8779 293.6893,-123.9558 280.4063,-114.2955"/>
<polygon fill="#000000" stroke="#000000" points="282.1199,-111.214 271.9739,-108.1628 278.0027,-116.8752 282.1199,-111.214"/>
<g id="a_edge17&#45;headlabel"><a xlink:href="dir_000045_000600.html" target="_top" xlink:title="1">
<text text-anchor="middle" x="286.6969" y="-108.532" font-family="Helvetica,sans-Serif" font-size="10.00" fill="#000000">1</text>
</a>
</g>
</g>
<!-- dir_1306292b77b40360479b729ac9ee7efe&#45;&gt;dir_bcbb2cf9a3d3d83e5515c82071a07177 -->
<g id="edge18" class="edge">
<title>dir_1306292b77b40360479b729ac9ee7efe&#45;&gt;dir_bcbb2cf9a3d3d83e5515c82071a07177</title>
<path fill="none" stroke="#000000" d="M345.4189,-180.1451C339.4267,-217.9537 317.8185,-305.3762 303.6274,-350.2797"/>
<polygon fill="#000000" stroke="#000000" points="300.2448,-349.3628 300.457,-359.9555 306.8968,-351.5424 300.2448,-349.3628"/>
<g id="a_edge18&#45;headlabel"><a xlink:href="dir_000045_000055.html" target="_top" xlink:title="100">
<text text-anchor="middle" x="298.6659" y="-342.5628" font-family="Helvetica,sans-Serif" font-size="10.00" fill="#000000">100</text>
</a>
</g>
</g>
<!-- dir_1306292b77b40360479b729ac9ee7efe&#45;&gt;dir_2171f7ec022c5423887b07c69b2f5b48 -->
<g id="edge19" class="edge">
<title>dir_1306292b77b40360479b729ac9ee7efe&#45;&gt;dir_2171f7ec022c5423887b07c69b2f5b48</title>
<path fill="none" stroke="#000000" d="M373.2981,-175.164C391.1078,-185.0053 414.3129,-198.7244 433.1108,-210.4395"/>
<polygon fill="#000000" stroke="#000000" points="431.3445,-213.4634 441.6713,-215.8314 435.0752,-207.5403 431.3445,-213.4634"/>
<g id="a_edge19&#45;headlabel"><a xlink:href="dir_000045_000079.html" target="_top" xlink:title="238">
<text text-anchor="middle" x="426.7898" y="-211.4501" font-family="Helvetica,sans-Serif" font-size="10.00" fill="#000000">238</text>
</a>
</g>
</g>
<!-- dir_8ba487e25de5ee77e05e9dce7582cb98&#45;&gt;dir_2171f7ec022c5423887b07c69b2f5b48 -->
<g id="edge20" class="edge">
<title>dir_8ba487e25de5ee77e05e9dce7582cb98&#45;&gt;dir_2171f7ec022c5423887b07c69b2f5b48</title>
<path fill="none" stroke="#000000" d="M241.8174,-27.4486C290.3634,-44.2979 380.7296,-83.5371 435,-144 450.9008,-161.7151 461.3369,-186.7794 466.1019,-205.9604"/>
<polygon fill="#000000" stroke="#000000" points="462.7105,-206.8439 468.1644,-215.9272 469.5653,-205.4254 462.7105,-206.8439"/>
<g id="a_edge20&#45;headlabel"><a xlink:href="dir_000000_000079.html" target="_top" xlink:title="8">
<text text-anchor="middle" x="459.2018" y="-201.3992" font-family="Helvetica,sans-Serif" font-size="10.00" fill="#000000">8</text>
</a>
</g>
</g>
<!-- dir_577c839d346a264df4e9e588ca2a45dd&#45;&gt;dir_4ab6b4cc6a7edbff49100e9123df213f -->
<g id="edge21" class="edge">
<title>dir_577c839d346a264df4e9e588ca2a45dd&#45;&gt;dir_4ab6b4cc6a7edbff49100e9123df213f</title>
<path fill="none" stroke="#000000" d="M310.3193,-507.4297C329.8696,-497.0029 356.4905,-482.8051 378.3715,-471.1352"/>
<polygon fill="#000000" stroke="#000000" points="380.2479,-474.1012 387.4244,-466.307 376.9538,-467.9247 380.2479,-474.1012"/>
<g id="a_edge21&#45;headlabel"><a xlink:href="dir_000139_000029.html" target="_top" xlink:title="22">
<text text-anchor="middle" x="378.4123" y="-475.7979" font-family="Helvetica,sans-Serif" font-size="10.00" fill="#000000">22</text>
</a>
</g>
</g>
<!-- dir_577c839d346a264df4e9e588ca2a45dd&#45;&gt;dir_b05a5fa85f84bfc9013183c9d87f9a36 -->
<g id="edge22" class="edge">
<title>dir_577c839d346a264df4e9e588ca2a45dd&#45;&gt;dir_b05a5fa85f84bfc9013183c9d87f9a36</title>
<path fill="none" stroke="#000000" d="M255.8472,-513.1032C208.0748,-495.5458 114,-451.6243 114,-378 114,-378 114,-378 114,-234 114,-176.9742 170.983,-132.9057 210.3519,-109.2642"/>
<polygon fill="#000000" stroke="#000000" points="212.5585,-112.0298 219.4423,-103.976 209.0385,-105.9791 212.5585,-112.0298"/>
<g id="a_edge22&#45;headlabel"><a xlink:href="dir_000139_000600.html" target="_top" xlink:title="1">
<text text-anchor="middle" x="210.879" y="-113.7915" font-family="Helvetica,sans-Serif" font-size="10.00" fill="#000000">1</text>
</a>
</g>
</g>
<!-- dir_577c839d346a264df4e9e588ca2a45dd&#45;&gt;dir_bcbb2cf9a3d3d83e5515c82071a07177 -->
<g id="edge23" class="edge">
<title>dir_577c839d346a264df4e9e588ca2a45dd&#45;&gt;dir_bcbb2cf9a3d3d83e5515c82071a07177</title>
<path fill="none" stroke="#000000" d="M284.1399,-503.7623C285.6749,-479.201 288.422,-435.2474 290.2279,-406.3541"/>
<polygon fill="#000000" stroke="#000000" points="293.7387,-406.2885 290.8694,-396.0896 286.7523,-405.8518 293.7387,-406.2885"/>
<g id="a_edge23&#45;headlabel"><a xlink:href="dir_000139_000055.html" target="_top" xlink:title="84">
<text text-anchor="middle" x="296.3483" y="-407.5532" font-family="Helvetica,sans-Serif" font-size="10.00" fill="#000000">84</text>
</a>
</g>
</g>
<!-- dir_577c839d346a264df4e9e588ca2a45dd&#45;&gt;dir_2171f7ec022c5423887b07c69b2f5b48 -->
<g id="edge24" class="edge">
<title>dir_577c839d346a264df4e9e588ca2a45dd&#45;&gt;dir_2171f7ec022c5423887b07c69b2f5b48</title>
<path fill="none" stroke="#000000" d="M310.0037,-517.3157C354.0053,-509.1061 438.1692,-490.8036 457,-468 505.8373,-408.8595 487.5818,-309.8036 474.5978,-261.7813"/>
<polygon fill="#000000" stroke="#000000" points="477.9412,-260.7417 471.8534,-252.0705 471.205,-262.6455 477.9412,-260.7417"/>
<g id="a_edge24&#45;headlabel"><a xlink:href="dir_000139_000079.html" target="_top" xlink:title="71">
<text text-anchor="middle" x="481.651" y="-260.9287" font-family="Helvetica,sans-Serif" font-size="10.00" fill="#000000">71</text>
</a>
</g>
</g>
<!-- dir_bcbb2cf9a3d3d83e5515c82071a07177&#45;&gt;dir_4ab6b4cc6a7edbff49100e9123df213f -->
<g id="edge31" class="edge">
<title>dir_bcbb2cf9a3d3d83e5515c82071a07177&#45;&gt;dir_4ab6b4cc6a7edbff49100e9123df213f</title>
<path fill="none" stroke="#000000" d="M327.9014,-395.1715C345.3698,-404.5872 366.204,-416.3945 383.4825,-426.6381"/>
<polygon fill="#000000" stroke="#000000" points="381.7795,-429.6978 392.1573,-431.8314 385.3751,-423.6918 381.7795,-429.6978"/>
<g id="a_edge31&#45;headlabel"><a xlink:href="dir_000055_000029.html" target="_top" xlink:title="8">
<text text-anchor="middle" x="377.2369" y="-427.7875" font-family="Helvetica,sans-Serif" font-size="10.00" fill="#000000">8</text>
</a>
</g>
</g>
<!-- dir_bcbb2cf9a3d3d83e5515c82071a07177&#45;&gt;dir_a597e8e061b11201a1dff411feb10d0b -->
<g id="edge32" class="edge">
<title>dir_bcbb2cf9a3d3d83e5515c82071a07177&#45;&gt;dir_a597e8e061b11201a1dff411feb10d0b</title>
<path fill="none" stroke="#000000" d="M256.3441,-360.0171C240.2428,-350.825 221.4109,-339.5213 205.6793,-329.6342"/>
<polygon fill="#000000" stroke="#000000" points="207.1362,-326.4132 196.8191,-324.0032 203.3815,-332.321 207.1362,-326.4132"/>
<g id="a_edge32&#45;headlabel"><a xlink:href="dir_000055_000051.html" target="_top" xlink:title="1">
<text text-anchor="middle" x="211.6929" y="-323.4449" font-family="Helvetica,sans-Serif" font-size="10.00" fill="#000000">1</text>
</a>
</g>
</g>
<!-- dir_bcbb2cf9a3d3d83e5515c82071a07177&#45;&gt;dir_1306292b77b40360479b729ac9ee7efe -->
<g id="edge33" class="edge">
<title>dir_bcbb2cf9a3d3d83e5515c82071a07177&#45;&gt;dir_1306292b77b40360479b729ac9ee7efe</title>
<path fill="none" stroke="#000000" d="M292.5652,-359.9555C298.5296,-322.235 320.1305,-234.8188 334.3348,-189.8399"/>
<polygon fill="#000000" stroke="#000000" points="337.7236,-190.7377 337.5086,-180.1451 331.071,-188.5598 337.7236,-190.7377"/>
<g id="a_edge33&#45;headlabel"><a xlink:href="dir_000055_000045.html" target="_top" xlink:title="1">
<text text-anchor="middle" x="339.3037" y="-192.5373" font-family="Helvetica,sans-Serif" font-size="10.00" fill="#000000">1</text>
</a>
</g>
</g>
<!-- dir_bcbb2cf9a3d3d83e5515c82071a07177&#45;&gt;dir_8ba487e25de5ee77e05e9dce7582cb98 -->
<g id="edge34" class="edge">
<title>dir_bcbb2cf9a3d3d83e5515c82071a07177&#45;&gt;dir_8ba487e25de5ee77e05e9dce7582cb98</title>
<path fill="none" stroke="#000000" d="M256.332,-371.2965C194.9819,-357.4752 76,-319.6318 76,-234 76,-234 76,-234 76,-162 76,-107.1065 128.8013,-64.2194 167.8657,-40.0015"/>
<polygon fill="#000000" stroke="#000000" points="169.6989,-42.9833 176.4645,-34.8299 166.0911,-36.9846 169.6989,-42.9833"/>
<g id="a_edge34&#45;headlabel"><a xlink:href="dir_000055_000000.html" target="_top" xlink:title="1">
<text text-anchor="middle" x="168.0818" y="-44.769" font-family="Helvetica,sans-Serif" font-size="10.00" fill="#000000">1</text>
</a>
</g>
</g>
<!-- dir_bcbb2cf9a3d3d83e5515c82071a07177&#45;&gt;dir_2171f7ec022c5423887b07c69b2f5b48 -->
<g id="edge35" class="edge">
<title>dir_bcbb2cf9a3d3d83e5515c82071a07177&#45;&gt;dir_2171f7ec022c5423887b07c69b2f5b48</title>
<path fill="none" stroke="#000000" d="M309.364,-359.7623C337.9014,-334.0108 394.5991,-286.942 431.477,-258.2637"/>
<polygon fill="#000000" stroke="#000000" points="433.7018,-260.9679 439.4834,-252.0896 429.4272,-255.4247 433.7018,-260.9679"/>
<g id="a_edge35&#45;headlabel"><a xlink:href="dir_000055_000079.html" target="_top" xlink:title="82">
<text text-anchor="middle" x="432.5891" y="-262.9114" font-family="Helvetica,sans-Serif" font-size="10.00" fill="#000000">82</text>
</a>
</g>
</g>
<!-- dir_2171f7ec022c5423887b07c69b2f5b48&#45;&gt;dir_4ab6b4cc6a7edbff49100e9123df213f -->
<g id="edge36" class="edge">
<title>dir_2171f7ec022c5423887b07c69b2f5b48&#45;&gt;dir_4ab6b4cc6a7edbff49100e9123df213f</title>
<path fill="none" stroke="#000000" d="M465.9229,-252.1451C460.981,-289.9537 441.8012,-377.3762 428.8574,-422.2797"/>
<polygon fill="#000000" stroke="#000000" points="425.4758,-421.3715 425.9558,-431.9555 432.1808,-423.3823 425.4758,-421.3715"/>
<g id="a_edge36&#45;headlabel"><a xlink:href="dir_000079_000029.html" target="_top" xlink:title="37">
<text text-anchor="middle" x="423.7887" y="-414.6129" font-family="Helvetica,sans-Serif" font-size="10.00" fill="#000000">37</text>
</a>
</g>
</g>
<!-- dir_2171f7ec022c5423887b07c69b2f5b48&#45;&gt;dir_d14e88a79bca429480864605ee348cef -->
<g id="edge37" class="edge">
<title>dir_2171f7ec022c5423887b07c69b2f5b48&#45;&gt;dir_d14e88a79bca429480864605ee348cef</title>
<path fill="none" stroke="#000000" d="M506.1406,-237.8702C539.4617,-243.3777 584.8434,-256.5844 609,-288 655.861,-348.9425 649.5754,-446.3976 639.3471,-493.9997"/>
<polygon fill="#000000" stroke="#000000" points="635.8996,-493.3677 636.98,-503.9073 642.708,-494.9944 635.8996,-493.3677"/>
<g id="a_edge37&#45;headlabel"><a xlink:href="dir_000079_000165.html" target="_top" xlink:title="3">
<text text-anchor="middle" x="633.9733" y="-486.7117" font-family="Helvetica,sans-Serif" font-size="10.00" fill="#000000">3</text>
</a>
</g>
</g>
<!-- dir_2171f7ec022c5423887b07c69b2f5b48&#45;&gt;dir_b05a5fa85f84bfc9013183c9d87f9a36 -->
<g id="edge38" class="edge">
<title>dir_2171f7ec022c5423887b07c69b2f5b48&#45;&gt;dir_b05a5fa85f84bfc9013183c9d87f9a36</title>
<path fill="none" stroke="#000000" d="M446.4637,-215.8805C428.9062,-195.9321 402.2788,-164.0387 373,-144 345.4775,-125.1633 310.4054,-111.3865 284.1444,-102.4641"/>
<polygon fill="#000000" stroke="#000000" points="285.1385,-99.1064 274.5451,-99.2817 282.9357,-105.7507 285.1385,-99.1064"/>
<g id="a_edge38&#45;headlabel"><a xlink:href="dir_000079_000600.html" target="_top" xlink:title="1">
<text text-anchor="middle" x="289.4439" y="-95.0424" font-family="Helvetica,sans-Serif" font-size="10.00" fill="#000000">1</text>
</a>
</g>
</g>
<!-- dir_2171f7ec022c5423887b07c69b2f5b48&#45;&gt;dir_1306292b77b40360479b729ac9ee7efe -->
<g id="edge39" class="edge">
<title>dir_2171f7ec022c5423887b07c69b2f5b48&#45;&gt;dir_1306292b77b40360479b729ac9ee7efe</title>
<path fill="none" stroke="#000000" d="M429.7665,-215.8314C413.6708,-206.7074 394.9111,-195.539 379.1851,-185.7449"/>
<polygon fill="#000000" stroke="#000000" points="380.6468,-182.5292 370.3196,-180.1628 376.917,-188.4528 380.6468,-182.5292"/>
<g id="a_edge39&#45;headlabel"><a xlink:href="dir_000079_000045.html" target="_top" xlink:title="1">
<text text-anchor="middle" x="385.2014" y="-179.5417" font-family="Helvetica,sans-Serif" font-size="10.00" fill="#000000">1</text>
</a>
</g>
</g>
<!-- dir_2171f7ec022c5423887b07c69b2f5b48&#45;&gt;dir_8ba487e25de5ee77e05e9dce7582cb98 -->
<g id="edge40" class="edge">
<title>dir_2171f7ec022c5423887b07c69b2f5b48&#45;&gt;dir_8ba487e25de5ee77e05e9dce7582cb98</title>
<path fill="none" stroke="#000000" d="M454.9839,-215.9272C447.0147,-196.3145 435.8453,-164.9957 417,-144 370.4086,-92.0923 297.2133,-55.8271 251.1191,-35.9423"/>
<polygon fill="#000000" stroke="#000000" points="252.2863,-32.6355 241.7138,-31.948 249.55,-39.0786 252.2863,-32.6355"/>
<g id="a_edge40&#45;headlabel"><a xlink:href="dir_000079_000000.html" target="_top" xlink:title="2">
<text text-anchor="middle" x="256.7048" y="-28.9272" font-family="Helvetica,sans-Serif" font-size="10.00" fill="#000000">2</text>
</a>
</g>
</g>
<!-- dir_2171f7ec022c5423887b07c69b2f5b48&#45;&gt;dir_bcbb2cf9a3d3d83e5515c82071a07177 -->
<g id="edge41" class="edge">
<title>dir_2171f7ec022c5423887b07c69b2f5b48&#45;&gt;dir_bcbb2cf9a3d3d83e5515c82071a07177</title>
<path fill="none" stroke="#000000" d="M448.8,-252.0896C420.371,-277.7591 363.6894,-324.8221 326.7356,-353.5709"/>
<polygon fill="#000000" stroke="#000000" points="324.49,-350.8827 318.7104,-359.7623 328.7659,-356.4251 324.49,-350.8827"/>
<g id="a_edge41&#45;headlabel"><a xlink:href="dir_000079_000055.html" target="_top" xlink:title="17">
<text text-anchor="middle" x="325.6018" y="-343.9391" font-family="Helvetica,sans-Serif" font-size="10.00" fill="#000000">17</text>
</a>
</g>
</g>
</g>
</svg>
