<?xml version="1.0" encoding="UTF-8" standalone="no"?>
<!DOCTYPE svg PUBLIC "-//W3C//DTD SVG 1.1//EN"
 "http://www.w3.org/Graphics/SVG/1.1/DTD/svg11.dtd">
<!-- Generated by graphviz version 2.40.1 (20161225.0304)
 -->
<!-- Title: /home/travis/build/AliceO2Group/AliceO2/Detectors/CTF/test Pages: 1 -->
<svg width="317pt" height="439pt"
 viewBox="0.00 0.00 316.97 439.00" xmlns="http://www.w3.org/2000/svg" xmlns:xlink="http://www.w3.org/1999/xlink">
<g id="graph0" class="graph" transform="scale(1 1) rotate(0) translate(4 435)">
<title>/home/travis/build/AliceO2Group/AliceO2/Detectors/CTF/test</title>
<g id="clust1" class="cluster">
<title>clusterdir_22c28337d94ed0b7d4c6655ee55d3b27</title>
<g id="a_clust1"><a xlink:href="dir_22c28337d94ed0b7d4c6655ee55d3b27.html" target="_top" xlink:title="CTF">
<polygon fill="#ddddee" stroke="#000000" points="103.6354,-352 103.6354,-423 173.6354,-423 173.6354,-352 103.6354,-352"/>
<text text-anchor="middle" x="138.6354" y="-411" font-family="Helvetica,sans-Serif" font-size="10.00" fill="#000000">CTF</text>
</a>
</g>
</g>
<!-- dir_f34bb2841ccfd4447c7217216c5f7129 -->
<g id="node1" class="node">
<title>dir_f34bb2841ccfd4447c7217216c5f7129</title>
<g id="a_node1"><a xlink:href="dir_f34bb2841ccfd4447c7217216c5f7129.html" target="_top" xlink:title="test">
<polygon fill="#eeeeff" stroke="#000000" points="165.6354,-396 111.6354,-396 111.6354,-360 165.6354,-360 165.6354,-396"/>
<text text-anchor="middle" x="138.6354" y="-375.5" font-family="Helvetica,sans-Serif" font-size="10.00" fill="#000000">test</text>
</a>
</g>
</g>
<!-- dir_d14e88a79bca429480864605ee348cef -->
<g id="node2" class="node">
<title>dir_d14e88a79bca429480864605ee348cef</title>
<g id="a_node2"><a xlink:href="dir_d14e88a79bca429480864605ee348cef.html" target="_top" xlink:title="FIT">
<polygon fill="none" stroke="#ff0000" points="83.6354,-324 29.6354,-324 29.6354,-288 83.6354,-288 83.6354,-324"/>
<text text-anchor="middle" x="56.6354" y="-303.5" font-family="Helvetica,sans-Serif" font-size="10.00" fill="#000000">FIT</text>
</a>
</g>
</g>
<!-- dir_f34bb2841ccfd4447c7217216c5f7129&#45;&gt;dir_d14e88a79bca429480864605ee348cef -->
<g id="edge9" class="edge">
<title>dir_f34bb2841ccfd4447c7217216c5f7129&#45;&gt;dir_d14e88a79bca429480864605ee348cef</title>
<path fill="none" stroke="#000000" d="M117.9433,-359.8314C107.9406,-351.0485 95.7804,-340.3712 84.9355,-330.8489"/>
<polygon fill="#000000" stroke="#000000" points="87.1446,-328.1308 77.3208,-324.1628 82.526,-333.3909 87.1446,-328.1308"/>
<g id="a_edge9&#45;headlabel"><a xlink:href="dir_000420_000165.html" target="_top" xlink:title="3">
<text text-anchor="middle" x="91.7191" y="-325.869" font-family="Helvetica,sans-Serif" font-size="10.00" fill="#000000">3</text>
</a>
</g>
</g>
<!-- dir_a597e8e061b11201a1dff411feb10d0b -->
<g id="node3" class="node">
<title>dir_a597e8e061b11201a1dff411feb10d0b</title>
<g id="a_node3"><a xlink:href="dir_a597e8e061b11201a1dff411feb10d0b.html" target="_top" xlink:title="TPC">
<polygon fill="none" stroke="#ff0000" points="285.6354,-180 231.6354,-180 231.6354,-144 285.6354,-144 285.6354,-180"/>
<text text-anchor="middle" x="258.6354" y="-159.5" font-family="Helvetica,sans-Serif" font-size="10.00" fill="#000000">TPC</text>
</a>
</g>
</g>
<!-- dir_f34bb2841ccfd4447c7217216c5f7129&#45;&gt;dir_a597e8e061b11201a1dff411feb10d0b -->
<g id="edge10" class="edge">
<title>dir_f34bb2841ccfd4447c7217216c5f7129&#45;&gt;dir_a597e8e061b11201a1dff411feb10d0b</title>
<path fill="none" stroke="#000000" d="M165.7303,-365.6762C183.7724,-356.3515 206.9569,-342.0715 222.6354,-324 245.7034,-297.411 247.5575,-286.2616 255.6354,-252 260.4114,-231.7431 261.0314,-208.2163 260.5263,-190.2984"/>
<polygon fill="#000000" stroke="#000000" points="264.0192,-190.0518 260.1078,-180.2054 257.0252,-190.3419 264.0192,-190.0518"/>
<g id="a_edge10&#45;headlabel"><a xlink:href="dir_000420_000051.html" target="_top" xlink:title="1">
<text text-anchor="middle" x="267.0049" y="-191.0257" font-family="Helvetica,sans-Serif" font-size="10.00" fill="#000000">1</text>
</a>
</g>
</g>
<!-- dir_1306292b77b40360479b729ac9ee7efe -->
<g id="node4" class="node">
<title>dir_1306292b77b40360479b729ac9ee7efe</title>
<g id="a_node4"><a xlink:href="dir_1306292b77b40360479b729ac9ee7efe.html" target="_top" xlink:title="ITSMFT">
<polygon fill="none" stroke="#ff0000" points="197.6354,-36 143.6354,-36 143.6354,0 197.6354,0 197.6354,-36"/>
<text text-anchor="middle" x="170.6354" y="-15.5" font-family="Helvetica,sans-Serif" font-size="10.00" fill="#000000">ITSMFT</text>
</a>
</g>
</g>
<!-- dir_f34bb2841ccfd4447c7217216c5f7129&#45;&gt;dir_1306292b77b40360479b729ac9ee7efe -->
<g id="edge11" class="edge">
<title>dir_f34bb2841ccfd4447c7217216c5f7129&#45;&gt;dir_1306292b77b40360479b729ac9ee7efe</title>
<path fill="none" stroke="#000000" d="M111.5615,-372.9713C84.3802,-366.4654 43.3676,-352.4096 20.6354,-324 -4.9062,-292.0793 1.6354,-274.8816 1.6354,-234 1.6354,-234 1.6354,-234 1.6354,-162 1.6354,-92.9772 84.3184,-50.0604 134.017,-30.4986"/>
<polygon fill="#000000" stroke="#000000" points="135.3811,-33.7244 143.4826,-26.8968 132.8916,-27.182 135.3811,-33.7244"/>
<g id="a_edge11&#45;headlabel"><a xlink:href="dir_000420_000045.html" target="_top" xlink:title="1">
<text text-anchor="middle" x="133.0312" y="-35.1563" font-family="Helvetica,sans-Serif" font-size="10.00" fill="#000000">1</text>
</a>
</g>
</g>
<!-- dir_577c839d346a264df4e9e588ca2a45dd -->
<g id="node5" class="node">
<title>dir_577c839d346a264df4e9e588ca2a45dd</title>
<g id="a_node5"><a xlink:href="dir_577c839d346a264df4e9e588ca2a45dd.html" target="_top" xlink:title="TOF">
<polygon fill="none" stroke="#ff0000" points="193.6354,-324 139.6354,-324 139.6354,-288 193.6354,-288 193.6354,-324"/>
<text text-anchor="middle" x="166.6354" y="-303.5" font-family="Helvetica,sans-Serif" font-size="10.00" fill="#000000">TOF</text>
</a>
</g>
</g>
<!-- dir_f34bb2841ccfd4447c7217216c5f7129&#45;&gt;dir_577c839d346a264df4e9e588ca2a45dd -->
<g id="edge12" class="edge">
<title>dir_f34bb2841ccfd4447c7217216c5f7129&#45;&gt;dir_577c839d346a264df4e9e588ca2a45dd</title>
<path fill="none" stroke="#000000" d="M145.701,-359.8314C148.7614,-351.9617 152.4133,-342.5712 155.8036,-333.8533"/>
<polygon fill="#000000" stroke="#000000" points="159.1122,-335.0019 159.4747,-324.4133 152.5881,-332.4647 159.1122,-335.0019"/>
<g id="a_edge12&#45;headlabel"><a xlink:href="dir_000420_000139.html" target="_top" xlink:title="3">
<text text-anchor="middle" x="160.4556" y="-336.8812" font-family="Helvetica,sans-Serif" font-size="10.00" fill="#000000">3</text>
</a>
</g>
</g>
<!-- dir_bcbb2cf9a3d3d83e5515c82071a07177 -->
<g id="node6" class="node">
<title>dir_bcbb2cf9a3d3d83e5515c82071a07177</title>
<g id="a_node6"><a xlink:href="dir_bcbb2cf9a3d3d83e5515c82071a07177.html" target="_top" xlink:title="Framework">
<polygon fill="none" stroke="#ff0000" points="247.1354,-252 176.1354,-252 176.1354,-216 247.1354,-216 247.1354,-252"/>
<text text-anchor="middle" x="211.6354" y="-231.5" font-family="Helvetica,sans-Serif" font-size="10.00" fill="#000000">Framework</text>
</a>
</g>
</g>
<!-- dir_f34bb2841ccfd4447c7217216c5f7129&#45;&gt;dir_bcbb2cf9a3d3d83e5515c82071a07177 -->
<g id="edge13" class="edge">
<title>dir_f34bb2841ccfd4447c7217216c5f7129&#45;&gt;dir_bcbb2cf9a3d3d83e5515c82071a07177</title>
<path fill="none" stroke="#000000" d="M165.7616,-362.2296C179.2021,-352.9048 194.302,-339.8209 202.6354,-324 212.6069,-305.0691 214.5133,-280.7937 214.1151,-262.2261"/>
<polygon fill="#000000" stroke="#000000" points="217.6027,-261.8699 213.6579,-252.0369 210.6098,-262.1837 217.6027,-261.8699"/>
<g id="a_edge13&#45;headlabel"><a xlink:href="dir_000420_000055.html" target="_top" xlink:title="5">
<text text-anchor="middle" x="220.6002" y="-262.8336" font-family="Helvetica,sans-Serif" font-size="10.00" fill="#000000">5</text>
</a>
</g>
</g>
<!-- dir_2171f7ec022c5423887b07c69b2f5b48 -->
<g id="node7" class="node">
<title>dir_2171f7ec022c5423887b07c69b2f5b48</title>
<g id="a_node7"><a xlink:href="dir_2171f7ec022c5423887b07c69b2f5b48.html" target="_top" xlink:title="DataFormats">
<polygon fill="none" stroke="#ff0000" points="210.6354,-108 130.6354,-108 130.6354,-72 210.6354,-72 210.6354,-108"/>
<text text-anchor="middle" x="170.6354" y="-87.5" font-family="Helvetica,sans-Serif" font-size="10.00" fill="#000000">DataFormats</text>
</a>
</g>
</g>
<!-- dir_f34bb2841ccfd4447c7217216c5f7129&#45;&gt;dir_2171f7ec022c5423887b07c69b2f5b48 -->
<g id="edge14" class="edge">
<title>dir_f34bb2841ccfd4447c7217216c5f7129&#45;&gt;dir_2171f7ec022c5423887b07c69b2f5b48</title>
<path fill="none" stroke="#000000" d="M135.2204,-359.5804C133.4645,-349.1767 131.5128,-335.9092 130.6354,-324 125.0847,-248.6565 147.9912,-161.2371 161.4481,-117.6643"/>
<polygon fill="#000000" stroke="#000000" points="164.8075,-118.6489 164.4828,-108.059 158.1327,-116.54 164.8075,-118.6489"/>
<g id="a_edge14&#45;headlabel"><a xlink:href="dir_000420_000079.html" target="_top" xlink:title="11">
<text text-anchor="middle" x="166.432" y="-120.4318" font-family="Helvetica,sans-Serif" font-size="10.00" fill="#000000">11</text>
</a>
</g>
</g>
<!-- dir_d14e88a79bca429480864605ee348cef&#45;&gt;dir_bcbb2cf9a3d3d83e5515c82071a07177 -->
<g id="edge1" class="edge">
<title>dir_d14e88a79bca429480864605ee348cef&#45;&gt;dir_bcbb2cf9a3d3d83e5515c82071a07177</title>
<path fill="none" stroke="#000000" d="M83.9895,-293.2936C106.9236,-282.6403 140.1251,-267.2177 166.918,-254.772"/>
<polygon fill="#000000" stroke="#000000" points="168.5055,-257.8938 176.1003,-250.5066 165.5565,-251.5452 168.5055,-257.8938"/>
<g id="a_edge1&#45;headlabel"><a xlink:href="dir_000165_000055.html" target="_top" xlink:title="97">
<text text-anchor="middle" x="166.4416" y="-259.4831" font-family="Helvetica,sans-Serif" font-size="10.00" fill="#000000">97</text>
</a>
</g>
</g>
<!-- dir_d14e88a79bca429480864605ee348cef&#45;&gt;dir_2171f7ec022c5423887b07c69b2f5b48 -->
<g id="edge2" class="edge">
<title>dir_d14e88a79bca429480864605ee348cef&#45;&gt;dir_2171f7ec022c5423887b07c69b2f5b48</title>
<path fill="none" stroke="#000000" d="M51.608,-287.8452C49.4198,-256.0561 56.1479,-189.3857 86.6354,-144 95.369,-130.9986 108.3472,-120.0608 121.5622,-111.5032"/>
<polygon fill="#000000" stroke="#000000" points="123.5136,-114.4129 130.2382,-106.2256 119.8757,-108.4324 123.5136,-114.4129"/>
<g id="a_edge2&#45;headlabel"><a xlink:href="dir_000165_000079.html" target="_top" xlink:title="137">
<text text-anchor="middle" x="121.9181" y="-116.2067" font-family="Helvetica,sans-Serif" font-size="10.00" fill="#000000">137</text>
</a>
</g>
</g>
<!-- dir_a597e8e061b11201a1dff411feb10d0b&#45;&gt;dir_bcbb2cf9a3d3d83e5515c82071a07177 -->
<g id="edge3" class="edge">
<title>dir_a597e8e061b11201a1dff411feb10d0b&#45;&gt;dir_bcbb2cf9a3d3d83e5515c82071a07177</title>
<path fill="none" stroke="#000000" d="M252.5916,-180.4133C248.0003,-188.654 241.7433,-198.5245 235.4455,-207.536"/>
<polygon fill="#000000" stroke="#000000" points="232.4707,-205.6769 229.4479,-215.8314 238.1433,-209.7783 232.4707,-205.6769"/>
<g id="a_edge3&#45;headlabel"><a xlink:href="dir_000051_000055.html" target="_top" xlink:title="104">
<text text-anchor="middle" x="232.2759" y="-198.6004" font-family="Helvetica,sans-Serif" font-size="10.00" fill="#000000">104</text>
</a>
</g>
</g>
<!-- dir_a597e8e061b11201a1dff411feb10d0b&#45;&gt;dir_2171f7ec022c5423887b07c69b2f5b48 -->
<g id="edge4" class="edge">
<title>dir_a597e8e061b11201a1dff411feb10d0b&#45;&gt;dir_2171f7ec022c5423887b07c69b2f5b48</title>
<path fill="none" stroke="#000000" d="M236.4293,-143.8314C225.5904,-134.9632 212.391,-124.1637 200.6676,-114.5718"/>
<polygon fill="#000000" stroke="#000000" points="202.7904,-111.7864 192.8344,-108.1628 198.3577,-117.2041 202.7904,-111.7864"/>
<g id="a_edge4&#45;headlabel"><a xlink:href="dir_000051_000079.html" target="_top" xlink:title="183">
<text text-anchor="middle" x="207.3703" y="-109.3651" font-family="Helvetica,sans-Serif" font-size="10.00" fill="#000000">183</text>
</a>
</g>
</g>
<!-- dir_1306292b77b40360479b729ac9ee7efe&#45;&gt;dir_bcbb2cf9a3d3d83e5515c82071a07177 -->
<g id="edge5" class="edge">
<title>dir_1306292b77b40360479b729ac9ee7efe&#45;&gt;dir_bcbb2cf9a3d3d83e5515c82071a07177</title>
<path fill="none" stroke="#000000" d="M197.814,-31.5419C230.4861,-51.8147 282.8149,-93.1606 303.6354,-144 309.6992,-158.8064 311.264,-165.9357 303.6354,-180 293.7487,-198.2273 274.7522,-211.2664 256.484,-219.9599"/>
<polygon fill="#000000" stroke="#000000" points="255.0699,-216.7582 247.3346,-223.9981 257.8964,-223.1622 255.0699,-216.7582"/>
<g id="a_edge5&#45;headlabel"><a xlink:href="dir_000045_000055.html" target="_top" xlink:title="100">
<text text-anchor="middle" x="257.212" y="-210.2093" font-family="Helvetica,sans-Serif" font-size="10.00" fill="#000000">100</text>
</a>
</g>
</g>
<!-- dir_1306292b77b40360479b729ac9ee7efe&#45;&gt;dir_2171f7ec022c5423887b07c69b2f5b48 -->
<g id="edge6" class="edge">
<title>dir_1306292b77b40360479b729ac9ee7efe&#45;&gt;dir_2171f7ec022c5423887b07c69b2f5b48</title>
<path fill="none" stroke="#000000" d="M176.6114,-36.4133C177.3425,-44.0593 177.5557,-53.1084 177.2509,-61.5726"/>
<polygon fill="#000000" stroke="#000000" points="173.7402,-61.6264 176.5878,-71.8314 180.7256,-62.078 173.7402,-61.6264"/>
<g id="a_edge6&#45;headlabel"><a xlink:href="dir_000045_000079.html" target="_top" xlink:title="238">
<text text-anchor="middle" x="171.1386" y="-55.3562" font-family="Helvetica,sans-Serif" font-size="10.00" fill="#000000">238</text>
</a>
</g>
</g>
<!-- dir_577c839d346a264df4e9e588ca2a45dd&#45;&gt;dir_bcbb2cf9a3d3d83e5515c82071a07177 -->
<g id="edge7" class="edge">
<title>dir_577c839d346a264df4e9e588ca2a45dd&#45;&gt;dir_bcbb2cf9a3d3d83e5515c82071a07177</title>
<path fill="none" stroke="#000000" d="M177.9908,-287.8314C183.068,-279.7079 189.1581,-269.9637 194.753,-261.0118"/>
<polygon fill="#000000" stroke="#000000" points="197.7951,-262.7483 200.1271,-252.4133 191.8591,-259.0383 197.7951,-262.7483"/>
<g id="a_edge7&#45;headlabel"><a xlink:href="dir_000139_000055.html" target="_top" xlink:title="84">
<text text-anchor="middle" x="198.2977" y="-264.8013" font-family="Helvetica,sans-Serif" font-size="10.00" fill="#000000">84</text>
</a>
</g>
</g>
<!-- dir_577c839d346a264df4e9e588ca2a45dd&#45;&gt;dir_2171f7ec022c5423887b07c69b2f5b48 -->
<g id="edge8" class="edge">
<title>dir_577c839d346a264df4e9e588ca2a45dd&#45;&gt;dir_2171f7ec022c5423887b07c69b2f5b48</title>
<path fill="none" stroke="#000000" d="M166.4656,-287.7271C166.3367,-269.5427 166.2412,-240.8406 166.6354,-216 167.1672,-182.4913 168.4939,-143.9888 169.4743,-118.4552"/>
<polygon fill="#000000" stroke="#000000" points="172.9756,-118.488 169.87,-108.3586 165.981,-118.2138 172.9756,-118.488"/>
<g id="a_edge8&#45;headlabel"><a xlink:href="dir_000139_000079.html" target="_top" xlink:title="71">
<text text-anchor="middle" x="175.6721" y="-119.691" font-family="Helvetica,sans-Serif" font-size="10.00" fill="#000000">71</text>
</a>
</g>
</g>
<!-- dir_bcbb2cf9a3d3d83e5515c82071a07177&#45;&gt;dir_a597e8e061b11201a1dff411feb10d0b -->
<g id="edge15" class="edge">
<title>dir_bcbb2cf9a3d3d83e5515c82071a07177&#45;&gt;dir_a597e8e061b11201a1dff411feb10d0b</title>
<path fill="none" stroke="#000000" d="M217.5431,-215.8314C222.1013,-207.6232 228.3412,-197.7606 234.638,-188.7323"/>
<polygon fill="#000000" stroke="#000000" points="237.6273,-190.5709 240.6396,-180.4133 231.9505,-186.4754 237.6273,-190.5709"/>
<g id="a_edge15&#45;headlabel"><a xlink:href="dir_000055_000051.html" target="_top" xlink:title="1">
<text text-anchor="middle" x="237.8269" y="-192.6472" font-family="Helvetica,sans-Serif" font-size="10.00" fill="#000000">1</text>
</a>
</g>
</g>
<!-- dir_bcbb2cf9a3d3d83e5515c82071a07177&#45;&gt;dir_1306292b77b40360479b729ac9ee7efe -->
<g id="edge16" class="edge">
<title>dir_bcbb2cf9a3d3d83e5515c82071a07177&#45;&gt;dir_1306292b77b40360479b729ac9ee7efe</title>
<path fill="none" stroke="#000000" d="M247.2584,-216.1164C261.8145,-207.5744 277.1111,-195.7156 285.6354,-180 293.264,-165.9357 291.6992,-158.8064 285.6354,-144 268.0088,-100.9595 227.7994,-64.7232 199.7867,-42.3175"/>
<polygon fill="#000000" stroke="#000000" points="201.9033,-39.5293 191.8811,-36.0933 197.5731,-45.0293 201.9033,-39.5293"/>
<g id="a_edge16&#45;headlabel"><a xlink:href="dir_000055_000045.html" target="_top" xlink:title="1">
<text text-anchor="middle" x="206.4839" y="-37.022" font-family="Helvetica,sans-Serif" font-size="10.00" fill="#000000">1</text>
</a>
</g>
</g>
<!-- dir_bcbb2cf9a3d3d83e5515c82071a07177&#45;&gt;dir_2171f7ec022c5423887b07c69b2f5b48 -->
<g id="edge17" class="edge">
<title>dir_bcbb2cf9a3d3d83e5515c82071a07177&#45;&gt;dir_2171f7ec022c5423887b07c69b2f5b48</title>
<path fill="none" stroke="#000000" d="M201.7696,-215.7623C192.275,-191.0928 179.4145,-146.8598 173.1279,-117.9731"/>
<polygon fill="#000000" stroke="#000000" points="176.5418,-117.1966 171.1276,-108.0896 169.6809,-118.5852 176.5418,-117.1966"/>
<g id="a_edge17&#45;headlabel"><a xlink:href="dir_000055_000079.html" target="_top" xlink:title="82">
<text text-anchor="middle" x="180.0376" y="-117.6566" font-family="Helvetica,sans-Serif" font-size="10.00" fill="#000000">82</text>
</a>
</g>
</g>
<!-- dir_2171f7ec022c5423887b07c69b2f5b48&#45;&gt;dir_d14e88a79bca429480864605ee348cef -->
<g id="edge18" class="edge">
<title>dir_2171f7ec022c5423887b07c69b2f5b48&#45;&gt;dir_d14e88a79bca429480864605ee348cef</title>
<path fill="none" stroke="#000000" d="M143.533,-108.1187C129.9855,-117.1006 114.5663,-129.2162 104.6354,-144 77.1252,-184.9535 68.9605,-243.2376 63.9141,-277.5864"/>
<polygon fill="#000000" stroke="#000000" points="60.3974,-277.4346 62.3647,-287.8452 67.3189,-278.4801 60.3974,-277.4346"/>
<g id="a_edge18&#45;headlabel"><a xlink:href="dir_000079_000165.html" target="_top" xlink:title="3">
<text text-anchor="middle" x="58.1267" y="-270.9563" font-family="Helvetica,sans-Serif" font-size="10.00" fill="#000000">3</text>
</a>
</g>
</g>
<!-- dir_2171f7ec022c5423887b07c69b2f5b48&#45;&gt;dir_1306292b77b40360479b729ac9ee7efe -->
<g id="edge19" class="edge">
<title>dir_2171f7ec022c5423887b07c69b2f5b48&#45;&gt;dir_1306292b77b40360479b729ac9ee7efe</title>
<path fill="none" stroke="#000000" d="M164.683,-71.8314C163.9326,-64.131 163.7117,-54.9743 164.0203,-46.4166"/>
<polygon fill="#000000" stroke="#000000" points="167.5146,-46.6161 164.6594,-36.4133 160.5289,-46.1697 167.5146,-46.6161"/>
<g id="a_edge19&#45;headlabel"><a xlink:href="dir_000079_000045.html" target="_top" xlink:title="1">
<text text-anchor="middle" x="170.119" y="-47.8844" font-family="Helvetica,sans-Serif" font-size="10.00" fill="#000000">1</text>
</a>
</g>
</g>
<!-- dir_2171f7ec022c5423887b07c69b2f5b48&#45;&gt;dir_bcbb2cf9a3d3d83e5515c82071a07177 -->
<g id="edge20" class="edge">
<title>dir_2171f7ec022c5423887b07c69b2f5b48&#45;&gt;dir_bcbb2cf9a3d3d83e5515c82071a07177</title>
<path fill="none" stroke="#000000" d="M180.4442,-108.0896C189.9253,-132.6805 202.7921,-176.905 209.105,-205.8531"/>
<polygon fill="#000000" stroke="#000000" points="205.697,-206.6581 211.1159,-215.7623 212.5571,-205.266 205.697,-206.6581"/>
<g id="a_edge20&#45;headlabel"><a xlink:href="dir_000079_000055.html" target="_top" xlink:title="17">
<text text-anchor="middle" x="202.1996" y="-201.2" font-family="Helvetica,sans-Serif" font-size="10.00" fill="#000000">17</text>
</a>
</g>
</g>
</g>
</svg>
