<?xml version="1.0" encoding="UTF-8" standalone="no"?>
<!DOCTYPE svg PUBLIC "-//W3C//DTD SVG 1.1//EN"
 "http://www.w3.org/Graphics/SVG/1.1/DTD/svg11.dtd">
<!-- Generated by graphviz version 2.40.1 (20161225.0304)
 -->
<!-- Title: /home/travis/build/AliceO2Group/AliceO2/Detectors/GlobalTracking Pages: 1 -->
<svg width="599pt" height="519pt"
 viewBox="0.00 0.00 599.43 519.00" xmlns="http://www.w3.org/2000/svg" xmlns:xlink="http://www.w3.org/1999/xlink">
<g id="graph0" class="graph" transform="scale(1 1) rotate(0) translate(4 515)">
<title>/home/travis/build/AliceO2Group/AliceO2/Detectors/GlobalTracking</title>
<g id="clust1" class="cluster">
<title>clusterdir_051dca18e802f8e9474f2e30d29c04e0</title>
<g id="a_clust1"><a xlink:href="dir_051dca18e802f8e9474f2e30d29c04e0.html" target="_top" xlink:title="Detectors">
<polygon fill="#ddddee" stroke="#000000" points="111,-344 111,-503 304,-503 304,-344 111,-344"/>
<text text-anchor="middle" x="207.5" y="-491" font-family="Helvetica,sans-Serif" font-size="10.00" fill="#000000">Detectors</text>
</a>
</g>
</g>
<g id="clust2" class="cluster">
<title>clusterdir_18e0e8b4b629c3c13e7ad1457bcd5f89</title>
<g id="a_clust2"><a xlink:href="dir_18e0e8b4b629c3c13e7ad1457bcd5f89.html" target="_top">
<polygon fill="#eeeeff" stroke="#000000" points="119,-352 119,-476 296,-476 296,-352 119,-352"/>
</a>
</g>
</g>
<!-- dir_18e0e8b4b629c3c13e7ad1457bcd5f89 -->
<g id="node1" class="node">
<title>dir_18e0e8b4b629c3c13e7ad1457bcd5f89</title>
<text text-anchor="middle" x="244" y="-447.5" font-family="Helvetica,sans-Serif" font-size="10.00" fill="#000000">GlobalTracking</text>
</g>
<!-- dir_6c932510dcafb55c77509e6f7d0d452e -->
<g id="node2" class="node">
<title>dir_6c932510dcafb55c77509e6f7d0d452e</title>
<g id="a_node2"><a xlink:href="dir_6c932510dcafb55c77509e6f7d0d452e.html" target="_top" xlink:title="include">
<polygon fill="#ffffff" stroke="#ff0000" points="218,-396 164,-396 164,-360 218,-360 218,-396"/>
<text text-anchor="middle" x="191" y="-375.5" font-family="Helvetica,sans-Serif" font-size="10.00" fill="#000000">include</text>
</a>
</g>
</g>
<!-- dir_4ab6b4cc6a7edbff49100e9123df213f -->
<g id="node4" class="node">
<title>dir_4ab6b4cc6a7edbff49100e9123df213f</title>
<g id="a_node4"><a xlink:href="dir_4ab6b4cc6a7edbff49100e9123df213f.html" target="_top" xlink:title="Common">
<polygon fill="none" stroke="#ff0000" points="369.5,-324 308.5,-324 308.5,-288 369.5,-288 369.5,-324"/>
<text text-anchor="middle" x="339" y="-303.5" font-family="Helvetica,sans-Serif" font-size="10.00" fill="#000000">Common</text>
</a>
</g>
</g>
<!-- dir_6c932510dcafb55c77509e6f7d0d452e&#45;&gt;dir_4ab6b4cc6a7edbff49100e9123df213f -->
<g id="edge9" class="edge">
<title>dir_6c932510dcafb55c77509e6f7d0d452e&#45;&gt;dir_4ab6b4cc6a7edbff49100e9123df213f</title>
<path fill="none" stroke="#000000" d="M218.1455,-364.7941C240.8882,-353.7301 273.6613,-337.7864 299.343,-325.2926"/>
<polygon fill="#000000" stroke="#000000" points="300.9909,-328.3832 308.4521,-320.8611 297.9286,-322.0885 300.9909,-328.3832"/>
<g id="a_edge9&#45;headlabel"><a xlink:href="dir_000492_000029.html" target="_top" xlink:title="5">
<text text-anchor="middle" x="299.0006" y="-330.0088" font-family="Helvetica,sans-Serif" font-size="10.00" fill="#000000">5</text>
</a>
</g>
</g>
<!-- dir_d14e88a79bca429480864605ee348cef -->
<g id="node5" class="node">
<title>dir_d14e88a79bca429480864605ee348cef</title>
<g id="a_node5"><a xlink:href="dir_d14e88a79bca429480864605ee348cef.html" target="_top" xlink:title="FIT">
<polygon fill="none" stroke="#ff0000" points="305,-108 251,-108 251,-72 305,-72 305,-108"/>
<text text-anchor="middle" x="278" y="-87.5" font-family="Helvetica,sans-Serif" font-size="10.00" fill="#000000">FIT</text>
</a>
</g>
</g>
<!-- dir_6c932510dcafb55c77509e6f7d0d452e&#45;&gt;dir_d14e88a79bca429480864605ee348cef -->
<g id="edge10" class="edge">
<title>dir_6c932510dcafb55c77509e6f7d0d452e&#45;&gt;dir_d14e88a79bca429480864605ee348cef</title>
<path fill="none" stroke="#000000" d="M163.6953,-370.0514C142.1494,-362.1773 113.5443,-347.7867 100,-324 76.249,-282.288 77.9451,-258.6331 100,-216 129.6157,-158.7515 198.558,-121.9233 241.4261,-103.673"/>
<polygon fill="#000000" stroke="#000000" points="243.0309,-106.7971 250.9382,-99.7455 240.3593,-100.327 243.0309,-106.7971"/>
<g id="a_edge10&#45;headlabel"><a xlink:href="dir_000492_000165.html" target="_top" xlink:title="1">
<text text-anchor="middle" x="240.7919" y="-108.2933" font-family="Helvetica,sans-Serif" font-size="10.00" fill="#000000">1</text>
</a>
</g>
</g>
<!-- dir_37c90836491b695b472bf98d1be8336b -->
<g id="node7" class="node">
<title>dir_37c90836491b695b472bf98d1be8336b</title>
<g id="a_node7"><a xlink:href="dir_37c90836491b695b472bf98d1be8336b.html" target="_top" xlink:title="Base">
<polygon fill="none" stroke="#ff0000" points="337,-36 283,-36 283,0 337,0 337,-36"/>
<text text-anchor="middle" x="310" y="-15.5" font-family="Helvetica,sans-Serif" font-size="10.00" fill="#000000">Base</text>
</a>
</g>
</g>
<!-- dir_6c932510dcafb55c77509e6f7d0d452e&#45;&gt;dir_37c90836491b695b472bf98d1be8336b -->
<g id="edge11" class="edge">
<title>dir_6c932510dcafb55c77509e6f7d0d452e&#45;&gt;dir_37c90836491b695b472bf98d1be8336b</title>
<path fill="none" stroke="#000000" d="M163.9744,-370.3622C139.6256,-362.2921 104.1926,-347.4406 81,-324 49.8204,-292.487 38,-278.331 38,-234 38,-234 38,-234 38,-162 38,-57.0903 198.0012,-28.3988 272.572,-20.7238"/>
<polygon fill="#000000" stroke="#000000" points="273.3023,-24.1701 282.9252,-19.7373 272.6383,-17.2017 273.3023,-24.1701"/>
<g id="a_edge11&#45;headlabel"><a xlink:href="dir_000492_000274.html" target="_top" xlink:title="2">
<text text-anchor="middle" x="269.9931" y="-24.8375" font-family="Helvetica,sans-Serif" font-size="10.00" fill="#000000">2</text>
</a>
</g>
</g>
<!-- dir_1306292b77b40360479b729ac9ee7efe -->
<g id="node8" class="node">
<title>dir_1306292b77b40360479b729ac9ee7efe</title>
<g id="a_node8"><a xlink:href="dir_1306292b77b40360479b729ac9ee7efe.html" target="_top" xlink:title="ITSMFT">
<polygon fill="none" stroke="#ff0000" points="435,-108 381,-108 381,-72 435,-72 435,-108"/>
<text text-anchor="middle" x="408" y="-87.5" font-family="Helvetica,sans-Serif" font-size="10.00" fill="#000000">ITSMFT</text>
</a>
</g>
</g>
<!-- dir_6c932510dcafb55c77509e6f7d0d452e&#45;&gt;dir_1306292b77b40360479b729ac9ee7efe -->
<g id="edge12" class="edge">
<title>dir_6c932510dcafb55c77509e6f7d0d452e&#45;&gt;dir_1306292b77b40360479b729ac9ee7efe</title>
<path fill="none" stroke="#000000" d="M194.0863,-359.8233C202.3303,-316.6093 228.7662,-206.6701 293,-144 314.7849,-122.7454 346.4969,-108.7149 371.105,-100.2959"/>
<polygon fill="#000000" stroke="#000000" points="372.4015,-103.5547 380.8272,-97.1314 370.2349,-96.8984 372.4015,-103.5547"/>
<g id="a_edge12&#45;headlabel"><a xlink:href="dir_000492_000045.html" target="_top" xlink:title="1">
<text text-anchor="middle" x="369.8622" y="-104.8671" font-family="Helvetica,sans-Serif" font-size="10.00" fill="#000000">1</text>
</a>
</g>
</g>
<!-- dir_577c839d346a264df4e9e588ca2a45dd -->
<g id="node9" class="node">
<title>dir_577c839d346a264df4e9e588ca2a45dd</title>
<g id="a_node9"><a xlink:href="dir_577c839d346a264df4e9e588ca2a45dd.html" target="_top" xlink:title="TOF">
<polygon fill="none" stroke="#ff0000" points="366,-396 312,-396 312,-360 366,-360 366,-396"/>
<text text-anchor="middle" x="339" y="-375.5" font-family="Helvetica,sans-Serif" font-size="10.00" fill="#000000">TOF</text>
</a>
</g>
</g>
<!-- dir_6c932510dcafb55c77509e6f7d0d452e&#45;&gt;dir_577c839d346a264df4e9e588ca2a45dd -->
<g id="edge13" class="edge">
<title>dir_6c932510dcafb55c77509e6f7d0d452e&#45;&gt;dir_577c839d346a264df4e9e588ca2a45dd</title>
<path fill="none" stroke="#000000" d="M218.1719,-378C245.9157,-378 273.6596,-378 301.4035,-378"/>
<polygon fill="#000000" stroke="#000000" points="301.6249,-381.5001 311.6249,-378 301.6248,-374.5001 301.6249,-381.5001"/>
<g id="a_edge13&#45;headlabel"><a xlink:href="dir_000492_000139.html" target="_top" xlink:title="1">
<text text-anchor="middle" x="298.0303" y="-381.8393" font-family="Helvetica,sans-Serif" font-size="10.00" fill="#000000">1</text>
</a>
</g>
</g>
<!-- dir_f511f1e9c03c071966ae594f00bbc5e0 -->
<g id="node10" class="node">
<title>dir_f511f1e9c03c071966ae594f00bbc5e0</title>
<g id="a_node10"><a xlink:href="dir_f511f1e9c03c071966ae594f00bbc5e0.html" target="_top" xlink:title="GPU">
<polygon fill="none" stroke="#ff0000" points="556,-252 502,-252 502,-216 556,-216 556,-252"/>
<text text-anchor="middle" x="529" y="-231.5" font-family="Helvetica,sans-Serif" font-size="10.00" fill="#000000">GPU</text>
</a>
</g>
</g>
<!-- dir_6c932510dcafb55c77509e6f7d0d452e&#45;&gt;dir_f511f1e9c03c071966ae594f00bbc5e0 -->
<g id="edge14" class="edge">
<title>dir_6c932510dcafb55c77509e6f7d0d452e&#45;&gt;dir_f511f1e9c03c071966ae594f00bbc5e0</title>
<path fill="none" stroke="#000000" d="M218.0818,-369.4958C240.7179,-362.4557 273.8819,-352.2995 303,-344 336.1768,-334.5436 346.2123,-337.4039 378,-324 420.6145,-306.0307 465.6895,-277.7983 495.3792,-257.7502"/>
<polygon fill="#000000" stroke="#000000" points="497.4165,-260.5972 503.7046,-252.0701 493.4714,-254.8148 497.4165,-260.5972"/>
<g id="a_edge14&#45;headlabel"><a xlink:href="dir_000492_000716.html" target="_top" xlink:title="1">
<text text-anchor="middle" x="496.0474" y="-262.4685" font-family="Helvetica,sans-Serif" font-size="10.00" fill="#000000">1</text>
</a>
</g>
</g>
<!-- dir_2171f7ec022c5423887b07c69b2f5b48 -->
<g id="node11" class="node">
<title>dir_2171f7ec022c5423887b07c69b2f5b48</title>
<g id="a_node11"><a xlink:href="dir_2171f7ec022c5423887b07c69b2f5b48.html" target="_top" xlink:title="DataFormats">
<polygon fill="none" stroke="#ff0000" points="382,-180 302,-180 302,-144 382,-144 382,-180"/>
<text text-anchor="middle" x="342" y="-159.5" font-family="Helvetica,sans-Serif" font-size="10.00" fill="#000000">DataFormats</text>
</a>
</g>
</g>
<!-- dir_6c932510dcafb55c77509e6f7d0d452e&#45;&gt;dir_2171f7ec022c5423887b07c69b2f5b48 -->
<g id="edge15" class="edge">
<title>dir_6c932510dcafb55c77509e6f7d0d452e&#45;&gt;dir_2171f7ec022c5423887b07c69b2f5b48</title>
<path fill="none" stroke="#000000" d="M201.611,-359.9912C219.7883,-329.5336 258.5548,-266.2592 296,-216 303.098,-206.473 311.3786,-196.458 318.9426,-187.6757"/>
<polygon fill="#000000" stroke="#000000" points="321.6968,-189.8427 325.6331,-180.0062 316.4219,-185.2411 321.6968,-189.8427"/>
<g id="a_edge15&#45;headlabel"><a xlink:href="dir_000492_000079.html" target="_top" xlink:title="23">
<text text-anchor="middle" x="321.4734" y="-191.9179" font-family="Helvetica,sans-Serif" font-size="10.00" fill="#000000">23</text>
</a>
</g>
</g>
<!-- dir_a4cf5706394b5fe2435fe6f83bdb2959 -->
<g id="node3" class="node">
<title>dir_a4cf5706394b5fe2435fe6f83bdb2959</title>
<g id="a_node3"><a xlink:href="dir_a4cf5706394b5fe2435fe6f83bdb2959.html" target="_top" xlink:title="src">
<polygon fill="#ffffff" stroke="#000000" points="181,-468 127,-468 127,-432 181,-432 181,-468"/>
<text text-anchor="middle" x="154" y="-447.5" font-family="Helvetica,sans-Serif" font-size="10.00" fill="#000000">src</text>
</a>
</g>
</g>
<!-- dir_a4cf5706394b5fe2435fe6f83bdb2959&#45;&gt;dir_6c932510dcafb55c77509e6f7d0d452e -->
<g id="edge1" class="edge">
<title>dir_a4cf5706394b5fe2435fe6f83bdb2959&#45;&gt;dir_6c932510dcafb55c77509e6f7d0d452e</title>
<path fill="none" stroke="#000000" d="M163.3367,-431.8314C167.4243,-423.8771 172.3104,-414.369 176.8309,-405.5723"/>
<polygon fill="#000000" stroke="#000000" points="180.0799,-406.9074 181.5376,-396.4133 173.8539,-403.7078 180.0799,-406.9074"/>
<g id="a_edge1&#45;headlabel"><a xlink:href="dir_000494_000492.html" target="_top" xlink:title="4">
<text text-anchor="middle" x="180.9623" y="-408.9022" font-family="Helvetica,sans-Serif" font-size="10.00" fill="#000000">4</text>
</a>
</g>
</g>
<!-- dir_a4cf5706394b5fe2435fe6f83bdb2959&#45;&gt;dir_4ab6b4cc6a7edbff49100e9123df213f -->
<g id="edge2" class="edge">
<title>dir_a4cf5706394b5fe2435fe6f83bdb2959&#45;&gt;dir_4ab6b4cc6a7edbff49100e9123df213f</title>
<path fill="none" stroke="#000000" d="M181.1866,-435.4497C184.1156,-434.1718 187.0892,-432.9902 190,-432 269.3011,-405.0216 321.7259,-460.6403 375,-396 389.6986,-378.1654 383.555,-365.4694 375,-344 373.2886,-339.7051 370.8356,-335.6164 368.0034,-331.8217"/>
<polygon fill="#000000" stroke="#000000" points="370.4942,-329.3489 361.3382,-324.018 365.1714,-333.8951 370.4942,-329.3489"/>
<g id="a_edge2&#45;headlabel"><a xlink:href="dir_000494_000029.html" target="_top" xlink:title="13">
<text text-anchor="middle" x="374.9877" y="-327.7382" font-family="Helvetica,sans-Serif" font-size="10.00" fill="#000000">13</text>
</a>
</g>
</g>
<!-- dir_a597e8e061b11201a1dff411feb10d0b -->
<g id="node6" class="node">
<title>dir_a597e8e061b11201a1dff411feb10d0b</title>
<g id="a_node6"><a xlink:href="dir_a597e8e061b11201a1dff411feb10d0b.html" target="_top" xlink:title="TPC">
<polygon fill="none" stroke="#ff0000" points="518,-396 464,-396 464,-360 518,-360 518,-396"/>
<text text-anchor="middle" x="491" y="-375.5" font-family="Helvetica,sans-Serif" font-size="10.00" fill="#000000">TPC</text>
</a>
</g>
</g>
<!-- dir_a4cf5706394b5fe2435fe6f83bdb2959&#45;&gt;dir_a597e8e061b11201a1dff411feb10d0b -->
<g id="edge3" class="edge">
<title>dir_a4cf5706394b5fe2435fe6f83bdb2959&#45;&gt;dir_a597e8e061b11201a1dff411feb10d0b</title>
<path fill="none" stroke="#000000" d="M181.1332,-435.2855C184.0726,-434.0396 187.0633,-432.9104 190,-432 301.4263,-397.4564 337.7456,-427.7497 450,-396 451.2623,-395.643 452.5364,-395.2548 453.8151,-394.8411"/>
<polygon fill="#000000" stroke="#000000" points="455.4042,-397.9868 463.5936,-391.2648 452.9998,-391.4126 455.4042,-397.9868"/>
<g id="a_edge3&#45;headlabel"><a xlink:href="dir_000494_000051.html" target="_top" xlink:title="4">
<text text-anchor="middle" x="453.0035" y="-399.3879" font-family="Helvetica,sans-Serif" font-size="10.00" fill="#000000">4</text>
</a>
</g>
</g>
<!-- dir_a4cf5706394b5fe2435fe6f83bdb2959&#45;&gt;dir_37c90836491b695b472bf98d1be8336b -->
<g id="edge4" class="edge">
<title>dir_a4cf5706394b5fe2435fe6f83bdb2959&#45;&gt;dir_37c90836491b695b472bf98d1be8336b</title>
<path fill="none" stroke="#000000" d="M126.8224,-439.3288C82.612,-419.9763 0,-374.6317 0,-306 0,-306 0,-306 0,-162 0,-115.5795 15.2962,-99.0793 53,-72 87.8309,-46.984 210.2467,-29.5743 272.7189,-22.1003"/>
<polygon fill="#000000" stroke="#000000" points="273.4062,-25.5437 282.9308,-20.9033 272.5913,-18.5913 273.4062,-25.5437"/>
<g id="a_edge4&#45;headlabel"><a xlink:href="dir_000494_000274.html" target="_top" xlink:title="3">
<text text-anchor="middle" x="270.1666" y="-26.2821" font-family="Helvetica,sans-Serif" font-size="10.00" fill="#000000">3</text>
</a>
</g>
</g>
<!-- dir_a4cf5706394b5fe2435fe6f83bdb2959&#45;&gt;dir_1306292b77b40360479b729ac9ee7efe -->
<g id="edge5" class="edge">
<title>dir_a4cf5706394b5fe2435fe6f83bdb2959&#45;&gt;dir_1306292b77b40360479b729ac9ee7efe</title>
<path fill="none" stroke="#000000" d="M181.0986,-435.1698C184.0447,-433.9465 187.0464,-432.8542 190,-432 267.4464,-409.6024 492.9031,-451.8959 551,-396 608.8241,-340.3665 596.2141,-289.9215 565,-216 542.5029,-162.7221 483.4914,-125.6753 444.5706,-106.1371"/>
<polygon fill="#000000" stroke="#000000" points="445.666,-102.7777 435.1428,-101.5477 442.6022,-109.0716 445.666,-102.7777"/>
<g id="a_edge5&#45;headlabel"><a xlink:href="dir_000494_000045.html" target="_top" xlink:title="1">
<text text-anchor="middle" x="450.1407" y="-99.2981" font-family="Helvetica,sans-Serif" font-size="10.00" fill="#000000">1</text>
</a>
</g>
</g>
<!-- dir_a4cf5706394b5fe2435fe6f83bdb2959&#45;&gt;dir_577c839d346a264df4e9e588ca2a45dd -->
<g id="edge6" class="edge">
<title>dir_a4cf5706394b5fe2435fe6f83bdb2959&#45;&gt;dir_577c839d346a264df4e9e588ca2a45dd</title>
<path fill="none" stroke="#000000" d="M181.3245,-435.8172C184.2265,-434.4676 187.1562,-433.1688 190,-432 237.5784,-412.4445 252.1219,-414.81 300,-396 300.8502,-395.666 301.7084,-395.3227 302.5718,-394.9718"/>
<polygon fill="#000000" stroke="#000000" points="304.0719,-398.1372 311.8992,-390.9968 301.3275,-391.6975 304.0719,-398.1372"/>
<g id="a_edge6&#45;headlabel"><a xlink:href="dir_000494_000139.html" target="_top" xlink:title="1">
<text text-anchor="middle" x="301.8782" y="-399.6583" font-family="Helvetica,sans-Serif" font-size="10.00" fill="#000000">1</text>
</a>
</g>
</g>
<!-- dir_a4cf5706394b5fe2435fe6f83bdb2959&#45;&gt;dir_f511f1e9c03c071966ae594f00bbc5e0 -->
<g id="edge7" class="edge">
<title>dir_a4cf5706394b5fe2435fe6f83bdb2959&#45;&gt;dir_f511f1e9c03c071966ae594f00bbc5e0</title>
<path fill="none" stroke="#000000" d="M181.1048,-435.1911C184.0497,-433.9636 187.0495,-432.8645 190,-432 262.2762,-410.8221 476.3073,-451.701 527,-396 559.997,-359.743 548.9898,-297.7625 538.6024,-261.8923"/>
<polygon fill="#000000" stroke="#000000" points="541.871,-260.6133 535.5874,-252.083 535.1799,-262.67 541.871,-260.6133"/>
<g id="a_edge7&#45;headlabel"><a xlink:href="dir_000494_000716.html" target="_top" xlink:title="1">
<text text-anchor="middle" x="545.641" y="-260.7152" font-family="Helvetica,sans-Serif" font-size="10.00" fill="#000000">1</text>
</a>
</g>
</g>
<!-- dir_a4cf5706394b5fe2435fe6f83bdb2959&#45;&gt;dir_2171f7ec022c5423887b07c69b2f5b48 -->
<g id="edge8" class="edge">
<title>dir_a4cf5706394b5fe2435fe6f83bdb2959&#45;&gt;dir_2171f7ec022c5423887b07c69b2f5b48</title>
<path fill="none" stroke="#000000" d="M181.169,-435.3972C184.1014,-434.1295 187.0807,-432.9647 190,-432 277.4181,-403.112 334.825,-466.532 394,-396 444.7596,-335.4985 391.69,-236.1104 360.8329,-188.734"/>
<polygon fill="#000000" stroke="#000000" points="363.6351,-186.6273 355.1773,-180.2463 357.8098,-190.5089 363.6351,-186.6273"/>
<g id="a_edge8&#45;headlabel"><a xlink:href="dir_000494_000079.html" target="_top" xlink:title="9">
<text text-anchor="middle" x="367.9911" y="-185.5443" font-family="Helvetica,sans-Serif" font-size="10.00" fill="#000000">9</text>
</a>
</g>
</g>
<!-- dir_4ab6b4cc6a7edbff49100e9123df213f&#45;&gt;dir_f511f1e9c03c071966ae594f00bbc5e0 -->
<g id="edge16" class="edge">
<title>dir_4ab6b4cc6a7edbff49100e9123df213f&#45;&gt;dir_f511f1e9c03c071966ae594f00bbc5e0</title>
<path fill="none" stroke="#000000" d="M369.7374,-290.0474C371.5107,-289.352 373.2731,-288.6668 375,-288 414.6842,-272.6762 460.7576,-255.6471 492.2601,-244.8863"/>
<polygon fill="#000000" stroke="#000000" points="493.5899,-248.1317 501.9497,-241.623 491.3556,-241.4979 493.5899,-248.1317"/>
<g id="a_edge16&#45;headlabel"><a xlink:href="dir_000029_000716.html" target="_top" xlink:title="3">
<text text-anchor="middle" x="491.0895" y="-249.4698" font-family="Helvetica,sans-Serif" font-size="10.00" fill="#000000">3</text>
</a>
</g>
</g>
<!-- dir_4ab6b4cc6a7edbff49100e9123df213f&#45;&gt;dir_2171f7ec022c5423887b07c69b2f5b48 -->
<g id="edge17" class="edge">
<title>dir_4ab6b4cc6a7edbff49100e9123df213f&#45;&gt;dir_2171f7ec022c5423887b07c69b2f5b48</title>
<path fill="none" stroke="#000000" d="M334.7068,-287.7623C332.7587,-263.201 333.3996,-219.2474 335.9119,-190.3541"/>
<polygon fill="#000000" stroke="#000000" points="339.426,-190.3946 336.9648,-180.0896 332.4625,-189.6802 339.426,-190.3946"/>
<g id="a_edge17&#45;headlabel"><a xlink:href="dir_000029_000079.html" target="_top" xlink:title="2">
<text text-anchor="middle" x="341.8837" y="-191.7602" font-family="Helvetica,sans-Serif" font-size="10.00" fill="#000000">2</text>
</a>
</g>
</g>
<!-- dir_d14e88a79bca429480864605ee348cef&#45;&gt;dir_4ab6b4cc6a7edbff49100e9123df213f -->
<g id="edge18" class="edge">
<title>dir_d14e88a79bca429480864605ee348cef&#45;&gt;dir_4ab6b4cc6a7edbff49100e9123df213f</title>
<path fill="none" stroke="#000000" d="M280.0221,-108.137C282.298,-126.4623 286.5432,-155.4914 293,-180 302.1654,-214.7898 317.0214,-253.4779 327.3616,-278.6888"/>
<polygon fill="#000000" stroke="#000000" points="324.1501,-280.0816 331.2168,-287.9755 330.6152,-277.3977 324.1501,-280.0816"/>
<g id="a_edge18&#45;headlabel"><a xlink:href="dir_000165_000029.html" target="_top" xlink:title="29">
<text text-anchor="middle" x="320.1497" y="-275.3503" font-family="Helvetica,sans-Serif" font-size="10.00" fill="#000000">29</text>
</a>
</g>
</g>
<!-- dir_d14e88a79bca429480864605ee348cef&#45;&gt;dir_37c90836491b695b472bf98d1be8336b -->
<g id="edge19" class="edge">
<title>dir_d14e88a79bca429480864605ee348cef&#45;&gt;dir_37c90836491b695b472bf98d1be8336b</title>
<path fill="none" stroke="#000000" d="M286.075,-71.8314C289.6102,-63.8771 293.836,-54.369 297.7456,-45.5723"/>
<polygon fill="#000000" stroke="#000000" points="300.9532,-46.9729 301.8163,-36.4133 294.5565,-44.1299 300.9532,-46.9729"/>
<g id="a_edge19&#45;headlabel"><a xlink:href="dir_000165_000274.html" target="_top" xlink:title="5">
<text text-anchor="middle" x="302.0879" y="-48.9108" font-family="Helvetica,sans-Serif" font-size="10.00" fill="#000000">5</text>
</a>
</g>
</g>
<!-- dir_d14e88a79bca429480864605ee348cef&#45;&gt;dir_2171f7ec022c5423887b07c69b2f5b48 -->
<g id="edge20" class="edge">
<title>dir_d14e88a79bca429480864605ee348cef&#45;&gt;dir_2171f7ec022c5423887b07c69b2f5b48</title>
<path fill="none" stroke="#000000" d="M300.3434,-108.4133C308.54,-116.7389 317.6014,-126.7282 325.2458,-135.8144"/>
<polygon fill="#000000" stroke="#000000" points="322.7623,-138.3063 331.8025,-143.8314 328.1809,-133.8747 322.7623,-138.3063"/>
<g id="a_edge20&#45;headlabel"><a xlink:href="dir_000165_000079.html" target="_top" xlink:title="137">
<text text-anchor="middle" x="318.2888" y="-134.8213" font-family="Helvetica,sans-Serif" font-size="10.00" fill="#000000">137</text>
</a>
</g>
</g>
<!-- dir_a597e8e061b11201a1dff411feb10d0b&#45;&gt;dir_4ab6b4cc6a7edbff49100e9123df213f -->
<g id="edge21" class="edge">
<title>dir_a597e8e061b11201a1dff411feb10d0b&#45;&gt;dir_4ab6b4cc6a7edbff49100e9123df213f</title>
<path fill="none" stroke="#000000" d="M463.8254,-365.1278C440.1459,-353.9112 405.5,-337.5 378.7129,-324.8114"/>
<polygon fill="#000000" stroke="#000000" points="380.1323,-321.611 369.5966,-320.4931 377.1357,-327.9371 380.1323,-321.611"/>
<g id="a_edge21&#45;headlabel"><a xlink:href="dir_000051_000029.html" target="_top" xlink:title="40">
<text text-anchor="middle" x="384.5963" y="-318.0838" font-family="Helvetica,sans-Serif" font-size="10.00" fill="#000000">40</text>
</a>
</g>
</g>
<!-- dir_a597e8e061b11201a1dff411feb10d0b&#45;&gt;dir_37c90836491b695b472bf98d1be8336b -->
<g id="edge22" class="edge">
<title>dir_a597e8e061b11201a1dff411feb10d0b&#45;&gt;dir_37c90836491b695b472bf98d1be8336b</title>
<path fill="none" stroke="#000000" d="M509.0543,-359.724C535.7466,-330.4077 580.9557,-270.6102 565,-216 543.7008,-143.1011 532.9465,-118.6296 473,-72 435.8423,-43.0968 382.5047,-29.3043 347.0865,-22.9782"/>
<polygon fill="#000000" stroke="#000000" points="347.5951,-19.5147 337.1544,-21.3157 346.4394,-26.4187 347.5951,-19.5147"/>
<g id="a_edge22&#45;headlabel"><a xlink:href="dir_000051_000274.html" target="_top" xlink:title="4">
<text text-anchor="middle" x="351.6091" y="-14.8078" font-family="Helvetica,sans-Serif" font-size="10.00" fill="#000000">4</text>
</a>
</g>
</g>
<!-- dir_a597e8e061b11201a1dff411feb10d0b&#45;&gt;dir_f511f1e9c03c071966ae594f00bbc5e0 -->
<g id="edge23" class="edge">
<title>dir_a597e8e061b11201a1dff411feb10d0b&#45;&gt;dir_f511f1e9c03c071966ae594f00bbc5e0</title>
<path fill="none" stroke="#000000" d="M495.8127,-359.7623C502.3227,-335.0928 513.9953,-290.8598 521.6182,-261.9731"/>
<polygon fill="#000000" stroke="#000000" points="525.0589,-262.6517 524.2264,-252.0896 518.2906,-260.8656 525.0589,-262.6517"/>
<g id="a_edge23&#45;headlabel"><a xlink:href="dir_000051_000716.html" target="_top" xlink:title="29">
<text text-anchor="middle" x="526.8871" y="-264.3517" font-family="Helvetica,sans-Serif" font-size="10.00" fill="#000000">29</text>
</a>
</g>
</g>
<!-- dir_a597e8e061b11201a1dff411feb10d0b&#45;&gt;dir_2171f7ec022c5423887b07c69b2f5b48 -->
<g id="edge24" class="edge">
<title>dir_a597e8e061b11201a1dff411feb10d0b&#45;&gt;dir_2171f7ec022c5423887b07c69b2f5b48</title>
<path fill="none" stroke="#000000" d="M491.1198,-359.8128C490.4014,-327.3813 484.5539,-258.9476 450,-216 435.1287,-197.5162 412.3002,-184.8217 391.4558,-176.4102"/>
<polygon fill="#000000" stroke="#000000" points="392.6452,-173.1181 382.054,-172.8414 390.161,-179.6625 392.6452,-173.1181"/>
<g id="a_edge24&#45;headlabel"><a xlink:href="dir_000051_000079.html" target="_top" xlink:title="183">
<text text-anchor="middle" x="397.0134" y="-169.2392" font-family="Helvetica,sans-Serif" font-size="10.00" fill="#000000">183</text>
</a>
</g>
</g>
<!-- dir_37c90836491b695b472bf98d1be8336b&#45;&gt;dir_4ab6b4cc6a7edbff49100e9123df213f -->
<g id="edge25" class="edge">
<title>dir_37c90836491b695b472bf98d1be8336b&#45;&gt;dir_4ab6b4cc6a7edbff49100e9123df213f</title>
<path fill="none" stroke="#000000" d="M282.9896,-31.5415C267.9235,-40.7024 250.5213,-54.3518 242,-72 235.0431,-86.4084 238.9087,-92.3015 242,-108 255.3629,-175.8604 267.7785,-191.3375 301,-252 306.1209,-261.3507 312.5361,-271.0341 318.6294,-279.5745"/>
<polygon fill="#000000" stroke="#000000" points="315.8278,-281.6727 324.5556,-287.6791 321.4784,-277.541 315.8278,-281.6727"/>
<g id="a_edge25&#45;headlabel"><a xlink:href="dir_000274_000029.html" target="_top" xlink:title="16">
<text text-anchor="middle" x="311.4142" y="-277.9469" font-family="Helvetica,sans-Serif" font-size="10.00" fill="#000000">16</text>
</a>
</g>
</g>
<!-- dir_37c90836491b695b472bf98d1be8336b&#45;&gt;dir_f511f1e9c03c071966ae594f00bbc5e0 -->
<g id="edge26" class="edge">
<title>dir_37c90836491b695b472bf98d1be8336b&#45;&gt;dir_f511f1e9c03c071966ae594f00bbc5e0</title>
<path fill="none" stroke="#000000" d="M337.1654,-23.7923C366.1624,-31.0698 412.2172,-45.8872 444,-72 486.885,-107.2343 510.829,-169.8521 521.708,-206.0504"/>
<polygon fill="#000000" stroke="#000000" points="518.4262,-207.3027 524.5534,-215.9461 525.1536,-205.3683 518.4262,-207.3027"/>
<g id="a_edge26&#45;headlabel"><a xlink:href="dir_000274_000716.html" target="_top" xlink:title="14">
<text text-anchor="middle" x="514.7042" y="-202.1327" font-family="Helvetica,sans-Serif" font-size="10.00" fill="#000000">14</text>
</a>
</g>
</g>
<!-- dir_37c90836491b695b472bf98d1be8336b&#45;&gt;dir_2171f7ec022c5423887b07c69b2f5b48 -->
<g id="edge27" class="edge">
<title>dir_37c90836491b695b472bf98d1be8336b&#45;&gt;dir_2171f7ec022c5423887b07c69b2f5b48</title>
<path fill="none" stroke="#000000" d="M318.6782,-36.0896C326.6223,-60.6805 336.7251,-104.905 341.2288,-133.8531"/>
<polygon fill="#000000" stroke="#000000" points="337.7636,-134.3462 342.6203,-143.7623 344.6956,-133.3727 337.7636,-134.3462"/>
<g id="a_edge27&#45;headlabel"><a xlink:href="dir_000274_000079.html" target="_top" xlink:title="15">
<text text-anchor="middle" x="334.4521" y="-128.6814" font-family="Helvetica,sans-Serif" font-size="10.00" fill="#000000">15</text>
</a>
</g>
</g>
<!-- dir_1306292b77b40360479b729ac9ee7efe&#45;&gt;dir_4ab6b4cc6a7edbff49100e9123df213f -->
<g id="edge28" class="edge">
<title>dir_1306292b77b40360479b729ac9ee7efe&#45;&gt;dir_4ab6b4cc6a7edbff49100e9123df213f</title>
<path fill="none" stroke="#000000" d="M405.5123,-108.1399C402.7805,-126.4675 397.8531,-155.4983 391,-180 381.7943,-212.9128 377.1883,-220.4711 364,-252 360.3503,-260.7251 356.1139,-270.1155 352.1771,-278.5796"/>
<polygon fill="#000000" stroke="#000000" points="348.9965,-277.1188 347.9069,-287.6575 355.3307,-280.0984 348.9965,-277.1188"/>
<g id="a_edge28&#45;headlabel"><a xlink:href="dir_000045_000029.html" target="_top" xlink:title="76">
<text text-anchor="middle" x="347.9573" y="-270.1575" font-family="Helvetica,sans-Serif" font-size="10.00" fill="#000000">76</text>
</a>
</g>
</g>
<!-- dir_1306292b77b40360479b729ac9ee7efe&#45;&gt;dir_37c90836491b695b472bf98d1be8336b -->
<g id="edge29" class="edge">
<title>dir_1306292b77b40360479b729ac9ee7efe&#45;&gt;dir_37c90836491b695b472bf98d1be8336b</title>
<path fill="none" stroke="#000000" d="M383.2705,-71.8314C371.0838,-62.8779 356.2177,-51.9558 343.0688,-42.2955"/>
<polygon fill="#000000" stroke="#000000" points="344.8527,-39.263 334.7216,-36.1628 340.7082,-44.9042 344.8527,-39.263"/>
<g id="a_edge29&#45;headlabel"><a xlink:href="dir_000045_000274.html" target="_top" xlink:title="21">
<text text-anchor="middle" x="349.4306" y="-36.6032" font-family="Helvetica,sans-Serif" font-size="10.00" fill="#000000">21</text>
</a>
</g>
</g>
<!-- dir_1306292b77b40360479b729ac9ee7efe&#45;&gt;dir_f511f1e9c03c071966ae594f00bbc5e0 -->
<g id="edge30" class="edge">
<title>dir_1306292b77b40360479b729ac9ee7efe&#45;&gt;dir_f511f1e9c03c071966ae594f00bbc5e0</title>
<path fill="none" stroke="#000000" d="M427.8586,-108.0896C451.5088,-133.2198 490.086,-178.8541 512.2838,-207.7351"/>
<polygon fill="#000000" stroke="#000000" points="509.5277,-209.8933 518.3484,-215.7623 515.1129,-205.6736 509.5277,-209.8933"/>
<g id="a_edge30&#45;headlabel"><a xlink:href="dir_000045_000716.html" target="_top" xlink:title="34">
<text text-anchor="middle" x="505.0954" y="-206.2368" font-family="Helvetica,sans-Serif" font-size="10.00" fill="#000000">34</text>
</a>
</g>
</g>
<!-- dir_1306292b77b40360479b729ac9ee7efe&#45;&gt;dir_2171f7ec022c5423887b07c69b2f5b48 -->
<g id="edge31" class="edge">
<title>dir_1306292b77b40360479b729ac9ee7efe&#45;&gt;dir_2171f7ec022c5423887b07c69b2f5b48</title>
<path fill="none" stroke="#000000" d="M397.0972,-108.4133C390.0522,-116.9938 380.7351,-127.3414 371.7214,-136.6463"/>
<polygon fill="#000000" stroke="#000000" points="369.156,-134.2628 364.607,-143.8314 374.1301,-139.188 369.156,-134.2628"/>
<g id="a_edge31&#45;headlabel"><a xlink:href="dir_000045_000079.html" target="_top" xlink:title="238">
<text text-anchor="middle" x="369.6676" y="-127.2108" font-family="Helvetica,sans-Serif" font-size="10.00" fill="#000000">238</text>
</a>
</g>
</g>
<!-- dir_577c839d346a264df4e9e588ca2a45dd&#45;&gt;dir_4ab6b4cc6a7edbff49100e9123df213f -->
<g id="edge32" class="edge">
<title>dir_577c839d346a264df4e9e588ca2a45dd&#45;&gt;dir_4ab6b4cc6a7edbff49100e9123df213f</title>
<path fill="none" stroke="#000000" d="M339,-359.8314C339,-352.131 339,-342.9743 339,-334.4166"/>
<polygon fill="#000000" stroke="#000000" points="342.5001,-334.4132 339,-324.4133 335.5001,-334.4133 342.5001,-334.4132"/>
<g id="a_edge32&#45;headlabel"><a xlink:href="dir_000139_000029.html" target="_top" xlink:title="22">
<text text-anchor="middle" x="345.3393" y="-335.5079" font-family="Helvetica,sans-Serif" font-size="10.00" fill="#000000">22</text>
</a>
</g>
</g>
<!-- dir_577c839d346a264df4e9e588ca2a45dd&#45;&gt;dir_37c90836491b695b472bf98d1be8336b -->
<g id="edge33" class="edge">
<title>dir_577c839d346a264df4e9e588ca2a45dd&#45;&gt;dir_37c90836491b695b472bf98d1be8336b</title>
<path fill="none" stroke="#000000" d="M318.9921,-359.5846C309.3764,-349.8103 298.369,-337.1248 291,-324 242.4477,-237.5238 243.1799,-206.836 235,-108 233.6803,-92.0545 227.7056,-86.2405 235,-72 243.2989,-55.7986 258.9724,-43.3515 273.8541,-34.513"/>
<polygon fill="#000000" stroke="#000000" points="275.8948,-37.3837 282.9448,-29.4749 272.5016,-31.2611 275.8948,-37.3837"/>
<g id="a_edge33&#45;headlabel"><a xlink:href="dir_000139_000274.html" target="_top" xlink:title="5">
<text text-anchor="middle" x="274.1271" y="-39.1095" font-family="Helvetica,sans-Serif" font-size="10.00" fill="#000000">5</text>
</a>
</g>
</g>
<!-- dir_577c839d346a264df4e9e588ca2a45dd&#45;&gt;dir_2171f7ec022c5423887b07c69b2f5b48 -->
<g id="edge34" class="edge">
<title>dir_577c839d346a264df4e9e588ca2a45dd&#45;&gt;dir_2171f7ec022c5423887b07c69b2f5b48</title>
<path fill="none" stroke="#000000" d="M320.8424,-359.7286C312.451,-349.9911 303.3877,-337.2949 299,-324 283.5614,-277.2205 307.3453,-221.4679 325.2284,-189.0663"/>
<polygon fill="#000000" stroke="#000000" points="328.3816,-190.6029 330.3084,-180.1847 322.3053,-187.1274 328.3816,-190.6029"/>
<g id="a_edge34&#45;headlabel"><a xlink:href="dir_000139_000079.html" target="_top" xlink:title="71">
<text text-anchor="middle" x="329.0615" y="-192.6328" font-family="Helvetica,sans-Serif" font-size="10.00" fill="#000000">71</text>
</a>
</g>
</g>
<!-- dir_f511f1e9c03c071966ae594f00bbc5e0&#45;&gt;dir_4ab6b4cc6a7edbff49100e9123df213f -->
<g id="edge35" class="edge">
<title>dir_f511f1e9c03c071966ae594f00bbc5e0&#45;&gt;dir_4ab6b4cc6a7edbff49100e9123df213f</title>
<path fill="none" stroke="#000000" d="M501.8061,-246.5343C474.199,-257.3336 430.7142,-273.4369 393,-288 388.619,-289.6917 384.0094,-291.5013 379.3858,-293.297"/>
<polygon fill="#000000" stroke="#000000" points="378.0258,-290.07 369.9443,-296.9212 380.5344,-296.6051 378.0258,-290.07"/>
<g id="a_edge35&#45;headlabel"><a xlink:href="dir_000716_000029.html" target="_top" xlink:title="4">
<text text-anchor="middle" x="380.3642" y="-283.6312" font-family="Helvetica,sans-Serif" font-size="10.00" fill="#000000">4</text>
</a>
</g>
</g>
<!-- dir_f511f1e9c03c071966ae594f00bbc5e0&#45;&gt;dir_1306292b77b40360479b729ac9ee7efe -->
<g id="edge36" class="edge">
<title>dir_f511f1e9c03c071966ae594f00bbc5e0&#45;&gt;dir_1306292b77b40360479b729ac9ee7efe</title>
<path fill="none" stroke="#000000" d="M509.0021,-215.7623C485.2935,-190.5518 446.7192,-144.9103 424.5858,-116.0952"/>
<polygon fill="#000000" stroke="#000000" points="427.3607,-113.9618 418.542,-108.0896 421.774,-118.1795 427.3607,-113.9618"/>
<g id="a_edge36&#45;headlabel"><a xlink:href="dir_000716_000045.html" target="_top" xlink:title="7">
<text text-anchor="middle" x="431.7925" y="-112.6199" font-family="Helvetica,sans-Serif" font-size="10.00" fill="#000000">7</text>
</a>
</g>
</g>
<!-- dir_f511f1e9c03c071966ae594f00bbc5e0&#45;&gt;dir_2171f7ec022c5423887b07c69b2f5b48 -->
<g id="edge37" class="edge">
<title>dir_f511f1e9c03c071966ae594f00bbc5e0&#45;&gt;dir_2171f7ec022c5423887b07c69b2f5b48</title>
<path fill="none" stroke="#000000" d="M501.8906,-225.5203C494.3541,-222.4313 486.3519,-218.9704 479,-216 450.2265,-204.3747 417.8905,-192.3137 391.7896,-182.5468"/>
<polygon fill="#000000" stroke="#000000" points="392.7042,-179.152 382.1118,-178.9216 390.2486,-185.7072 392.7042,-179.152"/>
<g id="a_edge37&#45;headlabel"><a xlink:href="dir_000716_000079.html" target="_top" xlink:title="15">
<text text-anchor="middle" x="397.0663" y="-175.254" font-family="Helvetica,sans-Serif" font-size="10.00" fill="#000000">15</text>
</a>
</g>
</g>
<!-- dir_2171f7ec022c5423887b07c69b2f5b48&#45;&gt;dir_4ab6b4cc6a7edbff49100e9123df213f -->
<g id="edge38" class="edge">
<title>dir_2171f7ec022c5423887b07c69b2f5b48&#45;&gt;dir_4ab6b4cc6a7edbff49100e9123df213f</title>
<path fill="none" stroke="#000000" d="M346.2814,-180.0896C348.24,-204.5727 347.608,-248.5174 345.1033,-277.4713"/>
<polygon fill="#000000" stroke="#000000" points="341.5865,-277.4586 344.0531,-287.7623 348.5503,-278.1693 341.5865,-277.4586"/>
<g id="a_edge38&#45;headlabel"><a xlink:href="dir_000079_000029.html" target="_top" xlink:title="37">
<text text-anchor="middle" x="339.1267" y="-271.0944" font-family="Helvetica,sans-Serif" font-size="10.00" fill="#000000">37</text>
</a>
</g>
</g>
<!-- dir_2171f7ec022c5423887b07c69b2f5b48&#45;&gt;dir_d14e88a79bca429480864605ee348cef -->
<g id="edge39" class="edge">
<title>dir_2171f7ec022c5423887b07c69b2f5b48&#45;&gt;dir_d14e88a79bca429480864605ee348cef</title>
<path fill="none" stroke="#000000" d="M319.8977,-143.8314C311.6348,-135.454 302.4665,-125.3531 294.7452,-116.1749"/>
<polygon fill="#000000" stroke="#000000" points="297.4341,-113.9341 288.3913,-108.4133 292.0175,-118.3683 297.4341,-113.9341"/>
<g id="a_edge39&#45;headlabel"><a xlink:href="dir_000079_000165.html" target="_top" xlink:title="3">
<text text-anchor="middle" x="301.908" y="-112.4171" font-family="Helvetica,sans-Serif" font-size="10.00" fill="#000000">3</text>
</a>
</g>
</g>
<!-- dir_2171f7ec022c5423887b07c69b2f5b48&#45;&gt;dir_37c90836491b695b472bf98d1be8336b -->
<g id="edge40" class="edge">
<title>dir_2171f7ec022c5423887b07c69b2f5b48&#45;&gt;dir_37c90836491b695b472bf98d1be8336b</title>
<path fill="none" stroke="#000000" d="M333.274,-143.7623C325.3561,-119.201 315.3139,-75.2474 310.8035,-46.3541"/>
<polygon fill="#000000" stroke="#000000" points="314.2187,-45.5055 309.3616,-36.0896 307.2868,-46.4793 314.2187,-45.5055"/>
<g id="a_edge40&#45;headlabel"><a xlink:href="dir_000079_000274.html" target="_top" xlink:title="1">
<text text-anchor="middle" x="317.5303" y="-46.1702" font-family="Helvetica,sans-Serif" font-size="10.00" fill="#000000">1</text>
</a>
</g>
</g>
<!-- dir_2171f7ec022c5423887b07c69b2f5b48&#45;&gt;dir_1306292b77b40360479b729ac9ee7efe -->
<g id="edge41" class="edge">
<title>dir_2171f7ec022c5423887b07c69b2f5b48&#45;&gt;dir_1306292b77b40360479b729ac9ee7efe</title>
<path fill="none" stroke="#000000" d="M352.7022,-143.8314C359.7575,-135.219 369.145,-124.7851 378.2291,-115.4048"/>
<polygon fill="#000000" stroke="#000000" points="380.8506,-117.7317 385.3989,-108.1628 375.8761,-112.8068 380.8506,-117.7317"/>
<g id="a_edge41&#45;headlabel"><a xlink:href="dir_000079_000045.html" target="_top" xlink:title="1">
<text text-anchor="middle" x="380.3393" y="-119.7837" font-family="Helvetica,sans-Serif" font-size="10.00" fill="#000000">1</text>
</a>
</g>
</g>
<!-- dir_2171f7ec022c5423887b07c69b2f5b48&#45;&gt;dir_f511f1e9c03c071966ae594f00bbc5e0 -->
<g id="edge42" class="edge">
<title>dir_2171f7ec022c5423887b07c69b2f5b48&#45;&gt;dir_f511f1e9c03c071966ae594f00bbc5e0</title>
<path fill="none" stroke="#000000" d="M382.0355,-173.5645C411.4189,-183.3766 452.1263,-198.1312 492.4219,-214.2037"/>
<polygon fill="#000000" stroke="#000000" points="491.2413,-217.5012 501.8253,-217.9818 493.8511,-211.0059 491.2413,-217.5012"/>
<g id="a_edge42&#45;headlabel"><a xlink:href="dir_000079_000716.html" target="_top" xlink:title="19">
<text text-anchor="middle" x="486.8474" y="-216.2957" font-family="Helvetica,sans-Serif" font-size="10.00" fill="#000000">19</text>
</a>
</g>
</g>
</g>
</svg>
