<?xml version="1.0" encoding="UTF-8" standalone="no"?>
<!DOCTYPE svg PUBLIC "-//W3C//DTD SVG 1.1//EN"
 "http://www.w3.org/Graphics/SVG/1.1/DTD/svg11.dtd">
<!-- Generated by graphviz version 2.40.1 (20161225.0304)
 -->
<!-- Title: /home/travis/build/AliceO2Group/AliceO2/Detectors/Vertexing Pages: 1 -->
<svg width="264pt" height="375pt"
 viewBox="0.00 0.00 264.00 375.00" xmlns="http://www.w3.org/2000/svg" xmlns:xlink="http://www.w3.org/1999/xlink">
<g id="graph0" class="graph" transform="scale(1 1) rotate(0) translate(4 371)">
<title>/home/travis/build/AliceO2Group/AliceO2/Detectors/Vertexing</title>
<g id="clust1" class="cluster">
<title>clusterdir_051dca18e802f8e9474f2e30d29c04e0</title>
<g id="a_clust1"><a xlink:href="dir_051dca18e802f8e9474f2e30d29c04e0.html" target="_top" xlink:title="Detectors">
<polygon fill="#ddddee" stroke="#000000" points="8,-200 8,-359 248,-359 248,-200 8,-200"/>
<text text-anchor="middle" x="128" y="-347" font-family="Helvetica,sans-Serif" font-size="10.00" fill="#000000">Detectors</text>
</a>
</g>
</g>
<g id="clust2" class="cluster">
<title>clusterdir_411c6bed3d84b00fddab3a93c8a3b5fb</title>
<g id="a_clust2"><a xlink:href="dir_411c6bed3d84b00fddab3a93c8a3b5fb.html" target="_top">
<polygon fill="#eeeeff" stroke="#000000" points="16,-208 16,-332 240,-332 240,-208 16,-208"/>
</a>
</g>
</g>
<!-- dir_411c6bed3d84b00fddab3a93c8a3b5fb -->
<g id="node1" class="node">
<title>dir_411c6bed3d84b00fddab3a93c8a3b5fb</title>
<text text-anchor="middle" x="200" y="-303.5" font-family="Helvetica,sans-Serif" font-size="10.00" fill="#000000">Vertexing</text>
</g>
<!-- dir_685195b2337b28da095e36f150390e16 -->
<g id="node2" class="node">
<title>dir_685195b2337b28da095e36f150390e16</title>
<g id="a_node2"><a xlink:href="dir_685195b2337b28da095e36f150390e16.html" target="_top" xlink:title="include">
<polygon fill="#ffffff" stroke="#ff0000" points="121,-252 67,-252 67,-216 121,-216 121,-252"/>
<text text-anchor="middle" x="94" y="-231.5" font-family="Helvetica,sans-Serif" font-size="10.00" fill="#000000">include</text>
</a>
</g>
</g>
<!-- dir_4ab6b4cc6a7edbff49100e9123df213f -->
<g id="node5" class="node">
<title>dir_4ab6b4cc6a7edbff49100e9123df213f</title>
<g id="a_node5"><a xlink:href="dir_4ab6b4cc6a7edbff49100e9123df213f.html" target="_top" xlink:title="Common">
<polygon fill="none" stroke="#ff0000" points="183.5,-180 122.5,-180 122.5,-144 183.5,-144 183.5,-180"/>
<text text-anchor="middle" x="153" y="-159.5" font-family="Helvetica,sans-Serif" font-size="10.00" fill="#000000">Common</text>
</a>
</g>
</g>
<!-- dir_685195b2337b28da095e36f150390e16&#45;&gt;dir_4ab6b4cc6a7edbff49100e9123df213f -->
<g id="edge6" class="edge">
<title>dir_685195b2337b28da095e36f150390e16&#45;&gt;dir_4ab6b4cc6a7edbff49100e9123df213f</title>
<path fill="none" stroke="#000000" d="M108.8882,-215.8314C115.753,-207.454 124.0301,-197.3531 131.5511,-188.1749"/>
<polygon fill="#000000" stroke="#000000" points="134.2803,-190.3665 137.9114,-180.4133 128.8659,-185.9297 134.2803,-190.3665"/>
<g id="a_edge6&#45;headlabel"><a xlink:href="dir_000658_000029.html" target="_top" xlink:title="5">
<text text-anchor="middle" x="134.1981" y="-192.4464" font-family="Helvetica,sans-Serif" font-size="10.00" fill="#000000">5</text>
</a>
</g>
</g>
<!-- dir_d14e88a79bca429480864605ee348cef -->
<g id="node6" class="node">
<title>dir_d14e88a79bca429480864605ee348cef</title>
<g id="a_node6"><a xlink:href="dir_d14e88a79bca429480864605ee348cef.html" target="_top" xlink:title="FIT">
<polygon fill="none" stroke="#ff0000" points="151,-36 97,-36 97,0 151,0 151,-36"/>
<text text-anchor="middle" x="124" y="-15.5" font-family="Helvetica,sans-Serif" font-size="10.00" fill="#000000">FIT</text>
</a>
</g>
</g>
<!-- dir_685195b2337b28da095e36f150390e16&#45;&gt;dir_d14e88a79bca429480864605ee348cef -->
<g id="edge7" class="edge">
<title>dir_685195b2337b28da095e36f150390e16&#45;&gt;dir_d14e88a79bca429480864605ee348cef</title>
<path fill="none" stroke="#000000" d="M86.4465,-215.804C74.8569,-185.0706 55.9277,-121.4004 75,-72 79.1192,-61.3306 86.4336,-51.4665 94.1749,-43.1681"/>
<polygon fill="#000000" stroke="#000000" points="96.7348,-45.558 101.325,-36.0091 91.7819,-40.6113 96.7348,-45.558"/>
<g id="a_edge7&#45;headlabel"><a xlink:href="dir_000658_000165.html" target="_top" xlink:title="1">
<text text-anchor="middle" x="96.2035" y="-47.6077" font-family="Helvetica,sans-Serif" font-size="10.00" fill="#000000">1</text>
</a>
</g>
</g>
<!-- dir_2171f7ec022c5423887b07c69b2f5b48 -->
<g id="node7" class="node">
<title>dir_2171f7ec022c5423887b07c69b2f5b48</title>
<g id="a_node7"><a xlink:href="dir_2171f7ec022c5423887b07c69b2f5b48.html" target="_top" xlink:title="DataFormats">
<polygon fill="none" stroke="#ff0000" points="164,-108 84,-108 84,-72 164,-72 164,-108"/>
<text text-anchor="middle" x="124" y="-87.5" font-family="Helvetica,sans-Serif" font-size="10.00" fill="#000000">DataFormats</text>
</a>
</g>
</g>
<!-- dir_685195b2337b28da095e36f150390e16&#45;&gt;dir_2171f7ec022c5423887b07c69b2f5b48 -->
<g id="edge8" class="edge">
<title>dir_685195b2337b28da095e36f150390e16&#45;&gt;dir_2171f7ec022c5423887b07c69b2f5b48</title>
<path fill="none" stroke="#000000" d="M97.7995,-215.7623C102.939,-191.0928 112.1542,-146.8598 118.1723,-117.9731"/>
<polygon fill="#000000" stroke="#000000" points="121.6181,-118.5933 120.2313,-108.0896 114.7653,-117.1656 121.6181,-118.5933"/>
<g id="a_edge8&#45;headlabel"><a xlink:href="dir_000658_000079.html" target="_top" xlink:title="14">
<text text-anchor="middle" x="123.6647" y="-120.1914" font-family="Helvetica,sans-Serif" font-size="10.00" fill="#000000">14</text>
</a>
</g>
</g>
<!-- dir_883dc5fa98effd9ea20067bac655f28b -->
<g id="node3" class="node">
<title>dir_883dc5fa98effd9ea20067bac655f28b</title>
<g id="a_node3"><a xlink:href="dir_883dc5fa98effd9ea20067bac655f28b.html" target="_top" xlink:title="src">
<polygon fill="#ffffff" stroke="#000000" points="78,-324 24,-324 24,-288 78,-288 78,-324"/>
<text text-anchor="middle" x="51" y="-303.5" font-family="Helvetica,sans-Serif" font-size="10.00" fill="#000000">src</text>
</a>
</g>
</g>
<!-- dir_883dc5fa98effd9ea20067bac655f28b&#45;&gt;dir_685195b2337b28da095e36f150390e16 -->
<g id="edge1" class="edge">
<title>dir_883dc5fa98effd9ea20067bac655f28b&#45;&gt;dir_685195b2337b28da095e36f150390e16</title>
<path fill="none" stroke="#000000" d="M61.8507,-287.8314C66.7023,-279.7079 72.5217,-269.9637 77.868,-261.0118"/>
<polygon fill="#000000" stroke="#000000" points="80.8806,-262.7933 83.0032,-252.4133 74.8708,-259.2041 80.8806,-262.7933"/>
<g id="a_edge1&#45;headlabel"><a xlink:href="dir_000660_000658.html" target="_top" xlink:title="4">
<text text-anchor="middle" x="81.4752" y="-264.8352" font-family="Helvetica,sans-Serif" font-size="10.00" fill="#000000">4</text>
</a>
</g>
</g>
<!-- dir_883dc5fa98effd9ea20067bac655f28b&#45;&gt;dir_2171f7ec022c5423887b07c69b2f5b48 -->
<g id="edge2" class="edge">
<title>dir_883dc5fa98effd9ea20067bac655f28b&#45;&gt;dir_2171f7ec022c5423887b07c69b2f5b48</title>
<path fill="none" stroke="#000000" d="M49.6517,-287.9007C48.6245,-266.4141 48.6944,-229.7469 58,-200 67.701,-168.9889 87.7816,-137.5968 103.2598,-116.3305"/>
<polygon fill="#000000" stroke="#000000" points="106.1903,-118.2553 109.3562,-108.1445 100.5761,-114.0742 106.1903,-118.2553"/>
<g id="a_edge2&#45;headlabel"><a xlink:href="dir_000660_000079.html" target="_top" xlink:title="1">
<text text-anchor="middle" x="106.3204" y="-120.3341" font-family="Helvetica,sans-Serif" font-size="10.00" fill="#000000">1</text>
</a>
</g>
</g>
<!-- dir_a132bc2c584076a38e235eca4d667b8c -->
<g id="node4" class="node">
<title>dir_a132bc2c584076a38e235eca4d667b8c</title>
<g id="a_node4"><a xlink:href="dir_a132bc2c584076a38e235eca4d667b8c.html" target="_top" xlink:title="test">
<polygon fill="#ffffff" stroke="#000000" points="150,-324 96,-324 96,-288 150,-288 150,-324"/>
<text text-anchor="middle" x="123" y="-303.5" font-family="Helvetica,sans-Serif" font-size="10.00" fill="#000000">test</text>
</a>
</g>
</g>
<!-- dir_a132bc2c584076a38e235eca4d667b8c&#45;&gt;dir_685195b2337b28da095e36f150390e16 -->
<g id="edge10" class="edge">
<title>dir_a132bc2c584076a38e235eca4d667b8c&#45;&gt;dir_685195b2337b28da095e36f150390e16</title>
<path fill="none" stroke="#000000" d="M115.6821,-287.8314C112.5124,-279.9617 108.73,-270.5712 105.2187,-261.8533"/>
<polygon fill="#000000" stroke="#000000" points="108.3992,-260.3815 101.4165,-252.4133 101.9061,-262.9968 108.3992,-260.3815"/>
<g id="a_edge10&#45;headlabel"><a xlink:href="dir_000661_000658.html" target="_top" xlink:title="1">
<text text-anchor="middle" x="112.3758" y="-260.155" font-family="Helvetica,sans-Serif" font-size="10.00" fill="#000000">1</text>
</a>
</g>
</g>
<!-- dir_a132bc2c584076a38e235eca4d667b8c&#45;&gt;dir_4ab6b4cc6a7edbff49100e9123df213f -->
<g id="edge9" class="edge">
<title>dir_a132bc2c584076a38e235eca4d667b8c&#45;&gt;dir_4ab6b4cc6a7edbff49100e9123df213f</title>
<path fill="none" stroke="#000000" d="M126.7995,-287.7623C131.939,-263.0928 141.1542,-218.8598 147.1723,-189.9731"/>
<polygon fill="#000000" stroke="#000000" points="150.6181,-190.5933 149.2313,-180.0896 143.7653,-189.1656 150.6181,-190.5933"/>
<g id="a_edge9&#45;headlabel"><a xlink:href="dir_000661_000029.html" target="_top" xlink:title="1">
<text text-anchor="middle" x="152.6647" y="-192.1914" font-family="Helvetica,sans-Serif" font-size="10.00" fill="#000000">1</text>
</a>
</g>
</g>
<!-- dir_4ab6b4cc6a7edbff49100e9123df213f&#45;&gt;dir_2171f7ec022c5423887b07c69b2f5b48 -->
<g id="edge3" class="edge">
<title>dir_4ab6b4cc6a7edbff49100e9123df213f&#45;&gt;dir_2171f7ec022c5423887b07c69b2f5b48</title>
<path fill="none" stroke="#000000" d="M139.7297,-143.8314C135.8354,-136.0463 131.8828,-126.7729 128.7273,-118.1347"/>
<polygon fill="#000000" stroke="#000000" points="131.9591,-116.7654 125.4404,-108.4133 125.3278,-119.0075 131.9591,-116.7654"/>
<g id="a_edge3&#45;headlabel"><a xlink:href="dir_000029_000079.html" target="_top" xlink:title="2">
<text text-anchor="middle" x="135.8" y="-116.7613" font-family="Helvetica,sans-Serif" font-size="10.00" fill="#000000">2</text>
</a>
</g>
</g>
<!-- dir_d14e88a79bca429480864605ee348cef&#45;&gt;dir_4ab6b4cc6a7edbff49100e9123df213f -->
<g id="edge4" class="edge">
<title>dir_d14e88a79bca429480864605ee348cef&#45;&gt;dir_4ab6b4cc6a7edbff49100e9123df213f</title>
<path fill="none" stroke="#000000" d="M146.675,-36.0091C156.7888,-45.5028 167.6198,-58.0645 173,-72 180.8312,-92.2841 174.7198,-116.3832 167.2576,-134.5369"/>
<polygon fill="#000000" stroke="#000000" points="163.9363,-133.3907 163.053,-143.9486 170.3275,-136.246 163.9363,-133.3907"/>
<g id="a_edge4&#45;headlabel"><a xlink:href="dir_000165_000029.html" target="_top" xlink:title="29">
<text text-anchor="middle" x="162.8101" y="-126.4506" font-family="Helvetica,sans-Serif" font-size="10.00" fill="#000000">29</text>
</a>
</g>
</g>
<!-- dir_d14e88a79bca429480864605ee348cef&#45;&gt;dir_2171f7ec022c5423887b07c69b2f5b48 -->
<g id="edge5" class="edge">
<title>dir_d14e88a79bca429480864605ee348cef&#45;&gt;dir_2171f7ec022c5423887b07c69b2f5b48</title>
<path fill="none" stroke="#000000" d="M129.976,-36.4133C130.7071,-44.0593 130.9203,-53.1084 130.6155,-61.5726"/>
<polygon fill="#000000" stroke="#000000" points="127.1048,-61.6264 129.9524,-71.8314 134.0902,-62.078 127.1048,-61.6264"/>
<g id="a_edge5&#45;headlabel"><a xlink:href="dir_000165_000079.html" target="_top" xlink:title="137">
<text text-anchor="middle" x="124.5032" y="-55.3562" font-family="Helvetica,sans-Serif" font-size="10.00" fill="#000000">137</text>
</a>
</g>
</g>
<!-- dir_2171f7ec022c5423887b07c69b2f5b48&#45;&gt;dir_4ab6b4cc6a7edbff49100e9123df213f -->
<g id="edge11" class="edge">
<title>dir_2171f7ec022c5423887b07c69b2f5b48&#45;&gt;dir_4ab6b4cc6a7edbff49100e9123df213f</title>
<path fill="none" stroke="#000000" d="M137.3925,-108.4133C141.2879,-116.2292 145.2326,-125.5113 148.3714,-134.136"/>
<polygon fill="#000000" stroke="#000000" points="145.1274,-135.4702 151.6345,-143.8314 151.7618,-133.2373 145.1274,-135.4702"/>
<g id="a_edge11&#45;headlabel"><a xlink:href="dir_000079_000029.html" target="_top" xlink:title="37">
<text text-anchor="middle" x="141.2899" y="-130.469" font-family="Helvetica,sans-Serif" font-size="10.00" fill="#000000">37</text>
</a>
</g>
</g>
<!-- dir_2171f7ec022c5423887b07c69b2f5b48&#45;&gt;dir_d14e88a79bca429480864605ee348cef -->
<g id="edge12" class="edge">
<title>dir_2171f7ec022c5423887b07c69b2f5b48&#45;&gt;dir_d14e88a79bca429480864605ee348cef</title>
<path fill="none" stroke="#000000" d="M118.0476,-71.8314C117.2972,-64.131 117.0763,-54.9743 117.3849,-46.4166"/>
<polygon fill="#000000" stroke="#000000" points="120.8792,-46.6161 118.024,-36.4133 113.8935,-46.1697 120.8792,-46.6161"/>
<g id="a_edge12&#45;headlabel"><a xlink:href="dir_000079_000165.html" target="_top" xlink:title="3">
<text text-anchor="middle" x="123.4836" y="-47.8844" font-family="Helvetica,sans-Serif" font-size="10.00" fill="#000000">3</text>
</a>
</g>
</g>
</g>
</svg>
