<?xml version="1.0" encoding="UTF-8" standalone="no"?>
<!DOCTYPE svg PUBLIC "-//W3C//DTD SVG 1.1//EN"
 "http://www.w3.org/Graphics/SVG/1.1/DTD/svg11.dtd">
<!-- Generated by graphviz version 2.40.1 (20161225.0304)
 -->
<!-- Title: /home/travis/build/AliceO2Group/AliceO2/Analysis/Tasks Pages: 1 -->
<svg width="376pt" height="519pt"
 viewBox="0.00 0.00 375.76 519.00" xmlns="http://www.w3.org/2000/svg" xmlns:xlink="http://www.w3.org/1999/xlink">
<g id="graph0" class="graph" transform="scale(1 1) rotate(0) translate(4 515)">
<title>/home/travis/build/AliceO2Group/AliceO2/Analysis/Tasks</title>
<g id="clust1" class="cluster">
<title>clusterdir_19b17cb436010079e3d017a29cb7858f</title>
<g id="a_clust1"><a xlink:href="dir_19b17cb436010079e3d017a29cb7858f.html" target="_top" xlink:title="Analysis">
<polygon fill="#ddddee" stroke="#000000" points="26.7621,-416 26.7621,-503 330.7621,-503 330.7621,-416 26.7621,-416"/>
<text text-anchor="middle" x="178.7621" y="-491" font-family="Helvetica,sans-Serif" font-size="10.00" fill="#000000">Analysis</text>
</a>
</g>
</g>
<g id="clust2" class="cluster">
<title>clusterdir_eff7324435ca3301414fec6c28c4adf5</title>
<g id="a_clust2"><a xlink:href="dir_eff7324435ca3301414fec6c28c4adf5.html" target="_top">
<polygon fill="#eeeeff" stroke="#000000" points="34.7621,-424 34.7621,-476 322.7621,-476 322.7621,-424 34.7621,-424"/>
</a>
</g>
</g>
<!-- dir_eff7324435ca3301414fec6c28c4adf5 -->
<g id="node1" class="node">
<title>dir_eff7324435ca3301414fec6c28c4adf5</title>
<text text-anchor="middle" x="215.7621" y="-447.5" font-family="Helvetica,sans-Serif" font-size="10.00" fill="#000000">Tasks</text>
</g>
<!-- dir_6af676bf18881990e4083e191d0e63e0 -->
<g id="node5" class="node">
<title>dir_6af676bf18881990e4083e191d0e63e0</title>
<g id="a_node5"><a xlink:href="dir_6af676bf18881990e4083e191d0e63e0.html" target="_top" xlink:title="CCDB">
<polygon fill="none" stroke="#ff0000" points="183.7621,-252 129.7621,-252 129.7621,-216 183.7621,-216 183.7621,-252"/>
<text text-anchor="middle" x="156.7621" y="-231.5" font-family="Helvetica,sans-Serif" font-size="10.00" fill="#000000">CCDB</text>
</a>
</g>
</g>
<!-- dir_eff7324435ca3301414fec6c28c4adf5&#45;&gt;dir_6af676bf18881990e4083e191d0e63e0 -->
<g id="edge20" class="edge">
<title>dir_eff7324435ca3301414fec6c28c4adf5&#45;&gt;dir_6af676bf18881990e4083e191d0e63e0</title>
<path fill="none" stroke="#000000" d="M210.8332,-431.9555C200.5299,-394.235 176.6524,-306.8188 164.3665,-261.8399"/>
<polygon fill="#000000" stroke="#000000" points="167.7297,-260.8694 161.7184,-252.1451 160.9771,-262.7139 167.7297,-260.8694"/>
<g id="a_edge20&#45;headlabel"><a xlink:href="dir_000015_000021.html" target="_top" xlink:title="5">
<text text-anchor="middle" x="171.4157" y="-261.0889" font-family="Helvetica,sans-Serif" font-size="10.00" fill="#000000">5</text>
</a>
</g>
</g>
<!-- dir_3569a90be80eaa72c08f21910e2b4e5e -->
<g id="node2" class="node">
<title>dir_3569a90be80eaa72c08f21910e2b4e5e</title>
<g id="a_node2"><a xlink:href="dir_3569a90be80eaa72c08f21910e2b4e5e.html" target="_top" xlink:title="PWGCF">
<polygon fill="#ffffff" stroke="#000000" points="96.7621,-468 42.7621,-468 42.7621,-432 96.7621,-432 96.7621,-468"/>
<text text-anchor="middle" x="69.7621" y="-447.5" font-family="Helvetica,sans-Serif" font-size="10.00" fill="#000000">PWGCF</text>
</a>
</g>
</g>
<!-- dir_f41dd59f861c855ea21b0dc3111cb7b0 -->
<g id="node7" class="node">
<title>dir_f41dd59f861c855ea21b0dc3111cb7b0</title>
<g id="a_node7"><a xlink:href="dir_f41dd59f861c855ea21b0dc3111cb7b0.html" target="_top" xlink:title="DataModel">
<polygon fill="none" stroke="#ff0000" points="179.2621,-396 110.2621,-396 110.2621,-360 179.2621,-360 179.2621,-396"/>
<text text-anchor="middle" x="144.7621" y="-375.5" font-family="Helvetica,sans-Serif" font-size="10.00" fill="#000000">DataModel</text>
</a>
</g>
</g>
<!-- dir_3569a90be80eaa72c08f21910e2b4e5e&#45;&gt;dir_f41dd59f861c855ea21b0dc3111cb7b0 -->
<g id="edge12" class="edge">
<title>dir_3569a90be80eaa72c08f21910e2b4e5e&#45;&gt;dir_f41dd59f861c855ea21b0dc3111cb7b0</title>
<path fill="none" stroke="#000000" d="M88.6877,-431.8314C97.7477,-423.1337 108.743,-412.5783 118.5886,-403.1265"/>
<polygon fill="#000000" stroke="#000000" points="121.0524,-405.613 125.8425,-396.1628 116.2047,-400.5633 121.0524,-405.613"/>
<g id="a_edge12&#45;headlabel"><a xlink:href="dir_000016_000009.html" target="_top" xlink:title="3">
<text text-anchor="middle" x="120.4256" y="-407.6506" font-family="Helvetica,sans-Serif" font-size="10.00" fill="#000000">3</text>
</a>
</g>
</g>
<!-- dir_8d04f135a1eb0fdc4d561ef87bbea216 -->
<g id="node8" class="node">
<title>dir_8d04f135a1eb0fdc4d561ef87bbea216</title>
<g id="a_node8"><a xlink:href="dir_8d04f135a1eb0fdc4d561ef87bbea216.html" target="_top" xlink:title="Core">
<polygon fill="none" stroke="#ff0000" points="73.7621,-324 19.7621,-324 19.7621,-288 73.7621,-288 73.7621,-324"/>
<text text-anchor="middle" x="46.7621" y="-303.5" font-family="Helvetica,sans-Serif" font-size="10.00" fill="#000000">Core</text>
</a>
</g>
</g>
<!-- dir_3569a90be80eaa72c08f21910e2b4e5e&#45;&gt;dir_8d04f135a1eb0fdc4d561ef87bbea216 -->
<g id="edge13" class="edge">
<title>dir_3569a90be80eaa72c08f21910e2b4e5e&#45;&gt;dir_8d04f135a1eb0fdc4d561ef87bbea216</title>
<path fill="none" stroke="#000000" d="M66.8491,-431.7623C62.9088,-407.0928 55.8438,-362.8598 51.23,-333.9731"/>
<polygon fill="#000000" stroke="#000000" points="54.6849,-333.4124 49.6514,-324.0896 47.7725,-334.5165 54.6849,-333.4124"/>
<g id="a_edge13&#45;headlabel"><a xlink:href="dir_000016_000005.html" target="_top" xlink:title="1">
<text text-anchor="middle" x="58.0555" y="-334.0142" font-family="Helvetica,sans-Serif" font-size="10.00" fill="#000000">1</text>
</a>
</g>
</g>
<!-- dir_bcbb2cf9a3d3d83e5515c82071a07177 -->
<g id="node9" class="node">
<title>dir_bcbb2cf9a3d3d83e5515c82071a07177</title>
<g id="a_node9"><a xlink:href="dir_bcbb2cf9a3d3d83e5515c82071a07177.html" target="_top" xlink:title="Framework">
<polygon fill="none" stroke="#ff0000" points="183.2621,-180 112.2621,-180 112.2621,-144 183.2621,-144 183.2621,-180"/>
<text text-anchor="middle" x="147.7621" y="-159.5" font-family="Helvetica,sans-Serif" font-size="10.00" fill="#000000">Framework</text>
</a>
</g>
</g>
<!-- dir_3569a90be80eaa72c08f21910e2b4e5e&#45;&gt;dir_bcbb2cf9a3d3d83e5515c82071a07177 -->
<g id="edge14" class="edge">
<title>dir_3569a90be80eaa72c08f21910e2b4e5e&#45;&gt;dir_bcbb2cf9a3d3d83e5515c82071a07177</title>
<path fill="none" stroke="#000000" d="M54.3383,-431.8713C46.2753,-421.7752 36.6745,-408.7087 29.7621,-396 6.1213,-352.536 -5.1633,-336.8384 2.7621,-288 8.1652,-254.7046 4.1076,-240.9911 26.7621,-216 46.6074,-194.1077 77.0005,-180.5897 102.3603,-172.5537"/>
<polygon fill="#000000" stroke="#000000" points="103.5715,-175.845 112.1568,-169.6366 101.5738,-169.1361 103.5715,-175.845"/>
<g id="a_edge14&#45;headlabel"><a xlink:href="dir_000016_000055.html" target="_top" xlink:title="4">
<text text-anchor="middle" x="100.9367" y="-177.092" font-family="Helvetica,sans-Serif" font-size="10.00" fill="#000000">4</text>
</a>
</g>
</g>
<!-- dir_33cf0c601043fc8ee8b69130538d8a5b -->
<g id="node3" class="node">
<title>dir_33cf0c601043fc8ee8b69130538d8a5b</title>
<g id="a_node3"><a xlink:href="dir_33cf0c601043fc8ee8b69130538d8a5b.html" target="_top" xlink:title="PWGDQ">
<polygon fill="#ffffff" stroke="#000000" points="170.2621,-468 115.2621,-468 115.2621,-432 170.2621,-432 170.2621,-468"/>
<text text-anchor="middle" x="142.7621" y="-447.5" font-family="Helvetica,sans-Serif" font-size="10.00" fill="#000000">PWGDQ</text>
</a>
</g>
</g>
<!-- dir_33cf0c601043fc8ee8b69130538d8a5b&#45;&gt;dir_f41dd59f861c855ea21b0dc3111cb7b0 -->
<g id="edge5" class="edge">
<title>dir_33cf0c601043fc8ee8b69130538d8a5b&#45;&gt;dir_f41dd59f861c855ea21b0dc3111cb7b0</title>
<path fill="none" stroke="#000000" d="M143.2667,-431.8314C143.4806,-424.131 143.735,-414.9743 143.9727,-406.4166"/>
<polygon fill="#000000" stroke="#000000" points="147.4715,-406.5066 144.2506,-396.4133 140.4742,-406.3122 147.4715,-406.5066"/>
<g id="a_edge5&#45;headlabel"><a xlink:href="dir_000017_000009.html" target="_top" xlink:title="6">
<text text-anchor="middle" x="150.2099" y="-407.6787" font-family="Helvetica,sans-Serif" font-size="10.00" fill="#000000">6</text>
</a>
</g>
</g>
<!-- dir_33cf0c601043fc8ee8b69130538d8a5b&#45;&gt;dir_8d04f135a1eb0fdc4d561ef87bbea216 -->
<g id="edge6" class="edge">
<title>dir_33cf0c601043fc8ee8b69130538d8a5b&#45;&gt;dir_8d04f135a1eb0fdc4d561ef87bbea216</title>
<path fill="none" stroke="#000000" d="M127.8138,-431.9174C119.5275,-421.6191 109.2209,-408.3448 100.7621,-396 86.7286,-375.5196 72.3368,-351.3457 61.9433,-333.2113"/>
<polygon fill="#000000" stroke="#000000" points="64.8798,-331.2948 56.8957,-324.3303 58.7941,-334.7537 64.8798,-331.2948"/>
<g id="a_edge6&#45;headlabel"><a xlink:href="dir_000017_000005.html" target="_top" xlink:title="7">
<text text-anchor="middle" x="69.1244" y="-330.5169" font-family="Helvetica,sans-Serif" font-size="10.00" fill="#000000">7</text>
</a>
</g>
</g>
<!-- dir_33cf0c601043fc8ee8b69130538d8a5b&#45;&gt;dir_bcbb2cf9a3d3d83e5515c82071a07177 -->
<g id="edge7" class="edge">
<title>dir_33cf0c601043fc8ee8b69130538d8a5b&#45;&gt;dir_bcbb2cf9a3d3d83e5515c82071a07177</title>
<path fill="none" stroke="#000000" d="M124.0558,-431.768C118.3441,-426.4901 111.9377,-420.8484 105.7621,-416 93.1578,-406.1044 87.8913,-406.4724 75.7621,-396 43.1309,-367.826 26.238,-364.2376 10.7621,-324 5.0184,-309.0665 5.7704,-303.2014 10.7621,-288 25.8006,-242.2024 69.8295,-206.9956 103.9575,-185.5871"/>
<polygon fill="#000000" stroke="#000000" points="106.1187,-188.3691 112.8418,-180.1806 102.4797,-182.3893 106.1187,-188.3691"/>
<g id="a_edge7&#45;headlabel"><a xlink:href="dir_000017_000055.html" target="_top" xlink:title="7">
<text text-anchor="middle" x="104.524" y="-190.1632" font-family="Helvetica,sans-Serif" font-size="10.00" fill="#000000">7</text>
</a>
</g>
</g>
<!-- dir_c7246ec393377c9a789f9275f686142f -->
<g id="node4" class="node">
<title>dir_c7246ec393377c9a789f9275f686142f</title>
<g id="a_node4"><a xlink:href="dir_c7246ec393377c9a789f9275f686142f.html" target="_top" xlink:title="PWGHF">
<polygon fill="#ffffff" stroke="#000000" points="314.7621,-468 260.7621,-468 260.7621,-432 314.7621,-432 314.7621,-468"/>
<text text-anchor="middle" x="287.7621" y="-447.5" font-family="Helvetica,sans-Serif" font-size="10.00" fill="#000000">PWGHF</text>
</a>
</g>
</g>
<!-- dir_051dca18e802f8e9474f2e30d29c04e0 -->
<g id="node6" class="node">
<title>dir_051dca18e802f8e9474f2e30d29c04e0</title>
<g id="a_node6"><a xlink:href="dir_051dca18e802f8e9474f2e30d29c04e0.html" target="_top" xlink:title="Detectors">
<polygon fill="none" stroke="#ff0000" points="248.7621,-108 184.7621,-108 184.7621,-72 248.7621,-72 248.7621,-108"/>
<text text-anchor="middle" x="216.7621" y="-87.5" font-family="Helvetica,sans-Serif" font-size="10.00" fill="#000000">Detectors</text>
</a>
</g>
</g>
<!-- dir_c7246ec393377c9a789f9275f686142f&#45;&gt;dir_051dca18e802f8e9474f2e30d29c04e0 -->
<g id="edge8" class="edge">
<title>dir_c7246ec393377c9a789f9275f686142f&#45;&gt;dir_051dca18e802f8e9474f2e30d29c04e0</title>
<path fill="none" stroke="#000000" d="M286.9067,-431.9784C285.8664,-413.7429 283.7346,-384.7822 279.7621,-360 265.4248,-270.5575 238.1213,-166.708 224.663,-117.9685"/>
<polygon fill="#000000" stroke="#000000" points="227.986,-116.854 221.9347,-108.1573 221.2419,-118.7294 227.986,-116.854"/>
<g id="a_edge8&#45;headlabel"><a xlink:href="dir_000018_000041.html" target="_top" xlink:title="2">
<text text-anchor="middle" x="231.6844" y="-117.0565" font-family="Helvetica,sans-Serif" font-size="10.00" fill="#000000">2</text>
</a>
</g>
</g>
<!-- dir_c7246ec393377c9a789f9275f686142f&#45;&gt;dir_f41dd59f861c855ea21b0dc3111cb7b0 -->
<g id="edge9" class="edge">
<title>dir_c7246ec393377c9a789f9275f686142f&#45;&gt;dir_f41dd59f861c855ea21b0dc3111cb7b0</title>
<path fill="none" stroke="#000000" d="M271.4027,-431.805C265.6245,-426.1649 258.802,-420.307 251.7621,-416 232.6295,-404.295 209.368,-395.4883 189.4269,-389.3157"/>
<polygon fill="#000000" stroke="#000000" points="190.2226,-385.901 179.64,-386.4114 188.2311,-392.6118 190.2226,-385.901"/>
<g id="a_edge9&#45;headlabel"><a xlink:href="dir_000018_000009.html" target="_top" xlink:title="5">
<text text-anchor="middle" x="194.4764" y="-381.7016" font-family="Helvetica,sans-Serif" font-size="10.00" fill="#000000">5</text>
</a>
</g>
</g>
<!-- dir_c7246ec393377c9a789f9275f686142f&#45;&gt;dir_bcbb2cf9a3d3d83e5515c82071a07177 -->
<g id="edge10" class="edge">
<title>dir_c7246ec393377c9a789f9275f686142f&#45;&gt;dir_bcbb2cf9a3d3d83e5515c82071a07177</title>
<path fill="none" stroke="#000000" d="M282.4962,-431.799C270.3134,-391.2217 237.7489,-291.0162 192.7621,-216 186.9594,-206.324 179.4788,-196.5939 172.289,-188.1108"/>
<polygon fill="#000000" stroke="#000000" points="174.7662,-185.6266 165.5491,-180.402 169.4964,-190.2341 174.7662,-185.6266"/>
<g id="a_edge10&#45;headlabel"><a xlink:href="dir_000018_000055.html" target="_top" xlink:title="6">
<text text-anchor="middle" x="179.2697" y="-183.9638" font-family="Helvetica,sans-Serif" font-size="10.00" fill="#000000">6</text>
</a>
</g>
</g>
<!-- dir_2171f7ec022c5423887b07c69b2f5b48 -->
<g id="node10" class="node">
<title>dir_2171f7ec022c5423887b07c69b2f5b48</title>
<g id="a_node10"><a xlink:href="dir_2171f7ec022c5423887b07c69b2f5b48.html" target="_top" xlink:title="DataFormats">
<polygon fill="none" stroke="#ff0000" points="256.7621,-36 176.7621,-36 176.7621,0 256.7621,0 256.7621,-36"/>
<text text-anchor="middle" x="216.7621" y="-15.5" font-family="Helvetica,sans-Serif" font-size="10.00" fill="#000000">DataFormats</text>
</a>
</g>
</g>
<!-- dir_c7246ec393377c9a789f9275f686142f&#45;&gt;dir_2171f7ec022c5423887b07c69b2f5b48 -->
<g id="edge11" class="edge">
<title>dir_c7246ec393377c9a789f9275f686142f&#45;&gt;dir_2171f7ec022c5423887b07c69b2f5b48</title>
<path fill="none" stroke="#000000" d="M305.9153,-431.7859C329.5187,-406.0803 367.7621,-356.6202 367.7621,-306 367.7621,-306 367.7621,-306 367.7621,-162 367.7621,-104.6763 310.0652,-63.1987 266.0011,-39.8802"/>
<polygon fill="#000000" stroke="#000000" points="267.3266,-36.6267 256.8309,-35.1808 264.1341,-42.8563 267.3266,-36.6267"/>
<g id="a_edge11&#45;headlabel"><a xlink:href="dir_000018_000079.html" target="_top" xlink:title="1">
<text text-anchor="middle" x="271.8205" y="-33.2393" font-family="Helvetica,sans-Serif" font-size="10.00" fill="#000000">1</text>
</a>
</g>
</g>
<!-- dir_6af676bf18881990e4083e191d0e63e0&#45;&gt;dir_bcbb2cf9a3d3d83e5515c82071a07177 -->
<g id="edge1" class="edge">
<title>dir_6af676bf18881990e4083e191d0e63e0&#45;&gt;dir_bcbb2cf9a3d3d83e5515c82071a07177</title>
<path fill="none" stroke="#000000" d="M154.491,-215.8314C153.5284,-208.131 152.3839,-198.9743 151.3141,-190.4166"/>
<polygon fill="#000000" stroke="#000000" points="154.7771,-189.9019 150.0637,-180.4133 147.8312,-190.7702 154.7771,-189.9019"/>
<g id="a_edge1&#45;headlabel"><a xlink:href="dir_000021_000055.html" target="_top" xlink:title="2">
<text text-anchor="middle" x="158.0402" y="-190.6166" font-family="Helvetica,sans-Serif" font-size="10.00" fill="#000000">2</text>
</a>
</g>
</g>
<!-- dir_051dca18e802f8e9474f2e30d29c04e0&#45;&gt;dir_6af676bf18881990e4083e191d0e63e0 -->
<g id="edge2" class="edge">
<title>dir_051dca18e802f8e9474f2e30d29c04e0&#45;&gt;dir_6af676bf18881990e4083e191d0e63e0</title>
<path fill="none" stroke="#000000" d="M213.4168,-108.1476C209.6048,-126.7333 202.4799,-156.1925 191.7621,-180 187.5414,-189.3755 181.832,-198.9889 176.2497,-207.4575"/>
<polygon fill="#000000" stroke="#000000" points="173.2949,-205.5782 170.5462,-215.8103 179.0758,-209.5256 173.2949,-205.5782"/>
<g id="a_edge2&#45;headlabel"><a xlink:href="dir_000041_000021.html" target="_top" xlink:title="29">
<text text-anchor="middle" x="172.9771" y="-198.5086" font-family="Helvetica,sans-Serif" font-size="10.00" fill="#000000">29</text>
</a>
</g>
</g>
<!-- dir_051dca18e802f8e9474f2e30d29c04e0&#45;&gt;dir_bcbb2cf9a3d3d83e5515c82071a07177 -->
<g id="edge3" class="edge">
<title>dir_051dca18e802f8e9474f2e30d29c04e0&#45;&gt;dir_bcbb2cf9a3d3d83e5515c82071a07177</title>
<path fill="none" stroke="#000000" d="M205.092,-108.4133C197.6895,-116.9938 187.9412,-127.3414 178.5399,-136.6463"/>
<polygon fill="#000000" stroke="#000000" points="175.8713,-134.3586 171.1261,-143.8314 180.7429,-139.3853 175.8713,-134.3586"/>
<g id="a_edge3&#45;headlabel"><a xlink:href="dir_000041_000055.html" target="_top" xlink:title="869">
<text text-anchor="middle" x="176.4766" y="-127.3181" font-family="Helvetica,sans-Serif" font-size="10.00" fill="#000000">869</text>
</a>
</g>
</g>
<!-- dir_051dca18e802f8e9474f2e30d29c04e0&#45;&gt;dir_2171f7ec022c5423887b07c69b2f5b48 -->
<g id="edge4" class="edge">
<title>dir_051dca18e802f8e9474f2e30d29c04e0&#45;&gt;dir_2171f7ec022c5423887b07c69b2f5b48</title>
<path fill="none" stroke="#000000" d="M210.8097,-71.8314C210.0592,-64.131 209.8383,-54.9743 210.147,-46.4166"/>
<polygon fill="#000000" stroke="#000000" points="213.6413,-46.6161 210.7861,-36.4133 206.6555,-46.1697 213.6413,-46.6161"/>
<g id="a_edge4&#45;headlabel"><a xlink:href="dir_000041_000079.html" target="_top" xlink:title="1207">
<text text-anchor="middle" x="216.2457" y="-47.8844" font-family="Helvetica,sans-Serif" font-size="10.00" fill="#000000">1207</text>
</a>
</g>
</g>
<!-- dir_f41dd59f861c855ea21b0dc3111cb7b0&#45;&gt;dir_6af676bf18881990e4083e191d0e63e0 -->
<g id="edge15" class="edge">
<title>dir_f41dd59f861c855ea21b0dc3111cb7b0&#45;&gt;dir_6af676bf18881990e4083e191d0e63e0</title>
<path fill="none" stroke="#000000" d="M146.2819,-359.7623C148.3286,-335.201 151.9914,-291.2474 154.3992,-262.3541"/>
<polygon fill="#000000" stroke="#000000" points="157.912,-262.3458 155.2546,-252.0896 150.9361,-261.7644 157.912,-262.3458"/>
<g id="a_edge15&#45;headlabel"><a xlink:href="dir_000009_000021.html" target="_top" xlink:title="2">
<text text-anchor="middle" x="160.443" y="-263.6637" font-family="Helvetica,sans-Serif" font-size="10.00" fill="#000000">2</text>
</a>
</g>
</g>
<!-- dir_f41dd59f861c855ea21b0dc3111cb7b0&#45;&gt;dir_051dca18e802f8e9474f2e30d29c04e0 -->
<g id="edge16" class="edge">
<title>dir_f41dd59f861c855ea21b0dc3111cb7b0&#45;&gt;dir_051dca18e802f8e9474f2e30d29c04e0</title>
<path fill="none" stroke="#000000" d="M153.3324,-359.9846C169.033,-325.834 201.804,-248.9181 212.7621,-180 216.0316,-159.437 216.9824,-135.9225 217.1418,-118.0868"/>
<polygon fill="#000000" stroke="#000000" points="220.6418,-118.0546 217.1542,-108.0502 213.6418,-118.0459 220.6418,-118.0546"/>
<g id="a_edge16&#45;headlabel"><a xlink:href="dir_000009_000041.html" target="_top" xlink:title="1">
<text text-anchor="middle" x="223.4767" y="-119.1527" font-family="Helvetica,sans-Serif" font-size="10.00" fill="#000000">1</text>
</a>
</g>
</g>
<!-- dir_f41dd59f861c855ea21b0dc3111cb7b0&#45;&gt;dir_8d04f135a1eb0fdc4d561ef87bbea216 -->
<g id="edge17" class="edge">
<title>dir_f41dd59f861c855ea21b0dc3111cb7b0&#45;&gt;dir_8d04f135a1eb0fdc4d561ef87bbea216</title>
<path fill="none" stroke="#000000" d="M120.0325,-359.8314C107.8459,-350.8779 92.9797,-339.9558 79.8309,-330.2955"/>
<polygon fill="#000000" stroke="#000000" points="81.6148,-327.263 71.4837,-324.1628 77.4702,-332.9042 81.6148,-327.263"/>
<g id="a_edge17&#45;headlabel"><a xlink:href="dir_000009_000005.html" target="_top" xlink:title="1">
<text text-anchor="middle" x="86.1927" y="-324.6032" font-family="Helvetica,sans-Serif" font-size="10.00" fill="#000000">1</text>
</a>
</g>
</g>
<!-- dir_f41dd59f861c855ea21b0dc3111cb7b0&#45;&gt;dir_bcbb2cf9a3d3d83e5515c82071a07177 -->
<g id="edge18" class="edge">
<title>dir_f41dd59f861c855ea21b0dc3111cb7b0&#45;&gt;dir_bcbb2cf9a3d3d83e5515c82071a07177</title>
<path fill="none" stroke="#000000" d="M137.6348,-359.8314C126.7869,-329.6657 108.6119,-267.4688 120.7621,-216 122.9317,-206.8094 126.9182,-197.3995 131.1742,-189.0631"/>
<polygon fill="#000000" stroke="#000000" points="134.3048,-190.6324 136.0112,-180.1759 128.1565,-187.286 134.3048,-190.6324"/>
<g id="a_edge18&#45;headlabel"><a xlink:href="dir_000009_000055.html" target="_top" xlink:title="16">
<text text-anchor="middle" x="135.0803" y="-192.647" font-family="Helvetica,sans-Serif" font-size="10.00" fill="#000000">16</text>
</a>
</g>
</g>
<!-- dir_f41dd59f861c855ea21b0dc3111cb7b0&#45;&gt;dir_2171f7ec022c5423887b07c69b2f5b48 -->
<g id="edge19" class="edge">
<title>dir_f41dd59f861c855ea21b0dc3111cb7b0&#45;&gt;dir_2171f7ec022c5423887b07c69b2f5b48</title>
<path fill="none" stroke="#000000" d="M163.3098,-359.859C172.5862,-349.9633 183.3794,-337.0859 190.7621,-324 207.7126,-293.955 253.1224,-139.7526 257.7621,-108 260.0754,-92.1681 262.8665,-87.1639 257.7621,-72 254.3823,-61.9596 248.3115,-52.3047 241.8595,-44.0052"/>
<polygon fill="#000000" stroke="#000000" points="244.45,-41.6461 235.366,-36.1933 239.0669,-46.1208 244.45,-41.6461"/>
<g id="a_edge19&#45;headlabel"><a xlink:href="dir_000009_000079.html" target="_top" xlink:title="7">
<text text-anchor="middle" x="248.9312" y="-40.0955" font-family="Helvetica,sans-Serif" font-size="10.00" fill="#000000">7</text>
</a>
</g>
</g>
<!-- dir_8d04f135a1eb0fdc4d561ef87bbea216&#45;&gt;dir_6af676bf18881990e4083e191d0e63e0 -->
<g id="edge21" class="edge">
<title>dir_8d04f135a1eb0fdc4d561ef87bbea216&#45;&gt;dir_6af676bf18881990e4083e191d0e63e0</title>
<path fill="none" stroke="#000000" d="M73.9531,-288.2022C88.0999,-278.9425 105.5777,-267.5025 120.825,-257.5224"/>
<polygon fill="#000000" stroke="#000000" points="123.0524,-260.2476 129.5026,-251.8425 119.2188,-254.3907 123.0524,-260.2476"/>
<g id="a_edge21&#45;headlabel"><a xlink:href="dir_000005_000021.html" target="_top" xlink:title="1">
<text text-anchor="middle" x="121.5997" y="-262.0918" font-family="Helvetica,sans-Serif" font-size="10.00" fill="#000000">1</text>
</a>
</g>
</g>
<!-- dir_8d04f135a1eb0fdc4d561ef87bbea216&#45;&gt;dir_bcbb2cf9a3d3d83e5515c82071a07177 -->
<g id="edge22" class="edge">
<title>dir_8d04f135a1eb0fdc4d561ef87bbea216&#45;&gt;dir_bcbb2cf9a3d3d83e5515c82071a07177</title>
<path fill="none" stroke="#000000" d="M52.511,-287.9327C59.1157,-268.885 71.2121,-238.5693 87.7621,-216 95.609,-205.2991 105.8596,-195.1266 115.6622,-186.5556"/>
<polygon fill="#000000" stroke="#000000" points="117.9899,-189.1709 123.3731,-180.0456 113.4742,-183.8222 117.9899,-189.1709"/>
<g id="a_edge22&#45;headlabel"><a xlink:href="dir_000005_000055.html" target="_top" xlink:title="5">
<text text-anchor="middle" x="117.0748" y="-191.1593" font-family="Helvetica,sans-Serif" font-size="10.00" fill="#000000">5</text>
</a>
</g>
</g>
<!-- dir_bcbb2cf9a3d3d83e5515c82071a07177&#45;&gt;dir_051dca18e802f8e9474f2e30d29c04e0 -->
<g id="edge23" class="edge">
<title>dir_bcbb2cf9a3d3d83e5515c82071a07177&#45;&gt;dir_051dca18e802f8e9474f2e30d29c04e0</title>
<path fill="none" stroke="#000000" d="M159.2213,-143.8314C166.7089,-135.1337 176.6524,-124.5783 186.2139,-115.1265"/>
<polygon fill="#000000" stroke="#000000" points="188.6558,-117.634 193.4042,-108.1628 183.7859,-112.6057 188.6558,-117.634"/>
<g id="a_edge23&#45;headlabel"><a xlink:href="dir_000055_000041.html" target="_top" xlink:title="4">
<text text-anchor="middle" x="188.049" y="-119.6743" font-family="Helvetica,sans-Serif" font-size="10.00" fill="#000000">4</text>
</a>
</g>
</g>
<!-- dir_bcbb2cf9a3d3d83e5515c82071a07177&#45;&gt;dir_2171f7ec022c5423887b07c69b2f5b48 -->
<g id="edge24" class="edge">
<title>dir_bcbb2cf9a3d3d83e5515c82071a07177&#45;&gt;dir_2171f7ec022c5423887b07c69b2f5b48</title>
<path fill="none" stroke="#000000" d="M144.724,-143.6935C146.736,-124.9812 154.7013,-95.4228 166.7621,-72 171.7441,-62.3246 178.4751,-52.5947 185.4659,-44.1115"/>
<polygon fill="#000000" stroke="#000000" points="188.2569,-46.2366 192.1995,-36.4027 182.9849,-41.6316 188.2569,-46.2366"/>
<g id="a_edge24&#45;headlabel"><a xlink:href="dir_000055_000079.html" target="_top" xlink:title="82">
<text text-anchor="middle" x="188.0306" y="-48.3117" font-family="Helvetica,sans-Serif" font-size="10.00" fill="#000000">82</text>
</a>
</g>
</g>
<!-- dir_2171f7ec022c5423887b07c69b2f5b48&#45;&gt;dir_051dca18e802f8e9474f2e30d29c04e0 -->
<g id="edge25" class="edge">
<title>dir_2171f7ec022c5423887b07c69b2f5b48&#45;&gt;dir_051dca18e802f8e9474f2e30d29c04e0</title>
<path fill="none" stroke="#000000" d="M222.7381,-36.4133C223.4692,-44.0593 223.6823,-53.1084 223.3775,-61.5726"/>
<polygon fill="#000000" stroke="#000000" points="219.8668,-61.6264 222.7145,-71.8314 226.8523,-62.078 219.8668,-61.6264"/>
<g id="a_edge25&#45;headlabel"><a xlink:href="dir_000079_000041.html" target="_top" xlink:title="16">
<text text-anchor="middle" x="217.2653" y="-55.3562" font-family="Helvetica,sans-Serif" font-size="10.00" fill="#000000">16</text>
</a>
</g>
</g>
<!-- dir_2171f7ec022c5423887b07c69b2f5b48&#45;&gt;dir_bcbb2cf9a3d3d83e5515c82071a07177 -->
<g id="edge26" class="edge">
<title>dir_2171f7ec022c5423887b07c69b2f5b48&#45;&gt;dir_bcbb2cf9a3d3d83e5515c82071a07177</title>
<path fill="none" stroke="#000000" d="M208.2513,-36.4027C200.956,-46.37 191.3363,-59.2325 184.7621,-72 174.5858,-91.763 167.3252,-115.894 161.4066,-134.1925"/>
<polygon fill="#000000" stroke="#000000" points="158.0815,-133.0999 158.2465,-143.6935 164.7237,-135.3092 158.0815,-133.0999"/>
<g id="a_edge26&#45;headlabel"><a xlink:href="dir_000079_000055.html" target="_top" xlink:title="17">
<text text-anchor="middle" x="156.5217" y="-126.293" font-family="Helvetica,sans-Serif" font-size="10.00" fill="#000000">17</text>
</a>
</g>
</g>
</g>
</svg>
