<?xml version="1.0" encoding="UTF-8" standalone="no"?>
<!DOCTYPE svg PUBLIC "-//W3C//DTD SVG 1.1//EN"
 "http://www.w3.org/Graphics/SVG/1.1/DTD/svg11.dtd">
<!-- Generated by graphviz version 2.40.1 (20161225.0304)
 -->
<!-- Title: o2::gpu::GPUO2InterfaceIOPtrs Pages: 1 -->
<svg width="1041pt" height="226pt"
 viewBox="0.00 0.00 1040.50 226.00" xmlns="http://www.w3.org/2000/svg" xmlns:xlink="http://www.w3.org/1999/xlink">
<g id="graph0" class="graph" transform="scale(1 1) rotate(0) translate(4 222)">
<title>o2::gpu::GPUO2InterfaceIOPtrs</title>
<!-- Node1 -->
<g id="node1" class="node">
<title>Node1</title>
<polygon fill="#bfbfbf" stroke="#000000" points="461.5,-.5 461.5,-57.5 627.5,-57.5 627.5,-.5 461.5,-.5"/>
<text text-anchor="middle" x="544.5" y="-45.5" font-family="Helvetica,sans-Serif" font-size="10.00" fill="#000000">o2::gpu::GPUO2InterfaceIOPtrs</text>
<polyline fill="none" stroke="#000000" points="461.5,-38.5 627.5,-38.5 "/>
<text text-anchor="middle" x="544.5" y="-26.5" font-family="Helvetica,sans-Serif" font-size="10.00" fill="#000000"> </text>
<polyline fill="none" stroke="#000000" points="461.5,-19.5 627.5,-19.5 "/>
<text text-anchor="middle" x="544.5" y="-7.5" font-family="Helvetica,sans-Serif" font-size="10.00" fill="#000000"> </text>
</g>
<!-- Node2 -->
<g id="node2" class="node">
<title>Node2</title>
<polygon fill="none" stroke="#bfbfbf" points="0,-149.5 0,-206.5 161,-206.5 161,-149.5 0,-149.5"/>
<text text-anchor="middle" x="80.5" y="-194.5" font-family="Helvetica,sans-Serif" font-size="10.00" fill="#000000">vector&lt; o2::tpc::TrackTPC &gt; *</text>
<polyline fill="none" stroke="#bfbfbf" points="0,-187.5 161,-187.5 "/>
<text text-anchor="middle" x="80.5" y="-175.5" font-family="Helvetica,sans-Serif" font-size="10.00" fill="#000000"> </text>
<polyline fill="none" stroke="#bfbfbf" points="0,-168.5 161,-168.5 "/>
<text text-anchor="middle" x="80.5" y="-156.5" font-family="Helvetica,sans-Serif" font-size="10.00" fill="#000000"> </text>
</g>
<!-- Node2&#45;&gt;Node1 -->
<g id="edge1" class="edge">
<title>Node2&#45;&gt;Node1</title>
<path fill="none" stroke="#404040" d="M98.33,-149.4845C114.9307,-125.594 141.97,-92.7816 174.5,-76 220.9467,-52.0391 355.9341,-39.6082 449.3334,-33.6937"/>
<polygon fill="none" stroke="#404040" points="449.3873,-33.6905 455.1301,-29.3293 461.3646,-32.9531 455.6217,-37.3142 449.3873,-33.6905"/>
<text text-anchor="middle" x="211.5" y="-95.5" font-family="Helvetica,sans-Serif" font-size="10.00" fill="#000000"> +outputTracks</text>
</g>
<!-- Node3 -->
<g id="node3" class="node">
<title>Node3</title>
<polygon fill="none" stroke="#bfbfbf" points="179,-149.5 179,-206.5 224,-206.5 224,-149.5 179,-149.5"/>
<text text-anchor="middle" x="201.5" y="-194.5" font-family="Helvetica,sans-Serif" font-size="10.00" fill="#000000">size_t</text>
<polyline fill="none" stroke="#bfbfbf" points="179,-187.5 224,-187.5 "/>
<text text-anchor="middle" x="201.5" y="-175.5" font-family="Helvetica,sans-Serif" font-size="10.00" fill="#000000"> </text>
<polyline fill="none" stroke="#bfbfbf" points="179,-168.5 224,-168.5 "/>
<text text-anchor="middle" x="201.5" y="-156.5" font-family="Helvetica,sans-Serif" font-size="10.00" fill="#000000"> </text>
</g>
<!-- Node3&#45;&gt;Node1 -->
<g id="edge2" class="edge">
<title>Node3&#45;&gt;Node1</title>
<path fill="none" stroke="#404040" d="M222.1852,-149.1283C225.4583,-145.2248 228.9427,-141.3989 232.5,-138 267.0918,-104.9487 276.6275,-95.0838 320.5,-76 361.0431,-58.3645 408.6586,-47.1803 449.5398,-40.171"/>
<polygon fill="none" stroke="#404040" points="449.595,-40.162 454.8666,-35.2416 461.4361,-38.2152 456.1645,-43.1356 449.595,-40.162"/>
<text text-anchor="middle" x="367" y="-95.5" font-family="Helvetica,sans-Serif" font-size="10.00" fill="#000000"> +outputBufferSize</text>
</g>
<!-- Node4 -->
<g id="node4" class="node">
<title>Node4</title>
<polygon fill="none" stroke="#bfbfbf" points="242,-138.5 242,-217.5 457,-217.5 457,-138.5 242,-138.5"/>
<text text-anchor="start" x="250" y="-205.5" font-family="Helvetica,sans-Serif" font-size="10.00" fill="#000000">array&lt; const o2::dataformats</text>
<text text-anchor="start" x="250" y="-194.5" font-family="Helvetica,sans-Serif" font-size="10.00" fill="#000000">::MCTruthContainer&lt; o2::MCCompLabel</text>
<text text-anchor="middle" x="349.5" y="-183.5" font-family="Helvetica,sans-Serif" font-size="10.00" fill="#000000"> &gt; *, o2::tpc::constants::MAXSECTOR &gt; *</text>
<polyline fill="none" stroke="#bfbfbf" points="242,-176.5 457,-176.5 "/>
<text text-anchor="middle" x="349.5" y="-164.5" font-family="Helvetica,sans-Serif" font-size="10.00" fill="#000000"> </text>
<polyline fill="none" stroke="#bfbfbf" points="242,-157.5 457,-157.5 "/>
<text text-anchor="middle" x="349.5" y="-145.5" font-family="Helvetica,sans-Serif" font-size="10.00" fill="#000000"> </text>
</g>
<!-- Node4&#45;&gt;Node1 -->
<g id="edge3" class="edge">
<title>Node4&#45;&gt;Node1</title>
<path fill="none" stroke="#404040" d="M395.4006,-138.3262C418.3965,-118.9478 446.9372,-95.6352 473.5,-76 478.7007,-72.1557 484.1975,-68.2526 489.7372,-64.4232"/>
<polygon fill="none" stroke="#404040" points="489.7819,-64.3928 492.4897,-57.7094 499.7005,-57.6383 496.9927,-64.3218 489.7819,-64.3928"/>
<text text-anchor="middle" x="507" y="-95.5" font-family="Helvetica,sans-Serif" font-size="10.00" fill="#000000"> +o2DigitsMC</text>
</g>
<!-- Node5 -->
<g id="node5" class="node">
<title>Node5</title>
<polygon fill="none" stroke="#bfbfbf" points="475.5,-149.5 475.5,-206.5 613.5,-206.5 613.5,-149.5 475.5,-149.5"/>
<text text-anchor="middle" x="544.5" y="-194.5" font-family="Helvetica,sans-Serif" font-size="10.00" fill="#000000">vector&lt; unsigned int &gt; *</text>
<polyline fill="none" stroke="#bfbfbf" points="475.5,-187.5 613.5,-187.5 "/>
<text text-anchor="middle" x="544.5" y="-175.5" font-family="Helvetica,sans-Serif" font-size="10.00" fill="#000000"> </text>
<polyline fill="none" stroke="#bfbfbf" points="475.5,-168.5 613.5,-168.5 "/>
<text text-anchor="middle" x="544.5" y="-156.5" font-family="Helvetica,sans-Serif" font-size="10.00" fill="#000000"> </text>
</g>
<!-- Node5&#45;&gt;Node1 -->
<g id="edge4" class="edge">
<title>Node5&#45;&gt;Node1</title>
<path fill="none" stroke="#404040" d="M544.5,-149.2713C544.5,-126.7002 544.5,-94.9774 544.5,-69.7784"/>
<polygon fill="none" stroke="#404040" points="544.5001,-69.6405 540.5,-63.6405 544.5,-57.6405 548.5,-63.6405 544.5001,-69.6405"/>
<text text-anchor="middle" x="587" y="-95.5" font-family="Helvetica,sans-Serif" font-size="10.00" fill="#000000"> +outputClusRefs</text>
</g>
<!-- Node6 -->
<g id="node6" class="node">
<title>Node6</title>
<polygon fill="none" stroke="#bfbfbf" points="631.5,-149.5 631.5,-206.5 797.5,-206.5 797.5,-149.5 631.5,-149.5"/>
<text text-anchor="middle" x="714.5" y="-194.5" font-family="Helvetica,sans-Serif" font-size="10.00" fill="#000000">vector&lt; o2::MCCompLabel &gt; *</text>
<polyline fill="none" stroke="#bfbfbf" points="631.5,-187.5 797.5,-187.5 "/>
<text text-anchor="middle" x="714.5" y="-175.5" font-family="Helvetica,sans-Serif" font-size="10.00" fill="#000000"> </text>
<polyline fill="none" stroke="#bfbfbf" points="631.5,-168.5 797.5,-168.5 "/>
<text text-anchor="middle" x="714.5" y="-156.5" font-family="Helvetica,sans-Serif" font-size="10.00" fill="#000000"> </text>
</g>
<!-- Node6&#45;&gt;Node1 -->
<g id="edge5" class="edge">
<title>Node6&#45;&gt;Node1</title>
<path fill="none" stroke="#404040" d="M696.558,-149.3659C681.6776,-127.2963 658.9044,-97.0853 633.5,-76 628.4579,-71.8151 622.9832,-67.8477 617.3109,-64.124"/>
<polygon fill="none" stroke="#404040" points="617.1356,-64.0153 609.9283,-64.2518 606.938,-57.6899 614.1453,-57.4534 617.1356,-64.0153"/>
<text text-anchor="middle" x="731" y="-95.5" font-family="Helvetica,sans-Serif" font-size="10.00" fill="#000000"> +outputTracksMCTruth</text>
</g>
<!-- Node7 -->
<g id="node7" class="node">
<title>Node7</title>
<polygon fill="none" stroke="#bfbfbf" points="816,-149.5 816,-206.5 859,-206.5 859,-149.5 816,-149.5"/>
<text text-anchor="middle" x="837.5" y="-194.5" font-family="Helvetica,sans-Serif" font-size="10.00" fill="#000000">const</text>
<polyline fill="none" stroke="#bfbfbf" points="816,-187.5 859,-187.5 "/>
<text text-anchor="middle" x="837.5" y="-175.5" font-family="Helvetica,sans-Serif" font-size="10.00" fill="#000000"> </text>
<polyline fill="none" stroke="#bfbfbf" points="816,-168.5 859,-168.5 "/>
<text text-anchor="middle" x="837.5" y="-156.5" font-family="Helvetica,sans-Serif" font-size="10.00" fill="#000000"> </text>
</g>
<!-- Node7&#45;&gt;Node1 -->
<g id="edge6" class="edge">
<title>Node7&#45;&gt;Node1</title>
<path fill="none" stroke="#404040" d="M832.1412,-149.2974C826.2431,-125.9579 814.3833,-94.0395 791.5,-76 768.0081,-57.4807 698.872,-45.3194 639.6995,-38.0165"/>
<polygon fill="none" stroke="#404040" points="639.5451,-37.9982 633.1133,-41.2588 627.6297,-36.5758 634.0615,-33.3152 639.5451,-37.9982"/>
<text text-anchor="middle" x="875.5" y="-112" font-family="Helvetica,sans-Serif" font-size="10.00" fill="#000000"> +tpcZS</text>
<text text-anchor="middle" x="875.5" y="-101" font-family="Helvetica,sans-Serif" font-size="10.00" fill="#000000">+clusters</text>
<text text-anchor="middle" x="875.5" y="-90" font-family="Helvetica,sans-Serif" font-size="10.00" fill="#000000">+o2Digits</text>
<text text-anchor="middle" x="875.5" y="-79" font-family="Helvetica,sans-Serif" font-size="10.00" fill="#000000">+compressedClusters</text>
</g>
<!-- Node8 -->
<g id="node8" class="node">
<title>Node8</title>
<polygon fill="none" stroke="#bfbfbf" points="945.5,-149.5 945.5,-206.5 991.5,-206.5 991.5,-149.5 945.5,-149.5"/>
<text text-anchor="middle" x="968.5" y="-194.5" font-family="Helvetica,sans-Serif" font-size="10.00" fill="#000000">void *</text>
<polyline fill="none" stroke="#bfbfbf" points="945.5,-187.5 991.5,-187.5 "/>
<text text-anchor="middle" x="968.5" y="-175.5" font-family="Helvetica,sans-Serif" font-size="10.00" fill="#000000"> </text>
<polyline fill="none" stroke="#bfbfbf" points="945.5,-168.5 991.5,-168.5 "/>
<text text-anchor="middle" x="968.5" y="-156.5" font-family="Helvetica,sans-Serif" font-size="10.00" fill="#000000"> </text>
</g>
<!-- Node8&#45;&gt;Node1 -->
<g id="edge7" class="edge">
<title>Node8&#45;&gt;Node1</title>
<path fill="none" stroke="#404040" d="M966.6965,-149.1041C963.596,-125.6466 955.3321,-93.6636 933.5,-76 911.0943,-57.8723 747.8828,-43.1485 640.1076,-35.266"/>
<polygon fill="none" stroke="#404040" points="639.8739,-35.2493 633.6015,-38.8069 627.905,-34.3854 634.1774,-30.8277 639.8739,-35.2493"/>
<text text-anchor="middle" x="996" y="-95.5" font-family="Helvetica,sans-Serif" font-size="10.00" fill="#000000"> +outputBuffer</text>
</g>
</g>
</svg>
