<?xml version="1.0" encoding="UTF-8" standalone="no"?>
<!DOCTYPE svg PUBLIC "-//W3C//DTD SVG 1.1//EN"
 "http://www.w3.org/Graphics/SVG/1.1/DTD/svg11.dtd">
<!-- Generated by graphviz version 2.40.1 (20161225.0304)
 -->
<!-- Title: o2::mch::raw::DataBlockRef Pages: 1 -->
<svg width="330pt" height="414pt"
 viewBox="0.00 0.00 330.00 414.00" xmlns="http://www.w3.org/2000/svg" xmlns:xlink="http://www.w3.org/1999/xlink">
<g id="graph0" class="graph" transform="scale(1 1) rotate(0) translate(4 410)">
<title>o2::mch::raw::DataBlockRef</title>
<!-- Node1 -->
<g id="node1" class="node">
<title>Node1</title>
<polygon fill="#bfbfbf" stroke="#000000" points="136.5,-.5 136.5,-57.5 287.5,-57.5 287.5,-.5 136.5,-.5"/>
<text text-anchor="middle" x="212" y="-45.5" font-family="Helvetica,sans-Serif" font-size="10.00" fill="#000000">o2::mch::raw::DataBlockRef</text>
<polyline fill="none" stroke="#000000" points="136.5,-38.5 287.5,-38.5 "/>
<text text-anchor="middle" x="212" y="-26.5" font-family="Helvetica,sans-Serif" font-size="10.00" fill="#000000"> </text>
<polyline fill="none" stroke="#000000" points="136.5,-19.5 287.5,-19.5 "/>
<text text-anchor="middle" x="212" y="-7.5" font-family="Helvetica,sans-Serif" font-size="10.00" fill="#000000"> </text>
</g>
<!-- Node2 -->
<g id="node2" class="node">
<title>Node2</title>
<g id="a_node2"><a xlink:href="../../d5/da9/structo2_1_1mch_1_1raw_1_1DataBlock.html" target="_top" xlink:title="A DataBlock is a pair (DataBlockHeader,payload) ">
<polygon fill="none" stroke="#000000" points="36.5,-105.5 36.5,-162.5 171.5,-162.5 171.5,-105.5 36.5,-105.5"/>
<text text-anchor="middle" x="104" y="-150.5" font-family="Helvetica,sans-Serif" font-size="10.00" fill="#000000">o2::mch::raw::DataBlock</text>
<polyline fill="none" stroke="#000000" points="36.5,-143.5 171.5,-143.5 "/>
<text text-anchor="middle" x="104" y="-131.5" font-family="Helvetica,sans-Serif" font-size="10.00" fill="#000000"> </text>
<polyline fill="none" stroke="#000000" points="36.5,-124.5 171.5,-124.5 "/>
<text text-anchor="start" x="44.5" y="-112.5" font-family="Helvetica,sans-Serif" font-size="10.00" fill="#000000">+ size()</text>
</a>
</g>
</g>
<!-- Node2&#45;&gt;Node1 -->
<g id="edge1" class="edge">
<title>Node2&#45;&gt;Node1</title>
<path fill="none" stroke="#404040" d="M133.5115,-105.3083C145.8931,-93.2706 160.454,-79.1142 173.6501,-66.2847"/>
<polygon fill="none" stroke="#404040" points="173.9202,-66.022 175.4339,-58.9715 182.5242,-57.657 181.0105,-64.7075 173.9202,-66.022"/>
<text text-anchor="middle" x="181" y="-79" font-family="Helvetica,sans-Serif" font-size="10.00" fill="#000000"> +block</text>
</g>
<!-- Node3 -->
<g id="node3" class="node">
<title>Node3</title>
<polygon fill="none" stroke="#bfbfbf" points="0,-210.5 0,-267.5 134,-267.5 134,-210.5 0,-210.5"/>
<text text-anchor="middle" x="67" y="-255.5" font-family="Helvetica,sans-Serif" font-size="10.00" fill="#000000">span&lt; const std::byte &gt;</text>
<polyline fill="none" stroke="#bfbfbf" points="0,-248.5 134,-248.5 "/>
<text text-anchor="middle" x="67" y="-236.5" font-family="Helvetica,sans-Serif" font-size="10.00" fill="#000000"> </text>
<polyline fill="none" stroke="#bfbfbf" points="0,-229.5 134,-229.5 "/>
<text text-anchor="middle" x="67" y="-217.5" font-family="Helvetica,sans-Serif" font-size="10.00" fill="#000000"> </text>
</g>
<!-- Node3&#45;&gt;Node2 -->
<g id="edge2" class="edge">
<title>Node3&#45;&gt;Node2</title>
<path fill="none" stroke="#404040" d="M77.1104,-210.3083C81.026,-199.1966 85.5777,-186.2796 89.8106,-174.2673"/>
<polygon fill="none" stroke="#404040" points="89.9135,-173.9749 88.1351,-166.9865 93.9018,-162.657 95.6803,-169.6454 89.9135,-173.9749"/>
<text text-anchor="middle" x="112.5" y="-184" font-family="Helvetica,sans-Serif" font-size="10.00" fill="#000000"> +payload</text>
</g>
<!-- Node4 -->
<g id="node4" class="node">
<title>Node4</title>
<g id="a_node4"><a xlink:href="../../dc/d33/structo2_1_1mch_1_1raw_1_1DataBlockHeader.html" target="_top" xlink:title="A lightweight struct to describe a MCH Raw Data Block. ">
<polygon fill="none" stroke="#000000" points="152,-210.5 152,-267.5 322,-267.5 322,-210.5 152,-210.5"/>
<text text-anchor="middle" x="237" y="-255.5" font-family="Helvetica,sans-Serif" font-size="10.00" fill="#000000">o2::mch::raw::DataBlockHeader</text>
<polyline fill="none" stroke="#000000" points="152,-248.5 322,-248.5 "/>
<text text-anchor="middle" x="237" y="-236.5" font-family="Helvetica,sans-Serif" font-size="10.00" fill="#000000"> </text>
<polyline fill="none" stroke="#000000" points="152,-229.5 322,-229.5 "/>
<text text-anchor="middle" x="237" y="-217.5" font-family="Helvetica,sans-Serif" font-size="10.00" fill="#000000"> </text>
</a>
</g>
</g>
<!-- Node4&#45;&gt;Node2 -->
<g id="edge3" class="edge">
<title>Node4&#45;&gt;Node2</title>
<path fill="none" stroke="#404040" d="M200.6572,-210.3083C184.9696,-197.9233 166.4412,-183.2957 149.8252,-170.1778"/>
<polygon fill="none" stroke="#404040" points="149.7175,-170.0928 142.5296,-169.5144 140.2989,-162.657 147.4868,-163.2354 149.7175,-170.0928"/>
<text text-anchor="middle" x="198" y="-184" font-family="Helvetica,sans-Serif" font-size="10.00" fill="#000000"> +header</text>
</g>
<!-- Node5 -->
<g id="node5" class="node">
<title>Node5</title>
<polygon fill="none" stroke="#bfbfbf" points="206.5,-348.5 206.5,-405.5 267.5,-405.5 267.5,-348.5 206.5,-348.5"/>
<text text-anchor="middle" x="237" y="-393.5" font-family="Helvetica,sans-Serif" font-size="10.00" fill="#000000">unsigned</text>
<polyline fill="none" stroke="#bfbfbf" points="206.5,-386.5 267.5,-386.5 "/>
<text text-anchor="middle" x="237" y="-374.5" font-family="Helvetica,sans-Serif" font-size="10.00" fill="#000000"> </text>
<polyline fill="none" stroke="#bfbfbf" points="206.5,-367.5 267.5,-367.5 "/>
<text text-anchor="middle" x="237" y="-355.5" font-family="Helvetica,sans-Serif" font-size="10.00" fill="#000000"> </text>
</g>
<!-- Node5&#45;&gt;Node4 -->
<g id="edge4" class="edge">
<title>Node5&#45;&gt;Node4</title>
<path fill="none" stroke="#404040" d="M237,-348.4063C237,-328.5153 237,-301.7072 237,-279.6065"/>
<polygon fill="none" stroke="#404040" points="237.0001,-279.5571 233,-273.5571 237,-267.5571 241,-273.557 237.0001,-279.5571"/>
<text text-anchor="middle" x="272.5" y="-322" font-family="Helvetica,sans-Serif" font-size="10.00" fill="#000000"> +payloadSize</text>
<text text-anchor="middle" x="272.5" y="-311" font-family="Helvetica,sans-Serif" font-size="10.00" fill="#000000">+bc</text>
<text text-anchor="middle" x="272.5" y="-300" font-family="Helvetica,sans-Serif" font-size="10.00" fill="#000000">+solarId</text>
<text text-anchor="middle" x="272.5" y="-289" font-family="Helvetica,sans-Serif" font-size="10.00" fill="#000000">+orbit</text>
</g>
<!-- Node6 -->
<g id="node6" class="node">
<title>Node6</title>
<polygon fill="none" stroke="#bfbfbf" points="189.5,-105.5 189.5,-162.5 308.5,-162.5 308.5,-105.5 189.5,-105.5"/>
<text text-anchor="middle" x="249" y="-150.5" font-family="Helvetica,sans-Serif" font-size="10.00" fill="#000000">optional&lt; uint64_t &gt;</text>
<polyline fill="none" stroke="#bfbfbf" points="189.5,-143.5 308.5,-143.5 "/>
<text text-anchor="middle" x="249" y="-131.5" font-family="Helvetica,sans-Serif" font-size="10.00" fill="#000000"> </text>
<polyline fill="none" stroke="#bfbfbf" points="189.5,-124.5 308.5,-124.5 "/>
<text text-anchor="middle" x="249" y="-112.5" font-family="Helvetica,sans-Serif" font-size="10.00" fill="#000000"> </text>
</g>
<!-- Node6&#45;&gt;Node1 -->
<g id="edge5" class="edge">
<title>Node6&#45;&gt;Node1</title>
<path fill="none" stroke="#404040" d="M238.8896,-105.3083C234.974,-94.1966 230.4223,-81.2796 226.1894,-69.2673"/>
<polygon fill="none" stroke="#404040" points="226.0865,-68.9749 220.3197,-64.6454 222.0982,-57.657 227.8649,-61.9865 226.0865,-68.9749"/>
<text text-anchor="middle" x="252" y="-79" font-family="Helvetica,sans-Serif" font-size="10.00" fill="#000000"> +offset</text>
</g>
</g>
</svg>
