<?xml version="1.0" encoding="UTF-8" standalone="no"?>
<!DOCTYPE svg PUBLIC "-//W3C//DTD SVG 1.1//EN"
 "http://www.w3.org/Graphics/SVG/1.1/DTD/svg11.dtd">
<!-- Generated by graphviz version 2.40.1 (20161225.0304)
 -->
<!-- Title: o2::itsmft::ChipInfo Pages: 1 -->
<svg width="155pt" height="204pt"
 viewBox="0.00 0.00 154.50 204.00" xmlns="http://www.w3.org/2000/svg" xmlns:xlink="http://www.w3.org/1999/xlink">
<g id="graph0" class="graph" transform="scale(1 1) rotate(0) translate(4 200)">
<title>o2::itsmft::ChipInfo</title>
<!-- Node1 -->
<g id="node1" class="node">
<title>Node1</title>
<polygon fill="#bfbfbf" stroke="#000000" points="10.5,-.5 10.5,-57.5 120.5,-57.5 120.5,-.5 10.5,-.5"/>
<text text-anchor="middle" x="65.5" y="-45.5" font-family="Helvetica,sans-Serif" font-size="10.00" fill="#000000">o2::itsmft::ChipInfo</text>
<polyline fill="none" stroke="#000000" points="10.5,-38.5 120.5,-38.5 "/>
<text text-anchor="middle" x="65.5" y="-26.5" font-family="Helvetica,sans-Serif" font-size="10.00" fill="#000000"> </text>
<polyline fill="none" stroke="#000000" points="10.5,-19.5 120.5,-19.5 "/>
<text text-anchor="start" x="18.5" y="-7.5" font-family="Helvetica,sans-Serif" font-size="10.00" fill="#000000">+ print()</text>
</g>
<!-- Node2 -->
<g id="node2" class="node">
<title>Node2</title>
<polygon fill="none" stroke="#bfbfbf" points="0,-138.5 0,-195.5 61,-195.5 61,-138.5 0,-138.5"/>
<text text-anchor="middle" x="30.5" y="-183.5" font-family="Helvetica,sans-Serif" font-size="10.00" fill="#000000">unsigned</text>
<polyline fill="none" stroke="#bfbfbf" points="0,-176.5 61,-176.5 "/>
<text text-anchor="middle" x="30.5" y="-164.5" font-family="Helvetica,sans-Serif" font-size="10.00" fill="#000000"> </text>
<polyline fill="none" stroke="#bfbfbf" points="0,-157.5 61,-157.5 "/>
<text text-anchor="middle" x="30.5" y="-145.5" font-family="Helvetica,sans-Serif" font-size="10.00" fill="#000000"> </text>
</g>
<!-- Node2&#45;&gt;Node1 -->
<g id="edge1" class="edge">
<title>Node2&#45;&gt;Node1</title>
<path fill="none" stroke="#404040" d="M29.3819,-138.4869C29.4658,-120.2238 31.0829,-96.2398 37.5,-76 38.3046,-73.4621 39.2688,-70.9165 40.3479,-68.3953"/>
<polygon fill="none" stroke="#404040" points="40.366,-68.3583 39.4342,-61.2076 45.6764,-57.5972 46.6083,-64.7479 40.366,-68.3583"/>
<text text-anchor="middle" x="58" y="-112" font-family="Helvetica,sans-Serif" font-size="10.00" fill="#000000"> +user</text>
<text text-anchor="middle" x="58" y="-101" font-family="Helvetica,sans-Serif" font-size="10.00" fill="#000000">+id</text>
<text text-anchor="middle" x="58" y="-90" font-family="Helvetica,sans-Serif" font-size="10.00" fill="#000000">+ruType</text>
<text text-anchor="middle" x="58" y="-79" font-family="Helvetica,sans-Serif" font-size="10.00" fill="#000000">+ru</text>
</g>
<!-- Node3 -->
<g id="node3" class="node">
<title>Node3</title>
<polygon fill="none" stroke="#bfbfbf" points="79,-138.5 79,-195.5 122,-195.5 122,-138.5 79,-138.5"/>
<text text-anchor="middle" x="100.5" y="-183.5" font-family="Helvetica,sans-Serif" font-size="10.00" fill="#000000">const</text>
<polyline fill="none" stroke="#bfbfbf" points="79,-176.5 122,-176.5 "/>
<text text-anchor="middle" x="100.5" y="-164.5" font-family="Helvetica,sans-Serif" font-size="10.00" fill="#000000"> </text>
<polyline fill="none" stroke="#bfbfbf" points="79,-157.5 122,-157.5 "/>
<text text-anchor="middle" x="100.5" y="-145.5" font-family="Helvetica,sans-Serif" font-size="10.00" fill="#000000"> </text>
</g>
<!-- Node3&#45;&gt;Node1 -->
<g id="edge2" class="edge">
<title>Node3&#45;&gt;Node1</title>
<path fill="none" stroke="#404040" d="M93.8032,-138.2506C89.5623,-120.3142 83.8813,-96.7691 78.5,-76 77.9506,-73.8794 77.3794,-71.7074 76.7964,-69.5159"/>
<polygon fill="none" stroke="#404040" points="76.7587,-69.3763 71.3302,-64.6295 73.624,-57.7929 79.0525,-62.5397 76.7587,-69.3763"/>
<text text-anchor="middle" x="117.5" y="-106.5" font-family="Helvetica,sans-Serif" font-size="10.00" fill="#000000"> +chOnRU</text>
<text text-anchor="middle" x="117.5" y="-95.5" font-family="Helvetica,sans-Serif" font-size="10.00" fill="#000000">+DUMMY16</text>
<text text-anchor="middle" x="117.5" y="-84.5" font-family="Helvetica,sans-Serif" font-size="10.00" fill="#000000">+DUMMY8</text>
</g>
</g>
</svg>
