<?xml version="1.0" encoding="UTF-8" standalone="no"?>
<!DOCTYPE svg PUBLIC "-//W3C//DTD SVG 1.1//EN"
 "http://www.w3.org/Graphics/SVG/1.1/DTD/svg11.dtd">
<!-- Generated by graphviz version 2.40.1 (20161225.0304)
 -->
<!-- Title: o2::mch::Mapping::MpPad Pages: 1 -->
<svg width="212pt" height="193pt"
 viewBox="0.00 0.00 212.00 193.00" xmlns="http://www.w3.org/2000/svg" xmlns:xlink="http://www.w3.org/1999/xlink">
<g id="graph0" class="graph" transform="scale(1 1) rotate(0) translate(4 189)">
<title>o2::mch::Mapping::MpPad</title>
<!-- Node1 -->
<g id="node1" class="node">
<title>Node1</title>
<polygon fill="#bfbfbf" stroke="#000000" points="6,-.5 6,-57.5 146,-57.5 146,-.5 6,-.5"/>
<text text-anchor="middle" x="76" y="-45.5" font-family="Helvetica,sans-Serif" font-size="10.00" fill="#000000">o2::mch::Mapping::MpPad</text>
<polyline fill="none" stroke="#000000" points="6,-38.5 146,-38.5 "/>
<text text-anchor="middle" x="76" y="-26.5" font-family="Helvetica,sans-Serif" font-size="10.00" fill="#000000"> </text>
<polyline fill="none" stroke="#000000" points="6,-19.5 146,-19.5 "/>
<text text-anchor="middle" x="76" y="-7.5" font-family="Helvetica,sans-Serif" font-size="10.00" fill="#000000"> </text>
</g>
<!-- Node2 -->
<g id="node2" class="node">
<title>Node2</title>
<g id="a_node2"><a xlink:href="../../d4/dc3/classfloat.html" target="_top" xlink:title="{float\n||}">
<polygon fill="none" stroke="#000000" points="0,-127.5 0,-184.5 38,-184.5 38,-127.5 0,-127.5"/>
<text text-anchor="middle" x="19" y="-172.5" font-family="Helvetica,sans-Serif" font-size="10.00" fill="#000000">float</text>
<polyline fill="none" stroke="#000000" points="0,-165.5 38,-165.5 "/>
<text text-anchor="middle" x="19" y="-153.5" font-family="Helvetica,sans-Serif" font-size="10.00" fill="#000000"> </text>
<polyline fill="none" stroke="#000000" points="0,-146.5 38,-146.5 "/>
<text text-anchor="middle" x="19" y="-134.5" font-family="Helvetica,sans-Serif" font-size="10.00" fill="#000000"> </text>
</a>
</g>
</g>
<!-- Node2&#45;&gt;Node1 -->
<g id="edge1" class="edge">
<title>Node2&#45;&gt;Node1</title>
<path fill="none" stroke="#404040" d="M22.6542,-127.176C25.4192,-111.4653 30.1335,-92.0165 38,-76 39.356,-73.2392 40.8996,-70.4945 42.5702,-67.7983"/>
<polygon fill="none" stroke="#404040" points="42.7109,-67.5938 42.8174,-60.3835 49.5141,-57.7086 49.4076,-64.9189 42.7109,-67.5938"/>
<text text-anchor="middle" x="55" y="-90" font-family="Helvetica,sans-Serif" font-size="10.00" fill="#000000"> +area</text>
</g>
<!-- Node3 -->
<g id="node3" class="node">
<title>Node3</title>
<polygon fill="none" stroke="#bfbfbf" points="57,-127.5 57,-184.5 95,-184.5 95,-127.5 57,-127.5"/>
<text text-anchor="middle" x="76" y="-172.5" font-family="Helvetica,sans-Serif" font-size="10.00" fill="#000000">bool</text>
<polyline fill="none" stroke="#bfbfbf" points="57,-165.5 95,-165.5 "/>
<text text-anchor="middle" x="76" y="-153.5" font-family="Helvetica,sans-Serif" font-size="10.00" fill="#000000"> </text>
<polyline fill="none" stroke="#bfbfbf" points="57,-146.5 95,-146.5 "/>
<text text-anchor="middle" x="76" y="-134.5" font-family="Helvetica,sans-Serif" font-size="10.00" fill="#000000"> </text>
</g>
<!-- Node3&#45;&gt;Node1 -->
<g id="edge2" class="edge">
<title>Node3&#45;&gt;Node1</title>
<path fill="none" stroke="#404040" d="M76,-127.4987C76,-110.5423 76,-88.7438 76,-69.9661"/>
<polygon fill="none" stroke="#404040" points="76.0001,-69.8456 72,-63.8456 76,-57.8456 80,-63.8455 76.0001,-69.8456"/>
<text text-anchor="middle" x="97.5" y="-90" font-family="Helvetica,sans-Serif" font-size="10.00" fill="#000000"> +useMe</text>
</g>
<!-- Node4 -->
<g id="node4" class="node">
<title>Node4</title>
<polygon fill="none" stroke="#bfbfbf" points="113.5,-127.5 113.5,-184.5 174.5,-184.5 174.5,-127.5 113.5,-127.5"/>
<text text-anchor="middle" x="144" y="-172.5" font-family="Helvetica,sans-Serif" font-size="10.00" fill="#000000">unsigned</text>
<polyline fill="none" stroke="#bfbfbf" points="113.5,-165.5 174.5,-165.5 "/>
<text text-anchor="middle" x="144" y="-153.5" font-family="Helvetica,sans-Serif" font-size="10.00" fill="#000000"> </text>
<polyline fill="none" stroke="#bfbfbf" points="113.5,-146.5 174.5,-146.5 "/>
<text text-anchor="middle" x="144" y="-134.5" font-family="Helvetica,sans-Serif" font-size="10.00" fill="#000000"> </text>
</g>
<!-- Node4&#45;&gt;Node1 -->
<g id="edge3" class="edge">
<title>Node4&#45;&gt;Node1</title>
<path fill="none" stroke="#404040" d="M139.7372,-127.2371C136.5127,-111.3628 131.0419,-91.737 122,-76 120.2669,-72.9837 118.2948,-70.0196 116.165,-67.138"/>
<polygon fill="none" stroke="#404040" points="116.0399,-66.9853 109.1433,-64.8789 108.4351,-57.7027 115.3317,-59.809 116.0399,-66.9853"/>
<text text-anchor="middle" x="169" y="-101" font-family="Helvetica,sans-Serif" font-size="10.00" fill="#000000"> +neighbours</text>
<text text-anchor="middle" x="169" y="-90" font-family="Helvetica,sans-Serif" font-size="10.00" fill="#000000">+iDigit</text>
<text text-anchor="middle" x="169" y="-79" font-family="Helvetica,sans-Serif" font-size="10.00" fill="#000000">+nNeighbours</text>
</g>
</g>
</svg>
