<?xml version="1.0" encoding="UTF-8" standalone="no"?>
<!DOCTYPE svg PUBLIC "-//W3C//DTD SVG 1.1//EN"
 "http://www.w3.org/Graphics/SVG/1.1/DTD/svg11.dtd">
<!-- Generated by graphviz version 2.40.1 (20161225.0304)
 -->
<!-- Title: o2::fv0::CompressedDigits Pages: 1 -->
<svg width="638pt" height="331pt"
 viewBox="0.00 0.00 638.00 331.00" xmlns="http://www.w3.org/2000/svg" xmlns:xlink="http://www.w3.org/1999/xlink">
<g id="graph0" class="graph" transform="scale(1 1) rotate(0) translate(4 327)">
<title>o2::fv0::CompressedDigits</title>
<!-- Node1 -->
<g id="node1" class="node">
<title>Node1</title>
<polygon fill="#bfbfbf" stroke="#000000" points="229,-.5 229,-79.5 375,-79.5 375,-.5 229,-.5"/>
<text text-anchor="middle" x="302" y="-67.5" font-family="Helvetica,sans-Serif" font-size="10.00" fill="#000000">o2::fv0::CompressedDigits</text>
<polyline fill="none" stroke="#000000" points="229,-60.5 375,-60.5 "/>
<text text-anchor="middle" x="302" y="-48.5" font-family="Helvetica,sans-Serif" font-size="10.00" fill="#000000"> </text>
<polyline fill="none" stroke="#000000" points="229,-41.5 375,-41.5 "/>
<text text-anchor="start" x="237" y="-29.5" font-family="Helvetica,sans-Serif" font-size="10.00" fill="#000000">+ CompressedDigits()</text>
<text text-anchor="start" x="237" y="-18.5" font-family="Helvetica,sans-Serif" font-size="10.00" fill="#000000">+ clear()</text>
<text text-anchor="start" x="237" y="-7.5" font-family="Helvetica,sans-Serif" font-size="10.00" fill="#000000">+ ClassDefNV()</text>
</g>
<!-- Node2 -->
<g id="node2" class="node">
<title>Node2</title>
<polygon fill="none" stroke="#bfbfbf" points="0,-138.5 0,-195.5 110,-195.5 110,-138.5 0,-138.5"/>
<text text-anchor="middle" x="55" y="-183.5" font-family="Helvetica,sans-Serif" font-size="10.00" fill="#000000">vector&lt; uint16_t &gt;</text>
<polyline fill="none" stroke="#bfbfbf" points="0,-176.5 110,-176.5 "/>
<text text-anchor="middle" x="55" y="-164.5" font-family="Helvetica,sans-Serif" font-size="10.00" fill="#000000"> </text>
<polyline fill="none" stroke="#bfbfbf" points="0,-157.5 110,-157.5 "/>
<text text-anchor="middle" x="55" y="-145.5" font-family="Helvetica,sans-Serif" font-size="10.00" fill="#000000"> </text>
</g>
<!-- Node2&#45;&gt;Node1 -->
<g id="edge1" class="edge">
<title>Node2&#45;&gt;Node1</title>
<path fill="none" stroke="#404040" d="M107.9556,-138.4663C131.4731,-125.905 159.5386,-111.0648 185,-98 195.5897,-92.5662 206.7567,-86.9217 217.8187,-81.3816"/>
<polygon fill="none" stroke="#404040" points="218.0846,-81.2489 221.6656,-74.9898 228.8206,-75.888 225.2396,-82.1471 218.0846,-81.2489"/>
<text text-anchor="middle" x="203.5" y="-106.5" font-family="Helvetica,sans-Serif" font-size="10.00" fill="#000000"> +bcInc</text>
</g>
<!-- Node3 -->
<g id="node3" class="node">
<title>Node3</title>
<polygon fill="none" stroke="#bfbfbf" points="128,-138.5 128,-195.5 232,-195.5 232,-138.5 128,-138.5"/>
<text text-anchor="middle" x="180" y="-183.5" font-family="Helvetica,sans-Serif" font-size="10.00" fill="#000000">vector&lt; int16_t &gt;</text>
<polyline fill="none" stroke="#bfbfbf" points="128,-176.5 232,-176.5 "/>
<text text-anchor="middle" x="180" y="-164.5" font-family="Helvetica,sans-Serif" font-size="10.00" fill="#000000"> </text>
<polyline fill="none" stroke="#bfbfbf" points="128,-157.5 232,-157.5 "/>
<text text-anchor="middle" x="180" y="-145.5" font-family="Helvetica,sans-Serif" font-size="10.00" fill="#000000"> </text>
</g>
<!-- Node3&#45;&gt;Node1 -->
<g id="edge2" class="edge">
<title>Node3&#45;&gt;Node1</title>
<path fill="none" stroke="#404040" d="M207.3792,-138.4987C221.3684,-123.9362 238.7882,-105.8024 254.8544,-89.0778"/>
<polygon fill="none" stroke="#404040" points="255.2971,-88.617 256.5691,-81.5189 263.6103,-79.963 262.3384,-87.0611 255.2971,-88.617"/>
<text text-anchor="middle" x="265" y="-112" font-family="Helvetica,sans-Serif" font-size="10.00" fill="#000000"> +time</text>
<text text-anchor="middle" x="265" y="-101" font-family="Helvetica,sans-Serif" font-size="10.00" fill="#000000">+charge</text>
</g>
<!-- Node4 -->
<g id="node4" class="node">
<title>Node4</title>
<polygon fill="none" stroke="#bfbfbf" points="250,-138.5 250,-195.5 354,-195.5 354,-138.5 250,-138.5"/>
<text text-anchor="middle" x="302" y="-183.5" font-family="Helvetica,sans-Serif" font-size="10.00" fill="#000000">vector&lt; uint8_t &gt;</text>
<polyline fill="none" stroke="#bfbfbf" points="250,-176.5 354,-176.5 "/>
<text text-anchor="middle" x="302" y="-164.5" font-family="Helvetica,sans-Serif" font-size="10.00" fill="#000000"> </text>
<polyline fill="none" stroke="#bfbfbf" points="250,-157.5 354,-157.5 "/>
<text text-anchor="middle" x="302" y="-145.5" font-family="Helvetica,sans-Serif" font-size="10.00" fill="#000000"> </text>
</g>
<!-- Node4&#45;&gt;Node1 -->
<g id="edge3" class="edge">
<title>Node4&#45;&gt;Node1</title>
<path fill="none" stroke="#404040" d="M302,-138.4987C302,-124.8801 302,-108.1381 302,-92.3462"/>
<polygon fill="none" stroke="#404040" points="302.0001,-91.963 298,-85.963 302,-79.963 306,-85.963 302.0001,-91.963"/>
<text text-anchor="middle" x="325" y="-112" font-family="Helvetica,sans-Serif" font-size="10.00" fill="#000000"> +idChan</text>
<text text-anchor="middle" x="325" y="-101" font-family="Helvetica,sans-Serif" font-size="10.00" fill="#000000">+nChan</text>
</g>
<!-- Node5 -->
<g id="node5" class="node">
<title>Node5</title>
<polygon fill="none" stroke="#bfbfbf" points="372,-138.5 372,-195.5 502,-195.5 502,-138.5 372,-138.5"/>
<text text-anchor="middle" x="437" y="-183.5" font-family="Helvetica,sans-Serif" font-size="10.00" fill="#000000">vector&lt; unsigned int &gt;</text>
<polyline fill="none" stroke="#bfbfbf" points="372,-176.5 502,-176.5 "/>
<text text-anchor="middle" x="437" y="-164.5" font-family="Helvetica,sans-Serif" font-size="10.00" fill="#000000"> </text>
<polyline fill="none" stroke="#bfbfbf" points="372,-157.5 502,-157.5 "/>
<text text-anchor="middle" x="437" y="-145.5" font-family="Helvetica,sans-Serif" font-size="10.00" fill="#000000"> </text>
</g>
<!-- Node5&#45;&gt;Node1 -->
<g id="edge4" class="edge">
<title>Node5&#45;&gt;Node1</title>
<path fill="none" stroke="#404040" d="M406.7034,-138.4987C391.014,-123.7391 371.4249,-105.3108 353.4483,-88.3995"/>
<polygon fill="none" stroke="#404040" points="352.9641,-87.944 345.8532,-86.7463 344.2238,-79.7216 351.3348,-80.9194 352.9641,-87.944"/>
<text text-anchor="middle" x="409.5" y="-106.5" font-family="Helvetica,sans-Serif" font-size="10.00" fill="#000000"> +orbitInc</text>
</g>
<!-- Node6 -->
<g id="node6" class="node">
<title>Node6</title>
<g id="a_node6"><a xlink:href="../../d1/d20/structo2_1_1fv0_1_1CTFHeader.html" target="_top" xlink:title="Header for a single CTF. ">
<polygon fill="none" stroke="#000000" points="520,-138.5 520,-195.5 630,-195.5 630,-138.5 520,-138.5"/>
<text text-anchor="middle" x="575" y="-183.5" font-family="Helvetica,sans-Serif" font-size="10.00" fill="#000000">o2::fv0::CTFHeader</text>
<polyline fill="none" stroke="#000000" points="520,-176.5 630,-176.5 "/>
<text text-anchor="middle" x="575" y="-164.5" font-family="Helvetica,sans-Serif" font-size="10.00" fill="#000000"> </text>
<polyline fill="none" stroke="#000000" points="520,-157.5 630,-157.5 "/>
<text text-anchor="start" x="528" y="-145.5" font-family="Helvetica,sans-Serif" font-size="10.00" fill="#000000">+ ClassDefNV()</text>
</a>
</g>
</g>
<!-- Node6&#45;&gt;Node1 -->
<g id="edge5" class="edge">
<title>Node6&#45;&gt;Node1</title>
<path fill="none" stroke="#404040" d="M520.3921,-138.4989C495.4485,-125.7389 465.4133,-110.7333 438,-98 421.3858,-90.2829 403.4655,-82.3609 386.2584,-74.948"/>
<polygon fill="none" stroke="#404040" points="386.1054,-74.8825 379.015,-76.1968 375.0747,-70.1574 382.1651,-68.8431 386.1054,-74.8825"/>
<text text-anchor="middle" x="506" y="-106.5" font-family="Helvetica,sans-Serif" font-size="10.00" fill="#000000"> +header</text>
</g>
<!-- Node7 -->
<g id="node7" class="node">
<title>Node7</title>
<polygon fill="none" stroke="#bfbfbf" points="544.5,-265.5 544.5,-322.5 605.5,-322.5 605.5,-265.5 544.5,-265.5"/>
<text text-anchor="middle" x="575" y="-310.5" font-family="Helvetica,sans-Serif" font-size="10.00" fill="#000000">unsigned</text>
<polyline fill="none" stroke="#bfbfbf" points="544.5,-303.5 605.5,-303.5 "/>
<text text-anchor="middle" x="575" y="-291.5" font-family="Helvetica,sans-Serif" font-size="10.00" fill="#000000"> </text>
<polyline fill="none" stroke="#bfbfbf" points="544.5,-284.5 605.5,-284.5 "/>
<text text-anchor="middle" x="575" y="-272.5" font-family="Helvetica,sans-Serif" font-size="10.00" fill="#000000"> </text>
</g>
<!-- Node7&#45;&gt;Node6 -->
<g id="edge6" class="edge">
<title>Node7&#45;&gt;Node6</title>
<path fill="none" stroke="#404040" d="M575,-265.4987C575,-248.5423 575,-226.7438 575,-207.9661"/>
<polygon fill="none" stroke="#404040" points="575.0001,-207.8456 571,-201.8456 575,-195.8456 579,-201.8455 575.0001,-207.8456"/>
<text text-anchor="middle" x="601.5" y="-239" font-family="Helvetica,sans-Serif" font-size="10.00" fill="#000000"> +firstBC</text>
<text text-anchor="middle" x="601.5" y="-228" font-family="Helvetica,sans-Serif" font-size="10.00" fill="#000000">+firstOrbit</text>
<text text-anchor="middle" x="601.5" y="-217" font-family="Helvetica,sans-Serif" font-size="10.00" fill="#000000">+nTriggers</text>
</g>
</g>
</svg>
