<?xml version="1.0" encoding="UTF-8" standalone="no"?>
<!DOCTYPE svg PUBLIC "-//W3C//DTD SVG 1.1//EN"
 "http://www.w3.org/Graphics/SVG/1.1/DTD/svg11.dtd">
<!-- Generated by graphviz version 2.40.1 (20161225.0304)
 -->
<!-- Title: o2::its::VertexerTraits Pages: 1 -->
<!--zoomable 870 -->
<svg id="main" version="1.1" xmlns="http://www.w3.org/2000/svg" xmlns:xlink="http://www.w3.org/1999/xlink" xml:space="preserve" onload="init(evt)">
<style type="text/css"><![CDATA[
.edge:hover path { stroke: red; }
.edge:hover polygon { stroke: red; fill: red; }
]]></style>
<script type="text/javascript"><![CDATA[
var edges = document.getElementsByTagName('g');
if (edges && edges.length) {
  for (var i=0;i<edges.length;i++) {
    if (edges[i].id.substr(0,4)=='edge') {
      edges[i].setAttribute('class','edge');
    }
  }
}
]]></script>
        <defs>
                <circle id="rim" cx="0" cy="0" r="7"/>
                <circle id="rim2" cx="0" cy="0" r="3.5"/>
                <g id="zoomPlus">
                        <use xlink:href="#rim" fill="#404040">
                                <set attributeName="fill" to="#808080" begin="zoomplus.mouseover" end="zoomplus.mouseout"/>
                        </use>
                        <path d="M-4,0h8M0,-4v8" fill="none" stroke="white" stroke-width="1.5" pointer-events="none"/>
                </g>
                <g id="zoomMin">
                        <use xlink:href="#rim" fill="#404040">
                                <set attributeName="fill" to="#808080" begin="zoomminus.mouseover" end="zoomminus.mouseout"/>
                        </use>
                        <path d="M-4,0h8" fill="none" stroke="white" stroke-width="1.5" pointer-events="none"/>
                </g>
                <g id="dirArrow">
                        <path fill="none" stroke="white" stroke-width="1.5" d="M0,-3.0v7 M-2.5,-0.5L0,-3.0L2.5,-0.5"/>
                </g>
               <g id="resetDef">
                       <use xlink:href="#rim2" fill="#404040">
                               <set attributeName="fill" to="#808080" begin="reset.mouseover" end="reset.mouseout"/>
                       </use>
               </g>
        </defs>

<script type="text/javascript">
var viewWidth = 2130;
var viewHeight = 870;
var sectionId = 'dynsection-1';
</script>
<script xlink:href="../../svgpan.js"/>
<svg id="graph" class="graph">
<g id="viewport">
<title>o2::its::VertexerTraits</title>
<!-- Node3 -->
<g id="node1" class="node">
<title>Node3</title>
<polygon fill="#bfbfbf" stroke="#000000" points="969.5,-.5 969.5,-299.5 1166.5,-299.5 1166.5,-.5 969.5,-.5"/>
<text text-anchor="middle" x="1068" y="-287.5" font-family="Helvetica,sans-Serif" font-size="10.00" fill="#000000">o2::its::VertexerTraits</text>
<polyline fill="none" stroke="#000000" points="969.5,-280.5 1166.5,-280.5 "/>
<text text-anchor="middle" x="1068" y="-268.5" font-family="Helvetica,sans-Serif" font-size="10.00" fill="#000000"> </text>
<polyline fill="none" stroke="#000000" points="969.5,-261.5 1166.5,-261.5 "/>
<text text-anchor="start" x="977.5" y="-249.5" font-family="Helvetica,sans-Serif" font-size="10.00" fill="#000000">+ VertexerTraits()</text>
<text text-anchor="start" x="977.5" y="-238.5" font-family="Helvetica,sans-Serif" font-size="10.00" fill="#000000">+ ~VertexerTraits()</text>
<text text-anchor="start" x="977.5" y="-227.5" font-family="Helvetica,sans-Serif" font-size="10.00" fill="#000000">+ GPUhd()</text>
<text text-anchor="start" x="977.5" y="-216.5" font-family="Helvetica,sans-Serif" font-size="10.00" fill="#000000">+ GPUhd()</text>
<text text-anchor="start" x="977.5" y="-205.5" font-family="Helvetica,sans-Serif" font-size="10.00" fill="#000000">+ GPUhd()</text>
<text text-anchor="start" x="977.5" y="-194.5" font-family="Helvetica,sans-Serif" font-size="10.00" fill="#000000">+ reset()</text>
<text text-anchor="start" x="977.5" y="-183.5" font-family="Helvetica,sans-Serif" font-size="10.00" fill="#000000">+ initialise()</text>
<text text-anchor="start" x="977.5" y="-172.5" font-family="Helvetica,sans-Serif" font-size="10.00" fill="#000000">+ computeTracklets()</text>
<text text-anchor="start" x="977.5" y="-161.5" font-family="Helvetica,sans-Serif" font-size="10.00" fill="#000000">+ computeTrackletMatching()</text>
<text text-anchor="start" x="977.5" y="-150.5" font-family="Helvetica,sans-Serif" font-size="10.00" fill="#000000">+ computeTrackletsPureMontecarlo()</text>
<text text-anchor="start" x="977.5" y="-139.5" font-family="Helvetica,sans-Serif" font-size="10.00" fill="#000000">+ computeVertices()</text>
<text text-anchor="start" x="977.5" y="-128.5" font-family="Helvetica,sans-Serif" font-size="10.00" fill="#000000">+ computeHistVertices()</text>
<text text-anchor="start" x="977.5" y="-117.5" font-family="Helvetica,sans-Serif" font-size="10.00" fill="#000000">+ updateVertexingParameters()</text>
<text text-anchor="start" x="977.5" y="-106.5" font-family="Helvetica,sans-Serif" font-size="10.00" fill="#000000">+ getVertexingParameters()</text>
<text text-anchor="start" x="977.5" y="-95.5" font-family="Helvetica,sans-Serif" font-size="10.00" fill="#000000">+ getVertices()</text>
<text text-anchor="start" x="977.5" y="-84.5" font-family="Helvetica,sans-Serif" font-size="10.00" fill="#000000">+ setIsGPU()</text>
<text text-anchor="start" x="977.5" y="-73.5" font-family="Helvetica,sans-Serif" font-size="10.00" fill="#000000">+ dumpVertexerTraits()</text>
<text text-anchor="start" x="977.5" y="-62.5" font-family="Helvetica,sans-Serif" font-size="10.00" fill="#000000">+ arrangeClusters()</text>
<text text-anchor="start" x="977.5" y="-51.5" font-family="Helvetica,sans-Serif" font-size="10.00" fill="#000000">+ getMClabelsLayer()</text>
<text text-anchor="start" x="977.5" y="-40.5" font-family="Helvetica,sans-Serif" font-size="10.00" fill="#000000">+ setDebugFlag()</text>
<text text-anchor="start" x="977.5" y="-29.5" font-family="Helvetica,sans-Serif" font-size="10.00" fill="#000000">+ isDebugFlag()</text>
<text text-anchor="start" x="977.5" y="-18.5" font-family="Helvetica,sans-Serif" font-size="10.00" fill="#000000">+ getDebugFlags()</text>
<text text-anchor="start" x="977.5" y="-7.5" font-family="Helvetica,sans-Serif" font-size="10.00" fill="#000000">+ selectClusters()</text>
</g>
<!-- Node4 -->
<g id="node2" class="node">
<title>Node4</title>
<polygon fill="none" stroke="#bfbfbf" points="0,-507 0,-564 126,-564 126,-507 0,-507"/>
<text text-anchor="middle" x="63" y="-552" font-family="Helvetica,sans-Serif" font-size="10.00" fill="#000000">vector&lt; o2::its::Line &gt;</text>
<polyline fill="none" stroke="#bfbfbf" points="0,-545 126,-545 "/>
<text text-anchor="middle" x="63" y="-533" font-family="Helvetica,sans-Serif" font-size="10.00" fill="#000000"> </text>
<polyline fill="none" stroke="#bfbfbf" points="0,-526 126,-526 "/>
<text text-anchor="middle" x="63" y="-514" font-family="Helvetica,sans-Serif" font-size="10.00" fill="#000000"> </text>
</g>
<!-- Node4&#45;&gt;Node3 -->
<g id="edge1" class="edge">
<title>Node4&#45;&gt;Node3</title>
<path fill="none" stroke="#404040" d="M55.8438,-506.8447C46.1818,-460.6327 35.2188,-369.6219 83,-318 199.6358,-191.989 724.8714,-160.404 957.0455,-152.5593"/>
<polygon fill="none" stroke="#404040" points="957.2291,-152.5534 963.0949,-148.3591 969.2226,-152.1606 963.3568,-156.3548 957.2291,-152.5534"/>
<text text-anchor="middle" x="115.5" y="-332" font-family="Helvetica,sans-Serif" font-size="10.00" fill="#000000"> #mTracklets</text>
</g>
<!-- Node5 -->
<g id="node3" class="node">
<title>Node5</title>
<g id="a_node3"><a xlink:href="../../d2/de3/structo2_1_1its_1_1VertexingParameters.html" target="_top" xlink:title="{o2::its::VertexingParameters\n||}">
<polygon fill="none" stroke="#000000" points="300.5,-507 300.5,-564 455.5,-564 455.5,-507 300.5,-507"/>
<text text-anchor="middle" x="378" y="-552" font-family="Helvetica,sans-Serif" font-size="10.00" fill="#000000">o2::its::VertexingParameters</text>
<polyline fill="none" stroke="#000000" points="300.5,-545 455.5,-545 "/>
<text text-anchor="middle" x="378" y="-533" font-family="Helvetica,sans-Serif" font-size="10.00" fill="#000000"> </text>
<polyline fill="none" stroke="#000000" points="300.5,-526 455.5,-526 "/>
<text text-anchor="middle" x="378" y="-514" font-family="Helvetica,sans-Serif" font-size="10.00" fill="#000000"> </text>
</a>
</g>
</g>
<!-- Node5&#45;&gt;Node3 -->
<g id="edge2" class="edge">
<title>Node5&#45;&gt;Node3</title>
<path fill="none" stroke="#404040" d="M381.6113,-506.9265C389.0227,-460.4143 410.3237,-368.4642 467,-318 539.4288,-253.5099 804.4761,-197.0577 957.3153,-168.9404"/>
<polygon fill="none" stroke="#404040" points="957.6748,-168.8748 962.8585,-163.8619 969.4795,-166.7188 964.2958,-171.7317 957.6748,-168.8748"/>
<text text-anchor="middle" x="503" y="-332" font-family="Helvetica,sans-Serif" font-size="10.00" fill="#000000"> #mVrtParams</text>
</g>
<!-- Node6 -->
<g id="node4" class="node">
<title>Node6</title>
<g id="a_node4"><a xlink:href="../../d4/dc3/classfloat.html" target="_top" xlink:title="{float\n||}">
<polygon fill="none" stroke="#000000" points="172,-804.5 172,-861.5 210,-861.5 210,-804.5 172,-804.5"/>
<text text-anchor="middle" x="191" y="-849.5" font-family="Helvetica,sans-Serif" font-size="10.00" fill="#000000">float</text>
<polyline fill="none" stroke="#000000" points="172,-842.5 210,-842.5 "/>
<text text-anchor="middle" x="191" y="-830.5" font-family="Helvetica,sans-Serif" font-size="10.00" fill="#000000"> </text>
<polyline fill="none" stroke="#000000" points="172,-823.5 210,-823.5 "/>
<text text-anchor="middle" x="191" y="-811.5" font-family="Helvetica,sans-Serif" font-size="10.00" fill="#000000"> </text>
</a>
</g>
</g>
<!-- Node6&#45;&gt;Node3 -->
<g id="edge5" class="edge">
<title>Node6&#45;&gt;Node3</title>
<path fill="none" stroke="#404040" d="M185.1341,-804.4784C167.2607,-714.2033 117.8428,-436.6968 171,-369 267.7387,-245.8013 739.5296,-183.0737 957.3659,-160.2876"/>
<polygon fill="none" stroke="#404040" points="957.508,-160.273 963.0645,-155.6767 969.4443,-159.0379 963.8878,-163.6342 957.508,-160.273"/>
<text text-anchor="middle" x="231" y="-560.5" font-family="Helvetica,sans-Serif" font-size="10.00" fill="#000000"> #mMaxDirectorCosine3</text>
<text text-anchor="middle" x="231" y="-549.5" font-family="Helvetica,sans-Serif" font-size="10.00" fill="#000000">#mDeltaRadii21</text>
<text text-anchor="middle" x="231" y="-538.5" font-family="Helvetica,sans-Serif" font-size="10.00" fill="#000000">#mDeltaRadii10</text>
<text text-anchor="middle" x="231" y="-527.5" font-family="Helvetica,sans-Serif" font-size="10.00" fill="#000000">+deltaPhi</text>
<text text-anchor="middle" x="231" y="-516.5" font-family="Helvetica,sans-Serif" font-size="10.00" fill="#000000">+maxdeltaphi</text>
<text text-anchor="middle" x="231" y="-505.5" font-family="Helvetica,sans-Serif" font-size="10.00" fill="#000000">+maxdeltaz</text>
</g>
<!-- Node6&#45;&gt;Node5 -->
<g id="edge3" class="edge">
<title>Node6&#45;&gt;Node5</title>
<path fill="none" stroke="#404040" d="M210.1456,-808.5207C230.0304,-782.6678 261.5892,-740.4118 286,-702 312.8159,-659.8037 340.0888,-609.2883 357.9007,-575.0489"/>
<polygon fill="none" stroke="#404040" points="358.0521,-574.7559 357.2551,-567.589 363.5642,-564.0968 364.3612,-571.2637 358.0521,-574.7559"/>
<text text-anchor="middle" x="314" y="-778" font-family="Helvetica,sans-Serif" font-size="10.00" fill="#000000"> +zCut</text>
<text text-anchor="middle" x="314" y="-767" font-family="Helvetica,sans-Serif" font-size="10.00" fill="#000000">+histPairCut</text>
<text text-anchor="middle" x="314" y="-756" font-family="Helvetica,sans-Serif" font-size="10.00" fill="#000000">+pairCut</text>
<text text-anchor="middle" x="314" y="-745" font-family="Helvetica,sans-Serif" font-size="10.00" fill="#000000">+phiCut</text>
<text text-anchor="middle" x="314" y="-734" font-family="Helvetica,sans-Serif" font-size="10.00" fill="#000000">+tanLambdaCut</text>
<text text-anchor="middle" x="314" y="-723" font-family="Helvetica,sans-Serif" font-size="10.00" fill="#000000">+clusterCut</text>
</g>
<!-- Node7 -->
<g id="node5" class="node">
<title>Node7</title>
<polygon fill="none" stroke="#bfbfbf" points="363.5,-804.5 363.5,-861.5 392.5,-861.5 392.5,-804.5 363.5,-804.5"/>
<text text-anchor="middle" x="378" y="-849.5" font-family="Helvetica,sans-Serif" font-size="10.00" fill="#000000">int</text>
<polyline fill="none" stroke="#bfbfbf" points="363.5,-842.5 392.5,-842.5 "/>
<text text-anchor="middle" x="378" y="-830.5" font-family="Helvetica,sans-Serif" font-size="10.00" fill="#000000"> </text>
<polyline fill="none" stroke="#bfbfbf" points="363.5,-823.5 392.5,-823.5 "/>
<text text-anchor="middle" x="378" y="-811.5" font-family="Helvetica,sans-Serif" font-size="10.00" fill="#000000"> </text>
</g>
<!-- Node7&#45;&gt;Node5 -->
<g id="edge4" class="edge">
<title>Node7&#45;&gt;Node5</title>
<path fill="none" stroke="#404040" d="M378,-804.4744C378,-751.522 378,-637.8581 378,-576.6098"/>
<polygon fill="none" stroke="#404040" points="378.0001,-576.3763 374,-570.3763 378,-564.3763 382,-570.3763 378.0001,-576.3763"/>
<text text-anchor="middle" x="437" y="-761.5" font-family="Helvetica,sans-Serif" font-size="10.00" fill="#000000"> +zSpan</text>
<text text-anchor="middle" x="437" y="-750.5" font-family="Helvetica,sans-Serif" font-size="10.00" fill="#000000">+phiSpan</text>
<text text-anchor="middle" x="437" y="-739.5" font-family="Helvetica,sans-Serif" font-size="10.00" fill="#000000">+clusterContributorsCut</text>
</g>
<!-- Node8 -->
<g id="node6" class="node">
<title>Node8</title>
<polygon fill="none" stroke="#bfbfbf" points="473.5,-507 473.5,-564 556.5,-564 556.5,-507 473.5,-507"/>
<text text-anchor="middle" x="515" y="-552" font-family="Helvetica,sans-Serif" font-size="10.00" fill="#000000">vector&lt; int &gt;</text>
<polyline fill="none" stroke="#bfbfbf" points="473.5,-545 556.5,-545 "/>
<text text-anchor="middle" x="515" y="-533" font-family="Helvetica,sans-Serif" font-size="10.00" fill="#000000"> </text>
<polyline fill="none" stroke="#bfbfbf" points="473.5,-526 556.5,-526 "/>
<text text-anchor="middle" x="515" y="-514" font-family="Helvetica,sans-Serif" font-size="10.00" fill="#000000"> </text>
</g>
<!-- Node8&#45;&gt;Node3 -->
<g id="edge6" class="edge">
<title>Node8&#45;&gt;Node3</title>
<path fill="none" stroke="#404040" d="M512.9777,-506.8534C511.3697,-461.064 515.1114,-371.1444 563,-318 616.1735,-258.9907 825.7167,-203.4643 957.6008,-173.3602"/>
<polygon fill="none" stroke="#404040" points="957.6199,-173.3559 962.5878,-168.1291 969.3234,-170.7046 964.3554,-175.9314 957.6199,-173.3559"/>
<text text-anchor="middle" x="616" y="-337.5" font-family="Helvetica,sans-Serif" font-size="10.00" fill="#000000"> #mFoundTracklets01</text>
<text text-anchor="middle" x="616" y="-326.5" font-family="Helvetica,sans-Serif" font-size="10.00" fill="#000000">#mFoundTracklets12</text>
</g>
<!-- Node9 -->
<g id="node7" class="node">
<title>Node9</title>
<polygon fill="none" stroke="#bfbfbf" points="575,-507 575,-564 647,-564 647,-507 575,-507"/>
<text text-anchor="middle" x="611" y="-552" font-family="Helvetica,sans-Serif" font-size="10.00" fill="#000000">const const</text>
<polyline fill="none" stroke="#bfbfbf" points="575,-545 647,-545 "/>
<text text-anchor="middle" x="611" y="-533" font-family="Helvetica,sans-Serif" font-size="10.00" fill="#000000"> </text>
<polyline fill="none" stroke="#bfbfbf" points="575,-526 647,-526 "/>
<text text-anchor="middle" x="611" y="-514" font-family="Helvetica,sans-Serif" font-size="10.00" fill="#000000"> </text>
</g>
<!-- Node9&#45;&gt;Node3 -->
<g id="edge7" class="edge">
<title>Node9&#45;&gt;Node3</title>
<path fill="none" stroke="#404040" d="M611.9621,-506.8045C614.5622,-470.9444 623.7995,-409.3868 656,-369 732.8365,-272.6296 863.8775,-213.4525 957.5473,-181.3"/>
<polygon fill="none" stroke="#404040" points="957.6949,-181.2503 962.1029,-175.5433 969.0663,-177.4172 964.6583,-183.1242 957.6949,-181.2503"/>
<text text-anchor="middle" x="716" y="-332" font-family="Helvetica,sans-Serif" font-size="10.00" fill="#000000"> +float</text>
</g>
<!-- Node10 -->
<g id="node8" class="node">
<title>Node10</title>
<g id="a_node8"><a xlink:href="../../d6/d58/classo2_1_1its_1_1ROframe.html" target="_top" xlink:title="{o2::its::ROframe\n||+ ROframe()\l+ getROFrameId()\l+ getPrimaryVertex()\l+ getPrimaryVerticesNum()\l+ addPrimaryVertex()\l+ addPrimaryVertices()\l+ addPrimaryReconstructedVertex()\l+ printPrimaryVertices()\l+ getTotalClusters()\l+ empty()\l+ getClusters()\l+ getClustersOnLayer()\l+ getTrackingFrameInfoOnLayer()\l+ getTrackingFrameInfo()\l+ getClusterTrackingFrameInfo()\l+ getClusterLabels()\l+ getClusterLabels()\l+ getClusterExternalIndex()\l+ getTracksId()\l+ addClusterToLayer()\l+ addTrackingFrameInfoToLayer()\l+ addClusterLabelToLayer()\l+ addClusterExternalIndexTo\lLayer()\l+ hasMCinformation()\l+ clear()\l}">
<polygon fill="none" stroke="#000000" points="665,-369.5 665,-701.5 857,-701.5 857,-369.5 665,-369.5"/>
<text text-anchor="middle" x="761" y="-689.5" font-family="Helvetica,sans-Serif" font-size="10.00" fill="#000000">o2::its::ROframe</text>
<polyline fill="none" stroke="#000000" points="665,-682.5 857,-682.5 "/>
<text text-anchor="middle" x="761" y="-670.5" font-family="Helvetica,sans-Serif" font-size="10.00" fill="#000000"> </text>
<polyline fill="none" stroke="#000000" points="665,-663.5 857,-663.5 "/>
<text text-anchor="start" x="673" y="-651.5" font-family="Helvetica,sans-Serif" font-size="10.00" fill="#000000">+ ROframe()</text>
<text text-anchor="start" x="673" y="-640.5" font-family="Helvetica,sans-Serif" font-size="10.00" fill="#000000">+ getROFrameId()</text>
<text text-anchor="start" x="673" y="-629.5" font-family="Helvetica,sans-Serif" font-size="10.00" fill="#000000">+ getPrimaryVertex()</text>
<text text-anchor="start" x="673" y="-618.5" font-family="Helvetica,sans-Serif" font-size="10.00" fill="#000000">+ getPrimaryVerticesNum()</text>
<text text-anchor="start" x="673" y="-607.5" font-family="Helvetica,sans-Serif" font-size="10.00" fill="#000000">+ addPrimaryVertex()</text>
<text text-anchor="start" x="673" y="-596.5" font-family="Helvetica,sans-Serif" font-size="10.00" fill="#000000">+ addPrimaryVertices()</text>
<text text-anchor="start" x="673" y="-585.5" font-family="Helvetica,sans-Serif" font-size="10.00" fill="#000000">+ addPrimaryReconstructedVertex()</text>
<text text-anchor="start" x="673" y="-574.5" font-family="Helvetica,sans-Serif" font-size="10.00" fill="#000000">+ printPrimaryVertices()</text>
<text text-anchor="start" x="673" y="-563.5" font-family="Helvetica,sans-Serif" font-size="10.00" fill="#000000">+ getTotalClusters()</text>
<text text-anchor="start" x="673" y="-552.5" font-family="Helvetica,sans-Serif" font-size="10.00" fill="#000000">+ empty()</text>
<text text-anchor="start" x="673" y="-541.5" font-family="Helvetica,sans-Serif" font-size="10.00" fill="#000000">+ getClusters()</text>
<text text-anchor="start" x="673" y="-530.5" font-family="Helvetica,sans-Serif" font-size="10.00" fill="#000000">+ getClustersOnLayer()</text>
<text text-anchor="start" x="673" y="-519.5" font-family="Helvetica,sans-Serif" font-size="10.00" fill="#000000">+ getTrackingFrameInfoOnLayer()</text>
<text text-anchor="start" x="673" y="-508.5" font-family="Helvetica,sans-Serif" font-size="10.00" fill="#000000">+ getTrackingFrameInfo()</text>
<text text-anchor="start" x="673" y="-497.5" font-family="Helvetica,sans-Serif" font-size="10.00" fill="#000000">+ getClusterTrackingFrameInfo()</text>
<text text-anchor="start" x="673" y="-486.5" font-family="Helvetica,sans-Serif" font-size="10.00" fill="#000000">+ getClusterLabels()</text>
<text text-anchor="start" x="673" y="-475.5" font-family="Helvetica,sans-Serif" font-size="10.00" fill="#000000">+ getClusterLabels()</text>
<text text-anchor="start" x="673" y="-464.5" font-family="Helvetica,sans-Serif" font-size="10.00" fill="#000000">+ getClusterExternalIndex()</text>
<text text-anchor="start" x="673" y="-453.5" font-family="Helvetica,sans-Serif" font-size="10.00" fill="#000000">+ getTracksId()</text>
<text text-anchor="start" x="673" y="-442.5" font-family="Helvetica,sans-Serif" font-size="10.00" fill="#000000">+ addClusterToLayer()</text>
<text text-anchor="start" x="673" y="-431.5" font-family="Helvetica,sans-Serif" font-size="10.00" fill="#000000">+ addTrackingFrameInfoToLayer()</text>
<text text-anchor="start" x="673" y="-420.5" font-family="Helvetica,sans-Serif" font-size="10.00" fill="#000000">+ addClusterLabelToLayer()</text>
<text text-anchor="start" x="673" y="-409.5" font-family="Helvetica,sans-Serif" font-size="10.00" fill="#000000">+ addClusterExternalIndexTo</text>
<text text-anchor="start" x="673" y="-398.5" font-family="Helvetica,sans-Serif" font-size="10.00" fill="#000000">Layer()</text>
<text text-anchor="start" x="673" y="-387.5" font-family="Helvetica,sans-Serif" font-size="10.00" fill="#000000">+ hasMCinformation()</text>
<text text-anchor="start" x="673" y="-376.5" font-family="Helvetica,sans-Serif" font-size="10.00" fill="#000000">+ clear()</text>
</a>
</g>
</g>
<!-- Node10&#45;&gt;Node3 -->
<g id="edge8" class="edge">
<title>Node10&#45;&gt;Node3</title>
<path fill="none" stroke="#404040" d="M835.3044,-369.3635C845.9379,-351.3701 857.5412,-333.8597 870,-318 895.6637,-285.3307 928.508,-254.412 960.0376,-228.2168"/>
<polygon fill="none" stroke="#404040" points="960.048,-228.2083 962.1521,-221.311 969.3281,-220.6004 967.224,-227.4977 960.048,-228.2083"/>
<text text-anchor="middle" x="894.5" y="-332" font-family="Helvetica,sans-Serif" font-size="10.00" fill="#000000"> #mEvent</text>
</g>
<!-- Node11 -->
<g id="node9" class="node">
<title>Node11</title>
<polygon fill="none" stroke="#bfbfbf" points="875,-507 875,-564 973,-564 973,-507 875,-507"/>
<text text-anchor="middle" x="924" y="-552" font-family="Helvetica,sans-Serif" font-size="10.00" fill="#000000">array&lt; float, 3 &gt;</text>
<polyline fill="none" stroke="#bfbfbf" points="875,-545 973,-545 "/>
<text text-anchor="middle" x="924" y="-533" font-family="Helvetica,sans-Serif" font-size="10.00" fill="#000000"> </text>
<polyline fill="none" stroke="#bfbfbf" points="875,-526 973,-526 "/>
<text text-anchor="middle" x="924" y="-514" font-family="Helvetica,sans-Serif" font-size="10.00" fill="#000000"> </text>
</g>
<!-- Node11&#45;&gt;Node3 -->
<g id="edge9" class="edge">
<title>Node11&#45;&gt;Node3</title>
<path fill="none" stroke="#404040" d="M919.4762,-506.9239C913.9348,-464.2508 907.9939,-382.041 932,-318 939.3221,-298.4668 949.8771,-279.495 961.9157,-261.7619"/>
<polygon fill="none" stroke="#404040" points="962.2539,-261.2814 962.4372,-254.0726 969.162,-251.4692 968.9787,-258.678 962.2539,-261.2814"/>
<text text-anchor="middle" x="995" y="-332" font-family="Helvetica,sans-Serif" font-size="10.00" fill="#000000"> #mAverageClustersRadii</text>
</g>
<!-- Node12 -->
<g id="node10" class="node">
<title>Node12</title>
<polygon fill="none" stroke="#bfbfbf" points="991.5,-501.5 991.5,-569.5 1120.5,-569.5 1120.5,-501.5 991.5,-501.5"/>
<text text-anchor="start" x="999.5" y="-557.5" font-family="Helvetica,sans-Serif" font-size="10.00" fill="#000000">vector&lt; o2::its::Cluster</text>
<text text-anchor="middle" x="1056" y="-546.5" font-family="Helvetica,sans-Serif" font-size="10.00" fill="#000000">Lines &gt;</text>
<polyline fill="none" stroke="#bfbfbf" points="991.5,-539.5 1120.5,-539.5 "/>
<text text-anchor="middle" x="1056" y="-527.5" font-family="Helvetica,sans-Serif" font-size="10.00" fill="#000000"> </text>
<polyline fill="none" stroke="#bfbfbf" points="991.5,-520.5 1120.5,-520.5 "/>
<text text-anchor="middle" x="1056" y="-508.5" font-family="Helvetica,sans-Serif" font-size="10.00" fill="#000000"> </text>
</g>
<!-- Node12&#45;&gt;Node3 -->
<g id="edge10" class="edge">
<title>Node12&#45;&gt;Node3</title>
<path fill="none" stroke="#404040" d="M1057.0649,-501.2894C1058.3961,-458.5251 1060.7672,-382.3546 1062.9619,-311.8481"/>
<polygon fill="none" stroke="#404040" points="1062.9674,-311.6701 1059.156,-305.5485 1063.3408,-299.6759 1067.1522,-305.7975 1062.9674,-311.6701"/>
<text text-anchor="middle" x="1112" y="-332" font-family="Helvetica,sans-Serif" font-size="10.00" fill="#000000"> #mTrackletClusters</text>
</g>
<!-- Node13 -->
<g id="node11" class="node">
<title>Node13</title>
<polygon fill="none" stroke="#bfbfbf" points="1138.5,-501.5 1138.5,-569.5 1269.5,-569.5 1269.5,-501.5 1138.5,-501.5"/>
<text text-anchor="start" x="1146.5" y="-557.5" font-family="Helvetica,sans-Serif" font-size="10.00" fill="#000000">array&lt; std::vector</text>
<text text-anchor="middle" x="1204" y="-546.5" font-family="Helvetica,sans-Serif" font-size="10.00" fill="#000000">&lt; unsigned char &gt;, 2 &gt;</text>
<polyline fill="none" stroke="#bfbfbf" points="1138.5,-539.5 1269.5,-539.5 "/>
<text text-anchor="middle" x="1204" y="-527.5" font-family="Helvetica,sans-Serif" font-size="10.00" fill="#000000"> </text>
<polyline fill="none" stroke="#bfbfbf" points="1138.5,-520.5 1269.5,-520.5 "/>
<text text-anchor="middle" x="1204" y="-508.5" font-family="Helvetica,sans-Serif" font-size="10.00" fill="#000000"> </text>
</g>
<!-- Node13&#45;&gt;Node3 -->
<g id="edge11" class="edge">
<title>Node13&#45;&gt;Node3</title>
<path fill="none" stroke="#404040" d="M1201.7879,-501.377C1198.1199,-457.7144 1188.7717,-380.2827 1166,-318 1165.1739,-315.7404 1164.3178,-313.4765 1163.4341,-311.2102"/>
<polygon fill="none" stroke="#404040" points="1163.3382,-310.9755 1157.3648,-306.9359 1158.7962,-299.8683 1164.7696,-303.9079 1163.3382,-310.9755"/>
<text text-anchor="middle" x="1218" y="-332" font-family="Helvetica,sans-Serif" font-size="10.00" fill="#000000"> #mUsedClusters</text>
</g>
<!-- Node14 -->
<g id="node12" class="node">
<title>Node14</title>
<polygon fill="none" stroke="#bfbfbf" points="1287.5,-507 1287.5,-564 1348.5,-564 1348.5,-507 1287.5,-507"/>
<text text-anchor="middle" x="1318" y="-552" font-family="Helvetica,sans-Serif" font-size="10.00" fill="#000000">unsigned</text>
<polyline fill="none" stroke="#bfbfbf" points="1287.5,-545 1348.5,-545 "/>
<text text-anchor="middle" x="1318" y="-533" font-family="Helvetica,sans-Serif" font-size="10.00" fill="#000000"> </text>
<polyline fill="none" stroke="#bfbfbf" points="1287.5,-526 1348.5,-526 "/>
<text text-anchor="middle" x="1318" y="-514" font-family="Helvetica,sans-Serif" font-size="10.00" fill="#000000"> </text>
</g>
<!-- Node14&#45;&gt;Node3 -->
<g id="edge12" class="edge">
<title>Node14&#45;&gt;Node3</title>
<path fill="none" stroke="#404040" d="M1316.8127,-506.8107C1313.7868,-462.9072 1303.0543,-377.8567 1265,-318 1242.0083,-281.8358 1208.8188,-249.3072 1176.2159,-222.7221"/>
<polygon fill="none" stroke="#404040" points="1175.9614,-222.5186 1168.7772,-221.8962 1166.5885,-215.0252 1173.7728,-215.6476 1175.9614,-222.5186"/>
<text text-anchor="middle" x="1315.5" y="-343" font-family="Helvetica,sans-Serif" font-size="10.00" fill="#000000"> #mDBGFlags</text>
<text text-anchor="middle" x="1315.5" y="-332" font-family="Helvetica,sans-Serif" font-size="10.00" fill="#000000">#mROframe</text>
<text text-anchor="middle" x="1315.5" y="-321" font-family="Helvetica,sans-Serif" font-size="10.00" fill="#000000">#mIsGPU</text>
</g>
<!-- Node15 -->
<g id="node13" class="node">
<title>Node15</title>
<polygon fill="none" stroke="#bfbfbf" points="1366.5,-507 1366.5,-564 1409.5,-564 1409.5,-507 1366.5,-507"/>
<text text-anchor="middle" x="1388" y="-552" font-family="Helvetica,sans-Serif" font-size="10.00" fill="#000000">const</text>
<polyline fill="none" stroke="#bfbfbf" points="1366.5,-545 1409.5,-545 "/>
<text text-anchor="middle" x="1388" y="-533" font-family="Helvetica,sans-Serif" font-size="10.00" fill="#000000"> </text>
<polyline fill="none" stroke="#bfbfbf" points="1366.5,-526 1409.5,-526 "/>
<text text-anchor="middle" x="1388" y="-514" font-family="Helvetica,sans-Serif" font-size="10.00" fill="#000000"> </text>
</g>
<!-- Node15&#45;&gt;Node3 -->
<g id="edge13" class="edge">
<title>Node15&#45;&gt;Node3</title>
<path fill="none" stroke="#404040" d="M1390.8553,-506.9996C1393.8124,-462.5947 1393.4474,-375.9861 1354,-318 1312.149,-256.4808 1239.6881,-214.2648 1178.1771,-187.5382"/>
<polygon fill="none" stroke="#404040" points="1177.877,-187.4111 1170.7916,-188.7517 1166.829,-182.7269 1173.9144,-181.3863 1177.877,-187.4111"/>
<text text-anchor="middle" x="1382.5" y="-332" font-family="Helvetica,sans-Serif" font-size="10.00" fill="#000000"> +int</text>
</g>
<!-- Node16 -->
<g id="node14" class="node">
<title>Node16</title>
<polygon fill="none" stroke="#bfbfbf" points="1427.5,-507 1427.5,-564 1586.5,-564 1586.5,-507 1427.5,-507"/>
<text text-anchor="middle" x="1507" y="-552" font-family="Helvetica,sans-Serif" font-size="10.00" fill="#000000">vector&lt; o2::its::lightVertex &gt;</text>
<polyline fill="none" stroke="#bfbfbf" points="1427.5,-545 1586.5,-545 "/>
<text text-anchor="middle" x="1507" y="-533" font-family="Helvetica,sans-Serif" font-size="10.00" fill="#000000"> </text>
<polyline fill="none" stroke="#bfbfbf" points="1427.5,-526 1586.5,-526 "/>
<text text-anchor="middle" x="1507" y="-514" font-family="Helvetica,sans-Serif" font-size="10.00" fill="#000000"> </text>
</g>
<!-- Node16&#45;&gt;Node3 -->
<g id="edge14" class="edge">
<title>Node16&#45;&gt;Node3</title>
<path fill="none" stroke="#404040" d="M1499.136,-506.6376C1485.5117,-461.3507 1453.611,-373.093 1399,-318 1337.5453,-256.003 1248.4513,-212.5782 1178.1743,-185.4294"/>
<polygon fill="none" stroke="#404040" points="1177.84,-185.3026 1170.8113,-186.9143 1166.6202,-181.0462 1173.6489,-179.4345 1177.84,-185.3026"/>
<text text-anchor="middle" x="1454.5" y="-332" font-family="Helvetica,sans-Serif" font-size="10.00" fill="#000000"> #mVertices</text>
</g>
<!-- Node17 -->
<g id="node15" class="node">
<title>Node17</title>
<polygon fill="none" stroke="#bfbfbf" points="1604.5,-490.5 1604.5,-580.5 1769.5,-580.5 1769.5,-490.5 1604.5,-490.5"/>
<text text-anchor="start" x="1612.5" y="-568.5" font-family="Helvetica,sans-Serif" font-size="10.00" fill="#000000">array&lt; std::vector</text>
<text text-anchor="start" x="1612.5" y="-557.5" font-family="Helvetica,sans-Serif" font-size="10.00" fill="#000000">&lt; o2::its::Cluster &gt;</text>
<text text-anchor="start" x="1612.5" y="-546.5" font-family="Helvetica,sans-Serif" font-size="10.00" fill="#000000">, constants::its::LayersNumber</text>
<text text-anchor="middle" x="1687" y="-535.5" font-family="Helvetica,sans-Serif" font-size="10.00" fill="#000000">Vertexer &gt;</text>
<polyline fill="none" stroke="#bfbfbf" points="1604.5,-528.5 1769.5,-528.5 "/>
<text text-anchor="middle" x="1687" y="-516.5" font-family="Helvetica,sans-Serif" font-size="10.00" fill="#000000"> </text>
<polyline fill="none" stroke="#bfbfbf" points="1604.5,-509.5 1769.5,-509.5 "/>
<text text-anchor="middle" x="1687" y="-497.5" font-family="Helvetica,sans-Serif" font-size="10.00" fill="#000000"> </text>
</g>
<!-- Node17&#45;&gt;Node3 -->
<g id="edge15" class="edge">
<title>Node17&#45;&gt;Node3</title>
<path fill="none" stroke="#404040" d="M1671.2835,-490.2325C1656.6328,-453.6019 1631.6553,-402.7325 1596,-369 1477.9529,-257.3187 1294.8897,-198.9068 1178.2856,-171.3115"/>
<polygon fill="none" stroke="#404040" points="1178.2011,-171.2919 1171.4516,-173.8304 1166.5124,-168.5765 1173.2619,-166.0379 1178.2011,-171.2919"/>
<text text-anchor="middle" x="1603.5" y="-332" font-family="Helvetica,sans-Serif" font-size="10.00" fill="#000000"> #mClusters</text>
</g>
<!-- Node18 -->
<g id="node16" class="node">
<title>Node18</title>
<polygon fill="none" stroke="#bfbfbf" points="1788,-496 1788,-575 1960,-575 1960,-496 1788,-496"/>
<text text-anchor="start" x="1796" y="-563" font-family="Helvetica,sans-Serif" font-size="10.00" fill="#000000">array&lt; std::array&lt;</text>
<text text-anchor="start" x="1796" y="-552" font-family="Helvetica,sans-Serif" font-size="10.00" fill="#000000"> int, ZBins *PhiBins</text>
<text text-anchor="middle" x="1874" y="-541" font-family="Helvetica,sans-Serif" font-size="10.00" fill="#000000">+1 &gt;, LayersNumberVertexer &gt;</text>
<polyline fill="none" stroke="#bfbfbf" points="1788,-534 1960,-534 "/>
<text text-anchor="middle" x="1874" y="-522" font-family="Helvetica,sans-Serif" font-size="10.00" fill="#000000"> </text>
<polyline fill="none" stroke="#bfbfbf" points="1788,-515 1960,-515 "/>
<text text-anchor="middle" x="1874" y="-503" font-family="Helvetica,sans-Serif" font-size="10.00" fill="#000000"> </text>
</g>
<!-- Node18&#45;&gt;Node3 -->
<g id="edge16" class="edge">
<title>Node18&#45;&gt;Node3</title>
<path fill="none" stroke="#404040" d="M1860.5794,-495.8687C1845.9875,-458.3489 1819.2287,-402.8621 1779,-369 1603.9005,-221.6117 1330.5446,-173.336 1178.8524,-157.5811"/>
<polygon fill="none" stroke="#404040" points="1178.7404,-157.5699 1172.3708,-160.9506 1166.8004,-156.3713 1173.1699,-152.9906 1178.7404,-157.5699"/>
<text text-anchor="middle" x="1786.5" y="-332" font-family="Helvetica,sans-Serif" font-size="10.00" fill="#000000"> #mIndexTables</text>
</g>
<!-- Node19 -->
<g id="node17" class="node">
<title>Node19</title>
<polygon fill="none" stroke="#bfbfbf" points="1978,-507 1978,-564 2122,-564 2122,-507 1978,-507"/>
<text text-anchor="middle" x="2050" y="-552" font-family="Helvetica,sans-Serif" font-size="10.00" fill="#000000">vector&lt; o2::its::Tracklet &gt;</text>
<polyline fill="none" stroke="#bfbfbf" points="1978,-545 2122,-545 "/>
<text text-anchor="middle" x="2050" y="-533" font-family="Helvetica,sans-Serif" font-size="10.00" fill="#000000"> </text>
<polyline fill="none" stroke="#bfbfbf" points="1978,-526 2122,-526 "/>
<text text-anchor="middle" x="2050" y="-514" font-family="Helvetica,sans-Serif" font-size="10.00" fill="#000000"> </text>
</g>
<!-- Node19&#45;&gt;Node3 -->
<g id="edge17" class="edge">
<title>Node19&#45;&gt;Node3</title>
<path fill="none" stroke="#404040" d="M2043.1655,-506.7379C2033.0052,-469.943 2010.4989,-406.5012 1969,-369 1852.8635,-264.0514 1393.2156,-192.1712 1178.9864,-163.6827"/>
<polygon fill="none" stroke="#404040" points="1178.6887,-163.6434 1172.2167,-166.8236 1166.7919,-162.0727 1173.2639,-158.8925 1178.6887,-163.6434"/>
<text text-anchor="middle" x="1966" y="-337.5" font-family="Helvetica,sans-Serif" font-size="10.00" fill="#000000"> #mComb12</text>
<text text-anchor="middle" x="1966" y="-326.5" font-family="Helvetica,sans-Serif" font-size="10.00" fill="#000000">#mComb01</text>
</g>
</g>
</svg>
        <g id="navigator" transform="translate(0 0)" fill="#404254">
                <rect fill="#f2f5e9" fill-opacity="0.5" stroke="#606060" stroke-width=".5" x="0" y="0" width="60" height="60"/>
                <use id="zoomplus" xlink:href="#zoomPlus" x="17" y="9" onmousedown="handleZoom(evt,'in')"/>
                <use id="zoomminus" xlink:href="#zoomMin" x="42" y="9" onmousedown="handleZoom(evt,'out')"/>
                <use id="reset" xlink:href="#resetDef" x="30" y="36" onmousedown="handleReset()"/>
                <g id="arrowUp" xlink:href="#dirArrow" transform="translate(30 24)" onmousedown="handlePan(0,-1)">
                  <use xlink:href="#rim" fill="#404040">
                        <set attributeName="fill" to="#808080" begin="arrowUp.mouseover" end="arrowUp.mouseout"/>
                  </use>
                  <path fill="none" stroke="white" stroke-width="1.5" d="M0,-3.0v7 M-2.5,-0.5L0,-3.0L2.5,-0.5"/>
                </g>
                <g id="arrowRight" xlink:href="#dirArrow" transform="rotate(90) translate(36 -43)" onmousedown="handlePan(1,0)">
                  <use xlink:href="#rim" fill="#404040">
                        <set attributeName="fill" to="#808080" begin="arrowRight.mouseover" end="arrowRight.mouseout"/>
                  </use>
                  <path fill="none" stroke="white" stroke-width="1.5" d="M0,-3.0v7 M-2.5,-0.5L0,-3.0L2.5,-0.5"/>
                </g>
                <g id="arrowDown" xlink:href="#dirArrow" transform="rotate(180) translate(-30 -48)" onmousedown="handlePan(0,1)">
                  <use xlink:href="#rim" fill="#404040">
                        <set attributeName="fill" to="#808080" begin="arrowDown.mouseover" end="arrowDown.mouseout"/>
                  </use>
                  <path fill="none" stroke="white" stroke-width="1.5" d="M0,-3.0v7 M-2.5,-0.5L0,-3.0L2.5,-0.5"/>
                </g>
                <g id="arrowLeft" xlink:href="#dirArrow" transform="rotate(270) translate(-36 17)" onmousedown="handlePan(-1,0)">
                  <use xlink:href="#rim" fill="#404040">
                        <set attributeName="fill" to="#808080" begin="arrowLeft.mouseover" end="arrowLeft.mouseout"/>
                  </use>
                  <path fill="none" stroke="white" stroke-width="1.5" d="M0,-3.0v7 M-2.5,-0.5L0,-3.0L2.5,-0.5"/>
                </g>
        </g>
        <svg viewBox="0 0 15 15" width="100%" height="30px" preserveAspectRatio="xMaxYMin meet">
         <g id="arrow_out" transform="scale(0.3 0.3)">
          <a xlink:href="classo2_1_1its_1_1VertexerTraits__coll__graph_org.svg" target="_base">
           <rect id="button" ry="5" rx="5" y="6" x="6" height="38" width="38"
                fill="#f2f5e9" fill-opacity="0.5" stroke="#606060" stroke-width="1.0"/>
           <path id="arrow"
             d="M 11.500037,31.436501 C 11.940474,20.09759 22.043105,11.32322 32.158766,21.979434 L 37.068811,17.246167 C 37.068811,17.246167 37.088388,32 37.088388,32 L 22.160133,31.978069 C 22.160133,31.978069 26.997745,27.140456 26.997745,27.140456 C 18.528582,18.264221 13.291696,25.230495 11.500037,31.436501 z"
             style="fill:#404040;"/>
          </a>
         </g>
        </svg>
</svg>
