<?xml version="1.0" encoding="UTF-8" standalone="no"?>
<!DOCTYPE svg PUBLIC "-//W3C//DTD SVG 1.1//EN"
 "http://www.w3.org/Graphics/SVG/1.1/DTD/svg11.dtd">
<!-- Generated by graphviz version 2.40.1 (20161225.0304)
 -->
<!-- Title: o2::framework::EndOfStreamContext Pages: 1 -->
<!--zoomable 606 -->
<svg id="main" version="1.1" xmlns="http://www.w3.org/2000/svg" xmlns:xlink="http://www.w3.org/1999/xlink" xml:space="preserve" onload="init(evt)">
<style type="text/css"><![CDATA[
.edge:hover path { stroke: red; }
.edge:hover polygon { stroke: red; fill: red; }
]]></style>
<script type="text/javascript"><![CDATA[
var edges = document.getElementsByTagName('g');
if (edges && edges.length) {
  for (var i=0;i<edges.length;i++) {
    if (edges[i].id.substr(0,4)=='edge') {
      edges[i].setAttribute('class','edge');
    }
  }
}
]]></script>
        <defs>
                <circle id="rim" cx="0" cy="0" r="7"/>
                <circle id="rim2" cx="0" cy="0" r="3.5"/>
                <g id="zoomPlus">
                        <use xlink:href="#rim" fill="#404040">
                                <set attributeName="fill" to="#808080" begin="zoomplus.mouseover" end="zoomplus.mouseout"/>
                        </use>
                        <path d="M-4,0h8M0,-4v8" fill="none" stroke="white" stroke-width="1.5" pointer-events="none"/>
                </g>
                <g id="zoomMin">
                        <use xlink:href="#rim" fill="#404040">
                                <set attributeName="fill" to="#808080" begin="zoomminus.mouseover" end="zoomminus.mouseout"/>
                        </use>
                        <path d="M-4,0h8" fill="none" stroke="white" stroke-width="1.5" pointer-events="none"/>
                </g>
                <g id="dirArrow">
                        <path fill="none" stroke="white" stroke-width="1.5" d="M0,-3.0v7 M-2.5,-0.5L0,-3.0L2.5,-0.5"/>
                </g>
               <g id="resetDef">
                       <use xlink:href="#rim2" fill="#404040">
                               <set attributeName="fill" to="#808080" begin="reset.mouseover" end="reset.mouseout"/>
                       </use>
               </g>
        </defs>

<script type="text/javascript">
var viewWidth = 1438;
var viewHeight = 606;
var sectionId = 'dynsection-0';
</script>
<script xlink:href="../../svgpan.js"/>
<svg id="graph" class="graph">
<g id="viewport">
<title>o2::framework::EndOfStreamContext</title>
<!-- Node1 -->
<g id="node1" class="node">
<title>Node1</title>
<polygon fill="#bfbfbf" stroke="#000000" points="591,-.5 591,-90.5 749,-90.5 749,-.5 591,-.5"/>
<text text-anchor="start" x="599" y="-78.5" font-family="Helvetica,sans-Serif" font-size="10.00" fill="#000000">o2::framework::EndOfStream</text>
<text text-anchor="middle" x="670" y="-67.5" font-family="Helvetica,sans-Serif" font-size="10.00" fill="#000000">Context</text>
<polyline fill="none" stroke="#000000" points="591,-60.5 749,-60.5 "/>
<text text-anchor="middle" x="670" y="-48.5" font-family="Helvetica,sans-Serif" font-size="10.00" fill="#000000"> </text>
<polyline fill="none" stroke="#000000" points="591,-41.5 749,-41.5 "/>
<text text-anchor="start" x="599" y="-29.5" font-family="Helvetica,sans-Serif" font-size="10.00" fill="#000000">+ EndOfStreamContext()</text>
<text text-anchor="start" x="599" y="-18.5" font-family="Helvetica,sans-Serif" font-size="10.00" fill="#000000">+ services()</text>
<text text-anchor="start" x="599" y="-7.5" font-family="Helvetica,sans-Serif" font-size="10.00" fill="#000000">+ outputs()</text>
</g>
<!-- Node2 -->
<g id="node2" class="node">
<title>Node2</title>
<g id="a_node2"><a xlink:href="../../df/d82/classo2_1_1framework_1_1DataAllocator.html" target="_top" xlink:title="{o2::framework::DataAllocator\n||+ DataAllocator()\l+ newChunk()\l+ newChunk()\l+ adoptChunk()\l+ make()\l+ make_boost()\l+ adopt()\l+ adopt()\l+ adopt()\l+ adopt()\l+ adopt()\l+ adopt_boost()\l+ snapshot()\l+ snapshot()\l+ make()\l+ adopt()\l+ getMemoryResource()\l+ makeVector()\l+ adoptContainer()\l+ adoptContainer()\l+ snapshot()\l+ isAllowed()\l+ findMessageHeader()\l+ findMessageHeader()\l}">
<polygon fill="none" stroke="#000000" points="545.5,-138.5 545.5,-448.5 706.5,-448.5 706.5,-138.5 545.5,-138.5"/>
<text text-anchor="middle" x="626" y="-436.5" font-family="Helvetica,sans-Serif" font-size="10.00" fill="#000000">o2::framework::DataAllocator</text>
<polyline fill="none" stroke="#000000" points="545.5,-429.5 706.5,-429.5 "/>
<text text-anchor="middle" x="626" y="-417.5" font-family="Helvetica,sans-Serif" font-size="10.00" fill="#000000"> </text>
<polyline fill="none" stroke="#000000" points="545.5,-410.5 706.5,-410.5 "/>
<text text-anchor="start" x="553.5" y="-398.5" font-family="Helvetica,sans-Serif" font-size="10.00" fill="#000000">+ DataAllocator()</text>
<text text-anchor="start" x="553.5" y="-387.5" font-family="Helvetica,sans-Serif" font-size="10.00" fill="#000000">+ newChunk()</text>
<text text-anchor="start" x="553.5" y="-376.5" font-family="Helvetica,sans-Serif" font-size="10.00" fill="#000000">+ newChunk()</text>
<text text-anchor="start" x="553.5" y="-365.5" font-family="Helvetica,sans-Serif" font-size="10.00" fill="#000000">+ adoptChunk()</text>
<text text-anchor="start" x="553.5" y="-354.5" font-family="Helvetica,sans-Serif" font-size="10.00" fill="#000000">+ make()</text>
<text text-anchor="start" x="553.5" y="-343.5" font-family="Helvetica,sans-Serif" font-size="10.00" fill="#000000">+ make_boost()</text>
<text text-anchor="start" x="553.5" y="-332.5" font-family="Helvetica,sans-Serif" font-size="10.00" fill="#000000">+ adopt()</text>
<text text-anchor="start" x="553.5" y="-321.5" font-family="Helvetica,sans-Serif" font-size="10.00" fill="#000000">+ adopt()</text>
<text text-anchor="start" x="553.5" y="-310.5" font-family="Helvetica,sans-Serif" font-size="10.00" fill="#000000">+ adopt()</text>
<text text-anchor="start" x="553.5" y="-299.5" font-family="Helvetica,sans-Serif" font-size="10.00" fill="#000000">+ adopt()</text>
<text text-anchor="start" x="553.5" y="-288.5" font-family="Helvetica,sans-Serif" font-size="10.00" fill="#000000">+ adopt()</text>
<text text-anchor="start" x="553.5" y="-277.5" font-family="Helvetica,sans-Serif" font-size="10.00" fill="#000000">+ adopt_boost()</text>
<text text-anchor="start" x="553.5" y="-266.5" font-family="Helvetica,sans-Serif" font-size="10.00" fill="#000000">+ snapshot()</text>
<text text-anchor="start" x="553.5" y="-255.5" font-family="Helvetica,sans-Serif" font-size="10.00" fill="#000000">+ snapshot()</text>
<text text-anchor="start" x="553.5" y="-244.5" font-family="Helvetica,sans-Serif" font-size="10.00" fill="#000000">+ make()</text>
<text text-anchor="start" x="553.5" y="-233.5" font-family="Helvetica,sans-Serif" font-size="10.00" fill="#000000">+ adopt()</text>
<text text-anchor="start" x="553.5" y="-222.5" font-family="Helvetica,sans-Serif" font-size="10.00" fill="#000000">+ getMemoryResource()</text>
<text text-anchor="start" x="553.5" y="-211.5" font-family="Helvetica,sans-Serif" font-size="10.00" fill="#000000">+ makeVector()</text>
<text text-anchor="start" x="553.5" y="-200.5" font-family="Helvetica,sans-Serif" font-size="10.00" fill="#000000">+ adoptContainer()</text>
<text text-anchor="start" x="553.5" y="-189.5" font-family="Helvetica,sans-Serif" font-size="10.00" fill="#000000">+ adoptContainer()</text>
<text text-anchor="start" x="553.5" y="-178.5" font-family="Helvetica,sans-Serif" font-size="10.00" fill="#000000">+ snapshot()</text>
<text text-anchor="start" x="553.5" y="-167.5" font-family="Helvetica,sans-Serif" font-size="10.00" fill="#000000">+ isAllowed()</text>
<text text-anchor="start" x="553.5" y="-156.5" font-family="Helvetica,sans-Serif" font-size="10.00" fill="#000000">+ findMessageHeader()</text>
<text text-anchor="start" x="553.5" y="-145.5" font-family="Helvetica,sans-Serif" font-size="10.00" fill="#000000">+ findMessageHeader()</text>
</a>
</g>
</g>
<!-- Node2&#45;&gt;Node1 -->
<g id="edge1" class="edge">
<title>Node2&#45;&gt;Node1</title>
<path fill="none" stroke="#404040" d="M653.5535,-138.1987C655.7681,-125.7162 657.9024,-113.6865 659.8583,-102.662"/>
<polygon fill="none" stroke="#404040" points="659.8893,-102.4871 656.999,-95.8806 661.9857,-90.6717 664.876,-97.2782 659.8893,-102.4871"/>
<text text-anchor="middle" x="690.5" y="-112" font-family="Helvetica,sans-Serif" font-size="10.00" fill="#000000"> +mAllocator</text>
</g>
<!-- Node3 -->
<g id="node3" class="node">
<title>Node3</title>
<g id="a_node3"><a xlink:href="../../dc/dba/structo2_1_1framework_1_1ServiceRegistry.html" target="_top" xlink:title="{o2::framework::ServiceRegistry\n||+ ServiceRegistry()\l+ ServiceRegistry()\l+ operator=()\l+ preProcessingCallbacks()\l+ postProcessingCallbacks()\l+ preDanglingCallbacks()\l+ postDanglingCallbacks()\l+ preEOSCallbacks()\l+ postEOSCallbacks()\l+ declareService()\l+ bindService()\l+ registerService()\l+ getPos()\l+ get()\l+ registerService()\l+ registerService()\l+ registerService()\l+ active()\l+ get()\l}">
<polygon fill="none" stroke="#000000" points="725,-166 725,-421 895,-421 895,-166 725,-166"/>
<text text-anchor="middle" x="810" y="-409" font-family="Helvetica,sans-Serif" font-size="10.00" fill="#000000">o2::framework::ServiceRegistry</text>
<polyline fill="none" stroke="#000000" points="725,-402 895,-402 "/>
<text text-anchor="middle" x="810" y="-390" font-family="Helvetica,sans-Serif" font-size="10.00" fill="#000000"> </text>
<polyline fill="none" stroke="#000000" points="725,-383 895,-383 "/>
<text text-anchor="start" x="733" y="-371" font-family="Helvetica,sans-Serif" font-size="10.00" fill="#000000">+ ServiceRegistry()</text>
<text text-anchor="start" x="733" y="-360" font-family="Helvetica,sans-Serif" font-size="10.00" fill="#000000">+ ServiceRegistry()</text>
<text text-anchor="start" x="733" y="-349" font-family="Helvetica,sans-Serif" font-size="10.00" fill="#000000">+ operator=()</text>
<text text-anchor="start" x="733" y="-338" font-family="Helvetica,sans-Serif" font-size="10.00" fill="#000000">+ preProcessingCallbacks()</text>
<text text-anchor="start" x="733" y="-327" font-family="Helvetica,sans-Serif" font-size="10.00" fill="#000000">+ postProcessingCallbacks()</text>
<text text-anchor="start" x="733" y="-316" font-family="Helvetica,sans-Serif" font-size="10.00" fill="#000000">+ preDanglingCallbacks()</text>
<text text-anchor="start" x="733" y="-305" font-family="Helvetica,sans-Serif" font-size="10.00" fill="#000000">+ postDanglingCallbacks()</text>
<text text-anchor="start" x="733" y="-294" font-family="Helvetica,sans-Serif" font-size="10.00" fill="#000000">+ preEOSCallbacks()</text>
<text text-anchor="start" x="733" y="-283" font-family="Helvetica,sans-Serif" font-size="10.00" fill="#000000">+ postEOSCallbacks()</text>
<text text-anchor="start" x="733" y="-272" font-family="Helvetica,sans-Serif" font-size="10.00" fill="#000000">+ declareService()</text>
<text text-anchor="start" x="733" y="-261" font-family="Helvetica,sans-Serif" font-size="10.00" fill="#000000">+ bindService()</text>
<text text-anchor="start" x="733" y="-250" font-family="Helvetica,sans-Serif" font-size="10.00" fill="#000000">+ registerService()</text>
<text text-anchor="start" x="733" y="-239" font-family="Helvetica,sans-Serif" font-size="10.00" fill="#000000">+ getPos()</text>
<text text-anchor="start" x="733" y="-228" font-family="Helvetica,sans-Serif" font-size="10.00" fill="#000000">+ get()</text>
<text text-anchor="start" x="733" y="-217" font-family="Helvetica,sans-Serif" font-size="10.00" fill="#000000">+ registerService()</text>
<text text-anchor="start" x="733" y="-206" font-family="Helvetica,sans-Serif" font-size="10.00" fill="#000000">+ registerService()</text>
<text text-anchor="start" x="733" y="-195" font-family="Helvetica,sans-Serif" font-size="10.00" fill="#000000">+ registerService()</text>
<text text-anchor="start" x="733" y="-184" font-family="Helvetica,sans-Serif" font-size="10.00" fill="#000000">+ active()</text>
<text text-anchor="start" x="733" y="-173" font-family="Helvetica,sans-Serif" font-size="10.00" fill="#000000">+ get()</text>
</a>
</g>
</g>
<!-- Node3&#45;&gt;Node1 -->
<g id="edge2" class="edge">
<title>Node3&#45;&gt;Node1</title>
<path fill="none" stroke="#404040" d="M758.7611,-165.7111C749.1661,-146.1778 738.4983,-126.6607 727,-109 725.1056,-106.0903 723.0802,-103.1811 720.9639,-100.2967"/>
<polygon fill="none" stroke="#404040" points="720.82,-100.1108 713.9844,-97.814 713.4754,-90.6209 720.311,-92.9176 720.82,-100.1108"/>
<text text-anchor="middle" x="763.5" y="-112" font-family="Helvetica,sans-Serif" font-size="10.00" fill="#000000"> +mServices</text>
</g>
<!-- Node4 -->
<g id="node4" class="node">
<title>Node4</title>
<polygon fill="none" stroke="#bfbfbf" points="0,-518.5 0,-597.5 162,-597.5 162,-518.5 0,-518.5"/>
<text text-anchor="start" x="8" y="-585.5" font-family="Helvetica,sans-Serif" font-size="10.00" fill="#000000">array&lt; o2::framework</text>
<text text-anchor="start" x="8" y="-574.5" font-family="Helvetica,sans-Serif" font-size="10.00" fill="#000000">::ServiceMeta, MAX_SERVICES</text>
<text text-anchor="middle" x="81" y="-563.5" font-family="Helvetica,sans-Serif" font-size="10.00" fill="#000000">+MAX_DISTANCE &gt;</text>
<polyline fill="none" stroke="#bfbfbf" points="0,-556.5 162,-556.5 "/>
<text text-anchor="middle" x="81" y="-544.5" font-family="Helvetica,sans-Serif" font-size="10.00" fill="#000000"> </text>
<polyline fill="none" stroke="#bfbfbf" points="0,-537.5 162,-537.5 "/>
<text text-anchor="middle" x="81" y="-525.5" font-family="Helvetica,sans-Serif" font-size="10.00" fill="#000000"> </text>
</g>
<!-- Node4&#45;&gt;Node3 -->
<g id="edge3" class="edge">
<title>Node4&#45;&gt;Node3</title>
<path fill="none" stroke="#404040" d="M140.3095,-518.3405C172.5036,-499.0502 213.8422,-477.7513 254,-467 303.6246,-453.7142 671.7539,-475.1036 716,-449 724.8854,-443.7579 733.0346,-437.3176 740.4908,-430.0706"/>
<polygon fill="none" stroke="#404040" points="740.6498,-429.9037 741.893,-422.8006 748.9279,-421.2162 747.6847,-428.3193 740.6498,-429.9037"/>
<text text-anchor="middle" x="297.5" y="-481" font-family="Helvetica,sans-Serif" font-size="10.00" fill="#000000"> +mServicesMeta</text>
</g>
<!-- Node5 -->
<g id="node5" class="node">
<title>Node5</title>
<polygon fill="none" stroke="#bfbfbf" points="180,-524 180,-592 368,-592 368,-524 180,-524"/>
<text text-anchor="start" x="188" y="-580" font-family="Helvetica,sans-Serif" font-size="10.00" fill="#000000">array&lt; unsigned int,</text>
<text text-anchor="middle" x="274" y="-569" font-family="Helvetica,sans-Serif" font-size="10.00" fill="#000000"> MAX_SERVICES+MAX_DISTANCE &gt;</text>
<polyline fill="none" stroke="#bfbfbf" points="180,-562 368,-562 "/>
<text text-anchor="middle" x="274" y="-550" font-family="Helvetica,sans-Serif" font-size="10.00" fill="#000000"> </text>
<polyline fill="none" stroke="#bfbfbf" points="180,-543 368,-543 "/>
<text text-anchor="middle" x="274" y="-531" font-family="Helvetica,sans-Serif" font-size="10.00" fill="#000000"> </text>
</g>
<!-- Node5&#45;&gt;Node3 -->
<g id="edge4" class="edge">
<title>Node5&#45;&gt;Node3</title>
<path fill="none" stroke="#404040" d="M311.3277,-523.9506C336.2109,-503.479 370.7236,-479.114 406,-467 471.264,-444.5881 656.9041,-484.6279 716,-449 724.7379,-443.732 732.7684,-437.3131 740.1307,-430.118"/>
<polygon fill="none" stroke="#404040" points="740.2055,-430.0392 741.4366,-422.9339 748.4688,-421.3375 747.2377,-428.4428 740.2055,-430.0392"/>
<text text-anchor="middle" x="446.5" y="-481" font-family="Helvetica,sans-Serif" font-size="10.00" fill="#000000"> +mServicesKey</text>
</g>
<!-- Node6 -->
<g id="node6" class="node">
<title>Node6</title>
<polygon fill="none" stroke="#bfbfbf" points="386,-524 386,-592 534,-592 534,-524 386,-524"/>
<text text-anchor="start" x="394" y="-580" font-family="Helvetica,sans-Serif" font-size="10.00" fill="#000000">vector&lt; o2::framework</text>
<text text-anchor="middle" x="460" y="-569" font-family="Helvetica,sans-Serif" font-size="10.00" fill="#000000">::ServiceDanglingHandle &gt;</text>
<polyline fill="none" stroke="#bfbfbf" points="386,-562 534,-562 "/>
<text text-anchor="middle" x="460" y="-550" font-family="Helvetica,sans-Serif" font-size="10.00" fill="#000000"> </text>
<polyline fill="none" stroke="#bfbfbf" points="386,-543 534,-543 "/>
<text text-anchor="middle" x="460" y="-531" font-family="Helvetica,sans-Serif" font-size="10.00" fill="#000000"> </text>
</g>
<!-- Node6&#45;&gt;Node3 -->
<g id="edge5" class="edge">
<title>Node6&#45;&gt;Node3</title>
<path fill="none" stroke="#404040" d="M474.9783,-523.6368C485.6204,-503.5876 501.9469,-479.7933 524,-467 598.136,-423.9927 643.3964,-494.5466 716,-449 724.3613,-443.7547 732.0829,-437.4686 739.1963,-430.4746"/>
<polygon fill="none" stroke="#404040" points="739.651,-429.9925 740.8572,-422.883 747.8837,-421.262 746.6775,-428.3715 739.651,-429.9925"/>
<text text-anchor="middle" x="585.5" y="-486.5" font-family="Helvetica,sans-Serif" font-size="10.00" fill="#000000"> +mPreDanglingHandles</text>
<text text-anchor="middle" x="585.5" y="-475.5" font-family="Helvetica,sans-Serif" font-size="10.00" fill="#000000">+mPostDanglingHandles</text>
</g>
<!-- Node7 -->
<g id="node7" class="node">
<title>Node7</title>
<polygon fill="none" stroke="#bfbfbf" points="552.5,-524 552.5,-592 709.5,-592 709.5,-524 552.5,-524"/>
<text text-anchor="start" x="560.5" y="-580" font-family="Helvetica,sans-Serif" font-size="10.00" fill="#000000">vector&lt; o2::framework</text>
<text text-anchor="middle" x="631" y="-569" font-family="Helvetica,sans-Serif" font-size="10.00" fill="#000000">::ServiceProcessingHandle &gt;</text>
<polyline fill="none" stroke="#bfbfbf" points="552.5,-562 709.5,-562 "/>
<text text-anchor="middle" x="631" y="-550" font-family="Helvetica,sans-Serif" font-size="10.00" fill="#000000"> </text>
<polyline fill="none" stroke="#bfbfbf" points="552.5,-543 709.5,-543 "/>
<text text-anchor="middle" x="631" y="-531" font-family="Helvetica,sans-Serif" font-size="10.00" fill="#000000"> </text>
</g>
<!-- Node7&#45;&gt;Node3 -->
<g id="edge6" class="edge">
<title>Node7&#45;&gt;Node3</title>
<path fill="none" stroke="#404040" d="M640.5822,-523.6999C647.3167,-504.9187 658.0242,-482.4025 674,-467 688.6204,-452.9043 700.6781,-462.3298 716,-449 722.5449,-443.306 728.7684,-437.041 734.664,-430.3933"/>
<polygon fill="none" stroke="#404040" points="734.7601,-430.2794 735.573,-423.1142 742.4996,-421.1087 741.6867,-428.2739 734.7601,-430.2794"/>
<text text-anchor="middle" x="740" y="-486.5" font-family="Helvetica,sans-Serif" font-size="10.00" fill="#000000"> +mPreProcessingHandles</text>
<text text-anchor="middle" x="740" y="-475.5" font-family="Helvetica,sans-Serif" font-size="10.00" fill="#000000">+mPostProcessingHandles</text>
</g>
<!-- Node8 -->
<g id="node8" class="node">
<title>Node8</title>
<polygon fill="none" stroke="#bfbfbf" points="728,-524 728,-592 892,-592 892,-524 728,-524"/>
<text text-anchor="start" x="736" y="-580" font-family="Helvetica,sans-Serif" font-size="10.00" fill="#000000">array&lt; void *, MAX</text>
<text text-anchor="middle" x="810" y="-569" font-family="Helvetica,sans-Serif" font-size="10.00" fill="#000000">_SERVICES+MAX_DISTANCE &gt;</text>
<polyline fill="none" stroke="#bfbfbf" points="728,-562 892,-562 "/>
<text text-anchor="middle" x="810" y="-550" font-family="Helvetica,sans-Serif" font-size="10.00" fill="#000000"> </text>
<polyline fill="none" stroke="#bfbfbf" points="728,-543 892,-543 "/>
<text text-anchor="middle" x="810" y="-531" font-family="Helvetica,sans-Serif" font-size="10.00" fill="#000000"> </text>
</g>
<!-- Node8&#45;&gt;Node3 -->
<g id="edge7" class="edge">
<title>Node8&#45;&gt;Node3</title>
<path fill="none" stroke="#404040" d="M810,-523.9627C810,-500.3112 810,-467.0587 810,-433.1552"/>
<polygon fill="none" stroke="#404040" points="810.0001,-433.1506 806,-427.1506 810,-421.1506 814,-427.1506 810.0001,-433.1506"/>
<text text-anchor="middle" x="855" y="-481" font-family="Helvetica,sans-Serif" font-size="10.00" fill="#000000"> +mServicesValue</text>
</g>
<!-- Node9 -->
<g id="node9" class="node">
<title>Node9</title>
<polygon fill="none" stroke="#bfbfbf" points="910,-524 910,-592 1040,-592 1040,-524 910,-524"/>
<text text-anchor="start" x="918" y="-580" font-family="Helvetica,sans-Serif" font-size="10.00" fill="#000000">vector&lt; o2::framework</text>
<text text-anchor="middle" x="975" y="-569" font-family="Helvetica,sans-Serif" font-size="10.00" fill="#000000">::ServiceSpec &gt;</text>
<polyline fill="none" stroke="#bfbfbf" points="910,-562 1040,-562 "/>
<text text-anchor="middle" x="975" y="-550" font-family="Helvetica,sans-Serif" font-size="10.00" fill="#000000"> </text>
<polyline fill="none" stroke="#bfbfbf" points="910,-543 1040,-543 "/>
<text text-anchor="middle" x="975" y="-531" font-family="Helvetica,sans-Serif" font-size="10.00" fill="#000000"> </text>
</g>
<!-- Node9&#45;&gt;Node3 -->
<g id="edge8" class="edge">
<title>Node9&#45;&gt;Node3</title>
<path fill="none" stroke="#404040" d="M953.7669,-523.9627C938.7549,-499.8981 917.5426,-465.8941 896.0109,-431.378"/>
<polygon fill="none" stroke="#404040" points="895.9822,-431.332 889.4127,-428.3584 889.6308,-421.1506 896.2003,-424.1242 895.9822,-431.332"/>
<text text-anchor="middle" x="960" y="-481" font-family="Helvetica,sans-Serif" font-size="10.00" fill="#000000"> +mSpecs</text>
</g>
<!-- Node10 -->
<g id="node10" class="node">
<title>Node10</title>
<polygon fill="none" stroke="#bfbfbf" points="1058,-524 1058,-592 1188,-592 1188,-524 1058,-524"/>
<text text-anchor="start" x="1066" y="-580" font-family="Helvetica,sans-Serif" font-size="10.00" fill="#000000">vector&lt; o2::framework</text>
<text text-anchor="middle" x="1123" y="-569" font-family="Helvetica,sans-Serif" font-size="10.00" fill="#000000">::ServiceEOSHandle &gt;</text>
<polyline fill="none" stroke="#bfbfbf" points="1058,-562 1188,-562 "/>
<text text-anchor="middle" x="1123" y="-550" font-family="Helvetica,sans-Serif" font-size="10.00" fill="#000000"> </text>
<polyline fill="none" stroke="#bfbfbf" points="1058,-543 1188,-543 "/>
<text text-anchor="middle" x="1123" y="-531" font-family="Helvetica,sans-Serif" font-size="10.00" fill="#000000"> </text>
</g>
<!-- Node10&#45;&gt;Node3 -->
<g id="edge9" class="edge">
<title>Node10&#45;&gt;Node3</title>
<path fill="none" stroke="#404040" d="M1082.7215,-523.9627C1037.9764,-486.151 964.1931,-423.8005 904.6472,-373.4814"/>
<polygon fill="none" stroke="#404040" points="904.385,-373.2598 897.2203,-372.4423 895.2193,-365.5144 902.3839,-366.3319 904.385,-373.2598"/>
<text text-anchor="middle" x="1096.5" y="-486.5" font-family="Helvetica,sans-Serif" font-size="10.00" fill="#000000"> +mPreEOSHandles</text>
<text text-anchor="middle" x="1096.5" y="-475.5" font-family="Helvetica,sans-Serif" font-size="10.00" fill="#000000">+mPostEOSHandles</text>
</g>
<!-- Node11 -->
<g id="node11" class="node">
<title>Node11</title>
<polygon fill="none" stroke="#bfbfbf" points="1206.5,-529.5 1206.5,-586.5 1235.5,-586.5 1235.5,-529.5 1206.5,-529.5"/>
<text text-anchor="middle" x="1221" y="-574.5" font-family="Helvetica,sans-Serif" font-size="10.00" fill="#000000">int</text>
<polyline fill="none" stroke="#bfbfbf" points="1206.5,-567.5 1235.5,-567.5 "/>
<text text-anchor="middle" x="1221" y="-555.5" font-family="Helvetica,sans-Serif" font-size="10.00" fill="#000000"> </text>
<polyline fill="none" stroke="#bfbfbf" points="1206.5,-548.5 1235.5,-548.5 "/>
<text text-anchor="middle" x="1221" y="-536.5" font-family="Helvetica,sans-Serif" font-size="10.00" fill="#000000"> </text>
</g>
<!-- Node11&#45;&gt;Node3 -->
<g id="edge10" class="edge">
<title>Node11&#45;&gt;Node3</title>
<path fill="none" stroke="#404040" d="M1206.2558,-531.6767C1203.3494,-527.0106 1200.2028,-522.2792 1197,-518 1178.53,-493.3225 1174.5568,-485.6303 1150,-467 1074.5785,-409.7807 977.4552,-362.3936 906.3376,-331.6836"/>
<polygon fill="none" stroke="#404040" points="906.1869,-331.6192 899.0972,-332.9367 895.1542,-326.899 902.244,-325.5815 906.1869,-331.6192"/>
<text text-anchor="middle" x="1240.5" y="-492" font-family="Helvetica,sans-Serif" font-size="10.00" fill="#000000"> +MAX_DISTANCE</text>
<text text-anchor="middle" x="1240.5" y="-481" font-family="Helvetica,sans-Serif" font-size="10.00" fill="#000000">+MAX_SERVICES</text>
<text text-anchor="middle" x="1240.5" y="-470" font-family="Helvetica,sans-Serif" font-size="10.00" fill="#000000">+MAX_SERVICES_MASK</text>
</g>
<!-- Node12 -->
<g id="node12" class="node">
<title>Node12</title>
<polygon fill="none" stroke="#bfbfbf" points="1289,-518.5 1289,-597.5 1429,-597.5 1429,-518.5 1289,-518.5"/>
<text text-anchor="start" x="1297" y="-585.5" font-family="Helvetica,sans-Serif" font-size="10.00" fill="#000000">array&lt; std::atomic</text>
<text text-anchor="start" x="1297" y="-574.5" font-family="Helvetica,sans-Serif" font-size="10.00" fill="#000000">&lt; bool &gt;, MAX_SERVICES</text>
<text text-anchor="middle" x="1359" y="-563.5" font-family="Helvetica,sans-Serif" font-size="10.00" fill="#000000">+MAX_DISTANCE &gt;</text>
<polyline fill="none" stroke="#bfbfbf" points="1289,-556.5 1429,-556.5 "/>
<text text-anchor="middle" x="1359" y="-544.5" font-family="Helvetica,sans-Serif" font-size="10.00" fill="#000000"> </text>
<polyline fill="none" stroke="#bfbfbf" points="1289,-537.5 1429,-537.5 "/>
<text text-anchor="middle" x="1359" y="-525.5" font-family="Helvetica,sans-Serif" font-size="10.00" fill="#000000"> </text>
</g>
<!-- Node12&#45;&gt;Node3 -->
<g id="edge11" class="edge">
<title>Node12&#45;&gt;Node3</title>
<path fill="none" stroke="#404040" d="M1341.6498,-518.2464C1332.1669,-500.4666 1318.881,-480.5152 1302,-467 1185.0729,-373.3859 1013.8954,-328.3168 907.355,-308.1393"/>
<polygon fill="none" stroke="#404040" points="907.1318,-308.0981 900.5044,-310.9404 895.3318,-305.916 901.9592,-303.0737 907.1318,-308.0981"/>
<text text-anchor="middle" x="1380" y="-481" font-family="Helvetica,sans-Serif" font-size="10.00" fill="#000000"> +mServicesBooked</text>
</g>
</g>
</svg>
        <g id="navigator" transform="translate(0 0)" fill="#404254">
                <rect fill="#f2f5e9" fill-opacity="0.5" stroke="#606060" stroke-width=".5" x="0" y="0" width="60" height="60"/>
                <use id="zoomplus" xlink:href="#zoomPlus" x="17" y="9" onmousedown="handleZoom(evt,'in')"/>
                <use id="zoomminus" xlink:href="#zoomMin" x="42" y="9" onmousedown="handleZoom(evt,'out')"/>
                <use id="reset" xlink:href="#resetDef" x="30" y="36" onmousedown="handleReset()"/>
                <g id="arrowUp" xlink:href="#dirArrow" transform="translate(30 24)" onmousedown="handlePan(0,-1)">
                  <use xlink:href="#rim" fill="#404040">
                        <set attributeName="fill" to="#808080" begin="arrowUp.mouseover" end="arrowUp.mouseout"/>
                  </use>
                  <path fill="none" stroke="white" stroke-width="1.5" d="M0,-3.0v7 M-2.5,-0.5L0,-3.0L2.5,-0.5"/>
                </g>
                <g id="arrowRight" xlink:href="#dirArrow" transform="rotate(90) translate(36 -43)" onmousedown="handlePan(1,0)">
                  <use xlink:href="#rim" fill="#404040">
                        <set attributeName="fill" to="#808080" begin="arrowRight.mouseover" end="arrowRight.mouseout"/>
                  </use>
                  <path fill="none" stroke="white" stroke-width="1.5" d="M0,-3.0v7 M-2.5,-0.5L0,-3.0L2.5,-0.5"/>
                </g>
                <g id="arrowDown" xlink:href="#dirArrow" transform="rotate(180) translate(-30 -48)" onmousedown="handlePan(0,1)">
                  <use xlink:href="#rim" fill="#404040">
                        <set attributeName="fill" to="#808080" begin="arrowDown.mouseover" end="arrowDown.mouseout"/>
                  </use>
                  <path fill="none" stroke="white" stroke-width="1.5" d="M0,-3.0v7 M-2.5,-0.5L0,-3.0L2.5,-0.5"/>
                </g>
                <g id="arrowLeft" xlink:href="#dirArrow" transform="rotate(270) translate(-36 17)" onmousedown="handlePan(-1,0)">
                  <use xlink:href="#rim" fill="#404040">
                        <set attributeName="fill" to="#808080" begin="arrowLeft.mouseover" end="arrowLeft.mouseout"/>
                  </use>
                  <path fill="none" stroke="white" stroke-width="1.5" d="M0,-3.0v7 M-2.5,-0.5L0,-3.0L2.5,-0.5"/>
                </g>
        </g>
        <svg viewBox="0 0 15 15" width="100%" height="30px" preserveAspectRatio="xMaxYMin meet">
         <g id="arrow_out" transform="scale(0.3 0.3)">
          <a xlink:href="classo2_1_1framework_1_1EndOfStreamContext__coll__graph_org.svg" target="_base">
           <rect id="button" ry="5" rx="5" y="6" x="6" height="38" width="38"
                fill="#f2f5e9" fill-opacity="0.5" stroke="#606060" stroke-width="1.0"/>
           <path id="arrow"
             d="M 11.500037,31.436501 C 11.940474,20.09759 22.043105,11.32322 32.158766,21.979434 L 37.068811,17.246167 C 37.068811,17.246167 37.088388,32 37.088388,32 L 22.160133,31.978069 C 22.160133,31.978069 26.997745,27.140456 26.997745,27.140456 C 18.528582,18.264221 13.291696,25.230495 11.500037,31.436501 z"
             style="fill:#404040;"/>
          </a>
         </g>
        </svg>
</svg>
