<?xml version="1.0" encoding="UTF-8" standalone="no"?>
<!DOCTYPE svg PUBLIC "-//W3C//DTD SVG 1.1//EN"
 "http://www.w3.org/Graphics/SVG/1.1/DTD/svg11.dtd">
<!-- Generated by graphviz version 2.40.1 (20161225.0304)
 -->
<!-- Title: TableMaker Pages: 1 -->
<svg width="2232pt" height="816pt"
 viewBox="0.00 0.00 2231.50 816.00" xmlns="http://www.w3.org/2000/svg" xmlns:xlink="http://www.w3.org/1999/xlink">
<g id="graph0" class="graph" transform="scale(1 1) rotate(0) translate(4 812)">
<title>TableMaker</title>
<!-- Node1 -->
<g id="node1" class="node">
<title>Node1</title>
<polygon fill="#bfbfbf" stroke="#000000" points="831,-.5 831,-79.5 954,-79.5 954,-.5 831,-.5"/>
<text text-anchor="middle" x="892.5" y="-67.5" font-family="Helvetica,sans-Serif" font-size="10.00" fill="#000000">TableMaker</text>
<polyline fill="none" stroke="#000000" points="831,-60.5 954,-60.5 "/>
<text text-anchor="middle" x="892.5" y="-48.5" font-family="Helvetica,sans-Serif" font-size="10.00" fill="#000000"> </text>
<polyline fill="none" stroke="#000000" points="831,-41.5 954,-41.5 "/>
<text text-anchor="start" x="839" y="-29.5" font-family="Helvetica,sans-Serif" font-size="10.00" fill="#000000">+ init()</text>
<text text-anchor="start" x="839" y="-18.5" font-family="Helvetica,sans-Serif" font-size="10.00" fill="#000000">+ process()</text>
<text text-anchor="start" x="839" y="-7.5" font-family="Helvetica,sans-Serif" font-size="10.00" fill="#000000">+ DefineHistograms()</text>
</g>
<!-- Node2 -->
<g id="node2" class="node">
<title>Node2</title>
<g id="a_node2"><a xlink:href="../../d6/d86/structo2_1_1framework_1_1Produces.html" target="_top" xlink:title="{o2::framework::Produces\l\&lt; ReducedTracksBarrelCov \&gt;\n||}">
<polygon fill="none" stroke="#000000" points="646,-188 646,-256 805,-256 805,-188 646,-188"/>
<text text-anchor="start" x="654" y="-244" font-family="Helvetica,sans-Serif" font-size="10.00" fill="#000000">o2::framework::Produces</text>
<text text-anchor="middle" x="725.5" y="-233" font-family="Helvetica,sans-Serif" font-size="10.00" fill="#000000">&lt; ReducedTracksBarrelCov &gt;</text>
<polyline fill="none" stroke="#000000" points="646,-226 805,-226 "/>
<text text-anchor="middle" x="725.5" y="-214" font-family="Helvetica,sans-Serif" font-size="10.00" fill="#000000"> </text>
<polyline fill="none" stroke="#000000" points="646,-207 805,-207 "/>
<text text-anchor="middle" x="725.5" y="-195" font-family="Helvetica,sans-Serif" font-size="10.00" fill="#000000"> </text>
</a>
</g>
</g>
<!-- Node2&#45;&gt;Node1 -->
<g id="edge1" class="edge">
<title>Node2&#45;&gt;Node1</title>
<path fill="none" stroke="#404040" d="M741.7599,-187.924C755.5995,-161.327 777.3665,-124.5568 803.5,-98 808.8482,-92.5652 814.7902,-87.3731 820.9948,-82.487"/>
<polygon fill="none" stroke="#404040" points="821.3031,-82.2564 823.7127,-75.4598 830.9133,-75.0699 828.5037,-81.8665 821.3031,-82.2564"/>
<text text-anchor="middle" x="846" y="-106.5" font-family="Helvetica,sans-Serif" font-size="10.00" fill="#000000"> +trackBarrelCov</text>
</g>
<!-- Node3 -->
<g id="node3" class="node">
<title>Node3</title>
<g id="a_node3"><a xlink:href="../../d6/d86/structo2_1_1framework_1_1Produces.html" target="_top" xlink:title="{o2::framework::Produces\&lt; T \&gt;\n||}">
<polygon fill="none" stroke="#000000" points="598,-403 598,-460 765,-460 765,-403 598,-403"/>
<text text-anchor="middle" x="681.5" y="-448" font-family="Helvetica,sans-Serif" font-size="10.00" fill="#000000">o2::framework::Produces&lt; T &gt;</text>
<polyline fill="none" stroke="#000000" points="598,-441 765,-441 "/>
<text text-anchor="middle" x="681.5" y="-429" font-family="Helvetica,sans-Serif" font-size="10.00" fill="#000000"> </text>
<polyline fill="none" stroke="#000000" points="598,-422 765,-422 "/>
<text text-anchor="middle" x="681.5" y="-410" font-family="Helvetica,sans-Serif" font-size="10.00" fill="#000000"> </text>
</a>
</g>
</g>
<!-- Node3&#45;&gt;Node2 -->
<g id="edge2" class="edge">
<title>Node3&#45;&gt;Node2</title>
<path fill="none" stroke="#ffa500" d="M678.2648,-392.8995C677.4324,-372.253 677.8392,-346.5144 682.5,-324 687.3697,-300.4768 697.7358,-275.6068 707.0697,-256.3135"/>
<polygon fill="#ffa500" stroke="#ffa500" points="674.7694,-393.0809 678.7783,-402.888 681.7602,-392.7215 674.7694,-393.0809"/>
<text text-anchor="middle" x="755.5" y="-327" font-family="Helvetica,sans-Serif" font-size="10.00" fill="#000000"> &lt; ReducedTracksBarrelCov &gt;</text>
</g>
<!-- Node4 -->
<g id="node4" class="node">
<title>Node4</title>
<g id="a_node4"><a xlink:href="../../d6/d86/structo2_1_1framework_1_1Produces.html" target="_top" xlink:title="{o2::framework::Produces\l\&lt; ReducedMuons \&gt;\n||}">
<polygon fill="none" stroke="#000000" points="823.5,-188 823.5,-256 961.5,-256 961.5,-188 823.5,-188"/>
<text text-anchor="start" x="831.5" y="-244" font-family="Helvetica,sans-Serif" font-size="10.00" fill="#000000">o2::framework::Produces</text>
<text text-anchor="middle" x="892.5" y="-233" font-family="Helvetica,sans-Serif" font-size="10.00" fill="#000000">&lt; ReducedMuons &gt;</text>
<polyline fill="none" stroke="#000000" points="823.5,-226 961.5,-226 "/>
<text text-anchor="middle" x="892.5" y="-214" font-family="Helvetica,sans-Serif" font-size="10.00" fill="#000000"> </text>
<polyline fill="none" stroke="#000000" points="823.5,-207 961.5,-207 "/>
<text text-anchor="middle" x="892.5" y="-195" font-family="Helvetica,sans-Serif" font-size="10.00" fill="#000000"> </text>
</a>
</g>
</g>
<!-- Node3&#45;&gt;Node4 -->
<g id="edge4" class="edge">
<title>Node3&#45;&gt;Node4</title>
<path fill="none" stroke="#ffa500" d="M746.9384,-397.6934C774.3808,-381.3311 805.2452,-359.8321 828.5,-335 850.1528,-311.8785 867.3159,-280.0995 878.3953,-256.1304"/>
<polygon fill="#ffa500" stroke="#ffa500" points="745.0298,-394.7549 738.1628,-402.823 748.5624,-400.7982 745.0298,-394.7549"/>
<text text-anchor="middle" x="888" y="-327" font-family="Helvetica,sans-Serif" font-size="10.00" fill="#000000"> &lt; ReducedMuons &gt;</text>
</g>
<!-- Node5 -->
<g id="node5" class="node">
<title>Node5</title>
<g id="a_node5"><a xlink:href="../../d6/d86/structo2_1_1framework_1_1Produces.html" target="_top" xlink:title="{o2::framework::Produces\l\&lt; ReducedEventsVtxCov \&gt;\n||}">
<polygon fill="none" stroke="#000000" points="980,-188 980,-256 1129,-256 1129,-188 980,-188"/>
<text text-anchor="start" x="988" y="-244" font-family="Helvetica,sans-Serif" font-size="10.00" fill="#000000">o2::framework::Produces</text>
<text text-anchor="middle" x="1054.5" y="-233" font-family="Helvetica,sans-Serif" font-size="10.00" fill="#000000">&lt; ReducedEventsVtxCov &gt;</text>
<polyline fill="none" stroke="#000000" points="980,-226 1129,-226 "/>
<text text-anchor="middle" x="1054.5" y="-214" font-family="Helvetica,sans-Serif" font-size="10.00" fill="#000000"> </text>
<polyline fill="none" stroke="#000000" points="980,-207 1129,-207 "/>
<text text-anchor="middle" x="1054.5" y="-195" font-family="Helvetica,sans-Serif" font-size="10.00" fill="#000000"> </text>
</a>
</g>
</g>
<!-- Node3&#45;&gt;Node5 -->
<g id="edge6" class="edge">
<title>Node3&#45;&gt;Node5</title>
<path fill="none" stroke="#ffa500" d="M774.8948,-407.5069C826.5326,-391.6925 890.3889,-367.7892 941.5,-335 974.8932,-313.5774 1006.239,-280.8288 1027.4051,-256.0919"/>
<polygon fill="#ffa500" stroke="#ffa500" points="773.6366,-404.2304 765.0697,-410.464 775.6541,-410.9334 773.6366,-404.2304"/>
<text text-anchor="middle" x="1023.5" y="-327" font-family="Helvetica,sans-Serif" font-size="10.00" fill="#000000"> &lt; ReducedEventsVtxCov &gt;</text>
</g>
<!-- Node6 -->
<g id="node6" class="node">
<title>Node6</title>
<g id="a_node6"><a xlink:href="../../d6/d86/structo2_1_1framework_1_1Produces.html" target="_top" xlink:title="{o2::framework::Produces\l\&lt; ReducedMuonsExtended \&gt;\n||}">
<polygon fill="none" stroke="#000000" points="1146.5,-188 1146.5,-256 1304.5,-256 1304.5,-188 1146.5,-188"/>
<text text-anchor="start" x="1154.5" y="-244" font-family="Helvetica,sans-Serif" font-size="10.00" fill="#000000">o2::framework::Produces</text>
<text text-anchor="middle" x="1225.5" y="-233" font-family="Helvetica,sans-Serif" font-size="10.00" fill="#000000">&lt; ReducedMuonsExtended &gt;</text>
<polyline fill="none" stroke="#000000" points="1146.5,-226 1304.5,-226 "/>
<text text-anchor="middle" x="1225.5" y="-214" font-family="Helvetica,sans-Serif" font-size="10.00" fill="#000000"> </text>
<polyline fill="none" stroke="#000000" points="1146.5,-207 1304.5,-207 "/>
<text text-anchor="middle" x="1225.5" y="-195" font-family="Helvetica,sans-Serif" font-size="10.00" fill="#000000"> </text>
</a>
</g>
</g>
<!-- Node3&#45;&gt;Node6 -->
<g id="edge8" class="edge">
<title>Node3&#45;&gt;Node6</title>
<path fill="none" stroke="#ffa500" d="M775.2297,-419.6068C861.2116,-406.4094 990.731,-380.6825 1095.5,-335 1135.932,-317.3704 1172.9291,-282.5431 1197.027,-256.1883"/>
<polygon fill="#ffa500" stroke="#ffa500" points="774.5917,-416.1633 765.2257,-421.1159 775.6359,-423.085 774.5917,-416.1633"/>
<text text-anchor="middle" x="1188" y="-327" font-family="Helvetica,sans-Serif" font-size="10.00" fill="#000000"> &lt; ReducedMuonsExtended &gt;</text>
</g>
<!-- Node7 -->
<g id="node7" class="node">
<title>Node7</title>
<g id="a_node7"><a xlink:href="../../d6/d86/structo2_1_1framework_1_1Produces.html" target="_top" xlink:title="{o2::framework::Produces\l\&lt; ReducedEventsExtended \&gt;\n||}">
<polygon fill="none" stroke="#000000" points="1322,-188 1322,-256 1481,-256 1481,-188 1322,-188"/>
<text text-anchor="start" x="1330" y="-244" font-family="Helvetica,sans-Serif" font-size="10.00" fill="#000000">o2::framework::Produces</text>
<text text-anchor="middle" x="1401.5" y="-233" font-family="Helvetica,sans-Serif" font-size="10.00" fill="#000000">&lt; ReducedEventsExtended &gt;</text>
<polyline fill="none" stroke="#000000" points="1322,-226 1481,-226 "/>
<text text-anchor="middle" x="1401.5" y="-214" font-family="Helvetica,sans-Serif" font-size="10.00" fill="#000000"> </text>
<polyline fill="none" stroke="#000000" points="1322,-207 1481,-207 "/>
<text text-anchor="middle" x="1401.5" y="-195" font-family="Helvetica,sans-Serif" font-size="10.00" fill="#000000"> </text>
</a>
</g>
</g>
<!-- Node3&#45;&gt;Node7 -->
<g id="edge10" class="edge">
<title>Node3&#45;&gt;Node7</title>
<path fill="none" stroke="#ffa500" d="M775.0858,-426.6489C892.5433,-418.1809 1098.704,-395.3729 1264.5,-335 1307.811,-319.2287 1347.2583,-283.3406 1372.5838,-256.21"/>
<polygon fill="#ffa500" stroke="#ffa500" points="774.7754,-423.162 765.0449,-427.3533 775.2654,-430.1448 774.7754,-423.162"/>
<text text-anchor="middle" x="1358.5" y="-327" font-family="Helvetica,sans-Serif" font-size="10.00" fill="#000000"> &lt; ReducedEventsExtended &gt;</text>
</g>
<!-- Node8 -->
<g id="node8" class="node">
<title>Node8</title>
<g id="a_node8"><a xlink:href="../../d6/d86/structo2_1_1framework_1_1Produces.html" target="_top" xlink:title="{o2::framework::Produces\l\&lt; ReducedTracksBarrelPID \&gt;\n||}">
<polygon fill="none" stroke="#000000" points="0,-188 0,-256 157,-256 157,-188 0,-188"/>
<text text-anchor="start" x="8" y="-244" font-family="Helvetica,sans-Serif" font-size="10.00" fill="#000000">o2::framework::Produces</text>
<text text-anchor="middle" x="78.5" y="-233" font-family="Helvetica,sans-Serif" font-size="10.00" fill="#000000">&lt; ReducedTracksBarrelPID &gt;</text>
<polyline fill="none" stroke="#000000" points="0,-226 157,-226 "/>
<text text-anchor="middle" x="78.5" y="-214" font-family="Helvetica,sans-Serif" font-size="10.00" fill="#000000"> </text>
<polyline fill="none" stroke="#000000" points="0,-207 157,-207 "/>
<text text-anchor="middle" x="78.5" y="-195" font-family="Helvetica,sans-Serif" font-size="10.00" fill="#000000"> </text>
</a>
</g>
</g>
<!-- Node3&#45;&gt;Node8 -->
<g id="edge12" class="edge">
<title>Node3&#45;&gt;Node8</title>
<path fill="none" stroke="#ffa500" d="M587.8612,-421.4084C460.746,-406.4222 241.5,-375.6275 172.5,-335 140.3949,-316.0964 114.3356,-282.0008 97.8685,-256.19"/>
<polygon fill="#ffa500" stroke="#ffa500" points="587.6423,-424.9066 597.981,-422.5911 588.4548,-417.9539 587.6423,-424.9066"/>
<text text-anchor="middle" x="244.5" y="-327" font-family="Helvetica,sans-Serif" font-size="10.00" fill="#000000"> &lt; ReducedTracksBarrelPID &gt;</text>
</g>
<!-- Node9 -->
<g id="node9" class="node">
<title>Node9</title>
<g id="a_node9"><a xlink:href="../../d6/d86/structo2_1_1framework_1_1Produces.html" target="_top" xlink:title="{o2::framework::Produces\l\&lt; ReducedTracks \&gt;\n||}">
<polygon fill="none" stroke="#000000" points="175.5,-188 175.5,-256 313.5,-256 313.5,-188 175.5,-188"/>
<text text-anchor="start" x="183.5" y="-244" font-family="Helvetica,sans-Serif" font-size="10.00" fill="#000000">o2::framework::Produces</text>
<text text-anchor="middle" x="244.5" y="-233" font-family="Helvetica,sans-Serif" font-size="10.00" fill="#000000">&lt; ReducedTracks &gt;</text>
<polyline fill="none" stroke="#000000" points="175.5,-226 313.5,-226 "/>
<text text-anchor="middle" x="244.5" y="-214" font-family="Helvetica,sans-Serif" font-size="10.00" fill="#000000"> </text>
<polyline fill="none" stroke="#000000" points="175.5,-207 313.5,-207 "/>
<text text-anchor="middle" x="244.5" y="-195" font-family="Helvetica,sans-Serif" font-size="10.00" fill="#000000"> </text>
</a>
</g>
</g>
<!-- Node3&#45;&gt;Node9 -->
<g id="edge14" class="edge">
<title>Node3&#45;&gt;Node9</title>
<path fill="none" stroke="#ffa500" d="M587.47,-421.8723C513.1035,-410.5914 409.3581,-386.3998 332.5,-335 302.5298,-314.9571 278.2784,-281.3668 262.8824,-256.0059"/>
<polygon fill="#ffa500" stroke="#ffa500" points="587.3609,-425.3936 597.7626,-423.3799 588.3755,-418.4675 587.3609,-425.3936"/>
<text text-anchor="middle" x="381.5" y="-327" font-family="Helvetica,sans-Serif" font-size="10.00" fill="#000000"> &lt; ReducedTracks &gt;</text>
</g>
<!-- Node10 -->
<g id="node10" class="node">
<title>Node10</title>
<g id="a_node10"><a xlink:href="../../d6/d86/structo2_1_1framework_1_1Produces.html" target="_top" xlink:title="{o2::framework::Produces\l\&lt; ReducedTracksBarrel \&gt;\n||}">
<polygon fill="none" stroke="#000000" points="331.5,-188 331.5,-256 471.5,-256 471.5,-188 331.5,-188"/>
<text text-anchor="start" x="339.5" y="-244" font-family="Helvetica,sans-Serif" font-size="10.00" fill="#000000">o2::framework::Produces</text>
<text text-anchor="middle" x="401.5" y="-233" font-family="Helvetica,sans-Serif" font-size="10.00" fill="#000000">&lt; ReducedTracksBarrel &gt;</text>
<polyline fill="none" stroke="#000000" points="331.5,-226 471.5,-226 "/>
<text text-anchor="middle" x="401.5" y="-214" font-family="Helvetica,sans-Serif" font-size="10.00" fill="#000000"> </text>
<polyline fill="none" stroke="#000000" points="331.5,-207 471.5,-207 "/>
<text text-anchor="middle" x="401.5" y="-195" font-family="Helvetica,sans-Serif" font-size="10.00" fill="#000000"> </text>
</a>
</g>
</g>
<!-- Node3&#45;&gt;Node10 -->
<g id="edge16" class="edge">
<title>Node3&#45;&gt;Node10</title>
<path fill="none" stroke="#ffa500" d="M588.2188,-413.1478C539.1597,-399.172 481.3154,-375.226 442.5,-335 421.7775,-313.5244 411.4128,-280.782 406.3003,-256.0609"/>
<polygon fill="#ffa500" stroke="#ffa500" points="587.3351,-416.5347 597.9052,-415.8119 589.1914,-409.7853 587.3351,-416.5347"/>
<text text-anchor="middle" x="506" y="-327" font-family="Helvetica,sans-Serif" font-size="10.00" fill="#000000"> &lt; ReducedTracksBarrel &gt;</text>
</g>
<!-- Node11 -->
<g id="node11" class="node">
<title>Node11</title>
<g id="a_node11"><a xlink:href="../../d6/d86/structo2_1_1framework_1_1Produces.html" target="_top" xlink:title="{o2::framework::Produces\l\&lt; ReducedEvents \&gt;\n||}">
<polygon fill="none" stroke="#000000" points="489.5,-188 489.5,-256 627.5,-256 627.5,-188 489.5,-188"/>
<text text-anchor="start" x="497.5" y="-244" font-family="Helvetica,sans-Serif" font-size="10.00" fill="#000000">o2::framework::Produces</text>
<text text-anchor="middle" x="558.5" y="-233" font-family="Helvetica,sans-Serif" font-size="10.00" fill="#000000">&lt; ReducedEvents &gt;</text>
<polyline fill="none" stroke="#000000" points="489.5,-226 627.5,-226 "/>
<text text-anchor="middle" x="558.5" y="-214" font-family="Helvetica,sans-Serif" font-size="10.00" fill="#000000"> </text>
<polyline fill="none" stroke="#000000" points="489.5,-207 627.5,-207 "/>
<text text-anchor="middle" x="558.5" y="-195" font-family="Helvetica,sans-Serif" font-size="10.00" fill="#000000"> </text>
</a>
</g>
</g>
<!-- Node3&#45;&gt;Node11 -->
<g id="edge18" class="edge">
<title>Node3&#45;&gt;Node11</title>
<path fill="none" stroke="#ffa500" d="M631.3445,-396.5645C611.5079,-380.1515 590.4041,-358.9221 577.5,-335 564.4194,-310.7506 559.9311,-279.665 558.5667,-256.2378"/>
<polygon fill="#ffa500" stroke="#ffa500" points="629.1675,-399.3051 639.1549,-402.8411 633.5524,-393.8487 629.1675,-399.3051"/>
<text text-anchor="middle" x="627.5" y="-327" font-family="Helvetica,sans-Serif" font-size="10.00" fill="#000000"> &lt; ReducedEvents &gt;</text>
</g>
<!-- Node4&#45;&gt;Node1 -->
<g id="edge3" class="edge">
<title>Node4&#45;&gt;Node1</title>
<path fill="none" stroke="#404040" d="M892.5,-187.7672C892.5,-160.7977 892.5,-122.7524 892.5,-92.0205"/>
<polygon fill="none" stroke="#404040" points="892.5001,-91.7825 888.5,-85.7825 892.5,-79.7825 896.5,-85.7825 892.5001,-91.7825"/>
<text text-anchor="middle" x="925.5" y="-106.5" font-family="Helvetica,sans-Serif" font-size="10.00" fill="#000000"> +muonBasic</text>
</g>
<!-- Node5&#45;&gt;Node1 -->
<g id="edge5" class="edge">
<title>Node5&#45;&gt;Node1</title>
<path fill="none" stroke="#404040" d="M1032.5094,-187.9214C1015.0227,-161.9969 989.1457,-126.1136 962.5,-98 959.2939,-94.6172 955.8959,-91.2431 952.3931,-87.9206"/>
<polygon fill="none" stroke="#404040" points="952.3685,-87.8981 945.2422,-86.7951 943.5195,-79.7928 950.6458,-80.8958 952.3685,-87.8981"/>
<text text-anchor="middle" x="1016" y="-106.5" font-family="Helvetica,sans-Serif" font-size="10.00" fill="#000000"> +eventVtxCov</text>
</g>
<!-- Node6&#45;&gt;Node1 -->
<g id="edge7" class="edge">
<title>Node6&#45;&gt;Node1</title>
<path fill="none" stroke="#404040" d="M1194.974,-187.9325C1179.1671,-171.5417 1158.9316,-152.3799 1138.5,-138 1085.8342,-100.9334 1017.1436,-75.088 965.737,-59.2824"/>
<polygon fill="none" stroke="#404040" points="965.5466,-59.2252 958.6491,-61.3288 954.0545,-55.771 960.9519,-53.6674 965.5466,-59.2252"/>
<text text-anchor="middle" x="1150" y="-106.5" font-family="Helvetica,sans-Serif" font-size="10.00" fill="#000000"> +muonExtended</text>
</g>
<!-- Node7&#45;&gt;Node1 -->
<g id="edge9" class="edge">
<title>Node7&#45;&gt;Node1</title>
<path fill="none" stroke="#404040" d="M1372.1175,-187.6255C1356.1974,-170.7573 1335.3433,-151.2659 1313.5,-138 1255.7343,-102.9177 1070.8451,-68.6889 966.3135,-51.4795"/>
<polygon fill="none" stroke="#404040" points="966.1311,-51.4498 959.5651,-54.4308 954.2879,-49.5164 960.854,-46.5354 966.1311,-51.4498"/>
<text text-anchor="middle" x="1308" y="-106.5" font-family="Helvetica,sans-Serif" font-size="10.00" fill="#000000"> +eventExtended</text>
</g>
<!-- Node8&#45;&gt;Node1 -->
<g id="edge11" class="edge">
<title>Node8&#45;&gt;Node1</title>
<path fill="none" stroke="#404040" d="M107.9425,-187.7237C123.8785,-170.8814 144.7286,-151.3836 166.5,-138 211.8861,-110.0997 227.4767,-109.4848 279.5,-98 380.4474,-75.7147 678.7646,-53.9964 818.5972,-44.709"/>
<polygon fill="none" stroke="#404040" points="818.8413,-44.693 824.5647,-40.3064 830.8152,-43.9024 825.0918,-48.289 818.8413,-44.693"/>
<text text-anchor="middle" x="320.5" y="-106.5" font-family="Helvetica,sans-Serif" font-size="10.00" fill="#000000"> +trackBarrelPID</text>
</g>
<!-- Node9&#45;&gt;Node1 -->
<g id="edge13" class="edge">
<title>Node9&#45;&gt;Node1</title>
<path fill="none" stroke="#404040" d="M269.3367,-187.6574C283.2565,-170.5886 301.9352,-150.9062 322.5,-138 404.1492,-86.7579 683.9654,-57.2529 818.7586,-45.7038"/>
<polygon fill="none" stroke="#404040" points="818.9908,-45.6843 824.633,-41.1936 830.9483,-44.6746 825.3061,-49.1653 818.9908,-45.6843"/>
<text text-anchor="middle" x="469" y="-106.5" font-family="Helvetica,sans-Serif" font-size="10.00" fill="#000000"> +trackBasic</text>
</g>
<!-- Node10&#45;&gt;Node1 -->
<g id="edge15" class="edge">
<title>Node10&#45;&gt;Node1</title>
<path fill="none" stroke="#404040" d="M426.8894,-187.9068C441.0518,-170.9062 459.9566,-151.2096 480.5,-138 535.9151,-102.3676 715.6561,-68.5967 818.4944,-51.5438"/>
<polygon fill="none" stroke="#404040" points="818.7997,-51.4937 824.0717,-46.5738 830.6409,-49.5481 825.3688,-54.468 818.7997,-51.4937"/>
<text text-anchor="middle" x="616.5" y="-106.5" font-family="Helvetica,sans-Serif" font-size="10.00" fill="#000000"> +trackBarrel</text>
</g>
<!-- Node11&#45;&gt;Node1 -->
<g id="edge17" class="edge">
<title>Node11&#45;&gt;Node1</title>
<path fill="none" stroke="#404040" d="M584.0478,-187.802C598.0278,-170.9804 616.5446,-151.4774 636.5,-138 692.5971,-100.1132 765.3899,-74.0733 819.0062,-58.412"/>
<polygon fill="none" stroke="#404040" points="819.288,-58.3316 823.9588,-52.8377 830.8266,-55.0361 826.1558,-60.5301 819.288,-58.3316"/>
<text text-anchor="middle" x="729.5" y="-106.5" font-family="Helvetica,sans-Serif" font-size="10.00" fill="#000000"> +event</text>
</g>
<!-- Node12 -->
<g id="node12" class="node">
<title>Node12</title>
<g id="a_node12"><a xlink:href="../../d4/d79/structo2_1_1framework_1_1OutputObj.html" target="_top" xlink:title="{o2::framework::OutputObj\l\&lt; HistogramManager \&gt;\n||+ spec()\l+ OutputObj()\l+ OutputObj()\l+ setObject()\l+ setObject()\l+ setObject()\l+ setHash()\l+ operator&#45;\&gt;()\l+ operator*()\l+ ref()\l}">
<polygon fill="none" stroke="#000000" points="1594,-138.5 1594,-305.5 1737,-305.5 1737,-138.5 1594,-138.5"/>
<text text-anchor="start" x="1602" y="-293.5" font-family="Helvetica,sans-Serif" font-size="10.00" fill="#000000">o2::framework::OutputObj</text>
<text text-anchor="middle" x="1665.5" y="-282.5" font-family="Helvetica,sans-Serif" font-size="10.00" fill="#000000">&lt; HistogramManager &gt;</text>
<polyline fill="none" stroke="#000000" points="1594,-275.5 1737,-275.5 "/>
<text text-anchor="middle" x="1665.5" y="-263.5" font-family="Helvetica,sans-Serif" font-size="10.00" fill="#000000"> </text>
<polyline fill="none" stroke="#000000" points="1594,-256.5 1737,-256.5 "/>
<text text-anchor="start" x="1602" y="-244.5" font-family="Helvetica,sans-Serif" font-size="10.00" fill="#000000">+ spec()</text>
<text text-anchor="start" x="1602" y="-233.5" font-family="Helvetica,sans-Serif" font-size="10.00" fill="#000000">+ OutputObj()</text>
<text text-anchor="start" x="1602" y="-222.5" font-family="Helvetica,sans-Serif" font-size="10.00" fill="#000000">+ OutputObj()</text>
<text text-anchor="start" x="1602" y="-211.5" font-family="Helvetica,sans-Serif" font-size="10.00" fill="#000000">+ setObject()</text>
<text text-anchor="start" x="1602" y="-200.5" font-family="Helvetica,sans-Serif" font-size="10.00" fill="#000000">+ setObject()</text>
<text text-anchor="start" x="1602" y="-189.5" font-family="Helvetica,sans-Serif" font-size="10.00" fill="#000000">+ setObject()</text>
<text text-anchor="start" x="1602" y="-178.5" font-family="Helvetica,sans-Serif" font-size="10.00" fill="#000000">+ setHash()</text>
<text text-anchor="start" x="1602" y="-167.5" font-family="Helvetica,sans-Serif" font-size="10.00" fill="#000000">+ operator&#45;&gt;()</text>
<text text-anchor="start" x="1602" y="-156.5" font-family="Helvetica,sans-Serif" font-size="10.00" fill="#000000">+ operator*()</text>
<text text-anchor="start" x="1602" y="-145.5" font-family="Helvetica,sans-Serif" font-size="10.00" fill="#000000">+ ref()</text>
</a>
</g>
</g>
<!-- Node12&#45;&gt;Node1 -->
<g id="edge19" class="edge">
<title>Node12&#45;&gt;Node1</title>
<path fill="none" stroke="#404040" d="M1593.8555,-184.3823C1562.6198,-168.8308 1525.2623,-151.3546 1490.5,-138 1310.4673,-68.8368 1081.626,-48.4748 966.1986,-42.4878"/>
<polygon fill="none" stroke="#404040" points="966.0261,-42.4794 959.8365,-46.1793 954.0406,-41.8889 960.2302,-38.189 966.0261,-42.4794"/>
<text text-anchor="middle" x="1456" y="-106.5" font-family="Helvetica,sans-Serif" font-size="10.00" fill="#000000"> +fHistMan</text>
</g>
<!-- Node13 -->
<g id="node13" class="node">
<title>Node13</title>
<polygon fill="none" stroke="#bfbfbf" points="1930.5,-403 1930.5,-460 2114.5,-460 2114.5,-403 1930.5,-403"/>
<text text-anchor="middle" x="2022.5" y="-448" font-family="Helvetica,sans-Serif" font-size="10.00" fill="#000000">shared_ptr&lt; HistogramManager &gt;</text>
<polyline fill="none" stroke="#bfbfbf" points="1930.5,-441 2114.5,-441 "/>
<text text-anchor="middle" x="2022.5" y="-429" font-family="Helvetica,sans-Serif" font-size="10.00" fill="#000000"> </text>
<polyline fill="none" stroke="#bfbfbf" points="1930.5,-422 2114.5,-422 "/>
<text text-anchor="middle" x="2022.5" y="-410" font-family="Helvetica,sans-Serif" font-size="10.00" fill="#000000"> </text>
</g>
<!-- Node13&#45;&gt;Node12 -->
<g id="edge20" class="edge">
<title>Node13&#45;&gt;Node12</title>
<path fill="none" stroke="#404040" d="M1997.2288,-402.8919C1973.0525,-377.5813 1934.1893,-341.9614 1892.5,-324 1835.8565,-299.5958 1808.2086,-331.21 1748.3086,-305.9428"/>
<polygon fill="none" stroke="#404040" points="1748.0362,-305.816 1740.9086,-306.9104 1737.1571,-300.7519 1744.2847,-299.6576 1748.0362,-305.816"/>
<text text-anchor="middle" x="1933.5" y="-327" font-family="Helvetica,sans-Serif" font-size="10.00" fill="#000000"> +object</text>
</g>
<!-- Node14 -->
<g id="node14" class="node">
<title>Node14</title>
<polygon fill="none" stroke="#bfbfbf" points="1741,-585 1741,-642 1880,-642 1880,-585 1741,-585"/>
<text text-anchor="middle" x="1810.5" y="-630" font-family="Helvetica,sans-Serif" font-size="10.00" fill="#000000">OutputObjHandlingPolicy</text>
<polyline fill="none" stroke="#bfbfbf" points="1741,-623 1880,-623 "/>
<text text-anchor="middle" x="1810.5" y="-611" font-family="Helvetica,sans-Serif" font-size="10.00" fill="#000000"> </text>
<polyline fill="none" stroke="#bfbfbf" points="1741,-604 1880,-604 "/>
<text text-anchor="middle" x="1810.5" y="-592" font-family="Helvetica,sans-Serif" font-size="10.00" fill="#000000"> </text>
</g>
<!-- Node14&#45;&gt;Node12 -->
<g id="edge21" class="edge">
<title>Node14&#45;&gt;Node12</title>
<path fill="none" stroke="#404040" d="M1811.5689,-584.899C1813.4321,-520.2959 1814.6383,-365.49 1785.5,-324 1776.1569,-310.6964 1765.7282,-315.0186 1747.4628,-305.4087"/>
<polygon fill="none" stroke="#404040" points="1747.3265,-305.3232 1740.1181,-305.5231 1737.1611,-298.9462 1744.3694,-298.7462 1747.3265,-305.3232"/>
<text text-anchor="middle" x="1832" y="-429" font-family="Helvetica,sans-Serif" font-size="10.00" fill="#000000"> +policy</text>
</g>
<!-- Node21 -->
<g id="node21" class="node">
<title>Node21</title>
<g id="a_node21"><a xlink:href="../../d4/d79/structo2_1_1framework_1_1OutputObj.html" target="_top" xlink:title="{o2::framework::OutputObj\&lt; T \&gt;\n||+ OutputObj()\l+ OutputObj()\l+ setObject()\l+ setObject()\l+ setObject()\l+ setHash()\l+ spec()\l+ operator&#45;\&gt;()\l+ operator*()\l+ ref()\l}">
<polygon fill="none" stroke="#000000" points="1591.5,-353.5 1591.5,-509.5 1763.5,-509.5 1763.5,-353.5 1591.5,-353.5"/>
<text text-anchor="middle" x="1677.5" y="-497.5" font-family="Helvetica,sans-Serif" font-size="10.00" fill="#000000">o2::framework::OutputObj&lt; T &gt;</text>
<polyline fill="none" stroke="#000000" points="1591.5,-490.5 1763.5,-490.5 "/>
<text text-anchor="middle" x="1677.5" y="-478.5" font-family="Helvetica,sans-Serif" font-size="10.00" fill="#000000"> </text>
<polyline fill="none" stroke="#000000" points="1591.5,-471.5 1763.5,-471.5 "/>
<text text-anchor="start" x="1599.5" y="-459.5" font-family="Helvetica,sans-Serif" font-size="10.00" fill="#000000">+ OutputObj()</text>
<text text-anchor="start" x="1599.5" y="-448.5" font-family="Helvetica,sans-Serif" font-size="10.00" fill="#000000">+ OutputObj()</text>
<text text-anchor="start" x="1599.5" y="-437.5" font-family="Helvetica,sans-Serif" font-size="10.00" fill="#000000">+ setObject()</text>
<text text-anchor="start" x="1599.5" y="-426.5" font-family="Helvetica,sans-Serif" font-size="10.00" fill="#000000">+ setObject()</text>
<text text-anchor="start" x="1599.5" y="-415.5" font-family="Helvetica,sans-Serif" font-size="10.00" fill="#000000">+ setObject()</text>
<text text-anchor="start" x="1599.5" y="-404.5" font-family="Helvetica,sans-Serif" font-size="10.00" fill="#000000">+ setHash()</text>
<text text-anchor="start" x="1599.5" y="-393.5" font-family="Helvetica,sans-Serif" font-size="10.00" fill="#000000">+ spec()</text>
<text text-anchor="start" x="1599.5" y="-382.5" font-family="Helvetica,sans-Serif" font-size="10.00" fill="#000000">+ operator&#45;&gt;()</text>
<text text-anchor="start" x="1599.5" y="-371.5" font-family="Helvetica,sans-Serif" font-size="10.00" fill="#000000">+ operator*()</text>
<text text-anchor="start" x="1599.5" y="-360.5" font-family="Helvetica,sans-Serif" font-size="10.00" fill="#000000">+ ref()</text>
</a>
</g>
</g>
<!-- Node14&#45;&gt;Node21 -->
<g id="edge30" class="edge">
<title>Node14&#45;&gt;Node21</title>
<path fill="none" stroke="#404040" d="M1782.983,-584.7346C1770.659,-571.2868 1756.2823,-554.7866 1744.5,-539 1739.9682,-532.928 1735.4427,-526.5433 1731.0038,-520.04"/>
<polygon fill="none" stroke="#404040" points="1730.7899,-519.7207 1724.1273,-516.962 1724.1113,-509.7509 1730.7739,-512.5096 1730.7899,-519.7207"/>
<text text-anchor="middle" x="1765" y="-531" font-family="Helvetica,sans-Serif" font-size="10.00" fill="#000000"> +policy</text>
</g>
<!-- Node15 -->
<g id="node15" class="node">
<title>Node15</title>
<polygon fill="none" stroke="#bfbfbf" points="1672,-734 1672,-791 1701,-791 1701,-734 1672,-734"/>
<text text-anchor="middle" x="1686.5" y="-779" font-family="Helvetica,sans-Serif" font-size="10.00" fill="#000000">int</text>
<polyline fill="none" stroke="#bfbfbf" points="1672,-772 1701,-772 "/>
<text text-anchor="middle" x="1686.5" y="-760" font-family="Helvetica,sans-Serif" font-size="10.00" fill="#000000"> </text>
<polyline fill="none" stroke="#bfbfbf" points="1672,-753 1701,-753 "/>
<text text-anchor="middle" x="1686.5" y="-741" font-family="Helvetica,sans-Serif" font-size="10.00" fill="#000000"> </text>
</g>
<!-- Node15&#45;&gt;Node12 -->
<g id="edge22" class="edge">
<title>Node15&#45;&gt;Node12</title>
<path fill="none" stroke="#404040" d="M1671.8536,-760.337C1634.3947,-753.9903 1534.6059,-731.8074 1485.5,-670 1448.5207,-623.4558 1464.5311,-598.1393 1458.5,-539 1449.974,-455.3972 1449.6269,-425.2774 1492.5,-353 1514.0987,-316.5878 1550.0707,-286.9006 1583.6353,-265.0505"/>
<polygon fill="none" stroke="#404040" points="1583.8146,-264.9372 1586.747,-258.3492 1593.9561,-258.5223 1591.0236,-265.1102 1583.8146,-264.9372"/>
<text text-anchor="middle" x="1476.5" y="-531" font-family="Helvetica,sans-Serif" font-size="10.00" fill="#000000"> +label</text>
</g>
<!-- Node17 -->
<g id="node17" class="node">
<title>Node17</title>
<g id="a_node17"><a xlink:href="../../da/d96/structo2_1_1framework_1_1InputSpec.html" target="_top" xlink:title="{o2::framework::InputSpec\n||+ InputSpec()\l+ InputSpec()\l+ InputSpec()\l+ InputSpec()\l+ InputSpec()\l+ operator==()\l}">
<polygon fill="none" stroke="#000000" points="1898.5,-557.5 1898.5,-669.5 2040.5,-669.5 2040.5,-557.5 1898.5,-557.5"/>
<text text-anchor="middle" x="1969.5" y="-657.5" font-family="Helvetica,sans-Serif" font-size="10.00" fill="#000000">o2::framework::InputSpec</text>
<polyline fill="none" stroke="#000000" points="1898.5,-650.5 2040.5,-650.5 "/>
<text text-anchor="middle" x="1969.5" y="-638.5" font-family="Helvetica,sans-Serif" font-size="10.00" fill="#000000"> </text>
<polyline fill="none" stroke="#000000" points="1898.5,-631.5 2040.5,-631.5 "/>
<text text-anchor="start" x="1906.5" y="-619.5" font-family="Helvetica,sans-Serif" font-size="10.00" fill="#000000">+ InputSpec()</text>
<text text-anchor="start" x="1906.5" y="-608.5" font-family="Helvetica,sans-Serif" font-size="10.00" fill="#000000">+ InputSpec()</text>
<text text-anchor="start" x="1906.5" y="-597.5" font-family="Helvetica,sans-Serif" font-size="10.00" fill="#000000">+ InputSpec()</text>
<text text-anchor="start" x="1906.5" y="-586.5" font-family="Helvetica,sans-Serif" font-size="10.00" fill="#000000">+ InputSpec()</text>
<text text-anchor="start" x="1906.5" y="-575.5" font-family="Helvetica,sans-Serif" font-size="10.00" fill="#000000">+ InputSpec()</text>
<text text-anchor="start" x="1906.5" y="-564.5" font-family="Helvetica,sans-Serif" font-size="10.00" fill="#000000">+ operator==()</text>
</a>
</g>
</g>
<!-- Node15&#45;&gt;Node17 -->
<g id="edge27" class="edge">
<title>Node15&#45;&gt;Node17</title>
<path fill="none" stroke="#404040" d="M1701.2358,-756.8935C1733.7499,-744.299 1813.9841,-711.9891 1887.6005,-670.8365"/>
<polygon fill="none" stroke="#404040" points="1887.9716,-670.6259 1891.2149,-664.1853 1898.4075,-664.702 1895.1642,-671.1426 1887.9716,-670.6259"/>
<text text-anchor="middle" x="1875.5" y="-691" font-family="Helvetica,sans-Serif" font-size="10.00" fill="#000000"> +binding</text>
</g>
<!-- Node15&#45;&gt;Node21 -->
<g id="edge31" class="edge">
<title>Node15&#45;&gt;Node21</title>
<path fill="none" stroke="#404040" d="M1685.7249,-733.9926C1684.4572,-687.3718 1681.8885,-592.901 1679.9572,-521.8691"/>
<polygon fill="none" stroke="#404040" points="1679.955,-521.786 1675.7934,-515.897 1679.6287,-509.7904 1683.7904,-515.6795 1679.955,-521.786"/>
<text text-anchor="middle" x="1701.5" y="-611" font-family="Helvetica,sans-Serif" font-size="10.00" fill="#000000"> +label</text>
</g>
<!-- Node16 -->
<g id="node16" class="node">
<title>Node16</title>
<polygon fill="none" stroke="#bfbfbf" points="1494.5,-585 1494.5,-642 1532.5,-642 1532.5,-585 1494.5,-585"/>
<text text-anchor="middle" x="1513.5" y="-630" font-family="Helvetica,sans-Serif" font-size="10.00" fill="#000000">bool</text>
<polyline fill="none" stroke="#bfbfbf" points="1494.5,-623 1532.5,-623 "/>
<text text-anchor="middle" x="1513.5" y="-611" font-family="Helvetica,sans-Serif" font-size="10.00" fill="#000000"> </text>
<polyline fill="none" stroke="#bfbfbf" points="1494.5,-604 1532.5,-604 "/>
<text text-anchor="middle" x="1513.5" y="-592" font-family="Helvetica,sans-Serif" font-size="10.00" fill="#000000"> </text>
</g>
<!-- Node16&#45;&gt;Node12 -->
<g id="edge23" class="edge">
<title>Node16&#45;&gt;Node12</title>
<path fill="none" stroke="#404040" d="M1507.2647,-584.8753C1497.8969,-535.0885 1484.8347,-430.4653 1520.5,-353 1534.4647,-322.6686 1559.1253,-296.296 1584.193,-275.3216"/>
<polygon fill="none" stroke="#404040" points="1584.4696,-275.0978 1586.6184,-268.2143 1593.7989,-267.5503 1591.6501,-274.4338 1584.4696,-275.0978"/>
<text text-anchor="middle" x="1551.5" y="-429" font-family="Helvetica,sans-Serif" font-size="10.00" fill="#000000"> +isdangling</text>
</g>
<!-- Node16&#45;&gt;Node21 -->
<g id="edge33" class="edge">
<title>Node16&#45;&gt;Node21</title>
<path fill="none" stroke="#404040" d="M1529.2575,-584.7499C1534.1388,-575.852 1539.538,-566.0185 1544.5,-557 1551.596,-544.1028 1551.0999,-539.3283 1560.5,-528 1565.0056,-522.5703 1572.7525,-515.1846 1582.1861,-506.8999"/>
<polygon fill="none" stroke="#404040" points="1582.1863,-506.8997 1584.1226,-499.9534 1591.2793,-499.0691 1589.343,-506.0154 1582.1863,-506.8997"/>
<text text-anchor="middle" x="1591.5" y="-531" font-family="Helvetica,sans-Serif" font-size="10.00" fill="#000000"> +isdangling</text>
</g>
<!-- Node17&#45;&gt;Node12 -->
<g id="edge24" class="edge">
<title>Node17&#45;&gt;Node12</title>
<path fill="none" stroke="#404040" d="M1908.1693,-557.36C1903.4806,-551.4633 1899.1587,-545.3078 1895.5,-539 1853.1216,-465.9364 1906.9591,-420.7355 1856.5,-353 1826.8485,-313.1963 1795.9481,-331.36 1747.6652,-305.769"/>
<polygon fill="none" stroke="#404040" points="1747.4604,-305.6497 1740.2624,-306.0845 1737.0925,-299.6074 1744.2905,-299.1726 1747.4604,-305.6497"/>
<text text-anchor="middle" x="1899.5" y="-429" font-family="Helvetica,sans-Serif" font-size="10.00" fill="#000000"> +spec</text>
</g>
<!-- Node17&#45;&gt;Node21 -->
<g id="edge34" class="edge">
<title>Node17&#45;&gt;Node21</title>
<path fill="none" stroke="#404040" d="M1898.1889,-561.5972C1895.2928,-559.9826 1892.3906,-558.4428 1889.5,-557 1866.1089,-545.3247 1857.6358,-549.0459 1833.5,-539 1807.6238,-528.2297 1801.0715,-525.1645 1777.5,-510 1776.3631,-509.2686 1775.2233,-508.5272 1774.0815,-507.7768"/>
<polygon fill="none" stroke="#404040" points="1773.7109,-507.5262 1766.5,-507.478 1763.771,-500.8032 1770.982,-500.8514 1773.7109,-507.5262"/>
<text text-anchor="middle" x="1850.5" y="-531" font-family="Helvetica,sans-Serif" font-size="10.00" fill="#000000"> +spec</text>
</g>
<!-- Node18 -->
<g id="node18" class="node">
<title>Node18</title>
<polygon fill="none" stroke="#bfbfbf" points="1997.5,-734 1997.5,-791 2085.5,-791 2085.5,-734 1997.5,-734"/>
<text text-anchor="middle" x="2041.5" y="-779" font-family="Helvetica,sans-Serif" font-size="10.00" fill="#000000">enum Lifetime</text>
<polyline fill="none" stroke="#bfbfbf" points="1997.5,-772 2085.5,-772 "/>
<text text-anchor="middle" x="2041.5" y="-760" font-family="Helvetica,sans-Serif" font-size="10.00" fill="#000000"> </text>
<polyline fill="none" stroke="#bfbfbf" points="1997.5,-753 2085.5,-753 "/>
<text text-anchor="middle" x="2041.5" y="-741" font-family="Helvetica,sans-Serif" font-size="10.00" fill="#000000"> </text>
</g>
<!-- Node18&#45;&gt;Node17 -->
<g id="edge25" class="edge">
<title>Node18&#45;&gt;Node17</title>
<path fill="none" stroke="#404040" d="M2027.6177,-733.7713C2020.2733,-718.5726 2010.9238,-699.2243 2001.8819,-680.5125"/>
<polygon fill="none" stroke="#404040" points="2001.8322,-680.4096 1995.6201,-676.7476 1996.6111,-669.6049 2002.8232,-673.2669 2001.8322,-680.4096"/>
<text text-anchor="middle" x="2034.5" y="-691" font-family="Helvetica,sans-Serif" font-size="10.00" fill="#000000"> +lifetime</text>
</g>
<!-- Node19 -->
<g id="node19" class="node">
<title>Node19</title>
<polygon fill="none" stroke="#bfbfbf" points="1815.5,-717.5 1815.5,-807.5 1979.5,-807.5 1979.5,-717.5 1815.5,-717.5"/>
<text text-anchor="start" x="1823.5" y="-795.5" font-family="Helvetica,sans-Serif" font-size="10.00" fill="#000000">variant&lt; o2::framework</text>
<text text-anchor="start" x="1823.5" y="-784.5" font-family="Helvetica,sans-Serif" font-size="10.00" fill="#000000">::ConcreteDataMatcher,</text>
<text text-anchor="start" x="1823.5" y="-773.5" font-family="Helvetica,sans-Serif" font-size="10.00" fill="#000000"> o2::framework::data_matcher</text>
<text text-anchor="middle" x="1897.5" y="-762.5" font-family="Helvetica,sans-Serif" font-size="10.00" fill="#000000">::DataDescriptorMatcher &gt;</text>
<polyline fill="none" stroke="#bfbfbf" points="1815.5,-755.5 1979.5,-755.5 "/>
<text text-anchor="middle" x="1897.5" y="-743.5" font-family="Helvetica,sans-Serif" font-size="10.00" fill="#000000"> </text>
<polyline fill="none" stroke="#bfbfbf" points="1815.5,-736.5 1979.5,-736.5 "/>
<text text-anchor="middle" x="1897.5" y="-724.5" font-family="Helvetica,sans-Serif" font-size="10.00" fill="#000000"> </text>
</g>
<!-- Node19&#45;&gt;Node17 -->
<g id="edge26" class="edge">
<title>Node19&#45;&gt;Node17</title>
<path fill="none" stroke="#404040" d="M1919.2978,-717.3907C1924.9319,-705.7312 1931.1188,-692.9278 1937.1662,-680.4129"/>
<polygon fill="none" stroke="#404040" points="1937.2062,-680.33 1936.2152,-673.1873 1942.4273,-669.5254 1943.4184,-676.6681 1937.2062,-680.33"/>
<text text-anchor="middle" x="1959.5" y="-691" font-family="Helvetica,sans-Serif" font-size="10.00" fill="#000000"> +matcher</text>
</g>
<!-- Node20 -->
<g id="node20" class="node">
<title>Node20</title>
<polygon fill="none" stroke="#bfbfbf" points="2090,-585 2090,-642 2151,-642 2151,-585 2090,-585"/>
<text text-anchor="middle" x="2120.5" y="-630" font-family="Helvetica,sans-Serif" font-size="10.00" fill="#000000">unsigned</text>
<polyline fill="none" stroke="#bfbfbf" points="2090,-623 2151,-623 "/>
<text text-anchor="middle" x="2120.5" y="-611" font-family="Helvetica,sans-Serif" font-size="10.00" fill="#000000"> </text>
<polyline fill="none" stroke="#bfbfbf" points="2090,-604 2151,-604 "/>
<text text-anchor="middle" x="2120.5" y="-592" font-family="Helvetica,sans-Serif" font-size="10.00" fill="#000000"> </text>
</g>
<!-- Node20&#45;&gt;Node12 -->
<g id="edge28" class="edge">
<title>Node20&#45;&gt;Node12</title>
<path fill="none" stroke="#404040" d="M2131.5814,-584.8557C2149.8848,-532.1952 2179.192,-419.334 2123.5,-353 2075.624,-295.9756 2032.3354,-333.6036 1958.5,-324 1914.7278,-318.3067 1805.1194,-325.2621 1748.3496,-305.5376"/>
<polygon fill="none" stroke="#404040" points="1748.1807,-305.4682 1741.1109,-306.889 1737.0803,-300.9094 1744.1501,-299.4887 1748.1807,-305.4682"/>
<text text-anchor="middle" x="2189.5" y="-429" font-family="Helvetica,sans-Serif" font-size="10.00" fill="#000000"> +mTaskHash</text>
</g>
<!-- Node20&#45;&gt;Node21 -->
<g id="edge35" class="edge">
<title>Node20&#45;&gt;Node21</title>
<path fill="none" stroke="#404040" d="M2091.2869,-584.7831C2079.2481,-574.4905 2064.5921,-563.7693 2049.5,-557 2021.5159,-544.4483 1805.5255,-522.4589 1777.5,-510 1776.4853,-509.5489 1775.4718,-509.0852 1774.46,-508.6096"/>
<polygon fill="none" stroke="#404040" points="1774.3729,-508.565 1767.2087,-509.3857 1763.6956,-503.0882 1770.8599,-502.2675 1774.3729,-508.565"/>
<text text-anchor="middle" x="1983.5" y="-531" font-family="Helvetica,sans-Serif" font-size="10.00" fill="#000000"> +mTaskHash</text>
</g>
<!-- Node21&#45;&gt;Node12 -->
<g id="edge29" class="edge">
<title>Node21&#45;&gt;Node12</title>
<path fill="none" stroke="#ffa500" d="M1667.0618,-343.2285C1666.8542,-340.4554 1666.6658,-337.7073 1666.5,-335 1665.9183,-325.5027 1665.5211,-315.5481 1665.2594,-305.6504"/>
<polygon fill="#ffa500" stroke="#ffa500" points="1663.586,-343.6692 1667.8904,-353.3503 1670.5627,-343.098 1663.586,-343.6692"/>
<text text-anchor="middle" x="1726" y="-327" font-family="Helvetica,sans-Serif" font-size="10.00" fill="#000000"> &lt; HistogramManager &gt;</text>
</g>
<!-- Node22 -->
<g id="node22" class="node">
<title>Node22</title>
<polygon fill="none" stroke="#bfbfbf" points="1553,-585 1553,-642 1650,-642 1650,-585 1553,-585"/>
<text text-anchor="middle" x="1601.5" y="-630" font-family="Helvetica,sans-Serif" font-size="10.00" fill="#000000">shared_ptr&lt; T &gt;</text>
<polyline fill="none" stroke="#bfbfbf" points="1553,-623 1650,-623 "/>
<text text-anchor="middle" x="1601.5" y="-611" font-family="Helvetica,sans-Serif" font-size="10.00" fill="#000000"> </text>
<polyline fill="none" stroke="#bfbfbf" points="1553,-604 1650,-604 "/>
<text text-anchor="middle" x="1601.5" y="-592" font-family="Helvetica,sans-Serif" font-size="10.00" fill="#000000"> </text>
</g>
<!-- Node22&#45;&gt;Node21 -->
<g id="edge32" class="edge">
<title>Node22&#45;&gt;Node21</title>
<path fill="none" stroke="#404040" d="M1610.2775,-584.6668C1615.62,-567.9307 1622.87,-546.5557 1630.5,-528 1631.4689,-525.6437 1632.4684,-523.2638 1633.4924,-520.8696"/>
<polygon fill="none" stroke="#404040" points="1633.6179,-520.5835 1632.3667,-513.4818 1638.4409,-509.5954 1639.6921,-516.6971 1633.6179,-520.5835"/>
<text text-anchor="middle" x="1651.5" y="-531" font-family="Helvetica,sans-Serif" font-size="10.00" fill="#000000"> +object</text>
</g>
<!-- Node23 -->
<g id="node23" class="node">
<title>Node23</title>
<polygon fill="none" stroke="#bfbfbf" points="1755.5,-193.5 1755.5,-250.5 1799.5,-250.5 1799.5,-193.5 1755.5,-193.5"/>
<text text-anchor="middle" x="1777.5" y="-238.5" font-family="Helvetica,sans-Serif" font-size="10.00" fill="#000000">static</text>
<polyline fill="none" stroke="#bfbfbf" points="1755.5,-231.5 1799.5,-231.5 "/>
<text text-anchor="middle" x="1777.5" y="-219.5" font-family="Helvetica,sans-Serif" font-size="10.00" fill="#000000"> </text>
<polyline fill="none" stroke="#bfbfbf" points="1755.5,-212.5 1799.5,-212.5 "/>
<text text-anchor="middle" x="1777.5" y="-200.5" font-family="Helvetica,sans-Serif" font-size="10.00" fill="#000000"> </text>
</g>
<!-- Node23&#45;&gt;Node1 -->
<g id="edge36" class="edge">
<title>Node23&#45;&gt;Node1</title>
<path fill="none" stroke="#404040" d="M1774.3209,-193.1591C1770.7078,-174.5869 1762.989,-151.4776 1746.5,-138 1686.5448,-88.9945 1162.4751,-55.0353 966.2494,-43.9362"/>
<polygon fill="none" stroke="#404040" points="966.0657,-43.926 959.8511,-47.5836 954.0846,-43.2537 960.2993,-39.5962 966.0657,-43.926"/>
<text text-anchor="middle" x="1732" y="-112" font-family="Helvetica,sans-Serif" font-size="10.00" fill="#000000"> +fgTrackFillMap</text>
<text text-anchor="middle" x="1732" y="-101" font-family="Helvetica,sans-Serif" font-size="10.00" fill="#000000">+fgEventFillMap</text>
</g>
</g>
</svg>
