<?xml version="1.0" encoding="UTF-8" standalone="no"?>
<!DOCTYPE svg PUBLIC "-//W3C//DTD SVG 1.1//EN"
 "http://www.w3.org/Graphics/SVG/1.1/DTD/svg11.dtd">
<!-- Generated by graphviz version 2.40.1 (20161225.0304)
 -->
<!-- Title: GPUCA_NAMESPACE::gpu::CfUtils Pages: 1 -->
<svg width="310pt" height="369pt"
 viewBox="0.00 0.00 310.00 369.00" xmlns="http://www.w3.org/2000/svg" xmlns:xlink="http://www.w3.org/1999/xlink">
<g id="graph0" class="graph" transform="scale(1 1) rotate(0) translate(4 365)">
<title>GPUCA_NAMESPACE::gpu::CfUtils</title>
<!-- Node1 -->
<g id="node1" class="node">
<title>Node1</title>
<polygon fill="#bfbfbf" stroke="#000000" points="56,-.5 56,-167.5 196,-167.5 196,-.5 56,-.5"/>
<text text-anchor="start" x="64" y="-155.5" font-family="Helvetica,sans-Serif" font-size="10.00" fill="#000000">GPUCA_NAMESPACE::gpu</text>
<text text-anchor="middle" x="126" y="-144.5" font-family="Helvetica,sans-Serif" font-size="10.00" fill="#000000">::CfUtils</text>
<polyline fill="none" stroke="#000000" points="56,-137.5 196,-137.5 "/>
<text text-anchor="middle" x="126" y="-125.5" font-family="Helvetica,sans-Serif" font-size="10.00" fill="#000000"> </text>
<polyline fill="none" stroke="#000000" points="56,-118.5 196,-118.5 "/>
<text text-anchor="start" x="64" y="-106.5" font-family="Helvetica,sans-Serif" font-size="10.00" fill="#000000">+ GPUconstexprref()</text>
<text text-anchor="start" x="64" y="-95.5" font-family="Helvetica,sans-Serif" font-size="10.00" fill="#000000">+ GPUconstexprref()</text>
<text text-anchor="start" x="64" y="-84.5" font-family="Helvetica,sans-Serif" font-size="10.00" fill="#000000">+ GPUdi()</text>
<text text-anchor="start" x="64" y="-73.5" font-family="Helvetica,sans-Serif" font-size="10.00" fill="#000000">+ GPUdi()</text>
<text text-anchor="start" x="64" y="-62.5" font-family="Helvetica,sans-Serif" font-size="10.00" fill="#000000">+ GPUdi()</text>
<text text-anchor="start" x="64" y="-51.5" font-family="Helvetica,sans-Serif" font-size="10.00" fill="#000000">+ GPUdi()</text>
<text text-anchor="start" x="64" y="-40.5" font-family="Helvetica,sans-Serif" font-size="10.00" fill="#000000">+ GPUdi()</text>
<text text-anchor="start" x="64" y="-29.5" font-family="Helvetica,sans-Serif" font-size="10.00" fill="#000000">+ GPUdi()</text>
<text text-anchor="start" x="64" y="-18.5" font-family="Helvetica,sans-Serif" font-size="10.00" fill="#000000">+ GPUdi()</text>
<text text-anchor="start" x="64" y="-7.5" font-family="Helvetica,sans-Serif" font-size="10.00" fill="#000000">+ GPUdi()</text>
</g>
<!-- Node2 -->
<g id="node2" class="node">
<title>Node2</title>
<polygon fill="none" stroke="#bfbfbf" points="0,-303.5 0,-360.5 46,-360.5 46,-303.5 0,-303.5"/>
<text text-anchor="middle" x="23" y="-348.5" font-family="Helvetica,sans-Serif" font-size="10.00" fill="#000000">return</text>
<polyline fill="none" stroke="#bfbfbf" points="0,-341.5 46,-341.5 "/>
<text text-anchor="middle" x="23" y="-329.5" font-family="Helvetica,sans-Serif" font-size="10.00" fill="#000000"> </text>
<polyline fill="none" stroke="#bfbfbf" points="0,-322.5 46,-322.5 "/>
<text text-anchor="middle" x="23" y="-310.5" font-family="Helvetica,sans-Serif" font-size="10.00" fill="#000000"> </text>
</g>
<!-- Node2&#45;&gt;Node1 -->
<g id="edge1" class="edge">
<title>Node2&#45;&gt;Node1</title>
<path fill="none" stroke="#404040" d="M21.5632,-303.3104C21.1112,-272.9283 23.4883,-224.1774 40,-186 42.6435,-179.8879 45.7779,-173.8622 49.2596,-167.9805"/>
<polygon fill="none" stroke="#404040" points="49.4414,-167.694 49.2786,-160.4847 55.8707,-157.5616 56.0335,-164.7709 49.4414,-167.694"/>
<text text-anchor="middle" x="54.5" y="-233" font-family="Helvetica,sans-Serif" font-size="10.00" fill="#000000"> +pos</text>
</g>
<!-- Node3 -->
<g id="node3" class="node">
<title>Node3</title>
<polygon fill="none" stroke="#bfbfbf" points="64.5,-303.5 64.5,-360.5 93.5,-360.5 93.5,-303.5 64.5,-303.5"/>
<text text-anchor="middle" x="79" y="-348.5" font-family="Helvetica,sans-Serif" font-size="10.00" fill="#000000">*</text>
<polyline fill="none" stroke="#bfbfbf" points="64.5,-341.5 93.5,-341.5 "/>
<text text-anchor="middle" x="79" y="-329.5" font-family="Helvetica,sans-Serif" font-size="10.00" fill="#000000"> </text>
<polyline fill="none" stroke="#bfbfbf" points="64.5,-322.5 93.5,-322.5 "/>
<text text-anchor="middle" x="79" y="-310.5" font-family="Helvetica,sans-Serif" font-size="10.00" fill="#000000"> </text>
</g>
<!-- Node3&#45;&gt;Node1 -->
<g id="edge2" class="edge">
<title>Node3&#45;&gt;Node1</title>
<path fill="none" stroke="#404040" d="M75.7337,-303.3524C73.1464,-273.6309 71.2559,-225.9919 80,-186 80.4772,-183.8176 81.0043,-181.6254 81.5759,-179.4288"/>
<polygon fill="none" stroke="#404040" points="81.6479,-179.1833 79.4989,-172.2999 85.0263,-167.6687 87.1753,-174.5522 81.6479,-179.1833"/>
<text text-anchor="middle" x="115.5" y="-233" font-family="Helvetica,sans-Serif" font-size="10.00" fill="#000000"> +newPartSize</text>
</g>
<!-- Node4 -->
<g id="node4" class="node">
<title>Node4</title>
<polygon fill="none" stroke="#bfbfbf" points="142.5,-303.5 142.5,-360.5 203.5,-360.5 203.5,-303.5 142.5,-303.5"/>
<text text-anchor="middle" x="173" y="-348.5" font-family="Helvetica,sans-Serif" font-size="10.00" fill="#000000">unsigned</text>
<polyline fill="none" stroke="#bfbfbf" points="142.5,-341.5 203.5,-341.5 "/>
<text text-anchor="middle" x="173" y="-329.5" font-family="Helvetica,sans-Serif" font-size="10.00" fill="#000000"> </text>
<polyline fill="none" stroke="#bfbfbf" points="142.5,-322.5 203.5,-322.5 "/>
<text text-anchor="middle" x="173" y="-310.5" font-family="Helvetica,sans-Serif" font-size="10.00" fill="#000000"> </text>
</g>
<!-- Node4&#45;&gt;Node1 -->
<g id="edge3" class="edge">
<title>Node4&#45;&gt;Node1</title>
<path fill="none" stroke="#404040" d="M169.4627,-303.3318C165.6353,-273.796 158.9951,-226.4879 151,-186 150.5748,-183.8466 150.1342,-181.6701 149.6808,-179.4775"/>
<polygon fill="none" stroke="#404040" points="149.6582,-179.3717 144.4908,-174.342 147.1462,-167.6376 152.3136,-172.6673 149.6582,-179.3717"/>
<text text-anchor="middle" x="182" y="-244" font-family="Helvetica,sans-Serif" font-size="10.00" fill="#000000"> +lpos</text>
<text text-anchor="middle" x="182" y="-233" font-family="Helvetica,sans-Serif" font-size="10.00" fill="#000000">+pos</text>
<text text-anchor="middle" x="182" y="-222" font-family="Helvetica,sans-Serif" font-size="10.00" fill="#000000">+part</text>
</g>
<!-- Node5 -->
<g id="node5" class="node">
<title>Node5</title>
<polygon fill="none" stroke="#bfbfbf" points="222,-303.5 222,-360.5 266,-360.5 266,-303.5 222,-303.5"/>
<text text-anchor="middle" x="244" y="-348.5" font-family="Helvetica,sans-Serif" font-size="10.00" fill="#000000">static</text>
<polyline fill="none" stroke="#bfbfbf" points="222,-341.5 266,-341.5 "/>
<text text-anchor="middle" x="244" y="-329.5" font-family="Helvetica,sans-Serif" font-size="10.00" fill="#000000"> </text>
<polyline fill="none" stroke="#bfbfbf" points="222,-322.5 266,-322.5 "/>
<text text-anchor="middle" x="244" y="-310.5" font-family="Helvetica,sans-Serif" font-size="10.00" fill="#000000"> </text>
</g>
<!-- Node5&#45;&gt;Node1 -->
<g id="edge4" class="edge">
<title>Node5&#45;&gt;Node1</title>
<path fill="none" stroke="#404040" d="M238.9587,-303.4453C232.9009,-273.1759 221.095,-224.5182 202,-186 200.7172,-183.4124 199.3672,-180.823 197.9601,-178.2387"/>
<polygon fill="none" stroke="#404040" points="197.8602,-178.0649 191.4022,-174.8564 191.8801,-167.6611 198.3381,-170.8696 197.8602,-178.0649"/>
<text text-anchor="middle" x="268" y="-277" font-family="Helvetica,sans-Serif" font-size="10.00" fill="#000000"> +outerIdx</text>
<text text-anchor="middle" x="268" y="-266" font-family="Helvetica,sans-Serif" font-size="10.00" fill="#000000">+N</text>
<text text-anchor="middle" x="268" y="-255" font-family="Helvetica,sans-Serif" font-size="10.00" fill="#000000">+newPartSize</text>
<text text-anchor="middle" x="268" y="-244" font-family="Helvetica,sans-Serif" font-size="10.00" fill="#000000">+elems</text>
<text text-anchor="middle" x="268" y="-233" font-family="Helvetica,sans-Serif" font-size="10.00" fill="#000000">+ll</text>
<text text-anchor="middle" x="268" y="-222" font-family="Helvetica,sans-Serif" font-size="10.00" fill="#000000">+pred</text>
<text text-anchor="middle" x="268" y="-211" font-family="Helvetica,sans-Serif" font-size="10.00" fill="#000000">+offset</text>
<text text-anchor="middle" x="268" y="-200" font-family="Helvetica,sans-Serif" font-size="10.00" fill="#000000">+wgSize</text>
<text text-anchor="middle" x="268" y="-189" font-family="Helvetica,sans-Serif" font-size="10.00" fill="#000000">+partSize</text>
</g>
</g>
</svg>
