<?xml version="1.0" encoding="UTF-8" standalone="no"?>
<!DOCTYPE svg PUBLIC "-//W3C//DTD SVG 1.1//EN"
 "http://www.w3.org/Graphics/SVG/1.1/DTD/svg11.dtd">
<!-- Generated by graphviz version 2.40.1 (20161225.0304)
 -->
<!-- Title: o2::soa::FilteredIndexPolicy Pages: 1 -->
<svg width="162pt" height="453pt"
 viewBox="0.00 0.00 162.00 453.00" xmlns="http://www.w3.org/2000/svg" xmlns:xlink="http://www.w3.org/1999/xlink">
<g id="graph0" class="graph" transform="scale(1 1) rotate(0) translate(4 449)">
<title>o2::soa::FilteredIndexPolicy</title>
<!-- Node2 -->
<g id="node1" class="node">
<title>Node2</title>
<polygon fill="#bfbfbf" stroke="#000000" points="0,-.5 0,-244.5 150,-244.5 150,-.5 0,-.5"/>
<text text-anchor="middle" x="75" y="-232.5" font-family="Helvetica,sans-Serif" font-size="10.00" fill="#000000">o2::soa::FilteredIndexPolicy</text>
<polyline fill="none" stroke="#000000" points="0,-225.5 150,-225.5 "/>
<text text-anchor="middle" x="75" y="-213.5" font-family="Helvetica,sans-Serif" font-size="10.00" fill="#000000"> </text>
<polyline fill="none" stroke="#000000" points="0,-206.5 150,-206.5 "/>
<text text-anchor="start" x="8" y="-194.5" font-family="Helvetica,sans-Serif" font-size="10.00" fill="#000000">+ FilteredIndexPolicy()</text>
<text text-anchor="start" x="8" y="-183.5" font-family="Helvetica,sans-Serif" font-size="10.00" fill="#000000">+ FilteredIndexPolicy()</text>
<text text-anchor="start" x="8" y="-172.5" font-family="Helvetica,sans-Serif" font-size="10.00" fill="#000000">+ FilteredIndexPolicy()</text>
<text text-anchor="start" x="8" y="-161.5" font-family="Helvetica,sans-Serif" font-size="10.00" fill="#000000">+ FilteredIndexPolicy()</text>
<text text-anchor="start" x="8" y="-150.5" font-family="Helvetica,sans-Serif" font-size="10.00" fill="#000000">+ operator=()</text>
<text text-anchor="start" x="8" y="-139.5" font-family="Helvetica,sans-Serif" font-size="10.00" fill="#000000">+ operator=()</text>
<text text-anchor="start" x="8" y="-128.5" font-family="Helvetica,sans-Serif" font-size="10.00" fill="#000000">+ getIndices()</text>
<text text-anchor="start" x="8" y="-117.5" font-family="Helvetica,sans-Serif" font-size="10.00" fill="#000000">+ getOffsets()</text>
<text text-anchor="start" x="8" y="-106.5" font-family="Helvetica,sans-Serif" font-size="10.00" fill="#000000">+ limitRange()</text>
<text text-anchor="start" x="8" y="-95.5" font-family="Helvetica,sans-Serif" font-size="10.00" fill="#000000">+ setCursor()</text>
<text text-anchor="start" x="8" y="-84.5" font-family="Helvetica,sans-Serif" font-size="10.00" fill="#000000">+ moveByIndex()</text>
<text text-anchor="start" x="8" y="-73.5" font-family="Helvetica,sans-Serif" font-size="10.00" fill="#000000">+ operator!=()</text>
<text text-anchor="start" x="8" y="-62.5" font-family="Helvetica,sans-Serif" font-size="10.00" fill="#000000">+ operator==()</text>
<text text-anchor="start" x="8" y="-51.5" font-family="Helvetica,sans-Serif" font-size="10.00" fill="#000000">+ operator!=()</text>
<text text-anchor="start" x="8" y="-40.5" font-family="Helvetica,sans-Serif" font-size="10.00" fill="#000000">+ operator==()</text>
<text text-anchor="start" x="8" y="-29.5" font-family="Helvetica,sans-Serif" font-size="10.00" fill="#000000">+ moveToEnd()</text>
<text text-anchor="start" x="8" y="-18.5" font-family="Helvetica,sans-Serif" font-size="10.00" fill="#000000">+ getSelectionRow()</text>
<text text-anchor="start" x="8" y="-7.5" font-family="Helvetica,sans-Serif" font-size="10.00" fill="#000000">+ size()</text>
</g>
<!-- Node3 -->
<g id="node2" class="node">
<title>Node3</title>
<g id="a_node2"><a xlink:href="../../d9/d4f/structo2_1_1soa_1_1IndexPolicyBase.html" target="_top" xlink:title="{o2::soa::IndexPolicyBase\n||}">
<polygon fill="none" stroke="#000000" points="6,-282.5 6,-339.5 144,-339.5 144,-282.5 6,-282.5"/>
<text text-anchor="middle" x="75" y="-327.5" font-family="Helvetica,sans-Serif" font-size="10.00" fill="#000000">o2::soa::IndexPolicyBase</text>
<polyline fill="none" stroke="#000000" points="6,-320.5 144,-320.5 "/>
<text text-anchor="middle" x="75" y="-308.5" font-family="Helvetica,sans-Serif" font-size="10.00" fill="#000000"> </text>
<polyline fill="none" stroke="#000000" points="6,-301.5 144,-301.5 "/>
<text text-anchor="middle" x="75" y="-289.5" font-family="Helvetica,sans-Serif" font-size="10.00" fill="#000000"> </text>
</a>
</g>
</g>
<!-- Node3&#45;&gt;Node2 -->
<g id="edge1" class="edge">
<title>Node3&#45;&gt;Node2</title>
<path fill="none" stroke="#191970" d="M75,-272.2731C75,-263.8885 75,-254.5928 75,-244.8567"/>
<polygon fill="none" stroke="#191970" points="71.5001,-272.3709 75,-282.3709 78.5001,-272.3709 71.5001,-272.3709"/>
</g>
<!-- Node4 -->
<g id="node3" class="node">
<title>Node4</title>
<polygon fill="none" stroke="#bfbfbf" points="4,-387.5 4,-444.5 54,-444.5 54,-387.5 4,-387.5"/>
<text text-anchor="middle" x="29" y="-432.5" font-family="Helvetica,sans-Serif" font-size="10.00" fill="#000000">int64_t</text>
<polyline fill="none" stroke="#bfbfbf" points="4,-425.5 54,-425.5 "/>
<text text-anchor="middle" x="29" y="-413.5" font-family="Helvetica,sans-Serif" font-size="10.00" fill="#000000"> </text>
<polyline fill="none" stroke="#bfbfbf" points="4,-406.5 54,-406.5 "/>
<text text-anchor="middle" x="29" y="-394.5" font-family="Helvetica,sans-Serif" font-size="10.00" fill="#000000"> </text>
</g>
<!-- Node4&#45;&gt;Node3 -->
<g id="edge2" class="edge">
<title>Node4&#45;&gt;Node3</title>
<path fill="none" stroke="#404040" d="M25.3799,-387.421C25.2167,-377.7654 26.2436,-367.1267 30,-358 31.1851,-355.1207 32.6366,-352.3165 34.2835,-349.6048"/>
<polygon fill="none" stroke="#404040" points="34.4448,-349.3805 34.7021,-342.174 41.4533,-339.6398 41.196,-346.8463 34.4448,-349.3805"/>
<text text-anchor="middle" x="64.5" y="-361" font-family="Helvetica,sans-Serif" font-size="10.00" fill="#000000"> +mRowIndex</text>
</g>
<!-- Node5 -->
<g id="node4" class="node">
<title>Node5</title>
<polygon fill="none" stroke="#bfbfbf" points="90.5,-387.5 90.5,-444.5 151.5,-444.5 151.5,-387.5 90.5,-387.5"/>
<text text-anchor="middle" x="121" y="-432.5" font-family="Helvetica,sans-Serif" font-size="10.00" fill="#000000">unsigned</text>
<polyline fill="none" stroke="#bfbfbf" points="90.5,-425.5 151.5,-425.5 "/>
<text text-anchor="middle" x="121" y="-413.5" font-family="Helvetica,sans-Serif" font-size="10.00" fill="#000000"> </text>
<polyline fill="none" stroke="#bfbfbf" points="90.5,-406.5 151.5,-406.5 "/>
<text text-anchor="middle" x="121" y="-394.5" font-family="Helvetica,sans-Serif" font-size="10.00" fill="#000000"> </text>
</g>
<!-- Node5&#45;&gt;Node3 -->
<g id="edge3" class="edge">
<title>Node5&#45;&gt;Node3</title>
<path fill="none" stroke="#404040" d="M110.8717,-387.4274C107.3319,-377.9705 103.1905,-367.4514 99,-358 97.9138,-355.5501 96.7625,-353.0465 95.5751,-350.5334"/>
<polygon fill="none" stroke="#404040" points="95.4971,-350.3736 89.269,-346.7388 90.2287,-339.5919 96.4568,-343.2266 95.4971,-350.3736"/>
<text text-anchor="middle" x="128.5" y="-361" font-family="Helvetica,sans-Serif" font-size="10.00" fill="#000000"> +mOffset</text>
</g>
</g>
</svg>
