<?xml version="1.0" encoding="UTF-8" standalone="no"?>
<!DOCTYPE svg PUBLIC "-//W3C//DTD SVG 1.1//EN"
 "http://www.w3.org/Graphics/SVG/1.1/DTD/svg11.dtd">
<!-- Generated by graphviz version 2.40.1 (20161225.0304)
 -->
<!-- Title: __attribute__ Pages: 1 -->
<!--zoomable 677 -->
<svg id="main" version="1.1" xmlns="http://www.w3.org/2000/svg" xmlns:xlink="http://www.w3.org/1999/xlink" xml:space="preserve" onload="init(evt)">
<style type="text/css"><![CDATA[
.edge:hover path { stroke: red; }
.edge:hover polygon { stroke: red; fill: red; }
]]></style>
<script type="text/javascript"><![CDATA[
var edges = document.getElementsByTagName('g');
if (edges && edges.length) {
  for (var i=0;i<edges.length;i++) {
    if (edges[i].id.substr(0,4)=='edge') {
      edges[i].setAttribute('class','edge');
    }
  }
}
]]></script>
        <defs>
                <circle id="rim" cx="0" cy="0" r="7"/>
                <circle id="rim2" cx="0" cy="0" r="3.5"/>
                <g id="zoomPlus">
                        <use xlink:href="#rim" fill="#404040">
                                <set attributeName="fill" to="#808080" begin="zoomplus.mouseover" end="zoomplus.mouseout"/>
                        </use>
                        <path d="M-4,0h8M0,-4v8" fill="none" stroke="white" stroke-width="1.5" pointer-events="none"/>
                </g>
                <g id="zoomMin">
                        <use xlink:href="#rim" fill="#404040">
                                <set attributeName="fill" to="#808080" begin="zoomminus.mouseover" end="zoomminus.mouseout"/>
                        </use>
                        <path d="M-4,0h8" fill="none" stroke="white" stroke-width="1.5" pointer-events="none"/>
                </g>
                <g id="dirArrow">
                        <path fill="none" stroke="white" stroke-width="1.5" d="M0,-3.0v7 M-2.5,-0.5L0,-3.0L2.5,-0.5"/>
                </g>
               <g id="resetDef">
                       <use xlink:href="#rim2" fill="#404040">
                               <set attributeName="fill" to="#808080" begin="reset.mouseover" end="reset.mouseout"/>
                       </use>
               </g>
        </defs>

<script type="text/javascript">
var viewWidth = 1377;
var viewHeight = 677;
var sectionId = 'dynsection-0';
</script>
<script xlink:href="../../svgpan.js"/>
<svg id="graph" class="graph">
<g id="viewport">
<title>__attribute__</title>
<!-- Node1 -->
<g id="node1" class="node">
<title>Node1</title>
<polygon fill="#bfbfbf" stroke="#000000" points="632.5,-.5 632.5,-453.5 748.5,-453.5 748.5,-.5 632.5,-.5"/>
<text text-anchor="middle" x="690.5" y="-441.5" font-family="Helvetica,sans-Serif" font-size="10.00" fill="#000000">__attribute__</text>
<polyline fill="none" stroke="#000000" points="632.5,-434.5 748.5,-434.5 "/>
<text text-anchor="start" x="640.5" y="-422.5" font-family="Helvetica,sans-Serif" font-size="10.00" fill="#000000">+ TOFmagic</text>
<text text-anchor="start" x="640.5" y="-411.5" font-family="Helvetica,sans-Serif" font-size="10.00" fill="#000000">+ mbz</text>
<text text-anchor="start" x="640.5" y="-400.5" font-family="Helvetica,sans-Serif" font-size="10.00" fill="#000000">+ triggerRecvInOrbit</text>
<text text-anchor="start" x="640.5" y="-389.5" font-family="Helvetica,sans-Serif" font-size="10.00" fill="#000000">+ triggerServInOrbit</text>
<text text-anchor="start" x="640.5" y="-378.5" font-family="Helvetica,sans-Serif" font-size="10.00" fill="#000000">+ bytePayload</text>
<text text-anchor="start" x="640.5" y="-367.5" font-family="Helvetica,sans-Serif" font-size="10.00" fill="#000000">+ slotId</text>
<text text-anchor="start" x="640.5" y="-356.5" font-family="Helvetica,sans-Serif" font-size="10.00" fill="#000000">+ eventWords</text>
<text text-anchor="start" x="640.5" y="-345.5" font-family="Helvetica,sans-Serif" font-size="10.00" fill="#000000">+ drmId</text>
<text text-anchor="start" x="640.5" y="-334.5" font-family="Helvetica,sans-Serif" font-size="10.00" fill="#000000">+ drmGenData</text>
<text text-anchor="start" x="640.5" y="-323.5" font-family="Helvetica,sans-Serif" font-size="10.00" fill="#000000">+ mbza</text>
<text text-anchor="start" x="640.5" y="-312.5" font-family="Helvetica,sans-Serif" font-size="10.00" fill="#000000">+ clockStatus</text>
<text text-anchor="start" x="640.5" y="-301.5" font-family="Helvetica,sans-Serif" font-size="10.00" fill="#000000">+ drmhVersion</text>
<text text-anchor="start" x="640.5" y="-290.5" font-family="Helvetica,sans-Serif" font-size="10.00" fill="#000000">+ drmHSize</text>
<text text-anchor="start" x="640.5" y="-279.5" font-family="Helvetica,sans-Serif" font-size="10.00" fill="#000000">+ mbzb</text>
<text text-anchor="start" x="640.5" y="-268.5" font-family="Helvetica,sans-Serif" font-size="10.00" fill="#000000">+ enaSlotMask</text>
<text text-anchor="start" x="640.5" y="-257.5" font-family="Helvetica,sans-Serif" font-size="10.00" fill="#000000">+ gbtBunchCnt</text>
<text text-anchor="start" x="640.5" y="-246.5" font-family="Helvetica,sans-Serif" font-size="10.00" fill="#000000">+ locBunchCnt</text>
<text text-anchor="start" x="640.5" y="-235.5" font-family="Helvetica,sans-Serif" font-size="10.00" fill="#000000">+ tempValue</text>
<text text-anchor="start" x="640.5" y="-224.5" font-family="Helvetica,sans-Serif" font-size="10.00" fill="#000000">+ tempAddress</text>
<text text-anchor="start" x="640.5" y="-213.5" font-family="Helvetica,sans-Serif" font-size="10.00" fill="#000000">+ eventCRC</text>
<text text-anchor="start" x="640.5" y="-202.5" font-family="Helvetica,sans-Serif" font-size="10.00" fill="#000000">+ irq</text>
<text text-anchor="start" x="640.5" y="-191.5" font-family="Helvetica,sans-Serif" font-size="10.00" fill="#000000">+ locEvCnt</text>
<text text-anchor="start" x="640.5" y="-180.5" font-family="Helvetica,sans-Serif" font-size="10.00" fill="#000000">+ eventCnt</text>
<text text-anchor="start" x="640.5" y="-169.5" font-family="Helvetica,sans-Serif" font-size="10.00" fill="#000000">+ emptyBit</text>
<text text-anchor="start" x="640.5" y="-158.5" font-family="Helvetica,sans-Serif" font-size="10.00" fill="#000000">+ status</text>
<text text-anchor="start" x="640.5" y="-147.5" font-family="Helvetica,sans-Serif" font-size="10.00" fill="#000000">+ trailerMark</text>
<text text-anchor="start" x="640.5" y="-136.5" font-family="Helvetica,sans-Serif" font-size="10.00" fill="#000000">+ tempChain</text>
<text text-anchor="start" x="640.5" y="-125.5" font-family="Helvetica,sans-Serif" font-size="10.00" fill="#000000">+ time</text>
<text text-anchor="start" x="640.5" y="-114.5" font-family="Helvetica,sans-Serif" font-size="10.00" fill="#000000">+ chanId</text>
<text text-anchor="start" x="640.5" y="-103.5" font-family="Helvetica,sans-Serif" font-size="10.00" fill="#000000">+ tdcId</text>
<text text-anchor="start" x="640.5" y="-92.5" font-family="Helvetica,sans-Serif" font-size="10.00" fill="#000000">+ mbz0</text>
<text text-anchor="start" x="640.5" y="-81.5" font-family="Helvetica,sans-Serif" font-size="10.00" fill="#000000">+ pdl1</text>
<text text-anchor="start" x="640.5" y="-70.5" font-family="Helvetica,sans-Serif" font-size="10.00" fill="#000000">+ pdl2</text>
<text text-anchor="start" x="640.5" y="-59.5" font-family="Helvetica,sans-Serif" font-size="10.00" fill="#000000">+ pdl3</text>
<text text-anchor="start" x="640.5" y="-48.5" font-family="Helvetica,sans-Serif" font-size="10.00" fill="#000000">+ adc0</text>
<text text-anchor="start" x="640.5" y="-37.5" font-family="Helvetica,sans-Serif" font-size="10.00" fill="#000000">+ adc1</text>
<text text-anchor="start" x="640.5" y="-26.5" font-family="Helvetica,sans-Serif" font-size="10.00" fill="#000000">+ adc2</text>
<polyline fill="none" stroke="#000000" points="632.5,-19.5 748.5,-19.5 "/>
<text text-anchor="middle" x="690.5" y="-7.5" font-family="Helvetica,sans-Serif" font-size="10.00" fill="#000000"> </text>
</g>
<!-- Node2 -->
<g id="node2" class="node">
<title>Node2</title>
<polygon fill="none" stroke="#bfbfbf" points="0,-611.5 0,-668.5 89,-668.5 89,-611.5 0,-611.5"/>
<text text-anchor="middle" x="44.5" y="-656.5" font-family="Helvetica,sans-Serif" font-size="10.00" fill="#000000">DRMHeadW4_t</text>
<polyline fill="none" stroke="#bfbfbf" points="0,-649.5 89,-649.5 "/>
<text text-anchor="middle" x="44.5" y="-637.5" font-family="Helvetica,sans-Serif" font-size="10.00" fill="#000000"> </text>
<polyline fill="none" stroke="#bfbfbf" points="0,-630.5 89,-630.5 "/>
<text text-anchor="middle" x="44.5" y="-618.5" font-family="Helvetica,sans-Serif" font-size="10.00" fill="#000000"> </text>
</g>
<!-- Node2&#45;&gt;Node1 -->
<g id="edge1" class="edge">
<title>Node2&#45;&gt;Node1</title>
<path fill="none" stroke="#404040" d="M54.5815,-611.4071C68.8,-574.7439 97.9669,-511.2306 141.5,-472 284.9459,-342.7313 507.7905,-272.3461 620.3532,-243.25"/>
<polygon fill="none" stroke="#404040" points="620.5798,-243.1924 625.408,-237.8363 632.2092,-240.2331 627.3809,-245.5892 620.5798,-243.1924"/>
<text text-anchor="middle" x="154.5" y="-530" font-family="Helvetica,sans-Serif" font-size="10.00" fill="#000000"> +w4</text>
</g>
<!-- Node3 -->
<g id="node3" class="node">
<title>Node3</title>
<polygon fill="none" stroke="#bfbfbf" points="107,-611.5 107,-668.5 196,-668.5 196,-611.5 107,-611.5"/>
<text text-anchor="middle" x="151.5" y="-656.5" font-family="Helvetica,sans-Serif" font-size="10.00" fill="#000000">DRMHeadW3_t</text>
<polyline fill="none" stroke="#bfbfbf" points="107,-649.5 196,-649.5 "/>
<text text-anchor="middle" x="151.5" y="-637.5" font-family="Helvetica,sans-Serif" font-size="10.00" fill="#000000"> </text>
<polyline fill="none" stroke="#bfbfbf" points="107,-630.5 196,-630.5 "/>
<text text-anchor="middle" x="151.5" y="-618.5" font-family="Helvetica,sans-Serif" font-size="10.00" fill="#000000"> </text>
</g>
<!-- Node3&#45;&gt;Node1 -->
<g id="edge2" class="edge">
<title>Node3&#45;&gt;Node1</title>
<path fill="none" stroke="#404040" d="M162.372,-611.3503C177.2541,-575.2031 206.9418,-512.8379 248.5,-472 358.8845,-363.5288 526.9992,-288.2201 620.8809,-251.8724"/>
<polygon fill="none" stroke="#404040" points="621.0239,-251.8177 625.1976,-245.9372 632.231,-247.5281 628.0573,-253.4086 621.0239,-251.8177"/>
<text text-anchor="middle" x="261.5" y="-530" font-family="Helvetica,sans-Serif" font-size="10.00" fill="#000000"> +w3</text>
</g>
<!-- Node4 -->
<g id="node4" class="node">
<title>Node4</title>
<polygon fill="none" stroke="#bfbfbf" points="214,-611.5 214,-668.5 311,-668.5 311,-611.5 214,-611.5"/>
<text text-anchor="middle" x="262.5" y="-656.5" font-family="Helvetica,sans-Serif" font-size="10.00" fill="#000000">LTMDataTrailer_t</text>
<polyline fill="none" stroke="#bfbfbf" points="214,-649.5 311,-649.5 "/>
<text text-anchor="middle" x="262.5" y="-637.5" font-family="Helvetica,sans-Serif" font-size="10.00" fill="#000000"> </text>
<polyline fill="none" stroke="#bfbfbf" points="214,-630.5 311,-630.5 "/>
<text text-anchor="middle" x="262.5" y="-618.5" font-family="Helvetica,sans-Serif" font-size="10.00" fill="#000000"> </text>
</g>
<!-- Node4&#45;&gt;Node1 -->
<g id="edge3" class="edge">
<title>Node4&#45;&gt;Node1</title>
<path fill="none" stroke="#404040" d="M271.3147,-611.3344C283.3163,-575.7296 307.5091,-514.5016 343.5,-472 422.6498,-378.532 545.1492,-303.223 621.4383,-261.8508"/>
<polygon fill="none" stroke="#404040" points="621.775,-261.6701 625.1698,-255.3081 632.3481,-255.9948 628.9533,-262.3568 621.775,-261.6701"/>
<text text-anchor="middle" x="364" y="-530" font-family="Helvetica,sans-Serif" font-size="10.00" fill="#000000"> +trailer</text>
</g>
<!-- Node5 -->
<g id="node5" class="node">
<title>Node5</title>
<polygon fill="none" stroke="#bfbfbf" points="329,-611.5 329,-668.5 412,-668.5 412,-611.5 329,-611.5"/>
<text text-anchor="middle" x="370.5" y="-656.5" font-family="Helvetica,sans-Serif" font-size="10.00" fill="#000000">LTMPdlWord_t</text>
<polyline fill="none" stroke="#bfbfbf" points="329,-649.5 412,-649.5 "/>
<text text-anchor="middle" x="370.5" y="-637.5" font-family="Helvetica,sans-Serif" font-size="10.00" fill="#000000"> </text>
<polyline fill="none" stroke="#bfbfbf" points="329,-630.5 412,-630.5 "/>
<text text-anchor="middle" x="370.5" y="-618.5" font-family="Helvetica,sans-Serif" font-size="10.00" fill="#000000"> </text>
</g>
<!-- Node5&#45;&gt;Node1 -->
<g id="edge4" class="edge">
<title>Node5&#45;&gt;Node1</title>
<path fill="none" stroke="#404040" d="M380.1102,-611.3496C392.5459,-576.5644 416.3627,-516.9773 447.5,-472 497.602,-399.6283 570.2386,-329.6261 623.0389,-283.1131"/>
<polygon fill="none" stroke="#404040" points="623.2917,-282.8921 625.176,-275.9315 632.3258,-274.9936 630.4416,-281.9542 623.2917,-282.8921"/>
<text text-anchor="middle" x="472.5" y="-530" font-family="Helvetica,sans-Serif" font-size="10.00" fill="#000000"> +pdlData</text>
</g>
<!-- Node6 -->
<g id="node6" class="node">
<title>Node6</title>
<polygon fill="none" stroke="#bfbfbf" points="430,-611.5 430,-668.5 519,-668.5 519,-611.5 430,-611.5"/>
<text text-anchor="middle" x="474.5" y="-656.5" font-family="Helvetica,sans-Serif" font-size="10.00" fill="#000000">DRMHeadW5_t</text>
<polyline fill="none" stroke="#bfbfbf" points="430,-649.5 519,-649.5 "/>
<text text-anchor="middle" x="474.5" y="-637.5" font-family="Helvetica,sans-Serif" font-size="10.00" fill="#000000"> </text>
<polyline fill="none" stroke="#bfbfbf" points="430,-630.5 519,-630.5 "/>
<text text-anchor="middle" x="474.5" y="-618.5" font-family="Helvetica,sans-Serif" font-size="10.00" fill="#000000"> </text>
</g>
<!-- Node6&#45;&gt;Node1 -->
<g id="edge5" class="edge">
<title>Node6&#45;&gt;Node1</title>
<path fill="none" stroke="#404040" d="M489.5172,-611.2865C517.4938,-557.7944 579.0734,-440.0518 626.7464,-348.8993"/>
<polygon fill="none" stroke="#404040" points="626.7793,-348.8362 626.0155,-341.6657 632.3407,-338.2027 633.1045,-345.3733 626.7793,-348.8362"/>
<text text-anchor="middle" x="570.5" y="-530" font-family="Helvetica,sans-Serif" font-size="10.00" fill="#000000"> +w5</text>
</g>
<!-- Node7 -->
<g id="node7" class="node">
<title>Node7</title>
<polygon fill="none" stroke="#bfbfbf" points="536.5,-611.5 536.5,-668.5 638.5,-668.5 638.5,-611.5 536.5,-611.5"/>
<text text-anchor="middle" x="587.5" y="-656.5" font-family="Helvetica,sans-Serif" font-size="10.00" fill="#000000">LTMDataHeader_t</text>
<polyline fill="none" stroke="#bfbfbf" points="536.5,-649.5 638.5,-649.5 "/>
<text text-anchor="middle" x="587.5" y="-637.5" font-family="Helvetica,sans-Serif" font-size="10.00" fill="#000000"> </text>
<polyline fill="none" stroke="#bfbfbf" points="536.5,-630.5 638.5,-630.5 "/>
<text text-anchor="middle" x="587.5" y="-618.5" font-family="Helvetica,sans-Serif" font-size="10.00" fill="#000000"> </text>
</g>
<!-- Node7&#45;&gt;Node1 -->
<g id="edge6" class="edge">
<title>Node7&#45;&gt;Node1</title>
<path fill="none" stroke="#404040" d="M594.661,-611.2865C602.659,-579.217 616.4162,-524.0543 631.0511,-465.3729"/>
<polygon fill="none" stroke="#404040" points="631.0844,-465.2389 628.6552,-458.4493 633.9883,-453.5956 636.4175,-460.3852 631.0844,-465.2389"/>
<text text-anchor="middle" x="644.5" y="-530" font-family="Helvetica,sans-Serif" font-size="10.00" fill="#000000"> +head</text>
</g>
<!-- Node8 -->
<g id="node8" class="node">
<title>Node8</title>
<polygon fill="none" stroke="#bfbfbf" points="656.5,-611.5 656.5,-668.5 724.5,-668.5 724.5,-611.5 656.5,-611.5"/>
<text text-anchor="middle" x="690.5" y="-656.5" font-family="Helvetica,sans-Serif" font-size="10.00" fill="#000000">TOFOrbit_t</text>
<polyline fill="none" stroke="#bfbfbf" points="656.5,-649.5 724.5,-649.5 "/>
<text text-anchor="middle" x="690.5" y="-637.5" font-family="Helvetica,sans-Serif" font-size="10.00" fill="#000000"> </text>
<polyline fill="none" stroke="#bfbfbf" points="656.5,-630.5 724.5,-630.5 "/>
<text text-anchor="middle" x="690.5" y="-618.5" font-family="Helvetica,sans-Serif" font-size="10.00" fill="#000000"> </text>
</g>
<!-- Node8&#45;&gt;Node1 -->
<g id="edge7" class="edge">
<title>Node8&#45;&gt;Node1</title>
<path fill="none" stroke="#404040" d="M690.5,-611.2865C690.5,-579.2838 690.5,-524.284 690.5,-465.7397"/>
<polygon fill="none" stroke="#404040" points="690.5001,-465.5956 686.5,-459.5956 690.5,-453.5956 694.5,-459.5955 690.5001,-465.5956"/>
<text text-anchor="middle" x="707.5" y="-530" font-family="Helvetica,sans-Serif" font-size="10.00" fill="#000000"> +orbit</text>
</g>
<!-- Node9 -->
<g id="node9" class="node">
<title>Node9</title>
<polygon fill="none" stroke="#bfbfbf" points="743,-611.5 743,-668.5 846,-668.5 846,-611.5 743,-611.5"/>
<text text-anchor="middle" x="794.5" y="-656.5" font-family="Helvetica,sans-Serif" font-size="10.00" fill="#000000">TOFDataHeader_t</text>
<polyline fill="none" stroke="#bfbfbf" points="743,-649.5 846,-649.5 "/>
<text text-anchor="middle" x="794.5" y="-637.5" font-family="Helvetica,sans-Serif" font-size="10.00" fill="#000000"> </text>
<polyline fill="none" stroke="#bfbfbf" points="743,-630.5 846,-630.5 "/>
<text text-anchor="middle" x="794.5" y="-618.5" font-family="Helvetica,sans-Serif" font-size="10.00" fill="#000000"> </text>
</g>
<!-- Node9&#45;&gt;Node1 -->
<g id="edge8" class="edge">
<title>Node9&#45;&gt;Node1</title>
<path fill="none" stroke="#404040" d="M787.2695,-611.2865C779.1939,-579.217 765.303,-524.0543 750.5261,-465.3729"/>
<polygon fill="none" stroke="#404040" points="750.4908,-465.2323 745.1467,-460.3907 747.5604,-453.5956 752.9045,-458.4371 750.4908,-465.2323"/>
<text text-anchor="middle" x="799.5" y="-530" font-family="Helvetica,sans-Serif" font-size="10.00" fill="#000000"> +head</text>
</g>
<!-- Node10 -->
<g id="node10" class="node">
<title>Node10</title>
<polygon fill="none" stroke="#bfbfbf" points="864.5,-611.5 864.5,-668.5 950.5,-668.5 950.5,-611.5 864.5,-611.5"/>
<text text-anchor="middle" x="907.5" y="-656.5" font-family="Helvetica,sans-Serif" font-size="10.00" fill="#000000">LTMAdcWord_t</text>
<polyline fill="none" stroke="#bfbfbf" points="864.5,-649.5 950.5,-649.5 "/>
<text text-anchor="middle" x="907.5" y="-637.5" font-family="Helvetica,sans-Serif" font-size="10.00" fill="#000000"> </text>
<polyline fill="none" stroke="#bfbfbf" points="864.5,-630.5 950.5,-630.5 "/>
<text text-anchor="middle" x="907.5" y="-618.5" font-family="Helvetica,sans-Serif" font-size="10.00" fill="#000000"> </text>
</g>
<!-- Node10&#45;&gt;Node1 -->
<g id="edge9" class="edge">
<title>Node10&#45;&gt;Node1</title>
<path fill="none" stroke="#404040" d="M893.047,-611.3831C876.0825,-577.8835 847.0206,-520.7737 821.5,-472 799.8437,-430.6116 775.8248,-385.4751 754.3302,-345.3496"/>
<polygon fill="none" stroke="#404040" points="754.3011,-345.2953 747.941,-341.8968 748.6318,-334.7189 754.9919,-338.1173 754.3011,-345.2953"/>
<text text-anchor="middle" x="908.5" y="-530" font-family="Helvetica,sans-Serif" font-size="10.00" fill="#000000"> +adcData</text>
</g>
<!-- Node11 -->
<g id="node11" class="node">
<title>Node11</title>
<polygon fill="none" stroke="#bfbfbf" points="969,-611.5 969,-668.5 1030,-668.5 1030,-611.5 969,-611.5"/>
<text text-anchor="middle" x="999.5" y="-656.5" font-family="Helvetica,sans-Serif" font-size="10.00" fill="#000000">unsigned</text>
<polyline fill="none" stroke="#bfbfbf" points="969,-649.5 1030,-649.5 "/>
<text text-anchor="middle" x="999.5" y="-637.5" font-family="Helvetica,sans-Serif" font-size="10.00" fill="#000000"> </text>
<polyline fill="none" stroke="#bfbfbf" points="969,-630.5 1030,-630.5 "/>
<text text-anchor="middle" x="999.5" y="-618.5" font-family="Helvetica,sans-Serif" font-size="10.00" fill="#000000"> </text>
</g>
<!-- Node11&#45;&gt;Node1 -->
<g id="edge10" class="edge">
<title>Node11&#45;&gt;Node1</title>
<path fill="none" stroke="#404040" d="M989.1166,-611.2803C971.833,-563.4919 938.9931,-472.7695 938.5,-472 889.6507,-395.7695 813.2067,-324.9696 758.0992,-279.2842"/>
<polygon fill="none" stroke="#404040" points="758.0313,-279.2285 750.856,-278.5107 748.7587,-271.6113 755.9341,-272.329 758.0313,-279.2285"/>
<text text-anchor="middle" x="1025.5" y="-585" font-family="Helvetica,sans-Serif" font-size="10.00" fill="#000000"> +cycloneErr</text>
<text text-anchor="middle" x="1025.5" y="-574" font-family="Helvetica,sans-Serif" font-size="10.00" fill="#000000">+fault</text>
<text text-anchor="middle" x="1025.5" y="-563" font-family="Helvetica,sans-Serif" font-size="10.00" fill="#000000">+tempAck</text>
<text text-anchor="middle" x="1025.5" y="-552" font-family="Helvetica,sans-Serif" font-size="10.00" fill="#000000">+faultSlotMask</text>
<text text-anchor="middle" x="1025.5" y="-541" font-family="Helvetica,sans-Serif" font-size="10.00" fill="#000000">+partSlotMask</text>
<text text-anchor="middle" x="1025.5" y="-530" font-family="Helvetica,sans-Serif" font-size="10.00" fill="#000000">+bunchCnt</text>
<text text-anchor="middle" x="1025.5" y="-519" font-family="Helvetica,sans-Serif" font-size="10.00" fill="#000000">+readoutTimeOut</text>
<text text-anchor="middle" x="1025.5" y="-508" font-family="Helvetica,sans-Serif" font-size="10.00" fill="#000000">+dataId</text>
<text text-anchor="middle" x="1025.5" y="-497" font-family="Helvetica,sans-Serif" font-size="10.00" fill="#000000">+lutErrorBit</text>
<text text-anchor="middle" x="1025.5" y="-486" font-family="Helvetica,sans-Serif" font-size="10.00" fill="#000000">+pdl0</text>
<text text-anchor="middle" x="1025.5" y="-475" font-family="Helvetica,sans-Serif" font-size="10.00" fill="#000000">...</text>
</g>
<!-- Node12 -->
<g id="node12" class="node">
<title>Node12</title>
<polygon fill="none" stroke="#bfbfbf" points="1048,-611.5 1048,-668.5 1137,-668.5 1137,-611.5 1048,-611.5"/>
<text text-anchor="middle" x="1092.5" y="-656.5" font-family="Helvetica,sans-Serif" font-size="10.00" fill="#000000">DRMHeadW2_t</text>
<polyline fill="none" stroke="#bfbfbf" points="1048,-649.5 1137,-649.5 "/>
<text text-anchor="middle" x="1092.5" y="-637.5" font-family="Helvetica,sans-Serif" font-size="10.00" fill="#000000"> </text>
<polyline fill="none" stroke="#bfbfbf" points="1048,-630.5 1137,-630.5 "/>
<text text-anchor="middle" x="1092.5" y="-618.5" font-family="Helvetica,sans-Serif" font-size="10.00" fill="#000000"> </text>
</g>
<!-- Node12&#45;&gt;Node1 -->
<g id="edge11" class="edge">
<title>Node12&#45;&gt;Node1</title>
<path fill="none" stroke="#404040" d="M1095.6868,-611.4161C1098.1853,-575.8955 1097.5539,-514.7544 1070.5,-472 997.418,-356.5055 847.9606,-284.7804 759.8288,-250.7132"/>
<polygon fill="none" stroke="#404040" points="759.8228,-250.711 752.7934,-252.3198 748.6047,-246.45 755.6341,-244.8411 759.8228,-250.711"/>
<text text-anchor="middle" x="1109.5" y="-530" font-family="Helvetica,sans-Serif" font-size="10.00" fill="#000000"> +w2</text>
</g>
<!-- Node13 -->
<g id="node13" class="node">
<title>Node13</title>
<polygon fill="none" stroke="#bfbfbf" points="1155,-611.5 1155,-668.5 1262,-668.5 1262,-611.5 1155,-611.5"/>
<text text-anchor="middle" x="1208.5" y="-656.5" font-family="Helvetica,sans-Serif" font-size="10.00" fill="#000000">DRMDataHeader_t</text>
<polyline fill="none" stroke="#bfbfbf" points="1155,-649.5 1262,-649.5 "/>
<text text-anchor="middle" x="1208.5" y="-637.5" font-family="Helvetica,sans-Serif" font-size="10.00" fill="#000000"> </text>
<polyline fill="none" stroke="#bfbfbf" points="1155,-630.5 1262,-630.5 "/>
<text text-anchor="middle" x="1208.5" y="-618.5" font-family="Helvetica,sans-Serif" font-size="10.00" fill="#000000"> </text>
</g>
<!-- Node13&#45;&gt;Node1 -->
<g id="edge12" class="edge">
<title>Node13&#45;&gt;Node1</title>
<path fill="none" stroke="#404040" d="M1200.3832,-611.3493C1188.9368,-575.2011 1165.0373,-512.8348 1126.5,-472 1021.2382,-360.4628 853.6691,-286.2057 759.8843,-250.8828"/>
<polygon fill="none" stroke="#404040" points="759.7919,-250.8484 752.774,-252.5065 748.5442,-246.6662 755.5621,-245.0081 759.7919,-250.8484"/>
<text text-anchor="middle" x="1210.5" y="-530" font-family="Helvetica,sans-Serif" font-size="10.00" fill="#000000"> +head</text>
</g>
<!-- Node14 -->
<g id="node14" class="node">
<title>Node14</title>
<polygon fill="none" stroke="#bfbfbf" points="1280,-611.5 1280,-668.5 1369,-668.5 1369,-611.5 1280,-611.5"/>
<text text-anchor="middle" x="1324.5" y="-656.5" font-family="Helvetica,sans-Serif" font-size="10.00" fill="#000000">DRMHeadW1_t</text>
<polyline fill="none" stroke="#bfbfbf" points="1280,-649.5 1369,-649.5 "/>
<text text-anchor="middle" x="1324.5" y="-637.5" font-family="Helvetica,sans-Serif" font-size="10.00" fill="#000000"> </text>
<polyline fill="none" stroke="#bfbfbf" points="1280,-630.5 1369,-630.5 "/>
<text text-anchor="middle" x="1324.5" y="-618.5" font-family="Helvetica,sans-Serif" font-size="10.00" fill="#000000"> </text>
</g>
<!-- Node14&#45;&gt;Node1 -->
<g id="edge13" class="edge">
<title>Node14&#45;&gt;Node1</title>
<path fill="none" stroke="#404040" d="M1315.295,-611.4347C1302.1952,-574.8013 1274.9483,-511.3202 1232.5,-472 1092.5261,-342.341 872.2651,-272.2188 760.5264,-243.2342"/>
<polygon fill="none" stroke="#404040" points="760.3806,-243.1971 753.5776,-245.5887 748.7534,-240.2288 755.5564,-237.8372 760.3806,-243.1971"/>
<text text-anchor="middle" x="1319.5" y="-530" font-family="Helvetica,sans-Serif" font-size="10.00" fill="#000000"> +w1</text>
</g>
</g>
</svg>
        <g id="navigator" transform="translate(0 0)" fill="#404254">
                <rect fill="#f2f5e9" fill-opacity="0.5" stroke="#606060" stroke-width=".5" x="0" y="0" width="60" height="60"/>
                <use id="zoomplus" xlink:href="#zoomPlus" x="17" y="9" onmousedown="handleZoom(evt,'in')"/>
                <use id="zoomminus" xlink:href="#zoomMin" x="42" y="9" onmousedown="handleZoom(evt,'out')"/>
                <use id="reset" xlink:href="#resetDef" x="30" y="36" onmousedown="handleReset()"/>
                <g id="arrowUp" xlink:href="#dirArrow" transform="translate(30 24)" onmousedown="handlePan(0,-1)">
                  <use xlink:href="#rim" fill="#404040">
                        <set attributeName="fill" to="#808080" begin="arrowUp.mouseover" end="arrowUp.mouseout"/>
                  </use>
                  <path fill="none" stroke="white" stroke-width="1.5" d="M0,-3.0v7 M-2.5,-0.5L0,-3.0L2.5,-0.5"/>
                </g>
                <g id="arrowRight" xlink:href="#dirArrow" transform="rotate(90) translate(36 -43)" onmousedown="handlePan(1,0)">
                  <use xlink:href="#rim" fill="#404040">
                        <set attributeName="fill" to="#808080" begin="arrowRight.mouseover" end="arrowRight.mouseout"/>
                  </use>
                  <path fill="none" stroke="white" stroke-width="1.5" d="M0,-3.0v7 M-2.5,-0.5L0,-3.0L2.5,-0.5"/>
                </g>
                <g id="arrowDown" xlink:href="#dirArrow" transform="rotate(180) translate(-30 -48)" onmousedown="handlePan(0,1)">
                  <use xlink:href="#rim" fill="#404040">
                        <set attributeName="fill" to="#808080" begin="arrowDown.mouseover" end="arrowDown.mouseout"/>
                  </use>
                  <path fill="none" stroke="white" stroke-width="1.5" d="M0,-3.0v7 M-2.5,-0.5L0,-3.0L2.5,-0.5"/>
                </g>
                <g id="arrowLeft" xlink:href="#dirArrow" transform="rotate(270) translate(-36 17)" onmousedown="handlePan(-1,0)">
                  <use xlink:href="#rim" fill="#404040">
                        <set attributeName="fill" to="#808080" begin="arrowLeft.mouseover" end="arrowLeft.mouseout"/>
                  </use>
                  <path fill="none" stroke="white" stroke-width="1.5" d="M0,-3.0v7 M-2.5,-0.5L0,-3.0L2.5,-0.5"/>
                </g>
        </g>
        <svg viewBox="0 0 15 15" width="100%" height="30px" preserveAspectRatio="xMaxYMin meet">
         <g id="arrow_out" transform="scale(0.3 0.3)">
          <a xlink:href="struct____attribute______coll__graph_org.svg" target="_base">
           <rect id="button" ry="5" rx="5" y="6" x="6" height="38" width="38"
                fill="#f2f5e9" fill-opacity="0.5" stroke="#606060" stroke-width="1.0"/>
           <path id="arrow"
             d="M 11.500037,31.436501 C 11.940474,20.09759 22.043105,11.32322 32.158766,21.979434 L 37.068811,17.246167 C 37.068811,17.246167 37.088388,32 37.088388,32 L 22.160133,31.978069 C 22.160133,31.978069 26.997745,27.140456 26.997745,27.140456 C 18.528582,18.264221 13.291696,25.230495 11.500037,31.436501 z"
             style="fill:#404040;"/>
          </a>
         </g>
        </svg>
</svg>
