<?xml version="1.0" encoding="UTF-8" standalone="no"?>
<!DOCTYPE svg PUBLIC "-//W3C//DTD SVG 1.1//EN"
 "http://www.w3.org/Graphics/SVG/1.1/DTD/svg11.dtd">
<!-- Generated by graphviz version 2.40.1 (20161225.0304)
 -->
<!-- Title: o2::header::HeartbeatHeader Pages: 1 -->
<svg width="262pt" height="270pt"
 viewBox="0.00 0.00 261.50 270.00" xmlns="http://www.w3.org/2000/svg" xmlns:xlink="http://www.w3.org/1999/xlink">
<g id="graph0" class="graph" transform="scale(1 1) rotate(0) translate(4 266)">
<title>o2::header::HeartbeatHeader</title>
<!-- Node1 -->
<g id="node1" class="node">
<title>Node1</title>
<polygon fill="#bfbfbf" stroke="#000000" points="25.5,-.5 25.5,-79.5 183.5,-79.5 183.5,-.5 25.5,-.5"/>
<text text-anchor="middle" x="104.5" y="-67.5" font-family="Helvetica,sans-Serif" font-size="10.00" fill="#000000">o2::header::HeartbeatHeader</text>
<polyline fill="none" stroke="#000000" points="25.5,-60.5 183.5,-60.5 "/>
<text text-anchor="middle" x="104.5" y="-48.5" font-family="Helvetica,sans-Serif" font-size="10.00" fill="#000000"> </text>
<polyline fill="none" stroke="#000000" points="25.5,-41.5 183.5,-41.5 "/>
<text text-anchor="start" x="33.5" y="-29.5" font-family="Helvetica,sans-Serif" font-size="10.00" fill="#000000">+ operator bool()</text>
<text text-anchor="start" x="33.5" y="-18.5" font-family="Helvetica,sans-Serif" font-size="10.00" fill="#000000">+ operator&lt;()</text>
<text text-anchor="start" x="33.5" y="-7.5" font-family="Helvetica,sans-Serif" font-size="10.00" fill="#000000">+ operator uint64_t()</text>
</g>
<!-- Node2 -->
<g id="node2" class="node">
<title>Node2</title>
<polygon fill="none" stroke="#bfbfbf" points="0,-204.5 0,-261.5 107,-261.5 107,-204.5 0,-204.5"/>
<text text-anchor="middle" x="53.5" y="-249.5" font-family="Helvetica,sans-Serif" font-size="10.00" fill="#000000">anonymous:+@80</text>
<polyline fill="none" stroke="#bfbfbf" points="0,-242.5 107,-242.5 "/>
<text text-anchor="middle" x="53.5" y="-230.5" font-family="Helvetica,sans-Serif" font-size="10.00" fill="#000000"> </text>
<polyline fill="none" stroke="#bfbfbf" points="0,-223.5 107,-223.5 "/>
<text text-anchor="middle" x="53.5" y="-211.5" font-family="Helvetica,sans-Serif" font-size="10.00" fill="#000000"> </text>
</g>
<!-- Node2&#45;&gt;Node1 -->
<g id="edge1" class="edge">
<title>Node2&#45;&gt;Node1</title>
<path fill="none" stroke="#404040" d="M61.1352,-204.1059C68.9744,-174.4401 81.3402,-127.6439 90.8644,-91.6012"/>
<polygon fill="none" stroke="#404040" points="90.909,-91.4324 88.5746,-84.6096 93.9748,-79.8306 96.3092,-86.6534 90.909,-91.4324"/>
<text text-anchor="middle" x="105.5" y="-139.5" font-family="Helvetica,sans-Serif" font-size="10.00" fill="#000000"> +@80</text>
</g>
<!-- Node3 -->
<g id="node3" class="node">
<title>Node3</title>
<polygon fill="none" stroke="#bfbfbf" points="125,-204.5 125,-261.5 186,-261.5 186,-204.5 125,-204.5"/>
<text text-anchor="middle" x="155.5" y="-249.5" font-family="Helvetica,sans-Serif" font-size="10.00" fill="#000000">unsigned</text>
<polyline fill="none" stroke="#bfbfbf" points="125,-242.5 186,-242.5 "/>
<text text-anchor="middle" x="155.5" y="-230.5" font-family="Helvetica,sans-Serif" font-size="10.00" fill="#000000"> </text>
<polyline fill="none" stroke="#bfbfbf" points="125,-223.5 186,-223.5 "/>
<text text-anchor="middle" x="155.5" y="-211.5" font-family="Helvetica,sans-Serif" font-size="10.00" fill="#000000"> </text>
</g>
<!-- Node3&#45;&gt;Node1 -->
<g id="edge2" class="edge">
<title>Node3&#45;&gt;Node1</title>
<path fill="none" stroke="#404040" d="M150.6245,-204.2416C145.6495,-176.6935 137.1565,-134.0961 126.5,-98 125.8368,-95.7535 125.1274,-93.4701 124.3846,-91.1722"/>
<polygon fill="none" stroke="#404040" points="124.333,-91.0209 118.6066,-86.6381 120.4499,-79.6665 126.1762,-84.0494 124.333,-91.0209"/>
<text text-anchor="middle" x="200" y="-178" font-family="Helvetica,sans-Serif" font-size="10.00" fill="#000000"> +triggerType</text>
<text text-anchor="middle" x="200" y="-167" font-family="Helvetica,sans-Serif" font-size="10.00" fill="#000000">+headerLength</text>
<text text-anchor="middle" x="200" y="-156" font-family="Helvetica,sans-Serif" font-size="10.00" fill="#000000">+reserved</text>
<text text-anchor="middle" x="200" y="-145" font-family="Helvetica,sans-Serif" font-size="10.00" fill="#000000">+bcid</text>
<text text-anchor="middle" x="200" y="-134" font-family="Helvetica,sans-Serif" font-size="10.00" fill="#000000">+orbit</text>
<text text-anchor="middle" x="200" y="-123" font-family="Helvetica,sans-Serif" font-size="10.00" fill="#000000">+blockType</text>
<text text-anchor="middle" x="200" y="-112" font-family="Helvetica,sans-Serif" font-size="10.00" fill="#000000">+reservedTriggerType</text>
<text text-anchor="middle" x="200" y="-101" font-family="Helvetica,sans-Serif" font-size="10.00" fill="#000000">+headerWord</text>
</g>
</g>
</svg>
