<?xml version="1.0" encoding="UTF-8" standalone="no"?>
<!DOCTYPE svg PUBLIC "-//W3C//DTD SVG 1.1//EN"
 "http://www.w3.org/Graphics/SVG/1.1/DTD/svg11.dtd">
<!-- Generated by graphviz version 2.40.1 (20161225.0304)
 -->
<!-- Title: o2::AliceHLT::RawCluster Pages: 1 -->
<svg width="237pt" height="314pt"
 viewBox="0.00 0.00 237.00 314.00" xmlns="http://www.w3.org/2000/svg" xmlns:xlink="http://www.w3.org/1999/xlink">
<g id="graph0" class="graph" transform="scale(1 1) rotate(0) translate(4 310)">
<title>o2::AliceHLT::RawCluster</title>
<!-- Node1 -->
<g id="node1" class="node">
<title>Node1</title>
<polygon fill="#bfbfbf" stroke="#000000" points="47.5,-.5 47.5,-167.5 184.5,-167.5 184.5,-.5 47.5,-.5"/>
<text text-anchor="middle" x="116" y="-155.5" font-family="Helvetica,sans-Serif" font-size="10.00" fill="#000000">o2::AliceHLT::RawCluster</text>
<polyline fill="none" stroke="#000000" points="47.5,-148.5 184.5,-148.5 "/>
<text text-anchor="middle" x="116" y="-136.5" font-family="Helvetica,sans-Serif" font-size="10.00" fill="#000000"> </text>
<polyline fill="none" stroke="#000000" points="47.5,-129.5 184.5,-129.5 "/>
<text text-anchor="start" x="55.5" y="-117.5" font-family="Helvetica,sans-Serif" font-size="10.00" fill="#000000">+ GetPadRow()</text>
<text text-anchor="start" x="55.5" y="-106.5" font-family="Helvetica,sans-Serif" font-size="10.00" fill="#000000">+ GetPad()</text>
<text text-anchor="start" x="55.5" y="-95.5" font-family="Helvetica,sans-Serif" font-size="10.00" fill="#000000">+ GetTime()</text>
<text text-anchor="start" x="55.5" y="-84.5" font-family="Helvetica,sans-Serif" font-size="10.00" fill="#000000">+ GetSigmaPad2()</text>
<text text-anchor="start" x="55.5" y="-73.5" font-family="Helvetica,sans-Serif" font-size="10.00" fill="#000000">+ GetSigmaTime2()</text>
<text text-anchor="start" x="55.5" y="-62.5" font-family="Helvetica,sans-Serif" font-size="10.00" fill="#000000">+ GetCharge()</text>
<text text-anchor="start" x="55.5" y="-51.5" font-family="Helvetica,sans-Serif" font-size="10.00" fill="#000000">+ GetQMax()</text>
<text text-anchor="start" x="55.5" y="-40.5" font-family="Helvetica,sans-Serif" font-size="10.00" fill="#000000">+ GetFlagSplitPad()</text>
<text text-anchor="start" x="55.5" y="-29.5" font-family="Helvetica,sans-Serif" font-size="10.00" fill="#000000">+ GetFlagSplitTime()</text>
<text text-anchor="start" x="55.5" y="-18.5" font-family="Helvetica,sans-Serif" font-size="10.00" fill="#000000">+ GetFlagSplitAny()</text>
<text text-anchor="start" x="55.5" y="-7.5" font-family="Helvetica,sans-Serif" font-size="10.00" fill="#000000">+ GetFlags()</text>
</g>
<!-- Node2 -->
<g id="node2" class="node">
<title>Node2</title>
<g id="a_node2"><a xlink:href="../../d4/dc3/classfloat.html" target="_top" xlink:title="{float\n||}">
<polygon fill="none" stroke="#000000" points="0,-248.5 0,-305.5 38,-305.5 38,-248.5 0,-248.5"/>
<text text-anchor="middle" x="19" y="-293.5" font-family="Helvetica,sans-Serif" font-size="10.00" fill="#000000">float</text>
<polyline fill="none" stroke="#000000" points="0,-286.5 38,-286.5 "/>
<text text-anchor="middle" x="19" y="-274.5" font-family="Helvetica,sans-Serif" font-size="10.00" fill="#000000"> </text>
<polyline fill="none" stroke="#000000" points="0,-267.5 38,-267.5 "/>
<text text-anchor="middle" x="19" y="-255.5" font-family="Helvetica,sans-Serif" font-size="10.00" fill="#000000"> </text>
</a>
</g>
</g>
<!-- Node2&#45;&gt;Node1 -->
<g id="edge1" class="edge">
<title>Node2&#45;&gt;Node1</title>
<path fill="none" stroke="#404040" d="M21.6988,-248.0945C24.2137,-229.6749 28.9974,-205.6638 38,-186 39.194,-183.3919 40.4651,-180.7883 41.8024,-178.1953"/>
<polygon fill="none" stroke="#404040" points="41.846,-178.1163 41.2442,-170.9304 47.646,-167.611 48.2478,-174.797 41.846,-178.1163"/>
<text text-anchor="middle" x="75" y="-222" font-family="Helvetica,sans-Serif" font-size="10.00" fill="#000000"> +fTime</text>
<text text-anchor="middle" x="75" y="-211" font-family="Helvetica,sans-Serif" font-size="10.00" fill="#000000">+fPad</text>
<text text-anchor="middle" x="75" y="-200" font-family="Helvetica,sans-Serif" font-size="10.00" fill="#000000">+fSigmaTime2</text>
<text text-anchor="middle" x="75" y="-189" font-family="Helvetica,sans-Serif" font-size="10.00" fill="#000000">+fSigmaPad2</text>
</g>
<!-- Node3 -->
<g id="node3" class="node">
<title>Node3</title>
<polygon fill="none" stroke="#bfbfbf" points="91,-248.5 91,-305.5 141,-305.5 141,-248.5 91,-248.5"/>
<text text-anchor="middle" x="116" y="-293.5" font-family="Helvetica,sans-Serif" font-size="10.00" fill="#000000">int16_t</text>
<polyline fill="none" stroke="#bfbfbf" points="91,-286.5 141,-286.5 "/>
<text text-anchor="middle" x="116" y="-274.5" font-family="Helvetica,sans-Serif" font-size="10.00" fill="#000000"> </text>
<polyline fill="none" stroke="#bfbfbf" points="91,-267.5 141,-267.5 "/>
<text text-anchor="middle" x="116" y="-255.5" font-family="Helvetica,sans-Serif" font-size="10.00" fill="#000000"> </text>
</g>
<!-- Node3&#45;&gt;Node1 -->
<g id="edge2" class="edge">
<title>Node3&#45;&gt;Node1</title>
<path fill="none" stroke="#404040" d="M116,-248.1059C116,-229.7609 116,-204.8652 116,-180.0126"/>
<polygon fill="none" stroke="#404040" points="116.0001,-179.8446 112,-173.8446 116,-167.8446 120,-173.8445 116.0001,-179.8446"/>
<text text-anchor="middle" x="142.5" y="-205.5" font-family="Helvetica,sans-Serif" font-size="10.00" fill="#000000"> +fPadRow</text>
</g>
<!-- Node4 -->
<g id="node4" class="node">
<title>Node4</title>
<polygon fill="none" stroke="#bfbfbf" points="161.5,-248.5 161.5,-305.5 222.5,-305.5 222.5,-248.5 161.5,-248.5"/>
<text text-anchor="middle" x="192" y="-293.5" font-family="Helvetica,sans-Serif" font-size="10.00" fill="#000000">unsigned</text>
<polyline fill="none" stroke="#bfbfbf" points="161.5,-286.5 222.5,-286.5 "/>
<text text-anchor="middle" x="192" y="-274.5" font-family="Helvetica,sans-Serif" font-size="10.00" fill="#000000"> </text>
<polyline fill="none" stroke="#bfbfbf" points="161.5,-267.5 222.5,-267.5 "/>
<text text-anchor="middle" x="192" y="-255.5" font-family="Helvetica,sans-Serif" font-size="10.00" fill="#000000"> </text>
</g>
<!-- Node4&#45;&gt;Node1 -->
<g id="edge3" class="edge">
<title>Node4&#45;&gt;Node1</title>
<path fill="none" stroke="#404040" d="M186.9469,-248.1653C183.2958,-229.9884 177.6568,-206.2161 170,-186 169.099,-183.6212 168.1546,-181.2274 167.1733,-178.8261"/>
<polygon fill="none" stroke="#404040" points="167.0706,-178.5869 161.0277,-174.6519 162.3359,-167.5604 168.3787,-171.4954 167.0706,-178.5869"/>
<text text-anchor="middle" x="205.5" y="-216.5" font-family="Helvetica,sans-Serif" font-size="10.00" fill="#000000"> +fQMax</text>
<text text-anchor="middle" x="205.5" y="-205.5" font-family="Helvetica,sans-Serif" font-size="10.00" fill="#000000">+fCharge</text>
<text text-anchor="middle" x="205.5" y="-194.5" font-family="Helvetica,sans-Serif" font-size="10.00" fill="#000000">+fFlags</text>
</g>
</g>
</svg>
