<?xml version="1.0" encoding="UTF-8" standalone="no"?>
<!DOCTYPE svg PUBLIC "-//W3C//DTD SVG 1.1//EN"
 "http://www.w3.org/Graphics/SVG/1.1/DTD/svg11.dtd">
<!-- Generated by graphviz version 2.40.1 (20161225.0304)
 -->
<!-- Title: TracksAndEventClassificationQA Pages: 1 -->
<svg width="1060pt" height="882pt"
 viewBox="0.00 0.00 1059.50 882.00" xmlns="http://www.w3.org/2000/svg" xmlns:xlink="http://www.w3.org/1999/xlink">
<g id="graph0" class="graph" transform="scale(1 1) rotate(0) translate(4 878)">
<title>TracksAndEventClassificationQA</title>
<!-- Node1 -->
<g id="node1" class="node">
<title>Node1</title>
<polygon fill="#bfbfbf" stroke="#000000" points="631.5,-.5 631.5,-68.5 804.5,-68.5 804.5,-.5 631.5,-.5"/>
<text text-anchor="middle" x="718" y="-56.5" font-family="Helvetica,sans-Serif" font-size="10.00" fill="#000000">TracksAndEventClassificationQA</text>
<polyline fill="none" stroke="#000000" points="631.5,-49.5 804.5,-49.5 "/>
<text text-anchor="middle" x="718" y="-37.5" font-family="Helvetica,sans-Serif" font-size="10.00" fill="#000000"> </text>
<polyline fill="none" stroke="#000000" points="631.5,-30.5 804.5,-30.5 "/>
<text text-anchor="start" x="639.5" y="-18.5" font-family="Helvetica,sans-Serif" font-size="10.00" fill="#000000">+ init()</text>
<text text-anchor="start" x="639.5" y="-7.5" font-family="Helvetica,sans-Serif" font-size="10.00" fill="#000000">+ process()</text>
</g>
<!-- Node2 -->
<g id="node2" class="node">
<title>Node2</title>
<g id="a_node2"><a xlink:href="../../d4/d79/structo2_1_1framework_1_1OutputObj.html" target="_top" xlink:title="{o2::framework::OutputObj\l\&lt; TH1F \&gt;\n||+ spec()\l+ OutputObj()\l+ OutputObj()\l+ setObject()\l+ setObject()\l+ setObject()\l+ setHash()\l+ operator&#45;\&gt;()\l+ operator*()\l+ ref()\l}">
<polygon fill="none" stroke="#000000" points="564.5,-204.5 564.5,-371.5 707.5,-371.5 707.5,-204.5 564.5,-204.5"/>
<text text-anchor="start" x="572.5" y="-359.5" font-family="Helvetica,sans-Serif" font-size="10.00" fill="#000000">o2::framework::OutputObj</text>
<text text-anchor="middle" x="636" y="-348.5" font-family="Helvetica,sans-Serif" font-size="10.00" fill="#000000">&lt; TH1F &gt;</text>
<polyline fill="none" stroke="#000000" points="564.5,-341.5 707.5,-341.5 "/>
<text text-anchor="middle" x="636" y="-329.5" font-family="Helvetica,sans-Serif" font-size="10.00" fill="#000000"> </text>
<polyline fill="none" stroke="#000000" points="564.5,-322.5 707.5,-322.5 "/>
<text text-anchor="start" x="572.5" y="-310.5" font-family="Helvetica,sans-Serif" font-size="10.00" fill="#000000">+ spec()</text>
<text text-anchor="start" x="572.5" y="-299.5" font-family="Helvetica,sans-Serif" font-size="10.00" fill="#000000">+ OutputObj()</text>
<text text-anchor="start" x="572.5" y="-288.5" font-family="Helvetica,sans-Serif" font-size="10.00" fill="#000000">+ OutputObj()</text>
<text text-anchor="start" x="572.5" y="-277.5" font-family="Helvetica,sans-Serif" font-size="10.00" fill="#000000">+ setObject()</text>
<text text-anchor="start" x="572.5" y="-266.5" font-family="Helvetica,sans-Serif" font-size="10.00" fill="#000000">+ setObject()</text>
<text text-anchor="start" x="572.5" y="-255.5" font-family="Helvetica,sans-Serif" font-size="10.00" fill="#000000">+ setObject()</text>
<text text-anchor="start" x="572.5" y="-244.5" font-family="Helvetica,sans-Serif" font-size="10.00" fill="#000000">+ setHash()</text>
<text text-anchor="start" x="572.5" y="-233.5" font-family="Helvetica,sans-Serif" font-size="10.00" fill="#000000">+ operator&#45;&gt;()</text>
<text text-anchor="start" x="572.5" y="-222.5" font-family="Helvetica,sans-Serif" font-size="10.00" fill="#000000">+ operator*()</text>
<text text-anchor="start" x="572.5" y="-211.5" font-family="Helvetica,sans-Serif" font-size="10.00" fill="#000000">+ ref()</text>
</a>
</g>
</g>
<!-- Node2&#45;&gt;Node1 -->
<g id="edge1" class="edge">
<title>Node2&#45;&gt;Node1</title>
<path fill="none" stroke="#404040" d="M655.5757,-204.2274C665.0679,-167.7109 677.5534,-124.7188 692,-87 692.9459,-84.5305 693.9678,-82.021 695.0405,-79.5052"/>
<polygon fill="none" stroke="#404040" points="695.0537,-79.4759 693.8769,-72.3614 699.9914,-68.5388 701.1683,-75.6532 695.0537,-79.4759"/>
<text text-anchor="middle" x="756" y="-178" font-family="Helvetica,sans-Serif" font-size="10.00" fill="#000000"> +fTracksNone</text>
<text text-anchor="middle" x="756" y="-167" font-family="Helvetica,sans-Serif" font-size="10.00" fill="#000000">+fTracksOneAndTwo</text>
<text text-anchor="middle" x="756" y="-156" font-family="Helvetica,sans-Serif" font-size="10.00" fill="#000000">+fTracksOneUnsel</text>
<text text-anchor="middle" x="756" y="-145" font-family="Helvetica,sans-Serif" font-size="10.00" fill="#000000">+fTracksTwo</text>
<text text-anchor="middle" x="756" y="-134" font-family="Helvetica,sans-Serif" font-size="10.00" fill="#000000">+fTracksOneAndTwoUnsel</text>
<text text-anchor="middle" x="756" y="-123" font-family="Helvetica,sans-Serif" font-size="10.00" fill="#000000">+fSelectedEvents</text>
<text text-anchor="middle" x="756" y="-112" font-family="Helvetica,sans-Serif" font-size="10.00" fill="#000000">+fTracksTwoUnsel</text>
<text text-anchor="middle" x="756" y="-101" font-family="Helvetica,sans-Serif" font-size="10.00" fill="#000000">+fTracksOne</text>
<text text-anchor="middle" x="756" y="-90" font-family="Helvetica,sans-Serif" font-size="10.00" fill="#000000">+fTracksNoneUnsel</text>
</g>
<!-- Node3 -->
<g id="node3" class="node">
<title>Node3</title>
<polygon fill="none" stroke="#bfbfbf" points="483.5,-651 483.5,-708 622.5,-708 622.5,-651 483.5,-651"/>
<text text-anchor="middle" x="553" y="-696" font-family="Helvetica,sans-Serif" font-size="10.00" fill="#000000">OutputObjHandlingPolicy</text>
<polyline fill="none" stroke="#bfbfbf" points="483.5,-689 622.5,-689 "/>
<text text-anchor="middle" x="553" y="-677" font-family="Helvetica,sans-Serif" font-size="10.00" fill="#000000"> </text>
<polyline fill="none" stroke="#bfbfbf" points="483.5,-670 622.5,-670 "/>
<text text-anchor="middle" x="553" y="-658" font-family="Helvetica,sans-Serif" font-size="10.00" fill="#000000"> </text>
</g>
<!-- Node3&#45;&gt;Node2 -->
<g id="edge2" class="edge">
<title>Node3&#45;&gt;Node2</title>
<path fill="none" stroke="#404040" d="M558.1542,-650.8858C566.9099,-602.8341 585.541,-502.9415 604,-419 606.5267,-407.5101 609.2943,-395.4836 612.1111,-383.5737"/>
<polygon fill="none" stroke="#404040" points="612.1526,-383.3995 609.654,-376.6351 614.9371,-371.727 617.4357,-378.4914 612.1526,-383.3995"/>
<text text-anchor="middle" x="624.5" y="-495" font-family="Helvetica,sans-Serif" font-size="10.00" fill="#000000"> +policy</text>
</g>
<!-- Node11 -->
<g id="node11" class="node">
<title>Node11</title>
<g id="a_node11"><a xlink:href="../../d4/d79/structo2_1_1framework_1_1OutputObj.html" target="_top" xlink:title="{o2::framework::OutputObj\&lt; T \&gt;\n||+ OutputObj()\l+ OutputObj()\l+ setObject()\l+ setObject()\l+ setObject()\l+ setHash()\l+ spec()\l+ operator&#45;\&gt;()\l+ operator*()\l+ ref()\l}">
<polygon fill="none" stroke="#000000" points="256,-419.5 256,-575.5 428,-575.5 428,-419.5 256,-419.5"/>
<text text-anchor="middle" x="342" y="-563.5" font-family="Helvetica,sans-Serif" font-size="10.00" fill="#000000">o2::framework::OutputObj&lt; T &gt;</text>
<polyline fill="none" stroke="#000000" points="256,-556.5 428,-556.5 "/>
<text text-anchor="middle" x="342" y="-544.5" font-family="Helvetica,sans-Serif" font-size="10.00" fill="#000000"> </text>
<polyline fill="none" stroke="#000000" points="256,-537.5 428,-537.5 "/>
<text text-anchor="start" x="264" y="-525.5" font-family="Helvetica,sans-Serif" font-size="10.00" fill="#000000">+ OutputObj()</text>
<text text-anchor="start" x="264" y="-514.5" font-family="Helvetica,sans-Serif" font-size="10.00" fill="#000000">+ OutputObj()</text>
<text text-anchor="start" x="264" y="-503.5" font-family="Helvetica,sans-Serif" font-size="10.00" fill="#000000">+ setObject()</text>
<text text-anchor="start" x="264" y="-492.5" font-family="Helvetica,sans-Serif" font-size="10.00" fill="#000000">+ setObject()</text>
<text text-anchor="start" x="264" y="-481.5" font-family="Helvetica,sans-Serif" font-size="10.00" fill="#000000">+ setObject()</text>
<text text-anchor="start" x="264" y="-470.5" font-family="Helvetica,sans-Serif" font-size="10.00" fill="#000000">+ setHash()</text>
<text text-anchor="start" x="264" y="-459.5" font-family="Helvetica,sans-Serif" font-size="10.00" fill="#000000">+ spec()</text>
<text text-anchor="start" x="264" y="-448.5" font-family="Helvetica,sans-Serif" font-size="10.00" fill="#000000">+ operator&#45;&gt;()</text>
<text text-anchor="start" x="264" y="-437.5" font-family="Helvetica,sans-Serif" font-size="10.00" fill="#000000">+ operator*()</text>
<text text-anchor="start" x="264" y="-426.5" font-family="Helvetica,sans-Serif" font-size="10.00" fill="#000000">+ ref()</text>
</a>
</g>
</g>
<!-- Node3&#45;&gt;Node11 -->
<g id="edge12" class="edge">
<title>Node3&#45;&gt;Node11</title>
<path fill="none" stroke="#404040" d="M519.5664,-650.6616C497.2408,-631.4044 466.6675,-605.0331 437.1799,-579.5983"/>
<polygon fill="none" stroke="#404040" points="437.1605,-579.5816 430.0045,-578.6916 428.0738,-571.7437 435.2298,-572.6338 437.1605,-579.5816"/>
<text text-anchor="middle" x="487.5" y="-597" font-family="Helvetica,sans-Serif" font-size="10.00" fill="#000000"> +policy</text>
</g>
<!-- Node4 -->
<g id="node4" class="node">
<title>Node4</title>
<polygon fill="none" stroke="#bfbfbf" points="412.5,-800 412.5,-857 441.5,-857 441.5,-800 412.5,-800"/>
<text text-anchor="middle" x="427" y="-845" font-family="Helvetica,sans-Serif" font-size="10.00" fill="#000000">int</text>
<polyline fill="none" stroke="#bfbfbf" points="412.5,-838 441.5,-838 "/>
<text text-anchor="middle" x="427" y="-826" font-family="Helvetica,sans-Serif" font-size="10.00" fill="#000000"> </text>
<polyline fill="none" stroke="#bfbfbf" points="412.5,-819 441.5,-819 "/>
<text text-anchor="middle" x="427" y="-807" font-family="Helvetica,sans-Serif" font-size="10.00" fill="#000000"> </text>
</g>
<!-- Node4&#45;&gt;Node2 -->
<g id="edge3" class="edge">
<title>Node4&#45;&gt;Node2</title>
<path fill="none" stroke="#404040" d="M441.8939,-826.7581C503.9078,-819.2122 740.7735,-787.3917 792,-736 892.2516,-635.425 898.933,-544.2426 832,-419 807.8649,-373.8394 760.508,-341.532 718.391,-320.3009"/>
<polygon fill="none" stroke="#404040" points="718.3171,-320.2649 711.171,-321.2316 707.5302,-315.0071 714.6763,-314.0403 718.3171,-320.2649"/>
<text text-anchor="middle" x="891" y="-597" font-family="Helvetica,sans-Serif" font-size="10.00" fill="#000000"> +label</text>
</g>
<!-- Node6 -->
<g id="node6" class="node">
<title>Node6</title>
<g id="a_node6"><a xlink:href="../../da/d96/structo2_1_1framework_1_1InputSpec.html" target="_top" xlink:title="{o2::framework::InputSpec\n||+ InputSpec()\l+ InputSpec()\l+ InputSpec()\l+ InputSpec()\l+ InputSpec()\l+ operator==()\l}">
<polygon fill="none" stroke="#000000" points="133,-623.5 133,-735.5 275,-735.5 275,-623.5 133,-623.5"/>
<text text-anchor="middle" x="204" y="-723.5" font-family="Helvetica,sans-Serif" font-size="10.00" fill="#000000">o2::framework::InputSpec</text>
<polyline fill="none" stroke="#000000" points="133,-716.5 275,-716.5 "/>
<text text-anchor="middle" x="204" y="-704.5" font-family="Helvetica,sans-Serif" font-size="10.00" fill="#000000"> </text>
<polyline fill="none" stroke="#000000" points="133,-697.5 275,-697.5 "/>
<text text-anchor="start" x="141" y="-685.5" font-family="Helvetica,sans-Serif" font-size="10.00" fill="#000000">+ InputSpec()</text>
<text text-anchor="start" x="141" y="-674.5" font-family="Helvetica,sans-Serif" font-size="10.00" fill="#000000">+ InputSpec()</text>
<text text-anchor="start" x="141" y="-663.5" font-family="Helvetica,sans-Serif" font-size="10.00" fill="#000000">+ InputSpec()</text>
<text text-anchor="start" x="141" y="-652.5" font-family="Helvetica,sans-Serif" font-size="10.00" fill="#000000">+ InputSpec()</text>
<text text-anchor="start" x="141" y="-641.5" font-family="Helvetica,sans-Serif" font-size="10.00" fill="#000000">+ InputSpec()</text>
<text text-anchor="start" x="141" y="-630.5" font-family="Helvetica,sans-Serif" font-size="10.00" fill="#000000">+ operator==()</text>
</a>
</g>
</g>
<!-- Node4&#45;&gt;Node6 -->
<g id="edge8" class="edge">
<title>Node4&#45;&gt;Node6</title>
<path fill="none" stroke="#404040" d="M412.2549,-819.2407C387.7544,-803.7975 336.9514,-771.5303 285.3989,-736.8869"/>
<polygon fill="none" stroke="#404040" points="285.3778,-736.8726 278.1668,-736.8341 275.4289,-730.1629 282.6399,-730.2015 285.3778,-736.8726"/>
<text text-anchor="middle" x="351" y="-757" font-family="Helvetica,sans-Serif" font-size="10.00" fill="#000000"> +binding</text>
</g>
<!-- Node4&#45;&gt;Node11 -->
<g id="edge13" class="edge">
<title>Node4&#45;&gt;Node11</title>
<path fill="none" stroke="#404040" d="M425.1588,-799.8545C422.1195,-759.7809 414.749,-684.9411 399,-623 395.6032,-609.6401 393.4148,-606.6769 388,-594 387.0033,-591.6665 385.9818,-589.307 384.9411,-586.931"/>
<polygon fill="none" stroke="#404040" points="384.833,-586.6881 378.7379,-582.8345 379.9508,-575.7261 386.0459,-579.5797 384.833,-586.6881"/>
<text text-anchor="middle" x="437" y="-677" font-family="Helvetica,sans-Serif" font-size="10.00" fill="#000000"> +label</text>
</g>
<!-- Node5 -->
<g id="node5" class="node">
<title>Node5</title>
<polygon fill="none" stroke="#bfbfbf" points="745,-651 745,-708 783,-708 783,-651 745,-651"/>
<text text-anchor="middle" x="764" y="-696" font-family="Helvetica,sans-Serif" font-size="10.00" fill="#000000">bool</text>
<polyline fill="none" stroke="#bfbfbf" points="745,-689 783,-689 "/>
<text text-anchor="middle" x="764" y="-677" font-family="Helvetica,sans-Serif" font-size="10.00" fill="#000000"> </text>
<polyline fill="none" stroke="#bfbfbf" points="745,-670 783,-670 "/>
<text text-anchor="middle" x="764" y="-658" font-family="Helvetica,sans-Serif" font-size="10.00" fill="#000000"> </text>
</g>
<!-- Node5&#45;&gt;Node2 -->
<g id="edge4" class="edge">
<title>Node5&#45;&gt;Node2</title>
<path fill="none" stroke="#404040" d="M765.8289,-650.937C767.9316,-601.6858 767.682,-498.4286 736,-419 730.4376,-405.0549 722.9542,-391.3227 714.5709,-378.3021"/>
<polygon fill="none" stroke="#404040" points="714.3597,-377.9871 707.6952,-375.233 707.6743,-368.0219 714.3387,-370.776 714.3597,-377.9871"/>
<text text-anchor="middle" x="797" y="-495" font-family="Helvetica,sans-Serif" font-size="10.00" fill="#000000"> +isdangling</text>
</g>
<!-- Node5&#45;&gt;Node11 -->
<g id="edge15" class="edge">
<title>Node5&#45;&gt;Node11</title>
<path fill="none" stroke="#404040" d="M744.7598,-654.6165C726.4626,-633.3404 696.7732,-604.541 663,-594 570.4769,-565.1225 533.2469,-610.1626 439.5534,-576.4078"/>
<polygon fill="none" stroke="#404040" points="439.3505,-576.3298 432.314,-577.907 428.1518,-572.0183 435.1883,-570.4411 439.3505,-576.3298"/>
<text text-anchor="middle" x="717" y="-597" font-family="Helvetica,sans-Serif" font-size="10.00" fill="#000000"> +isdangling</text>
</g>
<!-- Node6&#45;&gt;Node2 -->
<g id="edge5" class="edge">
<title>Node6&#45;&gt;Node2</title>
<path fill="none" stroke="#404040" d="M188.7451,-623.4865C176.7076,-566.0944 168.4882,-477.2491 213,-419 254.3785,-364.8511 441.3198,-322.8737 552.3624,-302.1797"/>
<polygon fill="none" stroke="#404040" points="552.386,-302.1754 557.5626,-297.1552 564.1877,-300.0028 559.0111,-305.023 552.386,-302.1754"/>
<text text-anchor="middle" x="230" y="-495" font-family="Helvetica,sans-Serif" font-size="10.00" fill="#000000"> +spec</text>
</g>
<!-- Node6&#45;&gt;Node11 -->
<g id="edge16" class="edge">
<title>Node6&#45;&gt;Node11</title>
<path fill="none" stroke="#404040" d="M246.5306,-623.4089C255.6182,-611.4239 265.4278,-598.4865 275.1793,-585.6259"/>
<polygon fill="none" stroke="#404040" points="275.3617,-585.3853 275.7995,-578.1874 282.6121,-575.8232 282.1742,-583.021 275.3617,-585.3853"/>
<text text-anchor="middle" x="282" y="-597" font-family="Helvetica,sans-Serif" font-size="10.00" fill="#000000"> +spec</text>
</g>
<!-- Node7 -->
<g id="node7" class="node">
<title>Node7</title>
<polygon fill="none" stroke="#bfbfbf" points="182,-800 182,-857 270,-857 270,-800 182,-800"/>
<text text-anchor="middle" x="226" y="-845" font-family="Helvetica,sans-Serif" font-size="10.00" fill="#000000">enum Lifetime</text>
<polyline fill="none" stroke="#bfbfbf" points="182,-838 270,-838 "/>
<text text-anchor="middle" x="226" y="-826" font-family="Helvetica,sans-Serif" font-size="10.00" fill="#000000"> </text>
<polyline fill="none" stroke="#bfbfbf" points="182,-819 270,-819 "/>
<text text-anchor="middle" x="226" y="-807" font-family="Helvetica,sans-Serif" font-size="10.00" fill="#000000"> </text>
</g>
<!-- Node7&#45;&gt;Node6 -->
<g id="edge6" class="edge">
<title>Node7&#45;&gt;Node6</title>
<path fill="none" stroke="#404040" d="M221.7582,-799.7713C219.556,-784.8567 216.7639,-765.9461 214.0495,-747.5623"/>
<polygon fill="none" stroke="#404040" points="214.0368,-747.4762 209.2033,-742.1249 212.2839,-735.6049 217.1175,-740.9563 214.0368,-747.4762"/>
<text text-anchor="middle" x="242" y="-757" font-family="Helvetica,sans-Serif" font-size="10.00" fill="#000000"> +lifetime</text>
</g>
<!-- Node8 -->
<g id="node8" class="node">
<title>Node8</title>
<polygon fill="none" stroke="#bfbfbf" points="0,-783.5 0,-873.5 164,-873.5 164,-783.5 0,-783.5"/>
<text text-anchor="start" x="8" y="-861.5" font-family="Helvetica,sans-Serif" font-size="10.00" fill="#000000">variant&lt; o2::framework</text>
<text text-anchor="start" x="8" y="-850.5" font-family="Helvetica,sans-Serif" font-size="10.00" fill="#000000">::ConcreteDataMatcher,</text>
<text text-anchor="start" x="8" y="-839.5" font-family="Helvetica,sans-Serif" font-size="10.00" fill="#000000"> o2::framework::data_matcher</text>
<text text-anchor="middle" x="82" y="-828.5" font-family="Helvetica,sans-Serif" font-size="10.00" fill="#000000">::DataDescriptorMatcher &gt;</text>
<polyline fill="none" stroke="#bfbfbf" points="0,-821.5 164,-821.5 "/>
<text text-anchor="middle" x="82" y="-809.5" font-family="Helvetica,sans-Serif" font-size="10.00" fill="#000000"> </text>
<polyline fill="none" stroke="#bfbfbf" points="0,-802.5 164,-802.5 "/>
<text text-anchor="middle" x="82" y="-790.5" font-family="Helvetica,sans-Serif" font-size="10.00" fill="#000000"> </text>
</g>
<!-- Node8&#45;&gt;Node6 -->
<g id="edge7" class="edge">
<title>Node8&#45;&gt;Node6</title>
<path fill="none" stroke="#404040" d="M118.9351,-783.3907C128.8676,-771.2601 139.8138,-757.8913 150.4531,-744.8975"/>
<polygon fill="none" stroke="#404040" points="150.5246,-744.8101 151.2308,-737.6336 158.1269,-735.5254 157.4207,-742.7018 150.5246,-744.8101"/>
<text text-anchor="middle" x="169" y="-757" font-family="Helvetica,sans-Serif" font-size="10.00" fill="#000000"> +matcher</text>
</g>
<!-- Node9 -->
<g id="node9" class="node">
<title>Node9</title>
<polygon fill="none" stroke="#bfbfbf" points="643.5,-651 643.5,-708 704.5,-708 704.5,-651 643.5,-651"/>
<text text-anchor="middle" x="674" y="-696" font-family="Helvetica,sans-Serif" font-size="10.00" fill="#000000">unsigned</text>
<polyline fill="none" stroke="#bfbfbf" points="643.5,-689 704.5,-689 "/>
<text text-anchor="middle" x="674" y="-677" font-family="Helvetica,sans-Serif" font-size="10.00" fill="#000000"> </text>
<polyline fill="none" stroke="#bfbfbf" points="643.5,-670 704.5,-670 "/>
<text text-anchor="middle" x="674" y="-658" font-family="Helvetica,sans-Serif" font-size="10.00" fill="#000000"> </text>
</g>
<!-- Node9&#45;&gt;Node2 -->
<g id="edge9" class="edge">
<title>Node9&#45;&gt;Node2</title>
<path fill="none" stroke="#404040" d="M671.2058,-650.7121C665.8201,-595.2251 653.7849,-471.2313 645.2905,-383.7164"/>
<polygon fill="none" stroke="#404040" points="645.2758,-383.5646 640.7148,-377.9791 644.1164,-371.6207 648.6774,-377.2062 645.2758,-383.5646"/>
<text text-anchor="middle" x="698" y="-495" font-family="Helvetica,sans-Serif" font-size="10.00" fill="#000000"> +mTaskHash</text>
</g>
<!-- Node9&#45;&gt;Node11 -->
<g id="edge17" class="edge">
<title>Node9&#45;&gt;Node11</title>
<path fill="none" stroke="#404040" d="M657.8677,-650.8241C650.8335,-640.663 641.7257,-630.0217 631,-623 585.4551,-593.1835 564.9113,-606.7965 512,-594 482.0647,-586.7602 470.1365,-590.3601 439.3561,-576.616"/>
<polygon fill="none" stroke="#404040" points="438.966,-576.4294 431.8271,-577.4475 428.1416,-571.2493 435.2804,-570.2312 438.966,-576.4294"/>
<text text-anchor="middle" x="625" y="-597" font-family="Helvetica,sans-Serif" font-size="10.00" fill="#000000"> +mTaskHash</text>
</g>
<!-- Node10 -->
<g id="node10" class="node">
<title>Node10</title>
<polygon fill="none" stroke="#bfbfbf" points="446,-469 446,-526 562,-526 562,-469 446,-469"/>
<text text-anchor="middle" x="504" y="-514" font-family="Helvetica,sans-Serif" font-size="10.00" fill="#000000">shared_ptr&lt; TH1F &gt;</text>
<polyline fill="none" stroke="#bfbfbf" points="446,-507 562,-507 "/>
<text text-anchor="middle" x="504" y="-495" font-family="Helvetica,sans-Serif" font-size="10.00" fill="#000000"> </text>
<polyline fill="none" stroke="#bfbfbf" points="446,-488 562,-488 "/>
<text text-anchor="middle" x="504" y="-476" font-family="Helvetica,sans-Serif" font-size="10.00" fill="#000000"> </text>
</g>
<!-- Node10&#45;&gt;Node2 -->
<g id="edge10" class="edge">
<title>Node10&#45;&gt;Node2</title>
<path fill="none" stroke="#404040" d="M510.7583,-468.7252C516.8243,-446.2394 527.0869,-414.7556 542,-390 546.4424,-382.6256 551.4772,-375.3218 556.8523,-368.2125"/>
<polygon fill="none" stroke="#404040" points="556.9531,-368.0843 557.5166,-360.8952 564.3693,-358.6502 563.8059,-365.8393 556.9531,-368.0843"/>
<text text-anchor="middle" x="563" y="-393" font-family="Helvetica,sans-Serif" font-size="10.00" fill="#000000"> +object</text>
</g>
<!-- Node11&#45;&gt;Node2 -->
<g id="edge11" class="edge">
<title>Node11&#45;&gt;Node2</title>
<path fill="none" stroke="#ffa500" d="M436.1767,-419.6097C436.4514,-419.406 436.7258,-419.2027 437,-419 478.0748,-388.6307 525.8323,-357.0752 564.2653,-332.546"/>
<polygon fill="#ffa500" stroke="#ffa500" points="434.0389,-416.8381 428.1516,-425.6467 438.247,-422.432 434.0389,-416.8381"/>
<text text-anchor="middle" x="500.5" y="-393" font-family="Helvetica,sans-Serif" font-size="10.00" fill="#000000"> &lt; TH1F &gt;</text>
</g>
<!-- Node12 -->
<g id="node12" class="node">
<title>Node12</title>
<polygon fill="none" stroke="#bfbfbf" points="293.5,-651 293.5,-708 390.5,-708 390.5,-651 293.5,-651"/>
<text text-anchor="middle" x="342" y="-696" font-family="Helvetica,sans-Serif" font-size="10.00" fill="#000000">shared_ptr&lt; T &gt;</text>
<polyline fill="none" stroke="#bfbfbf" points="293.5,-689 390.5,-689 "/>
<text text-anchor="middle" x="342" y="-677" font-family="Helvetica,sans-Serif" font-size="10.00" fill="#000000"> </text>
<polyline fill="none" stroke="#bfbfbf" points="293.5,-670 390.5,-670 "/>
<text text-anchor="middle" x="342" y="-658" font-family="Helvetica,sans-Serif" font-size="10.00" fill="#000000"> </text>
</g>
<!-- Node12&#45;&gt;Node11 -->
<g id="edge14" class="edge">
<title>Node12&#45;&gt;Node11</title>
<path fill="none" stroke="#404040" d="M342,-650.6616C342,-633.4991 342,-610.686 342,-587.9212"/>
<polygon fill="none" stroke="#404040" points="342.0001,-587.6849 338,-581.6849 342,-575.6849 346,-581.6848 342.0001,-587.6849"/>
<text text-anchor="middle" x="363" y="-597" font-family="Helvetica,sans-Serif" font-size="10.00" fill="#000000"> +object</text>
</g>
<!-- Node13 -->
<g id="node13" class="node">
<title>Node13</title>
<g id="a_node13"><a xlink:href="../../d1/d9a/structo2_1_1framework_1_1expressions_1_1Filter.html" target="_top" xlink:title="A struct, containing the root of the expression tree. ">
<polygon fill="none" stroke="#000000" points="814,-248.5 814,-327.5 966,-327.5 966,-248.5 814,-248.5"/>
<text text-anchor="start" x="822" y="-315.5" font-family="Helvetica,sans-Serif" font-size="10.00" fill="#000000">o2::framework::expressions</text>
<text text-anchor="middle" x="890" y="-304.5" font-family="Helvetica,sans-Serif" font-size="10.00" fill="#000000">::Filter</text>
<polyline fill="none" stroke="#000000" points="814,-297.5 966,-297.5 "/>
<text text-anchor="middle" x="890" y="-285.5" font-family="Helvetica,sans-Serif" font-size="10.00" fill="#000000"> </text>
<polyline fill="none" stroke="#000000" points="814,-278.5 966,-278.5 "/>
<text text-anchor="start" x="822" y="-266.5" font-family="Helvetica,sans-Serif" font-size="10.00" fill="#000000">+ Filter()</text>
<text text-anchor="start" x="822" y="-255.5" font-family="Helvetica,sans-Serif" font-size="10.00" fill="#000000">+ Filter()</text>
</a>
</g>
</g>
<!-- Node13&#45;&gt;Node1 -->
<g id="edge18" class="edge">
<title>Node13&#45;&gt;Node1</title>
<path fill="none" stroke="#404040" d="M885.0443,-248.1086C877.7187,-204.0732 860.2285,-133.3054 820,-87 816.6203,-83.1097 812.8817,-79.4695 808.8914,-76.0686"/>
<polygon fill="none" stroke="#404040" points="808.6706,-75.8981 801.477,-75.3956 799.1741,-68.5621 806.3677,-69.0646 808.6706,-75.8981"/>
<text text-anchor="middle" x="924" y="-139.5" font-family="Helvetica,sans-Serif" font-size="10.00" fill="#000000"> +onlyacceptedevents</text>
<text text-anchor="middle" x="924" y="-128.5" font-family="Helvetica,sans-Serif" font-size="10.00" fill="#000000">+onlyacceptedtracks</text>
</g>
<!-- Node14 -->
<g id="node14" class="node">
<title>Node14</title>
<polygon fill="none" stroke="#bfbfbf" points="900.5,-463.5 900.5,-531.5 1051.5,-531.5 1051.5,-463.5 900.5,-463.5"/>
<text text-anchor="start" x="908.5" y="-519.5" font-family="Helvetica,sans-Serif" font-size="10.00" fill="#000000">unique_ptr&lt; o2::framework</text>
<text text-anchor="middle" x="976" y="-508.5" font-family="Helvetica,sans-Serif" font-size="10.00" fill="#000000">::expressions::Node &gt;</text>
<polyline fill="none" stroke="#bfbfbf" points="900.5,-501.5 1051.5,-501.5 "/>
<text text-anchor="middle" x="976" y="-489.5" font-family="Helvetica,sans-Serif" font-size="10.00" fill="#000000"> </text>
<polyline fill="none" stroke="#bfbfbf" points="900.5,-482.5 1051.5,-482.5 "/>
<text text-anchor="middle" x="976" y="-470.5" font-family="Helvetica,sans-Serif" font-size="10.00" fill="#000000"> </text>
</g>
<!-- Node14&#45;&gt;Node13 -->
<g id="edge19" class="edge">
<title>Node14&#45;&gt;Node13</title>
<path fill="none" stroke="#404040" d="M961.9912,-463.3739C948.1884,-429.7496 926.9256,-377.9526 911.0818,-339.3563"/>
<polygon fill="none" stroke="#404040" points="910.9101,-338.9378 904.9312,-334.9063 906.353,-327.8367 912.3319,-331.8682 910.9101,-338.9378"/>
<text text-anchor="middle" x="953" y="-393" font-family="Helvetica,sans-Serif" font-size="10.00" fill="#000000"> +node</text>
</g>
</g>
</svg>
