<?xml version="1.0" encoding="UTF-8" standalone="no"?>
<!DOCTYPE svg PUBLIC "-//W3C//DTD SVG 1.1//EN"
 "http://www.w3.org/Graphics/SVG/1.1/DTD/svg11.dtd">
<!-- Generated by graphviz version 2.40.1 (20161225.0304)
 -->
<!-- Title: o2::framework::OutputObj&lt; T &gt; Pages: 1 -->
<svg width="639pt" height="463pt"
 viewBox="0.00 0.00 639.00 463.00" xmlns="http://www.w3.org/2000/svg" xmlns:xlink="http://www.w3.org/1999/xlink">
<g id="graph0" class="graph" transform="scale(1 1) rotate(0) translate(4 459)">
<title>o2::framework::OutputObj&lt; T &gt;</title>
<!-- Node10 -->
<g id="node1" class="node">
<title>Node10</title>
<polygon fill="#bfbfbf" stroke="#000000" points="317.5,-.5 317.5,-156.5 489.5,-156.5 489.5,-.5 317.5,-.5"/>
<text text-anchor="middle" x="403.5" y="-144.5" font-family="Helvetica,sans-Serif" font-size="10.00" fill="#000000">o2::framework::OutputObj&lt; T &gt;</text>
<polyline fill="none" stroke="#000000" points="317.5,-137.5 489.5,-137.5 "/>
<text text-anchor="middle" x="403.5" y="-125.5" font-family="Helvetica,sans-Serif" font-size="10.00" fill="#000000"> </text>
<polyline fill="none" stroke="#000000" points="317.5,-118.5 489.5,-118.5 "/>
<text text-anchor="start" x="325.5" y="-106.5" font-family="Helvetica,sans-Serif" font-size="10.00" fill="#000000">+ OutputObj()</text>
<text text-anchor="start" x="325.5" y="-95.5" font-family="Helvetica,sans-Serif" font-size="10.00" fill="#000000">+ OutputObj()</text>
<text text-anchor="start" x="325.5" y="-84.5" font-family="Helvetica,sans-Serif" font-size="10.00" fill="#000000">+ setObject()</text>
<text text-anchor="start" x="325.5" y="-73.5" font-family="Helvetica,sans-Serif" font-size="10.00" fill="#000000">+ setObject()</text>
<text text-anchor="start" x="325.5" y="-62.5" font-family="Helvetica,sans-Serif" font-size="10.00" fill="#000000">+ setObject()</text>
<text text-anchor="start" x="325.5" y="-51.5" font-family="Helvetica,sans-Serif" font-size="10.00" fill="#000000">+ setHash()</text>
<text text-anchor="start" x="325.5" y="-40.5" font-family="Helvetica,sans-Serif" font-size="10.00" fill="#000000">+ spec()</text>
<text text-anchor="start" x="325.5" y="-29.5" font-family="Helvetica,sans-Serif" font-size="10.00" fill="#000000">+ operator&#45;&gt;()</text>
<text text-anchor="start" x="325.5" y="-18.5" font-family="Helvetica,sans-Serif" font-size="10.00" fill="#000000">+ operator*()</text>
<text text-anchor="start" x="325.5" y="-7.5" font-family="Helvetica,sans-Serif" font-size="10.00" fill="#000000">+ ref()</text>
</g>
<!-- Node11 -->
<g id="node2" class="node">
<title>Node11</title>
<polygon fill="none" stroke="#bfbfbf" points="0,-232 0,-289 139,-289 139,-232 0,-232"/>
<text text-anchor="middle" x="69.5" y="-277" font-family="Helvetica,sans-Serif" font-size="10.00" fill="#000000">OutputObjHandlingPolicy</text>
<polyline fill="none" stroke="#bfbfbf" points="0,-270 139,-270 "/>
<text text-anchor="middle" x="69.5" y="-258" font-family="Helvetica,sans-Serif" font-size="10.00" fill="#000000"> </text>
<polyline fill="none" stroke="#bfbfbf" points="0,-251 139,-251 "/>
<text text-anchor="middle" x="69.5" y="-239" font-family="Helvetica,sans-Serif" font-size="10.00" fill="#000000"> </text>
</g>
<!-- Node11&#45;&gt;Node10 -->
<g id="edge1" class="edge">
<title>Node11&#45;&gt;Node10</title>
<path fill="none" stroke="#404040" d="M80.3872,-231.9126C88.7875,-213.3424 102.0997,-189.9037 120.5,-175 173.5217,-132.0538 246.7038,-107.7686 305.365,-94.3034"/>
<polygon fill="none" stroke="#404040" points="305.5538,-94.2618 310.5491,-89.0611 317.271,-91.6719 312.2757,-96.8726 305.5538,-94.2618"/>
<text text-anchor="middle" x="141" y="-178" font-family="Helvetica,sans-Serif" font-size="10.00" fill="#000000"> +policy</text>
</g>
<!-- Node12 -->
<g id="node3" class="node">
<title>Node12</title>
<polygon fill="none" stroke="#bfbfbf" points="181,-381 181,-438 210,-438 210,-381 181,-381"/>
<text text-anchor="middle" x="195.5" y="-426" font-family="Helvetica,sans-Serif" font-size="10.00" fill="#000000">int</text>
<polyline fill="none" stroke="#bfbfbf" points="181,-419 210,-419 "/>
<text text-anchor="middle" x="195.5" y="-407" font-family="Helvetica,sans-Serif" font-size="10.00" fill="#000000"> </text>
<polyline fill="none" stroke="#bfbfbf" points="181,-400 210,-400 "/>
<text text-anchor="middle" x="195.5" y="-388" font-family="Helvetica,sans-Serif" font-size="10.00" fill="#000000"> </text>
</g>
<!-- Node12&#45;&gt;Node10 -->
<g id="edge2" class="edge">
<title>Node12&#45;&gt;Node10</title>
<path fill="none" stroke="#404040" d="M184.7567,-380.98C170.8961,-339.073 152.1653,-259.7973 184.5,-204 210.8876,-158.465 260.7152,-128.0332 306.1824,-108.5554"/>
<polygon fill="none" stroke="#404040" points="306.2315,-108.5352 310.2524,-102.5491 317.3245,-103.9585 313.3036,-109.9445 306.2315,-108.5352"/>
<text text-anchor="middle" x="202.5" y="-258" font-family="Helvetica,sans-Serif" font-size="10.00" fill="#000000"> +label</text>
</g>
<!-- Node15 -->
<g id="node6" class="node">
<title>Node15</title>
<g id="a_node6"><a xlink:href="../../da/d96/structo2_1_1framework_1_1InputSpec.html" target="_top" xlink:title="{o2::framework::InputSpec\n||+ InputSpec()\l+ InputSpec()\l+ InputSpec()\l+ InputSpec()\l+ InputSpec()\l+ operator==()\l}">
<polygon fill="none" stroke="#000000" points="229.5,-204.5 229.5,-316.5 371.5,-316.5 371.5,-204.5 229.5,-204.5"/>
<text text-anchor="middle" x="300.5" y="-304.5" font-family="Helvetica,sans-Serif" font-size="10.00" fill="#000000">o2::framework::InputSpec</text>
<polyline fill="none" stroke="#000000" points="229.5,-297.5 371.5,-297.5 "/>
<text text-anchor="middle" x="300.5" y="-285.5" font-family="Helvetica,sans-Serif" font-size="10.00" fill="#000000"> </text>
<polyline fill="none" stroke="#000000" points="229.5,-278.5 371.5,-278.5 "/>
<text text-anchor="start" x="237.5" y="-266.5" font-family="Helvetica,sans-Serif" font-size="10.00" fill="#000000">+ InputSpec()</text>
<text text-anchor="start" x="237.5" y="-255.5" font-family="Helvetica,sans-Serif" font-size="10.00" fill="#000000">+ InputSpec()</text>
<text text-anchor="start" x="237.5" y="-244.5" font-family="Helvetica,sans-Serif" font-size="10.00" fill="#000000">+ InputSpec()</text>
<text text-anchor="start" x="237.5" y="-233.5" font-family="Helvetica,sans-Serif" font-size="10.00" fill="#000000">+ InputSpec()</text>
<text text-anchor="start" x="237.5" y="-222.5" font-family="Helvetica,sans-Serif" font-size="10.00" fill="#000000">+ InputSpec()</text>
<text text-anchor="start" x="237.5" y="-211.5" font-family="Helvetica,sans-Serif" font-size="10.00" fill="#000000">+ operator==()</text>
</a>
</g>
</g>
<!-- Node12&#45;&gt;Node15 -->
<g id="edge8" class="edge">
<title>Node12&#45;&gt;Node15</title>
<path fill="none" stroke="#404040" d="M210.145,-386.4262C219.6965,-371.582 232.5623,-351.9652 244.5,-335 246.4641,-332.2087 248.4848,-329.3716 250.5393,-326.5152"/>
<polygon fill="none" stroke="#404040" points="250.5683,-326.4753 250.8593,-319.27 257.6223,-316.7675 257.3312,-323.9727 250.5683,-326.4753"/>
<text text-anchor="middle" x="268.5" y="-338" font-family="Helvetica,sans-Serif" font-size="10.00" fill="#000000"> +binding</text>
</g>
<!-- Node13 -->
<g id="node4" class="node">
<title>Node13</title>
<polygon fill="none" stroke="#bfbfbf" points="390,-232 390,-289 487,-289 487,-232 390,-232"/>
<text text-anchor="middle" x="438.5" y="-277" font-family="Helvetica,sans-Serif" font-size="10.00" fill="#000000">shared_ptr&lt; T &gt;</text>
<polyline fill="none" stroke="#bfbfbf" points="390,-270 487,-270 "/>
<text text-anchor="middle" x="438.5" y="-258" font-family="Helvetica,sans-Serif" font-size="10.00" fill="#000000"> </text>
<polyline fill="none" stroke="#bfbfbf" points="390,-251 487,-251 "/>
<text text-anchor="middle" x="438.5" y="-239" font-family="Helvetica,sans-Serif" font-size="10.00" fill="#000000"> </text>
</g>
<!-- Node13&#45;&gt;Node10 -->
<g id="edge3" class="edge">
<title>Node13&#45;&gt;Node10</title>
<path fill="none" stroke="#404040" d="M432.9541,-231.6616C429.6385,-214.42 425.2261,-191.4756 420.8282,-168.6065"/>
<polygon fill="none" stroke="#404040" points="420.8018,-168.469 415.7407,-163.3323 418.5356,-156.6849 423.5967,-161.8215 420.8018,-168.469"/>
<text text-anchor="middle" x="444.5" y="-178" font-family="Helvetica,sans-Serif" font-size="10.00" fill="#000000"> +object</text>
</g>
<!-- Node14 -->
<g id="node5" class="node">
<title>Node14</title>
<polygon fill="none" stroke="#bfbfbf" points="505.5,-232 505.5,-289 543.5,-289 543.5,-232 505.5,-232"/>
<text text-anchor="middle" x="524.5" y="-277" font-family="Helvetica,sans-Serif" font-size="10.00" fill="#000000">bool</text>
<polyline fill="none" stroke="#bfbfbf" points="505.5,-270 543.5,-270 "/>
<text text-anchor="middle" x="524.5" y="-258" font-family="Helvetica,sans-Serif" font-size="10.00" fill="#000000"> </text>
<polyline fill="none" stroke="#bfbfbf" points="505.5,-251 543.5,-251 "/>
<text text-anchor="middle" x="524.5" y="-239" font-family="Helvetica,sans-Serif" font-size="10.00" fill="#000000"> </text>
</g>
<!-- Node14&#45;&gt;Node10 -->
<g id="edge4" class="edge">
<title>Node14&#45;&gt;Node10</title>
<path fill="none" stroke="#404040" d="M511.5035,-231.8053C507.0707,-222.7284 501.8693,-212.7788 496.5,-204 488.9079,-191.5869 480.4128,-178.864 471.7268,-166.5066"/>
<polygon fill="none" stroke="#404040" points="471.695,-166.4618 464.9561,-163.895 464.7335,-156.6873 471.4724,-159.2541 471.695,-166.4618"/>
<text text-anchor="middle" x="513.5" y="-178" font-family="Helvetica,sans-Serif" font-size="10.00" fill="#000000"> +isdangling</text>
</g>
<!-- Node15&#45;&gt;Node10 -->
<g id="edge5" class="edge">
<title>Node15&#45;&gt;Node10</title>
<path fill="none" stroke="#404040" d="M332.2438,-204.4089C338.8936,-192.6589 346.0614,-179.9935 353.1984,-167.3825"/>
<polygon fill="none" stroke="#404040" points="353.2638,-167.2668 352.7378,-160.0748 359.1742,-156.8232 359.7002,-164.0151 353.2638,-167.2668"/>
<text text-anchor="middle" x="362.5" y="-178" font-family="Helvetica,sans-Serif" font-size="10.00" fill="#000000"> +spec</text>
</g>
<!-- Node16 -->
<g id="node7" class="node">
<title>Node16</title>
<polygon fill="none" stroke="#bfbfbf" points="248.5,-381 248.5,-438 336.5,-438 336.5,-381 248.5,-381"/>
<text text-anchor="middle" x="292.5" y="-426" font-family="Helvetica,sans-Serif" font-size="10.00" fill="#000000">enum Lifetime</text>
<polyline fill="none" stroke="#bfbfbf" points="248.5,-419 336.5,-419 "/>
<text text-anchor="middle" x="292.5" y="-407" font-family="Helvetica,sans-Serif" font-size="10.00" fill="#000000"> </text>
<polyline fill="none" stroke="#bfbfbf" points="248.5,-400 336.5,-400 "/>
<text text-anchor="middle" x="292.5" y="-388" font-family="Helvetica,sans-Serif" font-size="10.00" fill="#000000"> </text>
</g>
<!-- Node16&#45;&gt;Node15 -->
<g id="edge6" class="edge">
<title>Node16&#45;&gt;Node15</title>
<path fill="none" stroke="#404040" d="M294.0425,-380.7713C294.8395,-365.9277 295.8489,-347.1262 296.8315,-328.825"/>
<polygon fill="none" stroke="#404040" points="296.8442,-328.5877 293.1717,-322.3818 297.4877,-316.6049 301.1602,-322.8108 296.8442,-328.5877"/>
<text text-anchor="middle" x="321.5" y="-338" font-family="Helvetica,sans-Serif" font-size="10.00" fill="#000000"> +lifetime</text>
</g>
<!-- Node17 -->
<g id="node8" class="node">
<title>Node17</title>
<polygon fill="none" stroke="#bfbfbf" points="354.5,-364.5 354.5,-454.5 518.5,-454.5 518.5,-364.5 354.5,-364.5"/>
<text text-anchor="start" x="362.5" y="-442.5" font-family="Helvetica,sans-Serif" font-size="10.00" fill="#000000">variant&lt; o2::framework</text>
<text text-anchor="start" x="362.5" y="-431.5" font-family="Helvetica,sans-Serif" font-size="10.00" fill="#000000">::ConcreteDataMatcher,</text>
<text text-anchor="start" x="362.5" y="-420.5" font-family="Helvetica,sans-Serif" font-size="10.00" fill="#000000"> o2::framework::data_matcher</text>
<text text-anchor="middle" x="436.5" y="-409.5" font-family="Helvetica,sans-Serif" font-size="10.00" fill="#000000">::DataDescriptorMatcher &gt;</text>
<polyline fill="none" stroke="#bfbfbf" points="354.5,-402.5 518.5,-402.5 "/>
<text text-anchor="middle" x="436.5" y="-390.5" font-family="Helvetica,sans-Serif" font-size="10.00" fill="#000000"> </text>
<polyline fill="none" stroke="#bfbfbf" points="354.5,-383.5 518.5,-383.5 "/>
<text text-anchor="middle" x="436.5" y="-371.5" font-family="Helvetica,sans-Serif" font-size="10.00" fill="#000000"> </text>
</g>
<!-- Node17&#45;&gt;Node15 -->
<g id="edge7" class="edge">
<title>Node17&#45;&gt;Node15</title>
<path fill="none" stroke="#404040" d="M395.3264,-364.3907C384.1467,-352.1423 371.8147,-338.6316 359.8463,-325.5191"/>
<polygon fill="none" stroke="#404040" points="359.7271,-325.3885 352.7278,-323.6535 351.6372,-316.5254 358.6365,-318.2603 359.7271,-325.3885"/>
<text text-anchor="middle" x="402.5" y="-338" font-family="Helvetica,sans-Serif" font-size="10.00" fill="#000000"> +matcher</text>
</g>
<!-- Node18 -->
<g id="node9" class="node">
<title>Node18</title>
<polygon fill="none" stroke="#bfbfbf" points="570,-232 570,-289 631,-289 631,-232 570,-232"/>
<text text-anchor="middle" x="600.5" y="-277" font-family="Helvetica,sans-Serif" font-size="10.00" fill="#000000">unsigned</text>
<polyline fill="none" stroke="#bfbfbf" points="570,-270 631,-270 "/>
<text text-anchor="middle" x="600.5" y="-258" font-family="Helvetica,sans-Serif" font-size="10.00" fill="#000000"> </text>
<polyline fill="none" stroke="#bfbfbf" points="570,-251 631,-251 "/>
<text text-anchor="middle" x="600.5" y="-239" font-family="Helvetica,sans-Serif" font-size="10.00" fill="#000000"> </text>
</g>
<!-- Node18&#45;&gt;Node10 -->
<g id="edge9" class="edge">
<title>Node18&#45;&gt;Node10</title>
<path fill="none" stroke="#404040" d="M587.1051,-231.7975C577.9127,-214.0951 564.5023,-191.6687 548.5,-175 534.1452,-160.0474 517.0817,-146.1836 499.7894,-133.8975"/>
<polygon fill="none" stroke="#404040" points="499.4694,-133.6762 492.2593,-133.5526 489.6003,-126.8497 496.8103,-126.9732 499.4694,-133.6762"/>
<text text-anchor="middle" x="590.5" y="-178" font-family="Helvetica,sans-Serif" font-size="10.00" fill="#000000"> +mTaskHash</text>
</g>
</g>
</svg>
