<?xml version="1.0" encoding="UTF-8" standalone="no"?>
<!DOCTYPE svg PUBLIC "-//W3C//DTD SVG 1.1//EN"
 "http://www.w3.org/Graphics/SVG/1.1/DTD/svg11.dtd">
<!-- Generated by graphviz version 2.40.1 (20161225.0304)
 -->
<!-- Title: o2::data_flow::TPCTestCluster Pages: 1 -->
<svg width="175pt" height="204pt"
 viewBox="0.00 0.00 174.50 204.00" xmlns="http://www.w3.org/2000/svg" xmlns:xlink="http://www.w3.org/1999/xlink">
<g id="graph0" class="graph" transform="scale(1 1) rotate(0) translate(4 200)">
<title>o2::data_flow::TPCTestCluster</title>
<!-- Node1 -->
<g id="node1" class="node">
<title>Node1</title>
<polygon fill="#bfbfbf" stroke="#000000" points="6.5,-.5 6.5,-57.5 166.5,-57.5 166.5,-.5 6.5,-.5"/>
<text text-anchor="middle" x="86.5" y="-45.5" font-family="Helvetica,sans-Serif" font-size="10.00" fill="#000000">o2::data_flow::TPCTestCluster</text>
<polyline fill="none" stroke="#000000" points="6.5,-38.5 166.5,-38.5 "/>
<text text-anchor="middle" x="86.5" y="-26.5" font-family="Helvetica,sans-Serif" font-size="10.00" fill="#000000"> </text>
<polyline fill="none" stroke="#000000" points="6.5,-19.5 166.5,-19.5 "/>
<text text-anchor="middle" x="86.5" y="-7.5" font-family="Helvetica,sans-Serif" font-size="10.00" fill="#000000"> </text>
</g>
<!-- Node2 -->
<g id="node2" class="node">
<title>Node2</title>
<polygon fill="none" stroke="#bfbfbf" points="0,-138.5 0,-195.5 85,-195.5 85,-138.5 0,-138.5"/>
<text text-anchor="middle" x="42.5" y="-183.5" font-family="Helvetica,sans-Serif" font-size="10.00" fill="#000000">unsigned long</text>
<polyline fill="none" stroke="#bfbfbf" points="0,-176.5 85,-176.5 "/>
<text text-anchor="middle" x="42.5" y="-164.5" font-family="Helvetica,sans-Serif" font-size="10.00" fill="#000000"> </text>
<polyline fill="none" stroke="#bfbfbf" points="0,-157.5 85,-157.5 "/>
<text text-anchor="middle" x="42.5" y="-145.5" font-family="Helvetica,sans-Serif" font-size="10.00" fill="#000000"> </text>
</g>
<!-- Node2&#45;&gt;Node1 -->
<g id="edge1" class="edge">
<title>Node2&#45;&gt;Node1</title>
<path fill="none" stroke="#404040" d="M37.6682,-138.1141C35.8165,-119.7022 35.7261,-95.6925 43.5,-76 44.6371,-73.1197 46.0398,-70.3072 47.6365,-67.5821"/>
<polygon fill="none" stroke="#404040" points="47.7605,-67.4034 47.8969,-60.1935 54.6045,-57.5464 54.4682,-64.7562 47.7605,-67.4034"/>
<text text-anchor="middle" x="76.5" y="-95.5" font-family="Helvetica,sans-Serif" font-size="10.00" fill="#000000"> +timeStamp</text>
</g>
<!-- Node3 -->
<g id="node3" class="node">
<title>Node3</title>
<g id="a_node3"><a xlink:href="../../d4/dc3/classfloat.html" target="_top" xlink:title="{float\n||}">
<polygon fill="none" stroke="#000000" points="112.5,-138.5 112.5,-195.5 150.5,-195.5 150.5,-138.5 112.5,-138.5"/>
<text text-anchor="middle" x="131.5" y="-183.5" font-family="Helvetica,sans-Serif" font-size="10.00" fill="#000000">float</text>
<polyline fill="none" stroke="#000000" points="112.5,-176.5 150.5,-176.5 "/>
<text text-anchor="middle" x="131.5" y="-164.5" font-family="Helvetica,sans-Serif" font-size="10.00" fill="#000000"> </text>
<polyline fill="none" stroke="#000000" points="112.5,-157.5 150.5,-157.5 "/>
<text text-anchor="middle" x="131.5" y="-145.5" font-family="Helvetica,sans-Serif" font-size="10.00" fill="#000000"> </text>
</a>
</g>
</g>
<!-- Node3&#45;&gt;Node1 -->
<g id="edge2" class="edge">
<title>Node3&#45;&gt;Node1</title>
<path fill="none" stroke="#404040" d="M126.2237,-138.2478C122.486,-120.1029 116.8344,-96.3352 109.5,-76 108.6452,-73.63 107.7056,-71.2218 106.7097,-68.8116"/>
<polygon fill="none" stroke="#404040" points="106.6236,-68.6178 100.5299,-64.762 101.7454,-57.654 107.8391,-61.5099 106.6236,-68.6178"/>
<text text-anchor="middle" x="130.5" y="-112" font-family="Helvetica,sans-Serif" font-size="10.00" fill="#000000"> +q</text>
<text text-anchor="middle" x="130.5" y="-101" font-family="Helvetica,sans-Serif" font-size="10.00" fill="#000000">+x</text>
<text text-anchor="middle" x="130.5" y="-90" font-family="Helvetica,sans-Serif" font-size="10.00" fill="#000000">+y</text>
<text text-anchor="middle" x="130.5" y="-79" font-family="Helvetica,sans-Serif" font-size="10.00" fill="#000000">+z</text>
</g>
</g>
</svg>
