<?xml version="1.0" encoding="UTF-8" standalone="no"?>
<!DOCTYPE svg PUBLIC "-//W3C//DTD SVG 1.1//EN"
 "http://www.w3.org/Graphics/SVG/1.1/DTD/svg11.dtd">
<!-- Generated by graphviz version 2.40.1 (20161225.0304)
 -->
<!-- Title: DTask Pages: 1 -->
<!--zoomable 827 -->
<svg id="main" version="1.1" xmlns="http://www.w3.org/2000/svg" xmlns:xlink="http://www.w3.org/1999/xlink" xml:space="preserve" onload="init(evt)">
<style type="text/css"><![CDATA[
.edge:hover path { stroke: red; }
.edge:hover polygon { stroke: red; fill: red; }
]]></style>
<script type="text/javascript"><![CDATA[
var edges = document.getElementsByTagName('g');
if (edges && edges.length) {
  for (var i=0;i<edges.length;i++) {
    if (edges[i].id.substr(0,4)=='edge') {
      edges[i].setAttribute('class','edge');
    }
  }
}
]]></script>
        <defs>
                <circle id="rim" cx="0" cy="0" r="7"/>
                <circle id="rim2" cx="0" cy="0" r="3.5"/>
                <g id="zoomPlus">
                        <use xlink:href="#rim" fill="#404040">
                                <set attributeName="fill" to="#808080" begin="zoomplus.mouseover" end="zoomplus.mouseout"/>
                        </use>
                        <path d="M-4,0h8M0,-4v8" fill="none" stroke="white" stroke-width="1.5" pointer-events="none"/>
                </g>
                <g id="zoomMin">
                        <use xlink:href="#rim" fill="#404040">
                                <set attributeName="fill" to="#808080" begin="zoomminus.mouseover" end="zoomminus.mouseout"/>
                        </use>
                        <path d="M-4,0h8" fill="none" stroke="white" stroke-width="1.5" pointer-events="none"/>
                </g>
                <g id="dirArrow">
                        <path fill="none" stroke="white" stroke-width="1.5" d="M0,-3.0v7 M-2.5,-0.5L0,-3.0L2.5,-0.5"/>
                </g>
               <g id="resetDef">
                       <use xlink:href="#rim2" fill="#404040">
                               <set attributeName="fill" to="#808080" begin="reset.mouseover" end="reset.mouseout"/>
                       </use>
               </g>
        </defs>

<script type="text/javascript">
var viewWidth = 833;
var viewHeight = 827;
var sectionId = 'dynsection-0';
</script>
<script xlink:href="../../svgpan.js"/>
<svg id="graph" class="graph">
<g id="viewport">
<title>DTask</title>
<!-- Node1 -->
<g id="node1" class="node">
<title>Node1</title>
<polygon fill="#bfbfbf" stroke="#000000" points="200.5,-.5 200.5,-101.5 273.5,-101.5 273.5,-.5 200.5,-.5"/>
<text text-anchor="middle" x="237" y="-89.5" font-family="Helvetica,sans-Serif" font-size="10.00" fill="#000000">DTask</text>
<polyline fill="none" stroke="#000000" points="200.5,-82.5 273.5,-82.5 "/>
<text text-anchor="middle" x="237" y="-70.5" font-family="Helvetica,sans-Serif" font-size="10.00" fill="#000000"> </text>
<polyline fill="none" stroke="#000000" points="200.5,-63.5 273.5,-63.5 "/>
<text text-anchor="start" x="208.5" y="-51.5" font-family="Helvetica,sans-Serif" font-size="10.00" fill="#000000">+ process()</text>
<text text-anchor="start" x="208.5" y="-40.5" font-family="Helvetica,sans-Serif" font-size="10.00" fill="#000000">+ init()</text>
<text text-anchor="start" x="208.5" y="-29.5" font-family="Helvetica,sans-Serif" font-size="10.00" fill="#000000">+ process()</text>
<text text-anchor="start" x="208.5" y="-18.5" font-family="Helvetica,sans-Serif" font-size="10.00" fill="#000000">+ process()</text>
<text text-anchor="start" x="208.5" y="-7.5" font-family="Helvetica,sans-Serif" font-size="10.00" fill="#000000">+ process()</text>
</g>
<!-- Node2 -->
<g id="node2" class="node">
<title>Node2</title>
<polygon fill="none" stroke="#bfbfbf" points="172.5,-204.5 172.5,-261.5 213.5,-261.5 213.5,-204.5 172.5,-204.5"/>
<text text-anchor="middle" x="193" y="-249.5" font-family="Helvetica,sans-Serif" font-size="10.00" fill="#000000">Filter</text>
<polyline fill="none" stroke="#bfbfbf" points="172.5,-242.5 213.5,-242.5 "/>
<text text-anchor="middle" x="193" y="-230.5" font-family="Helvetica,sans-Serif" font-size="10.00" fill="#000000"> </text>
<polyline fill="none" stroke="#bfbfbf" points="172.5,-223.5 213.5,-223.5 "/>
<text text-anchor="middle" x="193" y="-211.5" font-family="Helvetica,sans-Serif" font-size="10.00" fill="#000000"> </text>
</g>
<!-- Node2&#45;&gt;Node1 -->
<g id="edge1" class="edge">
<title>Node2&#45;&gt;Node1</title>
<path fill="none" stroke="#404040" d="M193.0572,-204.1687C193.7543,-181.0288 196.2276,-147.9129 204,-120 204.6278,-117.7454 205.3256,-115.4742 206.0807,-113.1993"/>
<polygon fill="none" stroke="#404040" points="206.1137,-113.1099 204.4432,-106.0949 210.276,-101.8549 211.9466,-108.8698 206.1137,-113.1099"/>
<text text-anchor="middle" x="237" y="-123" font-family="Helvetica,sans-Serif" font-size="10.00" fill="#000000"> +notTracklet</text>
</g>
<!-- Node3 -->
<g id="node3" class="node">
<title>Node3</title>
<g id="a_node3"><a xlink:href="../../d4/d79/structo2_1_1framework_1_1OutputObj.html" target="_top" xlink:title="{o2::framework::OutputObj\l\&lt; TList \&gt;\n||+ spec()\l+ OutputObj()\l+ OutputObj()\l+ setObject()\l+ setObject()\l+ setObject()\l+ setHash()\l+ operator&#45;\&gt;()\l+ operator*()\l+ ref()\l}">
<polygon fill="none" stroke="#000000" points="231.5,-149.5 231.5,-316.5 374.5,-316.5 374.5,-149.5 231.5,-149.5"/>
<text text-anchor="start" x="239.5" y="-304.5" font-family="Helvetica,sans-Serif" font-size="10.00" fill="#000000">o2::framework::OutputObj</text>
<text text-anchor="middle" x="303" y="-293.5" font-family="Helvetica,sans-Serif" font-size="10.00" fill="#000000">&lt; TList &gt;</text>
<polyline fill="none" stroke="#000000" points="231.5,-286.5 374.5,-286.5 "/>
<text text-anchor="middle" x="303" y="-274.5" font-family="Helvetica,sans-Serif" font-size="10.00" fill="#000000"> </text>
<polyline fill="none" stroke="#000000" points="231.5,-267.5 374.5,-267.5 "/>
<text text-anchor="start" x="239.5" y="-255.5" font-family="Helvetica,sans-Serif" font-size="10.00" fill="#000000">+ spec()</text>
<text text-anchor="start" x="239.5" y="-244.5" font-family="Helvetica,sans-Serif" font-size="10.00" fill="#000000">+ OutputObj()</text>
<text text-anchor="start" x="239.5" y="-233.5" font-family="Helvetica,sans-Serif" font-size="10.00" fill="#000000">+ OutputObj()</text>
<text text-anchor="start" x="239.5" y="-222.5" font-family="Helvetica,sans-Serif" font-size="10.00" fill="#000000">+ setObject()</text>
<text text-anchor="start" x="239.5" y="-211.5" font-family="Helvetica,sans-Serif" font-size="10.00" fill="#000000">+ setObject()</text>
<text text-anchor="start" x="239.5" y="-200.5" font-family="Helvetica,sans-Serif" font-size="10.00" fill="#000000">+ setObject()</text>
<text text-anchor="start" x="239.5" y="-189.5" font-family="Helvetica,sans-Serif" font-size="10.00" fill="#000000">+ setHash()</text>
<text text-anchor="start" x="239.5" y="-178.5" font-family="Helvetica,sans-Serif" font-size="10.00" fill="#000000">+ operator&#45;&gt;()</text>
<text text-anchor="start" x="239.5" y="-167.5" font-family="Helvetica,sans-Serif" font-size="10.00" fill="#000000">+ operator*()</text>
<text text-anchor="start" x="239.5" y="-156.5" font-family="Helvetica,sans-Serif" font-size="10.00" fill="#000000">+ ref()</text>
</a>
</g>
</g>
<!-- Node3&#45;&gt;Node1 -->
<g id="edge2" class="edge">
<title>Node3&#45;&gt;Node1</title>
<path fill="none" stroke="#404040" d="M280.2754,-149.4865C277.0613,-139.4698 273.6122,-129.4497 270,-120 269.111,-117.6744 268.1752,-115.3193 267.2042,-112.9515"/>
<polygon fill="none" stroke="#404040" points="267.1706,-112.8728 261.1319,-108.9315 262.4474,-101.8414 268.4861,-105.7827 267.1706,-112.8728"/>
<text text-anchor="middle" x="287.5" y="-123" font-family="Helvetica,sans-Serif" font-size="10.00" fill="#000000"> +list</text>
</g>
<!-- Node4 -->
<g id="node4" class="node">
<title>Node4</title>
<polygon fill="none" stroke="#bfbfbf" points="0,-414 0,-471 114,-471 114,-414 0,-414"/>
<text text-anchor="middle" x="57" y="-459" font-family="Helvetica,sans-Serif" font-size="10.00" fill="#000000">shared_ptr&lt; TList &gt;</text>
<polyline fill="none" stroke="#bfbfbf" points="0,-452 114,-452 "/>
<text text-anchor="middle" x="57" y="-440" font-family="Helvetica,sans-Serif" font-size="10.00" fill="#000000"> </text>
<polyline fill="none" stroke="#bfbfbf" points="0,-433 114,-433 "/>
<text text-anchor="middle" x="57" y="-421" font-family="Helvetica,sans-Serif" font-size="10.00" fill="#000000"> </text>
</g>
<!-- Node4&#45;&gt;Node3 -->
<g id="edge3" class="edge">
<title>Node4&#45;&gt;Node3</title>
<path fill="none" stroke="#404040" d="M56.5025,-413.7616C57.7405,-389.081 63.7542,-354.4893 86,-335 129.0843,-297.2544 163.2114,-338.7975 220.0445,-316.7986"/>
<polygon fill="none" stroke="#404040" points="220.3841,-316.6456 224.2108,-310.5336 231.3244,-311.7151 227.4977,-317.8272 220.3841,-316.6456"/>
<text text-anchor="middle" x="107" y="-338" font-family="Helvetica,sans-Serif" font-size="10.00" fill="#000000"> +object</text>
</g>
<!-- Node5 -->
<g id="node5" class="node">
<title>Node5</title>
<polygon fill="none" stroke="#bfbfbf" points="226.5,-596 226.5,-653 365.5,-653 365.5,-596 226.5,-596"/>
<text text-anchor="middle" x="296" y="-641" font-family="Helvetica,sans-Serif" font-size="10.00" fill="#000000">OutputObjHandlingPolicy</text>
<polyline fill="none" stroke="#bfbfbf" points="226.5,-634 365.5,-634 "/>
<text text-anchor="middle" x="296" y="-622" font-family="Helvetica,sans-Serif" font-size="10.00" fill="#000000"> </text>
<polyline fill="none" stroke="#bfbfbf" points="226.5,-615 365.5,-615 "/>
<text text-anchor="middle" x="296" y="-603" font-family="Helvetica,sans-Serif" font-size="10.00" fill="#000000"> </text>
</g>
<!-- Node5&#45;&gt;Node3 -->
<g id="edge4" class="edge">
<title>Node5&#45;&gt;Node3</title>
<path fill="none" stroke="#404040" d="M296.5147,-595.7121C297.5068,-540.2251 299.7238,-416.2313 301.2886,-328.7164"/>
<polygon fill="none" stroke="#404040" points="301.2902,-328.6188 297.3982,-322.5482 301.5049,-316.6207 305.3969,-322.6913 301.2902,-328.6188"/>
<text text-anchor="middle" x="321.5" y="-440" font-family="Helvetica,sans-Serif" font-size="10.00" fill="#000000"> +policy</text>
</g>
<!-- Node12 -->
<g id="node12" class="node">
<title>Node12</title>
<g id="a_node12"><a xlink:href="../../d4/d79/structo2_1_1framework_1_1OutputObj.html" target="_top" xlink:title="{o2::framework::OutputObj\&lt; T \&gt;\n||+ OutputObj()\l+ OutputObj()\l+ setObject()\l+ setObject()\l+ setObject()\l+ setHash()\l+ spec()\l+ operator&#45;\&gt;()\l+ operator*()\l+ ref()\l}">
<polygon fill="none" stroke="#000000" points="362,-364.5 362,-520.5 534,-520.5 534,-364.5 362,-364.5"/>
<text text-anchor="middle" x="448" y="-508.5" font-family="Helvetica,sans-Serif" font-size="10.00" fill="#000000">o2::framework::OutputObj&lt; T &gt;</text>
<polyline fill="none" stroke="#000000" points="362,-501.5 534,-501.5 "/>
<text text-anchor="middle" x="448" y="-489.5" font-family="Helvetica,sans-Serif" font-size="10.00" fill="#000000"> </text>
<polyline fill="none" stroke="#000000" points="362,-482.5 534,-482.5 "/>
<text text-anchor="start" x="370" y="-470.5" font-family="Helvetica,sans-Serif" font-size="10.00" fill="#000000">+ OutputObj()</text>
<text text-anchor="start" x="370" y="-459.5" font-family="Helvetica,sans-Serif" font-size="10.00" fill="#000000">+ OutputObj()</text>
<text text-anchor="start" x="370" y="-448.5" font-family="Helvetica,sans-Serif" font-size="10.00" fill="#000000">+ setObject()</text>
<text text-anchor="start" x="370" y="-437.5" font-family="Helvetica,sans-Serif" font-size="10.00" fill="#000000">+ setObject()</text>
<text text-anchor="start" x="370" y="-426.5" font-family="Helvetica,sans-Serif" font-size="10.00" fill="#000000">+ setObject()</text>
<text text-anchor="start" x="370" y="-415.5" font-family="Helvetica,sans-Serif" font-size="10.00" fill="#000000">+ setHash()</text>
<text text-anchor="start" x="370" y="-404.5" font-family="Helvetica,sans-Serif" font-size="10.00" fill="#000000">+ spec()</text>
<text text-anchor="start" x="370" y="-393.5" font-family="Helvetica,sans-Serif" font-size="10.00" fill="#000000">+ operator&#45;&gt;()</text>
<text text-anchor="start" x="370" y="-382.5" font-family="Helvetica,sans-Serif" font-size="10.00" fill="#000000">+ operator*()</text>
<text text-anchor="start" x="370" y="-371.5" font-family="Helvetica,sans-Serif" font-size="10.00" fill="#000000">+ ref()</text>
</a>
</g>
</g>
<!-- Node5&#45;&gt;Node12 -->
<g id="edge13" class="edge">
<title>Node5&#45;&gt;Node12</title>
<path fill="none" stroke="#404040" d="M320.0849,-595.6616C335.0128,-577.7873 355.0596,-553.784 374.8484,-530.0894"/>
<polygon fill="none" stroke="#404040" points="375.0105,-529.8953 375.7865,-522.726 382.7027,-520.6849 381.9268,-527.8541 375.0105,-529.8953"/>
<text text-anchor="middle" x="383.5" y="-542" font-family="Helvetica,sans-Serif" font-size="10.00" fill="#000000"> +policy</text>
</g>
<!-- Node6 -->
<g id="node6" class="node">
<title>Node6</title>
<polygon fill="none" stroke="#bfbfbf" points="502.5,-745 502.5,-802 531.5,-802 531.5,-745 502.5,-745"/>
<text text-anchor="middle" x="517" y="-790" font-family="Helvetica,sans-Serif" font-size="10.00" fill="#000000">int</text>
<polyline fill="none" stroke="#bfbfbf" points="502.5,-783 531.5,-783 "/>
<text text-anchor="middle" x="517" y="-771" font-family="Helvetica,sans-Serif" font-size="10.00" fill="#000000"> </text>
<polyline fill="none" stroke="#bfbfbf" points="502.5,-764 531.5,-764 "/>
<text text-anchor="middle" x="517" y="-752" font-family="Helvetica,sans-Serif" font-size="10.00" fill="#000000"> </text>
</g>
<!-- Node6&#45;&gt;Node3 -->
<g id="edge5" class="edge">
<title>Node6&#45;&gt;Node3</title>
<path fill="none" stroke="#404040" d="M502.1914,-771.9524C440.5732,-765.1876 205.6351,-736.0635 161,-681 71.7722,-570.9253 132.4643,-491.1507 195,-364 202.8966,-347.9442 213.1208,-332.1371 224.1247,-317.3635"/>
<polygon fill="none" stroke="#404040" points="224.1478,-317.3333 224.6261,-310.138 231.4518,-307.8121 230.9736,-315.0073 224.1478,-317.3333"/>
<text text-anchor="middle" x="137" y="-542" font-family="Helvetica,sans-Serif" font-size="10.00" fill="#000000"> +label</text>
</g>
<!-- Node8 -->
<g id="node8" class="node">
<title>Node8</title>
<g id="a_node8"><a xlink:href="../../da/d96/structo2_1_1framework_1_1InputSpec.html" target="_top" xlink:title="{o2::framework::InputSpec\n||+ InputSpec()\l+ InputSpec()\l+ InputSpec()\l+ InputSpec()\l+ InputSpec()\l+ operator==()\l}">
<polygon fill="none" stroke="#000000" points="571,-568.5 571,-680.5 713,-680.5 713,-568.5 571,-568.5"/>
<text text-anchor="middle" x="642" y="-668.5" font-family="Helvetica,sans-Serif" font-size="10.00" fill="#000000">o2::framework::InputSpec</text>
<polyline fill="none" stroke="#000000" points="571,-661.5 713,-661.5 "/>
<text text-anchor="middle" x="642" y="-649.5" font-family="Helvetica,sans-Serif" font-size="10.00" fill="#000000"> </text>
<polyline fill="none" stroke="#000000" points="571,-642.5 713,-642.5 "/>
<text text-anchor="start" x="579" y="-630.5" font-family="Helvetica,sans-Serif" font-size="10.00" fill="#000000">+ InputSpec()</text>
<text text-anchor="start" x="579" y="-619.5" font-family="Helvetica,sans-Serif" font-size="10.00" fill="#000000">+ InputSpec()</text>
<text text-anchor="start" x="579" y="-608.5" font-family="Helvetica,sans-Serif" font-size="10.00" fill="#000000">+ InputSpec()</text>
<text text-anchor="start" x="579" y="-597.5" font-family="Helvetica,sans-Serif" font-size="10.00" fill="#000000">+ InputSpec()</text>
<text text-anchor="start" x="579" y="-586.5" font-family="Helvetica,sans-Serif" font-size="10.00" fill="#000000">+ InputSpec()</text>
<text text-anchor="start" x="579" y="-575.5" font-family="Helvetica,sans-Serif" font-size="10.00" fill="#000000">+ operator==()</text>
</a>
</g>
</g>
<!-- Node6&#45;&gt;Node8 -->
<g id="edge10" class="edge">
<title>Node6&#45;&gt;Node8</title>
<path fill="none" stroke="#404040" d="M531.5657,-748.8621C535.96,-741.9393 540.9613,-734.5241 546,-728 555.9451,-715.1231 567.188,-701.9645 578.3869,-689.5363"/>
<polygon fill="none" stroke="#404040" points="578.4254,-689.4941 579.5153,-682.3658 586.5145,-680.6302 585.4246,-687.7585 578.4254,-689.4941"/>
<text text-anchor="middle" x="592" y="-702" font-family="Helvetica,sans-Serif" font-size="10.00" fill="#000000"> +binding</text>
</g>
<!-- Node6&#45;&gt;Node12 -->
<g id="edge14" class="edge">
<title>Node6&#45;&gt;Node12</title>
<path fill="none" stroke="#404040" d="M515.2443,-744.9356C512.028,-700.3633 503.7195,-611.8257 485,-539 484.4462,-536.8454 483.8592,-534.6732 483.2436,-532.4901"/>
<polygon fill="none" stroke="#404040" points="483.1679,-532.2389 477.6063,-527.6489 479.7041,-520.7497 485.2657,-525.3396 483.1679,-532.2389"/>
<text text-anchor="middle" x="527" y="-622" font-family="Helvetica,sans-Serif" font-size="10.00" fill="#000000"> +label</text>
</g>
<!-- Node7 -->
<g id="node7" class="node">
<title>Node7</title>
<polygon fill="none" stroke="#bfbfbf" points="170,-596 170,-653 208,-653 208,-596 170,-596"/>
<text text-anchor="middle" x="189" y="-641" font-family="Helvetica,sans-Serif" font-size="10.00" fill="#000000">bool</text>
<polyline fill="none" stroke="#bfbfbf" points="170,-634 208,-634 "/>
<text text-anchor="middle" x="189" y="-622" font-family="Helvetica,sans-Serif" font-size="10.00" fill="#000000"> </text>
<polyline fill="none" stroke="#bfbfbf" points="170,-615 208,-615 "/>
<text text-anchor="middle" x="189" y="-603" font-family="Helvetica,sans-Serif" font-size="10.00" fill="#000000"> </text>
</g>
<!-- Node7&#45;&gt;Node3 -->
<g id="edge6" class="edge">
<title>Node7&#45;&gt;Node3</title>
<path fill="none" stroke="#404040" d="M190.6042,-595.9912C194.0232,-547.2538 204.1393,-445.3046 232,-364 236.1411,-351.9152 241.3266,-339.6181 246.9993,-327.6403"/>
<polygon fill="none" stroke="#404040" points="247.0561,-327.5242 246.1001,-320.3767 252.33,-316.7453 253.286,-323.8927 247.0561,-327.5242"/>
<text text-anchor="middle" x="263" y="-440" font-family="Helvetica,sans-Serif" font-size="10.00" fill="#000000"> +isdangling</text>
</g>
<!-- Node7&#45;&gt;Node12 -->
<g id="edge16" class="edge">
<title>Node7&#45;&gt;Node12</title>
<path fill="none" stroke="#404040" d="M198.2353,-595.9137C202.6123,-586.0046 208.736,-575.5097 217,-568 262.7783,-526.4005 293.4488,-550.1605 348,-521 349.1679,-520.3757 350.336,-519.7375 351.5036,-519.0865"/>
<polygon fill="none" stroke="#404040" points="351.6457,-519.0028 354.7819,-512.5093 361.982,-512.9068 358.8458,-519.4002 351.6457,-519.0028"/>
<text text-anchor="middle" x="316" y="-542" font-family="Helvetica,sans-Serif" font-size="10.00" fill="#000000"> +isdangling</text>
</g>
<!-- Node8&#45;&gt;Node3 -->
<g id="edge7" class="edge">
<title>Node8&#45;&gt;Node3</title>
<path fill="none" stroke="#404040" d="M632.4827,-568.2892C620.315,-511.1512 594.3553,-422.8889 543,-364 501.1591,-316.0213 437.2932,-282.3607 385.9605,-261.1836"/>
<polygon fill="none" stroke="#404040" points="385.6769,-261.0696 378.6177,-262.542 374.5435,-256.5921 381.6027,-255.1197 385.6769,-261.0696"/>
<text text-anchor="middle" x="636" y="-440" font-family="Helvetica,sans-Serif" font-size="10.00" fill="#000000"> +spec</text>
</g>
<!-- Node8&#45;&gt;Node12 -->
<g id="edge17" class="edge">
<title>Node8&#45;&gt;Node12</title>
<path fill="none" stroke="#404040" d="M582.2106,-568.4089C568.9343,-555.9538 554.5618,-542.4704 540.324,-529.1133"/>
<polygon fill="none" stroke="#404040" points="540.239,-529.0335 533.1264,-527.8456 531.4874,-520.8232 538.6,-522.0111 540.239,-529.0335"/>
<text text-anchor="middle" x="579" y="-542" font-family="Helvetica,sans-Serif" font-size="10.00" fill="#000000"> +spec</text>
</g>
<!-- Node9 -->
<g id="node9" class="node">
<title>Node9</title>
<polygon fill="none" stroke="#bfbfbf" points="737,-745 737,-802 825,-802 825,-745 737,-745"/>
<text text-anchor="middle" x="781" y="-790" font-family="Helvetica,sans-Serif" font-size="10.00" fill="#000000">enum Lifetime</text>
<polyline fill="none" stroke="#bfbfbf" points="737,-783 825,-783 "/>
<text text-anchor="middle" x="781" y="-771" font-family="Helvetica,sans-Serif" font-size="10.00" fill="#000000"> </text>
<polyline fill="none" stroke="#bfbfbf" points="737,-764 825,-764 "/>
<text text-anchor="middle" x="781" y="-752" font-family="Helvetica,sans-Serif" font-size="10.00" fill="#000000"> </text>
</g>
<!-- Node9&#45;&gt;Node8 -->
<g id="edge8" class="edge">
<title>Node9&#45;&gt;Node8</title>
<path fill="none" stroke="#404040" d="M754.1994,-744.7713C739.4907,-729.0044 720.6161,-708.7719 702.56,-689.4168"/>
<polygon fill="none" stroke="#404040" points="702.5253,-689.3796 695.5075,-687.7208 694.3395,-680.6049 701.3573,-682.2637 702.5253,-689.3796"/>
<text text-anchor="middle" x="744" y="-702" font-family="Helvetica,sans-Serif" font-size="10.00" fill="#000000"> +lifetime</text>
</g>
<!-- Node10 -->
<g id="node10" class="node">
<title>Node10</title>
<polygon fill="none" stroke="#bfbfbf" points="555,-728.5 555,-818.5 719,-818.5 719,-728.5 555,-728.5"/>
<text text-anchor="start" x="563" y="-806.5" font-family="Helvetica,sans-Serif" font-size="10.00" fill="#000000">variant&lt; o2::framework</text>
<text text-anchor="start" x="563" y="-795.5" font-family="Helvetica,sans-Serif" font-size="10.00" fill="#000000">::ConcreteDataMatcher,</text>
<text text-anchor="start" x="563" y="-784.5" font-family="Helvetica,sans-Serif" font-size="10.00" fill="#000000"> o2::framework::data_matcher</text>
<text text-anchor="middle" x="637" y="-773.5" font-family="Helvetica,sans-Serif" font-size="10.00" fill="#000000">::DataDescriptorMatcher &gt;</text>
<polyline fill="none" stroke="#bfbfbf" points="555,-766.5 719,-766.5 "/>
<text text-anchor="middle" x="637" y="-754.5" font-family="Helvetica,sans-Serif" font-size="10.00" fill="#000000"> </text>
<polyline fill="none" stroke="#bfbfbf" points="555,-747.5 719,-747.5 "/>
<text text-anchor="middle" x="637" y="-735.5" font-family="Helvetica,sans-Serif" font-size="10.00" fill="#000000"> </text>
</g>
<!-- Node10&#45;&gt;Node8 -->
<g id="edge9" class="edge">
<title>Node10&#45;&gt;Node8</title>
<path fill="none" stroke="#404040" d="M638.5137,-728.3907C638.8931,-717.0845 639.3086,-704.7027 639.7164,-692.5514"/>
<polygon fill="none" stroke="#404040" points="639.7174,-692.5186 635.9209,-686.3878 640.12,-680.5254 643.9164,-686.6562 639.7174,-692.5186"/>
<text text-anchor="middle" x="665" y="-702" font-family="Helvetica,sans-Serif" font-size="10.00" fill="#000000"> +matcher</text>
</g>
<!-- Node11 -->
<g id="node11" class="node">
<title>Node11</title>
<polygon fill="none" stroke="#bfbfbf" points="731.5,-596 731.5,-653 792.5,-653 792.5,-596 731.5,-596"/>
<text text-anchor="middle" x="762" y="-641" font-family="Helvetica,sans-Serif" font-size="10.00" fill="#000000">unsigned</text>
<polyline fill="none" stroke="#bfbfbf" points="731.5,-634 792.5,-634 "/>
<text text-anchor="middle" x="762" y="-622" font-family="Helvetica,sans-Serif" font-size="10.00" fill="#000000"> </text>
<polyline fill="none" stroke="#bfbfbf" points="731.5,-615 792.5,-615 "/>
<text text-anchor="middle" x="762" y="-603" font-family="Helvetica,sans-Serif" font-size="10.00" fill="#000000"> </text>
</g>
<!-- Node11&#45;&gt;Node3 -->
<g id="edge11" class="edge">
<title>Node11&#45;&gt;Node3</title>
<path fill="none" stroke="#404040" d="M758.7123,-595.9468C751.0103,-542.416 726.825,-426.7312 657,-364 580.535,-295.3034 464.8703,-261.6094 386.751,-245.815"/>
<polygon fill="none" stroke="#404040" points="386.3249,-245.7318 379.6693,-248.5073 374.5475,-243.4312 381.2031,-240.6557 386.3249,-245.7318"/>
<text text-anchor="middle" x="776" y="-440" font-family="Helvetica,sans-Serif" font-size="10.00" fill="#000000"> +mTaskHash</text>
</g>
<!-- Node11&#45;&gt;Node12 -->
<g id="edge18" class="edge">
<title>Node11&#45;&gt;Node12</title>
<path fill="none" stroke="#404040" d="M746.4721,-595.9612C739.9665,-586.0573 731.6552,-575.5535 722,-568 704.7087,-554.4727 696.2992,-558.3616 676,-550 645.9981,-537.6417 638.4791,-534.5581 609,-521 588.1895,-511.4288 566.0254,-500.8664 545.0096,-490.6756"/>
<polygon fill="none" stroke="#404040" points="544.9288,-490.6364 537.7836,-491.6091 534.1376,-485.3876 541.2828,-484.4149 544.9288,-490.6364"/>
<text text-anchor="middle" x="710" y="-542" font-family="Helvetica,sans-Serif" font-size="10.00" fill="#000000"> +mTaskHash</text>
</g>
<!-- Node12&#45;&gt;Node3 -->
<g id="edge12" class="edge">
<title>Node12&#45;&gt;Node3</title>
<path fill="none" stroke="#ffa500" d="M388.1404,-356.0133C379.1446,-343.0158 369.8808,-329.6313 360.9264,-316.6937"/>
<polygon fill="#ffa500" stroke="#ffa500" points="385.4383,-358.2592 394.0074,-364.4899 391.1942,-354.2754 385.4383,-358.2592"/>
<text text-anchor="middle" x="404.5" y="-338" font-family="Helvetica,sans-Serif" font-size="10.00" fill="#000000"> &lt; TList &gt;</text>
</g>
<!-- Node13 -->
<g id="node13" class="node">
<title>Node13</title>
<polygon fill="none" stroke="#bfbfbf" points="383.5,-596 383.5,-653 480.5,-653 480.5,-596 383.5,-596"/>
<text text-anchor="middle" x="432" y="-641" font-family="Helvetica,sans-Serif" font-size="10.00" fill="#000000">shared_ptr&lt; T &gt;</text>
<polyline fill="none" stroke="#bfbfbf" points="383.5,-634 480.5,-634 "/>
<text text-anchor="middle" x="432" y="-622" font-family="Helvetica,sans-Serif" font-size="10.00" fill="#000000"> </text>
<polyline fill="none" stroke="#bfbfbf" points="383.5,-615 480.5,-615 "/>
<text text-anchor="middle" x="432" y="-603" font-family="Helvetica,sans-Serif" font-size="10.00" fill="#000000"> </text>
</g>
<!-- Node13&#45;&gt;Node12 -->
<g id="edge15" class="edge">
<title>Node13&#45;&gt;Node12</title>
<path fill="none" stroke="#404040" d="M434.5352,-595.6616C436.044,-578.4991 438.0496,-555.686 440.0509,-532.9212"/>
<polygon fill="none" stroke="#404040" points="440.0756,-532.6388 436.6165,-526.3115 441.1266,-520.6849 444.5857,-527.0122 440.0756,-532.6388"/>
<text text-anchor="middle" x="460" y="-542" font-family="Helvetica,sans-Serif" font-size="10.00" fill="#000000"> +object</text>
</g>
</g>
</svg>
        <g id="navigator" transform="translate(0 0)" fill="#404254">
                <rect fill="#f2f5e9" fill-opacity="0.5" stroke="#606060" stroke-width=".5" x="0" y="0" width="60" height="60"/>
                <use id="zoomplus" xlink:href="#zoomPlus" x="17" y="9" onmousedown="handleZoom(evt,'in')"/>
                <use id="zoomminus" xlink:href="#zoomMin" x="42" y="9" onmousedown="handleZoom(evt,'out')"/>
                <use id="reset" xlink:href="#resetDef" x="30" y="36" onmousedown="handleReset()"/>
                <g id="arrowUp" xlink:href="#dirArrow" transform="translate(30 24)" onmousedown="handlePan(0,-1)">
                  <use xlink:href="#rim" fill="#404040">
                        <set attributeName="fill" to="#808080" begin="arrowUp.mouseover" end="arrowUp.mouseout"/>
                  </use>
                  <path fill="none" stroke="white" stroke-width="1.5" d="M0,-3.0v7 M-2.5,-0.5L0,-3.0L2.5,-0.5"/>
                </g>
                <g id="arrowRight" xlink:href="#dirArrow" transform="rotate(90) translate(36 -43)" onmousedown="handlePan(1,0)">
                  <use xlink:href="#rim" fill="#404040">
                        <set attributeName="fill" to="#808080" begin="arrowRight.mouseover" end="arrowRight.mouseout"/>
                  </use>
                  <path fill="none" stroke="white" stroke-width="1.5" d="M0,-3.0v7 M-2.5,-0.5L0,-3.0L2.5,-0.5"/>
                </g>
                <g id="arrowDown" xlink:href="#dirArrow" transform="rotate(180) translate(-30 -48)" onmousedown="handlePan(0,1)">
                  <use xlink:href="#rim" fill="#404040">
                        <set attributeName="fill" to="#808080" begin="arrowDown.mouseover" end="arrowDown.mouseout"/>
                  </use>
                  <path fill="none" stroke="white" stroke-width="1.5" d="M0,-3.0v7 M-2.5,-0.5L0,-3.0L2.5,-0.5"/>
                </g>
                <g id="arrowLeft" xlink:href="#dirArrow" transform="rotate(270) translate(-36 17)" onmousedown="handlePan(-1,0)">
                  <use xlink:href="#rim" fill="#404040">
                        <set attributeName="fill" to="#808080" begin="arrowLeft.mouseover" end="arrowLeft.mouseout"/>
                  </use>
                  <path fill="none" stroke="white" stroke-width="1.5" d="M0,-3.0v7 M-2.5,-0.5L0,-3.0L2.5,-0.5"/>
                </g>
        </g>
        <svg viewBox="0 0 15 15" width="100%" height="30px" preserveAspectRatio="xMaxYMin meet">
         <g id="arrow_out" transform="scale(0.3 0.3)">
          <a xlink:href="structDTask__coll__graph_org.svg" target="_base">
           <rect id="button" ry="5" rx="5" y="6" x="6" height="38" width="38"
                fill="#f2f5e9" fill-opacity="0.5" stroke="#606060" stroke-width="1.0"/>
           <path id="arrow"
             d="M 11.500037,31.436501 C 11.940474,20.09759 22.043105,11.32322 32.158766,21.979434 L 37.068811,17.246167 C 37.068811,17.246167 37.088388,32 37.088388,32 L 22.160133,31.978069 C 22.160133,31.978069 26.997745,27.140456 26.997745,27.140456 C 18.528582,18.264221 13.291696,25.230495 11.500037,31.436501 z"
             style="fill:#404040;"/>
          </a>
         </g>
        </svg>
</svg>
