<?xml version="1.0" encoding="UTF-8" standalone="no"?>
<!DOCTYPE svg PUBLIC "-//W3C//DTD SVG 1.1//EN"
 "http://www.w3.org/Graphics/SVG/1.1/DTD/svg11.dtd">
<!-- Generated by graphviz version 2.40.1 (20161225.0304)
 -->
<!-- Title: o2::data_flow::ITSRawData Pages: 1 -->
<svg width="167pt" height="182pt"
 viewBox="0.00 0.00 167.00 182.00" xmlns="http://www.w3.org/2000/svg" xmlns:xlink="http://www.w3.org/1999/xlink">
<g id="graph0" class="graph" transform="scale(1 1) rotate(0) translate(4 178)">
<title>o2::data_flow::ITSRawData</title>
<!-- Node1 -->
<g id="node1" class="node">
<title>Node1</title>
<polygon fill="#bfbfbf" stroke="#000000" points="0,-.5 0,-57.5 146,-57.5 146,-.5 0,-.5"/>
<text text-anchor="middle" x="73" y="-45.5" font-family="Helvetica,sans-Serif" font-size="10.00" fill="#000000">o2::data_flow::ITSRawData</text>
<polyline fill="none" stroke="#000000" points="0,-38.5 146,-38.5 "/>
<text text-anchor="middle" x="73" y="-26.5" font-family="Helvetica,sans-Serif" font-size="10.00" fill="#000000"> </text>
<polyline fill="none" stroke="#000000" points="0,-19.5 146,-19.5 "/>
<text text-anchor="middle" x="73" y="-7.5" font-family="Helvetica,sans-Serif" font-size="10.00" fill="#000000"> </text>
</g>
<!-- Node2 -->
<g id="node2" class="node">
<title>Node2</title>
<g id="a_node2"><a xlink:href="../../d4/dc3/classfloat.html" target="_top" xlink:title="{float\n||}">
<polygon fill="none" stroke="#000000" points="20,-116.5 20,-173.5 58,-173.5 58,-116.5 20,-116.5"/>
<text text-anchor="middle" x="39" y="-161.5" font-family="Helvetica,sans-Serif" font-size="10.00" fill="#000000">float</text>
<polyline fill="none" stroke="#000000" points="20,-154.5 58,-154.5 "/>
<text text-anchor="middle" x="39" y="-142.5" font-family="Helvetica,sans-Serif" font-size="10.00" fill="#000000"> </text>
<polyline fill="none" stroke="#000000" points="20,-135.5 58,-135.5 "/>
<text text-anchor="middle" x="39" y="-123.5" font-family="Helvetica,sans-Serif" font-size="10.00" fill="#000000"> </text>
</a>
</g>
</g>
<!-- Node2&#45;&gt;Node1 -->
<g id="edge1" class="edge">
<title>Node2&#45;&gt;Node1</title>
<path fill="none" stroke="#404040" d="M47.4045,-116.3258C51.532,-102.2439 56.5768,-85.0322 61.0932,-69.6233"/>
<polygon fill="none" stroke="#404040" points="61.199,-69.2619 59.0482,-62.379 64.5744,-57.7463 66.7252,-64.6292 61.199,-69.2619"/>
<text text-anchor="middle" x="69" y="-90" font-family="Helvetica,sans-Serif" font-size="10.00" fill="#000000"> +x</text>
<text text-anchor="middle" x="69" y="-79" font-family="Helvetica,sans-Serif" font-size="10.00" fill="#000000">+y</text>
</g>
<!-- Node3 -->
<g id="node3" class="node">
<title>Node3</title>
<polygon fill="none" stroke="#bfbfbf" points="76.5,-116.5 76.5,-173.5 137.5,-173.5 137.5,-116.5 76.5,-116.5"/>
<text text-anchor="middle" x="107" y="-161.5" font-family="Helvetica,sans-Serif" font-size="10.00" fill="#000000">unsigned</text>
<polyline fill="none" stroke="#bfbfbf" points="76.5,-154.5 137.5,-154.5 "/>
<text text-anchor="middle" x="107" y="-142.5" font-family="Helvetica,sans-Serif" font-size="10.00" fill="#000000"> </text>
<polyline fill="none" stroke="#bfbfbf" points="76.5,-135.5 137.5,-135.5 "/>
<text text-anchor="middle" x="107" y="-123.5" font-family="Helvetica,sans-Serif" font-size="10.00" fill="#000000"> </text>
</g>
<!-- Node3&#45;&gt;Node1 -->
<g id="edge2" class="edge">
<title>Node3&#45;&gt;Node1</title>
<path fill="none" stroke="#404040" d="M98.5955,-116.3258C94.468,-102.2439 89.4232,-85.0322 84.9068,-69.6233"/>
<polygon fill="none" stroke="#404040" points="84.801,-69.2619 79.2748,-64.6292 81.4256,-57.7463 86.9518,-62.379 84.801,-69.2619"/>
<text text-anchor="middle" x="126" y="-84.5" font-family="Helvetica,sans-Serif" font-size="10.00" fill="#000000"> +timeStamp</text>
</g>
</g>
</svg>
