<?xml version="1.0" encoding="UTF-8" standalone="no"?>
<!DOCTYPE svg PUBLIC "-//W3C//DTD SVG 1.1//EN"
 "http://www.w3.org/Graphics/SVG/1.1/DTD/svg11.dtd">
<!-- Generated by graphviz version 2.40.1 (20161225.0304)
 -->
<!-- Title: o2::mch::Digit::Time Pages: 1 -->
<svg width="241pt" height="215pt"
 viewBox="0.00 0.00 240.50 215.00" xmlns="http://www.w3.org/2000/svg" xmlns:xlink="http://www.w3.org/1999/xlink">
<g id="graph0" class="graph" transform="scale(1 1) rotate(0) translate(4 211)">
<title>o2::mch::Digit::Time</title>
<!-- Node1 -->
<g id="node1" class="node">
<title>Node1</title>
<polygon fill="#bfbfbf" stroke="#000000" points="50.5,-.5 50.5,-57.5 166.5,-57.5 166.5,-.5 50.5,-.5"/>
<text text-anchor="middle" x="108.5" y="-45.5" font-family="Helvetica,sans-Serif" font-size="10.00" fill="#000000">o2::mch::Digit::Time</text>
<polyline fill="none" stroke="#000000" points="50.5,-38.5 166.5,-38.5 "/>
<text text-anchor="middle" x="108.5" y="-26.5" font-family="Helvetica,sans-Serif" font-size="10.00" fill="#000000"> </text>
<polyline fill="none" stroke="#000000" points="50.5,-19.5 166.5,-19.5 "/>
<text text-anchor="start" x="58.5" y="-7.5" font-family="Helvetica,sans-Serif" font-size="10.00" fill="#000000">+ getBXTime()</text>
</g>
<!-- Node2 -->
<g id="node2" class="node">
<title>Node2</title>
<polygon fill="none" stroke="#bfbfbf" points="0,-149.5 0,-206.5 113,-206.5 113,-149.5 0,-149.5"/>
<text text-anchor="middle" x="56.5" y="-194.5" font-family="Helvetica,sans-Serif" font-size="10.00" fill="#000000">anonymous:+@211</text>
<polyline fill="none" stroke="#bfbfbf" points="0,-187.5 113,-187.5 "/>
<text text-anchor="middle" x="56.5" y="-175.5" font-family="Helvetica,sans-Serif" font-size="10.00" fill="#000000"> </text>
<polyline fill="none" stroke="#bfbfbf" points="0,-168.5 113,-168.5 "/>
<text text-anchor="middle" x="56.5" y="-156.5" font-family="Helvetica,sans-Serif" font-size="10.00" fill="#000000"> </text>
</g>
<!-- Node2&#45;&gt;Node1 -->
<g id="edge1" class="edge">
<title>Node2&#45;&gt;Node1</title>
<path fill="none" stroke="#404040" d="M66.5261,-149.2713C74.4752,-126.494 85.6768,-94.3973 94.509,-69.0896"/>
<polygon fill="none" stroke="#404040" points="94.5505,-68.9704 92.751,-61.9874 98.5047,-57.6405 100.3042,-64.6235 94.5505,-68.9704"/>
<text text-anchor="middle" x="112.5" y="-101" font-family="Helvetica,sans-Serif" font-size="10.00" fill="#000000"> +@211</text>
</g>
<!-- Node3 -->
<g id="node3" class="node">
<title>Node3</title>
<polygon fill="none" stroke="#bfbfbf" points="131,-149.5 131,-206.5 192,-206.5 192,-149.5 131,-149.5"/>
<text text-anchor="middle" x="161.5" y="-194.5" font-family="Helvetica,sans-Serif" font-size="10.00" fill="#000000">unsigned</text>
<polyline fill="none" stroke="#bfbfbf" points="131,-187.5 192,-187.5 "/>
<text text-anchor="middle" x="161.5" y="-175.5" font-family="Helvetica,sans-Serif" font-size="10.00" fill="#000000"> </text>
<polyline fill="none" stroke="#bfbfbf" points="131,-168.5 192,-168.5 "/>
<text text-anchor="middle" x="161.5" y="-156.5" font-family="Helvetica,sans-Serif" font-size="10.00" fill="#000000"> </text>
</g>
<!-- Node3&#45;&gt;Node1 -->
<g id="edge2" class="edge">
<title>Node3&#45;&gt;Node1</title>
<path fill="none" stroke="#404040" d="M156.7978,-149.1444C152.84,-128.3155 146.2458,-99.7889 136.5,-76 135.4761,-73.5006 134.3341,-70.9766 133.113,-68.4642"/>
<polygon fill="none" stroke="#404040" points="132.9934,-68.2385 126.649,-64.8109 127.3728,-57.6362 133.7172,-61.0638 132.9934,-68.2385"/>
<text text-anchor="middle" x="192.5" y="-123" font-family="Helvetica,sans-Serif" font-size="10.00" fill="#000000"> +reserved</text>
<text text-anchor="middle" x="192.5" y="-112" font-family="Helvetica,sans-Serif" font-size="10.00" fill="#000000">+time</text>
<text text-anchor="middle" x="192.5" y="-101" font-family="Helvetica,sans-Serif" font-size="10.00" fill="#000000">+orbit</text>
<text text-anchor="middle" x="192.5" y="-90" font-family="Helvetica,sans-Serif" font-size="10.00" fill="#000000">+sampaTime</text>
<text text-anchor="middle" x="192.5" y="-79" font-family="Helvetica,sans-Serif" font-size="10.00" fill="#000000">+bunchCrossing</text>
</g>
</g>
</svg>
