<?xml version="1.0" encoding="UTF-8" standalone="no"?>
<!DOCTYPE svg PUBLIC "-//W3C//DTD SVG 1.1//EN"
 "http://www.w3.org/Graphics/SVG/1.1/DTD/svg11.dtd">
<!-- Generated by graphviz version 2.40.1 (20161225.0304)
 -->
<!-- Title: o2::soa::CombinationsBlockUpperIndexPolicy&lt; T, Ts &gt; Pages: 1 -->
<!--zoomable 873 -->
<svg id="main" version="1.1" xmlns="http://www.w3.org/2000/svg" xmlns:xlink="http://www.w3.org/1999/xlink" xml:space="preserve" onload="init(evt)">
<style type="text/css"><![CDATA[
.edge:hover path { stroke: red; }
.edge:hover polygon { stroke: red; fill: red; }
]]></style>
<script type="text/javascript"><![CDATA[
var edges = document.getElementsByTagName('g');
if (edges && edges.length) {
  for (var i=0;i<edges.length;i++) {
    if (edges[i].id.substr(0,4)=='edge') {
      edges[i].setAttribute('class','edge');
    }
  }
}
]]></script>
        <defs>
                <circle id="rim" cx="0" cy="0" r="7"/>
                <circle id="rim2" cx="0" cy="0" r="3.5"/>
                <g id="zoomPlus">
                        <use xlink:href="#rim" fill="#404040">
                                <set attributeName="fill" to="#808080" begin="zoomplus.mouseover" end="zoomplus.mouseout"/>
                        </use>
                        <path d="M-4,0h8M0,-4v8" fill="none" stroke="white" stroke-width="1.5" pointer-events="none"/>
                </g>
                <g id="zoomMin">
                        <use xlink:href="#rim" fill="#404040">
                                <set attributeName="fill" to="#808080" begin="zoomminus.mouseover" end="zoomminus.mouseout"/>
                        </use>
                        <path d="M-4,0h8" fill="none" stroke="white" stroke-width="1.5" pointer-events="none"/>
                </g>
                <g id="dirArrow">
                        <path fill="none" stroke="white" stroke-width="1.5" d="M0,-3.0v7 M-2.5,-0.5L0,-3.0L2.5,-0.5"/>
                </g>
               <g id="resetDef">
                       <use xlink:href="#rim2" fill="#404040">
                               <set attributeName="fill" to="#808080" begin="reset.mouseover" end="reset.mouseout"/>
                       </use>
               </g>
        </defs>

<script type="text/javascript">
var viewWidth = 825;
var viewHeight = 873;
var sectionId = 'dynsection-1';
</script>
<script xlink:href="../../svgpan.js"/>
<svg id="graph" class="graph">
<g id="viewport">
<title>o2::soa::CombinationsBlockUpperIndexPolicy&lt; T, Ts &gt;</title>
<!-- Node5 -->
<g id="node1" class="node">
<title>Node5</title>
<polygon fill="#bfbfbf" stroke="#000000" points="386,-.5 386,-101.5 565,-101.5 565,-.5 386,-.5"/>
<text text-anchor="start" x="394" y="-89.5" font-family="Helvetica,sans-Serif" font-size="10.00" fill="#000000">o2::soa::CombinationsBlock</text>
<text text-anchor="middle" x="475.5" y="-78.5" font-family="Helvetica,sans-Serif" font-size="10.00" fill="#000000">UpperIndexPolicy&lt; T, Ts &gt;</text>
<polyline fill="none" stroke="#000000" points="386,-71.5 565,-71.5 "/>
<text text-anchor="middle" x="475.5" y="-59.5" font-family="Helvetica,sans-Serif" font-size="10.00" fill="#000000"> </text>
<polyline fill="none" stroke="#000000" points="386,-52.5 565,-52.5 "/>
<text text-anchor="start" x="394" y="-40.5" font-family="Helvetica,sans-Serif" font-size="10.00" fill="#000000">+ CombinationsBlockUpperIndex</text>
<text text-anchor="start" x="394" y="-29.5" font-family="Helvetica,sans-Serif" font-size="10.00" fill="#000000">Policy()</text>
<text text-anchor="start" x="394" y="-18.5" font-family="Helvetica,sans-Serif" font-size="10.00" fill="#000000">+ setRanges()</text>
<text text-anchor="start" x="394" y="-7.5" font-family="Helvetica,sans-Serif" font-size="10.00" fill="#000000">+ addOne()</text>
</g>
<!-- Node6 -->
<g id="node2" class="node">
<title>Node6</title>
<g id="a_node2"><a xlink:href="../../d0/d11/structo2_1_1soa_1_1CombinationsBlockIndexPolicyBase.html" target="_top" xlink:title="{o2::soa::CombinationsBlock\lIndexPolicyBase\&lt; T, Ts... \&gt;\n||+ CombinationsBlockIndexPolicyBase()\l}">
<polygon fill="none" stroke="#000000" points="370.5,-139.5 370.5,-207.5 580.5,-207.5 580.5,-139.5 370.5,-139.5"/>
<text text-anchor="start" x="378.5" y="-195.5" font-family="Helvetica,sans-Serif" font-size="10.00" fill="#000000">o2::soa::CombinationsBlock</text>
<text text-anchor="middle" x="475.5" y="-184.5" font-family="Helvetica,sans-Serif" font-size="10.00" fill="#000000">IndexPolicyBase&lt; T, Ts... &gt;</text>
<polyline fill="none" stroke="#000000" points="370.5,-177.5 580.5,-177.5 "/>
<text text-anchor="middle" x="475.5" y="-165.5" font-family="Helvetica,sans-Serif" font-size="10.00" fill="#000000"> </text>
<polyline fill="none" stroke="#000000" points="370.5,-158.5 580.5,-158.5 "/>
<text text-anchor="start" x="378.5" y="-146.5" font-family="Helvetica,sans-Serif" font-size="10.00" fill="#000000">+ CombinationsBlockIndexPolicyBase()</text>
</a>
</g>
</g>
<!-- Node6&#45;&gt;Node5 -->
<g id="edge1" class="edge">
<title>Node6&#45;&gt;Node5</title>
<path fill="none" stroke="#191970" d="M475.5,-129.2437C475.5,-120.3671 475.5,-110.9733 475.5,-101.8923"/>
<polygon fill="none" stroke="#191970" points="472.0001,-129.3769 475.5,-139.3769 479.0001,-129.377 472.0001,-129.3769"/>
</g>
<!-- Node7 -->
<g id="node3" class="node">
<title>Node7</title>
<g id="a_node3"><a xlink:href="../../de/dac/structo2_1_1soa_1_1CombinationsIndexPolicyBase.html" target="_top" xlink:title="{o2::soa::CombinationsIndex\lPolicyBase\&lt; Ts... \&gt;\n||+ CombinationsIndexPolicyBase()\l+ moveToEnd()\l+ addOne()\l}">
<polygon fill="none" stroke="#000000" points="83,-393.5 83,-483.5 266,-483.5 266,-393.5 83,-393.5"/>
<text text-anchor="start" x="91" y="-471.5" font-family="Helvetica,sans-Serif" font-size="10.00" fill="#000000">o2::soa::CombinationsIndex</text>
<text text-anchor="middle" x="174.5" y="-460.5" font-family="Helvetica,sans-Serif" font-size="10.00" fill="#000000">PolicyBase&lt; Ts... &gt;</text>
<polyline fill="none" stroke="#000000" points="83,-453.5 266,-453.5 "/>
<text text-anchor="middle" x="174.5" y="-441.5" font-family="Helvetica,sans-Serif" font-size="10.00" fill="#000000"> </text>
<polyline fill="none" stroke="#000000" points="83,-434.5 266,-434.5 "/>
<text text-anchor="start" x="91" y="-422.5" font-family="Helvetica,sans-Serif" font-size="10.00" fill="#000000">+ CombinationsIndexPolicyBase()</text>
<text text-anchor="start" x="91" y="-411.5" font-family="Helvetica,sans-Serif" font-size="10.00" fill="#000000">+ moveToEnd()</text>
<text text-anchor="start" x="91" y="-400.5" font-family="Helvetica,sans-Serif" font-size="10.00" fill="#000000">+ addOne()</text>
</a>
</g>
</g>
<!-- Node7&#45;&gt;Node6 -->
<g id="edge2" class="edge">
<title>Node7&#45;&gt;Node6</title>
<path fill="none" stroke="#191970" d="M170.488,-383.0455C170.6443,-342.8027 177.6313,-289.5717 208.5,-255 230.6114,-230.2361 305.5234,-208.6363 370.3904,-193.9063"/>
<polygon fill="none" stroke="#191970" points="166.99,-383.2747 170.5912,-393.2387 173.9897,-383.2037 166.99,-383.2747"/>
</g>
<!-- Node15 -->
<g id="node11" class="node">
<title>Node15</title>
<g id="a_node11"><a xlink:href="../../d0/d11/structo2_1_1soa_1_1CombinationsBlockIndexPolicyBase.html" target="_top" xlink:title="{o2::soa::CombinationsBlock\lIndexPolicyBase\&lt; T, Ts \&gt;\n||+ CombinationsBlockIndexPolicyBase()\l}">
<polygon fill="none" stroke="#000000" points="217.5,-266.5 217.5,-334.5 427.5,-334.5 427.5,-266.5 217.5,-266.5"/>
<text text-anchor="start" x="225.5" y="-322.5" font-family="Helvetica,sans-Serif" font-size="10.00" fill="#000000">o2::soa::CombinationsBlock</text>
<text text-anchor="middle" x="322.5" y="-311.5" font-family="Helvetica,sans-Serif" font-size="10.00" fill="#000000">IndexPolicyBase&lt; T, Ts &gt;</text>
<polyline fill="none" stroke="#000000" points="217.5,-304.5 427.5,-304.5 "/>
<text text-anchor="middle" x="322.5" y="-292.5" font-family="Helvetica,sans-Serif" font-size="10.00" fill="#000000"> </text>
<polyline fill="none" stroke="#000000" points="217.5,-285.5 427.5,-285.5 "/>
<text text-anchor="start" x="225.5" y="-273.5" font-family="Helvetica,sans-Serif" font-size="10.00" fill="#000000">+ CombinationsBlockIndexPolicyBase()</text>
</a>
</g>
</g>
<!-- Node7&#45;&gt;Node15 -->
<g id="edge15" class="edge">
<title>Node7&#45;&gt;Node15</title>
<path fill="none" stroke="#191970" d="M230.7352,-386.0644C249.1316,-368.9111 269.0848,-350.3061 285.672,-334.8396"/>
<polygon fill="none" stroke="#191970" points="227.8877,-383.9341 222.9607,-393.3136 232.6615,-389.0538 227.8877,-383.9341"/>
</g>
<!-- Node8 -->
<g id="node4" class="node">
<title>Node8</title>
<polygon fill="none" stroke="#bfbfbf" points="0,-680.5 0,-748.5 115,-748.5 115,-680.5 0,-680.5"/>
<text text-anchor="start" x="8" y="-736.5" font-family="Helvetica,sans-Serif" font-size="10.00" fill="#000000">tuple&lt; typename Ts</text>
<text text-anchor="middle" x="57.5" y="-725.5" font-family="Helvetica,sans-Serif" font-size="10.00" fill="#000000">::iterator... &gt;</text>
<polyline fill="none" stroke="#bfbfbf" points="0,-718.5 115,-718.5 "/>
<text text-anchor="middle" x="57.5" y="-706.5" font-family="Helvetica,sans-Serif" font-size="10.00" fill="#000000"> </text>
<polyline fill="none" stroke="#bfbfbf" points="0,-699.5 115,-699.5 "/>
<text text-anchor="middle" x="57.5" y="-687.5" font-family="Helvetica,sans-Serif" font-size="10.00" fill="#000000"> </text>
</g>
<!-- Node8&#45;&gt;Node7 -->
<g id="edge3" class="edge">
<title>Node8&#45;&gt;Node7</title>
<path fill="none" stroke="#404040" d="M39.9479,-680.4874C23.8536,-644.2382 5.7013,-586.1083 28.5,-542 38.7919,-522.0883 54.8773,-505.1798 72.6737,-491.1631"/>
<polygon fill="none" stroke="#404040" points="73.0935,-490.8499 75.5097,-484.0556 82.7107,-483.6729 80.2944,-490.4671 73.0935,-490.8499"/>
<text text-anchor="middle" x="57.5" y="-585" font-family="Helvetica,sans-Serif" font-size="10.00" fill="#000000"> +mCurrent</text>
</g>
<!-- Node12 -->
<g id="node8" class="node">
<title>Node12</title>
<g id="a_node8"><a xlink:href="../../de/dac/structo2_1_1soa_1_1CombinationsIndexPolicyBase.html" target="_top" xlink:title="{o2::soa::CombinationsIndex\lPolicyBase\&lt; Ts \&gt;\n||+ CombinationsIndexPolicyBase()\l+ moveToEnd()\l+ addOne()\l}">
<polygon fill="none" stroke="#000000" points="96,-542.5 96,-632.5 279,-632.5 279,-542.5 96,-542.5"/>
<text text-anchor="start" x="104" y="-620.5" font-family="Helvetica,sans-Serif" font-size="10.00" fill="#000000">o2::soa::CombinationsIndex</text>
<text text-anchor="middle" x="187.5" y="-609.5" font-family="Helvetica,sans-Serif" font-size="10.00" fill="#000000">PolicyBase&lt; Ts &gt;</text>
<polyline fill="none" stroke="#000000" points="96,-602.5 279,-602.5 "/>
<text text-anchor="middle" x="187.5" y="-590.5" font-family="Helvetica,sans-Serif" font-size="10.00" fill="#000000"> </text>
<polyline fill="none" stroke="#000000" points="96,-583.5 279,-583.5 "/>
<text text-anchor="start" x="104" y="-571.5" font-family="Helvetica,sans-Serif" font-size="10.00" fill="#000000">+ CombinationsIndexPolicyBase()</text>
<text text-anchor="start" x="104" y="-560.5" font-family="Helvetica,sans-Serif" font-size="10.00" fill="#000000">+ moveToEnd()</text>
<text text-anchor="start" x="104" y="-549.5" font-family="Helvetica,sans-Serif" font-size="10.00" fill="#000000">+ addOne()</text>
</a>
</g>
</g>
<!-- Node8&#45;&gt;Node12 -->
<g id="edge8" class="edge">
<title>Node8&#45;&gt;Node12</title>
<path fill="none" stroke="#404040" d="M92.3376,-680.4663C104.6768,-668.4119 118.8793,-654.5372 132.484,-641.2464"/>
<polygon fill="none" stroke="#404040" points="132.7285,-641.0075 134.2252,-633.9534 141.3123,-632.6219 139.8156,-639.676 132.7285,-641.0075"/>
<text text-anchor="middle" x="151.5" y="-654" font-family="Helvetica,sans-Serif" font-size="10.00" fill="#000000"> +mCurrent</text>
</g>
<!-- Node9 -->
<g id="node5" class="node">
<title>Node9</title>
<polygon fill="none" stroke="#bfbfbf" points="248.5,-686 248.5,-743 286.5,-743 286.5,-686 248.5,-686"/>
<text text-anchor="middle" x="267.5" y="-731" font-family="Helvetica,sans-Serif" font-size="10.00" fill="#000000">bool</text>
<polyline fill="none" stroke="#bfbfbf" points="248.5,-724 286.5,-724 "/>
<text text-anchor="middle" x="267.5" y="-712" font-family="Helvetica,sans-Serif" font-size="10.00" fill="#000000"> </text>
<polyline fill="none" stroke="#bfbfbf" points="248.5,-705 286.5,-705 "/>
<text text-anchor="middle" x="267.5" y="-693" font-family="Helvetica,sans-Serif" font-size="10.00" fill="#000000"> </text>
</g>
<!-- Node9&#45;&gt;Node7 -->
<g id="edge4" class="edge">
<title>Node9&#45;&gt;Node7</title>
<path fill="none" stroke="#404040" d="M279.4067,-685.9926C292.2745,-650.6582 308.3291,-589.3237 287.5,-542 279.2131,-523.1721 265.6229,-506.2755 250.6893,-491.8611"/>
<polygon fill="none" stroke="#404040" points="250.6067,-491.7853 243.4823,-490.6704 241.7712,-483.6652 248.8956,-484.7801 250.6067,-491.7853"/>
<text text-anchor="middle" x="322.5" y="-585" font-family="Helvetica,sans-Serif" font-size="10.00" fill="#000000"> +mIsEnd</text>
</g>
<!-- Node9&#45;&gt;Node12 -->
<g id="edge9" class="edge">
<title>Node9&#45;&gt;Node12</title>
<path fill="none" stroke="#404040" d="M249.5464,-685.9987C241.6134,-673.4051 231.998,-658.1405 222.7292,-643.4263"/>
<polygon fill="none" stroke="#404040" points="222.4663,-643.0089 215.8838,-640.0641 216.0703,-632.8554 222.6528,-635.8002 222.4663,-643.0089"/>
<text text-anchor="middle" x="256.5" y="-654" font-family="Helvetica,sans-Serif" font-size="10.00" fill="#000000"> +mIsEnd</text>
</g>
<!-- Node10 -->
<g id="node6" class="node">
<title>Node10</title>
<g id="a_node6"><a xlink:href="../../dd/da8/structo2_1_1soa_1_1NTupleType.html" target="_top" xlink:title="{o2::soa::NTupleType\l\&lt; uint64_t, sizeof...(Ts)\&gt;\n||}">
<polygon fill="none" stroke="#000000" points="480,-680.5 480,-748.5 617,-748.5 617,-680.5 480,-680.5"/>
<text text-anchor="start" x="488" y="-736.5" font-family="Helvetica,sans-Serif" font-size="10.00" fill="#000000">o2::soa::NTupleType</text>
<text text-anchor="middle" x="548.5" y="-725.5" font-family="Helvetica,sans-Serif" font-size="10.00" fill="#000000">&lt; uint64_t, sizeof...(Ts)&gt;</text>
<polyline fill="none" stroke="#000000" points="480,-718.5 617,-718.5 "/>
<text text-anchor="middle" x="548.5" y="-706.5" font-family="Helvetica,sans-Serif" font-size="10.00" fill="#000000"> </text>
<polyline fill="none" stroke="#000000" points="480,-699.5 617,-699.5 "/>
<text text-anchor="middle" x="548.5" y="-687.5" font-family="Helvetica,sans-Serif" font-size="10.00" fill="#000000"> </text>
</a>
</g>
</g>
<!-- Node10&#45;&gt;Node6 -->
<g id="edge13" class="edge">
<title>Node10&#45;&gt;Node6</title>
<path fill="none" stroke="#404040" d="M617.0502,-695.1595C666.468,-676.5431 724.5,-642.8896 724.5,-587.5 724.5,-587.5 724.5,-587.5 724.5,-300.5 724.5,-265.4304 724.5599,-249.4682 698.5,-226 682.0179,-211.1571 637.569,-199.2823 592.6508,-190.6069"/>
<polygon fill="none" stroke="#404040" points="592.413,-190.5625 585.7802,-193.3921 580.6172,-188.3579 587.25,-185.5283 592.413,-190.5625"/>
<text text-anchor="middle" x="770.5" y="-441.5" font-family="Helvetica,sans-Serif" font-size="10.00" fill="#000000"> +mCurrentIndices</text>
<text text-anchor="middle" x="770.5" y="-430.5" font-family="Helvetica,sans-Serif" font-size="10.00" fill="#000000">+mBeginIndices</text>
</g>
<!-- Node10&#45;&gt;Node7 -->
<g id="edge5" class="edge">
<title>Node10&#45;&gt;Node7</title>
<path fill="none" stroke="#404040" d="M513.2643,-680.3517C474.8717,-643.9877 410.8428,-585.7617 350.5,-542 322.4249,-521.6394 313.3726,-519.6179 283.5,-502 276.7192,-498.0009 269.6936,-493.8729 262.6257,-489.731"/>
<polygon fill="none" stroke="#404040" points="262.6202,-489.7279 255.4214,-490.1492 252.2636,-483.6663 259.4624,-483.2449 262.6202,-489.7279"/>
<text text-anchor="middle" x="496" y="-585" font-family="Helvetica,sans-Serif" font-size="10.00" fill="#000000"> +mMaxOffset</text>
</g>
<!-- Node10&#45;&gt;Node12 -->
<g id="edge10" class="edge">
<title>Node10&#45;&gt;Node12</title>
<path fill="none" stroke="#404040" d="M479.9737,-694.5524C428.2855,-679.0361 355.8711,-656.292 293.5,-633 292.474,-632.6169 291.4435,-632.2293 290.4091,-631.8377"/>
<polygon fill="none" stroke="#404040" points="290.3997,-631.8342 283.3607,-633.4 279.208,-627.5046 286.2471,-625.9388 290.3997,-631.8342"/>
<text text-anchor="middle" x="405" y="-654" font-family="Helvetica,sans-Serif" font-size="10.00" fill="#000000"> +mMaxOffset</text>
</g>
<!-- Node10&#45;&gt;Node15 -->
<g id="edge18" class="edge">
<title>Node10&#45;&gt;Node15</title>
<path fill="none" stroke="#404040" d="M565.2311,-680.3161C596.3734,-611.1979 653.2656,-453.7913 574.5,-364 554.2511,-340.9166 467.2232,-353.7067 437.5,-346 429.2839,-343.8697 420.863,-341.3124 412.4965,-338.5107"/>
<polygon fill="none" stroke="#404040" points="412.4776,-338.5042 405.4956,-340.3073 401.1457,-334.5559 408.1278,-332.7527 412.4776,-338.5042"/>
<text text-anchor="middle" x="659.5" y="-516" font-family="Helvetica,sans-Serif" font-size="10.00" fill="#000000"> +mCurrentIndices</text>
<text text-anchor="middle" x="659.5" y="-505" font-family="Helvetica,sans-Serif" font-size="10.00" fill="#000000">+mBeginIndices</text>
</g>
<!-- Node11 -->
<g id="node7" class="node">
<title>Node11</title>
<g id="a_node7"><a xlink:href="../../dd/da8/structo2_1_1soa_1_1NTupleType.html" target="_top" xlink:title="{o2::soa::NTupleType\l\&lt; T, N, REST \&gt;\n||}">
<polygon fill="none" stroke="#000000" points="492,-796.5 492,-864.5 605,-864.5 605,-796.5 492,-796.5"/>
<text text-anchor="start" x="500" y="-852.5" font-family="Helvetica,sans-Serif" font-size="10.00" fill="#000000">o2::soa::NTupleType</text>
<text text-anchor="middle" x="548.5" y="-841.5" font-family="Helvetica,sans-Serif" font-size="10.00" fill="#000000">&lt; T, N, REST &gt;</text>
<polyline fill="none" stroke="#000000" points="492,-834.5 605,-834.5 "/>
<text text-anchor="middle" x="548.5" y="-822.5" font-family="Helvetica,sans-Serif" font-size="10.00" fill="#000000"> </text>
<polyline fill="none" stroke="#000000" points="492,-815.5 605,-815.5 "/>
<text text-anchor="middle" x="548.5" y="-803.5" font-family="Helvetica,sans-Serif" font-size="10.00" fill="#000000"> </text>
</a>
</g>
</g>
<!-- Node11&#45;&gt;Node10 -->
<g id="edge6" class="edge">
<title>Node11&#45;&gt;Node10</title>
<path fill="none" stroke="#ffa500" d="M548.5,-786.1851C548.5,-773.8048 548.5,-760.5422 548.5,-748.833"/>
<polygon fill="#ffa500" stroke="#ffa500" points="545.0001,-786.3235 548.5,-796.3236 552.0001,-786.3236 545.0001,-786.3235"/>
<text text-anchor="middle" x="610.5" y="-770" font-family="Helvetica,sans-Serif" font-size="10.00" fill="#000000"> &lt; uint64_t, sizeof...(Ts)&gt;</text>
</g>
<!-- Node12&#45;&gt;Node7 -->
<g id="edge7" class="edge">
<title>Node12&#45;&gt;Node7</title>
<path fill="none" stroke="#ffa500" d="M182.6685,-532.1234C181.2769,-516.1732 179.7758,-498.9687 178.4447,-483.7129"/>
<polygon fill="#ffa500" stroke="#ffa500" points="179.2083,-532.7328 183.5643,-542.3907 186.1818,-532.1243 179.2083,-532.7328"/>
<text text-anchor="middle" x="205" y="-510.5" font-family="Helvetica,sans-Serif" font-size="10.00" fill="#000000"> &lt; Ts... &gt;</text>
</g>
<!-- Node13 -->
<g id="node9" class="node">
<title>Node13</title>
<polygon fill="none" stroke="#bfbfbf" points="446,-272 446,-329 531,-329 531,-272 446,-272"/>
<text text-anchor="middle" x="488.5" y="-317" font-family="Helvetica,sans-Serif" font-size="10.00" fill="#000000">unsigned long</text>
<polyline fill="none" stroke="#bfbfbf" points="446,-310 531,-310 "/>
<text text-anchor="middle" x="488.5" y="-298" font-family="Helvetica,sans-Serif" font-size="10.00" fill="#000000"> </text>
<polyline fill="none" stroke="#bfbfbf" points="446,-291 531,-291 "/>
<text text-anchor="middle" x="488.5" y="-279" font-family="Helvetica,sans-Serif" font-size="10.00" fill="#000000"> </text>
</g>
<!-- Node13&#45;&gt;Node6 -->
<g id="edge11" class="edge">
<title>Node13&#45;&gt;Node6</title>
<path fill="none" stroke="#404040" d="M482.0163,-271.8863C479.8389,-261.0217 477.6682,-248.4968 476.5,-237 475.9394,-231.4828 475.5605,-225.6824 475.3135,-219.923"/>
<polygon fill="none" stroke="#404040" points="475.3018,-219.5015 471.1346,-213.6163 474.9643,-207.5062 479.1314,-213.3913 475.3018,-219.5015"/>
<text text-anchor="middle" x="533.5" y="-229" font-family="Helvetica,sans-Serif" font-size="10.00" fill="#000000"> +mSlidingWindowSize</text>
</g>
<!-- Node14 -->
<g id="node10" class="node">
<title>Node14</title>
<g id="a_node10"><a xlink:href="../../d8/d9e/classstd_1_1array_3_01std_1_1vector_3_01std_1_1pair_3_01unsigned_01long_00_01unsigned_01long_01_1b82c4f8bf6673cf149eb7ac44244f19.html" target="_top" xlink:title="{array\&lt; std::vector\l\&lt; std::pair\&lt; unsigned\l long, unsigned long \&gt;\l \&gt;, sizeof...(Ts)\&gt;\n||}">
<polygon fill="none" stroke="#000000" points="549.5,-255.5 549.5,-345.5 675.5,-345.5 675.5,-255.5 549.5,-255.5"/>
<text text-anchor="start" x="557.5" y="-333.5" font-family="Helvetica,sans-Serif" font-size="10.00" fill="#000000">array&lt; std::vector</text>
<text text-anchor="start" x="557.5" y="-322.5" font-family="Helvetica,sans-Serif" font-size="10.00" fill="#000000">&lt; std::pair&lt; unsigned</text>
<text text-anchor="start" x="557.5" y="-311.5" font-family="Helvetica,sans-Serif" font-size="10.00" fill="#000000"> long, unsigned long &gt;</text>
<text text-anchor="middle" x="612.5" y="-300.5" font-family="Helvetica,sans-Serif" font-size="10.00" fill="#000000"> &gt;, sizeof...(Ts)&gt;</text>
<polyline fill="none" stroke="#000000" points="549.5,-293.5 675.5,-293.5 "/>
<text text-anchor="middle" x="612.5" y="-281.5" font-family="Helvetica,sans-Serif" font-size="10.00" fill="#000000"> </text>
<polyline fill="none" stroke="#000000" points="549.5,-274.5 675.5,-274.5 "/>
<text text-anchor="middle" x="612.5" y="-262.5" font-family="Helvetica,sans-Serif" font-size="10.00" fill="#000000"> </text>
</a>
</g>
</g>
<!-- Node14&#45;&gt;Node6 -->
<g id="edge12" class="edge">
<title>Node14&#45;&gt;Node6</title>
<path fill="none" stroke="#404040" d="M605.752,-255.2207C602.4922,-244.7373 597.6605,-234.2497 590.5,-226 587.1012,-222.0842 583.3503,-218.4441 579.3413,-215.062"/>
<polygon fill="none" stroke="#404040" points="579.1168,-214.8914 571.9195,-214.4458 569.5626,-207.6307 576.7599,-208.0763 579.1168,-214.8914"/>
<text text-anchor="middle" x="646" y="-229" font-family="Helvetica,sans-Serif" font-size="10.00" fill="#000000"> +mGroupedIndices</text>
</g>
<!-- Node15&#45;&gt;Node6 -->
<g id="edge14" class="edge">
<title>Node15&#45;&gt;Node6</title>
<path fill="none" stroke="#ffa500" d="M371.4091,-259.9023C391.7042,-243.056 414.9909,-223.7265 434.3856,-207.6276"/>
<polygon fill="#ffa500" stroke="#ffa500" points="368.9603,-257.3862 363.5012,-266.4663 373.4312,-262.7724 368.9603,-257.3862"/>
<text text-anchor="middle" x="436" y="-229" font-family="Helvetica,sans-Serif" font-size="10.00" fill="#000000"> &lt; T, Ts... &gt;</text>
</g>
<!-- Node16 -->
<g id="node12" class="node">
<title>Node16</title>
<polygon fill="none" stroke="#bfbfbf" points="284,-399 284,-478 447,-478 447,-399 284,-399"/>
<text text-anchor="start" x="292" y="-466" font-family="Helvetica,sans-Serif" font-size="10.00" fill="#000000">array&lt; std::vector</text>
<text text-anchor="start" x="292" y="-455" font-family="Helvetica,sans-Serif" font-size="10.00" fill="#000000">&lt; std::pair&lt; uint64</text>
<text text-anchor="middle" x="365.5" y="-444" font-family="Helvetica,sans-Serif" font-size="10.00" fill="#000000">_t, uint64_t &gt; &gt;, sizeof...(Ts)&gt;</text>
<polyline fill="none" stroke="#bfbfbf" points="284,-437 447,-437 "/>
<text text-anchor="middle" x="365.5" y="-425" font-family="Helvetica,sans-Serif" font-size="10.00" fill="#000000"> </text>
<polyline fill="none" stroke="#bfbfbf" points="284,-418 447,-418 "/>
<text text-anchor="middle" x="365.5" y="-406" font-family="Helvetica,sans-Serif" font-size="10.00" fill="#000000"> </text>
</g>
<!-- Node16&#45;&gt;Node15 -->
<g id="edge16" class="edge">
<title>Node16&#45;&gt;Node15</title>
<path fill="none" stroke="#404040" d="M353.1779,-398.9547C348.1055,-382.6758 342.1941,-363.7042 336.9218,-346.7839"/>
<polygon fill="none" stroke="#404040" points="336.7868,-346.3504 331.1829,-341.812 333.2169,-334.8937 338.8207,-339.4321 336.7868,-346.3504"/>
<text text-anchor="middle" x="394" y="-367" font-family="Helvetica,sans-Serif" font-size="10.00" fill="#000000"> +mGroupedIndices</text>
</g>
<!-- Node17 -->
<g id="node13" class="node">
<title>Node17</title>
<polygon fill="none" stroke="#bfbfbf" points="465,-410 465,-467 526,-467 526,-410 465,-410"/>
<text text-anchor="middle" x="495.5" y="-455" font-family="Helvetica,sans-Serif" font-size="10.00" fill="#000000">unsigned</text>
<polyline fill="none" stroke="#bfbfbf" points="465,-448 526,-448 "/>
<text text-anchor="middle" x="495.5" y="-436" font-family="Helvetica,sans-Serif" font-size="10.00" fill="#000000"> </text>
<polyline fill="none" stroke="#bfbfbf" points="465,-429 526,-429 "/>
<text text-anchor="middle" x="495.5" y="-417" font-family="Helvetica,sans-Serif" font-size="10.00" fill="#000000"> </text>
</g>
<!-- Node17&#45;&gt;Node15 -->
<g id="edge17" class="edge">
<title>Node17&#45;&gt;Node15</title>
<path fill="none" stroke="#404040" d="M481.2497,-409.728C472.7328,-394.6975 460.7899,-376.8178 446.5,-364 436.9196,-355.4065 425.9646,-347.642 414.6204,-340.7331"/>
<polygon fill="none" stroke="#404040" points="414.4954,-340.6605 407.2979,-341.1032 404.121,-334.6295 411.3185,-334.1869 414.4954,-340.6605"/>
<text text-anchor="middle" x="513.5" y="-367" font-family="Helvetica,sans-Serif" font-size="10.00" fill="#000000"> +mSlidingWindowSize</text>
</g>
</g>
</svg>
        <g id="navigator" transform="translate(0 0)" fill="#404254">
                <rect fill="#f2f5e9" fill-opacity="0.5" stroke="#606060" stroke-width=".5" x="0" y="0" width="60" height="60"/>
                <use id="zoomplus" xlink:href="#zoomPlus" x="17" y="9" onmousedown="handleZoom(evt,'in')"/>
                <use id="zoomminus" xlink:href="#zoomMin" x="42" y="9" onmousedown="handleZoom(evt,'out')"/>
                <use id="reset" xlink:href="#resetDef" x="30" y="36" onmousedown="handleReset()"/>
                <g id="arrowUp" xlink:href="#dirArrow" transform="translate(30 24)" onmousedown="handlePan(0,-1)">
                  <use xlink:href="#rim" fill="#404040">
                        <set attributeName="fill" to="#808080" begin="arrowUp.mouseover" end="arrowUp.mouseout"/>
                  </use>
                  <path fill="none" stroke="white" stroke-width="1.5" d="M0,-3.0v7 M-2.5,-0.5L0,-3.0L2.5,-0.5"/>
                </g>
                <g id="arrowRight" xlink:href="#dirArrow" transform="rotate(90) translate(36 -43)" onmousedown="handlePan(1,0)">
                  <use xlink:href="#rim" fill="#404040">
                        <set attributeName="fill" to="#808080" begin="arrowRight.mouseover" end="arrowRight.mouseout"/>
                  </use>
                  <path fill="none" stroke="white" stroke-width="1.5" d="M0,-3.0v7 M-2.5,-0.5L0,-3.0L2.5,-0.5"/>
                </g>
                <g id="arrowDown" xlink:href="#dirArrow" transform="rotate(180) translate(-30 -48)" onmousedown="handlePan(0,1)">
                  <use xlink:href="#rim" fill="#404040">
                        <set attributeName="fill" to="#808080" begin="arrowDown.mouseover" end="arrowDown.mouseout"/>
                  </use>
                  <path fill="none" stroke="white" stroke-width="1.5" d="M0,-3.0v7 M-2.5,-0.5L0,-3.0L2.5,-0.5"/>
                </g>
                <g id="arrowLeft" xlink:href="#dirArrow" transform="rotate(270) translate(-36 17)" onmousedown="handlePan(-1,0)">
                  <use xlink:href="#rim" fill="#404040">
                        <set attributeName="fill" to="#808080" begin="arrowLeft.mouseover" end="arrowLeft.mouseout"/>
                  </use>
                  <path fill="none" stroke="white" stroke-width="1.5" d="M0,-3.0v7 M-2.5,-0.5L0,-3.0L2.5,-0.5"/>
                </g>
        </g>
        <svg viewBox="0 0 15 15" width="100%" height="30px" preserveAspectRatio="xMaxYMin meet">
         <g id="arrow_out" transform="scale(0.3 0.3)">
          <a xlink:href="structo2_1_1soa_1_1CombinationsBlockUpperIndexPolicy__coll__graph_org.svg" target="_base">
           <rect id="button" ry="5" rx="5" y="6" x="6" height="38" width="38"
                fill="#f2f5e9" fill-opacity="0.5" stroke="#606060" stroke-width="1.0"/>
           <path id="arrow"
             d="M 11.500037,31.436501 C 11.940474,20.09759 22.043105,11.32322 32.158766,21.979434 L 37.068811,17.246167 C 37.068811,17.246167 37.088388,32 37.088388,32 L 22.160133,31.978069 C 22.160133,31.978069 26.997745,27.140456 26.997745,27.140456 C 18.528582,18.264221 13.291696,25.230495 11.500037,31.436501 z"
             style="fill:#404040;"/>
          </a>
         </g>
        </svg>
</svg>
