<?xml version="1.0" encoding="UTF-8" standalone="no"?>
<!DOCTYPE svg PUBLIC "-//W3C//DTD SVG 1.1//EN"
 "http://www.w3.org/Graphics/SVG/1.1/DTD/svg11.dtd">
<!-- Generated by graphviz version 2.40.1 (20161225.0304)
 -->
<!-- Title: o2::steer::O2MCApplication Pages: 1 -->
<svg width="1160pt" height="1698pt"
 viewBox="0.00 0.00 1159.50 1698.00" xmlns="http://www.w3.org/2000/svg" xmlns:xlink="http://www.w3.org/1999/xlink">
<g id="graph0" class="graph" transform="scale(1 1) rotate(0) translate(4 1694)">
<title>o2::steer::O2MCApplication</title>
<!-- Node3 -->
<g id="node1" class="node">
<title>Node3</title>
<polygon fill="#bfbfbf" stroke="#000000" points="709.5,-.5 709.5,-167.5 858.5,-167.5 858.5,-.5 709.5,-.5"/>
<text text-anchor="middle" x="784" y="-155.5" font-family="Helvetica,sans-Serif" font-size="10.00" fill="#000000">o2::steer::O2MCApplication</text>
<polyline fill="none" stroke="#000000" points="709.5,-148.5 858.5,-148.5 "/>
<text text-anchor="middle" x="784" y="-136.5" font-family="Helvetica,sans-Serif" font-size="10.00" fill="#000000"> </text>
<polyline fill="none" stroke="#000000" points="709.5,-129.5 858.5,-129.5 "/>
<text text-anchor="start" x="717.5" y="-117.5" font-family="Helvetica,sans-Serif" font-size="10.00" fill="#000000">+ ~O2MCApplication()</text>
<text text-anchor="start" x="717.5" y="-106.5" font-family="Helvetica,sans-Serif" font-size="10.00" fill="#000000">+ SendData()</text>
<text text-anchor="start" x="717.5" y="-95.5" font-family="Helvetica,sans-Serif" font-size="10.00" fill="#000000">+ initLate()</text>
<text text-anchor="start" x="717.5" y="-84.5" font-family="Helvetica,sans-Serif" font-size="10.00" fill="#000000">+ FinishEvent()</text>
<text text-anchor="start" x="717.5" y="-73.5" font-family="Helvetica,sans-Serif" font-size="10.00" fill="#000000">+ FinishRun()</text>
<text text-anchor="start" x="717.5" y="-62.5" font-family="Helvetica,sans-Serif" font-size="10.00" fill="#000000">+ attachSubEventInfo()</text>
<text text-anchor="start" x="717.5" y="-51.5" font-family="Helvetica,sans-Serif" font-size="10.00" fill="#000000">+ GeneratePrimaries()</text>
<text text-anchor="start" x="717.5" y="-40.5" font-family="Helvetica,sans-Serif" font-size="10.00" fill="#000000">+ setPrimaries()</text>
<text text-anchor="start" x="717.5" y="-29.5" font-family="Helvetica,sans-Serif" font-size="10.00" fill="#000000">+ setSimDataChannel()</text>
<text text-anchor="start" x="717.5" y="-18.5" font-family="Helvetica,sans-Serif" font-size="10.00" fill="#000000">+ setSubEventInfo()</text>
<text text-anchor="start" x="717.5" y="-7.5" font-family="Helvetica,sans-Serif" font-size="10.00" fill="#000000">+ ClassDefOverride()</text>
</g>
<!-- Node4 -->
<g id="node2" class="node">
<title>Node4</title>
<g id="a_node2"><a xlink:href="../../d8/d15/classo2_1_1steer_1_1O2MCApplicationBase.html" target="_top" xlink:title="{o2::steer::O2MCApplicationBase\n||+ O2MCApplicationBase()\l+ O2MCApplicationBase()\l+ ~O2MCApplicationBase()\l+ Stepping()\l+ PreTrack()\l+ BeginEvent()\l+ FinishEvent()\l+ ConstructGeometry()\l+ InitGeometry()\l+ MisalignGeometry()\l+ AddParticles()\l+ TrackingRmax()\l+ TrackingZmax()\l# finishEventCommon()\l# ClassDefOverride()\l}">
<polygon fill="none" stroke="#000000" points="264.5,-215.5 264.5,-426.5 437.5,-426.5 437.5,-215.5 264.5,-215.5"/>
<text text-anchor="middle" x="351" y="-414.5" font-family="Helvetica,sans-Serif" font-size="10.00" fill="#000000">o2::steer::O2MCApplicationBase</text>
<polyline fill="none" stroke="#000000" points="264.5,-407.5 437.5,-407.5 "/>
<text text-anchor="middle" x="351" y="-395.5" font-family="Helvetica,sans-Serif" font-size="10.00" fill="#000000"> </text>
<polyline fill="none" stroke="#000000" points="264.5,-388.5 437.5,-388.5 "/>
<text text-anchor="start" x="272.5" y="-376.5" font-family="Helvetica,sans-Serif" font-size="10.00" fill="#000000">+ O2MCApplicationBase()</text>
<text text-anchor="start" x="272.5" y="-365.5" font-family="Helvetica,sans-Serif" font-size="10.00" fill="#000000">+ O2MCApplicationBase()</text>
<text text-anchor="start" x="272.5" y="-354.5" font-family="Helvetica,sans-Serif" font-size="10.00" fill="#000000">+ ~O2MCApplicationBase()</text>
<text text-anchor="start" x="272.5" y="-343.5" font-family="Helvetica,sans-Serif" font-size="10.00" fill="#000000">+ Stepping()</text>
<text text-anchor="start" x="272.5" y="-332.5" font-family="Helvetica,sans-Serif" font-size="10.00" fill="#000000">+ PreTrack()</text>
<text text-anchor="start" x="272.5" y="-321.5" font-family="Helvetica,sans-Serif" font-size="10.00" fill="#000000">+ BeginEvent()</text>
<text text-anchor="start" x="272.5" y="-310.5" font-family="Helvetica,sans-Serif" font-size="10.00" fill="#000000">+ FinishEvent()</text>
<text text-anchor="start" x="272.5" y="-299.5" font-family="Helvetica,sans-Serif" font-size="10.00" fill="#000000">+ ConstructGeometry()</text>
<text text-anchor="start" x="272.5" y="-288.5" font-family="Helvetica,sans-Serif" font-size="10.00" fill="#000000">+ InitGeometry()</text>
<text text-anchor="start" x="272.5" y="-277.5" font-family="Helvetica,sans-Serif" font-size="10.00" fill="#000000">+ MisalignGeometry()</text>
<text text-anchor="start" x="272.5" y="-266.5" font-family="Helvetica,sans-Serif" font-size="10.00" fill="#000000">+ AddParticles()</text>
<text text-anchor="start" x="272.5" y="-255.5" font-family="Helvetica,sans-Serif" font-size="10.00" fill="#000000">+ TrackingRmax()</text>
<text text-anchor="start" x="272.5" y="-244.5" font-family="Helvetica,sans-Serif" font-size="10.00" fill="#000000">+ TrackingZmax()</text>
<text text-anchor="start" x="272.5" y="-233.5" font-family="Helvetica,sans-Serif" font-size="10.00" fill="#000000"># finishEventCommon()</text>
<text text-anchor="start" x="272.5" y="-222.5" font-family="Helvetica,sans-Serif" font-size="10.00" fill="#000000"># ClassDefOverride()</text>
</a>
</g>
</g>
<!-- Node4&#45;&gt;Node3 -->
<g id="edge1" class="edge">
<title>Node4&#45;&gt;Node3</title>
<path fill="none" stroke="#191970" d="M446.5938,-268.6773C525.7851,-225.3324 636.7448,-164.5993 709.4732,-124.7918"/>
<polygon fill="none" stroke="#191970" points="444.6748,-265.7376 437.5833,-273.6091 448.0358,-271.878 444.6748,-265.7376"/>
</g>
<!-- Node5 -->
<g id="node3" class="node">
<title>Node5</title>
<g id="a_node3"><a xlink:href="../../d8/def/classFairMCApplication.html" target="_top" xlink:title="{FairMCApplication\n||}">
<polygon fill="none" stroke="#000000" points="29,-573.5 29,-630.5 133,-630.5 133,-573.5 29,-573.5"/>
<text text-anchor="middle" x="81" y="-618.5" font-family="Helvetica,sans-Serif" font-size="10.00" fill="#000000">FairMCApplication</text>
<polyline fill="none" stroke="#000000" points="29,-611.5 133,-611.5 "/>
<text text-anchor="middle" x="81" y="-599.5" font-family="Helvetica,sans-Serif" font-size="10.00" fill="#000000"> </text>
<polyline fill="none" stroke="#000000" points="29,-592.5 133,-592.5 "/>
<text text-anchor="middle" x="81" y="-580.5" font-family="Helvetica,sans-Serif" font-size="10.00" fill="#000000"> </text>
</a>
</g>
</g>
<!-- Node5&#45;&gt;Node4 -->
<g id="edge2" class="edge">
<title>Node5&#45;&gt;Node4</title>
<path fill="none" stroke="#191970" d="M105.747,-564.8213C116.3165,-549.7956 129.1625,-532.5921 142,-518 179.6291,-475.2278 225.2986,-431.3959 264.3371,-395.9692"/>
<polygon fill="none" stroke="#191970" points="102.6326,-563.17 99.8041,-573.3804 108.3825,-567.1624 102.6326,-563.17"/>
</g>
<!-- Node6 -->
<g id="node4" class="node">
<title>Node6</title>
<g id="a_node4"><a xlink:href="../../d7/d2f/structo2_1_1conf_1_1SimCutParams.html" target="_top" xlink:title="{o2::conf::SimCutParams\n||+ O2ParamDef()\l}">
<polygon fill="none" stroke="#000000" points="151.5,-573.5 151.5,-630.5 284.5,-630.5 284.5,-573.5 151.5,-573.5"/>
<text text-anchor="middle" x="218" y="-618.5" font-family="Helvetica,sans-Serif" font-size="10.00" fill="#000000">o2::conf::SimCutParams</text>
<polyline fill="none" stroke="#000000" points="151.5,-611.5 284.5,-611.5 "/>
<text text-anchor="middle" x="218" y="-599.5" font-family="Helvetica,sans-Serif" font-size="10.00" fill="#000000"> </text>
<polyline fill="none" stroke="#000000" points="151.5,-592.5 284.5,-592.5 "/>
<text text-anchor="start" x="159.5" y="-580.5" font-family="Helvetica,sans-Serif" font-size="10.00" fill="#000000">+ O2ParamDef()</text>
</a>
</g>
</g>
<!-- Node6&#45;&gt;Node4 -->
<g id="edge3" class="edge">
<title>Node6&#45;&gt;Node4</title>
<path fill="none" stroke="#404040" d="M225.6246,-573.411C234.6833,-541.3187 251.2195,-488.1 272,-445 273.2394,-442.4295 274.5211,-439.847 275.8392,-437.2585"/>
<polygon fill="none" stroke="#404040" points="275.8603,-437.2184 275.1138,-430.046 281.4473,-426.5983 282.1939,-433.7707 275.8603,-437.2184"/>
<text text-anchor="middle" x="309" y="-470" font-family="Helvetica,sans-Serif" font-size="10.00" fill="#000000"> #mCutParams</text>
</g>
<!-- Node7 -->
<g id="node5" class="node">
<title>Node7</title>
<g id="a_node5"><a xlink:href="../../d7/d50/classo2_1_1conf_1_1ConfigurableParamHelper.html" target="_top" xlink:title="{o2::conf::ConfigurableParam\lHelper\&lt; SimCutParams \&gt;\n||+ getName()\l+ printKeyValues()\l+ output()\l+ getDataMembers()\l+ putKeyValues()\l+ initFrom()\l+ serializeTo()\l+ Instance()\l}">
<polygon fill="none" stroke="#000000" points="21,-772 21,-917 175,-917 175,-772 21,-772"/>
<text text-anchor="start" x="29" y="-905" font-family="Helvetica,sans-Serif" font-size="10.00" fill="#000000">o2::conf::ConfigurableParam</text>
<text text-anchor="middle" x="98" y="-894" font-family="Helvetica,sans-Serif" font-size="10.00" fill="#000000">Helper&lt; SimCutParams &gt;</text>
<polyline fill="none" stroke="#000000" points="21,-887 175,-887 "/>
<text text-anchor="middle" x="98" y="-875" font-family="Helvetica,sans-Serif" font-size="10.00" fill="#000000"> </text>
<polyline fill="none" stroke="#000000" points="21,-868 175,-868 "/>
<text text-anchor="start" x="29" y="-856" font-family="Helvetica,sans-Serif" font-size="10.00" fill="#000000">+ getName()</text>
<text text-anchor="start" x="29" y="-845" font-family="Helvetica,sans-Serif" font-size="10.00" fill="#000000">+ printKeyValues()</text>
<text text-anchor="start" x="29" y="-834" font-family="Helvetica,sans-Serif" font-size="10.00" fill="#000000">+ output()</text>
<text text-anchor="start" x="29" y="-823" font-family="Helvetica,sans-Serif" font-size="10.00" fill="#000000">+ getDataMembers()</text>
<text text-anchor="start" x="29" y="-812" font-family="Helvetica,sans-Serif" font-size="10.00" fill="#000000">+ putKeyValues()</text>
<text text-anchor="start" x="29" y="-801" font-family="Helvetica,sans-Serif" font-size="10.00" fill="#000000">+ initFrom()</text>
<text text-anchor="start" x="29" y="-790" font-family="Helvetica,sans-Serif" font-size="10.00" fill="#000000">+ serializeTo()</text>
<text text-anchor="start" x="29" y="-779" font-family="Helvetica,sans-Serif" font-size="10.00" fill="#000000">+ Instance()</text>
</a>
</g>
</g>
<!-- Node7&#45;&gt;Node6 -->
<g id="edge4" class="edge">
<title>Node7&#45;&gt;Node6</title>
<path fill="none" stroke="#191970" d="M138.4694,-762.7182C161.0958,-716.9939 187.8814,-662.8646 203.8779,-630.5384"/>
<polygon fill="none" stroke="#191970" points="135.3022,-761.227 134.004,-771.742 141.5761,-764.3316 135.3022,-761.227"/>
</g>
<!-- Node8 -->
<g id="node6" class="node">
<title>Node8</title>
<g id="a_node6"><a xlink:href="../../d6/d14/classo2_1_1conf_1_1ConfigurableParam.html" target="_top" xlink:title="{o2::conf::ConfigurableParam\n||+ getName()\l+ printKeyValues()\l+ toString()\l+ printAllRegisteredParamNames()\l+ printAllKeyValuePairs()\l+ readINI()\l+ readJSON()\l+ readConfigFile()\l+ writeJSON()\l+ writeINI()\l+ getValueAs()\l+ setValue()\l+ setValue()\l+ setEnumValue()\l+ setArrayValue()\l+ setValues()\l+ initialize()\l+ toCCDB()\l+ fromCCDB()\l+ updateFromString()\l+ updateFromFile()\l# ConfigurableParam()\l# ~ConfigurableParam()\l# putKeyValues()\l# output()\l# serializeTo()\l# initFrom()\l# setRegisterMode()\l# isInitialized()\l# initPropertyTree()\l# updateThroughStorageMap()\l# updateThroughStorageMapWith\lConversion()\l}">
<polygon fill="none" stroke="#000000" points="0,-1153.5 0,-1562.5 188,-1562.5 188,-1153.5 0,-1153.5"/>
<text text-anchor="middle" x="94" y="-1550.5" font-family="Helvetica,sans-Serif" font-size="10.00" fill="#000000">o2::conf::ConfigurableParam</text>
<polyline fill="none" stroke="#000000" points="0,-1543.5 188,-1543.5 "/>
<text text-anchor="middle" x="94" y="-1531.5" font-family="Helvetica,sans-Serif" font-size="10.00" fill="#000000"> </text>
<polyline fill="none" stroke="#000000" points="0,-1524.5 188,-1524.5 "/>
<text text-anchor="start" x="8" y="-1512.5" font-family="Helvetica,sans-Serif" font-size="10.00" fill="#000000">+ getName()</text>
<text text-anchor="start" x="8" y="-1501.5" font-family="Helvetica,sans-Serif" font-size="10.00" fill="#000000">+ printKeyValues()</text>
<text text-anchor="start" x="8" y="-1490.5" font-family="Helvetica,sans-Serif" font-size="10.00" fill="#000000">+ toString()</text>
<text text-anchor="start" x="8" y="-1479.5" font-family="Helvetica,sans-Serif" font-size="10.00" fill="#000000">+ printAllRegisteredParamNames()</text>
<text text-anchor="start" x="8" y="-1468.5" font-family="Helvetica,sans-Serif" font-size="10.00" fill="#000000">+ printAllKeyValuePairs()</text>
<text text-anchor="start" x="8" y="-1457.5" font-family="Helvetica,sans-Serif" font-size="10.00" fill="#000000">+ readINI()</text>
<text text-anchor="start" x="8" y="-1446.5" font-family="Helvetica,sans-Serif" font-size="10.00" fill="#000000">+ readJSON()</text>
<text text-anchor="start" x="8" y="-1435.5" font-family="Helvetica,sans-Serif" font-size="10.00" fill="#000000">+ readConfigFile()</text>
<text text-anchor="start" x="8" y="-1424.5" font-family="Helvetica,sans-Serif" font-size="10.00" fill="#000000">+ writeJSON()</text>
<text text-anchor="start" x="8" y="-1413.5" font-family="Helvetica,sans-Serif" font-size="10.00" fill="#000000">+ writeINI()</text>
<text text-anchor="start" x="8" y="-1402.5" font-family="Helvetica,sans-Serif" font-size="10.00" fill="#000000">+ getValueAs()</text>
<text text-anchor="start" x="8" y="-1391.5" font-family="Helvetica,sans-Serif" font-size="10.00" fill="#000000">+ setValue()</text>
<text text-anchor="start" x="8" y="-1380.5" font-family="Helvetica,sans-Serif" font-size="10.00" fill="#000000">+ setValue()</text>
<text text-anchor="start" x="8" y="-1369.5" font-family="Helvetica,sans-Serif" font-size="10.00" fill="#000000">+ setEnumValue()</text>
<text text-anchor="start" x="8" y="-1358.5" font-family="Helvetica,sans-Serif" font-size="10.00" fill="#000000">+ setArrayValue()</text>
<text text-anchor="start" x="8" y="-1347.5" font-family="Helvetica,sans-Serif" font-size="10.00" fill="#000000">+ setValues()</text>
<text text-anchor="start" x="8" y="-1336.5" font-family="Helvetica,sans-Serif" font-size="10.00" fill="#000000">+ initialize()</text>
<text text-anchor="start" x="8" y="-1325.5" font-family="Helvetica,sans-Serif" font-size="10.00" fill="#000000">+ toCCDB()</text>
<text text-anchor="start" x="8" y="-1314.5" font-family="Helvetica,sans-Serif" font-size="10.00" fill="#000000">+ fromCCDB()</text>
<text text-anchor="start" x="8" y="-1303.5" font-family="Helvetica,sans-Serif" font-size="10.00" fill="#000000">+ updateFromString()</text>
<text text-anchor="start" x="8" y="-1292.5" font-family="Helvetica,sans-Serif" font-size="10.00" fill="#000000">+ updateFromFile()</text>
<text text-anchor="start" x="8" y="-1281.5" font-family="Helvetica,sans-Serif" font-size="10.00" fill="#000000"># ConfigurableParam()</text>
<text text-anchor="start" x="8" y="-1270.5" font-family="Helvetica,sans-Serif" font-size="10.00" fill="#000000"># ~ConfigurableParam()</text>
<text text-anchor="start" x="8" y="-1259.5" font-family="Helvetica,sans-Serif" font-size="10.00" fill="#000000"># putKeyValues()</text>
<text text-anchor="start" x="8" y="-1248.5" font-family="Helvetica,sans-Serif" font-size="10.00" fill="#000000"># output()</text>
<text text-anchor="start" x="8" y="-1237.5" font-family="Helvetica,sans-Serif" font-size="10.00" fill="#000000"># serializeTo()</text>
<text text-anchor="start" x="8" y="-1226.5" font-family="Helvetica,sans-Serif" font-size="10.00" fill="#000000"># initFrom()</text>
<text text-anchor="start" x="8" y="-1215.5" font-family="Helvetica,sans-Serif" font-size="10.00" fill="#000000"># setRegisterMode()</text>
<text text-anchor="start" x="8" y="-1204.5" font-family="Helvetica,sans-Serif" font-size="10.00" fill="#000000"># isInitialized()</text>
<text text-anchor="start" x="8" y="-1193.5" font-family="Helvetica,sans-Serif" font-size="10.00" fill="#000000"># initPropertyTree()</text>
<text text-anchor="start" x="8" y="-1182.5" font-family="Helvetica,sans-Serif" font-size="10.00" fill="#000000"># updateThroughStorageMap()</text>
<text text-anchor="start" x="8" y="-1171.5" font-family="Helvetica,sans-Serif" font-size="10.00" fill="#000000"># updateThroughStorageMapWith</text>
<text text-anchor="start" x="8" y="-1160.5" font-family="Helvetica,sans-Serif" font-size="10.00" fill="#000000">Conversion()</text>
</a>
</g>
</g>
<!-- Node8&#45;&gt;Node7 -->
<g id="edge5" class="edge">
<title>Node8&#45;&gt;Node7</title>
<path fill="none" stroke="#191970" d="M95.6755,-1142.904C96.303,-1062.3485 96.9743,-976.1725 97.4333,-917.2443"/>
<polygon fill="none" stroke="#191970" points="92.1734,-1143.1796 95.5953,-1153.2066 99.1732,-1143.2342 92.1734,-1143.1796"/>
</g>
<!-- Node10 -->
<g id="node8" class="node">
<title>Node10</title>
<g id="a_node8"><a xlink:href="../../d7/d50/classo2_1_1conf_1_1ConfigurableParamHelper.html" target="_top" xlink:title="{o2::conf::ConfigurableParam\lHelper\&lt; P \&gt;\n||+ getName()\l+ printKeyValues()\l+ output()\l+ getDataMembers()\l+ putKeyValues()\l+ initFrom()\l+ serializeTo()\l+ Instance()\l}">
<polygon fill="none" stroke="#000000" points="110,-970.5 110,-1115.5 264,-1115.5 264,-970.5 110,-970.5"/>
<text text-anchor="start" x="118" y="-1103.5" font-family="Helvetica,sans-Serif" font-size="10.00" fill="#000000">o2::conf::ConfigurableParam</text>
<text text-anchor="middle" x="187" y="-1092.5" font-family="Helvetica,sans-Serif" font-size="10.00" fill="#000000">Helper&lt; P &gt;</text>
<polyline fill="none" stroke="#000000" points="110,-1085.5 264,-1085.5 "/>
<text text-anchor="middle" x="187" y="-1073.5" font-family="Helvetica,sans-Serif" font-size="10.00" fill="#000000"> </text>
<polyline fill="none" stroke="#000000" points="110,-1066.5 264,-1066.5 "/>
<text text-anchor="start" x="118" y="-1054.5" font-family="Helvetica,sans-Serif" font-size="10.00" fill="#000000">+ getName()</text>
<text text-anchor="start" x="118" y="-1043.5" font-family="Helvetica,sans-Serif" font-size="10.00" fill="#000000">+ printKeyValues()</text>
<text text-anchor="start" x="118" y="-1032.5" font-family="Helvetica,sans-Serif" font-size="10.00" fill="#000000">+ output()</text>
<text text-anchor="start" x="118" y="-1021.5" font-family="Helvetica,sans-Serif" font-size="10.00" fill="#000000">+ getDataMembers()</text>
<text text-anchor="start" x="118" y="-1010.5" font-family="Helvetica,sans-Serif" font-size="10.00" fill="#000000">+ putKeyValues()</text>
<text text-anchor="start" x="118" y="-999.5" font-family="Helvetica,sans-Serif" font-size="10.00" fill="#000000">+ initFrom()</text>
<text text-anchor="start" x="118" y="-988.5" font-family="Helvetica,sans-Serif" font-size="10.00" fill="#000000">+ serializeTo()</text>
<text text-anchor="start" x="118" y="-977.5" font-family="Helvetica,sans-Serif" font-size="10.00" fill="#000000">+ Instance()</text>
</a>
</g>
</g>
<!-- Node8&#45;&gt;Node10 -->
<g id="edge8" class="edge">
<title>Node8&#45;&gt;Node10</title>
<path fill="none" stroke="#191970" d="M157.3585,-1143.3986C160.2132,-1133.7297 162.9698,-1124.3928 165.5764,-1115.5639"/>
<polygon fill="none" stroke="#191970" points="153.948,-1142.5899 154.4731,-1153.1717 160.6615,-1144.572 153.948,-1142.5899"/>
</g>
<!-- Node9 -->
<g id="node7" class="node">
<title>Node9</title>
<polygon fill="none" stroke="#bfbfbf" points="72,-1632.5 72,-1689.5 116,-1689.5 116,-1632.5 72,-1632.5"/>
<text text-anchor="middle" x="94" y="-1677.5" font-family="Helvetica,sans-Serif" font-size="10.00" fill="#000000">static</text>
<polyline fill="none" stroke="#bfbfbf" points="72,-1670.5 116,-1670.5 "/>
<text text-anchor="middle" x="94" y="-1658.5" font-family="Helvetica,sans-Serif" font-size="10.00" fill="#000000"> </text>
<polyline fill="none" stroke="#bfbfbf" points="72,-1651.5 116,-1651.5 "/>
<text text-anchor="middle" x="94" y="-1639.5" font-family="Helvetica,sans-Serif" font-size="10.00" fill="#000000"> </text>
</g>
<!-- Node9&#45;&gt;Node8 -->
<g id="edge6" class="edge">
<title>Node9&#45;&gt;Node8</title>
<path fill="none" stroke="#404040" d="M94,-1632.4945C94,-1617.3148 94,-1597.1276 94,-1574.5633"/>
<polygon fill="none" stroke="#404040" points="94.0001,-1574.5608 90,-1568.5608 94,-1562.5608 98,-1568.5608 94.0001,-1574.5608"/>
<text text-anchor="middle" x="153" y="-1606" font-family="Helvetica,sans-Serif" font-size="10.00" fill="#000000"> #sEnumRegistry</text>
<text text-anchor="middle" x="153" y="-1595" font-family="Helvetica,sans-Serif" font-size="10.00" fill="#000000">#sValueProvenanceMap</text>
<text text-anchor="middle" x="153" y="-1584" font-family="Helvetica,sans-Serif" font-size="10.00" fill="#000000">#sKeyToStorageMap</text>
</g>
<!-- Node10&#45;&gt;Node7 -->
<g id="edge7" class="edge">
<title>Node10&#45;&gt;Node7</title>
<path fill="none" stroke="#ffa500" d="M150.2434,-961.0203C143.7198,-946.4705 136.9671,-931.4098 130.5697,-917.1413"/>
<polygon fill="#ffa500" stroke="#ffa500" points="147.2062,-962.8015 154.4912,-970.4943 153.5936,-959.9376 147.2062,-962.8015"/>
<text text-anchor="middle" x="194.5" y="-944" font-family="Helvetica,sans-Serif" font-size="10.00" fill="#000000"> &lt; SimCutParams &gt;</text>
</g>
<!-- Node11 -->
<g id="node9" class="node">
<title>Node11</title>
<polygon fill="none" stroke="#bfbfbf" points="193,-816 193,-873 243,-873 243,-816 193,-816"/>
<text text-anchor="middle" x="218" y="-861" font-family="Helvetica,sans-Serif" font-size="10.00" fill="#000000">double</text>
<polyline fill="none" stroke="#bfbfbf" points="193,-854 243,-854 "/>
<text text-anchor="middle" x="218" y="-842" font-family="Helvetica,sans-Serif" font-size="10.00" fill="#000000"> </text>
<polyline fill="none" stroke="#bfbfbf" points="193,-835 243,-835 "/>
<text text-anchor="middle" x="218" y="-823" font-family="Helvetica,sans-Serif" font-size="10.00" fill="#000000"> </text>
</g>
<!-- Node11&#45;&gt;Node6 -->
<g id="edge9" class="edge">
<title>Node11&#45;&gt;Node6</title>
<path fill="none" stroke="#404040" d="M218,-815.7298C218,-772.7959 218,-691.7742 218,-642.7591"/>
<polygon fill="none" stroke="#404040" points="218.0001,-642.7328 214,-636.7328 218,-630.7328 222,-636.7327 218.0001,-642.7328"/>
<text text-anchor="middle" x="266" y="-740" font-family="Helvetica,sans-Serif" font-size="10.00" fill="#000000"> +maxRTracking</text>
<text text-anchor="middle" x="266" y="-729" font-family="Helvetica,sans-Serif" font-size="10.00" fill="#000000">+maxAbsZTracking</text>
<text text-anchor="middle" x="266" y="-718" font-family="Helvetica,sans-Serif" font-size="10.00" fill="#000000">+ZmaxA</text>
<text text-anchor="middle" x="266" y="-707" font-family="Helvetica,sans-Serif" font-size="10.00" fill="#000000">+ZmaxC</text>
</g>
<!-- Node12 -->
<g id="node10" class="node">
<title>Node12</title>
<polygon fill="none" stroke="#bfbfbf" points="318,-816 318,-873 356,-873 356,-816 318,-816"/>
<text text-anchor="middle" x="337" y="-861" font-family="Helvetica,sans-Serif" font-size="10.00" fill="#000000">bool</text>
<polyline fill="none" stroke="#bfbfbf" points="318,-854 356,-854 "/>
<text text-anchor="middle" x="337" y="-842" font-family="Helvetica,sans-Serif" font-size="10.00" fill="#000000"> </text>
<polyline fill="none" stroke="#bfbfbf" points="318,-835 356,-835 "/>
<text text-anchor="middle" x="337" y="-823" font-family="Helvetica,sans-Serif" font-size="10.00" fill="#000000"> </text>
</g>
<!-- Node12&#45;&gt;Node6 -->
<g id="edge10" class="edge">
<title>Node12&#45;&gt;Node6</title>
<path fill="none" stroke="#404040" d="M338.1601,-815.9865C338.1392,-786.2066 334.542,-739.0395 315,-704 309.0124,-693.2641 302.808,-694.575 294,-686 279.204,-671.5955 263.76,-654.876 250.6887,-640.1638"/>
<polygon fill="none" stroke="#404040" points="250.4013,-639.8374 243.4344,-637.9768 242.4722,-630.8302 249.4392,-632.6908 250.4013,-639.8374"/>
<text text-anchor="middle" x="365.5" y="-729" font-family="Helvetica,sans-Serif" font-size="10.00" fill="#000000"> +trackSeed</text>
<text text-anchor="middle" x="365.5" y="-718" font-family="Helvetica,sans-Serif" font-size="10.00" fill="#000000">+stepFiltering</text>
</g>
<!-- Node13 -->
<g id="node11" class="node">
<title>Node13</title>
<polygon fill="none" stroke="#bfbfbf" points="303,-573.5 303,-630.5 431,-630.5 431,-573.5 303,-573.5"/>
<text text-anchor="middle" x="367" y="-618.5" font-family="Helvetica,sans-Serif" font-size="10.00" fill="#000000">map&lt; int, std::string &gt;</text>
<polyline fill="none" stroke="#bfbfbf" points="303,-611.5 431,-611.5 "/>
<text text-anchor="middle" x="367" y="-599.5" font-family="Helvetica,sans-Serif" font-size="10.00" fill="#000000"> </text>
<polyline fill="none" stroke="#bfbfbf" points="303,-592.5 431,-592.5 "/>
<text text-anchor="middle" x="367" y="-580.5" font-family="Helvetica,sans-Serif" font-size="10.00" fill="#000000"> </text>
</g>
<!-- Node13&#45;&gt;Node4 -->
<g id="edge11" class="edge">
<title>Node13&#45;&gt;Node4</title>
<path fill="none" stroke="#404040" d="M361.645,-573.1035C358.1443,-552.7471 353.884,-524.8079 352,-500 350.5021,-480.2762 349.6872,-459.2949 349.3083,-438.9006"/>
<polygon fill="none" stroke="#404040" points="349.3046,-438.6348 345.2178,-432.6936 349.1301,-426.6361 353.2169,-432.5773 349.3046,-438.6348"/>
<text text-anchor="middle" x="405" y="-475.5" font-family="Helvetica,sans-Serif" font-size="10.00" fill="#000000"> #mModIdToName</text>
<text text-anchor="middle" x="405" y="-464.5" font-family="Helvetica,sans-Serif" font-size="10.00" fill="#000000">#mSensitiveVolumes</text>
</g>
<!-- Node14 -->
<g id="node12" class="node">
<title>Node14</title>
<polygon fill="none" stroke="#bfbfbf" points="472.5,-573.5 472.5,-630.5 533.5,-630.5 533.5,-573.5 472.5,-573.5"/>
<text text-anchor="middle" x="503" y="-618.5" font-family="Helvetica,sans-Serif" font-size="10.00" fill="#000000">unsigned</text>
<polyline fill="none" stroke="#bfbfbf" points="472.5,-611.5 533.5,-611.5 "/>
<text text-anchor="middle" x="503" y="-599.5" font-family="Helvetica,sans-Serif" font-size="10.00" fill="#000000"> </text>
<polyline fill="none" stroke="#bfbfbf" points="472.5,-592.5 533.5,-592.5 "/>
<text text-anchor="middle" x="503" y="-580.5" font-family="Helvetica,sans-Serif" font-size="10.00" fill="#000000"> </text>
</g>
<!-- Node14&#45;&gt;Node4 -->
<g id="edge12" class="edge">
<title>Node14&#45;&gt;Node4</title>
<path fill="none" stroke="#404040" d="M498.6292,-573.371C492.8056,-540.7757 480.5161,-486.6561 458,-445 454.0483,-437.6892 449.6043,-430.4315 444.8319,-423.31"/>
<polygon fill="none" stroke="#404040" points="444.4923,-422.8234 437.7781,-420.1929 437.6238,-412.9834 444.3381,-415.6139 444.4923,-422.8234"/>
<text text-anchor="middle" x="522" y="-470" font-family="Helvetica,sans-Serif" font-size="10.00" fill="#000000"> #mStepCounter</text>
</g>
<!-- Node18 -->
<g id="node16" class="node">
<title>Node18</title>
<g id="a_node16"><a xlink:href="../../d5/dbc/structo2_1_1data_1_1SubEventInfo.html" target="_top" xlink:title="{o2::data::SubEventInfo\n||+ ClassDefNV()\l}">
<polygon fill="none" stroke="#000000" points="591.5,-292.5 591.5,-349.5 718.5,-349.5 718.5,-292.5 591.5,-292.5"/>
<text text-anchor="middle" x="655" y="-337.5" font-family="Helvetica,sans-Serif" font-size="10.00" fill="#000000">o2::data::SubEventInfo</text>
<polyline fill="none" stroke="#000000" points="591.5,-330.5 718.5,-330.5 "/>
<text text-anchor="middle" x="655" y="-318.5" font-family="Helvetica,sans-Serif" font-size="10.00" fill="#000000"> </text>
<polyline fill="none" stroke="#000000" points="591.5,-311.5 718.5,-311.5 "/>
<text text-anchor="start" x="599.5" y="-299.5" font-family="Helvetica,sans-Serif" font-size="10.00" fill="#000000">+ ClassDefNV()</text>
</a>
</g>
</g>
<!-- Node14&#45;&gt;Node18 -->
<g id="edge24" class="edge">
<title>Node14&#45;&gt;Node18</title>
<path fill="none" stroke="#404040" d="M520.5122,-573.2345C532.7224,-552.9382 549.2277,-525.017 563,-500 589.0009,-452.7702 617.0812,-397.4454 635.2884,-360.9421"/>
<polygon fill="none" stroke="#404040" points="635.4933,-360.5301 634.5841,-353.3765 640.8378,-349.7859 641.7469,-356.9395 635.4933,-360.5301"/>
<text text-anchor="middle" x="615.5" y="-492" font-family="Helvetica,sans-Serif" font-size="10.00" fill="#000000"> +index</text>
<text text-anchor="middle" x="615.5" y="-481" font-family="Helvetica,sans-Serif" font-size="10.00" fill="#000000">+eventID</text>
<text text-anchor="middle" x="615.5" y="-470" font-family="Helvetica,sans-Serif" font-size="10.00" fill="#000000">+seed</text>
<text text-anchor="middle" x="615.5" y="-459" font-family="Helvetica,sans-Serif" font-size="10.00" fill="#000000">+part</text>
<text text-anchor="middle" x="615.5" y="-448" font-family="Helvetica,sans-Serif" font-size="10.00" fill="#000000">+nparts</text>
</g>
<!-- Node15 -->
<g id="node13" class="node">
<title>Node15</title>
<polygon fill="none" stroke="#bfbfbf" points="737,-292.5 737,-349.5 835,-349.5 835,-292.5 737,-292.5"/>
<text text-anchor="middle" x="786" y="-337.5" font-family="Helvetica,sans-Serif" font-size="10.00" fill="#000000">FairMQChannel *</text>
<polyline fill="none" stroke="#bfbfbf" points="737,-330.5 835,-330.5 "/>
<text text-anchor="middle" x="786" y="-318.5" font-family="Helvetica,sans-Serif" font-size="10.00" fill="#000000"> </text>
<polyline fill="none" stroke="#bfbfbf" points="737,-311.5 835,-311.5 "/>
<text text-anchor="middle" x="786" y="-299.5" font-family="Helvetica,sans-Serif" font-size="10.00" fill="#000000"> </text>
</g>
<!-- Node15&#45;&gt;Node3 -->
<g id="edge13" class="edge">
<title>Node15&#45;&gt;Node3</title>
<path fill="none" stroke="#404040" d="M785.7588,-292.4123C785.5229,-264.459 785.1503,-220.3125 784.8087,-179.832"/>
<polygon fill="none" stroke="#404040" points="784.8076,-179.6898 780.7571,-173.7238 784.7062,-167.6902 788.7568,-173.6562 784.8076,-179.6898"/>
<text text-anchor="middle" x="835.5" y="-189" font-family="Helvetica,sans-Serif" font-size="10.00" fill="#000000"> +mSimDataChannel</text>
</g>
<!-- Node16 -->
<g id="node14" class="node">
<title>Node16</title>
<polygon fill="none" stroke="#bfbfbf" points="854,-292.5 854,-349.5 966,-349.5 966,-292.5 854,-292.5"/>
<text text-anchor="middle" x="910" y="-337.5" font-family="Helvetica,sans-Serif" font-size="10.00" fill="#000000">vector&lt; TParticle &gt;</text>
<polyline fill="none" stroke="#bfbfbf" points="854,-330.5 966,-330.5 "/>
<text text-anchor="middle" x="910" y="-318.5" font-family="Helvetica,sans-Serif" font-size="10.00" fill="#000000"> </text>
<polyline fill="none" stroke="#bfbfbf" points="854,-311.5 966,-311.5 "/>
<text text-anchor="middle" x="910" y="-299.5" font-family="Helvetica,sans-Serif" font-size="10.00" fill="#000000"> </text>
</g>
<!-- Node16&#45;&gt;Node3 -->
<g id="edge14" class="edge">
<title>Node16&#45;&gt;Node3</title>
<path fill="none" stroke="#404040" d="M910.4104,-292.2477C909.6837,-263.7554 905.434,-219.625 888,-186 882.266,-174.9408 874.8882,-164.3611 866.7115,-154.4859"/>
<polygon fill="none" stroke="#404040" points="866.5388,-154.2877 859.5812,-152.3924 858.6547,-145.2411 865.6123,-147.1364 866.5388,-154.2877"/>
<text text-anchor="middle" x="926" y="-189" font-family="Helvetica,sans-Serif" font-size="10.00" fill="#000000"> +mPrimaries</text>
</g>
<!-- Node17 -->
<g id="node15" class="node">
<title>Node17</title>
<polygon fill="none" stroke="#bfbfbf" points="984.5,-292.5 984.5,-349.5 1151.5,-349.5 1151.5,-292.5 984.5,-292.5"/>
<text text-anchor="middle" x="1068" y="-337.5" font-family="Helvetica,sans-Serif" font-size="10.00" fill="#000000">vector&lt; o2::base::Detector * &gt;</text>
<polyline fill="none" stroke="#bfbfbf" points="984.5,-330.5 1151.5,-330.5 "/>
<text text-anchor="middle" x="1068" y="-318.5" font-family="Helvetica,sans-Serif" font-size="10.00" fill="#000000"> </text>
<polyline fill="none" stroke="#bfbfbf" points="984.5,-311.5 1151.5,-311.5 "/>
<text text-anchor="middle" x="1068" y="-299.5" font-family="Helvetica,sans-Serif" font-size="10.00" fill="#000000"> </text>
</g>
<!-- Node17&#45;&gt;Node3 -->
<g id="edge15" class="edge">
<title>Node17&#45;&gt;Node3</title>
<path fill="none" stroke="#404040" d="M1050.8704,-292.4715C1032.2254,-263.1364 1000.1919,-217.4219 964,-186 935.9773,-161.6706 901.2549,-140.3652 869.8051,-123.6058"/>
<polygon fill="none" stroke="#404040" points="869.4681,-123.4297 862.2976,-124.1946 858.8337,-117.8699 866.0042,-117.105 869.4681,-123.4297"/>
<text text-anchor="middle" x="1030.5" y="-189" font-family="Helvetica,sans-Serif" font-size="10.00" fill="#000000"> +mActiveO2Detectors</text>
</g>
<!-- Node18&#45;&gt;Node3 -->
<g id="edge16" class="edge">
<title>Node18&#45;&gt;Node3</title>
<path fill="none" stroke="#404040" d="M659.4641,-292.4539C664.7423,-264.12 675.273,-220.1087 694,-186 696.5955,-181.2727 699.4441,-176.5771 702.48,-171.9452"/>
<polygon fill="none" stroke="#404040" points="702.5833,-171.7955 702.6994,-164.5853 709.3997,-161.9193 709.2835,-169.1295 702.5833,-171.7955"/>
<text text-anchor="middle" x="737" y="-189" font-family="Helvetica,sans-Serif" font-size="10.00" fill="#000000"> +mSubEventInfo</text>
</g>
<!-- Node19 -->
<g id="node17" class="node">
<title>Node19</title>
<g id="a_node17"><a xlink:href="../../d4/db1/classo2_1_1dataformats_1_1MCEventHeader.html" target="_top" xlink:title="{o2::dataformats::MCEvent\lHeader\n||+ MCEventHeader()\l+ MCEventHeader()\l+ operator=()\l+ ~MCEventHeader()\l+ setEmbeddingFileName()\l+ setEmbeddingEventIndex()\l+ getEmbeddedIndex()\l+ Reset()\l+ getMCEventStats()\l# ClassDefOverride()\l}">
<polygon fill="none" stroke="#000000" points="575,-518.5 575,-685.5 735,-685.5 735,-518.5 575,-518.5"/>
<text text-anchor="start" x="583" y="-673.5" font-family="Helvetica,sans-Serif" font-size="10.00" fill="#000000">o2::dataformats::MCEvent</text>
<text text-anchor="middle" x="655" y="-662.5" font-family="Helvetica,sans-Serif" font-size="10.00" fill="#000000">Header</text>
<polyline fill="none" stroke="#000000" points="575,-655.5 735,-655.5 "/>
<text text-anchor="middle" x="655" y="-643.5" font-family="Helvetica,sans-Serif" font-size="10.00" fill="#000000"> </text>
<polyline fill="none" stroke="#000000" points="575,-636.5 735,-636.5 "/>
<text text-anchor="start" x="583" y="-624.5" font-family="Helvetica,sans-Serif" font-size="10.00" fill="#000000">+ MCEventHeader()</text>
<text text-anchor="start" x="583" y="-613.5" font-family="Helvetica,sans-Serif" font-size="10.00" fill="#000000">+ MCEventHeader()</text>
<text text-anchor="start" x="583" y="-602.5" font-family="Helvetica,sans-Serif" font-size="10.00" fill="#000000">+ operator=()</text>
<text text-anchor="start" x="583" y="-591.5" font-family="Helvetica,sans-Serif" font-size="10.00" fill="#000000">+ ~MCEventHeader()</text>
<text text-anchor="start" x="583" y="-580.5" font-family="Helvetica,sans-Serif" font-size="10.00" fill="#000000">+ setEmbeddingFileName()</text>
<text text-anchor="start" x="583" y="-569.5" font-family="Helvetica,sans-Serif" font-size="10.00" fill="#000000">+ setEmbeddingEventIndex()</text>
<text text-anchor="start" x="583" y="-558.5" font-family="Helvetica,sans-Serif" font-size="10.00" fill="#000000">+ getEmbeddedIndex()</text>
<text text-anchor="start" x="583" y="-547.5" font-family="Helvetica,sans-Serif" font-size="10.00" fill="#000000">+ Reset()</text>
<text text-anchor="start" x="583" y="-536.5" font-family="Helvetica,sans-Serif" font-size="10.00" fill="#000000">+ getMCEventStats()</text>
<text text-anchor="start" x="583" y="-525.5" font-family="Helvetica,sans-Serif" font-size="10.00" fill="#000000"># ClassDefOverride()</text>
</a>
</g>
</g>
<!-- Node19&#45;&gt;Node18 -->
<g id="edge17" class="edge">
<title>Node19&#45;&gt;Node18</title>
<path fill="none" stroke="#404040" d="M655,-518.4515C655,-466.8088 655,-402.8091 655,-361.9351"/>
<polygon fill="none" stroke="#404040" points="655.0001,-361.7769 651,-355.777 655,-349.7769 659,-355.7769 655.0001,-361.7769"/>
<text text-anchor="middle" x="705" y="-470" font-family="Helvetica,sans-Serif" font-size="10.00" fill="#000000"> +mMCEventHeader</text>
</g>
<!-- Node20 -->
<g id="node18" class="node">
<title>Node20</title>
<g id="a_node18"><a xlink:href="../../dd/d8f/classFairMCEventHeader.html" target="_top" xlink:title="{FairMCEventHeader\n||}">
<polygon fill="none" stroke="#000000" points="377,-816 377,-873 489,-873 489,-816 377,-816"/>
<text text-anchor="middle" x="433" y="-861" font-family="Helvetica,sans-Serif" font-size="10.00" fill="#000000">FairMCEventHeader</text>
<polyline fill="none" stroke="#000000" points="377,-854 489,-854 "/>
<text text-anchor="middle" x="433" y="-842" font-family="Helvetica,sans-Serif" font-size="10.00" fill="#000000"> </text>
<polyline fill="none" stroke="#000000" points="377,-835 489,-835 "/>
<text text-anchor="middle" x="433" y="-823" font-family="Helvetica,sans-Serif" font-size="10.00" fill="#000000"> </text>
</a>
</g>
</g>
<!-- Node20&#45;&gt;Node19 -->
<g id="edge18" class="edge">
<title>Node20&#45;&gt;Node19</title>
<path fill="none" stroke="#191970" d="M450.7556,-806.6976C465.9506,-776.7887 489.8055,-735.0373 518,-704 518.352,-703.6125 545.0863,-683.6934 574.8436,-661.561"/>
<polygon fill="none" stroke="#191970" points="447.4652,-805.4529 446.1319,-815.9635 453.7287,-808.5784 447.4652,-805.4529"/>
</g>
<!-- Node21 -->
<g id="node19" class="node">
<title>Node21</title>
<polygon fill="none" stroke="#bfbfbf" points="507.5,-816 507.5,-873 536.5,-873 536.5,-816 507.5,-816"/>
<text text-anchor="middle" x="522" y="-861" font-family="Helvetica,sans-Serif" font-size="10.00" fill="#000000">int</text>
<polyline fill="none" stroke="#bfbfbf" points="507.5,-854 536.5,-854 "/>
<text text-anchor="middle" x="522" y="-842" font-family="Helvetica,sans-Serif" font-size="10.00" fill="#000000"> </text>
<polyline fill="none" stroke="#bfbfbf" points="507.5,-835 536.5,-835 "/>
<text text-anchor="middle" x="522" y="-823" font-family="Helvetica,sans-Serif" font-size="10.00" fill="#000000"> </text>
</g>
<!-- Node21&#45;&gt;Node19 -->
<g id="edge19" class="edge">
<title>Node21&#45;&gt;Node19</title>
<path fill="none" stroke="#404040" d="M518.569,-815.8249C516.3549,-786.123 516.6998,-739.213 535,-704 542.7618,-689.0648 553.7295,-675.4145 565.9124,-663.2946"/>
<polygon fill="none" stroke="#404040" points="566.2441,-662.9815 567.861,-655.9539 574.9698,-654.7435 573.3529,-661.771 566.2441,-662.9815"/>
<text text-anchor="middle" x="596" y="-723.5" font-family="Helvetica,sans-Serif" font-size="10.00" fill="#000000"> #mEmbeddingFileName</text>
</g>
<!-- Node22 -->
<g id="node20" class="node">
<title>Node22</title>
<polygon fill="none" stroke="#bfbfbf" points="648,-816 648,-873 686,-873 686,-816 648,-816"/>
<text text-anchor="middle" x="667" y="-861" font-family="Helvetica,sans-Serif" font-size="10.00" fill="#000000">Int_t</text>
<polyline fill="none" stroke="#bfbfbf" points="648,-854 686,-854 "/>
<text text-anchor="middle" x="667" y="-842" font-family="Helvetica,sans-Serif" font-size="10.00" fill="#000000"> </text>
<polyline fill="none" stroke="#bfbfbf" points="648,-835 686,-835 "/>
<text text-anchor="middle" x="667" y="-823" font-family="Helvetica,sans-Serif" font-size="10.00" fill="#000000"> </text>
</g>
<!-- Node22&#45;&gt;Node19 -->
<g id="edge20" class="edge">
<title>Node22&#45;&gt;Node19</title>
<path fill="none" stroke="#404040" d="M665.5763,-815.7298C664.1352,-786.6064 661.8268,-739.9577 659.7338,-697.6615"/>
<polygon fill="none" stroke="#404040" points="659.7289,-697.5607 655.4372,-691.7658 659.1357,-685.5754 663.4274,-691.3704 659.7289,-697.5607"/>
<text text-anchor="middle" x="728.5" y="-723.5" font-family="Helvetica,sans-Serif" font-size="10.00" fill="#000000"> #mEmbeddingEventIndex</text>
</g>
<!-- Node23 -->
<g id="node21" class="node">
<title>Node23</title>
<g id="a_node21"><a xlink:href="../../d9/ddb/classo2_1_1dataformats_1_1MCEventStats.html" target="_top" xlink:title="{o2::dataformats::MCEvent\lStats\n||+ setNHits()\l+ getNHits()\l+ setNTransportedTracks()\l+ getNTransportedTracks()\l+ setNKeptTracks()\l+ getNKeptTracks()\l+ setNSteps()\l+ getNSteps()\l+ add()\l}">
<polygon fill="none" stroke="#000000" points="748,-766.5 748,-922.5 894,-922.5 894,-766.5 748,-766.5"/>
<text text-anchor="start" x="756" y="-910.5" font-family="Helvetica,sans-Serif" font-size="10.00" fill="#000000">o2::dataformats::MCEvent</text>
<text text-anchor="middle" x="821" y="-899.5" font-family="Helvetica,sans-Serif" font-size="10.00" fill="#000000">Stats</text>
<polyline fill="none" stroke="#000000" points="748,-892.5 894,-892.5 "/>
<text text-anchor="middle" x="821" y="-880.5" font-family="Helvetica,sans-Serif" font-size="10.00" fill="#000000"> </text>
<polyline fill="none" stroke="#000000" points="748,-873.5 894,-873.5 "/>
<text text-anchor="start" x="756" y="-861.5" font-family="Helvetica,sans-Serif" font-size="10.00" fill="#000000">+ setNHits()</text>
<text text-anchor="start" x="756" y="-850.5" font-family="Helvetica,sans-Serif" font-size="10.00" fill="#000000">+ getNHits()</text>
<text text-anchor="start" x="756" y="-839.5" font-family="Helvetica,sans-Serif" font-size="10.00" fill="#000000">+ setNTransportedTracks()</text>
<text text-anchor="start" x="756" y="-828.5" font-family="Helvetica,sans-Serif" font-size="10.00" fill="#000000">+ getNTransportedTracks()</text>
<text text-anchor="start" x="756" y="-817.5" font-family="Helvetica,sans-Serif" font-size="10.00" fill="#000000">+ setNKeptTracks()</text>
<text text-anchor="start" x="756" y="-806.5" font-family="Helvetica,sans-Serif" font-size="10.00" fill="#000000">+ getNKeptTracks()</text>
<text text-anchor="start" x="756" y="-795.5" font-family="Helvetica,sans-Serif" font-size="10.00" fill="#000000">+ setNSteps()</text>
<text text-anchor="start" x="756" y="-784.5" font-family="Helvetica,sans-Serif" font-size="10.00" fill="#000000">+ getNSteps()</text>
<text text-anchor="start" x="756" y="-773.5" font-family="Helvetica,sans-Serif" font-size="10.00" fill="#000000">+ add()</text>
</a>
</g>
</g>
<!-- Node23&#45;&gt;Node19 -->
<g id="edge21" class="edge">
<title>Node23&#45;&gt;Node19</title>
<path fill="none" stroke="#404040" d="M822.4338,-766.3085C819.2982,-744.1676 812.2677,-721.3881 798,-704 783.5474,-686.3866 769.5257,-697.7414 750,-686 748.4376,-685.0605 746.8768,-684.0938 745.3192,-683.1028"/>
<polygon fill="none" stroke="#404040" points="745.0622,-682.9301 737.8511,-682.9036 735.102,-676.2371 742.3131,-676.2635 745.0622,-682.9301"/>
<text text-anchor="middle" x="855" y="-723.5" font-family="Helvetica,sans-Serif" font-size="10.00" fill="#000000"> #mEventStats</text>
</g>
<!-- Node24 -->
<g id="node22" class="node">
<title>Node24</title>
<g id="a_node22"><a xlink:href="../../d4/dc3/classfloat.html" target="_top" xlink:title="{float\n||}">
<polygon fill="none" stroke="#000000" points="759,-573.5 759,-630.5 797,-630.5 797,-573.5 759,-573.5"/>
<text text-anchor="middle" x="778" y="-618.5" font-family="Helvetica,sans-Serif" font-size="10.00" fill="#000000">float</text>
<polyline fill="none" stroke="#000000" points="759,-611.5 797,-611.5 "/>
<text text-anchor="middle" x="778" y="-599.5" font-family="Helvetica,sans-Serif" font-size="10.00" fill="#000000"> </text>
<polyline fill="none" stroke="#000000" points="759,-592.5 797,-592.5 "/>
<text text-anchor="middle" x="778" y="-580.5" font-family="Helvetica,sans-Serif" font-size="10.00" fill="#000000"> </text>
</a>
</g>
</g>
<!-- Node24&#45;&gt;Node18 -->
<g id="edge22" class="edge">
<title>Node24&#45;&gt;Node18</title>
<path fill="none" stroke="#404040" d="M780.8086,-573.2035C782.6213,-539.7192 781.0006,-484.0611 756,-445 748.0249,-432.5396 738.6257,-437.2936 728,-427 707.8179,-407.4487 689.8486,-381.5275 676.7882,-360.2123"/>
<polygon fill="none" stroke="#404040" points="676.7558,-360.158 670.2448,-357.0584 670.6019,-349.8561 677.1128,-352.9557 676.7558,-360.158"/>
<text text-anchor="middle" x="806" y="-470" font-family="Helvetica,sans-Serif" font-size="10.00" fill="#000000"> +eventtime</text>
</g>
<!-- Node25 -->
<g id="node23" class="node">
<title>Node25</title>
<polygon fill="none" stroke="#bfbfbf" points="838,-573.5 838,-630.5 888,-630.5 888,-573.5 838,-573.5"/>
<text text-anchor="middle" x="863" y="-618.5" font-family="Helvetica,sans-Serif" font-size="10.00" fill="#000000">int32_t</text>
<polyline fill="none" stroke="#bfbfbf" points="838,-611.5 888,-611.5 "/>
<text text-anchor="middle" x="863" y="-599.5" font-family="Helvetica,sans-Serif" font-size="10.00" fill="#000000"> </text>
<polyline fill="none" stroke="#bfbfbf" points="838,-592.5 888,-592.5 "/>
<text text-anchor="middle" x="863" y="-580.5" font-family="Helvetica,sans-Serif" font-size="10.00" fill="#000000"> </text>
</g>
<!-- Node25&#45;&gt;Node18 -->
<g id="edge23" class="edge">
<title>Node25&#45;&gt;Node18</title>
<path fill="none" stroke="#404040" d="M868.1588,-573.2953C872.6919,-538.0448 874.1592,-478.7867 841,-445 805.3784,-408.7044 771.0107,-454.1358 728,-427 703.1523,-411.3234 684.5716,-383.7877 672.375,-360.7103"/>
<polygon fill="none" stroke="#404040" points="672.2867,-360.5346 666.0193,-356.9681 666.9009,-349.8111 673.1683,-353.3775 672.2867,-360.5346"/>
<text text-anchor="middle" x="913" y="-486.5" font-family="Helvetica,sans-Serif" font-size="10.00" fill="#000000"> +runID</text>
<text text-anchor="middle" x="913" y="-475.5" font-family="Helvetica,sans-Serif" font-size="10.00" fill="#000000">+maxEvents</text>
<text text-anchor="middle" x="913" y="-464.5" font-family="Helvetica,sans-Serif" font-size="10.00" fill="#000000">+npersistenttracks</text>
<text text-anchor="middle" x="913" y="-453.5" font-family="Helvetica,sans-Serif" font-size="10.00" fill="#000000">+nprimarytracks</text>
</g>
</g>
</svg>
