<?xml version="1.0" encoding="UTF-8" standalone="no"?>
<!DOCTYPE svg PUBLIC "-//W3C//DTD SVG 1.1//EN"
 "http://www.w3.org/Graphics/SVG/1.1/DTD/svg11.dtd">
<!-- Generated by graphviz version 2.40.1 (20161225.0304)
 -->
<!-- Title: o2::framework::HistogramSpec Pages: 1 -->
<svg width="441pt" height="375pt"
 viewBox="0.00 0.00 440.50 375.00" xmlns="http://www.w3.org/2000/svg" xmlns:xlink="http://www.w3.org/1999/xlink">
<g id="graph0" class="graph" transform="scale(1 1) rotate(0) translate(4 371)">
<title>o2::framework::HistogramSpec</title>
<!-- Node1 -->
<g id="node1" class="node">
<title>Node1</title>
<polygon fill="#bfbfbf" stroke="#000000" points="214,-.5 214,-90.5 382,-90.5 382,-.5 214,-.5"/>
<text text-anchor="middle" x="298" y="-78.5" font-family="Helvetica,sans-Serif" font-size="10.00" fill="#000000">o2::framework::HistogramSpec</text>
<polyline fill="none" stroke="#000000" points="214,-71.5 382,-71.5 "/>
<text text-anchor="middle" x="298" y="-59.5" font-family="Helvetica,sans-Serif" font-size="10.00" fill="#000000"> </text>
<polyline fill="none" stroke="#000000" points="214,-52.5 382,-52.5 "/>
<text text-anchor="start" x="222" y="-40.5" font-family="Helvetica,sans-Serif" font-size="10.00" fill="#000000">+ HistogramSpec()</text>
<text text-anchor="start" x="222" y="-29.5" font-family="Helvetica,sans-Serif" font-size="10.00" fill="#000000">+ HistogramSpec()</text>
<text text-anchor="start" x="222" y="-18.5" font-family="Helvetica,sans-Serif" font-size="10.00" fill="#000000">+ HistogramSpec()</text>
<text text-anchor="start" x="222" y="-7.5" font-family="Helvetica,sans-Serif" font-size="10.00" fill="#000000">+ HistogramSpec()</text>
</g>
<!-- Node2 -->
<g id="node2" class="node">
<title>Node2</title>
<g id="a_node2"><a xlink:href="../../d0/d70/structo2_1_1framework_1_1HistogramConfigSpec.html" target="_top" xlink:title="Data sctructure that will allow to construct a fully qualified TH* histogram. ">
<polygon fill="none" stroke="#000000" points="120.5,-149.5 120.5,-250.5 265.5,-250.5 265.5,-149.5 120.5,-149.5"/>
<text text-anchor="start" x="128.5" y="-238.5" font-family="Helvetica,sans-Serif" font-size="10.00" fill="#000000">o2::framework::Histogram</text>
<text text-anchor="middle" x="193" y="-227.5" font-family="Helvetica,sans-Serif" font-size="10.00" fill="#000000">ConfigSpec</text>
<polyline fill="none" stroke="#000000" points="120.5,-220.5 265.5,-220.5 "/>
<text text-anchor="middle" x="193" y="-208.5" font-family="Helvetica,sans-Serif" font-size="10.00" fill="#000000"> </text>
<polyline fill="none" stroke="#000000" points="120.5,-201.5 265.5,-201.5 "/>
<text text-anchor="start" x="128.5" y="-189.5" font-family="Helvetica,sans-Serif" font-size="10.00" fill="#000000">+ HistogramConfigSpec()</text>
<text text-anchor="start" x="128.5" y="-178.5" font-family="Helvetica,sans-Serif" font-size="10.00" fill="#000000">+ HistogramConfigSpec()</text>
<text text-anchor="start" x="128.5" y="-167.5" font-family="Helvetica,sans-Serif" font-size="10.00" fill="#000000">+ HistogramConfigSpec()</text>
<text text-anchor="start" x="128.5" y="-156.5" font-family="Helvetica,sans-Serif" font-size="10.00" fill="#000000">+ HistogramConfigSpec()</text>
</a>
</g>
</g>
<!-- Node2&#45;&gt;Node1 -->
<g id="edge1" class="edge">
<title>Node2&#45;&gt;Node1</title>
<path fill="none" stroke="#404040" d="M226.0232,-149.258C234.7115,-136.0897 244.1351,-121.9657 253,-109 254.8315,-106.3213 256.7154,-103.5863 258.6257,-100.8293"/>
<polygon fill="none" stroke="#404040" points="258.7484,-100.6532 258.8993,-93.4437 265.6123,-90.8101 265.4614,-98.0196 258.7484,-100.6532"/>
<text text-anchor="middle" x="273.5" y="-117.5" font-family="Helvetica,sans-Serif" font-size="10.00" fill="#000000"> +config</text>
</g>
<!-- Node3 -->
<g id="node3" class="node">
<title>Node3</title>
<polygon fill="none" stroke="#bfbfbf" points="0,-298.5 0,-366.5 130,-366.5 130,-298.5 0,-298.5"/>
<text text-anchor="start" x="8" y="-354.5" font-family="Helvetica,sans-Serif" font-size="10.00" fill="#000000">vector&lt; o2::framework</text>
<text text-anchor="middle" x="65" y="-343.5" font-family="Helvetica,sans-Serif" font-size="10.00" fill="#000000">::AxisSpec &gt;</text>
<polyline fill="none" stroke="#bfbfbf" points="0,-336.5 130,-336.5 "/>
<text text-anchor="middle" x="65" y="-324.5" font-family="Helvetica,sans-Serif" font-size="10.00" fill="#000000"> </text>
<polyline fill="none" stroke="#bfbfbf" points="0,-317.5 130,-317.5 "/>
<text text-anchor="middle" x="65" y="-305.5" font-family="Helvetica,sans-Serif" font-size="10.00" fill="#000000"> </text>
</g>
<!-- Node3&#45;&gt;Node2 -->
<g id="edge2" class="edge">
<title>Node3&#45;&gt;Node2</title>
<path fill="none" stroke="#404040" d="M97.9632,-298.378C109.5082,-286.4271 122.8311,-272.6358 135.7796,-259.232"/>
<polygon fill="none" stroke="#404040" points="135.8747,-259.1337 137.1665,-252.0392 144.2121,-250.5031 142.9203,-257.5975 135.8747,-259.1337"/>
<text text-anchor="middle" x="143.5" y="-272" font-family="Helvetica,sans-Serif" font-size="10.00" fill="#000000"> +axes</text>
</g>
<!-- Node4 -->
<g id="node4" class="node">
<title>Node4</title>
<polygon fill="none" stroke="#bfbfbf" points="148,-304 148,-361 238,-361 238,-304 148,-304"/>
<text text-anchor="middle" x="193" y="-349" font-family="Helvetica,sans-Serif" font-size="10.00" fill="#000000">HistogramType</text>
<polyline fill="none" stroke="#bfbfbf" points="148,-342 238,-342 "/>
<text text-anchor="middle" x="193" y="-330" font-family="Helvetica,sans-Serif" font-size="10.00" fill="#000000"> </text>
<polyline fill="none" stroke="#bfbfbf" points="148,-323 238,-323 "/>
<text text-anchor="middle" x="193" y="-311" font-family="Helvetica,sans-Serif" font-size="10.00" fill="#000000"> </text>
</g>
<!-- Node4&#45;&gt;Node2 -->
<g id="edge3" class="edge">
<title>Node4&#45;&gt;Node2</title>
<path fill="none" stroke="#404040" d="M193,-303.7495C193,-291.7404 193,-277.2802 193,-263.0201"/>
<polygon fill="none" stroke="#404040" points="193.0001,-262.6065 189,-256.6065 193,-250.6065 197,-256.6065 193.0001,-262.6065"/>
<text text-anchor="middle" x="210" y="-272" font-family="Helvetica,sans-Serif" font-size="10.00" fill="#000000"> +type</text>
</g>
<!-- Node5 -->
<g id="node5" class="node">
<title>Node5</title>
<polygon fill="none" stroke="#bfbfbf" points="256,-304 256,-361 294,-361 294,-304 256,-304"/>
<text text-anchor="middle" x="275" y="-349" font-family="Helvetica,sans-Serif" font-size="10.00" fill="#000000">bool</text>
<polyline fill="none" stroke="#bfbfbf" points="256,-342 294,-342 "/>
<text text-anchor="middle" x="275" y="-330" font-family="Helvetica,sans-Serif" font-size="10.00" fill="#000000"> </text>
<polyline fill="none" stroke="#bfbfbf" points="256,-323 294,-323 "/>
<text text-anchor="middle" x="275" y="-311" font-family="Helvetica,sans-Serif" font-size="10.00" fill="#000000"> </text>
</g>
<!-- Node5&#45;&gt;Node2 -->
<g id="edge4" class="edge">
<title>Node5&#45;&gt;Node2</title>
<path fill="none" stroke="#404040" d="M257.2072,-303.7495C249.3999,-291.1339 239.9185,-275.8134 230.6651,-260.8613"/>
<polygon fill="none" stroke="#404040" points="230.6337,-260.8105 224.0749,-257.8135 224.3187,-250.6065 230.8776,-253.6035 230.6337,-260.8105"/>
<text text-anchor="middle" x="270.5" y="-272" font-family="Helvetica,sans-Serif" font-size="10.00" fill="#000000"> +binsEqual</text>
</g>
<!-- Node6 -->
<g id="node6" class="node">
<title>Node6</title>
<polygon fill="none" stroke="#bfbfbf" points="283.5,-171.5 283.5,-228.5 312.5,-228.5 312.5,-171.5 283.5,-171.5"/>
<text text-anchor="middle" x="298" y="-216.5" font-family="Helvetica,sans-Serif" font-size="10.00" fill="#000000">int</text>
<polyline fill="none" stroke="#bfbfbf" points="283.5,-209.5 312.5,-209.5 "/>
<text text-anchor="middle" x="298" y="-197.5" font-family="Helvetica,sans-Serif" font-size="10.00" fill="#000000"> </text>
<polyline fill="none" stroke="#bfbfbf" points="283.5,-190.5 312.5,-190.5 "/>
<text text-anchor="middle" x="298" y="-178.5" font-family="Helvetica,sans-Serif" font-size="10.00" fill="#000000"> </text>
</g>
<!-- Node6&#45;&gt;Node1 -->
<g id="edge5" class="edge">
<title>Node6&#45;&gt;Node1</title>
<path fill="none" stroke="#404040" d="M298,-171.3018C298,-152.1432 298,-126.2842 298,-102.9937"/>
<polygon fill="none" stroke="#404040" points="298.0001,-102.7388 294,-96.7388 298,-90.7388 302,-96.7388 298.0001,-102.7388"/>
<text text-anchor="middle" x="338.5" y="-123" font-family="Helvetica,sans-Serif" font-size="10.00" fill="#000000"> +name</text>
<text text-anchor="middle" x="338.5" y="-112" font-family="Helvetica,sans-Serif" font-size="10.00" fill="#000000">+readableName</text>
</g>
<!-- Node7 -->
<g id="node7" class="node">
<title>Node7</title>
<polygon fill="none" stroke="#bfbfbf" points="371.5,-171.5 371.5,-228.5 432.5,-228.5 432.5,-171.5 371.5,-171.5"/>
<text text-anchor="middle" x="402" y="-216.5" font-family="Helvetica,sans-Serif" font-size="10.00" fill="#000000">unsigned</text>
<polyline fill="none" stroke="#bfbfbf" points="371.5,-209.5 432.5,-209.5 "/>
<text text-anchor="middle" x="402" y="-197.5" font-family="Helvetica,sans-Serif" font-size="10.00" fill="#000000"> </text>
<polyline fill="none" stroke="#bfbfbf" points="371.5,-190.5 432.5,-190.5 "/>
<text text-anchor="middle" x="402" y="-178.5" font-family="Helvetica,sans-Serif" font-size="10.00" fill="#000000"> </text>
</g>
<!-- Node7&#45;&gt;Node1 -->
<g id="edge6" class="edge">
<title>Node7&#45;&gt;Node1</title>
<path fill="none" stroke="#404040" d="M400.0028,-171.4081C397.551,-152.4398 392.1013,-127.6924 380,-109 377.962,-105.8519 375.7127,-102.7957 373.3002,-99.8373"/>
<polygon fill="none" stroke="#404040" points="373.1284,-99.6465 366.1409,-97.8646 365.0982,-90.7292 372.0857,-92.5111 373.1284,-99.6465"/>
<text text-anchor="middle" x="400.5" y="-117.5" font-family="Helvetica,sans-Serif" font-size="10.00" fill="#000000"> +id</text>
</g>
</g>
</svg>
