<?xml version="1.0" encoding="UTF-8" standalone="no"?>
<!DOCTYPE svg PUBLIC "-//W3C//DTD SVG 1.1//EN"
 "http://www.w3.org/Graphics/SVG/1.1/DTD/svg11.dtd">
<!-- Generated by graphviz version 2.40.1 (20161225.0304)
 -->
<!-- Title: TrackQATask Pages: 1 -->
<svg width="1493pt" height="1069pt"
 viewBox="0.00 0.00 1493.00 1069.00" xmlns="http://www.w3.org/2000/svg" xmlns:xlink="http://www.w3.org/1999/xlink">
<g id="graph0" class="graph" transform="scale(1 1) rotate(0) translate(4 1065)">
<title>TrackQATask</title>
<!-- Node1 -->
<g id="node1" class="node">
<title>Node1</title>
<polygon fill="#bfbfbf" stroke="#000000" points="513.5,-.5 513.5,-200.5 636.5,-200.5 636.5,-.5 513.5,-.5"/>
<text text-anchor="middle" x="575" y="-188.5" font-family="Helvetica,sans-Serif" font-size="10.00" fill="#000000">TrackQATask</text>
<polyline fill="none" stroke="#000000" points="513.5,-181.5 636.5,-181.5 "/>
<text text-anchor="start" x="521.5" y="-169.5" font-family="Helvetica,sans-Serif" font-size="10.00" fill="#000000">+ x</text>
<text text-anchor="start" x="521.5" y="-158.5" font-family="Helvetica,sans-Serif" font-size="10.00" fill="#000000">+ y</text>
<text text-anchor="start" x="521.5" y="-147.5" font-family="Helvetica,sans-Serif" font-size="10.00" fill="#000000">+ z</text>
<text text-anchor="start" x="521.5" y="-136.5" font-family="Helvetica,sans-Serif" font-size="10.00" fill="#000000">+ signed1Pt</text>
<text text-anchor="start" x="521.5" y="-125.5" font-family="Helvetica,sans-Serif" font-size="10.00" fill="#000000">+ tgl</text>
<text text-anchor="start" x="521.5" y="-114.5" font-family="Helvetica,sans-Serif" font-size="10.00" fill="#000000">+ dcaz</text>
<text text-anchor="start" x="521.5" y="-103.5" font-family="Helvetica,sans-Serif" font-size="10.00" fill="#000000">+ pt</text>
<text text-anchor="start" x="521.5" y="-92.5" font-family="Helvetica,sans-Serif" font-size="10.00" fill="#000000">+ itsChi2PerCluster</text>
<text text-anchor="start" x="521.5" y="-81.5" font-family="Helvetica,sans-Serif" font-size="10.00" fill="#000000">+ itsHits</text>
<text text-anchor="start" x="521.5" y="-70.5" font-family="Helvetica,sans-Serif" font-size="10.00" fill="#000000">+ tpcFindableClusters</text>
<text text-anchor="start" x="521.5" y="-59.5" font-family="Helvetica,sans-Serif" font-size="10.00" fill="#000000">+ tpcFoundClusters</text>
<text text-anchor="start" x="521.5" y="-48.5" font-family="Helvetica,sans-Serif" font-size="10.00" fill="#000000">+ tpcCrossedRows</text>
<text text-anchor="start" x="521.5" y="-37.5" font-family="Helvetica,sans-Serif" font-size="10.00" fill="#000000">+ tpcChi2PerCluster</text>
<polyline fill="none" stroke="#000000" points="513.5,-30.5 636.5,-30.5 "/>
<text text-anchor="start" x="521.5" y="-18.5" font-family="Helvetica,sans-Serif" font-size="10.00" fill="#000000">+ init()</text>
<text text-anchor="start" x="521.5" y="-7.5" font-family="Helvetica,sans-Serif" font-size="10.00" fill="#000000">+ process()</text>
</g>
<!-- Node2 -->
<g id="node2" class="node">
<title>Node2</title>
<g id="a_node2"><a xlink:href="../../d8/d71/structo2_1_1framework_1_1Configurable.html" target="_top" xlink:title="{o2::framework::Configurable\l\&lt; int \&gt;\n||+ Configurable()\l+ operator int()\l+ operator&#45;\&gt;()\l}">
<polygon fill="none" stroke="#000000" points="103.5,-628.5 103.5,-718.5 258.5,-718.5 258.5,-628.5 103.5,-628.5"/>
<text text-anchor="start" x="111.5" y="-706.5" font-family="Helvetica,sans-Serif" font-size="10.00" fill="#000000">o2::framework::Configurable</text>
<text text-anchor="middle" x="181" y="-695.5" font-family="Helvetica,sans-Serif" font-size="10.00" fill="#000000">&lt; int &gt;</text>
<polyline fill="none" stroke="#000000" points="103.5,-688.5 258.5,-688.5 "/>
<text text-anchor="middle" x="181" y="-676.5" font-family="Helvetica,sans-Serif" font-size="10.00" fill="#000000"> </text>
<polyline fill="none" stroke="#000000" points="103.5,-669.5 258.5,-669.5 "/>
<text text-anchor="start" x="111.5" y="-657.5" font-family="Helvetica,sans-Serif" font-size="10.00" fill="#000000">+ Configurable()</text>
<text text-anchor="start" x="111.5" y="-646.5" font-family="Helvetica,sans-Serif" font-size="10.00" fill="#000000">+ operator int()</text>
<text text-anchor="start" x="111.5" y="-635.5" font-family="Helvetica,sans-Serif" font-size="10.00" fill="#000000">+ operator&#45;&gt;()</text>
</a>
</g>
</g>
<!-- Node2&#45;&gt;Node1 -->
<g id="edge1" class="edge">
<title>Node2&#45;&gt;Node1</title>
<path fill="none" stroke="#404040" d="M212.2458,-628.0587C275.5546,-535.9878 420.265,-325.5334 506.5571,-200.0376"/>
<polygon fill="none" stroke="#404040" points="506.6373,-199.9208 506.7409,-192.7104 513.4364,-190.0328 513.3329,-197.2432 506.6373,-199.9208"/>
<text text-anchor="middle" x="420" y="-461.5" font-family="Helvetica,sans-Serif" font-size="10.00" fill="#000000"> +selectedTracks</text>
</g>
<!-- Node3 -->
<g id="node3" class="node">
<title>Node3</title>
<polygon fill="none" stroke="#bfbfbf" points="537.5,-987 537.5,-1044 566.5,-1044 566.5,-987 537.5,-987"/>
<text text-anchor="middle" x="552" y="-1032" font-family="Helvetica,sans-Serif" font-size="10.00" fill="#000000">int</text>
<polyline fill="none" stroke="#bfbfbf" points="537.5,-1025 566.5,-1025 "/>
<text text-anchor="middle" x="552" y="-1013" font-family="Helvetica,sans-Serif" font-size="10.00" fill="#000000"> </text>
<polyline fill="none" stroke="#bfbfbf" points="537.5,-1006 566.5,-1006 "/>
<text text-anchor="middle" x="552" y="-994" font-family="Helvetica,sans-Serif" font-size="10.00" fill="#000000"> </text>
</g>
<!-- Node3&#45;&gt;Node2 -->
<g id="edge2" class="edge">
<title>Node3&#45;&gt;Node2</title>
<path fill="none" stroke="#404040" d="M537.3368,-1015.0409C494.0616,-1013.1095 364.2145,-1003.132 273,-952 251.3415,-939.8589 245.8101,-933.8407 234,-912 203.1531,-854.9542 190.2474,-780.9765 184.8554,-730.6397"/>
<polygon fill="none" stroke="#404040" points="184.8549,-730.6347 180.2815,-725.0594 183.669,-718.6935 188.2424,-724.2688 184.8549,-730.6347"/>
<text text-anchor="middle" x="253.5" y="-864" font-family="Helvetica,sans-Serif" font-size="10.00" fill="#000000"> +value</text>
<text text-anchor="middle" x="253.5" y="-853" font-family="Helvetica,sans-Serif" font-size="10.00" fill="#000000">+name</text>
<text text-anchor="middle" x="253.5" y="-842" font-family="Helvetica,sans-Serif" font-size="10.00" fill="#000000">+help</text>
</g>
<!-- Node4 -->
<g id="node4" class="node">
<title>Node4</title>
<g id="a_node4"><a xlink:href="../../d8/d71/structo2_1_1framework_1_1Configurable.html" target="_top" xlink:title="{o2::framework::Configurable\&lt; T \&gt;\n||+ Configurable()\l+ operator T()\l+ operator&#45;\&gt;()\l}">
<polygon fill="none" stroke="#000000" points="0,-816 0,-895 184,-895 184,-816 0,-816"/>
<text text-anchor="middle" x="92" y="-883" font-family="Helvetica,sans-Serif" font-size="10.00" fill="#000000">o2::framework::Configurable&lt; T &gt;</text>
<polyline fill="none" stroke="#000000" points="0,-876 184,-876 "/>
<text text-anchor="middle" x="92" y="-864" font-family="Helvetica,sans-Serif" font-size="10.00" fill="#000000"> </text>
<polyline fill="none" stroke="#000000" points="0,-857 184,-857 "/>
<text text-anchor="start" x="8" y="-845" font-family="Helvetica,sans-Serif" font-size="10.00" fill="#000000">+ Configurable()</text>
<text text-anchor="start" x="8" y="-834" font-family="Helvetica,sans-Serif" font-size="10.00" fill="#000000">+ operator T()</text>
<text text-anchor="start" x="8" y="-823" font-family="Helvetica,sans-Serif" font-size="10.00" fill="#000000">+ operator&#45;&gt;()</text>
</a>
</g>
</g>
<!-- Node3&#45;&gt;Node4 -->
<g id="edge4" class="edge">
<title>Node3&#45;&gt;Node4</title>
<path fill="none" stroke="#404040" d="M537.2296,-1014.5174C474.5487,-1010.1319 230.811,-990.8343 166,-952 147.2277,-940.7518 131.5252,-922.7914 119.4843,-905.3986"/>
<polygon fill="none" stroke="#404040" points="119.4206,-905.3017 112.7804,-902.4895 112.8223,-895.2785 119.4625,-898.0907 119.4206,-905.3017"/>
<text text-anchor="middle" x="186" y="-944" font-family="Helvetica,sans-Serif" font-size="10.00" fill="#000000"> +name</text>
<text text-anchor="middle" x="186" y="-933" font-family="Helvetica,sans-Serif" font-size="10.00" fill="#000000">+help</text>
</g>
<!-- Node6 -->
<g id="node6" class="node">
<title>Node6</title>
<g id="a_node6"><a xlink:href="../../d4/d79/structo2_1_1framework_1_1OutputObj.html" target="_top" xlink:title="{o2::framework::OutputObj\l\&lt; TH2F \&gt;\n||+ spec()\l+ OutputObj()\l+ OutputObj()\l+ setObject()\l+ setObject()\l+ setObject()\l+ setHash()\l+ operator&#45;\&gt;()\l+ operator*()\l+ ref()\l}">
<polygon fill="none" stroke="#000000" points="503.5,-380.5 503.5,-547.5 646.5,-547.5 646.5,-380.5 503.5,-380.5"/>
<text text-anchor="start" x="511.5" y="-535.5" font-family="Helvetica,sans-Serif" font-size="10.00" fill="#000000">o2::framework::OutputObj</text>
<text text-anchor="middle" x="575" y="-524.5" font-family="Helvetica,sans-Serif" font-size="10.00" fill="#000000">&lt; TH2F &gt;</text>
<polyline fill="none" stroke="#000000" points="503.5,-517.5 646.5,-517.5 "/>
<text text-anchor="middle" x="575" y="-505.5" font-family="Helvetica,sans-Serif" font-size="10.00" fill="#000000"> </text>
<polyline fill="none" stroke="#000000" points="503.5,-498.5 646.5,-498.5 "/>
<text text-anchor="start" x="511.5" y="-486.5" font-family="Helvetica,sans-Serif" font-size="10.00" fill="#000000">+ spec()</text>
<text text-anchor="start" x="511.5" y="-475.5" font-family="Helvetica,sans-Serif" font-size="10.00" fill="#000000">+ OutputObj()</text>
<text text-anchor="start" x="511.5" y="-464.5" font-family="Helvetica,sans-Serif" font-size="10.00" fill="#000000">+ OutputObj()</text>
<text text-anchor="start" x="511.5" y="-453.5" font-family="Helvetica,sans-Serif" font-size="10.00" fill="#000000">+ setObject()</text>
<text text-anchor="start" x="511.5" y="-442.5" font-family="Helvetica,sans-Serif" font-size="10.00" fill="#000000">+ setObject()</text>
<text text-anchor="start" x="511.5" y="-431.5" font-family="Helvetica,sans-Serif" font-size="10.00" fill="#000000">+ setObject()</text>
<text text-anchor="start" x="511.5" y="-420.5" font-family="Helvetica,sans-Serif" font-size="10.00" fill="#000000">+ setHash()</text>
<text text-anchor="start" x="511.5" y="-409.5" font-family="Helvetica,sans-Serif" font-size="10.00" fill="#000000">+ operator&#45;&gt;()</text>
<text text-anchor="start" x="511.5" y="-398.5" font-family="Helvetica,sans-Serif" font-size="10.00" fill="#000000">+ operator*()</text>
<text text-anchor="start" x="511.5" y="-387.5" font-family="Helvetica,sans-Serif" font-size="10.00" fill="#000000">+ ref()</text>
</a>
</g>
</g>
<!-- Node3&#45;&gt;Node6 -->
<g id="edge8" class="edge">
<title>Node3&#45;&gt;Node6</title>
<path fill="none" stroke="#404040" d="M537.3967,-1004.9235C474.0458,-957.7007 230.0001,-761.1677 316,-595 348.1116,-532.9546 401.9309,-575.8557 466,-548 475.2124,-543.9947 484.339,-539.0391 493.1595,-533.5533"/>
<polygon fill="none" stroke="#404040" points="493.3114,-533.4542 496.1495,-526.8251 503.3603,-526.8952 500.5222,-533.5244 493.3114,-533.4542"/>
<text text-anchor="middle" x="346" y="-773" font-family="Helvetica,sans-Serif" font-size="10.00" fill="#000000"> +label</text>
</g>
<!-- Node9 -->
<g id="node9" class="node">
<title>Node9</title>
<g id="a_node9"><a xlink:href="../../da/d96/structo2_1_1framework_1_1InputSpec.html" target="_top" xlink:title="{o2::framework::InputSpec\n||+ InputSpec()\l+ InputSpec()\l+ InputSpec()\l+ InputSpec()\l+ InputSpec()\l+ operator==()\l}">
<polygon fill="none" stroke="#000000" points="833,-799.5 833,-911.5 975,-911.5 975,-799.5 833,-799.5"/>
<text text-anchor="middle" x="904" y="-899.5" font-family="Helvetica,sans-Serif" font-size="10.00" fill="#000000">o2::framework::InputSpec</text>
<polyline fill="none" stroke="#000000" points="833,-892.5 975,-892.5 "/>
<text text-anchor="middle" x="904" y="-880.5" font-family="Helvetica,sans-Serif" font-size="10.00" fill="#000000"> </text>
<polyline fill="none" stroke="#000000" points="833,-873.5 975,-873.5 "/>
<text text-anchor="start" x="841" y="-861.5" font-family="Helvetica,sans-Serif" font-size="10.00" fill="#000000">+ InputSpec()</text>
<text text-anchor="start" x="841" y="-850.5" font-family="Helvetica,sans-Serif" font-size="10.00" fill="#000000">+ InputSpec()</text>
<text text-anchor="start" x="841" y="-839.5" font-family="Helvetica,sans-Serif" font-size="10.00" fill="#000000">+ InputSpec()</text>
<text text-anchor="start" x="841" y="-828.5" font-family="Helvetica,sans-Serif" font-size="10.00" fill="#000000">+ InputSpec()</text>
<text text-anchor="start" x="841" y="-817.5" font-family="Helvetica,sans-Serif" font-size="10.00" fill="#000000">+ InputSpec()</text>
<text text-anchor="start" x="841" y="-806.5" font-family="Helvetica,sans-Serif" font-size="10.00" fill="#000000">+ operator==()</text>
</a>
</g>
</g>
<!-- Node3&#45;&gt;Node9 -->
<g id="edge13" class="edge">
<title>Node3&#45;&gt;Node9</title>
<path fill="none" stroke="#404040" d="M566.7566,-1010.6287C607.0378,-997.12 721.8832,-957.1878 812,-912 815.3275,-910.3315 818.6924,-908.5818 822.0688,-906.7736"/>
<polygon fill="none" stroke="#404040" points="822.3498,-906.6188 825.6744,-900.2198 832.8598,-900.8275 829.5353,-907.2265 822.3498,-906.6188"/>
<text text-anchor="middle" x="794" y="-938.5" font-family="Helvetica,sans-Serif" font-size="10.00" fill="#000000"> +binding</text>
</g>
<!-- Node14 -->
<g id="node14" class="node">
<title>Node14</title>
<g id="a_node14"><a xlink:href="../../d4/d79/structo2_1_1framework_1_1OutputObj.html" target="_top" xlink:title="{o2::framework::OutputObj\&lt; T \&gt;\n||+ OutputObj()\l+ OutputObj()\l+ setObject()\l+ setObject()\l+ setObject()\l+ setHash()\l+ spec()\l+ operator&#45;\&gt;()\l+ operator*()\l+ ref()\l}">
<polygon fill="none" stroke="#000000" points="993,-595.5 993,-751.5 1165,-751.5 1165,-595.5 993,-595.5"/>
<text text-anchor="middle" x="1079" y="-739.5" font-family="Helvetica,sans-Serif" font-size="10.00" fill="#000000">o2::framework::OutputObj&lt; T &gt;</text>
<polyline fill="none" stroke="#000000" points="993,-732.5 1165,-732.5 "/>
<text text-anchor="middle" x="1079" y="-720.5" font-family="Helvetica,sans-Serif" font-size="10.00" fill="#000000"> </text>
<polyline fill="none" stroke="#000000" points="993,-713.5 1165,-713.5 "/>
<text text-anchor="start" x="1001" y="-701.5" font-family="Helvetica,sans-Serif" font-size="10.00" fill="#000000">+ OutputObj()</text>
<text text-anchor="start" x="1001" y="-690.5" font-family="Helvetica,sans-Serif" font-size="10.00" fill="#000000">+ OutputObj()</text>
<text text-anchor="start" x="1001" y="-679.5" font-family="Helvetica,sans-Serif" font-size="10.00" fill="#000000">+ setObject()</text>
<text text-anchor="start" x="1001" y="-668.5" font-family="Helvetica,sans-Serif" font-size="10.00" fill="#000000">+ setObject()</text>
<text text-anchor="start" x="1001" y="-657.5" font-family="Helvetica,sans-Serif" font-size="10.00" fill="#000000">+ setObject()</text>
<text text-anchor="start" x="1001" y="-646.5" font-family="Helvetica,sans-Serif" font-size="10.00" fill="#000000">+ setHash()</text>
<text text-anchor="start" x="1001" y="-635.5" font-family="Helvetica,sans-Serif" font-size="10.00" fill="#000000">+ spec()</text>
<text text-anchor="start" x="1001" y="-624.5" font-family="Helvetica,sans-Serif" font-size="10.00" fill="#000000">+ operator&#45;&gt;()</text>
<text text-anchor="start" x="1001" y="-613.5" font-family="Helvetica,sans-Serif" font-size="10.00" fill="#000000">+ operator*()</text>
<text text-anchor="start" x="1001" y="-602.5" font-family="Helvetica,sans-Serif" font-size="10.00" fill="#000000">+ ref()</text>
</a>
</g>
</g>
<!-- Node3&#45;&gt;Node14 -->
<g id="edge18" class="edge">
<title>Node3&#45;&gt;Node14</title>
<path fill="none" stroke="#404040" d="M566.7251,-1013.2724C638.9821,-1002.3313 952.7488,-954.7027 957,-952 997.5615,-926.2134 1017.5403,-804.5444 1022,-799 1031.7456,-786.8839 1042.7362,-793.4884 1052,-781 1056.0483,-775.5425 1059.4936,-769.5451 1062.425,-763.2607"/>
<polygon fill="none" stroke="#404040" points="1062.6151,-762.7969 1061.1894,-755.7281 1067.1661,-751.6934 1068.5918,-758.7621 1062.6151,-762.7969"/>
<text text-anchor="middle" x="1040" y="-853" font-family="Helvetica,sans-Serif" font-size="10.00" fill="#000000"> +label</text>
</g>
<!-- Node16 -->
<g id="node16" class="node">
<title>Node16</title>
<g id="a_node16"><a xlink:href="../../d4/d79/structo2_1_1framework_1_1OutputObj.html" target="_top" xlink:title="{o2::framework::OutputObj\l\&lt; TH1F \&gt;\n||+ spec()\l+ OutputObj()\l+ OutputObj()\l+ setObject()\l+ setObject()\l+ setObject()\l+ setHash()\l+ operator&#45;\&gt;()\l+ operator*()\l+ ref()\l}">
<polygon fill="none" stroke="#000000" points="933.5,-380.5 933.5,-547.5 1076.5,-547.5 1076.5,-380.5 933.5,-380.5"/>
<text text-anchor="start" x="941.5" y="-535.5" font-family="Helvetica,sans-Serif" font-size="10.00" fill="#000000">o2::framework::OutputObj</text>
<text text-anchor="middle" x="1005" y="-524.5" font-family="Helvetica,sans-Serif" font-size="10.00" fill="#000000">&lt; TH1F &gt;</text>
<polyline fill="none" stroke="#000000" points="933.5,-517.5 1076.5,-517.5 "/>
<text text-anchor="middle" x="1005" y="-505.5" font-family="Helvetica,sans-Serif" font-size="10.00" fill="#000000"> </text>
<polyline fill="none" stroke="#000000" points="933.5,-498.5 1076.5,-498.5 "/>
<text text-anchor="start" x="941.5" y="-486.5" font-family="Helvetica,sans-Serif" font-size="10.00" fill="#000000">+ spec()</text>
<text text-anchor="start" x="941.5" y="-475.5" font-family="Helvetica,sans-Serif" font-size="10.00" fill="#000000">+ OutputObj()</text>
<text text-anchor="start" x="941.5" y="-464.5" font-family="Helvetica,sans-Serif" font-size="10.00" fill="#000000">+ OutputObj()</text>
<text text-anchor="start" x="941.5" y="-453.5" font-family="Helvetica,sans-Serif" font-size="10.00" fill="#000000">+ setObject()</text>
<text text-anchor="start" x="941.5" y="-442.5" font-family="Helvetica,sans-Serif" font-size="10.00" fill="#000000">+ setObject()</text>
<text text-anchor="start" x="941.5" y="-431.5" font-family="Helvetica,sans-Serif" font-size="10.00" fill="#000000">+ setObject()</text>
<text text-anchor="start" x="941.5" y="-420.5" font-family="Helvetica,sans-Serif" font-size="10.00" fill="#000000">+ setHash()</text>
<text text-anchor="start" x="941.5" y="-409.5" font-family="Helvetica,sans-Serif" font-size="10.00" fill="#000000">+ operator&#45;&gt;()</text>
<text text-anchor="start" x="941.5" y="-398.5" font-family="Helvetica,sans-Serif" font-size="10.00" fill="#000000">+ operator*()</text>
<text text-anchor="start" x="941.5" y="-387.5" font-family="Helvetica,sans-Serif" font-size="10.00" fill="#000000">+ ref()</text>
</a>
</g>
</g>
<!-- Node3&#45;&gt;Node16 -->
<g id="edge25" class="edge">
<title>Node3&#45;&gt;Node16</title>
<path fill="none" stroke="#404040" d="M566.532,-1012.9697C609.6464,-1005.5299 740.6524,-983.4088 850,-970 1134.1024,-935.1617 1362.292,-1022.4565 1456,-752 1478.8443,-686.0676 1496.497,-651.8237 1456,-595 1413.3388,-535.1397 1207.0422,-494.6158 1088.7789,-475.8854"/>
<polygon fill="none" stroke="#404040" points="1088.7722,-475.8844 1082.2268,-478.9107 1076.9159,-474.0328 1083.4612,-471.0065 1088.7722,-475.8844"/>
<text text-anchor="middle" x="1467" y="-773" font-family="Helvetica,sans-Serif" font-size="10.00" fill="#000000"> +label</text>
</g>
<!-- Node4&#45;&gt;Node2 -->
<g id="edge3" class="edge">
<title>Node4&#45;&gt;Node2</title>
<path fill="none" stroke="#ffa500" d="M115.9283,-806.568C129.2797,-779.2652 145.7989,-745.4844 158.8521,-718.7912"/>
<polygon fill="#ffa500" stroke="#ffa500" points="112.7803,-805.0383 111.5314,-815.5593 119.0687,-808.1135 112.7803,-805.0383"/>
<text text-anchor="middle" x="151.5" y="-773" font-family="Helvetica,sans-Serif" font-size="10.00" fill="#000000"> &lt; int &gt;</text>
</g>
<!-- Node5 -->
<g id="node5" class="node">
<title>Node5</title>
<polygon fill="none" stroke="#bfbfbf" points="77.5,-987 77.5,-1044 106.5,-1044 106.5,-987 77.5,-987"/>
<text text-anchor="middle" x="92" y="-1032" font-family="Helvetica,sans-Serif" font-size="10.00" fill="#000000">T</text>
<polyline fill="none" stroke="#bfbfbf" points="77.5,-1025 106.5,-1025 "/>
<text text-anchor="middle" x="92" y="-1013" font-family="Helvetica,sans-Serif" font-size="10.00" fill="#000000"> </text>
<polyline fill="none" stroke="#bfbfbf" points="77.5,-1006 106.5,-1006 "/>
<text text-anchor="middle" x="92" y="-994" font-family="Helvetica,sans-Serif" font-size="10.00" fill="#000000"> </text>
</g>
<!-- Node5&#45;&gt;Node4 -->
<g id="edge5" class="edge">
<title>Node5&#45;&gt;Node4</title>
<path fill="none" stroke="#404040" d="M92,-986.8952C92,-964.8577 92,-933.7968 92,-907.4075"/>
<polygon fill="none" stroke="#404040" points="92.0001,-907.2754 88,-901.2755 92,-895.2754 96,-901.2754 92.0001,-907.2754"/>
<text text-anchor="middle" x="111.5" y="-938.5" font-family="Helvetica,sans-Serif" font-size="10.00" fill="#000000"> +value</text>
</g>
<!-- Node6&#45;&gt;Node1 -->
<g id="edge6" class="edge">
<title>Node6&#45;&gt;Node1</title>
<path fill="none" stroke="#404040" d="M575,-380.1493C575,-330.4431 575,-266.8123 575,-212.8085"/>
<polygon fill="none" stroke="#404040" points="575.0001,-212.7309 571,-206.731 575,-200.7309 579,-206.7309 575.0001,-212.7309"/>
<text text-anchor="middle" x="610" y="-288" font-family="Helvetica,sans-Serif" font-size="10.00" fill="#000000"> +collisionPos</text>
</g>
<!-- Node7 -->
<g id="node7" class="node">
<title>Node7</title>
<polygon fill="none" stroke="#bfbfbf" points="1181.5,-827 1181.5,-884 1320.5,-884 1320.5,-827 1181.5,-827"/>
<text text-anchor="middle" x="1251" y="-872" font-family="Helvetica,sans-Serif" font-size="10.00" fill="#000000">OutputObjHandlingPolicy</text>
<polyline fill="none" stroke="#bfbfbf" points="1181.5,-865 1320.5,-865 "/>
<text text-anchor="middle" x="1251" y="-853" font-family="Helvetica,sans-Serif" font-size="10.00" fill="#000000"> </text>
<polyline fill="none" stroke="#bfbfbf" points="1181.5,-846 1320.5,-846 "/>
<text text-anchor="middle" x="1251" y="-834" font-family="Helvetica,sans-Serif" font-size="10.00" fill="#000000"> </text>
</g>
<!-- Node7&#45;&gt;Node6 -->
<g id="edge7" class="edge">
<title>Node7&#45;&gt;Node6</title>
<path fill="none" stroke="#404040" d="M1238.9657,-826.5606C1228.5376,-801.229 1214.4449,-766.3039 1210,-752 1188.7561,-683.636 1226.9388,-643.1915 1174,-595 1151.4562,-574.4778 1067.9629,-582.6223 1038,-577 903.9997,-551.856 750.6801,-512.2645 658.4277,-487.2413"/>
<polygon fill="none" stroke="#404040" points="658.2342,-487.1887 651.3943,-489.4726 646.6554,-484.0372 653.4953,-481.7534 658.2342,-487.1887"/>
<text text-anchor="middle" x="1230.5" y="-671" font-family="Helvetica,sans-Serif" font-size="10.00" fill="#000000"> +policy</text>
</g>
<!-- Node7&#45;&gt;Node14 -->
<g id="edge17" class="edge">
<title>Node7&#45;&gt;Node14</title>
<path fill="none" stroke="#404040" d="M1220.9498,-826.937C1206.7909,-813.2533 1189.799,-796.5034 1175,-781 1168.683,-774.3824 1162.2123,-767.4622 1155.7605,-760.4609"/>
<polygon fill="none" stroke="#404040" points="1155.7176,-760.4141 1148.7151,-758.6921 1147.6113,-751.5659 1154.6138,-753.2879 1155.7176,-760.4141"/>
<text text-anchor="middle" x="1195.5" y="-773" font-family="Helvetica,sans-Serif" font-size="10.00" fill="#000000"> +policy</text>
</g>
<!-- Node7&#45;&gt;Node16 -->
<g id="edge24" class="edge">
<title>Node7&#45;&gt;Node16</title>
<path fill="none" stroke="#404040" d="M1309.0166,-826.9977C1337.5035,-809.6136 1369.06,-784.4529 1385,-752 1415.7624,-689.3693 1425.5098,-651.8146 1385,-595 1350.0604,-545.9975 1189.6908,-503.5573 1088.7781,-481.0826"/>
<polygon fill="none" stroke="#404040" points="1088.4984,-481.0211 1081.7788,-483.6379 1076.7789,-478.4416 1083.4985,-475.8249 1088.4984,-481.0211"/>
<text text-anchor="middle" x="1431.5" y="-671" font-family="Helvetica,sans-Serif" font-size="10.00" fill="#000000"> +policy</text>
</g>
<!-- Node8 -->
<g id="node8" class="node">
<title>Node8</title>
<polygon fill="none" stroke="#bfbfbf" points="765,-827 765,-884 803,-884 803,-827 765,-827"/>
<text text-anchor="middle" x="784" y="-872" font-family="Helvetica,sans-Serif" font-size="10.00" fill="#000000">bool</text>
<polyline fill="none" stroke="#bfbfbf" points="765,-865 803,-865 "/>
<text text-anchor="middle" x="784" y="-853" font-family="Helvetica,sans-Serif" font-size="10.00" fill="#000000"> </text>
<polyline fill="none" stroke="#bfbfbf" points="765,-846 803,-846 "/>
<text text-anchor="middle" x="784" y="-834" font-family="Helvetica,sans-Serif" font-size="10.00" fill="#000000"> </text>
</g>
<!-- Node8&#45;&gt;Node6 -->
<g id="edge9" class="edge">
<title>Node8&#45;&gt;Node6</title>
<path fill="none" stroke="#404040" d="M775.9576,-826.7917C771.6629,-816.5003 765.2842,-805.7775 756,-799 643.4472,-716.8359 536.8519,-857.6645 446,-752 400.5078,-699.0907 419.5453,-659.5685 446,-595 456.5941,-569.1427 475.0284,-545.6506 494.7016,-525.9298"/>
<polygon fill="none" stroke="#404040" points="494.8685,-525.7685 496.4015,-518.7222 503.4954,-517.4272 501.9624,-524.4735 494.8685,-525.7685"/>
<text text-anchor="middle" x="477" y="-671" font-family="Helvetica,sans-Serif" font-size="10.00" fill="#000000"> +isdangling</text>
</g>
<!-- Node8&#45;&gt;Node14 -->
<g id="edge20" class="edge">
<title>Node8&#45;&gt;Node14</title>
<path fill="none" stroke="#404040" d="M798.624,-826.8257C805.1204,-816.6648 813.6606,-806.0232 824,-799 851.9992,-779.981 865.5772,-790.718 898,-781 934.6278,-770.0216 945.5292,-770.4885 979,-752 980.1592,-751.3597 981.319,-750.7063 982.4787,-750.0407"/>
<polygon fill="none" stroke="#404040" points="982.6243,-749.9528 985.6923,-743.4269 992.8963,-743.749 989.8282,-750.2749 982.6243,-749.9528"/>
<text text-anchor="middle" x="967" y="-773" font-family="Helvetica,sans-Serif" font-size="10.00" fill="#000000"> +isdangling</text>
</g>
<!-- Node8&#45;&gt;Node16 -->
<g id="edge26" class="edge">
<title>Node8&#45;&gt;Node16</title>
<path fill="none" stroke="#404040" d="M776.3408,-826.8085C773.3018,-809.324 772.4724,-787.1274 782,-770 789.3744,-756.7433 802.0336,-764.2363 811,-752 853.5612,-693.9179 812.8915,-656.0961 851,-595 869.5301,-565.2923 897.0009,-538.8465 923.6317,-517.631"/>
<polygon fill="none" stroke="#404040" points="923.9092,-517.4155 926.1946,-510.5761 933.3869,-510.0551 931.1015,-516.8945 923.9092,-517.4155"/>
<text text-anchor="middle" x="882" y="-671" font-family="Helvetica,sans-Serif" font-size="10.00" fill="#000000"> +isdangling</text>
</g>
<!-- Node9&#45;&gt;Node6 -->
<g id="edge10" class="edge">
<title>Node9&#45;&gt;Node6</title>
<path fill="none" stroke="#404040" d="M832.7681,-809.6941C825.8563,-805.878 818.8625,-802.2454 812,-799 754.1867,-771.6595 718.4406,-799.84 676,-752 628.6199,-698.592 666.0123,-662.2361 642,-595 637.7244,-583.0279 632.5791,-570.76 627.064,-558.7637"/>
<polygon fill="none" stroke="#404040" points="627.0301,-558.6919 620.8522,-554.9725 621.9093,-547.8393 628.0873,-551.5587 627.0301,-558.6919"/>
<text text-anchor="middle" x="693" y="-671" font-family="Helvetica,sans-Serif" font-size="10.00" fill="#000000"> +spec</text>
</g>
<!-- Node9&#45;&gt;Node14 -->
<g id="edge21" class="edge">
<title>Node9&#45;&gt;Node14</title>
<path fill="none" stroke="#404040" d="M975.2316,-807.6684C985.7025,-799.3255 995.9837,-790.3156 1005,-781 1010.9584,-774.8438 1016.771,-768.161 1022.351,-761.2413"/>
<polygon fill="none" stroke="#404040" points="1022.4251,-761.1462 1022.9629,-753.9552 1029.8076,-751.6858 1029.2699,-758.8768 1022.4251,-761.1462"/>
<text text-anchor="middle" x="1031" y="-773" font-family="Helvetica,sans-Serif" font-size="10.00" fill="#000000"> +spec</text>
</g>
<!-- Node9&#45;&gt;Node16 -->
<g id="edge27" class="edge">
<title>Node9&#45;&gt;Node16</title>
<path fill="none" stroke="#404040" d="M910.2516,-799.281C917.0393,-745.9532 929.7137,-663.9509 950,-595 953.4821,-583.1646 957.703,-570.9535 962.2411,-558.9653"/>
<polygon fill="none" stroke="#404040" points="962.3272,-558.7437 960.7731,-551.702 966.6754,-547.5592 968.2295,-554.6009 962.3272,-558.7437"/>
<text text-anchor="middle" x="967" y="-671" font-family="Helvetica,sans-Serif" font-size="10.00" fill="#000000"> +spec</text>
</g>
<!-- Node10 -->
<g id="node10" class="node">
<title>Node10</title>
<polygon fill="none" stroke="#bfbfbf" points="859,-987 859,-1044 947,-1044 947,-987 859,-987"/>
<text text-anchor="middle" x="903" y="-1032" font-family="Helvetica,sans-Serif" font-size="10.00" fill="#000000">enum Lifetime</text>
<polyline fill="none" stroke="#bfbfbf" points="859,-1025 947,-1025 "/>
<text text-anchor="middle" x="903" y="-1013" font-family="Helvetica,sans-Serif" font-size="10.00" fill="#000000"> </text>
<polyline fill="none" stroke="#bfbfbf" points="859,-1006 947,-1006 "/>
<text text-anchor="middle" x="903" y="-994" font-family="Helvetica,sans-Serif" font-size="10.00" fill="#000000"> </text>
</g>
<!-- Node10&#45;&gt;Node9 -->
<g id="edge11" class="edge">
<title>Node10&#45;&gt;Node9</title>
<path fill="none" stroke="#404040" d="M903.1788,-986.8952C903.2887,-969.3 903.4347,-945.9527 903.573,-923.8235"/>
<polygon fill="none" stroke="#404040" points="903.5737,-923.6989 899.6113,-917.6739 903.6488,-911.6991 907.6111,-917.724 903.5737,-923.6989"/>
<text text-anchor="middle" x="928" y="-938.5" font-family="Helvetica,sans-Serif" font-size="10.00" fill="#000000"> +lifetime</text>
</g>
<!-- Node11 -->
<g id="node11" class="node">
<title>Node11</title>
<polygon fill="none" stroke="#bfbfbf" points="965,-970.5 965,-1060.5 1129,-1060.5 1129,-970.5 965,-970.5"/>
<text text-anchor="start" x="973" y="-1048.5" font-family="Helvetica,sans-Serif" font-size="10.00" fill="#000000">variant&lt; o2::framework</text>
<text text-anchor="start" x="973" y="-1037.5" font-family="Helvetica,sans-Serif" font-size="10.00" fill="#000000">::ConcreteDataMatcher,</text>
<text text-anchor="start" x="973" y="-1026.5" font-family="Helvetica,sans-Serif" font-size="10.00" fill="#000000"> o2::framework::data_matcher</text>
<text text-anchor="middle" x="1047" y="-1015.5" font-family="Helvetica,sans-Serif" font-size="10.00" fill="#000000">::DataDescriptorMatcher &gt;</text>
<polyline fill="none" stroke="#bfbfbf" points="965,-1008.5 1129,-1008.5 "/>
<text text-anchor="middle" x="1047" y="-996.5" font-family="Helvetica,sans-Serif" font-size="10.00" fill="#000000"> </text>
<polyline fill="none" stroke="#bfbfbf" points="965,-989.5 1129,-989.5 "/>
<text text-anchor="middle" x="1047" y="-977.5" font-family="Helvetica,sans-Serif" font-size="10.00" fill="#000000"> </text>
</g>
<!-- Node11&#45;&gt;Node9 -->
<g id="edge12" class="edge">
<title>Node11&#45;&gt;Node9</title>
<path fill="none" stroke="#404040" d="M1006.4044,-970.0784C992.6794,-954.7217 977.073,-937.2599 962.2533,-920.6785"/>
<polygon fill="none" stroke="#404040" points="962.1147,-920.5234 955.1339,-918.7153 954.118,-911.5761 961.0988,-913.3842 962.1147,-920.5234"/>
<text text-anchor="middle" x="1014" y="-938.5" font-family="Helvetica,sans-Serif" font-size="10.00" fill="#000000"> +matcher</text>
</g>
<!-- Node12 -->
<g id="node12" class="node">
<title>Node12</title>
<polygon fill="none" stroke="#bfbfbf" points="517,-645 517,-702 633,-702 633,-645 517,-645"/>
<text text-anchor="middle" x="575" y="-690" font-family="Helvetica,sans-Serif" font-size="10.00" fill="#000000">shared_ptr&lt; TH2F &gt;</text>
<polyline fill="none" stroke="#bfbfbf" points="517,-683 633,-683 "/>
<text text-anchor="middle" x="575" y="-671" font-family="Helvetica,sans-Serif" font-size="10.00" fill="#000000"> </text>
<polyline fill="none" stroke="#bfbfbf" points="517,-664 633,-664 "/>
<text text-anchor="middle" x="575" y="-652" font-family="Helvetica,sans-Serif" font-size="10.00" fill="#000000"> </text>
</g>
<!-- Node12&#45;&gt;Node6 -->
<g id="edge14" class="edge">
<title>Node12&#45;&gt;Node6</title>
<path fill="none" stroke="#404040" d="M575,-644.8092C575,-622.7475 575,-590.9197 575,-560.0979"/>
<polygon fill="none" stroke="#404040" points="575.0001,-559.9021 571,-553.9021 575,-547.9021 579,-553.9021 575.0001,-559.9021"/>
<text text-anchor="middle" x="596" y="-569" font-family="Helvetica,sans-Serif" font-size="10.00" fill="#000000"> +object</text>
</g>
<!-- Node13 -->
<g id="node13" class="node">
<title>Node13</title>
<polygon fill="none" stroke="#bfbfbf" points="685.5,-827 685.5,-884 746.5,-884 746.5,-827 685.5,-827"/>
<text text-anchor="middle" x="716" y="-872" font-family="Helvetica,sans-Serif" font-size="10.00" fill="#000000">unsigned</text>
<polyline fill="none" stroke="#bfbfbf" points="685.5,-865 746.5,-865 "/>
<text text-anchor="middle" x="716" y="-853" font-family="Helvetica,sans-Serif" font-size="10.00" fill="#000000"> </text>
<polyline fill="none" stroke="#bfbfbf" points="685.5,-846 746.5,-846 "/>
<text text-anchor="middle" x="716" y="-834" font-family="Helvetica,sans-Serif" font-size="10.00" fill="#000000"> </text>
</g>
<!-- Node13&#45;&gt;Node6 -->
<g id="edge15" class="edge">
<title>Node13&#45;&gt;Node6</title>
<path fill="none" stroke="#404040" d="M685.2073,-851.847C603.7389,-841.4602 386.1084,-808.7818 347,-752 307.4201,-694.5337 312.0479,-655.3928 347,-595 378.0388,-541.369 440.2598,-507.7823 491.8709,-488.0614"/>
<polygon fill="none" stroke="#404040" points="492.1203,-487.9696 496.3681,-482.1423 503.3808,-483.8221 499.133,-489.6494 492.1203,-487.9696"/>
<text text-anchor="middle" x="381" y="-671" font-family="Helvetica,sans-Serif" font-size="10.00" fill="#000000"> +mTaskHash</text>
</g>
<!-- Node13&#45;&gt;Node14 -->
<g id="edge22" class="edge">
<title>Node13&#45;&gt;Node14</title>
<path fill="none" stroke="#404040" d="M731.8016,-826.7733C738.2867,-816.9656 746.5139,-806.5736 756,-799 835.1555,-735.8038 885.3682,-790.6322 979,-752 980.0265,-751.5765 981.0513,-751.1392 982.0741,-750.6891"/>
<polygon fill="none" stroke="#404040" points="982.1486,-750.6528 985.793,-744.4304 992.9385,-745.4012 989.2941,-751.6237 982.1486,-750.6528"/>
<text text-anchor="middle" x="842" y="-773" font-family="Helvetica,sans-Serif" font-size="10.00" fill="#000000"> +mTaskHash</text>
</g>
<!-- Node13&#45;&gt;Node16 -->
<g id="edge28" class="edge">
<title>Node13&#45;&gt;Node16</title>
<path fill="none" stroke="#404040" d="M715.0848,-826.702C713.7303,-766.9509 713.6617,-631.9874 739,-595 781.0899,-533.5594 860.5623,-499.7247 921.7218,-481.9166"/>
<polygon fill="none" stroke="#404040" points="921.749,-481.909 926.4467,-476.438 933.3037,-478.67 928.606,-484.1411 921.749,-481.909"/>
<text text-anchor="middle" x="773" y="-671" font-family="Helvetica,sans-Serif" font-size="10.00" fill="#000000"> +mTaskHash</text>
</g>
<!-- Node14&#45;&gt;Node6 -->
<g id="edge16" class="edge">
<title>Node14&#45;&gt;Node6</title>
<path fill="none" stroke="#ffa500" d="M983.7774,-597.2073C982.189,-596.442 980.5961,-595.7053 979,-595 934.891,-575.5083 918.539,-589.6354 872,-577 793.0701,-555.5704 705.9556,-521.0651 646.6057,-495.815"/>
<polygon fill="#ffa500" stroke="#ffa500" points="982.3261,-600.3971 992.8157,-601.8862 985.5442,-594.1807 982.3261,-600.3971"/>
<text text-anchor="middle" x="897.5" y="-569" font-family="Helvetica,sans-Serif" font-size="10.00" fill="#000000"> &lt; TH2F &gt;</text>
</g>
<!-- Node14&#45;&gt;Node16 -->
<g id="edge30" class="edge">
<title>Node14&#45;&gt;Node16</title>
<path fill="none" stroke="#ffa500" d="M1048.0571,-585.8983C1043.59,-573.2514 1039.0017,-560.2616 1034.5625,-547.6937"/>
<polygon fill="#ffa500" stroke="#ffa500" points="1044.8143,-587.2266 1051.4451,-595.4899 1051.4147,-584.8951 1044.8143,-587.2266"/>
<text text-anchor="middle" x="1069.5" y="-569" font-family="Helvetica,sans-Serif" font-size="10.00" fill="#000000"> &lt; TH1F &gt;</text>
</g>
<!-- Node15 -->
<g id="node15" class="node">
<title>Node15</title>
<polygon fill="none" stroke="#bfbfbf" points="1066.5,-827 1066.5,-884 1163.5,-884 1163.5,-827 1066.5,-827"/>
<text text-anchor="middle" x="1115" y="-872" font-family="Helvetica,sans-Serif" font-size="10.00" fill="#000000">shared_ptr&lt; T &gt;</text>
<polyline fill="none" stroke="#bfbfbf" points="1066.5,-865 1163.5,-865 "/>
<text text-anchor="middle" x="1115" y="-853" font-family="Helvetica,sans-Serif" font-size="10.00" fill="#000000"> </text>
<polyline fill="none" stroke="#bfbfbf" points="1066.5,-846 1163.5,-846 "/>
<text text-anchor="middle" x="1115" y="-834" font-family="Helvetica,sans-Serif" font-size="10.00" fill="#000000"> </text>
</g>
<!-- Node15&#45;&gt;Node14 -->
<g id="edge19" class="edge">
<title>Node15&#45;&gt;Node14</title>
<path fill="none" stroke="#404040" d="M1109.2957,-826.6616C1105.8853,-809.42 1101.3468,-786.4756 1096.8233,-763.6065"/>
<polygon fill="none" stroke="#404040" points="1096.7937,-763.4568 1091.7055,-758.347 1094.4651,-751.6849 1099.5534,-756.7946 1096.7937,-763.4568"/>
<text text-anchor="middle" x="1121" y="-773" font-family="Helvetica,sans-Serif" font-size="10.00" fill="#000000"> +object</text>
</g>
<!-- Node16&#45;&gt;Node1 -->
<g id="edge23" class="edge">
<title>Node16&#45;&gt;Node1</title>
<path fill="none" stroke="#404040" d="M933.0277,-403.1583C853.3066,-335.7661 725.57,-227.7842 646.172,-160.6651"/>
<polygon fill="none" stroke="#404040" points="645.8997,-160.435 638.7352,-159.6162 636.7354,-152.6879 643.8999,-153.5067 645.8997,-160.435"/>
<text text-anchor="middle" x="933" y="-354" font-family="Helvetica,sans-Serif" font-size="10.00" fill="#000000"> +tpcSharedClusters</text>
<text text-anchor="middle" x="933" y="-343" font-family="Helvetica,sans-Serif" font-size="10.00" fill="#000000">+alpha</text>
<text text-anchor="middle" x="933" y="-332" font-family="Helvetica,sans-Serif" font-size="10.00" fill="#000000">+phi</text>
<text text-anchor="middle" x="933" y="-321" font-family="Helvetica,sans-Serif" font-size="10.00" fill="#000000">+itsFoundClusters</text>
<text text-anchor="start" x="877" y="-310" font-family="Helvetica,sans-Serif" font-size="10.00" fill="#000000">+tpcCrossedRowsOver</text>
<text text-anchor="middle" x="933" y="-299" font-family="Helvetica,sans-Serif" font-size="10.00" fill="#000000">FindableClusters</text>
<text text-anchor="middle" x="933" y="-288" font-family="Helvetica,sans-Serif" font-size="10.00" fill="#000000">+flag</text>
<text text-anchor="middle" x="933" y="-277" font-family="Helvetica,sans-Serif" font-size="10.00" fill="#000000">+eta</text>
<text text-anchor="middle" x="933" y="-266" font-family="Helvetica,sans-Serif" font-size="10.00" fill="#000000">+dcaxy</text>
<text text-anchor="middle" x="933" y="-255" font-family="Helvetica,sans-Serif" font-size="10.00" fill="#000000">+snp</text>
<text text-anchor="start" x="877" y="-244" font-family="Helvetica,sans-Serif" font-size="10.00" fill="#000000">+tpcFractionShared</text>
<text text-anchor="middle" x="933" y="-233" font-family="Helvetica,sans-Serif" font-size="10.00" fill="#000000">Clusters</text>
<text text-anchor="middle" x="933" y="-222" font-family="Helvetica,sans-Serif" font-size="10.00" fill="#000000">...</text>
</g>
<!-- Node17 -->
<g id="node17" class="node">
<title>Node17</title>
<polygon fill="none" stroke="#bfbfbf" points="1260,-645 1260,-702 1376,-702 1376,-645 1260,-645"/>
<text text-anchor="middle" x="1318" y="-690" font-family="Helvetica,sans-Serif" font-size="10.00" fill="#000000">shared_ptr&lt; TH1F &gt;</text>
<polyline fill="none" stroke="#bfbfbf" points="1260,-683 1376,-683 "/>
<text text-anchor="middle" x="1318" y="-671" font-family="Helvetica,sans-Serif" font-size="10.00" fill="#000000"> </text>
<polyline fill="none" stroke="#bfbfbf" points="1260,-664 1376,-664 "/>
<text text-anchor="middle" x="1318" y="-652" font-family="Helvetica,sans-Serif" font-size="10.00" fill="#000000"> </text>
</g>
<!-- Node17&#45;&gt;Node16 -->
<g id="edge29" class="edge">
<title>Node17&#45;&gt;Node16</title>
<path fill="none" stroke="#404040" d="M1295.6762,-644.8047C1282.3716,-628.8919 1264.5071,-609.4594 1246,-595 1197.3464,-556.9876 1136.1598,-523.8776 1087.6139,-500.4542"/>
<polygon fill="none" stroke="#404040" points="1087.3427,-500.3249 1080.2052,-501.3524 1076.5115,-495.1591 1083.6491,-494.1316 1087.3427,-500.3249"/>
<text text-anchor="middle" x="1236" y="-569" font-family="Helvetica,sans-Serif" font-size="10.00" fill="#000000"> +object</text>
</g>
</g>
</svg>
