<?xml version="1.0" encoding="UTF-8" standalone="no"?>
<!DOCTYPE svg PUBLIC "-//W3C//DTD SVG 1.1//EN"
 "http://www.w3.org/Graphics/SVG/1.1/DTD/svg11.dtd">
<!-- Generated by graphviz version 2.40.1 (20161225.0304)
 -->
<!-- Title: o2::header::BaseHeader Pages: 1 -->
<!--zoomable 887 -->
<svg id="main" version="1.1" xmlns="http://www.w3.org/2000/svg" xmlns:xlink="http://www.w3.org/1999/xlink" xml:space="preserve" onload="init(evt)">
<style type="text/css"><![CDATA[
.edge:hover path { stroke: red; }
.edge:hover polygon { stroke: red; fill: red; }
]]></style>
<script type="text/javascript"><![CDATA[
var edges = document.getElementsByTagName('g');
if (edges && edges.length) {
  for (var i=0;i<edges.length;i++) {
    if (edges[i].id.substr(0,4)=='edge') {
      edges[i].setAttribute('class','edge');
    }
  }
}
]]></script>
        <defs>
                <circle id="rim" cx="0" cy="0" r="7"/>
                <circle id="rim2" cx="0" cy="0" r="3.5"/>
                <g id="zoomPlus">
                        <use xlink:href="#rim" fill="#404040">
                                <set attributeName="fill" to="#808080" begin="zoomplus.mouseover" end="zoomplus.mouseout"/>
                        </use>
                        <path d="M-4,0h8M0,-4v8" fill="none" stroke="white" stroke-width="1.5" pointer-events="none"/>
                </g>
                <g id="zoomMin">
                        <use xlink:href="#rim" fill="#404040">
                                <set attributeName="fill" to="#808080" begin="zoomminus.mouseover" end="zoomminus.mouseout"/>
                        </use>
                        <path d="M-4,0h8" fill="none" stroke="white" stroke-width="1.5" pointer-events="none"/>
                </g>
                <g id="dirArrow">
                        <path fill="none" stroke="white" stroke-width="1.5" d="M0,-3.0v7 M-2.5,-0.5L0,-3.0L2.5,-0.5"/>
                </g>
               <g id="resetDef">
                       <use xlink:href="#rim2" fill="#404040">
                               <set attributeName="fill" to="#808080" begin="reset.mouseover" end="reset.mouseout"/>
                       </use>
               </g>
        </defs>

<script type="text/javascript">
var viewWidth = 1001;
var viewHeight = 887;
var sectionId = 'dynsection-1';
</script>
<script xlink:href="../../svgpan.js"/>
<svg id="graph" class="graph">
<g id="viewport">
<title>o2::header::BaseHeader</title>
<!-- Node14 -->
<g id="node1" class="node">
<title>Node14</title>
<polygon fill="#bfbfbf" stroke="#000000" points="491.8478,-.5 491.8478,-167.5 664.8478,-167.5 664.8478,-.5 491.8478,-.5"/>
<text text-anchor="middle" x="578.3478" y="-155.5" font-family="Helvetica,sans-Serif" font-size="10.00" fill="#000000">o2::header::BaseHeader</text>
<polyline fill="none" stroke="#000000" points="491.8478,-148.5 664.8478,-148.5 "/>
<text text-anchor="middle" x="578.3478" y="-136.5" font-family="Helvetica,sans-Serif" font-size="10.00" fill="#000000"> </text>
<polyline fill="none" stroke="#000000" points="491.8478,-129.5 664.8478,-129.5 "/>
<text text-anchor="start" x="499.8478" y="-117.5" font-family="Helvetica,sans-Serif" font-size="10.00" fill="#000000">+ BaseHeader()</text>
<text text-anchor="start" x="499.8478" y="-106.5" font-family="Helvetica,sans-Serif" font-size="10.00" fill="#000000">+ BaseHeader()</text>
<text text-anchor="start" x="499.8478" y="-95.5" font-family="Helvetica,sans-Serif" font-size="10.00" fill="#000000">+ BaseHeader()</text>
<text text-anchor="start" x="499.8478" y="-84.5" font-family="Helvetica,sans-Serif" font-size="10.00" fill="#000000">+ size()</text>
<text text-anchor="start" x="499.8478" y="-73.5" font-family="Helvetica,sans-Serif" font-size="10.00" fill="#000000">+ data()</text>
<text text-anchor="start" x="499.8478" y="-62.5" font-family="Helvetica,sans-Serif" font-size="10.00" fill="#000000">+ next()</text>
<text text-anchor="start" x="499.8478" y="-51.5" font-family="Helvetica,sans-Serif" font-size="10.00" fill="#000000">+ next()</text>
<text text-anchor="start" x="499.8478" y="-40.5" font-family="Helvetica,sans-Serif" font-size="10.00" fill="#000000">+ sanityCheck()</text>
<text text-anchor="start" x="499.8478" y="-29.5" font-family="Helvetica,sans-Serif" font-size="10.00" fill="#000000">+ throwInconsistentStackError()</text>
<text text-anchor="start" x="499.8478" y="-18.5" font-family="Helvetica,sans-Serif" font-size="10.00" fill="#000000">+ get()</text>
<text text-anchor="start" x="499.8478" y="-7.5" font-family="Helvetica,sans-Serif" font-size="10.00" fill="#000000">+ get()</text>
</g>
<!-- Node15 -->
<g id="node2" class="node">
<title>Node15</title>
<g id="a_node2"><a xlink:href="../../d9/db3/structo2_1_1header_1_1Descriptor.html" target="_top" xlink:title="{o2::header::Descriptor\l\&lt; gSizeHeaderDescriptionString \&gt;\n||+ Descriptor()\l+ Descriptor()\l+ Descriptor()\l+ Descriptor()\l+ operator=()\l+ operator ItgType()\l+ runtimeInit()\l+ operator==()\l+ operator==()\l+ operator\&lt;()\l+ operator!=()\l+ operator!=()\l+ as()\l+ print()\l}">
<polygon fill="none" stroke="#000000" points="281.8478,-270.5 281.8478,-481.5 466.8478,-481.5 466.8478,-270.5 281.8478,-270.5"/>
<text text-anchor="start" x="289.8478" y="-469.5" font-family="Helvetica,sans-Serif" font-size="10.00" fill="#000000">o2::header::Descriptor</text>
<text text-anchor="middle" x="374.3478" y="-458.5" font-family="Helvetica,sans-Serif" font-size="10.00" fill="#000000">&lt; gSizeHeaderDescriptionString &gt;</text>
<polyline fill="none" stroke="#000000" points="281.8478,-451.5 466.8478,-451.5 "/>
<text text-anchor="middle" x="374.3478" y="-439.5" font-family="Helvetica,sans-Serif" font-size="10.00" fill="#000000"> </text>
<polyline fill="none" stroke="#000000" points="281.8478,-432.5 466.8478,-432.5 "/>
<text text-anchor="start" x="289.8478" y="-420.5" font-family="Helvetica,sans-Serif" font-size="10.00" fill="#000000">+ Descriptor()</text>
<text text-anchor="start" x="289.8478" y="-409.5" font-family="Helvetica,sans-Serif" font-size="10.00" fill="#000000">+ Descriptor()</text>
<text text-anchor="start" x="289.8478" y="-398.5" font-family="Helvetica,sans-Serif" font-size="10.00" fill="#000000">+ Descriptor()</text>
<text text-anchor="start" x="289.8478" y="-387.5" font-family="Helvetica,sans-Serif" font-size="10.00" fill="#000000">+ Descriptor()</text>
<text text-anchor="start" x="289.8478" y="-376.5" font-family="Helvetica,sans-Serif" font-size="10.00" fill="#000000">+ operator=()</text>
<text text-anchor="start" x="289.8478" y="-365.5" font-family="Helvetica,sans-Serif" font-size="10.00" fill="#000000">+ operator ItgType()</text>
<text text-anchor="start" x="289.8478" y="-354.5" font-family="Helvetica,sans-Serif" font-size="10.00" fill="#000000">+ runtimeInit()</text>
<text text-anchor="start" x="289.8478" y="-343.5" font-family="Helvetica,sans-Serif" font-size="10.00" fill="#000000">+ operator==()</text>
<text text-anchor="start" x="289.8478" y="-332.5" font-family="Helvetica,sans-Serif" font-size="10.00" fill="#000000">+ operator==()</text>
<text text-anchor="start" x="289.8478" y="-321.5" font-family="Helvetica,sans-Serif" font-size="10.00" fill="#000000">+ operator&lt;()</text>
<text text-anchor="start" x="289.8478" y="-310.5" font-family="Helvetica,sans-Serif" font-size="10.00" fill="#000000">+ operator!=()</text>
<text text-anchor="start" x="289.8478" y="-299.5" font-family="Helvetica,sans-Serif" font-size="10.00" fill="#000000">+ operator!=()</text>
<text text-anchor="start" x="289.8478" y="-288.5" font-family="Helvetica,sans-Serif" font-size="10.00" fill="#000000">+ as()</text>
<text text-anchor="start" x="289.8478" y="-277.5" font-family="Helvetica,sans-Serif" font-size="10.00" fill="#000000">+ print()</text>
</a>
</g>
</g>
<!-- Node15&#45;&gt;Node14 -->
<g id="edge1" class="edge">
<title>Node15&#45;&gt;Node14</title>
<path fill="none" stroke="#404040" d="M410.403,-270.2238C422.8527,-241.4257 438.5097,-211.2421 457.3478,-186 464.9595,-175.8007 473.7781,-165.9529 483.1176,-156.6634"/>
<polygon fill="none" stroke="#404040" points="483.1711,-156.612 484.724,-149.57 491.8215,-148.295 490.2686,-155.337 483.1711,-156.612"/>
<text text-anchor="middle" x="490.3478" y="-216.5" font-family="Helvetica,sans-Serif" font-size="10.00" fill="#000000"> +description</text>
</g>
<!-- Node16 -->
<g id="node3" class="node">
<title>Node16</title>
<polygon fill="none" stroke="#bfbfbf" points="558.8478,-821.5 558.8478,-878.5 597.8478,-878.5 597.8478,-821.5 558.8478,-821.5"/>
<text text-anchor="middle" x="578.3478" y="-866.5" font-family="Helvetica,sans-Serif" font-size="10.00" fill="#000000">Type</text>
<polyline fill="none" stroke="#bfbfbf" points="558.8478,-859.5 597.8478,-859.5 "/>
<text text-anchor="middle" x="578.3478" y="-847.5" font-family="Helvetica,sans-Serif" font-size="10.00" fill="#000000"> </text>
<polyline fill="none" stroke="#bfbfbf" points="558.8478,-840.5 597.8478,-840.5 "/>
<text text-anchor="middle" x="578.3478" y="-828.5" font-family="Helvetica,sans-Serif" font-size="10.00" fill="#000000"> </text>
</g>
<!-- Node16&#45;&gt;Node15 -->
<g id="edge2" class="edge">
<title>Node16&#45;&gt;Node15</title>
<path fill="none" stroke="#404040" d="M597.9956,-841.0661C626.5193,-826.8666 678.285,-796.1635 699.3478,-752 739.9081,-666.9548 755.4067,-615.7313 699.3478,-540 663.1287,-491.0709 627.409,-514.7529 568.3478,-500 531.2415,-490.7312 515.5639,-500.1102 477.7483,-482.0339"/>
<polygon fill="none" stroke="#404040" points="477.7067,-482.0124 470.5395,-482.8074 467.0491,-476.4973 474.2163,-475.7023 477.7067,-482.0124"/>
<text text-anchor="middle" x="747.8478" y="-643.5" font-family="Helvetica,sans-Serif" font-size="10.00" fill="#000000"> +itg</text>
</g>
<!-- Node20 -->
<g id="node7" class="node">
<title>Node20</title>
<g id="a_node7"><a xlink:href="../../d9/db3/structo2_1_1header_1_1Descriptor.html" target="_top" xlink:title="{o2::header::Descriptor\l\&lt; N, PrinterPolicy \&gt;\n||+ Descriptor()\l+ Descriptor()\l+ Descriptor()\l+ operator=()\l+ operator ItgType()\l+ Descriptor()\l+ runtimeInit()\l+ operator==()\l+ operator\&lt;()\l+ operator!=()\l+ operator==()\l+ operator!=()\l+ as()\l+ print()\l}">
<polygon fill="none" stroke="#000000" points="318.8478,-540.5 318.8478,-751.5 443.8478,-751.5 443.8478,-540.5 318.8478,-540.5"/>
<text text-anchor="start" x="326.8478" y="-739.5" font-family="Helvetica,sans-Serif" font-size="10.00" fill="#000000">o2::header::Descriptor</text>
<text text-anchor="middle" x="381.3478" y="-728.5" font-family="Helvetica,sans-Serif" font-size="10.00" fill="#000000">&lt; N, PrinterPolicy &gt;</text>
<polyline fill="none" stroke="#000000" points="318.8478,-721.5 443.8478,-721.5 "/>
<text text-anchor="middle" x="381.3478" y="-709.5" font-family="Helvetica,sans-Serif" font-size="10.00" fill="#000000"> </text>
<polyline fill="none" stroke="#000000" points="318.8478,-702.5 443.8478,-702.5 "/>
<text text-anchor="start" x="326.8478" y="-690.5" font-family="Helvetica,sans-Serif" font-size="10.00" fill="#000000">+ Descriptor()</text>
<text text-anchor="start" x="326.8478" y="-679.5" font-family="Helvetica,sans-Serif" font-size="10.00" fill="#000000">+ Descriptor()</text>
<text text-anchor="start" x="326.8478" y="-668.5" font-family="Helvetica,sans-Serif" font-size="10.00" fill="#000000">+ Descriptor()</text>
<text text-anchor="start" x="326.8478" y="-657.5" font-family="Helvetica,sans-Serif" font-size="10.00" fill="#000000">+ operator=()</text>
<text text-anchor="start" x="326.8478" y="-646.5" font-family="Helvetica,sans-Serif" font-size="10.00" fill="#000000">+ operator ItgType()</text>
<text text-anchor="start" x="326.8478" y="-635.5" font-family="Helvetica,sans-Serif" font-size="10.00" fill="#000000">+ Descriptor()</text>
<text text-anchor="start" x="326.8478" y="-624.5" font-family="Helvetica,sans-Serif" font-size="10.00" fill="#000000">+ runtimeInit()</text>
<text text-anchor="start" x="326.8478" y="-613.5" font-family="Helvetica,sans-Serif" font-size="10.00" fill="#000000">+ operator==()</text>
<text text-anchor="start" x="326.8478" y="-602.5" font-family="Helvetica,sans-Serif" font-size="10.00" fill="#000000">+ operator&lt;()</text>
<text text-anchor="start" x="326.8478" y="-591.5" font-family="Helvetica,sans-Serif" font-size="10.00" fill="#000000">+ operator!=()</text>
<text text-anchor="start" x="326.8478" y="-580.5" font-family="Helvetica,sans-Serif" font-size="10.00" fill="#000000">+ operator==()</text>
<text text-anchor="start" x="326.8478" y="-569.5" font-family="Helvetica,sans-Serif" font-size="10.00" fill="#000000">+ operator!=()</text>
<text text-anchor="start" x="326.8478" y="-558.5" font-family="Helvetica,sans-Serif" font-size="10.00" fill="#000000">+ as()</text>
<text text-anchor="start" x="326.8478" y="-547.5" font-family="Helvetica,sans-Serif" font-size="10.00" fill="#000000">+ print()</text>
</a>
</g>
</g>
<!-- Node16&#45;&gt;Node20 -->
<g id="edge7" class="edge">
<title>Node16&#45;&gt;Node20</title>
<path fill="none" stroke="#404040" d="M558.7636,-836.4411C533.8736,-818.686 490.3079,-785.8218 458.3478,-752 456.229,-749.7578 454.1186,-747.4557 452.0217,-745.1063"/>
<polygon fill="none" stroke="#404040" points="451.8573,-744.916 444.9076,-742.9918 444.0109,-735.8366 450.9605,-737.7608 451.8573,-744.916"/>
<text text-anchor="middle" x="523.8478" y="-784" font-family="Helvetica,sans-Serif" font-size="10.00" fill="#000000"> +itg</text>
</g>
<!-- Node21 -->
<g id="node8" class="node">
<title>Node21</title>
<g id="a_node8"><a xlink:href="../../d9/db3/structo2_1_1header_1_1Descriptor.html" target="_top" xlink:title="{o2::header::Descriptor\l\&lt; gSizeSerializationMethodString \&gt;\n||+ Descriptor()\l+ Descriptor()\l+ Descriptor()\l+ Descriptor()\l+ operator=()\l+ operator ItgType()\l+ runtimeInit()\l+ operator==()\l+ operator==()\l+ operator\&lt;()\l+ operator!=()\l+ operator!=()\l+ as()\l+ print()\l}">
<polygon fill="none" stroke="#000000" points="72.8478,-270.5 72.8478,-481.5 263.8478,-481.5 263.8478,-270.5 72.8478,-270.5"/>
<text text-anchor="start" x="80.8478" y="-469.5" font-family="Helvetica,sans-Serif" font-size="10.00" fill="#000000">o2::header::Descriptor</text>
<text text-anchor="middle" x="168.3478" y="-458.5" font-family="Helvetica,sans-Serif" font-size="10.00" fill="#000000">&lt; gSizeSerializationMethodString &gt;</text>
<polyline fill="none" stroke="#000000" points="72.8478,-451.5 263.8478,-451.5 "/>
<text text-anchor="middle" x="168.3478" y="-439.5" font-family="Helvetica,sans-Serif" font-size="10.00" fill="#000000"> </text>
<polyline fill="none" stroke="#000000" points="72.8478,-432.5 263.8478,-432.5 "/>
<text text-anchor="start" x="80.8478" y="-420.5" font-family="Helvetica,sans-Serif" font-size="10.00" fill="#000000">+ Descriptor()</text>
<text text-anchor="start" x="80.8478" y="-409.5" font-family="Helvetica,sans-Serif" font-size="10.00" fill="#000000">+ Descriptor()</text>
<text text-anchor="start" x="80.8478" y="-398.5" font-family="Helvetica,sans-Serif" font-size="10.00" fill="#000000">+ Descriptor()</text>
<text text-anchor="start" x="80.8478" y="-387.5" font-family="Helvetica,sans-Serif" font-size="10.00" fill="#000000">+ Descriptor()</text>
<text text-anchor="start" x="80.8478" y="-376.5" font-family="Helvetica,sans-Serif" font-size="10.00" fill="#000000">+ operator=()</text>
<text text-anchor="start" x="80.8478" y="-365.5" font-family="Helvetica,sans-Serif" font-size="10.00" fill="#000000">+ operator ItgType()</text>
<text text-anchor="start" x="80.8478" y="-354.5" font-family="Helvetica,sans-Serif" font-size="10.00" fill="#000000">+ runtimeInit()</text>
<text text-anchor="start" x="80.8478" y="-343.5" font-family="Helvetica,sans-Serif" font-size="10.00" fill="#000000">+ operator==()</text>
<text text-anchor="start" x="80.8478" y="-332.5" font-family="Helvetica,sans-Serif" font-size="10.00" fill="#000000">+ operator==()</text>
<text text-anchor="start" x="80.8478" y="-321.5" font-family="Helvetica,sans-Serif" font-size="10.00" fill="#000000">+ operator&lt;()</text>
<text text-anchor="start" x="80.8478" y="-310.5" font-family="Helvetica,sans-Serif" font-size="10.00" fill="#000000">+ operator!=()</text>
<text text-anchor="start" x="80.8478" y="-299.5" font-family="Helvetica,sans-Serif" font-size="10.00" fill="#000000">+ operator!=()</text>
<text text-anchor="start" x="80.8478" y="-288.5" font-family="Helvetica,sans-Serif" font-size="10.00" fill="#000000">+ as()</text>
<text text-anchor="start" x="80.8478" y="-277.5" font-family="Helvetica,sans-Serif" font-size="10.00" fill="#000000">+ print()</text>
</a>
</g>
</g>
<!-- Node16&#45;&gt;Node21 -->
<g id="edge13" class="edge">
<title>Node16&#45;&gt;Node21</title>
<path fill="none" stroke="#404040" d="M577.0601,-821.272C573.5377,-748.4482 562.7582,-560.896 544.3478,-540 521.6863,-514.279 502.4873,-530.7682 469.3478,-522 435.353,-513.0055 427.7002,-507.5136 393.3478,-500 344.1618,-489.242 324.1423,-504.1501 275.0466,-482.1621"/>
<polygon fill="none" stroke="#404040" points="274.9168,-482.0996 267.775,-483.0966 264.1078,-476.8876 271.2497,-475.8906 274.9168,-482.0996"/>
<text text-anchor="middle" x="584.8478" y="-643.5" font-family="Helvetica,sans-Serif" font-size="10.00" fill="#000000"> +itg</text>
</g>
<!-- Node17 -->
<g id="node4" class="node">
<title>Node17</title>
<polygon fill="none" stroke="#bfbfbf" points="85.3478,-821.5 85.3478,-878.5 123.3478,-878.5 123.3478,-821.5 85.3478,-821.5"/>
<text text-anchor="middle" x="104.3478" y="-866.5" font-family="Helvetica,sans-Serif" font-size="10.00" fill="#000000">char</text>
<polyline fill="none" stroke="#bfbfbf" points="85.3478,-859.5 123.3478,-859.5 "/>
<text text-anchor="middle" x="104.3478" y="-847.5" font-family="Helvetica,sans-Serif" font-size="10.00" fill="#000000"> </text>
<polyline fill="none" stroke="#bfbfbf" points="85.3478,-840.5 123.3478,-840.5 "/>
<text text-anchor="middle" x="104.3478" y="-828.5" font-family="Helvetica,sans-Serif" font-size="10.00" fill="#000000"> </text>
</g>
<!-- Node17&#45;&gt;Node14 -->
<g id="edge11" class="edge">
<title>Node17&#45;&gt;Node14</title>
<path fill="none" stroke="#404040" d="M90.2404,-821.4986C46.9893,-729.604 -72.8079,-437.3887 63.3478,-270 116.8453,-204.2305 345.8031,-139.8158 479.7485,-106.796"/>
<polygon fill="none" stroke="#404040" points="479.9534,-106.7459 484.8303,-101.4341 491.6093,-103.8929 486.7324,-109.2047 479.9534,-106.7459"/>
<text text-anchor="middle" x="37.3478" y="-508.5" font-family="Helvetica,sans-Serif" font-size="10.00" fill="#000000"> +magicString</text>
</g>
<!-- Node17&#45;&gt;Node15 -->
<g id="edge3" class="edge">
<title>Node17&#45;&gt;Node15</title>
<path fill="none" stroke="#404040" d="M123.6594,-832.6041C142.3826,-814.4802 169.8734,-784.2653 183.3478,-752 201.6184,-708.2497 174.9358,-574.603 207.3478,-540 238.2193,-507.0416 271.6541,-549.6636 307.3478,-522 318.0035,-513.7415 327.024,-503.3961 334.6469,-492.0464"/>
<polygon fill="none" stroke="#404040" points="334.6558,-492.032 334.4269,-484.8245 340.9919,-481.8411 341.2208,-489.0486 334.6558,-492.032"/>
<text text-anchor="middle" x="219.8478" y="-643.5" font-family="Helvetica,sans-Serif" font-size="10.00" fill="#000000"> +str</text>
</g>
<!-- Node17&#45;&gt;Node20 -->
<g id="edge8" class="edge">
<title>Node17&#45;&gt;Node20</title>
<path fill="none" stroke="#404040" d="M123.5905,-840.2148C153.6991,-824.9547 213.8366,-794.6787 265.3478,-770 282.5643,-761.7516 289.5938,-764.1147 304.3478,-752 306.1936,-750.4844 308.0175,-748.9148 309.8182,-747.2982"/>
<polygon fill="none" stroke="#404040" points="309.9611,-747.1611 311.5233,-740.1212 318.6225,-738.8556 317.0603,-745.8955 309.9611,-747.1611"/>
<text text-anchor="middle" x="277.8478" y="-784" font-family="Helvetica,sans-Serif" font-size="10.00" fill="#000000"> +str</text>
</g>
<!-- Node17&#45;&gt;Node21 -->
<g id="edge14" class="edge">
<title>Node17&#45;&gt;Node21</title>
<path fill="none" stroke="#404040" d="M97.6662,-821.3304C85.9245,-766.0761 64.9477,-641.3433 88.3478,-540 91.9609,-524.3519 97.2803,-508.47 103.4884,-493.0606"/>
<polygon fill="none" stroke="#404040" points="103.5137,-493.0001 102.1452,-485.9201 108.1543,-481.9337 109.5228,-489.0138 103.5137,-493.0001"/>
<text text-anchor="middle" x="100.8478" y="-643.5" font-family="Helvetica,sans-Serif" font-size="10.00" fill="#000000"> +str</text>
</g>
<!-- Node18 -->
<g id="node5" class="node">
<title>Node18</title>
<polygon fill="none" stroke="#bfbfbf" points="465.8478,-821.5 465.8478,-878.5 494.8478,-878.5 494.8478,-821.5 465.8478,-821.5"/>
<text text-anchor="middle" x="480.3478" y="-866.5" font-family="Helvetica,sans-Serif" font-size="10.00" fill="#000000">int</text>
<polyline fill="none" stroke="#bfbfbf" points="465.8478,-859.5 494.8478,-859.5 "/>
<text text-anchor="middle" x="480.3478" y="-847.5" font-family="Helvetica,sans-Serif" font-size="10.00" fill="#000000"> </text>
<polyline fill="none" stroke="#bfbfbf" points="465.8478,-840.5 494.8478,-840.5 "/>
<text text-anchor="middle" x="480.3478" y="-828.5" font-family="Helvetica,sans-Serif" font-size="10.00" fill="#000000"> </text>
</g>
<!-- Node18&#45;&gt;Node15 -->
<g id="edge4" class="edge">
<title>Node18&#45;&gt;Node15</title>
<path fill="none" stroke="#404040" d="M494.8732,-843.7411C522.1802,-831.0662 580.4754,-799.4728 603.3478,-752 644.2448,-667.1162 653.0816,-620.0274 603.3478,-540 582.155,-505.8984 559.0764,-516.2192 522.3478,-500 505.0106,-492.344 496.9315,-493.5785 477.2017,-481.9007"/>
<polygon fill="none" stroke="#404040" points="476.9785,-481.7581 469.7687,-481.8963 466.8681,-475.2943 474.0779,-475.1561 476.9785,-481.7581"/>
<text text-anchor="middle" x="666.3478" y="-654.5" font-family="Helvetica,sans-Serif" font-size="10.00" fill="#000000"> +arraySize</text>
<text text-anchor="middle" x="666.3478" y="-643.5" font-family="Helvetica,sans-Serif" font-size="10.00" fill="#000000">+size</text>
<text text-anchor="middle" x="666.3478" y="-632.5" font-family="Helvetica,sans-Serif" font-size="10.00" fill="#000000">+bitcount</text>
</g>
<!-- Node18&#45;&gt;Node20 -->
<g id="edge9" class="edge">
<title>Node18&#45;&gt;Node20</title>
<path fill="none" stroke="#404040" d="M465.5557,-844.5865C448.8243,-837.6498 422.1204,-823.9579 408.3478,-803 400.516,-791.0823 394.7438,-777.5963 390.5192,-763.6571"/>
<polygon fill="none" stroke="#404040" points="390.4626,-763.4481 385.0322,-758.7035 387.3233,-751.866 392.7536,-756.6106 390.4626,-763.4481"/>
<text text-anchor="middle" x="437.3478" y="-795" font-family="Helvetica,sans-Serif" font-size="10.00" fill="#000000"> +arraySize</text>
<text text-anchor="middle" x="437.3478" y="-784" font-family="Helvetica,sans-Serif" font-size="10.00" fill="#000000">+size</text>
<text text-anchor="middle" x="437.3478" y="-773" font-family="Helvetica,sans-Serif" font-size="10.00" fill="#000000">+bitcount</text>
</g>
<!-- Node18&#45;&gt;Node21 -->
<g id="edge15" class="edge">
<title>Node18&#45;&gt;Node21</title>
<path fill="none" stroke="#404040" d="M481.7125,-821.428C484.381,-753.171 487.3528,-583.1021 453.3478,-540 429.1989,-509.3908 325.9423,-504.2774 274.9964,-481.6942"/>
<polygon fill="none" stroke="#404040" points="274.7712,-481.5781 267.6052,-482.3836 264.1055,-476.0786 271.2715,-475.2732 274.7712,-481.5781"/>
<text text-anchor="middle" x="511.3478" y="-654.5" font-family="Helvetica,sans-Serif" font-size="10.00" fill="#000000"> +arraySize</text>
<text text-anchor="middle" x="511.3478" y="-643.5" font-family="Helvetica,sans-Serif" font-size="10.00" fill="#000000">+size</text>
<text text-anchor="middle" x="511.3478" y="-632.5" font-family="Helvetica,sans-Serif" font-size="10.00" fill="#000000">+bitcount</text>
</g>
<!-- Node19 -->
<g id="node6" class="node">
<title>Node19</title>
<polygon fill="none" stroke="#bfbfbf" points="212.8478,-821.5 212.8478,-878.5 319.8478,-878.5 319.8478,-821.5 212.8478,-821.5"/>
<text text-anchor="middle" x="266.3478" y="-866.5" font-family="Helvetica,sans-Serif" font-size="10.00" fill="#000000">anonymous:+@72</text>
<polyline fill="none" stroke="#bfbfbf" points="212.8478,-859.5 319.8478,-859.5 "/>
<text text-anchor="middle" x="266.3478" y="-847.5" font-family="Helvetica,sans-Serif" font-size="10.00" fill="#000000"> </text>
<polyline fill="none" stroke="#bfbfbf" points="212.8478,-840.5 319.8478,-840.5 "/>
<text text-anchor="middle" x="266.3478" y="-828.5" font-family="Helvetica,sans-Serif" font-size="10.00" fill="#000000"> </text>
</g>
<!-- Node19&#45;&gt;Node15 -->
<g id="edge5" class="edge">
<title>Node19&#45;&gt;Node15</title>
<path fill="none" stroke="#404040" d="M257.2926,-821.1607C240.5543,-761.6968 212.0215,-624.0115 276.3478,-540 293.0147,-518.2326 316.3052,-541.7227 335.3478,-522 343.4629,-513.5951 349.9348,-503.6965 355.0897,-493.0781"/>
<polygon fill="none" stroke="#404040" points="355.2149,-492.79 353.9382,-485.6928 359.9985,-481.7846 361.2751,-488.8819 355.2149,-492.79"/>
<text text-anchor="middle" x="293.3478" y="-643.5" font-family="Helvetica,sans-Serif" font-size="10.00" fill="#000000"> +@72</text>
</g>
<!-- Node19&#45;&gt;Node20 -->
<g id="edge10" class="edge">
<title>Node19&#45;&gt;Node20</title>
<path fill="none" stroke="#404040" d="M282.5806,-821.2045C291.6134,-805.1809 303.518,-784.0632 315.9243,-762.0555"/>
<polygon fill="none" stroke="#404040" points="315.9541,-762.0026 315.4161,-754.8115 321.8471,-751.5491 322.3851,-758.7401 315.9541,-762.0026"/>
<text text-anchor="middle" x="327.3478" y="-784" font-family="Helvetica,sans-Serif" font-size="10.00" fill="#000000"> +@72</text>
</g>
<!-- Node19&#45;&gt;Node21 -->
<g id="edge16" class="edge">
<title>Node19&#45;&gt;Node21</title>
<path fill="none" stroke="#404040" d="M245.5736,-821.4943C232.1826,-804.7224 213.5404,-784.1045 193.3478,-770 176.0263,-757.901 161.1247,-769.5421 149.3478,-752 121.8783,-711.0833 133.3643,-587.9012 147.443,-493.5707"/>
<polygon fill="none" stroke="#404040" points="147.4541,-493.4975 144.4031,-486.9636 149.2609,-481.6343 152.3119,-488.1681 147.4541,-493.4975"/>
<text text-anchor="middle" x="166.3478" y="-643.5" font-family="Helvetica,sans-Serif" font-size="10.00" fill="#000000"> +@72</text>
</g>
<!-- Node20&#45;&gt;Node15 -->
<g id="edge6" class="edge">
<title>Node20&#45;&gt;Node15</title>
<path fill="none" stroke="#ffa500" d="M387.0624,-530.1324C387.0361,-519.9404 386.8201,-509.7847 386.3478,-500 386.061,-494.0591 385.6973,-487.9637 385.2766,-481.8155"/>
<polygon fill="#ffa500" stroke="#ffa500" points="383.5618,-530.3123 387.0278,-540.3241 390.5618,-530.3361 383.5618,-530.3123"/>
<text text-anchor="start" x="386.3478" y="-514" font-family="Helvetica,sans-Serif" font-size="10.00" fill="#000000"> &lt; gSizeHeaderDescription</text>
<text text-anchor="middle" x="452.3478" y="-503" font-family="Helvetica,sans-Serif" font-size="10.00" fill="#000000">String &gt;</text>
</g>
<!-- Node20&#45;&gt;Node21 -->
<g id="edge17" class="edge">
<title>Node20&#45;&gt;Node21</title>
<path fill="none" stroke="#ffa500" d="M310.8211,-544.3326C308.7072,-542.8069 306.5493,-541.3592 304.3478,-540 262.5684,-514.2057 230.3989,-556.3843 195.3478,-522 184.031,-510.8985 176.5933,-496.7049 171.8241,-481.5455"/>
<polygon fill="#ffa500" stroke="#ffa500" points="308.7332,-547.1434 318.7548,-550.5813 313.0645,-541.6442 308.7332,-547.1434"/>
<text text-anchor="start" x="195.3478" y="-514" font-family="Helvetica,sans-Serif" font-size="10.00" fill="#000000"> &lt; gSizeSerializationMethod</text>
<text text-anchor="middle" x="264.3478" y="-503" font-family="Helvetica,sans-Serif" font-size="10.00" fill="#000000">String &gt;</text>
</g>
<!-- Node21&#45;&gt;Node14 -->
<g id="edge12" class="edge">
<title>Node21&#45;&gt;Node14</title>
<path fill="none" stroke="#404040" d="M251.2777,-270.4237C278.3586,-240.4879 310.086,-209.645 343.3478,-186 384.865,-156.4864 436.2697,-132.9651 480.4052,-115.9816"/>
<polygon fill="none" stroke="#404040" points="480.5283,-115.9351 484.7281,-110.0732 491.7544,-111.6954 487.5546,-117.5573 480.5283,-115.9351"/>
<text text-anchor="middle" x="379.3478" y="-216.5" font-family="Helvetica,sans-Serif" font-size="10.00" fill="#000000"> +serialization</text>
</g>
<!-- Node22 -->
<g id="node9" class="node">
<title>Node22</title>
<g id="a_node9"><a xlink:href="../../d2/d5f/classunsigned_01int.html" target="_top" xlink:title="{unsigned int\n||}">
<polygon fill="none" stroke="#000000" points="484.8478,-347.5 484.8478,-404.5 561.8478,-404.5 561.8478,-347.5 484.8478,-347.5"/>
<text text-anchor="middle" x="523.3478" y="-392.5" font-family="Helvetica,sans-Serif" font-size="10.00" fill="#000000">unsigned int</text>
<polyline fill="none" stroke="#000000" points="484.8478,-385.5 561.8478,-385.5 "/>
<text text-anchor="middle" x="523.3478" y="-373.5" font-family="Helvetica,sans-Serif" font-size="10.00" fill="#000000"> </text>
<polyline fill="none" stroke="#000000" points="484.8478,-366.5 561.8478,-366.5 "/>
<text text-anchor="middle" x="523.3478" y="-354.5" font-family="Helvetica,sans-Serif" font-size="10.00" fill="#000000"> </text>
</a>
</g>
</g>
<!-- Node22&#45;&gt;Node14 -->
<g id="edge18" class="edge">
<title>Node22&#45;&gt;Node14</title>
<path fill="none" stroke="#404040" d="M522.735,-347.2627C522.5512,-309.6911 524.3465,-242.0637 537.3478,-186 537.8513,-183.8285 538.3943,-181.6429 538.972,-179.4488"/>
<polygon fill="none" stroke="#404040" points="539.0438,-179.1996 536.8615,-172.3266 542.3665,-167.6688 544.5487,-174.5418 539.0438,-179.1996"/>
<text text-anchor="middle" x="574.3478" y="-216.5" font-family="Helvetica,sans-Serif" font-size="10.00" fill="#000000"> +sMagicString</text>
</g>
<!-- Node23 -->
<g id="node10" class="node">
<title>Node23</title>
<polygon fill="none" stroke="#bfbfbf" points="579.8478,-347.5 579.8478,-404.5 686.8478,-404.5 686.8478,-347.5 579.8478,-347.5"/>
<text text-anchor="middle" x="633.3478" y="-392.5" font-family="Helvetica,sans-Serif" font-size="10.00" fill="#000000">anonymous:+@74</text>
<polyline fill="none" stroke="#bfbfbf" points="579.8478,-385.5 686.8478,-385.5 "/>
<text text-anchor="middle" x="633.3478" y="-373.5" font-family="Helvetica,sans-Serif" font-size="10.00" fill="#000000"> </text>
<polyline fill="none" stroke="#bfbfbf" points="579.8478,-366.5 686.8478,-366.5 "/>
<text text-anchor="middle" x="633.3478" y="-354.5" font-family="Helvetica,sans-Serif" font-size="10.00" fill="#000000"> </text>
</g>
<!-- Node23&#45;&gt;Node14 -->
<g id="edge19" class="edge">
<title>Node23&#45;&gt;Node14</title>
<path fill="none" stroke="#404040" d="M631.8006,-347.3848C629.3753,-309.9451 623.6234,-242.4602 611.3478,-186 610.8788,-183.8431 610.3825,-181.6672 609.8624,-179.4786"/>
<polygon fill="none" stroke="#404040" points="609.8227,-179.3217 604.4708,-174.4888 606.8736,-167.6897 612.2255,-172.5227 609.8227,-179.3217"/>
<text text-anchor="middle" x="638.3478" y="-216.5" font-family="Helvetica,sans-Serif" font-size="10.00" fill="#000000"> +@74</text>
</g>
<!-- Node24 -->
<g id="node11" class="node">
<title>Node24</title>
<polygon fill="none" stroke="#bfbfbf" points="704.8478,-347.5 704.8478,-404.5 765.8478,-404.5 765.8478,-347.5 704.8478,-347.5"/>
<text text-anchor="middle" x="735.3478" y="-392.5" font-family="Helvetica,sans-Serif" font-size="10.00" fill="#000000">unsigned</text>
<polyline fill="none" stroke="#bfbfbf" points="704.8478,-385.5 765.8478,-385.5 "/>
<text text-anchor="middle" x="735.3478" y="-373.5" font-family="Helvetica,sans-Serif" font-size="10.00" fill="#000000"> </text>
<polyline fill="none" stroke="#bfbfbf" points="704.8478,-366.5 765.8478,-366.5 "/>
<text text-anchor="middle" x="735.3478" y="-354.5" font-family="Helvetica,sans-Serif" font-size="10.00" fill="#000000"> </text>
</g>
<!-- Node24&#45;&gt;Node14 -->
<g id="edge20" class="edge">
<title>Node24&#45;&gt;Node14</title>
<path fill="none" stroke="#404040" d="M725.396,-347.472C717.7845,-326.0292 706.8457,-296.0014 696.3478,-270 681.0751,-232.1722 680.4275,-220.9263 659.3478,-186 657.68,-183.2367 655.9463,-180.4644 654.1594,-177.6928"/>
<polygon fill="none" stroke="#404040" points="654.1377,-177.6601 647.4805,-174.8883 647.4786,-167.6772 654.1358,-170.449 654.1377,-177.6601"/>
<text text-anchor="middle" x="733.8478" y="-244" font-family="Helvetica,sans-Serif" font-size="10.00" fill="#000000"> +headerVersion</text>
<text text-anchor="middle" x="733.8478" y="-233" font-family="Helvetica,sans-Serif" font-size="10.00" fill="#000000">+headerSize</text>
<text text-anchor="middle" x="733.8478" y="-222" font-family="Helvetica,sans-Serif" font-size="10.00" fill="#000000">+flagsNextHeader</text>
<text text-anchor="middle" x="733.8478" y="-211" font-family="Helvetica,sans-Serif" font-size="10.00" fill="#000000">+magicStringInt</text>
<text text-anchor="middle" x="733.8478" y="-200" font-family="Helvetica,sans-Serif" font-size="10.00" fill="#000000">+flagsUnused</text>
<text text-anchor="middle" x="733.8478" y="-189" font-family="Helvetica,sans-Serif" font-size="10.00" fill="#000000">+flags</text>
</g>
<!-- Node25 -->
<g id="node12" class="node">
<title>Node25</title>
<polygon fill="none" stroke="#bfbfbf" points="783.8478,-347.5 783.8478,-404.5 826.8478,-404.5 826.8478,-347.5 783.8478,-347.5"/>
<text text-anchor="middle" x="805.3478" y="-392.5" font-family="Helvetica,sans-Serif" font-size="10.00" fill="#000000">const</text>
<polyline fill="none" stroke="#bfbfbf" points="783.8478,-385.5 826.8478,-385.5 "/>
<text text-anchor="middle" x="805.3478" y="-373.5" font-family="Helvetica,sans-Serif" font-size="10.00" fill="#000000"> </text>
<polyline fill="none" stroke="#bfbfbf" points="783.8478,-366.5 826.8478,-366.5 "/>
<text text-anchor="middle" x="805.3478" y="-354.5" font-family="Helvetica,sans-Serif" font-size="10.00" fill="#000000"> </text>
</g>
<!-- Node25&#45;&gt;Node14 -->
<g id="edge21" class="edge">
<title>Node25&#45;&gt;Node14</title>
<path fill="none" stroke="#404040" d="M805.2983,-347.1957C804.6857,-300.5993 801.1422,-211.3416 783.3478,-186 757.8754,-149.7239 715.7004,-125.6978 676.2057,-110.1326"/>
<polygon fill="none" stroke="#404040" points="676.1099,-110.0966 669.0848,-111.7241 664.8806,-105.8654 671.9057,-104.2379 676.1099,-110.0966"/>
<text text-anchor="middle" x="854.8478" y="-227.5" font-family="Helvetica,sans-Serif" font-size="10.00" fill="#000000"> +sHeaderType</text>
<text text-anchor="middle" x="854.8478" y="-216.5" font-family="Helvetica,sans-Serif" font-size="10.00" fill="#000000">+sSerializationMethod</text>
<text text-anchor="middle" x="854.8478" y="-205.5" font-family="Helvetica,sans-Serif" font-size="10.00" fill="#000000">+sVersion</text>
</g>
<!-- Node26 -->
<g id="node13" class="node">
<title>Node26</title>
<polygon fill="none" stroke="#bfbfbf" points="885.8478,-347.5 885.8478,-404.5 992.8478,-404.5 992.8478,-347.5 885.8478,-347.5"/>
<text text-anchor="middle" x="939.3478" y="-392.5" font-family="Helvetica,sans-Serif" font-size="10.00" fill="#000000">anonymous:+@76</text>
<polyline fill="none" stroke="#bfbfbf" points="885.8478,-385.5 992.8478,-385.5 "/>
<text text-anchor="middle" x="939.3478" y="-373.5" font-family="Helvetica,sans-Serif" font-size="10.00" fill="#000000"> </text>
<polyline fill="none" stroke="#bfbfbf" points="885.8478,-366.5 992.8478,-366.5 "/>
<text text-anchor="middle" x="939.3478" y="-354.5" font-family="Helvetica,sans-Serif" font-size="10.00" fill="#000000"> </text>
</g>
<!-- Node26&#45;&gt;Node14 -->
<g id="edge22" class="edge">
<title>Node26&#45;&gt;Node14</title>
<path fill="none" stroke="#404040" d="M944.3335,-347.4412C949.7264,-306.6315 952.9779,-231.5438 914.3478,-186 883.4806,-149.6085 764.7092,-119.5807 677.0909,-101.743"/>
<polygon fill="none" stroke="#404040" points="676.9833,-101.7215 670.3137,-104.4631 665.2178,-99.3611 671.8874,-96.6194 676.9833,-101.7215"/>
<text text-anchor="middle" x="959.3478" y="-216.5" font-family="Helvetica,sans-Serif" font-size="10.00" fill="#000000"> +@76</text>
</g>
</g>
</svg>
        <g id="navigator" transform="translate(0 0)" fill="#404254">
                <rect fill="#f2f5e9" fill-opacity="0.5" stroke="#606060" stroke-width=".5" x="0" y="0" width="60" height="60"/>
                <use id="zoomplus" xlink:href="#zoomPlus" x="17" y="9" onmousedown="handleZoom(evt,'in')"/>
                <use id="zoomminus" xlink:href="#zoomMin" x="42" y="9" onmousedown="handleZoom(evt,'out')"/>
                <use id="reset" xlink:href="#resetDef" x="30" y="36" onmousedown="handleReset()"/>
                <g id="arrowUp" xlink:href="#dirArrow" transform="translate(30 24)" onmousedown="handlePan(0,-1)">
                  <use xlink:href="#rim" fill="#404040">
                        <set attributeName="fill" to="#808080" begin="arrowUp.mouseover" end="arrowUp.mouseout"/>
                  </use>
                  <path fill="none" stroke="white" stroke-width="1.5" d="M0,-3.0v7 M-2.5,-0.5L0,-3.0L2.5,-0.5"/>
                </g>
                <g id="arrowRight" xlink:href="#dirArrow" transform="rotate(90) translate(36 -43)" onmousedown="handlePan(1,0)">
                  <use xlink:href="#rim" fill="#404040">
                        <set attributeName="fill" to="#808080" begin="arrowRight.mouseover" end="arrowRight.mouseout"/>
                  </use>
                  <path fill="none" stroke="white" stroke-width="1.5" d="M0,-3.0v7 M-2.5,-0.5L0,-3.0L2.5,-0.5"/>
                </g>
                <g id="arrowDown" xlink:href="#dirArrow" transform="rotate(180) translate(-30 -48)" onmousedown="handlePan(0,1)">
                  <use xlink:href="#rim" fill="#404040">
                        <set attributeName="fill" to="#808080" begin="arrowDown.mouseover" end="arrowDown.mouseout"/>
                  </use>
                  <path fill="none" stroke="white" stroke-width="1.5" d="M0,-3.0v7 M-2.5,-0.5L0,-3.0L2.5,-0.5"/>
                </g>
                <g id="arrowLeft" xlink:href="#dirArrow" transform="rotate(270) translate(-36 17)" onmousedown="handlePan(-1,0)">
                  <use xlink:href="#rim" fill="#404040">
                        <set attributeName="fill" to="#808080" begin="arrowLeft.mouseover" end="arrowLeft.mouseout"/>
                  </use>
                  <path fill="none" stroke="white" stroke-width="1.5" d="M0,-3.0v7 M-2.5,-0.5L0,-3.0L2.5,-0.5"/>
                </g>
        </g>
        <svg viewBox="0 0 15 15" width="100%" height="30px" preserveAspectRatio="xMaxYMin meet">
         <g id="arrow_out" transform="scale(0.3 0.3)">
          <a xlink:href="structo2_1_1header_1_1BaseHeader__coll__graph_org.svg" target="_base">
           <rect id="button" ry="5" rx="5" y="6" x="6" height="38" width="38"
                fill="#f2f5e9" fill-opacity="0.5" stroke="#606060" stroke-width="1.0"/>
           <path id="arrow"
             d="M 11.500037,31.436501 C 11.940474,20.09759 22.043105,11.32322 32.158766,21.979434 L 37.068811,17.246167 C 37.068811,17.246167 37.088388,32 37.088388,32 L 22.160133,31.978069 C 22.160133,31.978069 26.997745,27.140456 26.997745,27.140456 C 18.528582,18.264221 13.291696,25.230495 11.500037,31.436501 z"
             style="fill:#404040;"/>
          </a>
         </g>
        </svg>
</svg>
