<?xml version="1.0" encoding="UTF-8" standalone="no"?>
<!DOCTYPE svg PUBLIC "-//W3C//DTD SVG 1.1//EN"
 "http://www.w3.org/Graphics/SVG/1.1/DTD/svg11.dtd">
<!-- Generated by graphviz version 2.40.1 (20161225.0304)
 -->
<!-- Title: o2::header::RAWDataHeaderV2 Pages: 1 -->
<!--zoomable 391 -->
<svg id="main" version="1.1" xmlns="http://www.w3.org/2000/svg" xmlns:xlink="http://www.w3.org/1999/xlink" xml:space="preserve" onload="init(evt)">
<style type="text/css"><![CDATA[
.edge:hover path { stroke: red; }
.edge:hover polygon { stroke: red; fill: red; }
]]></style>
<script type="text/javascript"><![CDATA[
var edges = document.getElementsByTagName('g');
if (edges && edges.length) {
  for (var i=0;i<edges.length;i++) {
    if (edges[i].id.substr(0,4)=='edge') {
      edges[i].setAttribute('class','edge');
    }
  }
}
]]></script>
        <defs>
                <circle id="rim" cx="0" cy="0" r="7"/>
                <circle id="rim2" cx="0" cy="0" r="3.5"/>
                <g id="zoomPlus">
                        <use xlink:href="#rim" fill="#404040">
                                <set attributeName="fill" to="#808080" begin="zoomplus.mouseover" end="zoomplus.mouseout"/>
                        </use>
                        <path d="M-4,0h8M0,-4v8" fill="none" stroke="white" stroke-width="1.5" pointer-events="none"/>
                </g>
                <g id="zoomMin">
                        <use xlink:href="#rim" fill="#404040">
                                <set attributeName="fill" to="#808080" begin="zoomminus.mouseover" end="zoomminus.mouseout"/>
                        </use>
                        <path d="M-4,0h8" fill="none" stroke="white" stroke-width="1.5" pointer-events="none"/>
                </g>
                <g id="dirArrow">
                        <path fill="none" stroke="white" stroke-width="1.5" d="M0,-3.0v7 M-2.5,-0.5L0,-3.0L2.5,-0.5"/>
                </g>
               <g id="resetDef">
                       <use xlink:href="#rim2" fill="#404040">
                               <set attributeName="fill" to="#808080" begin="reset.mouseover" end="reset.mouseout"/>
                       </use>
               </g>
        </defs>

<script type="text/javascript">
var viewWidth = 593;
var viewHeight = 391;
var sectionId = 'dynsection-0';
</script>
<script xlink:href="../../svgpan.js"/>
<svg id="graph" class="graph">
<g id="viewport">
<title>o2::header::RAWDataHeaderV2</title>
<!-- Node1 -->
<g id="node1" class="node">
<title>Node1</title>
<polygon fill="#bfbfbf" stroke="#000000" points="235,-.5 235,-167.5 402,-167.5 402,-.5 235,-.5"/>
<text text-anchor="middle" x="318.5" y="-155.5" font-family="Helvetica,sans-Serif" font-size="10.00" fill="#000000">o2::header::RAWDataHeaderV2</text>
<polyline fill="none" stroke="#000000" points="235,-148.5 402,-148.5 "/>
<text text-anchor="start" x="243" y="-136.5" font-family="Helvetica,sans-Serif" font-size="10.00" fill="#000000">+ word0</text>
<text text-anchor="start" x="243" y="-125.5" font-family="Helvetica,sans-Serif" font-size="10.00" fill="#000000">+ zero0</text>
<text text-anchor="start" x="243" y="-114.5" font-family="Helvetica,sans-Serif" font-size="10.00" fill="#000000">+ word1</text>
<text text-anchor="start" x="243" y="-103.5" font-family="Helvetica,sans-Serif" font-size="10.00" fill="#000000">+ word2</text>
<text text-anchor="start" x="243" y="-92.5" font-family="Helvetica,sans-Serif" font-size="10.00" fill="#000000">+ heartbeatBC</text>
<text text-anchor="start" x="243" y="-81.5" font-family="Helvetica,sans-Serif" font-size="10.00" fill="#000000">+ zero2</text>
<text text-anchor="start" x="243" y="-70.5" font-family="Helvetica,sans-Serif" font-size="10.00" fill="#000000">+ word3</text>
<text text-anchor="start" x="243" y="-59.5" font-family="Helvetica,sans-Serif" font-size="10.00" fill="#000000">+ pageCnt</text>
<text text-anchor="start" x="243" y="-48.5" font-family="Helvetica,sans-Serif" font-size="10.00" fill="#000000">+ stop</text>
<text text-anchor="start" x="243" y="-37.5" font-family="Helvetica,sans-Serif" font-size="10.00" fill="#000000">+ detectorField</text>
<text text-anchor="start" x="243" y="-26.5" font-family="Helvetica,sans-Serif" font-size="10.00" fill="#000000">+ zero3</text>
<polyline fill="none" stroke="#000000" points="235,-19.5 402,-19.5 "/>
<text text-anchor="middle" x="318.5" y="-7.5" font-family="Helvetica,sans-Serif" font-size="10.00" fill="#000000"> </text>
</g>
<!-- Node2 -->
<g id="node2" class="node">
<title>Node2</title>
<polygon fill="none" stroke="#bfbfbf" points="0,-325.5 0,-382.5 113,-382.5 113,-325.5 0,-325.5"/>
<text text-anchor="middle" x="56.5" y="-370.5" font-family="Helvetica,sans-Serif" font-size="10.00" fill="#000000">anonymous:+@172</text>
<polyline fill="none" stroke="#bfbfbf" points="0,-363.5 113,-363.5 "/>
<text text-anchor="middle" x="56.5" y="-351.5" font-family="Helvetica,sans-Serif" font-size="10.00" fill="#000000"> </text>
<polyline fill="none" stroke="#bfbfbf" points="0,-344.5 113,-344.5 "/>
<text text-anchor="middle" x="56.5" y="-332.5" font-family="Helvetica,sans-Serif" font-size="10.00" fill="#000000"> </text>
</g>
<!-- Node2&#45;&gt;Node1 -->
<g id="edge1" class="edge">
<title>Node2&#45;&gt;Node1</title>
<path fill="none" stroke="#404040" d="M71.2628,-325.4713C90.5496,-290.0077 126.9242,-228.9254 169.5,-186 185.9492,-169.4157 205.4458,-153.8443 224.8222,-140.1013"/>
<polygon fill="none" stroke="#404040" points="225.07,-139.9293 227.7173,-133.2217 234.9271,-133.0856 232.2798,-139.7932 225.07,-139.9293"/>
<text text-anchor="middle" x="189.5" y="-244" font-family="Helvetica,sans-Serif" font-size="10.00" fill="#000000"> +@172</text>
</g>
<!-- Node3 -->
<g id="node3" class="node">
<title>Node3</title>
<polygon fill="none" stroke="#bfbfbf" points="131,-325.5 131,-382.5 244,-382.5 244,-325.5 131,-325.5"/>
<text text-anchor="middle" x="187.5" y="-370.5" font-family="Helvetica,sans-Serif" font-size="10.00" fill="#000000">anonymous:+@166</text>
<polyline fill="none" stroke="#bfbfbf" points="131,-363.5 244,-363.5 "/>
<text text-anchor="middle" x="187.5" y="-351.5" font-family="Helvetica,sans-Serif" font-size="10.00" fill="#000000"> </text>
<polyline fill="none" stroke="#bfbfbf" points="131,-344.5 244,-344.5 "/>
<text text-anchor="middle" x="187.5" y="-332.5" font-family="Helvetica,sans-Serif" font-size="10.00" fill="#000000"> </text>
</g>
<!-- Node3&#45;&gt;Node1 -->
<g id="edge2" class="edge">
<title>Node3&#45;&gt;Node1</title>
<path fill="none" stroke="#404040" d="M201.3953,-325.3609C218.2704,-290.5802 247.5908,-230.1488 272.6703,-178.4582"/>
<polygon fill="none" stroke="#404040" points="272.7133,-178.3694 271.7337,-171.2252 277.9516,-167.5731 278.9312,-174.7173 272.7133,-178.3694"/>
<text text-anchor="middle" x="288.5" y="-244" font-family="Helvetica,sans-Serif" font-size="10.00" fill="#000000"> +@166</text>
</g>
<!-- Node4 -->
<g id="node4" class="node">
<title>Node4</title>
<polygon fill="none" stroke="#bfbfbf" points="262,-325.5 262,-382.5 375,-382.5 375,-325.5 262,-325.5"/>
<text text-anchor="middle" x="318.5" y="-370.5" font-family="Helvetica,sans-Serif" font-size="10.00" fill="#000000">anonymous:+@168</text>
<polyline fill="none" stroke="#bfbfbf" points="262,-363.5 375,-363.5 "/>
<text text-anchor="middle" x="318.5" y="-351.5" font-family="Helvetica,sans-Serif" font-size="10.00" fill="#000000"> </text>
<polyline fill="none" stroke="#bfbfbf" points="262,-344.5 375,-344.5 "/>
<text text-anchor="middle" x="318.5" y="-332.5" font-family="Helvetica,sans-Serif" font-size="10.00" fill="#000000"> </text>
</g>
<!-- Node4&#45;&gt;Node1 -->
<g id="edge3" class="edge">
<title>Node4&#45;&gt;Node1</title>
<path fill="none" stroke="#404040" d="M318.5,-325.3609C318.5,-290.8712 318.5,-231.1584 318.5,-179.7577"/>
<polygon fill="none" stroke="#404040" points="318.5001,-179.5731 314.5,-173.5731 318.5,-167.5731 322.5,-173.573 318.5001,-179.5731"/>
<text text-anchor="middle" x="338.5" y="-244" font-family="Helvetica,sans-Serif" font-size="10.00" fill="#000000"> +@168</text>
</g>
<!-- Node5 -->
<g id="node5" class="node">
<title>Node5</title>
<polygon fill="none" stroke="#bfbfbf" points="393,-325.5 393,-382.5 454,-382.5 454,-325.5 393,-325.5"/>
<text text-anchor="middle" x="423.5" y="-370.5" font-family="Helvetica,sans-Serif" font-size="10.00" fill="#000000">unsigned</text>
<polyline fill="none" stroke="#bfbfbf" points="393,-363.5 454,-363.5 "/>
<text text-anchor="middle" x="423.5" y="-351.5" font-family="Helvetica,sans-Serif" font-size="10.00" fill="#000000"> </text>
<polyline fill="none" stroke="#bfbfbf" points="393,-344.5 454,-344.5 "/>
<text text-anchor="middle" x="423.5" y="-332.5" font-family="Helvetica,sans-Serif" font-size="10.00" fill="#000000"> </text>
</g>
<!-- Node5&#45;&gt;Node1 -->
<g id="edge4" class="edge">
<title>Node5&#45;&gt;Node1</title>
<path fill="none" stroke="#404040" d="M413.6478,-325.2699C401.99,-291.6639 381.7283,-234.4543 362.5,-186 361.5691,-183.6542 360.6184,-181.2818 359.6524,-178.8915"/>
<polygon fill="none" stroke="#404040" points="359.5801,-178.7147 353.6061,-174.676 355.0363,-167.6082 361.0104,-171.6468 359.5801,-178.7147"/>
<text text-anchor="middle" x="446.5" y="-299" font-family="Helvetica,sans-Serif" font-size="10.00" fill="#000000"> +triggerType</text>
<text text-anchor="middle" x="446.5" y="-288" font-family="Helvetica,sans-Serif" font-size="10.00" fill="#000000">+heartbeatOrbit</text>
<text text-anchor="middle" x="446.5" y="-277" font-family="Helvetica,sans-Serif" font-size="10.00" fill="#000000">+par</text>
<text text-anchor="middle" x="446.5" y="-266" font-family="Helvetica,sans-Serif" font-size="10.00" fill="#000000">+feeId</text>
<text text-anchor="middle" x="446.5" y="-255" font-family="Helvetica,sans-Serif" font-size="10.00" fill="#000000">+linkId</text>
<text text-anchor="middle" x="446.5" y="-244" font-family="Helvetica,sans-Serif" font-size="10.00" fill="#000000">+triggerOrbit</text>
<text text-anchor="middle" x="446.5" y="-233" font-family="Helvetica,sans-Serif" font-size="10.00" fill="#000000">+headerSize</text>
<text text-anchor="middle" x="446.5" y="-222" font-family="Helvetica,sans-Serif" font-size="10.00" fill="#000000">+version</text>
<text text-anchor="middle" x="446.5" y="-211" font-family="Helvetica,sans-Serif" font-size="10.00" fill="#000000">+triggerBC</text>
<text text-anchor="middle" x="446.5" y="-200" font-family="Helvetica,sans-Serif" font-size="10.00" fill="#000000">+blockLength</text>
<text text-anchor="middle" x="446.5" y="-189" font-family="Helvetica,sans-Serif" font-size="10.00" fill="#000000">...</text>
</g>
<!-- Node6 -->
<g id="node6" class="node">
<title>Node6</title>
<polygon fill="none" stroke="#bfbfbf" points="472,-325.5 472,-382.5 585,-382.5 585,-325.5 472,-325.5"/>
<text text-anchor="middle" x="528.5" y="-370.5" font-family="Helvetica,sans-Serif" font-size="10.00" fill="#000000">anonymous:+@170</text>
<polyline fill="none" stroke="#bfbfbf" points="472,-363.5 585,-363.5 "/>
<text text-anchor="middle" x="528.5" y="-351.5" font-family="Helvetica,sans-Serif" font-size="10.00" fill="#000000"> </text>
<polyline fill="none" stroke="#bfbfbf" points="472,-344.5 585,-344.5 "/>
<text text-anchor="middle" x="528.5" y="-332.5" font-family="Helvetica,sans-Serif" font-size="10.00" fill="#000000"> </text>
</g>
<!-- Node6&#45;&gt;Node1 -->
<g id="edge5" class="edge">
<title>Node6&#45;&gt;Node1</title>
<path fill="none" stroke="#404040" d="M528.695,-325.3528C527.5509,-289.4898 520.8478,-227.7117 490.5,-186 470.94,-159.1157 441.9446,-138.0716 413.3104,-122.2604"/>
<polygon fill="none" stroke="#404040" points="412.9736,-122.0816 405.7985,-122.8017 402.3741,-116.4555 409.5492,-115.7354 412.9736,-122.0816"/>
<text text-anchor="middle" x="547.5" y="-244" font-family="Helvetica,sans-Serif" font-size="10.00" fill="#000000"> +@170</text>
</g>
</g>
</svg>
        <g id="navigator" transform="translate(0 0)" fill="#404254">
                <rect fill="#f2f5e9" fill-opacity="0.5" stroke="#606060" stroke-width=".5" x="0" y="0" width="60" height="60"/>
                <use id="zoomplus" xlink:href="#zoomPlus" x="17" y="9" onmousedown="handleZoom(evt,'in')"/>
                <use id="zoomminus" xlink:href="#zoomMin" x="42" y="9" onmousedown="handleZoom(evt,'out')"/>
                <use id="reset" xlink:href="#resetDef" x="30" y="36" onmousedown="handleReset()"/>
                <g id="arrowUp" xlink:href="#dirArrow" transform="translate(30 24)" onmousedown="handlePan(0,-1)">
                  <use xlink:href="#rim" fill="#404040">
                        <set attributeName="fill" to="#808080" begin="arrowUp.mouseover" end="arrowUp.mouseout"/>
                  </use>
                  <path fill="none" stroke="white" stroke-width="1.5" d="M0,-3.0v7 M-2.5,-0.5L0,-3.0L2.5,-0.5"/>
                </g>
                <g id="arrowRight" xlink:href="#dirArrow" transform="rotate(90) translate(36 -43)" onmousedown="handlePan(1,0)">
                  <use xlink:href="#rim" fill="#404040">
                        <set attributeName="fill" to="#808080" begin="arrowRight.mouseover" end="arrowRight.mouseout"/>
                  </use>
                  <path fill="none" stroke="white" stroke-width="1.5" d="M0,-3.0v7 M-2.5,-0.5L0,-3.0L2.5,-0.5"/>
                </g>
                <g id="arrowDown" xlink:href="#dirArrow" transform="rotate(180) translate(-30 -48)" onmousedown="handlePan(0,1)">
                  <use xlink:href="#rim" fill="#404040">
                        <set attributeName="fill" to="#808080" begin="arrowDown.mouseover" end="arrowDown.mouseout"/>
                  </use>
                  <path fill="none" stroke="white" stroke-width="1.5" d="M0,-3.0v7 M-2.5,-0.5L0,-3.0L2.5,-0.5"/>
                </g>
                <g id="arrowLeft" xlink:href="#dirArrow" transform="rotate(270) translate(-36 17)" onmousedown="handlePan(-1,0)">
                  <use xlink:href="#rim" fill="#404040">
                        <set attributeName="fill" to="#808080" begin="arrowLeft.mouseover" end="arrowLeft.mouseout"/>
                  </use>
                  <path fill="none" stroke="white" stroke-width="1.5" d="M0,-3.0v7 M-2.5,-0.5L0,-3.0L2.5,-0.5"/>
                </g>
        </g>
        <svg viewBox="0 0 15 15" width="100%" height="30px" preserveAspectRatio="xMaxYMin meet">
         <g id="arrow_out" transform="scale(0.3 0.3)">
          <a xlink:href="structo2_1_1header_1_1RAWDataHeaderV2__coll__graph_org.svg" target="_base">
           <rect id="button" ry="5" rx="5" y="6" x="6" height="38" width="38"
                fill="#f2f5e9" fill-opacity="0.5" stroke="#606060" stroke-width="1.0"/>
           <path id="arrow"
             d="M 11.500037,31.436501 C 11.940474,20.09759 22.043105,11.32322 32.158766,21.979434 L 37.068811,17.246167 C 37.068811,17.246167 37.088388,32 37.088388,32 L 22.160133,31.978069 C 22.160133,31.978069 26.997745,27.140456 26.997745,27.140456 C 18.528582,18.264221 13.291696,25.230495 11.500037,31.436501 z"
             style="fill:#404040;"/>
          </a>
         </g>
        </svg>
</svg>
