<?xml version="1.0" encoding="UTF-8" standalone="no"?>
<!DOCTYPE svg PUBLIC "-//W3C//DTD SVG 1.1//EN"
 "http://www.w3.org/Graphics/SVG/1.1/DTD/svg11.dtd">
<!-- Generated by graphviz version 2.40.1 (20161225.0304)
 -->
<!-- Title: o2::header::HeartbeatTrailer Pages: 1 -->
<svg width="231pt" height="259pt"
 viewBox="0.00 0.00 230.50 259.00" xmlns="http://www.w3.org/2000/svg" xmlns:xlink="http://www.w3.org/1999/xlink">
<g id="graph0" class="graph" transform="scale(1 1) rotate(0) translate(4 255)">
<title>o2::header::HeartbeatTrailer</title>
<!-- Node1 -->
<g id="node1" class="node">
<title>Node1</title>
<polygon fill="#bfbfbf" stroke="#000000" points="28,-.5 28,-68.5 181,-68.5 181,-.5 28,-.5"/>
<text text-anchor="middle" x="104.5" y="-56.5" font-family="Helvetica,sans-Serif" font-size="10.00" fill="#000000">o2::header::HeartbeatTrailer</text>
<polyline fill="none" stroke="#000000" points="28,-49.5 181,-49.5 "/>
<text text-anchor="middle" x="104.5" y="-37.5" font-family="Helvetica,sans-Serif" font-size="10.00" fill="#000000"> </text>
<polyline fill="none" stroke="#000000" points="28,-30.5 181,-30.5 "/>
<text text-anchor="start" x="36" y="-18.5" font-family="Helvetica,sans-Serif" font-size="10.00" fill="#000000">+ operator bool()</text>
<text text-anchor="start" x="36" y="-7.5" font-family="Helvetica,sans-Serif" font-size="10.00" fill="#000000">+ operator uint64_t()</text>
</g>
<!-- Node2 -->
<g id="node2" class="node">
<title>Node2</title>
<polygon fill="none" stroke="#bfbfbf" points="0,-193.5 0,-250.5 107,-250.5 107,-193.5 0,-193.5"/>
<text text-anchor="middle" x="53.5" y="-238.5" font-family="Helvetica,sans-Serif" font-size="10.00" fill="#000000">anonymous:+@84</text>
<polyline fill="none" stroke="#bfbfbf" points="0,-231.5 107,-231.5 "/>
<text text-anchor="middle" x="53.5" y="-219.5" font-family="Helvetica,sans-Serif" font-size="10.00" fill="#000000"> </text>
<polyline fill="none" stroke="#bfbfbf" points="0,-212.5 107,-212.5 "/>
<text text-anchor="middle" x="53.5" y="-200.5" font-family="Helvetica,sans-Serif" font-size="10.00" fill="#000000"> </text>
</g>
<!-- Node2&#45;&gt;Node1 -->
<g id="edge1" class="edge">
<title>Node2&#45;&gt;Node1</title>
<path fill="none" stroke="#404040" d="M61.357,-193.114C69.5301,-163.0657 82.4462,-115.5801 92.0181,-80.3892"/>
<polygon fill="none" stroke="#404040" points="92.1015,-80.0825 89.8165,-73.243 95.2511,-68.5032 97.5361,-75.3428 92.1015,-80.0825"/>
<text text-anchor="middle" x="106.5" y="-128.5" font-family="Helvetica,sans-Serif" font-size="10.00" fill="#000000"> +@84</text>
</g>
<!-- Node3 -->
<g id="node3" class="node">
<title>Node3</title>
<polygon fill="none" stroke="#bfbfbf" points="125,-193.5 125,-250.5 186,-250.5 186,-193.5 125,-193.5"/>
<text text-anchor="middle" x="155.5" y="-238.5" font-family="Helvetica,sans-Serif" font-size="10.00" fill="#000000">unsigned</text>
<polyline fill="none" stroke="#bfbfbf" points="125,-231.5 186,-231.5 "/>
<text text-anchor="middle" x="155.5" y="-219.5" font-family="Helvetica,sans-Serif" font-size="10.00" fill="#000000"> </text>
<polyline fill="none" stroke="#bfbfbf" points="125,-212.5 186,-212.5 "/>
<text text-anchor="middle" x="155.5" y="-200.5" font-family="Helvetica,sans-Serif" font-size="10.00" fill="#000000"> </text>
</g>
<!-- Node3&#45;&gt;Node1 -->
<g id="edge2" class="edge">
<title>Node3&#45;&gt;Node1</title>
<path fill="none" stroke="#404040" d="M151.3414,-193.374C146.9128,-165.7389 138.9542,-122.9175 127.5,-87 126.7442,-84.6299 125.9166,-82.222 125.0385,-79.8063"/>
<polygon fill="none" stroke="#404040" points="125.0104,-79.7342 119.1003,-75.6026 120.641,-68.558 126.5511,-72.6896 125.0104,-79.7342"/>
<text text-anchor="middle" x="185" y="-167" font-family="Helvetica,sans-Serif" font-size="10.00" fill="#000000"> +hbfTruncated</text>
<text text-anchor="middle" x="185" y="-156" font-family="Helvetica,sans-Serif" font-size="10.00" fill="#000000">+trailerWord</text>
<text text-anchor="middle" x="185" y="-145" font-family="Helvetica,sans-Serif" font-size="10.00" fill="#000000">+hbfStatus</text>
<text text-anchor="middle" x="185" y="-134" font-family="Helvetica,sans-Serif" font-size="10.00" fill="#000000">+trailerLength</text>
<text text-anchor="middle" x="185" y="-123" font-family="Helvetica,sans-Serif" font-size="10.00" fill="#000000">+hbAccept</text>
<text text-anchor="middle" x="185" y="-112" font-family="Helvetica,sans-Serif" font-size="10.00" fill="#000000">+status</text>
<text text-anchor="middle" x="185" y="-101" font-family="Helvetica,sans-Serif" font-size="10.00" fill="#000000">+blockType</text>
<text text-anchor="middle" x="185" y="-90" font-family="Helvetica,sans-Serif" font-size="10.00" fill="#000000">+dataLength</text>
</g>
</g>
</svg>
