<?xml version="1.0" encoding="UTF-8" standalone="no"?>
<!DOCTYPE svg PUBLIC "-//W3C//DTD SVG 1.1//EN"
 "http://www.w3.org/Graphics/SVG/1.1/DTD/svg11.dtd">
<!-- Generated by graphviz version 2.40.1 (20161225.0304)
 -->
<!-- Title: o2::framework::DataProcessingHeader Pages: 1 -->
<!--zoomable 1080 -->
<svg id="main" version="1.1" xmlns="http://www.w3.org/2000/svg" xmlns:xlink="http://www.w3.org/1999/xlink" xml:space="preserve" onload="init(evt)">
<style type="text/css"><![CDATA[
.edge:hover path { stroke: red; }
.edge:hover polygon { stroke: red; fill: red; }
]]></style>
<script type="text/javascript"><![CDATA[
var edges = document.getElementsByTagName('g');
if (edges && edges.length) {
  for (var i=0;i<edges.length;i++) {
    if (edges[i].id.substr(0,4)=='edge') {
      edges[i].setAttribute('class','edge');
    }
  }
}
]]></script>
        <defs>
                <circle id="rim" cx="0" cy="0" r="7"/>
                <circle id="rim2" cx="0" cy="0" r="3.5"/>
                <g id="zoomPlus">
                        <use xlink:href="#rim" fill="#404040">
                                <set attributeName="fill" to="#808080" begin="zoomplus.mouseover" end="zoomplus.mouseout"/>
                        </use>
                        <path d="M-4,0h8M0,-4v8" fill="none" stroke="white" stroke-width="1.5" pointer-events="none"/>
                </g>
                <g id="zoomMin">
                        <use xlink:href="#rim" fill="#404040">
                                <set attributeName="fill" to="#808080" begin="zoomminus.mouseover" end="zoomminus.mouseout"/>
                        </use>
                        <path d="M-4,0h8" fill="none" stroke="white" stroke-width="1.5" pointer-events="none"/>
                </g>
                <g id="dirArrow">
                        <path fill="none" stroke="white" stroke-width="1.5" d="M0,-3.0v7 M-2.5,-0.5L0,-3.0L2.5,-0.5"/>
                </g>
               <g id="resetDef">
                       <use xlink:href="#rim2" fill="#404040">
                               <set attributeName="fill" to="#808080" begin="reset.mouseover" end="reset.mouseout"/>
                       </use>
               </g>
        </defs>

<script type="text/javascript">
var viewWidth = 1001;
var viewHeight = 1080;
var sectionId = 'dynsection-1';
</script>
<script xlink:href="../../svgpan.js"/>
<svg id="graph" class="graph">
<g id="viewport">
<title>o2::framework::DataProcessingHeader</title>
<!-- Node2 -->
<g id="node1" class="node">
<title>Node2</title>
<polygon fill="#bfbfbf" stroke="#000000" points="640.4998,-.5 640.4998,-123.5 810.4998,-123.5 810.4998,-.5 640.4998,-.5"/>
<text text-anchor="start" x="648.4998" y="-111.5" font-family="Helvetica,sans-Serif" font-size="10.00" fill="#000000">o2::framework::DataProcessing</text>
<text text-anchor="middle" x="725.4998" y="-100.5" font-family="Helvetica,sans-Serif" font-size="10.00" fill="#000000">Header</text>
<polyline fill="none" stroke="#000000" points="640.4998,-93.5 810.4998,-93.5 "/>
<text text-anchor="middle" x="725.4998" y="-81.5" font-family="Helvetica,sans-Serif" font-size="10.00" fill="#000000"> </text>
<polyline fill="none" stroke="#000000" points="640.4998,-74.5 810.4998,-74.5 "/>
<text text-anchor="start" x="648.4998" y="-62.5" font-family="Helvetica,sans-Serif" font-size="10.00" fill="#000000">+ DataProcessingHeader()</text>
<text text-anchor="start" x="648.4998" y="-51.5" font-family="Helvetica,sans-Serif" font-size="10.00" fill="#000000">+ DataProcessingHeader()</text>
<text text-anchor="start" x="648.4998" y="-40.5" font-family="Helvetica,sans-Serif" font-size="10.00" fill="#000000">+ DataProcessingHeader()</text>
<text text-anchor="start" x="648.4998" y="-29.5" font-family="Helvetica,sans-Serif" font-size="10.00" fill="#000000">+ DataProcessingHeader()</text>
<text text-anchor="start" x="648.4998" y="-18.5" font-family="Helvetica,sans-Serif" font-size="10.00" fill="#000000">+ getCreationTime()</text>
<text text-anchor="start" x="648.4998" y="-7.5" font-family="Helvetica,sans-Serif" font-size="10.00" fill="#000000">+ Get()</text>
</g>
<!-- Node3 -->
<g id="node2" class="node">
<title>Node3</title>
<g id="a_node2"><a xlink:href="../../d8/dbd/structo2_1_1header_1_1BaseHeader.html" target="_top" xlink:title="the base header struct Every header type must begin (i.e. derive) with this. Don&#39;t use this struct di...">
<polygon fill="none" stroke="#000000" points="491.9998,-193.5 491.9998,-360.5 664.9998,-360.5 664.9998,-193.5 491.9998,-193.5"/>
<text text-anchor="middle" x="578.4998" y="-348.5" font-family="Helvetica,sans-Serif" font-size="10.00" fill="#000000">o2::header::BaseHeader</text>
<polyline fill="none" stroke="#000000" points="491.9998,-341.5 664.9998,-341.5 "/>
<text text-anchor="middle" x="578.4998" y="-329.5" font-family="Helvetica,sans-Serif" font-size="10.00" fill="#000000"> </text>
<polyline fill="none" stroke="#000000" points="491.9998,-322.5 664.9998,-322.5 "/>
<text text-anchor="start" x="499.9998" y="-310.5" font-family="Helvetica,sans-Serif" font-size="10.00" fill="#000000">+ BaseHeader()</text>
<text text-anchor="start" x="499.9998" y="-299.5" font-family="Helvetica,sans-Serif" font-size="10.00" fill="#000000">+ BaseHeader()</text>
<text text-anchor="start" x="499.9998" y="-288.5" font-family="Helvetica,sans-Serif" font-size="10.00" fill="#000000">+ BaseHeader()</text>
<text text-anchor="start" x="499.9998" y="-277.5" font-family="Helvetica,sans-Serif" font-size="10.00" fill="#000000">+ size()</text>
<text text-anchor="start" x="499.9998" y="-266.5" font-family="Helvetica,sans-Serif" font-size="10.00" fill="#000000">+ data()</text>
<text text-anchor="start" x="499.9998" y="-255.5" font-family="Helvetica,sans-Serif" font-size="10.00" fill="#000000">+ next()</text>
<text text-anchor="start" x="499.9998" y="-244.5" font-family="Helvetica,sans-Serif" font-size="10.00" fill="#000000">+ next()</text>
<text text-anchor="start" x="499.9998" y="-233.5" font-family="Helvetica,sans-Serif" font-size="10.00" fill="#000000">+ sanityCheck()</text>
<text text-anchor="start" x="499.9998" y="-222.5" font-family="Helvetica,sans-Serif" font-size="10.00" fill="#000000">+ throwInconsistentStackError()</text>
<text text-anchor="start" x="499.9998" y="-211.5" font-family="Helvetica,sans-Serif" font-size="10.00" fill="#000000">+ get()</text>
<text text-anchor="start" x="499.9998" y="-200.5" font-family="Helvetica,sans-Serif" font-size="10.00" fill="#000000">+ get()</text>
</a>
</g>
</g>
<!-- Node3&#45;&gt;Node2 -->
<g id="edge1" class="edge">
<title>Node3&#45;&gt;Node2</title>
<path fill="none" stroke="#191970" d="M641.5653,-184.7613C655.7093,-164.0745 670.3795,-142.6181 683.4231,-123.5407"/>
<polygon fill="none" stroke="#191970" points="638.5096,-183.0293 635.7547,-193.2598 644.2881,-186.9802 638.5096,-183.0293"/>
</g>
<!-- Node4 -->
<g id="node3" class="node">
<title>Node4</title>
<g id="a_node3"><a xlink:href="../../d9/db3/structo2_1_1header_1_1Descriptor.html" target="_top" xlink:title="{o2::header::Descriptor\l\&lt; gSizeHeaderDescriptionString \&gt;\n||+ Descriptor()\l+ Descriptor()\l+ Descriptor()\l+ Descriptor()\l+ operator=()\l+ operator ItgType()\l+ runtimeInit()\l+ operator==()\l+ operator==()\l+ operator\&lt;()\l+ operator!=()\l+ operator!=()\l+ as()\l+ print()\l}">
<polygon fill="none" stroke="#000000" points="281.9998,-463.5 281.9998,-674.5 466.9998,-674.5 466.9998,-463.5 281.9998,-463.5"/>
<text text-anchor="start" x="289.9998" y="-662.5" font-family="Helvetica,sans-Serif" font-size="10.00" fill="#000000">o2::header::Descriptor</text>
<text text-anchor="middle" x="374.4998" y="-651.5" font-family="Helvetica,sans-Serif" font-size="10.00" fill="#000000">&lt; gSizeHeaderDescriptionString &gt;</text>
<polyline fill="none" stroke="#000000" points="281.9998,-644.5 466.9998,-644.5 "/>
<text text-anchor="middle" x="374.4998" y="-632.5" font-family="Helvetica,sans-Serif" font-size="10.00" fill="#000000"> </text>
<polyline fill="none" stroke="#000000" points="281.9998,-625.5 466.9998,-625.5 "/>
<text text-anchor="start" x="289.9998" y="-613.5" font-family="Helvetica,sans-Serif" font-size="10.00" fill="#000000">+ Descriptor()</text>
<text text-anchor="start" x="289.9998" y="-602.5" font-family="Helvetica,sans-Serif" font-size="10.00" fill="#000000">+ Descriptor()</text>
<text text-anchor="start" x="289.9998" y="-591.5" font-family="Helvetica,sans-Serif" font-size="10.00" fill="#000000">+ Descriptor()</text>
<text text-anchor="start" x="289.9998" y="-580.5" font-family="Helvetica,sans-Serif" font-size="10.00" fill="#000000">+ Descriptor()</text>
<text text-anchor="start" x="289.9998" y="-569.5" font-family="Helvetica,sans-Serif" font-size="10.00" fill="#000000">+ operator=()</text>
<text text-anchor="start" x="289.9998" y="-558.5" font-family="Helvetica,sans-Serif" font-size="10.00" fill="#000000">+ operator ItgType()</text>
<text text-anchor="start" x="289.9998" y="-547.5" font-family="Helvetica,sans-Serif" font-size="10.00" fill="#000000">+ runtimeInit()</text>
<text text-anchor="start" x="289.9998" y="-536.5" font-family="Helvetica,sans-Serif" font-size="10.00" fill="#000000">+ operator==()</text>
<text text-anchor="start" x="289.9998" y="-525.5" font-family="Helvetica,sans-Serif" font-size="10.00" fill="#000000">+ operator==()</text>
<text text-anchor="start" x="289.9998" y="-514.5" font-family="Helvetica,sans-Serif" font-size="10.00" fill="#000000">+ operator&lt;()</text>
<text text-anchor="start" x="289.9998" y="-503.5" font-family="Helvetica,sans-Serif" font-size="10.00" fill="#000000">+ operator!=()</text>
<text text-anchor="start" x="289.9998" y="-492.5" font-family="Helvetica,sans-Serif" font-size="10.00" fill="#000000">+ operator!=()</text>
<text text-anchor="start" x="289.9998" y="-481.5" font-family="Helvetica,sans-Serif" font-size="10.00" fill="#000000">+ as()</text>
<text text-anchor="start" x="289.9998" y="-470.5" font-family="Helvetica,sans-Serif" font-size="10.00" fill="#000000">+ print()</text>
</a>
</g>
</g>
<!-- Node4&#45;&gt;Node3 -->
<g id="edge2" class="edge">
<title>Node4&#45;&gt;Node3</title>
<path fill="none" stroke="#404040" d="M411.2317,-463.2835C423.8345,-434.4862 439.6211,-404.2881 458.4998,-379 465.8131,-369.2037 474.2323,-359.7179 483.148,-350.7331"/>
<polygon fill="none" stroke="#404040" points="483.2319,-350.6513 484.7391,-343.5994 491.8282,-342.2784 490.321,-349.3303 483.2319,-350.6513"/>
<text text-anchor="middle" x="491.4998" y="-409.5" font-family="Helvetica,sans-Serif" font-size="10.00" fill="#000000"> +description</text>
</g>
<!-- Node5 -->
<g id="node4" class="node">
<title>Node5</title>
<polygon fill="none" stroke="#bfbfbf" points="558.9998,-1014.5 558.9998,-1071.5 597.9998,-1071.5 597.9998,-1014.5 558.9998,-1014.5"/>
<text text-anchor="middle" x="578.4998" y="-1059.5" font-family="Helvetica,sans-Serif" font-size="10.00" fill="#000000">Type</text>
<polyline fill="none" stroke="#bfbfbf" points="558.9998,-1052.5 597.9998,-1052.5 "/>
<text text-anchor="middle" x="578.4998" y="-1040.5" font-family="Helvetica,sans-Serif" font-size="10.00" fill="#000000"> </text>
<polyline fill="none" stroke="#bfbfbf" points="558.9998,-1033.5 597.9998,-1033.5 "/>
<text text-anchor="middle" x="578.4998" y="-1021.5" font-family="Helvetica,sans-Serif" font-size="10.00" fill="#000000"> </text>
</g>
<!-- Node5&#45;&gt;Node4 -->
<g id="edge3" class="edge">
<title>Node5&#45;&gt;Node4</title>
<path fill="none" stroke="#404040" d="M598.1476,-1034.0661C626.6713,-1019.8666 678.437,-989.1635 699.4998,-945 740.0601,-859.9548 755.3948,-808.8523 699.4998,-733 663.8906,-684.6766 628.7486,-707.4995 570.4998,-693 532.2197,-683.4712 515.9731,-693.5789 477.9673,-675.6548"/>
<polygon fill="none" stroke="#404040" points="477.9029,-675.6218 470.7385,-676.4419 467.226,-670.144 474.3904,-669.324 477.9029,-675.6218"/>
<text text-anchor="middle" x="747.9998" y="-836.5" font-family="Helvetica,sans-Serif" font-size="10.00" fill="#000000"> +itg</text>
</g>
<!-- Node9 -->
<g id="node8" class="node">
<title>Node9</title>
<g id="a_node8"><a xlink:href="../../d9/db3/structo2_1_1header_1_1Descriptor.html" target="_top" xlink:title="{o2::header::Descriptor\l\&lt; N, PrinterPolicy \&gt;\n||+ Descriptor()\l+ Descriptor()\l+ Descriptor()\l+ operator=()\l+ operator ItgType()\l+ Descriptor()\l+ runtimeInit()\l+ operator==()\l+ operator\&lt;()\l+ operator!=()\l+ operator==()\l+ operator!=()\l+ as()\l+ print()\l}">
<polygon fill="none" stroke="#000000" points="318.9998,-733.5 318.9998,-944.5 443.9998,-944.5 443.9998,-733.5 318.9998,-733.5"/>
<text text-anchor="start" x="326.9998" y="-932.5" font-family="Helvetica,sans-Serif" font-size="10.00" fill="#000000">o2::header::Descriptor</text>
<text text-anchor="middle" x="381.4998" y="-921.5" font-family="Helvetica,sans-Serif" font-size="10.00" fill="#000000">&lt; N, PrinterPolicy &gt;</text>
<polyline fill="none" stroke="#000000" points="318.9998,-914.5 443.9998,-914.5 "/>
<text text-anchor="middle" x="381.4998" y="-902.5" font-family="Helvetica,sans-Serif" font-size="10.00" fill="#000000"> </text>
<polyline fill="none" stroke="#000000" points="318.9998,-895.5 443.9998,-895.5 "/>
<text text-anchor="start" x="326.9998" y="-883.5" font-family="Helvetica,sans-Serif" font-size="10.00" fill="#000000">+ Descriptor()</text>
<text text-anchor="start" x="326.9998" y="-872.5" font-family="Helvetica,sans-Serif" font-size="10.00" fill="#000000">+ Descriptor()</text>
<text text-anchor="start" x="326.9998" y="-861.5" font-family="Helvetica,sans-Serif" font-size="10.00" fill="#000000">+ Descriptor()</text>
<text text-anchor="start" x="326.9998" y="-850.5" font-family="Helvetica,sans-Serif" font-size="10.00" fill="#000000">+ operator=()</text>
<text text-anchor="start" x="326.9998" y="-839.5" font-family="Helvetica,sans-Serif" font-size="10.00" fill="#000000">+ operator ItgType()</text>
<text text-anchor="start" x="326.9998" y="-828.5" font-family="Helvetica,sans-Serif" font-size="10.00" fill="#000000">+ Descriptor()</text>
<text text-anchor="start" x="326.9998" y="-817.5" font-family="Helvetica,sans-Serif" font-size="10.00" fill="#000000">+ runtimeInit()</text>
<text text-anchor="start" x="326.9998" y="-806.5" font-family="Helvetica,sans-Serif" font-size="10.00" fill="#000000">+ operator==()</text>
<text text-anchor="start" x="326.9998" y="-795.5" font-family="Helvetica,sans-Serif" font-size="10.00" fill="#000000">+ operator&lt;()</text>
<text text-anchor="start" x="326.9998" y="-784.5" font-family="Helvetica,sans-Serif" font-size="10.00" fill="#000000">+ operator!=()</text>
<text text-anchor="start" x="326.9998" y="-773.5" font-family="Helvetica,sans-Serif" font-size="10.00" fill="#000000">+ operator==()</text>
<text text-anchor="start" x="326.9998" y="-762.5" font-family="Helvetica,sans-Serif" font-size="10.00" fill="#000000">+ operator!=()</text>
<text text-anchor="start" x="326.9998" y="-751.5" font-family="Helvetica,sans-Serif" font-size="10.00" fill="#000000">+ as()</text>
<text text-anchor="start" x="326.9998" y="-740.5" font-family="Helvetica,sans-Serif" font-size="10.00" fill="#000000">+ print()</text>
</a>
</g>
</g>
<!-- Node5&#45;&gt;Node9 -->
<g id="edge8" class="edge">
<title>Node5&#45;&gt;Node9</title>
<path fill="none" stroke="#404040" d="M558.9156,-1029.4411C534.0256,-1011.686 490.4599,-978.8218 458.4998,-945 456.381,-942.7578 454.2706,-940.4557 452.1737,-938.1063"/>
<polygon fill="none" stroke="#404040" points="452.0093,-937.916 445.0596,-935.9918 444.1629,-928.8366 451.1125,-930.7608 452.0093,-937.916"/>
<text text-anchor="middle" x="524.9998" y="-977" font-family="Helvetica,sans-Serif" font-size="10.00" fill="#000000"> +itg</text>
</g>
<!-- Node10 -->
<g id="node9" class="node">
<title>Node10</title>
<g id="a_node9"><a xlink:href="../../d9/db3/structo2_1_1header_1_1Descriptor.html" target="_top" xlink:title="{o2::header::Descriptor\l\&lt; gSizeSerializationMethodString \&gt;\n||+ Descriptor()\l+ Descriptor()\l+ Descriptor()\l+ Descriptor()\l+ operator=()\l+ operator ItgType()\l+ runtimeInit()\l+ operator==()\l+ operator==()\l+ operator\&lt;()\l+ operator!=()\l+ operator!=()\l+ as()\l+ print()\l}">
<polygon fill="none" stroke="#000000" points="72.9998,-463.5 72.9998,-674.5 263.9998,-674.5 263.9998,-463.5 72.9998,-463.5"/>
<text text-anchor="start" x="80.9998" y="-662.5" font-family="Helvetica,sans-Serif" font-size="10.00" fill="#000000">o2::header::Descriptor</text>
<text text-anchor="middle" x="168.4998" y="-651.5" font-family="Helvetica,sans-Serif" font-size="10.00" fill="#000000">&lt; gSizeSerializationMethodString &gt;</text>
<polyline fill="none" stroke="#000000" points="72.9998,-644.5 263.9998,-644.5 "/>
<text text-anchor="middle" x="168.4998" y="-632.5" font-family="Helvetica,sans-Serif" font-size="10.00" fill="#000000"> </text>
<polyline fill="none" stroke="#000000" points="72.9998,-625.5 263.9998,-625.5 "/>
<text text-anchor="start" x="80.9998" y="-613.5" font-family="Helvetica,sans-Serif" font-size="10.00" fill="#000000">+ Descriptor()</text>
<text text-anchor="start" x="80.9998" y="-602.5" font-family="Helvetica,sans-Serif" font-size="10.00" fill="#000000">+ Descriptor()</text>
<text text-anchor="start" x="80.9998" y="-591.5" font-family="Helvetica,sans-Serif" font-size="10.00" fill="#000000">+ Descriptor()</text>
<text text-anchor="start" x="80.9998" y="-580.5" font-family="Helvetica,sans-Serif" font-size="10.00" fill="#000000">+ Descriptor()</text>
<text text-anchor="start" x="80.9998" y="-569.5" font-family="Helvetica,sans-Serif" font-size="10.00" fill="#000000">+ operator=()</text>
<text text-anchor="start" x="80.9998" y="-558.5" font-family="Helvetica,sans-Serif" font-size="10.00" fill="#000000">+ operator ItgType()</text>
<text text-anchor="start" x="80.9998" y="-547.5" font-family="Helvetica,sans-Serif" font-size="10.00" fill="#000000">+ runtimeInit()</text>
<text text-anchor="start" x="80.9998" y="-536.5" font-family="Helvetica,sans-Serif" font-size="10.00" fill="#000000">+ operator==()</text>
<text text-anchor="start" x="80.9998" y="-525.5" font-family="Helvetica,sans-Serif" font-size="10.00" fill="#000000">+ operator==()</text>
<text text-anchor="start" x="80.9998" y="-514.5" font-family="Helvetica,sans-Serif" font-size="10.00" fill="#000000">+ operator&lt;()</text>
<text text-anchor="start" x="80.9998" y="-503.5" font-family="Helvetica,sans-Serif" font-size="10.00" fill="#000000">+ operator!=()</text>
<text text-anchor="start" x="80.9998" y="-492.5" font-family="Helvetica,sans-Serif" font-size="10.00" fill="#000000">+ operator!=()</text>
<text text-anchor="start" x="80.9998" y="-481.5" font-family="Helvetica,sans-Serif" font-size="10.00" fill="#000000">+ as()</text>
<text text-anchor="start" x="80.9998" y="-470.5" font-family="Helvetica,sans-Serif" font-size="10.00" fill="#000000">+ print()</text>
</a>
</g>
</g>
<!-- Node5&#45;&gt;Node10 -->
<g id="edge14" class="edge">
<title>Node5&#45;&gt;Node10</title>
<path fill="none" stroke="#404040" d="M577.3116,-1014.2714C574.0404,-941.4461 563.9018,-753.8907 545.4998,-733 522.5551,-706.9523 502.9865,-724.1423 469.4998,-715 437.6304,-706.2993 430.7307,-700.2476 398.4998,-693 346.8666,-681.3894 325.7412,-698.1017 275.1973,-675.7209"/>
<polygon fill="none" stroke="#404040" points="275.1385,-675.6929 268,-676.7135 264.3124,-670.5166 271.4509,-669.496 275.1385,-675.6929"/>
<text text-anchor="middle" x="585.9998" y="-836.5" font-family="Helvetica,sans-Serif" font-size="10.00" fill="#000000"> +itg</text>
</g>
<!-- Node6 -->
<g id="node5" class="node">
<title>Node6</title>
<polygon fill="none" stroke="#bfbfbf" points="85.4998,-1014.5 85.4998,-1071.5 123.4998,-1071.5 123.4998,-1014.5 85.4998,-1014.5"/>
<text text-anchor="middle" x="104.4998" y="-1059.5" font-family="Helvetica,sans-Serif" font-size="10.00" fill="#000000">char</text>
<polyline fill="none" stroke="#bfbfbf" points="85.4998,-1052.5 123.4998,-1052.5 "/>
<text text-anchor="middle" x="104.4998" y="-1040.5" font-family="Helvetica,sans-Serif" font-size="10.00" fill="#000000"> </text>
<polyline fill="none" stroke="#bfbfbf" points="85.4998,-1033.5 123.4998,-1033.5 "/>
<text text-anchor="middle" x="104.4998" y="-1021.5" font-family="Helvetica,sans-Serif" font-size="10.00" fill="#000000"> </text>
</g>
<!-- Node6&#45;&gt;Node3 -->
<g id="edge12" class="edge">
<title>Node6&#45;&gt;Node3</title>
<path fill="none" stroke="#404040" d="M90.3686,-1014.4792C47.0452,-922.5257 -72.947,-630.1515 63.4998,-463 117.1117,-397.3237 346.0245,-332.8723 479.9321,-299.8217"/>
<polygon fill="none" stroke="#404040" points="480.1344,-299.7722 485.0098,-294.459 491.7895,-296.9159 486.914,-302.2291 480.1344,-299.7722"/>
<text text-anchor="middle" x="37.4998" y="-701.5" font-family="Helvetica,sans-Serif" font-size="10.00" fill="#000000"> +magicString</text>
</g>
<!-- Node6&#45;&gt;Node4 -->
<g id="edge4" class="edge">
<title>Node6&#45;&gt;Node4</title>
<path fill="none" stroke="#404040" d="M123.8114,-1025.6041C142.5346,-1007.4802 170.0254,-977.2653 183.4998,-945 201.7704,-901.2497 175.0878,-767.603 207.4998,-733 238.3713,-700.0416 271.8061,-742.6636 307.4998,-715 318.1555,-706.7415 327.176,-696.3961 334.7989,-685.0464"/>
<polygon fill="none" stroke="#404040" points="334.8078,-685.032 334.5789,-677.8245 341.1439,-674.8411 341.3728,-682.0486 334.8078,-685.032"/>
<text text-anchor="middle" x="219.9998" y="-836.5" font-family="Helvetica,sans-Serif" font-size="10.00" fill="#000000"> +str</text>
</g>
<!-- Node6&#45;&gt;Node9 -->
<g id="edge9" class="edge">
<title>Node6&#45;&gt;Node9</title>
<path fill="none" stroke="#404040" d="M123.7425,-1033.2148C153.8511,-1017.9547 213.9886,-987.6787 265.4998,-963 282.7163,-954.7516 289.7458,-957.1147 304.4998,-945 306.3456,-943.4844 308.1695,-941.9148 309.9702,-940.2982"/>
<polygon fill="none" stroke="#404040" points="310.1131,-940.1611 311.6753,-933.1212 318.7745,-931.8556 317.2123,-938.8955 310.1131,-940.1611"/>
<text text-anchor="middle" x="277.9998" y="-977" font-family="Helvetica,sans-Serif" font-size="10.00" fill="#000000"> +str</text>
</g>
<!-- Node6&#45;&gt;Node10 -->
<g id="edge15" class="edge">
<title>Node6&#45;&gt;Node10</title>
<path fill="none" stroke="#404040" d="M97.8182,-1014.3304C86.0766,-959.0761 65.0997,-834.3433 88.4998,-733 92.1129,-717.3519 97.4323,-701.47 103.6404,-686.0606"/>
<polygon fill="none" stroke="#404040" points="103.6657,-686.0001 102.2972,-678.9201 108.3063,-674.9337 109.6748,-682.0138 103.6657,-686.0001"/>
<text text-anchor="middle" x="100.9998" y="-836.5" font-family="Helvetica,sans-Serif" font-size="10.00" fill="#000000"> +str</text>
</g>
<!-- Node7 -->
<g id="node6" class="node">
<title>Node7</title>
<polygon fill="none" stroke="#bfbfbf" points="465.9998,-1014.5 465.9998,-1071.5 494.9998,-1071.5 494.9998,-1014.5 465.9998,-1014.5"/>
<text text-anchor="middle" x="480.4998" y="-1059.5" font-family="Helvetica,sans-Serif" font-size="10.00" fill="#000000">int</text>
<polyline fill="none" stroke="#bfbfbf" points="465.9998,-1052.5 494.9998,-1052.5 "/>
<text text-anchor="middle" x="480.4998" y="-1040.5" font-family="Helvetica,sans-Serif" font-size="10.00" fill="#000000"> </text>
<polyline fill="none" stroke="#bfbfbf" points="465.9998,-1033.5 494.9998,-1033.5 "/>
<text text-anchor="middle" x="480.4998" y="-1021.5" font-family="Helvetica,sans-Serif" font-size="10.00" fill="#000000"> </text>
</g>
<!-- Node7&#45;&gt;Node4 -->
<g id="edge5" class="edge">
<title>Node7&#45;&gt;Node4</title>
<path fill="none" stroke="#404040" d="M495.0252,-1036.7411C522.3322,-1024.0662 580.6274,-992.4728 603.4998,-945 644.3968,-860.1162 652.8328,-813.275 603.4998,-733 582.8941,-699.4702 560.5875,-708.7008 524.4998,-693 506.134,-685.0096 497.4156,-686.8876 477.6061,-675.6976"/>
<polygon fill="none" stroke="#404040" points="477.4819,-675.6208 470.2749,-675.8653 467.2774,-669.3067 474.4843,-669.0623 477.4819,-675.6208"/>
<text text-anchor="middle" x="666.4998" y="-847.5" font-family="Helvetica,sans-Serif" font-size="10.00" fill="#000000"> +arraySize</text>
<text text-anchor="middle" x="666.4998" y="-836.5" font-family="Helvetica,sans-Serif" font-size="10.00" fill="#000000">+size</text>
<text text-anchor="middle" x="666.4998" y="-825.5" font-family="Helvetica,sans-Serif" font-size="10.00" fill="#000000">+bitcount</text>
</g>
<!-- Node7&#45;&gt;Node9 -->
<g id="edge10" class="edge">
<title>Node7&#45;&gt;Node9</title>
<path fill="none" stroke="#404040" d="M465.7077,-1037.5865C448.9763,-1030.6498 422.2724,-1016.9579 408.4998,-996 400.668,-984.0823 394.8958,-970.5963 390.6712,-956.6571"/>
<polygon fill="none" stroke="#404040" points="390.6146,-956.4481 385.1842,-951.7035 387.4753,-944.866 392.9056,-949.6106 390.6146,-956.4481"/>
<text text-anchor="middle" x="437.4998" y="-988" font-family="Helvetica,sans-Serif" font-size="10.00" fill="#000000"> +arraySize</text>
<text text-anchor="middle" x="437.4998" y="-977" font-family="Helvetica,sans-Serif" font-size="10.00" fill="#000000">+size</text>
<text text-anchor="middle" x="437.4998" y="-966" font-family="Helvetica,sans-Serif" font-size="10.00" fill="#000000">+bitcount</text>
</g>
<!-- Node7&#45;&gt;Node10 -->
<g id="edge16" class="edge">
<title>Node7&#45;&gt;Node10</title>
<path fill="none" stroke="#404040" d="M481.7507,-1014.4336C484.1506,-946.1892 486.474,-776.1462 452.4998,-733 418.2416,-689.4932 387.3249,-709.6126 334.4998,-693 310.3357,-685.4008 299.711,-688.6636 274.9464,-675.8118"/>
<polygon fill="none" stroke="#404040" points="274.7191,-675.6834 267.5275,-676.2135 264.2722,-669.7789 271.4638,-669.2489 274.7191,-675.6834"/>
<text text-anchor="middle" x="512.4998" y="-847.5" font-family="Helvetica,sans-Serif" font-size="10.00" fill="#000000"> +arraySize</text>
<text text-anchor="middle" x="512.4998" y="-836.5" font-family="Helvetica,sans-Serif" font-size="10.00" fill="#000000">+size</text>
<text text-anchor="middle" x="512.4998" y="-825.5" font-family="Helvetica,sans-Serif" font-size="10.00" fill="#000000">+bitcount</text>
</g>
<!-- Node8 -->
<g id="node7" class="node">
<title>Node8</title>
<polygon fill="none" stroke="#bfbfbf" points="212.9998,-1014.5 212.9998,-1071.5 319.9998,-1071.5 319.9998,-1014.5 212.9998,-1014.5"/>
<text text-anchor="middle" x="266.4998" y="-1059.5" font-family="Helvetica,sans-Serif" font-size="10.00" fill="#000000">anonymous:+@72</text>
<polyline fill="none" stroke="#bfbfbf" points="212.9998,-1052.5 319.9998,-1052.5 "/>
<text text-anchor="middle" x="266.4998" y="-1040.5" font-family="Helvetica,sans-Serif" font-size="10.00" fill="#000000"> </text>
<polyline fill="none" stroke="#bfbfbf" points="212.9998,-1033.5 319.9998,-1033.5 "/>
<text text-anchor="middle" x="266.4998" y="-1021.5" font-family="Helvetica,sans-Serif" font-size="10.00" fill="#000000"> </text>
</g>
<!-- Node8&#45;&gt;Node4 -->
<g id="edge6" class="edge">
<title>Node8&#45;&gt;Node4</title>
<path fill="none" stroke="#404040" d="M257.2989,-1014.1519C240.2704,-954.6715 211.1195,-816.957 275.4998,-733 292.4412,-710.907 316.1151,-734.9837 335.4998,-715 343.6344,-706.614 350.1191,-696.7277 355.2817,-686.1169"/>
<polygon fill="none" stroke="#404040" points="355.4059,-685.8316 354.134,-678.7336 360.1968,-674.8295 361.4687,-681.9275 355.4059,-685.8316"/>
<text text-anchor="middle" x="292.4998" y="-836.5" font-family="Helvetica,sans-Serif" font-size="10.00" fill="#000000"> +@72</text>
</g>
<!-- Node8&#45;&gt;Node9 -->
<g id="edge11" class="edge">
<title>Node8&#45;&gt;Node9</title>
<path fill="none" stroke="#404040" d="M282.7326,-1014.2045C291.7654,-998.1809 303.67,-977.0632 316.0763,-955.0555"/>
<polygon fill="none" stroke="#404040" points="316.1061,-955.0026 315.5681,-947.8115 321.9991,-944.5491 322.5371,-951.7401 316.1061,-955.0026"/>
<text text-anchor="middle" x="327.4998" y="-977" font-family="Helvetica,sans-Serif" font-size="10.00" fill="#000000"> +@72</text>
</g>
<!-- Node8&#45;&gt;Node10 -->
<g id="edge17" class="edge">
<title>Node8&#45;&gt;Node10</title>
<path fill="none" stroke="#404040" d="M245.7256,-1014.4943C232.3346,-997.7224 213.6924,-977.1045 193.4998,-963 176.1783,-950.901 161.2767,-962.5421 149.4998,-945 122.0303,-904.0833 133.5163,-780.9012 147.595,-686.5707"/>
<polygon fill="none" stroke="#404040" points="147.6061,-686.4975 144.5551,-679.9636 149.4129,-674.6343 152.4639,-681.1681 147.6061,-686.4975"/>
<text text-anchor="middle" x="166.4998" y="-836.5" font-family="Helvetica,sans-Serif" font-size="10.00" fill="#000000"> +@72</text>
</g>
<!-- Node9&#45;&gt;Node4 -->
<g id="edge7" class="edge">
<title>Node9&#45;&gt;Node4</title>
<path fill="none" stroke="#ffa500" d="M388.2377,-723.1336C388.2319,-712.9414 388.0113,-702.7853 387.4998,-693 387.189,-687.0555 386.795,-680.9573 386.3392,-674.8069"/>
<polygon fill="#ffa500" stroke="#ffa500" points="384.7367,-723.3041 388.1747,-733.3256 391.7365,-723.3474 384.7367,-723.3041"/>
<text text-anchor="start" x="388.4998" y="-707" font-family="Helvetica,sans-Serif" font-size="10.00" fill="#000000"> &lt; gSizeHeaderDescription</text>
<text text-anchor="middle" x="454.4998" y="-696" font-family="Helvetica,sans-Serif" font-size="10.00" fill="#000000">String &gt;</text>
</g>
<!-- Node9&#45;&gt;Node10 -->
<g id="edge18" class="edge">
<title>Node9&#45;&gt;Node10</title>
<path fill="none" stroke="#ffa500" d="M310.9703,-737.3371C308.8573,-735.8101 306.7003,-734.3609 304.4998,-733 263.1125,-707.4052 231.3251,-748.9882 196.4998,-715 185.1404,-703.9137 177.6229,-689.728 172.757,-674.5719"/>
<polygon fill="#ffa500" stroke="#ffa500" points="308.8814,-740.1471 318.9012,-743.5904 313.2156,-734.6503 308.8814,-740.1471"/>
<text text-anchor="start" x="196.4998" y="-707" font-family="Helvetica,sans-Serif" font-size="10.00" fill="#000000"> &lt; gSizeSerializationMethod</text>
<text text-anchor="middle" x="265.4998" y="-696" font-family="Helvetica,sans-Serif" font-size="10.00" fill="#000000">String &gt;</text>
</g>
<!-- Node10&#45;&gt;Node3 -->
<g id="edge13" class="edge">
<title>Node10&#45;&gt;Node3</title>
<path fill="none" stroke="#404040" d="M253.0476,-463.0324C280.3456,-433.2546 312.2168,-402.5966 345.4998,-379 386.5084,-349.9261 437.1202,-326.5396 480.6849,-309.5315"/>
<polygon fill="none" stroke="#404040" points="480.6858,-309.5313 484.8562,-303.6484 491.8905,-305.2354 487.7201,-311.1182 480.6858,-309.5313"/>
<text text-anchor="middle" x="381.4998" y="-409.5" font-family="Helvetica,sans-Serif" font-size="10.00" fill="#000000"> +serialization</text>
</g>
<!-- Node11 -->
<g id="node10" class="node">
<title>Node11</title>
<g id="a_node10"><a xlink:href="../../d2/d5f/classunsigned_01int.html" target="_top" xlink:title="{unsigned int\n||}">
<polygon fill="none" stroke="#000000" points="484.9998,-540.5 484.9998,-597.5 561.9998,-597.5 561.9998,-540.5 484.9998,-540.5"/>
<text text-anchor="middle" x="523.4998" y="-585.5" font-family="Helvetica,sans-Serif" font-size="10.00" fill="#000000">unsigned int</text>
<polyline fill="none" stroke="#000000" points="484.9998,-578.5 561.9998,-578.5 "/>
<text text-anchor="middle" x="523.4998" y="-566.5" font-family="Helvetica,sans-Serif" font-size="10.00" fill="#000000"> </text>
<polyline fill="none" stroke="#000000" points="484.9998,-559.5 561.9998,-559.5 "/>
<text text-anchor="middle" x="523.4998" y="-547.5" font-family="Helvetica,sans-Serif" font-size="10.00" fill="#000000"> </text>
</a>
</g>
</g>
<!-- Node11&#45;&gt;Node3 -->
<g id="edge19" class="edge">
<title>Node11&#45;&gt;Node3</title>
<path fill="none" stroke="#404040" d="M522.887,-540.2627C522.7032,-502.6911 524.4985,-435.0637 537.4998,-379 538.0033,-376.8285 538.5463,-374.6429 539.124,-372.4488"/>
<polygon fill="none" stroke="#404040" points="539.1958,-372.1996 537.0135,-365.3266 542.5185,-360.6688 544.7007,-367.5418 539.1958,-372.1996"/>
<text text-anchor="middle" x="574.4998" y="-409.5" font-family="Helvetica,sans-Serif" font-size="10.00" fill="#000000"> +sMagicString</text>
</g>
<!-- Node12 -->
<g id="node11" class="node">
<title>Node12</title>
<polygon fill="none" stroke="#bfbfbf" points="579.9998,-540.5 579.9998,-597.5 686.9998,-597.5 686.9998,-540.5 579.9998,-540.5"/>
<text text-anchor="middle" x="633.4998" y="-585.5" font-family="Helvetica,sans-Serif" font-size="10.00" fill="#000000">anonymous:+@74</text>
<polyline fill="none" stroke="#bfbfbf" points="579.9998,-578.5 686.9998,-578.5 "/>
<text text-anchor="middle" x="633.4998" y="-566.5" font-family="Helvetica,sans-Serif" font-size="10.00" fill="#000000"> </text>
<polyline fill="none" stroke="#bfbfbf" points="579.9998,-559.5 686.9998,-559.5 "/>
<text text-anchor="middle" x="633.4998" y="-547.5" font-family="Helvetica,sans-Serif" font-size="10.00" fill="#000000"> </text>
</g>
<!-- Node12&#45;&gt;Node3 -->
<g id="edge20" class="edge">
<title>Node12&#45;&gt;Node3</title>
<path fill="none" stroke="#404040" d="M631.9526,-540.3848C629.5273,-502.9451 623.7754,-435.4602 611.4998,-379 611.0308,-376.8431 610.5345,-374.6672 610.0144,-372.4786"/>
<polygon fill="none" stroke="#404040" points="609.9747,-372.3217 604.6228,-367.4888 607.0256,-360.6897 612.3775,-365.5227 609.9747,-372.3217"/>
<text text-anchor="middle" x="639.4998" y="-409.5" font-family="Helvetica,sans-Serif" font-size="10.00" fill="#000000"> +@74</text>
</g>
<!-- Node13 -->
<g id="node12" class="node">
<title>Node13</title>
<polygon fill="none" stroke="#bfbfbf" points="704.9998,-540.5 704.9998,-597.5 765.9998,-597.5 765.9998,-540.5 704.9998,-540.5"/>
<text text-anchor="middle" x="735.4998" y="-585.5" font-family="Helvetica,sans-Serif" font-size="10.00" fill="#000000">unsigned</text>
<polyline fill="none" stroke="#bfbfbf" points="704.9998,-578.5 765.9998,-578.5 "/>
<text text-anchor="middle" x="735.4998" y="-566.5" font-family="Helvetica,sans-Serif" font-size="10.00" fill="#000000"> </text>
<polyline fill="none" stroke="#bfbfbf" points="704.9998,-559.5 765.9998,-559.5 "/>
<text text-anchor="middle" x="735.4998" y="-547.5" font-family="Helvetica,sans-Serif" font-size="10.00" fill="#000000"> </text>
</g>
<!-- Node13&#45;&gt;Node3 -->
<g id="edge21" class="edge">
<title>Node13&#45;&gt;Node3</title>
<path fill="none" stroke="#404040" d="M725.3902,-540.142C709.1305,-494.3372 677.2966,-407.2798 660.4998,-379 658.8436,-376.2117 657.1173,-373.4172 655.3336,-370.6259"/>
<polygon fill="none" stroke="#404040" points="655.2828,-370.5491 648.6325,-367.761 648.6483,-360.5499 655.2986,-363.338 655.2828,-370.5491"/>
<text text-anchor="middle" x="734.9998" y="-437" font-family="Helvetica,sans-Serif" font-size="10.00" fill="#000000"> +headerVersion</text>
<text text-anchor="middle" x="734.9998" y="-426" font-family="Helvetica,sans-Serif" font-size="10.00" fill="#000000">+headerSize</text>
<text text-anchor="middle" x="734.9998" y="-415" font-family="Helvetica,sans-Serif" font-size="10.00" fill="#000000">+flagsNextHeader</text>
<text text-anchor="middle" x="734.9998" y="-404" font-family="Helvetica,sans-Serif" font-size="10.00" fill="#000000">+magicStringInt</text>
<text text-anchor="middle" x="734.9998" y="-393" font-family="Helvetica,sans-Serif" font-size="10.00" fill="#000000">+flagsUnused</text>
<text text-anchor="middle" x="734.9998" y="-382" font-family="Helvetica,sans-Serif" font-size="10.00" fill="#000000">+flags</text>
</g>
<!-- Node14 -->
<g id="node13" class="node">
<title>Node14</title>
<polygon fill="none" stroke="#bfbfbf" points="783.9998,-540.5 783.9998,-597.5 826.9998,-597.5 826.9998,-540.5 783.9998,-540.5"/>
<text text-anchor="middle" x="805.4998" y="-585.5" font-family="Helvetica,sans-Serif" font-size="10.00" fill="#000000">const</text>
<polyline fill="none" stroke="#bfbfbf" points="783.9998,-578.5 826.9998,-578.5 "/>
<text text-anchor="middle" x="805.4998" y="-566.5" font-family="Helvetica,sans-Serif" font-size="10.00" fill="#000000"> </text>
<polyline fill="none" stroke="#bfbfbf" points="783.9998,-559.5 826.9998,-559.5 "/>
<text text-anchor="middle" x="805.4998" y="-547.5" font-family="Helvetica,sans-Serif" font-size="10.00" fill="#000000"> </text>
</g>
<!-- Node14&#45;&gt;Node3 -->
<g id="edge22" class="edge">
<title>Node14&#45;&gt;Node3</title>
<path fill="none" stroke="#404040" d="M806.2333,-540.3071C806.8023,-492.9775 804.9903,-401.5234 783.4998,-379 751.7731,-345.7485 722.7583,-376.9828 676.3776,-361.302"/>
<polygon fill="none" stroke="#404040" points="676.3188,-361.278 669.2505,-362.7063 665.2136,-356.7311 672.2818,-355.3028 676.3188,-361.278"/>
<text text-anchor="middle" x="856.9998" y="-420.5" font-family="Helvetica,sans-Serif" font-size="10.00" fill="#000000"> +sHeaderType</text>
<text text-anchor="middle" x="856.9998" y="-409.5" font-family="Helvetica,sans-Serif" font-size="10.00" fill="#000000">+sSerializationMethod</text>
<text text-anchor="middle" x="856.9998" y="-398.5" font-family="Helvetica,sans-Serif" font-size="10.00" fill="#000000">+sVersion</text>
</g>
<!-- Node15 -->
<g id="node14" class="node">
<title>Node15</title>
<polygon fill="none" stroke="#bfbfbf" points="885.9998,-540.5 885.9998,-597.5 992.9998,-597.5 992.9998,-540.5 885.9998,-540.5"/>
<text text-anchor="middle" x="939.4998" y="-585.5" font-family="Helvetica,sans-Serif" font-size="10.00" fill="#000000">anonymous:+@76</text>
<polyline fill="none" stroke="#bfbfbf" points="885.9998,-578.5 992.9998,-578.5 "/>
<text text-anchor="middle" x="939.4998" y="-566.5" font-family="Helvetica,sans-Serif" font-size="10.00" fill="#000000"> </text>
<polyline fill="none" stroke="#bfbfbf" points="885.9998,-559.5 992.9998,-559.5 "/>
<text text-anchor="middle" x="939.4998" y="-547.5" font-family="Helvetica,sans-Serif" font-size="10.00" fill="#000000"> </text>
</g>
<!-- Node15&#45;&gt;Node3 -->
<g id="edge23" class="edge">
<title>Node15&#45;&gt;Node3</title>
<path fill="none" stroke="#404040" d="M945.936,-540.3243C953.4877,-498.3109 960.0034,-420.5252 916.4998,-379 879.7026,-343.8763 741.6148,-377.4257 676.6645,-360.9123"/>
<polygon fill="none" stroke="#404040" points="676.4541,-360.8426 669.4998,-362.7497 665.0646,-357.0638 672.0189,-355.1567 676.4541,-360.8426"/>
<text text-anchor="middle" x="964.4998" y="-409.5" font-family="Helvetica,sans-Serif" font-size="10.00" fill="#000000"> +@76</text>
</g>
<!-- Node16 -->
<g id="node15" class="node">
<title>Node16</title>
<polygon fill="none" stroke="#bfbfbf" points="682.9998,-248.5 682.9998,-305.5 767.9998,-305.5 767.9998,-248.5 682.9998,-248.5"/>
<text text-anchor="middle" x="725.4998" y="-293.5" font-family="Helvetica,sans-Serif" font-size="10.00" fill="#000000">unsigned long</text>
<polyline fill="none" stroke="#bfbfbf" points="682.9998,-286.5 767.9998,-286.5 "/>
<text text-anchor="middle" x="725.4998" y="-274.5" font-family="Helvetica,sans-Serif" font-size="10.00" fill="#000000"> </text>
<polyline fill="none" stroke="#bfbfbf" points="682.9998,-267.5 767.9998,-267.5 "/>
<text text-anchor="middle" x="725.4998" y="-255.5" font-family="Helvetica,sans-Serif" font-size="10.00" fill="#000000"> </text>
</g>
<!-- Node16&#45;&gt;Node2 -->
<g id="edge24" class="edge">
<title>Node16&#45;&gt;Node2</title>
<path fill="none" stroke="#404040" d="M725.4998,-248.4497C725.4998,-219.8369 725.4998,-174.5935 725.4998,-135.8408"/>
<polygon fill="none" stroke="#404040" points="725.4999,-135.7825 721.4998,-129.7825 725.4998,-123.7825 729.4998,-129.7825 725.4999,-135.7825"/>
<text text-anchor="middle" x="753.4998" y="-167" font-family="Helvetica,sans-Serif" font-size="10.00" fill="#000000"> +duration</text>
<text text-anchor="middle" x="753.4998" y="-156" font-family="Helvetica,sans-Serif" font-size="10.00" fill="#000000">+startTime</text>
<text text-anchor="middle" x="753.4998" y="-145" font-family="Helvetica,sans-Serif" font-size="10.00" fill="#000000">+creation</text>
</g>
<!-- Node17 -->
<g id="node16" class="node">
<title>Node17</title>
<polygon fill="none" stroke="#bfbfbf" points="786.4998,-248.5 786.4998,-305.5 830.4998,-305.5 830.4998,-248.5 786.4998,-248.5"/>
<text text-anchor="middle" x="808.4998" y="-293.5" font-family="Helvetica,sans-Serif" font-size="10.00" fill="#000000">static</text>
<polyline fill="none" stroke="#bfbfbf" points="786.4998,-286.5 830.4998,-286.5 "/>
<text text-anchor="middle" x="808.4998" y="-274.5" font-family="Helvetica,sans-Serif" font-size="10.00" fill="#000000"> </text>
<polyline fill="none" stroke="#bfbfbf" points="786.4998,-267.5 830.4998,-267.5 "/>
<text text-anchor="middle" x="808.4998" y="-255.5" font-family="Helvetica,sans-Serif" font-size="10.00" fill="#000000"> </text>
</g>
<!-- Node17&#45;&gt;Node2 -->
<g id="edge25" class="edge">
<title>Node17&#45;&gt;Node2</title>
<path fill="none" stroke="#404040" d="M807.5281,-248.4996C805.6894,-220.3943 800.4338,-176.7277 785.4998,-142 784.3713,-139.3759 783.1401,-136.7587 781.8239,-134.1582"/>
<polygon fill="none" stroke="#404040" points="781.7863,-134.0901 775.3828,-130.7742 775.9807,-123.5879 782.3842,-126.9038 781.7863,-134.0901"/>
<text text-anchor="middle" x="832.9998" y="-161.5" font-family="Helvetica,sans-Serif" font-size="10.00" fill="#000000"> +sHeaderType</text>
<text text-anchor="middle" x="832.9998" y="-150.5" font-family="Helvetica,sans-Serif" font-size="10.00" fill="#000000">+sVersion</text>
</g>
</g>
</svg>
        <g id="navigator" transform="translate(0 0)" fill="#404254">
                <rect fill="#f2f5e9" fill-opacity="0.5" stroke="#606060" stroke-width=".5" x="0" y="0" width="60" height="60"/>
                <use id="zoomplus" xlink:href="#zoomPlus" x="17" y="9" onmousedown="handleZoom(evt,'in')"/>
                <use id="zoomminus" xlink:href="#zoomMin" x="42" y="9" onmousedown="handleZoom(evt,'out')"/>
                <use id="reset" xlink:href="#resetDef" x="30" y="36" onmousedown="handleReset()"/>
                <g id="arrowUp" xlink:href="#dirArrow" transform="translate(30 24)" onmousedown="handlePan(0,-1)">
                  <use xlink:href="#rim" fill="#404040">
                        <set attributeName="fill" to="#808080" begin="arrowUp.mouseover" end="arrowUp.mouseout"/>
                  </use>
                  <path fill="none" stroke="white" stroke-width="1.5" d="M0,-3.0v7 M-2.5,-0.5L0,-3.0L2.5,-0.5"/>
                </g>
                <g id="arrowRight" xlink:href="#dirArrow" transform="rotate(90) translate(36 -43)" onmousedown="handlePan(1,0)">
                  <use xlink:href="#rim" fill="#404040">
                        <set attributeName="fill" to="#808080" begin="arrowRight.mouseover" end="arrowRight.mouseout"/>
                  </use>
                  <path fill="none" stroke="white" stroke-width="1.5" d="M0,-3.0v7 M-2.5,-0.5L0,-3.0L2.5,-0.5"/>
                </g>
                <g id="arrowDown" xlink:href="#dirArrow" transform="rotate(180) translate(-30 -48)" onmousedown="handlePan(0,1)">
                  <use xlink:href="#rim" fill="#404040">
                        <set attributeName="fill" to="#808080" begin="arrowDown.mouseover" end="arrowDown.mouseout"/>
                  </use>
                  <path fill="none" stroke="white" stroke-width="1.5" d="M0,-3.0v7 M-2.5,-0.5L0,-3.0L2.5,-0.5"/>
                </g>
                <g id="arrowLeft" xlink:href="#dirArrow" transform="rotate(270) translate(-36 17)" onmousedown="handlePan(-1,0)">
                  <use xlink:href="#rim" fill="#404040">
                        <set attributeName="fill" to="#808080" begin="arrowLeft.mouseover" end="arrowLeft.mouseout"/>
                  </use>
                  <path fill="none" stroke="white" stroke-width="1.5" d="M0,-3.0v7 M-2.5,-0.5L0,-3.0L2.5,-0.5"/>
                </g>
        </g>
        <svg viewBox="0 0 15 15" width="100%" height="30px" preserveAspectRatio="xMaxYMin meet">
         <g id="arrow_out" transform="scale(0.3 0.3)">
          <a xlink:href="structo2_1_1framework_1_1DataProcessingHeader__coll__graph_org.svg" target="_base">
           <rect id="button" ry="5" rx="5" y="6" x="6" height="38" width="38"
                fill="#f2f5e9" fill-opacity="0.5" stroke="#606060" stroke-width="1.0"/>
           <path id="arrow"
             d="M 11.500037,31.436501 C 11.940474,20.09759 22.043105,11.32322 32.158766,21.979434 L 37.068811,17.246167 C 37.068811,17.246167 37.088388,32 37.088388,32 L 22.160133,31.978069 C 22.160133,31.978069 26.997745,27.140456 26.997745,27.140456 C 18.528582,18.264221 13.291696,25.230495 11.500037,31.436501 z"
             style="fill:#404040;"/>
          </a>
         </g>
        </svg>
</svg>
