<?xml version="1.0" encoding="UTF-8" standalone="no"?>
<!DOCTYPE svg PUBLIC "-//W3C//DTD SVG 1.1//EN"
 "http://www.w3.org/Graphics/SVG/1.1/DTD/svg11.dtd">
<!-- Generated by graphviz version 2.40.1 (20161225.0304)
 -->
<!-- Title: o2::fv0::EventData Pages: 1 -->
<svg width="478pt" height="303pt"
 viewBox="0.00 0.00 477.50 303.00" xmlns="http://www.w3.org/2000/svg" xmlns:xlink="http://www.w3.org/1999/xlink">
<g id="graph0" class="graph" transform="scale(1 1) rotate(0) translate(4 299)">
<title>o2::fv0::EventData</title>
<!-- Node1 -->
<g id="node1" class="node">
<title>Node1</title>
<polygon fill="#bfbfbf" stroke="#000000" points="125,-.5 125,-79.5 240,-79.5 240,-.5 125,-.5"/>
<text text-anchor="middle" x="182.5" y="-67.5" font-family="Helvetica,sans-Serif" font-size="10.00" fill="#000000">o2::fv0::EventData</text>
<polyline fill="none" stroke="#000000" points="125,-60.5 240,-60.5 "/>
<text text-anchor="start" x="133" y="-48.5" font-family="Helvetica,sans-Serif" font-size="10.00" fill="#000000">+ isDoubleEvent</text>
<text text-anchor="start" x="133" y="-37.5" font-family="Helvetica,sans-Serif" font-size="10.00" fill="#000000">+ is1TimeLostEvent</text>
<text text-anchor="start" x="133" y="-26.5" font-family="Helvetica,sans-Serif" font-size="10.00" fill="#000000">+ isAmpHigh</text>
<polyline fill="none" stroke="#000000" points="125,-19.5 240,-19.5 "/>
<text text-anchor="start" x="133" y="-7.5" font-family="Helvetica,sans-Serif" font-size="10.00" fill="#000000">+ generateFlags()</text>
</g>
<!-- Node2 -->
<g id="node2" class="node">
<title>Node2</title>
<polygon fill="none" stroke="#bfbfbf" points="0,-237.5 0,-294.5 107,-294.5 107,-237.5 0,-237.5"/>
<text text-anchor="middle" x="53.5" y="-282.5" font-family="Helvetica,sans-Serif" font-size="10.00" fill="#000000">anonymous:+@23</text>
<polyline fill="none" stroke="#bfbfbf" points="0,-275.5 107,-275.5 "/>
<text text-anchor="middle" x="53.5" y="-263.5" font-family="Helvetica,sans-Serif" font-size="10.00" fill="#000000"> </text>
<polyline fill="none" stroke="#bfbfbf" points="0,-256.5 107,-256.5 "/>
<text text-anchor="middle" x="53.5" y="-244.5" font-family="Helvetica,sans-Serif" font-size="10.00" fill="#000000"> </text>
</g>
<!-- Node2&#45;&gt;Node1 -->
<g id="edge1" class="edge">
<title>Node2&#45;&gt;Node1</title>
<path fill="none" stroke="#404040" d="M56.626,-237.4565C61.6816,-201.9776 74.3343,-140.8795 104.5,-98 107.8438,-93.247 111.6994,-88.7231 115.8687,-84.4528"/>
<polygon fill="none" stroke="#404040" points="116.0614,-84.2717 117.6924,-77.2474 124.8037,-76.0514 123.1726,-83.0756 116.0614,-84.2717"/>
<text text-anchor="middle" x="121.5" y="-156" font-family="Helvetica,sans-Serif" font-size="10.00" fill="#000000"> +@23</text>
</g>
<!-- Node3 -->
<g id="node3" class="node">
<title>Node3</title>
<polygon fill="none" stroke="#bfbfbf" points="125.5,-237.5 125.5,-294.5 175.5,-294.5 175.5,-237.5 125.5,-237.5"/>
<text text-anchor="middle" x="150.5" y="-282.5" font-family="Helvetica,sans-Serif" font-size="10.00" fill="#000000">int64_t</text>
<polyline fill="none" stroke="#bfbfbf" points="125.5,-275.5 175.5,-275.5 "/>
<text text-anchor="middle" x="150.5" y="-263.5" font-family="Helvetica,sans-Serif" font-size="10.00" fill="#000000"> </text>
<polyline fill="none" stroke="#bfbfbf" points="125.5,-256.5 175.5,-256.5 "/>
<text text-anchor="middle" x="150.5" y="-244.5" font-family="Helvetica,sans-Serif" font-size="10.00" fill="#000000"> </text>
</g>
<!-- Node3&#45;&gt;Node1 -->
<g id="edge2" class="edge">
<title>Node3&#45;&gt;Node1</title>
<path fill="none" stroke="#404040" d="M146.5358,-237.2328C142.8069,-203.3481 139.417,-145.6382 151.5,-98 152.114,-95.5791 152.8495,-93.1484 153.6811,-90.7273"/>
<polygon fill="none" stroke="#404040" points="153.7026,-90.6737 152.2299,-83.6145 158.1795,-79.54 159.6523,-86.5991 153.7026,-90.6737"/>
<text text-anchor="middle" x="172.5" y="-161.5" font-family="Helvetica,sans-Serif" font-size="10.00" fill="#000000"> +time</text>
<text text-anchor="middle" x="172.5" y="-150.5" font-family="Helvetica,sans-Serif" font-size="10.00" fill="#000000">+charge</text>
</g>
<!-- Node4 -->
<g id="node4" class="node">
<title>Node4</title>
<polygon fill="none" stroke="#bfbfbf" points="194,-237.5 194,-294.5 239,-294.5 239,-237.5 194,-237.5"/>
<text text-anchor="middle" x="216.5" y="-282.5" font-family="Helvetica,sans-Serif" font-size="10.00" fill="#000000">size_t</text>
<polyline fill="none" stroke="#bfbfbf" points="194,-275.5 239,-275.5 "/>
<text text-anchor="middle" x="216.5" y="-263.5" font-family="Helvetica,sans-Serif" font-size="10.00" fill="#000000"> </text>
<polyline fill="none" stroke="#bfbfbf" points="194,-256.5 239,-256.5 "/>
<text text-anchor="middle" x="216.5" y="-244.5" font-family="Helvetica,sans-Serif" font-size="10.00" fill="#000000"> </text>
</g>
<!-- Node4&#45;&gt;Node1 -->
<g id="edge3" class="edge">
<title>Node4&#45;&gt;Node1</title>
<path fill="none" stroke="#404040" d="M213.0385,-237.3966C208.8809,-203.9095 201.4646,-146.8116 193.5,-98 193.15,-95.8553 192.7826,-93.6679 192.403,-91.4598"/>
<polygon fill="none" stroke="#404040" points="192.3906,-91.3897 187.4005,-86.184 190.2865,-79.5756 195.2766,-84.7813 192.3906,-91.3897"/>
<text text-anchor="middle" x="275.5" y="-161.5" font-family="Helvetica,sans-Serif" font-size="10.00" fill="#000000"> +PayloadSizeSecondWord</text>
<text text-anchor="middle" x="275.5" y="-150.5" font-family="Helvetica,sans-Serif" font-size="10.00" fill="#000000">+PayloadSizeFirstWord</text>
</g>
<!-- Node5 -->
<g id="node5" class="node">
<title>Node5</title>
<polygon fill="none" stroke="#bfbfbf" points="338,-237.5 338,-294.5 399,-294.5 399,-237.5 338,-237.5"/>
<text text-anchor="middle" x="368.5" y="-282.5" font-family="Helvetica,sans-Serif" font-size="10.00" fill="#000000">unsigned</text>
<polyline fill="none" stroke="#bfbfbf" points="338,-275.5 399,-275.5 "/>
<text text-anchor="middle" x="368.5" y="-263.5" font-family="Helvetica,sans-Serif" font-size="10.00" fill="#000000"> </text>
<polyline fill="none" stroke="#bfbfbf" points="338,-256.5 399,-256.5 "/>
<text text-anchor="middle" x="368.5" y="-244.5" font-family="Helvetica,sans-Serif" font-size="10.00" fill="#000000"> </text>
</g>
<!-- Node5&#45;&gt;Node1 -->
<g id="edge4" class="edge">
<title>Node5&#45;&gt;Node1</title>
<path fill="none" stroke="#404040" d="M372.6984,-237.242C376.3543,-200.6929 376.8189,-137.6047 344.5,-98 332.1334,-82.8455 290.0284,-68.0184 251.8454,-57.1491"/>
<polygon fill="none" stroke="#404040" points="251.722,-57.1149 244.871,-59.3654 240.1587,-53.907 247.0097,-51.6565 251.722,-57.1149"/>
<text text-anchor="middle" x="421.5" y="-211" font-family="Helvetica,sans-Serif" font-size="10.00" fill="#000000"> +isEventInTVDC</text>
<text text-anchor="middle" x="421.5" y="-200" font-family="Helvetica,sans-Serif" font-size="10.00" fill="#000000">+is2TimeLostEvent</text>
<text text-anchor="middle" x="421.5" y="-189" font-family="Helvetica,sans-Serif" font-size="10.00" fill="#000000">+isADCinGate</text>
<text text-anchor="middle" x="421.5" y="-178" font-family="Helvetica,sans-Serif" font-size="10.00" fill="#000000">+word</text>
<text text-anchor="middle" x="421.5" y="-167" font-family="Helvetica,sans-Serif" font-size="10.00" fill="#000000">+isTimeInfoLate</text>
<text text-anchor="middle" x="421.5" y="-156" font-family="Helvetica,sans-Serif" font-size="10.00" fill="#000000">+numberADC</text>
<text text-anchor="middle" x="421.5" y="-145" font-family="Helvetica,sans-Serif" font-size="10.00" fill="#000000">+word_zeros</text>
<text text-anchor="middle" x="421.5" y="-134" font-family="Helvetica,sans-Serif" font-size="10.00" fill="#000000">+channelID</text>
<text text-anchor="middle" x="421.5" y="-123" font-family="Helvetica,sans-Serif" font-size="10.00" fill="#000000">+isTimeInfoLost</text>
<text text-anchor="middle" x="421.5" y="-112" font-family="Helvetica,sans-Serif" font-size="10.00" fill="#000000">+reservedField</text>
<text text-anchor="middle" x="421.5" y="-101" font-family="Helvetica,sans-Serif" font-size="10.00" fill="#000000">...</text>
</g>
</g>
</svg>
