<?xml version="1.0" encoding="UTF-8" standalone="no"?>
<!DOCTYPE svg PUBLIC "-//W3C//DTD SVG 1.1//EN"
 "http://www.w3.org/Graphics/SVG/1.1/DTD/svg11.dtd">
<!-- Generated by graphviz version 2.40.1 (20161225.0304)
 -->
<!-- Title: o2::framework::ParsedMetricMatch Pages: 1 -->
<svg width="541pt" height="215pt"
 viewBox="0.00 0.00 540.50 215.00" xmlns="http://www.w3.org/2000/svg" xmlns:xlink="http://www.w3.org/1999/xlink">
<g id="graph0" class="graph" transform="scale(1 1) rotate(0) translate(4 211)">
<title>o2::framework::ParsedMetricMatch</title>
<!-- Node1 -->
<g id="node1" class="node">
<title>Node1</title>
<polygon fill="#bfbfbf" stroke="#000000" points="169.5,-.5 169.5,-68.5 325.5,-68.5 325.5,-.5 169.5,-.5"/>
<text text-anchor="start" x="177.5" y="-56.5" font-family="Helvetica,sans-Serif" font-size="10.00" fill="#000000">o2::framework::ParsedMetric</text>
<text text-anchor="middle" x="247.5" y="-45.5" font-family="Helvetica,sans-Serif" font-size="10.00" fill="#000000">Match</text>
<polyline fill="none" stroke="#000000" points="169.5,-38.5 325.5,-38.5 "/>
<text text-anchor="middle" x="247.5" y="-26.5" font-family="Helvetica,sans-Serif" font-size="10.00" fill="#000000"> </text>
<polyline fill="none" stroke="#000000" points="169.5,-19.5 325.5,-19.5 "/>
<text text-anchor="middle" x="247.5" y="-7.5" font-family="Helvetica,sans-Serif" font-size="10.00" fill="#000000"> </text>
</g>
<!-- Node2 -->
<g id="node2" class="node">
<title>Node2</title>
<polygon fill="none" stroke="#bfbfbf" points="0,-149.5 0,-206.5 69,-206.5 69,-149.5 0,-149.5"/>
<text text-anchor="middle" x="34.5" y="-194.5" font-family="Helvetica,sans-Serif" font-size="10.00" fill="#000000">MetricType</text>
<polyline fill="none" stroke="#bfbfbf" points="0,-187.5 69,-187.5 "/>
<text text-anchor="middle" x="34.5" y="-175.5" font-family="Helvetica,sans-Serif" font-size="10.00" fill="#000000"> </text>
<polyline fill="none" stroke="#bfbfbf" points="0,-168.5 69,-168.5 "/>
<text text-anchor="middle" x="34.5" y="-156.5" font-family="Helvetica,sans-Serif" font-size="10.00" fill="#000000"> </text>
</g>
<!-- Node2&#45;&gt;Node1 -->
<g id="edge1" class="edge">
<title>Node2&#45;&gt;Node1</title>
<path fill="none" stroke="#404040" d="M37.6844,-149.23C41.3783,-129.1824 49.3434,-103.2245 66.5,-87 80.3957,-73.8592 119.3464,-61.7718 157.5706,-52.5161"/>
<polygon fill="none" stroke="#404040" points="157.7006,-52.4856 162.6247,-47.2174 169.3815,-49.7365 164.4574,-55.0047 157.7006,-52.4856"/>
<text text-anchor="middle" x="83.5" y="-106.5" font-family="Helvetica,sans-Serif" font-size="10.00" fill="#000000"> +type</text>
</g>
<!-- Node3 -->
<g id="node3" class="node">
<title>Node3</title>
<g id="a_node3"><a xlink:href="../../d4/dc3/classfloat.html" target="_top" xlink:title="{float\n||}">
<polygon fill="none" stroke="#000000" points="87.5,-149.5 87.5,-206.5 125.5,-206.5 125.5,-149.5 87.5,-149.5"/>
<text text-anchor="middle" x="106.5" y="-194.5" font-family="Helvetica,sans-Serif" font-size="10.00" fill="#000000">float</text>
<polyline fill="none" stroke="#000000" points="87.5,-187.5 125.5,-187.5 "/>
<text text-anchor="middle" x="106.5" y="-175.5" font-family="Helvetica,sans-Serif" font-size="10.00" fill="#000000"> </text>
<polyline fill="none" stroke="#000000" points="87.5,-168.5 125.5,-168.5 "/>
<text text-anchor="middle" x="106.5" y="-156.5" font-family="Helvetica,sans-Serif" font-size="10.00" fill="#000000"> </text>
</a>
</g>
</g>
<!-- Node3&#45;&gt;Node1 -->
<g id="edge2" class="edge">
<title>Node3&#45;&gt;Node1</title>
<path fill="none" stroke="#404040" d="M103.2436,-149.3354C102.5855,-129.8514 104.9596,-104.5296 118.5,-87 128.7289,-73.7575 142.8542,-63.8381 158.022,-56.4129"/>
<polygon fill="none" stroke="#404040" points="158.2461,-56.3132 162.1019,-50.2196 169.2099,-51.4351 165.354,-57.5288 158.2461,-56.3132"/>
<text text-anchor="middle" x="149" y="-106.5" font-family="Helvetica,sans-Serif" font-size="10.00" fill="#000000"> +floatValue</text>
</g>
<!-- Node4 -->
<g id="node4" class="node">
<title>Node4</title>
<polygon fill="none" stroke="#bfbfbf" points="171.5,-149.5 171.5,-206.5 209.5,-206.5 209.5,-149.5 171.5,-149.5"/>
<text text-anchor="middle" x="190.5" y="-194.5" font-family="Helvetica,sans-Serif" font-size="10.00" fill="#000000">char</text>
<polyline fill="none" stroke="#bfbfbf" points="171.5,-187.5 209.5,-187.5 "/>
<text text-anchor="middle" x="190.5" y="-175.5" font-family="Helvetica,sans-Serif" font-size="10.00" fill="#000000"> </text>
<polyline fill="none" stroke="#bfbfbf" points="171.5,-168.5 209.5,-168.5 "/>
<text text-anchor="middle" x="190.5" y="-156.5" font-family="Helvetica,sans-Serif" font-size="10.00" fill="#000000"> </text>
</g>
<!-- Node4&#45;&gt;Node1 -->
<g id="edge3" class="edge">
<title>Node4&#45;&gt;Node1</title>
<path fill="none" stroke="#404040" d="M185.2043,-149.3144C183.105,-130.7633 182.9135,-106.5248 191.5,-87 192.8127,-84.0151 194.3861,-81.1211 196.1583,-78.328"/>
<polygon fill="none" stroke="#404040" points="196.1762,-78.3038 196.5454,-71.1022 203.3351,-68.6731 202.9659,-75.8748 196.1762,-78.3038"/>
<text text-anchor="middle" x="237" y="-123" font-family="Helvetica,sans-Serif" font-size="10.00" fill="#000000"> +beginKey</text>
<text text-anchor="middle" x="237" y="-112" font-family="Helvetica,sans-Serif" font-size="10.00" fill="#000000">+endStringValue</text>
<text text-anchor="middle" x="237" y="-101" font-family="Helvetica,sans-Serif" font-size="10.00" fill="#000000">+beginStringValue</text>
<text text-anchor="middle" x="237" y="-90" font-family="Helvetica,sans-Serif" font-size="10.00" fill="#000000">+endKey</text>
</g>
<!-- Node5 -->
<g id="node5" class="node">
<title>Node5</title>
<polygon fill="none" stroke="#bfbfbf" points="282,-149.5 282,-206.5 327,-206.5 327,-149.5 282,-149.5"/>
<text text-anchor="middle" x="304.5" y="-194.5" font-family="Helvetica,sans-Serif" font-size="10.00" fill="#000000">size_t</text>
<polyline fill="none" stroke="#bfbfbf" points="282,-187.5 327,-187.5 "/>
<text text-anchor="middle" x="304.5" y="-175.5" font-family="Helvetica,sans-Serif" font-size="10.00" fill="#000000"> </text>
<polyline fill="none" stroke="#bfbfbf" points="282,-168.5 327,-168.5 "/>
<text text-anchor="middle" x="304.5" y="-156.5" font-family="Helvetica,sans-Serif" font-size="10.00" fill="#000000"> </text>
</g>
<!-- Node5&#45;&gt;Node1 -->
<g id="edge4" class="edge">
<title>Node5&#45;&gt;Node1</title>
<path fill="none" stroke="#404040" d="M300.2235,-149.291C296.852,-130.9498 291.2337,-106.9522 282.5,-87 281.351,-84.3752 280.0715,-81.7387 278.7,-79.1203"/>
<polygon fill="none" stroke="#404040" points="278.6027,-78.9502 272.1512,-75.7287 272.6436,-68.5344 279.0951,-71.7559 278.6027,-78.9502"/>
<text text-anchor="middle" x="328" y="-106.5" font-family="Helvetica,sans-Serif" font-size="10.00" fill="#000000"> +timestamp</text>
</g>
<!-- Node6 -->
<g id="node6" class="node">
<title>Node6</title>
<polygon fill="none" stroke="#bfbfbf" points="378,-149.5 378,-206.5 407,-206.5 407,-149.5 378,-149.5"/>
<text text-anchor="middle" x="392.5" y="-194.5" font-family="Helvetica,sans-Serif" font-size="10.00" fill="#000000">int</text>
<polyline fill="none" stroke="#bfbfbf" points="378,-187.5 407,-187.5 "/>
<text text-anchor="middle" x="392.5" y="-175.5" font-family="Helvetica,sans-Serif" font-size="10.00" fill="#000000"> </text>
<polyline fill="none" stroke="#bfbfbf" points="378,-168.5 407,-168.5 "/>
<text text-anchor="middle" x="392.5" y="-156.5" font-family="Helvetica,sans-Serif" font-size="10.00" fill="#000000"> </text>
</g>
<!-- Node6&#45;&gt;Node1 -->
<g id="edge5" class="edge">
<title>Node6&#45;&gt;Node1</title>
<path fill="none" stroke="#404040" d="M389.8344,-149.1393C386.6621,-129.5652 379.7148,-104.2166 364.5,-87 356.594,-78.0539 346.8664,-70.552 336.4272,-64.282"/>
<polygon fill="none" stroke="#404040" points="336.299,-64.2113 329.1132,-64.8153 325.7919,-58.4146 332.9777,-57.8106 336.299,-64.2113"/>
<text text-anchor="middle" x="411.5" y="-106.5" font-family="Helvetica,sans-Serif" font-size="10.00" fill="#000000"> +intValue</text>
</g>
<!-- Node7 -->
<g id="node7" class="node">
<title>Node7</title>
<polygon fill="none" stroke="#bfbfbf" points="437,-149.5 437,-206.5 498,-206.5 498,-149.5 437,-149.5"/>
<text text-anchor="middle" x="467.5" y="-194.5" font-family="Helvetica,sans-Serif" font-size="10.00" fill="#000000">unsigned</text>
<polyline fill="none" stroke="#bfbfbf" points="437,-187.5 498,-187.5 "/>
<text text-anchor="middle" x="467.5" y="-175.5" font-family="Helvetica,sans-Serif" font-size="10.00" fill="#000000"> </text>
<polyline fill="none" stroke="#bfbfbf" points="437,-168.5 498,-168.5 "/>
<text text-anchor="middle" x="467.5" y="-156.5" font-family="Helvetica,sans-Serif" font-size="10.00" fill="#000000"> </text>
</g>
<!-- Node7&#45;&gt;Node1 -->
<g id="edge6" class="edge">
<title>Node7&#45;&gt;Node1</title>
<path fill="none" stroke="#404040" d="M466.4603,-149.2555C464.2082,-129.2204 457.9962,-103.2667 441.5,-87 426.1667,-71.8801 380.5188,-59.1355 337.3539,-49.9907"/>
<polygon fill="none" stroke="#404040" points="337.3231,-49.9845 330.6404,-52.6938 325.5691,-47.5671 332.2519,-44.8578 337.3231,-49.9845"/>
<text text-anchor="middle" x="497.5" y="-106.5" font-family="Helvetica,sans-Serif" font-size="10.00" fill="#000000"> +uint64Value</text>
</g>
</g>
</svg>
