<?xml version="1.0" encoding="UTF-8" standalone="no"?>
<!DOCTYPE svg PUBLIC "-//W3C//DTD SVG 1.1//EN"
 "http://www.w3.org/Graphics/SVG/1.1/DTD/svg11.dtd">
<!-- Generated by graphviz version 2.40.1 (20161225.0304)
 -->
<!-- Title: o2::framework::ParsedMetricMatch Pages: 1 -->
<!--zoomable 215 -->
<svg id="main" version="1.1" xmlns="http://www.w3.org/2000/svg" xmlns:xlink="http://www.w3.org/1999/xlink" xml:space="preserve" onload="init(evt)">
<style type="text/css"><![CDATA[
.edge:hover path { stroke: red; }
.edge:hover polygon { stroke: red; fill: red; }
]]></style>
<script type="text/javascript"><![CDATA[
var edges = document.getElementsByTagName('g');
if (edges && edges.length) {
  for (var i=0;i<edges.length;i++) {
    if (edges[i].id.substr(0,4)=='edge') {
      edges[i].setAttribute('class','edge');
    }
  }
}
]]></script>
        <defs>
                <circle id="rim" cx="0" cy="0" r="7"/>
                <circle id="rim2" cx="0" cy="0" r="3.5"/>
                <g id="zoomPlus">
                        <use xlink:href="#rim" fill="#404040">
                                <set attributeName="fill" to="#808080" begin="zoomplus.mouseover" end="zoomplus.mouseout"/>
                        </use>
                        <path d="M-4,0h8M0,-4v8" fill="none" stroke="white" stroke-width="1.5" pointer-events="none"/>
                </g>
                <g id="zoomMin">
                        <use xlink:href="#rim" fill="#404040">
                                <set attributeName="fill" to="#808080" begin="zoomminus.mouseover" end="zoomminus.mouseout"/>
                        </use>
                        <path d="M-4,0h8" fill="none" stroke="white" stroke-width="1.5" pointer-events="none"/>
                </g>
                <g id="dirArrow">
                        <path fill="none" stroke="white" stroke-width="1.5" d="M0,-3.0v7 M-2.5,-0.5L0,-3.0L2.5,-0.5"/>
                </g>
               <g id="resetDef">
                       <use xlink:href="#rim2" fill="#404040">
                               <set attributeName="fill" to="#808080" begin="reset.mouseover" end="reset.mouseout"/>
                       </use>
               </g>
        </defs>

<script type="text/javascript">
var viewWidth = 541;
var viewHeight = 215;
var sectionId = 'dynsection-0';
</script>
<script xlink:href="../../svgpan.js"/>
<svg id="graph" class="graph">
<g id="viewport">
<title>o2::framework::ParsedMetricMatch</title>
<!-- Node1 -->
<g id="node1" class="node">
<title>Node1</title>
<polygon fill="#bfbfbf" stroke="#000000" points="169.5,-.5 169.5,-68.5 325.5,-68.5 325.5,-.5 169.5,-.5"/>
<text text-anchor="start" x="177.5" y="-56.5" font-family="Helvetica,sans-Serif" font-size="10.00" fill="#000000">o2::framework::ParsedMetric</text>
<text text-anchor="middle" x="247.5" y="-45.5" font-family="Helvetica,sans-Serif" font-size="10.00" fill="#000000">Match</text>
<polyline fill="none" stroke="#000000" points="169.5,-38.5 325.5,-38.5 "/>
<text text-anchor="middle" x="247.5" y="-26.5" font-family="Helvetica,sans-Serif" font-size="10.00" fill="#000000"> </text>
<polyline fill="none" stroke="#000000" points="169.5,-19.5 325.5,-19.5 "/>
<text text-anchor="middle" x="247.5" y="-7.5" font-family="Helvetica,sans-Serif" font-size="10.00" fill="#000000"> </text>
</g>
<!-- Node2 -->
<g id="node2" class="node">
<title>Node2</title>
<polygon fill="none" stroke="#bfbfbf" points="0,-149.5 0,-206.5 69,-206.5 69,-149.5 0,-149.5"/>
<text text-anchor="middle" x="34.5" y="-194.5" font-family="Helvetica,sans-Serif" font-size="10.00" fill="#000000">MetricType</text>
<polyline fill="none" stroke="#bfbfbf" points="0,-187.5 69,-187.5 "/>
<text text-anchor="middle" x="34.5" y="-175.5" font-family="Helvetica,sans-Serif" font-size="10.00" fill="#000000"> </text>
<polyline fill="none" stroke="#bfbfbf" points="0,-168.5 69,-168.5 "/>
<text text-anchor="middle" x="34.5" y="-156.5" font-family="Helvetica,sans-Serif" font-size="10.00" fill="#000000"> </text>
</g>
<!-- Node2&#45;&gt;Node1 -->
<g id="edge1" class="edge">
<title>Node2&#45;&gt;Node1</title>
<path fill="none" stroke="#404040" d="M37.6844,-149.23C41.3783,-129.1824 49.3434,-103.2245 66.5,-87 80.3957,-73.8592 119.3464,-61.7718 157.5706,-52.5161"/>
<polygon fill="none" stroke="#404040" points="157.7006,-52.4856 162.6247,-47.2174 169.3815,-49.7365 164.4574,-55.0047 157.7006,-52.4856"/>
<text text-anchor="middle" x="83.5" y="-106.5" font-family="Helvetica,sans-Serif" font-size="10.00" fill="#000000"> +type</text>
</g>
<!-- Node3 -->
<g id="node3" class="node">
<title>Node3</title>
<g id="a_node3"><a xlink:href="../../d4/dc3/classfloat.html" target="_top" xlink:title="{float\n||}">
<polygon fill="none" stroke="#000000" points="87.5,-149.5 87.5,-206.5 125.5,-206.5 125.5,-149.5 87.5,-149.5"/>
<text text-anchor="middle" x="106.5" y="-194.5" font-family="Helvetica,sans-Serif" font-size="10.00" fill="#000000">float</text>
<polyline fill="none" stroke="#000000" points="87.5,-187.5 125.5,-187.5 "/>
<text text-anchor="middle" x="106.5" y="-175.5" font-family="Helvetica,sans-Serif" font-size="10.00" fill="#000000"> </text>
<polyline fill="none" stroke="#000000" points="87.5,-168.5 125.5,-168.5 "/>
<text text-anchor="middle" x="106.5" y="-156.5" font-family="Helvetica,sans-Serif" font-size="10.00" fill="#000000"> </text>
</a>
</g>
</g>
<!-- Node3&#45;&gt;Node1 -->
<g id="edge2" class="edge">
<title>Node3&#45;&gt;Node1</title>
<path fill="none" stroke="#404040" d="M103.2436,-149.3354C102.5855,-129.8514 104.9596,-104.5296 118.5,-87 128.7289,-73.7575 142.8542,-63.8381 158.022,-56.4129"/>
<polygon fill="none" stroke="#404040" points="158.2461,-56.3132 162.1019,-50.2196 169.2099,-51.4351 165.354,-57.5288 158.2461,-56.3132"/>
<text text-anchor="middle" x="149" y="-106.5" font-family="Helvetica,sans-Serif" font-size="10.00" fill="#000000"> +floatValue</text>
</g>
<!-- Node4 -->
<g id="node4" class="node">
<title>Node4</title>
<polygon fill="none" stroke="#bfbfbf" points="171.5,-149.5 171.5,-206.5 209.5,-206.5 209.5,-149.5 171.5,-149.5"/>
<text text-anchor="middle" x="190.5" y="-194.5" font-family="Helvetica,sans-Serif" font-size="10.00" fill="#000000">char</text>
<polyline fill="none" stroke="#bfbfbf" points="171.5,-187.5 209.5,-187.5 "/>
<text text-anchor="middle" x="190.5" y="-175.5" font-family="Helvetica,sans-Serif" font-size="10.00" fill="#000000"> </text>
<polyline fill="none" stroke="#bfbfbf" points="171.5,-168.5 209.5,-168.5 "/>
<text text-anchor="middle" x="190.5" y="-156.5" font-family="Helvetica,sans-Serif" font-size="10.00" fill="#000000"> </text>
</g>
<!-- Node4&#45;&gt;Node1 -->
<g id="edge3" class="edge">
<title>Node4&#45;&gt;Node1</title>
<path fill="none" stroke="#404040" d="M185.2043,-149.3144C183.105,-130.7633 182.9135,-106.5248 191.5,-87 192.8127,-84.0151 194.3861,-81.1211 196.1583,-78.328"/>
<polygon fill="none" stroke="#404040" points="196.1762,-78.3038 196.5454,-71.1022 203.3351,-68.6731 202.9659,-75.8748 196.1762,-78.3038"/>
<text text-anchor="middle" x="237" y="-123" font-family="Helvetica,sans-Serif" font-size="10.00" fill="#000000"> +beginKey</text>
<text text-anchor="middle" x="237" y="-112" font-family="Helvetica,sans-Serif" font-size="10.00" fill="#000000">+endStringValue</text>
<text text-anchor="middle" x="237" y="-101" font-family="Helvetica,sans-Serif" font-size="10.00" fill="#000000">+beginStringValue</text>
<text text-anchor="middle" x="237" y="-90" font-family="Helvetica,sans-Serif" font-size="10.00" fill="#000000">+endKey</text>
</g>
<!-- Node5 -->
<g id="node5" class="node">
<title>Node5</title>
<polygon fill="none" stroke="#bfbfbf" points="282,-149.5 282,-206.5 327,-206.5 327,-149.5 282,-149.5"/>
<text text-anchor="middle" x="304.5" y="-194.5" font-family="Helvetica,sans-Serif" font-size="10.00" fill="#000000">size_t</text>
<polyline fill="none" stroke="#bfbfbf" points="282,-187.5 327,-187.5 "/>
<text text-anchor="middle" x="304.5" y="-175.5" font-family="Helvetica,sans-Serif" font-size="10.00" fill="#000000"> </text>
<polyline fill="none" stroke="#bfbfbf" points="282,-168.5 327,-168.5 "/>
<text text-anchor="middle" x="304.5" y="-156.5" font-family="Helvetica,sans-Serif" font-size="10.00" fill="#000000"> </text>
</g>
<!-- Node5&#45;&gt;Node1 -->
<g id="edge4" class="edge">
<title>Node5&#45;&gt;Node1</title>
<path fill="none" stroke="#404040" d="M300.2235,-149.291C296.852,-130.9498 291.2337,-106.9522 282.5,-87 281.351,-84.3752 280.0715,-81.7387 278.7,-79.1203"/>
<polygon fill="none" stroke="#404040" points="278.6027,-78.9502 272.1512,-75.7287 272.6436,-68.5344 279.0951,-71.7559 278.6027,-78.9502"/>
<text text-anchor="middle" x="328" y="-106.5" font-family="Helvetica,sans-Serif" font-size="10.00" fill="#000000"> +timestamp</text>
</g>
<!-- Node6 -->
<g id="node6" class="node">
<title>Node6</title>
<polygon fill="none" stroke="#bfbfbf" points="378,-149.5 378,-206.5 407,-206.5 407,-149.5 378,-149.5"/>
<text text-anchor="middle" x="392.5" y="-194.5" font-family="Helvetica,sans-Serif" font-size="10.00" fill="#000000">int</text>
<polyline fill="none" stroke="#bfbfbf" points="378,-187.5 407,-187.5 "/>
<text text-anchor="middle" x="392.5" y="-175.5" font-family="Helvetica,sans-Serif" font-size="10.00" fill="#000000"> </text>
<polyline fill="none" stroke="#bfbfbf" points="378,-168.5 407,-168.5 "/>
<text text-anchor="middle" x="392.5" y="-156.5" font-family="Helvetica,sans-Serif" font-size="10.00" fill="#000000"> </text>
</g>
<!-- Node6&#45;&gt;Node1 -->
<g id="edge5" class="edge">
<title>Node6&#45;&gt;Node1</title>
<path fill="none" stroke="#404040" d="M389.8344,-149.1393C386.6621,-129.5652 379.7148,-104.2166 364.5,-87 356.594,-78.0539 346.8664,-70.552 336.4272,-64.282"/>
<polygon fill="none" stroke="#404040" points="336.299,-64.2113 329.1132,-64.8153 325.7919,-58.4146 332.9777,-57.8106 336.299,-64.2113"/>
<text text-anchor="middle" x="411.5" y="-106.5" font-family="Helvetica,sans-Serif" font-size="10.00" fill="#000000"> +intValue</text>
</g>
<!-- Node7 -->
<g id="node7" class="node">
<title>Node7</title>
<polygon fill="none" stroke="#bfbfbf" points="437,-149.5 437,-206.5 498,-206.5 498,-149.5 437,-149.5"/>
<text text-anchor="middle" x="467.5" y="-194.5" font-family="Helvetica,sans-Serif" font-size="10.00" fill="#000000">unsigned</text>
<polyline fill="none" stroke="#bfbfbf" points="437,-187.5 498,-187.5 "/>
<text text-anchor="middle" x="467.5" y="-175.5" font-family="Helvetica,sans-Serif" font-size="10.00" fill="#000000"> </text>
<polyline fill="none" stroke="#bfbfbf" points="437,-168.5 498,-168.5 "/>
<text text-anchor="middle" x="467.5" y="-156.5" font-family="Helvetica,sans-Serif" font-size="10.00" fill="#000000"> </text>
</g>
<!-- Node7&#45;&gt;Node1 -->
<g id="edge6" class="edge">
<title>Node7&#45;&gt;Node1</title>
<path fill="none" stroke="#404040" d="M466.4603,-149.2555C464.2082,-129.2204 457.9962,-103.2667 441.5,-87 426.1667,-71.8801 380.5188,-59.1355 337.3539,-49.9907"/>
<polygon fill="none" stroke="#404040" points="337.3231,-49.9845 330.6404,-52.6938 325.5691,-47.5671 332.2519,-44.8578 337.3231,-49.9845"/>
<text text-anchor="middle" x="497.5" y="-106.5" font-family="Helvetica,sans-Serif" font-size="10.00" fill="#000000"> +uint64Value</text>
</g>
</g>
</svg>
        <g id="navigator" transform="translate(0 0)" fill="#404254">
                <rect fill="#f2f5e9" fill-opacity="0.5" stroke="#606060" stroke-width=".5" x="0" y="0" width="60" height="60"/>
                <use id="zoomplus" xlink:href="#zoomPlus" x="17" y="9" onmousedown="handleZoom(evt,'in')"/>
                <use id="zoomminus" xlink:href="#zoomMin" x="42" y="9" onmousedown="handleZoom(evt,'out')"/>
                <use id="reset" xlink:href="#resetDef" x="30" y="36" onmousedown="handleReset()"/>
                <g id="arrowUp" xlink:href="#dirArrow" transform="translate(30 24)" onmousedown="handlePan(0,-1)">
                  <use xlink:href="#rim" fill="#404040">
                        <set attributeName="fill" to="#808080" begin="arrowUp.mouseover" end="arrowUp.mouseout"/>
                  </use>
                  <path fill="none" stroke="white" stroke-width="1.5" d="M0,-3.0v7 M-2.5,-0.5L0,-3.0L2.5,-0.5"/>
                </g>
                <g id="arrowRight" xlink:href="#dirArrow" transform="rotate(90) translate(36 -43)" onmousedown="handlePan(1,0)">
                  <use xlink:href="#rim" fill="#404040">
                        <set attributeName="fill" to="#808080" begin="arrowRight.mouseover" end="arrowRight.mouseout"/>
                  </use>
                  <path fill="none" stroke="white" stroke-width="1.5" d="M0,-3.0v7 M-2.5,-0.5L0,-3.0L2.5,-0.5"/>
                </g>
                <g id="arrowDown" xlink:href="#dirArrow" transform="rotate(180) translate(-30 -48)" onmousedown="handlePan(0,1)">
                  <use xlink:href="#rim" fill="#404040">
                        <set attributeName="fill" to="#808080" begin="arrowDown.mouseover" end="arrowDown.mouseout"/>
                  </use>
                  <path fill="none" stroke="white" stroke-width="1.5" d="M0,-3.0v7 M-2.5,-0.5L0,-3.0L2.5,-0.5"/>
                </g>
                <g id="arrowLeft" xlink:href="#dirArrow" transform="rotate(270) translate(-36 17)" onmousedown="handlePan(-1,0)">
                  <use xlink:href="#rim" fill="#404040">
                        <set attributeName="fill" to="#808080" begin="arrowLeft.mouseover" end="arrowLeft.mouseout"/>
                  </use>
                  <path fill="none" stroke="white" stroke-width="1.5" d="M0,-3.0v7 M-2.5,-0.5L0,-3.0L2.5,-0.5"/>
                </g>
        </g>
        <svg viewBox="0 0 15 15" width="100%" height="30px" preserveAspectRatio="xMaxYMin meet">
         <g id="arrow_out" transform="scale(0.3 0.3)">
          <a xlink:href="structo2_1_1framework_1_1ParsedMetricMatch__coll__graph_org.svg" target="_base">
           <rect id="button" ry="5" rx="5" y="6" x="6" height="38" width="38"
                fill="#f2f5e9" fill-opacity="0.5" stroke="#606060" stroke-width="1.0"/>
           <path id="arrow"
             d="M 11.500037,31.436501 C 11.940474,20.09759 22.043105,11.32322 32.158766,21.979434 L 37.068811,17.246167 C 37.068811,17.246167 37.088388,32 37.088388,32 L 22.160133,31.978069 C 22.160133,31.978069 26.997745,27.140456 26.997745,27.140456 C 18.528582,18.264221 13.291696,25.230495 11.500037,31.436501 z"
             style="fill:#404040;"/>
          </a>
         </g>
        </svg>
</svg>
