<?xml version="1.0" encoding="UTF-8" standalone="no"?>
<!DOCTYPE svg PUBLIC "-//W3C//DTD SVG 1.1//EN"
 "http://www.w3.org/Graphics/SVG/1.1/DTD/svg11.dtd">
<!-- Generated by graphviz version 2.40.1 (20161225.0304)
 -->
<!-- Title: o2::itsmft::CTFHeader Pages: 1 -->
<svg width="147pt" height="226pt"
 viewBox="0.00 0.00 146.50 226.00" xmlns="http://www.w3.org/2000/svg" xmlns:xlink="http://www.w3.org/1999/xlink">
<g id="graph0" class="graph" transform="scale(1 1) rotate(0) translate(4 222)">
<title>o2::itsmft::CTFHeader</title>
<!-- Node1 -->
<g id="node1" class="node">
<title>Node1</title>
<polygon fill="#bfbfbf" stroke="#000000" points="0,-.5 0,-57.5 123,-57.5 123,-.5 0,-.5"/>
<text text-anchor="middle" x="61.5" y="-45.5" font-family="Helvetica,sans-Serif" font-size="10.00" fill="#000000">o2::itsmft::CTFHeader</text>
<polyline fill="none" stroke="#000000" points="0,-38.5 123,-38.5 "/>
<text text-anchor="middle" x="61.5" y="-26.5" font-family="Helvetica,sans-Serif" font-size="10.00" fill="#000000"> </text>
<polyline fill="none" stroke="#000000" points="0,-19.5 123,-19.5 "/>
<text text-anchor="start" x="8" y="-7.5" font-family="Helvetica,sans-Serif" font-size="10.00" fill="#000000">+ ClassDefNV()</text>
</g>
<!-- Node2 -->
<g id="node2" class="node">
<title>Node2</title>
<polygon fill="none" stroke="#bfbfbf" points="31,-160.5 31,-217.5 92,-217.5 92,-160.5 31,-160.5"/>
<text text-anchor="middle" x="61.5" y="-205.5" font-family="Helvetica,sans-Serif" font-size="10.00" fill="#000000">unsigned</text>
<polyline fill="none" stroke="#bfbfbf" points="31,-198.5 92,-198.5 "/>
<text text-anchor="middle" x="61.5" y="-186.5" font-family="Helvetica,sans-Serif" font-size="10.00" fill="#000000"> </text>
<polyline fill="none" stroke="#bfbfbf" points="31,-179.5 92,-179.5 "/>
<text text-anchor="middle" x="61.5" y="-167.5" font-family="Helvetica,sans-Serif" font-size="10.00" fill="#000000"> </text>
</g>
<!-- Node2&#45;&gt;Node1 -->
<g id="edge1" class="edge">
<title>Node2&#45;&gt;Node1</title>
<path fill="none" stroke="#404040" d="M61.5,-160.3952C61.5,-135.218 61.5,-98.2632 61.5,-69.9524"/>
<polygon fill="none" stroke="#404040" points="61.5001,-69.6264 57.5,-63.6265 61.5,-57.6264 65.5,-63.6264 61.5001,-69.6264"/>
<text text-anchor="middle" x="100" y="-134" font-family="Helvetica,sans-Serif" font-size="10.00" fill="#000000"> +firstBC</text>
<text text-anchor="middle" x="100" y="-123" font-family="Helvetica,sans-Serif" font-size="10.00" fill="#000000">+nPatternBytes</text>
<text text-anchor="middle" x="100" y="-112" font-family="Helvetica,sans-Serif" font-size="10.00" fill="#000000">+firstOrbit</text>
<text text-anchor="middle" x="100" y="-101" font-family="Helvetica,sans-Serif" font-size="10.00" fill="#000000">+nClusters</text>
<text text-anchor="middle" x="100" y="-90" font-family="Helvetica,sans-Serif" font-size="10.00" fill="#000000">+nROFs</text>
<text text-anchor="middle" x="100" y="-79" font-family="Helvetica,sans-Serif" font-size="10.00" fill="#000000">+nChips</text>
</g>
</g>
</svg>
