<?xml version="1.0" encoding="UTF-8" standalone="no"?>
<!DOCTYPE svg PUBLIC "-//W3C//DTD SVG 1.1//EN"
 "http://www.w3.org/Graphics/SVG/1.1/DTD/svg11.dtd">
<!-- Generated by graphviz version 2.40.1 (20161225.0304)
 -->
<!-- Title: UPCAnalysis Pages: 1 -->
<!--zoomable 794 -->
<svg id="main" version="1.1" xmlns="http://www.w3.org/2000/svg" xmlns:xlink="http://www.w3.org/1999/xlink" xml:space="preserve" onload="init(evt)">
<style type="text/css"><![CDATA[
.edge:hover path { stroke: red; }
.edge:hover polygon { stroke: red; fill: red; }
]]></style>
<script type="text/javascript"><![CDATA[
var edges = document.getElementsByTagName('g');
if (edges && edges.length) {
  for (var i=0;i<edges.length;i++) {
    if (edges[i].id.substr(0,4)=='edge') {
      edges[i].setAttribute('class','edge');
    }
  }
}
]]></script>
        <defs>
                <circle id="rim" cx="0" cy="0" r="7"/>
                <circle id="rim2" cx="0" cy="0" r="3.5"/>
                <g id="zoomPlus">
                        <use xlink:href="#rim" fill="#404040">
                                <set attributeName="fill" to="#808080" begin="zoomplus.mouseover" end="zoomplus.mouseout"/>
                        </use>
                        <path d="M-4,0h8M0,-4v8" fill="none" stroke="white" stroke-width="1.5" pointer-events="none"/>
                </g>
                <g id="zoomMin">
                        <use xlink:href="#rim" fill="#404040">
                                <set attributeName="fill" to="#808080" begin="zoomminus.mouseover" end="zoomminus.mouseout"/>
                        </use>
                        <path d="M-4,0h8" fill="none" stroke="white" stroke-width="1.5" pointer-events="none"/>
                </g>
                <g id="dirArrow">
                        <path fill="none" stroke="white" stroke-width="1.5" d="M0,-3.0v7 M-2.5,-0.5L0,-3.0L2.5,-0.5"/>
                </g>
               <g id="resetDef">
                       <use xlink:href="#rim2" fill="#404040">
                               <set attributeName="fill" to="#808080" begin="reset.mouseover" end="reset.mouseout"/>
                       </use>
               </g>
        </defs>

<script type="text/javascript">
var viewWidth = 1234;
var viewHeight = 794;
var sectionId = 'dynsection-0';
</script>
<script xlink:href="../../svgpan.js"/>
<svg id="graph" class="graph">
<g id="viewport">
<title>UPCAnalysis</title>
<!-- Node1 -->
<g id="node1" class="node">
<title>Node1</title>
<polygon fill="#bfbfbf" stroke="#000000" points="557,-.5 557,-57.5 635,-57.5 635,-.5 557,-.5"/>
<text text-anchor="middle" x="596" y="-45.5" font-family="Helvetica,sans-Serif" font-size="10.00" fill="#000000">UPCAnalysis</text>
<polyline fill="none" stroke="#000000" points="557,-38.5 635,-38.5 "/>
<text text-anchor="middle" x="596" y="-26.5" font-family="Helvetica,sans-Serif" font-size="10.00" fill="#000000"> </text>
<polyline fill="none" stroke="#000000" points="557,-19.5 635,-19.5 "/>
<text text-anchor="start" x="565" y="-7.5" font-family="Helvetica,sans-Serif" font-size="10.00" fill="#000000">+ process()</text>
</g>
<!-- Node2 -->
<g id="node2" class="node">
<title>Node2</title>
<g id="a_node2"><a xlink:href="../../d4/d79/structo2_1_1framework_1_1OutputObj.html" target="_top" xlink:title="{o2::framework::OutputObj\l\&lt; TH2D \&gt;\n||+ spec()\l+ OutputObj()\l+ OutputObj()\l+ setObject()\l+ setObject()\l+ setObject()\l+ setHash()\l+ operator&#45;\&gt;()\l+ operator*()\l+ ref()\l}">
<polygon fill="none" stroke="#000000" points="351.5,-116.5 351.5,-283.5 494.5,-283.5 494.5,-116.5 351.5,-116.5"/>
<text text-anchor="start" x="359.5" y="-271.5" font-family="Helvetica,sans-Serif" font-size="10.00" fill="#000000">o2::framework::OutputObj</text>
<text text-anchor="middle" x="423" y="-260.5" font-family="Helvetica,sans-Serif" font-size="10.00" fill="#000000">&lt; TH2D &gt;</text>
<polyline fill="none" stroke="#000000" points="351.5,-253.5 494.5,-253.5 "/>
<text text-anchor="middle" x="423" y="-241.5" font-family="Helvetica,sans-Serif" font-size="10.00" fill="#000000"> </text>
<polyline fill="none" stroke="#000000" points="351.5,-234.5 494.5,-234.5 "/>
<text text-anchor="start" x="359.5" y="-222.5" font-family="Helvetica,sans-Serif" font-size="10.00" fill="#000000">+ spec()</text>
<text text-anchor="start" x="359.5" y="-211.5" font-family="Helvetica,sans-Serif" font-size="10.00" fill="#000000">+ OutputObj()</text>
<text text-anchor="start" x="359.5" y="-200.5" font-family="Helvetica,sans-Serif" font-size="10.00" fill="#000000">+ OutputObj()</text>
<text text-anchor="start" x="359.5" y="-189.5" font-family="Helvetica,sans-Serif" font-size="10.00" fill="#000000">+ setObject()</text>
<text text-anchor="start" x="359.5" y="-178.5" font-family="Helvetica,sans-Serif" font-size="10.00" fill="#000000">+ setObject()</text>
<text text-anchor="start" x="359.5" y="-167.5" font-family="Helvetica,sans-Serif" font-size="10.00" fill="#000000">+ setObject()</text>
<text text-anchor="start" x="359.5" y="-156.5" font-family="Helvetica,sans-Serif" font-size="10.00" fill="#000000">+ setHash()</text>
<text text-anchor="start" x="359.5" y="-145.5" font-family="Helvetica,sans-Serif" font-size="10.00" fill="#000000">+ operator&#45;&gt;()</text>
<text text-anchor="start" x="359.5" y="-134.5" font-family="Helvetica,sans-Serif" font-size="10.00" fill="#000000">+ operator*()</text>
<text text-anchor="start" x="359.5" y="-123.5" font-family="Helvetica,sans-Serif" font-size="10.00" fill="#000000">+ ref()</text>
</a>
</g>
</g>
<!-- Node2&#45;&gt;Node1 -->
<g id="edge1" class="edge">
<title>Node2&#45;&gt;Node1</title>
<path fill="none" stroke="#404040" d="M494.6145,-129.2134C516.5027,-107.5782 539.702,-84.6472 558.3769,-66.1882"/>
<polygon fill="none" stroke="#404040" points="558.621,-65.9468 560.0763,-58.8841 567.1555,-57.511 565.7002,-64.5738 558.621,-65.9468"/>
<text text-anchor="middle" x="613.5" y="-84.5" font-family="Helvetica,sans-Serif" font-size="10.00" fill="#000000"> +hSignalTPC1vsSignalTPC2</text>
</g>
<!-- Node3 -->
<g id="node3" class="node">
<title>Node3</title>
<polygon fill="none" stroke="#bfbfbf" points="174.5,-563 174.5,-620 313.5,-620 313.5,-563 174.5,-563"/>
<text text-anchor="middle" x="244" y="-608" font-family="Helvetica,sans-Serif" font-size="10.00" fill="#000000">OutputObjHandlingPolicy</text>
<polyline fill="none" stroke="#bfbfbf" points="174.5,-601 313.5,-601 "/>
<text text-anchor="middle" x="244" y="-589" font-family="Helvetica,sans-Serif" font-size="10.00" fill="#000000"> </text>
<polyline fill="none" stroke="#bfbfbf" points="174.5,-582 313.5,-582 "/>
<text text-anchor="middle" x="244" y="-570" font-family="Helvetica,sans-Serif" font-size="10.00" fill="#000000"> </text>
</g>
<!-- Node3&#45;&gt;Node2 -->
<g id="edge2" class="edge">
<title>Node3&#45;&gt;Node2</title>
<path fill="none" stroke="#404040" d="M230.3498,-562.7795C208.5445,-512.3936 172.3383,-406.2824 214,-331 240.866,-282.4534 294.0741,-249.4909 340.0779,-228.7733"/>
<polygon fill="none" stroke="#404040" points="340.2872,-228.6824 344.1941,-222.6214 351.2915,-223.8966 347.3846,-229.9576 340.2872,-228.6824"/>
<text text-anchor="middle" x="234.5" y="-407" font-family="Helvetica,sans-Serif" font-size="10.00" fill="#000000"> +policy</text>
</g>
<!-- Node11 -->
<g id="node11" class="node">
<title>Node11</title>
<g id="a_node11"><a xlink:href="../../d4/d79/structo2_1_1framework_1_1OutputObj.html" target="_top" xlink:title="{o2::framework::OutputObj\&lt; T \&gt;\n||+ OutputObj()\l+ OutputObj()\l+ setObject()\l+ setObject()\l+ setObject()\l+ setHash()\l+ spec()\l+ operator&#45;\&gt;()\l+ operator*()\l+ ref()\l}">
<polygon fill="none" stroke="#000000" points="336,-331.5 336,-487.5 508,-487.5 508,-331.5 336,-331.5"/>
<text text-anchor="middle" x="422" y="-475.5" font-family="Helvetica,sans-Serif" font-size="10.00" fill="#000000">o2::framework::OutputObj&lt; T &gt;</text>
<polyline fill="none" stroke="#000000" points="336,-468.5 508,-468.5 "/>
<text text-anchor="middle" x="422" y="-456.5" font-family="Helvetica,sans-Serif" font-size="10.00" fill="#000000"> </text>
<polyline fill="none" stroke="#000000" points="336,-449.5 508,-449.5 "/>
<text text-anchor="start" x="344" y="-437.5" font-family="Helvetica,sans-Serif" font-size="10.00" fill="#000000">+ OutputObj()</text>
<text text-anchor="start" x="344" y="-426.5" font-family="Helvetica,sans-Serif" font-size="10.00" fill="#000000">+ OutputObj()</text>
<text text-anchor="start" x="344" y="-415.5" font-family="Helvetica,sans-Serif" font-size="10.00" fill="#000000">+ setObject()</text>
<text text-anchor="start" x="344" y="-404.5" font-family="Helvetica,sans-Serif" font-size="10.00" fill="#000000">+ setObject()</text>
<text text-anchor="start" x="344" y="-393.5" font-family="Helvetica,sans-Serif" font-size="10.00" fill="#000000">+ setObject()</text>
<text text-anchor="start" x="344" y="-382.5" font-family="Helvetica,sans-Serif" font-size="10.00" fill="#000000">+ setHash()</text>
<text text-anchor="start" x="344" y="-371.5" font-family="Helvetica,sans-Serif" font-size="10.00" fill="#000000">+ spec()</text>
<text text-anchor="start" x="344" y="-360.5" font-family="Helvetica,sans-Serif" font-size="10.00" fill="#000000">+ operator&#45;&gt;()</text>
<text text-anchor="start" x="344" y="-349.5" font-family="Helvetica,sans-Serif" font-size="10.00" fill="#000000">+ operator*()</text>
<text text-anchor="start" x="344" y="-338.5" font-family="Helvetica,sans-Serif" font-size="10.00" fill="#000000">+ ref()</text>
</a>
</g>
</g>
<!-- Node3&#45;&gt;Node11 -->
<g id="edge12" class="edge">
<title>Node3&#45;&gt;Node11</title>
<path fill="none" stroke="#404040" d="M272.2046,-562.6616C289.8408,-544.6291 313.5778,-520.3586 336.9508,-496.4604"/>
<polygon fill="none" stroke="#404040" points="337.143,-496.2639 338.4785,-489.1776 345.5335,-487.6849 344.1979,-494.7712 337.143,-496.2639"/>
<text text-anchor="middle" x="342.5" y="-509" font-family="Helvetica,sans-Serif" font-size="10.00" fill="#000000"> +policy</text>
</g>
<!-- Node13 -->
<g id="node13" class="node">
<title>Node13</title>
<g id="a_node13"><a xlink:href="../../d4/d79/structo2_1_1framework_1_1OutputObj.html" target="_top" xlink:title="{o2::framework::OutputObj\l\&lt; TH1D \&gt;\n||+ spec()\l+ OutputObj()\l+ OutputObj()\l+ setObject()\l+ setObject()\l+ setObject()\l+ setHash()\l+ operator&#45;\&gt;()\l+ operator*()\l+ ref()\l}">
<polygon fill="none" stroke="#000000" points="723.5,-116.5 723.5,-283.5 866.5,-283.5 866.5,-116.5 723.5,-116.5"/>
<text text-anchor="start" x="731.5" y="-271.5" font-family="Helvetica,sans-Serif" font-size="10.00" fill="#000000">o2::framework::OutputObj</text>
<text text-anchor="middle" x="795" y="-260.5" font-family="Helvetica,sans-Serif" font-size="10.00" fill="#000000">&lt; TH1D &gt;</text>
<polyline fill="none" stroke="#000000" points="723.5,-253.5 866.5,-253.5 "/>
<text text-anchor="middle" x="795" y="-241.5" font-family="Helvetica,sans-Serif" font-size="10.00" fill="#000000"> </text>
<polyline fill="none" stroke="#000000" points="723.5,-234.5 866.5,-234.5 "/>
<text text-anchor="start" x="731.5" y="-222.5" font-family="Helvetica,sans-Serif" font-size="10.00" fill="#000000">+ spec()</text>
<text text-anchor="start" x="731.5" y="-211.5" font-family="Helvetica,sans-Serif" font-size="10.00" fill="#000000">+ OutputObj()</text>
<text text-anchor="start" x="731.5" y="-200.5" font-family="Helvetica,sans-Serif" font-size="10.00" fill="#000000">+ OutputObj()</text>
<text text-anchor="start" x="731.5" y="-189.5" font-family="Helvetica,sans-Serif" font-size="10.00" fill="#000000">+ setObject()</text>
<text text-anchor="start" x="731.5" y="-178.5" font-family="Helvetica,sans-Serif" font-size="10.00" fill="#000000">+ setObject()</text>
<text text-anchor="start" x="731.5" y="-167.5" font-family="Helvetica,sans-Serif" font-size="10.00" fill="#000000">+ setObject()</text>
<text text-anchor="start" x="731.5" y="-156.5" font-family="Helvetica,sans-Serif" font-size="10.00" fill="#000000">+ setHash()</text>
<text text-anchor="start" x="731.5" y="-145.5" font-family="Helvetica,sans-Serif" font-size="10.00" fill="#000000">+ operator&#45;&gt;()</text>
<text text-anchor="start" x="731.5" y="-134.5" font-family="Helvetica,sans-Serif" font-size="10.00" fill="#000000">+ operator*()</text>
<text text-anchor="start" x="731.5" y="-123.5" font-family="Helvetica,sans-Serif" font-size="10.00" fill="#000000">+ ref()</text>
</a>
</g>
</g>
<!-- Node3&#45;&gt;Node13 -->
<g id="edge19" class="edge">
<title>Node3&#45;&gt;Node13</title>
<path fill="none" stroke="#404040" d="M246.8419,-562.9558C253.4648,-498.9185 270.5389,-348.0543 286,-331 319.9584,-293.5424 346.5668,-312.6118 396,-302 443.5782,-291.7864 456.5438,-294.766 504,-284 574.7636,-267.9465 653.7918,-244.7928 711.6137,-226.858"/>
<polygon fill="none" stroke="#404040" points="711.7966,-226.801 716.3342,-221.1965 723.2528,-223.2295 718.7152,-228.834 711.7966,-226.801"/>
<text text-anchor="middle" x="306.5" y="-407" font-family="Helvetica,sans-Serif" font-size="10.00" fill="#000000"> +policy</text>
</g>
<!-- Node4 -->
<g id="node4" class="node">
<title>Node4</title>
<polygon fill="none" stroke="#bfbfbf" points="0,-381 0,-438 118,-438 118,-381 0,-381"/>
<text text-anchor="middle" x="59" y="-426" font-family="Helvetica,sans-Serif" font-size="10.00" fill="#000000">shared_ptr&lt; TH2D &gt;</text>
<polyline fill="none" stroke="#bfbfbf" points="0,-419 118,-419 "/>
<text text-anchor="middle" x="59" y="-407" font-family="Helvetica,sans-Serif" font-size="10.00" fill="#000000"> </text>
<polyline fill="none" stroke="#bfbfbf" points="0,-400 118,-400 "/>
<text text-anchor="middle" x="59" y="-388" font-family="Helvetica,sans-Serif" font-size="10.00" fill="#000000"> </text>
</g>
<!-- Node4&#45;&gt;Node2 -->
<g id="edge3" class="edge">
<title>Node4&#45;&gt;Node2</title>
<path fill="none" stroke="#404040" d="M59.987,-380.6341C62.3427,-356.5532 69.4323,-322.9094 90,-302 124.8771,-266.5434 252.4467,-234.5347 339.1725,-216.185"/>
<polygon fill="none" stroke="#404040" points="339.3786,-216.142 344.4335,-210.9993 351.1249,-213.6874 346.0699,-218.8301 339.3786,-216.142"/>
<text text-anchor="middle" x="111" y="-305" font-family="Helvetica,sans-Serif" font-size="10.00" fill="#000000"> +object</text>
</g>
<!-- Node5 -->
<g id="node5" class="node">
<title>Node5</title>
<polygon fill="none" stroke="#bfbfbf" points="681.5,-712 681.5,-769 710.5,-769 710.5,-712 681.5,-712"/>
<text text-anchor="middle" x="696" y="-757" font-family="Helvetica,sans-Serif" font-size="10.00" fill="#000000">int</text>
<polyline fill="none" stroke="#bfbfbf" points="681.5,-750 710.5,-750 "/>
<text text-anchor="middle" x="696" y="-738" font-family="Helvetica,sans-Serif" font-size="10.00" fill="#000000"> </text>
<polyline fill="none" stroke="#bfbfbf" points="681.5,-731 710.5,-731 "/>
<text text-anchor="middle" x="696" y="-719" font-family="Helvetica,sans-Serif" font-size="10.00" fill="#000000"> </text>
</g>
<!-- Node5&#45;&gt;Node2 -->
<g id="edge4" class="edge">
<title>Node5&#45;&gt;Node2</title>
<path fill="none" stroke="#404040" d="M681.316,-740.3598C602.8278,-739.2744 233.8051,-729.8271 165,-648 130.241,-606.6626 168.7579,-374.4907 191,-331 220.1872,-273.9293 285.7603,-240.2586 339.7723,-221.3777"/>
<polygon fill="none" stroke="#404040" points="340.0795,-221.2747 344.4952,-215.5736 351.456,-217.457 347.0403,-223.158 340.0795,-221.2747"/>
<text text-anchor="middle" x="173" y="-509" font-family="Helvetica,sans-Serif" font-size="10.00" fill="#000000"> +label</text>
</g>
<!-- Node7 -->
<g id="node7" class="node">
<title>Node7</title>
<g id="a_node7"><a xlink:href="../../da/d96/structo2_1_1framework_1_1InputSpec.html" target="_top" xlink:title="{o2::framework::InputSpec\n||+ InputSpec()\l+ InputSpec()\l+ InputSpec()\l+ InputSpec()\l+ InputSpec()\l+ operator==()\l}">
<polygon fill="none" stroke="#000000" points="965,-535.5 965,-647.5 1107,-647.5 1107,-535.5 965,-535.5"/>
<text text-anchor="middle" x="1036" y="-635.5" font-family="Helvetica,sans-Serif" font-size="10.00" fill="#000000">o2::framework::InputSpec</text>
<polyline fill="none" stroke="#000000" points="965,-628.5 1107,-628.5 "/>
<text text-anchor="middle" x="1036" y="-616.5" font-family="Helvetica,sans-Serif" font-size="10.00" fill="#000000"> </text>
<polyline fill="none" stroke="#000000" points="965,-609.5 1107,-609.5 "/>
<text text-anchor="start" x="973" y="-597.5" font-family="Helvetica,sans-Serif" font-size="10.00" fill="#000000">+ InputSpec()</text>
<text text-anchor="start" x="973" y="-586.5" font-family="Helvetica,sans-Serif" font-size="10.00" fill="#000000">+ InputSpec()</text>
<text text-anchor="start" x="973" y="-575.5" font-family="Helvetica,sans-Serif" font-size="10.00" fill="#000000">+ InputSpec()</text>
<text text-anchor="start" x="973" y="-564.5" font-family="Helvetica,sans-Serif" font-size="10.00" fill="#000000">+ InputSpec()</text>
<text text-anchor="start" x="973" y="-553.5" font-family="Helvetica,sans-Serif" font-size="10.00" fill="#000000">+ InputSpec()</text>
<text text-anchor="start" x="973" y="-542.5" font-family="Helvetica,sans-Serif" font-size="10.00" fill="#000000">+ operator==()</text>
</a>
</g>
</g>
<!-- Node5&#45;&gt;Node7 -->
<g id="edge9" class="edge">
<title>Node5&#45;&gt;Node7</title>
<path fill="none" stroke="#404040" d="M710.6871,-739.3222C750.6617,-735.5956 863.8486,-721.5412 945,-677 955.8009,-671.0718 966.2913,-663.5615 976.0768,-655.4638"/>
<polygon fill="none" stroke="#404040" points="976.151,-655.3997 978.0747,-648.4499 985.2298,-647.5526 983.3061,-654.5024 976.151,-655.3997"/>
<text text-anchor="middle" x="986" y="-669" font-family="Helvetica,sans-Serif" font-size="10.00" fill="#000000"> +binding</text>
</g>
<!-- Node5&#45;&gt;Node11 -->
<g id="edge13" class="edge">
<title>Node5&#45;&gt;Node11</title>
<path fill="none" stroke="#404040" d="M681.2454,-738.5696C642.4743,-732.6914 536.9974,-711.3652 483,-648 463.7842,-625.4505 447.491,-557.3764 436.5905,-499.6994"/>
<polygon fill="none" stroke="#404040" points="436.5296,-499.3696 431.5051,-494.1972 434.3472,-487.5697 439.3717,-492.7422 436.5296,-499.3696"/>
<text text-anchor="middle" x="501" y="-589" font-family="Helvetica,sans-Serif" font-size="10.00" fill="#000000"> +label</text>
</g>
<!-- Node5&#45;&gt;Node13 -->
<g id="edge20" class="edge">
<title>Node5&#45;&gt;Node13</title>
<path fill="none" stroke="#404040" d="M710.7935,-729.2428C769.0427,-684.7623 980.166,-522.0228 996,-488 1025.4418,-424.7377 1029.2448,-392.3492 996,-331 970.7991,-284.4949 921.1412,-251.893 877.4909,-230.8442"/>
<polygon fill="none" stroke="#404040" points="877.4178,-230.8102 870.2896,-231.9007 866.5413,-225.7403 873.6695,-224.6497 877.4178,-230.8102"/>
<text text-anchor="middle" x="999" y="-509" font-family="Helvetica,sans-Serif" font-size="10.00" fill="#000000"> +label</text>
</g>
<!-- Node6 -->
<g id="node6" class="node">
<title>Node6</title>
<polygon fill="none" stroke="#bfbfbf" points="528,-563 528,-620 566,-620 566,-563 528,-563"/>
<text text-anchor="middle" x="547" y="-608" font-family="Helvetica,sans-Serif" font-size="10.00" fill="#000000">bool</text>
<polyline fill="none" stroke="#bfbfbf" points="528,-601 566,-601 "/>
<text text-anchor="middle" x="547" y="-589" font-family="Helvetica,sans-Serif" font-size="10.00" fill="#000000"> </text>
<polyline fill="none" stroke="#bfbfbf" points="528,-582 566,-582 "/>
<text text-anchor="middle" x="547" y="-570" font-family="Helvetica,sans-Serif" font-size="10.00" fill="#000000"> </text>
</g>
<!-- Node6&#45;&gt;Node2 -->
<g id="edge5" class="edge">
<title>Node6&#45;&gt;Node2</title>
<path fill="none" stroke="#404040" d="M547.9546,-562.5591C549.638,-498.6816 551.1704,-347.6797 530,-302 523.3783,-287.7123 513.7838,-274.4139 503.022,-262.4513"/>
<polygon fill="none" stroke="#404040" points="502.8544,-262.2747 495.8229,-260.6754 494.5947,-253.5696 501.6263,-255.169 502.8544,-262.2747"/>
<text text-anchor="middle" x="579" y="-407" font-family="Helvetica,sans-Serif" font-size="10.00" fill="#000000"> +isdangling</text>
</g>
<!-- Node6&#45;&gt;Node11 -->
<g id="edge15" class="edge">
<title>Node6&#45;&gt;Node11</title>
<path fill="none" stroke="#404040" d="M529.5519,-562.9956C522.7127,-553.3222 514.2751,-542.9598 505,-535 492.0248,-523.8649 482.727,-529.4428 471,-517 465.6917,-511.3677 460.8838,-505.0602 456.5439,-498.3989"/>
<polygon fill="none" stroke="#404040" points="456.2868,-497.9711 449.7674,-494.8893 450.1048,-487.686 456.6242,-490.7679 456.2868,-497.9711"/>
<text text-anchor="middle" x="502" y="-509" font-family="Helvetica,sans-Serif" font-size="10.00" fill="#000000"> +isdangling</text>
</g>
<!-- Node6&#45;&gt;Node13 -->
<g id="edge22" class="edge">
<title>Node6&#45;&gt;Node13</title>
<path fill="none" stroke="#404040" d="M566.0779,-580.8177C607.8059,-557.2935 704.2505,-501.9934 714,-488 754.7089,-429.5706 726.3542,-399.4489 746,-331 749.3758,-319.2381 753.3214,-307.0305 757.4816,-295.0085"/>
<polygon fill="none" stroke="#404040" points="757.5286,-294.8749 755.7547,-287.8854 761.5243,-283.5597 763.2982,-290.5492 757.5286,-294.8749"/>
<text text-anchor="middle" x="777" y="-407" font-family="Helvetica,sans-Serif" font-size="10.00" fill="#000000"> +isdangling</text>
</g>
<!-- Node7&#45;&gt;Node2 -->
<g id="edge6" class="edge">
<title>Node7&#45;&gt;Node2</title>
<path fill="none" stroke="#404040" d="M1014.0673,-535.4297C986.3838,-467.3703 938.2503,-358.2892 904,-331 836.3024,-277.0614 798.6062,-306.4131 715,-284 644.4524,-265.0877 564.7984,-242.0605 506.5261,-224.9022"/>
<polygon fill="none" stroke="#404040" points="506.3066,-224.8375 499.4201,-226.9767 494.7968,-221.4427 501.6833,-219.3035 506.3066,-224.8375"/>
<text text-anchor="middle" x="1009" y="-407" font-family="Helvetica,sans-Serif" font-size="10.00" fill="#000000"> +spec</text>
</g>
<!-- Node7&#45;&gt;Node11 -->
<g id="edge16" class="edge">
<title>Node7&#45;&gt;Node11</title>
<path fill="none" stroke="#404040" d="M964.6889,-575.2014C884.4937,-557.1365 750.2609,-527.6918 634,-506 584.4387,-496.7529 568.1889,-508.2092 522,-488 520.9827,-487.5549 519.9667,-487.0969 518.9524,-486.6268"/>
<polygon fill="none" stroke="#404040" points="518.8679,-486.584 511.7075,-487.4374 508.1657,-481.156 515.3262,-480.3026 518.8679,-486.584"/>
<text text-anchor="middle" x="705" y="-509" font-family="Helvetica,sans-Serif" font-size="10.00" fill="#000000"> +spec</text>
</g>
<!-- Node7&#45;&gt;Node13 -->
<g id="edge23" class="edge">
<title>Node7&#45;&gt;Node13</title>
<path fill="none" stroke="#404040" d="M1049.88,-535.4939C1061.9787,-472.9076 1071.0562,-371.287 1024,-302 991.0499,-253.4833 929.3379,-227.7813 878.2731,-214.3184"/>
<polygon fill="none" stroke="#404040" points="878.1946,-214.2989 871.4039,-216.7252 866.5525,-211.3901 873.3431,-208.9638 878.1946,-214.2989"/>
<text text-anchor="middle" x="1076" y="-407" font-family="Helvetica,sans-Serif" font-size="10.00" fill="#000000"> +spec</text>
</g>
<!-- Node8 -->
<g id="node8" class="node">
<title>Node8</title>
<polygon fill="none" stroke="#bfbfbf" points="1138,-712 1138,-769 1226,-769 1226,-712 1138,-712"/>
<text text-anchor="middle" x="1182" y="-757" font-family="Helvetica,sans-Serif" font-size="10.00" fill="#000000">enum Lifetime</text>
<polyline fill="none" stroke="#bfbfbf" points="1138,-750 1226,-750 "/>
<text text-anchor="middle" x="1182" y="-738" font-family="Helvetica,sans-Serif" font-size="10.00" fill="#000000"> </text>
<polyline fill="none" stroke="#bfbfbf" points="1138,-731 1226,-731 "/>
<text text-anchor="middle" x="1182" y="-719" font-family="Helvetica,sans-Serif" font-size="10.00" fill="#000000"> </text>
</g>
<!-- Node8&#45;&gt;Node7 -->
<g id="edge7" class="edge">
<title>Node8&#45;&gt;Node7</title>
<path fill="none" stroke="#404040" d="M1153.8497,-711.7713C1138.4003,-696.0044 1118.5751,-675.7719 1099.6098,-656.4168"/>
<polygon fill="none" stroke="#404040" points="1099.3739,-656.1761 1092.3175,-654.69 1090.9753,-647.6049 1098.0316,-649.091 1099.3739,-656.1761"/>
<text text-anchor="middle" x="1142" y="-669" font-family="Helvetica,sans-Serif" font-size="10.00" fill="#000000"> +lifetime</text>
</g>
<!-- Node9 -->
<g id="node9" class="node">
<title>Node9</title>
<polygon fill="none" stroke="#bfbfbf" points="956,-695.5 956,-785.5 1120,-785.5 1120,-695.5 956,-695.5"/>
<text text-anchor="start" x="964" y="-773.5" font-family="Helvetica,sans-Serif" font-size="10.00" fill="#000000">variant&lt; o2::framework</text>
<text text-anchor="start" x="964" y="-762.5" font-family="Helvetica,sans-Serif" font-size="10.00" fill="#000000">::ConcreteDataMatcher,</text>
<text text-anchor="start" x="964" y="-751.5" font-family="Helvetica,sans-Serif" font-size="10.00" fill="#000000"> o2::framework::data_matcher</text>
<text text-anchor="middle" x="1038" y="-740.5" font-family="Helvetica,sans-Serif" font-size="10.00" fill="#000000">::DataDescriptorMatcher &gt;</text>
<polyline fill="none" stroke="#bfbfbf" points="956,-733.5 1120,-733.5 "/>
<text text-anchor="middle" x="1038" y="-721.5" font-family="Helvetica,sans-Serif" font-size="10.00" fill="#000000"> </text>
<polyline fill="none" stroke="#bfbfbf" points="956,-714.5 1120,-714.5 "/>
<text text-anchor="middle" x="1038" y="-702.5" font-family="Helvetica,sans-Serif" font-size="10.00" fill="#000000"> </text>
</g>
<!-- Node9&#45;&gt;Node7 -->
<g id="edge8" class="edge">
<title>Node9&#45;&gt;Node7</title>
<path fill="none" stroke="#404040" d="M1037.3945,-695.3907C1037.2427,-684.0845 1037.0765,-671.7027 1036.9134,-659.5514"/>
<polygon fill="none" stroke="#404040" points="1036.9132,-659.5243 1032.833,-653.5785 1036.752,-647.5254 1040.8322,-653.4711 1036.9132,-659.5243"/>
<text text-anchor="middle" x="1063" y="-669" font-family="Helvetica,sans-Serif" font-size="10.00" fill="#000000"> +matcher</text>
</g>
<!-- Node10 -->
<g id="node10" class="node">
<title>Node10</title>
<polygon fill="none" stroke="#bfbfbf" points="657.5,-563 657.5,-620 718.5,-620 718.5,-563 657.5,-563"/>
<text text-anchor="middle" x="688" y="-608" font-family="Helvetica,sans-Serif" font-size="10.00" fill="#000000">unsigned</text>
<polyline fill="none" stroke="#bfbfbf" points="657.5,-601 718.5,-601 "/>
<text text-anchor="middle" x="688" y="-589" font-family="Helvetica,sans-Serif" font-size="10.00" fill="#000000"> </text>
<polyline fill="none" stroke="#bfbfbf" points="657.5,-582 718.5,-582 "/>
<text text-anchor="middle" x="688" y="-570" font-family="Helvetica,sans-Serif" font-size="10.00" fill="#000000"> </text>
</g>
<!-- Node10&#45;&gt;Node2 -->
<g id="edge10" class="edge">
<title>Node10&#45;&gt;Node2</title>
<path fill="none" stroke="#404040" d="M672.9757,-562.7801C662.8815,-542.4004 650.0082,-514.1328 642,-488 621.233,-420.2318 652.4306,-390.5558 614,-331 587.8942,-290.5438 544.4223,-259.2732 505.5417,-237.4463"/>
<polygon fill="none" stroke="#404040" points="505.2499,-237.2872 498.0671,-237.9254 494.7153,-231.5406 501.8981,-230.9024 505.2499,-237.2872"/>
<text text-anchor="middle" x="676" y="-407" font-family="Helvetica,sans-Serif" font-size="10.00" fill="#000000"> +mTaskHash</text>
</g>
<!-- Node10&#45;&gt;Node11 -->
<g id="edge17" class="edge">
<title>Node10&#45;&gt;Node11</title>
<path fill="none" stroke="#404040" d="M657.3787,-573.7591C623.5793,-553.8683 567.8823,-520.1721 522,-488 520.7039,-487.0912 519.402,-486.1717 518.0956,-485.2429"/>
<polygon fill="none" stroke="#404040" points="517.7409,-484.9867 510.5348,-484.7158 508.0134,-477.9598 515.2194,-478.2308 517.7409,-484.9867"/>
<text text-anchor="middle" x="596" y="-509" font-family="Helvetica,sans-Serif" font-size="10.00" fill="#000000"> +mTaskHash</text>
</g>
<!-- Node10&#45;&gt;Node13 -->
<g id="edge24" class="edge">
<title>Node10&#45;&gt;Node13</title>
<path fill="none" stroke="#404040" d="M718.6502,-576.2131C748.7549,-559.2861 792.867,-528.8919 812,-488 839.9509,-428.2619 834.65,-353.7811 822.9094,-295.5291"/>
<polygon fill="none" stroke="#404040" points="822.8966,-295.4682 817.7358,-290.4317 820.4,-283.7308 825.5607,-288.7673 822.8966,-295.4682"/>
<text text-anchor="middle" x="866" y="-407" font-family="Helvetica,sans-Serif" font-size="10.00" fill="#000000"> +mTaskHash</text>
</g>
<!-- Node11&#45;&gt;Node2 -->
<g id="edge11" class="edge">
<title>Node11&#45;&gt;Node2</title>
<path fill="none" stroke="#ffa500" d="M401.9994,-321.2021C401.6261,-318.4426 401.2908,-315.7036 401,-313 399.9741,-303.4615 400.1064,-293.5273 400.9986,-283.6811"/>
<polygon fill="#ffa500" stroke="#ffa500" points="398.5627,-321.8864 403.505,-331.2579 405.4856,-320.8499 398.5627,-321.8864"/>
<text text-anchor="middle" x="427.5" y="-305" font-family="Helvetica,sans-Serif" font-size="10.00" fill="#000000"> &lt; TH2D &gt;</text>
</g>
<!-- Node11&#45;&gt;Node13 -->
<g id="edge25" class="edge">
<title>Node11&#45;&gt;Node13</title>
<path fill="none" stroke="#ffa500" d="M516.8214,-334.2827C518.5511,-333.1663 520.2781,-332.0711 522,-331 587.2841,-290.391 667.0754,-253.4263 723.4914,-229.1957"/>
<polygon fill="#ffa500" stroke="#ffa500" points="514.5616,-331.5817 508.1631,-340.0262 518.4311,-337.415 514.5616,-331.5817"/>
<text text-anchor="middle" x="590.5" y="-305" font-family="Helvetica,sans-Serif" font-size="10.00" fill="#000000"> &lt; TH1D &gt;</text>
</g>
<!-- Node12 -->
<g id="node12" class="node">
<title>Node12</title>
<polygon fill="none" stroke="#bfbfbf" points="331.5,-563 331.5,-620 428.5,-620 428.5,-563 331.5,-563"/>
<text text-anchor="middle" x="380" y="-608" font-family="Helvetica,sans-Serif" font-size="10.00" fill="#000000">shared_ptr&lt; T &gt;</text>
<polyline fill="none" stroke="#bfbfbf" points="331.5,-601 428.5,-601 "/>
<text text-anchor="middle" x="380" y="-589" font-family="Helvetica,sans-Serif" font-size="10.00" fill="#000000"> </text>
<polyline fill="none" stroke="#bfbfbf" points="331.5,-582 428.5,-582 "/>
<text text-anchor="middle" x="380" y="-570" font-family="Helvetica,sans-Serif" font-size="10.00" fill="#000000"> </text>
</g>
<!-- Node12&#45;&gt;Node11 -->
<g id="edge14" class="edge">
<title>Node12&#45;&gt;Node11</title>
<path fill="none" stroke="#404040" d="M377.5749,-562.6975C376.8498,-545.9717 377.0998,-524.5967 381,-506 381.4565,-503.8232 381.9629,-501.6343 382.5133,-499.4396"/>
<polygon fill="none" stroke="#404040" points="382.5736,-499.2262 380.3599,-492.3633 385.8435,-487.6803 388.0572,-494.5432 382.5736,-499.2262"/>
<text text-anchor="middle" x="402" y="-509" font-family="Helvetica,sans-Serif" font-size="10.00" fill="#000000"> +object</text>
</g>
<!-- Node13&#45;&gt;Node1 -->
<g id="edge18" class="edge">
<title>Node13&#45;&gt;Node1</title>
<path fill="none" stroke="#404040" d="M729.9232,-116.3468C716.6136,-101.9322 702.0457,-87.8103 687,-76 674.639,-66.2972 659.9677,-57.6923 646.0542,-50.5837"/>
<polygon fill="none" stroke="#404040" points="645.8876,-50.5019 638.7387,-51.4467 635.1169,-45.2111 642.2659,-44.2663 645.8876,-50.5019"/>
<text text-anchor="middle" x="730" y="-90" font-family="Helvetica,sans-Serif" font-size="10.00" fill="#000000"> +hPt</text>
<text text-anchor="middle" x="730" y="-79" font-family="Helvetica,sans-Serif" font-size="10.00" fill="#000000">+hMass</text>
</g>
<!-- Node14 -->
<g id="node14" class="node">
<title>Node14</title>
<polygon fill="none" stroke="#bfbfbf" points="1108,-381 1108,-438 1226,-438 1226,-381 1108,-381"/>
<text text-anchor="middle" x="1167" y="-426" font-family="Helvetica,sans-Serif" font-size="10.00" fill="#000000">shared_ptr&lt; TH1D &gt;</text>
<polyline fill="none" stroke="#bfbfbf" points="1108,-419 1226,-419 "/>
<text text-anchor="middle" x="1167" y="-407" font-family="Helvetica,sans-Serif" font-size="10.00" fill="#000000"> </text>
<polyline fill="none" stroke="#bfbfbf" points="1108,-400 1226,-400 "/>
<text text-anchor="middle" x="1167" y="-388" font-family="Helvetica,sans-Serif" font-size="10.00" fill="#000000"> </text>
</g>
<!-- Node14&#45;&gt;Node13 -->
<g id="edge21" class="edge">
<title>Node14&#45;&gt;Node13</title>
<path fill="none" stroke="#404040" d="M1147.2862,-380.8339C1129.5179,-356.878 1101.415,-323.3053 1070,-302 1011.5726,-262.3751 935.7756,-235.7535 878.5581,-219.6725"/>
<polygon fill="none" stroke="#404040" points="878.2149,-219.5783 871.3698,-221.8464 866.6434,-216.4001 873.4886,-214.132 878.2149,-219.5783"/>
<text text-anchor="middle" x="1103" y="-305" font-family="Helvetica,sans-Serif" font-size="10.00" fill="#000000"> +object</text>
</g>
</g>
</svg>
        <g id="navigator" transform="translate(0 0)" fill="#404254">
                <rect fill="#f2f5e9" fill-opacity="0.5" stroke="#606060" stroke-width=".5" x="0" y="0" width="60" height="60"/>
                <use id="zoomplus" xlink:href="#zoomPlus" x="17" y="9" onmousedown="handleZoom(evt,'in')"/>
                <use id="zoomminus" xlink:href="#zoomMin" x="42" y="9" onmousedown="handleZoom(evt,'out')"/>
                <use id="reset" xlink:href="#resetDef" x="30" y="36" onmousedown="handleReset()"/>
                <g id="arrowUp" xlink:href="#dirArrow" transform="translate(30 24)" onmousedown="handlePan(0,-1)">
                  <use xlink:href="#rim" fill="#404040">
                        <set attributeName="fill" to="#808080" begin="arrowUp.mouseover" end="arrowUp.mouseout"/>
                  </use>
                  <path fill="none" stroke="white" stroke-width="1.5" d="M0,-3.0v7 M-2.5,-0.5L0,-3.0L2.5,-0.5"/>
                </g>
                <g id="arrowRight" xlink:href="#dirArrow" transform="rotate(90) translate(36 -43)" onmousedown="handlePan(1,0)">
                  <use xlink:href="#rim" fill="#404040">
                        <set attributeName="fill" to="#808080" begin="arrowRight.mouseover" end="arrowRight.mouseout"/>
                  </use>
                  <path fill="none" stroke="white" stroke-width="1.5" d="M0,-3.0v7 M-2.5,-0.5L0,-3.0L2.5,-0.5"/>
                </g>
                <g id="arrowDown" xlink:href="#dirArrow" transform="rotate(180) translate(-30 -48)" onmousedown="handlePan(0,1)">
                  <use xlink:href="#rim" fill="#404040">
                        <set attributeName="fill" to="#808080" begin="arrowDown.mouseover" end="arrowDown.mouseout"/>
                  </use>
                  <path fill="none" stroke="white" stroke-width="1.5" d="M0,-3.0v7 M-2.5,-0.5L0,-3.0L2.5,-0.5"/>
                </g>
                <g id="arrowLeft" xlink:href="#dirArrow" transform="rotate(270) translate(-36 17)" onmousedown="handlePan(-1,0)">
                  <use xlink:href="#rim" fill="#404040">
                        <set attributeName="fill" to="#808080" begin="arrowLeft.mouseover" end="arrowLeft.mouseout"/>
                  </use>
                  <path fill="none" stroke="white" stroke-width="1.5" d="M0,-3.0v7 M-2.5,-0.5L0,-3.0L2.5,-0.5"/>
                </g>
        </g>
        <svg viewBox="0 0 15 15" width="100%" height="30px" preserveAspectRatio="xMaxYMin meet">
         <g id="arrow_out" transform="scale(0.3 0.3)">
          <a xlink:href="structUPCAnalysis__coll__graph_org.svg" target="_base">
           <rect id="button" ry="5" rx="5" y="6" x="6" height="38" width="38"
                fill="#f2f5e9" fill-opacity="0.5" stroke="#606060" stroke-width="1.0"/>
           <path id="arrow"
             d="M 11.500037,31.436501 C 11.940474,20.09759 22.043105,11.32322 32.158766,21.979434 L 37.068811,17.246167 C 37.068811,17.246167 37.088388,32 37.088388,32 L 22.160133,31.978069 C 22.160133,31.978069 26.997745,27.140456 26.997745,27.140456 C 18.528582,18.264221 13.291696,25.230495 11.500037,31.436501 z"
             style="fill:#404040;"/>
          </a>
         </g>
        </svg>
</svg>
