<?xml version="1.0" encoding="UTF-8" standalone="no"?>
<!DOCTYPE svg PUBLIC "-//W3C//DTD SVG 1.1//EN"
 "http://www.w3.org/Graphics/SVG/1.1/DTD/svg11.dtd">
<!-- Generated by graphviz version 2.40.1 (20161225.0304)
 -->
<!-- Title: o2::ft0::TCMdata Pages: 1 -->
<svg width="352pt" height="292pt"
 viewBox="0.00 0.00 352.00 292.00" xmlns="http://www.w3.org/2000/svg" xmlns:xlink="http://www.w3.org/1999/xlink">
<g id="graph0" class="graph" transform="scale(1 1) rotate(0) translate(4 288)">
<title>o2::ft0::TCMdata</title>
<!-- Node1 -->
<g id="node1" class="node">
<title>Node1</title>
<polygon fill="#bfbfbf" stroke="#000000" points="80,-.5 80,-68.5 176,-68.5 176,-.5 80,-.5"/>
<text text-anchor="middle" x="128" y="-56.5" font-family="Helvetica,sans-Serif" font-size="10.00" fill="#000000">o2::ft0::TCMdata</text>
<polyline fill="none" stroke="#000000" points="80,-49.5 176,-49.5 "/>
<text text-anchor="middle" x="128" y="-37.5" font-family="Helvetica,sans-Serif" font-size="10.00" fill="#000000"> </text>
<polyline fill="none" stroke="#000000" points="80,-30.5 176,-30.5 "/>
<text text-anchor="start" x="88" y="-18.5" font-family="Helvetica,sans-Serif" font-size="10.00" fill="#000000">+ print()</text>
<text text-anchor="start" x="88" y="-7.5" font-family="Helvetica,sans-Serif" font-size="10.00" fill="#000000">+ fillTrigger()</text>
</g>
<!-- Node2 -->
<g id="node2" class="node">
<title>Node2</title>
<polygon fill="none" stroke="#bfbfbf" points="0,-226.5 0,-283.5 50,-283.5 50,-226.5 0,-226.5"/>
<text text-anchor="middle" x="25" y="-271.5" font-family="Helvetica,sans-Serif" font-size="10.00" fill="#000000">int64_t</text>
<polyline fill="none" stroke="#bfbfbf" points="0,-264.5 50,-264.5 "/>
<text text-anchor="middle" x="25" y="-252.5" font-family="Helvetica,sans-Serif" font-size="10.00" fill="#000000"> </text>
<polyline fill="none" stroke="#bfbfbf" points="0,-245.5 50,-245.5 "/>
<text text-anchor="middle" x="25" y="-233.5" font-family="Helvetica,sans-Serif" font-size="10.00" fill="#000000"> </text>
</g>
<!-- Node2&#45;&gt;Node1 -->
<g id="edge1" class="edge">
<title>Node2&#45;&gt;Node1</title>
<path fill="none" stroke="#404040" d="M21.0992,-226.4018C17.7565,-190.8665 17.0794,-129.7103 44,-87 50.3961,-76.8524 59.5426,-68.3371 69.4658,-61.318"/>
<polygon fill="none" stroke="#404040" points="69.493,-61.3005 72.3646,-54.6858 79.575,-54.7925 76.7033,-61.4072 69.493,-61.3005"/>
<text text-anchor="middle" x="84" y="-189" font-family="Helvetica,sans-Serif" font-size="10.00" fill="#000000"> +timeA</text>
<text text-anchor="middle" x="84" y="-178" font-family="Helvetica,sans-Serif" font-size="10.00" fill="#000000">+timeC</text>
<text text-anchor="middle" x="84" y="-167" font-family="Helvetica,sans-Serif" font-size="10.00" fill="#000000">+reservedField4</text>
<text text-anchor="middle" x="84" y="-156" font-family="Helvetica,sans-Serif" font-size="10.00" fill="#000000">+reservedField5</text>
<text text-anchor="middle" x="84" y="-145" font-family="Helvetica,sans-Serif" font-size="10.00" fill="#000000">+reservedField6</text>
<text text-anchor="middle" x="84" y="-134" font-family="Helvetica,sans-Serif" font-size="10.00" fill="#000000">+amplA</text>
<text text-anchor="middle" x="84" y="-123" font-family="Helvetica,sans-Serif" font-size="10.00" fill="#000000">+reservedField7</text>
<text text-anchor="middle" x="84" y="-112" font-family="Helvetica,sans-Serif" font-size="10.00" fill="#000000">+reservedField8</text>
<text text-anchor="middle" x="84" y="-101" font-family="Helvetica,sans-Serif" font-size="10.00" fill="#000000">+amplC</text>
</g>
<!-- Node3 -->
<g id="node3" class="node">
<title>Node3</title>
<polygon fill="none" stroke="#bfbfbf" points="97.5,-226.5 97.5,-283.5 158.5,-283.5 158.5,-226.5 97.5,-226.5"/>
<text text-anchor="middle" x="128" y="-271.5" font-family="Helvetica,sans-Serif" font-size="10.00" fill="#000000">unsigned</text>
<polyline fill="none" stroke="#bfbfbf" points="97.5,-264.5 158.5,-264.5 "/>
<text text-anchor="middle" x="128" y="-252.5" font-family="Helvetica,sans-Serif" font-size="10.00" fill="#000000"> </text>
<polyline fill="none" stroke="#bfbfbf" points="97.5,-245.5 158.5,-245.5 "/>
<text text-anchor="middle" x="128" y="-233.5" font-family="Helvetica,sans-Serif" font-size="10.00" fill="#000000"> </text>
</g>
<!-- Node3&#45;&gt;Node1 -->
<g id="edge2" class="edge">
<title>Node3&#45;&gt;Node1</title>
<path fill="none" stroke="#404040" d="M128,-226.1735C128,-189.2261 128,-124.7136 128,-80.8345"/>
<polygon fill="none" stroke="#404040" points="128.0001,-80.7678 124,-74.7679 128,-68.7678 132,-74.7678 128.0001,-80.7678"/>
<text text-anchor="middle" x="168" y="-200" font-family="Helvetica,sans-Serif" font-size="10.00" fill="#000000"> +orA</text>
<text text-anchor="middle" x="168" y="-189" font-family="Helvetica,sans-Serif" font-size="10.00" fill="#000000">+nChanA</text>
<text text-anchor="middle" x="168" y="-178" font-family="Helvetica,sans-Serif" font-size="10.00" fill="#000000">+sCen</text>
<text text-anchor="middle" x="168" y="-167" font-family="Helvetica,sans-Serif" font-size="10.00" fill="#000000">+orC</text>
<text text-anchor="middle" x="168" y="-156" font-family="Helvetica,sans-Serif" font-size="10.00" fill="#000000">+nChanC</text>
<text text-anchor="middle" x="168" y="-145" font-family="Helvetica,sans-Serif" font-size="10.00" fill="#000000">+reservedField1</text>
<text text-anchor="middle" x="168" y="-134" font-family="Helvetica,sans-Serif" font-size="10.00" fill="#000000">+reservedField2</text>
<text text-anchor="middle" x="168" y="-123" font-family="Helvetica,sans-Serif" font-size="10.00" fill="#000000">+reservedField3</text>
<text text-anchor="middle" x="168" y="-112" font-family="Helvetica,sans-Serif" font-size="10.00" fill="#000000">+vertex</text>
<text text-anchor="middle" x="168" y="-101" font-family="Helvetica,sans-Serif" font-size="10.00" fill="#000000">+cen</text>
<text text-anchor="middle" x="168" y="-90" font-family="Helvetica,sans-Serif" font-size="10.00" fill="#000000">...</text>
</g>
<!-- Node4 -->
<g id="node4" class="node">
<title>Node4</title>
<polygon fill="none" stroke="#bfbfbf" points="209,-226.5 209,-283.5 253,-283.5 253,-226.5 209,-226.5"/>
<text text-anchor="middle" x="231" y="-271.5" font-family="Helvetica,sans-Serif" font-size="10.00" fill="#000000">static</text>
<polyline fill="none" stroke="#bfbfbf" points="209,-264.5 253,-264.5 "/>
<text text-anchor="middle" x="231" y="-252.5" font-family="Helvetica,sans-Serif" font-size="10.00" fill="#000000"> </text>
<polyline fill="none" stroke="#bfbfbf" points="209,-245.5 253,-245.5 "/>
<text text-anchor="middle" x="231" y="-233.5" font-family="Helvetica,sans-Serif" font-size="10.00" fill="#000000"> </text>
</g>
<!-- Node4&#45;&gt;Node1 -->
<g id="edge3" class="edge">
<title>Node4&#45;&gt;Node1</title>
<path fill="none" stroke="#404040" d="M234.1702,-226.4266C236.6515,-190.9168 236.0025,-129.7869 209,-87 203.2166,-77.8359 195.1869,-69.9518 186.4145,-63.2856"/>
<polygon fill="none" stroke="#404040" points="186.1447,-63.099 178.9346,-62.9762 176.2749,-56.2735 183.485,-56.3963 186.1447,-63.099"/>
<text text-anchor="middle" x="289.5" y="-161.5" font-family="Helvetica,sans-Serif" font-size="10.00" fill="#000000"> +PayloadPerGBTword</text>
<text text-anchor="middle" x="289.5" y="-150.5" font-family="Helvetica,sans-Serif" font-size="10.00" fill="#000000">+MaxNelements</text>
<text text-anchor="middle" x="289.5" y="-139.5" font-family="Helvetica,sans-Serif" font-size="10.00" fill="#000000">+MinNelements</text>
<text text-anchor="middle" x="289.5" y="-128.5" font-family="Helvetica,sans-Serif" font-size="10.00" fill="#000000">+PayloadSize</text>
</g>
</g>
</svg>
