<?xml version="1.0" encoding="UTF-8" standalone="no"?>
<!DOCTYPE svg PUBLIC "-//W3C//DTD SVG 1.1//EN"
 "http://www.w3.org/Graphics/SVG/1.1/DTD/svg11.dtd">
<!-- Generated by graphviz version 2.40.1 (20161225.0304)
 -->
<!-- Title: o2::soa::CombinationsBlockSameIndexPolicyBase&lt; T1, T, Ts &gt; Pages: 1 -->
<svg width="680pt" height="687pt"
 viewBox="0.00 0.00 679.51 687.00" xmlns="http://www.w3.org/2000/svg" xmlns:xlink="http://www.w3.org/1999/xlink">
<g id="graph0" class="graph" transform="scale(1 1) rotate(0) translate(4 683)">
<title>o2::soa::CombinationsBlockSameIndexPolicyBase&lt; T1, T, Ts &gt;</title>
<!-- Node7 -->
<g id="node1" class="node">
<title>Node7</title>
<polygon fill="#bfbfbf" stroke="#000000" points="392.0118,-.5 392.0118,-90.5 569.0118,-90.5 569.0118,-.5 392.0118,-.5"/>
<text text-anchor="start" x="400.0118" y="-78.5" font-family="Helvetica,sans-Serif" font-size="10.00" fill="#000000">o2::soa::CombinationsBlock</text>
<text text-anchor="start" x="400.0118" y="-67.5" font-family="Helvetica,sans-Serif" font-size="10.00" fill="#000000">SameIndexPolicyBase&lt; T1,</text>
<text text-anchor="middle" x="480.5118" y="-56.5" font-family="Helvetica,sans-Serif" font-size="10.00" fill="#000000"> T, Ts &gt;</text>
<polyline fill="none" stroke="#000000" points="392.0118,-49.5 569.0118,-49.5 "/>
<text text-anchor="middle" x="480.5118" y="-37.5" font-family="Helvetica,sans-Serif" font-size="10.00" fill="#000000"> </text>
<polyline fill="none" stroke="#000000" points="392.0118,-30.5 569.0118,-30.5 "/>
<text text-anchor="start" x="400.0118" y="-18.5" font-family="Helvetica,sans-Serif" font-size="10.00" fill="#000000">+ CombinationsBlockSameIndex</text>
<text text-anchor="start" x="400.0118" y="-7.5" font-family="Helvetica,sans-Serif" font-size="10.00" fill="#000000">PolicyBase()</text>
</g>
<!-- Node8 -->
<g id="node2" class="node">
<title>Node8</title>
<g id="a_node2"><a xlink:href="../../de/dac/structo2_1_1soa_1_1CombinationsIndexPolicyBase.html" target="_top" xlink:title="{o2::soa::CombinationsIndex\lPolicyBase\&lt; T, Ts... \&gt;\n||+ CombinationsIndexPolicyBase()\l+ moveToEnd()\l+ addOne()\l}">
<polygon fill="none" stroke="#000000" points="159.0118,-138.5 159.0118,-228.5 342.0118,-228.5 342.0118,-138.5 159.0118,-138.5"/>
<text text-anchor="start" x="167.0118" y="-216.5" font-family="Helvetica,sans-Serif" font-size="10.00" fill="#000000">o2::soa::CombinationsIndex</text>
<text text-anchor="middle" x="250.5118" y="-205.5" font-family="Helvetica,sans-Serif" font-size="10.00" fill="#000000">PolicyBase&lt; T, Ts... &gt;</text>
<polyline fill="none" stroke="#000000" points="159.0118,-198.5 342.0118,-198.5 "/>
<text text-anchor="middle" x="250.5118" y="-186.5" font-family="Helvetica,sans-Serif" font-size="10.00" fill="#000000"> </text>
<polyline fill="none" stroke="#000000" points="159.0118,-179.5 342.0118,-179.5 "/>
<text text-anchor="start" x="167.0118" y="-167.5" font-family="Helvetica,sans-Serif" font-size="10.00" fill="#000000">+ CombinationsIndexPolicyBase()</text>
<text text-anchor="start" x="167.0118" y="-156.5" font-family="Helvetica,sans-Serif" font-size="10.00" fill="#000000">+ moveToEnd()</text>
<text text-anchor="start" x="167.0118" y="-145.5" font-family="Helvetica,sans-Serif" font-size="10.00" fill="#000000">+ addOne()</text>
</a>
</g>
</g>
<!-- Node8&#45;&gt;Node7 -->
<g id="edge1" class="edge">
<title>Node8&#45;&gt;Node7</title>
<path fill="none" stroke="#191970" d="M334.6105,-133.0408C357.794,-119.1307 382.7874,-104.1347 405.425,-90.5521"/>
<polygon fill="none" stroke="#191970" points="332.5966,-130.1674 325.8224,-138.3136 336.1981,-136.1699 332.5966,-130.1674"/>
</g>
<!-- Node9 -->
<g id="node3" class="node">
<title>Node9</title>
<polygon fill="none" stroke="#bfbfbf" points="150.0118,-483.5 150.0118,-551.5 265.0118,-551.5 265.0118,-483.5 150.0118,-483.5"/>
<text text-anchor="start" x="158.0118" y="-539.5" font-family="Helvetica,sans-Serif" font-size="10.00" fill="#000000">tuple&lt; typename Ts</text>
<text text-anchor="middle" x="207.5118" y="-528.5" font-family="Helvetica,sans-Serif" font-size="10.00" fill="#000000">::iterator... &gt;</text>
<polyline fill="none" stroke="#bfbfbf" points="150.0118,-521.5 265.0118,-521.5 "/>
<text text-anchor="middle" x="207.5118" y="-509.5" font-family="Helvetica,sans-Serif" font-size="10.00" fill="#000000"> </text>
<polyline fill="none" stroke="#bfbfbf" points="150.0118,-502.5 265.0118,-502.5 "/>
<text text-anchor="middle" x="207.5118" y="-490.5" font-family="Helvetica,sans-Serif" font-size="10.00" fill="#000000"> </text>
</g>
<!-- Node9&#45;&gt;Node8 -->
<g id="edge2" class="edge">
<title>Node9&#45;&gt;Node8</title>
<path fill="none" stroke="#404040" d="M247.7003,-483.4165C252.3854,-477.7343 256.5434,-471.5421 259.5118,-465 299.617,-376.6121 288.6226,-342.7146 272.5118,-247 272.1499,-244.8499 271.7236,-242.6754 271.2443,-240.4914"/>
<polygon fill="none" stroke="#404040" points="271.2282,-240.4288 265.8597,-235.6143 268.239,-228.807 273.6076,-233.6215 271.2282,-240.4288"/>
<text text-anchor="middle" x="316.5118" y="-319" font-family="Helvetica,sans-Serif" font-size="10.00" fill="#000000"> +mCurrent</text>
</g>
<!-- Node13 -->
<g id="node7" class="node">
<title>Node13</title>
<g id="a_node7"><a xlink:href="../../de/dac/structo2_1_1soa_1_1CombinationsIndexPolicyBase.html" target="_top" xlink:title="{o2::soa::CombinationsIndex\lPolicyBase\&lt; Ts \&gt;\n||+ CombinationsIndexPolicyBase()\l+ moveToEnd()\l+ addOne()\l}">
<polygon fill="none" stroke="#000000" points="75.0118,-276.5 75.0118,-366.5 258.0118,-366.5 258.0118,-276.5 75.0118,-276.5"/>
<text text-anchor="start" x="83.0118" y="-354.5" font-family="Helvetica,sans-Serif" font-size="10.00" fill="#000000">o2::soa::CombinationsIndex</text>
<text text-anchor="middle" x="166.5118" y="-343.5" font-family="Helvetica,sans-Serif" font-size="10.00" fill="#000000">PolicyBase&lt; Ts &gt;</text>
<polyline fill="none" stroke="#000000" points="75.0118,-336.5 258.0118,-336.5 "/>
<text text-anchor="middle" x="166.5118" y="-324.5" font-family="Helvetica,sans-Serif" font-size="10.00" fill="#000000"> </text>
<polyline fill="none" stroke="#000000" points="75.0118,-317.5 258.0118,-317.5 "/>
<text text-anchor="start" x="83.0118" y="-305.5" font-family="Helvetica,sans-Serif" font-size="10.00" fill="#000000">+ CombinationsIndexPolicyBase()</text>
<text text-anchor="start" x="83.0118" y="-294.5" font-family="Helvetica,sans-Serif" font-size="10.00" fill="#000000">+ moveToEnd()</text>
<text text-anchor="start" x="83.0118" y="-283.5" font-family="Helvetica,sans-Serif" font-size="10.00" fill="#000000">+ addOne()</text>
</a>
</g>
</g>
<!-- Node9&#45;&gt;Node13 -->
<g id="edge7" class="edge">
<title>Node9&#45;&gt;Node13</title>
<path fill="none" stroke="#404040" d="M200.3702,-483.3594C194.3423,-454.5431 185.5851,-412.6794 178.487,-378.7469"/>
<polygon fill="none" stroke="#404040" points="178.4122,-378.389 173.2684,-373.3351 175.9551,-366.6432 181.0989,-371.6971 178.4122,-378.389"/>
<text text-anchor="middle" x="226.5118" y="-422.5" font-family="Helvetica,sans-Serif" font-size="10.00" fill="#000000"> +mCurrent</text>
</g>
<!-- Node10 -->
<g id="node4" class="node">
<title>Node10</title>
<polygon fill="none" stroke="#bfbfbf" points="62.5118,-489 62.5118,-546 100.5118,-546 100.5118,-489 62.5118,-489"/>
<text text-anchor="middle" x="81.5118" y="-534" font-family="Helvetica,sans-Serif" font-size="10.00" fill="#000000">bool</text>
<polyline fill="none" stroke="#bfbfbf" points="62.5118,-527 100.5118,-527 "/>
<text text-anchor="middle" x="81.5118" y="-515" font-family="Helvetica,sans-Serif" font-size="10.00" fill="#000000"> </text>
<polyline fill="none" stroke="#bfbfbf" points="62.5118,-508 100.5118,-508 "/>
<text text-anchor="middle" x="81.5118" y="-496" font-family="Helvetica,sans-Serif" font-size="10.00" fill="#000000"> </text>
</g>
<!-- Node10&#45;&gt;Node8 -->
<g id="edge3" class="edge">
<title>Node10&#45;&gt;Node8</title>
<path fill="none" stroke="#404040" d="M62.4856,-492.3208C29.8143,-445.7658 -29.1442,-344.7205 17.5118,-276 46.7023,-233.0049 99.3521,-209.9941 147.2268,-197.6791"/>
<polygon fill="none" stroke="#404040" points="147.2912,-197.6636 152.1842,-192.3665 158.9557,-194.8458 154.0627,-200.1429 147.2912,-197.6636"/>
<text text-anchor="middle" x="41.5118" y="-319" font-family="Helvetica,sans-Serif" font-size="10.00" fill="#000000"> +mIsEnd</text>
</g>
<!-- Node10&#45;&gt;Node13 -->
<g id="edge8" class="edge">
<title>Node10&#45;&gt;Node13</title>
<path fill="none" stroke="#404040" d="M90.1925,-488.9895C98.8693,-461.7454 113.235,-419.7932 129.5118,-385 130.654,-382.5586 131.8596,-380.0877 133.1104,-377.6088"/>
<polygon fill="none" stroke="#404040" points="133.2346,-377.3728 132.492,-370.2 138.8274,-366.7557 139.57,-373.9285 133.2346,-377.3728"/>
<text text-anchor="middle" x="153.5118" y="-422.5" font-family="Helvetica,sans-Serif" font-size="10.00" fill="#000000"> +mIsEnd</text>
</g>
<!-- Node11 -->
<g id="node5" class="node">
<title>Node11</title>
<g id="a_node5"><a xlink:href="../../dd/da8/structo2_1_1soa_1_1NTupleType.html" target="_top" xlink:title="{o2::soa::NTupleType\l\&lt; uint64_t, sizeof...(Ts)\&gt;\n||}">
<polygon fill="none" stroke="#000000" points="321.0118,-483.5 321.0118,-551.5 458.0118,-551.5 458.0118,-483.5 321.0118,-483.5"/>
<text text-anchor="start" x="329.0118" y="-539.5" font-family="Helvetica,sans-Serif" font-size="10.00" fill="#000000">o2::soa::NTupleType</text>
<text text-anchor="middle" x="389.5118" y="-528.5" font-family="Helvetica,sans-Serif" font-size="10.00" fill="#000000">&lt; uint64_t, sizeof...(Ts)&gt;</text>
<polyline fill="none" stroke="#000000" points="321.0118,-521.5 458.0118,-521.5 "/>
<text text-anchor="middle" x="389.5118" y="-509.5" font-family="Helvetica,sans-Serif" font-size="10.00" fill="#000000"> </text>
<polyline fill="none" stroke="#000000" points="321.0118,-502.5 458.0118,-502.5 "/>
<text text-anchor="middle" x="389.5118" y="-490.5" font-family="Helvetica,sans-Serif" font-size="10.00" fill="#000000"> </text>
</a>
</g>
</g>
<!-- Node11&#45;&gt;Node8 -->
<g id="edge4" class="edge">
<title>Node11&#45;&gt;Node8</title>
<path fill="none" stroke="#404040" d="M397.4449,-483.3583C402.4356,-456.3741 406.6988,-417.9049 399.5118,-385 388.1388,-332.9294 380.6836,-319.2321 349.5118,-276 339.6593,-262.3355 327.5714,-249.0772 315.2698,-237.0671"/>
<polygon fill="none" stroke="#404040" points="315.0062,-236.8168 307.9008,-235.5866 306.3035,-228.5546 313.4089,-229.7848 315.0062,-236.8168"/>
<text text-anchor="middle" x="431.0118" y="-319" font-family="Helvetica,sans-Serif" font-size="10.00" fill="#000000"> +mMaxOffset</text>
</g>
<!-- Node11&#45;&gt;Node13 -->
<g id="edge9" class="edge">
<title>Node11&#45;&gt;Node13</title>
<path fill="none" stroke="#404040" d="M348.0716,-483.2944C341.3788,-477.3586 334.6407,-471.1224 328.5118,-465 295.2931,-431.8164 294.529,-416.28 259.5118,-385 255.4658,-381.3857 251.2041,-377.8089 246.8211,-374.3038"/>
<polygon fill="none" stroke="#404040" points="246.5598,-374.1017 239.3666,-373.5938 237.0688,-366.7586 244.262,-367.2665 246.5598,-374.1017"/>
<text text-anchor="middle" x="364.0118" y="-422.5" font-family="Helvetica,sans-Serif" font-size="10.00" fill="#000000"> +mMaxOffset</text>
</g>
<!-- Node12 -->
<g id="node6" class="node">
<title>Node12</title>
<g id="a_node6"><a xlink:href="../../dd/da8/structo2_1_1soa_1_1NTupleType.html" target="_top" xlink:title="{o2::soa::NTupleType\l\&lt; T, N, REST \&gt;\n||}">
<polygon fill="none" stroke="#000000" points="406.0118,-610.5 406.0118,-678.5 519.0118,-678.5 519.0118,-610.5 406.0118,-610.5"/>
<text text-anchor="start" x="414.0118" y="-666.5" font-family="Helvetica,sans-Serif" font-size="10.00" fill="#000000">o2::soa::NTupleType</text>
<text text-anchor="middle" x="462.5118" y="-655.5" font-family="Helvetica,sans-Serif" font-size="10.00" fill="#000000">&lt; T, N, REST &gt;</text>
<polyline fill="none" stroke="#000000" points="406.0118,-648.5 519.0118,-648.5 "/>
<text text-anchor="middle" x="462.5118" y="-636.5" font-family="Helvetica,sans-Serif" font-size="10.00" fill="#000000"> </text>
<polyline fill="none" stroke="#000000" points="406.0118,-629.5 519.0118,-629.5 "/>
<text text-anchor="middle" x="462.5118" y="-617.5" font-family="Helvetica,sans-Serif" font-size="10.00" fill="#000000"> </text>
</a>
</g>
</g>
<!-- Node12&#45;&gt;Node11 -->
<g id="edge5" class="edge">
<title>Node12&#45;&gt;Node11</title>
<path fill="none" stroke="#ffa500" d="M398.8458,-604.3792C395.6261,-600.5323 392.7895,-596.4062 390.5118,-592 384.2156,-579.8198 382.962,-564.9535 383.6546,-551.7137"/>
<polygon fill="#ffa500" stroke="#ffa500" points="396.5246,-607.0189 405.9364,-611.8839 401.6127,-602.2114 396.5246,-607.0189"/>
<text text-anchor="middle" x="452.5118" y="-578.5" font-family="Helvetica,sans-Serif" font-size="10.00" fill="#000000"> &lt; uint64_t, sizeof...(Ts)&gt;</text>
</g>
<!-- Node15 -->
<g id="node9" class="node">
<title>Node15</title>
<g id="a_node9"><a xlink:href="../../dd/da8/structo2_1_1soa_1_1NTupleType.html" target="_top" xlink:title="{o2::soa::NTupleType\l\&lt; uint64_t, sizeof...\l(Ts)+1 \&gt;\n||}">
<polygon fill="none" stroke="#000000" points="480.0118,-385.5 480.0118,-464.5 593.0118,-464.5 593.0118,-385.5 480.0118,-385.5"/>
<text text-anchor="start" x="488.0118" y="-452.5" font-family="Helvetica,sans-Serif" font-size="10.00" fill="#000000">o2::soa::NTupleType</text>
<text text-anchor="start" x="488.0118" y="-441.5" font-family="Helvetica,sans-Serif" font-size="10.00" fill="#000000">&lt; uint64_t, sizeof...</text>
<text text-anchor="middle" x="536.5118" y="-430.5" font-family="Helvetica,sans-Serif" font-size="10.00" fill="#000000">(Ts)+1 &gt;</text>
<polyline fill="none" stroke="#000000" points="480.0118,-423.5 593.0118,-423.5 "/>
<text text-anchor="middle" x="536.5118" y="-411.5" font-family="Helvetica,sans-Serif" font-size="10.00" fill="#000000"> </text>
<polyline fill="none" stroke="#000000" points="480.0118,-404.5 593.0118,-404.5 "/>
<text text-anchor="middle" x="536.5118" y="-392.5" font-family="Helvetica,sans-Serif" font-size="10.00" fill="#000000"> </text>
</a>
</g>
</g>
<!-- Node12&#45;&gt;Node15 -->
<g id="edge12" class="edge">
<title>Node12&#45;&gt;Node15</title>
<path fill="none" stroke="#ffa500" d="M508.4363,-602.2767C510.7227,-598.9627 512.7825,-595.5277 514.5118,-592 534.2066,-551.8251 538.2182,-500.0206 538.2581,-464.8376"/>
<polygon fill="#ffa500" stroke="#ffa500" points="505.6352,-600.1779 502.3453,-610.2491 511.1976,-604.4277 505.6352,-600.1779"/>
<text text-anchor="start" x="522.5118" y="-584" font-family="Helvetica,sans-Serif" font-size="10.00" fill="#000000"> &lt; uint64_t, sizeof...</text>
<text text-anchor="middle" x="571.5118" y="-573" font-family="Helvetica,sans-Serif" font-size="10.00" fill="#000000">(Ts)+1 &gt;</text>
</g>
<!-- Node13&#45;&gt;Node8 -->
<g id="edge6" class="edge">
<title>Node13&#45;&gt;Node8</title>
<path fill="none" stroke="#ffa500" d="M199.3373,-267.5724C207.146,-254.7439 215.3995,-241.1846 222.9453,-228.7879"/>
<polygon fill="#ffa500" stroke="#ffa500" points="196.2264,-265.9518 194.0166,-276.3136 202.2058,-269.5915 196.2264,-265.9518"/>
<text text-anchor="middle" x="240.0118" y="-250" font-family="Helvetica,sans-Serif" font-size="10.00" fill="#000000"> &lt; T, Ts... &gt;</text>
</g>
<!-- Node14 -->
<g id="node8" class="node">
<title>Node14</title>
<polygon fill="none" stroke="#bfbfbf" points="360.5118,-149.5 360.5118,-217.5 488.5118,-217.5 488.5118,-149.5 360.5118,-149.5"/>
<text text-anchor="start" x="368.5118" y="-205.5" font-family="Helvetica,sans-Serif" font-size="10.00" fill="#000000">vector&lt; std::pair&lt;</text>
<text text-anchor="middle" x="424.5118" y="-194.5" font-family="Helvetica,sans-Serif" font-size="10.00" fill="#000000"> uint64_t, uint64_t &gt; &gt;</text>
<polyline fill="none" stroke="#bfbfbf" points="360.5118,-187.5 488.5118,-187.5 "/>
<text text-anchor="middle" x="424.5118" y="-175.5" font-family="Helvetica,sans-Serif" font-size="10.00" fill="#000000"> </text>
<polyline fill="none" stroke="#bfbfbf" points="360.5118,-168.5 488.5118,-168.5 "/>
<text text-anchor="middle" x="424.5118" y="-156.5" font-family="Helvetica,sans-Serif" font-size="10.00" fill="#000000"> </text>
</g>
<!-- Node14&#45;&gt;Node7 -->
<g id="edge10" class="edge">
<title>Node14&#45;&gt;Node7</title>
<path fill="none" stroke="#404040" d="M420.0908,-149.1937C419.6654,-136.2259 420.7275,-121.5731 425.5118,-109 426.5403,-106.2972 427.7394,-103.6322 429.0766,-101.0152"/>
<polygon fill="none" stroke="#404040" points="429.1557,-100.8815 428.7692,-93.6807 435.2674,-90.5544 435.6539,-97.7552 429.1557,-100.8815"/>
<text text-anchor="middle" x="474.0118" y="-112" font-family="Helvetica,sans-Serif" font-size="10.00" fill="#000000"> +mGroupedIndices</text>
</g>
<!-- Node15&#45;&gt;Node7 -->
<g id="edge11" class="edge">
<title>Node15&#45;&gt;Node7</title>
<path fill="none" stroke="#404040" d="M541.3747,-385.3818C547.4188,-324.324 553.4965,-204.3097 522.5118,-109 521.7297,-106.594 520.8297,-104.1928 519.8338,-101.8092"/>
<polygon fill="none" stroke="#404040" points="519.7553,-101.6458 513.551,-97.9707 514.5571,-90.8301 520.7615,-94.5052 519.7553,-101.6458"/>
<text text-anchor="middle" x="591.5118" y="-250" font-family="Helvetica,sans-Serif" font-size="10.00" fill="#000000"> +mCurrentIndices</text>
</g>
<!-- Node16 -->
<g id="node10" class="node">
<title>Node16</title>
<polygon fill="none" stroke="#bfbfbf" points="565.0118,-155 565.0118,-212 626.0118,-212 626.0118,-155 565.0118,-155"/>
<text text-anchor="middle" x="595.5118" y="-200" font-family="Helvetica,sans-Serif" font-size="10.00" fill="#000000">unsigned</text>
<polyline fill="none" stroke="#bfbfbf" points="565.0118,-193 626.0118,-193 "/>
<text text-anchor="middle" x="595.5118" y="-181" font-family="Helvetica,sans-Serif" font-size="10.00" fill="#000000"> </text>
<polyline fill="none" stroke="#bfbfbf" points="565.0118,-174 626.0118,-174 "/>
<text text-anchor="middle" x="595.5118" y="-162" font-family="Helvetica,sans-Serif" font-size="10.00" fill="#000000"> </text>
</g>
<!-- Node16&#45;&gt;Node7 -->
<g id="edge13" class="edge">
<title>Node16&#45;&gt;Node7</title>
<path fill="none" stroke="#404040" d="M580.8623,-154.9741C572.8205,-140.5317 562.1319,-123.1161 550.5118,-109 547.8771,-105.7993 545.0806,-102.6119 542.18,-99.4663"/>
<polygon fill="none" stroke="#404040" points="542.0987,-99.3819 535.056,-97.8326 533.7773,-90.7358 540.8201,-92.285 542.0987,-99.3819"/>
<text text-anchor="middle" x="614.5118" y="-112" font-family="Helvetica,sans-Serif" font-size="10.00" fill="#000000"> +mSlidingWindowSize</text>
</g>
</g>
</svg>
