<?xml version="1.0" encoding="UTF-8" standalone="no"?>
<!DOCTYPE svg PUBLIC "-//W3C//DTD SVG 1.1//EN"
 "http://www.w3.org/Graphics/SVG/1.1/DTD/svg11.dtd">
<!-- Generated by graphviz version 2.40.1 (20161225.0304)
 -->
<!-- Title: o2::vertexing::TrackVF Pages: 1 -->
<svg width="423pt" height="755pt"
 viewBox="0.00 0.00 422.50 755.00" xmlns="http://www.w3.org/2000/svg" xmlns:xlink="http://www.w3.org/1999/xlink">
<g id="graph0" class="graph" transform="scale(1 1) rotate(0) translate(4 751)">
<title>o2::vertexing::TrackVF</title>
<!-- Node1 -->
<g id="node1" class="node">
<title>Node1</title>
<polygon fill="#bfbfbf" stroke="#000000" points="125.5,-.5 125.5,-134.5 250.5,-134.5 250.5,-.5 125.5,-.5"/>
<text text-anchor="middle" x="188" y="-122.5" font-family="Helvetica,sans-Serif" font-size="10.00" fill="#000000">o2::vertexing::TrackVF</text>
<polyline fill="none" stroke="#000000" points="125.5,-115.5 250.5,-115.5 "/>
<text text-anchor="start" x="133.5" y="-103.5" font-family="Helvetica,sans-Serif" font-size="10.00" fill="#000000">+ tgP</text>
<polyline fill="none" stroke="#000000" points="125.5,-96.5 250.5,-96.5 "/>
<text text-anchor="start" x="133.5" y="-84.5" font-family="Helvetica,sans-Serif" font-size="10.00" fill="#000000">+ canAssign()</text>
<text text-anchor="start" x="133.5" y="-73.5" font-family="Helvetica,sans-Serif" font-size="10.00" fill="#000000">+ canUse()</text>
<text text-anchor="start" x="133.5" y="-62.5" font-family="Helvetica,sans-Serif" font-size="10.00" fill="#000000">+ canUse()</text>
<text text-anchor="start" x="133.5" y="-51.5" font-family="Helvetica,sans-Serif" font-size="10.00" fill="#000000">+ operator&lt;()</text>
<text text-anchor="start" x="133.5" y="-40.5" font-family="Helvetica,sans-Serif" font-size="10.00" fill="#000000">+ getZForXY()</text>
<text text-anchor="start" x="133.5" y="-29.5" font-family="Helvetica,sans-Serif" font-size="10.00" fill="#000000">+ getResiduals()</text>
<text text-anchor="start" x="133.5" y="-18.5" font-family="Helvetica,sans-Serif" font-size="10.00" fill="#000000">+ TrackVF()</text>
<text text-anchor="start" x="133.5" y="-7.5" font-family="Helvetica,sans-Serif" font-size="10.00" fill="#000000">+ TrackVF()</text>
</g>
<!-- Node2 -->
<g id="node2" class="node">
<title>Node2</title>
<g id="a_node2"><a xlink:href="../../d4/dc3/classfloat.html" target="_top" xlink:title="{float\n||}">
<polygon fill="none" stroke="#000000" points="0,-314.5 0,-371.5 38,-371.5 38,-314.5 0,-314.5"/>
<text text-anchor="middle" x="19" y="-359.5" font-family="Helvetica,sans-Serif" font-size="10.00" fill="#000000">float</text>
<polyline fill="none" stroke="#000000" points="0,-352.5 38,-352.5 "/>
<text text-anchor="middle" x="19" y="-340.5" font-family="Helvetica,sans-Serif" font-size="10.00" fill="#000000"> </text>
<polyline fill="none" stroke="#000000" points="0,-333.5 38,-333.5 "/>
<text text-anchor="middle" x="19" y="-321.5" font-family="Helvetica,sans-Serif" font-size="10.00" fill="#000000"> </text>
</a>
</g>
</g>
<!-- Node2&#45;&gt;Node1 -->
<g id="edge1" class="edge">
<title>Node2&#45;&gt;Node1</title>
<path fill="none" stroke="#404040" d="M18.0875,-314.3093C18.2073,-274.6685 23.5336,-202.4496 57,-153 71.4549,-131.6417 93.2112,-114.3641 114.8632,-101.0788"/>
<polygon fill="none" stroke="#404040" points="115.0968,-100.9419 118.2526,-94.458 125.4515,-94.8772 122.2957,-101.3611 115.0968,-100.9419"/>
<text text-anchor="middle" x="77.5" y="-266" font-family="Helvetica,sans-Serif" font-size="10.00" fill="#000000"> +sig2YI</text>
<text text-anchor="middle" x="77.5" y="-255" font-family="Helvetica,sans-Serif" font-size="10.00" fill="#000000">+sig2ZI</text>
<text text-anchor="middle" x="77.5" y="-244" font-family="Helvetica,sans-Serif" font-size="10.00" fill="#000000">+sigYZI</text>
<text text-anchor="middle" x="77.5" y="-233" font-family="Helvetica,sans-Serif" font-size="10.00" fill="#000000">+wgh</text>
<text text-anchor="middle" x="77.5" y="-222" font-family="Helvetica,sans-Serif" font-size="10.00" fill="#000000">+x</text>
<text text-anchor="middle" x="77.5" y="-211" font-family="Helvetica,sans-Serif" font-size="10.00" fill="#000000">+y</text>
<text text-anchor="middle" x="77.5" y="-200" font-family="Helvetica,sans-Serif" font-size="10.00" fill="#000000">+z</text>
<text text-anchor="middle" x="77.5" y="-189" font-family="Helvetica,sans-Serif" font-size="10.00" fill="#000000">+tgL</text>
<text text-anchor="middle" x="77.5" y="-178" font-family="Helvetica,sans-Serif" font-size="10.00" fill="#000000">+sinAlp</text>
<text text-anchor="middle" x="77.5" y="-167" font-family="Helvetica,sans-Serif" font-size="10.00" fill="#000000">+cosAlp</text>
<text text-anchor="middle" x="77.5" y="-156" font-family="Helvetica,sans-Serif" font-size="10.00" fill="#000000">...</text>
</g>
<!-- Node3 -->
<g id="node3" class="node">
<title>Node3</title>
<polygon fill="none" stroke="#bfbfbf" points="62.5,-314.5 62.5,-371.5 91.5,-371.5 91.5,-314.5 62.5,-314.5"/>
<text text-anchor="middle" x="77" y="-359.5" font-family="Helvetica,sans-Serif" font-size="10.00" fill="#000000">int</text>
<polyline fill="none" stroke="#bfbfbf" points="62.5,-352.5 91.5,-352.5 "/>
<text text-anchor="middle" x="77" y="-340.5" font-family="Helvetica,sans-Serif" font-size="10.00" fill="#000000"> </text>
<polyline fill="none" stroke="#bfbfbf" points="62.5,-333.5 91.5,-333.5 "/>
<text text-anchor="middle" x="77" y="-321.5" font-family="Helvetica,sans-Serif" font-size="10.00" fill="#000000"> </text>
</g>
<!-- Node3&#45;&gt;Node1 -->
<g id="edge2" class="edge">
<title>Node3&#45;&gt;Node1</title>
<path fill="none" stroke="#404040" d="M86.3409,-314.2998C98.801,-276.7682 122.0815,-209.1841 146,-153 146.9869,-150.6819 148.005,-148.3368 149.0472,-145.9763"/>
<polygon fill="none" stroke="#404040" points="149.1296,-145.794 147.9565,-138.679 154.0731,-134.8595 155.2462,-141.9746 149.1296,-145.794"/>
<text text-anchor="middle" x="165" y="-211" font-family="Helvetica,sans-Serif" font-size="10.00" fill="#000000"> +vtxID</text>
</g>
<!-- Node4 -->
<g id="node4" class="node">
<title>Node4</title>
<g id="a_node4"><a xlink:href="../../d3/dbf/classo2_1_1dataformats_1_1TimeStampWithError.html" target="_top" xlink:title="{o2::dataformats::TimeStamp\lWithError\&lt; float, float \&gt;\n||+ TimeStampWithError()\l+ TimeStampWithError()\l+ getTimeStampError()\l+ setTimeStampError()\l}">
<polygon fill="none" stroke="#000000" points="109.5,-292.5 109.5,-393.5 266.5,-393.5 266.5,-292.5 109.5,-292.5"/>
<text text-anchor="start" x="117.5" y="-381.5" font-family="Helvetica,sans-Serif" font-size="10.00" fill="#000000">o2::dataformats::TimeStamp</text>
<text text-anchor="middle" x="188" y="-370.5" font-family="Helvetica,sans-Serif" font-size="10.00" fill="#000000">WithError&lt; float, float &gt;</text>
<polyline fill="none" stroke="#000000" points="109.5,-363.5 266.5,-363.5 "/>
<text text-anchor="middle" x="188" y="-351.5" font-family="Helvetica,sans-Serif" font-size="10.00" fill="#000000"> </text>
<polyline fill="none" stroke="#000000" points="109.5,-344.5 266.5,-344.5 "/>
<text text-anchor="start" x="117.5" y="-332.5" font-family="Helvetica,sans-Serif" font-size="10.00" fill="#000000">+ TimeStampWithError()</text>
<text text-anchor="start" x="117.5" y="-321.5" font-family="Helvetica,sans-Serif" font-size="10.00" fill="#000000">+ TimeStampWithError()</text>
<text text-anchor="start" x="117.5" y="-310.5" font-family="Helvetica,sans-Serif" font-size="10.00" fill="#000000">+ getTimeStampError()</text>
<text text-anchor="start" x="117.5" y="-299.5" font-family="Helvetica,sans-Serif" font-size="10.00" fill="#000000">+ setTimeStampError()</text>
</a>
</g>
</g>
<!-- Node4&#45;&gt;Node1 -->
<g id="edge3" class="edge">
<title>Node4&#45;&gt;Node1</title>
<path fill="none" stroke="#404040" d="M188,-292.4691C188,-251.7573 188,-193.7787 188,-146.8773"/>
<polygon fill="none" stroke="#404040" points="188.0001,-146.5893 184,-140.5894 188,-134.5893 192,-140.5893 188.0001,-146.5893"/>
<text text-anchor="middle" x="212.5" y="-211" font-family="Helvetica,sans-Serif" font-size="10.00" fill="#000000"> +timeEst</text>
</g>
<!-- Node5 -->
<g id="node5" class="node">
<title>Node5</title>
<g id="a_node5"><a xlink:href="../../d0/d94/classo2_1_1dataformats_1_1TimeStamp.html" target="_top" xlink:title="{o2::dataformats::TimeStamp\l\&lt; float \&gt;\n||+ GPUdDefault()\l+ GPUdDefault()\l+ GPUdi()\l+ GPUdi()\l+ GPUdi()\l+ GPUdi()\l+ ClassDefNV()\l}">
<polygon fill="none" stroke="#000000" points="4.5,-441.5 4.5,-575.5 161.5,-575.5 161.5,-441.5 4.5,-441.5"/>
<text text-anchor="start" x="12.5" y="-563.5" font-family="Helvetica,sans-Serif" font-size="10.00" fill="#000000">o2::dataformats::TimeStamp</text>
<text text-anchor="middle" x="83" y="-552.5" font-family="Helvetica,sans-Serif" font-size="10.00" fill="#000000">&lt; float &gt;</text>
<polyline fill="none" stroke="#000000" points="4.5,-545.5 161.5,-545.5 "/>
<text text-anchor="middle" x="83" y="-533.5" font-family="Helvetica,sans-Serif" font-size="10.00" fill="#000000"> </text>
<polyline fill="none" stroke="#000000" points="4.5,-526.5 161.5,-526.5 "/>
<text text-anchor="start" x="12.5" y="-514.5" font-family="Helvetica,sans-Serif" font-size="10.00" fill="#000000">+ GPUdDefault()</text>
<text text-anchor="start" x="12.5" y="-503.5" font-family="Helvetica,sans-Serif" font-size="10.00" fill="#000000">+ GPUdDefault()</text>
<text text-anchor="start" x="12.5" y="-492.5" font-family="Helvetica,sans-Serif" font-size="10.00" fill="#000000">+ GPUdi()</text>
<text text-anchor="start" x="12.5" y="-481.5" font-family="Helvetica,sans-Serif" font-size="10.00" fill="#000000">+ GPUdi()</text>
<text text-anchor="start" x="12.5" y="-470.5" font-family="Helvetica,sans-Serif" font-size="10.00" fill="#000000">+ GPUdi()</text>
<text text-anchor="start" x="12.5" y="-459.5" font-family="Helvetica,sans-Serif" font-size="10.00" fill="#000000">+ GPUdi()</text>
<text text-anchor="start" x="12.5" y="-448.5" font-family="Helvetica,sans-Serif" font-size="10.00" fill="#000000">+ ClassDefNV()</text>
</a>
</g>
</g>
<!-- Node5&#45;&gt;Node4 -->
<g id="edge4" class="edge">
<title>Node5&#45;&gt;Node4</title>
<path fill="none" stroke="#191970" d="M131.164,-432.5844C139.5131,-419.4245 148.0096,-406.0326 155.8009,-393.752"/>
<polygon fill="none" stroke="#191970" points="128.1094,-430.8658 125.7075,-441.1848 134.0202,-434.6159 128.1094,-430.8658"/>
</g>
<!-- Node6 -->
<g id="node6" class="node">
<title>Node6</title>
<g id="a_node6"><a xlink:href="../../d0/d94/classo2_1_1dataformats_1_1TimeStamp.html" target="_top" xlink:title="{o2::dataformats::TimeStamp\&lt; T \&gt;\n||+ GPUdDefault()\l+ GPUdDefault()\l+ GPUdi()\l+ GPUdi()\l+ GPUdi()\l+ GPUdi()\l+ ClassDefNV()\l}">
<polygon fill="none" stroke="#000000" points="77.5,-623.5 77.5,-746.5 262.5,-746.5 262.5,-623.5 77.5,-623.5"/>
<text text-anchor="middle" x="170" y="-734.5" font-family="Helvetica,sans-Serif" font-size="10.00" fill="#000000">o2::dataformats::TimeStamp&lt; T &gt;</text>
<polyline fill="none" stroke="#000000" points="77.5,-727.5 262.5,-727.5 "/>
<text text-anchor="middle" x="170" y="-715.5" font-family="Helvetica,sans-Serif" font-size="10.00" fill="#000000"> </text>
<polyline fill="none" stroke="#000000" points="77.5,-708.5 262.5,-708.5 "/>
<text text-anchor="start" x="85.5" y="-696.5" font-family="Helvetica,sans-Serif" font-size="10.00" fill="#000000">+ GPUdDefault()</text>
<text text-anchor="start" x="85.5" y="-685.5" font-family="Helvetica,sans-Serif" font-size="10.00" fill="#000000">+ GPUdDefault()</text>
<text text-anchor="start" x="85.5" y="-674.5" font-family="Helvetica,sans-Serif" font-size="10.00" fill="#000000">+ GPUdi()</text>
<text text-anchor="start" x="85.5" y="-663.5" font-family="Helvetica,sans-Serif" font-size="10.00" fill="#000000">+ GPUdi()</text>
<text text-anchor="start" x="85.5" y="-652.5" font-family="Helvetica,sans-Serif" font-size="10.00" fill="#000000">+ GPUdi()</text>
<text text-anchor="start" x="85.5" y="-641.5" font-family="Helvetica,sans-Serif" font-size="10.00" fill="#000000">+ GPUdi()</text>
<text text-anchor="start" x="85.5" y="-630.5" font-family="Helvetica,sans-Serif" font-size="10.00" fill="#000000">+ ClassDefNV()</text>
</a>
</g>
</g>
<!-- Node6&#45;&gt;Node5 -->
<g id="edge5" class="edge">
<title>Node6&#45;&gt;Node5</title>
<path fill="none" stroke="#ffa500" d="M135.0621,-614.1203C128.7985,-601.413 122.2883,-588.2055 116.079,-575.6086"/>
<polygon fill="#ffa500" stroke="#ffa500" points="132.011,-615.8468 139.5716,-623.2689 138.2897,-612.7519 132.011,-615.8468"/>
<text text-anchor="middle" x="154" y="-597" font-family="Helvetica,sans-Serif" font-size="10.00" fill="#000000"> &lt; float &gt;</text>
</g>
<!-- Node7 -->
<g id="node7" class="node">
<title>Node7</title>
<g id="a_node7"><a xlink:href="../../d3/dbf/classo2_1_1dataformats_1_1TimeStampWithError.html" target="_top" xlink:title="{o2::dataformats::TimeStamp\lWithError\&lt; T, E \&gt;\n||+ TimeStampWithError()\l+ TimeStampWithError()\l+ getTimeStampError()\l+ setTimeStampError()\l}">
<polygon fill="none" stroke="#000000" points="179.5,-458 179.5,-559 336.5,-559 336.5,-458 179.5,-458"/>
<text text-anchor="start" x="187.5" y="-547" font-family="Helvetica,sans-Serif" font-size="10.00" fill="#000000">o2::dataformats::TimeStamp</text>
<text text-anchor="middle" x="258" y="-536" font-family="Helvetica,sans-Serif" font-size="10.00" fill="#000000">WithError&lt; T, E &gt;</text>
<polyline fill="none" stroke="#000000" points="179.5,-529 336.5,-529 "/>
<text text-anchor="middle" x="258" y="-517" font-family="Helvetica,sans-Serif" font-size="10.00" fill="#000000"> </text>
<polyline fill="none" stroke="#000000" points="179.5,-510 336.5,-510 "/>
<text text-anchor="start" x="187.5" y="-498" font-family="Helvetica,sans-Serif" font-size="10.00" fill="#000000">+ TimeStampWithError()</text>
<text text-anchor="start" x="187.5" y="-487" font-family="Helvetica,sans-Serif" font-size="10.00" fill="#000000">+ TimeStampWithError()</text>
<text text-anchor="start" x="187.5" y="-476" font-family="Helvetica,sans-Serif" font-size="10.00" fill="#000000">+ getTimeStampError()</text>
<text text-anchor="start" x="187.5" y="-465" font-family="Helvetica,sans-Serif" font-size="10.00" fill="#000000">+ setTimeStampError()</text>
</a>
</g>
</g>
<!-- Node6&#45;&gt;Node7 -->
<g id="edge7" class="edge">
<title>Node6&#45;&gt;Node7</title>
<path fill="none" stroke="#191970" d="M205.2478,-614.3041C214.4551,-595.8373 224.1952,-576.3018 232.7662,-559.1111"/>
<polygon fill="none" stroke="#191970" points="202.1079,-612.7578 200.7781,-623.2689 208.3724,-615.8812 202.1079,-612.7578"/>
</g>
<!-- Node7&#45;&gt;Node4 -->
<g id="edge6" class="edge">
<title>Node7&#45;&gt;Node4</title>
<path fill="none" stroke="#ffa500" d="M232.6897,-448.6592C225.0458,-430.5869 216.7326,-410.932 209.3722,-393.5301"/>
<polygon fill="#ffa500" stroke="#ffa500" points="229.4983,-450.0986 236.6173,-457.9453 235.9453,-447.3718 229.4983,-450.0986"/>
<text text-anchor="middle" x="258" y="-415" font-family="Helvetica,sans-Serif" font-size="10.00" fill="#000000"> &lt; float, float &gt;</text>
</g>
<!-- Node8 -->
<g id="node8" class="node">
<title>Node8</title>
<polygon fill="none" stroke="#bfbfbf" points="285,-314.5 285,-371.5 335,-371.5 335,-314.5 285,-314.5"/>
<text text-anchor="middle" x="310" y="-359.5" font-family="Helvetica,sans-Serif" font-size="10.00" fill="#000000">int16_t</text>
<polyline fill="none" stroke="#bfbfbf" points="285,-352.5 335,-352.5 "/>
<text text-anchor="middle" x="310" y="-340.5" font-family="Helvetica,sans-Serif" font-size="10.00" fill="#000000"> </text>
<polyline fill="none" stroke="#bfbfbf" points="285,-333.5 335,-333.5 "/>
<text text-anchor="middle" x="310" y="-321.5" font-family="Helvetica,sans-Serif" font-size="10.00" fill="#000000"> </text>
</g>
<!-- Node8&#45;&gt;Node1 -->
<g id="edge8" class="edge">
<title>Node8&#45;&gt;Node1</title>
<path fill="none" stroke="#404040" d="M301.5992,-314.2435C290.0771,-276.363 267.7267,-208.0989 241,-153 239.8234,-150.5743 238.5959,-148.1302 237.328,-145.6787"/>
<polygon fill="none" stroke="#404040" points="237.225,-145.487 230.8606,-142.0966 231.5424,-134.9178 237.9067,-138.3082 237.225,-145.487"/>
<text text-anchor="middle" x="301.5" y="-211" font-family="Helvetica,sans-Serif" font-size="10.00" fill="#000000"> +bin</text>
</g>
<!-- Node9 -->
<g id="node9" class="node">
<title>Node9</title>
<polygon fill="none" stroke="#bfbfbf" points="353.5,-314.5 353.5,-371.5 414.5,-371.5 414.5,-314.5 353.5,-314.5"/>
<text text-anchor="middle" x="384" y="-359.5" font-family="Helvetica,sans-Serif" font-size="10.00" fill="#000000">unsigned</text>
<polyline fill="none" stroke="#bfbfbf" points="353.5,-352.5 414.5,-352.5 "/>
<text text-anchor="middle" x="384" y="-340.5" font-family="Helvetica,sans-Serif" font-size="10.00" fill="#000000"> </text>
<polyline fill="none" stroke="#bfbfbf" points="353.5,-333.5 414.5,-333.5 "/>
<text text-anchor="middle" x="384" y="-321.5" font-family="Helvetica,sans-Serif" font-size="10.00" fill="#000000"> </text>
</g>
<!-- Node9&#45;&gt;Node1 -->
<g id="edge9" class="edge">
<title>Node9&#45;&gt;Node1</title>
<path fill="none" stroke="#404040" d="M380.1856,-314.4747C373.6426,-274.706 357.1008,-201.9826 319,-153 303.5239,-133.1039 282.0506,-116.3961 260.9629,-103.18"/>
<polygon fill="none" stroke="#404040" points="260.9463,-103.1701 253.7426,-103.4975 250.6697,-96.9739 257.8734,-96.6465 260.9463,-103.1701"/>
<text text-anchor="middle" x="388.5" y="-222" font-family="Helvetica,sans-Serif" font-size="10.00" fill="#000000"> +srcID</text>
<text text-anchor="middle" x="388.5" y="-211" font-family="Helvetica,sans-Serif" font-size="10.00" fill="#000000">+entry</text>
<text text-anchor="middle" x="388.5" y="-200" font-family="Helvetica,sans-Serif" font-size="10.00" fill="#000000">+flags</text>
</g>
</g>
</svg>
