<?xml version="1.0" encoding="UTF-8" standalone="no"?>
<!DOCTYPE svg PUBLIC "-//W3C//DTD SVG 1.1//EN"
 "http://www.w3.org/Graphics/SVG/1.1/DTD/svg11.dtd">
<!-- Generated by graphviz version 2.40.1 (20161225.0304)
 -->
<!-- Title: o2::phos::PHOSBlockHeader Pages: 1 -->
<svg width="1155pt" height="992pt"
 viewBox="0.00 0.00 1154.94 992.00" xmlns="http://www.w3.org/2000/svg" xmlns:xlink="http://www.w3.org/1999/xlink">
<g id="graph0" class="graph" transform="scale(1 1) rotate(0) translate(4 988)">
<title>o2::phos::PHOSBlockHeader</title>
<!-- Node2 -->
<g id="node1" class="node">
<title>Node2</title>
<polygon fill="#bfbfbf" stroke="#000000" points="927.4397,-.5 927.4397,-57.5 1080.4397,-57.5 1080.4397,-.5 927.4397,-.5"/>
<text text-anchor="middle" x="1003.9397" y="-45.5" font-family="Helvetica,sans-Serif" font-size="10.00" fill="#000000">o2::phos::PHOSBlockHeader</text>
<polyline fill="none" stroke="#000000" points="927.4397,-38.5 1080.4397,-38.5 "/>
<text text-anchor="middle" x="1003.9397" y="-26.5" font-family="Helvetica,sans-Serif" font-size="10.00" fill="#000000"> </text>
<polyline fill="none" stroke="#000000" points="927.4397,-19.5 1080.4397,-19.5 "/>
<text text-anchor="start" x="935.4397" y="-7.5" font-family="Helvetica,sans-Serif" font-size="10.00" fill="#000000">+ PHOSBlockHeader()</text>
</g>
<!-- Node3 -->
<g id="node2" class="node">
<title>Node3</title>
<g id="a_node2"><a xlink:href="../../d8/dbd/structo2_1_1header_1_1BaseHeader.html" target="_top" xlink:title="the base header struct Every header type must begin (i.e. derive) with this. Don&#39;t use this struct di...">
<polygon fill="none" stroke="#000000" points="595.4397,-105.5 595.4397,-272.5 768.4397,-272.5 768.4397,-105.5 595.4397,-105.5"/>
<text text-anchor="middle" x="681.9397" y="-260.5" font-family="Helvetica,sans-Serif" font-size="10.00" fill="#000000">o2::header::BaseHeader</text>
<polyline fill="none" stroke="#000000" points="595.4397,-253.5 768.4397,-253.5 "/>
<text text-anchor="middle" x="681.9397" y="-241.5" font-family="Helvetica,sans-Serif" font-size="10.00" fill="#000000"> </text>
<polyline fill="none" stroke="#000000" points="595.4397,-234.5 768.4397,-234.5 "/>
<text text-anchor="start" x="603.4397" y="-222.5" font-family="Helvetica,sans-Serif" font-size="10.00" fill="#000000">+ BaseHeader()</text>
<text text-anchor="start" x="603.4397" y="-211.5" font-family="Helvetica,sans-Serif" font-size="10.00" fill="#000000">+ BaseHeader()</text>
<text text-anchor="start" x="603.4397" y="-200.5" font-family="Helvetica,sans-Serif" font-size="10.00" fill="#000000">+ BaseHeader()</text>
<text text-anchor="start" x="603.4397" y="-189.5" font-family="Helvetica,sans-Serif" font-size="10.00" fill="#000000">+ size()</text>
<text text-anchor="start" x="603.4397" y="-178.5" font-family="Helvetica,sans-Serif" font-size="10.00" fill="#000000">+ data()</text>
<text text-anchor="start" x="603.4397" y="-167.5" font-family="Helvetica,sans-Serif" font-size="10.00" fill="#000000">+ next()</text>
<text text-anchor="start" x="603.4397" y="-156.5" font-family="Helvetica,sans-Serif" font-size="10.00" fill="#000000">+ next()</text>
<text text-anchor="start" x="603.4397" y="-145.5" font-family="Helvetica,sans-Serif" font-size="10.00" fill="#000000">+ sanityCheck()</text>
<text text-anchor="start" x="603.4397" y="-134.5" font-family="Helvetica,sans-Serif" font-size="10.00" fill="#000000">+ throwInconsistentStackError()</text>
<text text-anchor="start" x="603.4397" y="-123.5" font-family="Helvetica,sans-Serif" font-size="10.00" fill="#000000">+ get()</text>
<text text-anchor="start" x="603.4397" y="-112.5" font-family="Helvetica,sans-Serif" font-size="10.00" fill="#000000">+ get()</text>
</a>
</g>
</g>
<!-- Node3&#45;&gt;Node2 -->
<g id="edge1" class="edge">
<title>Node3&#45;&gt;Node2</title>
<path fill="none" stroke="#191970" d="M777.707,-141.4138C832.6291,-114.1233 899.7402,-80.7761 946.5444,-57.5194"/>
<polygon fill="none" stroke="#191970" points="776.0513,-138.3282 768.6534,-145.9125 779.1662,-144.5969 776.0513,-138.3282"/>
</g>
<!-- Node4 -->
<g id="node3" class="node">
<title>Node4</title>
<g id="a_node3"><a xlink:href="../../d9/db3/structo2_1_1header_1_1Descriptor.html" target="_top" xlink:title="{o2::header::Descriptor\l\&lt; gSizeHeaderDescriptionString \&gt;\n||+ Descriptor()\l+ Descriptor()\l+ Descriptor()\l+ Descriptor()\l+ operator=()\l+ operator ItgType()\l+ runtimeInit()\l+ operator==()\l+ operator==()\l+ operator\&lt;()\l+ operator!=()\l+ operator!=()\l+ as()\l+ print()\l}">
<polygon fill="none" stroke="#000000" points="274.4397,-375.5 274.4397,-586.5 459.4397,-586.5 459.4397,-375.5 274.4397,-375.5"/>
<text text-anchor="start" x="282.4397" y="-574.5" font-family="Helvetica,sans-Serif" font-size="10.00" fill="#000000">o2::header::Descriptor</text>
<text text-anchor="middle" x="366.9397" y="-563.5" font-family="Helvetica,sans-Serif" font-size="10.00" fill="#000000">&lt; gSizeHeaderDescriptionString &gt;</text>
<polyline fill="none" stroke="#000000" points="274.4397,-556.5 459.4397,-556.5 "/>
<text text-anchor="middle" x="366.9397" y="-544.5" font-family="Helvetica,sans-Serif" font-size="10.00" fill="#000000"> </text>
<polyline fill="none" stroke="#000000" points="274.4397,-537.5 459.4397,-537.5 "/>
<text text-anchor="start" x="282.4397" y="-525.5" font-family="Helvetica,sans-Serif" font-size="10.00" fill="#000000">+ Descriptor()</text>
<text text-anchor="start" x="282.4397" y="-514.5" font-family="Helvetica,sans-Serif" font-size="10.00" fill="#000000">+ Descriptor()</text>
<text text-anchor="start" x="282.4397" y="-503.5" font-family="Helvetica,sans-Serif" font-size="10.00" fill="#000000">+ Descriptor()</text>
<text text-anchor="start" x="282.4397" y="-492.5" font-family="Helvetica,sans-Serif" font-size="10.00" fill="#000000">+ Descriptor()</text>
<text text-anchor="start" x="282.4397" y="-481.5" font-family="Helvetica,sans-Serif" font-size="10.00" fill="#000000">+ operator=()</text>
<text text-anchor="start" x="282.4397" y="-470.5" font-family="Helvetica,sans-Serif" font-size="10.00" fill="#000000">+ operator ItgType()</text>
<text text-anchor="start" x="282.4397" y="-459.5" font-family="Helvetica,sans-Serif" font-size="10.00" fill="#000000">+ runtimeInit()</text>
<text text-anchor="start" x="282.4397" y="-448.5" font-family="Helvetica,sans-Serif" font-size="10.00" fill="#000000">+ operator==()</text>
<text text-anchor="start" x="282.4397" y="-437.5" font-family="Helvetica,sans-Serif" font-size="10.00" fill="#000000">+ operator==()</text>
<text text-anchor="start" x="282.4397" y="-426.5" font-family="Helvetica,sans-Serif" font-size="10.00" fill="#000000">+ operator&lt;()</text>
<text text-anchor="start" x="282.4397" y="-415.5" font-family="Helvetica,sans-Serif" font-size="10.00" fill="#000000">+ operator!=()</text>
<text text-anchor="start" x="282.4397" y="-404.5" font-family="Helvetica,sans-Serif" font-size="10.00" fill="#000000">+ operator!=()</text>
<text text-anchor="start" x="282.4397" y="-393.5" font-family="Helvetica,sans-Serif" font-size="10.00" fill="#000000">+ as()</text>
<text text-anchor="start" x="282.4397" y="-382.5" font-family="Helvetica,sans-Serif" font-size="10.00" fill="#000000">+ print()</text>
</a>
</g>
</g>
<!-- Node4&#45;&gt;Node3 -->
<g id="edge2" class="edge">
<title>Node4&#45;&gt;Node3</title>
<path fill="none" stroke="#404040" d="M401.1692,-375.4734C414.8396,-345.3668 433.1274,-314.4167 456.9397,-291 491.9589,-256.5626 540.6713,-232.5243 583.8187,-216.4725"/>
<polygon fill="none" stroke="#404040" points="583.9489,-216.4257 588.2382,-210.629 595.2388,-212.3589 590.9494,-218.1556 583.9489,-216.4257"/>
<text text-anchor="middle" x="489.9397" y="-321.5" font-family="Helvetica,sans-Serif" font-size="10.00" fill="#000000"> +description</text>
</g>
<!-- Node5 -->
<g id="node4" class="node">
<title>Node5</title>
<polygon fill="none" stroke="#bfbfbf" points="464.4397,-926.5 464.4397,-983.5 503.4397,-983.5 503.4397,-926.5 464.4397,-926.5"/>
<text text-anchor="middle" x="483.9397" y="-971.5" font-family="Helvetica,sans-Serif" font-size="10.00" fill="#000000">Type</text>
<polyline fill="none" stroke="#bfbfbf" points="464.4397,-964.5 503.4397,-964.5 "/>
<text text-anchor="middle" x="483.9397" y="-952.5" font-family="Helvetica,sans-Serif" font-size="10.00" fill="#000000"> </text>
<polyline fill="none" stroke="#bfbfbf" points="464.4397,-945.5 503.4397,-945.5 "/>
<text text-anchor="middle" x="483.9397" y="-933.5" font-family="Helvetica,sans-Serif" font-size="10.00" fill="#000000"> </text>
</g>
<!-- Node5&#45;&gt;Node4 -->
<g id="edge3" class="edge">
<title>Node5&#45;&gt;Node4</title>
<path fill="none" stroke="#404040" d="M503.4992,-940.6317C524.9924,-923.4991 558.2787,-892.6601 571.9397,-857 605.6465,-769.0132 588.7513,-737.7103 571.9397,-645 568.552,-626.318 571.3904,-617.3154 556.9397,-605 528.984,-581.1752 507.4551,-601.9689 470.9578,-587.4924"/>
<polygon fill="none" stroke="#404040" points="470.5146,-587.2803 463.3754,-588.2966 459.6914,-582.0975 466.8306,-581.0812 470.5146,-587.2803"/>
<text text-anchor="middle" x="604.4397" y="-748.5" font-family="Helvetica,sans-Serif" font-size="10.00" fill="#000000"> +itg</text>
</g>
<!-- Node9 -->
<g id="node8" class="node">
<title>Node9</title>
<g id="a_node8"><a xlink:href="../../d9/db3/structo2_1_1header_1_1Descriptor.html" target="_top" xlink:title="{o2::header::Descriptor\l\&lt; N, PrinterPolicy \&gt;\n||+ Descriptor()\l+ Descriptor()\l+ Descriptor()\l+ operator=()\l+ operator ItgType()\l+ Descriptor()\l+ runtimeInit()\l+ operator==()\l+ operator\&lt;()\l+ operator!=()\l+ operator==()\l+ operator!=()\l+ as()\l+ print()\l}">
<polygon fill="none" stroke="#000000" points="320.4397,-645.5 320.4397,-856.5 445.4397,-856.5 445.4397,-645.5 320.4397,-645.5"/>
<text text-anchor="start" x="328.4397" y="-844.5" font-family="Helvetica,sans-Serif" font-size="10.00" fill="#000000">o2::header::Descriptor</text>
<text text-anchor="middle" x="382.9397" y="-833.5" font-family="Helvetica,sans-Serif" font-size="10.00" fill="#000000">&lt; N, PrinterPolicy &gt;</text>
<polyline fill="none" stroke="#000000" points="320.4397,-826.5 445.4397,-826.5 "/>
<text text-anchor="middle" x="382.9397" y="-814.5" font-family="Helvetica,sans-Serif" font-size="10.00" fill="#000000"> </text>
<polyline fill="none" stroke="#000000" points="320.4397,-807.5 445.4397,-807.5 "/>
<text text-anchor="start" x="328.4397" y="-795.5" font-family="Helvetica,sans-Serif" font-size="10.00" fill="#000000">+ Descriptor()</text>
<text text-anchor="start" x="328.4397" y="-784.5" font-family="Helvetica,sans-Serif" font-size="10.00" fill="#000000">+ Descriptor()</text>
<text text-anchor="start" x="328.4397" y="-773.5" font-family="Helvetica,sans-Serif" font-size="10.00" fill="#000000">+ Descriptor()</text>
<text text-anchor="start" x="328.4397" y="-762.5" font-family="Helvetica,sans-Serif" font-size="10.00" fill="#000000">+ operator=()</text>
<text text-anchor="start" x="328.4397" y="-751.5" font-family="Helvetica,sans-Serif" font-size="10.00" fill="#000000">+ operator ItgType()</text>
<text text-anchor="start" x="328.4397" y="-740.5" font-family="Helvetica,sans-Serif" font-size="10.00" fill="#000000">+ Descriptor()</text>
<text text-anchor="start" x="328.4397" y="-729.5" font-family="Helvetica,sans-Serif" font-size="10.00" fill="#000000">+ runtimeInit()</text>
<text text-anchor="start" x="328.4397" y="-718.5" font-family="Helvetica,sans-Serif" font-size="10.00" fill="#000000">+ operator==()</text>
<text text-anchor="start" x="328.4397" y="-707.5" font-family="Helvetica,sans-Serif" font-size="10.00" fill="#000000">+ operator&lt;()</text>
<text text-anchor="start" x="328.4397" y="-696.5" font-family="Helvetica,sans-Serif" font-size="10.00" fill="#000000">+ operator!=()</text>
<text text-anchor="start" x="328.4397" y="-685.5" font-family="Helvetica,sans-Serif" font-size="10.00" fill="#000000">+ operator==()</text>
<text text-anchor="start" x="328.4397" y="-674.5" font-family="Helvetica,sans-Serif" font-size="10.00" fill="#000000">+ operator!=()</text>
<text text-anchor="start" x="328.4397" y="-663.5" font-family="Helvetica,sans-Serif" font-size="10.00" fill="#000000">+ as()</text>
<text text-anchor="start" x="328.4397" y="-652.5" font-family="Helvetica,sans-Serif" font-size="10.00" fill="#000000">+ print()</text>
</a>
</g>
</g>
<!-- Node5&#45;&gt;Node9 -->
<g id="edge8" class="edge">
<title>Node5&#45;&gt;Node9</title>
<path fill="none" stroke="#404040" d="M464.3056,-950.2639C443.7717,-944.1909 412.421,-931.5159 396.9397,-908 389.1222,-896.1252 383.901,-882.6042 380.5445,-868.594"/>
<polygon fill="none" stroke="#404040" points="380.5251,-868.498 375.4156,-863.4095 378.1474,-856.7359 383.257,-861.8243 380.5251,-868.498"/>
<text text-anchor="middle" x="409.4397" y="-889" font-family="Helvetica,sans-Serif" font-size="10.00" fill="#000000"> +itg</text>
</g>
<!-- Node10 -->
<g id="node9" class="node">
<title>Node10</title>
<g id="a_node9"><a xlink:href="../../d9/db3/structo2_1_1header_1_1Descriptor.html" target="_top" xlink:title="{o2::header::Descriptor\l\&lt; gSizeSerializationMethodString \&gt;\n||+ Descriptor()\l+ Descriptor()\l+ Descriptor()\l+ Descriptor()\l+ operator=()\l+ operator ItgType()\l+ runtimeInit()\l+ operator==()\l+ operator==()\l+ operator\&lt;()\l+ operator!=()\l+ operator!=()\l+ as()\l+ print()\l}">
<polygon fill="none" stroke="#000000" points="65.4397,-375.5 65.4397,-586.5 256.4397,-586.5 256.4397,-375.5 65.4397,-375.5"/>
<text text-anchor="start" x="73.4397" y="-574.5" font-family="Helvetica,sans-Serif" font-size="10.00" fill="#000000">o2::header::Descriptor</text>
<text text-anchor="middle" x="160.9397" y="-563.5" font-family="Helvetica,sans-Serif" font-size="10.00" fill="#000000">&lt; gSizeSerializationMethodString &gt;</text>
<polyline fill="none" stroke="#000000" points="65.4397,-556.5 256.4397,-556.5 "/>
<text text-anchor="middle" x="160.9397" y="-544.5" font-family="Helvetica,sans-Serif" font-size="10.00" fill="#000000"> </text>
<polyline fill="none" stroke="#000000" points="65.4397,-537.5 256.4397,-537.5 "/>
<text text-anchor="start" x="73.4397" y="-525.5" font-family="Helvetica,sans-Serif" font-size="10.00" fill="#000000">+ Descriptor()</text>
<text text-anchor="start" x="73.4397" y="-514.5" font-family="Helvetica,sans-Serif" font-size="10.00" fill="#000000">+ Descriptor()</text>
<text text-anchor="start" x="73.4397" y="-503.5" font-family="Helvetica,sans-Serif" font-size="10.00" fill="#000000">+ Descriptor()</text>
<text text-anchor="start" x="73.4397" y="-492.5" font-family="Helvetica,sans-Serif" font-size="10.00" fill="#000000">+ Descriptor()</text>
<text text-anchor="start" x="73.4397" y="-481.5" font-family="Helvetica,sans-Serif" font-size="10.00" fill="#000000">+ operator=()</text>
<text text-anchor="start" x="73.4397" y="-470.5" font-family="Helvetica,sans-Serif" font-size="10.00" fill="#000000">+ operator ItgType()</text>
<text text-anchor="start" x="73.4397" y="-459.5" font-family="Helvetica,sans-Serif" font-size="10.00" fill="#000000">+ runtimeInit()</text>
<text text-anchor="start" x="73.4397" y="-448.5" font-family="Helvetica,sans-Serif" font-size="10.00" fill="#000000">+ operator==()</text>
<text text-anchor="start" x="73.4397" y="-437.5" font-family="Helvetica,sans-Serif" font-size="10.00" fill="#000000">+ operator==()</text>
<text text-anchor="start" x="73.4397" y="-426.5" font-family="Helvetica,sans-Serif" font-size="10.00" fill="#000000">+ operator&lt;()</text>
<text text-anchor="start" x="73.4397" y="-415.5" font-family="Helvetica,sans-Serif" font-size="10.00" fill="#000000">+ operator!=()</text>
<text text-anchor="start" x="73.4397" y="-404.5" font-family="Helvetica,sans-Serif" font-size="10.00" fill="#000000">+ operator!=()</text>
<text text-anchor="start" x="73.4397" y="-393.5" font-family="Helvetica,sans-Serif" font-size="10.00" fill="#000000">+ as()</text>
<text text-anchor="start" x="73.4397" y="-382.5" font-family="Helvetica,sans-Serif" font-size="10.00" fill="#000000">+ print()</text>
</a>
</g>
</g>
<!-- Node5&#45;&gt;Node10 -->
<g id="edge14" class="edge">
<title>Node5&#45;&gt;Node10</title>
<path fill="none" stroke="#404040" d="M485.243,-926.4586C487.756,-857.8718 490.1681,-686.4052 453.9397,-645 430.7971,-618.5504 408.6193,-642.2173 376.9397,-627 362.674,-620.1474 363.2684,-611.72 348.9397,-605 317.6124,-590.3079 301.551,-602.5783 267.6776,-587.6248"/>
<polygon fill="none" stroke="#404040" points="267.2842,-587.4276 260.1279,-588.3147 256.5566,-582.05 263.713,-581.1629 267.2842,-587.4276"/>
<text text-anchor="middle" x="499.4397" y="-748.5" font-family="Helvetica,sans-Serif" font-size="10.00" fill="#000000"> +itg</text>
</g>
<!-- Node6 -->
<g id="node5" class="node">
<title>Node6</title>
<polygon fill="none" stroke="#bfbfbf" points="584.9397,-926.5 584.9397,-983.5 622.9397,-983.5 622.9397,-926.5 584.9397,-926.5"/>
<text text-anchor="middle" x="603.9397" y="-971.5" font-family="Helvetica,sans-Serif" font-size="10.00" fill="#000000">char</text>
<polyline fill="none" stroke="#bfbfbf" points="584.9397,-964.5 622.9397,-964.5 "/>
<text text-anchor="middle" x="603.9397" y="-952.5" font-family="Helvetica,sans-Serif" font-size="10.00" fill="#000000"> </text>
<polyline fill="none" stroke="#bfbfbf" points="584.9397,-945.5 622.9397,-945.5 "/>
<text text-anchor="middle" x="603.9397" y="-933.5" font-family="Helvetica,sans-Serif" font-size="10.00" fill="#000000"> </text>
</g>
<!-- Node6&#45;&gt;Node3 -->
<g id="edge12" class="edge">
<title>Node6&#45;&gt;Node3</title>
<path fill="none" stroke="#404040" d="M623.0511,-931.2174C637.7147,-912.0697 657.636,-883.99 670.9397,-857 727.2478,-742.7641 743.3846,-712.1623 766.9397,-587 791.2776,-457.6779 821.1509,-413.8318 773.9397,-291 772.9665,-288.468 771.8981,-285.9595 770.745,-283.4777"/>
<polygon fill="none" stroke="#404040" points="770.7154,-283.4207 764.398,-279.9434 765.1781,-272.7746 771.4954,-276.2519 770.7154,-283.4207"/>
<text text-anchor="middle" x="798.9397" y="-613.5" font-family="Helvetica,sans-Serif" font-size="10.00" fill="#000000"> +magicString</text>
</g>
<!-- Node6&#45;&gt;Node4 -->
<g id="edge4" class="edge">
<title>Node6&#45;&gt;Node4</title>
<path fill="none" stroke="#404040" d="M613.7954,-926.1278C631.4018,-869.463 662.6941,-740.8684 620.9397,-645 610.5172,-621.0698 601.3772,-616.4878 577.9397,-605 536.6712,-584.7724 515.0024,-606.4951 470.4601,-587.4668"/>
<polygon fill="none" stroke="#404040" points="470.4247,-587.4497 463.283,-588.4478 459.6149,-582.2393 466.7566,-581.2412 470.4247,-587.4497"/>
<text text-anchor="middle" x="654.4397" y="-748.5" font-family="Helvetica,sans-Serif" font-size="10.00" fill="#000000"> +str</text>
</g>
<!-- Node6&#45;&gt;Node9 -->
<g id="edge9" class="edge">
<title>Node6&#45;&gt;Node9</title>
<path fill="none" stroke="#404040" d="M584.5735,-948.6589C563.4072,-941.1279 529.1535,-927.1341 503.9397,-908 485.6148,-894.0937 468.6095,-876.7448 453.4843,-858.6994"/>
<polygon fill="none" stroke="#404040" points="453.3329,-858.5137 446.441,-856.3917 445.7491,-849.2139 452.6409,-851.3359 453.3329,-858.5137"/>
<text text-anchor="middle" x="516.4397" y="-889" font-family="Helvetica,sans-Serif" font-size="10.00" fill="#000000"> +str</text>
</g>
<!-- Node6&#45;&gt;Node10 -->
<g id="edge15" class="edge">
<title>Node6&#45;&gt;Node10</title>
<path fill="none" stroke="#404040" d="M584.9394,-931.1579C570.9033,-912.2004 552.619,-884.3995 542.9397,-857 524.1459,-803.7999 552.8143,-643.8937 511.9397,-605 474.4844,-569.3598 333.481,-605.2152 268.246,-587.0068"/>
<polygon fill="none" stroke="#404040" points="267.9021,-586.8817 260.896,-588.5893 256.6252,-582.7789 263.6312,-581.0713 267.9021,-586.8817"/>
<text text-anchor="middle" x="555.4397" y="-748.5" font-family="Helvetica,sans-Serif" font-size="10.00" fill="#000000"> +str</text>
</g>
<!-- Node7 -->
<g id="node6" class="node">
<title>Node7</title>
<polygon fill="none" stroke="#bfbfbf" points="89.4397,-926.5 89.4397,-983.5 118.4397,-983.5 118.4397,-926.5 89.4397,-926.5"/>
<text text-anchor="middle" x="103.9397" y="-971.5" font-family="Helvetica,sans-Serif" font-size="10.00" fill="#000000">int</text>
<polyline fill="none" stroke="#bfbfbf" points="89.4397,-964.5 118.4397,-964.5 "/>
<text text-anchor="middle" x="103.9397" y="-952.5" font-family="Helvetica,sans-Serif" font-size="10.00" fill="#000000"> </text>
<polyline fill="none" stroke="#bfbfbf" points="89.4397,-945.5 118.4397,-945.5 "/>
<text text-anchor="middle" x="103.9397" y="-933.5" font-family="Helvetica,sans-Serif" font-size="10.00" fill="#000000"> </text>
</g>
<!-- Node7&#45;&gt;Node4 -->
<g id="edge5" class="edge">
<title>Node7&#45;&gt;Node4</title>
<path fill="none" stroke="#404040" d="M101.1965,-926.3529C95.2776,-858.7148 84.054,-691.3127 112.9397,-645 133.14,-612.6127 153.1962,-618.3935 188.9397,-605 218.2705,-594.0094 232.002,-602.2064 263.3188,-587.1073"/>
<polygon fill="none" stroke="#404040" points="263.5582,-586.9796 266.97,-580.6267 274.1465,-581.3326 270.7347,-587.6855 263.5582,-586.9796"/>
<text text-anchor="middle" x="141.9397" y="-759.5" font-family="Helvetica,sans-Serif" font-size="10.00" fill="#000000"> +arraySize</text>
<text text-anchor="middle" x="141.9397" y="-748.5" font-family="Helvetica,sans-Serif" font-size="10.00" fill="#000000">+size</text>
<text text-anchor="middle" x="141.9397" y="-737.5" font-family="Helvetica,sans-Serif" font-size="10.00" fill="#000000">+bitcount</text>
</g>
<!-- Node7&#45;&gt;Node9 -->
<g id="edge10" class="edge">
<title>Node7&#45;&gt;Node9</title>
<path fill="none" stroke="#404040" d="M118.5806,-946.3034C145.1446,-930.7393 203.317,-897.6365 254.9397,-875 276.9533,-865.3471 286.673,-871.3727 305.9397,-857 307.6632,-855.7143 309.3643,-854.3791 311.0425,-852.9996"/>
<polygon fill="none" stroke="#404040" points="311.443,-852.6424 313.2575,-845.6633 320.3976,-844.654 318.5831,-851.6331 311.443,-852.6424"/>
<text text-anchor="middle" x="283.9397" y="-900" font-family="Helvetica,sans-Serif" font-size="10.00" fill="#000000"> +arraySize</text>
<text text-anchor="middle" x="283.9397" y="-889" font-family="Helvetica,sans-Serif" font-size="10.00" fill="#000000">+size</text>
<text text-anchor="middle" x="283.9397" y="-878" font-family="Helvetica,sans-Serif" font-size="10.00" fill="#000000">+bitcount</text>
</g>
<!-- Node7&#45;&gt;Node10 -->
<g id="edge16" class="edge">
<title>Node7&#45;&gt;Node10</title>
<path fill="none" stroke="#404040" d="M89.1863,-942.9382C69.8616,-926.078 36.9147,-893.4122 23.9397,-857 -7.6872,-768.2443 -8.189,-733.5752 23.9397,-645 31.8038,-623.3196 43.9269,-602.498 57.777,-583.3967"/>
<polygon fill="none" stroke="#404040" points="57.9535,-583.1617 58.3611,-575.9621 65.1636,-573.5692 64.7561,-580.7688 57.9535,-583.1617"/>
<text text-anchor="middle" x="52.9397" y="-759.5" font-family="Helvetica,sans-Serif" font-size="10.00" fill="#000000"> +arraySize</text>
<text text-anchor="middle" x="52.9397" y="-748.5" font-family="Helvetica,sans-Serif" font-size="10.00" fill="#000000">+size</text>
<text text-anchor="middle" x="52.9397" y="-737.5" font-family="Helvetica,sans-Serif" font-size="10.00" fill="#000000">+bitcount</text>
</g>
<!-- Node8 -->
<g id="node7" class="node">
<title>Node8</title>
<polygon fill="none" stroke="#bfbfbf" points="171.4397,-926.5 171.4397,-983.5 278.4397,-983.5 278.4397,-926.5 171.4397,-926.5"/>
<text text-anchor="middle" x="224.9397" y="-971.5" font-family="Helvetica,sans-Serif" font-size="10.00" fill="#000000">anonymous:+@72</text>
<polyline fill="none" stroke="#bfbfbf" points="171.4397,-964.5 278.4397,-964.5 "/>
<text text-anchor="middle" x="224.9397" y="-952.5" font-family="Helvetica,sans-Serif" font-size="10.00" fill="#000000"> </text>
<polyline fill="none" stroke="#bfbfbf" points="171.4397,-945.5 278.4397,-945.5 "/>
<text text-anchor="middle" x="224.9397" y="-933.5" font-family="Helvetica,sans-Serif" font-size="10.00" fill="#000000"> </text>
</g>
<!-- Node8&#45;&gt;Node4 -->
<g id="edge6" class="edge">
<title>Node8&#45;&gt;Node4</title>
<path fill="none" stroke="#404040" d="M229.5921,-926.4389C242.0115,-850.3047 275.1289,-648.0452 276.9397,-645 283.5741,-633.843 291.8943,-637.1866 299.9397,-627 307.1996,-617.8079 313.8808,-607.7022 319.9777,-597.23"/>
<polygon fill="none" stroke="#404040" points="320.0311,-597.1342 319.4626,-589.9456 325.8797,-586.6559 326.4482,-593.8446 320.0311,-597.1342"/>
<text text-anchor="middle" x="293.9397" y="-748.5" font-family="Helvetica,sans-Serif" font-size="10.00" fill="#000000"> +@72</text>
</g>
<!-- Node8&#45;&gt;Node9 -->
<g id="edge11" class="edge">
<title>Node8&#45;&gt;Node9</title>
<path fill="none" stroke="#404040" d="M278.8848,-935.3043C292.6197,-928.3184 306.4457,-919.3048 316.9397,-908 327.9468,-896.1425 337.2639,-882.181 345.1104,-867.5569"/>
<polygon fill="none" stroke="#404040" points="345.1336,-867.5111 344.2839,-860.3502 350.5672,-856.8117 351.4169,-863.9726 345.1336,-867.5111"/>
<text text-anchor="middle" x="355.9397" y="-889" font-family="Helvetica,sans-Serif" font-size="10.00" fill="#000000"> +@72</text>
</g>
<!-- Node8&#45;&gt;Node10 -->
<g id="edge17" class="edge">
<title>Node8&#45;&gt;Node10</title>
<path fill="none" stroke="#404040" d="M216.2708,-926.3312C214.6604,-920.3152 213.117,-913.9808 211.9397,-908 191.5438,-804.3868 178.1169,-684.916 170.1845,-598.742"/>
<polygon fill="none" stroke="#404040" points="170.162,-598.493 165.6362,-592.879 169.0777,-586.5421 173.6035,-592.1561 170.162,-598.493"/>
<text text-anchor="middle" x="219.9397" y="-748.5" font-family="Helvetica,sans-Serif" font-size="10.00" fill="#000000"> +@72</text>
</g>
<!-- Node9&#45;&gt;Node4 -->
<g id="edge7" class="edge">
<title>Node9&#45;&gt;Node4</title>
<path fill="none" stroke="#ffa500" d="M376.0665,-635.0145C375.1198,-619.039 374.1516,-602.701 373.2164,-586.9196"/>
<polygon fill="#ffa500" stroke="#ffa500" points="372.5994,-635.6755 376.6849,-645.4509 379.5872,-635.2614 372.5994,-635.6755"/>
<text text-anchor="start" x="375.9397" y="-619" font-family="Helvetica,sans-Serif" font-size="10.00" fill="#000000"> &lt; gSizeHeaderDescription</text>
<text text-anchor="middle" x="441.9397" y="-608" font-family="Helvetica,sans-Serif" font-size="10.00" fill="#000000">String &gt;</text>
</g>
<!-- Node9&#45;&gt;Node10 -->
<g id="edge18" class="edge">
<title>Node9&#45;&gt;Node10</title>
<path fill="none" stroke="#ffa500" d="M312.3687,-649.4035C310.2682,-647.8564 308.1251,-646.3851 305.9397,-645 269.6427,-621.9947 243.4154,-655.1433 210.9397,-627 198.3863,-616.1212 188.9807,-601.9483 181.9345,-586.7148"/>
<polygon fill="#ffa500" stroke="#ffa500" points="310.2647,-652.2026 320.2571,-655.7246 314.642,-646.74 310.2647,-652.2026"/>
<text text-anchor="start" x="210.9397" y="-619" font-family="Helvetica,sans-Serif" font-size="10.00" fill="#000000"> &lt; gSizeSerializationMethod</text>
<text text-anchor="middle" x="279.9397" y="-608" font-family="Helvetica,sans-Serif" font-size="10.00" fill="#000000">String &gt;</text>
</g>
<!-- Node10&#45;&gt;Node3 -->
<g id="edge13" class="edge">
<title>Node10&#45;&gt;Node3</title>
<path fill="none" stroke="#404040" d="M239.3669,-375.2723C266.6781,-344.44 299.4537,-313.13 334.9397,-291 411.1502,-243.4732 510.5267,-217.2132 583.3897,-203.2922"/>
<polygon fill="none" stroke="#404040" points="583.5051,-203.2709 588.6742,-198.2429 595.3035,-201.0805 590.1345,-206.1085 583.5051,-203.2709"/>
<text text-anchor="middle" x="370.9397" y="-321.5" font-family="Helvetica,sans-Serif" font-size="10.00" fill="#000000"> +serialization</text>
</g>
<!-- Node11 -->
<g id="node10" class="node">
<title>Node11</title>
<g id="a_node10"><a xlink:href="../../d2/d5f/classunsigned_01int.html" target="_top" xlink:title="{unsigned int\n||}">
<polygon fill="none" stroke="#000000" points="477.4397,-452.5 477.4397,-509.5 554.4397,-509.5 554.4397,-452.5 477.4397,-452.5"/>
<text text-anchor="middle" x="515.9397" y="-497.5" font-family="Helvetica,sans-Serif" font-size="10.00" fill="#000000">unsigned int</text>
<polyline fill="none" stroke="#000000" points="477.4397,-490.5 554.4397,-490.5 "/>
<text text-anchor="middle" x="515.9397" y="-478.5" font-family="Helvetica,sans-Serif" font-size="10.00" fill="#000000"> </text>
<polyline fill="none" stroke="#000000" points="477.4397,-471.5 554.4397,-471.5 "/>
<text text-anchor="middle" x="515.9397" y="-459.5" font-family="Helvetica,sans-Serif" font-size="10.00" fill="#000000"> </text>
</a>
</g>
</g>
<!-- Node11&#45;&gt;Node3 -->
<g id="edge19" class="edge">
<title>Node11&#45;&gt;Node3</title>
<path fill="none" stroke="#404040" d="M515.2875,-452.3913C515.6735,-413.1644 521.063,-341.7727 551.9397,-291 560.9624,-276.1633 572.9864,-262.6402 586.088,-250.639"/>
<polygon fill="none" stroke="#404040" points="586.2741,-250.4763 588.1571,-243.5153 595.3068,-242.5762 593.4238,-249.5371 586.2741,-250.4763"/>
<text text-anchor="middle" x="588.9397" y="-321.5" font-family="Helvetica,sans-Serif" font-size="10.00" fill="#000000"> +sMagicString</text>
</g>
<!-- Node12 -->
<g id="node11" class="node">
<title>Node12</title>
<polygon fill="none" stroke="#bfbfbf" points="572.4397,-452.5 572.4397,-509.5 679.4397,-509.5 679.4397,-452.5 572.4397,-452.5"/>
<text text-anchor="middle" x="625.9397" y="-497.5" font-family="Helvetica,sans-Serif" font-size="10.00" fill="#000000">anonymous:+@74</text>
<polyline fill="none" stroke="#bfbfbf" points="572.4397,-490.5 679.4397,-490.5 "/>
<text text-anchor="middle" x="625.9397" y="-478.5" font-family="Helvetica,sans-Serif" font-size="10.00" fill="#000000"> </text>
<polyline fill="none" stroke="#bfbfbf" points="572.4397,-471.5 679.4397,-471.5 "/>
<text text-anchor="middle" x="625.9397" y="-459.5" font-family="Helvetica,sans-Serif" font-size="10.00" fill="#000000"> </text>
</g>
<!-- Node12&#45;&gt;Node3 -->
<g id="edge20" class="edge">
<title>Node12&#45;&gt;Node3</title>
<path fill="none" stroke="#404040" d="M625.2544,-452.2457C624.9922,-414.6557 626.7028,-347.0085 639.9397,-291 640.4765,-288.7286 641.0574,-286.4422 641.677,-284.1476"/>
<polygon fill="none" stroke="#404040" points="641.6777,-284.1451 639.5382,-277.2586 645.072,-272.6351 647.2115,-279.5215 641.6777,-284.1451"/>
<text text-anchor="middle" x="656.9397" y="-321.5" font-family="Helvetica,sans-Serif" font-size="10.00" fill="#000000"> +@74</text>
</g>
<!-- Node13 -->
<g id="node12" class="node">
<title>Node13</title>
<polygon fill="none" stroke="#bfbfbf" points="697.4397,-452.5 697.4397,-509.5 758.4397,-509.5 758.4397,-452.5 697.4397,-452.5"/>
<text text-anchor="middle" x="727.9397" y="-497.5" font-family="Helvetica,sans-Serif" font-size="10.00" fill="#000000">unsigned</text>
<polyline fill="none" stroke="#bfbfbf" points="697.4397,-490.5 758.4397,-490.5 "/>
<text text-anchor="middle" x="727.9397" y="-478.5" font-family="Helvetica,sans-Serif" font-size="10.00" fill="#000000"> </text>
<polyline fill="none" stroke="#bfbfbf" points="697.4397,-471.5 758.4397,-471.5 "/>
<text text-anchor="middle" x="727.9397" y="-459.5" font-family="Helvetica,sans-Serif" font-size="10.00" fill="#000000"> </text>
</g>
<!-- Node13&#45;&gt;Node3 -->
<g id="edge21" class="edge">
<title>Node13&#45;&gt;Node3</title>
<path fill="none" stroke="#404040" d="M716.9214,-452.2543C704.1629,-418.7264 684.6639,-366.6374 682.9397,-357 678.806,-333.8953 677.1723,-308.7156 676.8754,-285.0486"/>
<polygon fill="none" stroke="#404040" points="676.8748,-284.8291 672.8553,-278.8421 676.8358,-272.8292 680.8553,-278.8161 676.8748,-284.8291"/>
<text text-anchor="middle" x="728.4397" y="-349" font-family="Helvetica,sans-Serif" font-size="10.00" fill="#000000"> +headerVersion</text>
<text text-anchor="middle" x="728.4397" y="-338" font-family="Helvetica,sans-Serif" font-size="10.00" fill="#000000">+headerSize</text>
<text text-anchor="middle" x="728.4397" y="-327" font-family="Helvetica,sans-Serif" font-size="10.00" fill="#000000">+flagsNextHeader</text>
<text text-anchor="middle" x="728.4397" y="-316" font-family="Helvetica,sans-Serif" font-size="10.00" fill="#000000">+magicStringInt</text>
<text text-anchor="middle" x="728.4397" y="-305" font-family="Helvetica,sans-Serif" font-size="10.00" fill="#000000">+flagsUnused</text>
<text text-anchor="middle" x="728.4397" y="-294" font-family="Helvetica,sans-Serif" font-size="10.00" fill="#000000">+flags</text>
</g>
<!-- Node14 -->
<g id="node13" class="node">
<title>Node14</title>
<polygon fill="none" stroke="#bfbfbf" points="961.4397,-452.5 961.4397,-509.5 1004.4397,-509.5 1004.4397,-452.5 961.4397,-452.5"/>
<text text-anchor="middle" x="982.9397" y="-497.5" font-family="Helvetica,sans-Serif" font-size="10.00" fill="#000000">const</text>
<polyline fill="none" stroke="#bfbfbf" points="961.4397,-490.5 1004.4397,-490.5 "/>
<text text-anchor="middle" x="982.9397" y="-478.5" font-family="Helvetica,sans-Serif" font-size="10.00" fill="#000000"> </text>
<polyline fill="none" stroke="#bfbfbf" points="961.4397,-471.5 1004.4397,-471.5 "/>
<text text-anchor="middle" x="982.9397" y="-459.5" font-family="Helvetica,sans-Serif" font-size="10.00" fill="#000000"> </text>
</g>
<!-- Node14&#45;&gt;Node2 -->
<g id="edge25" class="edge">
<title>Node14&#45;&gt;Node2</title>
<path fill="none" stroke="#404040" d="M984.6636,-452.4404C986.1537,-427.3113 988.3172,-389.7341 989.9397,-357 995.0632,-253.6308 999.9621,-131.879 1002.3773,-69.8301"/>
<polygon fill="none" stroke="#404040" points="1002.3894,-69.5149 998.6248,-63.3645 1002.8542,-57.5239 1006.6188,-63.6743 1002.3894,-69.5149"/>
<text text-anchor="middle" x="1039.4397" y="-192" font-family="Helvetica,sans-Serif" font-size="10.00" fill="#000000"> +sHeaderType</text>
<text text-anchor="middle" x="1039.4397" y="-181" font-family="Helvetica,sans-Serif" font-size="10.00" fill="#000000">+sVersion</text>
</g>
<!-- Node14&#45;&gt;Node3 -->
<g id="edge22" class="edge">
<title>Node14&#45;&gt;Node3</title>
<path fill="none" stroke="#404040" d="M975.889,-452.4504C968.6196,-428.6515 955.0238,-395.4465 931.9397,-375 913.3173,-358.5055 896.5999,-374.5208 878.9397,-357 856.8877,-335.122 875.6637,-314.998 855.9397,-291 835.436,-266.0533 807.1253,-245.8437 779.2928,-230.1954"/>
<polygon fill="none" stroke="#404040" points="779.2102,-230.1506 772.0284,-230.8004 768.6664,-224.421 775.8481,-223.7712 779.2102,-230.1506"/>
<text text-anchor="middle" x="934.4397" y="-332.5" font-family="Helvetica,sans-Serif" font-size="10.00" fill="#000000"> +sHeaderType</text>
<text text-anchor="middle" x="934.4397" y="-321.5" font-family="Helvetica,sans-Serif" font-size="10.00" fill="#000000">+sSerializationMethod</text>
<text text-anchor="middle" x="934.4397" y="-310.5" font-family="Helvetica,sans-Serif" font-size="10.00" fill="#000000">+sVersion</text>
</g>
<!-- Node15 -->
<g id="node14" class="node">
<title>Node15</title>
<polygon fill="none" stroke="#bfbfbf" points="816.4397,-452.5 816.4397,-509.5 923.4397,-509.5 923.4397,-452.5 816.4397,-452.5"/>
<text text-anchor="middle" x="869.9397" y="-497.5" font-family="Helvetica,sans-Serif" font-size="10.00" fill="#000000">anonymous:+@76</text>
<polyline fill="none" stroke="#bfbfbf" points="816.4397,-490.5 923.4397,-490.5 "/>
<text text-anchor="middle" x="869.9397" y="-478.5" font-family="Helvetica,sans-Serif" font-size="10.00" fill="#000000"> </text>
<polyline fill="none" stroke="#bfbfbf" points="816.4397,-471.5 923.4397,-471.5 "/>
<text text-anchor="middle" x="869.9397" y="-459.5" font-family="Helvetica,sans-Serif" font-size="10.00" fill="#000000"> </text>
</g>
<!-- Node15&#45;&gt;Node3 -->
<g id="edge23" class="edge">
<title>Node15&#45;&gt;Node3</title>
<path fill="none" stroke="#404040" d="M858.4096,-452.0424C848.507,-426.9791 833.9685,-389.7162 821.9397,-357 811.2202,-327.8447 816.3396,-316.7329 798.9397,-291 792.554,-281.5561 785.0837,-272.448 777.0617,-263.8226"/>
<polygon fill="none" stroke="#404040" points="776.8765,-263.6316 769.8283,-262.1073 768.5246,-255.015 775.5727,-256.5393 776.8765,-263.6316"/>
<text text-anchor="middle" x="838.9397" y="-321.5" font-family="Helvetica,sans-Serif" font-size="10.00" fill="#000000"> +@76</text>
</g>
<!-- Node16 -->
<g id="node15" class="node">
<title>Node16</title>
<polygon fill="none" stroke="#bfbfbf" points="1096.9397,-160.5 1096.9397,-217.5 1134.9397,-217.5 1134.9397,-160.5 1096.9397,-160.5"/>
<text text-anchor="middle" x="1115.9397" y="-205.5" font-family="Helvetica,sans-Serif" font-size="10.00" fill="#000000">bool</text>
<polyline fill="none" stroke="#bfbfbf" points="1096.9397,-198.5 1134.9397,-198.5 "/>
<text text-anchor="middle" x="1115.9397" y="-186.5" font-family="Helvetica,sans-Serif" font-size="10.00" fill="#000000"> </text>
<polyline fill="none" stroke="#bfbfbf" points="1096.9397,-179.5 1134.9397,-179.5 "/>
<text text-anchor="middle" x="1115.9397" y="-167.5" font-family="Helvetica,sans-Serif" font-size="10.00" fill="#000000"> </text>
</g>
<!-- Node16&#45;&gt;Node2 -->
<g id="edge24" class="edge">
<title>Node16&#45;&gt;Node2</title>
<path fill="none" stroke="#404040" d="M1108.0566,-160.2885C1102.5973,-143.3273 1094.2644,-121.9305 1082.9397,-105 1073.5803,-91.0076 1061.2573,-77.6113 1049.136,-66.0697"/>
<polygon fill="none" stroke="#404040" points="1048.7895,-65.751 1041.6657,-64.6322 1039.9585,-57.6261 1047.0823,-58.7449 1048.7895,-65.751"/>
<text text-anchor="middle" x="1107.4397" y="-79" font-family="Helvetica,sans-Serif" font-size="10.00" fill="#000000"> +mHasPayload</text>
</g>
</g>
</svg>
