<?xml version="1.0" encoding="UTF-8" standalone="no"?>
<!DOCTYPE svg PUBLIC "-//W3C//DTD SVG 1.1//EN"
 "http://www.w3.org/Graphics/SVG/1.1/DTD/svg11.dtd">
<!-- Generated by graphviz version 2.40.1 (20161225.0304)
 -->
<!-- Title: o2::framework::ServiceMeta Pages: 1 -->
<svg width="165pt" height="171pt"
 viewBox="0.00 0.00 165.00 171.00" xmlns="http://www.w3.org/2000/svg" xmlns:xlink="http://www.w3.org/1999/xlink">
<g id="graph0" class="graph" transform="scale(1 1) rotate(0) translate(4 167)">
<title>o2::framework::ServiceMeta</title>
<!-- Node1 -->
<g id="node1" class="node">
<title>Node1</title>
<polygon fill="#bfbfbf" stroke="#000000" points="3,-.5 3,-57.5 157,-57.5 157,-.5 3,-.5"/>
<text text-anchor="middle" x="80" y="-45.5" font-family="Helvetica,sans-Serif" font-size="10.00" fill="#000000">o2::framework::ServiceMeta</text>
<polyline fill="none" stroke="#000000" points="3,-38.5 157,-38.5 "/>
<text text-anchor="middle" x="80" y="-26.5" font-family="Helvetica,sans-Serif" font-size="10.00" fill="#000000"> </text>
<polyline fill="none" stroke="#000000" points="3,-19.5 157,-19.5 "/>
<text text-anchor="middle" x="80" y="-7.5" font-family="Helvetica,sans-Serif" font-size="10.00" fill="#000000"> </text>
</g>
<!-- Node2 -->
<g id="node2" class="node">
<title>Node2</title>
<polygon fill="none" stroke="#bfbfbf" points="0,-105.5 0,-162.5 74,-162.5 74,-105.5 0,-105.5"/>
<text text-anchor="middle" x="37" y="-150.5" font-family="Helvetica,sans-Serif" font-size="10.00" fill="#000000">ServiceKind</text>
<polyline fill="none" stroke="#bfbfbf" points="0,-143.5 74,-143.5 "/>
<text text-anchor="middle" x="37" y="-131.5" font-family="Helvetica,sans-Serif" font-size="10.00" fill="#000000"> </text>
<polyline fill="none" stroke="#bfbfbf" points="0,-124.5 74,-124.5 "/>
<text text-anchor="middle" x="37" y="-112.5" font-family="Helvetica,sans-Serif" font-size="10.00" fill="#000000"> </text>
</g>
<!-- Node2&#45;&gt;Node1 -->
<g id="edge1" class="edge">
<title>Node2&#45;&gt;Node1</title>
<path fill="none" stroke="#404040" d="M48.7499,-105.3083C53.3479,-94.0808 58.7006,-81.0103 63.6632,-68.8922"/>
<polygon fill="none" stroke="#404040" points="63.7165,-68.7619 62.2888,-61.6935 68.2643,-57.657 69.692,-64.7254 63.7165,-68.7619"/>
<text text-anchor="middle" x="76.5" y="-79" font-family="Helvetica,sans-Serif" font-size="10.00" fill="#000000"> +kind</text>
</g>
<!-- Node3 -->
<g id="node3" class="node">
<title>Node3</title>
<polygon fill="none" stroke="#bfbfbf" points="92.5,-105.5 92.5,-162.5 153.5,-162.5 153.5,-105.5 92.5,-105.5"/>
<text text-anchor="middle" x="123" y="-150.5" font-family="Helvetica,sans-Serif" font-size="10.00" fill="#000000">unsigned</text>
<polyline fill="none" stroke="#bfbfbf" points="92.5,-143.5 153.5,-143.5 "/>
<text text-anchor="middle" x="123" y="-131.5" font-family="Helvetica,sans-Serif" font-size="10.00" fill="#000000"> </text>
<polyline fill="none" stroke="#bfbfbf" points="92.5,-124.5 153.5,-124.5 "/>
<text text-anchor="middle" x="123" y="-112.5" font-family="Helvetica,sans-Serif" font-size="10.00" fill="#000000"> </text>
</g>
<!-- Node3&#45;&gt;Node1 -->
<g id="edge2" class="edge">
<title>Node3&#45;&gt;Node1</title>
<path fill="none" stroke="#404040" d="M111.2501,-105.3083C106.6521,-94.0808 101.2994,-81.0103 96.3368,-68.8922"/>
<polygon fill="none" stroke="#404040" points="96.2835,-68.7619 90.308,-64.7254 91.7357,-57.657 97.7112,-61.6935 96.2835,-68.7619"/>
<text text-anchor="middle" x="128" y="-79" font-family="Helvetica,sans-Serif" font-size="10.00" fill="#000000"> +threadId</text>
</g>
</g>
</svg>
