<?xml version="1.0" encoding="UTF-8" standalone="no"?>
<!DOCTYPE svg PUBLIC "-//W3C//DTD SVG 1.1//EN"
 "http://www.w3.org/Graphics/SVG/1.1/DTD/svg11.dtd">
<!-- Generated by graphviz version 2.40.1 (20161225.0304)
 -->
<!-- Title: o2::tpc::CTF Pages: 1 -->
<svg width="910pt" height="1553pt"
 viewBox="0.00 0.00 909.50 1553.00" xmlns="http://www.w3.org/2000/svg" xmlns:xlink="http://www.w3.org/1999/xlink">
<g id="graph0" class="graph" transform="scale(1 1) rotate(0) translate(4 1549)">
<title>o2::tpc::CTF</title>
<!-- Node3 -->
<g id="node1" class="node">
<title>Node3</title>
<polygon fill="#bfbfbf" stroke="#000000" points="367,-.5 367,-57.5 460,-57.5 460,-.5 367,-.5"/>
<text text-anchor="middle" x="413.5" y="-45.5" font-family="Helvetica,sans-Serif" font-size="10.00" fill="#000000">o2::tpc::CTF</text>
<polyline fill="none" stroke="#000000" points="367,-38.5 460,-38.5 "/>
<text text-anchor="middle" x="413.5" y="-26.5" font-family="Helvetica,sans-Serif" font-size="10.00" fill="#000000"> </text>
<polyline fill="none" stroke="#000000" points="367,-19.5 460,-19.5 "/>
<text text-anchor="start" x="375" y="-7.5" font-family="Helvetica,sans-Serif" font-size="10.00" fill="#000000">+ ClassDefNV()</text>
</g>
<!-- Node4 -->
<g id="node2" class="node">
<title>Node4</title>
<g id="a_node2"><a xlink:href="../../dc/d08/classo2_1_1ctf_1_1EncodedBlocks.html" target="_top" xlink:title="{o2::ctf::EncodedBlocks\l\&lt; CTFHeader, 23, uint32_t \&gt;\n||+ setHeader()\l+ getHeader()\l+ getHeader()\l+ cloneHeader()\l+ getMetadata()\l+ getMetadata()\l+ getBlock()\l+ setANSHeader()\l+ getANSHeader()\l+ getANSHeader()\l+ empty()\l+ flat()\l+ clear()\l+ compactify()\l+ size()\l+ getFreeSize()\l+ copyToFlat()\l+ copyToFlat()\l+ appendToTree()\l+ readFromTree()\l+ encode()\l+ encode()\l+ decode()\l+ decode()\l+ print()\l+ getNBlocks()\l+ getMinAlignedSize()\l+ get()\l+ get()\l+ getImage()\l+ create()\l+ create()\l+ estimateBlockSize()\l+ expand()\l+ readFromTree()\l+ createDictionaryBlocks()\l# init()\l# estimateSize()\l# estimateSizeFromMetadata()\l# fillFlatCopy()\l# ClassDefNV()\l# relocate()\l# fillTreeBranch()\l# readTreeBranch()\l}">
<polygon fill="none" stroke="#000000" points="267,-171.5 267,-712.5 436,-712.5 436,-171.5 267,-171.5"/>
<text text-anchor="start" x="275" y="-700.5" font-family="Helvetica,sans-Serif" font-size="10.00" fill="#000000">o2::ctf::EncodedBlocks</text>
<text text-anchor="middle" x="351.5" y="-689.5" font-family="Helvetica,sans-Serif" font-size="10.00" fill="#000000">&lt; CTFHeader, 23, uint32_t &gt;</text>
<polyline fill="none" stroke="#000000" points="267,-682.5 436,-682.5 "/>
<text text-anchor="middle" x="351.5" y="-670.5" font-family="Helvetica,sans-Serif" font-size="10.00" fill="#000000"> </text>
<polyline fill="none" stroke="#000000" points="267,-663.5 436,-663.5 "/>
<text text-anchor="start" x="275" y="-651.5" font-family="Helvetica,sans-Serif" font-size="10.00" fill="#000000">+ setHeader()</text>
<text text-anchor="start" x="275" y="-640.5" font-family="Helvetica,sans-Serif" font-size="10.00" fill="#000000">+ getHeader()</text>
<text text-anchor="start" x="275" y="-629.5" font-family="Helvetica,sans-Serif" font-size="10.00" fill="#000000">+ getHeader()</text>
<text text-anchor="start" x="275" y="-618.5" font-family="Helvetica,sans-Serif" font-size="10.00" fill="#000000">+ cloneHeader()</text>
<text text-anchor="start" x="275" y="-607.5" font-family="Helvetica,sans-Serif" font-size="10.00" fill="#000000">+ getMetadata()</text>
<text text-anchor="start" x="275" y="-596.5" font-family="Helvetica,sans-Serif" font-size="10.00" fill="#000000">+ getMetadata()</text>
<text text-anchor="start" x="275" y="-585.5" font-family="Helvetica,sans-Serif" font-size="10.00" fill="#000000">+ getBlock()</text>
<text text-anchor="start" x="275" y="-574.5" font-family="Helvetica,sans-Serif" font-size="10.00" fill="#000000">+ setANSHeader()</text>
<text text-anchor="start" x="275" y="-563.5" font-family="Helvetica,sans-Serif" font-size="10.00" fill="#000000">+ getANSHeader()</text>
<text text-anchor="start" x="275" y="-552.5" font-family="Helvetica,sans-Serif" font-size="10.00" fill="#000000">+ getANSHeader()</text>
<text text-anchor="start" x="275" y="-541.5" font-family="Helvetica,sans-Serif" font-size="10.00" fill="#000000">+ empty()</text>
<text text-anchor="start" x="275" y="-530.5" font-family="Helvetica,sans-Serif" font-size="10.00" fill="#000000">+ flat()</text>
<text text-anchor="start" x="275" y="-519.5" font-family="Helvetica,sans-Serif" font-size="10.00" fill="#000000">+ clear()</text>
<text text-anchor="start" x="275" y="-508.5" font-family="Helvetica,sans-Serif" font-size="10.00" fill="#000000">+ compactify()</text>
<text text-anchor="start" x="275" y="-497.5" font-family="Helvetica,sans-Serif" font-size="10.00" fill="#000000">+ size()</text>
<text text-anchor="start" x="275" y="-486.5" font-family="Helvetica,sans-Serif" font-size="10.00" fill="#000000">+ getFreeSize()</text>
<text text-anchor="start" x="275" y="-475.5" font-family="Helvetica,sans-Serif" font-size="10.00" fill="#000000">+ copyToFlat()</text>
<text text-anchor="start" x="275" y="-464.5" font-family="Helvetica,sans-Serif" font-size="10.00" fill="#000000">+ copyToFlat()</text>
<text text-anchor="start" x="275" y="-453.5" font-family="Helvetica,sans-Serif" font-size="10.00" fill="#000000">+ appendToTree()</text>
<text text-anchor="start" x="275" y="-442.5" font-family="Helvetica,sans-Serif" font-size="10.00" fill="#000000">+ readFromTree()</text>
<text text-anchor="start" x="275" y="-431.5" font-family="Helvetica,sans-Serif" font-size="10.00" fill="#000000">+ encode()</text>
<text text-anchor="start" x="275" y="-420.5" font-family="Helvetica,sans-Serif" font-size="10.00" fill="#000000">+ encode()</text>
<text text-anchor="start" x="275" y="-409.5" font-family="Helvetica,sans-Serif" font-size="10.00" fill="#000000">+ decode()</text>
<text text-anchor="start" x="275" y="-398.5" font-family="Helvetica,sans-Serif" font-size="10.00" fill="#000000">+ decode()</text>
<text text-anchor="start" x="275" y="-387.5" font-family="Helvetica,sans-Serif" font-size="10.00" fill="#000000">+ print()</text>
<text text-anchor="start" x="275" y="-376.5" font-family="Helvetica,sans-Serif" font-size="10.00" fill="#000000">+ getNBlocks()</text>
<text text-anchor="start" x="275" y="-365.5" font-family="Helvetica,sans-Serif" font-size="10.00" fill="#000000">+ getMinAlignedSize()</text>
<text text-anchor="start" x="275" y="-354.5" font-family="Helvetica,sans-Serif" font-size="10.00" fill="#000000">+ get()</text>
<text text-anchor="start" x="275" y="-343.5" font-family="Helvetica,sans-Serif" font-size="10.00" fill="#000000">+ get()</text>
<text text-anchor="start" x="275" y="-332.5" font-family="Helvetica,sans-Serif" font-size="10.00" fill="#000000">+ getImage()</text>
<text text-anchor="start" x="275" y="-321.5" font-family="Helvetica,sans-Serif" font-size="10.00" fill="#000000">+ create()</text>
<text text-anchor="start" x="275" y="-310.5" font-family="Helvetica,sans-Serif" font-size="10.00" fill="#000000">+ create()</text>
<text text-anchor="start" x="275" y="-299.5" font-family="Helvetica,sans-Serif" font-size="10.00" fill="#000000">+ estimateBlockSize()</text>
<text text-anchor="start" x="275" y="-288.5" font-family="Helvetica,sans-Serif" font-size="10.00" fill="#000000">+ expand()</text>
<text text-anchor="start" x="275" y="-277.5" font-family="Helvetica,sans-Serif" font-size="10.00" fill="#000000">+ readFromTree()</text>
<text text-anchor="start" x="275" y="-266.5" font-family="Helvetica,sans-Serif" font-size="10.00" fill="#000000">+ createDictionaryBlocks()</text>
<text text-anchor="start" x="275" y="-255.5" font-family="Helvetica,sans-Serif" font-size="10.00" fill="#000000"># init()</text>
<text text-anchor="start" x="275" y="-244.5" font-family="Helvetica,sans-Serif" font-size="10.00" fill="#000000"># estimateSize()</text>
<text text-anchor="start" x="275" y="-233.5" font-family="Helvetica,sans-Serif" font-size="10.00" fill="#000000"># estimateSizeFromMetadata()</text>
<text text-anchor="start" x="275" y="-222.5" font-family="Helvetica,sans-Serif" font-size="10.00" fill="#000000"># fillFlatCopy()</text>
<text text-anchor="start" x="275" y="-211.5" font-family="Helvetica,sans-Serif" font-size="10.00" fill="#000000"># ClassDefNV()</text>
<text text-anchor="start" x="275" y="-200.5" font-family="Helvetica,sans-Serif" font-size="10.00" fill="#000000"># relocate()</text>
<text text-anchor="start" x="275" y="-189.5" font-family="Helvetica,sans-Serif" font-size="10.00" fill="#000000"># fillTreeBranch()</text>
<text text-anchor="start" x="275" y="-178.5" font-family="Helvetica,sans-Serif" font-size="10.00" fill="#000000"># readTreeBranch()</text>
</a>
</g>
</g>
<!-- Node4&#45;&gt;Node3 -->
<g id="edge1" class="edge">
<title>Node4&#45;&gt;Node3</title>
<path fill="none" stroke="#191970" d="M393.6098,-161.4942C399.9336,-119.3698 405.5465,-81.9804 409.1837,-57.7521"/>
<polygon fill="none" stroke="#191970" points="390.1432,-161.0114 392.1197,-171.4203 397.0656,-162.0507 390.1432,-161.0114"/>
</g>
<!-- Node5 -->
<g id="node3" class="node">
<title>Node5</title>
<g id="a_node3"><a xlink:href="../../da/d30/classstd_1_1array_3_01o2_1_1ctf_1_1Block_3_01uint32__t_01_4_00_01N_01_4.html" target="_top" xlink:title="{array\&lt; o2::ctf::Block\l\&lt; uint32_t \&gt;, N \&gt;\n||}">
<polygon fill="none" stroke="#000000" points="0,-997 0,-1065 117,-1065 117,-997 0,-997"/>
<text text-anchor="start" x="8" y="-1053" font-family="Helvetica,sans-Serif" font-size="10.00" fill="#000000">array&lt; o2::ctf::Block</text>
<text text-anchor="middle" x="58.5" y="-1042" font-family="Helvetica,sans-Serif" font-size="10.00" fill="#000000">&lt; uint32_t &gt;, N &gt;</text>
<polyline fill="none" stroke="#000000" points="0,-1035 117,-1035 "/>
<text text-anchor="middle" x="58.5" y="-1023" font-family="Helvetica,sans-Serif" font-size="10.00" fill="#000000"> </text>
<polyline fill="none" stroke="#000000" points="0,-1016 117,-1016 "/>
<text text-anchor="middle" x="58.5" y="-1004" font-family="Helvetica,sans-Serif" font-size="10.00" fill="#000000"> </text>
</a>
</g>
</g>
<!-- Node5&#45;&gt;Node4 -->
<g id="edge2" class="edge">
<title>Node5&#45;&gt;Node4</title>
<path fill="none" stroke="#404040" d="M54.6977,-996.8532C49.7491,-939.2756 45.905,-820.4149 85.5,-731 123.4492,-645.3016 197.3244,-568.3197 257.61,-515.3974"/>
<polygon fill="none" stroke="#404040" points="257.7169,-515.3046 259.6268,-508.351 266.78,-507.4394 264.8702,-514.3931 257.7169,-515.3046"/>
<text text-anchor="middle" x="112.5" y="-734" font-family="Helvetica,sans-Serif" font-size="10.00" fill="#000000"> #mBlocks</text>
</g>
<!-- Node6 -->
<g id="node4" class="node">
<title>Node6</title>
<polygon fill="none" stroke="#bfbfbf" points="501,-1360.5 501,-1417.5 662,-1417.5 662,-1360.5 501,-1360.5"/>
<text text-anchor="middle" x="581.5" y="-1405.5" font-family="Helvetica,sans-Serif" font-size="10.00" fill="#000000">array&lt; o2::ctf::Metadata, N &gt;</text>
<polyline fill="none" stroke="#bfbfbf" points="501,-1398.5 662,-1398.5 "/>
<text text-anchor="middle" x="581.5" y="-1386.5" font-family="Helvetica,sans-Serif" font-size="10.00" fill="#000000"> </text>
<polyline fill="none" stroke="#bfbfbf" points="501,-1379.5 662,-1379.5 "/>
<text text-anchor="middle" x="581.5" y="-1367.5" font-family="Helvetica,sans-Serif" font-size="10.00" fill="#000000"> </text>
</g>
<!-- Node6&#45;&gt;Node4 -->
<g id="edge3" class="edge">
<title>Node6&#45;&gt;Node4</title>
<path fill="none" stroke="#404040" d="M595.3001,-1360.4366C599.0574,-1351.2552 602.6097,-1340.8951 604.5,-1331 605.4174,-1326.198 604.7521,-1324.8824 604.5,-1320 590.9264,-1057.1723 722.3273,-924.0891 543.5,-731 515.4862,-700.7521 483.8093,-735.7514 445.8029,-712.4391"/>
<polygon fill="none" stroke="#404040" points="445.6456,-712.3226 438.4433,-711.9661 436.0022,-705.1807 443.2045,-705.5372 445.6456,-712.3226"/>
<text text-anchor="middle" x="671" y="-1028.5" font-family="Helvetica,sans-Serif" font-size="10.00" fill="#000000"> #mMetadata</text>
</g>
<!-- Node15 -->
<g id="node13" class="node">
<title>Node15</title>
<g id="a_node13"><a xlink:href="../../dc/d08/classo2_1_1ctf_1_1EncodedBlocks.html" target="_top" xlink:title="&lt;&lt;======================== Auxiliary classes =======================&lt;&lt; ">
<polygon fill="none" stroke="#000000" points="357,-760.5 357,-1301.5 526,-1301.5 526,-760.5 357,-760.5"/>
<text text-anchor="start" x="365" y="-1289.5" font-family="Helvetica,sans-Serif" font-size="10.00" fill="#000000">o2::ctf::EncodedBlocks</text>
<text text-anchor="middle" x="441.5" y="-1278.5" font-family="Helvetica,sans-Serif" font-size="10.00" fill="#000000">&lt; H, N, W &gt;</text>
<polyline fill="none" stroke="#000000" points="357,-1271.5 526,-1271.5 "/>
<text text-anchor="middle" x="441.5" y="-1259.5" font-family="Helvetica,sans-Serif" font-size="10.00" fill="#000000"> </text>
<polyline fill="none" stroke="#000000" points="357,-1252.5 526,-1252.5 "/>
<text text-anchor="start" x="365" y="-1240.5" font-family="Helvetica,sans-Serif" font-size="10.00" fill="#000000">+ setHeader()</text>
<text text-anchor="start" x="365" y="-1229.5" font-family="Helvetica,sans-Serif" font-size="10.00" fill="#000000">+ getHeader()</text>
<text text-anchor="start" x="365" y="-1218.5" font-family="Helvetica,sans-Serif" font-size="10.00" fill="#000000">+ getHeader()</text>
<text text-anchor="start" x="365" y="-1207.5" font-family="Helvetica,sans-Serif" font-size="10.00" fill="#000000">+ cloneHeader()</text>
<text text-anchor="start" x="365" y="-1196.5" font-family="Helvetica,sans-Serif" font-size="10.00" fill="#000000">+ getMetadata()</text>
<text text-anchor="start" x="365" y="-1185.5" font-family="Helvetica,sans-Serif" font-size="10.00" fill="#000000">+ getMetadata()</text>
<text text-anchor="start" x="365" y="-1174.5" font-family="Helvetica,sans-Serif" font-size="10.00" fill="#000000">+ getBlock()</text>
<text text-anchor="start" x="365" y="-1163.5" font-family="Helvetica,sans-Serif" font-size="10.00" fill="#000000">+ setANSHeader()</text>
<text text-anchor="start" x="365" y="-1152.5" font-family="Helvetica,sans-Serif" font-size="10.00" fill="#000000">+ getANSHeader()</text>
<text text-anchor="start" x="365" y="-1141.5" font-family="Helvetica,sans-Serif" font-size="10.00" fill="#000000">+ getANSHeader()</text>
<text text-anchor="start" x="365" y="-1130.5" font-family="Helvetica,sans-Serif" font-size="10.00" fill="#000000">+ empty()</text>
<text text-anchor="start" x="365" y="-1119.5" font-family="Helvetica,sans-Serif" font-size="10.00" fill="#000000">+ flat()</text>
<text text-anchor="start" x="365" y="-1108.5" font-family="Helvetica,sans-Serif" font-size="10.00" fill="#000000">+ clear()</text>
<text text-anchor="start" x="365" y="-1097.5" font-family="Helvetica,sans-Serif" font-size="10.00" fill="#000000">+ compactify()</text>
<text text-anchor="start" x="365" y="-1086.5" font-family="Helvetica,sans-Serif" font-size="10.00" fill="#000000">+ size()</text>
<text text-anchor="start" x="365" y="-1075.5" font-family="Helvetica,sans-Serif" font-size="10.00" fill="#000000">+ getFreeSize()</text>
<text text-anchor="start" x="365" y="-1064.5" font-family="Helvetica,sans-Serif" font-size="10.00" fill="#000000">+ copyToFlat()</text>
<text text-anchor="start" x="365" y="-1053.5" font-family="Helvetica,sans-Serif" font-size="10.00" fill="#000000">+ copyToFlat()</text>
<text text-anchor="start" x="365" y="-1042.5" font-family="Helvetica,sans-Serif" font-size="10.00" fill="#000000">+ appendToTree()</text>
<text text-anchor="start" x="365" y="-1031.5" font-family="Helvetica,sans-Serif" font-size="10.00" fill="#000000">+ readFromTree()</text>
<text text-anchor="start" x="365" y="-1020.5" font-family="Helvetica,sans-Serif" font-size="10.00" fill="#000000">+ encode()</text>
<text text-anchor="start" x="365" y="-1009.5" font-family="Helvetica,sans-Serif" font-size="10.00" fill="#000000">+ encode()</text>
<text text-anchor="start" x="365" y="-998.5" font-family="Helvetica,sans-Serif" font-size="10.00" fill="#000000">+ decode()</text>
<text text-anchor="start" x="365" y="-987.5" font-family="Helvetica,sans-Serif" font-size="10.00" fill="#000000">+ decode()</text>
<text text-anchor="start" x="365" y="-976.5" font-family="Helvetica,sans-Serif" font-size="10.00" fill="#000000">+ print()</text>
<text text-anchor="start" x="365" y="-965.5" font-family="Helvetica,sans-Serif" font-size="10.00" fill="#000000">+ getNBlocks()</text>
<text text-anchor="start" x="365" y="-954.5" font-family="Helvetica,sans-Serif" font-size="10.00" fill="#000000">+ getMinAlignedSize()</text>
<text text-anchor="start" x="365" y="-943.5" font-family="Helvetica,sans-Serif" font-size="10.00" fill="#000000">+ get()</text>
<text text-anchor="start" x="365" y="-932.5" font-family="Helvetica,sans-Serif" font-size="10.00" fill="#000000">+ get()</text>
<text text-anchor="start" x="365" y="-921.5" font-family="Helvetica,sans-Serif" font-size="10.00" fill="#000000">+ getImage()</text>
<text text-anchor="start" x="365" y="-910.5" font-family="Helvetica,sans-Serif" font-size="10.00" fill="#000000">+ create()</text>
<text text-anchor="start" x="365" y="-899.5" font-family="Helvetica,sans-Serif" font-size="10.00" fill="#000000">+ create()</text>
<text text-anchor="start" x="365" y="-888.5" font-family="Helvetica,sans-Serif" font-size="10.00" fill="#000000">+ estimateBlockSize()</text>
<text text-anchor="start" x="365" y="-877.5" font-family="Helvetica,sans-Serif" font-size="10.00" fill="#000000">+ expand()</text>
<text text-anchor="start" x="365" y="-866.5" font-family="Helvetica,sans-Serif" font-size="10.00" fill="#000000">+ readFromTree()</text>
<text text-anchor="start" x="365" y="-855.5" font-family="Helvetica,sans-Serif" font-size="10.00" fill="#000000">+ createDictionaryBlocks()</text>
<text text-anchor="start" x="365" y="-844.5" font-family="Helvetica,sans-Serif" font-size="10.00" fill="#000000"># init()</text>
<text text-anchor="start" x="365" y="-833.5" font-family="Helvetica,sans-Serif" font-size="10.00" fill="#000000"># estimateSize()</text>
<text text-anchor="start" x="365" y="-822.5" font-family="Helvetica,sans-Serif" font-size="10.00" fill="#000000"># estimateSizeFromMetadata()</text>
<text text-anchor="start" x="365" y="-811.5" font-family="Helvetica,sans-Serif" font-size="10.00" fill="#000000"># fillFlatCopy()</text>
<text text-anchor="start" x="365" y="-800.5" font-family="Helvetica,sans-Serif" font-size="10.00" fill="#000000"># ClassDefNV()</text>
<text text-anchor="start" x="365" y="-789.5" font-family="Helvetica,sans-Serif" font-size="10.00" fill="#000000"># relocate()</text>
<text text-anchor="start" x="365" y="-778.5" font-family="Helvetica,sans-Serif" font-size="10.00" fill="#000000"># fillTreeBranch()</text>
<text text-anchor="start" x="365" y="-767.5" font-family="Helvetica,sans-Serif" font-size="10.00" fill="#000000"># readTreeBranch()</text>
</a>
</g>
</g>
<!-- Node6&#45;&gt;Node15 -->
<g id="edge14" class="edge">
<title>Node6&#45;&gt;Node15</title>
<path fill="none" stroke="#404040" d="M556.8375,-1360.4945C549.8976,-1351.484 542.8045,-1341.2053 537.5,-1331 534.4262,-1325.0864 531.4275,-1319.0559 528.5037,-1312.9331"/>
<polygon fill="none" stroke="#404040" points="528.3922,-1312.6938 522.2316,-1308.9459 523.3218,-1301.8176 529.4824,-1305.5656 528.3922,-1312.6938"/>
<text text-anchor="middle" x="571" y="-1323" font-family="Helvetica,sans-Serif" font-size="10.00" fill="#000000"> #mMetadata</text>
</g>
<!-- Node7 -->
<g id="node5" class="node">
<title>Node7</title>
<g id="a_node5"><a xlink:href="../../d5/d54/structo2_1_1ctf_1_1CTFHeader.html" target="_top" xlink:title="{o2::ctf::CTFHeader\n||+ describe()\l+ print()\l}">
<polygon fill="none" stroke="#000000" points="67,-1355 67,-1423 174,-1423 174,-1355 67,-1355"/>
<text text-anchor="middle" x="120.5" y="-1411" font-family="Helvetica,sans-Serif" font-size="10.00" fill="#000000">o2::ctf::CTFHeader</text>
<polyline fill="none" stroke="#000000" points="67,-1404 174,-1404 "/>
<text text-anchor="middle" x="120.5" y="-1392" font-family="Helvetica,sans-Serif" font-size="10.00" fill="#000000"> </text>
<polyline fill="none" stroke="#000000" points="67,-1385 174,-1385 "/>
<text text-anchor="start" x="75" y="-1373" font-family="Helvetica,sans-Serif" font-size="10.00" fill="#000000">+ describe()</text>
<text text-anchor="start" x="75" y="-1362" font-family="Helvetica,sans-Serif" font-size="10.00" fill="#000000">+ print()</text>
</a>
</g>
</g>
<!-- Node7&#45;&gt;Node4 -->
<g id="edge4" class="edge">
<title>Node7&#45;&gt;Node4</title>
<path fill="none" stroke="#404040" d="M123.1437,-1354.9006C132.7645,-1232.1719 166.2485,-817.199 183.5,-760 201.6284,-699.8936 231.4324,-637.9471 260.9441,-584.8779"/>
<polygon fill="none" stroke="#404040" points="260.9612,-584.8475 260.4128,-577.6573 266.839,-574.3856 267.3874,-581.5758 260.9612,-584.8475"/>
<text text-anchor="middle" x="212" y="-1028.5" font-family="Helvetica,sans-Serif" font-size="10.00" fill="#000000"> #mHeader</text>
</g>
<!-- Node8 -->
<g id="node6" class="node">
<title>Node8</title>
<polygon fill="none" stroke="#bfbfbf" points="52,-1487.5 52,-1544.5 105,-1544.5 105,-1487.5 52,-1487.5"/>
<text text-anchor="middle" x="78.5" y="-1532.5" font-family="Helvetica,sans-Serif" font-size="10.00" fill="#000000">mask_t</text>
<polyline fill="none" stroke="#bfbfbf" points="52,-1525.5 105,-1525.5 "/>
<text text-anchor="middle" x="78.5" y="-1513.5" font-family="Helvetica,sans-Serif" font-size="10.00" fill="#000000"> </text>
<polyline fill="none" stroke="#bfbfbf" points="52,-1506.5 105,-1506.5 "/>
<text text-anchor="middle" x="78.5" y="-1494.5" font-family="Helvetica,sans-Serif" font-size="10.00" fill="#000000"> </text>
</g>
<!-- Node8&#45;&gt;Node7 -->
<g id="edge5" class="edge">
<title>Node8&#45;&gt;Node7</title>
<path fill="none" stroke="#404040" d="M75.1482,-1487.1753C74.633,-1474.56 75.3439,-1459.7582 79.5,-1447 80.983,-1442.4475 82.9594,-1437.9416 85.2453,-1433.5731"/>
<polygon fill="none" stroke="#404040" points="85.3585,-1433.3813 84.9651,-1426.1809 91.4604,-1423.0484 91.8537,-1430.2488 85.3585,-1433.3813"/>
<text text-anchor="middle" x="108.5" y="-1455.5" font-family="Helvetica,sans-Serif" font-size="10.00" fill="#000000"> +detectors</text>
</g>
<!-- Node9 -->
<g id="node7" class="node">
<title>Node9</title>
<polygon fill="none" stroke="#bfbfbf" points="172,-1487.5 172,-1544.5 233,-1544.5 233,-1487.5 172,-1487.5"/>
<text text-anchor="middle" x="202.5" y="-1532.5" font-family="Helvetica,sans-Serif" font-size="10.00" fill="#000000">unsigned</text>
<polyline fill="none" stroke="#bfbfbf" points="172,-1525.5 233,-1525.5 "/>
<text text-anchor="middle" x="202.5" y="-1513.5" font-family="Helvetica,sans-Serif" font-size="10.00" fill="#000000"> </text>
<polyline fill="none" stroke="#bfbfbf" points="172,-1506.5 233,-1506.5 "/>
<text text-anchor="middle" x="202.5" y="-1494.5" font-family="Helvetica,sans-Serif" font-size="10.00" fill="#000000"> </text>
</g>
<!-- Node9&#45;&gt;Node7 -->
<g id="edge6" class="edge">
<title>Node9&#45;&gt;Node7</title>
<path fill="none" stroke="#404040" d="M171.8315,-1487.8197C166.3286,-1481.9216 160.9402,-1475.5076 156.5,-1469 149.2143,-1458.322 142.8026,-1445.9307 137.486,-1434.136"/>
<polygon fill="none" stroke="#404040" points="137.4744,-1434.1089 131.4287,-1430.1783 132.7316,-1423.0859 138.7773,-1427.0164 137.4744,-1434.1089"/>
<text text-anchor="middle" x="188.5" y="-1461" font-family="Helvetica,sans-Serif" font-size="10.00" fill="#000000"> +firstTForbit</text>
<text text-anchor="middle" x="188.5" y="-1450" font-family="Helvetica,sans-Serif" font-size="10.00" fill="#000000">+run</text>
</g>
<!-- Node10 -->
<g id="node8" class="node">
<title>Node10</title>
<g id="a_node8"><a xlink:href="../../dc/dbb/structo2_1_1ctf_1_1ANSHeader.html" target="_top" xlink:title="&gt;&gt;======================== Auxiliary classes =======================&gt;&gt; ">
<polygon fill="none" stroke="#000000" points="192,-1355 192,-1423 301,-1423 301,-1355 192,-1355"/>
<text text-anchor="middle" x="246.5" y="-1411" font-family="Helvetica,sans-Serif" font-size="10.00" fill="#000000">o2::ctf::ANSHeader</text>
<polyline fill="none" stroke="#000000" points="192,-1404 301,-1404 "/>
<text text-anchor="middle" x="246.5" y="-1392" font-family="Helvetica,sans-Serif" font-size="10.00" fill="#000000"> </text>
<polyline fill="none" stroke="#000000" points="192,-1385 301,-1385 "/>
<text text-anchor="start" x="200" y="-1373" font-family="Helvetica,sans-Serif" font-size="10.00" fill="#000000">+ clear()</text>
<text text-anchor="start" x="200" y="-1362" font-family="Helvetica,sans-Serif" font-size="10.00" fill="#000000">+ ClassDefNV()</text>
</a>
</g>
</g>
<!-- Node9&#45;&gt;Node10 -->
<g id="edge8" class="edge">
<title>Node9&#45;&gt;Node10</title>
<path fill="none" stroke="#404040" d="M216.7819,-1487.4951C219.5354,-1481.4673 222.257,-1475.0866 224.5,-1469 228.4871,-1458.1809 232.1317,-1446.3061 235.2582,-1435.0935"/>
<polygon fill="none" stroke="#404040" points="235.3221,-1434.856 233.0179,-1428.0229 238.4392,-1423.2679 240.7433,-1430.101 235.3221,-1434.856"/>
<text text-anchor="middle" x="270.5" y="-1461" font-family="Helvetica,sans-Serif" font-size="10.00" fill="#000000"> +minorVersion</text>
<text text-anchor="middle" x="270.5" y="-1450" font-family="Helvetica,sans-Serif" font-size="10.00" fill="#000000">+majorVersion</text>
</g>
<!-- Node10&#45;&gt;Node4 -->
<g id="edge7" class="edge">
<title>Node10&#45;&gt;Node4</title>
<path fill="none" stroke="#404040" d="M245.3882,-1354.6826C242.84,-1259.6114 239.0836,-984.995 271.5,-760 273.1744,-748.3785 275.0982,-736.5655 277.2205,-724.6672"/>
<polygon fill="none" stroke="#404040" points="277.2424,-724.5476 274.3903,-717.9245 279.407,-712.7445 282.2591,-719.3676 277.2424,-724.5476"/>
<text text-anchor="middle" x="310" y="-1028.5" font-family="Helvetica,sans-Serif" font-size="10.00" fill="#000000"> #mANSHeader</text>
</g>
<!-- Node10&#45;&gt;Node15 -->
<g id="edge17" class="edge">
<title>Node10&#45;&gt;Node15</title>
<path fill="none" stroke="#404040" d="M275.2282,-1354.9597C285.1799,-1343.5896 296.5819,-1331.0155 307.5,-1320 315.9185,-1311.5064 320.5702,-1311.7463 327.5,-1302 335.7032,-1290.4629 343.4669,-1278.2448 350.7902,-1265.6288"/>
<polygon fill="none" stroke="#404040" points="350.927,-1265.3871 350.4016,-1258.1952 356.8382,-1254.944 357.3636,-1262.1359 350.927,-1265.3871"/>
<text text-anchor="middle" x="346" y="-1323" font-family="Helvetica,sans-Serif" font-size="10.00" fill="#000000"> #mANSHeader</text>
</g>
<!-- Node11 -->
<g id="node9" class="node">
<title>Node11</title>
<g id="a_node9"><a xlink:href="../../d0/d1c/structo2_1_1ctf_1_1Registry.html" target="_top" xlink:title="registry struct for the buffer start and offsets of writable space ">
<polygon fill="none" stroke="#000000" points="680.5,-1349.5 680.5,-1428.5 802.5,-1428.5 802.5,-1349.5 680.5,-1349.5"/>
<text text-anchor="middle" x="741.5" y="-1416.5" font-family="Helvetica,sans-Serif" font-size="10.00" fill="#000000">o2::ctf::Registry</text>
<polyline fill="none" stroke="#000000" points="680.5,-1409.5 802.5,-1409.5 "/>
<text text-anchor="middle" x="741.5" y="-1397.5" font-family="Helvetica,sans-Serif" font-size="10.00" fill="#000000"> </text>
<polyline fill="none" stroke="#000000" points="680.5,-1390.5 802.5,-1390.5 "/>
<text text-anchor="start" x="688.5" y="-1378.5" font-family="Helvetica,sans-Serif" font-size="10.00" fill="#000000">+ getFreeBlockStart()</text>
<text text-anchor="start" x="688.5" y="-1367.5" font-family="Helvetica,sans-Serif" font-size="10.00" fill="#000000">+ getFreeSize()</text>
<text text-anchor="start" x="688.5" y="-1356.5" font-family="Helvetica,sans-Serif" font-size="10.00" fill="#000000">+ ClassDefNV()</text>
</a>
</g>
</g>
<!-- Node11&#45;&gt;Node4 -->
<g id="edge9" class="edge">
<title>Node11&#45;&gt;Node4</title>
<path fill="none" stroke="#404040" d="M754.0757,-1349.4526C786.0651,-1240.3563 857.8849,-931.8798 708.5,-760 664.2438,-709.0795 625.9491,-742.6628 559.5,-731 536.7098,-727 478.5322,-729.0512 446.3733,-712.293"/>
<polygon fill="none" stroke="#404040" points="446.1868,-712.1695 438.9757,-712.1891 436.184,-705.5403 443.3951,-705.5206 446.1868,-712.1695"/>
<text text-anchor="middle" x="830" y="-1028.5" font-family="Helvetica,sans-Serif" font-size="10.00" fill="#000000"> #mRegistry</text>
</g>
<!-- Node11&#45;&gt;Node15 -->
<g id="edge18" class="edge">
<title>Node11&#45;&gt;Node15</title>
<path fill="none" stroke="#404040" d="M680.1484,-1353.1354C642.2056,-1330.798 600.0561,-1305.6312 596.5,-1302 572.7534,-1277.7524 551.3501,-1249.1532 532.5646,-1219.7818"/>
<polygon fill="none" stroke="#404040" points="532.4075,-1219.5312 525.8302,-1216.5748 526.0296,-1209.3664 532.6068,-1212.3229 532.4075,-1219.5312"/>
<text text-anchor="middle" x="672" y="-1323" font-family="Helvetica,sans-Serif" font-size="10.00" fill="#000000"> #mRegistry</text>
</g>
<!-- Node12 -->
<g id="node10" class="node">
<title>Node12</title>
<polygon fill="none" stroke="#bfbfbf" points="662.5,-1487.5 662.5,-1544.5 700.5,-1544.5 700.5,-1487.5 662.5,-1487.5"/>
<text text-anchor="middle" x="681.5" y="-1532.5" font-family="Helvetica,sans-Serif" font-size="10.00" fill="#000000">char</text>
<polyline fill="none" stroke="#bfbfbf" points="662.5,-1525.5 700.5,-1525.5 "/>
<text text-anchor="middle" x="681.5" y="-1513.5" font-family="Helvetica,sans-Serif" font-size="10.00" fill="#000000"> </text>
<polyline fill="none" stroke="#bfbfbf" points="662.5,-1506.5 700.5,-1506.5 "/>
<text text-anchor="middle" x="681.5" y="-1494.5" font-family="Helvetica,sans-Serif" font-size="10.00" fill="#000000"> </text>
</g>
<!-- Node12&#45;&gt;Node11 -->
<g id="edge10" class="edge">
<title>Node12&#45;&gt;Node11</title>
<path fill="none" stroke="#404040" d="M687.5954,-1487.3829C690.8549,-1474.6697 695.4595,-1459.7336 701.5,-1447 702.7385,-1444.3891 704.0892,-1441.7661 705.5206,-1439.1555"/>
<polygon fill="none" stroke="#404040" points="705.6782,-1438.8886 705.2851,-1431.6882 711.7804,-1428.556 712.1735,-1435.7564 705.6782,-1438.8886"/>
<text text-anchor="middle" x="719.5" y="-1455.5" font-family="Helvetica,sans-Serif" font-size="10.00" fill="#000000"> +head</text>
</g>
<!-- Node13 -->
<g id="node11" class="node">
<title>Node13</title>
<polygon fill="none" stroke="#bfbfbf" points="719,-1487.5 719,-1544.5 764,-1544.5 764,-1487.5 719,-1487.5"/>
<text text-anchor="middle" x="741.5" y="-1532.5" font-family="Helvetica,sans-Serif" font-size="10.00" fill="#000000">size_t</text>
<polyline fill="none" stroke="#bfbfbf" points="719,-1525.5 764,-1525.5 "/>
<text text-anchor="middle" x="741.5" y="-1513.5" font-family="Helvetica,sans-Serif" font-size="10.00" fill="#000000"> </text>
<polyline fill="none" stroke="#bfbfbf" points="719,-1506.5 764,-1506.5 "/>
<text text-anchor="middle" x="741.5" y="-1494.5" font-family="Helvetica,sans-Serif" font-size="10.00" fill="#000000"> </text>
</g>
<!-- Node13&#45;&gt;Node11 -->
<g id="edge11" class="edge">
<title>Node13&#45;&gt;Node11</title>
<path fill="none" stroke="#404040" d="M741.5,-1487.4987C741.5,-1473.8801 741.5,-1457.1381 741.5,-1441.3462"/>
<polygon fill="none" stroke="#404040" points="741.5001,-1440.963 737.5,-1434.963 741.5,-1428.963 745.5,-1434.963 741.5001,-1440.963"/>
<text text-anchor="middle" x="778" y="-1461" font-family="Helvetica,sans-Serif" font-size="10.00" fill="#000000"> +offsFreeStart</text>
<text text-anchor="middle" x="778" y="-1450" font-family="Helvetica,sans-Serif" font-size="10.00" fill="#000000">+size</text>
</g>
<!-- Node14 -->
<g id="node12" class="node">
<title>Node14</title>
<polygon fill="none" stroke="#bfbfbf" points="823,-1487.5 823,-1544.5 852,-1544.5 852,-1487.5 823,-1487.5"/>
<text text-anchor="middle" x="837.5" y="-1532.5" font-family="Helvetica,sans-Serif" font-size="10.00" fill="#000000">int</text>
<polyline fill="none" stroke="#bfbfbf" points="823,-1525.5 852,-1525.5 "/>
<text text-anchor="middle" x="837.5" y="-1513.5" font-family="Helvetica,sans-Serif" font-size="10.00" fill="#000000"> </text>
<polyline fill="none" stroke="#bfbfbf" points="823,-1506.5 852,-1506.5 "/>
<text text-anchor="middle" x="837.5" y="-1494.5" font-family="Helvetica,sans-Serif" font-size="10.00" fill="#000000"> </text>
</g>
<!-- Node14&#45;&gt;Node11 -->
<g id="edge12" class="edge">
<title>Node14&#45;&gt;Node11</title>
<path fill="none" stroke="#404040" d="M832.4256,-1487.4085C829.1208,-1474.2669 823.8234,-1458.9768 815.5,-1447 813.2177,-1443.716 810.6946,-1440.5293 807.9975,-1437.4515"/>
<polygon fill="none" stroke="#404040" points="807.7649,-1437.2095 800.7236,-1435.6538 799.4514,-1428.5558 806.4927,-1430.1114 807.7649,-1437.2095"/>
<text text-anchor="middle" x="863.5" y="-1455.5" font-family="Helvetica,sans-Serif" font-size="10.00" fill="#000000"> +nFilledBlocks</text>
</g>
<!-- Node15&#45;&gt;Node4 -->
<g id="edge13" class="edge">
<title>Node15&#45;&gt;Node4</title>
<path fill="none" stroke="#ffa500" d="M398.5864,-750.1545C396.67,-737.6126 394.7485,-725.0377 392.836,-712.5209"/>
<polygon fill="#ffa500" stroke="#ffa500" points="395.1516,-750.8474 400.122,-760.204 402.0713,-749.79 395.1516,-750.8474"/>
<text text-anchor="middle" x="468" y="-734" font-family="Helvetica,sans-Serif" font-size="10.00" fill="#000000"> &lt; CTFHeader, 23, uint32_t &gt;</text>
</g>
<!-- Node16 -->
<g id="node14" class="node">
<title>Node16</title>
<polygon fill="none" stroke="#bfbfbf" points="454,-1360.5 454,-1417.5 483,-1417.5 483,-1360.5 454,-1360.5"/>
<text text-anchor="middle" x="468.5" y="-1405.5" font-family="Helvetica,sans-Serif" font-size="10.00" fill="#000000">H</text>
<polyline fill="none" stroke="#bfbfbf" points="454,-1398.5 483,-1398.5 "/>
<text text-anchor="middle" x="468.5" y="-1386.5" font-family="Helvetica,sans-Serif" font-size="10.00" fill="#000000"> </text>
<polyline fill="none" stroke="#bfbfbf" points="454,-1379.5 483,-1379.5 "/>
<text text-anchor="middle" x="468.5" y="-1367.5" font-family="Helvetica,sans-Serif" font-size="10.00" fill="#000000"> </text>
</g>
<!-- Node16&#45;&gt;Node15 -->
<g id="edge15" class="edge">
<title>Node16&#45;&gt;Node15</title>
<path fill="none" stroke="#404040" d="M462.2498,-1360.2072C460.4471,-1350.9248 458.6567,-1340.5643 457.5,-1331 456.8121,-1325.3123 456.1538,-1319.5603 455.5238,-1313.7602"/>
<polygon fill="none" stroke="#404040" points="455.5204,-1313.7266 450.917,-1308.176 454.27,-1301.7919 458.8734,-1307.3424 455.5204,-1313.7266"/>
<text text-anchor="middle" x="486" y="-1323" font-family="Helvetica,sans-Serif" font-size="10.00" fill="#000000"> #mHeader</text>
</g>
<!-- Node17 -->
<g id="node15" class="node">
<title>Node17</title>
<polygon fill="none" stroke="#bfbfbf" points="319,-1355 319,-1423 436,-1423 436,-1355 319,-1355"/>
<text text-anchor="start" x="327" y="-1411" font-family="Helvetica,sans-Serif" font-size="10.00" fill="#000000">array&lt; o2::ctf::Block</text>
<text text-anchor="middle" x="377.5" y="-1400" font-family="Helvetica,sans-Serif" font-size="10.00" fill="#000000">&lt; W &gt;, N &gt;</text>
<polyline fill="none" stroke="#bfbfbf" points="319,-1393 436,-1393 "/>
<text text-anchor="middle" x="377.5" y="-1381" font-family="Helvetica,sans-Serif" font-size="10.00" fill="#000000"> </text>
<polyline fill="none" stroke="#bfbfbf" points="319,-1374 436,-1374 "/>
<text text-anchor="middle" x="377.5" y="-1362" font-family="Helvetica,sans-Serif" font-size="10.00" fill="#000000"> </text>
</g>
<!-- Node17&#45;&gt;Node15 -->
<g id="edge16" class="edge">
<title>Node17&#45;&gt;Node15</title>
<path fill="none" stroke="#404040" d="M383.5787,-1354.9975C385.6424,-1343.4535 388.1395,-1329.4853 390.9236,-1313.9118"/>
<polygon fill="none" stroke="#404040" points="390.9943,-1313.516 388.1126,-1306.9057 393.1061,-1301.7033 395.9878,-1308.3136 390.9943,-1313.516"/>
<text text-anchor="middle" x="417.5" y="-1323" font-family="Helvetica,sans-Serif" font-size="10.00" fill="#000000"> #mBlocks</text>
</g>
<!-- Node18 -->
<g id="node16" class="node">
<title>Node18</title>
<polygon fill="none" stroke="#bfbfbf" points="453.5,-413.5 453.5,-470.5 497.5,-470.5 497.5,-413.5 453.5,-413.5"/>
<text text-anchor="middle" x="475.5" y="-458.5" font-family="Helvetica,sans-Serif" font-size="10.00" fill="#000000">static</text>
<polyline fill="none" stroke="#bfbfbf" points="453.5,-451.5 497.5,-451.5 "/>
<text text-anchor="middle" x="475.5" y="-439.5" font-family="Helvetica,sans-Serif" font-size="10.00" fill="#000000"> </text>
<polyline fill="none" stroke="#bfbfbf" points="453.5,-432.5 497.5,-432.5 "/>
<text text-anchor="middle" x="475.5" y="-420.5" font-family="Helvetica,sans-Serif" font-size="10.00" fill="#000000"> </text>
</g>
<!-- Node18&#45;&gt;Node3 -->
<g id="edge19" class="edge">
<title>Node18&#45;&gt;Node3</title>
<path fill="none" stroke="#404040" d="M473.1846,-413.3859C468.9598,-363.8105 459.0719,-258.8276 444.5,-171 438.7796,-136.5221 430.1749,-97.7859 423.4813,-69.4914"/>
<polygon fill="none" stroke="#404040" points="423.4438,-69.3343 418.1571,-64.43 420.6508,-57.6638 425.9374,-62.5681 423.4438,-69.3343"/>
<text text-anchor="middle" x="488" y="-145" font-family="Helvetica,sans-Serif" font-size="10.00" fill="#000000"> +NBitsRowDiff</text>
<text text-anchor="middle" x="488" y="-134" font-family="Helvetica,sans-Serif" font-size="10.00" fill="#000000">+NBitsSigmaPad</text>
<text text-anchor="middle" x="488" y="-123" font-family="Helvetica,sans-Serif" font-size="10.00" fill="#000000">+N</text>
<text text-anchor="middle" x="488" y="-112" font-family="Helvetica,sans-Serif" font-size="10.00" fill="#000000">+NBitsQMax</text>
<text text-anchor="middle" x="488" y="-101" font-family="Helvetica,sans-Serif" font-size="10.00" fill="#000000">+NBitsSliceLegDiff</text>
<text text-anchor="middle" x="488" y="-90" font-family="Helvetica,sans-Serif" font-size="10.00" fill="#000000">+NBitsQTot</text>
<text text-anchor="middle" x="488" y="-79" font-family="Helvetica,sans-Serif" font-size="10.00" fill="#000000">+NBitsSigmaTime</text>
</g>
</g>
</svg>
