<?xml version="1.0" encoding="UTF-8" standalone="no"?>
<!DOCTYPE svg PUBLIC "-//W3C//DTD SVG 1.1//EN"
 "http://www.w3.org/Graphics/SVG/1.1/DTD/svg11.dtd">
<!-- Generated by graphviz version 2.40.1 (20161225.0304)
 -->
<!-- Title: GuiCallbackContext Pages: 1 -->
<svg width="454pt" height="182pt"
 viewBox="0.00 0.00 454.00 182.00" xmlns="http://www.w3.org/2000/svg" xmlns:xlink="http://www.w3.org/1999/xlink">
<g id="graph0" class="graph" transform="scale(1 1) rotate(0) translate(4 178)">
<title>GuiCallbackContext</title>
<!-- Node1 -->
<g id="node1" class="node">
<title>Node1</title>
<polygon fill="#bfbfbf" stroke="#000000" points="149.5,-.5 149.5,-57.5 262.5,-57.5 262.5,-.5 149.5,-.5"/>
<text text-anchor="middle" x="206" y="-45.5" font-family="Helvetica,sans-Serif" font-size="10.00" fill="#000000">GuiCallbackContext</text>
<polyline fill="none" stroke="#000000" points="149.5,-38.5 262.5,-38.5 "/>
<text text-anchor="middle" x="206" y="-26.5" font-family="Helvetica,sans-Serif" font-size="10.00" fill="#000000"> </text>
<polyline fill="none" stroke="#000000" points="149.5,-19.5 262.5,-19.5 "/>
<text text-anchor="middle" x="206" y="-7.5" font-family="Helvetica,sans-Serif" font-size="10.00" fill="#000000"> </text>
</g>
<!-- Node2 -->
<g id="node2" class="node">
<title>Node2</title>
<g id="a_node2"><a xlink:href="../../d4/dc3/classfloat.html" target="_top" xlink:title="{float\n||}">
<polygon fill="none" stroke="#000000" points="0,-116.5 0,-173.5 38,-173.5 38,-116.5 0,-116.5"/>
<text text-anchor="middle" x="19" y="-161.5" font-family="Helvetica,sans-Serif" font-size="10.00" fill="#000000">float</text>
<polyline fill="none" stroke="#000000" points="0,-154.5 38,-154.5 "/>
<text text-anchor="middle" x="19" y="-142.5" font-family="Helvetica,sans-Serif" font-size="10.00" fill="#000000"> </text>
<polyline fill="none" stroke="#000000" points="0,-135.5 38,-135.5 "/>
<text text-anchor="middle" x="19" y="-123.5" font-family="Helvetica,sans-Serif" font-size="10.00" fill="#000000"> </text>
</a>
</g>
</g>
<!-- Node2&#45;&gt;Node1 -->
<g id="edge1" class="edge">
<title>Node2&#45;&gt;Node1</title>
<path fill="none" stroke="#404040" d="M28.4431,-116.4188C34.3678,-102.4716 43.3268,-86.4834 56,-76 78.9883,-56.9838 109.6972,-45.6379 137.3405,-38.8791"/>
<polygon fill="none" stroke="#404040" points="137.6692,-38.8052 142.6444,-33.5852 149.3763,-36.1699 144.4012,-41.3899 137.6692,-38.8052"/>
<text text-anchor="middle" x="94" y="-90" font-family="Helvetica,sans-Serif" font-size="10.00" fill="#000000"> +frameCost</text>
<text text-anchor="middle" x="94" y="-79" font-family="Helvetica,sans-Serif" font-size="10.00" fill="#000000">+frameLatency</text>
</g>
<!-- Node3 -->
<g id="node3" class="node">
<title>Node3</title>
<polygon fill="none" stroke="#bfbfbf" points="56.5,-116.5 56.5,-173.5 181.5,-173.5 181.5,-116.5 56.5,-116.5"/>
<text text-anchor="middle" x="119" y="-161.5" font-family="Helvetica,sans-Serif" font-size="10.00" fill="#000000">function&lt; void(void)&gt;</text>
<polyline fill="none" stroke="#bfbfbf" points="56.5,-154.5 181.5,-154.5 "/>
<text text-anchor="middle" x="119" y="-142.5" font-family="Helvetica,sans-Serif" font-size="10.00" fill="#000000"> </text>
<polyline fill="none" stroke="#bfbfbf" points="56.5,-135.5 181.5,-135.5 "/>
<text text-anchor="middle" x="119" y="-123.5" font-family="Helvetica,sans-Serif" font-size="10.00" fill="#000000"> </text>
</g>
<!-- Node3&#45;&gt;Node1 -->
<g id="edge2" class="edge">
<title>Node3&#45;&gt;Node1</title>
<path fill="none" stroke="#404040" d="M128.0507,-116.181C132.9886,-103.1402 139.9606,-87.9977 149,-76 151.547,-72.6195 154.3845,-69.3295 157.3953,-66.1629"/>
<polygon fill="none" stroke="#404040" points="157.6229,-65.9424 159.1492,-58.8946 166.2418,-57.5927 164.7156,-64.6405 157.6229,-65.9424"/>
<text text-anchor="middle" x="175" y="-84.5" font-family="Helvetica,sans-Serif" font-size="10.00" fill="#000000"> +callback</text>
</g>
<!-- Node4 -->
<g id="node4" class="node">
<title>Node4</title>
<polygon fill="none" stroke="#bfbfbf" points="200,-116.5 200,-173.5 238,-173.5 238,-116.5 200,-116.5"/>
<text text-anchor="middle" x="219" y="-161.5" font-family="Helvetica,sans-Serif" font-size="10.00" fill="#000000">bool</text>
<polyline fill="none" stroke="#bfbfbf" points="200,-154.5 238,-154.5 "/>
<text text-anchor="middle" x="219" y="-142.5" font-family="Helvetica,sans-Serif" font-size="10.00" fill="#000000"> </text>
<polyline fill="none" stroke="#bfbfbf" points="200,-135.5 238,-135.5 "/>
<text text-anchor="middle" x="219" y="-123.5" font-family="Helvetica,sans-Serif" font-size="10.00" fill="#000000"> </text>
</g>
<!-- Node4&#45;&gt;Node1 -->
<g id="edge3" class="edge">
<title>Node4&#45;&gt;Node1</title>
<path fill="none" stroke="#404040" d="M210.5527,-116.3772C209.0985,-110.3579 207.7995,-104.0105 207,-98 205.7946,-88.9373 205.2189,-79.1462 205.0047,-69.8664"/>
<polygon fill="none" stroke="#404040" points="205.0031,-69.6451 200.9574,-63.6759 204.9115,-57.6455 208.9572,-63.6148 205.0031,-69.6451"/>
<text text-anchor="middle" x="256" y="-84.5" font-family="Helvetica,sans-Serif" font-size="10.00" fill="#000000"> +guiQuitRequested</text>
</g>
<!-- Node5 -->
<g id="node5" class="node">
<title>Node5</title>
<polygon fill="none" stroke="#bfbfbf" points="296.5,-116.5 296.5,-173.5 357.5,-173.5 357.5,-116.5 296.5,-116.5"/>
<text text-anchor="middle" x="327" y="-161.5" font-family="Helvetica,sans-Serif" font-size="10.00" fill="#000000">unsigned</text>
<polyline fill="none" stroke="#bfbfbf" points="296.5,-154.5 357.5,-154.5 "/>
<text text-anchor="middle" x="327" y="-142.5" font-family="Helvetica,sans-Serif" font-size="10.00" fill="#000000"> </text>
<polyline fill="none" stroke="#bfbfbf" points="296.5,-135.5 357.5,-135.5 "/>
<text text-anchor="middle" x="327" y="-123.5" font-family="Helvetica,sans-Serif" font-size="10.00" fill="#000000"> </text>
</g>
<!-- Node5&#45;&gt;Node1 -->
<g id="edge4" class="edge">
<title>Node5&#45;&gt;Node1</title>
<path fill="none" stroke="#404040" d="M323.2236,-116.2053C320.1986,-102.7056 314.7618,-87.1727 305,-76 296.3741,-66.1273 285.2192,-58.1643 273.5218,-51.7981"/>
<polygon fill="none" stroke="#404040" points="273.4218,-51.7483 266.2672,-52.6493 262.6837,-46.3916 269.8383,-45.4906 273.4218,-51.7483"/>
<text text-anchor="middle" x="347.5" y="-84.5" font-family="Helvetica,sans-Serif" font-size="10.00" fill="#000000"> +frameLast</text>
</g>
<!-- Node6 -->
<g id="node6" class="node">
<title>Node6</title>
<polygon fill="none" stroke="#bfbfbf" points="388,-116.5 388,-173.5 434,-173.5 434,-116.5 388,-116.5"/>
<text text-anchor="middle" x="411" y="-161.5" font-family="Helvetica,sans-Serif" font-size="10.00" fill="#000000">void *</text>
<polyline fill="none" stroke="#bfbfbf" points="388,-154.5 434,-154.5 "/>
<text text-anchor="middle" x="411" y="-142.5" font-family="Helvetica,sans-Serif" font-size="10.00" fill="#000000"> </text>
<polyline fill="none" stroke="#bfbfbf" points="388,-135.5 434,-135.5 "/>
<text text-anchor="middle" x="411" y="-123.5" font-family="Helvetica,sans-Serif" font-size="10.00" fill="#000000"> </text>
</g>
<!-- Node6&#45;&gt;Node1 -->
<g id="edge5" class="edge">
<title>Node6&#45;&gt;Node1</title>
<path fill="none" stroke="#404040" d="M405.1998,-116.2918C400.9792,-102.3111 393.8523,-86.3313 382,-76 365.7455,-61.8315 316.8717,-49.4219 274.7402,-40.9173"/>
<polygon fill="none" stroke="#404040" points="274.5591,-40.8818 267.9007,-43.6507 262.7839,-38.5695 269.4423,-35.8006 274.5591,-40.8818"/>
<text text-anchor="middle" x="421.5" y="-84.5" font-family="Helvetica,sans-Serif" font-size="10.00" fill="#000000"> +window</text>
</g>
</g>
</svg>
