<?xml version="1.0" encoding="UTF-8" standalone="no"?>
<!DOCTYPE svg PUBLIC "-//W3C//DTD SVG 1.1//EN"
 "http://www.w3.org/Graphics/SVG/1.1/DTD/svg11.dtd">
<!-- Generated by graphviz version 2.40.1 (20161225.0304)
 -->
<!-- Title: /home/travis/build/AliceO2Group/AliceO2/Detectors/ITSMFT/common/reconstruction/src/PixelData.cxx Pages: 1 -->
<svg width="2060pt" height="329pt"
 viewBox="0.00 0.00 2060.00 329.00" xmlns="http://www.w3.org/2000/svg" xmlns:xlink="http://www.w3.org/1999/xlink">
<g id="graph0" class="graph" transform="scale(1 1) rotate(0) translate(4 325)">
<title>/home/travis/build/AliceO2Group/AliceO2/Detectors/ITSMFT/common/reconstruction/src/PixelData.cxx</title>
<!-- Node0 -->
<g id="node1" class="node">
<title>Node0</title>
<polygon fill="#bfbfbf" stroke="#000000" points="660,-268.5 660,-320.5 837,-320.5 837,-268.5 660,-268.5"/>
<text text-anchor="start" x="668" y="-308.5" font-family="Helvetica,sans-Serif" font-size="10.00" fill="#000000">/home/travis/build</text>
<text text-anchor="start" x="668" y="-297.5" font-family="Helvetica,sans-Serif" font-size="10.00" fill="#000000">/AliceO2Group/AliceO2</text>
<text text-anchor="start" x="668" y="-286.5" font-family="Helvetica,sans-Serif" font-size="10.00" fill="#000000">/Detectors/ITSMFT/common</text>
<text text-anchor="middle" x="748.5" y="-275.5" font-family="Helvetica,sans-Serif" font-size="10.00" fill="#000000">/reconstruction/src/PixelData.cxx</text>
</g>
<!-- Node1 -->
<g id="node2" class="node">
<title>Node1</title>
<g id="a_node2"><a xlink:href="../../da/d8d/PixelData_8h.html" target="_top" xlink:title="Transient data classes for single pixel and set of pixels from current chip. ">
<polygon fill="none" stroke="#000000" points="340,-201.5 340,-231.5 463,-231.5 463,-201.5 340,-201.5"/>
<text text-anchor="start" x="348" y="-219.5" font-family="Helvetica,sans-Serif" font-size="10.00" fill="#000000">ITSMFTReconstruction</text>
<text text-anchor="middle" x="401.5" y="-208.5" font-family="Helvetica,sans-Serif" font-size="10.00" fill="#000000">/PixelData.h</text>
</a>
</g>
</g>
<!-- Node0&#45;&gt;Node1 -->
<g id="edge1" class="edge">
<title>Node0&#45;&gt;Node1</title>
<path fill="none" stroke="#191970" d="M659.5895,-274.5144C601.6495,-261.4904 527.0463,-244.7208 472.9626,-232.5636"/>
<polygon fill="#191970" stroke="#191970" points="473.6356,-229.1277 463.1114,-230.3493 472.1004,-235.9572 473.6356,-229.1277"/>
</g>
<!-- Node13 -->
<g id="node14" class="node">
<title>Node13</title>
<g id="a_node14"><a xlink:href="../../d3/dba/SegmentationAlpide_8h.html" target="_top" xlink:title="Definition of the SegmentationAlpide class. ">
<polygon fill="none" stroke="#000000" points="587.5,-207 587.5,-226 773.5,-226 773.5,-207 587.5,-207"/>
<text text-anchor="middle" x="680.5" y="-214" font-family="Helvetica,sans-Serif" font-size="10.00" fill="#000000">ITSMFTBase/SegmentationAlpide.h</text>
</a>
</g>
</g>
<!-- Node0&#45;&gt;Node13 -->
<g id="edge15" class="edge">
<title>Node0&#45;&gt;Node13</title>
<path fill="none" stroke="#191970" d="M725.4783,-268.0928C715.605,-256.7675 704.3481,-243.8552 695.5657,-233.7812"/>
<polygon fill="#191970" stroke="#191970" points="698.0648,-231.3216 688.8552,-226.0839 692.7883,-235.9216 698.0648,-231.3216"/>
</g>
<!-- Node24 -->
<g id="node25" class="node">
<title>Node24</title>
<polygon fill="none" stroke="#bfbfbf" points="791.5,-207 791.5,-226 843.5,-226 843.5,-207 791.5,-207"/>
<text text-anchor="middle" x="817.5" y="-214" font-family="Helvetica,sans-Serif" font-size="10.00" fill="#000000">cassert</text>
</g>
<!-- Node0&#45;&gt;Node24 -->
<g id="edge29" class="edge">
<title>Node0&#45;&gt;Node24</title>
<path fill="none" stroke="#191970" d="M771.8603,-268.0928C781.8787,-256.7675 793.3012,-243.8552 802.2128,-233.7812"/>
<polygon fill="#191970" stroke="#191970" points="805.0177,-235.8929 809.022,-226.0839 799.7747,-231.2548 805.0177,-235.8929"/>
</g>
<!-- Node25 -->
<g id="node26" class="node">
<title>Node25</title>
<polygon fill="none" stroke="#bfbfbf" points="861.5,-207 861.5,-226 905.5,-226 905.5,-207 861.5,-207"/>
<text text-anchor="middle" x="883.5" y="-214" font-family="Helvetica,sans-Serif" font-size="10.00" fill="#000000">bitset</text>
</g>
<!-- Node0&#45;&gt;Node25 -->
<g id="edge30" class="edge">
<title>Node0&#45;&gt;Node25</title>
<path fill="none" stroke="#191970" d="M793.8286,-268.3101C815.2238,-255.9485 839.9621,-241.6552 858.0287,-231.2167"/>
<polygon fill="#191970" stroke="#191970" points="859.9075,-234.1735 866.8152,-226.1401 856.4055,-228.1124 859.9075,-234.1735"/>
</g>
<!-- Node2 -->
<g id="node3" class="node">
<title>Node2</title>
<g id="a_node3"><a xlink:href="../../d3/d1e/DataFormats_2Detectors_2ITSMFT_2common_2include_2DataFormatsITSMFT_2Digit_8h.html" target="_top" xlink:title="DataFormatsITSMFT/Digit.h">
<polygon fill="none" stroke="#000000" points="0,-140 0,-159 149,-159 149,-140 0,-140"/>
<text text-anchor="middle" x="74.5" y="-147" font-family="Helvetica,sans-Serif" font-size="10.00" fill="#000000">DataFormatsITSMFT/Digit.h</text>
</a>
</g>
</g>
<!-- Node1&#45;&gt;Node2 -->
<g id="edge2" class="edge">
<title>Node1&#45;&gt;Node2</title>
<path fill="none" stroke="#191970" d="M339.9938,-203.8978C279.9559,-191.5965 189.3683,-173.0357 131.0759,-161.092"/>
<polygon fill="#191970" stroke="#191970" points="131.4379,-157.5935 120.9389,-159.015 130.0328,-164.4511 131.4379,-157.5935"/>
</g>
<!-- Node5 -->
<g id="node6" class="node">
<title>Node5</title>
<g id="a_node6"><a xlink:href="../../d9/d80/InteractionRecord_8h.html" target="_top" xlink:title="CommonDataFormat/Interaction\lRecord.h">
<polygon fill="none" stroke="#000000" points="249.5,-134.5 249.5,-164.5 423.5,-164.5 423.5,-134.5 249.5,-134.5"/>
<text text-anchor="start" x="257.5" y="-152.5" font-family="Helvetica,sans-Serif" font-size="10.00" fill="#000000">CommonDataFormat/Interaction</text>
<text text-anchor="middle" x="336.5" y="-141.5" font-family="Helvetica,sans-Serif" font-size="10.00" fill="#000000">Record.h</text>
</a>
</g>
</g>
<!-- Node1&#45;&gt;Node5 -->
<g id="edge5" class="edge">
<title>Node1&#45;&gt;Node5</title>
<path fill="none" stroke="#191970" d="M386.7505,-201.2967C378.3567,-192.6446 367.6843,-181.6438 358.3358,-172.0076"/>
<polygon fill="#191970" stroke="#191970" points="360.6664,-169.3835 351.1911,-164.6432 355.6422,-174.2577 360.6664,-169.3835"/>
</g>
<!-- Node8 -->
<g id="node9" class="node">
<title>Node8</title>
<polygon fill="none" stroke="#bfbfbf" points="117.5,-73 117.5,-92 167.5,-92 167.5,-73 117.5,-73"/>
<text text-anchor="middle" x="142.5" y="-80" font-family="Helvetica,sans-Serif" font-size="10.00" fill="#000000">cstdint</text>
</g>
<!-- Node1&#45;&gt;Node8 -->
<g id="edge14" class="edge">
<title>Node1&#45;&gt;Node8</title>
<path fill="none" stroke="#191970" d="M339.9489,-202.8599C308.9393,-194.5105 271.4542,-182.0983 240.5,-165 208.2797,-147.2024 176.759,-117.9342 158.5008,-99.4662"/>
<polygon fill="#191970" stroke="#191970" points="160.7818,-96.7908 151.3072,-92.0492 155.7569,-101.6643 160.7818,-96.7908"/>
</g>
<!-- Node11 -->
<g id="node12" class="node">
<title>Node11</title>
<polygon fill="none" stroke="#bfbfbf" points="442,-140 442,-159 489,-159 489,-140 442,-140"/>
<text text-anchor="middle" x="465.5" y="-147" font-family="Helvetica,sans-Serif" font-size="10.00" fill="#000000">vector</text>
</g>
<!-- Node1&#45;&gt;Node11 -->
<g id="edge12" class="edge">
<title>Node1&#45;&gt;Node11</title>
<path fill="none" stroke="#191970" d="M416.0226,-201.2967C425.8973,-190.9591 438.9749,-177.2684 449.2051,-166.5588"/>
<polygon fill="#191970" stroke="#191970" points="451.9964,-168.7037 456.3729,-159.055 446.9346,-163.8685 451.9964,-168.7037"/>
</g>
<!-- Node12 -->
<g id="node13" class="node">
<title>Node12</title>
<polygon fill="none" stroke="#bfbfbf" points="507,-140 507,-159 552,-159 552,-140 507,-140"/>
<text text-anchor="middle" x="529.5" y="-147" font-family="Helvetica,sans-Serif" font-size="10.00" fill="#000000">utility</text>
</g>
<!-- Node1&#45;&gt;Node12 -->
<g id="edge13" class="edge">
<title>Node1&#45;&gt;Node12</title>
<path fill="none" stroke="#191970" d="M430.2257,-201.4639C451.7025,-190.2222 480.8862,-174.9463 502.0495,-163.8686"/>
<polygon fill="#191970" stroke="#191970" points="503.9157,-166.8423 511.1522,-159.1039 500.6694,-160.6406 503.9157,-166.8423"/>
</g>
<!-- Node3 -->
<g id="node4" class="node">
<title>Node3</title>
<polygon fill="none" stroke="#bfbfbf" points="435,-6 435,-25 494,-25 494,-6 435,-6"/>
<text text-anchor="middle" x="464.5" y="-13" font-family="Helvetica,sans-Serif" font-size="10.00" fill="#000000">Rtypes.h</text>
</g>
<!-- Node2&#45;&gt;Node3 -->
<g id="edge3" class="edge">
<title>Node2&#45;&gt;Node3</title>
<path fill="none" stroke="#191970" d="M64.4898,-139.744C48.5767,-123.0741 21.1875,-88.8001 40.5,-67 65.7885,-38.454 324.2365,-22.53 424.7831,-17.376"/>
<polygon fill="#191970" stroke="#191970" points="425.036,-20.8678 434.8473,-16.8692 424.6839,-13.8767 425.036,-20.8678"/>
</g>
<!-- Node4 -->
<g id="node5" class="node">
<title>Node4</title>
<polygon fill="none" stroke="#bfbfbf" points="49.5,-73 49.5,-92 99.5,-92 99.5,-73 49.5,-73"/>
<text text-anchor="middle" x="74.5" y="-80" font-family="Helvetica,sans-Serif" font-size="10.00" fill="#000000">climits</text>
</g>
<!-- Node2&#45;&gt;Node4 -->
<g id="edge4" class="edge">
<title>Node2&#45;&gt;Node4</title>
<path fill="none" stroke="#191970" d="M74.5,-139.9005C74.5,-130.149 74.5,-114.7597 74.5,-102.3695"/>
<polygon fill="#191970" stroke="#191970" points="78.0001,-102.0816 74.5,-92.0817 71.0001,-102.0817 78.0001,-102.0816"/>
</g>
<!-- Node6 -->
<g id="node7" class="node">
<title>Node6</title>
<g id="a_node7"><a xlink:href="../../d2/d45/GPUCommonRtypes_8h.html" target="_top" xlink:title="GPUCommonRtypes.h">
<polygon fill="none" stroke="#000000" points="186,-73 186,-92 311,-92 311,-73 186,-73"/>
<text text-anchor="middle" x="248.5" y="-80" font-family="Helvetica,sans-Serif" font-size="10.00" fill="#000000">GPUCommonRtypes.h</text>
</a>
</g>
</g>
<!-- Node5&#45;&gt;Node6 -->
<g id="edge6" class="edge">
<title>Node5&#45;&gt;Node6</title>
<path fill="none" stroke="#191970" d="M316.5314,-134.2967C302.4213,-123.5537 283.5549,-109.1895 269.2692,-98.3129"/>
<polygon fill="#191970" stroke="#191970" points="271.1264,-95.328 261.0498,-92.055 266.886,-100.8975 271.1264,-95.328"/>
</g>
<!-- Node7 -->
<g id="node8" class="node">
<title>Node7</title>
<polygon fill="none" stroke="#bfbfbf" points="603,-73 603,-92 652,-92 652,-73 603,-73"/>
<text text-anchor="middle" x="627.5" y="-80" font-family="Helvetica,sans-Serif" font-size="10.00" fill="#000000">iosfwd</text>
</g>
<!-- Node5&#45;&gt;Node7 -->
<g id="edge8" class="edge">
<title>Node5&#45;&gt;Node7</title>
<path fill="none" stroke="#191970" d="M422.4879,-134.4583C484.3679,-123.22 562.2175,-108.1157 593.5,-98 595.3518,-97.4012 597.2364,-96.7299 599.1209,-96.0113"/>
<polygon fill="#191970" stroke="#191970" points="600.5091,-99.2245 608.3877,-92.1408 597.8113,-92.7653 600.5091,-99.2245"/>
</g>
<!-- Node5&#45;&gt;Node8 -->
<g id="edge9" class="edge">
<title>Node5&#45;&gt;Node8</title>
<path fill="none" stroke="#191970" d="M285.5493,-134.4714C254.1206,-124.8384 213.1416,-111.6222 177.5,-98 175.8783,-97.3802 174.223,-96.7254 172.558,-96.0493"/>
<polygon fill="#191970" stroke="#191970" points="173.6535,-92.7125 163.0802,-92.0385 170.9255,-99.1591 173.6535,-92.7125"/>
</g>
<!-- Node9 -->
<g id="node10" class="node">
<title>Node9</title>
<polygon fill="none" stroke="#bfbfbf" points="329,-73 329,-92 376,-92 376,-73 329,-73"/>
<text text-anchor="middle" x="352.5" y="-80" font-family="Helvetica,sans-Serif" font-size="10.00" fill="#000000">cmath</text>
</g>
<!-- Node5&#45;&gt;Node9 -->
<g id="edge10" class="edge">
<title>Node5&#45;&gt;Node9</title>
<path fill="none" stroke="#191970" d="M340.1306,-134.2967C342.4299,-124.6685 345.4238,-112.1318 347.8901,-101.8038"/>
<polygon fill="#191970" stroke="#191970" points="351.2997,-102.5945 350.2182,-92.055 344.4911,-100.9685 351.2997,-102.5945"/>
</g>
<!-- Node10 -->
<g id="node11" class="node">
<title>Node10</title>
<g id="a_node11"><a xlink:href="../../d4/dc6/LHCConstants_8h.html" target="_top" xlink:title="Header to collect LHC related constants. ">
<polygon fill="none" stroke="#000000" points="394.5,-73 394.5,-92 584.5,-92 584.5,-73 394.5,-73"/>
<text text-anchor="middle" x="489.5" y="-80" font-family="Helvetica,sans-Serif" font-size="10.00" fill="#000000">CommonConstants/LHCConstants.h</text>
</a>
</g>
</g>
<!-- Node5&#45;&gt;Node10 -->
<g id="edge11" class="edge">
<title>Node5&#45;&gt;Node10</title>
<path fill="none" stroke="#191970" d="M370.8362,-134.4639C397.0858,-122.969 432.9674,-107.2561 458.3825,-96.1266"/>
<polygon fill="#191970" stroke="#191970" points="459.8124,-99.3214 467.5687,-92.1039 457.0045,-92.9092 459.8124,-99.3214"/>
</g>
<!-- Node6&#45;&gt;Node3 -->
<g id="edge7" class="edge">
<title>Node6&#45;&gt;Node3</title>
<path fill="none" stroke="#191970" d="M279.4475,-72.9005C317.8935,-60.9751 383.5218,-40.6182 425.407,-27.6261"/>
<polygon fill="#191970" stroke="#191970" points="426.4825,-30.9571 434.9966,-24.6515 424.4086,-24.2713 426.4825,-30.9571"/>
</g>
<!-- Node13&#45;&gt;Node3 -->
<g id="edge16" class="edge">
<title>Node13&#45;&gt;Node3</title>
<path fill="none" stroke="#191970" d="M682.6066,-206.6375C687.6052,-180.3233 697.2422,-107.6899 661.5,-67 640.9834,-43.6434 555.669,-28.0713 504.2789,-20.6122"/>
<polygon fill="#191970" stroke="#191970" points="504.5638,-17.1178 494.1729,-19.1861 503.5857,-24.0491 504.5638,-17.1178"/>
</g>
<!-- Node14 -->
<g id="node15" class="node">
<title>Node14</title>
<g id="a_node15"><a xlink:href="../../dd/d76/Cartesian3D_8h.html" target="_top" xlink:title="MathUtils/Cartesian3D.h">
<polygon fill="none" stroke="#000000" points="1052,-140 1052,-159 1187,-159 1187,-140 1052,-140"/>
<text text-anchor="middle" x="1119.5" y="-147" font-family="Helvetica,sans-Serif" font-size="10.00" fill="#000000">MathUtils/Cartesian3D.h</text>
</a>
</g>
</g>
<!-- Node13&#45;&gt;Node14 -->
<g id="edge17" class="edge">
<title>Node13&#45;&gt;Node14</title>
<path fill="none" stroke="#191970" d="M742.9318,-206.9717C823.1157,-194.7341 962.0239,-173.5339 1046.8585,-160.5865"/>
<polygon fill="#191970" stroke="#191970" points="1047.5711,-164.0184 1056.9286,-159.0496 1046.515,-157.0985 1047.5711,-164.0184"/>
</g>
<!-- Node14&#45;&gt;Node3 -->
<g id="edge23" class="edge">
<title>Node14&#45;&gt;Node3</title>
<path fill="none" stroke="#191970" d="M1051.7116,-144.3445C957.7306,-136.52 793.1355,-120.1778 737.5,-98 715.615,-89.276 715.9885,-76.6596 694.5,-67 631.3503,-38.6127 551.2016,-25.2526 504.1121,-19.4563"/>
<polygon fill="#191970" stroke="#191970" points="504.3576,-15.9611 494.0169,-18.2677 503.539,-22.9131 504.3576,-15.9611"/>
</g>
<!-- Node14&#45;&gt;Node7 -->
<g id="edge25" class="edge">
<title>Node14&#45;&gt;Node7</title>
<path fill="none" stroke="#191970" d="M1051.7089,-142.6698C969.3574,-134.0081 826.3249,-117.7919 704.5,-98 690.587,-95.7397 675.3558,-92.7776 662.1391,-90.049"/>
<polygon fill="#191970" stroke="#191970" points="662.5408,-86.5572 652.0352,-87.9287 661.1031,-93.408 662.5408,-86.5572"/>
</g>
<!-- Node15 -->
<g id="node16" class="node">
<title>Node15</title>
<polygon fill="none" stroke="#bfbfbf" points="746.5,-67.5 746.5,-97.5 910.5,-97.5 910.5,-67.5 746.5,-67.5"/>
<text text-anchor="start" x="754.5" y="-85.5" font-family="Helvetica,sans-Serif" font-size="10.00" fill="#000000">Math/GenVector/Displacement</text>
<text text-anchor="middle" x="828.5" y="-74.5" font-family="Helvetica,sans-Serif" font-size="10.00" fill="#000000">Vector3D.h</text>
</g>
<!-- Node14&#45;&gt;Node15 -->
<g id="edge18" class="edge">
<title>Node14&#45;&gt;Node15</title>
<path fill="none" stroke="#191970" d="M1078.1158,-139.9717C1032.8198,-129.5427 959.2532,-112.6047 903.6927,-99.8124"/>
<polygon fill="#191970" stroke="#191970" points="904.42,-96.3884 893.8896,-97.5553 902.8494,-103.2099 904.42,-96.3884"/>
</g>
<!-- Node16 -->
<g id="node17" class="node">
<title>Node16</title>
<polygon fill="none" stroke="#bfbfbf" points="929,-73 929,-92 1118,-92 1118,-73 929,-73"/>
<text text-anchor="middle" x="1023.5" y="-80" font-family="Helvetica,sans-Serif" font-size="10.00" fill="#000000">Math/GenVector/PositionVector3D.h</text>
</g>
<!-- Node14&#45;&gt;Node16 -->
<g id="edge19" class="edge">
<title>Node14&#45;&gt;Node16</title>
<path fill="none" stroke="#191970" d="M1105.7455,-139.9005C1090.0623,-128.9549 1064.2017,-110.9064 1045.6642,-97.9688"/>
<polygon fill="#191970" stroke="#191970" points="1047.4324,-94.9347 1037.2289,-92.0817 1043.4262,-100.675 1047.4324,-94.9347"/>
</g>
<!-- Node17 -->
<g id="node18" class="node">
<title>Node17</title>
<polygon fill="none" stroke="#bfbfbf" points="1136.5,-73 1136.5,-92 1296.5,-92 1296.5,-73 1136.5,-73"/>
<text text-anchor="middle" x="1216.5" y="-80" font-family="Helvetica,sans-Serif" font-size="10.00" fill="#000000">Math/GenVector/Rotation3D.h</text>
</g>
<!-- Node14&#45;&gt;Node17 -->
<g id="edge20" class="edge">
<title>Node14&#45;&gt;Node17</title>
<path fill="none" stroke="#191970" d="M1133.3977,-139.9005C1149.3164,-128.9052 1175.6121,-110.7422 1194.3599,-97.7927"/>
<polygon fill="#191970" stroke="#191970" points="1196.3892,-100.6448 1202.628,-92.0817 1192.4108,-94.8852 1196.3892,-100.6448"/>
</g>
<!-- Node18 -->
<g id="node19" class="node">
<title>Node18</title>
<polygon fill="none" stroke="#bfbfbf" points="1314.5,-73 1314.5,-92 1482.5,-92 1482.5,-73 1314.5,-73"/>
<text text-anchor="middle" x="1398.5" y="-80" font-family="Helvetica,sans-Serif" font-size="10.00" fill="#000000">Math/GenVector/Transform3D.h</text>
</g>
<!-- Node14&#45;&gt;Node18 -->
<g id="edge21" class="edge">
<title>Node14&#45;&gt;Node18</title>
<path fill="none" stroke="#191970" d="M1159.1776,-139.9717C1209.0307,-127.9998 1294.602,-107.4504 1348.7736,-94.4415"/>
<polygon fill="#191970" stroke="#191970" points="1349.6013,-97.8423 1358.5076,-92.1039 1347.9667,-91.0358 1349.6013,-97.8423"/>
</g>
<!-- Node19 -->
<g id="node20" class="node">
<title>Node19</title>
<polygon fill="none" stroke="#bfbfbf" points="1501,-73 1501,-92 1674,-92 1674,-73 1501,-73"/>
<text text-anchor="middle" x="1587.5" y="-80" font-family="Helvetica,sans-Serif" font-size="10.00" fill="#000000">Math/GenVector/Translation3D.h</text>
</g>
<!-- Node14&#45;&gt;Node19 -->
<g id="edge22" class="edge">
<title>Node14&#45;&gt;Node19</title>
<path fill="none" stroke="#191970" d="M1187.1075,-140.6056C1261.7022,-130.6835 1385.2715,-113.9269 1491.5,-98 1500.7317,-96.6159 1510.4539,-95.1066 1520.0243,-93.5908"/>
<polygon fill="#191970" stroke="#191970" points="1520.5914,-97.0446 1529.9156,-92.0137 1519.4892,-90.132 1520.5914,-97.0446"/>
</g>
<!-- Node20 -->
<g id="node21" class="node">
<title>Node20</title>
<polygon fill="none" stroke="#bfbfbf" points="1692.5,-73 1692.5,-92 1774.5,-92 1774.5,-73 1692.5,-73"/>
<text text-anchor="middle" x="1733.5" y="-80" font-family="Helvetica,sans-Serif" font-size="10.00" fill="#000000">TGeoMatrix.h</text>
</g>
<!-- Node14&#45;&gt;Node20 -->
<g id="edge24" class="edge">
<title>Node14&#45;&gt;Node20</title>
<path fill="none" stroke="#191970" d="M1187.0012,-147.8953C1293.4778,-144.3458 1506.524,-133.1076 1683.5,-98 1687.712,-97.1644 1692.0726,-96.1093 1696.3833,-94.9441"/>
<polygon fill="#191970" stroke="#191970" points="1697.6304,-98.2266 1706.2578,-92.077 1695.6785,-91.5042 1697.6304,-98.2266"/>
</g>
<!-- Node21 -->
<g id="node22" class="node">
<title>Node21</title>
<g id="a_node22"><a xlink:href="../../d2/dd0/Cartesian2D_8h.html" target="_top" xlink:title="MathUtils/Cartesian2D.h">
<polygon fill="none" stroke="#000000" points="1793,-73 1793,-92 1928,-92 1928,-73 1793,-73"/>
<text text-anchor="middle" x="1860.5" y="-80" font-family="Helvetica,sans-Serif" font-size="10.00" fill="#000000">MathUtils/Cartesian2D.h</text>
</a>
</g>
</g>
<!-- Node14&#45;&gt;Node21 -->
<g id="edge26" class="edge">
<title>Node14&#45;&gt;Node21</title>
<path fill="none" stroke="#191970" d="M1187.1821,-146.9625C1307.5974,-141.8449 1566.7626,-128.1065 1783.5,-98 1791.4699,-96.8929 1799.8567,-95.4727 1808.0448,-93.9425"/>
<polygon fill="#191970" stroke="#191970" points="1808.7405,-97.3729 1817.8924,-92.0351 1807.4093,-90.5006 1808.7405,-97.3729"/>
</g>
<!-- Node22 -->
<g id="node23" class="node">
<title>Node22</title>
<polygon fill="none" stroke="#bfbfbf" points="1680.5,-.5 1680.5,-30.5 1844.5,-30.5 1844.5,-.5 1680.5,-.5"/>
<text text-anchor="start" x="1688.5" y="-18.5" font-family="Helvetica,sans-Serif" font-size="10.00" fill="#000000">Math/GenVector/Displacement</text>
<text text-anchor="middle" x="1762.5" y="-7.5" font-family="Helvetica,sans-Serif" font-size="10.00" fill="#000000">Vector2D.h</text>
</g>
<!-- Node21&#45;&gt;Node22 -->
<g id="edge27" class="edge">
<title>Node21&#45;&gt;Node22</title>
<path fill="none" stroke="#191970" d="M1846.459,-72.9005C1832.5412,-63.3853 1810.772,-48.5023 1792.888,-36.2755"/>
<polygon fill="#191970" stroke="#191970" points="1794.7026,-33.2763 1784.4721,-30.5218 1790.7519,-39.0549 1794.7026,-33.2763"/>
</g>
<!-- Node23 -->
<g id="node24" class="node">
<title>Node23</title>
<polygon fill="none" stroke="#bfbfbf" points="1863,-6 1863,-25 2052,-25 2052,-6 1863,-6"/>
<text text-anchor="middle" x="1957.5" y="-13" font-family="Helvetica,sans-Serif" font-size="10.00" fill="#000000">Math/GenVector/PositionVector2D.h</text>
</g>
<!-- Node21&#45;&gt;Node23 -->
<g id="edge28" class="edge">
<title>Node21&#45;&gt;Node23</title>
<path fill="none" stroke="#191970" d="M1874.3977,-72.9005C1890.3164,-61.9052 1916.6121,-43.7422 1935.3599,-30.7927"/>
<polygon fill="#191970" stroke="#191970" points="1937.3892,-33.6448 1943.628,-25.0817 1933.4108,-27.8852 1937.3892,-33.6448"/>
</g>
</g>
</svg>
