<?xml version="1.0" encoding="UTF-8" standalone="no"?>
<!DOCTYPE svg PUBLIC "-//W3C//DTD SVG 1.1//EN"
 "http://www.w3.org/Graphics/SVG/1.1/DTD/svg11.dtd">
<!-- Generated by graphviz version 2.40.1 (20161225.0304)
 -->
<!-- Title: o2::emcal::EventData&lt; InputType &gt; Pages: 1 -->
<svg width="639pt" height="672pt"
 viewBox="0.00 0.00 638.50 672.00" xmlns="http://www.w3.org/2000/svg" xmlns:xlink="http://www.w3.org/1999/xlink">
<g id="graph0" class="graph" transform="scale(1 1) rotate(0) translate(4 668)">
<title>o2::emcal::EventData&lt; InputType &gt;</title>
<!-- Node2 -->
<g id="node1" class="node">
<title>Node2</title>
<polygon fill="#bfbfbf" stroke="#000000" points="315,-.5 315,-79.5 437,-79.5 437,-.5 315,-.5"/>
<text text-anchor="start" x="323" y="-67.5" font-family="Helvetica,sans-Serif" font-size="10.00" fill="#000000">o2::emcal::EventData</text>
<text text-anchor="middle" x="376" y="-56.5" font-family="Helvetica,sans-Serif" font-size="10.00" fill="#000000">&lt; InputType &gt;</text>
<polyline fill="none" stroke="#000000" points="315,-49.5 437,-49.5 "/>
<text text-anchor="middle" x="376" y="-37.5" font-family="Helvetica,sans-Serif" font-size="10.00" fill="#000000"> </text>
<polyline fill="none" stroke="#000000" points="315,-30.5 437,-30.5 "/>
<text text-anchor="start" x="323" y="-18.5" font-family="Helvetica,sans-Serif" font-size="10.00" fill="#000000">+ reset()</text>
<text text-anchor="start" x="323" y="-7.5" font-family="Helvetica,sans-Serif" font-size="10.00" fill="#000000">+ ClassDefNV()</text>
</g>
<!-- Node3 -->
<g id="node2" class="node">
<title>Node3</title>
<g id="a_node2"><a xlink:href="../../d1/d21/structo2_1_1InteractionRecord.html" target="_top" xlink:title="{o2::InteractionRecord\n||+ InteractionRecord()\l+ InteractionRecord()\l+ InteractionRecord()\l+ InteractionRecord()\l+ clear()\l+ isDummy()\l+ setFromNS()\l+ bc2ns()\l+ operator==()\l+ operator!=()\l+ differenceInBC()\l+ toLong()\l+ setFromLong()\l+ operator\&gt;()\l+ operator\&gt;=()\l+ operator\&lt;()\l+ operator\&lt;=()\l+ operator&#45;&#45;()\l+ operator&#45;&#45;()\l+ operator++()\l+ operator++()\l+ operator+=()\l+ operator&#45;=()\l+ operator+=()\l+ operator&#45;=()\l+ operator+()\l+ operator&#45;()\l+ operator+()\l+ operator&#45;()\l+ print()\l+ asString()\l+ ClassDefNV()\l+ bc2ns()\l+ ns2bc()\l}">
<polygon fill="none" stroke="#000000" points="112.5,-127.5 112.5,-547.5 233.5,-547.5 233.5,-127.5 112.5,-127.5"/>
<text text-anchor="middle" x="173" y="-535.5" font-family="Helvetica,sans-Serif" font-size="10.00" fill="#000000">o2::InteractionRecord</text>
<polyline fill="none" stroke="#000000" points="112.5,-528.5 233.5,-528.5 "/>
<text text-anchor="middle" x="173" y="-516.5" font-family="Helvetica,sans-Serif" font-size="10.00" fill="#000000"> </text>
<polyline fill="none" stroke="#000000" points="112.5,-509.5 233.5,-509.5 "/>
<text text-anchor="start" x="120.5" y="-497.5" font-family="Helvetica,sans-Serif" font-size="10.00" fill="#000000">+ InteractionRecord()</text>
<text text-anchor="start" x="120.5" y="-486.5" font-family="Helvetica,sans-Serif" font-size="10.00" fill="#000000">+ InteractionRecord()</text>
<text text-anchor="start" x="120.5" y="-475.5" font-family="Helvetica,sans-Serif" font-size="10.00" fill="#000000">+ InteractionRecord()</text>
<text text-anchor="start" x="120.5" y="-464.5" font-family="Helvetica,sans-Serif" font-size="10.00" fill="#000000">+ InteractionRecord()</text>
<text text-anchor="start" x="120.5" y="-453.5" font-family="Helvetica,sans-Serif" font-size="10.00" fill="#000000">+ clear()</text>
<text text-anchor="start" x="120.5" y="-442.5" font-family="Helvetica,sans-Serif" font-size="10.00" fill="#000000">+ isDummy()</text>
<text text-anchor="start" x="120.5" y="-431.5" font-family="Helvetica,sans-Serif" font-size="10.00" fill="#000000">+ setFromNS()</text>
<text text-anchor="start" x="120.5" y="-420.5" font-family="Helvetica,sans-Serif" font-size="10.00" fill="#000000">+ bc2ns()</text>
<text text-anchor="start" x="120.5" y="-409.5" font-family="Helvetica,sans-Serif" font-size="10.00" fill="#000000">+ operator==()</text>
<text text-anchor="start" x="120.5" y="-398.5" font-family="Helvetica,sans-Serif" font-size="10.00" fill="#000000">+ operator!=()</text>
<text text-anchor="start" x="120.5" y="-387.5" font-family="Helvetica,sans-Serif" font-size="10.00" fill="#000000">+ differenceInBC()</text>
<text text-anchor="start" x="120.5" y="-376.5" font-family="Helvetica,sans-Serif" font-size="10.00" fill="#000000">+ toLong()</text>
<text text-anchor="start" x="120.5" y="-365.5" font-family="Helvetica,sans-Serif" font-size="10.00" fill="#000000">+ setFromLong()</text>
<text text-anchor="start" x="120.5" y="-354.5" font-family="Helvetica,sans-Serif" font-size="10.00" fill="#000000">+ operator&gt;()</text>
<text text-anchor="start" x="120.5" y="-343.5" font-family="Helvetica,sans-Serif" font-size="10.00" fill="#000000">+ operator&gt;=()</text>
<text text-anchor="start" x="120.5" y="-332.5" font-family="Helvetica,sans-Serif" font-size="10.00" fill="#000000">+ operator&lt;()</text>
<text text-anchor="start" x="120.5" y="-321.5" font-family="Helvetica,sans-Serif" font-size="10.00" fill="#000000">+ operator&lt;=()</text>
<text text-anchor="start" x="120.5" y="-310.5" font-family="Helvetica,sans-Serif" font-size="10.00" fill="#000000">+ operator&#45;&#45;()</text>
<text text-anchor="start" x="120.5" y="-299.5" font-family="Helvetica,sans-Serif" font-size="10.00" fill="#000000">+ operator&#45;&#45;()</text>
<text text-anchor="start" x="120.5" y="-288.5" font-family="Helvetica,sans-Serif" font-size="10.00" fill="#000000">+ operator++()</text>
<text text-anchor="start" x="120.5" y="-277.5" font-family="Helvetica,sans-Serif" font-size="10.00" fill="#000000">+ operator++()</text>
<text text-anchor="start" x="120.5" y="-266.5" font-family="Helvetica,sans-Serif" font-size="10.00" fill="#000000">+ operator+=()</text>
<text text-anchor="start" x="120.5" y="-255.5" font-family="Helvetica,sans-Serif" font-size="10.00" fill="#000000">+ operator&#45;=()</text>
<text text-anchor="start" x="120.5" y="-244.5" font-family="Helvetica,sans-Serif" font-size="10.00" fill="#000000">+ operator+=()</text>
<text text-anchor="start" x="120.5" y="-233.5" font-family="Helvetica,sans-Serif" font-size="10.00" fill="#000000">+ operator&#45;=()</text>
<text text-anchor="start" x="120.5" y="-222.5" font-family="Helvetica,sans-Serif" font-size="10.00" fill="#000000">+ operator+()</text>
<text text-anchor="start" x="120.5" y="-211.5" font-family="Helvetica,sans-Serif" font-size="10.00" fill="#000000">+ operator&#45;()</text>
<text text-anchor="start" x="120.5" y="-200.5" font-family="Helvetica,sans-Serif" font-size="10.00" fill="#000000">+ operator+()</text>
<text text-anchor="start" x="120.5" y="-189.5" font-family="Helvetica,sans-Serif" font-size="10.00" fill="#000000">+ operator&#45;()</text>
<text text-anchor="start" x="120.5" y="-178.5" font-family="Helvetica,sans-Serif" font-size="10.00" fill="#000000">+ print()</text>
<text text-anchor="start" x="120.5" y="-167.5" font-family="Helvetica,sans-Serif" font-size="10.00" fill="#000000">+ asString()</text>
<text text-anchor="start" x="120.5" y="-156.5" font-family="Helvetica,sans-Serif" font-size="10.00" fill="#000000">+ ClassDefNV()</text>
<text text-anchor="start" x="120.5" y="-145.5" font-family="Helvetica,sans-Serif" font-size="10.00" fill="#000000">+ bc2ns()</text>
<text text-anchor="start" x="120.5" y="-134.5" font-family="Helvetica,sans-Serif" font-size="10.00" fill="#000000">+ ns2bc()</text>
</a>
</g>
</g>
<!-- Node3&#45;&gt;Node2 -->
<g id="edge1" class="edge">
<title>Node3&#45;&gt;Node2</title>
<path fill="none" stroke="#404040" d="M218.9627,-127.3102C225.1211,-116.8735 232.0976,-107.0059 240,-98 256.5106,-79.1839 280.1786,-66.2866 303.1546,-57.5293"/>
<polygon fill="none" stroke="#404040" points="303.3922,-57.4452 307.7114,-51.6707 314.7029,-53.4366 310.3837,-59.2111 303.3922,-57.4452"/>
<text text-anchor="middle" x="293.5" y="-101" font-family="Helvetica,sans-Serif" font-size="10.00" fill="#000000"> +mInteractionRecord</text>
</g>
<!-- Node4 -->
<g id="node3" class="node">
<title>Node4</title>
<polygon fill="none" stroke="#bfbfbf" points="0,-606.5 0,-663.5 50,-663.5 50,-606.5 0,-606.5"/>
<text text-anchor="middle" x="25" y="-651.5" font-family="Helvetica,sans-Serif" font-size="10.00" fill="#000000">double</text>
<polyline fill="none" stroke="#bfbfbf" points="0,-644.5 50,-644.5 "/>
<text text-anchor="middle" x="25" y="-632.5" font-family="Helvetica,sans-Serif" font-size="10.00" fill="#000000"> </text>
<polyline fill="none" stroke="#bfbfbf" points="0,-625.5 50,-625.5 "/>
<text text-anchor="middle" x="25" y="-613.5" font-family="Helvetica,sans-Serif" font-size="10.00" fill="#000000"> </text>
</g>
<!-- Node4&#45;&gt;Node3 -->
<g id="edge2" class="edge">
<title>Node4&#45;&gt;Node3</title>
<path fill="none" stroke="#404040" d="M31.2337,-606.2757C34.3921,-593.6791 38.6922,-578.864 44,-566 61.1925,-524.3317 84.3664,-480.738 106.3294,-442.9321"/>
<polygon fill="none" stroke="#404040" points="106.4177,-442.7814 106.001,-435.5824 112.486,-432.4288 112.9027,-439.6279 106.4177,-442.7814"/>
<text text-anchor="middle" x="82" y="-574.5" font-family="Helvetica,sans-Serif" font-size="10.00" fill="#000000"> +DummyTime</text>
</g>
<!-- Node5 -->
<g id="node4" class="node">
<title>Node5</title>
<g id="a_node4"><a xlink:href="../../d2/d5f/classunsigned_01int.html" target="_top" xlink:title="{unsigned int\n||}">
<polygon fill="none" stroke="#000000" points="85.5,-606.5 85.5,-663.5 162.5,-663.5 162.5,-606.5 85.5,-606.5"/>
<text text-anchor="middle" x="124" y="-651.5" font-family="Helvetica,sans-Serif" font-size="10.00" fill="#000000">unsigned int</text>
<polyline fill="none" stroke="#000000" points="85.5,-644.5 162.5,-644.5 "/>
<text text-anchor="middle" x="124" y="-632.5" font-family="Helvetica,sans-Serif" font-size="10.00" fill="#000000"> </text>
<polyline fill="none" stroke="#000000" points="85.5,-625.5 162.5,-625.5 "/>
<text text-anchor="middle" x="124" y="-613.5" font-family="Helvetica,sans-Serif" font-size="10.00" fill="#000000"> </text>
</a>
</g>
</g>
<!-- Node5&#45;&gt;Node3 -->
<g id="edge3" class="edge">
<title>Node5&#45;&gt;Node3</title>
<path fill="none" stroke="#404040" d="M123.1841,-606.3878C123.1467,-593.9444 123.5299,-579.2168 125,-566 125.2311,-563.9227 125.4723,-561.8363 125.7232,-559.7422"/>
<polygon fill="none" stroke="#404040" points="125.7444,-559.575 122.5354,-553.1173 127.2622,-547.6714 130.4712,-554.1291 125.7444,-559.575"/>
<text text-anchor="middle" x="162.5" y="-574.5" font-family="Helvetica,sans-Serif" font-size="10.00" fill="#000000"> +DummyOrbit</text>
</g>
<!-- Node6 -->
<g id="node5" class="node">
<title>Node6</title>
<polygon fill="none" stroke="#bfbfbf" points="191.5,-606.5 191.5,-663.5 252.5,-663.5 252.5,-606.5 191.5,-606.5"/>
<text text-anchor="middle" x="222" y="-651.5" font-family="Helvetica,sans-Serif" font-size="10.00" fill="#000000">unsigned</text>
<polyline fill="none" stroke="#bfbfbf" points="191.5,-644.5 252.5,-644.5 "/>
<text text-anchor="middle" x="222" y="-632.5" font-family="Helvetica,sans-Serif" font-size="10.00" fill="#000000"> </text>
<polyline fill="none" stroke="#bfbfbf" points="191.5,-625.5 252.5,-625.5 "/>
<text text-anchor="middle" x="222" y="-613.5" font-family="Helvetica,sans-Serif" font-size="10.00" fill="#000000"> </text>
</g>
<!-- Node6&#45;&gt;Node3 -->
<g id="edge4" class="edge">
<title>Node6&#45;&gt;Node3</title>
<path fill="none" stroke="#404040" d="M217.3017,-606.4744C215.2089,-593.7684 212.5404,-577.5667 209.5536,-559.4323"/>
<polygon fill="none" stroke="#404040" points="209.5519,-559.4217 204.6299,-554.1515 207.6016,-547.5812 212.5236,-552.8513 209.5519,-559.4217"/>
<text text-anchor="middle" x="229.5" y="-580" font-family="Helvetica,sans-Serif" font-size="10.00" fill="#000000"> +bc</text>
<text text-anchor="middle" x="229.5" y="-569" font-family="Helvetica,sans-Serif" font-size="10.00" fill="#000000">+orbit</text>
</g>
<!-- Node7 -->
<g id="node6" class="node">
<title>Node7</title>
<polygon fill="none" stroke="#bfbfbf" points="270.5,-606.5 270.5,-663.5 407.5,-663.5 407.5,-606.5 270.5,-606.5"/>
<text text-anchor="middle" x="339" y="-651.5" font-family="Helvetica,sans-Serif" font-size="10.00" fill="#000000">static constexpr uint16_t</text>
<polyline fill="none" stroke="#bfbfbf" points="270.5,-644.5 407.5,-644.5 "/>
<text text-anchor="middle" x="339" y="-632.5" font-family="Helvetica,sans-Serif" font-size="10.00" fill="#000000"> </text>
<polyline fill="none" stroke="#bfbfbf" points="270.5,-625.5 407.5,-625.5 "/>
<text text-anchor="middle" x="339" y="-613.5" font-family="Helvetica,sans-Serif" font-size="10.00" fill="#000000"> </text>
</g>
<!-- Node7&#45;&gt;Node3 -->
<g id="edge5" class="edge">
<title>Node7&#45;&gt;Node3</title>
<path fill="none" stroke="#404040" d="M298.5061,-606.1835C279.3905,-590.7967 257.6189,-570.4212 243,-548 241.9811,-546.4374 240.9758,-544.8585 239.9837,-543.2646"/>
<polygon fill="none" stroke="#404040" points="239.7456,-542.8625 233.2458,-539.7395 233.6287,-532.5386 240.1285,-535.6616 239.7456,-542.8625"/>
<text text-anchor="middle" x="307" y="-574.5" font-family="Helvetica,sans-Serif" font-size="10.00" fill="#000000"> +DummyBC</text>
</g>
<!-- Node8 -->
<g id="node7" class="node">
<title>Node8</title>
<polygon fill="none" stroke="#bfbfbf" points="252,-303.5 252,-371.5 380,-371.5 380,-303.5 252,-303.5"/>
<text text-anchor="start" x="260" y="-359.5" font-family="Helvetica,sans-Serif" font-size="10.00" fill="#000000">span&lt; const o2::emcal</text>
<text text-anchor="middle" x="316" y="-348.5" font-family="Helvetica,sans-Serif" font-size="10.00" fill="#000000">::Cluster &gt;</text>
<polyline fill="none" stroke="#bfbfbf" points="252,-341.5 380,-341.5 "/>
<text text-anchor="middle" x="316" y="-329.5" font-family="Helvetica,sans-Serif" font-size="10.00" fill="#000000"> </text>
<polyline fill="none" stroke="#bfbfbf" points="252,-322.5 380,-322.5 "/>
<text text-anchor="middle" x="316" y="-310.5" font-family="Helvetica,sans-Serif" font-size="10.00" fill="#000000"> </text>
</g>
<!-- Node8&#45;&gt;Node2 -->
<g id="edge6" class="edge">
<title>Node8&#45;&gt;Node2</title>
<path fill="none" stroke="#404040" d="M318.8532,-303.2861C323.3145,-256.3522 333.5219,-169.659 353,-98 353.618,-95.7265 354.297,-93.4206 355.0222,-91.1043"/>
<polygon fill="none" stroke="#404040" points="355.0932,-90.8957 353.2426,-83.9261 358.9643,-79.5372 360.8149,-86.5068 355.0932,-90.8957"/>
<text text-anchor="middle" x="383.5" y="-101" font-family="Helvetica,sans-Serif" font-size="10.00" fill="#000000"> +mClusters</text>
</g>
<!-- Node9 -->
<g id="node8" class="node">
<title>Node9</title>
<polygon fill="none" stroke="#bfbfbf" points="398.5,-309 398.5,-366 473.5,-366 473.5,-309 398.5,-309"/>
<text text-anchor="middle" x="436" y="-354" font-family="Helvetica,sans-Serif" font-size="10.00" fill="#000000">span&lt; int &gt;</text>
<polyline fill="none" stroke="#bfbfbf" points="398.5,-347 473.5,-347 "/>
<text text-anchor="middle" x="436" y="-335" font-family="Helvetica,sans-Serif" font-size="10.00" fill="#000000"> </text>
<polyline fill="none" stroke="#bfbfbf" points="398.5,-328 473.5,-328 "/>
<text text-anchor="middle" x="436" y="-316" font-family="Helvetica,sans-Serif" font-size="10.00" fill="#000000"> </text>
</g>
<!-- Node9&#45;&gt;Node2 -->
<g id="edge7" class="edge">
<title>Node9&#45;&gt;Node2</title>
<path fill="none" stroke="#404040" d="M437.751,-308.9096C439.6075,-263.0287 439.386,-170.735 414,-98 413.1136,-95.4605 412.0925,-92.9224 410.967,-90.4049"/>
<polygon fill="none" stroke="#404040" points="410.8917,-90.2566 404.6079,-86.7189 405.4567,-79.5579 411.7404,-83.0956 410.8917,-90.2566"/>
<text text-anchor="middle" x="453.5" y="-101" font-family="Helvetica,sans-Serif" font-size="10.00" fill="#000000"> +mCellIndices</text>
</g>
<!-- Node10 -->
<g id="node9" class="node">
<title>Node10</title>
<polygon fill="none" stroke="#bfbfbf" points="491.5,-309 491.5,-366 630.5,-366 630.5,-309 491.5,-309"/>
<text text-anchor="middle" x="561" y="-354" font-family="Helvetica,sans-Serif" font-size="10.00" fill="#000000">span&lt; const InputType &gt;</text>
<polyline fill="none" stroke="#bfbfbf" points="491.5,-347 630.5,-347 "/>
<text text-anchor="middle" x="561" y="-335" font-family="Helvetica,sans-Serif" font-size="10.00" fill="#000000"> </text>
<polyline fill="none" stroke="#bfbfbf" points="491.5,-328 630.5,-328 "/>
<text text-anchor="middle" x="561" y="-316" font-family="Helvetica,sans-Serif" font-size="10.00" fill="#000000"> </text>
</g>
<!-- Node10&#45;&gt;Node2 -->
<g id="edge8" class="edge">
<title>Node10&#45;&gt;Node2</title>
<path fill="none" stroke="#404040" d="M560.4695,-308.9854C558.1162,-260.3011 546.8061,-160.3758 495,-98 482.7134,-83.2066 465.746,-71.8875 448.4702,-63.352"/>
<polygon fill="none" stroke="#404040" points="448.0231,-63.1466 440.901,-64.2761 437.119,-58.1363 444.2411,-57.0068 448.0231,-63.1466"/>
<text text-anchor="middle" x="526" y="-101" font-family="Helvetica,sans-Serif" font-size="10.00" fill="#000000"> +mCells</text>
</g>
</g>
</svg>
