<?xml version="1.0" encoding="UTF-8" standalone="no"?>
<!DOCTYPE svg PUBLIC "-//W3C//DTD SVG 1.1//EN"
 "http://www.w3.org/Graphics/SVG/1.1/DTD/svg11.dtd">
<!-- Generated by graphviz version 2.40.1 (20161225.0304)
 -->
<!-- Title: o2::itsmft::AlpideCoder::HitsRecord Pages: 1 -->
<svg width="137pt" height="248pt"
 viewBox="0.00 0.00 137.00 248.00" xmlns="http://www.w3.org/2000/svg" xmlns:xlink="http://www.w3.org/1999/xlink">
<g id="graph0" class="graph" transform="scale(1 1) rotate(0) translate(4 244)">
<title>o2::itsmft::AlpideCoder::HitsRecord</title>
<!-- Node1 -->
<g id="node1" class="node">
<title>Node1</title>
<polygon fill="#bfbfbf" stroke="#000000" points="0,-.5 0,-101.5 129,-101.5 129,-.5 0,-.5"/>
<text text-anchor="start" x="8" y="-89.5" font-family="Helvetica,sans-Serif" font-size="10.00" fill="#000000">o2::itsmft::AlpideCoder</text>
<text text-anchor="middle" x="64.5" y="-78.5" font-family="Helvetica,sans-Serif" font-size="10.00" fill="#000000">::HitsRecord</text>
<polyline fill="none" stroke="#000000" points="0,-71.5 129,-71.5 "/>
<text text-anchor="middle" x="64.5" y="-59.5" font-family="Helvetica,sans-Serif" font-size="10.00" fill="#000000"> </text>
<polyline fill="none" stroke="#000000" points="0,-52.5 129,-52.5 "/>
<text text-anchor="start" x="8" y="-40.5" font-family="Helvetica,sans-Serif" font-size="10.00" fill="#000000">+ HitsRecord()</text>
<text text-anchor="start" x="8" y="-29.5" font-family="Helvetica,sans-Serif" font-size="10.00" fill="#000000">+ ~HitsRecord()</text>
<text text-anchor="start" x="8" y="-18.5" font-family="Helvetica,sans-Serif" font-size="10.00" fill="#000000">+ HitsRecord()</text>
<text text-anchor="start" x="8" y="-7.5" font-family="Helvetica,sans-Serif" font-size="10.00" fill="#000000">+ ClassDefNV()</text>
</g>
<!-- Node2 -->
<g id="node2" class="node">
<title>Node2</title>
<polygon fill="none" stroke="#bfbfbf" points="34,-182.5 34,-239.5 95,-239.5 95,-182.5 34,-182.5"/>
<text text-anchor="middle" x="64.5" y="-227.5" font-family="Helvetica,sans-Serif" font-size="10.00" fill="#000000">unsigned</text>
<polyline fill="none" stroke="#bfbfbf" points="34,-220.5 95,-220.5 "/>
<text text-anchor="middle" x="64.5" y="-208.5" font-family="Helvetica,sans-Serif" font-size="10.00" fill="#000000"> </text>
<polyline fill="none" stroke="#bfbfbf" points="34,-201.5 95,-201.5 "/>
<text text-anchor="middle" x="64.5" y="-189.5" font-family="Helvetica,sans-Serif" font-size="10.00" fill="#000000"> </text>
</g>
<!-- Node2&#45;&gt;Node1 -->
<g id="edge1" class="edge">
<title>Node2&#45;&gt;Node1</title>
<path fill="none" stroke="#404040" d="M64.5,-182.3952C64.5,-163.3358 64.5,-137.5272 64.5,-113.8285"/>
<polygon fill="none" stroke="#404040" points="64.5001,-113.6748 60.5,-107.6748 64.5,-101.6748 68.5,-107.6748 64.5001,-113.6748"/>
<text text-anchor="middle" x="90" y="-156" font-family="Helvetica,sans-Serif" font-size="10.00" fill="#000000"> +hitmap</text>
<text text-anchor="middle" x="90" y="-145" font-family="Helvetica,sans-Serif" font-size="10.00" fill="#000000">+address</text>
<text text-anchor="middle" x="90" y="-134" font-family="Helvetica,sans-Serif" font-size="10.00" fill="#000000">+dcolumn</text>
<text text-anchor="middle" x="90" y="-123" font-family="Helvetica,sans-Serif" font-size="10.00" fill="#000000">+region</text>
</g>
</g>
</svg>
