<?xml version="1.0" encoding="UTF-8" standalone="no"?>
<!DOCTYPE svg PUBLIC "-//W3C//DTD SVG 1.1//EN"
 "http://www.w3.org/Graphics/SVG/1.1/DTD/svg11.dtd">
<!-- Generated by graphviz version 2.40.1 (20161225.0304)
 -->
<!-- Title: o2::rans::internal::EncoderSymbol&lt; T &gt; Pages: 1 -->
<svg width="161pt" height="215pt"
 viewBox="0.00 0.00 160.50 215.00" xmlns="http://www.w3.org/2000/svg" xmlns:xlink="http://www.w3.org/1999/xlink">
<g id="graph0" class="graph" transform="scale(1 1) rotate(0) translate(4 211)">
<title>o2::rans::internal::EncoderSymbol&lt; T &gt;</title>
<!-- Node1 -->
<g id="node1" class="node">
<title>Node1</title>
<polygon fill="#bfbfbf" stroke="#000000" points="7,-.5 7,-68.5 134,-68.5 134,-.5 7,-.5"/>
<text text-anchor="start" x="15" y="-56.5" font-family="Helvetica,sans-Serif" font-size="10.00" fill="#000000">o2::rans::internal</text>
<text text-anchor="middle" x="70.5" y="-45.5" font-family="Helvetica,sans-Serif" font-size="10.00" fill="#000000">::EncoderSymbol&lt; T &gt;</text>
<polyline fill="none" stroke="#000000" points="7,-38.5 134,-38.5 "/>
<text text-anchor="middle" x="70.5" y="-26.5" font-family="Helvetica,sans-Serif" font-size="10.00" fill="#000000"> </text>
<polyline fill="none" stroke="#000000" points="7,-19.5 134,-19.5 "/>
<text text-anchor="start" x="15" y="-7.5" font-family="Helvetica,sans-Serif" font-size="10.00" fill="#000000">+ EncoderSymbol()</text>
</g>
<!-- Node2 -->
<g id="node2" class="node">
<title>Node2</title>
<polygon fill="none" stroke="#bfbfbf" points="0,-149.5 0,-206.5 61,-206.5 61,-149.5 0,-149.5"/>
<text text-anchor="middle" x="30.5" y="-194.5" font-family="Helvetica,sans-Serif" font-size="10.00" fill="#000000">unsigned</text>
<polyline fill="none" stroke="#bfbfbf" points="0,-187.5 61,-187.5 "/>
<text text-anchor="middle" x="30.5" y="-175.5" font-family="Helvetica,sans-Serif" font-size="10.00" fill="#000000"> </text>
<polyline fill="none" stroke="#bfbfbf" points="0,-168.5 61,-168.5 "/>
<text text-anchor="middle" x="30.5" y="-156.5" font-family="Helvetica,sans-Serif" font-size="10.00" fill="#000000"> </text>
</g>
<!-- Node2&#45;&gt;Node1 -->
<g id="edge1" class="edge">
<title>Node2&#45;&gt;Node1</title>
<path fill="none" stroke="#404040" d="M26.3596,-149.3668C24.7836,-131.0558 24.7408,-107.0634 31.5,-87 32.3689,-84.4209 33.4169,-81.8646 34.603,-79.3493"/>
<polygon fill="none" stroke="#404040" points="34.7259,-79.1282 34.147,-71.9403 40.5593,-68.6414 41.1382,-75.8292 34.7259,-79.1282"/>
<text text-anchor="middle" x="60.5" y="-123" font-family="Helvetica,sans-Serif" font-size="10.00" fill="#000000"> +bias</text>
<text text-anchor="middle" x="60.5" y="-112" font-family="Helvetica,sans-Serif" font-size="10.00" fill="#000000">+rcp_shift</text>
<text text-anchor="middle" x="60.5" y="-101" font-family="Helvetica,sans-Serif" font-size="10.00" fill="#000000">+cmpl_freq</text>
<text text-anchor="middle" x="60.5" y="-90" font-family="Helvetica,sans-Serif" font-size="10.00" fill="#000000">+freq</text>
</g>
<!-- Node3 -->
<g id="node3" class="node">
<title>Node3</title>
<polygon fill="none" stroke="#bfbfbf" points="97,-149.5 97,-206.5 126,-206.5 126,-149.5 97,-149.5"/>
<text text-anchor="middle" x="111.5" y="-194.5" font-family="Helvetica,sans-Serif" font-size="10.00" fill="#000000">T</text>
<polyline fill="none" stroke="#bfbfbf" points="97,-187.5 126,-187.5 "/>
<text text-anchor="middle" x="111.5" y="-175.5" font-family="Helvetica,sans-Serif" font-size="10.00" fill="#000000"> </text>
<polyline fill="none" stroke="#bfbfbf" points="97,-168.5 126,-168.5 "/>
<text text-anchor="middle" x="111.5" y="-156.5" font-family="Helvetica,sans-Serif" font-size="10.00" fill="#000000"> </text>
</g>
<!-- Node3&#45;&gt;Node1 -->
<g id="edge2" class="edge">
<title>Node3&#45;&gt;Node1</title>
<path fill="none" stroke="#404040" d="M105.3659,-149.0931C101.3368,-131.0974 95.6808,-107.5454 89.5,-87 88.8298,-84.7723 88.1183,-82.5008 87.3791,-80.2134"/>
<polygon fill="none" stroke="#404040" points="87.3548,-80.1414 81.6454,-75.7365 83.5154,-68.7721 89.2249,-73.1769 87.3548,-80.1414"/>
<text text-anchor="middle" x="126.5" y="-106.5" font-family="Helvetica,sans-Serif" font-size="10.00" fill="#000000"> +rcp_freq</text>
</g>
</g>
</svg>
