<?xml version="1.0" encoding="UTF-8" standalone="no"?>
<!DOCTYPE svg PUBLIC "-//W3C//DTD SVG 1.1//EN"
 "http://www.w3.org/Graphics/SVG/1.1/DTD/svg11.dtd">
<!-- Generated by graphviz version 2.40.1 (20161225.0304)
 -->
<!-- Title: o2::tpc::ClusterNativeBuffer Pages: 1 -->
<!--zoomable 757 -->
<svg id="main" version="1.1" xmlns="http://www.w3.org/2000/svg" xmlns:xlink="http://www.w3.org/1999/xlink" xml:space="preserve" onload="init(evt)">
<style type="text/css"><![CDATA[
.edge:hover path { stroke: red; }
.edge:hover polygon { stroke: red; fill: red; }
]]></style>
<script type="text/javascript"><![CDATA[
var edges = document.getElementsByTagName('g');
if (edges && edges.length) {
  for (var i=0;i<edges.length;i++) {
    if (edges[i].id.substr(0,4)=='edge') {
      edges[i].setAttribute('class','edge');
    }
  }
}
]]></script>
        <defs>
                <circle id="rim" cx="0" cy="0" r="7"/>
                <circle id="rim2" cx="0" cy="0" r="3.5"/>
                <g id="zoomPlus">
                        <use xlink:href="#rim" fill="#404040">
                                <set attributeName="fill" to="#808080" begin="zoomplus.mouseover" end="zoomplus.mouseout"/>
                        </use>
                        <path d="M-4,0h8M0,-4v8" fill="none" stroke="white" stroke-width="1.5" pointer-events="none"/>
                </g>
                <g id="zoomMin">
                        <use xlink:href="#rim" fill="#404040">
                                <set attributeName="fill" to="#808080" begin="zoomminus.mouseover" end="zoomminus.mouseout"/>
                        </use>
                        <path d="M-4,0h8" fill="none" stroke="white" stroke-width="1.5" pointer-events="none"/>
                </g>
                <g id="dirArrow">
                        <path fill="none" stroke="white" stroke-width="1.5" d="M0,-3.0v7 M-2.5,-0.5L0,-3.0L2.5,-0.5"/>
                </g>
               <g id="resetDef">
                       <use xlink:href="#rim2" fill="#404040">
                               <set attributeName="fill" to="#808080" begin="reset.mouseover" end="reset.mouseout"/>
                       </use>
               </g>
        </defs>

<script type="text/javascript">
var viewWidth = 575;
var viewHeight = 757;
var sectionId = 'dynsection-1';
</script>
<script xlink:href="../../svgpan.js"/>
<svg id="graph" class="graph">
<g id="viewport">
<title>o2::tpc::ClusterNativeBuffer</title>
<!-- Node3 -->
<g id="node1" class="node">
<title>Node3</title>
<polygon fill="#bfbfbf" stroke="#000000" points="192.8641,-.5 192.8641,-79.5 344.8641,-79.5 344.8641,-.5 192.8641,-.5"/>
<text text-anchor="middle" x="268.8641" y="-67.5" font-family="Helvetica,sans-Serif" font-size="10.00" fill="#000000">o2::tpc::ClusterNativeBuffer</text>
<polyline fill="none" stroke="#000000" points="192.8641,-60.5 344.8641,-60.5 "/>
<text text-anchor="middle" x="268.8641" y="-48.5" font-family="Helvetica,sans-Serif" font-size="10.00" fill="#000000"> </text>
<polyline fill="none" stroke="#000000" points="192.8641,-41.5 344.8641,-41.5 "/>
<text text-anchor="start" x="200.8641" y="-29.5" font-family="Helvetica,sans-Serif" font-size="10.00" fill="#000000">+ getFlatSize()</text>
<text text-anchor="start" x="200.8641" y="-18.5" font-family="Helvetica,sans-Serif" font-size="10.00" fill="#000000">+ data()</text>
<text text-anchor="start" x="200.8641" y="-7.5" font-family="Helvetica,sans-Serif" font-size="10.00" fill="#000000">+ data()</text>
</g>
<!-- Node4 -->
<g id="node2" class="node">
<title>Node4</title>
<g id="a_node2"><a xlink:href="../../d4/dcf/structo2_1_1tpc_1_1ClusterGroupHeader.html" target="_top" xlink:title="{o2::tpc::ClusterGroupHeader\n||+ ClusterGroupHeader()\l}">
<polygon fill="none" stroke="#000000" points="122.3641,-117.5 122.3641,-174.5 277.3641,-174.5 277.3641,-117.5 122.3641,-117.5"/>
<text text-anchor="middle" x="199.8641" y="-162.5" font-family="Helvetica,sans-Serif" font-size="10.00" fill="#000000">o2::tpc::ClusterGroupHeader</text>
<polyline fill="none" stroke="#000000" points="122.3641,-155.5 277.3641,-155.5 "/>
<text text-anchor="middle" x="199.8641" y="-143.5" font-family="Helvetica,sans-Serif" font-size="10.00" fill="#000000"> </text>
<polyline fill="none" stroke="#000000" points="122.3641,-136.5 277.3641,-136.5 "/>
<text text-anchor="start" x="130.3641" y="-124.5" font-family="Helvetica,sans-Serif" font-size="10.00" fill="#000000">+ ClusterGroupHeader()</text>
</a>
</g>
</g>
<!-- Node4&#45;&gt;Node3 -->
<g id="edge1" class="edge">
<title>Node4&#45;&gt;Node3</title>
<path fill="none" stroke="#191970" d="M223.9974,-108.9257C230.1178,-99.5232 236.7182,-89.3836 242.9241,-79.8499"/>
<polygon fill="none" stroke="#191970" points="221.0587,-107.0246 218.5365,-117.3149 226.9253,-110.8435 221.0587,-107.0246"/>
</g>
<!-- Node5 -->
<g id="node3" class="node">
<title>Node5</title>
<g id="a_node3"><a xlink:href="../../d6/de9/structo2_1_1tpc_1_1ClusterGroupAttribute.html" target="_top" xlink:title="{o2::tpc::ClusterGroupAttribute\n||+ set()\l+ getSubSpecification()\l}">
<polygon fill="none" stroke="#000000" points="118.8641,-361 118.8641,-429 280.8641,-429 280.8641,-361 118.8641,-361"/>
<text text-anchor="middle" x="199.8641" y="-417" font-family="Helvetica,sans-Serif" font-size="10.00" fill="#000000">o2::tpc::ClusterGroupAttribute</text>
<polyline fill="none" stroke="#000000" points="118.8641,-410 280.8641,-410 "/>
<text text-anchor="middle" x="199.8641" y="-398" font-family="Helvetica,sans-Serif" font-size="10.00" fill="#000000"> </text>
<polyline fill="none" stroke="#000000" points="118.8641,-391 280.8641,-391 "/>
<text text-anchor="start" x="126.8641" y="-379" font-family="Helvetica,sans-Serif" font-size="10.00" fill="#000000">+ set()</text>
<text text-anchor="start" x="126.8641" y="-368" font-family="Helvetica,sans-Serif" font-size="10.00" fill="#000000">+ getSubSpecification()</text>
</a>
</g>
</g>
<!-- Node5&#45;&gt;Node4 -->
<g id="edge2" class="edge">
<title>Node5&#45;&gt;Node4</title>
<path fill="none" stroke="#191970" d="M199.8641,-350.8541C199.8641,-299.9861 199.8641,-217.8721 199.8641,-174.6745"/>
<polygon fill="none" stroke="#191970" points="196.3642,-350.8997 199.8641,-360.8997 203.3642,-350.8997 196.3642,-350.8997"/>
</g>
<!-- Node6 -->
<g id="node4" class="node">
<title>Node6</title>
<polygon fill="none" stroke="#bfbfbf" points="111.3641,-691.5 111.3641,-748.5 172.3641,-748.5 172.3641,-691.5 111.3641,-691.5"/>
<text text-anchor="middle" x="141.8641" y="-736.5" font-family="Helvetica,sans-Serif" font-size="10.00" fill="#000000">unsigned</text>
<polyline fill="none" stroke="#bfbfbf" points="111.3641,-729.5 172.3641,-729.5 "/>
<text text-anchor="middle" x="141.8641" y="-717.5" font-family="Helvetica,sans-Serif" font-size="10.00" fill="#000000"> </text>
<polyline fill="none" stroke="#bfbfbf" points="111.3641,-710.5 172.3641,-710.5 "/>
<text text-anchor="middle" x="141.8641" y="-698.5" font-family="Helvetica,sans-Serif" font-size="10.00" fill="#000000"> </text>
</g>
<!-- Node6&#45;&gt;Node4 -->
<g id="edge4" class="edge">
<title>Node6&#45;&gt;Node4</title>
<path fill="none" stroke="#404040" d="M116.7792,-691.4202C94.8067,-664.3391 64.4731,-621.4477 51.8641,-578 6.527,-421.779 -36.6897,-348.4502 51.8641,-212 65.5524,-190.9081 87.722,-176.4989 110.7825,-166.6772"/>
<polygon fill="none" stroke="#404040" points="110.9723,-166.6027 115.0943,-160.6858 122.1414,-162.215 118.0195,-168.1319 110.9723,-166.6027"/>
<text text-anchor="middle" x="80.8641" y="-392.5" font-family="Helvetica,sans-Serif" font-size="10.00" fill="#000000"> +nClusters</text>
</g>
<!-- Node6&#45;&gt;Node5 -->
<g id="edge3" class="edge">
<title>Node6&#45;&gt;Node5</title>
<path fill="none" stroke="#404040" d="M139.929,-691.2715C138.7436,-666.0342 138.2266,-628.393 142.8641,-596 150.6604,-541.5418 169.2263,-481.0593 183.064,-440.8062"/>
<polygon fill="none" stroke="#404040" points="183.144,-440.5771 181.345,-433.594 187.0991,-429.2476 188.898,-436.2307 183.144,-440.5771"/>
<text text-anchor="middle" x="180.8641" y="-637.5" font-family="Helvetica,sans-Serif" font-size="10.00" fill="#000000"> +sector</text>
<text text-anchor="middle" x="180.8641" y="-626.5" font-family="Helvetica,sans-Serif" font-size="10.00" fill="#000000">+globalPadRow</text>
</g>
<!-- Node7 -->
<g id="node5" class="node">
<title>Node7</title>
<g id="a_node5"><a xlink:href="../../dc/dbc/structo2_1_1tpc_1_1ClusterNative.html" target="_top" xlink:title="{o2::tpc::ClusterNative\n||+ GPUd()\l+ GPUd()\l+ GPUd()\l+ GPUd()\l+ GPUdDefault()\l+ GPUd()\l+ sigmaTimePacked()\l+ sigmaPadPacked()\l+ qMax()\l+ qTot()\l+ GPUd()\l+ GPUd()\l+ GPUd()\l+ GPUd()\l+ GPUd()\l+ GPUd()\l+ GPUd()\l+ GPUd()\l+ GPUd()\l+ GPUd()\l+ GPUd()\l+ GPUd()\l+ GPUd()\l+ GPUd()\l+ GPUd()\l+ GPUd()\l+ GPUd()\l+ GPUd()\l+ GPUd()\l}">
<polygon fill="none" stroke="#000000" points="299.3641,-212.5 299.3641,-577.5 424.3641,-577.5 424.3641,-212.5 299.3641,-212.5"/>
<text text-anchor="middle" x="361.8641" y="-565.5" font-family="Helvetica,sans-Serif" font-size="10.00" fill="#000000">o2::tpc::ClusterNative</text>
<polyline fill="none" stroke="#000000" points="299.3641,-558.5 424.3641,-558.5 "/>
<text text-anchor="middle" x="361.8641" y="-546.5" font-family="Helvetica,sans-Serif" font-size="10.00" fill="#000000"> </text>
<polyline fill="none" stroke="#000000" points="299.3641,-539.5 424.3641,-539.5 "/>
<text text-anchor="start" x="307.3641" y="-527.5" font-family="Helvetica,sans-Serif" font-size="10.00" fill="#000000">+ GPUd()</text>
<text text-anchor="start" x="307.3641" y="-516.5" font-family="Helvetica,sans-Serif" font-size="10.00" fill="#000000">+ GPUd()</text>
<text text-anchor="start" x="307.3641" y="-505.5" font-family="Helvetica,sans-Serif" font-size="10.00" fill="#000000">+ GPUd()</text>
<text text-anchor="start" x="307.3641" y="-494.5" font-family="Helvetica,sans-Serif" font-size="10.00" fill="#000000">+ GPUd()</text>
<text text-anchor="start" x="307.3641" y="-483.5" font-family="Helvetica,sans-Serif" font-size="10.00" fill="#000000">+ GPUdDefault()</text>
<text text-anchor="start" x="307.3641" y="-472.5" font-family="Helvetica,sans-Serif" font-size="10.00" fill="#000000">+ GPUd()</text>
<text text-anchor="start" x="307.3641" y="-461.5" font-family="Helvetica,sans-Serif" font-size="10.00" fill="#000000">+ sigmaTimePacked()</text>
<text text-anchor="start" x="307.3641" y="-450.5" font-family="Helvetica,sans-Serif" font-size="10.00" fill="#000000">+ sigmaPadPacked()</text>
<text text-anchor="start" x="307.3641" y="-439.5" font-family="Helvetica,sans-Serif" font-size="10.00" fill="#000000">+ qMax()</text>
<text text-anchor="start" x="307.3641" y="-428.5" font-family="Helvetica,sans-Serif" font-size="10.00" fill="#000000">+ qTot()</text>
<text text-anchor="start" x="307.3641" y="-417.5" font-family="Helvetica,sans-Serif" font-size="10.00" fill="#000000">+ GPUd()</text>
<text text-anchor="start" x="307.3641" y="-406.5" font-family="Helvetica,sans-Serif" font-size="10.00" fill="#000000">+ GPUd()</text>
<text text-anchor="start" x="307.3641" y="-395.5" font-family="Helvetica,sans-Serif" font-size="10.00" fill="#000000">+ GPUd()</text>
<text text-anchor="start" x="307.3641" y="-384.5" font-family="Helvetica,sans-Serif" font-size="10.00" fill="#000000">+ GPUd()</text>
<text text-anchor="start" x="307.3641" y="-373.5" font-family="Helvetica,sans-Serif" font-size="10.00" fill="#000000">+ GPUd()</text>
<text text-anchor="start" x="307.3641" y="-362.5" font-family="Helvetica,sans-Serif" font-size="10.00" fill="#000000">+ GPUd()</text>
<text text-anchor="start" x="307.3641" y="-351.5" font-family="Helvetica,sans-Serif" font-size="10.00" fill="#000000">+ GPUd()</text>
<text text-anchor="start" x="307.3641" y="-340.5" font-family="Helvetica,sans-Serif" font-size="10.00" fill="#000000">+ GPUd()</text>
<text text-anchor="start" x="307.3641" y="-329.5" font-family="Helvetica,sans-Serif" font-size="10.00" fill="#000000">+ GPUd()</text>
<text text-anchor="start" x="307.3641" y="-318.5" font-family="Helvetica,sans-Serif" font-size="10.00" fill="#000000">+ GPUd()</text>
<text text-anchor="start" x="307.3641" y="-307.5" font-family="Helvetica,sans-Serif" font-size="10.00" fill="#000000">+ GPUd()</text>
<text text-anchor="start" x="307.3641" y="-296.5" font-family="Helvetica,sans-Serif" font-size="10.00" fill="#000000">+ GPUd()</text>
<text text-anchor="start" x="307.3641" y="-285.5" font-family="Helvetica,sans-Serif" font-size="10.00" fill="#000000">+ GPUd()</text>
<text text-anchor="start" x="307.3641" y="-274.5" font-family="Helvetica,sans-Serif" font-size="10.00" fill="#000000">+ GPUd()</text>
<text text-anchor="start" x="307.3641" y="-263.5" font-family="Helvetica,sans-Serif" font-size="10.00" fill="#000000">+ GPUd()</text>
<text text-anchor="start" x="307.3641" y="-252.5" font-family="Helvetica,sans-Serif" font-size="10.00" fill="#000000">+ GPUd()</text>
<text text-anchor="start" x="307.3641" y="-241.5" font-family="Helvetica,sans-Serif" font-size="10.00" fill="#000000">+ GPUd()</text>
<text text-anchor="start" x="307.3641" y="-230.5" font-family="Helvetica,sans-Serif" font-size="10.00" fill="#000000">+ GPUd()</text>
<text text-anchor="start" x="307.3641" y="-219.5" font-family="Helvetica,sans-Serif" font-size="10.00" fill="#000000">+ GPUd()</text>
</a>
</g>
</g>
<!-- Node6&#45;&gt;Node7 -->
<g id="edge8" class="edge">
<title>Node6&#45;&gt;Node7</title>
<path fill="none" stroke="#404040" d="M172.6729,-706.077C187.9502,-698.0418 205.8633,-686.7878 218.8641,-673 245.4626,-644.7913 233.1585,-624.1073 259.8641,-596 270.5744,-584.7276 279.816,-589.8665 289.8641,-578 290.4639,-577.2916 291.0591,-576.5776 291.6497,-575.8583"/>
<polygon fill="none" stroke="#404040" points="291.7508,-575.7269 292.2419,-568.5326 299.0717,-566.2187 298.5807,-573.4131 291.7508,-575.7269"/>
<text text-anchor="middle" x="308.8641" y="-665" font-family="Helvetica,sans-Serif" font-size="10.00" fill="#000000"> +qTot</text>
<text text-anchor="middle" x="308.8641" y="-654" font-family="Helvetica,sans-Serif" font-size="10.00" fill="#000000">+sigmaTimePacked</text>
<text text-anchor="middle" x="308.8641" y="-643" font-family="Helvetica,sans-Serif" font-size="10.00" fill="#000000">+timeFlagsPacked</text>
<text text-anchor="middle" x="308.8641" y="-632" font-family="Helvetica,sans-Serif" font-size="10.00" fill="#000000">+flags</text>
<text text-anchor="middle" x="308.8641" y="-621" font-family="Helvetica,sans-Serif" font-size="10.00" fill="#000000">+sigmaPadPacked</text>
<text text-anchor="middle" x="308.8641" y="-610" font-family="Helvetica,sans-Serif" font-size="10.00" fill="#000000">+padPacked</text>
<text text-anchor="middle" x="308.8641" y="-599" font-family="Helvetica,sans-Serif" font-size="10.00" fill="#000000">+qMax</text>
</g>
<!-- Node7&#45;&gt;Node3 -->
<g id="edge5" class="edge">
<title>Node7&#45;&gt;Node3</title>
<path fill="none" stroke="#404040" d="M314.002,-212.3005C302.3599,-167.8604 290.8318,-123.8554 282.3401,-91.4406"/>
<polygon fill="none" stroke="#404040" points="282.2814,-91.2163 276.8914,-86.4259 279.2403,-79.6081 284.6303,-84.3985 282.2814,-91.2163"/>
<text text-anchor="middle" x="329.8641" y="-143.5" font-family="Helvetica,sans-Serif" font-size="10.00" fill="#000000"> +clusters</text>
</g>
<!-- Node8 -->
<g id="node6" class="node">
<title>Node8</title>
<polygon fill="none" stroke="#bfbfbf" points="319.3641,-691.5 319.3641,-748.5 404.3641,-748.5 404.3641,-691.5 319.3641,-691.5"/>
<text text-anchor="middle" x="361.8641" y="-736.5" font-family="Helvetica,sans-Serif" font-size="10.00" fill="#000000">unsigned char</text>
<polyline fill="none" stroke="#bfbfbf" points="319.3641,-729.5 404.3641,-729.5 "/>
<text text-anchor="middle" x="361.8641" y="-717.5" font-family="Helvetica,sans-Serif" font-size="10.00" fill="#000000"> </text>
<polyline fill="none" stroke="#bfbfbf" points="319.3641,-710.5 404.3641,-710.5 "/>
<text text-anchor="middle" x="361.8641" y="-698.5" font-family="Helvetica,sans-Serif" font-size="10.00" fill="#000000"> </text>
</g>
<!-- Node8&#45;&gt;Node7 -->
<g id="edge6" class="edge">
<title>Node8&#45;&gt;Node7</title>
<path fill="none" stroke="#404040" d="M361.8641,-691.4433C361.8641,-667.1064 361.8641,-629.7897 361.8641,-589.7515"/>
<polygon fill="none" stroke="#404040" points="361.8642,-589.538 357.8641,-583.538 361.8641,-577.538 365.8641,-583.538 361.8642,-589.538"/>
<text text-anchor="middle" x="393.8641" y="-654" font-family="Helvetica,sans-Serif" font-size="10.00" fill="#000000"> +qtot</text>
<text text-anchor="middle" x="393.8641" y="-643" font-family="Helvetica,sans-Serif" font-size="10.00" fill="#000000">+pad</text>
<text text-anchor="middle" x="393.8641" y="-632" font-family="Helvetica,sans-Serif" font-size="10.00" fill="#000000">+sigmaTime</text>
<text text-anchor="middle" x="393.8641" y="-621" font-family="Helvetica,sans-Serif" font-size="10.00" fill="#000000">+sigmaPad</text>
<text text-anchor="middle" x="393.8641" y="-610" font-family="Helvetica,sans-Serif" font-size="10.00" fill="#000000">+qmax</text>
</g>
<!-- Node9 -->
<g id="node7" class="node">
<title>Node9</title>
<polygon fill="none" stroke="#bfbfbf" points="434.3641,-691.5 434.3641,-748.5 463.3641,-748.5 463.3641,-691.5 434.3641,-691.5"/>
<text text-anchor="middle" x="448.8641" y="-736.5" font-family="Helvetica,sans-Serif" font-size="10.00" fill="#000000">int</text>
<polyline fill="none" stroke="#bfbfbf" points="434.3641,-729.5 463.3641,-729.5 "/>
<text text-anchor="middle" x="448.8641" y="-717.5" font-family="Helvetica,sans-Serif" font-size="10.00" fill="#000000"> </text>
<polyline fill="none" stroke="#bfbfbf" points="434.3641,-710.5 463.3641,-710.5 "/>
<text text-anchor="middle" x="448.8641" y="-698.5" font-family="Helvetica,sans-Serif" font-size="10.00" fill="#000000"> </text>
</g>
<!-- Node9&#45;&gt;Node7 -->
<g id="edge7" class="edge">
<title>Node9&#45;&gt;Node7</title>
<path fill="none" stroke="#404040" d="M444.8996,-691.1994C441.148,-665.9159 434.8986,-628.2474 426.8641,-596 426.3224,-593.8258 425.7695,-591.641 425.2064,-589.4472"/>
<polygon fill="none" stroke="#404040" points="425.1532,-589.2449 419.7586,-584.4597 422.1009,-577.6396 427.4955,-582.4248 425.1532,-589.2449"/>
<text text-anchor="middle" x="504.8641" y="-659.5" font-family="Helvetica,sans-Serif" font-size="10.00" fill="#000000"> +scaleTimePacked</text>
<text text-anchor="middle" x="504.8641" y="-648.5" font-family="Helvetica,sans-Serif" font-size="10.00" fill="#000000">+scaleSigmaPadPacked</text>
<text text-anchor="middle" x="504.8641" y="-637.5" font-family="Helvetica,sans-Serif" font-size="10.00" fill="#000000">+scaleSigmaTimePacked</text>
<text text-anchor="middle" x="504.8641" y="-626.5" font-family="Helvetica,sans-Serif" font-size="10.00" fill="#000000">+f</text>
<text text-anchor="middle" x="504.8641" y="-615.5" font-family="Helvetica,sans-Serif" font-size="10.00" fill="#000000">+scalePadPacked</text>
<text text-anchor="middle" x="504.8641" y="-604.5" font-family="Helvetica,sans-Serif" font-size="10.00" fill="#000000">+qMax</text>
</g>
</g>
</svg>
        <g id="navigator" transform="translate(0 0)" fill="#404254">
                <rect fill="#f2f5e9" fill-opacity="0.5" stroke="#606060" stroke-width=".5" x="0" y="0" width="60" height="60"/>
                <use id="zoomplus" xlink:href="#zoomPlus" x="17" y="9" onmousedown="handleZoom(evt,'in')"/>
                <use id="zoomminus" xlink:href="#zoomMin" x="42" y="9" onmousedown="handleZoom(evt,'out')"/>
                <use id="reset" xlink:href="#resetDef" x="30" y="36" onmousedown="handleReset()"/>
                <g id="arrowUp" xlink:href="#dirArrow" transform="translate(30 24)" onmousedown="handlePan(0,-1)">
                  <use xlink:href="#rim" fill="#404040">
                        <set attributeName="fill" to="#808080" begin="arrowUp.mouseover" end="arrowUp.mouseout"/>
                  </use>
                  <path fill="none" stroke="white" stroke-width="1.5" d="M0,-3.0v7 M-2.5,-0.5L0,-3.0L2.5,-0.5"/>
                </g>
                <g id="arrowRight" xlink:href="#dirArrow" transform="rotate(90) translate(36 -43)" onmousedown="handlePan(1,0)">
                  <use xlink:href="#rim" fill="#404040">
                        <set attributeName="fill" to="#808080" begin="arrowRight.mouseover" end="arrowRight.mouseout"/>
                  </use>
                  <path fill="none" stroke="white" stroke-width="1.5" d="M0,-3.0v7 M-2.5,-0.5L0,-3.0L2.5,-0.5"/>
                </g>
                <g id="arrowDown" xlink:href="#dirArrow" transform="rotate(180) translate(-30 -48)" onmousedown="handlePan(0,1)">
                  <use xlink:href="#rim" fill="#404040">
                        <set attributeName="fill" to="#808080" begin="arrowDown.mouseover" end="arrowDown.mouseout"/>
                  </use>
                  <path fill="none" stroke="white" stroke-width="1.5" d="M0,-3.0v7 M-2.5,-0.5L0,-3.0L2.5,-0.5"/>
                </g>
                <g id="arrowLeft" xlink:href="#dirArrow" transform="rotate(270) translate(-36 17)" onmousedown="handlePan(-1,0)">
                  <use xlink:href="#rim" fill="#404040">
                        <set attributeName="fill" to="#808080" begin="arrowLeft.mouseover" end="arrowLeft.mouseout"/>
                  </use>
                  <path fill="none" stroke="white" stroke-width="1.5" d="M0,-3.0v7 M-2.5,-0.5L0,-3.0L2.5,-0.5"/>
                </g>
        </g>
        <svg viewBox="0 0 15 15" width="100%" height="30px" preserveAspectRatio="xMaxYMin meet">
         <g id="arrow_out" transform="scale(0.3 0.3)">
          <a xlink:href="structo2_1_1tpc_1_1ClusterNativeBuffer__coll__graph_org.svg" target="_base">
           <rect id="button" ry="5" rx="5" y="6" x="6" height="38" width="38"
                fill="#f2f5e9" fill-opacity="0.5" stroke="#606060" stroke-width="1.0"/>
           <path id="arrow"
             d="M 11.500037,31.436501 C 11.940474,20.09759 22.043105,11.32322 32.158766,21.979434 L 37.068811,17.246167 C 37.068811,17.246167 37.088388,32 37.088388,32 L 22.160133,31.978069 C 22.160133,31.978069 26.997745,27.140456 26.997745,27.140456 C 18.528582,18.264221 13.291696,25.230495 11.500037,31.436501 z"
             style="fill:#404040;"/>
          </a>
         </g>
        </svg>
</svg>
