<?xml version="1.0" encoding="UTF-8" standalone="no"?>
<!DOCTYPE svg PUBLIC "-//W3C//DTD SVG 1.1//EN"
 "http://www.w3.org/Graphics/SVG/1.1/DTD/svg11.dtd">
<!-- Generated by graphviz version 2.40.1 (20161225.0304)
 -->
<!-- Title: QATrackingResolution Pages: 1 -->
<svg width="1269pt" height="816pt"
 viewBox="0.00 0.00 1269.00 816.00" xmlns="http://www.w3.org/2000/svg" xmlns:xlink="http://www.w3.org/1999/xlink">
<g id="graph0" class="graph" transform="scale(1 1) rotate(0) translate(4 812)">
<title>QATrackingResolution</title>
<!-- Node1 -->
<g id="node1" class="node">
<title>Node1</title>
<polygon fill="#bfbfbf" stroke="#000000" points="434,-.5 434,-57.5 556,-57.5 556,-.5 434,-.5"/>
<text text-anchor="middle" x="495" y="-45.5" font-family="Helvetica,sans-Serif" font-size="10.00" fill="#000000">QATrackingResolution</text>
<polyline fill="none" stroke="#000000" points="434,-38.5 556,-38.5 "/>
<text text-anchor="middle" x="495" y="-26.5" font-family="Helvetica,sans-Serif" font-size="10.00" fill="#000000"> </text>
<polyline fill="none" stroke="#000000" points="434,-19.5 556,-19.5 "/>
<text text-anchor="start" x="442" y="-7.5" font-family="Helvetica,sans-Serif" font-size="10.00" fill="#000000">+ process()</text>
</g>
<!-- Node2 -->
<g id="node2" class="node">
<title>Node2</title>
<g id="a_node2"><a xlink:href="../../d4/d79/structo2_1_1framework_1_1OutputObj.html" target="_top" xlink:title="{o2::framework::OutputObj\l\&lt; TH2F \&gt;\n||+ spec()\l+ OutputObj()\l+ OutputObj()\l+ setObject()\l+ setObject()\l+ setObject()\l+ setHash()\l+ operator&#45;\&gt;()\l+ operator*()\l+ ref()\l}">
<polygon fill="none" stroke="#000000" points="308.5,-138.5 308.5,-305.5 451.5,-305.5 451.5,-138.5 308.5,-138.5"/>
<text text-anchor="start" x="316.5" y="-293.5" font-family="Helvetica,sans-Serif" font-size="10.00" fill="#000000">o2::framework::OutputObj</text>
<text text-anchor="middle" x="380" y="-282.5" font-family="Helvetica,sans-Serif" font-size="10.00" fill="#000000">&lt; TH2F &gt;</text>
<polyline fill="none" stroke="#000000" points="308.5,-275.5 451.5,-275.5 "/>
<text text-anchor="middle" x="380" y="-263.5" font-family="Helvetica,sans-Serif" font-size="10.00" fill="#000000"> </text>
<polyline fill="none" stroke="#000000" points="308.5,-256.5 451.5,-256.5 "/>
<text text-anchor="start" x="316.5" y="-244.5" font-family="Helvetica,sans-Serif" font-size="10.00" fill="#000000">+ spec()</text>
<text text-anchor="start" x="316.5" y="-233.5" font-family="Helvetica,sans-Serif" font-size="10.00" fill="#000000">+ OutputObj()</text>
<text text-anchor="start" x="316.5" y="-222.5" font-family="Helvetica,sans-Serif" font-size="10.00" fill="#000000">+ OutputObj()</text>
<text text-anchor="start" x="316.5" y="-211.5" font-family="Helvetica,sans-Serif" font-size="10.00" fill="#000000">+ setObject()</text>
<text text-anchor="start" x="316.5" y="-200.5" font-family="Helvetica,sans-Serif" font-size="10.00" fill="#000000">+ setObject()</text>
<text text-anchor="start" x="316.5" y="-189.5" font-family="Helvetica,sans-Serif" font-size="10.00" fill="#000000">+ setObject()</text>
<text text-anchor="start" x="316.5" y="-178.5" font-family="Helvetica,sans-Serif" font-size="10.00" fill="#000000">+ setHash()</text>
<text text-anchor="start" x="316.5" y="-167.5" font-family="Helvetica,sans-Serif" font-size="10.00" fill="#000000">+ operator&#45;&gt;()</text>
<text text-anchor="start" x="316.5" y="-156.5" font-family="Helvetica,sans-Serif" font-size="10.00" fill="#000000">+ operator*()</text>
<text text-anchor="start" x="316.5" y="-145.5" font-family="Helvetica,sans-Serif" font-size="10.00" fill="#000000">+ ref()</text>
</a>
</g>
</g>
<!-- Node2&#45;&gt;Node1 -->
<g id="edge1" class="edge">
<title>Node2&#45;&gt;Node1</title>
<path fill="none" stroke="#404040" d="M429.7718,-138.4699C444.3852,-113.9448 459.6768,-88.2815 471.7783,-67.9721"/>
<polygon fill="none" stroke="#404040" points="471.8289,-67.8871 471.4639,-60.6853 477.9714,-57.5784 478.3364,-64.7803 471.8289,-67.8871"/>
<text text-anchor="middle" x="497" y="-101" font-family="Helvetica,sans-Serif" font-size="10.00" fill="#000000"> +ptResvseta</text>
<text text-anchor="middle" x="497" y="-90" font-family="Helvetica,sans-Serif" font-size="10.00" fill="#000000">+ptResvspt</text>
</g>
<!-- Node3 -->
<g id="node3" class="node">
<title>Node3</title>
<polygon fill="none" stroke="#bfbfbf" points="852.5,-585 852.5,-642 991.5,-642 991.5,-585 852.5,-585"/>
<text text-anchor="middle" x="922" y="-630" font-family="Helvetica,sans-Serif" font-size="10.00" fill="#000000">OutputObjHandlingPolicy</text>
<polyline fill="none" stroke="#bfbfbf" points="852.5,-623 991.5,-623 "/>
<text text-anchor="middle" x="922" y="-611" font-family="Helvetica,sans-Serif" font-size="10.00" fill="#000000"> </text>
<polyline fill="none" stroke="#bfbfbf" points="852.5,-604 991.5,-604 "/>
<text text-anchor="middle" x="922" y="-592" font-family="Helvetica,sans-Serif" font-size="10.00" fill="#000000"> </text>
</g>
<!-- Node3&#45;&gt;Node2 -->
<g id="edge2" class="edge">
<title>Node3&#45;&gt;Node2</title>
<path fill="none" stroke="#404040" d="M903.2415,-584.8262C890.9739,-564.6983 875.6688,-536.709 867,-510 845.2485,-442.982 889.1415,-407.9188 845,-353 821.8295,-324.1724 802.2578,-335.171 767,-324 663.5182,-291.2131 542.209,-260.4559 463.3716,-241.462"/>
<polygon fill="none" stroke="#404040" points="463.2431,-241.4313 456.4753,-243.9208 451.5743,-238.6312 458.342,-236.1416 463.2431,-241.4313"/>
<text text-anchor="middle" x="887.5" y="-429" font-family="Helvetica,sans-Serif" font-size="10.00" fill="#000000"> +policy</text>
</g>
<!-- Node11 -->
<g id="node11" class="node">
<title>Node11</title>
<g id="a_node11"><a xlink:href="../../d4/d79/structo2_1_1framework_1_1OutputObj.html" target="_top" xlink:title="{o2::framework::OutputObj\&lt; T \&gt;\n||+ OutputObj()\l+ OutputObj()\l+ setObject()\l+ setObject()\l+ setObject()\l+ setHash()\l+ spec()\l+ operator&#45;\&gt;()\l+ operator*()\l+ ref()\l}">
<polygon fill="none" stroke="#000000" points="555,-353.5 555,-509.5 727,-509.5 727,-353.5 555,-353.5"/>
<text text-anchor="middle" x="641" y="-497.5" font-family="Helvetica,sans-Serif" font-size="10.00" fill="#000000">o2::framework::OutputObj&lt; T &gt;</text>
<polyline fill="none" stroke="#000000" points="555,-490.5 727,-490.5 "/>
<text text-anchor="middle" x="641" y="-478.5" font-family="Helvetica,sans-Serif" font-size="10.00" fill="#000000"> </text>
<polyline fill="none" stroke="#000000" points="555,-471.5 727,-471.5 "/>
<text text-anchor="start" x="563" y="-459.5" font-family="Helvetica,sans-Serif" font-size="10.00" fill="#000000">+ OutputObj()</text>
<text text-anchor="start" x="563" y="-448.5" font-family="Helvetica,sans-Serif" font-size="10.00" fill="#000000">+ OutputObj()</text>
<text text-anchor="start" x="563" y="-437.5" font-family="Helvetica,sans-Serif" font-size="10.00" fill="#000000">+ setObject()</text>
<text text-anchor="start" x="563" y="-426.5" font-family="Helvetica,sans-Serif" font-size="10.00" fill="#000000">+ setObject()</text>
<text text-anchor="start" x="563" y="-415.5" font-family="Helvetica,sans-Serif" font-size="10.00" fill="#000000">+ setObject()</text>
<text text-anchor="start" x="563" y="-404.5" font-family="Helvetica,sans-Serif" font-size="10.00" fill="#000000">+ setHash()</text>
<text text-anchor="start" x="563" y="-393.5" font-family="Helvetica,sans-Serif" font-size="10.00" fill="#000000">+ spec()</text>
<text text-anchor="start" x="563" y="-382.5" font-family="Helvetica,sans-Serif" font-size="10.00" fill="#000000">+ operator&#45;&gt;()</text>
<text text-anchor="start" x="563" y="-371.5" font-family="Helvetica,sans-Serif" font-size="10.00" fill="#000000">+ operator*()</text>
<text text-anchor="start" x="563" y="-360.5" font-family="Helvetica,sans-Serif" font-size="10.00" fill="#000000">+ ref()</text>
</a>
</g>
</g>
<!-- Node3&#45;&gt;Node11 -->
<g id="edge12" class="edge">
<title>Node3&#45;&gt;Node11</title>
<path fill="none" stroke="#404040" d="M885.7208,-584.9262C872.9084,-575.4615 858.1593,-565.2485 844,-557 800.5211,-531.6714 783.9815,-536.1638 741,-510 739.8452,-509.2971 738.6885,-508.5829 737.5305,-507.8583"/>
<polygon fill="none" stroke="#404040" points="737.1604,-507.618 729.9498,-507.7052 727.096,-501.0828 734.3066,-500.9956 737.1604,-507.618"/>
<text text-anchor="middle" x="825.5" y="-531" font-family="Helvetica,sans-Serif" font-size="10.00" fill="#000000"> +policy</text>
</g>
<!-- Node13 -->
<g id="node13" class="node">
<title>Node13</title>
<g id="a_node13"><a xlink:href="../../d4/d79/structo2_1_1framework_1_1OutputObj.html" target="_top" xlink:title="{o2::framework::OutputObj\l\&lt; TH1F \&gt;\n||+ spec()\l+ OutputObj()\l+ OutputObj()\l+ setObject()\l+ setObject()\l+ setObject()\l+ setHash()\l+ operator&#45;\&gt;()\l+ operator*()\l+ ref()\l}">
<polygon fill="none" stroke="#000000" points="734.5,-138.5 734.5,-305.5 877.5,-305.5 877.5,-138.5 734.5,-138.5"/>
<text text-anchor="start" x="742.5" y="-293.5" font-family="Helvetica,sans-Serif" font-size="10.00" fill="#000000">o2::framework::OutputObj</text>
<text text-anchor="middle" x="806" y="-282.5" font-family="Helvetica,sans-Serif" font-size="10.00" fill="#000000">&lt; TH1F &gt;</text>
<polyline fill="none" stroke="#000000" points="734.5,-275.5 877.5,-275.5 "/>
<text text-anchor="middle" x="806" y="-263.5" font-family="Helvetica,sans-Serif" font-size="10.00" fill="#000000"> </text>
<polyline fill="none" stroke="#000000" points="734.5,-256.5 877.5,-256.5 "/>
<text text-anchor="start" x="742.5" y="-244.5" font-family="Helvetica,sans-Serif" font-size="10.00" fill="#000000">+ spec()</text>
<text text-anchor="start" x="742.5" y="-233.5" font-family="Helvetica,sans-Serif" font-size="10.00" fill="#000000">+ OutputObj()</text>
<text text-anchor="start" x="742.5" y="-222.5" font-family="Helvetica,sans-Serif" font-size="10.00" fill="#000000">+ OutputObj()</text>
<text text-anchor="start" x="742.5" y="-211.5" font-family="Helvetica,sans-Serif" font-size="10.00" fill="#000000">+ setObject()</text>
<text text-anchor="start" x="742.5" y="-200.5" font-family="Helvetica,sans-Serif" font-size="10.00" fill="#000000">+ setObject()</text>
<text text-anchor="start" x="742.5" y="-189.5" font-family="Helvetica,sans-Serif" font-size="10.00" fill="#000000">+ setObject()</text>
<text text-anchor="start" x="742.5" y="-178.5" font-family="Helvetica,sans-Serif" font-size="10.00" fill="#000000">+ setHash()</text>
<text text-anchor="start" x="742.5" y="-167.5" font-family="Helvetica,sans-Serif" font-size="10.00" fill="#000000">+ operator&#45;&gt;()</text>
<text text-anchor="start" x="742.5" y="-156.5" font-family="Helvetica,sans-Serif" font-size="10.00" fill="#000000">+ operator*()</text>
<text text-anchor="start" x="742.5" y="-145.5" font-family="Helvetica,sans-Serif" font-size="10.00" fill="#000000">+ ref()</text>
</a>
</g>
</g>
<!-- Node3&#45;&gt;Node13 -->
<g id="edge19" class="edge">
<title>Node3&#45;&gt;Node13</title>
<path fill="none" stroke="#404040" d="M954.0353,-584.7961C972.837,-565.708 994.843,-538.901 1005,-510 1028.1357,-444.1693 1038.1041,-414.4252 1005,-353 980.2689,-307.1111 931.6583,-274.6553 888.6739,-253.528"/>
<polygon fill="none" stroke="#404040" points="888.4356,-253.4149 881.2998,-254.454 877.596,-248.2668 884.7318,-247.2276 888.4356,-253.4149"/>
<text text-anchor="middle" x="1046.5" y="-429" font-family="Helvetica,sans-Serif" font-size="10.00" fill="#000000"> +policy</text>
</g>
<!-- Node4 -->
<g id="node4" class="node">
<title>Node4</title>
<polygon fill="none" stroke="#bfbfbf" points="440.5,-734 440.5,-791 469.5,-791 469.5,-734 440.5,-734"/>
<text text-anchor="middle" x="455" y="-779" font-family="Helvetica,sans-Serif" font-size="10.00" fill="#000000">int</text>
<polyline fill="none" stroke="#bfbfbf" points="440.5,-772 469.5,-772 "/>
<text text-anchor="middle" x="455" y="-760" font-family="Helvetica,sans-Serif" font-size="10.00" fill="#000000"> </text>
<polyline fill="none" stroke="#bfbfbf" points="440.5,-753 469.5,-753 "/>
<text text-anchor="middle" x="455" y="-741" font-family="Helvetica,sans-Serif" font-size="10.00" fill="#000000"> </text>
</g>
<!-- Node4&#45;&gt;Node2 -->
<g id="edge3" class="edge">
<title>Node4&#45;&gt;Node2</title>
<path fill="none" stroke="#404040" d="M440.419,-748.9443C403.8249,-713.7968 308.6308,-615.1131 275,-510 253.7365,-443.541 251.8724,-418.8335 275,-353 281.0624,-335.743 290.4621,-319.0747 301.1986,-303.7435"/>
<polygon fill="none" stroke="#404040" points="301.3383,-303.5527 301.654,-296.3485 308.4254,-293.8691 308.1097,-301.0733 301.3383,-303.5527"/>
<text text-anchor="middle" x="303" y="-531" font-family="Helvetica,sans-Serif" font-size="10.00" fill="#000000"> +label</text>
</g>
<!-- Node6 -->
<g id="node6" class="node">
<title>Node6</title>
<g id="a_node6"><a xlink:href="../../da/d96/structo2_1_1framework_1_1InputSpec.html" target="_top" xlink:title="{o2::framework::InputSpec\n||+ InputSpec()\l+ InputSpec()\l+ InputSpec()\l+ InputSpec()\l+ InputSpec()\l+ operator==()\l}">
<polygon fill="none" stroke="#000000" points="136,-557.5 136,-669.5 278,-669.5 278,-557.5 136,-557.5"/>
<text text-anchor="middle" x="207" y="-657.5" font-family="Helvetica,sans-Serif" font-size="10.00" fill="#000000">o2::framework::InputSpec</text>
<polyline fill="none" stroke="#000000" points="136,-650.5 278,-650.5 "/>
<text text-anchor="middle" x="207" y="-638.5" font-family="Helvetica,sans-Serif" font-size="10.00" fill="#000000"> </text>
<polyline fill="none" stroke="#000000" points="136,-631.5 278,-631.5 "/>
<text text-anchor="start" x="144" y="-619.5" font-family="Helvetica,sans-Serif" font-size="10.00" fill="#000000">+ InputSpec()</text>
<text text-anchor="start" x="144" y="-608.5" font-family="Helvetica,sans-Serif" font-size="10.00" fill="#000000">+ InputSpec()</text>
<text text-anchor="start" x="144" y="-597.5" font-family="Helvetica,sans-Serif" font-size="10.00" fill="#000000">+ InputSpec()</text>
<text text-anchor="start" x="144" y="-586.5" font-family="Helvetica,sans-Serif" font-size="10.00" fill="#000000">+ InputSpec()</text>
<text text-anchor="start" x="144" y="-575.5" font-family="Helvetica,sans-Serif" font-size="10.00" fill="#000000">+ InputSpec()</text>
<text text-anchor="start" x="144" y="-564.5" font-family="Helvetica,sans-Serif" font-size="10.00" fill="#000000">+ operator==()</text>
</a>
</g>
</g>
<!-- Node4&#45;&gt;Node6 -->
<g id="edge8" class="edge">
<title>Node4&#45;&gt;Node6</title>
<path fill="none" stroke="#404040" d="M440.3267,-760.8997C406.1651,-756.5294 319.9742,-741.7181 264,-699 256.621,-693.3686 249.8869,-686.4943 243.8404,-679.1151"/>
<polygon fill="none" stroke="#404040" points="243.8269,-679.0973 237.0084,-676.7502 236.5524,-669.5536 243.3709,-671.9006 243.8269,-679.0973"/>
<text text-anchor="middle" x="288" y="-691" font-family="Helvetica,sans-Serif" font-size="10.00" fill="#000000"> +binding</text>
</g>
<!-- Node4&#45;&gt;Node11 -->
<g id="edge13" class="edge">
<title>Node4&#45;&gt;Node11</title>
<path fill="none" stroke="#404040" d="M469.5951,-736.527C495.4705,-690.48 550.4968,-592.5568 591.2582,-520.0191"/>
<polygon fill="none" stroke="#404040" points="591.2848,-519.9716 590.737,-512.7813 597.1635,-509.5102 597.7113,-516.7004 591.2848,-519.9716"/>
<text text-anchor="middle" x="587" y="-611" font-family="Helvetica,sans-Serif" font-size="10.00" fill="#000000"> +label</text>
</g>
<!-- Node4&#45;&gt;Node13 -->
<g id="edge20" class="edge">
<title>Node4&#45;&gt;Node13</title>
<path fill="none" stroke="#404040" d="M469.5512,-761.8679C547.4061,-758.2211 914.4346,-737.6153 1001,-670 1114.7074,-581.1844 1147.1324,-475.562 1071,-353 1031.567,-289.5187 951.2545,-255.8706 889.3261,-238.656"/>
<polygon fill="none" stroke="#404040" points="889.1923,-238.6203 882.3643,-240.9395 877.5974,-235.5287 884.4254,-233.2096 889.1923,-238.6203"/>
<text text-anchor="middle" x="1123" y="-531" font-family="Helvetica,sans-Serif" font-size="10.00" fill="#000000"> +label</text>
</g>
<!-- Node5 -->
<g id="node5" class="node">
<title>Node5</title>
<polygon fill="none" stroke="#bfbfbf" points="452,-585 452,-642 490,-642 490,-585 452,-585"/>
<text text-anchor="middle" x="471" y="-630" font-family="Helvetica,sans-Serif" font-size="10.00" fill="#000000">bool</text>
<polyline fill="none" stroke="#bfbfbf" points="452,-623 490,-623 "/>
<text text-anchor="middle" x="471" y="-611" font-family="Helvetica,sans-Serif" font-size="10.00" fill="#000000"> </text>
<polyline fill="none" stroke="#bfbfbf" points="452,-604 490,-604 "/>
<text text-anchor="middle" x="471" y="-592" font-family="Helvetica,sans-Serif" font-size="10.00" fill="#000000"> </text>
</g>
<!-- Node5&#45;&gt;Node2 -->
<g id="edge4" class="edge">
<title>Node5&#45;&gt;Node2</title>
<path fill="none" stroke="#404040" d="M451.9968,-596.2239C432.6075,-577.2431 403.6275,-544.7982 391,-510 368.7313,-448.6331 366.3038,-375.0119 369.2776,-317.5666"/>
<polygon fill="none" stroke="#404040" points="369.2789,-317.5431 365.6409,-311.317 369.989,-305.5642 373.6269,-311.7903 369.2789,-317.5431"/>
<text text-anchor="middle" x="422" y="-429" font-family="Helvetica,sans-Serif" font-size="10.00" fill="#000000"> +isdangling</text>
</g>
<!-- Node5&#45;&gt;Node11 -->
<g id="edge15" class="edge">
<title>Node5&#45;&gt;Node11</title>
<path fill="none" stroke="#404040" d="M476.8311,-584.8992C481.7565,-566.7924 490.4139,-543.8843 505,-528 517.0992,-514.8239 525.8876,-519.5716 541,-510 542.1421,-509.2767 543.2867,-508.543 544.4332,-507.7999"/>
<polygon fill="none" stroke="#404040" points="544.8038,-507.5522 547.5685,-500.8921 554.7796,-500.8825 552.0149,-507.5426 544.8038,-507.5522"/>
<text text-anchor="middle" x="536" y="-531" font-family="Helvetica,sans-Serif" font-size="10.00" fill="#000000"> +isdangling</text>
</g>
<!-- Node5&#45;&gt;Node13 -->
<g id="edge21" class="edge">
<title>Node5&#45;&gt;Node13</title>
<path fill="none" stroke="#404040" d="M468.6724,-584.6206C464.4358,-524.7133 458.1227,-389.4676 484,-353 538.6185,-276.0289 646.6668,-244.2122 722.4853,-231.1057"/>
<polygon fill="none" stroke="#404040" points="722.5219,-231.0998 727.7958,-226.1819 734.3638,-229.1588 729.0899,-234.0766 722.5219,-231.0998"/>
<text text-anchor="middle" x="515" y="-429" font-family="Helvetica,sans-Serif" font-size="10.00" fill="#000000"> +isdangling</text>
</g>
<!-- Node6&#45;&gt;Node2 -->
<g id="edge5" class="edge">
<title>Node6&#45;&gt;Node2</title>
<path fill="none" stroke="#404040" d="M135.8004,-576.0352C111.5865,-559.3295 87.301,-537.2046 74,-510 43.3512,-447.3136 35.5765,-411.2458 74,-353 123.0585,-278.6328 224.0048,-246.3268 296.5517,-232.3925"/>
<polygon fill="none" stroke="#404040" points="296.5848,-232.3865 301.7692,-227.3743 308.3899,-230.2321 303.2055,-235.2443 296.5848,-232.3865"/>
<text text-anchor="middle" x="91" y="-429" font-family="Helvetica,sans-Serif" font-size="10.00" fill="#000000"> +spec</text>
</g>
<!-- Node6&#45;&gt;Node11 -->
<g id="edge16" class="edge">
<title>Node6&#45;&gt;Node11</title>
<path fill="none" stroke="#404040" d="M278.0321,-587.0424C328.1595,-568.9535 397.1365,-545.2273 459,-528 494.9445,-517.9905 507.2546,-525.9199 541,-510 542.0261,-509.5159 543.0514,-509.0196 544.0754,-508.5118"/>
<polygon fill="none" stroke="#404040" points="544.4067,-508.334 547.8028,-501.9727 554.981,-502.6608 551.585,-509.0222 544.4067,-508.334"/>
<text text-anchor="middle" x="476" y="-531" font-family="Helvetica,sans-Serif" font-size="10.00" fill="#000000"> +spec</text>
</g>
<!-- Node6&#45;&gt;Node13 -->
<g id="edge22" class="edge">
<title>Node6&#45;&gt;Node13</title>
<path fill="none" stroke="#404040" d="M227.1828,-557.2969C252.6138,-489.3877 296.9825,-380.7601 330,-353 360.2586,-327.5595 594.1196,-270.7511 722.4093,-240.9991"/>
<polygon fill="none" stroke="#404040" points="722.4149,-240.9979 727.3591,-235.7486 734.1062,-238.2936 729.162,-243.5429 722.4149,-240.9979"/>
<text text-anchor="middle" x="347" y="-429" font-family="Helvetica,sans-Serif" font-size="10.00" fill="#000000"> +spec</text>
</g>
<!-- Node7 -->
<g id="node7" class="node">
<title>Node7</title>
<polygon fill="none" stroke="#bfbfbf" points="0,-734 0,-791 88,-791 88,-734 0,-734"/>
<text text-anchor="middle" x="44" y="-779" font-family="Helvetica,sans-Serif" font-size="10.00" fill="#000000">enum Lifetime</text>
<polyline fill="none" stroke="#bfbfbf" points="0,-772 88,-772 "/>
<text text-anchor="middle" x="44" y="-760" font-family="Helvetica,sans-Serif" font-size="10.00" fill="#000000"> </text>
<polyline fill="none" stroke="#bfbfbf" points="0,-753 88,-753 "/>
<text text-anchor="middle" x="44" y="-741" font-family="Helvetica,sans-Serif" font-size="10.00" fill="#000000"> </text>
</g>
<!-- Node7&#45;&gt;Node6 -->
<g id="edge6" class="edge">
<title>Node7&#45;&gt;Node6</title>
<path fill="none" stroke="#404040" d="M75.428,-733.7713C92.8318,-717.8624 115.2091,-697.407 136.5556,-677.894"/>
<polygon fill="none" stroke="#404040" points="136.7663,-677.7013 138.4961,-670.7008 145.6235,-669.6049 143.8937,-676.6055 136.7663,-677.7013"/>
<text text-anchor="middle" x="151" y="-691" font-family="Helvetica,sans-Serif" font-size="10.00" fill="#000000"> +lifetime</text>
</g>
<!-- Node8 -->
<g id="node8" class="node">
<title>Node8</title>
<polygon fill="none" stroke="#bfbfbf" points="106,-717.5 106,-807.5 270,-807.5 270,-717.5 106,-717.5"/>
<text text-anchor="start" x="114" y="-795.5" font-family="Helvetica,sans-Serif" font-size="10.00" fill="#000000">variant&lt; o2::framework</text>
<text text-anchor="start" x="114" y="-784.5" font-family="Helvetica,sans-Serif" font-size="10.00" fill="#000000">::ConcreteDataMatcher,</text>
<text text-anchor="start" x="114" y="-773.5" font-family="Helvetica,sans-Serif" font-size="10.00" fill="#000000"> o2::framework::data_matcher</text>
<text text-anchor="middle" x="188" y="-762.5" font-family="Helvetica,sans-Serif" font-size="10.00" fill="#000000">::DataDescriptorMatcher &gt;</text>
<polyline fill="none" stroke="#bfbfbf" points="106,-755.5 270,-755.5 "/>
<text text-anchor="middle" x="188" y="-743.5" font-family="Helvetica,sans-Serif" font-size="10.00" fill="#000000"> </text>
<polyline fill="none" stroke="#bfbfbf" points="106,-736.5 270,-736.5 "/>
<text text-anchor="middle" x="188" y="-724.5" font-family="Helvetica,sans-Serif" font-size="10.00" fill="#000000"> </text>
</g>
<!-- Node8&#45;&gt;Node6 -->
<g id="edge7" class="edge">
<title>Node8&#45;&gt;Node6</title>
<path fill="none" stroke="#404040" d="M186.9846,-717.4766C187.2163,-707.7286 187.8043,-697.4971 189,-688 189.2571,-685.9578 189.5489,-683.8904 189.8702,-681.8083"/>
<polygon fill="none" stroke="#404040" points="189.9049,-681.6119 187.0124,-675.0063 191.9974,-669.7958 194.8899,-676.4014 189.9049,-681.6119"/>
<text text-anchor="middle" x="215" y="-691" font-family="Helvetica,sans-Serif" font-size="10.00" fill="#000000"> +matcher</text>
</g>
<!-- Node9 -->
<g id="node9" class="node">
<title>Node9</title>
<polygon fill="none" stroke="#bfbfbf" points="117,-403 117,-460 233,-460 233,-403 117,-403"/>
<text text-anchor="middle" x="175" y="-448" font-family="Helvetica,sans-Serif" font-size="10.00" fill="#000000">shared_ptr&lt; TH2F &gt;</text>
<polyline fill="none" stroke="#bfbfbf" points="117,-441 233,-441 "/>
<text text-anchor="middle" x="175" y="-429" font-family="Helvetica,sans-Serif" font-size="10.00" fill="#000000"> </text>
<polyline fill="none" stroke="#bfbfbf" points="117,-422 233,-422 "/>
<text text-anchor="middle" x="175" y="-410" font-family="Helvetica,sans-Serif" font-size="10.00" fill="#000000"> </text>
</g>
<!-- Node9&#45;&gt;Node2 -->
<g id="edge9" class="edge">
<title>Node9&#45;&gt;Node2</title>
<path fill="none" stroke="#404040" d="M177.0932,-402.8343C180.0857,-379.5178 187.3534,-346.8498 205,-324 228.6565,-293.3682 264.3173,-270.2221 297.2883,-253.787"/>
<polygon fill="none" stroke="#404040" points="297.531,-253.6703 301.2046,-247.4651 308.3454,-248.4695 304.6718,-254.6747 297.531,-253.6703"/>
<text text-anchor="middle" x="226" y="-327" font-family="Helvetica,sans-Serif" font-size="10.00" fill="#000000"> +object</text>
</g>
<!-- Node10 -->
<g id="node10" class="node">
<title>Node10</title>
<polygon fill="none" stroke="#bfbfbf" points="773.5,-585 773.5,-642 834.5,-642 834.5,-585 773.5,-585"/>
<text text-anchor="middle" x="804" y="-630" font-family="Helvetica,sans-Serif" font-size="10.00" fill="#000000">unsigned</text>
<polyline fill="none" stroke="#bfbfbf" points="773.5,-623 834.5,-623 "/>
<text text-anchor="middle" x="804" y="-611" font-family="Helvetica,sans-Serif" font-size="10.00" fill="#000000"> </text>
<polyline fill="none" stroke="#bfbfbf" points="773.5,-604 834.5,-604 "/>
<text text-anchor="middle" x="804" y="-592" font-family="Helvetica,sans-Serif" font-size="10.00" fill="#000000"> </text>
</g>
<!-- Node10&#45;&gt;Node2 -->
<g id="edge10" class="edge">
<title>Node10&#45;&gt;Node2</title>
<path fill="none" stroke="#404040" d="M814.9187,-584.9757C819.7657,-567.3424 822.3284,-544.926 812,-528 802.8885,-513.0683 787.2005,-524.21 777,-510 728.2498,-442.0879 804.4532,-386.5586 749,-324 711.4765,-281.6685 560.7112,-250.535 463.8876,-234.4235"/>
<polygon fill="none" stroke="#404040" points="463.6154,-234.379 457.0477,-237.3564 451.7733,-232.439 458.341,-229.4616 463.6154,-234.379"/>
<text text-anchor="middle" x="811" y="-429" font-family="Helvetica,sans-Serif" font-size="10.00" fill="#000000"> +mTaskHash</text>
</g>
<!-- Node10&#45;&gt;Node11 -->
<g id="edge17" class="edge">
<title>Node10&#45;&gt;Node11</title>
<path fill="none" stroke="#404040" d="M778.0553,-584.9366C767.6775,-574.9113 755.0852,-564.3329 742,-557 716.9691,-542.9729 700.9424,-558.6144 680,-539 674.2944,-533.6562 669.4213,-527.4131 665.2596,-520.6738"/>
<polygon fill="none" stroke="#404040" points="665.0371,-520.2661 658.6515,-516.9159 659.288,-509.7329 665.6736,-513.0831 665.0371,-520.2661"/>
<text text-anchor="middle" x="714" y="-531" font-family="Helvetica,sans-Serif" font-size="10.00" fill="#000000"> +mTaskHash</text>
</g>
<!-- Node10&#45;&gt;Node13 -->
<g id="edge23" class="edge">
<title>Node10&#45;&gt;Node13</title>
<path fill="none" stroke="#404040" d="M821.3317,-584.9637C827.8001,-575.502 835.6249,-565.2813 844,-557 870.1241,-531.1687 894.9369,-542.5358 912,-510 944.408,-448.2047 935.2799,-418.7798 912,-353 905.7948,-335.4664 896.1343,-318.5624 885.1176,-303.0566"/>
<polygon fill="none" stroke="#404040" points="884.86,-302.7098 878.0712,-300.2781 877.7048,-293.0763 884.4935,-295.508 884.86,-302.7098"/>
<text text-anchor="middle" x="967" y="-429" font-family="Helvetica,sans-Serif" font-size="10.00" fill="#000000"> +mTaskHash</text>
</g>
<!-- Node11&#45;&gt;Node2 -->
<g id="edge11" class="edge">
<title>Node11&#45;&gt;Node2</title>
<path fill="none" stroke="#ffa500" d="M546.9097,-355.9754C515.5357,-330.7921 481.1098,-303.159 451.7146,-279.564"/>
<polygon fill="#ffa500" stroke="#ffa500" points="544.8261,-358.791 554.8155,-362.3213 549.2079,-353.332 544.8261,-358.791"/>
<text text-anchor="middle" x="543.5" y="-327" font-family="Helvetica,sans-Serif" font-size="10.00" fill="#000000"> &lt; TH2F &gt;</text>
</g>
<!-- Node11&#45;&gt;Node13 -->
<g id="edge25" class="edge">
<title>Node11&#45;&gt;Node13</title>
<path fill="none" stroke="#ffa500" d="M708.8237,-345.3845C719.1519,-332.2708 729.7972,-318.7545 740.0837,-305.6937"/>
<polygon fill="#ffa500" stroke="#ffa500" points="705.8777,-343.4683 702.4399,-353.4899 711.3769,-347.7995 705.8777,-343.4683"/>
<text text-anchor="middle" x="748.5" y="-327" font-family="Helvetica,sans-Serif" font-size="10.00" fill="#000000"> &lt; TH1F &gt;</text>
</g>
<!-- Node12 -->
<g id="node12" class="node">
<title>Node12</title>
<polygon fill="none" stroke="#bfbfbf" points="635.5,-585 635.5,-642 732.5,-642 732.5,-585 635.5,-585"/>
<text text-anchor="middle" x="684" y="-630" font-family="Helvetica,sans-Serif" font-size="10.00" fill="#000000">shared_ptr&lt; T &gt;</text>
<polyline fill="none" stroke="#bfbfbf" points="635.5,-623 732.5,-623 "/>
<text text-anchor="middle" x="684" y="-611" font-family="Helvetica,sans-Serif" font-size="10.00" fill="#000000"> </text>
<polyline fill="none" stroke="#bfbfbf" points="635.5,-604 732.5,-604 "/>
<text text-anchor="middle" x="684" y="-592" font-family="Helvetica,sans-Serif" font-size="10.00" fill="#000000"> </text>
</g>
<!-- Node12&#45;&gt;Node11 -->
<g id="edge14" class="edge">
<title>Node12&#45;&gt;Node11</title>
<path fill="none" stroke="#404040" d="M647.7166,-584.6608C634.8212,-572.1615 621.8192,-556.3983 615,-539 612.8366,-533.4804 611.5733,-527.7286 611.0243,-521.8807"/>
<polygon fill="none" stroke="#404040" points="611.0229,-521.7848 606.9326,-515.8461 610.8413,-509.7862 614.9317,-515.725 611.0229,-521.7848"/>
<text text-anchor="middle" x="636" y="-531" font-family="Helvetica,sans-Serif" font-size="10.00" fill="#000000"> +object</text>
</g>
<!-- Node13&#45;&gt;Node1 -->
<g id="edge18" class="edge">
<title>Node13&#45;&gt;Node1</title>
<path fill="none" stroke="#404040" d="M734.2598,-177.4796C678.71,-143.0065 602.8331,-95.9189 551.5377,-64.0861"/>
<polygon fill="none" stroke="#404040" points="551.4969,-64.0608 544.2896,-64.2957 541.3007,-57.7332 548.508,-57.4983 551.4969,-64.0608"/>
<text text-anchor="middle" x="663.5" y="-112" font-family="Helvetica,sans-Serif" font-size="10.00" fill="#000000"> +etaDiff</text>
<text text-anchor="middle" x="663.5" y="-101" font-family="Helvetica,sans-Serif" font-size="10.00" fill="#000000">+ptRes</text>
<text text-anchor="middle" x="663.5" y="-90" font-family="Helvetica,sans-Serif" font-size="10.00" fill="#000000">+ptDiff</text>
<text text-anchor="middle" x="663.5" y="-79" font-family="Helvetica,sans-Serif" font-size="10.00" fill="#000000">+phiDiff</text>
</g>
<!-- Node14 -->
<g id="node14" class="node">
<title>Node14</title>
<polygon fill="none" stroke="#bfbfbf" points="1145,-403 1145,-460 1261,-460 1261,-403 1145,-403"/>
<text text-anchor="middle" x="1203" y="-448" font-family="Helvetica,sans-Serif" font-size="10.00" fill="#000000">shared_ptr&lt; TH1F &gt;</text>
<polyline fill="none" stroke="#bfbfbf" points="1145,-441 1261,-441 "/>
<text text-anchor="middle" x="1203" y="-429" font-family="Helvetica,sans-Serif" font-size="10.00" fill="#000000"> </text>
<polyline fill="none" stroke="#bfbfbf" points="1145,-422 1261,-422 "/>
<text text-anchor="middle" x="1203" y="-410" font-family="Helvetica,sans-Serif" font-size="10.00" fill="#000000"> </text>
</g>
<!-- Node14&#45;&gt;Node13 -->
<g id="edge24" class="edge">
<title>Node14&#45;&gt;Node13</title>
<path fill="none" stroke="#404040" d="M1190.5415,-402.8178C1178.5944,-378.5178 1158.3374,-344.4552 1131,-324 1059.6077,-270.5807 959.5724,-244.7037 889.3994,-232.4563"/>
<polygon fill="none" stroke="#404040" points="889.3664,-232.4508 882.7871,-235.4027 877.5318,-230.4649 884.1111,-227.513 889.3664,-232.4508"/>
<text text-anchor="middle" x="1162" y="-327" font-family="Helvetica,sans-Serif" font-size="10.00" fill="#000000"> +object</text>
</g>
</g>
</svg>
