<?xml version="1.0" encoding="UTF-8" standalone="no"?>
<!DOCTYPE svg PUBLIC "-//W3C//DTD SVG 1.1//EN"
 "http://www.w3.org/Graphics/SVG/1.1/DTD/svg11.dtd">
<!-- Generated by graphviz version 2.40.1 (20161225.0304)
 -->
<!-- Title: o2::data_flow::SubframeMetadata Pages: 1 -->
<svg width="188pt" height="182pt"
 viewBox="0.00 0.00 188.00 182.00" xmlns="http://www.w3.org/2000/svg" xmlns:xlink="http://www.w3.org/1999/xlink">
<g id="graph0" class="graph" transform="scale(1 1) rotate(0) translate(4 178)">
<title>o2::data_flow::SubframeMetadata</title>
<!-- Node1 -->
<g id="node1" class="node">
<title>Node1</title>
<polygon fill="#bfbfbf" stroke="#000000" points="0,-.5 0,-57.5 180,-57.5 180,-.5 0,-.5"/>
<text text-anchor="middle" x="90" y="-45.5" font-family="Helvetica,sans-Serif" font-size="10.00" fill="#000000">o2::data_flow::SubframeMetadata</text>
<polyline fill="none" stroke="#000000" points="0,-38.5 180,-38.5 "/>
<text text-anchor="middle" x="90" y="-26.5" font-family="Helvetica,sans-Serif" font-size="10.00" fill="#000000"> </text>
<polyline fill="none" stroke="#000000" points="0,-19.5 180,-19.5 "/>
<text text-anchor="middle" x="90" y="-7.5" font-family="Helvetica,sans-Serif" font-size="10.00" fill="#000000"> </text>
</g>
<!-- Node2 -->
<g id="node2" class="node">
<title>Node2</title>
<polygon fill="none" stroke="#bfbfbf" points="38.5,-116.5 38.5,-173.5 67.5,-173.5 67.5,-116.5 38.5,-116.5"/>
<text text-anchor="middle" x="53" y="-161.5" font-family="Helvetica,sans-Serif" font-size="10.00" fill="#000000">int</text>
<polyline fill="none" stroke="#bfbfbf" points="38.5,-154.5 67.5,-154.5 "/>
<text text-anchor="middle" x="53" y="-142.5" font-family="Helvetica,sans-Serif" font-size="10.00" fill="#000000"> </text>
<polyline fill="none" stroke="#bfbfbf" points="38.5,-135.5 67.5,-135.5 "/>
<text text-anchor="middle" x="53" y="-123.5" font-family="Helvetica,sans-Serif" font-size="10.00" fill="#000000"> </text>
</g>
<!-- Node2&#45;&gt;Node1 -->
<g id="edge1" class="edge">
<title>Node2&#45;&gt;Node1</title>
<path fill="none" stroke="#404040" d="M49.4324,-116.4353C48.8461,-103.7322 49.5611,-88.7895 54,-76 54.9384,-73.2963 56.0985,-70.6248 57.421,-68.0104"/>
<polygon fill="none" stroke="#404040" points="57.4594,-67.9462 57.1073,-60.7436 63.6203,-57.6484 63.9724,-64.8509 57.4594,-67.9462"/>
<text text-anchor="middle" x="79.5" y="-84.5" font-family="Helvetica,sans-Serif" font-size="10.00" fill="#000000"> +flpIndex</text>
</g>
<!-- Node3 -->
<g id="node3" class="node">
<title>Node3</title>
<polygon fill="none" stroke="#bfbfbf" points="96.5,-116.5 96.5,-173.5 157.5,-173.5 157.5,-116.5 96.5,-116.5"/>
<text text-anchor="middle" x="127" y="-161.5" font-family="Helvetica,sans-Serif" font-size="10.00" fill="#000000">unsigned</text>
<polyline fill="none" stroke="#bfbfbf" points="96.5,-154.5 157.5,-154.5 "/>
<text text-anchor="middle" x="127" y="-142.5" font-family="Helvetica,sans-Serif" font-size="10.00" fill="#000000"> </text>
<polyline fill="none" stroke="#bfbfbf" points="96.5,-135.5 157.5,-135.5 "/>
<text text-anchor="middle" x="127" y="-123.5" font-family="Helvetica,sans-Serif" font-size="10.00" fill="#000000"> </text>
</g>
<!-- Node3&#45;&gt;Node1 -->
<g id="edge2" class="edge">
<title>Node3&#45;&gt;Node1</title>
<path fill="none" stroke="#404040" d="M117.8539,-116.3258C113.3623,-102.2439 107.8723,-85.0322 102.9574,-69.6233"/>
<polygon fill="none" stroke="#404040" points="102.8157,-69.1788 97.1816,-64.6781 99.1691,-57.7463 104.8033,-62.247 102.8157,-69.1788"/>
<text text-anchor="middle" x="139" y="-90" font-family="Helvetica,sans-Serif" font-size="10.00" fill="#000000"> +duration</text>
<text text-anchor="middle" x="139" y="-79" font-family="Helvetica,sans-Serif" font-size="10.00" fill="#000000">+startTime</text>
</g>
</g>
</svg>
