<?xml version="1.0" encoding="UTF-8" standalone="no"?>
<!DOCTYPE svg PUBLIC "-//W3C//DTD SVG 1.1//EN"
 "http://www.w3.org/Graphics/SVG/1.1/DTD/svg11.dtd">
<!-- Generated by graphviz version 2.40.1 (20161225.0304)
 -->
<!-- Title: nlohmann::detail::dtoa_impl::diyfp Pages: 1 -->
<svg width="145pt" height="248pt"
 viewBox="0.00 0.00 145.00 248.00" xmlns="http://www.w3.org/2000/svg" xmlns:xlink="http://www.w3.org/1999/xlink">
<g id="graph0" class="graph" transform="scale(1 1) rotate(0) translate(4 244)">
<title>nlohmann::detail::dtoa_impl::diyfp</title>
<!-- Node1 -->
<g id="node1" class="node">
<title>Node1</title>
<polygon fill="#bfbfbf" stroke="#000000" points="0,-.5 0,-123.5 127,-123.5 127,-.5 0,-.5"/>
<text text-anchor="start" x="8" y="-111.5" font-family="Helvetica,sans-Serif" font-size="10.00" fill="#000000">nlohmann::detail::dtoa</text>
<text text-anchor="middle" x="63.5" y="-100.5" font-family="Helvetica,sans-Serif" font-size="10.00" fill="#000000">_impl::diyfp</text>
<polyline fill="none" stroke="#000000" points="0,-93.5 127,-93.5 "/>
<text text-anchor="middle" x="63.5" y="-81.5" font-family="Helvetica,sans-Serif" font-size="10.00" fill="#000000"> </text>
<polyline fill="none" stroke="#000000" points="0,-74.5 127,-74.5 "/>
<text text-anchor="start" x="8" y="-62.5" font-family="Helvetica,sans-Serif" font-size="10.00" fill="#000000">+ diyfp()</text>
<text text-anchor="start" x="8" y="-51.5" font-family="Helvetica,sans-Serif" font-size="10.00" fill="#000000">+ diyfp()</text>
<text text-anchor="start" x="8" y="-40.5" font-family="Helvetica,sans-Serif" font-size="10.00" fill="#000000">+ sub()</text>
<text text-anchor="start" x="8" y="-29.5" font-family="Helvetica,sans-Serif" font-size="10.00" fill="#000000">+ mul()</text>
<text text-anchor="start" x="8" y="-18.5" font-family="Helvetica,sans-Serif" font-size="10.00" fill="#000000">+ normalize()</text>
<text text-anchor="start" x="8" y="-7.5" font-family="Helvetica,sans-Serif" font-size="10.00" fill="#000000">+ normalize_to()</text>
</g>
<!-- Node2 -->
<g id="node2" class="node">
<title>Node2</title>
<polygon fill="none" stroke="#bfbfbf" points="7,-182.5 7,-239.5 36,-239.5 36,-182.5 7,-182.5"/>
<text text-anchor="middle" x="21.5" y="-227.5" font-family="Helvetica,sans-Serif" font-size="10.00" fill="#000000">int</text>
<polyline fill="none" stroke="#bfbfbf" points="7,-220.5 36,-220.5 "/>
<text text-anchor="middle" x="21.5" y="-208.5" font-family="Helvetica,sans-Serif" font-size="10.00" fill="#000000"> </text>
<polyline fill="none" stroke="#bfbfbf" points="7,-201.5 36,-201.5 "/>
<text text-anchor="middle" x="21.5" y="-189.5" font-family="Helvetica,sans-Serif" font-size="10.00" fill="#000000"> </text>
</g>
<!-- Node2&#45;&gt;Node1 -->
<g id="edge1" class="edge">
<title>Node2&#45;&gt;Node1</title>
<path fill="none" stroke="#404040" d="M19.0157,-182.4242C18.6611,-169.8551 19.2578,-155.0205 22.5,-142 23.0657,-139.7284 23.7058,-137.4483 24.4097,-135.1685"/>
<polygon fill="none" stroke="#404040" points="24.4229,-135.131 22.6447,-128.1426 28.4117,-123.8133 30.1899,-130.8018 24.4229,-135.131"/>
<text text-anchor="middle" x="53.5" y="-156" font-family="Helvetica,sans-Serif" font-size="10.00" fill="#000000"> +kPrecision</text>
<text text-anchor="middle" x="53.5" y="-145" font-family="Helvetica,sans-Serif" font-size="10.00" fill="#000000">+e</text>
</g>
<!-- Node3 -->
<g id="node3" class="node">
<title>Node3</title>
<polygon fill="none" stroke="#bfbfbf" points="76,-182.5 76,-239.5 137,-239.5 137,-182.5 76,-182.5"/>
<text text-anchor="middle" x="106.5" y="-227.5" font-family="Helvetica,sans-Serif" font-size="10.00" fill="#000000">unsigned</text>
<polyline fill="none" stroke="#bfbfbf" points="76,-220.5 137,-220.5 "/>
<text text-anchor="middle" x="106.5" y="-208.5" font-family="Helvetica,sans-Serif" font-size="10.00" fill="#000000"> </text>
<polyline fill="none" stroke="#bfbfbf" points="76,-201.5 137,-201.5 "/>
<text text-anchor="middle" x="106.5" y="-189.5" font-family="Helvetica,sans-Serif" font-size="10.00" fill="#000000"> </text>
</g>
<!-- Node3&#45;&gt;Node1 -->
<g id="edge2" class="edge">
<title>Node3&#45;&gt;Node1</title>
<path fill="none" stroke="#404040" d="M98.2092,-182.2713C94.3029,-168.7355 89.4467,-151.9084 84.6164,-135.1709"/>
<polygon fill="none" stroke="#404040" points="84.6159,-135.1687 79.109,-130.513 81.2885,-123.6392 86.7953,-128.2948 84.6159,-135.1687"/>
<text text-anchor="middle" x="100.5" y="-150.5" font-family="Helvetica,sans-Serif" font-size="10.00" fill="#000000"> +f</text>
</g>
</g>
</svg>
