<?xml version="1.0" encoding="UTF-8" standalone="no"?>
<!DOCTYPE svg PUBLIC "-//W3C//DTD SVG 1.1//EN"
 "http://www.w3.org/Graphics/SVG/1.1/DTD/svg11.dtd">
<!-- Generated by graphviz version 2.40.1 (20161225.0304)
 -->
<!-- Title: o2::tpc::zerosupp_link_based::ContainerT&lt; DataBitSizeT, SignificantBitsT, true &gt; Pages: 1 -->
<svg width="455pt" height="419pt"
 viewBox="0.00 0.00 454.50 419.00" xmlns="http://www.w3.org/2000/svg" xmlns:xlink="http://www.w3.org/1999/xlink">
<g id="graph0" class="graph" transform="scale(1 1) rotate(0) translate(4 415)">
<title>o2::tpc::zerosupp_link_based::ContainerT&lt; DataBitSizeT, SignificantBitsT, true &gt;</title>
<!-- Node1 -->
<g id="node1" class="node">
<title>Node1</title>
<polygon fill="#bfbfbf" stroke="#000000" points="201,-.5 201,-112.5 380,-112.5 380,-.5 201,-.5"/>
<text text-anchor="start" x="209" y="-100.5" font-family="Helvetica,sans-Serif" font-size="10.00" fill="#000000">o2::tpc::zerosupp_link</text>
<text text-anchor="start" x="209" y="-89.5" font-family="Helvetica,sans-Serif" font-size="10.00" fill="#000000">_based::ContainerT&lt; DataBitSize</text>
<text text-anchor="middle" x="290.5" y="-78.5" font-family="Helvetica,sans-Serif" font-size="10.00" fill="#000000">T, SignificantBitsT, true &gt;</text>
<polyline fill="none" stroke="#000000" points="201,-71.5 380,-71.5 "/>
<text text-anchor="middle" x="290.5" y="-59.5" font-family="Helvetica,sans-Serif" font-size="10.00" fill="#000000"> </text>
<polyline fill="none" stroke="#000000" points="201,-52.5 380,-52.5 "/>
<text text-anchor="start" x="209" y="-40.5" font-family="Helvetica,sans-Serif" font-size="10.00" fill="#000000">+ getBunchCrossing()</text>
<text text-anchor="start" x="209" y="-29.5" font-family="Helvetica,sans-Serif" font-size="10.00" fill="#000000">+ getDataWords()</text>
<text text-anchor="start" x="209" y="-18.5" font-family="Helvetica,sans-Serif" font-size="10.00" fill="#000000">+ getTotalWords()</text>
<text text-anchor="start" x="209" y="-7.5" font-family="Helvetica,sans-Serif" font-size="10.00" fill="#000000">+ getChannelBits()</text>
</g>
<!-- Node2 -->
<g id="node2" class="node">
<title>Node2</title>
<g id="a_node2"><a xlink:href="../../d0/de2/structo2_1_1tpc_1_1zerosupp__link__based_1_1Header.html" target="_top" xlink:title="header definition of the zero suppressed link based data format ">
<polygon fill="none" stroke="#000000" points="147,-160.5 147,-239.5 288,-239.5 288,-160.5 147,-160.5"/>
<text text-anchor="start" x="155" y="-227.5" font-family="Helvetica,sans-Serif" font-size="10.00" fill="#000000">o2::tpc::zerosupp_link</text>
<text text-anchor="middle" x="217.5" y="-216.5" font-family="Helvetica,sans-Serif" font-size="10.00" fill="#000000">_based::Header</text>
<polyline fill="none" stroke="#000000" points="147,-209.5 288,-209.5 "/>
<text text-anchor="middle" x="217.5" y="-197.5" font-family="Helvetica,sans-Serif" font-size="10.00" fill="#000000"> </text>
<polyline fill="none" stroke="#000000" points="147,-190.5 288,-190.5 "/>
<text text-anchor="start" x="155" y="-178.5" font-family="Helvetica,sans-Serif" font-size="10.00" fill="#000000">+ getChannelBits()</text>
<text text-anchor="start" x="155" y="-167.5" font-family="Helvetica,sans-Serif" font-size="10.00" fill="#000000">+ hasCorrectMagicWord()</text>
</a>
</g>
</g>
<!-- Node2&#45;&gt;Node1 -->
<g id="edge1" class="edge">
<title>Node2&#45;&gt;Node1</title>
<path fill="none" stroke="#404040" d="M237.6408,-160.4081C243.4509,-148.987 249.9582,-136.1951 256.3678,-123.5955"/>
<polygon fill="none" stroke="#404040" points="256.5143,-123.3075 255.6696,-116.146 261.9553,-112.6118 262.8,-119.7733 256.5143,-123.3075"/>
<text text-anchor="middle" x="275.5" y="-134" font-family="Helvetica,sans-Serif" font-size="10.00" fill="#000000"> +header</text>
</g>
<!-- Node3 -->
<g id="node3" class="node">
<title>Node3</title>
<polygon fill="none" stroke="#bfbfbf" points="0,-353.5 0,-410.5 107,-410.5 107,-353.5 0,-353.5"/>
<text text-anchor="middle" x="53.5" y="-398.5" font-family="Helvetica,sans-Serif" font-size="10.00" fill="#000000">anonymous:+@40</text>
<polyline fill="none" stroke="#bfbfbf" points="0,-391.5 107,-391.5 "/>
<text text-anchor="middle" x="53.5" y="-379.5" font-family="Helvetica,sans-Serif" font-size="10.00" fill="#000000"> </text>
<polyline fill="none" stroke="#bfbfbf" points="0,-372.5 107,-372.5 "/>
<text text-anchor="middle" x="53.5" y="-360.5" font-family="Helvetica,sans-Serif" font-size="10.00" fill="#000000"> </text>
</g>
<!-- Node3&#45;&gt;Node2 -->
<g id="edge2" class="edge">
<title>Node3&#45;&gt;Node2</title>
<path fill="none" stroke="#404040" d="M72.8072,-353.2637C90.942,-327.1839 119.5504,-288.2902 148.5,-258 151.7522,-254.5972 155.1926,-251.1934 158.7322,-247.8357"/>
<polygon fill="none" stroke="#404040" points="158.8474,-247.73 160.5596,-240.7251 167.6843,-239.6114 165.972,-246.6163 158.8474,-247.73"/>
<text text-anchor="middle" x="165.5" y="-294" font-family="Helvetica,sans-Serif" font-size="10.00" fill="#000000"> +@40</text>
</g>
<!-- Node4 -->
<g id="node4" class="node">
<title>Node4</title>
<polygon fill="none" stroke="#bfbfbf" points="125,-353.5 125,-410.5 232,-410.5 232,-353.5 125,-353.5"/>
<text text-anchor="middle" x="178.5" y="-398.5" font-family="Helvetica,sans-Serif" font-size="10.00" fill="#000000">anonymous:+@42</text>
<polyline fill="none" stroke="#bfbfbf" points="125,-391.5 232,-391.5 "/>
<text text-anchor="middle" x="178.5" y="-379.5" font-family="Helvetica,sans-Serif" font-size="10.00" fill="#000000"> </text>
<polyline fill="none" stroke="#bfbfbf" points="125,-372.5 232,-372.5 "/>
<text text-anchor="middle" x="178.5" y="-360.5" font-family="Helvetica,sans-Serif" font-size="10.00" fill="#000000"> </text>
</g>
<!-- Node4&#45;&gt;Node2 -->
<g id="edge3" class="edge">
<title>Node4&#45;&gt;Node2</title>
<path fill="none" stroke="#404040" d="M183.1066,-353.2908C187.3249,-328.0658 194.0333,-290.4319 201.5,-258 202.0185,-255.7478 202.5669,-253.4517 203.1361,-251.1361"/>
<polygon fill="none" stroke="#404040" points="203.1368,-251.1332 200.7506,-244.3283 206.1142,-239.5084 208.5004,-246.3133 203.1368,-251.1332"/>
<text text-anchor="middle" x="218.5" y="-294" font-family="Helvetica,sans-Serif" font-size="10.00" fill="#000000"> +@42</text>
</g>
<!-- Node5 -->
<g id="node5" class="node">
<title>Node5</title>
<polygon fill="none" stroke="#bfbfbf" points="250,-353.5 250,-410.5 311,-410.5 311,-353.5 250,-353.5"/>
<text text-anchor="middle" x="280.5" y="-398.5" font-family="Helvetica,sans-Serif" font-size="10.00" fill="#000000">unsigned</text>
<polyline fill="none" stroke="#bfbfbf" points="250,-391.5 311,-391.5 "/>
<text text-anchor="middle" x="280.5" y="-379.5" font-family="Helvetica,sans-Serif" font-size="10.00" fill="#000000"> </text>
<polyline fill="none" stroke="#bfbfbf" points="250,-372.5 311,-372.5 "/>
<text text-anchor="middle" x="280.5" y="-360.5" font-family="Helvetica,sans-Serif" font-size="10.00" fill="#000000"> </text>
</g>
<!-- Node5&#45;&gt;Node2 -->
<g id="edge4" class="edge">
<title>Node5&#45;&gt;Node2</title>
<path fill="none" stroke="#404040" d="M266.3212,-353.4565C263.5602,-347.4315 260.8096,-341.0617 258.5,-335 245.7835,-301.6242 245.9044,-292.1673 235.5,-258 234.8205,-255.7685 234.124,-253.4895 233.4185,-251.1878"/>
<polygon fill="none" stroke="#404040" points="233.3838,-251.0751 227.7956,-246.5175 229.8532,-239.6062 235.4415,-244.1638 233.3838,-251.0751"/>
<text text-anchor="middle" x="308" y="-327" font-family="Helvetica,sans-Serif" font-size="10.00" fill="#000000"> +magicWord</text>
<text text-anchor="middle" x="308" y="-316" font-family="Helvetica,sans-Serif" font-size="10.00" fill="#000000">+bitMaskLow</text>
<text text-anchor="middle" x="308" y="-305" font-family="Helvetica,sans-Serif" font-size="10.00" fill="#000000">+word0</text>
<text text-anchor="middle" x="308" y="-294" font-family="Helvetica,sans-Serif" font-size="10.00" fill="#000000">+word1</text>
<text text-anchor="middle" x="308" y="-283" font-family="Helvetica,sans-Serif" font-size="10.00" fill="#000000">+numWordsPayload</text>
<text text-anchor="middle" x="308" y="-272" font-family="Helvetica,sans-Serif" font-size="10.00" fill="#000000">+bitMaskHigh</text>
<text text-anchor="middle" x="308" y="-261" font-family="Helvetica,sans-Serif" font-size="10.00" fill="#000000">+bunchCrossing</text>
</g>
<!-- Node6 -->
<g id="node6" class="node">
<title>Node6</title>
<polygon fill="none" stroke="#bfbfbf" points="357.5,-353.5 357.5,-410.5 401.5,-410.5 401.5,-353.5 357.5,-353.5"/>
<text text-anchor="middle" x="379.5" y="-398.5" font-family="Helvetica,sans-Serif" font-size="10.00" fill="#000000">static</text>
<polyline fill="none" stroke="#bfbfbf" points="357.5,-391.5 401.5,-391.5 "/>
<text text-anchor="middle" x="379.5" y="-379.5" font-family="Helvetica,sans-Serif" font-size="10.00" fill="#000000"> </text>
<polyline fill="none" stroke="#bfbfbf" points="357.5,-372.5 401.5,-372.5 "/>
<text text-anchor="middle" x="379.5" y="-360.5" font-family="Helvetica,sans-Serif" font-size="10.00" fill="#000000"> </text>
</g>
<!-- Node6&#45;&gt;Node2 -->
<g id="edge5" class="edge">
<title>Node6&#45;&gt;Node2</title>
<path fill="none" stroke="#404040" d="M382.3747,-353.2659C383.5051,-325.5095 380.6171,-283.9637 357.5,-258 341.156,-239.6435 327.0777,-247.6681 299.8736,-240.1234"/>
<polygon fill="none" stroke="#404040" points="299.6733,-240.0554 292.7059,-241.9142 288.3103,-236.1977 295.2777,-234.3389 299.6733,-240.0554"/>
<text text-anchor="middle" x="414" y="-294" font-family="Helvetica,sans-Serif" font-size="10.00" fill="#000000"> +MagicWord</text>
</g>
<!-- Node7 -->
<g id="node7" class="node">
<title>Node7</title>
<polygon fill="none" stroke="#bfbfbf" points="306,-166 306,-234 423,-234 423,-166 306,-166"/>
<text text-anchor="start" x="314" y="-222" font-family="Helvetica,sans-Serif" font-size="10.00" fill="#000000">Data&lt; DataBitSizeT,</text>
<text text-anchor="middle" x="364.5" y="-211" font-family="Helvetica,sans-Serif" font-size="10.00" fill="#000000"> SignificantBitsT &gt;</text>
<polyline fill="none" stroke="#bfbfbf" points="306,-204 423,-204 "/>
<text text-anchor="middle" x="364.5" y="-192" font-family="Helvetica,sans-Serif" font-size="10.00" fill="#000000"> </text>
<polyline fill="none" stroke="#bfbfbf" points="306,-185 423,-185 "/>
<text text-anchor="middle" x="364.5" y="-173" font-family="Helvetica,sans-Serif" font-size="10.00" fill="#000000"> </text>
</g>
<!-- Node7&#45;&gt;Node1 -->
<g id="edge6" class="edge">
<title>Node7&#45;&gt;Node1</title>
<path fill="none" stroke="#404040" d="M346.963,-165.9925C340.3597,-153.1874 332.6002,-138.1403 324.9836,-123.3702"/>
<polygon fill="none" stroke="#404040" points="324.9813,-123.3657 318.6762,-119.8663 319.4813,-112.7002 325.7864,-116.1996 324.9813,-123.3657"/>
<text text-anchor="middle" x="350.5" y="-134" font-family="Helvetica,sans-Serif" font-size="10.00" fill="#000000"> +data</text>
</g>
</g>
</svg>
