<?xml version="1.0" encoding="UTF-8" standalone="no"?>
<!DOCTYPE svg PUBLIC "-//W3C//DTD SVG 1.1//EN"
 "http://www.w3.org/Graphics/SVG/1.1/DTD/svg11.dtd">
<!-- Generated by graphviz version 2.40.1 (20161225.0304)
 -->
<!-- Title: CTask Pages: 1 -->
<!--zoomable 893 -->
<svg id="main" version="1.1" xmlns="http://www.w3.org/2000/svg" xmlns:xlink="http://www.w3.org/1999/xlink" xml:space="preserve" onload="init(evt)">
<style type="text/css"><![CDATA[
.edge:hover path { stroke: red; }
.edge:hover polygon { stroke: red; fill: red; }
]]></style>
<script type="text/javascript"><![CDATA[
var edges = document.getElementsByTagName('g');
if (edges && edges.length) {
  for (var i=0;i<edges.length;i++) {
    if (edges[i].id.substr(0,4)=='edge') {
      edges[i].setAttribute('class','edge');
    }
  }
}
]]></script>
        <defs>
                <circle id="rim" cx="0" cy="0" r="7"/>
                <circle id="rim2" cx="0" cy="0" r="3.5"/>
                <g id="zoomPlus">
                        <use xlink:href="#rim" fill="#404040">
                                <set attributeName="fill" to="#808080" begin="zoomplus.mouseover" end="zoomplus.mouseout"/>
                        </use>
                        <path d="M-4,0h8M0,-4v8" fill="none" stroke="white" stroke-width="1.5" pointer-events="none"/>
                </g>
                <g id="zoomMin">
                        <use xlink:href="#rim" fill="#404040">
                                <set attributeName="fill" to="#808080" begin="zoomminus.mouseover" end="zoomminus.mouseout"/>
                        </use>
                        <path d="M-4,0h8" fill="none" stroke="white" stroke-width="1.5" pointer-events="none"/>
                </g>
                <g id="dirArrow">
                        <path fill="none" stroke="white" stroke-width="1.5" d="M0,-3.0v7 M-2.5,-0.5L0,-3.0L2.5,-0.5"/>
                </g>
               <g id="resetDef">
                       <use xlink:href="#rim2" fill="#404040">
                               <set attributeName="fill" to="#808080" begin="reset.mouseover" end="reset.mouseout"/>
                       </use>
               </g>
        </defs>

<script type="text/javascript">
var viewWidth = 1119;
var viewHeight = 893;
var sectionId = 'dynsection-0';
</script>
<script xlink:href="../../svgpan.js"/>
<svg id="graph" class="graph">
<g id="viewport">
<title>CTask</title>
<!-- Node1 -->
<g id="node1" class="node">
<title>Node1</title>
<polygon fill="#bfbfbf" stroke="#000000" points="285,-.5 285,-123.5 358,-123.5 358,-.5 285,-.5"/>
<text text-anchor="middle" x="321.5" y="-111.5" font-family="Helvetica,sans-Serif" font-size="10.00" fill="#000000">CTask</text>
<polyline fill="none" stroke="#000000" points="285,-104.5 358,-104.5 "/>
<text text-anchor="middle" x="321.5" y="-92.5" font-family="Helvetica,sans-Serif" font-size="10.00" fill="#000000"> </text>
<polyline fill="none" stroke="#000000" points="285,-85.5 358,-85.5 "/>
<text text-anchor="start" x="293" y="-73.5" font-family="Helvetica,sans-Serif" font-size="10.00" fill="#000000">+ process()</text>
<text text-anchor="start" x="293" y="-62.5" font-family="Helvetica,sans-Serif" font-size="10.00" fill="#000000">+ process()</text>
<text text-anchor="start" x="293" y="-51.5" font-family="Helvetica,sans-Serif" font-size="10.00" fill="#000000">+ init()</text>
<text text-anchor="start" x="293" y="-40.5" font-family="Helvetica,sans-Serif" font-size="10.00" fill="#000000">+ process()</text>
<text text-anchor="start" x="293" y="-29.5" font-family="Helvetica,sans-Serif" font-size="10.00" fill="#000000">+ process()</text>
<text text-anchor="start" x="293" y="-18.5" font-family="Helvetica,sans-Serif" font-size="10.00" fill="#000000">+ process()</text>
<text text-anchor="start" x="293" y="-7.5" font-family="Helvetica,sans-Serif" font-size="10.00" fill="#000000">+ process()</text>
</g>
<!-- Node2 -->
<g id="node2" class="node">
<title>Node2</title>
<g id="a_node2"><a xlink:href="../../d8/d71/structo2_1_1framework_1_1Configurable.html" target="_top" xlink:title="{o2::framework::Configurable\l\&lt; float \&gt;\n||+ Configurable()\l+ operator float()\l+ operator&#45;\&gt;()\l}">
<polygon fill="none" stroke="#000000" points="116,-452.5 116,-542.5 271,-542.5 271,-452.5 116,-452.5"/>
<text text-anchor="start" x="124" y="-530.5" font-family="Helvetica,sans-Serif" font-size="10.00" fill="#000000">o2::framework::Configurable</text>
<text text-anchor="middle" x="193.5" y="-519.5" font-family="Helvetica,sans-Serif" font-size="10.00" fill="#000000">&lt; float &gt;</text>
<polyline fill="none" stroke="#000000" points="116,-512.5 271,-512.5 "/>
<text text-anchor="middle" x="193.5" y="-500.5" font-family="Helvetica,sans-Serif" font-size="10.00" fill="#000000"> </text>
<polyline fill="none" stroke="#000000" points="116,-493.5 271,-493.5 "/>
<text text-anchor="start" x="124" y="-481.5" font-family="Helvetica,sans-Serif" font-size="10.00" fill="#000000">+ Configurable()</text>
<text text-anchor="start" x="124" y="-470.5" font-family="Helvetica,sans-Serif" font-size="10.00" fill="#000000">+ operator float()</text>
<text text-anchor="start" x="124" y="-459.5" font-family="Helvetica,sans-Serif" font-size="10.00" fill="#000000">+ operator&#45;&gt;()</text>
</a>
</g>
</g>
<!-- Node2&#45;&gt;Node1 -->
<g id="edge1" class="edge">
<title>Node2&#45;&gt;Node1</title>
<path fill="none" stroke="#404040" d="M206.836,-452.1263C228.9499,-376.8871 273.4024,-225.6444 299.9954,-135.1659"/>
<polygon fill="none" stroke="#404040" points="300.0021,-135.1429 297.8564,-128.2584 303.3861,-123.6299 305.5318,-130.5144 300.0021,-135.1429"/>
<text text-anchor="middle" x="298.5" y="-285.5" font-family="Helvetica,sans-Serif" font-size="10.00" fill="#000000"> +pTCut</text>
</g>
<!-- Node3 -->
<g id="node3" class="node">
<title>Node3</title>
<g id="a_node3"><a xlink:href="../../d4/dc3/classfloat.html" target="_top" xlink:title="{float\n||}">
<polygon fill="none" stroke="#000000" points="126.5,-651 126.5,-708 164.5,-708 164.5,-651 126.5,-651"/>
<text text-anchor="middle" x="145.5" y="-696" font-family="Helvetica,sans-Serif" font-size="10.00" fill="#000000">float</text>
<polyline fill="none" stroke="#000000" points="126.5,-689 164.5,-689 "/>
<text text-anchor="middle" x="145.5" y="-677" font-family="Helvetica,sans-Serif" font-size="10.00" fill="#000000"> </text>
<polyline fill="none" stroke="#000000" points="126.5,-670 164.5,-670 "/>
<text text-anchor="middle" x="145.5" y="-658" font-family="Helvetica,sans-Serif" font-size="10.00" fill="#000000"> </text>
</a>
</g>
</g>
<!-- Node3&#45;&gt;Node2 -->
<g id="edge2" class="edge">
<title>Node3&#45;&gt;Node2</title>
<path fill="none" stroke="#404040" d="M153.1057,-650.6616C159.9035,-624.8869 170.0623,-586.3678 178.4914,-554.4075"/>
<polygon fill="none" stroke="#404040" points="178.5664,-554.1231 176.2288,-547.3013 181.6266,-542.5198 183.9643,-549.3415 178.5664,-554.1231"/>
<text text-anchor="middle" x="187" y="-597" font-family="Helvetica,sans-Serif" font-size="10.00" fill="#000000"> +value</text>
</g>
<!-- Node4 -->
<g id="node4" class="node">
<title>Node4</title>
<polygon fill="none" stroke="#bfbfbf" points="380,-811 380,-868 409,-868 409,-811 380,-811"/>
<text text-anchor="middle" x="394.5" y="-856" font-family="Helvetica,sans-Serif" font-size="10.00" fill="#000000">int</text>
<polyline fill="none" stroke="#bfbfbf" points="380,-849 409,-849 "/>
<text text-anchor="middle" x="394.5" y="-837" font-family="Helvetica,sans-Serif" font-size="10.00" fill="#000000"> </text>
<polyline fill="none" stroke="#bfbfbf" points="380,-830 409,-830 "/>
<text text-anchor="middle" x="394.5" y="-818" font-family="Helvetica,sans-Serif" font-size="10.00" fill="#000000"> </text>
</g>
<!-- Node4&#45;&gt;Node2 -->
<g id="edge3" class="edge">
<title>Node4&#45;&gt;Node2</title>
<path fill="none" stroke="#404040" d="M379.6752,-836.9935C322.13,-826.9351 114.8953,-787.5475 77.5,-736 48.0091,-695.3483 59.1966,-669.7681 77.5,-623 88.0496,-596.0442 107.406,-571.4067 127.3244,-551.2355"/>
<polygon fill="none" stroke="#404040" points="127.5964,-550.9696 129.0907,-543.915 136.1774,-542.581 134.6831,-549.6356 127.5964,-550.9696"/>
<text text-anchor="middle" x="97.5" y="-682.5" font-family="Helvetica,sans-Serif" font-size="10.00" fill="#000000"> +name</text>
<text text-anchor="middle" x="97.5" y="-671.5" font-family="Helvetica,sans-Serif" font-size="10.00" fill="#000000">+help</text>
</g>
<!-- Node5 -->
<g id="node5" class="node">
<title>Node5</title>
<g id="a_node5"><a xlink:href="../../d8/d71/structo2_1_1framework_1_1Configurable.html" target="_top" xlink:title="{o2::framework::Configurable\&lt; T \&gt;\n||+ Configurable()\l+ operator T()\l+ operator&#45;\&gt;()\l}">
<polygon fill="none" stroke="#000000" points="182.5,-640 182.5,-719 366.5,-719 366.5,-640 182.5,-640"/>
<text text-anchor="middle" x="274.5" y="-707" font-family="Helvetica,sans-Serif" font-size="10.00" fill="#000000">o2::framework::Configurable&lt; T &gt;</text>
<polyline fill="none" stroke="#000000" points="182.5,-700 366.5,-700 "/>
<text text-anchor="middle" x="274.5" y="-688" font-family="Helvetica,sans-Serif" font-size="10.00" fill="#000000"> </text>
<polyline fill="none" stroke="#000000" points="182.5,-681 366.5,-681 "/>
<text text-anchor="start" x="190.5" y="-669" font-family="Helvetica,sans-Serif" font-size="10.00" fill="#000000">+ Configurable()</text>
<text text-anchor="start" x="190.5" y="-658" font-family="Helvetica,sans-Serif" font-size="10.00" fill="#000000">+ operator T()</text>
<text text-anchor="start" x="190.5" y="-647" font-family="Helvetica,sans-Serif" font-size="10.00" fill="#000000">+ operator&#45;&gt;()</text>
</a>
</g>
</g>
<!-- Node4&#45;&gt;Node5 -->
<g id="edge5" class="edge">
<title>Node4&#45;&gt;Node5</title>
<path fill="none" stroke="#404040" d="M379.7997,-823.1816C368.6543,-810.5824 353.1495,-792.5607 340.5,-776 329.1882,-761.1907 317.501,-744.5916 307.1626,-729.3914"/>
<polygon fill="none" stroke="#404040" points="306.9521,-729.0793 300.2808,-726.3418 300.2419,-719.1308 306.9132,-721.8683 306.9521,-729.0793"/>
<text text-anchor="middle" x="360.5" y="-768" font-family="Helvetica,sans-Serif" font-size="10.00" fill="#000000"> +name</text>
<text text-anchor="middle" x="360.5" y="-757" font-family="Helvetica,sans-Serif" font-size="10.00" fill="#000000">+help</text>
</g>
<!-- Node7 -->
<g id="node7" class="node">
<title>Node7</title>
<g id="a_node7"><a xlink:href="../../d4/d79/structo2_1_1framework_1_1OutputObj.html" target="_top" xlink:title="{o2::framework::OutputObj\l\&lt; TH1F \&gt;\n||+ spec()\l+ OutputObj()\l+ OutputObj()\l+ setObject()\l+ setObject()\l+ setObject()\l+ setHash()\l+ operator&#45;\&gt;()\l+ operator*()\l+ ref()\l}">
<polygon fill="none" stroke="#000000" points="610,-204.5 610,-371.5 753,-371.5 753,-204.5 610,-204.5"/>
<text text-anchor="start" x="618" y="-359.5" font-family="Helvetica,sans-Serif" font-size="10.00" fill="#000000">o2::framework::OutputObj</text>
<text text-anchor="middle" x="681.5" y="-348.5" font-family="Helvetica,sans-Serif" font-size="10.00" fill="#000000">&lt; TH1F &gt;</text>
<polyline fill="none" stroke="#000000" points="610,-341.5 753,-341.5 "/>
<text text-anchor="middle" x="681.5" y="-329.5" font-family="Helvetica,sans-Serif" font-size="10.00" fill="#000000"> </text>
<polyline fill="none" stroke="#000000" points="610,-322.5 753,-322.5 "/>
<text text-anchor="start" x="618" y="-310.5" font-family="Helvetica,sans-Serif" font-size="10.00" fill="#000000">+ spec()</text>
<text text-anchor="start" x="618" y="-299.5" font-family="Helvetica,sans-Serif" font-size="10.00" fill="#000000">+ OutputObj()</text>
<text text-anchor="start" x="618" y="-288.5" font-family="Helvetica,sans-Serif" font-size="10.00" fill="#000000">+ OutputObj()</text>
<text text-anchor="start" x="618" y="-277.5" font-family="Helvetica,sans-Serif" font-size="10.00" fill="#000000">+ setObject()</text>
<text text-anchor="start" x="618" y="-266.5" font-family="Helvetica,sans-Serif" font-size="10.00" fill="#000000">+ setObject()</text>
<text text-anchor="start" x="618" y="-255.5" font-family="Helvetica,sans-Serif" font-size="10.00" fill="#000000">+ setObject()</text>
<text text-anchor="start" x="618" y="-244.5" font-family="Helvetica,sans-Serif" font-size="10.00" fill="#000000">+ setHash()</text>
<text text-anchor="start" x="618" y="-233.5" font-family="Helvetica,sans-Serif" font-size="10.00" fill="#000000">+ operator&#45;&gt;()</text>
<text text-anchor="start" x="618" y="-222.5" font-family="Helvetica,sans-Serif" font-size="10.00" fill="#000000">+ operator*()</text>
<text text-anchor="start" x="618" y="-211.5" font-family="Helvetica,sans-Serif" font-size="10.00" fill="#000000">+ ref()</text>
</a>
</g>
</g>
<!-- Node4&#45;&gt;Node7 -->
<g id="edge9" class="edge">
<title>Node4&#45;&gt;Node7</title>
<path fill="none" stroke="#404040" d="M393.2868,-810.742C390.2782,-726.6561 385.5625,-483.1318 428.5,-419 467.4383,-360.8415 540.6281,-326.9527 598.3085,-308.2727"/>
<polygon fill="none" stroke="#404040" points="598.5379,-308.2011 603.0734,-302.595 609.9928,-304.6255 605.4572,-310.2316 598.5379,-308.2011"/>
<text text-anchor="middle" x="412.5" y="-597" font-family="Helvetica,sans-Serif" font-size="10.00" fill="#000000"> +label</text>
</g>
<!-- Node10 -->
<g id="node10" class="node">
<title>Node10</title>
<g id="a_node10"><a xlink:href="../../da/d96/structo2_1_1framework_1_1InputSpec.html" target="_top" xlink:title="{o2::framework::InputSpec\n||+ InputSpec()\l+ InputSpec()\l+ InputSpec()\l+ InputSpec()\l+ InputSpec()\l+ operator==()\l}">
<polygon fill="none" stroke="#000000" points="754.5,-623.5 754.5,-735.5 896.5,-735.5 896.5,-623.5 754.5,-623.5"/>
<text text-anchor="middle" x="825.5" y="-723.5" font-family="Helvetica,sans-Serif" font-size="10.00" fill="#000000">o2::framework::InputSpec</text>
<polyline fill="none" stroke="#000000" points="754.5,-716.5 896.5,-716.5 "/>
<text text-anchor="middle" x="825.5" y="-704.5" font-family="Helvetica,sans-Serif" font-size="10.00" fill="#000000"> </text>
<polyline fill="none" stroke="#000000" points="754.5,-697.5 896.5,-697.5 "/>
<text text-anchor="start" x="762.5" y="-685.5" font-family="Helvetica,sans-Serif" font-size="10.00" fill="#000000">+ InputSpec()</text>
<text text-anchor="start" x="762.5" y="-674.5" font-family="Helvetica,sans-Serif" font-size="10.00" fill="#000000">+ InputSpec()</text>
<text text-anchor="start" x="762.5" y="-663.5" font-family="Helvetica,sans-Serif" font-size="10.00" fill="#000000">+ InputSpec()</text>
<text text-anchor="start" x="762.5" y="-652.5" font-family="Helvetica,sans-Serif" font-size="10.00" fill="#000000">+ InputSpec()</text>
<text text-anchor="start" x="762.5" y="-641.5" font-family="Helvetica,sans-Serif" font-size="10.00" fill="#000000">+ InputSpec()</text>
<text text-anchor="start" x="762.5" y="-630.5" font-family="Helvetica,sans-Serif" font-size="10.00" fill="#000000">+ operator==()</text>
</a>
</g>
</g>
<!-- Node4&#45;&gt;Node10 -->
<g id="edge14" class="edge">
<title>Node4&#45;&gt;Node10</title>
<path fill="none" stroke="#404040" d="M409.2531,-837.2169C457.546,-829.3332 614.6721,-800.4219 743.3427,-736.2254"/>
<polygon fill="none" stroke="#404040" points="743.4338,-736.179 746.9616,-729.8898 754.1239,-730.7273 750.5961,-737.0165 743.4338,-736.179"/>
<text text-anchor="middle" x="724.5" y="-762.5" font-family="Helvetica,sans-Serif" font-size="10.00" fill="#000000"> +binding</text>
</g>
<!-- Node15 -->
<g id="node15" class="node">
<title>Node15</title>
<g id="a_node15"><a xlink:href="../../d4/d79/structo2_1_1framework_1_1OutputObj.html" target="_top" xlink:title="{o2::framework::OutputObj\&lt; T \&gt;\n||+ OutputObj()\l+ OutputObj()\l+ setObject()\l+ setObject()\l+ setObject()\l+ setHash()\l+ spec()\l+ operator&#45;\&gt;()\l+ operator*()\l+ ref()\l}">
<polygon fill="none" stroke="#000000" points="534.5,-419.5 534.5,-575.5 706.5,-575.5 706.5,-419.5 534.5,-419.5"/>
<text text-anchor="middle" x="620.5" y="-563.5" font-family="Helvetica,sans-Serif" font-size="10.00" fill="#000000">o2::framework::OutputObj&lt; T &gt;</text>
<polyline fill="none" stroke="#000000" points="534.5,-556.5 706.5,-556.5 "/>
<text text-anchor="middle" x="620.5" y="-544.5" font-family="Helvetica,sans-Serif" font-size="10.00" fill="#000000"> </text>
<polyline fill="none" stroke="#000000" points="534.5,-537.5 706.5,-537.5 "/>
<text text-anchor="start" x="542.5" y="-525.5" font-family="Helvetica,sans-Serif" font-size="10.00" fill="#000000">+ OutputObj()</text>
<text text-anchor="start" x="542.5" y="-514.5" font-family="Helvetica,sans-Serif" font-size="10.00" fill="#000000">+ OutputObj()</text>
<text text-anchor="start" x="542.5" y="-503.5" font-family="Helvetica,sans-Serif" font-size="10.00" fill="#000000">+ setObject()</text>
<text text-anchor="start" x="542.5" y="-492.5" font-family="Helvetica,sans-Serif" font-size="10.00" fill="#000000">+ setObject()</text>
<text text-anchor="start" x="542.5" y="-481.5" font-family="Helvetica,sans-Serif" font-size="10.00" fill="#000000">+ setObject()</text>
<text text-anchor="start" x="542.5" y="-470.5" font-family="Helvetica,sans-Serif" font-size="10.00" fill="#000000">+ setHash()</text>
<text text-anchor="start" x="542.5" y="-459.5" font-family="Helvetica,sans-Serif" font-size="10.00" fill="#000000">+ spec()</text>
<text text-anchor="start" x="542.5" y="-448.5" font-family="Helvetica,sans-Serif" font-size="10.00" fill="#000000">+ operator&#45;&gt;()</text>
<text text-anchor="start" x="542.5" y="-437.5" font-family="Helvetica,sans-Serif" font-size="10.00" fill="#000000">+ operator*()</text>
<text text-anchor="start" x="542.5" y="-426.5" font-family="Helvetica,sans-Serif" font-size="10.00" fill="#000000">+ ref()</text>
</a>
</g>
</g>
<!-- Node4&#45;&gt;Node15 -->
<g id="edge19" class="edge">
<title>Node4&#45;&gt;Node15</title>
<path fill="none" stroke="#404040" d="M409.023,-836.7292C446.5897,-828.7262 547.1855,-801.8116 592.5,-736 621.917,-693.2769 629.3537,-635.7459 629.227,-587.8923"/>
<polygon fill="none" stroke="#404040" points="629.2229,-587.6301 625.1277,-581.6947 629.0315,-575.6317 633.1267,-581.5671 629.2229,-587.6301"/>
<text text-anchor="middle" x="646.5" y="-677" font-family="Helvetica,sans-Serif" font-size="10.00" fill="#000000"> +label</text>
</g>
<!-- Node5&#45;&gt;Node2 -->
<g id="edge4" class="edge">
<title>Node5&#45;&gt;Node2</title>
<path fill="none" stroke="#ffa500" d="M252.5639,-630.2115C240.4406,-602.9716 225.4853,-569.3683 213.6571,-542.7912"/>
<polygon fill="#ffa500" stroke="#ffa500" points="249.4605,-631.8464 256.7242,-639.5593 255.8557,-629.0001 249.4605,-631.8464"/>
<text text-anchor="middle" x="265.5" y="-597" font-family="Helvetica,sans-Serif" font-size="10.00" fill="#000000"> &lt; float &gt;</text>
</g>
<!-- Node6 -->
<g id="node6" class="node">
<title>Node6</title>
<polygon fill="none" stroke="#bfbfbf" points="0,-811 0,-868 29,-868 29,-811 0,-811"/>
<text text-anchor="middle" x="14.5" y="-856" font-family="Helvetica,sans-Serif" font-size="10.00" fill="#000000">T</text>
<polyline fill="none" stroke="#bfbfbf" points="0,-849 29,-849 "/>
<text text-anchor="middle" x="14.5" y="-837" font-family="Helvetica,sans-Serif" font-size="10.00" fill="#000000"> </text>
<polyline fill="none" stroke="#bfbfbf" points="0,-830 29,-830 "/>
<text text-anchor="middle" x="14.5" y="-818" font-family="Helvetica,sans-Serif" font-size="10.00" fill="#000000"> </text>
</g>
<!-- Node6&#45;&gt;Node5 -->
<g id="edge6" class="edge">
<title>Node6&#45;&gt;Node5</title>
<path fill="none" stroke="#404040" d="M29.2237,-830.4393C61.4498,-810.6078 140.1148,-762.1986 199.7371,-725.5079"/>
<polygon fill="none" stroke="#404040" points="200.0365,-725.3237 203.05,-718.7725 210.2564,-719.0345 207.2428,-725.5858 200.0365,-725.3237"/>
<text text-anchor="middle" x="172" y="-762.5" font-family="Helvetica,sans-Serif" font-size="10.00" fill="#000000"> +value</text>
</g>
<!-- Node7&#45;&gt;Node1 -->
<g id="edge7" class="edge">
<title>Node7&#45;&gt;Node1</title>
<path fill="none" stroke="#404040" d="M609.9452,-243.0795C538.2249,-198.055 429.8839,-130.041 368.4261,-91.4592"/>
<polygon fill="none" stroke="#404040" points="368.4101,-91.4491 361.2017,-91.6467 358.2468,-85.0688 365.4552,-84.8712 368.4101,-91.4491"/>
<text text-anchor="middle" x="535" y="-178" font-family="Helvetica,sans-Serif" font-size="10.00" fill="#000000"> +etaDiff</text>
<text text-anchor="middle" x="535" y="-167" font-family="Helvetica,sans-Serif" font-size="10.00" fill="#000000">+ptH</text>
<text text-anchor="middle" x="535" y="-156" font-family="Helvetica,sans-Serif" font-size="10.00" fill="#000000">+trZ</text>
<text text-anchor="middle" x="535" y="-145" font-family="Helvetica,sans-Serif" font-size="10.00" fill="#000000">+phiDiff</text>
</g>
<!-- Node8 -->
<g id="node8" class="node">
<title>Node8</title>
<polygon fill="none" stroke="#bfbfbf" points="972,-651 972,-708 1111,-708 1111,-651 972,-651"/>
<text text-anchor="middle" x="1041.5" y="-696" font-family="Helvetica,sans-Serif" font-size="10.00" fill="#000000">OutputObjHandlingPolicy</text>
<polyline fill="none" stroke="#bfbfbf" points="972,-689 1111,-689 "/>
<text text-anchor="middle" x="1041.5" y="-677" font-family="Helvetica,sans-Serif" font-size="10.00" fill="#000000"> </text>
<polyline fill="none" stroke="#bfbfbf" points="972,-670 1111,-670 "/>
<text text-anchor="middle" x="1041.5" y="-658" font-family="Helvetica,sans-Serif" font-size="10.00" fill="#000000"> </text>
</g>
<!-- Node8&#45;&gt;Node7 -->
<g id="edge8" class="edge">
<title>Node8&#45;&gt;Node7</title>
<path fill="none" stroke="#404040" d="M1047.428,-650.8113C1056.4006,-599.0642 1067.4204,-488.9868 1016.5,-419 958.4339,-339.1919 844.3826,-307.996 765.6036,-295.8074"/>
<polygon fill="none" stroke="#404040" points="765.1513,-295.7415 758.6369,-298.8338 753.2769,-294.0098 759.7914,-290.9175 765.1513,-295.7415"/>
<text text-anchor="middle" x="1075" y="-495" font-family="Helvetica,sans-Serif" font-size="10.00" fill="#000000"> +policy</text>
</g>
<!-- Node8&#45;&gt;Node15 -->
<g id="edge18" class="edge">
<title>Node8&#45;&gt;Node15</title>
<path fill="none" stroke="#404040" d="M978.2272,-650.9773C955.5576,-641.357 929.6381,-631.0331 905.5,-623 885.3766,-616.303 739.5306,-585.3615 720.5,-576 719.4819,-575.4992 718.4644,-574.9868 717.4478,-574.4636"/>
<polygon fill="none" stroke="#404040" points="717.1119,-574.2779 709.9256,-574.8755 706.6101,-568.4717 713.7964,-567.8742 717.1119,-574.2779"/>
<text text-anchor="middle" x="848" y="-597" font-family="Helvetica,sans-Serif" font-size="10.00" fill="#000000"> +policy</text>
</g>
<!-- Node9 -->
<g id="node9" class="node">
<title>Node9</title>
<polygon fill="none" stroke="#bfbfbf" points="428.5,-651 428.5,-708 466.5,-708 466.5,-651 428.5,-651"/>
<text text-anchor="middle" x="447.5" y="-696" font-family="Helvetica,sans-Serif" font-size="10.00" fill="#000000">bool</text>
<polyline fill="none" stroke="#bfbfbf" points="428.5,-689 466.5,-689 "/>
<text text-anchor="middle" x="447.5" y="-677" font-family="Helvetica,sans-Serif" font-size="10.00" fill="#000000"> </text>
<polyline fill="none" stroke="#bfbfbf" points="428.5,-670 466.5,-670 "/>
<text text-anchor="middle" x="447.5" y="-658" font-family="Helvetica,sans-Serif" font-size="10.00" fill="#000000"> </text>
</g>
<!-- Node9&#45;&gt;Node7 -->
<g id="edge10" class="edge">
<title>Node9&#45;&gt;Node7</title>
<path fill="none" stroke="#404040" d="M441.1592,-650.7572C431.5867,-599.8746 418.9481,-492.4015 463.5,-419 493.6713,-369.2912 550.4906,-336.0585 598.5569,-315.5049"/>
<polygon fill="none" stroke="#404040" points="598.8401,-315.3879 602.8572,-309.3993 609.9302,-310.8042 605.9131,-316.7927 598.8401,-315.3879"/>
<text text-anchor="middle" x="494.5" y="-495" font-family="Helvetica,sans-Serif" font-size="10.00" fill="#000000"> +isdangling</text>
</g>
<!-- Node9&#45;&gt;Node15 -->
<g id="edge21" class="edge">
<title>Node9&#45;&gt;Node15</title>
<path fill="none" stroke="#404040" d="M462.2375,-650.8421C466.9848,-641.8589 472.3517,-631.9541 477.5,-623 485.0613,-609.849 485.3337,-605.2593 495.5,-594 504.4526,-584.0849 514.5257,-574.4482 524.9685,-565.3431"/>
<polygon fill="none" stroke="#404040" points="525.075,-565.2527 527.0591,-558.3199 534.2217,-557.4849 532.2376,-564.4177 525.075,-565.2527"/>
<text text-anchor="middle" x="526.5" y="-597" font-family="Helvetica,sans-Serif" font-size="10.00" fill="#000000"> +isdangling</text>
</g>
<!-- Node10&#45;&gt;Node7 -->
<g id="edge11" class="edge">
<title>Node10&#45;&gt;Node7</title>
<path fill="none" stroke="#404040" d="M896.7865,-639.5219C919.185,-623.0096 941.2491,-601.6607 953.5,-576 983.5628,-513.0304 990.623,-478.0832 953.5,-419 912.4171,-353.6144 828.5323,-320.1002 764.7183,-303.4293"/>
<polygon fill="none" stroke="#404040" points="764.692,-303.4228 757.9002,-305.846 753.0512,-300.5086 759.843,-298.0854 764.692,-303.4228"/>
<text text-anchor="middle" x="995.5" y="-495" font-family="Helvetica,sans-Serif" font-size="10.00" fill="#000000"> +spec</text>
</g>
<!-- Node10&#45;&gt;Node15 -->
<g id="edge22" class="edge">
<title>Node10&#45;&gt;Node15</title>
<path fill="none" stroke="#404040" d="M762.3205,-623.4089C747.6674,-610.3998 731.7505,-596.2688 716.0521,-582.3316"/>
<polygon fill="none" stroke="#404040" points="715.8192,-582.1249 708.6767,-581.1327 706.8455,-574.1579 713.988,-575.1502 715.8192,-582.1249"/>
<text text-anchor="middle" x="758.5" y="-597" font-family="Helvetica,sans-Serif" font-size="10.00" fill="#000000"> +spec</text>
</g>
<!-- Node11 -->
<g id="node11" class="node">
<title>Node11</title>
<polygon fill="none" stroke="#bfbfbf" points="899.5,-811 899.5,-868 987.5,-868 987.5,-811 899.5,-811"/>
<text text-anchor="middle" x="943.5" y="-856" font-family="Helvetica,sans-Serif" font-size="10.00" fill="#000000">enum Lifetime</text>
<polyline fill="none" stroke="#bfbfbf" points="899.5,-849 987.5,-849 "/>
<text text-anchor="middle" x="943.5" y="-837" font-family="Helvetica,sans-Serif" font-size="10.00" fill="#000000"> </text>
<polyline fill="none" stroke="#bfbfbf" points="899.5,-830 987.5,-830 "/>
<text text-anchor="middle" x="943.5" y="-818" font-family="Helvetica,sans-Serif" font-size="10.00" fill="#000000"> </text>
</g>
<!-- Node11&#45;&gt;Node10 -->
<g id="edge12" class="edge">
<title>Node11&#45;&gt;Node10</title>
<path fill="none" stroke="#404040" d="M922.404,-810.8952C908.9469,-792.6483 890.9276,-768.2154 874.0792,-745.3701"/>
<polygon fill="none" stroke="#404040" points="874.0694,-745.3567 867.2889,-742.9021 866.9468,-735.6991 873.7273,-738.1537 874.0694,-745.3567"/>
<text text-anchor="middle" x="919.5" y="-762.5" font-family="Helvetica,sans-Serif" font-size="10.00" fill="#000000"> +lifetime</text>
</g>
<!-- Node12 -->
<g id="node12" class="node">
<title>Node12</title>
<polygon fill="none" stroke="#bfbfbf" points="717.5,-794.5 717.5,-884.5 881.5,-884.5 881.5,-794.5 717.5,-794.5"/>
<text text-anchor="start" x="725.5" y="-872.5" font-family="Helvetica,sans-Serif" font-size="10.00" fill="#000000">variant&lt; o2::framework</text>
<text text-anchor="start" x="725.5" y="-861.5" font-family="Helvetica,sans-Serif" font-size="10.00" fill="#000000">::ConcreteDataMatcher,</text>
<text text-anchor="start" x="725.5" y="-850.5" font-family="Helvetica,sans-Serif" font-size="10.00" fill="#000000"> o2::framework::data_matcher</text>
<text text-anchor="middle" x="799.5" y="-839.5" font-family="Helvetica,sans-Serif" font-size="10.00" fill="#000000">::DataDescriptorMatcher &gt;</text>
<polyline fill="none" stroke="#bfbfbf" points="717.5,-832.5 881.5,-832.5 "/>
<text text-anchor="middle" x="799.5" y="-820.5" font-family="Helvetica,sans-Serif" font-size="10.00" fill="#000000"> </text>
<polyline fill="none" stroke="#bfbfbf" points="717.5,-813.5 881.5,-813.5 "/>
<text text-anchor="middle" x="799.5" y="-801.5" font-family="Helvetica,sans-Serif" font-size="10.00" fill="#000000"> </text>
</g>
<!-- Node12&#45;&gt;Node10 -->
<g id="edge13" class="edge">
<title>Node12&#45;&gt;Node10</title>
<path fill="none" stroke="#404040" d="M806.881,-794.0784C809.2378,-779.5748 811.8998,-763.1936 814.4582,-747.4497"/>
<polygon fill="none" stroke="#404040" points="814.4628,-747.4208 811.477,-740.8568 816.3876,-735.5761 819.3734,-742.1401 814.4628,-747.4208"/>
<text text-anchor="middle" x="839.5" y="-762.5" font-family="Helvetica,sans-Serif" font-size="10.00" fill="#000000"> +matcher</text>
</g>
<!-- Node13 -->
<g id="node13" class="node">
<title>Node13</title>
<polygon fill="none" stroke="#bfbfbf" points="675,-651 675,-708 736,-708 736,-651 675,-651"/>
<text text-anchor="middle" x="705.5" y="-696" font-family="Helvetica,sans-Serif" font-size="10.00" fill="#000000">unsigned</text>
<polyline fill="none" stroke="#bfbfbf" points="675,-689 736,-689 "/>
<text text-anchor="middle" x="705.5" y="-677" font-family="Helvetica,sans-Serif" font-size="10.00" fill="#000000"> </text>
<polyline fill="none" stroke="#bfbfbf" points="675,-670 736,-670 "/>
<text text-anchor="middle" x="705.5" y="-658" font-family="Helvetica,sans-Serif" font-size="10.00" fill="#000000"> </text>
</g>
<!-- Node13&#45;&gt;Node7 -->
<g id="edge15" class="edge">
<title>Node13&#45;&gt;Node7</title>
<path fill="none" stroke="#404040" d="M721.8994,-650.9649C728.3924,-641.2886 736.471,-630.9322 745.5,-623 760.421,-609.8915 789.0173,-611.4325 779.5,-594 772.4109,-581.0151 760.0045,-588.1053 751.5,-576 710.3467,-517.4223 732.4939,-488.5424 715.5,-419 712.6972,-407.5305 709.6847,-395.5163 706.6529,-383.6131"/>
<polygon fill="none" stroke="#404040" points="706.5975,-383.3965 701.2345,-378.5759 703.6216,-371.7713 708.9846,-376.5919 706.5975,-383.3965"/>
<text text-anchor="middle" x="785.5" y="-495" font-family="Helvetica,sans-Serif" font-size="10.00" fill="#000000"> +mTaskHash</text>
</g>
<!-- Node13&#45;&gt;Node15 -->
<g id="edge23" class="edge">
<title>Node13&#45;&gt;Node15</title>
<path fill="none" stroke="#404040" d="M683.0563,-650.9907C673.2948,-637.5947 662.3255,-621.0641 654.5,-605 651.6872,-599.2258 649.0368,-593.1658 646.5535,-586.988"/>
<polygon fill="none" stroke="#404040" points="646.5525,-586.9852 640.6728,-582.8103 642.265,-575.7772 648.1447,-579.952 646.5525,-586.9852"/>
<text text-anchor="middle" x="688.5" y="-597" font-family="Helvetica,sans-Serif" font-size="10.00" fill="#000000"> +mTaskHash</text>
</g>
<!-- Node14 -->
<g id="node14" class="node">
<title>Node14</title>
<polygon fill="none" stroke="#bfbfbf" points="828.5,-469 828.5,-526 944.5,-526 944.5,-469 828.5,-469"/>
<text text-anchor="middle" x="886.5" y="-514" font-family="Helvetica,sans-Serif" font-size="10.00" fill="#000000">shared_ptr&lt; TH1F &gt;</text>
<polyline fill="none" stroke="#bfbfbf" points="828.5,-507 944.5,-507 "/>
<text text-anchor="middle" x="886.5" y="-495" font-family="Helvetica,sans-Serif" font-size="10.00" fill="#000000"> </text>
<polyline fill="none" stroke="#bfbfbf" points="828.5,-488 944.5,-488 "/>
<text text-anchor="middle" x="886.5" y="-476" font-family="Helvetica,sans-Serif" font-size="10.00" fill="#000000"> </text>
</g>
<!-- Node14&#45;&gt;Node7 -->
<g id="edge16" class="edge">
<title>Node14&#45;&gt;Node7</title>
<path fill="none" stroke="#404040" d="M860.8481,-468.8364C847.2533,-453.8238 830.1669,-435.2345 814.5,-419 797.8263,-401.7221 779.6643,-383.4731 762.2719,-366.2622"/>
<polygon fill="none" stroke="#404040" points="761.8,-365.7965 754.7198,-364.4289 753.259,-357.3673 760.3392,-358.7349 761.8,-365.7965"/>
<text text-anchor="middle" x="818.5" y="-393" font-family="Helvetica,sans-Serif" font-size="10.00" fill="#000000"> +object</text>
</g>
<!-- Node15&#45;&gt;Node7 -->
<g id="edge17" class="edge">
<title>Node15&#45;&gt;Node7</title>
<path fill="none" stroke="#ffa500" d="M646.1153,-409.5262C649.7635,-396.9967 653.5074,-384.1384 657.1309,-371.6937"/>
<polygon fill="#ffa500" stroke="#ffa500" points="642.6494,-408.9102 643.2141,-419.4899 649.3703,-410.8671 642.6494,-408.9102"/>
<text text-anchor="middle" x="677" y="-393" font-family="Helvetica,sans-Serif" font-size="10.00" fill="#000000"> &lt; TH1F &gt;</text>
</g>
<!-- Node16 -->
<g id="node16" class="node">
<title>Node16</title>
<polygon fill="none" stroke="#bfbfbf" points="487,-651 487,-708 584,-708 584,-651 487,-651"/>
<text text-anchor="middle" x="535.5" y="-696" font-family="Helvetica,sans-Serif" font-size="10.00" fill="#000000">shared_ptr&lt; T &gt;</text>
<polyline fill="none" stroke="#bfbfbf" points="487,-689 584,-689 "/>
<text text-anchor="middle" x="535.5" y="-677" font-family="Helvetica,sans-Serif" font-size="10.00" fill="#000000"> </text>
<polyline fill="none" stroke="#bfbfbf" points="487,-670 584,-670 "/>
<text text-anchor="middle" x="535.5" y="-658" font-family="Helvetica,sans-Serif" font-size="10.00" fill="#000000"> </text>
</g>
<!-- Node16&#45;&gt;Node15 -->
<g id="edge20" class="edge">
<title>Node16&#45;&gt;Node15</title>
<path fill="none" stroke="#404040" d="M543.6554,-650.8431C548.8385,-633.9758 556.1369,-612.4093 564.5,-594 565.6229,-591.5283 566.7906,-589.0379 567.995,-586.5384"/>
<polygon fill="none" stroke="#404040" points="568.1217,-586.2848 567.2249,-579.1297 573.4847,-575.5499 574.3815,-582.705 568.1217,-586.2848"/>
<text text-anchor="middle" x="585.5" y="-597" font-family="Helvetica,sans-Serif" font-size="10.00" fill="#000000"> +object</text>
</g>
</g>
</svg>
        <g id="navigator" transform="translate(0 0)" fill="#404254">
                <rect fill="#f2f5e9" fill-opacity="0.5" stroke="#606060" stroke-width=".5" x="0" y="0" width="60" height="60"/>
                <use id="zoomplus" xlink:href="#zoomPlus" x="17" y="9" onmousedown="handleZoom(evt,'in')"/>
                <use id="zoomminus" xlink:href="#zoomMin" x="42" y="9" onmousedown="handleZoom(evt,'out')"/>
                <use id="reset" xlink:href="#resetDef" x="30" y="36" onmousedown="handleReset()"/>
                <g id="arrowUp" xlink:href="#dirArrow" transform="translate(30 24)" onmousedown="handlePan(0,-1)">
                  <use xlink:href="#rim" fill="#404040">
                        <set attributeName="fill" to="#808080" begin="arrowUp.mouseover" end="arrowUp.mouseout"/>
                  </use>
                  <path fill="none" stroke="white" stroke-width="1.5" d="M0,-3.0v7 M-2.5,-0.5L0,-3.0L2.5,-0.5"/>
                </g>
                <g id="arrowRight" xlink:href="#dirArrow" transform="rotate(90) translate(36 -43)" onmousedown="handlePan(1,0)">
                  <use xlink:href="#rim" fill="#404040">
                        <set attributeName="fill" to="#808080" begin="arrowRight.mouseover" end="arrowRight.mouseout"/>
                  </use>
                  <path fill="none" stroke="white" stroke-width="1.5" d="M0,-3.0v7 M-2.5,-0.5L0,-3.0L2.5,-0.5"/>
                </g>
                <g id="arrowDown" xlink:href="#dirArrow" transform="rotate(180) translate(-30 -48)" onmousedown="handlePan(0,1)">
                  <use xlink:href="#rim" fill="#404040">
                        <set attributeName="fill" to="#808080" begin="arrowDown.mouseover" end="arrowDown.mouseout"/>
                  </use>
                  <path fill="none" stroke="white" stroke-width="1.5" d="M0,-3.0v7 M-2.5,-0.5L0,-3.0L2.5,-0.5"/>
                </g>
                <g id="arrowLeft" xlink:href="#dirArrow" transform="rotate(270) translate(-36 17)" onmousedown="handlePan(-1,0)">
                  <use xlink:href="#rim" fill="#404040">
                        <set attributeName="fill" to="#808080" begin="arrowLeft.mouseover" end="arrowLeft.mouseout"/>
                  </use>
                  <path fill="none" stroke="white" stroke-width="1.5" d="M0,-3.0v7 M-2.5,-0.5L0,-3.0L2.5,-0.5"/>
                </g>
        </g>
        <svg viewBox="0 0 15 15" width="100%" height="30px" preserveAspectRatio="xMaxYMin meet">
         <g id="arrow_out" transform="scale(0.3 0.3)">
          <a xlink:href="structCTask__coll__graph_org.svg" target="_base">
           <rect id="button" ry="5" rx="5" y="6" x="6" height="38" width="38"
                fill="#f2f5e9" fill-opacity="0.5" stroke="#606060" stroke-width="1.0"/>
           <path id="arrow"
             d="M 11.500037,31.436501 C 11.940474,20.09759 22.043105,11.32322 32.158766,21.979434 L 37.068811,17.246167 C 37.068811,17.246167 37.088388,32 37.088388,32 L 22.160133,31.978069 C 22.160133,31.978069 26.997745,27.140456 26.997745,27.140456 C 18.528582,18.264221 13.291696,25.230495 11.500037,31.436501 z"
             style="fill:#404040;"/>
          </a>
         </g>
        </svg>
</svg>
