<?xml version="1.0" encoding="UTF-8" standalone="no"?>
<!DOCTYPE svg PUBLIC "-//W3C//DTD SVG 1.1//EN"
 "http://www.w3.org/Graphics/SVG/1.1/DTD/svg11.dtd">
<!-- Generated by graphviz version 2.40.1 (20161225.0304)
 -->
<!-- Title: o2::mid::ColumnData Pages: 1 -->
<svg width="211pt" height="281pt"
 viewBox="0.00 0.00 211.00 281.00" xmlns="http://www.w3.org/2000/svg" xmlns:xlink="http://www.w3.org/1999/xlink">
<g id="graph0" class="graph" transform="scale(1 1) rotate(0) translate(4 277)">
<title>o2::mid::ColumnData</title>
<!-- Node2 -->
<g id="node1" class="node">
<title>Node2</title>
<polygon fill="#bfbfbf" stroke="#000000" points="46,-.5 46,-156.5 176,-156.5 176,-.5 46,-.5"/>
<text text-anchor="middle" x="111" y="-144.5" font-family="Helvetica,sans-Serif" font-size="10.00" fill="#000000">o2::mid::ColumnData</text>
<polyline fill="none" stroke="#000000" points="46,-137.5 176,-137.5 "/>
<text text-anchor="middle" x="111" y="-125.5" font-family="Helvetica,sans-Serif" font-size="10.00" fill="#000000"> </text>
<polyline fill="none" stroke="#000000" points="46,-118.5 176,-118.5 "/>
<text text-anchor="start" x="54" y="-106.5" font-family="Helvetica,sans-Serif" font-size="10.00" fill="#000000">+ setBendPattern()</text>
<text text-anchor="start" x="54" y="-95.5" font-family="Helvetica,sans-Serif" font-size="10.00" fill="#000000">+ getBendPattern()</text>
<text text-anchor="start" x="54" y="-84.5" font-family="Helvetica,sans-Serif" font-size="10.00" fill="#000000">+ setNonBendPattern()</text>
<text text-anchor="start" x="54" y="-73.5" font-family="Helvetica,sans-Serif" font-size="10.00" fill="#000000">+ getNonBendPattern()</text>
<text text-anchor="start" x="54" y="-62.5" font-family="Helvetica,sans-Serif" font-size="10.00" fill="#000000">+ setPattern()</text>
<text text-anchor="start" x="54" y="-51.5" font-family="Helvetica,sans-Serif" font-size="10.00" fill="#000000">+ getPattern()</text>
<text text-anchor="start" x="54" y="-40.5" font-family="Helvetica,sans-Serif" font-size="10.00" fill="#000000">+ addStrip()</text>
<text text-anchor="start" x="54" y="-29.5" font-family="Helvetica,sans-Serif" font-size="10.00" fill="#000000">+ isNBPStripFired()</text>
<text text-anchor="start" x="54" y="-18.5" font-family="Helvetica,sans-Serif" font-size="10.00" fill="#000000">+ isBPStripFired()</text>
<text text-anchor="start" x="54" y="-7.5" font-family="Helvetica,sans-Serif" font-size="10.00" fill="#000000">+ isStripFired()</text>
</g>
<!-- Node3 -->
<g id="node2" class="node">
<title>Node3</title>
<polygon fill="none" stroke="#bfbfbf" points="0,-215.5 0,-272.5 116,-272.5 116,-215.5 0,-215.5"/>
<text text-anchor="middle" x="58" y="-260.5" font-family="Helvetica,sans-Serif" font-size="10.00" fill="#000000">array&lt; uint16_t, 5 &gt;</text>
<polyline fill="none" stroke="#bfbfbf" points="0,-253.5 116,-253.5 "/>
<text text-anchor="middle" x="58" y="-241.5" font-family="Helvetica,sans-Serif" font-size="10.00" fill="#000000"> </text>
<polyline fill="none" stroke="#bfbfbf" points="0,-234.5 116,-234.5 "/>
<text text-anchor="middle" x="58" y="-222.5" font-family="Helvetica,sans-Serif" font-size="10.00" fill="#000000"> </text>
</g>
<!-- Node3&#45;&gt;Node2 -->
<g id="edge1" class="edge">
<title>Node3&#45;&gt;Node2</title>
<path fill="none" stroke="#404040" d="M67.2319,-215.1721C71.473,-201.9287 76.7592,-185.4217 82.176,-168.5071"/>
<polygon fill="none" stroke="#404040" points="82.2758,-168.1953 80.2963,-161.2612 85.9357,-156.767 87.9151,-163.7011 82.2758,-168.1953"/>
<text text-anchor="middle" x="106" y="-183.5" font-family="Helvetica,sans-Serif" font-size="10.00" fill="#000000"> +patterns</text>
</g>
<!-- Node4 -->
<g id="node3" class="node">
<title>Node4</title>
<polygon fill="none" stroke="#bfbfbf" points="134.5,-215.5 134.5,-272.5 195.5,-272.5 195.5,-215.5 134.5,-215.5"/>
<text text-anchor="middle" x="165" y="-260.5" font-family="Helvetica,sans-Serif" font-size="10.00" fill="#000000">unsigned</text>
<polyline fill="none" stroke="#bfbfbf" points="134.5,-253.5 195.5,-253.5 "/>
<text text-anchor="middle" x="165" y="-241.5" font-family="Helvetica,sans-Serif" font-size="10.00" fill="#000000"> </text>
<polyline fill="none" stroke="#bfbfbf" points="134.5,-234.5 195.5,-234.5 "/>
<text text-anchor="middle" x="165" y="-222.5" font-family="Helvetica,sans-Serif" font-size="10.00" fill="#000000"> </text>
</g>
<!-- Node4&#45;&gt;Node2 -->
<g id="edge2" class="edge">
<title>Node4&#45;&gt;Node2</title>
<path fill="none" stroke="#404040" d="M155.5939,-215.1721C151.2728,-201.9287 145.8868,-185.4217 140.3679,-168.5071"/>
<polygon fill="none" stroke="#404040" points="140.2596,-168.1751 134.5957,-163.7118 136.5373,-156.767 142.2011,-161.2302 140.2596,-168.1751"/>
<text text-anchor="middle" x="176" y="-189" font-family="Helvetica,sans-Serif" font-size="10.00" fill="#000000"> +deId</text>
<text text-anchor="middle" x="176" y="-178" font-family="Helvetica,sans-Serif" font-size="10.00" fill="#000000">+columnId</text>
</g>
</g>
</svg>
