<?xml version="1.0" encoding="UTF-8" standalone="no"?>
<!DOCTYPE svg PUBLIC "-//W3C//DTD SVG 1.1//EN"
 "http://www.w3.org/Graphics/SVG/1.1/DTD/svg11.dtd">
<!-- Generated by graphviz version 2.40.1 (20161225.0304)
 -->
<!-- Title: o2::algorithm::TableView&lt; RowDescT, ColumnDescT, ParserT &gt;::FrameData Pages: 1 -->
<svg width="169pt" height="193pt"
 viewBox="0.00 0.00 169.00 193.00" xmlns="http://www.w3.org/2000/svg" xmlns:xlink="http://www.w3.org/1999/xlink">
<g id="graph0" class="graph" transform="scale(1 1) rotate(0) translate(4 189)">
<title>o2::algorithm::TableView&lt; RowDescT, ColumnDescT, ParserT &gt;::FrameData</title>
<!-- Node2 -->
<g id="node1" class="node">
<title>Node2</title>
<polygon fill="#bfbfbf" stroke="#000000" points="6,-.5 6,-79.5 161,-79.5 161,-.5 6,-.5"/>
<text text-anchor="start" x="14" y="-67.5" font-family="Helvetica,sans-Serif" font-size="10.00" fill="#000000">o2::algorithm::TableView</text>
<text text-anchor="start" x="14" y="-56.5" font-family="Helvetica,sans-Serif" font-size="10.00" fill="#000000">&lt; RowDescT, ColumnDescT,</text>
<text text-anchor="middle" x="83.5" y="-45.5" font-family="Helvetica,sans-Serif" font-size="10.00" fill="#000000"> ParserT &gt;::FrameData</text>
<polyline fill="none" stroke="#000000" points="6,-38.5 161,-38.5 "/>
<text text-anchor="middle" x="83.5" y="-26.5" font-family="Helvetica,sans-Serif" font-size="10.00" fill="#000000"> </text>
<polyline fill="none" stroke="#000000" points="6,-19.5 161,-19.5 "/>
<text text-anchor="middle" x="83.5" y="-7.5" font-family="Helvetica,sans-Serif" font-size="10.00" fill="#000000"> </text>
</g>
<!-- Node3 -->
<g id="node2" class="node">
<title>Node3</title>
<polygon fill="none" stroke="#bfbfbf" points="0,-127.5 0,-184.5 85,-184.5 85,-127.5 0,-127.5"/>
<text text-anchor="middle" x="42.5" y="-172.5" font-family="Helvetica,sans-Serif" font-size="10.00" fill="#000000">unsigned char</text>
<polyline fill="none" stroke="#bfbfbf" points="0,-165.5 85,-165.5 "/>
<text text-anchor="middle" x="42.5" y="-153.5" font-family="Helvetica,sans-Serif" font-size="10.00" fill="#000000"> </text>
<polyline fill="none" stroke="#bfbfbf" points="0,-146.5 85,-146.5 "/>
<text text-anchor="middle" x="42.5" y="-134.5" font-family="Helvetica,sans-Serif" font-size="10.00" fill="#000000"> </text>
</g>
<!-- Node3&#45;&gt;Node2 -->
<g id="edge1" class="edge">
<title>Node3&#45;&gt;Node2</title>
<path fill="none" stroke="#404040" d="M52.6348,-127.3258C56.4805,-116.4455 60.9865,-103.6966 65.3488,-91.3545"/>
<polygon fill="none" stroke="#404040" points="65.4619,-91.0344 63.6901,-84.0444 69.4609,-79.7203 71.2328,-86.7104 65.4619,-91.0344"/>
<text text-anchor="middle" x="82.5" y="-101" font-family="Helvetica,sans-Serif" font-size="10.00" fill="#000000"> +buffer</text>
</g>
<!-- Node4 -->
<g id="node3" class="node">
<title>Node4</title>
<polygon fill="none" stroke="#bfbfbf" points="103,-127.5 103,-184.5 148,-184.5 148,-127.5 103,-127.5"/>
<text text-anchor="middle" x="125.5" y="-172.5" font-family="Helvetica,sans-Serif" font-size="10.00" fill="#000000">size_t</text>
<polyline fill="none" stroke="#bfbfbf" points="103,-165.5 148,-165.5 "/>
<text text-anchor="middle" x="125.5" y="-153.5" font-family="Helvetica,sans-Serif" font-size="10.00" fill="#000000"> </text>
<polyline fill="none" stroke="#bfbfbf" points="103,-146.5 148,-146.5 "/>
<text text-anchor="middle" x="125.5" y="-134.5" font-family="Helvetica,sans-Serif" font-size="10.00" fill="#000000"> </text>
</g>
<!-- Node4&#45;&gt;Node2 -->
<g id="edge2" class="edge">
<title>Node4&#45;&gt;Node2</title>
<path fill="none" stroke="#404040" d="M115.118,-127.3258C111.1785,-116.4455 106.5626,-103.6966 102.0939,-91.3545"/>
<polygon fill="none" stroke="#404040" points="101.9668,-91.0035 96.1631,-86.7237 97.8815,-79.7203 103.6852,-84.0001 101.9668,-91.0035"/>
<text text-anchor="middle" x="123" y="-101" font-family="Helvetica,sans-Serif" font-size="10.00" fill="#000000"> +size</text>
</g>
</g>
</svg>
