<?xml version="1.0" encoding="UTF-8" standalone="no"?>
<!DOCTYPE svg PUBLIC "-//W3C//DTD SVG 1.1//EN"
 "http://www.w3.org/Graphics/SVG/1.1/DTD/svg11.dtd">
<!-- Generated by graphviz version 2.40.1 (20161225.0304)
 -->
<!-- Title: o2::mch::raw::SampaCluster Pages: 1 -->
<svg width="290pt" height="226pt"
 viewBox="0.00 0.00 290.00 226.00" xmlns="http://www.w3.org/2000/svg" xmlns:xlink="http://www.w3.org/1999/xlink">
<g id="graph0" class="graph" transform="scale(1 1) rotate(0) translate(4 222)">
<title>o2::mch::raw::SampaCluster</title>
<!-- Node1 -->
<g id="node1" class="node">
<title>Node1</title>
<polygon fill="#bfbfbf" stroke="#000000" points="52.5,-.5 52.5,-101.5 205.5,-101.5 205.5,-.5 52.5,-.5"/>
<text text-anchor="middle" x="129" y="-89.5" font-family="Helvetica,sans-Serif" font-size="10.00" fill="#000000">o2::mch::raw::SampaCluster</text>
<polyline fill="none" stroke="#000000" points="52.5,-82.5 205.5,-82.5 "/>
<text text-anchor="middle" x="129" y="-70.5" font-family="Helvetica,sans-Serif" font-size="10.00" fill="#000000"> </text>
<polyline fill="none" stroke="#000000" points="52.5,-63.5 205.5,-63.5 "/>
<text text-anchor="start" x="60.5" y="-51.5" font-family="Helvetica,sans-Serif" font-size="10.00" fill="#000000">+ SampaCluster()</text>
<text text-anchor="start" x="60.5" y="-40.5" font-family="Helvetica,sans-Serif" font-size="10.00" fill="#000000">+ SampaCluster()</text>
<text text-anchor="start" x="60.5" y="-29.5" font-family="Helvetica,sans-Serif" font-size="10.00" fill="#000000">+ nofSamples()</text>
<text text-anchor="start" x="60.5" y="-18.5" font-family="Helvetica,sans-Serif" font-size="10.00" fill="#000000">+ isClusterSum()</text>
<text text-anchor="start" x="60.5" y="-7.5" font-family="Helvetica,sans-Serif" font-size="10.00" fill="#000000">+ nof10BitWords()</text>
</g>
<!-- Node2 -->
<g id="node2" class="node">
<title>Node2</title>
<polygon fill="none" stroke="#bfbfbf" points="0,-160.5 0,-217.5 56,-217.5 56,-160.5 0,-160.5"/>
<text text-anchor="middle" x="28" y="-205.5" font-family="Helvetica,sans-Serif" font-size="10.00" fill="#000000">uint16_t</text>
<polyline fill="none" stroke="#bfbfbf" points="0,-198.5 56,-198.5 "/>
<text text-anchor="middle" x="28" y="-186.5" font-family="Helvetica,sans-Serif" font-size="10.00" fill="#000000"> </text>
<polyline fill="none" stroke="#bfbfbf" points="0,-179.5 56,-179.5 "/>
<text text-anchor="middle" x="28" y="-167.5" font-family="Helvetica,sans-Serif" font-size="10.00" fill="#000000"> </text>
</g>
<!-- Node2&#45;&gt;Node1 -->
<g id="edge1" class="edge">
<title>Node2&#45;&gt;Node1</title>
<path fill="none" stroke="#404040" d="M37.6345,-160.1685C42.6563,-147.2715 49.5316,-132.2488 58,-120 60.0832,-116.9868 62.3117,-113.997 64.6468,-111.0477"/>
<polygon fill="none" stroke="#404040" points="64.7049,-110.9784 65.4986,-103.8111 72.4198,-101.787 71.6262,-108.9543 64.7049,-110.9784"/>
<text text-anchor="middle" x="91.5" y="-134" font-family="Helvetica,sans-Serif" font-size="10.00" fill="#000000"> +clusterSize</text>
<text text-anchor="middle" x="91.5" y="-123" font-family="Helvetica,sans-Serif" font-size="10.00" fill="#000000">+sampaTime</text>
</g>
<!-- Node3 -->
<g id="node3" class="node">
<title>Node3</title>
<polygon fill="none" stroke="#bfbfbf" points="74,-160.5 74,-217.5 184,-217.5 184,-160.5 74,-160.5"/>
<text text-anchor="middle" x="129" y="-205.5" font-family="Helvetica,sans-Serif" font-size="10.00" fill="#000000">vector&lt; uint16_t &gt;</text>
<polyline fill="none" stroke="#bfbfbf" points="74,-198.5 184,-198.5 "/>
<text text-anchor="middle" x="129" y="-186.5" font-family="Helvetica,sans-Serif" font-size="10.00" fill="#000000"> </text>
<polyline fill="none" stroke="#bfbfbf" points="74,-179.5 184,-179.5 "/>
<text text-anchor="middle" x="129" y="-167.5" font-family="Helvetica,sans-Serif" font-size="10.00" fill="#000000"> </text>
</g>
<!-- Node3&#45;&gt;Node1 -->
<g id="edge2" class="edge">
<title>Node3&#45;&gt;Node1</title>
<path fill="none" stroke="#404040" d="M129,-160.4063C129,-146.8804 129,-130.1561 129,-113.8884"/>
<polygon fill="none" stroke="#404040" points="129.0001,-113.5979 125,-107.5979 129,-101.5979 133,-107.5979 129.0001,-113.5979"/>
<text text-anchor="middle" x="155.5" y="-128.5" font-family="Helvetica,sans-Serif" font-size="10.00" fill="#000000"> +samples</text>
</g>
<!-- Node4 -->
<g id="node4" class="node">
<title>Node4</title>
<g id="a_node4"><a xlink:href="../../d2/d5f/classunsigned_01int.html" target="_top" xlink:title="{unsigned int\n||}">
<polygon fill="none" stroke="#000000" points="202.5,-160.5 202.5,-217.5 279.5,-217.5 279.5,-160.5 202.5,-160.5"/>
<text text-anchor="middle" x="241" y="-205.5" font-family="Helvetica,sans-Serif" font-size="10.00" fill="#000000">unsigned int</text>
<polyline fill="none" stroke="#000000" points="202.5,-198.5 279.5,-198.5 "/>
<text text-anchor="middle" x="241" y="-186.5" font-family="Helvetica,sans-Serif" font-size="10.00" fill="#000000"> </text>
<polyline fill="none" stroke="#000000" points="202.5,-179.5 279.5,-179.5 "/>
<text text-anchor="middle" x="241" y="-167.5" font-family="Helvetica,sans-Serif" font-size="10.00" fill="#000000"> </text>
</a>
</g>
</g>
<!-- Node4&#45;&gt;Node1 -->
<g id="edge3" class="edge">
<title>Node4&#45;&gt;Node1</title>
<path fill="none" stroke="#404040" d="M218.3661,-160.3753C208.478,-147.9296 196.7147,-133.2038 186,-120 183.6762,-117.1364 181.2934,-114.2107 178.8824,-111.259"/>
<polygon fill="none" stroke="#404040" points="178.7285,-111.0712 171.8321,-108.9642 171.1245,-101.7879 178.0209,-103.8948 178.7285,-111.0712"/>
<text text-anchor="middle" x="242" y="-134" font-family="Helvetica,sans-Serif" font-size="10.00" fill="#000000"> +chargeSum</text>
<text text-anchor="middle" x="242" y="-123" font-family="Helvetica,sans-Serif" font-size="10.00" fill="#000000">+bunchCrossing</text>
</g>
</g>
</svg>
