<?xml version="1.0" encoding="UTF-8" standalone="no"?>
<!DOCTYPE svg PUBLIC "-//W3C//DTD SVG 1.1//EN"
 "http://www.w3.org/Graphics/SVG/1.1/DTD/svg11.dtd">
<!-- Generated by graphviz version 2.40.1 (20161225.0304)
 -->
<!-- Title: ValidationTask Pages: 1 -->
<svg width="773pt" height="959pt"
 viewBox="0.00 0.00 773.35 959.00" xmlns="http://www.w3.org/2000/svg" xmlns:xlink="http://www.w3.org/1999/xlink">
<g id="graph0" class="graph" transform="scale(1 1) rotate(0) translate(4 955)">
<title>ValidationTask</title>
<!-- Node1 -->
<g id="node1" class="node">
<title>Node1</title>
<polygon fill="#bfbfbf" stroke="#000000" points="321.3466,-.5 321.3466,-123.5 413.3466,-123.5 413.3466,-.5 321.3466,-.5"/>
<text text-anchor="middle" x="367.3466" y="-111.5" font-family="Helvetica,sans-Serif" font-size="10.00" fill="#000000">ValidationTask</text>
<polyline fill="none" stroke="#000000" points="321.3466,-104.5 413.3466,-104.5 "/>
<text text-anchor="start" x="329.3466" y="-92.5" font-family="Helvetica,sans-Serif" font-size="10.00" fill="#000000">+ hpt_nocuts</text>
<text text-anchor="start" x="329.3466" y="-81.5" font-family="Helvetica,sans-Serif" font-size="10.00" fill="#000000">+ hrun_number</text>
<text text-anchor="start" x="329.3466" y="-70.5" font-family="Helvetica,sans-Serif" font-size="10.00" fill="#000000">+ hfCSnpY</text>
<text text-anchor="start" x="329.3466" y="-59.5" font-family="Helvetica,sans-Serif" font-size="10.00" fill="#000000">+ hfCSnpZ</text>
<text text-anchor="start" x="329.3466" y="-48.5" font-family="Helvetica,sans-Serif" font-size="10.00" fill="#000000">+ hfCSnpSnp</text>
<text text-anchor="start" x="329.3466" y="-37.5" font-family="Helvetica,sans-Serif" font-size="10.00" fill="#000000">+ hfCTglZ</text>
<text text-anchor="start" x="329.3466" y="-26.5" font-family="Helvetica,sans-Serif" font-size="10.00" fill="#000000">+ hfC1Pt21Pt2</text>
<polyline fill="none" stroke="#000000" points="321.3466,-19.5 413.3466,-19.5 "/>
<text text-anchor="start" x="329.3466" y="-7.5" font-family="Helvetica,sans-Serif" font-size="10.00" fill="#000000">+ process()</text>
</g>
<!-- Node2 -->
<g id="node2" class="node">
<title>Node2</title>
<g id="a_node2"><a xlink:href="../../d4/d79/structo2_1_1framework_1_1OutputObj.html" target="_top" xlink:title="{o2::framework::OutputObj\l\&lt; TH1F \&gt;\n||+ spec()\l+ OutputObj()\l+ OutputObj()\l+ setObject()\l+ setObject()\l+ setObject()\l+ setHash()\l+ operator&#45;\&gt;()\l+ operator*()\l+ ref()\l}">
<polygon fill="none" stroke="#000000" points="295.8466,-281.5 295.8466,-448.5 438.8466,-448.5 438.8466,-281.5 295.8466,-281.5"/>
<text text-anchor="start" x="303.8466" y="-436.5" font-family="Helvetica,sans-Serif" font-size="10.00" fill="#000000">o2::framework::OutputObj</text>
<text text-anchor="middle" x="367.3466" y="-425.5" font-family="Helvetica,sans-Serif" font-size="10.00" fill="#000000">&lt; TH1F &gt;</text>
<polyline fill="none" stroke="#000000" points="295.8466,-418.5 438.8466,-418.5 "/>
<text text-anchor="middle" x="367.3466" y="-406.5" font-family="Helvetica,sans-Serif" font-size="10.00" fill="#000000"> </text>
<polyline fill="none" stroke="#000000" points="295.8466,-399.5 438.8466,-399.5 "/>
<text text-anchor="start" x="303.8466" y="-387.5" font-family="Helvetica,sans-Serif" font-size="10.00" fill="#000000">+ spec()</text>
<text text-anchor="start" x="303.8466" y="-376.5" font-family="Helvetica,sans-Serif" font-size="10.00" fill="#000000">+ OutputObj()</text>
<text text-anchor="start" x="303.8466" y="-365.5" font-family="Helvetica,sans-Serif" font-size="10.00" fill="#000000">+ OutputObj()</text>
<text text-anchor="start" x="303.8466" y="-354.5" font-family="Helvetica,sans-Serif" font-size="10.00" fill="#000000">+ setObject()</text>
<text text-anchor="start" x="303.8466" y="-343.5" font-family="Helvetica,sans-Serif" font-size="10.00" fill="#000000">+ setObject()</text>
<text text-anchor="start" x="303.8466" y="-332.5" font-family="Helvetica,sans-Serif" font-size="10.00" fill="#000000">+ setObject()</text>
<text text-anchor="start" x="303.8466" y="-321.5" font-family="Helvetica,sans-Serif" font-size="10.00" fill="#000000">+ setHash()</text>
<text text-anchor="start" x="303.8466" y="-310.5" font-family="Helvetica,sans-Serif" font-size="10.00" fill="#000000">+ operator&#45;&gt;()</text>
<text text-anchor="start" x="303.8466" y="-299.5" font-family="Helvetica,sans-Serif" font-size="10.00" fill="#000000">+ operator*()</text>
<text text-anchor="start" x="303.8466" y="-288.5" font-family="Helvetica,sans-Serif" font-size="10.00" fill="#000000">+ ref()</text>
</a>
</g>
</g>
<!-- Node2&#45;&gt;Node1 -->
<g id="edge1" class="edge">
<title>Node2&#45;&gt;Node1</title>
<path fill="none" stroke="#404040" d="M367.3466,-281.4018C367.3466,-235.7691 367.3466,-179.7735 367.3466,-135.7738"/>
<polygon fill="none" stroke="#404040" points="367.3467,-135.7004 363.3466,-129.7004 367.3466,-123.7004 371.3466,-129.7003 367.3467,-135.7004"/>
<text text-anchor="middle" x="396.8466" y="-255" font-family="Helvetica,sans-Serif" font-size="10.00" fill="#000000"> +hfC1PtTgl</text>
<text text-anchor="middle" x="396.8466" y="-244" font-family="Helvetica,sans-Serif" font-size="10.00" fill="#000000">+hfCTglTgl</text>
<text text-anchor="middle" x="396.8466" y="-233" font-family="Helvetica,sans-Serif" font-size="10.00" fill="#000000">+hfC1PtSnp</text>
<text text-anchor="middle" x="396.8466" y="-222" font-family="Helvetica,sans-Serif" font-size="10.00" fill="#000000">+hfCTglSnp</text>
<text text-anchor="middle" x="396.8466" y="-211" font-family="Helvetica,sans-Serif" font-size="10.00" fill="#000000">+hfCZY</text>
<text text-anchor="middle" x="396.8466" y="-200" font-family="Helvetica,sans-Serif" font-size="10.00" fill="#000000">+hfC1PtY</text>
<text text-anchor="middle" x="396.8466" y="-189" font-family="Helvetica,sans-Serif" font-size="10.00" fill="#000000">+hfCTglY</text>
<text text-anchor="middle" x="396.8466" y="-178" font-family="Helvetica,sans-Serif" font-size="10.00" fill="#000000">+hfCZZ</text>
<text text-anchor="middle" x="396.8466" y="-167" font-family="Helvetica,sans-Serif" font-size="10.00" fill="#000000">+hfCYY</text>
<text text-anchor="middle" x="396.8466" y="-156" font-family="Helvetica,sans-Serif" font-size="10.00" fill="#000000">+hfC1PtZ</text>
<text text-anchor="middle" x="396.8466" y="-145" font-family="Helvetica,sans-Serif" font-size="10.00" fill="#000000">...</text>
</g>
<!-- Node3 -->
<g id="node3" class="node">
<title>Node3</title>
<polygon fill="none" stroke="#bfbfbf" points="119.8466,-728 119.8466,-785 258.8466,-785 258.8466,-728 119.8466,-728"/>
<text text-anchor="middle" x="189.3466" y="-773" font-family="Helvetica,sans-Serif" font-size="10.00" fill="#000000">OutputObjHandlingPolicy</text>
<polyline fill="none" stroke="#bfbfbf" points="119.8466,-766 258.8466,-766 "/>
<text text-anchor="middle" x="189.3466" y="-754" font-family="Helvetica,sans-Serif" font-size="10.00" fill="#000000"> </text>
<polyline fill="none" stroke="#bfbfbf" points="119.8466,-747 258.8466,-747 "/>
<text text-anchor="middle" x="189.3466" y="-735" font-family="Helvetica,sans-Serif" font-size="10.00" fill="#000000"> </text>
</g>
<!-- Node3&#45;&gt;Node2 -->
<g id="edge2" class="edge">
<title>Node3&#45;&gt;Node2</title>
<path fill="none" stroke="#404040" d="M197.0925,-727.6453C200.5836,-713.8978 204.5423,-697.1783 207.3466,-682 222.49,-600.0352 193.8786,-570.456 231.3466,-496 244.5634,-469.7357 265.2119,-445.7955 286.4627,-425.7746"/>
<polygon fill="none" stroke="#404040" points="286.7276,-425.5326 288.4595,-418.5326 295.5872,-417.4388 293.8553,-424.4389 286.7276,-425.5326"/>
<text text-anchor="middle" x="251.8466" y="-572" font-family="Helvetica,sans-Serif" font-size="10.00" fill="#000000"> +policy</text>
</g>
<!-- Node11 -->
<g id="node11" class="node">
<title>Node11</title>
<g id="a_node11"><a xlink:href="../../d4/d79/structo2_1_1framework_1_1OutputObj.html" target="_top" xlink:title="{o2::framework::OutputObj\&lt; T \&gt;\n||+ OutputObj()\l+ OutputObj()\l+ setObject()\l+ setObject()\l+ setObject()\l+ setHash()\l+ spec()\l+ operator&#45;\&gt;()\l+ operator*()\l+ ref()\l}">
<polygon fill="none" stroke="#000000" points="281.3466,-496.5 281.3466,-652.5 453.3466,-652.5 453.3466,-496.5 281.3466,-496.5"/>
<text text-anchor="middle" x="367.3466" y="-640.5" font-family="Helvetica,sans-Serif" font-size="10.00" fill="#000000">o2::framework::OutputObj&lt; T &gt;</text>
<polyline fill="none" stroke="#000000" points="281.3466,-633.5 453.3466,-633.5 "/>
<text text-anchor="middle" x="367.3466" y="-621.5" font-family="Helvetica,sans-Serif" font-size="10.00" fill="#000000"> </text>
<polyline fill="none" stroke="#000000" points="281.3466,-614.5 453.3466,-614.5 "/>
<text text-anchor="start" x="289.3466" y="-602.5" font-family="Helvetica,sans-Serif" font-size="10.00" fill="#000000">+ OutputObj()</text>
<text text-anchor="start" x="289.3466" y="-591.5" font-family="Helvetica,sans-Serif" font-size="10.00" fill="#000000">+ OutputObj()</text>
<text text-anchor="start" x="289.3466" y="-580.5" font-family="Helvetica,sans-Serif" font-size="10.00" fill="#000000">+ setObject()</text>
<text text-anchor="start" x="289.3466" y="-569.5" font-family="Helvetica,sans-Serif" font-size="10.00" fill="#000000">+ setObject()</text>
<text text-anchor="start" x="289.3466" y="-558.5" font-family="Helvetica,sans-Serif" font-size="10.00" fill="#000000">+ setObject()</text>
<text text-anchor="start" x="289.3466" y="-547.5" font-family="Helvetica,sans-Serif" font-size="10.00" fill="#000000">+ setHash()</text>
<text text-anchor="start" x="289.3466" y="-536.5" font-family="Helvetica,sans-Serif" font-size="10.00" fill="#000000">+ spec()</text>
<text text-anchor="start" x="289.3466" y="-525.5" font-family="Helvetica,sans-Serif" font-size="10.00" fill="#000000">+ operator&#45;&gt;()</text>
<text text-anchor="start" x="289.3466" y="-514.5" font-family="Helvetica,sans-Serif" font-size="10.00" fill="#000000">+ operator*()</text>
<text text-anchor="start" x="289.3466" y="-503.5" font-family="Helvetica,sans-Serif" font-size="10.00" fill="#000000">+ ref()</text>
</a>
</g>
</g>
<!-- Node3&#45;&gt;Node11 -->
<g id="edge12" class="edge">
<title>Node3&#45;&gt;Node11</title>
<path fill="none" stroke="#404040" d="M217.5512,-727.6616C235.1874,-709.6291 258.9244,-685.3586 282.2974,-661.4604"/>
<polygon fill="none" stroke="#404040" points="282.4895,-661.2639 283.8251,-654.1776 290.88,-652.6849 289.5445,-659.7712 282.4895,-661.2639"/>
<text text-anchor="middle" x="288.8466" y="-674" font-family="Helvetica,sans-Serif" font-size="10.00" fill="#000000"> +policy</text>
</g>
<!-- Node4 -->
<g id="node4" class="node">
<title>Node4</title>
<polygon fill="none" stroke="#bfbfbf" points="395.8466,-877 395.8466,-934 424.8466,-934 424.8466,-877 395.8466,-877"/>
<text text-anchor="middle" x="410.3466" y="-922" font-family="Helvetica,sans-Serif" font-size="10.00" fill="#000000">int</text>
<polyline fill="none" stroke="#bfbfbf" points="395.8466,-915 424.8466,-915 "/>
<text text-anchor="middle" x="410.3466" y="-903" font-family="Helvetica,sans-Serif" font-size="10.00" fill="#000000"> </text>
<polyline fill="none" stroke="#bfbfbf" points="395.8466,-896 424.8466,-896 "/>
<text text-anchor="middle" x="410.3466" y="-884" font-family="Helvetica,sans-Serif" font-size="10.00" fill="#000000"> </text>
</g>
<!-- Node4&#45;&gt;Node2 -->
<g id="edge3" class="edge">
<title>Node4&#45;&gt;Node2</title>
<path fill="none" stroke="#404040" d="M395.571,-903.9252C334.086,-897.0513 99.6072,-867.5505 54.3466,-813 -36.0447,-704.0554 -3.7006,-606.0459 85.3466,-496 135.1362,-434.4692 220.3998,-400.4483 284.1689,-382.6095"/>
<polygon fill="none" stroke="#404040" points="284.2277,-382.5937 288.9768,-377.1673 295.8124,-379.4639 291.0633,-384.8904 284.2277,-382.5937"/>
<text text-anchor="middle" x="19.3466" y="-674" font-family="Helvetica,sans-Serif" font-size="10.00" fill="#000000"> +label</text>
</g>
<!-- Node6 -->
<g id="node6" class="node">
<title>Node6</title>
<g id="a_node6"><a xlink:href="../../da/d96/structo2_1_1framework_1_1InputSpec.html" target="_top" xlink:title="{o2::framework::InputSpec\n||+ InputSpec()\l+ InputSpec()\l+ InputSpec()\l+ InputSpec()\l+ InputSpec()\l+ operator==()\l}">
<polygon fill="none" stroke="#000000" points="464.3466,-700.5 464.3466,-812.5 606.3466,-812.5 606.3466,-700.5 464.3466,-700.5"/>
<text text-anchor="middle" x="535.3466" y="-800.5" font-family="Helvetica,sans-Serif" font-size="10.00" fill="#000000">o2::framework::InputSpec</text>
<polyline fill="none" stroke="#000000" points="464.3466,-793.5 606.3466,-793.5 "/>
<text text-anchor="middle" x="535.3466" y="-781.5" font-family="Helvetica,sans-Serif" font-size="10.00" fill="#000000"> </text>
<polyline fill="none" stroke="#000000" points="464.3466,-774.5 606.3466,-774.5 "/>
<text text-anchor="start" x="472.3466" y="-762.5" font-family="Helvetica,sans-Serif" font-size="10.00" fill="#000000">+ InputSpec()</text>
<text text-anchor="start" x="472.3466" y="-751.5" font-family="Helvetica,sans-Serif" font-size="10.00" fill="#000000">+ InputSpec()</text>
<text text-anchor="start" x="472.3466" y="-740.5" font-family="Helvetica,sans-Serif" font-size="10.00" fill="#000000">+ InputSpec()</text>
<text text-anchor="start" x="472.3466" y="-729.5" font-family="Helvetica,sans-Serif" font-size="10.00" fill="#000000">+ InputSpec()</text>
<text text-anchor="start" x="472.3466" y="-718.5" font-family="Helvetica,sans-Serif" font-size="10.00" fill="#000000">+ InputSpec()</text>
<text text-anchor="start" x="472.3466" y="-707.5" font-family="Helvetica,sans-Serif" font-size="10.00" fill="#000000">+ operator==()</text>
</a>
</g>
</g>
<!-- Node4&#45;&gt;Node6 -->
<g id="edge8" class="edge">
<title>Node4&#45;&gt;Node6</title>
<path fill="none" stroke="#404040" d="M424.9123,-880.8621C429.3066,-873.9393 434.3079,-866.5241 439.3466,-860 449.2916,-847.1231 460.5346,-833.9645 471.7335,-821.5363"/>
<polygon fill="none" stroke="#404040" points="471.772,-821.4941 472.8619,-814.3658 479.8611,-812.6302 478.7712,-819.7585 471.772,-821.4941"/>
<text text-anchor="middle" x="485.3466" y="-834" font-family="Helvetica,sans-Serif" font-size="10.00" fill="#000000"> +binding</text>
</g>
<!-- Node4&#45;&gt;Node11 -->
<g id="edge13" class="edge">
<title>Node4&#45;&gt;Node11</title>
<path fill="none" stroke="#404040" d="M409.2767,-876.8154C407.3128,-832.451 402.1921,-744.6219 390.3466,-671 389.9975,-668.8307 389.6262,-666.6379 389.2355,-664.4294"/>
<polygon fill="none" stroke="#404040" points="389.2118,-664.3033 384.166,-659.1516 386.9807,-652.5125 392.0265,-657.6643 389.2118,-664.3033"/>
<text text-anchor="middle" x="424.3466" y="-754" font-family="Helvetica,sans-Serif" font-size="10.00" fill="#000000"> +label</text>
</g>
<!-- Node5 -->
<g id="node5" class="node">
<title>Node5</title>
<polygon fill="none" stroke="#bfbfbf" points="63.3466,-728 63.3466,-785 101.3466,-785 101.3466,-728 63.3466,-728"/>
<text text-anchor="middle" x="82.3466" y="-773" font-family="Helvetica,sans-Serif" font-size="10.00" fill="#000000">bool</text>
<polyline fill="none" stroke="#bfbfbf" points="63.3466,-766 101.3466,-766 "/>
<text text-anchor="middle" x="82.3466" y="-754" font-family="Helvetica,sans-Serif" font-size="10.00" fill="#000000"> </text>
<polyline fill="none" stroke="#bfbfbf" points="63.3466,-747 101.3466,-747 "/>
<text text-anchor="middle" x="82.3466" y="-735" font-family="Helvetica,sans-Serif" font-size="10.00" fill="#000000"> </text>
</g>
<!-- Node5&#45;&gt;Node2 -->
<g id="edge4" class="edge">
<title>Node5&#45;&gt;Node2</title>
<path fill="none" stroke="#404040" d="M82.2577,-727.6497C83.5126,-676.1256 92.729,-567.0423 145.3466,-496 180.0534,-449.1402 236.9445,-416.0441 284.4444,-394.8407"/>
<polygon fill="none" stroke="#404040" points="284.6627,-394.746 288.5748,-388.6883 295.6711,-389.9695 291.7591,-396.0272 284.6627,-394.746"/>
<text text-anchor="middle" x="176.3466" y="-572" font-family="Helvetica,sans-Serif" font-size="10.00" fill="#000000"> +isdangling</text>
</g>
<!-- Node5&#45;&gt;Node11 -->
<g id="edge15" class="edge">
<title>Node5&#45;&gt;Node11</title>
<path fill="none" stroke="#404040" d="M91.4095,-727.72C95.7679,-717.7899 101.9238,-707.3312 110.3466,-700 164.9661,-652.4588 201.3958,-685.0134 266.3466,-653 267.7472,-652.3097 269.1471,-651.598 270.5452,-650.8668"/>
<polygon fill="none" stroke="#404040" points="270.7376,-650.7592 274.0235,-644.3403 281.2125,-644.9046 277.9266,-651.3236 270.7376,-650.7592"/>
<text text-anchor="middle" x="210.3466" y="-674" font-family="Helvetica,sans-Serif" font-size="10.00" fill="#000000"> +isdangling</text>
</g>
<!-- Node6&#45;&gt;Node2 -->
<g id="edge5" class="edge">
<title>Node6&#45;&gt;Node2</title>
<path fill="none" stroke="#404040" d="M513.9661,-700.4932C508.5049,-685.2091 502.8971,-668.5687 498.3466,-653 478.2624,-584.2864 491.9565,-561.1781 462.3466,-496 456.6274,-483.4107 449.5957,-470.82 441.9677,-458.6937"/>
<polygon fill="none" stroke="#404040" points="441.9676,-458.6936 435.3461,-455.8377 435.4356,-448.6271 442.0571,-451.483 441.9676,-458.6936"/>
<text text-anchor="middle" x="515.3466" y="-572" font-family="Helvetica,sans-Serif" font-size="10.00" fill="#000000"> +spec</text>
</g>
<!-- Node6&#45;&gt;Node11 -->
<g id="edge16" class="edge">
<title>Node6&#45;&gt;Node11</title>
<path fill="none" stroke="#404040" d="M463.8846,-702.8066C456.3296,-696.1028 448.9905,-689.0992 442.3466,-682 436.5203,-675.7745 430.7929,-669.0685 425.2602,-662.156"/>
<polygon fill="none" stroke="#404040" points="425.2151,-662.098 418.3734,-659.8194 417.8453,-652.6276 424.687,-654.9062 425.2151,-662.098"/>
<text text-anchor="middle" x="459.3466" y="-674" font-family="Helvetica,sans-Serif" font-size="10.00" fill="#000000"> +spec</text>
</g>
<!-- Node7 -->
<g id="node7" class="node">
<title>Node7</title>
<polygon fill="none" stroke="#bfbfbf" points="630.3466,-877 630.3466,-934 718.3466,-934 718.3466,-877 630.3466,-877"/>
<text text-anchor="middle" x="674.3466" y="-922" font-family="Helvetica,sans-Serif" font-size="10.00" fill="#000000">enum Lifetime</text>
<polyline fill="none" stroke="#bfbfbf" points="630.3466,-915 718.3466,-915 "/>
<text text-anchor="middle" x="674.3466" y="-903" font-family="Helvetica,sans-Serif" font-size="10.00" fill="#000000"> </text>
<polyline fill="none" stroke="#bfbfbf" points="630.3466,-896 718.3466,-896 "/>
<text text-anchor="middle" x="674.3466" y="-884" font-family="Helvetica,sans-Serif" font-size="10.00" fill="#000000"> </text>
</g>
<!-- Node7&#45;&gt;Node6 -->
<g id="edge6" class="edge">
<title>Node7&#45;&gt;Node6</title>
<path fill="none" stroke="#404040" d="M647.546,-876.7713C632.8373,-861.0044 613.9626,-840.7719 595.9066,-821.4168"/>
<polygon fill="none" stroke="#404040" points="595.8718,-821.3796 588.8541,-819.7208 587.6861,-812.6049 594.7038,-814.2637 595.8718,-821.3796"/>
<text text-anchor="middle" x="637.3466" y="-834" font-family="Helvetica,sans-Serif" font-size="10.00" fill="#000000"> +lifetime</text>
</g>
<!-- Node8 -->
<g id="node8" class="node">
<title>Node8</title>
<polygon fill="none" stroke="#bfbfbf" points="448.3466,-860.5 448.3466,-950.5 612.3466,-950.5 612.3466,-860.5 448.3466,-860.5"/>
<text text-anchor="start" x="456.3466" y="-938.5" font-family="Helvetica,sans-Serif" font-size="10.00" fill="#000000">variant&lt; o2::framework</text>
<text text-anchor="start" x="456.3466" y="-927.5" font-family="Helvetica,sans-Serif" font-size="10.00" fill="#000000">::ConcreteDataMatcher,</text>
<text text-anchor="start" x="456.3466" y="-916.5" font-family="Helvetica,sans-Serif" font-size="10.00" fill="#000000"> o2::framework::data_matcher</text>
<text text-anchor="middle" x="530.3466" y="-905.5" font-family="Helvetica,sans-Serif" font-size="10.00" fill="#000000">::DataDescriptorMatcher &gt;</text>
<polyline fill="none" stroke="#bfbfbf" points="448.3466,-898.5 612.3466,-898.5 "/>
<text text-anchor="middle" x="530.3466" y="-886.5" font-family="Helvetica,sans-Serif" font-size="10.00" fill="#000000"> </text>
<polyline fill="none" stroke="#bfbfbf" points="448.3466,-879.5 612.3466,-879.5 "/>
<text text-anchor="middle" x="530.3466" y="-867.5" font-family="Helvetica,sans-Serif" font-size="10.00" fill="#000000"> </text>
</g>
<!-- Node8&#45;&gt;Node6 -->
<g id="edge7" class="edge">
<title>Node8&#45;&gt;Node6</title>
<path fill="none" stroke="#404040" d="M531.8603,-860.3907C532.2397,-849.0845 532.6552,-836.7027 533.063,-824.5514"/>
<polygon fill="none" stroke="#404040" points="533.064,-824.5186 529.2675,-818.3878 533.4665,-812.5254 537.263,-818.6562 533.064,-824.5186"/>
<text text-anchor="middle" x="558.3466" y="-834" font-family="Helvetica,sans-Serif" font-size="10.00" fill="#000000"> +matcher</text>
</g>
<!-- Node9 -->
<g id="node9" class="node">
<title>Node9</title>
<polygon fill="none" stroke="#bfbfbf" points="643.8466,-728 643.8466,-785 704.8466,-785 704.8466,-728 643.8466,-728"/>
<text text-anchor="middle" x="674.3466" y="-773" font-family="Helvetica,sans-Serif" font-size="10.00" fill="#000000">unsigned</text>
<polyline fill="none" stroke="#bfbfbf" points="643.8466,-766 704.8466,-766 "/>
<text text-anchor="middle" x="674.3466" y="-754" font-family="Helvetica,sans-Serif" font-size="10.00" fill="#000000"> </text>
<polyline fill="none" stroke="#bfbfbf" points="643.8466,-747 704.8466,-747 "/>
<text text-anchor="middle" x="674.3466" y="-735" font-family="Helvetica,sans-Serif" font-size="10.00" fill="#000000"> </text>
</g>
<!-- Node9&#45;&gt;Node2 -->
<g id="edge9" class="edge">
<title>Node9&#45;&gt;Node2</title>
<path fill="none" stroke="#404040" d="M682.6238,-727.6871C695.5731,-676.2224 714.4819,-567.23 666.3466,-496 617.9768,-424.423 521.2006,-391.6398 450.813,-376.8291"/>
<polygon fill="none" stroke="#404040" points="450.6421,-376.7949 443.9726,-379.5369 438.8764,-374.4351 445.5458,-371.6931 450.6421,-376.7949"/>
<text text-anchor="middle" x="731.3466" y="-572" font-family="Helvetica,sans-Serif" font-size="10.00" fill="#000000"> +mTaskHash</text>
</g>
<!-- Node9&#45;&gt;Node11 -->
<g id="edge17" class="edge">
<title>Node9&#45;&gt;Node11</title>
<path fill="none" stroke="#404040" d="M649.4871,-727.7763C639.6798,-717.8523 627.7865,-707.3831 615.3466,-700 555.9972,-664.7762 528.3537,-685.2676 467.3466,-653 466.3436,-652.4695 465.3406,-651.9287 464.338,-651.3781"/>
<polygon fill="none" stroke="#404040" points="463.9956,-651.1786 456.7976,-651.6133 453.6279,-645.1362 460.8259,-644.7015 463.9956,-651.1786"/>
<text text-anchor="middle" x="607.3466" y="-674" font-family="Helvetica,sans-Serif" font-size="10.00" fill="#000000"> +mTaskHash</text>
</g>
<!-- Node10 -->
<g id="node10" class="node">
<title>Node10</title>
<polygon fill="none" stroke="#bfbfbf" points="541.3466,-546 541.3466,-603 657.3466,-603 657.3466,-546 541.3466,-546"/>
<text text-anchor="middle" x="599.3466" y="-591" font-family="Helvetica,sans-Serif" font-size="10.00" fill="#000000">shared_ptr&lt; TH1F &gt;</text>
<polyline fill="none" stroke="#bfbfbf" points="541.3466,-584 657.3466,-584 "/>
<text text-anchor="middle" x="599.3466" y="-572" font-family="Helvetica,sans-Serif" font-size="10.00" fill="#000000"> </text>
<polyline fill="none" stroke="#bfbfbf" points="541.3466,-565 657.3466,-565 "/>
<text text-anchor="middle" x="599.3466" y="-553" font-family="Helvetica,sans-Serif" font-size="10.00" fill="#000000"> </text>
</g>
<!-- Node10&#45;&gt;Node2 -->
<g id="edge10" class="edge">
<title>Node10&#45;&gt;Node2</title>
<path fill="none" stroke="#404040" d="M576.311,-545.6972C557.6984,-523.196 530.2582,-491.7051 503.3466,-467 486.4058,-451.4483 467.1786,-435.9142 448.626,-421.8278"/>
<polygon fill="none" stroke="#404040" points="448.5974,-421.8063 441.3976,-421.4023 439.0014,-414.601 446.2012,-415.005 448.5974,-421.8063"/>
<text text-anchor="middle" x="535.3466" y="-470" font-family="Helvetica,sans-Serif" font-size="10.00" fill="#000000"> +object</text>
</g>
<!-- Node11&#45;&gt;Node2 -->
<g id="edge11" class="edge">
<title>Node11&#45;&gt;Node2</title>
<path fill="none" stroke="#ffa500" d="M367.3466,-486.1539C367.3466,-473.7421 367.3466,-461.0152 367.3466,-448.6937"/>
<polygon fill="#ffa500" stroke="#ffa500" points="363.8467,-486.4899 367.3466,-496.4899 370.8467,-486.49 363.8467,-486.4899"/>
<text text-anchor="middle" x="392.8466" y="-470" font-family="Helvetica,sans-Serif" font-size="10.00" fill="#000000"> &lt; TH1F &gt;</text>
</g>
<!-- Node12 -->
<g id="node12" class="node">
<title>Node12</title>
<polygon fill="none" stroke="#bfbfbf" points="276.8466,-728 276.8466,-785 373.8466,-785 373.8466,-728 276.8466,-728"/>
<text text-anchor="middle" x="325.3466" y="-773" font-family="Helvetica,sans-Serif" font-size="10.00" fill="#000000">shared_ptr&lt; T &gt;</text>
<polyline fill="none" stroke="#bfbfbf" points="276.8466,-766 373.8466,-766 "/>
<text text-anchor="middle" x="325.3466" y="-754" font-family="Helvetica,sans-Serif" font-size="10.00" fill="#000000"> </text>
<polyline fill="none" stroke="#bfbfbf" points="276.8466,-747 373.8466,-747 "/>
<text text-anchor="middle" x="325.3466" y="-735" font-family="Helvetica,sans-Serif" font-size="10.00" fill="#000000"> </text>
</g>
<!-- Node12&#45;&gt;Node11 -->
<g id="edge14" class="edge">
<title>Node12&#45;&gt;Node11</title>
<path fill="none" stroke="#404040" d="M332.0016,-727.6616C335.9804,-710.42 341.2753,-687.4756 346.5528,-664.6065"/>
<polygon fill="none" stroke="#404040" points="346.6055,-664.3776 344.0572,-657.6318 349.3039,-652.6849 351.8523,-659.4307 346.6055,-664.3776"/>
<text text-anchor="middle" x="365.3466" y="-674" font-family="Helvetica,sans-Serif" font-size="10.00" fill="#000000"> +object</text>
</g>
</g>
</svg>
