<?xml version="1.0" encoding="UTF-8" standalone="no"?>
<!DOCTYPE svg PUBLIC "-//W3C//DTD SVG 1.1//EN"
 "http://www.w3.org/Graphics/SVG/1.1/DTD/svg11.dtd">
<!-- Generated by graphviz version 2.40.1 (20161225.0304)
 -->
<!-- Title: o2::header::RAWDataHeaderV4 Pages: 1 -->
<!--zoomable 512 -->
<svg id="main" version="1.1" xmlns="http://www.w3.org/2000/svg" xmlns:xlink="http://www.w3.org/1999/xlink" xml:space="preserve" onload="init(evt)">
<style type="text/css"><![CDATA[
.edge:hover path { stroke: red; }
.edge:hover polygon { stroke: red; fill: red; }
]]></style>
<script type="text/javascript"><![CDATA[
var edges = document.getElementsByTagName('g');
if (edges && edges.length) {
  for (var i=0;i<edges.length;i++) {
    if (edges[i].id.substr(0,4)=='edge') {
      edges[i].setAttribute('class','edge');
    }
  }
}
]]></script>
        <defs>
                <circle id="rim" cx="0" cy="0" r="7"/>
                <circle id="rim2" cx="0" cy="0" r="3.5"/>
                <g id="zoomPlus">
                        <use xlink:href="#rim" fill="#404040">
                                <set attributeName="fill" to="#808080" begin="zoomplus.mouseover" end="zoomplus.mouseout"/>
                        </use>
                        <path d="M-4,0h8M0,-4v8" fill="none" stroke="white" stroke-width="1.5" pointer-events="none"/>
                </g>
                <g id="zoomMin">
                        <use xlink:href="#rim" fill="#404040">
                                <set attributeName="fill" to="#808080" begin="zoomminus.mouseover" end="zoomminus.mouseout"/>
                        </use>
                        <path d="M-4,0h8" fill="none" stroke="white" stroke-width="1.5" pointer-events="none"/>
                </g>
                <g id="dirArrow">
                        <path fill="none" stroke="white" stroke-width="1.5" d="M0,-3.0v7 M-2.5,-0.5L0,-3.0L2.5,-0.5"/>
                </g>
               <g id="resetDef">
                       <use xlink:href="#rim2" fill="#404040">
                               <set attributeName="fill" to="#808080" begin="reset.mouseover" end="reset.mouseout"/>
                       </use>
               </g>
        </defs>

<script type="text/javascript">
var viewWidth = 1117;
var viewHeight = 512;
var sectionId = 'dynsection-0';
</script>
<script xlink:href="../../svgpan.js"/>
<svg id="graph" class="graph">
<g id="viewport">
<title>o2::header::RAWDataHeaderV4</title>
<!-- Node1 -->
<g id="node1" class="node">
<title>Node1</title>
<polygon fill="#bfbfbf" stroke="#000000" points="497,-.5 497,-288.5 664,-288.5 664,-.5 497,-.5"/>
<text text-anchor="middle" x="580.5" y="-276.5" font-family="Helvetica,sans-Serif" font-size="10.00" fill="#000000">o2::header::RAWDataHeaderV4</text>
<polyline fill="none" stroke="#000000" points="497,-269.5 664,-269.5 "/>
<text text-anchor="start" x="505" y="-257.5" font-family="Helvetica,sans-Serif" font-size="10.00" fill="#000000">+ word0</text>
<text text-anchor="start" x="505" y="-246.5" font-family="Helvetica,sans-Serif" font-size="10.00" fill="#000000">+ version</text>
<text text-anchor="start" x="505" y="-235.5" font-family="Helvetica,sans-Serif" font-size="10.00" fill="#000000">+ headerSize</text>
<text text-anchor="start" x="505" y="-224.5" font-family="Helvetica,sans-Serif" font-size="10.00" fill="#000000">+ blockLength</text>
<text text-anchor="start" x="505" y="-213.5" font-family="Helvetica,sans-Serif" font-size="10.00" fill="#000000">+ zero0</text>
<text text-anchor="start" x="505" y="-202.5" font-family="Helvetica,sans-Serif" font-size="10.00" fill="#000000">+ word1</text>
<text text-anchor="start" x="505" y="-191.5" font-family="Helvetica,sans-Serif" font-size="10.00" fill="#000000">+ offsetToNext</text>
<text text-anchor="start" x="505" y="-180.5" font-family="Helvetica,sans-Serif" font-size="10.00" fill="#000000">+ memorySize</text>
<text text-anchor="start" x="505" y="-169.5" font-family="Helvetica,sans-Serif" font-size="10.00" fill="#000000">+ packetCounter</text>
<text text-anchor="start" x="505" y="-158.5" font-family="Helvetica,sans-Serif" font-size="10.00" fill="#000000">+ cruID</text>
<text text-anchor="start" x="505" y="-147.5" font-family="Helvetica,sans-Serif" font-size="10.00" fill="#000000">+ word2</text>
<text text-anchor="start" x="505" y="-136.5" font-family="Helvetica,sans-Serif" font-size="10.00" fill="#000000">+ word3</text>
<text text-anchor="start" x="505" y="-125.5" font-family="Helvetica,sans-Serif" font-size="10.00" fill="#000000">+ word4</text>
<text text-anchor="start" x="505" y="-114.5" font-family="Helvetica,sans-Serif" font-size="10.00" fill="#000000">+ triggerBC</text>
<text text-anchor="start" x="505" y="-103.5" font-family="Helvetica,sans-Serif" font-size="10.00" fill="#000000">+ zero41</text>
<text text-anchor="start" x="505" y="-92.5" font-family="Helvetica,sans-Serif" font-size="10.00" fill="#000000">+ heartbeatBC</text>
<text text-anchor="start" x="505" y="-81.5" font-family="Helvetica,sans-Serif" font-size="10.00" fill="#000000">+ zero42</text>
<text text-anchor="start" x="505" y="-70.5" font-family="Helvetica,sans-Serif" font-size="10.00" fill="#000000">+ word5</text>
<text text-anchor="start" x="505" y="-59.5" font-family="Helvetica,sans-Serif" font-size="10.00" fill="#000000">+ word6</text>
<text text-anchor="start" x="505" y="-48.5" font-family="Helvetica,sans-Serif" font-size="10.00" fill="#000000">+ detectorField</text>
<text text-anchor="start" x="505" y="-37.5" font-family="Helvetica,sans-Serif" font-size="10.00" fill="#000000">+ stop</text>
<text text-anchor="start" x="505" y="-26.5" font-family="Helvetica,sans-Serif" font-size="10.00" fill="#000000">+ pageCnt</text>
<polyline fill="none" stroke="#000000" points="497,-19.5 664,-19.5 "/>
<text text-anchor="middle" x="580.5" y="-7.5" font-family="Helvetica,sans-Serif" font-size="10.00" fill="#000000"> </text>
</g>
<!-- Node2 -->
<g id="node2" class="node">
<title>Node2</title>
<polygon fill="none" stroke="#bfbfbf" points="0,-446.5 0,-503.5 113,-503.5 113,-446.5 0,-446.5"/>
<text text-anchor="middle" x="56.5" y="-491.5" font-family="Helvetica,sans-Serif" font-size="10.00" fill="#000000">anonymous:+@148</text>
<polyline fill="none" stroke="#bfbfbf" points="0,-484.5 113,-484.5 "/>
<text text-anchor="middle" x="56.5" y="-472.5" font-family="Helvetica,sans-Serif" font-size="10.00" fill="#000000"> </text>
<polyline fill="none" stroke="#bfbfbf" points="0,-465.5 113,-465.5 "/>
<text text-anchor="middle" x="56.5" y="-453.5" font-family="Helvetica,sans-Serif" font-size="10.00" fill="#000000"> </text>
</g>
<!-- Node2&#45;&gt;Node1 -->
<g id="edge1" class="edge">
<title>Node2&#45;&gt;Node1</title>
<path fill="none" stroke="#404040" d="M69.0363,-446.4521C86.5695,-409.543 121.713,-345.4541 169.5,-307 263.1803,-231.6156 396.1852,-187.6304 485.2623,-164.8514"/>
<polygon fill="none" stroke="#404040" points="485.3478,-164.83 490.1943,-159.4905 496.9872,-161.9105 492.1407,-167.2501 485.3478,-164.83"/>
<text text-anchor="middle" x="189.5" y="-365" font-family="Helvetica,sans-Serif" font-size="10.00" fill="#000000"> +@148</text>
</g>
<!-- Node3 -->
<g id="node3" class="node">
<title>Node3</title>
<polygon fill="none" stroke="#bfbfbf" points="131,-446.5 131,-503.5 244,-503.5 244,-446.5 131,-446.5"/>
<text text-anchor="middle" x="187.5" y="-491.5" font-family="Helvetica,sans-Serif" font-size="10.00" fill="#000000">anonymous:+@140</text>
<polyline fill="none" stroke="#bfbfbf" points="131,-484.5 244,-484.5 "/>
<text text-anchor="middle" x="187.5" y="-472.5" font-family="Helvetica,sans-Serif" font-size="10.00" fill="#000000"> </text>
<polyline fill="none" stroke="#bfbfbf" points="131,-465.5 244,-465.5 "/>
<text text-anchor="middle" x="187.5" y="-453.5" font-family="Helvetica,sans-Serif" font-size="10.00" fill="#000000"> </text>
</g>
<!-- Node3&#45;&gt;Node1 -->
<g id="edge2" class="edge">
<title>Node3&#45;&gt;Node1</title>
<path fill="none" stroke="#404040" d="M202.1746,-446.3201C221.6073,-410.4231 258.7022,-348.6094 303.5,-307 357.3252,-257.0057 429.1211,-215.428 486.1312,-186.8464"/>
<polygon fill="none" stroke="#404040" points="486.2073,-186.8088 489.809,-180.5616 496.961,-181.4834 493.3592,-187.7307 486.2073,-186.8088"/>
<text text-anchor="middle" x="323.5" y="-365" font-family="Helvetica,sans-Serif" font-size="10.00" fill="#000000"> +@140</text>
</g>
<!-- Node4 -->
<g id="node4" class="node">
<title>Node4</title>
<polygon fill="none" stroke="#bfbfbf" points="262,-446.5 262,-503.5 375,-503.5 375,-446.5 262,-446.5"/>
<text text-anchor="middle" x="318.5" y="-491.5" font-family="Helvetica,sans-Serif" font-size="10.00" fill="#000000">anonymous:+@150</text>
<polyline fill="none" stroke="#bfbfbf" points="262,-484.5 375,-484.5 "/>
<text text-anchor="middle" x="318.5" y="-472.5" font-family="Helvetica,sans-Serif" font-size="10.00" fill="#000000"> </text>
<polyline fill="none" stroke="#bfbfbf" points="262,-465.5 375,-465.5 "/>
<text text-anchor="middle" x="318.5" y="-453.5" font-family="Helvetica,sans-Serif" font-size="10.00" fill="#000000"> </text>
</g>
<!-- Node4&#45;&gt;Node1 -->
<g id="edge3" class="edge">
<title>Node4&#45;&gt;Node1</title>
<path fill="none" stroke="#404040" d="M334.514,-446.2248C354.1681,-411.8323 389.3577,-353.1436 425.5,-307 444.6011,-282.6132 466.7761,-257.711 488.2771,-234.9625"/>
<polygon fill="none" stroke="#404040" points="488.5168,-234.7109 489.76,-227.6077 496.795,-226.0234 495.5517,-233.1265 488.5168,-234.7109"/>
<text text-anchor="middle" x="445.5" y="-365" font-family="Helvetica,sans-Serif" font-size="10.00" fill="#000000"> +@150</text>
</g>
<!-- Node5 -->
<g id="node5" class="node">
<title>Node5</title>
<polygon fill="none" stroke="#bfbfbf" points="393,-446.5 393,-503.5 506,-503.5 506,-446.5 393,-446.5"/>
<text text-anchor="middle" x="449.5" y="-491.5" font-family="Helvetica,sans-Serif" font-size="10.00" fill="#000000">anonymous:+@152</text>
<polyline fill="none" stroke="#bfbfbf" points="393,-484.5 506,-484.5 "/>
<text text-anchor="middle" x="449.5" y="-472.5" font-family="Helvetica,sans-Serif" font-size="10.00" fill="#000000"> </text>
<polyline fill="none" stroke="#bfbfbf" points="393,-465.5 506,-465.5 "/>
<text text-anchor="middle" x="449.5" y="-453.5" font-family="Helvetica,sans-Serif" font-size="10.00" fill="#000000"> </text>
</g>
<!-- Node5&#45;&gt;Node1 -->
<g id="edge4" class="edge">
<title>Node5&#45;&gt;Node1</title>
<path fill="none" stroke="#404040" d="M460.8962,-446.2485C474.0578,-413.0432 496.7454,-355.8046 518.8469,-300.0446"/>
<polygon fill="none" stroke="#404040" points="518.9814,-299.7051 517.4738,-292.6534 523.4032,-288.5495 524.9109,-295.6012 518.9814,-299.7051"/>
<text text-anchor="middle" x="534.5" y="-365" font-family="Helvetica,sans-Serif" font-size="10.00" fill="#000000"> +@152</text>
</g>
<!-- Node6 -->
<g id="node6" class="node">
<title>Node6</title>
<polygon fill="none" stroke="#bfbfbf" points="524,-446.5 524,-503.5 637,-503.5 637,-446.5 524,-446.5"/>
<text text-anchor="middle" x="580.5" y="-491.5" font-family="Helvetica,sans-Serif" font-size="10.00" fill="#000000">anonymous:+@154</text>
<polyline fill="none" stroke="#bfbfbf" points="524,-484.5 637,-484.5 "/>
<text text-anchor="middle" x="580.5" y="-472.5" font-family="Helvetica,sans-Serif" font-size="10.00" fill="#000000"> </text>
<polyline fill="none" stroke="#bfbfbf" points="524,-465.5 637,-465.5 "/>
<text text-anchor="middle" x="580.5" y="-453.5" font-family="Helvetica,sans-Serif" font-size="10.00" fill="#000000"> </text>
</g>
<!-- Node6&#45;&gt;Node1 -->
<g id="edge5" class="edge">
<title>Node6&#45;&gt;Node1</title>
<path fill="none" stroke="#404040" d="M580.5,-446.2485C580.5,-413.1819 580.5,-356.2821 580.5,-300.7431"/>
<polygon fill="none" stroke="#404040" points="580.5001,-300.5495 576.5,-294.5495 580.5,-288.5495 584.5,-294.5495 580.5001,-300.5495"/>
<text text-anchor="middle" x="600.5" y="-365" font-family="Helvetica,sans-Serif" font-size="10.00" fill="#000000"> +@154</text>
</g>
<!-- Node7 -->
<g id="node7" class="node">
<title>Node7</title>
<polygon fill="none" stroke="#bfbfbf" points="655,-446.5 655,-503.5 768,-503.5 768,-446.5 655,-446.5"/>
<text text-anchor="middle" x="711.5" y="-491.5" font-family="Helvetica,sans-Serif" font-size="10.00" fill="#000000">anonymous:+@142</text>
<polyline fill="none" stroke="#bfbfbf" points="655,-484.5 768,-484.5 "/>
<text text-anchor="middle" x="711.5" y="-472.5" font-family="Helvetica,sans-Serif" font-size="10.00" fill="#000000"> </text>
<polyline fill="none" stroke="#bfbfbf" points="655,-465.5 768,-465.5 "/>
<text text-anchor="middle" x="711.5" y="-453.5" font-family="Helvetica,sans-Serif" font-size="10.00" fill="#000000"> </text>
</g>
<!-- Node7&#45;&gt;Node1 -->
<g id="edge6" class="edge">
<title>Node7&#45;&gt;Node1</title>
<path fill="none" stroke="#404040" d="M700.1038,-446.2485C686.9422,-413.0432 664.2546,-355.8046 642.1531,-300.0446"/>
<polygon fill="none" stroke="#404040" points="642.0186,-299.7051 636.0891,-295.6012 637.5968,-288.5495 643.5262,-292.6534 642.0186,-299.7051"/>
<text text-anchor="middle" x="711.5" y="-365" font-family="Helvetica,sans-Serif" font-size="10.00" fill="#000000"> +@142</text>
</g>
<!-- Node8 -->
<g id="node8" class="node">
<title>Node8</title>
<polygon fill="none" stroke="#bfbfbf" points="786,-446.5 786,-503.5 899,-503.5 899,-446.5 786,-446.5"/>
<text text-anchor="middle" x="842.5" y="-491.5" font-family="Helvetica,sans-Serif" font-size="10.00" fill="#000000">anonymous:+@144</text>
<polyline fill="none" stroke="#bfbfbf" points="786,-484.5 899,-484.5 "/>
<text text-anchor="middle" x="842.5" y="-472.5" font-family="Helvetica,sans-Serif" font-size="10.00" fill="#000000"> </text>
<polyline fill="none" stroke="#bfbfbf" points="786,-465.5 899,-465.5 "/>
<text text-anchor="middle" x="842.5" y="-453.5" font-family="Helvetica,sans-Serif" font-size="10.00" fill="#000000"> </text>
</g>
<!-- Node8&#45;&gt;Node1 -->
<g id="edge7" class="edge">
<title>Node8&#45;&gt;Node1</title>
<path fill="none" stroke="#404040" d="M826.486,-446.2248C806.8319,-411.8323 771.6423,-353.1436 735.5,-307 716.3989,-282.6132 694.2239,-257.711 672.7229,-234.9625"/>
<polygon fill="none" stroke="#404040" points="672.4832,-234.7109 665.4483,-233.1265 664.205,-226.0234 671.24,-227.6077 672.4832,-234.7109"/>
<text text-anchor="middle" x="833.5" y="-365" font-family="Helvetica,sans-Serif" font-size="10.00" fill="#000000"> +@144</text>
</g>
<!-- Node9 -->
<g id="node9" class="node">
<title>Node9</title>
<polygon fill="none" stroke="#bfbfbf" points="917,-446.5 917,-503.5 978,-503.5 978,-446.5 917,-446.5"/>
<text text-anchor="middle" x="947.5" y="-491.5" font-family="Helvetica,sans-Serif" font-size="10.00" fill="#000000">unsigned</text>
<polyline fill="none" stroke="#bfbfbf" points="917,-484.5 978,-484.5 "/>
<text text-anchor="middle" x="947.5" y="-472.5" font-family="Helvetica,sans-Serif" font-size="10.00" fill="#000000"> </text>
<polyline fill="none" stroke="#bfbfbf" points="917,-465.5 978,-465.5 "/>
<text text-anchor="middle" x="947.5" y="-453.5" font-family="Helvetica,sans-Serif" font-size="10.00" fill="#000000"> </text>
</g>
<!-- Node9&#45;&gt;Node1 -->
<g id="edge8" class="edge">
<title>Node9&#45;&gt;Node1</title>
<path fill="none" stroke="#404040" d="M937.7677,-446.4812C924.3347,-410.4722 897.1853,-348.2529 857.5,-307 806.0259,-253.4926 733.1497,-211.6814 675.0661,-183.8767"/>
<polygon fill="none" stroke="#404040" points="674.8849,-183.7914 667.7522,-184.852 664.0298,-178.6759 671.1625,-177.6153 674.8849,-183.7914"/>
<text text-anchor="middle" x="969.5" y="-420" font-family="Helvetica,sans-Serif" font-size="10.00" fill="#000000"> +word7</text>
<text text-anchor="middle" x="969.5" y="-409" font-family="Helvetica,sans-Serif" font-size="10.00" fill="#000000">+triggerType</text>
<text text-anchor="middle" x="969.5" y="-398" font-family="Helvetica,sans-Serif" font-size="10.00" fill="#000000">+heartbeatOrbit</text>
<text text-anchor="middle" x="969.5" y="-387" font-family="Helvetica,sans-Serif" font-size="10.00" fill="#000000">+linkID</text>
<text text-anchor="middle" x="969.5" y="-376" font-family="Helvetica,sans-Serif" font-size="10.00" fill="#000000">+zero6</text>
<text text-anchor="middle" x="969.5" y="-365" font-family="Helvetica,sans-Serif" font-size="10.00" fill="#000000">+par</text>
<text text-anchor="middle" x="969.5" y="-354" font-family="Helvetica,sans-Serif" font-size="10.00" fill="#000000">+feeId</text>
<text text-anchor="middle" x="969.5" y="-343" font-family="Helvetica,sans-Serif" font-size="10.00" fill="#000000">+endPointID</text>
<text text-anchor="middle" x="969.5" y="-332" font-family="Helvetica,sans-Serif" font-size="10.00" fill="#000000">+priority</text>
<text text-anchor="middle" x="969.5" y="-321" font-family="Helvetica,sans-Serif" font-size="10.00" fill="#000000">+triggerOrbit</text>
<text text-anchor="middle" x="969.5" y="-310" font-family="Helvetica,sans-Serif" font-size="10.00" fill="#000000">...</text>
</g>
<!-- Node10 -->
<g id="node10" class="node">
<title>Node10</title>
<polygon fill="none" stroke="#bfbfbf" points="996,-446.5 996,-503.5 1109,-503.5 1109,-446.5 996,-446.5"/>
<text text-anchor="middle" x="1052.5" y="-491.5" font-family="Helvetica,sans-Serif" font-size="10.00" fill="#000000">anonymous:+@146</text>
<polyline fill="none" stroke="#bfbfbf" points="996,-484.5 1109,-484.5 "/>
<text text-anchor="middle" x="1052.5" y="-472.5" font-family="Helvetica,sans-Serif" font-size="10.00" fill="#000000"> </text>
<polyline fill="none" stroke="#bfbfbf" points="996,-465.5 1109,-465.5 "/>
<text text-anchor="middle" x="1052.5" y="-453.5" font-family="Helvetica,sans-Serif" font-size="10.00" fill="#000000"> </text>
</g>
<!-- Node10&#45;&gt;Node1 -->
<g id="edge9" class="edge">
<title>Node10&#45;&gt;Node1</title>
<path fill="none" stroke="#404040" d="M1053.6325,-446.3887C1053.5233,-409.7057 1047.8512,-346.1709 1013.5,-307 927.2321,-208.6282 775.3471,-169.6493 676.3343,-154.31"/>
<polygon fill="none" stroke="#404040" points="676.0993,-154.2752 669.5766,-157.3499 664.2297,-152.5114 670.7524,-149.4367 676.0993,-154.2752"/>
<text text-anchor="middle" x="1072.5" y="-365" font-family="Helvetica,sans-Serif" font-size="10.00" fill="#000000"> +@146</text>
</g>
</g>
</svg>
        <g id="navigator" transform="translate(0 0)" fill="#404254">
                <rect fill="#f2f5e9" fill-opacity="0.5" stroke="#606060" stroke-width=".5" x="0" y="0" width="60" height="60"/>
                <use id="zoomplus" xlink:href="#zoomPlus" x="17" y="9" onmousedown="handleZoom(evt,'in')"/>
                <use id="zoomminus" xlink:href="#zoomMin" x="42" y="9" onmousedown="handleZoom(evt,'out')"/>
                <use id="reset" xlink:href="#resetDef" x="30" y="36" onmousedown="handleReset()"/>
                <g id="arrowUp" xlink:href="#dirArrow" transform="translate(30 24)" onmousedown="handlePan(0,-1)">
                  <use xlink:href="#rim" fill="#404040">
                        <set attributeName="fill" to="#808080" begin="arrowUp.mouseover" end="arrowUp.mouseout"/>
                  </use>
                  <path fill="none" stroke="white" stroke-width="1.5" d="M0,-3.0v7 M-2.5,-0.5L0,-3.0L2.5,-0.5"/>
                </g>
                <g id="arrowRight" xlink:href="#dirArrow" transform="rotate(90) translate(36 -43)" onmousedown="handlePan(1,0)">
                  <use xlink:href="#rim" fill="#404040">
                        <set attributeName="fill" to="#808080" begin="arrowRight.mouseover" end="arrowRight.mouseout"/>
                  </use>
                  <path fill="none" stroke="white" stroke-width="1.5" d="M0,-3.0v7 M-2.5,-0.5L0,-3.0L2.5,-0.5"/>
                </g>
                <g id="arrowDown" xlink:href="#dirArrow" transform="rotate(180) translate(-30 -48)" onmousedown="handlePan(0,1)">
                  <use xlink:href="#rim" fill="#404040">
                        <set attributeName="fill" to="#808080" begin="arrowDown.mouseover" end="arrowDown.mouseout"/>
                  </use>
                  <path fill="none" stroke="white" stroke-width="1.5" d="M0,-3.0v7 M-2.5,-0.5L0,-3.0L2.5,-0.5"/>
                </g>
                <g id="arrowLeft" xlink:href="#dirArrow" transform="rotate(270) translate(-36 17)" onmousedown="handlePan(-1,0)">
                  <use xlink:href="#rim" fill="#404040">
                        <set attributeName="fill" to="#808080" begin="arrowLeft.mouseover" end="arrowLeft.mouseout"/>
                  </use>
                  <path fill="none" stroke="white" stroke-width="1.5" d="M0,-3.0v7 M-2.5,-0.5L0,-3.0L2.5,-0.5"/>
                </g>
        </g>
        <svg viewBox="0 0 15 15" width="100%" height="30px" preserveAspectRatio="xMaxYMin meet">
         <g id="arrow_out" transform="scale(0.3 0.3)">
          <a xlink:href="structo2_1_1header_1_1RAWDataHeaderV4__coll__graph_org.svg" target="_base">
           <rect id="button" ry="5" rx="5" y="6" x="6" height="38" width="38"
                fill="#f2f5e9" fill-opacity="0.5" stroke="#606060" stroke-width="1.0"/>
           <path id="arrow"
             d="M 11.500037,31.436501 C 11.940474,20.09759 22.043105,11.32322 32.158766,21.979434 L 37.068811,17.246167 C 37.068811,17.246167 37.088388,32 37.088388,32 L 22.160133,31.978069 C 22.160133,31.978069 26.997745,27.140456 26.997745,27.140456 C 18.528582,18.264221 13.291696,25.230495 11.500037,31.436501 z"
             style="fill:#404040;"/>
          </a>
         </g>
        </svg>
</svg>
