<?xml version="1.0" encoding="UTF-8" standalone="no"?>
<!DOCTYPE svg PUBLIC "-//W3C//DTD SVG 1.1//EN"
 "http://www.w3.org/Graphics/SVG/1.1/DTD/svg11.dtd">
<!-- Generated by graphviz version 2.40.1 (20161225.0304)
 -->
<!-- Title: o2::trd::TRDFeeID Pages: 1 -->
<svg width="274pt" height="226pt"
 viewBox="0.00 0.00 274.00 226.00" xmlns="http://www.w3.org/2000/svg" xmlns:xlink="http://www.w3.org/1999/xlink">
<g id="graph0" class="graph" transform="scale(1 1) rotate(0) translate(4 222)">
<title>o2::trd::TRDFeeID</title>
<!-- Node1 -->
<g id="node1" class="node">
<title>Node1</title>
<polygon fill="#bfbfbf" stroke="#000000" points="84.5,-.5 84.5,-57.5 185.5,-57.5 185.5,-.5 84.5,-.5"/>
<text text-anchor="middle" x="135" y="-45.5" font-family="Helvetica,sans-Serif" font-size="10.00" fill="#000000">o2::trd::TRDFeeID</text>
<polyline fill="none" stroke="#000000" points="84.5,-38.5 185.5,-38.5 "/>
<text text-anchor="middle" x="135" y="-26.5" font-family="Helvetica,sans-Serif" font-size="10.00" fill="#000000"> </text>
<polyline fill="none" stroke="#000000" points="84.5,-19.5 185.5,-19.5 "/>
<text text-anchor="middle" x="135" y="-7.5" font-family="Helvetica,sans-Serif" font-size="10.00" fill="#000000"> </text>
</g>
<!-- Node2 -->
<g id="node2" class="node">
<title>Node2</title>
<polygon fill="none" stroke="#bfbfbf" points="0,-160.5 0,-217.5 148,-217.5 148,-160.5 0,-160.5"/>
<text text-anchor="middle" x="74" y="-205.5" font-family="Helvetica,sans-Serif" font-size="10.00" fill="#000000">anonymous:+__attribute__</text>
<polyline fill="none" stroke="#bfbfbf" points="0,-198.5 148,-198.5 "/>
<text text-anchor="middle" x="74" y="-186.5" font-family="Helvetica,sans-Serif" font-size="10.00" fill="#000000"> </text>
<polyline fill="none" stroke="#bfbfbf" points="0,-179.5 148,-179.5 "/>
<text text-anchor="middle" x="74" y="-167.5" font-family="Helvetica,sans-Serif" font-size="10.00" fill="#000000"> </text>
</g>
<!-- Node2&#45;&gt;Node1 -->
<g id="edge1" class="edge">
<title>Node2&#45;&gt;Node1</title>
<path fill="none" stroke="#404040" d="M77.3014,-160.0733C80.7594,-136.5847 87.4956,-103.0423 100,-76 101.2703,-73.2528 102.718,-70.5094 104.2848,-67.806"/>
<polygon fill="none" stroke="#404040" points="104.317,-67.7557 104.1884,-60.5457 110.7943,-57.6538 110.9229,-64.8638 104.317,-67.7557"/>
<text text-anchor="middle" x="137.5" y="-106.5" font-family="Helvetica,sans-Serif" font-size="10.00" fill="#000000"> +__attribute__</text>
</g>
<!-- Node3 -->
<g id="node3" class="node">
<title>Node3</title>
<polygon fill="none" stroke="#bfbfbf" points="166.5,-160.5 166.5,-217.5 227.5,-217.5 227.5,-160.5 166.5,-160.5"/>
<text text-anchor="middle" x="197" y="-205.5" font-family="Helvetica,sans-Serif" font-size="10.00" fill="#000000">unsigned</text>
<polyline fill="none" stroke="#bfbfbf" points="166.5,-198.5 227.5,-198.5 "/>
<text text-anchor="middle" x="197" y="-186.5" font-family="Helvetica,sans-Serif" font-size="10.00" fill="#000000"> </text>
<polyline fill="none" stroke="#bfbfbf" points="166.5,-179.5 227.5,-179.5 "/>
<text text-anchor="middle" x="197" y="-167.5" font-family="Helvetica,sans-Serif" font-size="10.00" fill="#000000"> </text>
</g>
<!-- Node3&#45;&gt;Node1 -->
<g id="edge2" class="edge">
<title>Node3&#45;&gt;Node1</title>
<path fill="none" stroke="#404040" d="M195.4531,-160.342C193.2516,-136.7097 187.9182,-102.8319 175,-76 173.6579,-73.2124 172.1097,-70.4556 170.4189,-67.7583"/>
<polygon fill="none" stroke="#404040" points="170.2457,-67.513 163.5177,-64.918 163.3254,-57.7094 170.0534,-60.3044 170.2457,-67.513"/>
<text text-anchor="middle" x="229.5" y="-134" font-family="Helvetica,sans-Serif" font-size="10.00" fill="#000000"> +side</text>
<text text-anchor="middle" x="229.5" y="-123" font-family="Helvetica,sans-Serif" font-size="10.00" fill="#000000">+endpoint</text>
<text text-anchor="middle" x="229.5" y="-112" font-family="Helvetica,sans-Serif" font-size="10.00" fill="#000000">+word</text>
<text text-anchor="middle" x="229.5" y="-101" font-family="Helvetica,sans-Serif" font-size="10.00" fill="#000000">+supermodule</text>
<text text-anchor="middle" x="229.5" y="-90" font-family="Helvetica,sans-Serif" font-size="10.00" fill="#000000">+unused1</text>
<text text-anchor="middle" x="229.5" y="-79" font-family="Helvetica,sans-Serif" font-size="10.00" fill="#000000">+unused2</text>
</g>
</g>
</svg>
