<?xml version="1.0" encoding="UTF-8" standalone="no"?>
<!DOCTYPE svg PUBLIC "-//W3C//DTD SVG 1.1//EN"
 "http://www.w3.org/Graphics/SVG/1.1/DTD/svg11.dtd">
<!-- Generated by graphviz version 2.40.1 (20161225.0304)
 -->
<!-- Title: o2::tpc::RawReader::EventInfo Pages: 1 -->
<svg width="194pt" height="430pt"
 viewBox="0.00 0.00 194.00 430.00" xmlns="http://www.w3.org/2000/svg" xmlns:xlink="http://www.w3.org/1999/xlink">
<g id="graph0" class="graph" transform="scale(1 1) rotate(0) translate(4 426)">
<title>o2::tpc::RawReader::EventInfo</title>
<!-- Node1 -->
<g id="node1" class="node">
<title>Node1</title>
<polygon fill="#bfbfbf" stroke="#000000" points="0,-.5 0,-79.5 110,-79.5 110,-.5 0,-.5"/>
<text text-anchor="start" x="8" y="-67.5" font-family="Helvetica,sans-Serif" font-size="10.00" fill="#000000">o2::tpc::RawReader</text>
<text text-anchor="middle" x="55" y="-56.5" font-family="Helvetica,sans-Serif" font-size="10.00" fill="#000000">::EventInfo</text>
<polyline fill="none" stroke="#000000" points="0,-49.5 110,-49.5 "/>
<text text-anchor="middle" x="55" y="-37.5" font-family="Helvetica,sans-Serif" font-size="10.00" fill="#000000"> </text>
<polyline fill="none" stroke="#000000" points="0,-30.5 110,-30.5 "/>
<text text-anchor="start" x="8" y="-18.5" font-family="Helvetica,sans-Serif" font-size="10.00" fill="#000000">+ EventInfo()</text>
<text text-anchor="start" x="8" y="-7.5" font-family="Helvetica,sans-Serif" font-size="10.00" fill="#000000">+ EventInfo()</text>
</g>
<!-- Node2 -->
<g id="node2" class="node">
<title>Node2</title>
<polygon fill="none" stroke="#bfbfbf" points="1.5,-166 1.5,-223 30.5,-223 30.5,-166 1.5,-166"/>
<text text-anchor="middle" x="16" y="-211" font-family="Helvetica,sans-Serif" font-size="10.00" fill="#000000">int</text>
<polyline fill="none" stroke="#bfbfbf" points="1.5,-204 30.5,-204 "/>
<text text-anchor="middle" x="16" y="-192" font-family="Helvetica,sans-Serif" font-size="10.00" fill="#000000"> </text>
<polyline fill="none" stroke="#bfbfbf" points="1.5,-185 30.5,-185 "/>
<text text-anchor="middle" x="16" y="-173" font-family="Helvetica,sans-Serif" font-size="10.00" fill="#000000"> </text>
</g>
<!-- Node2&#45;&gt;Node1 -->
<g id="edge1" class="edge">
<title>Node2&#45;&gt;Node1</title>
<path fill="none" stroke="#404040" d="M14.4257,-165.6166C14.1744,-146.1256 15.4309,-120.0384 22,-98 22.7239,-95.5713 23.5651,-93.1342 24.4982,-90.7079"/>
<polygon fill="none" stroke="#404040" points="24.5972,-90.4832 23.3587,-83.3792 29.4399,-79.5037 30.6784,-86.6077 24.5972,-90.4832"/>
<text text-anchor="middle" x="49.5" y="-112" font-family="Helvetica,sans-Serif" font-size="10.00" fill="#000000"> +posInFile</text>
<text text-anchor="middle" x="49.5" y="-101" font-family="Helvetica,sans-Serif" font-size="10.00" fill="#000000">+path</text>
</g>
<!-- Node3 -->
<g id="node3" class="node">
<title>Node3</title>
<g id="a_node3"><a xlink:href="../../d3/d66/structo2_1_1tpc_1_1RawReader_1_1Header.html" target="_top" xlink:title="Data header struct. ">
<polygon fill="none" stroke="#000000" points="49,-138.5 49,-250.5 159,-250.5 159,-138.5 49,-138.5"/>
<text text-anchor="start" x="57" y="-238.5" font-family="Helvetica,sans-Serif" font-size="10.00" fill="#000000">o2::tpc::RawReader</text>
<text text-anchor="middle" x="104" y="-227.5" font-family="Helvetica,sans-Serif" font-size="10.00" fill="#000000">::Header</text>
<polyline fill="none" stroke="#000000" points="49,-220.5 159,-220.5 "/>
<text text-anchor="middle" x="104" y="-208.5" font-family="Helvetica,sans-Serif" font-size="10.00" fill="#000000"> </text>
<polyline fill="none" stroke="#000000" points="49,-201.5 159,-201.5 "/>
<text text-anchor="start" x="57" y="-189.5" font-family="Helvetica,sans-Serif" font-size="10.00" fill="#000000">+ timeStamp()</text>
<text text-anchor="start" x="57" y="-178.5" font-family="Helvetica,sans-Serif" font-size="10.00" fill="#000000">+ eventCount()</text>
<text text-anchor="start" x="57" y="-167.5" font-family="Helvetica,sans-Serif" font-size="10.00" fill="#000000">+ reserved_2()</text>
<text text-anchor="start" x="57" y="-156.5" font-family="Helvetica,sans-Serif" font-size="10.00" fill="#000000">+ Header()</text>
<text text-anchor="start" x="57" y="-145.5" font-family="Helvetica,sans-Serif" font-size="10.00" fill="#000000">+ Header()</text>
</a>
</g>
</g>
<!-- Node3&#45;&gt;Node1 -->
<g id="edge2" class="edge">
<title>Node3&#45;&gt;Node1</title>
<path fill="none" stroke="#404040" d="M89.2117,-138.367C85.4543,-125.0639 81.2658,-110.9732 77,-98 76.2683,-95.7748 75.5022,-93.5091 74.7127,-91.2258"/>
<polygon fill="none" stroke="#404040" points="74.6572,-91.0701 68.8726,-86.7643 70.6224,-79.7687 76.4069,-84.0745 74.6572,-91.0701"/>
<text text-anchor="middle" x="107" y="-106.5" font-family="Helvetica,sans-Serif" font-size="10.00" fill="#000000"> +header</text>
</g>
<!-- Node4 -->
<g id="node4" class="node">
<title>Node4</title>
<polygon fill="none" stroke="#bfbfbf" points="73.5,-364.5 73.5,-421.5 134.5,-421.5 134.5,-364.5 73.5,-364.5"/>
<text text-anchor="middle" x="104" y="-409.5" font-family="Helvetica,sans-Serif" font-size="10.00" fill="#000000">unsigned</text>
<polyline fill="none" stroke="#bfbfbf" points="73.5,-402.5 134.5,-402.5 "/>
<text text-anchor="middle" x="104" y="-390.5" font-family="Helvetica,sans-Serif" font-size="10.00" fill="#000000"> </text>
<polyline fill="none" stroke="#bfbfbf" points="73.5,-383.5 134.5,-383.5 "/>
<text text-anchor="middle" x="104" y="-371.5" font-family="Helvetica,sans-Serif" font-size="10.00" fill="#000000"> </text>
</g>
<!-- Node4&#45;&gt;Node3 -->
<g id="edge3" class="edge">
<title>Node4&#45;&gt;Node3</title>
<path fill="none" stroke="#404040" d="M104,-364.1364C104,-337.8008 104,-297.8431 104,-263.3223"/>
<polygon fill="none" stroke="#404040" points="104.0001,-262.8854 100,-256.8854 104,-250.8854 108,-256.8853 104.0001,-262.8854"/>
<text text-anchor="middle" x="145" y="-338" font-family="Helvetica,sans-Serif" font-size="10.00" fill="#000000"> +headerVersion</text>
<text text-anchor="middle" x="145" y="-327" font-family="Helvetica,sans-Serif" font-size="10.00" fill="#000000">+eventCount_w</text>
<text text-anchor="middle" x="145" y="-316" font-family="Helvetica,sans-Serif" font-size="10.00" fill="#000000">+dataType</text>
<text text-anchor="middle" x="145" y="-305" font-family="Helvetica,sans-Serif" font-size="10.00" fill="#000000">+reserved_01</text>
<text text-anchor="middle" x="145" y="-294" font-family="Helvetica,sans-Serif" font-size="10.00" fill="#000000">+nWords</text>
<text text-anchor="middle" x="145" y="-283" font-family="Helvetica,sans-Serif" font-size="10.00" fill="#000000">+timeStamp_w</text>
<text text-anchor="middle" x="145" y="-272" font-family="Helvetica,sans-Serif" font-size="10.00" fill="#000000">+reserved_2_w</text>
</g>
</g>
</svg>
