<?xml version="1.0" encoding="UTF-8" standalone="no"?>
<!DOCTYPE svg PUBLIC "-//W3C//DTD SVG 1.1//EN"
 "http://www.w3.org/Graphics/SVG/1.1/DTD/svg11.dtd">
<!-- Generated by graphviz version 2.40.1 (20161225.0304)
 -->
<!-- Title: o2::fv0::EventHeader Pages: 1 -->
<svg width="324pt" height="248pt"
 viewBox="0.00 0.00 323.50 248.00" xmlns="http://www.w3.org/2000/svg" xmlns:xlink="http://www.w3.org/1999/xlink">
<g id="graph0" class="graph" transform="scale(1 1) rotate(0) translate(4 244)">
<title>o2::fv0::EventHeader</title>
<!-- Node1 -->
<g id="node1" class="node">
<title>Node1</title>
<polygon fill="#bfbfbf" stroke="#000000" points="80,-.5 80,-57.5 199,-57.5 199,-.5 80,-.5"/>
<text text-anchor="middle" x="139.5" y="-45.5" font-family="Helvetica,sans-Serif" font-size="10.00" fill="#000000">o2::fv0::EventHeader</text>
<polyline fill="none" stroke="#000000" points="80,-38.5 199,-38.5 "/>
<text text-anchor="middle" x="139.5" y="-26.5" font-family="Helvetica,sans-Serif" font-size="10.00" fill="#000000"> </text>
<polyline fill="none" stroke="#000000" points="80,-19.5 199,-19.5 "/>
<text text-anchor="middle" x="139.5" y="-7.5" font-family="Helvetica,sans-Serif" font-size="10.00" fill="#000000"> </text>
</g>
<!-- Node2 -->
<g id="node2" class="node">
<title>Node2</title>
<polygon fill="none" stroke="#bfbfbf" points="0,-182.5 0,-239.5 107,-239.5 107,-182.5 0,-182.5"/>
<text text-anchor="middle" x="53.5" y="-227.5" font-family="Helvetica,sans-Serif" font-size="10.00" fill="#000000">anonymous:+@19</text>
<polyline fill="none" stroke="#bfbfbf" points="0,-220.5 107,-220.5 "/>
<text text-anchor="middle" x="53.5" y="-208.5" font-family="Helvetica,sans-Serif" font-size="10.00" fill="#000000"> </text>
<polyline fill="none" stroke="#bfbfbf" points="0,-201.5 107,-201.5 "/>
<text text-anchor="middle" x="53.5" y="-189.5" font-family="Helvetica,sans-Serif" font-size="10.00" fill="#000000"> </text>
</g>
<!-- Node2&#45;&gt;Node1 -->
<g id="edge1" class="edge">
<title>Node2&#45;&gt;Node1</title>
<path fill="none" stroke="#404040" d="M60.6243,-182.403C68.3319,-154.2243 82.1658,-110.5033 101.5,-76 103.0805,-73.1795 104.8311,-70.357 106.6878,-67.574"/>
<polygon fill="none" stroke="#404040" points="106.7535,-67.4827 107.0112,-60.2762 113.7624,-57.7423 113.5048,-64.9488 106.7535,-67.4827"/>
<text text-anchor="middle" x="118.5" y="-117.5" font-family="Helvetica,sans-Serif" font-size="10.00" fill="#000000"> +@19</text>
</g>
<!-- Node3 -->
<g id="node3" class="node">
<title>Node3</title>
<polygon fill="none" stroke="#bfbfbf" points="125,-182.5 125,-239.5 154,-239.5 154,-182.5 125,-182.5"/>
<text text-anchor="middle" x="139.5" y="-227.5" font-family="Helvetica,sans-Serif" font-size="10.00" fill="#000000">int</text>
<polyline fill="none" stroke="#bfbfbf" points="125,-220.5 154,-220.5 "/>
<text text-anchor="middle" x="139.5" y="-208.5" font-family="Helvetica,sans-Serif" font-size="10.00" fill="#000000"> </text>
<polyline fill="none" stroke="#bfbfbf" points="125,-201.5 154,-201.5 "/>
<text text-anchor="middle" x="139.5" y="-189.5" font-family="Helvetica,sans-Serif" font-size="10.00" fill="#000000"> </text>
</g>
<!-- Node3&#45;&gt;Node1 -->
<g id="edge2" class="edge">
<title>Node3&#45;&gt;Node1</title>
<path fill="none" stroke="#404040" d="M139.5,-182.1616C139.5,-151.943 139.5,-104.2065 139.5,-70.0602"/>
<polygon fill="none" stroke="#404040" points="139.5001,-69.7035 135.5,-63.7036 139.5,-57.7035 143.5,-63.7035 139.5001,-69.7035"/>
<text text-anchor="middle" x="174.5" y="-117.5" font-family="Helvetica,sans-Serif" font-size="10.00" fill="#000000"> +PayloadSize</text>
</g>
<!-- Node4 -->
<g id="node4" class="node">
<title>Node4</title>
<polygon fill="none" stroke="#bfbfbf" points="202,-182.5 202,-239.5 263,-239.5 263,-182.5 202,-182.5"/>
<text text-anchor="middle" x="232.5" y="-227.5" font-family="Helvetica,sans-Serif" font-size="10.00" fill="#000000">unsigned</text>
<polyline fill="none" stroke="#bfbfbf" points="202,-220.5 263,-220.5 "/>
<text text-anchor="middle" x="232.5" y="-208.5" font-family="Helvetica,sans-Serif" font-size="10.00" fill="#000000"> </text>
<polyline fill="none" stroke="#bfbfbf" points="202,-201.5 263,-201.5 "/>
<text text-anchor="middle" x="232.5" y="-189.5" font-family="Helvetica,sans-Serif" font-size="10.00" fill="#000000"> </text>
</g>
<!-- Node4&#45;&gt;Node1 -->
<g id="edge3" class="edge">
<title>Node4&#45;&gt;Node1</title>
<path fill="none" stroke="#404040" d="M234.2335,-182.2905C234.6044,-153.2266 231.2534,-108.1091 210.5,-76 208.183,-72.4152 205.4854,-69.0411 202.5225,-65.8758"/>
<polygon fill="none" stroke="#404040" points="202.3339,-65.6996 195.219,-64.5258 193.566,-57.5067 200.6809,-58.6805 202.3339,-65.6996"/>
<text text-anchor="middle" x="274.5" y="-156" font-family="Helvetica,sans-Serif" font-size="10.00" fill="#000000"> +word</text>
<text text-anchor="middle" x="274.5" y="-145" font-family="Helvetica,sans-Serif" font-size="10.00" fill="#000000">+nGBTWords</text>
<text text-anchor="middle" x="274.5" y="-134" font-family="Helvetica,sans-Serif" font-size="10.00" fill="#000000">+startDescriptor</text>
<text text-anchor="middle" x="274.5" y="-123" font-family="Helvetica,sans-Serif" font-size="10.00" fill="#000000">+reservedField1</text>
<text text-anchor="middle" x="274.5" y="-112" font-family="Helvetica,sans-Serif" font-size="10.00" fill="#000000">+reservedField2</text>
<text text-anchor="middle" x="274.5" y="-101" font-family="Helvetica,sans-Serif" font-size="10.00" fill="#000000">+bc</text>
<text text-anchor="middle" x="274.5" y="-90" font-family="Helvetica,sans-Serif" font-size="10.00" fill="#000000">+reservedField3</text>
<text text-anchor="middle" x="274.5" y="-79" font-family="Helvetica,sans-Serif" font-size="10.00" fill="#000000">+orbit</text>
</g>
</g>
</svg>
