<?xml version="1.0" encoding="UTF-8" standalone="no"?>
<!DOCTYPE svg PUBLIC "-//W3C//DTD SVG 1.1//EN"
 "http://www.w3.org/Graphics/SVG/1.1/DTD/svg11.dtd">
<!-- Generated by graphviz version 2.40.1 (20161225.0304)
 -->
<!-- Title: o2::soa::CombinationsBlockStrictlyUpperSameIndexPolicy&lt; T1, T, Ts &gt; Pages: 1 -->
<!--zoomable 906 -->
<svg id="main" version="1.1" xmlns="http://www.w3.org/2000/svg" xmlns:xlink="http://www.w3.org/1999/xlink" xml:space="preserve" onload="init(evt)">
<style type="text/css"><![CDATA[
.edge:hover path { stroke: red; }
.edge:hover polygon { stroke: red; fill: red; }
]]></style>
<script type="text/javascript"><![CDATA[
var edges = document.getElementsByTagName('g');
if (edges && edges.length) {
  for (var i=0;i<edges.length;i++) {
    if (edges[i].id.substr(0,4)=='edge') {
      edges[i].setAttribute('class','edge');
    }
  }
}
]]></script>
        <defs>
                <circle id="rim" cx="0" cy="0" r="7"/>
                <circle id="rim2" cx="0" cy="0" r="3.5"/>
                <g id="zoomPlus">
                        <use xlink:href="#rim" fill="#404040">
                                <set attributeName="fill" to="#808080" begin="zoomplus.mouseover" end="zoomplus.mouseout"/>
                        </use>
                        <path d="M-4,0h8M0,-4v8" fill="none" stroke="white" stroke-width="1.5" pointer-events="none"/>
                </g>
                <g id="zoomMin">
                        <use xlink:href="#rim" fill="#404040">
                                <set attributeName="fill" to="#808080" begin="zoomminus.mouseover" end="zoomminus.mouseout"/>
                        </use>
                        <path d="M-4,0h8" fill="none" stroke="white" stroke-width="1.5" pointer-events="none"/>
                </g>
                <g id="dirArrow">
                        <path fill="none" stroke="white" stroke-width="1.5" d="M0,-3.0v7 M-2.5,-0.5L0,-3.0L2.5,-0.5"/>
                </g>
               <g id="resetDef">
                       <use xlink:href="#rim2" fill="#404040">
                               <set attributeName="fill" to="#808080" begin="reset.mouseover" end="reset.mouseout"/>
                       </use>
               </g>
        </defs>

<script type="text/javascript">
var viewWidth = 820;
var viewHeight = 906;
var sectionId = 'dynsection-1';
</script>
<script xlink:href="../../svgpan.js"/>
<svg id="graph" class="graph">
<g id="viewport">
<title>o2::soa::CombinationsBlockStrictlyUpperSameIndexPolicy&lt; T1, T, Ts &gt;</title>
<!-- Node5 -->
<g id="node1" class="node">
<title>Node5</title>
<polygon fill="#bfbfbf" stroke="#000000" points="394.8792,-.5 394.8792,-112.5 558.8792,-112.5 558.8792,-.5 394.8792,-.5"/>
<text text-anchor="start" x="402.8792" y="-100.5" font-family="Helvetica,sans-Serif" font-size="10.00" fill="#000000">o2::soa::CombinationsBlock</text>
<text text-anchor="start" x="402.8792" y="-89.5" font-family="Helvetica,sans-Serif" font-size="10.00" fill="#000000">StrictlyUpperSameIndexPolicy</text>
<text text-anchor="middle" x="476.8792" y="-78.5" font-family="Helvetica,sans-Serif" font-size="10.00" fill="#000000">&lt; T1, T, Ts &gt;</text>
<polyline fill="none" stroke="#000000" points="394.8792,-71.5 558.8792,-71.5 "/>
<text text-anchor="middle" x="476.8792" y="-59.5" font-family="Helvetica,sans-Serif" font-size="10.00" fill="#000000"> </text>
<polyline fill="none" stroke="#000000" points="394.8792,-52.5 558.8792,-52.5 "/>
<text text-anchor="start" x="402.8792" y="-40.5" font-family="Helvetica,sans-Serif" font-size="10.00" fill="#000000">+ CombinationsBlockStrictly</text>
<text text-anchor="start" x="402.8792" y="-29.5" font-family="Helvetica,sans-Serif" font-size="10.00" fill="#000000">UpperSameIndexPolicy()</text>
<text text-anchor="start" x="402.8792" y="-18.5" font-family="Helvetica,sans-Serif" font-size="10.00" fill="#000000">+ setRanges()</text>
<text text-anchor="start" x="402.8792" y="-7.5" font-family="Helvetica,sans-Serif" font-size="10.00" fill="#000000">+ addOne()</text>
</g>
<!-- Node6 -->
<g id="node2" class="node">
<title>Node6</title>
<g id="a_node2"><a xlink:href="../../d3/dc5/structo2_1_1soa_1_1CombinationsBlockSameIndexPolicyBase.html" target="_top" xlink:title="{o2::soa::CombinationsBlock\lSameIndexPolicyBase\&lt; T1,\l T, Ts... \&gt;\n||+ CombinationsBlockSameIndex\lPolicyBase()\l}">
<polygon fill="none" stroke="#000000" points="388.3792,-150.5 388.3792,-240.5 565.3792,-240.5 565.3792,-150.5 388.3792,-150.5"/>
<text text-anchor="start" x="396.3792" y="-228.5" font-family="Helvetica,sans-Serif" font-size="10.00" fill="#000000">o2::soa::CombinationsBlock</text>
<text text-anchor="start" x="396.3792" y="-217.5" font-family="Helvetica,sans-Serif" font-size="10.00" fill="#000000">SameIndexPolicyBase&lt; T1,</text>
<text text-anchor="middle" x="476.8792" y="-206.5" font-family="Helvetica,sans-Serif" font-size="10.00" fill="#000000"> T, Ts... &gt;</text>
<polyline fill="none" stroke="#000000" points="388.3792,-199.5 565.3792,-199.5 "/>
<text text-anchor="middle" x="476.8792" y="-187.5" font-family="Helvetica,sans-Serif" font-size="10.00" fill="#000000"> </text>
<polyline fill="none" stroke="#000000" points="388.3792,-180.5 565.3792,-180.5 "/>
<text text-anchor="start" x="396.3792" y="-168.5" font-family="Helvetica,sans-Serif" font-size="10.00" fill="#000000">+ CombinationsBlockSameIndex</text>
<text text-anchor="start" x="396.3792" y="-157.5" font-family="Helvetica,sans-Serif" font-size="10.00" fill="#000000">PolicyBase()</text>
</a>
</g>
</g>
<!-- Node6&#45;&gt;Node5 -->
<g id="edge1" class="edge">
<title>Node6&#45;&gt;Node5</title>
<path fill="none" stroke="#191970" d="M476.8792,-140.2708C476.8792,-131.1654 476.8792,-121.7185 476.8792,-112.5922"/>
<polygon fill="none" stroke="#191970" points="473.3793,-140.3706 476.8792,-150.3707 480.3793,-140.3707 473.3793,-140.3706"/>
</g>
<!-- Node7 -->
<g id="node3" class="node">
<title>Node7</title>
<g id="a_node3"><a xlink:href="../../de/dac/structo2_1_1soa_1_1CombinationsIndexPolicyBase.html" target="_top" xlink:title="{o2::soa::CombinationsIndex\lPolicyBase\&lt; T, Ts... \&gt;\n||+ CombinationsIndexPolicyBase()\l+ moveToEnd()\l+ addOne()\l}">
<polygon fill="none" stroke="#000000" points="148.3792,-426.5 148.3792,-516.5 331.3792,-516.5 331.3792,-426.5 148.3792,-426.5"/>
<text text-anchor="start" x="156.3792" y="-504.5" font-family="Helvetica,sans-Serif" font-size="10.00" fill="#000000">o2::soa::CombinationsIndex</text>
<text text-anchor="middle" x="239.8792" y="-493.5" font-family="Helvetica,sans-Serif" font-size="10.00" fill="#000000">PolicyBase&lt; T, Ts... &gt;</text>
<polyline fill="none" stroke="#000000" points="148.3792,-486.5 331.3792,-486.5 "/>
<text text-anchor="middle" x="239.8792" y="-474.5" font-family="Helvetica,sans-Serif" font-size="10.00" fill="#000000"> </text>
<polyline fill="none" stroke="#000000" points="148.3792,-467.5 331.3792,-467.5 "/>
<text text-anchor="start" x="156.3792" y="-455.5" font-family="Helvetica,sans-Serif" font-size="10.00" fill="#000000">+ CombinationsIndexPolicyBase()</text>
<text text-anchor="start" x="156.3792" y="-444.5" font-family="Helvetica,sans-Serif" font-size="10.00" fill="#000000">+ moveToEnd()</text>
<text text-anchor="start" x="156.3792" y="-433.5" font-family="Helvetica,sans-Serif" font-size="10.00" fill="#000000">+ addOne()</text>
</a>
</g>
</g>
<!-- Node7&#45;&gt;Node6 -->
<g id="edge2" class="edge">
<title>Node7&#45;&gt;Node6</title>
<path fill="none" stroke="#191970" d="M237.9762,-416.4039C239.4013,-376.822 247.3486,-324.2638 275.8792,-288 303.7286,-252.602 348.2315,-230.2253 388.2911,-216.3676"/>
<polygon fill="none" stroke="#191970" points="234.4766,-416.3476 237.743,-426.4263 241.4747,-416.5105 234.4766,-416.3476"/>
</g>
<!-- Node16 -->
<g id="node12" class="node">
<title>Node16</title>
<g id="a_node12"><a xlink:href="../../d3/dc5/structo2_1_1soa_1_1CombinationsBlockSameIndexPolicyBase.html" target="_top" xlink:title="{o2::soa::CombinationsBlock\lSameIndexPolicyBase\&lt; T1,\l T, Ts \&gt;\n||+ CombinationsBlockSameIndex\lPolicyBase()\l}">
<polygon fill="none" stroke="#000000" points="388.3792,-288.5 388.3792,-378.5 565.3792,-378.5 565.3792,-288.5 388.3792,-288.5"/>
<text text-anchor="start" x="396.3792" y="-366.5" font-family="Helvetica,sans-Serif" font-size="10.00" fill="#000000">o2::soa::CombinationsBlock</text>
<text text-anchor="start" x="396.3792" y="-355.5" font-family="Helvetica,sans-Serif" font-size="10.00" fill="#000000">SameIndexPolicyBase&lt; T1,</text>
<text text-anchor="middle" x="476.8792" y="-344.5" font-family="Helvetica,sans-Serif" font-size="10.00" fill="#000000"> T, Ts &gt;</text>
<polyline fill="none" stroke="#000000" points="388.3792,-337.5 565.3792,-337.5 "/>
<text text-anchor="middle" x="476.8792" y="-325.5" font-family="Helvetica,sans-Serif" font-size="10.00" fill="#000000"> </text>
<polyline fill="none" stroke="#000000" points="388.3792,-318.5 565.3792,-318.5 "/>
<text text-anchor="start" x="396.3792" y="-306.5" font-family="Helvetica,sans-Serif" font-size="10.00" fill="#000000">+ CombinationsBlockSameIndex</text>
<text text-anchor="start" x="396.3792" y="-295.5" font-family="Helvetica,sans-Serif" font-size="10.00" fill="#000000">PolicyBase()</text>
</a>
</g>
</g>
<!-- Node7&#45;&gt;Node16 -->
<g id="edge16" class="edge">
<title>Node7&#45;&gt;Node16</title>
<path fill="none" stroke="#191970" d="M323.9798,-421.0378C337.6227,-412.9494 351.6214,-404.708 364.8792,-397 375.2174,-390.9895 386.1261,-384.7178 396.9153,-378.5567"/>
<polygon fill="none" stroke="#191970" points="321.8889,-418.2089 315.0773,-426.3239 325.4628,-424.2278 321.8889,-418.2089"/>
</g>
<!-- Node8 -->
<g id="node4" class="node">
<title>Node8</title>
<polygon fill="none" stroke="#bfbfbf" points="359.3792,-713.5 359.3792,-781.5 474.3792,-781.5 474.3792,-713.5 359.3792,-713.5"/>
<text text-anchor="start" x="367.3792" y="-769.5" font-family="Helvetica,sans-Serif" font-size="10.00" fill="#000000">tuple&lt; typename Ts</text>
<text text-anchor="middle" x="416.8792" y="-758.5" font-family="Helvetica,sans-Serif" font-size="10.00" fill="#000000">::iterator... &gt;</text>
<polyline fill="none" stroke="#bfbfbf" points="359.3792,-751.5 474.3792,-751.5 "/>
<text text-anchor="middle" x="416.8792" y="-739.5" font-family="Helvetica,sans-Serif" font-size="10.00" fill="#000000"> </text>
<polyline fill="none" stroke="#bfbfbf" points="359.3792,-732.5 474.3792,-732.5 "/>
<text text-anchor="middle" x="416.8792" y="-720.5" font-family="Helvetica,sans-Serif" font-size="10.00" fill="#000000"> </text>
</g>
<!-- Node8&#45;&gt;Node7 -->
<g id="edge3" class="edge">
<title>Node8&#45;&gt;Node7</title>
<path fill="none" stroke="#404040" d="M412.3852,-713.3831C405.8002,-674.1062 390.4518,-609.2063 356.8792,-564 346.1146,-549.5052 332.5342,-536.0441 318.4705,-524.129"/>
<polygon fill="none" stroke="#404040" points="318.4693,-524.128 311.2927,-523.4227 309.1835,-516.527 316.3601,-517.2322 318.4693,-524.128"/>
<text text-anchor="middle" x="426.8792" y="-607" font-family="Helvetica,sans-Serif" font-size="10.00" fill="#000000"> +mCurrent</text>
</g>
<!-- Node12 -->
<g id="node8" class="node">
<title>Node12</title>
<g id="a_node8"><a xlink:href="../../de/dac/structo2_1_1soa_1_1CombinationsIndexPolicyBase.html" target="_top" xlink:title="{o2::soa::CombinationsIndex\lPolicyBase\&lt; Ts \&gt;\n||+ CombinationsIndexPolicyBase()\l+ moveToEnd()\l+ addOne()\l}">
<polygon fill="none" stroke="#000000" points="96.3792,-564.5 96.3792,-654.5 279.3792,-654.5 279.3792,-564.5 96.3792,-564.5"/>
<text text-anchor="start" x="104.3792" y="-642.5" font-family="Helvetica,sans-Serif" font-size="10.00" fill="#000000">o2::soa::CombinationsIndex</text>
<text text-anchor="middle" x="187.8792" y="-631.5" font-family="Helvetica,sans-Serif" font-size="10.00" fill="#000000">PolicyBase&lt; Ts &gt;</text>
<polyline fill="none" stroke="#000000" points="96.3792,-624.5 279.3792,-624.5 "/>
<text text-anchor="middle" x="187.8792" y="-612.5" font-family="Helvetica,sans-Serif" font-size="10.00" fill="#000000"> </text>
<polyline fill="none" stroke="#000000" points="96.3792,-605.5 279.3792,-605.5 "/>
<text text-anchor="start" x="104.3792" y="-593.5" font-family="Helvetica,sans-Serif" font-size="10.00" fill="#000000">+ CombinationsIndexPolicyBase()</text>
<text text-anchor="start" x="104.3792" y="-582.5" font-family="Helvetica,sans-Serif" font-size="10.00" fill="#000000">+ moveToEnd()</text>
<text text-anchor="start" x="104.3792" y="-571.5" font-family="Helvetica,sans-Serif" font-size="10.00" fill="#000000">+ addOne()</text>
</a>
</g>
</g>
<!-- Node8&#45;&gt;Node12 -->
<g id="edge8" class="edge">
<title>Node8&#45;&gt;Node12</title>
<path fill="none" stroke="#404040" d="M367.0983,-713.4128C347.6086,-700.4031 324.917,-685.6641 303.8792,-673 297.0731,-668.9029 289.9877,-664.7533 282.8227,-660.6402"/>
<polygon fill="none" stroke="#404040" points="282.7226,-660.5833 275.5296,-661.0939 272.2917,-654.6506 279.4847,-654.14 282.7226,-660.5833"/>
<text text-anchor="middle" x="366.8792" y="-681.5" font-family="Helvetica,sans-Serif" font-size="10.00" fill="#000000"> +mCurrent</text>
</g>
<!-- Node9 -->
<g id="node5" class="node">
<title>Node9</title>
<polygon fill="none" stroke="#bfbfbf" points="271.8792,-719 271.8792,-776 309.8792,-776 309.8792,-719 271.8792,-719"/>
<text text-anchor="middle" x="290.8792" y="-764" font-family="Helvetica,sans-Serif" font-size="10.00" fill="#000000">bool</text>
<polyline fill="none" stroke="#bfbfbf" points="271.8792,-757 309.8792,-757 "/>
<text text-anchor="middle" x="290.8792" y="-745" font-family="Helvetica,sans-Serif" font-size="10.00" fill="#000000"> </text>
<polyline fill="none" stroke="#bfbfbf" points="271.8792,-738 309.8792,-738 "/>
<text text-anchor="middle" x="290.8792" y="-726" font-family="Helvetica,sans-Serif" font-size="10.00" fill="#000000"> </text>
</g>
<!-- Node9&#45;&gt;Node7 -->
<g id="edge4" class="edge">
<title>Node9&#45;&gt;Node7</title>
<path fill="none" stroke="#404040" d="M298.0114,-718.7851C299.6113,-711.108 301.0728,-702.7808 301.8792,-695 309.2986,-623.4095 307.8651,-599.9624 276.8792,-535 275.7188,-532.5672 274.498,-530.1035 273.2345,-527.6306"/>
<polygon fill="none" stroke="#404040" points="273.1085,-527.3933 266.7609,-523.9716 267.4781,-516.7962 273.8257,-520.2179 273.1085,-527.3933"/>
<text text-anchor="middle" x="328.8792" y="-607" font-family="Helvetica,sans-Serif" font-size="10.00" fill="#000000"> +mIsEnd</text>
</g>
<!-- Node9&#45;&gt;Node12 -->
<g id="edge9" class="edge">
<title>Node9&#45;&gt;Node12</title>
<path fill="none" stroke="#404040" d="M271.7471,-721.8667C259.703,-705.7299 243.687,-684.2716 228.8802,-664.4334"/>
<polygon fill="none" stroke="#404040" points="228.6816,-664.1673 221.8872,-661.7515 221.5039,-654.5506 228.2984,-656.9664 228.6816,-664.1673"/>
<text text-anchor="middle" x="275.8792" y="-681.5" font-family="Helvetica,sans-Serif" font-size="10.00" fill="#000000"> +mIsEnd</text>
</g>
<!-- Node10 -->
<g id="node6" class="node">
<title>Node10</title>
<g id="a_node6"><a xlink:href="../../dd/da8/structo2_1_1soa_1_1NTupleType.html" target="_top" xlink:title="{o2::soa::NTupleType\l\&lt; uint64_t, sizeof...(Ts)\&gt;\n||}">
<polygon fill="none" stroke="#000000" points="90.3792,-713.5 90.3792,-781.5 227.3792,-781.5 227.3792,-713.5 90.3792,-713.5"/>
<text text-anchor="start" x="98.3792" y="-769.5" font-family="Helvetica,sans-Serif" font-size="10.00" fill="#000000">o2::soa::NTupleType</text>
<text text-anchor="middle" x="158.8792" y="-758.5" font-family="Helvetica,sans-Serif" font-size="10.00" fill="#000000">&lt; uint64_t, sizeof...(Ts)&gt;</text>
<polyline fill="none" stroke="#000000" points="90.3792,-751.5 227.3792,-751.5 "/>
<text text-anchor="middle" x="158.8792" y="-739.5" font-family="Helvetica,sans-Serif" font-size="10.00" fill="#000000"> </text>
<polyline fill="none" stroke="#000000" points="90.3792,-732.5 227.3792,-732.5 "/>
<text text-anchor="middle" x="158.8792" y="-720.5" font-family="Helvetica,sans-Serif" font-size="10.00" fill="#000000"> </text>
</a>
</g>
</g>
<!-- Node10&#45;&gt;Node7 -->
<g id="edge5" class="edge">
<title>Node10&#45;&gt;Node7</title>
<path fill="none" stroke="#404040" d="M90.1913,-720.8259C61.8449,-705.9998 31.9188,-684.478 15.8792,-655 -3.4512,-619.4741 -6.6087,-597.6162 15.8792,-564 43.0491,-523.3849 91.67,-500.5835 136.6862,-487.7919"/>
<polygon fill="none" stroke="#404040" points="136.7511,-487.7746 141.5138,-482.3601 148.3436,-484.6739 143.581,-490.0884 136.7511,-487.7746"/>
<text text-anchor="middle" x="51.3792" y="-607" font-family="Helvetica,sans-Serif" font-size="10.00" fill="#000000"> +mMaxOffset</text>
</g>
<!-- Node10&#45;&gt;Node12 -->
<g id="edge10" class="edge">
<title>Node10&#45;&gt;Node12</title>
<path fill="none" stroke="#404040" d="M156.4868,-713.4258C156.3296,-700.6211 157.0451,-686.0183 159.8792,-673 160.379,-670.7043 160.9651,-668.3899 161.6215,-666.073"/>
<polygon fill="none" stroke="#404040" points="161.6648,-665.9412 159.74,-658.9917 165.4146,-654.5422 167.3394,-661.4917 161.6648,-665.9412"/>
<text text-anchor="middle" x="195.3792" y="-681.5" font-family="Helvetica,sans-Serif" font-size="10.00" fill="#000000"> +mMaxOffset</text>
</g>
<!-- Node11 -->
<g id="node7" class="node">
<title>Node11</title>
<g id="a_node7"><a xlink:href="../../dd/da8/structo2_1_1soa_1_1NTupleType.html" target="_top" xlink:title="{o2::soa::NTupleType\l\&lt; T, N, REST \&gt;\n||}">
<polygon fill="none" stroke="#000000" points="276.3792,-829.5 276.3792,-897.5 389.3792,-897.5 389.3792,-829.5 276.3792,-829.5"/>
<text text-anchor="start" x="284.3792" y="-885.5" font-family="Helvetica,sans-Serif" font-size="10.00" fill="#000000">o2::soa::NTupleType</text>
<text text-anchor="middle" x="332.8792" y="-874.5" font-family="Helvetica,sans-Serif" font-size="10.00" fill="#000000">&lt; T, N, REST &gt;</text>
<polyline fill="none" stroke="#000000" points="276.3792,-867.5 389.3792,-867.5 "/>
<text text-anchor="middle" x="332.8792" y="-855.5" font-family="Helvetica,sans-Serif" font-size="10.00" fill="#000000"> </text>
<polyline fill="none" stroke="#000000" points="276.3792,-848.5 389.3792,-848.5 "/>
<text text-anchor="middle" x="332.8792" y="-836.5" font-family="Helvetica,sans-Serif" font-size="10.00" fill="#000000"> </text>
</a>
</g>
</g>
<!-- Node11&#45;&gt;Node10 -->
<g id="edge6" class="edge">
<title>Node11&#45;&gt;Node10</title>
<path fill="none" stroke="#ffa500" d="M273.2638,-823.7564C252.7144,-810.0568 229.8951,-794.8439 210.0778,-781.6324"/>
<polygon fill="#ffa500" stroke="#ffa500" points="271.3526,-826.6887 281.6146,-829.3236 275.2355,-820.8643 271.3526,-826.6887"/>
<text text-anchor="middle" x="313.8792" y="-803" font-family="Helvetica,sans-Serif" font-size="10.00" fill="#000000"> &lt; uint64_t, sizeof...(Ts)&gt;</text>
</g>
<!-- Node15 -->
<g id="node11" class="node">
<title>Node15</title>
<g id="a_node11"><a xlink:href="../../dd/da8/structo2_1_1soa_1_1NTupleType.html" target="_top" xlink:title="{o2::soa::NTupleType\l\&lt; uint64_t, sizeof...\l(Ts)+1 \&gt;\n||}">
<polygon fill="none" stroke="#000000" points="451.3792,-432 451.3792,-511 564.3792,-511 564.3792,-432 451.3792,-432"/>
<text text-anchor="start" x="459.3792" y="-499" font-family="Helvetica,sans-Serif" font-size="10.00" fill="#000000">o2::soa::NTupleType</text>
<text text-anchor="start" x="459.3792" y="-488" font-family="Helvetica,sans-Serif" font-size="10.00" fill="#000000">&lt; uint64_t, sizeof...</text>
<text text-anchor="middle" x="507.8792" y="-477" font-family="Helvetica,sans-Serif" font-size="10.00" fill="#000000">(Ts)+1 &gt;</text>
<polyline fill="none" stroke="#000000" points="451.3792,-470 564.3792,-470 "/>
<text text-anchor="middle" x="507.8792" y="-458" font-family="Helvetica,sans-Serif" font-size="10.00" fill="#000000"> </text>
<polyline fill="none" stroke="#000000" points="451.3792,-451 564.3792,-451 "/>
<text text-anchor="middle" x="507.8792" y="-439" font-family="Helvetica,sans-Serif" font-size="10.00" fill="#000000"> </text>
</a>
</g>
</g>
<!-- Node11&#45;&gt;Node15 -->
<g id="edge14" class="edge">
<title>Node11&#45;&gt;Node15</title>
<path fill="none" stroke="#ffa500" d="M399.2408,-844.1918C430.2113,-831.6273 464.454,-811.8765 483.8792,-782 538.2546,-698.3692 526.7189,-574.0066 516.0335,-511.0622"/>
<polygon fill="#ffa500" stroke="#ffa500" points="397.8167,-840.9899 389.7543,-847.8637 400.3435,-847.518 397.8167,-840.9899"/>
<text text-anchor="start" x="520.8792" y="-687" font-family="Helvetica,sans-Serif" font-size="10.00" fill="#000000"> &lt; uint64_t, sizeof...</text>
<text text-anchor="middle" x="569.8792" y="-676" font-family="Helvetica,sans-Serif" font-size="10.00" fill="#000000">(Ts)+1 &gt;</text>
</g>
<!-- Node12&#45;&gt;Node7 -->
<g id="edge7" class="edge">
<title>Node12&#45;&gt;Node7</title>
<path fill="none" stroke="#ffa500" d="M208.4789,-554.8315C213.23,-542.2228 218.2328,-528.9462 222.8142,-516.7879"/>
<polygon fill="#ffa500" stroke="#ffa500" points="205.1569,-553.7218 204.906,-564.3136 211.7073,-556.1901 205.1569,-553.7218"/>
<text text-anchor="middle" x="244.3792" y="-538" font-family="Helvetica,sans-Serif" font-size="10.00" fill="#000000"> &lt; T, Ts... &gt;</text>
</g>
<!-- Node13 -->
<g id="node9" class="node">
<title>Node13</title>
<polygon fill="none" stroke="#bfbfbf" points="285.3792,-305 285.3792,-362 370.3792,-362 370.3792,-305 285.3792,-305"/>
<text text-anchor="middle" x="327.8792" y="-350" font-family="Helvetica,sans-Serif" font-size="10.00" fill="#000000">unsigned long</text>
<polyline fill="none" stroke="#bfbfbf" points="285.3792,-343 370.3792,-343 "/>
<text text-anchor="middle" x="327.8792" y="-331" font-family="Helvetica,sans-Serif" font-size="10.00" fill="#000000"> </text>
<polyline fill="none" stroke="#bfbfbf" points="285.3792,-324 370.3792,-324 "/>
<text text-anchor="middle" x="327.8792" y="-312" font-family="Helvetica,sans-Serif" font-size="10.00" fill="#000000"> </text>
</g>
<!-- Node13&#45;&gt;Node6 -->
<g id="edge11" class="edge">
<title>Node13&#45;&gt;Node6</title>
<path fill="none" stroke="#404040" d="M334.8069,-304.7763C339.5836,-289.7598 347.2211,-271.8783 358.8792,-259 364.6755,-252.5971 371.2722,-246.7158 378.3154,-241.3396"/>
<polygon fill="none" stroke="#404040" points="378.3916,-241.2853 380.9555,-234.5453 388.1631,-234.3198 385.5992,-241.0597 378.3916,-241.2853"/>
<text text-anchor="middle" x="415.8792" y="-262" font-family="Helvetica,sans-Serif" font-size="10.00" fill="#000000"> +mSlidingWindowSize</text>
</g>
<!-- Node14 -->
<g id="node10" class="node">
<title>Node14</title>
<polygon fill="none" stroke="#bfbfbf" points="624.8792,-437.5 624.8792,-505.5 752.8792,-505.5 752.8792,-437.5 624.8792,-437.5"/>
<text text-anchor="start" x="632.8792" y="-493.5" font-family="Helvetica,sans-Serif" font-size="10.00" fill="#000000">vector&lt; std::pair&lt;</text>
<text text-anchor="middle" x="688.8792" y="-482.5" font-family="Helvetica,sans-Serif" font-size="10.00" fill="#000000"> uint64_t, uint64_t &gt; &gt;</text>
<polyline fill="none" stroke="#bfbfbf" points="624.8792,-475.5 752.8792,-475.5 "/>
<text text-anchor="middle" x="688.8792" y="-463.5" font-family="Helvetica,sans-Serif" font-size="10.00" fill="#000000"> </text>
<polyline fill="none" stroke="#bfbfbf" points="624.8792,-456.5 752.8792,-456.5 "/>
<text text-anchor="middle" x="688.8792" y="-444.5" font-family="Helvetica,sans-Serif" font-size="10.00" fill="#000000"> </text>
</g>
<!-- Node14&#45;&gt;Node6 -->
<g id="edge12" class="edge">
<title>Node14&#45;&gt;Node6</title>
<path fill="none" stroke="#404040" d="M701.6353,-437.4948C714.1722,-397.7281 727.2813,-331.7814 695.8792,-288 668.0559,-249.2082 620.6689,-226.5872 577.0762,-213.4434"/>
<polygon fill="none" stroke="#404040" points="577.0374,-213.4324 570.1705,-215.6339 565.4972,-210.142 572.3641,-207.9405 577.0374,-213.4324"/>
<text text-anchor="middle" x="763.3792" y="-331" font-family="Helvetica,sans-Serif" font-size="10.00" fill="#000000"> +mGroupedIndices</text>
</g>
<!-- Node14&#45;&gt;Node16 -->
<g id="edge17" class="edge">
<title>Node14&#45;&gt;Node16</title>
<path fill="none" stroke="#404040" d="M645.4194,-437.2816C628.1619,-424.185 607.918,-409.4202 588.8792,-397 582.675,-392.9526 576.2002,-388.889 569.6287,-384.8811"/>
<polygon fill="none" stroke="#404040" points="569.5318,-384.8229 562.3285,-385.1591 559.2477,-378.6392 566.451,-378.303 569.5318,-384.8229"/>
<text text-anchor="middle" x="651.3792" y="-400" font-family="Helvetica,sans-Serif" font-size="10.00" fill="#000000"> +mGroupedIndices</text>
</g>
<!-- Node15&#45;&gt;Node6 -->
<g id="edge13" class="edge">
<title>Node15&#45;&gt;Node6</title>
<path fill="none" stroke="#404040" d="M564.7522,-436.5194C573.7104,-428.3293 581.7082,-418.7908 586.8792,-408 592.3151,-396.6564 620.8017,-415.855 574.8792,-288 569.7621,-273.7533 560.9714,-260.7992 550.6908,-249.3944"/>
<polygon fill="none" stroke="#404040" points="550.5121,-249.2097 543.4654,-247.6786 542.1684,-240.5851 549.2151,-242.1161 550.5121,-249.2097"/>
<text text-anchor="middle" x="645.8792" y="-331" font-family="Helvetica,sans-Serif" font-size="10.00" fill="#000000"> +mCurrentIndices</text>
</g>
<!-- Node15&#45;&gt;Node16 -->
<g id="edge18" class="edge">
<title>Node15&#45;&gt;Node16</title>
<path fill="none" stroke="#404040" d="M498.9959,-431.9547C496.1176,-419.1417 492.8645,-404.6604 489.7564,-390.8243"/>
<polygon fill="none" stroke="#404040" points="489.7056,-390.5977 484.4877,-385.6203 487.0754,-378.8894 492.2932,-383.8668 489.7056,-390.5977"/>
<text text-anchor="middle" x="538.8792" y="-400" font-family="Helvetica,sans-Serif" font-size="10.00" fill="#000000"> +mCurrentIndices</text>
</g>
<!-- Node16&#45;&gt;Node6 -->
<g id="edge15" class="edge">
<title>Node16&#45;&gt;Node6</title>
<path fill="none" stroke="#ffa500" d="M476.8792,-278.089C476.8792,-265.7026 476.8792,-252.7078 476.8792,-240.7879"/>
<polygon fill="#ffa500" stroke="#ffa500" points="473.3793,-278.3136 476.8792,-288.3136 480.3793,-278.3137 473.3793,-278.3136"/>
<text text-anchor="middle" x="514.3792" y="-262" font-family="Helvetica,sans-Serif" font-size="10.00" fill="#000000"> &lt; T1, T, Ts... &gt;</text>
</g>
<!-- Node17 -->
<g id="node13" class="node">
<title>Node17</title>
<polygon fill="none" stroke="#bfbfbf" points="349.3792,-443 349.3792,-500 410.3792,-500 410.3792,-443 349.3792,-443"/>
<text text-anchor="middle" x="379.8792" y="-488" font-family="Helvetica,sans-Serif" font-size="10.00" fill="#000000">unsigned</text>
<polyline fill="none" stroke="#bfbfbf" points="349.3792,-481 410.3792,-481 "/>
<text text-anchor="middle" x="379.8792" y="-469" font-family="Helvetica,sans-Serif" font-size="10.00" fill="#000000"> </text>
<polyline fill="none" stroke="#bfbfbf" points="349.3792,-462 410.3792,-462 "/>
<text text-anchor="middle" x="379.8792" y="-450" font-family="Helvetica,sans-Serif" font-size="10.00" fill="#000000"> </text>
</g>
<!-- Node17&#45;&gt;Node16 -->
<g id="edge19" class="edge">
<title>Node17&#45;&gt;Node16</title>
<path fill="none" stroke="#404040" d="M369.7587,-442.9939C366.3501,-428.3897 365.1239,-410.8219 372.8792,-397 374.9609,-393.2899 377.3572,-389.7709 380.006,-386.4358"/>
<polygon fill="none" stroke="#404040" points="380.0293,-386.4101 381.0943,-379.278 388.0873,-377.518 387.0224,-384.65 380.0293,-386.4101"/>
<text text-anchor="middle" x="429.8792" y="-400" font-family="Helvetica,sans-Serif" font-size="10.00" fill="#000000"> +mSlidingWindowSize</text>
</g>
</g>
</svg>
        <g id="navigator" transform="translate(0 0)" fill="#404254">
                <rect fill="#f2f5e9" fill-opacity="0.5" stroke="#606060" stroke-width=".5" x="0" y="0" width="60" height="60"/>
                <use id="zoomplus" xlink:href="#zoomPlus" x="17" y="9" onmousedown="handleZoom(evt,'in')"/>
                <use id="zoomminus" xlink:href="#zoomMin" x="42" y="9" onmousedown="handleZoom(evt,'out')"/>
                <use id="reset" xlink:href="#resetDef" x="30" y="36" onmousedown="handleReset()"/>
                <g id="arrowUp" xlink:href="#dirArrow" transform="translate(30 24)" onmousedown="handlePan(0,-1)">
                  <use xlink:href="#rim" fill="#404040">
                        <set attributeName="fill" to="#808080" begin="arrowUp.mouseover" end="arrowUp.mouseout"/>
                  </use>
                  <path fill="none" stroke="white" stroke-width="1.5" d="M0,-3.0v7 M-2.5,-0.5L0,-3.0L2.5,-0.5"/>
                </g>
                <g id="arrowRight" xlink:href="#dirArrow" transform="rotate(90) translate(36 -43)" onmousedown="handlePan(1,0)">
                  <use xlink:href="#rim" fill="#404040">
                        <set attributeName="fill" to="#808080" begin="arrowRight.mouseover" end="arrowRight.mouseout"/>
                  </use>
                  <path fill="none" stroke="white" stroke-width="1.5" d="M0,-3.0v7 M-2.5,-0.5L0,-3.0L2.5,-0.5"/>
                </g>
                <g id="arrowDown" xlink:href="#dirArrow" transform="rotate(180) translate(-30 -48)" onmousedown="handlePan(0,1)">
                  <use xlink:href="#rim" fill="#404040">
                        <set attributeName="fill" to="#808080" begin="arrowDown.mouseover" end="arrowDown.mouseout"/>
                  </use>
                  <path fill="none" stroke="white" stroke-width="1.5" d="M0,-3.0v7 M-2.5,-0.5L0,-3.0L2.5,-0.5"/>
                </g>
                <g id="arrowLeft" xlink:href="#dirArrow" transform="rotate(270) translate(-36 17)" onmousedown="handlePan(-1,0)">
                  <use xlink:href="#rim" fill="#404040">
                        <set attributeName="fill" to="#808080" begin="arrowLeft.mouseover" end="arrowLeft.mouseout"/>
                  </use>
                  <path fill="none" stroke="white" stroke-width="1.5" d="M0,-3.0v7 M-2.5,-0.5L0,-3.0L2.5,-0.5"/>
                </g>
        </g>
        <svg viewBox="0 0 15 15" width="100%" height="30px" preserveAspectRatio="xMaxYMin meet">
         <g id="arrow_out" transform="scale(0.3 0.3)">
          <a xlink:href="structo2_1_1soa_1_1CombinationsBlockStrictlyUpperSameIndexPolicy__coll__graph_org.svg" target="_base">
           <rect id="button" ry="5" rx="5" y="6" x="6" height="38" width="38"
                fill="#f2f5e9" fill-opacity="0.5" stroke="#606060" stroke-width="1.0"/>
           <path id="arrow"
             d="M 11.500037,31.436501 C 11.940474,20.09759 22.043105,11.32322 32.158766,21.979434 L 37.068811,17.246167 C 37.068811,17.246167 37.088388,32 37.088388,32 L 22.160133,31.978069 C 22.160133,31.978069 26.997745,27.140456 26.997745,27.140456 C 18.528582,18.264221 13.291696,25.230495 11.500037,31.436501 z"
             style="fill:#404040;"/>
          </a>
         </g>
        </svg>
</svg>
