<?xml version="1.0" encoding="UTF-8" standalone="no"?>
<!DOCTYPE svg PUBLIC "-//W3C//DTD SVG 1.1//EN"
 "http://www.w3.org/Graphics/SVG/1.1/DTD/svg11.dtd">
<!-- Generated by graphviz version 2.40.1 (20161225.0304)
 -->
<!-- Title: o2::ft0::RecPoints Pages: 1 -->
<!--zoomable 947 -->
<svg id="main" version="1.1" xmlns="http://www.w3.org/2000/svg" xmlns:xlink="http://www.w3.org/1999/xlink" xml:space="preserve" onload="init(evt)">
<style type="text/css"><![CDATA[
.edge:hover path { stroke: red; }
.edge:hover polygon { stroke: red; fill: red; }
]]></style>
<script type="text/javascript"><![CDATA[
var edges = document.getElementsByTagName('g');
if (edges && edges.length) {
  for (var i=0;i<edges.length;i++) {
    if (edges[i].id.substr(0,4)=='edge') {
      edges[i].setAttribute('class','edge');
    }
  }
}
]]></script>
        <defs>
                <circle id="rim" cx="0" cy="0" r="7"/>
                <circle id="rim2" cx="0" cy="0" r="3.5"/>
                <g id="zoomPlus">
                        <use xlink:href="#rim" fill="#404040">
                                <set attributeName="fill" to="#808080" begin="zoomplus.mouseover" end="zoomplus.mouseout"/>
                        </use>
                        <path d="M-4,0h8M0,-4v8" fill="none" stroke="white" stroke-width="1.5" pointer-events="none"/>
                </g>
                <g id="zoomMin">
                        <use xlink:href="#rim" fill="#404040">
                                <set attributeName="fill" to="#808080" begin="zoomminus.mouseover" end="zoomminus.mouseout"/>
                        </use>
                        <path d="M-4,0h8" fill="none" stroke="white" stroke-width="1.5" pointer-events="none"/>
                </g>
                <g id="dirArrow">
                        <path fill="none" stroke="white" stroke-width="1.5" d="M0,-3.0v7 M-2.5,-0.5L0,-3.0L2.5,-0.5"/>
                </g>
               <g id="resetDef">
                       <use xlink:href="#rim2" fill="#404040">
                               <set attributeName="fill" to="#808080" begin="reset.mouseover" end="reset.mouseout"/>
                       </use>
               </g>
        </defs>

<script type="text/javascript">
var viewWidth = 867;
var viewHeight = 947;
var sectionId = 'dynsection-0';
</script>
<script xlink:href="../../svgpan.js"/>
<svg id="graph" class="graph">
<g id="viewport">
<title>o2::ft0::RecPoints</title>
<!-- Node1 -->
<g id="node1" class="node">
<title>Node1</title>
<polygon fill="#bfbfbf" stroke="#000000" points="453,-.5 453,-222.5 597,-222.5 597,-.5 453,-.5"/>
<text text-anchor="middle" x="525" y="-210.5" font-family="Helvetica,sans-Serif" font-size="10.00" fill="#000000">o2::ft0::RecPoints</text>
<polyline fill="none" stroke="#000000" points="453,-203.5 597,-203.5 "/>
<text text-anchor="middle" x="525" y="-191.5" font-family="Helvetica,sans-Serif" font-size="10.00" fill="#000000"> </text>
<polyline fill="none" stroke="#000000" points="453,-184.5 597,-184.5 "/>
<text text-anchor="start" x="461" y="-172.5" font-family="Helvetica,sans-Serif" font-size="10.00" fill="#000000">+ RecPoints()</text>
<text text-anchor="start" x="461" y="-161.5" font-family="Helvetica,sans-Serif" font-size="10.00" fill="#000000">+ RecPoints()</text>
<text text-anchor="start" x="461" y="-150.5" font-family="Helvetica,sans-Serif" font-size="10.00" fill="#000000">+ ~RecPoints()</text>
<text text-anchor="start" x="461" y="-139.5" font-family="Helvetica,sans-Serif" font-size="10.00" fill="#000000">+ print()</text>
<text text-anchor="start" x="461" y="-128.5" font-family="Helvetica,sans-Serif" font-size="10.00" fill="#000000">+ getCollisionTime()</text>
<text text-anchor="start" x="461" y="-117.5" font-family="Helvetica,sans-Serif" font-size="10.00" fill="#000000">+ getCollisionTimeMean()</text>
<text text-anchor="start" x="461" y="-106.5" font-family="Helvetica,sans-Serif" font-size="10.00" fill="#000000">+ getCollisionTimeA()</text>
<text text-anchor="start" x="461" y="-95.5" font-family="Helvetica,sans-Serif" font-size="10.00" fill="#000000">+ getCollisionTimeC()</text>
<text text-anchor="start" x="461" y="-84.5" font-family="Helvetica,sans-Serif" font-size="10.00" fill="#000000">+ isValidTime()</text>
<text text-anchor="start" x="461" y="-73.5" font-family="Helvetica,sans-Serif" font-size="10.00" fill="#000000">+ setCollisionTime()</text>
<text text-anchor="start" x="461" y="-62.5" font-family="Helvetica,sans-Serif" font-size="10.00" fill="#000000">+ getVertex()</text>
<text text-anchor="start" x="461" y="-51.5" font-family="Helvetica,sans-Serif" font-size="10.00" fill="#000000">+ setVertex()</text>
<text text-anchor="start" x="461" y="-40.5" font-family="Helvetica,sans-Serif" font-size="10.00" fill="#000000">+ getTrigger()</text>
<text text-anchor="start" x="461" y="-29.5" font-family="Helvetica,sans-Serif" font-size="10.00" fill="#000000">+ getInteractionRecord()</text>
<text text-anchor="start" x="461" y="-18.5" font-family="Helvetica,sans-Serif" font-size="10.00" fill="#000000">+ SetMgrEventTime()</text>
<text text-anchor="start" x="461" y="-7.5" font-family="Helvetica,sans-Serif" font-size="10.00" fill="#000000">+ getBunchChannelData()</text>
</g>
<!-- Node2 -->
<g id="node2" class="node">
<title>Node2</title>
<g id="a_node2"><a xlink:href="../../d1/d21/structo2_1_1InteractionRecord.html" target="_top" xlink:title="{o2::InteractionRecord\n||+ InteractionRecord()\l+ InteractionRecord()\l+ InteractionRecord()\l+ InteractionRecord()\l+ clear()\l+ isDummy()\l+ setFromNS()\l+ bc2ns()\l+ operator==()\l+ operator!=()\l+ differenceInBC()\l+ toLong()\l+ setFromLong()\l+ operator\&gt;()\l+ operator\&gt;=()\l+ operator\&lt;()\l+ operator\&lt;=()\l+ operator&#45;&#45;()\l+ operator&#45;&#45;()\l+ operator++()\l+ operator++()\l+ operator+=()\l+ operator&#45;=()\l+ operator+=()\l+ operator&#45;=()\l+ operator+()\l+ operator&#45;()\l+ operator+()\l+ operator&#45;()\l+ print()\l+ asString()\l+ ClassDefNV()\l+ bc2ns()\l+ ns2bc()\l}">
<polygon fill="none" stroke="#000000" points="182.5,-270.5 182.5,-690.5 303.5,-690.5 303.5,-270.5 182.5,-270.5"/>
<text text-anchor="middle" x="243" y="-678.5" font-family="Helvetica,sans-Serif" font-size="10.00" fill="#000000">o2::InteractionRecord</text>
<polyline fill="none" stroke="#000000" points="182.5,-671.5 303.5,-671.5 "/>
<text text-anchor="middle" x="243" y="-659.5" font-family="Helvetica,sans-Serif" font-size="10.00" fill="#000000"> </text>
<polyline fill="none" stroke="#000000" points="182.5,-652.5 303.5,-652.5 "/>
<text text-anchor="start" x="190.5" y="-640.5" font-family="Helvetica,sans-Serif" font-size="10.00" fill="#000000">+ InteractionRecord()</text>
<text text-anchor="start" x="190.5" y="-629.5" font-family="Helvetica,sans-Serif" font-size="10.00" fill="#000000">+ InteractionRecord()</text>
<text text-anchor="start" x="190.5" y="-618.5" font-family="Helvetica,sans-Serif" font-size="10.00" fill="#000000">+ InteractionRecord()</text>
<text text-anchor="start" x="190.5" y="-607.5" font-family="Helvetica,sans-Serif" font-size="10.00" fill="#000000">+ InteractionRecord()</text>
<text text-anchor="start" x="190.5" y="-596.5" font-family="Helvetica,sans-Serif" font-size="10.00" fill="#000000">+ clear()</text>
<text text-anchor="start" x="190.5" y="-585.5" font-family="Helvetica,sans-Serif" font-size="10.00" fill="#000000">+ isDummy()</text>
<text text-anchor="start" x="190.5" y="-574.5" font-family="Helvetica,sans-Serif" font-size="10.00" fill="#000000">+ setFromNS()</text>
<text text-anchor="start" x="190.5" y="-563.5" font-family="Helvetica,sans-Serif" font-size="10.00" fill="#000000">+ bc2ns()</text>
<text text-anchor="start" x="190.5" y="-552.5" font-family="Helvetica,sans-Serif" font-size="10.00" fill="#000000">+ operator==()</text>
<text text-anchor="start" x="190.5" y="-541.5" font-family="Helvetica,sans-Serif" font-size="10.00" fill="#000000">+ operator!=()</text>
<text text-anchor="start" x="190.5" y="-530.5" font-family="Helvetica,sans-Serif" font-size="10.00" fill="#000000">+ differenceInBC()</text>
<text text-anchor="start" x="190.5" y="-519.5" font-family="Helvetica,sans-Serif" font-size="10.00" fill="#000000">+ toLong()</text>
<text text-anchor="start" x="190.5" y="-508.5" font-family="Helvetica,sans-Serif" font-size="10.00" fill="#000000">+ setFromLong()</text>
<text text-anchor="start" x="190.5" y="-497.5" font-family="Helvetica,sans-Serif" font-size="10.00" fill="#000000">+ operator&gt;()</text>
<text text-anchor="start" x="190.5" y="-486.5" font-family="Helvetica,sans-Serif" font-size="10.00" fill="#000000">+ operator&gt;=()</text>
<text text-anchor="start" x="190.5" y="-475.5" font-family="Helvetica,sans-Serif" font-size="10.00" fill="#000000">+ operator&lt;()</text>
<text text-anchor="start" x="190.5" y="-464.5" font-family="Helvetica,sans-Serif" font-size="10.00" fill="#000000">+ operator&lt;=()</text>
<text text-anchor="start" x="190.5" y="-453.5" font-family="Helvetica,sans-Serif" font-size="10.00" fill="#000000">+ operator&#45;&#45;()</text>
<text text-anchor="start" x="190.5" y="-442.5" font-family="Helvetica,sans-Serif" font-size="10.00" fill="#000000">+ operator&#45;&#45;()</text>
<text text-anchor="start" x="190.5" y="-431.5" font-family="Helvetica,sans-Serif" font-size="10.00" fill="#000000">+ operator++()</text>
<text text-anchor="start" x="190.5" y="-420.5" font-family="Helvetica,sans-Serif" font-size="10.00" fill="#000000">+ operator++()</text>
<text text-anchor="start" x="190.5" y="-409.5" font-family="Helvetica,sans-Serif" font-size="10.00" fill="#000000">+ operator+=()</text>
<text text-anchor="start" x="190.5" y="-398.5" font-family="Helvetica,sans-Serif" font-size="10.00" fill="#000000">+ operator&#45;=()</text>
<text text-anchor="start" x="190.5" y="-387.5" font-family="Helvetica,sans-Serif" font-size="10.00" fill="#000000">+ operator+=()</text>
<text text-anchor="start" x="190.5" y="-376.5" font-family="Helvetica,sans-Serif" font-size="10.00" fill="#000000">+ operator&#45;=()</text>
<text text-anchor="start" x="190.5" y="-365.5" font-family="Helvetica,sans-Serif" font-size="10.00" fill="#000000">+ operator+()</text>
<text text-anchor="start" x="190.5" y="-354.5" font-family="Helvetica,sans-Serif" font-size="10.00" fill="#000000">+ operator&#45;()</text>
<text text-anchor="start" x="190.5" y="-343.5" font-family="Helvetica,sans-Serif" font-size="10.00" fill="#000000">+ operator+()</text>
<text text-anchor="start" x="190.5" y="-332.5" font-family="Helvetica,sans-Serif" font-size="10.00" fill="#000000">+ operator&#45;()</text>
<text text-anchor="start" x="190.5" y="-321.5" font-family="Helvetica,sans-Serif" font-size="10.00" fill="#000000">+ print()</text>
<text text-anchor="start" x="190.5" y="-310.5" font-family="Helvetica,sans-Serif" font-size="10.00" fill="#000000">+ asString()</text>
<text text-anchor="start" x="190.5" y="-299.5" font-family="Helvetica,sans-Serif" font-size="10.00" fill="#000000">+ ClassDefNV()</text>
<text text-anchor="start" x="190.5" y="-288.5" font-family="Helvetica,sans-Serif" font-size="10.00" fill="#000000">+ bc2ns()</text>
<text text-anchor="start" x="190.5" y="-277.5" font-family="Helvetica,sans-Serif" font-size="10.00" fill="#000000">+ ns2bc()</text>
</a>
</g>
</g>
<!-- Node2&#45;&gt;Node1 -->
<g id="edge1" class="edge">
<title>Node2&#45;&gt;Node1</title>
<path fill="none" stroke="#404040" d="M303.8426,-400.8868C345.2542,-346.6993 400.4792,-274.4368 445.3834,-215.6791"/>
<polygon fill="none" stroke="#404040" points="445.4962,-215.5315 445.9613,-208.3354 452.7828,-205.997 452.3177,-213.1931 445.4962,-215.5315"/>
<text text-anchor="middle" x="458.5" y="-244" font-family="Helvetica,sans-Serif" font-size="10.00" fill="#000000"> +mIntRecord</text>
</g>
<!-- Node3 -->
<g id="node3" class="node">
<title>Node3</title>
<polygon fill="none" stroke="#bfbfbf" points="0,-815.5 0,-872.5 50,-872.5 50,-815.5 0,-815.5"/>
<text text-anchor="middle" x="25" y="-860.5" font-family="Helvetica,sans-Serif" font-size="10.00" fill="#000000">double</text>
<polyline fill="none" stroke="#bfbfbf" points="0,-853.5 50,-853.5 "/>
<text text-anchor="middle" x="25" y="-841.5" font-family="Helvetica,sans-Serif" font-size="10.00" fill="#000000"> </text>
<polyline fill="none" stroke="#bfbfbf" points="0,-834.5 50,-834.5 "/>
<text text-anchor="middle" x="25" y="-822.5" font-family="Helvetica,sans-Serif" font-size="10.00" fill="#000000"> </text>
</g>
<!-- Node3&#45;&gt;Node2 -->
<g id="edge2" class="edge">
<title>Node3&#45;&gt;Node2</title>
<path fill="none" stroke="#404040" d="M33.1334,-815.3559C39.1136,-796.0769 48.0833,-770.3724 59,-749 91.7821,-684.8201 137.5656,-617.9511 175.2612,-566.9997"/>
<polygon fill="none" stroke="#404040" points="175.2777,-566.9776 175.6518,-559.7762 182.4432,-557.3518 182.069,-564.5532 175.2777,-566.9776"/>
<text text-anchor="middle" x="119" y="-717.5" font-family="Helvetica,sans-Serif" font-size="10.00" fill="#000000"> +DummyTime</text>
</g>
<!-- Node4 -->
<g id="node4" class="node">
<title>Node4</title>
<g id="a_node4"><a xlink:href="../../d2/d5f/classunsigned_01int.html" target="_top" xlink:title="{unsigned int\n||}">
<polygon fill="none" stroke="#000000" points="223.5,-815.5 223.5,-872.5 300.5,-872.5 300.5,-815.5 223.5,-815.5"/>
<text text-anchor="middle" x="262" y="-860.5" font-family="Helvetica,sans-Serif" font-size="10.00" fill="#000000">unsigned int</text>
<polyline fill="none" stroke="#000000" points="223.5,-853.5 300.5,-853.5 "/>
<text text-anchor="middle" x="262" y="-841.5" font-family="Helvetica,sans-Serif" font-size="10.00" fill="#000000"> </text>
<polyline fill="none" stroke="#000000" points="223.5,-834.5 300.5,-834.5 "/>
<text text-anchor="middle" x="262" y="-822.5" font-family="Helvetica,sans-Serif" font-size="10.00" fill="#000000"> </text>
</a>
</g>
</g>
<!-- Node4&#45;&gt;Node2 -->
<g id="edge3" class="edge">
<title>Node4&#45;&gt;Node2</title>
<path fill="none" stroke="#404040" d="M256.1854,-815.3516C251.8708,-792.5971 246.3461,-759.9084 244,-731 243.2518,-721.7802 242.6209,-712.3633 242.0932,-702.8456"/>
<polygon fill="none" stroke="#404040" points="242.0873,-702.7277 237.7882,-696.9383 241.4788,-690.7432 245.7779,-696.5326 242.0873,-702.7277"/>
<text text-anchor="middle" x="281.5" y="-717.5" font-family="Helvetica,sans-Serif" font-size="10.00" fill="#000000"> +DummyOrbit</text>
</g>
<!-- Node5 -->
<g id="node5" class="node">
<title>Node5</title>
<polygon fill="none" stroke="#bfbfbf" points="351.5,-815.5 351.5,-872.5 412.5,-872.5 412.5,-815.5 351.5,-815.5"/>
<text text-anchor="middle" x="382" y="-860.5" font-family="Helvetica,sans-Serif" font-size="10.00" fill="#000000">unsigned</text>
<polyline fill="none" stroke="#bfbfbf" points="351.5,-853.5 412.5,-853.5 "/>
<text text-anchor="middle" x="382" y="-841.5" font-family="Helvetica,sans-Serif" font-size="10.00" fill="#000000"> </text>
<polyline fill="none" stroke="#bfbfbf" points="351.5,-834.5 412.5,-834.5 "/>
<text text-anchor="middle" x="382" y="-822.5" font-family="Helvetica,sans-Serif" font-size="10.00" fill="#000000"> </text>
</g>
<!-- Node5&#45;&gt;Node2 -->
<g id="edge4" class="edge">
<title>Node5&#45;&gt;Node2</title>
<path fill="none" stroke="#404040" d="M371.0929,-815.4768C357.2369,-779.2417 332.1953,-713.7554 307.9054,-650.2347"/>
<polygon fill="none" stroke="#404040" points="307.8271,-650.0296 301.9479,-645.8541 303.541,-638.8212 309.4202,-642.9967 307.8271,-650.0296"/>
<text text-anchor="middle" x="353.5" y="-723" font-family="Helvetica,sans-Serif" font-size="10.00" fill="#000000"> +bc</text>
<text text-anchor="middle" x="353.5" y="-712" font-family="Helvetica,sans-Serif" font-size="10.00" fill="#000000">+orbit</text>
</g>
<!-- Node7 -->
<g id="node7" class="node">
<title>Node7</title>
<g id="a_node7"><a xlink:href="../../db/df8/structo2_1_1ft0_1_1Triggers.html" target="_top" xlink:title="{o2::ft0::Triggers\n||+ Triggers()\l+ Triggers()\l+ getOrA()\l+ getOrC()\l+ getVertex()\l+ getCen()\l+ getSCen()\l+ setTriggers()\l+ cleanTriggers()\l+ ClassDefNV()\l}">
<polygon fill="none" stroke="#000000" points="475,-402.5 475,-558.5 575,-558.5 575,-402.5 475,-402.5"/>
<text text-anchor="middle" x="525" y="-546.5" font-family="Helvetica,sans-Serif" font-size="10.00" fill="#000000">o2::ft0::Triggers</text>
<polyline fill="none" stroke="#000000" points="475,-539.5 575,-539.5 "/>
<text text-anchor="middle" x="525" y="-527.5" font-family="Helvetica,sans-Serif" font-size="10.00" fill="#000000"> </text>
<polyline fill="none" stroke="#000000" points="475,-520.5 575,-520.5 "/>
<text text-anchor="start" x="483" y="-508.5" font-family="Helvetica,sans-Serif" font-size="10.00" fill="#000000">+ Triggers()</text>
<text text-anchor="start" x="483" y="-497.5" font-family="Helvetica,sans-Serif" font-size="10.00" fill="#000000">+ Triggers()</text>
<text text-anchor="start" x="483" y="-486.5" font-family="Helvetica,sans-Serif" font-size="10.00" fill="#000000">+ getOrA()</text>
<text text-anchor="start" x="483" y="-475.5" font-family="Helvetica,sans-Serif" font-size="10.00" fill="#000000">+ getOrC()</text>
<text text-anchor="start" x="483" y="-464.5" font-family="Helvetica,sans-Serif" font-size="10.00" fill="#000000">+ getVertex()</text>
<text text-anchor="start" x="483" y="-453.5" font-family="Helvetica,sans-Serif" font-size="10.00" fill="#000000">+ getCen()</text>
<text text-anchor="start" x="483" y="-442.5" font-family="Helvetica,sans-Serif" font-size="10.00" fill="#000000">+ getSCen()</text>
<text text-anchor="start" x="483" y="-431.5" font-family="Helvetica,sans-Serif" font-size="10.00" fill="#000000">+ setTriggers()</text>
<text text-anchor="start" x="483" y="-420.5" font-family="Helvetica,sans-Serif" font-size="10.00" fill="#000000">+ cleanTriggers()</text>
<text text-anchor="start" x="483" y="-409.5" font-family="Helvetica,sans-Serif" font-size="10.00" fill="#000000">+ ClassDefNV()</text>
</a>
</g>
</g>
<!-- Node5&#45;&gt;Node7 -->
<g id="edge10" class="edge">
<title>Node5&#45;&gt;Node7</title>
<path fill="none" stroke="#404040" d="M386.9085,-815.2924C392.0838,-787.5976 401.2601,-744.7338 414,-709 430.8926,-661.6183 454.7666,-611.0991 476.0477,-569.6437"/>
<polygon fill="none" stroke="#404040" points="476.1672,-569.4127 475.3733,-562.2454 481.6839,-558.7559 482.4778,-565.9232 476.1672,-569.4127"/>
<text text-anchor="middle" x="453.5" y="-717.5" font-family="Helvetica,sans-Serif" font-size="10.00" fill="#000000"> +triggersignals</text>
</g>
<!-- Node6 -->
<g id="node6" class="node">
<title>Node6</title>
<polygon fill="none" stroke="#bfbfbf" points="68.5,-815.5 68.5,-872.5 205.5,-872.5 205.5,-815.5 68.5,-815.5"/>
<text text-anchor="middle" x="137" y="-860.5" font-family="Helvetica,sans-Serif" font-size="10.00" fill="#000000">static constexpr uint16_t</text>
<polyline fill="none" stroke="#bfbfbf" points="68.5,-853.5 205.5,-853.5 "/>
<text text-anchor="middle" x="137" y="-841.5" font-family="Helvetica,sans-Serif" font-size="10.00" fill="#000000"> </text>
<polyline fill="none" stroke="#bfbfbf" points="68.5,-834.5 205.5,-834.5 "/>
<text text-anchor="middle" x="137" y="-822.5" font-family="Helvetica,sans-Serif" font-size="10.00" fill="#000000"> </text>
</g>
<!-- Node6&#45;&gt;Node2 -->
<g id="edge5" class="edge">
<title>Node6&#45;&gt;Node2</title>
<path fill="none" stroke="#404040" d="M144.9566,-815.2593C152.5611,-787.9048 164.403,-745.6019 175,-709 176.3376,-704.3798 177.6939,-699.7082 179.0645,-694.9995"/>
<polygon fill="none" stroke="#404040" points="179.1383,-694.7462 176.9781,-687.8663 182.4981,-683.2262 184.6582,-690.1061 179.1383,-694.7462"/>
<text text-anchor="middle" x="207" y="-717.5" font-family="Helvetica,sans-Serif" font-size="10.00" fill="#000000"> +DummyBC</text>
</g>
<!-- Node7&#45;&gt;Node1 -->
<g id="edge6" class="edge">
<title>Node7&#45;&gt;Node1</title>
<path fill="none" stroke="#404040" d="M525,-402.2446C525,-353.5624 525,-289.9097 525,-234.577"/>
<polygon fill="none" stroke="#404040" points="525.0001,-234.5405 521,-228.5405 525,-222.5405 529,-228.5405 525.0001,-234.5405"/>
<text text-anchor="middle" x="555" y="-244" font-family="Helvetica,sans-Serif" font-size="10.00" fill="#000000"> +mTriggers</text>
</g>
<!-- Node8 -->
<g id="node8" class="node">
<title>Node8</title>
<polygon fill="none" stroke="#bfbfbf" points="475,-815.5 475,-872.5 519,-872.5 519,-815.5 475,-815.5"/>
<text text-anchor="middle" x="497" y="-860.5" font-family="Helvetica,sans-Serif" font-size="10.00" fill="#000000">int8_t</text>
<polyline fill="none" stroke="#bfbfbf" points="475,-853.5 519,-853.5 "/>
<text text-anchor="middle" x="497" y="-841.5" font-family="Helvetica,sans-Serif" font-size="10.00" fill="#000000"> </text>
<polyline fill="none" stroke="#bfbfbf" points="475,-834.5 519,-834.5 "/>
<text text-anchor="middle" x="497" y="-822.5" font-family="Helvetica,sans-Serif" font-size="10.00" fill="#000000"> </text>
</g>
<!-- Node8&#45;&gt;Node7 -->
<g id="edge7" class="edge">
<title>Node8&#45;&gt;Node7</title>
<path fill="none" stroke="#404040" d="M496.2973,-815.2625C495.845,-787.9103 495.7085,-745.609 498,-709 500.8618,-663.2794 506.5778,-612.6673 512.0166,-570.7211"/>
<polygon fill="none" stroke="#404040" points="512.0505,-570.4631 508.8675,-563.9925 513.6161,-558.5656 516.7991,-565.0362 512.0505,-570.4631"/>
<text text-anchor="middle" x="522.5" y="-723" font-family="Helvetica,sans-Serif" font-size="10.00" fill="#000000"> +nChanA</text>
<text text-anchor="middle" x="522.5" y="-712" font-family="Helvetica,sans-Serif" font-size="10.00" fill="#000000">+nChanC</text>
</g>
<!-- Node9 -->
<g id="node9" class="node">
<title>Node9</title>
<polygon fill="none" stroke="#bfbfbf" points="543,-815.5 543,-872.5 593,-872.5 593,-815.5 543,-815.5"/>
<text text-anchor="middle" x="568" y="-860.5" font-family="Helvetica,sans-Serif" font-size="10.00" fill="#000000">int32_t</text>
<polyline fill="none" stroke="#bfbfbf" points="543,-853.5 593,-853.5 "/>
<text text-anchor="middle" x="568" y="-841.5" font-family="Helvetica,sans-Serif" font-size="10.00" fill="#000000"> </text>
<polyline fill="none" stroke="#bfbfbf" points="543,-834.5 593,-834.5 "/>
<text text-anchor="middle" x="568" y="-822.5" font-family="Helvetica,sans-Serif" font-size="10.00" fill="#000000"> </text>
</g>
<!-- Node9&#45;&gt;Node7 -->
<g id="edge8" class="edge">
<title>Node9&#45;&gt;Node7</title>
<path fill="none" stroke="#404040" d="M564.6259,-815.4768C558.4679,-763.4202 545.1681,-650.9911 535.6762,-570.7515"/>
<polygon fill="none" stroke="#404040" points="535.6558,-570.5781 530.9786,-565.0896 534.246,-558.6612 538.9232,-564.1498 535.6558,-570.5781"/>
<text text-anchor="middle" x="575.5" y="-723" font-family="Helvetica,sans-Serif" font-size="10.00" fill="#000000"> +amplA</text>
<text text-anchor="middle" x="575.5" y="-712" font-family="Helvetica,sans-Serif" font-size="10.00" fill="#000000">+amplC</text>
</g>
<!-- Node10 -->
<g id="node10" class="node">
<title>Node10</title>
<polygon fill="none" stroke="#bfbfbf" points="611,-815.5 611,-872.5 661,-872.5 661,-815.5 611,-815.5"/>
<text text-anchor="middle" x="636" y="-860.5" font-family="Helvetica,sans-Serif" font-size="10.00" fill="#000000">int16_t</text>
<polyline fill="none" stroke="#bfbfbf" points="611,-853.5 661,-853.5 "/>
<text text-anchor="middle" x="636" y="-841.5" font-family="Helvetica,sans-Serif" font-size="10.00" fill="#000000"> </text>
<polyline fill="none" stroke="#bfbfbf" points="611,-834.5 661,-834.5 "/>
<text text-anchor="middle" x="636" y="-822.5" font-family="Helvetica,sans-Serif" font-size="10.00" fill="#000000"> </text>
</g>
<!-- Node10&#45;&gt;Node7 -->
<g id="edge9" class="edge">
<title>Node10&#45;&gt;Node7</title>
<path fill="none" stroke="#404040" d="M629.1796,-815.4024C622.4975,-787.9706 611.7747,-745.4544 601,-709 587.3793,-662.9166 570.6684,-612.1505 556.3882,-570.1972"/>
<polygon fill="none" stroke="#404040" points="556.3089,-569.9647 550.584,-565.58 552.4295,-558.6091 558.1544,-562.9938 556.3089,-569.9647"/>
<text text-anchor="middle" x="627.5" y="-723" font-family="Helvetica,sans-Serif" font-size="10.00" fill="#000000"> +timeA</text>
<text text-anchor="middle" x="627.5" y="-712" font-family="Helvetica,sans-Serif" font-size="10.00" fill="#000000">+timeC</text>
</g>
<!-- Node11 -->
<g id="node11" class="node">
<title>Node11</title>
<g id="a_node11"><a xlink:href="../../d7/dc7/classo2_1_1dataformats_1_1RangeReference.html" target="_top" xlink:title="{o2::dataformats::RangeReference\l\&lt; int, int \&gt;\n||+ RangeReference()\l+ RangeReference()\l+ RangeReference()\l+ ~RangeReference()\l+ set()\l+ clear()\l+ getFirstEntry()\l+ getEntries()\l+ setFirstEntry()\l+ setEntries()\l+ changeEntriesBy()\l+ operator==()\l}">
<polygon fill="none" stroke="#000000" points="650,-386 650,-575 830,-575 830,-386 650,-386"/>
<text text-anchor="start" x="658" y="-563" font-family="Helvetica,sans-Serif" font-size="10.00" fill="#000000">o2::dataformats::RangeReference</text>
<text text-anchor="middle" x="740" y="-552" font-family="Helvetica,sans-Serif" font-size="10.00" fill="#000000">&lt; int, int &gt;</text>
<polyline fill="none" stroke="#000000" points="650,-545 830,-545 "/>
<text text-anchor="middle" x="740" y="-533" font-family="Helvetica,sans-Serif" font-size="10.00" fill="#000000"> </text>
<polyline fill="none" stroke="#000000" points="650,-526 830,-526 "/>
<text text-anchor="start" x="658" y="-514" font-family="Helvetica,sans-Serif" font-size="10.00" fill="#000000">+ RangeReference()</text>
<text text-anchor="start" x="658" y="-503" font-family="Helvetica,sans-Serif" font-size="10.00" fill="#000000">+ RangeReference()</text>
<text text-anchor="start" x="658" y="-492" font-family="Helvetica,sans-Serif" font-size="10.00" fill="#000000">+ RangeReference()</text>
<text text-anchor="start" x="658" y="-481" font-family="Helvetica,sans-Serif" font-size="10.00" fill="#000000">+ ~RangeReference()</text>
<text text-anchor="start" x="658" y="-470" font-family="Helvetica,sans-Serif" font-size="10.00" fill="#000000">+ set()</text>
<text text-anchor="start" x="658" y="-459" font-family="Helvetica,sans-Serif" font-size="10.00" fill="#000000">+ clear()</text>
<text text-anchor="start" x="658" y="-448" font-family="Helvetica,sans-Serif" font-size="10.00" fill="#000000">+ getFirstEntry()</text>
<text text-anchor="start" x="658" y="-437" font-family="Helvetica,sans-Serif" font-size="10.00" fill="#000000">+ getEntries()</text>
<text text-anchor="start" x="658" y="-426" font-family="Helvetica,sans-Serif" font-size="10.00" fill="#000000">+ setFirstEntry()</text>
<text text-anchor="start" x="658" y="-415" font-family="Helvetica,sans-Serif" font-size="10.00" fill="#000000">+ setEntries()</text>
<text text-anchor="start" x="658" y="-404" font-family="Helvetica,sans-Serif" font-size="10.00" fill="#000000">+ changeEntriesBy()</text>
<text text-anchor="start" x="658" y="-393" font-family="Helvetica,sans-Serif" font-size="10.00" fill="#000000">+ operator==()</text>
</a>
</g>
</g>
<!-- Node11&#45;&gt;Node1 -->
<g id="edge11" class="edge">
<title>Node11&#45;&gt;Node1</title>
<path fill="none" stroke="#404040" d="M684.9113,-385.9525C657.7892,-339.4033 624.7739,-282.7399 595.8004,-233.0133"/>
<polygon fill="none" stroke="#404040" points="595.724,-232.882 589.2472,-229.7116 589.6827,-222.5136 596.1595,-225.6841 595.724,-232.882"/>
<text text-anchor="middle" x="612.5" y="-244" font-family="Helvetica,sans-Serif" font-size="10.00" fill="#000000"> +ref</text>
</g>
<!-- Node12 -->
<g id="node12" class="node">
<title>Node12</title>
<g id="a_node12"><a xlink:href="../../d7/dc7/classo2_1_1dataformats_1_1RangeReference.html" target="_top" xlink:title="{o2::dataformats::RangeReference\l\&lt; FirstEntry, NElem \&gt;\n||+ RangeReference()\l+ RangeReference()\l+ RangeReference()\l+ ~RangeReference()\l+ set()\l+ clear()\l+ getFirstEntry()\l+ getEntries()\l+ setFirstEntry()\l+ setEntries()\l+ changeEntriesBy()\l+ operator==()\l}">
<polygon fill="none" stroke="#000000" points="679,-749.5 679,-938.5 859,-938.5 859,-749.5 679,-749.5"/>
<text text-anchor="start" x="687" y="-926.5" font-family="Helvetica,sans-Serif" font-size="10.00" fill="#000000">o2::dataformats::RangeReference</text>
<text text-anchor="middle" x="769" y="-915.5" font-family="Helvetica,sans-Serif" font-size="10.00" fill="#000000">&lt; FirstEntry, NElem &gt;</text>
<polyline fill="none" stroke="#000000" points="679,-908.5 859,-908.5 "/>
<text text-anchor="middle" x="769" y="-896.5" font-family="Helvetica,sans-Serif" font-size="10.00" fill="#000000"> </text>
<polyline fill="none" stroke="#000000" points="679,-889.5 859,-889.5 "/>
<text text-anchor="start" x="687" y="-877.5" font-family="Helvetica,sans-Serif" font-size="10.00" fill="#000000">+ RangeReference()</text>
<text text-anchor="start" x="687" y="-866.5" font-family="Helvetica,sans-Serif" font-size="10.00" fill="#000000">+ RangeReference()</text>
<text text-anchor="start" x="687" y="-855.5" font-family="Helvetica,sans-Serif" font-size="10.00" fill="#000000">+ RangeReference()</text>
<text text-anchor="start" x="687" y="-844.5" font-family="Helvetica,sans-Serif" font-size="10.00" fill="#000000">+ ~RangeReference()</text>
<text text-anchor="start" x="687" y="-833.5" font-family="Helvetica,sans-Serif" font-size="10.00" fill="#000000">+ set()</text>
<text text-anchor="start" x="687" y="-822.5" font-family="Helvetica,sans-Serif" font-size="10.00" fill="#000000">+ clear()</text>
<text text-anchor="start" x="687" y="-811.5" font-family="Helvetica,sans-Serif" font-size="10.00" fill="#000000">+ getFirstEntry()</text>
<text text-anchor="start" x="687" y="-800.5" font-family="Helvetica,sans-Serif" font-size="10.00" fill="#000000">+ getEntries()</text>
<text text-anchor="start" x="687" y="-789.5" font-family="Helvetica,sans-Serif" font-size="10.00" fill="#000000">+ setFirstEntry()</text>
<text text-anchor="start" x="687" y="-778.5" font-family="Helvetica,sans-Serif" font-size="10.00" fill="#000000">+ setEntries()</text>
<text text-anchor="start" x="687" y="-767.5" font-family="Helvetica,sans-Serif" font-size="10.00" fill="#000000">+ changeEntriesBy()</text>
<text text-anchor="start" x="687" y="-756.5" font-family="Helvetica,sans-Serif" font-size="10.00" fill="#000000">+ operator==()</text>
</a>
</g>
</g>
<!-- Node12&#45;&gt;Node11 -->
<g id="edge12" class="edge">
<title>Node12&#45;&gt;Node11</title>
<path fill="none" stroke="#ffa500" d="M760.642,-739.2367C756.5136,-687.4889 751.5702,-625.5268 747.5563,-575.2138"/>
<polygon fill="#ffa500" stroke="#ffa500" points="757.172,-739.7536 761.4563,-749.4436 764.1498,-739.1969 757.172,-739.7536"/>
<text text-anchor="middle" x="788" y="-717.5" font-family="Helvetica,sans-Serif" font-size="10.00" fill="#000000"> &lt; int, int &gt;</text>
</g>
</g>
</svg>
        <g id="navigator" transform="translate(0 0)" fill="#404254">
                <rect fill="#f2f5e9" fill-opacity="0.5" stroke="#606060" stroke-width=".5" x="0" y="0" width="60" height="60"/>
                <use id="zoomplus" xlink:href="#zoomPlus" x="17" y="9" onmousedown="handleZoom(evt,'in')"/>
                <use id="zoomminus" xlink:href="#zoomMin" x="42" y="9" onmousedown="handleZoom(evt,'out')"/>
                <use id="reset" xlink:href="#resetDef" x="30" y="36" onmousedown="handleReset()"/>
                <g id="arrowUp" xlink:href="#dirArrow" transform="translate(30 24)" onmousedown="handlePan(0,-1)">
                  <use xlink:href="#rim" fill="#404040">
                        <set attributeName="fill" to="#808080" begin="arrowUp.mouseover" end="arrowUp.mouseout"/>
                  </use>
                  <path fill="none" stroke="white" stroke-width="1.5" d="M0,-3.0v7 M-2.5,-0.5L0,-3.0L2.5,-0.5"/>
                </g>
                <g id="arrowRight" xlink:href="#dirArrow" transform="rotate(90) translate(36 -43)" onmousedown="handlePan(1,0)">
                  <use xlink:href="#rim" fill="#404040">
                        <set attributeName="fill" to="#808080" begin="arrowRight.mouseover" end="arrowRight.mouseout"/>
                  </use>
                  <path fill="none" stroke="white" stroke-width="1.5" d="M0,-3.0v7 M-2.5,-0.5L0,-3.0L2.5,-0.5"/>
                </g>
                <g id="arrowDown" xlink:href="#dirArrow" transform="rotate(180) translate(-30 -48)" onmousedown="handlePan(0,1)">
                  <use xlink:href="#rim" fill="#404040">
                        <set attributeName="fill" to="#808080" begin="arrowDown.mouseover" end="arrowDown.mouseout"/>
                  </use>
                  <path fill="none" stroke="white" stroke-width="1.5" d="M0,-3.0v7 M-2.5,-0.5L0,-3.0L2.5,-0.5"/>
                </g>
                <g id="arrowLeft" xlink:href="#dirArrow" transform="rotate(270) translate(-36 17)" onmousedown="handlePan(-1,0)">
                  <use xlink:href="#rim" fill="#404040">
                        <set attributeName="fill" to="#808080" begin="arrowLeft.mouseover" end="arrowLeft.mouseout"/>
                  </use>
                  <path fill="none" stroke="white" stroke-width="1.5" d="M0,-3.0v7 M-2.5,-0.5L0,-3.0L2.5,-0.5"/>
                </g>
        </g>
        <svg viewBox="0 0 15 15" width="100%" height="30px" preserveAspectRatio="xMaxYMin meet">
         <g id="arrow_out" transform="scale(0.3 0.3)">
          <a xlink:href="classo2_1_1ft0_1_1RecPoints__coll__graph_org.svg" target="_base">
           <rect id="button" ry="5" rx="5" y="6" x="6" height="38" width="38"
                fill="#f2f5e9" fill-opacity="0.5" stroke="#606060" stroke-width="1.0"/>
           <path id="arrow"
             d="M 11.500037,31.436501 C 11.940474,20.09759 22.043105,11.32322 32.158766,21.979434 L 37.068811,17.246167 C 37.068811,17.246167 37.088388,32 37.088388,32 L 22.160133,31.978069 C 22.160133,31.978069 26.997745,27.140456 26.997745,27.140456 C 18.528582,18.264221 13.291696,25.230495 11.500037,31.436501 z"
             style="fill:#404040;"/>
          </a>
         </g>
        </svg>
</svg>
