<?xml version="1.0" encoding="UTF-8" standalone="no"?>
<!DOCTYPE svg PUBLIC "-//W3C//DTD SVG 1.1//EN"
 "http://www.w3.org/Graphics/SVG/1.1/DTD/svg11.dtd">
<!-- Generated by graphviz version 2.40.1 (20161225.0304)
 -->
<!-- Title: o2::ft0::Triggers Pages: 1 -->
<svg width="294pt" height="281pt"
 viewBox="0.00 0.00 294.00 281.00" xmlns="http://www.w3.org/2000/svg" xmlns:xlink="http://www.w3.org/1999/xlink">
<g id="graph0" class="graph" transform="scale(1 1) rotate(0) translate(4 277)">
<title>o2::ft0::Triggers</title>
<!-- Node1 -->
<g id="node1" class="node">
<title>Node1</title>
<polygon fill="#bfbfbf" stroke="#000000" points="77,-.5 77,-156.5 177,-156.5 177,-.5 77,-.5"/>
<text text-anchor="middle" x="127" y="-144.5" font-family="Helvetica,sans-Serif" font-size="10.00" fill="#000000">o2::ft0::Triggers</text>
<polyline fill="none" stroke="#000000" points="77,-137.5 177,-137.5 "/>
<text text-anchor="middle" x="127" y="-125.5" font-family="Helvetica,sans-Serif" font-size="10.00" fill="#000000"> </text>
<polyline fill="none" stroke="#000000" points="77,-118.5 177,-118.5 "/>
<text text-anchor="start" x="85" y="-106.5" font-family="Helvetica,sans-Serif" font-size="10.00" fill="#000000">+ Triggers()</text>
<text text-anchor="start" x="85" y="-95.5" font-family="Helvetica,sans-Serif" font-size="10.00" fill="#000000">+ Triggers()</text>
<text text-anchor="start" x="85" y="-84.5" font-family="Helvetica,sans-Serif" font-size="10.00" fill="#000000">+ getOrA()</text>
<text text-anchor="start" x="85" y="-73.5" font-family="Helvetica,sans-Serif" font-size="10.00" fill="#000000">+ getOrC()</text>
<text text-anchor="start" x="85" y="-62.5" font-family="Helvetica,sans-Serif" font-size="10.00" fill="#000000">+ getVertex()</text>
<text text-anchor="start" x="85" y="-51.5" font-family="Helvetica,sans-Serif" font-size="10.00" fill="#000000">+ getCen()</text>
<text text-anchor="start" x="85" y="-40.5" font-family="Helvetica,sans-Serif" font-size="10.00" fill="#000000">+ getSCen()</text>
<text text-anchor="start" x="85" y="-29.5" font-family="Helvetica,sans-Serif" font-size="10.00" fill="#000000">+ setTriggers()</text>
<text text-anchor="start" x="85" y="-18.5" font-family="Helvetica,sans-Serif" font-size="10.00" fill="#000000">+ cleanTriggers()</text>
<text text-anchor="start" x="85" y="-7.5" font-family="Helvetica,sans-Serif" font-size="10.00" fill="#000000">+ ClassDefNV()</text>
</g>
<!-- Node2 -->
<g id="node2" class="node">
<title>Node2</title>
<polygon fill="none" stroke="#bfbfbf" points="0,-215.5 0,-272.5 44,-272.5 44,-215.5 0,-215.5"/>
<text text-anchor="middle" x="22" y="-260.5" font-family="Helvetica,sans-Serif" font-size="10.00" fill="#000000">int8_t</text>
<polyline fill="none" stroke="#bfbfbf" points="0,-253.5 44,-253.5 "/>
<text text-anchor="middle" x="22" y="-241.5" font-family="Helvetica,sans-Serif" font-size="10.00" fill="#000000"> </text>
<polyline fill="none" stroke="#bfbfbf" points="0,-234.5 44,-234.5 "/>
<text text-anchor="middle" x="22" y="-222.5" font-family="Helvetica,sans-Serif" font-size="10.00" fill="#000000"> </text>
</g>
<!-- Node2&#45;&gt;Node1 -->
<g id="edge1" class="edge">
<title>Node2&#45;&gt;Node1</title>
<path fill="none" stroke="#404040" d="M26.289,-215.3293C29.0009,-202.4648 33.3029,-187.4231 40,-175 47.6767,-160.7599 57.8803,-146.9247 68.5925,-134.3853"/>
<polygon fill="none" stroke="#404040" points="68.8928,-134.0463 69.8771,-126.9026 76.8498,-125.0637 75.8655,-132.2073 68.8928,-134.0463"/>
<text text-anchor="middle" x="64.5" y="-189" font-family="Helvetica,sans-Serif" font-size="10.00" fill="#000000"> +nChanA</text>
<text text-anchor="middle" x="64.5" y="-178" font-family="Helvetica,sans-Serif" font-size="10.00" fill="#000000">+nChanC</text>
</g>
<!-- Node3 -->
<g id="node3" class="node">
<title>Node3</title>
<polygon fill="none" stroke="#bfbfbf" points="68,-215.5 68,-272.5 118,-272.5 118,-215.5 68,-215.5"/>
<text text-anchor="middle" x="93" y="-260.5" font-family="Helvetica,sans-Serif" font-size="10.00" fill="#000000">int32_t</text>
<polyline fill="none" stroke="#bfbfbf" points="68,-253.5 118,-253.5 "/>
<text text-anchor="middle" x="93" y="-241.5" font-family="Helvetica,sans-Serif" font-size="10.00" fill="#000000"> </text>
<polyline fill="none" stroke="#bfbfbf" points="68,-234.5 118,-234.5 "/>
<text text-anchor="middle" x="93" y="-222.5" font-family="Helvetica,sans-Serif" font-size="10.00" fill="#000000"> </text>
</g>
<!-- Node3&#45;&gt;Node1 -->
<g id="edge2" class="edge">
<title>Node3&#45;&gt;Node1</title>
<path fill="none" stroke="#404040" d="M92.5398,-215.2766C92.7792,-202.8134 93.6547,-188.1012 96,-175 96.39,-172.8213 96.8166,-170.6237 97.2751,-168.4144"/>
<polygon fill="none" stroke="#404040" points="97.319,-168.2229 94.7643,-161.4795 100.0064,-156.5276 102.5611,-163.271 97.319,-168.2229"/>
<text text-anchor="middle" x="117.5" y="-189" font-family="Helvetica,sans-Serif" font-size="10.00" fill="#000000"> +amplA</text>
<text text-anchor="middle" x="117.5" y="-178" font-family="Helvetica,sans-Serif" font-size="10.00" fill="#000000">+amplC</text>
</g>
<!-- Node4 -->
<g id="node4" class="node">
<title>Node4</title>
<polygon fill="none" stroke="#bfbfbf" points="136,-215.5 136,-272.5 186,-272.5 186,-215.5 136,-215.5"/>
<text text-anchor="middle" x="161" y="-260.5" font-family="Helvetica,sans-Serif" font-size="10.00" fill="#000000">int16_t</text>
<polyline fill="none" stroke="#bfbfbf" points="136,-253.5 186,-253.5 "/>
<text text-anchor="middle" x="161" y="-241.5" font-family="Helvetica,sans-Serif" font-size="10.00" fill="#000000"> </text>
<polyline fill="none" stroke="#bfbfbf" points="136,-234.5 186,-234.5 "/>
<text text-anchor="middle" x="161" y="-222.5" font-family="Helvetica,sans-Serif" font-size="10.00" fill="#000000"> </text>
</g>
<!-- Node4&#45;&gt;Node1 -->
<g id="edge3" class="edge">
<title>Node4&#45;&gt;Node1</title>
<path fill="none" stroke="#404040" d="M155.0777,-215.1721C152.3831,-202.0561 149.0309,-185.7388 145.5911,-168.9949"/>
<polygon fill="none" stroke="#404040" points="145.4939,-168.5215 140.3683,-163.4492 143.079,-156.767 148.2046,-161.8393 145.4939,-168.5215"/>
<text text-anchor="middle" x="170.5" y="-189" font-family="Helvetica,sans-Serif" font-size="10.00" fill="#000000"> +timeA</text>
<text text-anchor="middle" x="170.5" y="-178" font-family="Helvetica,sans-Serif" font-size="10.00" fill="#000000">+timeC</text>
</g>
<!-- Node5 -->
<g id="node5" class="node">
<title>Node5</title>
<polygon fill="none" stroke="#bfbfbf" points="204.5,-215.5 204.5,-272.5 265.5,-272.5 265.5,-215.5 204.5,-215.5"/>
<text text-anchor="middle" x="235" y="-260.5" font-family="Helvetica,sans-Serif" font-size="10.00" fill="#000000">unsigned</text>
<polyline fill="none" stroke="#bfbfbf" points="204.5,-253.5 265.5,-253.5 "/>
<text text-anchor="middle" x="235" y="-241.5" font-family="Helvetica,sans-Serif" font-size="10.00" fill="#000000"> </text>
<polyline fill="none" stroke="#bfbfbf" points="204.5,-234.5 265.5,-234.5 "/>
<text text-anchor="middle" x="235" y="-222.5" font-family="Helvetica,sans-Serif" font-size="10.00" fill="#000000"> </text>
</g>
<!-- Node5&#45;&gt;Node1 -->
<g id="edge4" class="edge">
<title>Node5&#45;&gt;Node1</title>
<path fill="none" stroke="#404040" d="M219.2084,-215.4613C212.0652,-202.899 203.3635,-188.0596 195,-175 191.4768,-169.4986 187.7768,-163.8712 183.9986,-158.2343"/>
<polygon fill="none" stroke="#404040" points="183.8654,-158.0377 177.1885,-155.314 177.1346,-148.103 183.8116,-150.8268 183.8654,-158.0377"/>
<text text-anchor="middle" x="246.5" y="-183.5" font-family="Helvetica,sans-Serif" font-size="10.00" fill="#000000"> +triggersignals</text>
</g>
</g>
</svg>
