<?xml version="1.0" encoding="UTF-8" standalone="no"?>
<!DOCTYPE svg PUBLIC "-//W3C//DTD SVG 1.1//EN"
 "http://www.w3.org/Graphics/SVG/1.1/DTD/svg11.dtd">
<!-- Generated by graphviz version 2.40.1 (20161225.0304)
 -->
<!-- Title: o2::trd::TrackletMCMHeader Pages: 1 -->
<svg width="248pt" height="248pt"
 viewBox="0.00 0.00 248.00 248.00" xmlns="http://www.w3.org/2000/svg" xmlns:xlink="http://www.w3.org/1999/xlink">
<g id="graph0" class="graph" transform="scale(1 1) rotate(0) translate(4 244)">
<title>o2::trd::TrackletMCMHeader</title>
<!-- Node1 -->
<g id="node1" class="node">
<title>Node1</title>
<polygon fill="#bfbfbf" stroke="#000000" points="59.5,-.5 59.5,-57.5 210.5,-57.5 210.5,-.5 59.5,-.5"/>
<text text-anchor="middle" x="135" y="-45.5" font-family="Helvetica,sans-Serif" font-size="10.00" fill="#000000">o2::trd::TrackletMCMHeader</text>
<polyline fill="none" stroke="#000000" points="59.5,-38.5 210.5,-38.5 "/>
<text text-anchor="middle" x="135" y="-26.5" font-family="Helvetica,sans-Serif" font-size="10.00" fill="#000000"> </text>
<polyline fill="none" stroke="#000000" points="59.5,-19.5 210.5,-19.5 "/>
<text text-anchor="middle" x="135" y="-7.5" font-family="Helvetica,sans-Serif" font-size="10.00" fill="#000000"> </text>
</g>
<!-- Node2 -->
<g id="node2" class="node">
<title>Node2</title>
<polygon fill="none" stroke="#bfbfbf" points="0,-182.5 0,-239.5 148,-239.5 148,-182.5 0,-182.5"/>
<text text-anchor="middle" x="74" y="-227.5" font-family="Helvetica,sans-Serif" font-size="10.00" fill="#000000">anonymous:+__attribute__</text>
<polyline fill="none" stroke="#bfbfbf" points="0,-220.5 148,-220.5 "/>
<text text-anchor="middle" x="74" y="-208.5" font-family="Helvetica,sans-Serif" font-size="10.00" fill="#000000"> </text>
<polyline fill="none" stroke="#bfbfbf" points="0,-201.5 148,-201.5 "/>
<text text-anchor="middle" x="74" y="-189.5" font-family="Helvetica,sans-Serif" font-size="10.00" fill="#000000"> </text>
</g>
<!-- Node2&#45;&gt;Node1 -->
<g id="edge1" class="edge">
<title>Node2&#45;&gt;Node1</title>
<path fill="none" stroke="#404040" d="M75.7767,-182.4991C78.3702,-154.3934 84.6927,-110.7264 100,-76 101.2208,-73.2305 102.6305,-70.4699 104.1688,-67.7536"/>
<polygon fill="none" stroke="#404040" points="104.1951,-67.7119 104.0229,-60.5029 110.6112,-57.5712 110.7834,-64.7803 104.1951,-67.7119"/>
<text text-anchor="middle" x="137.5" y="-117.5" font-family="Helvetica,sans-Serif" font-size="10.00" fill="#000000"> +__attribute__</text>
</g>
<!-- Node3 -->
<g id="node3" class="node">
<title>Node3</title>
<polygon fill="none" stroke="#bfbfbf" points="166.5,-182.5 166.5,-239.5 227.5,-239.5 227.5,-182.5 166.5,-182.5"/>
<text text-anchor="middle" x="197" y="-227.5" font-family="Helvetica,sans-Serif" font-size="10.00" fill="#000000">unsigned</text>
<polyline fill="none" stroke="#bfbfbf" points="166.5,-220.5 227.5,-220.5 "/>
<text text-anchor="middle" x="197" y="-208.5" font-family="Helvetica,sans-Serif" font-size="10.00" fill="#000000"> </text>
<polyline fill="none" stroke="#bfbfbf" points="166.5,-201.5 227.5,-201.5 "/>
<text text-anchor="middle" x="197" y="-189.5" font-family="Helvetica,sans-Serif" font-size="10.00" fill="#000000"> </text>
</g>
<!-- Node3&#45;&gt;Node1 -->
<g id="edge2" class="edge">
<title>Node3&#45;&gt;Node1</title>
<path fill="none" stroke="#404040" d="M196.7464,-182.3014C195.501,-154.0456 190.854,-110.2675 175,-76 173.7009,-73.1921 172.186,-70.4196 170.5204,-67.7104"/>
<polygon fill="none" stroke="#404040" points="170.3552,-67.4735 163.6412,-64.8423 163.4878,-57.6328 170.2018,-60.264 170.3552,-67.4735"/>
<text text-anchor="middle" x="217.5" y="-156" font-family="Helvetica,sans-Serif" font-size="10.00" fill="#000000"> +pid0</text>
<text text-anchor="middle" x="217.5" y="-145" font-family="Helvetica,sans-Serif" font-size="10.00" fill="#000000">+col</text>
<text text-anchor="middle" x="217.5" y="-134" font-family="Helvetica,sans-Serif" font-size="10.00" fill="#000000">+pid1</text>
<text text-anchor="middle" x="217.5" y="-123" font-family="Helvetica,sans-Serif" font-size="10.00" fill="#000000">+padrow</text>
<text text-anchor="middle" x="217.5" y="-112" font-family="Helvetica,sans-Serif" font-size="10.00" fill="#000000">+pid2</text>
<text text-anchor="middle" x="217.5" y="-101" font-family="Helvetica,sans-Serif" font-size="10.00" fill="#000000">+onea</text>
<text text-anchor="middle" x="217.5" y="-90" font-family="Helvetica,sans-Serif" font-size="10.00" fill="#000000">+word</text>
<text text-anchor="middle" x="217.5" y="-79" font-family="Helvetica,sans-Serif" font-size="10.00" fill="#000000">+oneb</text>
</g>
</g>
</svg>
