<?xml version="1.0" encoding="UTF-8" standalone="no"?>
<!DOCTYPE svg PUBLIC "-//W3C//DTD SVG 1.1//EN"
 "http://www.w3.org/Graphics/SVG/1.1/DTD/svg11.dtd">
<!-- Generated by graphviz version 2.40.1 (20161225.0304)
 -->
<!-- Title: o2::zdc::OrbitRawData Pages: 1 -->
<!--zoomable 672 -->
<svg id="main" version="1.1" xmlns="http://www.w3.org/2000/svg" xmlns:xlink="http://www.w3.org/1999/xlink" xml:space="preserve" onload="init(evt)">
<style type="text/css"><![CDATA[
.edge:hover path { stroke: red; }
.edge:hover polygon { stroke: red; fill: red; }
]]></style>
<script type="text/javascript"><![CDATA[
var edges = document.getElementsByTagName('g');
if (edges && edges.length) {
  for (var i=0;i<edges.length;i++) {
    if (edges[i].id.substr(0,4)=='edge') {
      edges[i].setAttribute('class','edge');
    }
  }
}
]]></script>
        <defs>
                <circle id="rim" cx="0" cy="0" r="7"/>
                <circle id="rim2" cx="0" cy="0" r="3.5"/>
                <g id="zoomPlus">
                        <use xlink:href="#rim" fill="#404040">
                                <set attributeName="fill" to="#808080" begin="zoomplus.mouseover" end="zoomplus.mouseout"/>
                        </use>
                        <path d="M-4,0h8M0,-4v8" fill="none" stroke="white" stroke-width="1.5" pointer-events="none"/>
                </g>
                <g id="zoomMin">
                        <use xlink:href="#rim" fill="#404040">
                                <set attributeName="fill" to="#808080" begin="zoomminus.mouseover" end="zoomminus.mouseout"/>
                        </use>
                        <path d="M-4,0h8" fill="none" stroke="white" stroke-width="1.5" pointer-events="none"/>
                </g>
                <g id="dirArrow">
                        <path fill="none" stroke="white" stroke-width="1.5" d="M0,-3.0v7 M-2.5,-0.5L0,-3.0L2.5,-0.5"/>
                </g>
               <g id="resetDef">
                       <use xlink:href="#rim2" fill="#404040">
                               <set attributeName="fill" to="#808080" begin="reset.mouseover" end="reset.mouseout"/>
                       </use>
               </g>
        </defs>

<script type="text/javascript">
var viewWidth = 618;
var viewHeight = 672;
var sectionId = 'dynsection-0';
</script>
<script xlink:href="../../svgpan.js"/>
<svg id="graph" class="graph">
<g id="viewport">
<title>o2::zdc::OrbitRawData</title>
<!-- Node1 -->
<g id="node1" class="node">
<title>Node1</title>
<polygon fill="#bfbfbf" stroke="#000000" points="295,-.5 295,-79.5 420,-79.5 420,-.5 295,-.5"/>
<text text-anchor="middle" x="357.5" y="-67.5" font-family="Helvetica,sans-Serif" font-size="10.00" fill="#000000">o2::zdc::OrbitRawData</text>
<polyline fill="none" stroke="#000000" points="295,-60.5 420,-60.5 "/>
<text text-anchor="middle" x="357.5" y="-48.5" font-family="Helvetica,sans-Serif" font-size="10.00" fill="#000000"> </text>
<polyline fill="none" stroke="#000000" points="295,-41.5 420,-41.5 "/>
<text text-anchor="start" x="303" y="-29.5" font-family="Helvetica,sans-Serif" font-size="10.00" fill="#000000">+ getPedestal()</text>
<text text-anchor="start" x="303" y="-18.5" font-family="Helvetica,sans-Serif" font-size="10.00" fill="#000000">+ print()</text>
<text text-anchor="start" x="303" y="-7.5" font-family="Helvetica,sans-Serif" font-size="10.00" fill="#000000">+ ClassDefNV()</text>
</g>
<!-- Node2 -->
<g id="node2" class="node">
<title>Node2</title>
<polygon fill="none" stroke="#bfbfbf" points="27.5,-303.5 27.5,-371.5 179.5,-371.5 179.5,-303.5 27.5,-303.5"/>
<text text-anchor="start" x="35.5" y="-359.5" font-family="Helvetica,sans-Serif" font-size="10.00" fill="#000000">array&lt; uint16_t, MaxTrigger</text>
<text text-anchor="middle" x="103.5" y="-348.5" font-family="Helvetica,sans-Serif" font-size="10.00" fill="#000000">Channels &gt;</text>
<polyline fill="none" stroke="#bfbfbf" points="27.5,-341.5 179.5,-341.5 "/>
<text text-anchor="middle" x="103.5" y="-329.5" font-family="Helvetica,sans-Serif" font-size="10.00" fill="#000000"> </text>
<polyline fill="none" stroke="#bfbfbf" points="27.5,-322.5 179.5,-322.5 "/>
<text text-anchor="middle" x="103.5" y="-310.5" font-family="Helvetica,sans-Serif" font-size="10.00" fill="#000000"> </text>
</g>
<!-- Node2&#45;&gt;Node1 -->
<g id="edge1" class="edge">
<title>Node2&#45;&gt;Node1</title>
<path fill="none" stroke="#404040" d="M109.5999,-303.305C119.2339,-258.0656 141.8821,-178.0981 188.5,-127 214.0656,-98.9774 250.7452,-78.5796 283.4037,-64.6089"/>
<polygon fill="none" stroke="#404040" points="283.6661,-64.5009 287.692,-58.5182 294.7629,-59.9334 290.737,-65.9161 283.6661,-64.5009"/>
<text text-anchor="middle" x="248.5" y="-101" font-family="Helvetica,sans-Serif" font-size="10.00" fill="#000000"> +scalersFE</text>
</g>
<!-- Node3 -->
<g id="node3" class="node">
<title>Node3</title>
<g id="a_node3"><a xlink:href="../../d1/d21/structo2_1_1InteractionRecord.html" target="_top" xlink:title="{o2::InteractionRecord\n||+ InteractionRecord()\l+ InteractionRecord()\l+ InteractionRecord()\l+ InteractionRecord()\l+ clear()\l+ isDummy()\l+ setFromNS()\l+ bc2ns()\l+ operator==()\l+ operator!=()\l+ differenceInBC()\l+ toLong()\l+ setFromLong()\l+ operator\&gt;()\l+ operator\&gt;=()\l+ operator\&lt;()\l+ operator\&lt;=()\l+ operator&#45;&#45;()\l+ operator&#45;&#45;()\l+ operator++()\l+ operator++()\l+ operator+=()\l+ operator&#45;=()\l+ operator+=()\l+ operator&#45;=()\l+ operator+()\l+ operator&#45;()\l+ operator+()\l+ operator&#45;()\l+ print()\l+ asString()\l+ ClassDefNV()\l+ bc2ns()\l+ ns2bc()\l}">
<polygon fill="none" stroke="#000000" points="198,-127.5 198,-547.5 319,-547.5 319,-127.5 198,-127.5"/>
<text text-anchor="middle" x="258.5" y="-535.5" font-family="Helvetica,sans-Serif" font-size="10.00" fill="#000000">o2::InteractionRecord</text>
<polyline fill="none" stroke="#000000" points="198,-528.5 319,-528.5 "/>
<text text-anchor="middle" x="258.5" y="-516.5" font-family="Helvetica,sans-Serif" font-size="10.00" fill="#000000"> </text>
<polyline fill="none" stroke="#000000" points="198,-509.5 319,-509.5 "/>
<text text-anchor="start" x="206" y="-497.5" font-family="Helvetica,sans-Serif" font-size="10.00" fill="#000000">+ InteractionRecord()</text>
<text text-anchor="start" x="206" y="-486.5" font-family="Helvetica,sans-Serif" font-size="10.00" fill="#000000">+ InteractionRecord()</text>
<text text-anchor="start" x="206" y="-475.5" font-family="Helvetica,sans-Serif" font-size="10.00" fill="#000000">+ InteractionRecord()</text>
<text text-anchor="start" x="206" y="-464.5" font-family="Helvetica,sans-Serif" font-size="10.00" fill="#000000">+ InteractionRecord()</text>
<text text-anchor="start" x="206" y="-453.5" font-family="Helvetica,sans-Serif" font-size="10.00" fill="#000000">+ clear()</text>
<text text-anchor="start" x="206" y="-442.5" font-family="Helvetica,sans-Serif" font-size="10.00" fill="#000000">+ isDummy()</text>
<text text-anchor="start" x="206" y="-431.5" font-family="Helvetica,sans-Serif" font-size="10.00" fill="#000000">+ setFromNS()</text>
<text text-anchor="start" x="206" y="-420.5" font-family="Helvetica,sans-Serif" font-size="10.00" fill="#000000">+ bc2ns()</text>
<text text-anchor="start" x="206" y="-409.5" font-family="Helvetica,sans-Serif" font-size="10.00" fill="#000000">+ operator==()</text>
<text text-anchor="start" x="206" y="-398.5" font-family="Helvetica,sans-Serif" font-size="10.00" fill="#000000">+ operator!=()</text>
<text text-anchor="start" x="206" y="-387.5" font-family="Helvetica,sans-Serif" font-size="10.00" fill="#000000">+ differenceInBC()</text>
<text text-anchor="start" x="206" y="-376.5" font-family="Helvetica,sans-Serif" font-size="10.00" fill="#000000">+ toLong()</text>
<text text-anchor="start" x="206" y="-365.5" font-family="Helvetica,sans-Serif" font-size="10.00" fill="#000000">+ setFromLong()</text>
<text text-anchor="start" x="206" y="-354.5" font-family="Helvetica,sans-Serif" font-size="10.00" fill="#000000">+ operator&gt;()</text>
<text text-anchor="start" x="206" y="-343.5" font-family="Helvetica,sans-Serif" font-size="10.00" fill="#000000">+ operator&gt;=()</text>
<text text-anchor="start" x="206" y="-332.5" font-family="Helvetica,sans-Serif" font-size="10.00" fill="#000000">+ operator&lt;()</text>
<text text-anchor="start" x="206" y="-321.5" font-family="Helvetica,sans-Serif" font-size="10.00" fill="#000000">+ operator&lt;=()</text>
<text text-anchor="start" x="206" y="-310.5" font-family="Helvetica,sans-Serif" font-size="10.00" fill="#000000">+ operator&#45;&#45;()</text>
<text text-anchor="start" x="206" y="-299.5" font-family="Helvetica,sans-Serif" font-size="10.00" fill="#000000">+ operator&#45;&#45;()</text>
<text text-anchor="start" x="206" y="-288.5" font-family="Helvetica,sans-Serif" font-size="10.00" fill="#000000">+ operator++()</text>
<text text-anchor="start" x="206" y="-277.5" font-family="Helvetica,sans-Serif" font-size="10.00" fill="#000000">+ operator++()</text>
<text text-anchor="start" x="206" y="-266.5" font-family="Helvetica,sans-Serif" font-size="10.00" fill="#000000">+ operator+=()</text>
<text text-anchor="start" x="206" y="-255.5" font-family="Helvetica,sans-Serif" font-size="10.00" fill="#000000">+ operator&#45;=()</text>
<text text-anchor="start" x="206" y="-244.5" font-family="Helvetica,sans-Serif" font-size="10.00" fill="#000000">+ operator+=()</text>
<text text-anchor="start" x="206" y="-233.5" font-family="Helvetica,sans-Serif" font-size="10.00" fill="#000000">+ operator&#45;=()</text>
<text text-anchor="start" x="206" y="-222.5" font-family="Helvetica,sans-Serif" font-size="10.00" fill="#000000">+ operator+()</text>
<text text-anchor="start" x="206" y="-211.5" font-family="Helvetica,sans-Serif" font-size="10.00" fill="#000000">+ operator&#45;()</text>
<text text-anchor="start" x="206" y="-200.5" font-family="Helvetica,sans-Serif" font-size="10.00" fill="#000000">+ operator+()</text>
<text text-anchor="start" x="206" y="-189.5" font-family="Helvetica,sans-Serif" font-size="10.00" fill="#000000">+ operator&#45;()</text>
<text text-anchor="start" x="206" y="-178.5" font-family="Helvetica,sans-Serif" font-size="10.00" fill="#000000">+ print()</text>
<text text-anchor="start" x="206" y="-167.5" font-family="Helvetica,sans-Serif" font-size="10.00" fill="#000000">+ asString()</text>
<text text-anchor="start" x="206" y="-156.5" font-family="Helvetica,sans-Serif" font-size="10.00" fill="#000000">+ ClassDefNV()</text>
<text text-anchor="start" x="206" y="-145.5" font-family="Helvetica,sans-Serif" font-size="10.00" fill="#000000">+ bc2ns()</text>
<text text-anchor="start" x="206" y="-134.5" font-family="Helvetica,sans-Serif" font-size="10.00" fill="#000000">+ ns2bc()</text>
</a>
</g>
</g>
<!-- Node3&#45;&gt;Node1 -->
<g id="edge2" class="edge">
<title>Node3&#45;&gt;Node1</title>
<path fill="none" stroke="#404040" d="M319.0823,-155.4471C326.8904,-131.9834 334.3107,-109.6851 340.5108,-91.0533"/>
<polygon fill="none" stroke="#404040" points="340.5141,-91.0432 338.6133,-84.0871 344.3032,-79.6571 346.204,-86.6131 340.5141,-91.0432"/>
<text text-anchor="middle" x="346" y="-101" font-family="Helvetica,sans-Serif" font-size="10.00" fill="#000000"> +ir</text>
</g>
<!-- Node4 -->
<g id="node4" class="node">
<title>Node4</title>
<polygon fill="none" stroke="#bfbfbf" points="107.5,-606.5 107.5,-663.5 157.5,-663.5 157.5,-606.5 107.5,-606.5"/>
<text text-anchor="middle" x="132.5" y="-651.5" font-family="Helvetica,sans-Serif" font-size="10.00" fill="#000000">double</text>
<polyline fill="none" stroke="#bfbfbf" points="107.5,-644.5 157.5,-644.5 "/>
<text text-anchor="middle" x="132.5" y="-632.5" font-family="Helvetica,sans-Serif" font-size="10.00" fill="#000000"> </text>
<polyline fill="none" stroke="#bfbfbf" points="107.5,-625.5 157.5,-625.5 "/>
<text text-anchor="middle" x="132.5" y="-613.5" font-family="Helvetica,sans-Serif" font-size="10.00" fill="#000000"> </text>
</g>
<!-- Node4&#45;&gt;Node3 -->
<g id="edge3" class="edge">
<title>Node4&#45;&gt;Node3</title>
<path fill="none" stroke="#404040" d="M140.9737,-606.1677C145.8206,-592.9734 152.8819,-577.7085 162.5,-566 171.4212,-555.1398 180.0713,-559.2467 188.5,-548 189.3084,-546.9214 190.1077,-545.8329 190.8982,-544.735"/>
<polygon fill="none" stroke="#404040" points="191.0307,-544.5398 191.0935,-537.329 197.7738,-534.6135 197.711,-541.8243 191.0307,-544.5398"/>
<text text-anchor="middle" x="200.5" y="-574.5" font-family="Helvetica,sans-Serif" font-size="10.00" fill="#000000"> +DummyTime</text>
</g>
<!-- Node5 -->
<g id="node5" class="node">
<title>Node5</title>
<g id="a_node5"><a xlink:href="../../d2/d5f/classunsigned_01int.html" target="_top" xlink:title="{unsigned int\n||}">
<polygon fill="none" stroke="#000000" points="0,-606.5 0,-663.5 77,-663.5 77,-606.5 0,-606.5"/>
<text text-anchor="middle" x="38.5" y="-651.5" font-family="Helvetica,sans-Serif" font-size="10.00" fill="#000000">unsigned int</text>
<polyline fill="none" stroke="#000000" points="0,-644.5 77,-644.5 "/>
<text text-anchor="middle" x="38.5" y="-632.5" font-family="Helvetica,sans-Serif" font-size="10.00" fill="#000000"> </text>
<polyline fill="none" stroke="#000000" points="0,-625.5 77,-625.5 "/>
<text text-anchor="middle" x="38.5" y="-613.5" font-family="Helvetica,sans-Serif" font-size="10.00" fill="#000000"> </text>
</a>
</g>
</g>
<!-- Node5&#45;&gt;Node3 -->
<g id="edge4" class="edge">
<title>Node5&#45;&gt;Node3</title>
<path fill="none" stroke="#404040" d="M44.9194,-606.3754C49.6165,-592.0607 57.5111,-575.7511 70.5,-566 112.9262,-534.1497 147.9437,-582.1995 188.5,-548 188.6012,-547.9147 188.7023,-547.8292 188.8032,-547.7435"/>
<polygon fill="none" stroke="#404040" points="189.0057,-547.5544 190.6603,-540.5356 197.7755,-539.3634 196.1209,-546.3821 189.0057,-547.5544"/>
<text text-anchor="middle" x="108" y="-574.5" font-family="Helvetica,sans-Serif" font-size="10.00" fill="#000000"> +DummyOrbit</text>
</g>
<!-- Node6 -->
<g id="node6" class="node">
<title>Node6</title>
<polygon fill="none" stroke="#bfbfbf" points="339,-606.5 339,-663.5 400,-663.5 400,-606.5 339,-606.5"/>
<text text-anchor="middle" x="369.5" y="-651.5" font-family="Helvetica,sans-Serif" font-size="10.00" fill="#000000">unsigned</text>
<polyline fill="none" stroke="#bfbfbf" points="339,-644.5 400,-644.5 "/>
<text text-anchor="middle" x="369.5" y="-632.5" font-family="Helvetica,sans-Serif" font-size="10.00" fill="#000000"> </text>
<polyline fill="none" stroke="#bfbfbf" points="339,-625.5 400,-625.5 "/>
<text text-anchor="middle" x="369.5" y="-613.5" font-family="Helvetica,sans-Serif" font-size="10.00" fill="#000000"> </text>
</g>
<!-- Node6&#45;&gt;Node1 -->
<g id="edge8" class="edge">
<title>Node6&#45;&gt;Node1</title>
<path fill="none" stroke="#404040" d="M369.1279,-606.4705C368.0482,-526.3316 364.6601,-292.348 359.5,-98 359.4458,-95.9573 359.3876,-93.8742 359.3264,-91.77"/>
<polygon fill="none" stroke="#404040" points="359.3217,-91.6152 355.1377,-85.742 358.95,-79.621 363.1339,-85.4942 359.3217,-91.6152"/>
<text text-anchor="middle" x="398.5" y="-335" font-family="Helvetica,sans-Serif" font-size="10.00" fill="#000000"> +nSamples</text>
</g>
<!-- Node6&#45;&gt;Node3 -->
<g id="edge5" class="edge">
<title>Node6&#45;&gt;Node3</title>
<path fill="none" stroke="#404040" d="M341.8168,-606.3268C337.2346,-600.5689 332.8827,-594.332 329.5,-588 324.5092,-578.6578 319.8372,-568.9272 315.4674,-558.9575"/>
<polygon fill="none" stroke="#404040" points="315.3406,-558.6579 309.3176,-554.6926 310.6613,-547.6078 316.6843,-551.5731 315.3406,-558.6579"/>
<text text-anchor="middle" x="345" y="-580" font-family="Helvetica,sans-Serif" font-size="10.00" fill="#000000"> +bc</text>
<text text-anchor="middle" x="345" y="-569" font-family="Helvetica,sans-Serif" font-size="10.00" fill="#000000">+orbit</text>
</g>
<!-- Node7 -->
<g id="node7" class="node">
<title>Node7</title>
<polygon fill="none" stroke="#bfbfbf" points="176,-606.5 176,-663.5 313,-663.5 313,-606.5 176,-606.5"/>
<text text-anchor="middle" x="244.5" y="-651.5" font-family="Helvetica,sans-Serif" font-size="10.00" fill="#000000">static constexpr uint16_t</text>
<polyline fill="none" stroke="#bfbfbf" points="176,-644.5 313,-644.5 "/>
<text text-anchor="middle" x="244.5" y="-632.5" font-family="Helvetica,sans-Serif" font-size="10.00" fill="#000000"> </text>
<polyline fill="none" stroke="#bfbfbf" points="176,-625.5 313,-625.5 "/>
<text text-anchor="middle" x="244.5" y="-613.5" font-family="Helvetica,sans-Serif" font-size="10.00" fill="#000000"> </text>
</g>
<!-- Node7&#45;&gt;Node3 -->
<g id="edge6" class="edge">
<title>Node7&#45;&gt;Node3</title>
<path fill="none" stroke="#404040" d="M242.8545,-606.4625C242.3494,-594.0322 242.0351,-579.2943 242.5,-566 242.5729,-563.9166 242.6494,-561.8227 242.7296,-559.7196"/>
<polygon fill="none" stroke="#404040" points="242.7354,-559.5733 238.984,-553.4149 243.2259,-547.5834 246.9773,-553.7418 242.7354,-559.5733"/>
<text text-anchor="middle" x="274.5" y="-574.5" font-family="Helvetica,sans-Serif" font-size="10.00" fill="#000000"> +DummyBC</text>
</g>
<!-- Node8 -->
<g id="node8" class="node">
<title>Node8</title>
<polygon fill="none" stroke="#bfbfbf" points="453,-309 453,-366 610,-366 610,-309 453,-309"/>
<text text-anchor="middle" x="531.5" y="-354" font-family="Helvetica,sans-Serif" font-size="10.00" fill="#000000">array&lt; int32_t, NChannels &gt;</text>
<polyline fill="none" stroke="#bfbfbf" points="453,-347 610,-347 "/>
<text text-anchor="middle" x="531.5" y="-335" font-family="Helvetica,sans-Serif" font-size="10.00" fill="#000000"> </text>
<polyline fill="none" stroke="#bfbfbf" points="453,-328 610,-328 "/>
<text text-anchor="middle" x="531.5" y="-316" font-family="Helvetica,sans-Serif" font-size="10.00" fill="#000000"> </text>
</g>
<!-- Node8&#45;&gt;Node1 -->
<g id="edge7" class="edge">
<title>Node8&#45;&gt;Node1</title>
<path fill="none" stroke="#404040" d="M522.243,-308.7336C507.9802,-266.7176 478.0831,-187.0415 438.5,-127 429.7199,-113.6819 418.8573,-100.4748 407.9703,-88.5257"/>
<polygon fill="none" stroke="#404040" points="407.8696,-88.4181 400.8501,-86.767 399.6742,-79.6524 406.6938,-81.3034 407.8696,-88.4181"/>
<text text-anchor="middle" x="454" y="-101" font-family="Helvetica,sans-Serif" font-size="10.00" fill="#000000"> +pedestals</text>
</g>
</g>
</svg>
        <g id="navigator" transform="translate(0 0)" fill="#404254">
                <rect fill="#f2f5e9" fill-opacity="0.5" stroke="#606060" stroke-width=".5" x="0" y="0" width="60" height="60"/>
                <use id="zoomplus" xlink:href="#zoomPlus" x="17" y="9" onmousedown="handleZoom(evt,'in')"/>
                <use id="zoomminus" xlink:href="#zoomMin" x="42" y="9" onmousedown="handleZoom(evt,'out')"/>
                <use id="reset" xlink:href="#resetDef" x="30" y="36" onmousedown="handleReset()"/>
                <g id="arrowUp" xlink:href="#dirArrow" transform="translate(30 24)" onmousedown="handlePan(0,-1)">
                  <use xlink:href="#rim" fill="#404040">
                        <set attributeName="fill" to="#808080" begin="arrowUp.mouseover" end="arrowUp.mouseout"/>
                  </use>
                  <path fill="none" stroke="white" stroke-width="1.5" d="M0,-3.0v7 M-2.5,-0.5L0,-3.0L2.5,-0.5"/>
                </g>
                <g id="arrowRight" xlink:href="#dirArrow" transform="rotate(90) translate(36 -43)" onmousedown="handlePan(1,0)">
                  <use xlink:href="#rim" fill="#404040">
                        <set attributeName="fill" to="#808080" begin="arrowRight.mouseover" end="arrowRight.mouseout"/>
                  </use>
                  <path fill="none" stroke="white" stroke-width="1.5" d="M0,-3.0v7 M-2.5,-0.5L0,-3.0L2.5,-0.5"/>
                </g>
                <g id="arrowDown" xlink:href="#dirArrow" transform="rotate(180) translate(-30 -48)" onmousedown="handlePan(0,1)">
                  <use xlink:href="#rim" fill="#404040">
                        <set attributeName="fill" to="#808080" begin="arrowDown.mouseover" end="arrowDown.mouseout"/>
                  </use>
                  <path fill="none" stroke="white" stroke-width="1.5" d="M0,-3.0v7 M-2.5,-0.5L0,-3.0L2.5,-0.5"/>
                </g>
                <g id="arrowLeft" xlink:href="#dirArrow" transform="rotate(270) translate(-36 17)" onmousedown="handlePan(-1,0)">
                  <use xlink:href="#rim" fill="#404040">
                        <set attributeName="fill" to="#808080" begin="arrowLeft.mouseover" end="arrowLeft.mouseout"/>
                  </use>
                  <path fill="none" stroke="white" stroke-width="1.5" d="M0,-3.0v7 M-2.5,-0.5L0,-3.0L2.5,-0.5"/>
                </g>
        </g>
        <svg viewBox="0 0 15 15" width="100%" height="30px" preserveAspectRatio="xMaxYMin meet">
         <g id="arrow_out" transform="scale(0.3 0.3)">
          <a xlink:href="structo2_1_1zdc_1_1OrbitRawData__coll__graph_org.svg" target="_base">
           <rect id="button" ry="5" rx="5" y="6" x="6" height="38" width="38"
                fill="#f2f5e9" fill-opacity="0.5" stroke="#606060" stroke-width="1.0"/>
           <path id="arrow"
             d="M 11.500037,31.436501 C 11.940474,20.09759 22.043105,11.32322 32.158766,21.979434 L 37.068811,17.246167 C 37.068811,17.246167 37.088388,32 37.088388,32 L 22.160133,31.978069 C 22.160133,31.978069 26.997745,27.140456 26.997745,27.140456 C 18.528582,18.264221 13.291696,25.230495 11.500037,31.436501 z"
             style="fill:#404040;"/>
          </a>
         </g>
        </svg>
</svg>
