<?xml version="1.0" encoding="UTF-8" standalone="no"?>
<!DOCTYPE svg PUBLIC "-//W3C//DTD SVG 1.1//EN"
 "http://www.w3.org/Graphics/SVG/1.1/DTD/svg11.dtd">
<!-- Generated by graphviz version 2.40.1 (20161225.0304)
 -->
<!-- Title: o2::tof::compressed::Decoder::DigitInfo Pages: 1 -->
<svg width="130pt" height="204pt"
 viewBox="0.00 0.00 130.00 204.00" xmlns="http://www.w3.org/2000/svg" xmlns:xlink="http://www.w3.org/1999/xlink">
<g id="graph0" class="graph" transform="scale(1 1) rotate(0) translate(4 200)">
<title>o2::tof::compressed::Decoder::DigitInfo</title>
<!-- Node1 -->
<g id="node1" class="node">
<title>Node1</title>
<polygon fill="#bfbfbf" stroke="#000000" points="0,-.5 0,-68.5 113,-68.5 113,-.5 0,-.5"/>
<text text-anchor="start" x="8" y="-56.5" font-family="Helvetica,sans-Serif" font-size="10.00" fill="#000000">o2::tof::compressed</text>
<text text-anchor="middle" x="56.5" y="-45.5" font-family="Helvetica,sans-Serif" font-size="10.00" fill="#000000">::Decoder::DigitInfo</text>
<polyline fill="none" stroke="#000000" points="0,-38.5 113,-38.5 "/>
<text text-anchor="middle" x="56.5" y="-26.5" font-family="Helvetica,sans-Serif" font-size="10.00" fill="#000000"> </text>
<polyline fill="none" stroke="#000000" points="0,-19.5 113,-19.5 "/>
<text text-anchor="middle" x="56.5" y="-7.5" font-family="Helvetica,sans-Serif" font-size="10.00" fill="#000000"> </text>
</g>
<!-- Node2 -->
<g id="node2" class="node">
<title>Node2</title>
<polygon fill="none" stroke="#bfbfbf" points="7,-138.5 7,-195.5 36,-195.5 36,-138.5 7,-138.5"/>
<text text-anchor="middle" x="21.5" y="-183.5" font-family="Helvetica,sans-Serif" font-size="10.00" fill="#000000">int</text>
<polyline fill="none" stroke="#bfbfbf" points="7,-176.5 36,-176.5 "/>
<text text-anchor="middle" x="21.5" y="-164.5" font-family="Helvetica,sans-Serif" font-size="10.00" fill="#000000"> </text>
<polyline fill="none" stroke="#bfbfbf" points="7,-157.5 36,-157.5 "/>
<text text-anchor="middle" x="21.5" y="-145.5" font-family="Helvetica,sans-Serif" font-size="10.00" fill="#000000"> </text>
</g>
<!-- Node2&#45;&gt;Node1 -->
<g id="edge1" class="edge">
<title>Node2&#45;&gt;Node1</title>
<path fill="none" stroke="#404040" d="M18.0478,-138.2754C17.1251,-122.7713 17.5155,-103.4865 22.5,-87 23.2365,-84.5638 24.1232,-82.1337 25.1263,-79.7289"/>
<polygon fill="none" stroke="#404040" points="25.2403,-79.4974 24.3036,-72.3474 30.5434,-68.7327 31.4801,-75.8828 25.2403,-79.4974"/>
<text text-anchor="middle" x="46" y="-112" font-family="Helvetica,sans-Serif" font-size="10.00" fill="#000000"> +tdc</text>
<text text-anchor="middle" x="46" y="-101" font-family="Helvetica,sans-Serif" font-size="10.00" fill="#000000">+channel</text>
<text text-anchor="middle" x="46" y="-90" font-family="Helvetica,sans-Serif" font-size="10.00" fill="#000000">+tot</text>
</g>
<!-- Node3 -->
<g id="node3" class="node">
<title>Node3</title>
<polygon fill="none" stroke="#bfbfbf" points="61,-138.5 61,-195.5 122,-195.5 122,-138.5 61,-138.5"/>
<text text-anchor="middle" x="91.5" y="-183.5" font-family="Helvetica,sans-Serif" font-size="10.00" fill="#000000">unsigned</text>
<polyline fill="none" stroke="#bfbfbf" points="61,-176.5 122,-176.5 "/>
<text text-anchor="middle" x="91.5" y="-164.5" font-family="Helvetica,sans-Serif" font-size="10.00" fill="#000000"> </text>
<polyline fill="none" stroke="#bfbfbf" points="61,-157.5 122,-157.5 "/>
<text text-anchor="middle" x="91.5" y="-145.5" font-family="Helvetica,sans-Serif" font-size="10.00" fill="#000000"> </text>
</g>
<!-- Node3&#45;&gt;Node1 -->
<g id="edge2" class="edge">
<title>Node3&#45;&gt;Node1</title>
<path fill="none" stroke="#404040" d="M83.9055,-138.2495C79.4645,-121.4371 73.7545,-99.8205 68.697,-80.6743"/>
<polygon fill="none" stroke="#404040" points="68.6336,-80.4341 63.2339,-75.6547 65.5689,-68.8321 70.9686,-73.6115 68.6336,-80.4341"/>
<text text-anchor="middle" x="98" y="-112" font-family="Helvetica,sans-Serif" font-size="10.00" fill="#000000"> +bcAbs</text>
<text text-anchor="middle" x="98" y="-101" font-family="Helvetica,sans-Serif" font-size="10.00" fill="#000000">+bc</text>
<text text-anchor="middle" x="98" y="-90" font-family="Helvetica,sans-Serif" font-size="10.00" fill="#000000">+orbit</text>
</g>
</g>
</svg>
