<?xml version="1.0" encoding="UTF-8" standalone="no"?>
<!DOCTYPE svg PUBLIC "-//W3C//DTD SVG 1.1//EN"
 "http://www.w3.org/Graphics/SVG/1.1/DTD/svg11.dtd">
<!-- Generated by graphviz version 2.40.1 (20161225.0304)
 -->
<!-- Title: o2::trd::TrackletMCMData Pages: 1 -->
<svg width="249pt" height="215pt"
 viewBox="0.00 0.00 249.00 215.00" xmlns="http://www.w3.org/2000/svg" xmlns:xlink="http://www.w3.org/1999/xlink">
<g id="graph0" class="graph" transform="scale(1 1) rotate(0) translate(4 211)">
<title>o2::trd::TrackletMCMData</title>
<!-- Node1 -->
<g id="node1" class="node">
<title>Node1</title>
<polygon fill="#bfbfbf" stroke="#000000" points="65.5,-.5 65.5,-57.5 204.5,-57.5 204.5,-.5 65.5,-.5"/>
<text text-anchor="middle" x="135" y="-45.5" font-family="Helvetica,sans-Serif" font-size="10.00" fill="#000000">o2::trd::TrackletMCMData</text>
<polyline fill="none" stroke="#000000" points="65.5,-38.5 204.5,-38.5 "/>
<text text-anchor="middle" x="135" y="-26.5" font-family="Helvetica,sans-Serif" font-size="10.00" fill="#000000"> </text>
<polyline fill="none" stroke="#000000" points="65.5,-19.5 204.5,-19.5 "/>
<text text-anchor="middle" x="135" y="-7.5" font-family="Helvetica,sans-Serif" font-size="10.00" fill="#000000"> </text>
</g>
<!-- Node2 -->
<g id="node2" class="node">
<title>Node2</title>
<polygon fill="none" stroke="#bfbfbf" points="0,-149.5 0,-206.5 148,-206.5 148,-149.5 0,-149.5"/>
<text text-anchor="middle" x="74" y="-194.5" font-family="Helvetica,sans-Serif" font-size="10.00" fill="#000000">anonymous:+__attribute__</text>
<polyline fill="none" stroke="#bfbfbf" points="0,-187.5 148,-187.5 "/>
<text text-anchor="middle" x="74" y="-175.5" font-family="Helvetica,sans-Serif" font-size="10.00" fill="#000000"> </text>
<polyline fill="none" stroke="#bfbfbf" points="0,-168.5 148,-168.5 "/>
<text text-anchor="middle" x="74" y="-156.5" font-family="Helvetica,sans-Serif" font-size="10.00" fill="#000000"> </text>
</g>
<!-- Node2&#45;&gt;Node1 -->
<g id="edge1" class="edge">
<title>Node2&#45;&gt;Node1</title>
<path fill="none" stroke="#404040" d="M78.2326,-149.2693C82.0552,-128.2456 88.8335,-99.4245 100,-76 101.3024,-73.2679 102.7748,-70.536 104.36,-67.8413"/>
<polygon fill="none" stroke="#404040" points="104.3959,-67.7857 104.2957,-60.5753 110.913,-57.7096 111.0132,-64.92 104.3959,-67.7857"/>
<text text-anchor="middle" x="137.5" y="-101" font-family="Helvetica,sans-Serif" font-size="10.00" fill="#000000"> +__attribute__</text>
</g>
<!-- Node3 -->
<g id="node3" class="node">
<title>Node3</title>
<polygon fill="none" stroke="#bfbfbf" points="166.5,-149.5 166.5,-206.5 227.5,-206.5 227.5,-149.5 166.5,-149.5"/>
<text text-anchor="middle" x="197" y="-194.5" font-family="Helvetica,sans-Serif" font-size="10.00" fill="#000000">unsigned</text>
<polyline fill="none" stroke="#bfbfbf" points="166.5,-187.5 227.5,-187.5 "/>
<text text-anchor="middle" x="197" y="-175.5" font-family="Helvetica,sans-Serif" font-size="10.00" fill="#000000"> </text>
<polyline fill="none" stroke="#bfbfbf" points="166.5,-168.5 227.5,-168.5 "/>
<text text-anchor="middle" x="197" y="-156.5" font-family="Helvetica,sans-Serif" font-size="10.00" fill="#000000"> </text>
</g>
<!-- Node3&#45;&gt;Node1 -->
<g id="edge2" class="edge">
<title>Node3&#45;&gt;Node1</title>
<path fill="none" stroke="#404040" d="M194.5746,-149.0549C191.9148,-127.9247 186.3918,-99.0641 175,-76 173.5594,-73.0834 171.898,-70.1976 170.0883,-67.3763"/>
<polygon fill="none" stroke="#404040" points="170.0036,-67.2579 163.2579,-64.7092 163.0161,-57.5021 169.7618,-60.0509 170.0036,-67.2579"/>
<text text-anchor="middle" x="216" y="-123" font-family="Helvetica,sans-Serif" font-size="10.00" fill="#000000"> +word</text>
<text text-anchor="middle" x="216" y="-112" font-family="Helvetica,sans-Serif" font-size="10.00" fill="#000000">+pos</text>
<text text-anchor="middle" x="216" y="-101" font-family="Helvetica,sans-Serif" font-size="10.00" fill="#000000">+pid</text>
<text text-anchor="middle" x="216" y="-90" font-family="Helvetica,sans-Serif" font-size="10.00" fill="#000000">+slope</text>
<text text-anchor="middle" x="216" y="-79" font-family="Helvetica,sans-Serif" font-size="10.00" fill="#000000">+checkbit</text>
</g>
</g>
</svg>
