<?xml version="1.0" encoding="UTF-8" standalone="no"?>
<!DOCTYPE svg PUBLIC "-//W3C//DTD SVG 1.1//EN"
 "http://www.w3.org/Graphics/SVG/1.1/DTD/svg11.dtd">
<!-- Generated by graphviz version 2.40.1 (20161225.0304)
 -->
<!-- Title: o2::itsmft::ChipOnRUInfo Pages: 1 -->
<svg width="210pt" height="259pt"
 viewBox="0.00 0.00 209.50 259.00" xmlns="http://www.w3.org/2000/svg" xmlns:xlink="http://www.w3.org/1999/xlink">
<g id="graph0" class="graph" transform="scale(1 1) rotate(0) translate(4 255)">
<title>o2::itsmft::ChipOnRUInfo</title>
<!-- Node1 -->
<g id="node1" class="node">
<title>Node1</title>
<polygon fill="#bfbfbf" stroke="#000000" points="20.5,-.5 20.5,-57.5 158.5,-57.5 158.5,-.5 20.5,-.5"/>
<text text-anchor="middle" x="89.5" y="-45.5" font-family="Helvetica,sans-Serif" font-size="10.00" fill="#000000">o2::itsmft::ChipOnRUInfo</text>
<polyline fill="none" stroke="#000000" points="20.5,-38.5 158.5,-38.5 "/>
<text text-anchor="middle" x="89.5" y="-26.5" font-family="Helvetica,sans-Serif" font-size="10.00" fill="#000000"> </text>
<polyline fill="none" stroke="#000000" points="20.5,-19.5 158.5,-19.5 "/>
<text text-anchor="start" x="28.5" y="-7.5" font-family="Helvetica,sans-Serif" font-size="10.00" fill="#000000">+ print()</text>
</g>
<!-- Node2 -->
<g id="node2" class="node">
<title>Node2</title>
<polygon fill="none" stroke="#bfbfbf" points="0,-193.5 0,-250.5 61,-250.5 61,-193.5 0,-193.5"/>
<text text-anchor="middle" x="30.5" y="-238.5" font-family="Helvetica,sans-Serif" font-size="10.00" fill="#000000">unsigned</text>
<polyline fill="none" stroke="#bfbfbf" points="0,-231.5 61,-231.5 "/>
<text text-anchor="middle" x="30.5" y="-219.5" font-family="Helvetica,sans-Serif" font-size="10.00" fill="#000000"> </text>
<polyline fill="none" stroke="#bfbfbf" points="0,-212.5 61,-212.5 "/>
<text text-anchor="middle" x="30.5" y="-200.5" font-family="Helvetica,sans-Serif" font-size="10.00" fill="#000000"> </text>
</g>
<!-- Node2&#45;&gt;Node1 -->
<g id="edge1" class="edge">
<title>Node2&#45;&gt;Node1</title>
<path fill="none" stroke="#404040" d="M23.8133,-193.4997C18.1387,-162.8446 13.4814,-113.4624 31.5,-76 33.0273,-72.8246 34.8844,-69.7935 36.9839,-66.912"/>
<polygon fill="none" stroke="#404040" points="37.0927,-66.7858 37.9821,-59.6297 44.9298,-57.6984 44.0404,-64.8545 37.0927,-66.7858"/>
<text text-anchor="middle" x="79" y="-167" font-family="Helvetica,sans-Serif" font-size="10.00" fill="#000000"> +chipOnCable</text>
<text text-anchor="middle" x="79" y="-156" font-family="Helvetica,sans-Serif" font-size="10.00" fill="#000000">+id</text>
<text text-anchor="middle" x="79" y="-145" font-family="Helvetica,sans-Serif" font-size="10.00" fill="#000000">+cableHWPos</text>
<text text-anchor="middle" x="79" y="-134" font-family="Helvetica,sans-Serif" font-size="10.00" fill="#000000">+chipOnModuleHW</text>
<text text-anchor="middle" x="79" y="-123" font-family="Helvetica,sans-Serif" font-size="10.00" fill="#000000">+moduleSW</text>
<text text-anchor="middle" x="79" y="-112" font-family="Helvetica,sans-Serif" font-size="10.00" fill="#000000">+chipOnModuleSW</text>
<text text-anchor="middle" x="79" y="-101" font-family="Helvetica,sans-Serif" font-size="10.00" fill="#000000">+cableHW</text>
<text text-anchor="middle" x="79" y="-90" font-family="Helvetica,sans-Serif" font-size="10.00" fill="#000000">+moduleHW</text>
<text text-anchor="middle" x="79" y="-79" font-family="Helvetica,sans-Serif" font-size="10.00" fill="#000000">+cableSW</text>
</g>
<!-- Node3 -->
<g id="node3" class="node">
<title>Node3</title>
<polygon fill="none" stroke="#bfbfbf" points="127,-193.5 127,-250.5 170,-250.5 170,-193.5 127,-193.5"/>
<text text-anchor="middle" x="148.5" y="-238.5" font-family="Helvetica,sans-Serif" font-size="10.00" fill="#000000">const</text>
<polyline fill="none" stroke="#bfbfbf" points="127,-231.5 170,-231.5 "/>
<text text-anchor="middle" x="148.5" y="-219.5" font-family="Helvetica,sans-Serif" font-size="10.00" fill="#000000"> </text>
<polyline fill="none" stroke="#bfbfbf" points="127,-212.5 170,-212.5 "/>
<text text-anchor="middle" x="148.5" y="-200.5" font-family="Helvetica,sans-Serif" font-size="10.00" fill="#000000"> </text>
</g>
<!-- Node3&#45;&gt;Node1 -->
<g id="edge2" class="edge">
<title>Node3&#45;&gt;Node1</title>
<path fill="none" stroke="#404040" d="M148.4665,-193.3783C147.4706,-163.0528 143.0872,-114.3489 126.5,-76 125.2915,-73.2061 123.8747,-70.4358 122.3131,-67.7204"/>
<polygon fill="none" stroke="#404040" points="122.2594,-67.6379 115.6321,-64.7955 115.7068,-57.5848 122.3341,-60.4271 122.2594,-67.6379"/>
<text text-anchor="middle" x="174" y="-123" font-family="Helvetica,sans-Serif" font-size="10.00" fill="#000000"> +DUMMY8</text>
</g>
</g>
</svg>
