<?xml version="1.0" encoding="UTF-8" standalone="no"?>
<!DOCTYPE svg PUBLIC "-//W3C//DTD SVG 1.1//EN"
 "http://www.w3.org/Graphics/SVG/1.1/DTD/svg11.dtd">
<!-- Generated by graphviz version 2.40.1 (20161225.0304)
 -->
<!-- Title: CorrelationTask Pages: 1 -->
<svg width="1429pt" height="1149pt"
 viewBox="0.00 0.00 1428.50 1149.00" xmlns="http://www.w3.org/2000/svg" xmlns:xlink="http://www.w3.org/1999/xlink">
<g id="graph0" class="graph" transform="scale(1 1) rotate(0) translate(4 1145)">
<title>CorrelationTask</title>
<!-- Node1 -->
<g id="node1" class="node">
<title>Node1</title>
<polygon fill="#bfbfbf" stroke="#000000" points="507,-.5 507,-365.5 677,-365.5 677,-.5 507,-.5"/>
<text text-anchor="middle" x="592" y="-353.5" font-family="Helvetica,sans-Serif" font-size="10.00" fill="#000000">CorrelationTask</text>
<polyline fill="none" stroke="#000000" points="507,-346.5 677,-346.5 "/>
<text text-anchor="middle" x="592" y="-334.5" font-family="Helvetica,sans-Serif" font-size="10.00" fill="#000000"> </text>
<polyline fill="none" stroke="#000000" points="507,-327.5 677,-327.5 "/>
<text text-anchor="start" x="515" y="-315.5" font-family="Helvetica,sans-Serif" font-size="10.00" fill="#000000">+ init()</text>
<text text-anchor="start" x="515" y="-304.5" font-family="Helvetica,sans-Serif" font-size="10.00" fill="#000000">+ process()</text>
<text text-anchor="start" x="515" y="-293.5" font-family="Helvetica,sans-Serif" font-size="10.00" fill="#000000">+ O2_DEFINE_CONFIGURABLE()</text>
<text text-anchor="start" x="515" y="-282.5" font-family="Helvetica,sans-Serif" font-size="10.00" fill="#000000">+ O2_DEFINE_CONFIGURABLE()</text>
<text text-anchor="start" x="515" y="-271.5" font-family="Helvetica,sans-Serif" font-size="10.00" fill="#000000">+ O2_DEFINE_CONFIGURABLE()</text>
<text text-anchor="start" x="515" y="-260.5" font-family="Helvetica,sans-Serif" font-size="10.00" fill="#000000">+ O2_DEFINE_CONFIGURABLE()</text>
<text text-anchor="start" x="515" y="-249.5" font-family="Helvetica,sans-Serif" font-size="10.00" fill="#000000">+ O2_DEFINE_CONFIGURABLE()</text>
<text text-anchor="start" x="515" y="-238.5" font-family="Helvetica,sans-Serif" font-size="10.00" fill="#000000">+ init()</text>
<text text-anchor="start" x="515" y="-227.5" font-family="Helvetica,sans-Serif" font-size="10.00" fill="#000000">+ process()</text>
<text text-anchor="start" x="515" y="-216.5" font-family="Helvetica,sans-Serif" font-size="10.00" fill="#000000">+ process2()</text>
<text text-anchor="start" x="515" y="-205.5" font-family="Helvetica,sans-Serif" font-size="10.00" fill="#000000">+ conversionCuts()</text>
<text text-anchor="start" x="515" y="-194.5" font-family="Helvetica,sans-Serif" font-size="10.00" fill="#000000">+ conversionCut()</text>
<text text-anchor="start" x="515" y="-183.5" font-family="Helvetica,sans-Serif" font-size="10.00" fill="#000000">+ getInvMassSquared()</text>
<text text-anchor="start" x="515" y="-172.5" font-family="Helvetica,sans-Serif" font-size="10.00" fill="#000000">+ getInvMassSquaredFast()</text>
<text text-anchor="start" x="515" y="-161.5" font-family="Helvetica,sans-Serif" font-size="10.00" fill="#000000">+ twoTrackCut()</text>
<text text-anchor="start" x="515" y="-150.5" font-family="Helvetica,sans-Serif" font-size="10.00" fill="#000000">+ getDPhiStar()</text>
<text text-anchor="start" x="515" y="-139.5" font-family="Helvetica,sans-Serif" font-size="10.00" fill="#000000">+ O2_DEFINE_CONFIGURABLE()</text>
<text text-anchor="start" x="515" y="-128.5" font-family="Helvetica,sans-Serif" font-size="10.00" fill="#000000">+ O2_DEFINE_CONFIGURABLE()</text>
<text text-anchor="start" x="515" y="-117.5" font-family="Helvetica,sans-Serif" font-size="10.00" fill="#000000">+ O2_DEFINE_CONFIGURABLE()</text>
<text text-anchor="start" x="515" y="-106.5" font-family="Helvetica,sans-Serif" font-size="10.00" fill="#000000">+ O2_DEFINE_CONFIGURABLE()</text>
<text text-anchor="start" x="515" y="-95.5" font-family="Helvetica,sans-Serif" font-size="10.00" fill="#000000">+ O2_DEFINE_CONFIGURABLE()</text>
<text text-anchor="start" x="515" y="-84.5" font-family="Helvetica,sans-Serif" font-size="10.00" fill="#000000">+ init()</text>
<text text-anchor="start" x="515" y="-73.5" font-family="Helvetica,sans-Serif" font-size="10.00" fill="#000000">+ process()</text>
<text text-anchor="start" x="515" y="-62.5" font-family="Helvetica,sans-Serif" font-size="10.00" fill="#000000">+ conversionCuts()</text>
<text text-anchor="start" x="515" y="-51.5" font-family="Helvetica,sans-Serif" font-size="10.00" fill="#000000">+ conversionCut()</text>
<text text-anchor="start" x="515" y="-40.5" font-family="Helvetica,sans-Serif" font-size="10.00" fill="#000000">+ getInvMassSquared()</text>
<text text-anchor="start" x="515" y="-29.5" font-family="Helvetica,sans-Serif" font-size="10.00" fill="#000000">+ getInvMassSquaredFast()</text>
<text text-anchor="start" x="515" y="-18.5" font-family="Helvetica,sans-Serif" font-size="10.00" fill="#000000">+ twoTrackCut()</text>
<text text-anchor="start" x="515" y="-7.5" font-family="Helvetica,sans-Serif" font-size="10.00" fill="#000000">+ getDPhiStar()</text>
</g>
<!-- Node2 -->
<g id="node2" class="node">
<title>Node2</title>
<g id="a_node2"><a xlink:href="../../db/d2d/structCorrelationTask_1_1QA.html" target="_top" xlink:title="{CorrelationTask::QA\n||}">
<polygon fill="none" stroke="#000000" points="136.5,-479.5 136.5,-536.5 249.5,-536.5 249.5,-479.5 136.5,-479.5"/>
<text text-anchor="middle" x="193" y="-524.5" font-family="Helvetica,sans-Serif" font-size="10.00" fill="#000000">CorrelationTask::QA</text>
<polyline fill="none" stroke="#000000" points="136.5,-517.5 249.5,-517.5 "/>
<text text-anchor="middle" x="193" y="-505.5" font-family="Helvetica,sans-Serif" font-size="10.00" fill="#000000"> </text>
<polyline fill="none" stroke="#000000" points="136.5,-498.5 249.5,-498.5 "/>
<text text-anchor="middle" x="193" y="-486.5" font-family="Helvetica,sans-Serif" font-size="10.00" fill="#000000"> </text>
</a>
</g>
</g>
<!-- Node2&#45;&gt;Node1 -->
<g id="edge1" class="edge">
<title>Node2&#45;&gt;Node1</title>
<path fill="none" stroke="#404040" d="M228.0589,-479.4433C287.7203,-430.8468 410.9198,-330.4964 497.3866,-260.066"/>
<polygon fill="none" stroke="#404040" points="497.6466,-259.8543 499.7725,-252.9637 506.9507,-252.2757 504.8248,-259.1664 497.6466,-259.8543"/>
<text text-anchor="middle" x="358" y="-392.5" font-family="Helvetica,sans-Serif" font-size="10.00" fill="#000000"> +qa</text>
</g>
<!-- Node3 -->
<g id="node3" class="node">
<title>Node3</title>
<polygon fill="none" stroke="#bfbfbf" points="168,-736 168,-793 218,-793 218,-736 168,-736"/>
<text text-anchor="middle" x="193" y="-781" font-family="Helvetica,sans-Serif" font-size="10.00" fill="#000000">TH3F *</text>
<polyline fill="none" stroke="#bfbfbf" points="168,-774 218,-774 "/>
<text text-anchor="middle" x="193" y="-762" font-family="Helvetica,sans-Serif" font-size="10.00" fill="#000000"> </text>
<polyline fill="none" stroke="#bfbfbf" points="168,-755 218,-755 "/>
<text text-anchor="middle" x="193" y="-743" font-family="Helvetica,sans-Serif" font-size="10.00" fill="#000000"> </text>
</g>
<!-- Node3&#45;&gt;Node2 -->
<g id="edge2" class="edge">
<title>Node3&#45;&gt;Node2</title>
<path fill="none" stroke="#404040" d="M191.4986,-735.7964C190.5717,-716.6093 189.4723,-690.7994 189,-668 188.4661,-642.2278 188.4948,-635.7728 189,-610 189.395,-589.8452 190.2288,-567.463 191.0333,-548.8122"/>
<polygon fill="none" stroke="#404040" points="191.0446,-548.5575 187.3162,-542.3851 191.5799,-536.5695 195.3083,-542.742 191.0446,-548.5575"/>
<text text-anchor="middle" x="248" y="-636.5" font-family="Helvetica,sans-Serif" font-size="10.00" fill="#000000"> +mTwoTrackDistancePt</text>
</g>
<!-- Node4 -->
<g id="node4" class="node">
<title>Node4</title>
<polygon fill="none" stroke="#bfbfbf" points="0,-736 0,-793 50,-793 50,-736 0,-736"/>
<text text-anchor="middle" x="25" y="-781" font-family="Helvetica,sans-Serif" font-size="10.00" fill="#000000">TH2F *</text>
<polyline fill="none" stroke="#bfbfbf" points="0,-774 50,-774 "/>
<text text-anchor="middle" x="25" y="-762" font-family="Helvetica,sans-Serif" font-size="10.00" fill="#000000"> </text>
<polyline fill="none" stroke="#bfbfbf" points="0,-755 50,-755 "/>
<text text-anchor="middle" x="25" y="-743" font-family="Helvetica,sans-Serif" font-size="10.00" fill="#000000"> </text>
</g>
<!-- Node4&#45;&gt;Node2 -->
<g id="edge3" class="edge">
<title>Node4&#45;&gt;Node2</title>
<path fill="none" stroke="#404040" d="M20.8207,-735.7561C17.538,-702.9145 16.8003,-648.7216 40,-610 59.5939,-577.2968 94.2013,-552.9086 125.5512,-536.1944"/>
<polygon fill="none" stroke="#404040" points="125.7931,-536.0706 129.3106,-529.7756 136.4743,-530.6013 132.9567,-536.8963 125.7931,-536.0706"/>
<text text-anchor="middle" x="112.5" y="-636.5" font-family="Helvetica,sans-Serif" font-size="10.00" fill="#000000"> +mControlConvResoncances</text>
</g>
<!-- Node5 -->
<g id="node5" class="node">
<title>Node5</title>
<g id="a_node5"><a xlink:href="../../d4/d79/structo2_1_1framework_1_1OutputObj.html" target="_top" xlink:title="{o2::framework::OutputObj\l\&lt; CorrelationContainer \&gt;\n||+ spec()\l+ OutputObj()\l+ OutputObj()\l+ setObject()\l+ setObject()\l+ setObject()\l+ setHash()\l+ operator&#45;\&gt;()\l+ operator*()\l+ ref()\l}">
<polygon fill="none" stroke="#000000" points="731.5,-424.5 731.5,-591.5 874.5,-591.5 874.5,-424.5 731.5,-424.5"/>
<text text-anchor="start" x="739.5" y="-579.5" font-family="Helvetica,sans-Serif" font-size="10.00" fill="#000000">o2::framework::OutputObj</text>
<text text-anchor="middle" x="803" y="-568.5" font-family="Helvetica,sans-Serif" font-size="10.00" fill="#000000">&lt; CorrelationContainer &gt;</text>
<polyline fill="none" stroke="#000000" points="731.5,-561.5 874.5,-561.5 "/>
<text text-anchor="middle" x="803" y="-549.5" font-family="Helvetica,sans-Serif" font-size="10.00" fill="#000000"> </text>
<polyline fill="none" stroke="#000000" points="731.5,-542.5 874.5,-542.5 "/>
<text text-anchor="start" x="739.5" y="-530.5" font-family="Helvetica,sans-Serif" font-size="10.00" fill="#000000">+ spec()</text>
<text text-anchor="start" x="739.5" y="-519.5" font-family="Helvetica,sans-Serif" font-size="10.00" fill="#000000">+ OutputObj()</text>
<text text-anchor="start" x="739.5" y="-508.5" font-family="Helvetica,sans-Serif" font-size="10.00" fill="#000000">+ OutputObj()</text>
<text text-anchor="start" x="739.5" y="-497.5" font-family="Helvetica,sans-Serif" font-size="10.00" fill="#000000">+ setObject()</text>
<text text-anchor="start" x="739.5" y="-486.5" font-family="Helvetica,sans-Serif" font-size="10.00" fill="#000000">+ setObject()</text>
<text text-anchor="start" x="739.5" y="-475.5" font-family="Helvetica,sans-Serif" font-size="10.00" fill="#000000">+ setObject()</text>
<text text-anchor="start" x="739.5" y="-464.5" font-family="Helvetica,sans-Serif" font-size="10.00" fill="#000000">+ setHash()</text>
<text text-anchor="start" x="739.5" y="-453.5" font-family="Helvetica,sans-Serif" font-size="10.00" fill="#000000">+ operator&#45;&gt;()</text>
<text text-anchor="start" x="739.5" y="-442.5" font-family="Helvetica,sans-Serif" font-size="10.00" fill="#000000">+ operator*()</text>
<text text-anchor="start" x="739.5" y="-431.5" font-family="Helvetica,sans-Serif" font-size="10.00" fill="#000000">+ ref()</text>
</a>
</g>
</g>
<!-- Node5&#45;&gt;Node1 -->
<g id="edge4" class="edge">
<title>Node5&#45;&gt;Node1</title>
<path fill="none" stroke="#404040" d="M748.6623,-424.3044C728.8247,-393.749 705.8028,-358.2887 683.6148,-324.1128"/>
<polygon fill="none" stroke="#404040" points="683.6068,-324.1004 676.9846,-321.2461 677.0723,-314.0355 683.6945,-316.8898 683.6068,-324.1004"/>
<text text-anchor="middle" x="755" y="-398" font-family="Helvetica,sans-Serif" font-size="10.00" fill="#000000"> +same</text>
<text text-anchor="middle" x="755" y="-387" font-family="Helvetica,sans-Serif" font-size="10.00" fill="#000000">+mixed</text>
</g>
<!-- Node6 -->
<g id="node6" class="node">
<title>Node6</title>
<polygon fill="none" stroke="#bfbfbf" points="1073.5,-918 1073.5,-975 1212.5,-975 1212.5,-918 1073.5,-918"/>
<text text-anchor="middle" x="1143" y="-963" font-family="Helvetica,sans-Serif" font-size="10.00" fill="#000000">OutputObjHandlingPolicy</text>
<polyline fill="none" stroke="#bfbfbf" points="1073.5,-956 1212.5,-956 "/>
<text text-anchor="middle" x="1143" y="-944" font-family="Helvetica,sans-Serif" font-size="10.00" fill="#000000"> </text>
<polyline fill="none" stroke="#bfbfbf" points="1073.5,-937 1212.5,-937 "/>
<text text-anchor="middle" x="1143" y="-925" font-family="Helvetica,sans-Serif" font-size="10.00" fill="#000000"> </text>
</g>
<!-- Node6&#45;&gt;Node5 -->
<g id="edge5" class="edge">
<title>Node6&#45;&gt;Node5</title>
<path fill="none" stroke="#404040" d="M1146.0752,-917.5969C1151.3114,-851.6353 1153.7492,-689.5766 1063,-610 1012.9019,-566.0697 941.6716,-539.9116 886.4313,-525.1039"/>
<polygon fill="none" stroke="#404040" points="886.1611,-525.034 879.3498,-527.4018 874.5444,-522.0252 881.3557,-519.6574 886.1611,-525.034"/>
<text text-anchor="middle" x="1167.5" y="-762" font-family="Helvetica,sans-Serif" font-size="10.00" fill="#000000"> +policy</text>
</g>
<!-- Node14 -->
<g id="node14" class="node">
<title>Node14</title>
<g id="a_node14"><a xlink:href="../../d4/d79/structo2_1_1framework_1_1OutputObj.html" target="_top" xlink:title="{o2::framework::OutputObj\&lt; T \&gt;\n||+ OutputObj()\l+ OutputObj()\l+ setObject()\l+ setObject()\l+ setObject()\l+ setHash()\l+ spec()\l+ operator&#45;\&gt;()\l+ operator*()\l+ ref()\l}">
<polygon fill="none" stroke="#000000" points="924,-686.5 924,-842.5 1096,-842.5 1096,-686.5 924,-686.5"/>
<text text-anchor="middle" x="1010" y="-830.5" font-family="Helvetica,sans-Serif" font-size="10.00" fill="#000000">o2::framework::OutputObj&lt; T &gt;</text>
<polyline fill="none" stroke="#000000" points="924,-823.5 1096,-823.5 "/>
<text text-anchor="middle" x="1010" y="-811.5" font-family="Helvetica,sans-Serif" font-size="10.00" fill="#000000"> </text>
<polyline fill="none" stroke="#000000" points="924,-804.5 1096,-804.5 "/>
<text text-anchor="start" x="932" y="-792.5" font-family="Helvetica,sans-Serif" font-size="10.00" fill="#000000">+ OutputObj()</text>
<text text-anchor="start" x="932" y="-781.5" font-family="Helvetica,sans-Serif" font-size="10.00" fill="#000000">+ OutputObj()</text>
<text text-anchor="start" x="932" y="-770.5" font-family="Helvetica,sans-Serif" font-size="10.00" fill="#000000">+ setObject()</text>
<text text-anchor="start" x="932" y="-759.5" font-family="Helvetica,sans-Serif" font-size="10.00" fill="#000000">+ setObject()</text>
<text text-anchor="start" x="932" y="-748.5" font-family="Helvetica,sans-Serif" font-size="10.00" fill="#000000">+ setObject()</text>
<text text-anchor="start" x="932" y="-737.5" font-family="Helvetica,sans-Serif" font-size="10.00" fill="#000000">+ setHash()</text>
<text text-anchor="start" x="932" y="-726.5" font-family="Helvetica,sans-Serif" font-size="10.00" fill="#000000">+ spec()</text>
<text text-anchor="start" x="932" y="-715.5" font-family="Helvetica,sans-Serif" font-size="10.00" fill="#000000">+ operator&#45;&gt;()</text>
<text text-anchor="start" x="932" y="-704.5" font-family="Helvetica,sans-Serif" font-size="10.00" fill="#000000">+ operator*()</text>
<text text-anchor="start" x="932" y="-693.5" font-family="Helvetica,sans-Serif" font-size="10.00" fill="#000000">+ ref()</text>
</a>
</g>
</g>
<!-- Node6&#45;&gt;Node14 -->
<g id="edge15" class="edge">
<title>Node6&#45;&gt;Node14</title>
<path fill="none" stroke="#404040" d="M1118.2913,-917.6473C1106.9242,-904.0432 1093.4515,-887.4411 1082,-872 1077.4339,-865.8431 1072.8057,-859.4174 1068.2132,-852.9041"/>
<polygon fill="none" stroke="#404040" points="1067.9062,-852.464 1061.1925,-849.8322 1061.0397,-842.6227 1067.7534,-845.2545 1067.9062,-852.464"/>
<text text-anchor="middle" x="1102.5" y="-864" font-family="Helvetica,sans-Serif" font-size="10.00" fill="#000000"> +policy</text>
</g>
<!-- Node7 -->
<g id="node7" class="node">
<title>Node7</title>
<polygon fill="none" stroke="#bfbfbf" points="540,-736 540,-793 732,-793 732,-736 540,-736"/>
<text text-anchor="middle" x="636" y="-781" font-family="Helvetica,sans-Serif" font-size="10.00" fill="#000000">shared_ptr&lt; CorrelationContainer &gt;</text>
<polyline fill="none" stroke="#bfbfbf" points="540,-774 732,-774 "/>
<text text-anchor="middle" x="636" y="-762" font-family="Helvetica,sans-Serif" font-size="10.00" fill="#000000"> </text>
<polyline fill="none" stroke="#bfbfbf" points="540,-755 732,-755 "/>
<text text-anchor="middle" x="636" y="-743" font-family="Helvetica,sans-Serif" font-size="10.00" fill="#000000"> </text>
</g>
<!-- Node7&#45;&gt;Node5 -->
<g id="edge6" class="edge">
<title>Node7&#45;&gt;Node5</title>
<path fill="none" stroke="#404040" d="M647.2958,-735.8995C660.5513,-703.8998 684.2768,-651.1549 712,-610 715.6875,-604.5259 719.6479,-599.0373 723.7784,-593.6019"/>
<polygon fill="none" stroke="#404040" points="723.9813,-593.3425 724.5272,-586.1521 731.3746,-583.8905 730.8286,-591.081 723.9813,-593.3425"/>
<text text-anchor="middle" x="733" y="-636.5" font-family="Helvetica,sans-Serif" font-size="10.00" fill="#000000"> +object</text>
</g>
<!-- Node8 -->
<g id="node8" class="node">
<title>Node8</title>
<polygon fill="none" stroke="#bfbfbf" points="1004.5,-1067 1004.5,-1124 1033.5,-1124 1033.5,-1067 1004.5,-1067"/>
<text text-anchor="middle" x="1019" y="-1112" font-family="Helvetica,sans-Serif" font-size="10.00" fill="#000000">int</text>
<polyline fill="none" stroke="#bfbfbf" points="1004.5,-1105 1033.5,-1105 "/>
<text text-anchor="middle" x="1019" y="-1093" font-family="Helvetica,sans-Serif" font-size="10.00" fill="#000000"> </text>
<polyline fill="none" stroke="#bfbfbf" points="1004.5,-1086 1033.5,-1086 "/>
<text text-anchor="middle" x="1019" y="-1074" font-family="Helvetica,sans-Serif" font-size="10.00" fill="#000000"> </text>
</g>
<!-- Node8&#45;&gt;Node5 -->
<g id="edge7" class="edge">
<title>Node8&#45;&gt;Node5</title>
<path fill="none" stroke="#404040" d="M1033.6976,-1094.0413C1072.6706,-1089.2898 1178.6285,-1070.4249 1222,-1003 1255.6993,-950.6114 1206.1851,-710.864 1192,-686 1165.3777,-639.3355 1144.9818,-636.0582 1098,-610 1030.8036,-572.7299 947.541,-545.4537 886.6259,-528.5347"/>
<polygon fill="none" stroke="#404040" points="886.3276,-528.4533 879.4852,-530.7296 874.7522,-525.2891 881.5946,-523.0127 886.3276,-528.4533"/>
<text text-anchor="middle" x="1247" y="-864" font-family="Helvetica,sans-Serif" font-size="10.00" fill="#000000"> +label</text>
</g>
<!-- Node10 -->
<g id="node10" class="node">
<title>Node10</title>
<g id="a_node10"><a xlink:href="../../da/d96/structo2_1_1framework_1_1InputSpec.html" target="_top" xlink:title="{o2::framework::InputSpec\n||+ InputSpec()\l+ InputSpec()\l+ InputSpec()\l+ InputSpec()\l+ InputSpec()\l+ operator==()\l}">
<polygon fill="none" stroke="#000000" points="646,-890.5 646,-1002.5 788,-1002.5 788,-890.5 646,-890.5"/>
<text text-anchor="middle" x="717" y="-990.5" font-family="Helvetica,sans-Serif" font-size="10.00" fill="#000000">o2::framework::InputSpec</text>
<polyline fill="none" stroke="#000000" points="646,-983.5 788,-983.5 "/>
<text text-anchor="middle" x="717" y="-971.5" font-family="Helvetica,sans-Serif" font-size="10.00" fill="#000000"> </text>
<polyline fill="none" stroke="#000000" points="646,-964.5 788,-964.5 "/>
<text text-anchor="start" x="654" y="-952.5" font-family="Helvetica,sans-Serif" font-size="10.00" fill="#000000">+ InputSpec()</text>
<text text-anchor="start" x="654" y="-941.5" font-family="Helvetica,sans-Serif" font-size="10.00" fill="#000000">+ InputSpec()</text>
<text text-anchor="start" x="654" y="-930.5" font-family="Helvetica,sans-Serif" font-size="10.00" fill="#000000">+ InputSpec()</text>
<text text-anchor="start" x="654" y="-919.5" font-family="Helvetica,sans-Serif" font-size="10.00" fill="#000000">+ InputSpec()</text>
<text text-anchor="start" x="654" y="-908.5" font-family="Helvetica,sans-Serif" font-size="10.00" fill="#000000">+ InputSpec()</text>
<text text-anchor="start" x="654" y="-897.5" font-family="Helvetica,sans-Serif" font-size="10.00" fill="#000000">+ operator==()</text>
</a>
</g>
</g>
<!-- Node8&#45;&gt;Node10 -->
<g id="edge12" class="edge">
<title>Node8&#45;&gt;Node10</title>
<path fill="none" stroke="#404040" d="M1004.47,-1090.7004C969.8145,-1079.0004 879.7501,-1047.1031 798.8573,-1003.7356"/>
<polygon fill="none" stroke="#404040" points="798.5575,-1003.5722 791.3747,-1004.2105 788.0228,-997.8257 795.2056,-997.1874 798.5575,-1003.5722"/>
<text text-anchor="middle" x="874" y="-1024" font-family="Helvetica,sans-Serif" font-size="10.00" fill="#000000"> +binding</text>
</g>
<!-- Node8&#45;&gt;Node14 -->
<g id="edge16" class="edge">
<title>Node8&#45;&gt;Node14</title>
<path fill="none" stroke="#404040" d="M1018.2249,-1066.9926C1016.9572,-1020.3718 1014.3885,-925.901 1012.4572,-854.8691"/>
<polygon fill="none" stroke="#404040" points="1012.455,-854.786 1008.2934,-848.897 1012.1287,-842.7904 1016.2904,-848.6795 1012.455,-854.786"/>
<text text-anchor="middle" x="1034" y="-944" font-family="Helvetica,sans-Serif" font-size="10.00" fill="#000000"> +label</text>
</g>
<!-- Node9 -->
<g id="node9" class="node">
<title>Node9</title>
<polygon fill="none" stroke="#bfbfbf" points="441,-918 441,-975 479,-975 479,-918 441,-918"/>
<text text-anchor="middle" x="460" y="-963" font-family="Helvetica,sans-Serif" font-size="10.00" fill="#000000">bool</text>
<polyline fill="none" stroke="#bfbfbf" points="441,-956 479,-956 "/>
<text text-anchor="middle" x="460" y="-944" font-family="Helvetica,sans-Serif" font-size="10.00" fill="#000000"> </text>
<polyline fill="none" stroke="#bfbfbf" points="441,-937 479,-937 "/>
<text text-anchor="middle" x="460" y="-925" font-family="Helvetica,sans-Serif" font-size="10.00" fill="#000000"> </text>
</g>
<!-- Node9&#45;&gt;Node5 -->
<g id="edge8" class="edge">
<title>Node9&#45;&gt;Node5</title>
<path fill="none" stroke="#404040" d="M457.4893,-917.8469C452.8321,-858.3737 445.3446,-723.9124 469,-686 524.3329,-597.3181 639.8742,-550.1166 719.427,-527.0877"/>
<polygon fill="none" stroke="#404040" points="719.8281,-526.9751 724.5228,-521.5016 731.381,-523.7299 726.6862,-529.2035 719.8281,-526.9751"/>
<text text-anchor="middle" x="500" y="-762" font-family="Helvetica,sans-Serif" font-size="10.00" fill="#000000"> +isdangling</text>
</g>
<!-- Node9&#45;&gt;Node14 -->
<g id="edge18" class="edge">
<title>Node9&#45;&gt;Node14</title>
<path fill="none" stroke="#404040" d="M479.2478,-939.8677C511.6141,-928.8254 579.0855,-906.2787 637,-890 689.4059,-875.2697 702.4205,-870.6224 756,-861 823.8253,-848.8192 846.2888,-869.2589 910,-843 911.0267,-842.5768 912.0516,-842.14 913.0745,-841.6902"/>
<polygon fill="none" stroke="#404040" points="913.1489,-841.6541 916.7951,-835.4327 923.9403,-836.4056 920.2941,-842.627 913.1489,-841.6541"/>
<text text-anchor="middle" x="787" y="-864" font-family="Helvetica,sans-Serif" font-size="10.00" fill="#000000"> +isdangling</text>
</g>
<!-- Node16 -->
<g id="node16" class="node">
<title>Node16</title>
<g id="a_node16"><a xlink:href="../../de/dca/structCorrelationTask_1_1Config.html" target="_top" xlink:title="{CorrelationTask::Config\n||}">
<polygon fill="none" stroke="#000000" points="316.5,-610.5 316.5,-667.5 445.5,-667.5 445.5,-610.5 316.5,-610.5"/>
<text text-anchor="middle" x="381" y="-655.5" font-family="Helvetica,sans-Serif" font-size="10.00" fill="#000000">CorrelationTask::Config</text>
<polyline fill="none" stroke="#000000" points="316.5,-648.5 445.5,-648.5 "/>
<text text-anchor="middle" x="381" y="-636.5" font-family="Helvetica,sans-Serif" font-size="10.00" fill="#000000"> </text>
<polyline fill="none" stroke="#000000" points="316.5,-629.5 445.5,-629.5 "/>
<text text-anchor="middle" x="381" y="-617.5" font-family="Helvetica,sans-Serif" font-size="10.00" fill="#000000"> </text>
</a>
</g>
</g>
<!-- Node9&#45;&gt;Node16 -->
<g id="edge22" class="edge">
<title>Node9&#45;&gt;Node16</title>
<path fill="none" stroke="#404040" d="M440.7853,-934.0796C422.6035,-921.0816 396.443,-898.844 385,-872 358.2033,-809.1382 365.0257,-727.7973 372.7693,-679.7272"/>
<polygon fill="none" stroke="#404040" points="372.8083,-679.5004 369.8841,-672.9088 374.844,-667.6743 377.7682,-674.2659 372.8083,-679.5004"/>
<text text-anchor="middle" x="415.5" y="-864" font-family="Helvetica,sans-Serif" font-size="10.00" fill="#000000"> +mPairCuts</text>
</g>
<!-- Node10&#45;&gt;Node5 -->
<g id="edge9" class="edge">
<title>Node10&#45;&gt;Node5</title>
<path fill="none" stroke="#404040" d="M694.8038,-890.2926C693.8967,-879.9948 695.3423,-869.7502 701,-861 711.5851,-844.6292 728.9633,-858.3351 741,-843 755.7378,-824.2236 776.5412,-695.9271 789.9008,-603.695"/>
<polygon fill="none" stroke="#404040" points="789.9051,-603.6645 786.8001,-597.1561 791.6136,-591.7867 794.7186,-598.2951 789.9051,-603.6645"/>
<text text-anchor="middle" x="794" y="-762" font-family="Helvetica,sans-Serif" font-size="10.00" fill="#000000"> +spec</text>
</g>
<!-- Node10&#45;&gt;Node14 -->
<g id="edge19" class="edge">
<title>Node10&#45;&gt;Node14</title>
<path fill="none" stroke="#404040" d="M788.0172,-896.1664C791.0467,-894.0754 794.0506,-892.0127 797,-890 816.3457,-876.7983 819.6046,-870.5279 841,-861 869.9519,-848.1069 881.6064,-857.0801 910,-843 911.0165,-842.4959 912.0325,-841.9805 913.0476,-841.4542"/>
<polygon fill="none" stroke="#404040" points="913.3843,-841.267 916.684,-834.8552 923.8718,-835.435 920.572,-841.8468 913.3843,-841.267"/>
<text text-anchor="middle" x="858" y="-864" font-family="Helvetica,sans-Serif" font-size="10.00" fill="#000000"> +spec</text>
</g>
<!-- Node11 -->
<g id="node11" class="node">
<title>Node11</title>
<polygon fill="none" stroke="#bfbfbf" points="570,-1067 570,-1124 658,-1124 658,-1067 570,-1067"/>
<text text-anchor="middle" x="614" y="-1112" font-family="Helvetica,sans-Serif" font-size="10.00" fill="#000000">enum Lifetime</text>
<polyline fill="none" stroke="#bfbfbf" points="570,-1105 658,-1105 "/>
<text text-anchor="middle" x="614" y="-1093" font-family="Helvetica,sans-Serif" font-size="10.00" fill="#000000"> </text>
<polyline fill="none" stroke="#bfbfbf" points="570,-1086 658,-1086 "/>
<text text-anchor="middle" x="614" y="-1074" font-family="Helvetica,sans-Serif" font-size="10.00" fill="#000000"> </text>
</g>
<!-- Node11&#45;&gt;Node10 -->
<g id="edge10" class="edge">
<title>Node11&#45;&gt;Node10</title>
<path fill="none" stroke="#404040" d="M633.8594,-1066.7713C644.5132,-1051.3595 658.1165,-1031.681 671.2197,-1012.7259"/>
<polygon fill="none" stroke="#404040" points="671.3924,-1012.476 671.5139,-1005.2659 678.2161,-1002.6049 678.0946,-1009.815 671.3924,-1012.476"/>
<text text-anchor="middle" x="691" y="-1024" font-family="Helvetica,sans-Serif" font-size="10.00" fill="#000000"> +lifetime</text>
</g>
<!-- Node12 -->
<g id="node12" class="node">
<title>Node12</title>
<polygon fill="none" stroke="#bfbfbf" points="676,-1050.5 676,-1140.5 840,-1140.5 840,-1050.5 676,-1050.5"/>
<text text-anchor="start" x="684" y="-1128.5" font-family="Helvetica,sans-Serif" font-size="10.00" fill="#000000">variant&lt; o2::framework</text>
<text text-anchor="start" x="684" y="-1117.5" font-family="Helvetica,sans-Serif" font-size="10.00" fill="#000000">::ConcreteDataMatcher,</text>
<text text-anchor="start" x="684" y="-1106.5" font-family="Helvetica,sans-Serif" font-size="10.00" fill="#000000"> o2::framework::data_matcher</text>
<text text-anchor="middle" x="758" y="-1095.5" font-family="Helvetica,sans-Serif" font-size="10.00" fill="#000000">::DataDescriptorMatcher &gt;</text>
<polyline fill="none" stroke="#bfbfbf" points="676,-1088.5 840,-1088.5 "/>
<text text-anchor="middle" x="758" y="-1076.5" font-family="Helvetica,sans-Serif" font-size="10.00" fill="#000000"> </text>
<polyline fill="none" stroke="#bfbfbf" points="676,-1069.5 840,-1069.5 "/>
<text text-anchor="middle" x="758" y="-1057.5" font-family="Helvetica,sans-Serif" font-size="10.00" fill="#000000"> </text>
</g>
<!-- Node12&#45;&gt;Node10 -->
<g id="edge11" class="edge">
<title>Node12&#45;&gt;Node10</title>
<path fill="none" stroke="#404040" d="M745.5874,-1050.3907C742.4439,-1038.9667 738.9982,-1026.4446 735.6211,-1014.1718"/>
<polygon fill="none" stroke="#404040" points="735.6001,-1014.0953 730.1516,-1009.3716 732.4164,-1002.5254 737.8649,-1007.2491 735.6001,-1014.0953"/>
<text text-anchor="middle" x="766" y="-1024" font-family="Helvetica,sans-Serif" font-size="10.00" fill="#000000"> +matcher</text>
</g>
<!-- Node13 -->
<g id="node13" class="node">
<title>Node13</title>
<polygon fill="none" stroke="#bfbfbf" points="806.5,-918 806.5,-975 867.5,-975 867.5,-918 806.5,-918"/>
<text text-anchor="middle" x="837" y="-963" font-family="Helvetica,sans-Serif" font-size="10.00" fill="#000000">unsigned</text>
<polyline fill="none" stroke="#bfbfbf" points="806.5,-956 867.5,-956 "/>
<text text-anchor="middle" x="837" y="-944" font-family="Helvetica,sans-Serif" font-size="10.00" fill="#000000"> </text>
<polyline fill="none" stroke="#bfbfbf" points="806.5,-937 867.5,-937 "/>
<text text-anchor="middle" x="837" y="-925" font-family="Helvetica,sans-Serif" font-size="10.00" fill="#000000"> </text>
</g>
<!-- Node13&#45;&gt;Node5 -->
<g id="edge13" class="edge">
<title>Node13&#45;&gt;Node5</title>
<path fill="none" stroke="#404040" d="M834.7692,-917.7288C829.9118,-855.0831 818.1922,-703.9343 810.4267,-603.7823"/>
<polygon fill="none" stroke="#404040" points="810.4042,-603.4909 805.9523,-597.8181 809.4764,-591.5268 813.9283,-597.1996 810.4042,-603.4909"/>
<text text-anchor="middle" x="863" y="-762" font-family="Helvetica,sans-Serif" font-size="10.00" fill="#000000"> +mTaskHash</text>
</g>
<!-- Node13&#45;&gt;Node14 -->
<g id="edge20" class="edge">
<title>Node13&#45;&gt;Node14</title>
<path fill="none" stroke="#404040" d="M850.3185,-917.7858C859.2412,-900.2928 872.068,-878.0952 887,-861 895.5392,-851.2237 899.7837,-851.0076 910,-843 911.4114,-841.8937 912.834,-840.7786 914.2655,-839.6563"/>
<polygon fill="none" stroke="#404040" points="914.3789,-839.5674 916.6322,-832.7174 923.822,-832.1628 921.5687,-839.0128 914.3789,-839.5674"/>
<text text-anchor="middle" x="921" y="-864" font-family="Helvetica,sans-Serif" font-size="10.00" fill="#000000"> +mTaskHash</text>
</g>
<!-- Node14&#45;&gt;Node5 -->
<g id="edge14" class="edge">
<title>Node14&#45;&gt;Node5</title>
<path fill="none" stroke="#ffa500" d="M940.7516,-678.6922C918.1754,-650.7173 893.1487,-619.7059 870.6883,-591.8747"/>
<polygon fill="#ffa500" stroke="#ffa500" points="938.0461,-680.9129 947.0501,-686.4968 943.4935,-676.5167 938.0461,-680.9129"/>
<text text-anchor="middle" x="995.5" y="-636.5" font-family="Helvetica,sans-Serif" font-size="10.00" fill="#000000"> &lt; CorrelationContainer &gt;</text>
</g>
<!-- Node15 -->
<g id="node15" class="node">
<title>Node15</title>
<polygon fill="none" stroke="#bfbfbf" points="885.5,-918 885.5,-975 982.5,-975 982.5,-918 885.5,-918"/>
<text text-anchor="middle" x="934" y="-963" font-family="Helvetica,sans-Serif" font-size="10.00" fill="#000000">shared_ptr&lt; T &gt;</text>
<polyline fill="none" stroke="#bfbfbf" points="885.5,-956 982.5,-956 "/>
<text text-anchor="middle" x="934" y="-944" font-family="Helvetica,sans-Serif" font-size="10.00" fill="#000000"> </text>
<polyline fill="none" stroke="#bfbfbf" points="885.5,-937 982.5,-937 "/>
<text text-anchor="middle" x="934" y="-925" font-family="Helvetica,sans-Serif" font-size="10.00" fill="#000000"> </text>
</g>
<!-- Node15&#45;&gt;Node14 -->
<g id="edge17" class="edge">
<title>Node15&#45;&gt;Node14</title>
<path fill="none" stroke="#404040" d="M942.7775,-917.6668C948.12,-900.9307 955.37,-879.5557 963,-861 963.9689,-858.6437 964.9684,-856.2638 965.9924,-853.8696"/>
<polygon fill="none" stroke="#404040" points="966.1179,-853.5835 964.8667,-846.4818 970.9409,-842.5954 972.1921,-849.6971 966.1179,-853.5835"/>
<text text-anchor="middle" x="984" y="-864" font-family="Helvetica,sans-Serif" font-size="10.00" fill="#000000"> +object</text>
</g>
<!-- Node16&#45;&gt;Node1 -->
<g id="edge21" class="edge">
<title>Node16&#45;&gt;Node1</title>
<path fill="none" stroke="#404040" d="M394.199,-610.4752C415.8948,-563.5875 460.8448,-466.4445 502.419,-376.5969"/>
<polygon fill="none" stroke="#404040" points="502.4311,-376.5705 501.3206,-369.4454 507.4705,-365.6799 508.581,-372.805 502.4311,-376.5705"/>
<text text-anchor="middle" x="491.5" y="-505.5" font-family="Helvetica,sans-Serif" font-size="10.00" fill="#000000"> +cfg</text>
</g>
<!-- Node17 -->
<g id="node17" class="node">
<title>Node17</title>
<g id="a_node17"><a xlink:href="../../d1/d9a/structo2_1_1framework_1_1expressions_1_1Filter.html" target="_top" xlink:title="A struct, containing the root of the expression tree. ">
<polygon fill="none" stroke="#000000" points="1098,-468.5 1098,-547.5 1250,-547.5 1250,-468.5 1098,-468.5"/>
<text text-anchor="start" x="1106" y="-535.5" font-family="Helvetica,sans-Serif" font-size="10.00" fill="#000000">o2::framework::expressions</text>
<text text-anchor="middle" x="1174" y="-524.5" font-family="Helvetica,sans-Serif" font-size="10.00" fill="#000000">::Filter</text>
<polyline fill="none" stroke="#000000" points="1098,-517.5 1250,-517.5 "/>
<text text-anchor="middle" x="1174" y="-505.5" font-family="Helvetica,sans-Serif" font-size="10.00" fill="#000000"> </text>
<polyline fill="none" stroke="#000000" points="1098,-498.5 1250,-498.5 "/>
<text text-anchor="start" x="1106" y="-486.5" font-family="Helvetica,sans-Serif" font-size="10.00" fill="#000000">+ Filter()</text>
<text text-anchor="start" x="1106" y="-475.5" font-family="Helvetica,sans-Serif" font-size="10.00" fill="#000000">+ Filter()</text>
</a>
</g>
</g>
<!-- Node17&#45;&gt;Node1 -->
<g id="edge23" class="edge">
<title>Node17&#45;&gt;Node1</title>
<path fill="none" stroke="#404040" d="M1103.2172,-468.4735C999.2239,-410.4016 804.8695,-301.8704 688.0725,-236.6487"/>
<polygon fill="none" stroke="#404040" points="687.8428,-236.5205 680.6541,-237.0876 677.3657,-230.6699 684.5545,-230.1028 687.8428,-236.5205"/>
<text text-anchor="middle" x="1015.5" y="-392.5" font-family="Helvetica,sans-Serif" font-size="10.00" fill="#000000"> +trackFilter</text>
</g>
<!-- Node18 -->
<g id="node18" class="node">
<title>Node18</title>
<polygon fill="none" stroke="#bfbfbf" points="1269.5,-730.5 1269.5,-798.5 1420.5,-798.5 1420.5,-730.5 1269.5,-730.5"/>
<text text-anchor="start" x="1277.5" y="-786.5" font-family="Helvetica,sans-Serif" font-size="10.00" fill="#000000">unique_ptr&lt; o2::framework</text>
<text text-anchor="middle" x="1345" y="-775.5" font-family="Helvetica,sans-Serif" font-size="10.00" fill="#000000">::expressions::Node &gt;</text>
<polyline fill="none" stroke="#bfbfbf" points="1269.5,-768.5 1420.5,-768.5 "/>
<text text-anchor="middle" x="1345" y="-756.5" font-family="Helvetica,sans-Serif" font-size="10.00" fill="#000000"> </text>
<polyline fill="none" stroke="#bfbfbf" points="1269.5,-749.5 1420.5,-749.5 "/>
<text text-anchor="middle" x="1345" y="-737.5" font-family="Helvetica,sans-Serif" font-size="10.00" fill="#000000"> </text>
</g>
<!-- Node18&#45;&gt;Node17 -->
<g id="edge24" class="edge">
<title>Node18&#45;&gt;Node17</title>
<path fill="none" stroke="#404040" d="M1327.0341,-730.4976C1309.7606,-698.611 1282.3155,-649.9863 1255,-610 1242.8447,-592.2062 1228.5147,-573.5256 1215.3135,-557.0841"/>
<polygon fill="none" stroke="#404040" points="1215.2522,-557.0085 1208.3667,-554.8659 1207.6962,-547.686 1214.5817,-549.8286 1215.2522,-557.0085"/>
<text text-anchor="middle" x="1307" y="-636.5" font-family="Helvetica,sans-Serif" font-size="10.00" fill="#000000"> +node</text>
</g>
</g>
</svg>
