<?xml version="1.0" encoding="UTF-8" standalone="no"?>
<!DOCTYPE svg PUBLIC "-//W3C//DTD SVG 1.1//EN"
 "http://www.w3.org/Graphics/SVG/1.1/DTD/svg11.dtd">
<!-- Generated by graphviz version 2.40.1 (20161225.0304)
 -->
<!-- Title: o2::tpc::ClusterGroupHeader Pages: 1 -->
<svg width="279pt" height="288pt"
 viewBox="0.00 0.00 278.50 288.00" xmlns="http://www.w3.org/2000/svg" xmlns:xlink="http://www.w3.org/1999/xlink">
<g id="graph0" class="graph" transform="scale(1 1) rotate(0) translate(4 284)">
<title>o2::tpc::ClusterGroupHeader</title>
<!-- Node3 -->
<g id="node1" class="node">
<title>Node3</title>
<polygon fill="#bfbfbf" stroke="#000000" points="0,-.5 0,-57.5 155,-57.5 155,-.5 0,-.5"/>
<text text-anchor="middle" x="77.5" y="-45.5" font-family="Helvetica,sans-Serif" font-size="10.00" fill="#000000">o2::tpc::ClusterGroupHeader</text>
<polyline fill="none" stroke="#000000" points="0,-38.5 155,-38.5 "/>
<text text-anchor="middle" x="77.5" y="-26.5" font-family="Helvetica,sans-Serif" font-size="10.00" fill="#000000"> </text>
<polyline fill="none" stroke="#000000" points="0,-19.5 155,-19.5 "/>
<text text-anchor="start" x="8" y="-7.5" font-family="Helvetica,sans-Serif" font-size="10.00" fill="#000000">+ ClusterGroupHeader()</text>
</g>
<!-- Node4 -->
<g id="node2" class="node">
<title>Node4</title>
<g id="a_node2"><a xlink:href="../../d6/de9/structo2_1_1tpc_1_1ClusterGroupAttribute.html" target="_top" xlink:title="{o2::tpc::ClusterGroupAttribute\n||+ set()\l+ getSubSpecification()\l}">
<polygon fill="none" stroke="#000000" points="108.5,-95.5 108.5,-163.5 270.5,-163.5 270.5,-95.5 108.5,-95.5"/>
<text text-anchor="middle" x="189.5" y="-151.5" font-family="Helvetica,sans-Serif" font-size="10.00" fill="#000000">o2::tpc::ClusterGroupAttribute</text>
<polyline fill="none" stroke="#000000" points="108.5,-144.5 270.5,-144.5 "/>
<text text-anchor="middle" x="189.5" y="-132.5" font-family="Helvetica,sans-Serif" font-size="10.00" fill="#000000"> </text>
<polyline fill="none" stroke="#000000" points="108.5,-125.5 270.5,-125.5 "/>
<text text-anchor="start" x="116.5" y="-113.5" font-family="Helvetica,sans-Serif" font-size="10.00" fill="#000000">+ set()</text>
<text text-anchor="start" x="116.5" y="-102.5" font-family="Helvetica,sans-Serif" font-size="10.00" fill="#000000">+ getSubSpecification()</text>
</a>
</g>
</g>
<!-- Node4&#45;&gt;Node3 -->
<g id="edge1" class="edge">
<title>Node4&#45;&gt;Node3</title>
<path fill="none" stroke="#191970" d="M144.0579,-88.7238C132.4369,-78.296 120.1864,-67.3034 109.4074,-57.6312"/>
<polygon fill="none" stroke="#191970" points="141.8015,-91.4016 151.5819,-95.4753 146.4766,-86.1916 141.8015,-91.4016"/>
</g>
<!-- Node5 -->
<g id="node3" class="node">
<title>Node5</title>
<polygon fill="none" stroke="#bfbfbf" points="18,-222.5 18,-279.5 79,-279.5 79,-222.5 18,-222.5"/>
<text text-anchor="middle" x="48.5" y="-267.5" font-family="Helvetica,sans-Serif" font-size="10.00" fill="#000000">unsigned</text>
<polyline fill="none" stroke="#bfbfbf" points="18,-260.5 79,-260.5 "/>
<text text-anchor="middle" x="48.5" y="-248.5" font-family="Helvetica,sans-Serif" font-size="10.00" fill="#000000"> </text>
<polyline fill="none" stroke="#bfbfbf" points="18,-241.5 79,-241.5 "/>
<text text-anchor="middle" x="48.5" y="-229.5" font-family="Helvetica,sans-Serif" font-size="10.00" fill="#000000"> </text>
</g>
<!-- Node5&#45;&gt;Node3 -->
<g id="edge3" class="edge">
<title>Node5&#45;&gt;Node3</title>
<path fill="none" stroke="#404040" d="M42.2855,-222.3095C36.5501,-190.6215 30.4472,-138.3455 41.5,-95 43.8097,-85.9423 47.6445,-76.7872 51.9704,-68.298"/>
<polygon fill="none" stroke="#404040" points="52.0768,-68.1041 51.4589,-60.9195 57.8531,-57.5858 58.4711,-64.7704 52.0768,-68.1041"/>
<text text-anchor="middle" x="70.5" y="-127" font-family="Helvetica,sans-Serif" font-size="10.00" fill="#000000"> +nClusters</text>
</g>
<!-- Node5&#45;&gt;Node4 -->
<g id="edge2" class="edge">
<title>Node5&#45;&gt;Node4</title>
<path fill="none" stroke="#404040" d="M79.0949,-224.6363C97.0757,-209.1422 120.2203,-189.1984 140.6703,-171.5766"/>
<polygon fill="none" stroke="#404040" points="140.7578,-171.5013 142.692,-164.5544 149.8484,-163.6679 147.9142,-170.6148 140.7578,-171.5013"/>
<text text-anchor="middle" x="164.5" y="-196" font-family="Helvetica,sans-Serif" font-size="10.00" fill="#000000"> +sector</text>
<text text-anchor="middle" x="164.5" y="-185" font-family="Helvetica,sans-Serif" font-size="10.00" fill="#000000">+globalPadRow</text>
</g>
</g>
</svg>
