<?xml version="1.0" encoding="UTF-8" standalone="no"?>
<!DOCTYPE svg PUBLIC "-//W3C//DTD SVG 1.1//EN"
 "http://www.w3.org/Graphics/SVG/1.1/DTD/svg11.dtd">
<!-- Generated by graphviz version 2.40.1 (20161225.0304)
 -->
<!-- Title: o2::fv0::TCMdata Pages: 1 -->
<svg width="362pt" height="248pt"
 viewBox="0.00 0.00 361.50 248.00" xmlns="http://www.w3.org/2000/svg" xmlns:xlink="http://www.w3.org/1999/xlink">
<g id="graph0" class="graph" transform="scale(1 1) rotate(0) translate(4 244)">
<title>o2::fv0::TCMdata</title>
<!-- Node1 -->
<g id="node1" class="node">
<title>Node1</title>
<polygon fill="#bfbfbf" stroke="#000000" points="125,-.5 125,-57.5 223,-57.5 223,-.5 125,-.5"/>
<text text-anchor="middle" x="174" y="-45.5" font-family="Helvetica,sans-Serif" font-size="10.00" fill="#000000">o2::fv0::TCMdata</text>
<polyline fill="none" stroke="#000000" points="125,-38.5 223,-38.5 "/>
<text text-anchor="middle" x="174" y="-26.5" font-family="Helvetica,sans-Serif" font-size="10.00" fill="#000000"> </text>
<polyline fill="none" stroke="#000000" points="125,-19.5 223,-19.5 "/>
<text text-anchor="middle" x="174" y="-7.5" font-family="Helvetica,sans-Serif" font-size="10.00" fill="#000000"> </text>
</g>
<!-- Node2 -->
<g id="node2" class="node">
<title>Node2</title>
<polygon fill="none" stroke="#bfbfbf" points="0,-182.5 0,-239.5 50,-239.5 50,-182.5 0,-182.5"/>
<text text-anchor="middle" x="25" y="-227.5" font-family="Helvetica,sans-Serif" font-size="10.00" fill="#000000">int64_t</text>
<polyline fill="none" stroke="#bfbfbf" points="0,-220.5 50,-220.5 "/>
<text text-anchor="middle" x="25" y="-208.5" font-family="Helvetica,sans-Serif" font-size="10.00" fill="#000000"> </text>
<polyline fill="none" stroke="#bfbfbf" points="0,-201.5 50,-201.5 "/>
<text text-anchor="middle" x="25" y="-189.5" font-family="Helvetica,sans-Serif" font-size="10.00" fill="#000000"> </text>
</g>
<!-- Node2&#45;&gt;Node1 -->
<g id="edge1" class="edge">
<title>Node2&#45;&gt;Node1</title>
<path fill="none" stroke="#404040" d="M18.3986,-182.2271C13.3505,-152.4777 10.6956,-106.2306 34,-76 44.1771,-62.7982 80.1352,-50.8818 113.0586,-42.3511"/>
<polygon fill="none" stroke="#404040" points="113.3561,-42.2768 118.2064,-36.9405 124.9976,-39.3652 120.1474,-44.7015 113.3561,-42.2768"/>
<text text-anchor="middle" x="74" y="-145" font-family="Helvetica,sans-Serif" font-size="10.00" fill="#000000"> +timeA</text>
<text text-anchor="middle" x="74" y="-134" font-family="Helvetica,sans-Serif" font-size="10.00" fill="#000000">+timeC</text>
<text text-anchor="middle" x="74" y="-123" font-family="Helvetica,sans-Serif" font-size="10.00" fill="#000000">+reservedField1</text>
<text text-anchor="middle" x="74" y="-112" font-family="Helvetica,sans-Serif" font-size="10.00" fill="#000000">+reservedField2</text>
<text text-anchor="middle" x="74" y="-101" font-family="Helvetica,sans-Serif" font-size="10.00" fill="#000000">+amplA</text>
<text text-anchor="middle" x="74" y="-90" font-family="Helvetica,sans-Serif" font-size="10.00" fill="#000000">+amplC</text>
</g>
<!-- Node3 -->
<g id="node3" class="node">
<title>Node3</title>
<polygon fill="none" stroke="#bfbfbf" points="113.5,-182.5 113.5,-239.5 142.5,-239.5 142.5,-182.5 113.5,-182.5"/>
<text text-anchor="middle" x="128" y="-227.5" font-family="Helvetica,sans-Serif" font-size="10.00" fill="#000000">int</text>
<polyline fill="none" stroke="#bfbfbf" points="113.5,-220.5 142.5,-220.5 "/>
<text text-anchor="middle" x="128" y="-208.5" font-family="Helvetica,sans-Serif" font-size="10.00" fill="#000000"> </text>
<polyline fill="none" stroke="#bfbfbf" points="113.5,-201.5 142.5,-201.5 "/>
<text text-anchor="middle" x="128" y="-189.5" font-family="Helvetica,sans-Serif" font-size="10.00" fill="#000000"> </text>
</g>
<!-- Node3&#45;&gt;Node1 -->
<g id="edge2" class="edge">
<title>Node3&#45;&gt;Node1</title>
<path fill="none" stroke="#404040" d="M122.2858,-182.415C117.994,-154.2454 114.9857,-110.5312 129,-76 130.1709,-73.1149 131.6113,-70.3062 133.2496,-67.591"/>
<polygon fill="none" stroke="#404040" points="133.4074,-67.3708 133.6516,-60.1638 140.3981,-57.6172 140.1539,-64.8242 133.4074,-67.3708"/>
<text text-anchor="middle" x="164" y="-117.5" font-family="Helvetica,sans-Serif" font-size="10.00" fill="#000000"> +PayloadSize</text>
</g>
<!-- Node4 -->
<g id="node4" class="node">
<title>Node4</title>
<polygon fill="none" stroke="#bfbfbf" points="167.5,-182.5 167.5,-239.5 274.5,-239.5 274.5,-182.5 167.5,-182.5"/>
<text text-anchor="middle" x="221" y="-227.5" font-family="Helvetica,sans-Serif" font-size="10.00" fill="#000000">anonymous:+@27</text>
<polyline fill="none" stroke="#bfbfbf" points="167.5,-220.5 274.5,-220.5 "/>
<text text-anchor="middle" x="221" y="-208.5" font-family="Helvetica,sans-Serif" font-size="10.00" fill="#000000"> </text>
<polyline fill="none" stroke="#bfbfbf" points="167.5,-201.5 274.5,-201.5 "/>
<text text-anchor="middle" x="221" y="-189.5" font-family="Helvetica,sans-Serif" font-size="10.00" fill="#000000"> </text>
</g>
<!-- Node4&#45;&gt;Node1 -->
<g id="edge3" class="edge">
<title>Node4&#45;&gt;Node1</title>
<path fill="none" stroke="#404040" d="M219.0665,-182.4264C216.5581,-154.6447 210.9874,-111.5532 199,-76 198.1926,-73.6053 197.2724,-71.1859 196.2728,-68.7745"/>
<polygon fill="none" stroke="#404040" points="196.1755,-68.5637 190.0273,-64.7953 191.1411,-57.6708 197.2893,-61.4391 196.1755,-68.5637"/>
<text text-anchor="middle" x="233" y="-117.5" font-family="Helvetica,sans-Serif" font-size="10.00" fill="#000000"> +@27</text>
</g>
<!-- Node5 -->
<g id="node5" class="node">
<title>Node5</title>
<polygon fill="none" stroke="#bfbfbf" points="292.5,-182.5 292.5,-239.5 353.5,-239.5 353.5,-182.5 292.5,-182.5"/>
<text text-anchor="middle" x="323" y="-227.5" font-family="Helvetica,sans-Serif" font-size="10.00" fill="#000000">unsigned</text>
<polyline fill="none" stroke="#bfbfbf" points="292.5,-220.5 353.5,-220.5 "/>
<text text-anchor="middle" x="323" y="-208.5" font-family="Helvetica,sans-Serif" font-size="10.00" fill="#000000"> </text>
<polyline fill="none" stroke="#bfbfbf" points="292.5,-201.5 353.5,-201.5 "/>
<text text-anchor="middle" x="323" y="-189.5" font-family="Helvetica,sans-Serif" font-size="10.00" fill="#000000"> </text>
</g>
<!-- Node5&#45;&gt;Node1 -->
<g id="edge4" class="edge">
<title>Node5&#45;&gt;Node1</title>
<path fill="none" stroke="#404040" d="M313.7555,-182.3102C303.1146,-152.8435 283.254,-107.0231 254,-76 247.9977,-69.6348 240.9414,-63.8549 233.5485,-58.6985"/>
<polygon fill="none" stroke="#404040" points="233.3888,-58.5947 226.1782,-58.6802 223.326,-52.0571 230.5366,-51.9716 233.3888,-58.5947"/>
<text text-anchor="middle" x="328" y="-156" font-family="Helvetica,sans-Serif" font-size="10.00" fill="#000000"> +orA</text>
<text text-anchor="middle" x="328" y="-145" font-family="Helvetica,sans-Serif" font-size="10.00" fill="#000000">+nChanA</text>
<text text-anchor="middle" x="328" y="-134" font-family="Helvetica,sans-Serif" font-size="10.00" fill="#000000">+sCen</text>
<text text-anchor="middle" x="328" y="-123" font-family="Helvetica,sans-Serif" font-size="10.00" fill="#000000">+orC</text>
<text text-anchor="middle" x="328" y="-112" font-family="Helvetica,sans-Serif" font-size="10.00" fill="#000000">+word</text>
<text text-anchor="middle" x="328" y="-101" font-family="Helvetica,sans-Serif" font-size="10.00" fill="#000000">+nChanC</text>
<text text-anchor="middle" x="328" y="-90" font-family="Helvetica,sans-Serif" font-size="10.00" fill="#000000">+vertex</text>
<text text-anchor="middle" x="328" y="-79" font-family="Helvetica,sans-Serif" font-size="10.00" fill="#000000">+cen</text>
</g>
</g>
</svg>
