<?xml version="1.0" encoding="UTF-8" standalone="no"?>
<!DOCTYPE svg PUBLIC "-//W3C//DTD SVG 1.1//EN"
 "http://www.w3.org/Graphics/SVG/1.1/DTD/svg11.dtd">
<!-- Generated by graphviz version 2.40.1 (20161225.0304)
 -->
<!-- Title: o2::data::SubEventInfo Pages: 1 -->
<svg width="592pt" height="529pt"
 viewBox="0.00 0.00 592.00 529.00" xmlns="http://www.w3.org/2000/svg" xmlns:xlink="http://www.w3.org/1999/xlink">
<g id="graph0" class="graph" transform="scale(1 1) rotate(0) translate(4 525)">
<title>o2::data::SubEventInfo</title>
<!-- Node1 -->
<g id="node1" class="node">
<title>Node1</title>
<polygon fill="#bfbfbf" stroke="#000000" points="318.5,-.5 318.5,-57.5 445.5,-57.5 445.5,-.5 318.5,-.5"/>
<text text-anchor="middle" x="382" y="-45.5" font-family="Helvetica,sans-Serif" font-size="10.00" fill="#000000">o2::data::SubEventInfo</text>
<polyline fill="none" stroke="#000000" points="318.5,-38.5 445.5,-38.5 "/>
<text text-anchor="middle" x="382" y="-26.5" font-family="Helvetica,sans-Serif" font-size="10.00" fill="#000000"> </text>
<polyline fill="none" stroke="#000000" points="318.5,-19.5 445.5,-19.5 "/>
<text text-anchor="start" x="326.5" y="-7.5" font-family="Helvetica,sans-Serif" font-size="10.00" fill="#000000">+ ClassDefNV()</text>
</g>
<!-- Node2 -->
<g id="node2" class="node">
<title>Node2</title>
<g id="a_node2"><a xlink:href="../../d4/db1/classo2_1_1dataformats_1_1MCEventHeader.html" target="_top" xlink:title="{o2::dataformats::MCEvent\lHeader\n||+ MCEventHeader()\l+ MCEventHeader()\l+ operator=()\l+ ~MCEventHeader()\l+ setEmbeddingFileName()\l+ setEmbeddingEventIndex()\l+ getEmbeddedIndex()\l+ Reset()\l+ getMCEventStats()\l# ClassDefOverride()\l}">
<polygon fill="none" stroke="#000000" points="137,-149.5 137,-316.5 297,-316.5 297,-149.5 137,-149.5"/>
<text text-anchor="start" x="145" y="-304.5" font-family="Helvetica,sans-Serif" font-size="10.00" fill="#000000">o2::dataformats::MCEvent</text>
<text text-anchor="middle" x="217" y="-293.5" font-family="Helvetica,sans-Serif" font-size="10.00" fill="#000000">Header</text>
<polyline fill="none" stroke="#000000" points="137,-286.5 297,-286.5 "/>
<text text-anchor="middle" x="217" y="-274.5" font-family="Helvetica,sans-Serif" font-size="10.00" fill="#000000"> </text>
<polyline fill="none" stroke="#000000" points="137,-267.5 297,-267.5 "/>
<text text-anchor="start" x="145" y="-255.5" font-family="Helvetica,sans-Serif" font-size="10.00" fill="#000000">+ MCEventHeader()</text>
<text text-anchor="start" x="145" y="-244.5" font-family="Helvetica,sans-Serif" font-size="10.00" fill="#000000">+ MCEventHeader()</text>
<text text-anchor="start" x="145" y="-233.5" font-family="Helvetica,sans-Serif" font-size="10.00" fill="#000000">+ operator=()</text>
<text text-anchor="start" x="145" y="-222.5" font-family="Helvetica,sans-Serif" font-size="10.00" fill="#000000">+ ~MCEventHeader()</text>
<text text-anchor="start" x="145" y="-211.5" font-family="Helvetica,sans-Serif" font-size="10.00" fill="#000000">+ setEmbeddingFileName()</text>
<text text-anchor="start" x="145" y="-200.5" font-family="Helvetica,sans-Serif" font-size="10.00" fill="#000000">+ setEmbeddingEventIndex()</text>
<text text-anchor="start" x="145" y="-189.5" font-family="Helvetica,sans-Serif" font-size="10.00" fill="#000000">+ getEmbeddedIndex()</text>
<text text-anchor="start" x="145" y="-178.5" font-family="Helvetica,sans-Serif" font-size="10.00" fill="#000000">+ Reset()</text>
<text text-anchor="start" x="145" y="-167.5" font-family="Helvetica,sans-Serif" font-size="10.00" fill="#000000">+ getMCEventStats()</text>
<text text-anchor="start" x="145" y="-156.5" font-family="Helvetica,sans-Serif" font-size="10.00" fill="#000000"># ClassDefOverride()</text>
</a>
</g>
</g>
<!-- Node2&#45;&gt;Node1 -->
<g id="edge1" class="edge">
<title>Node2&#45;&gt;Node1</title>
<path fill="none" stroke="#404040" d="M204.1396,-149.3878C204.5041,-123.5208 209.8557,-96.4736 226,-76 236.5753,-62.5887 271.8872,-51.3716 306.2447,-43.263"/>
<polygon fill="none" stroke="#404040" points="306.6125,-43.1797 311.5794,-37.9519 318.3154,-40.526 313.3485,-45.7538 306.6125,-43.1797"/>
<text text-anchor="middle" x="276" y="-101" font-family="Helvetica,sans-Serif" font-size="10.00" fill="#000000"> +mMCEventHeader</text>
</g>
<!-- Node3 -->
<g id="node3" class="node">
<title>Node3</title>
<g id="a_node3"><a xlink:href="../../dd/d8f/classFairMCEventHeader.html" target="_top" xlink:title="{FairMCEventHeader\n||}">
<polygon fill="none" stroke="#000000" points="0,-414 0,-471 112,-471 112,-414 0,-414"/>
<text text-anchor="middle" x="56" y="-459" font-family="Helvetica,sans-Serif" font-size="10.00" fill="#000000">FairMCEventHeader</text>
<polyline fill="none" stroke="#000000" points="0,-452 112,-452 "/>
<text text-anchor="middle" x="56" y="-440" font-family="Helvetica,sans-Serif" font-size="10.00" fill="#000000"> </text>
<polyline fill="none" stroke="#000000" points="0,-433 112,-433 "/>
<text text-anchor="middle" x="56" y="-421" font-family="Helvetica,sans-Serif" font-size="10.00" fill="#000000"> </text>
</a>
</g>
</g>
<!-- Node3&#45;&gt;Node2 -->
<g id="edge2" class="edge">
<title>Node3&#45;&gt;Node2</title>
<path fill="none" stroke="#191970" d="M84.1857,-405.8236C103.086,-381.2297 128.7732,-347.8045 152.5215,-316.9021"/>
<polygon fill="none" stroke="#191970" points="81.3671,-403.7474 78.0488,-413.8092 86.9174,-408.0128 81.3671,-403.7474"/>
</g>
<!-- Node4 -->
<g id="node4" class="node">
<title>Node4</title>
<polygon fill="none" stroke="#bfbfbf" points="130.5,-414 130.5,-471 159.5,-471 159.5,-414 130.5,-414"/>
<text text-anchor="middle" x="145" y="-459" font-family="Helvetica,sans-Serif" font-size="10.00" fill="#000000">int</text>
<polyline fill="none" stroke="#bfbfbf" points="130.5,-452 159.5,-452 "/>
<text text-anchor="middle" x="145" y="-440" font-family="Helvetica,sans-Serif" font-size="10.00" fill="#000000"> </text>
<polyline fill="none" stroke="#bfbfbf" points="130.5,-433 159.5,-433 "/>
<text text-anchor="middle" x="145" y="-421" font-family="Helvetica,sans-Serif" font-size="10.00" fill="#000000"> </text>
</g>
<!-- Node4&#45;&gt;Node2 -->
<g id="edge3" class="edge">
<title>Node4&#45;&gt;Node2</title>
<path fill="none" stroke="#404040" d="M140.7636,-413.9373C138.5491,-391.8469 137.7779,-360.7836 146,-335 146.7682,-332.5911 147.6148,-330.189 148.5311,-327.7981"/>
<polygon fill="none" stroke="#404040" points="148.5588,-327.7335 147.2513,-320.6419 153.2945,-316.7075 154.602,-323.7991 148.5588,-327.7335"/>
<text text-anchor="middle" x="207" y="-338" font-family="Helvetica,sans-Serif" font-size="10.00" fill="#000000"> #mEmbeddingFileName</text>
</g>
<!-- Node5 -->
<g id="node5" class="node">
<title>Node5</title>
<polygon fill="none" stroke="#bfbfbf" points="271,-414 271,-471 309,-471 309,-414 271,-414"/>
<text text-anchor="middle" x="290" y="-459" font-family="Helvetica,sans-Serif" font-size="10.00" fill="#000000">Int_t</text>
<polyline fill="none" stroke="#bfbfbf" points="271,-452 309,-452 "/>
<text text-anchor="middle" x="290" y="-440" font-family="Helvetica,sans-Serif" font-size="10.00" fill="#000000"> </text>
<polyline fill="none" stroke="#bfbfbf" points="271,-433 309,-433 "/>
<text text-anchor="middle" x="290" y="-421" font-family="Helvetica,sans-Serif" font-size="10.00" fill="#000000"> </text>
</g>
<!-- Node5&#45;&gt;Node2 -->
<g id="edge4" class="edge">
<title>Node5&#45;&gt;Node2</title>
<path fill="none" stroke="#404040" d="M286.1971,-413.6636C282.8015,-391.7 276.9606,-360.9273 268,-335 267.179,-332.6244 266.314,-330.2336 265.4113,-327.8348"/>
<polygon fill="none" stroke="#404040" points="265.3699,-327.7304 259.4362,-323.6326 260.9367,-316.5793 266.8703,-320.6771 265.3699,-327.7304"/>
<text text-anchor="middle" x="336.5" y="-338" font-family="Helvetica,sans-Serif" font-size="10.00" fill="#000000"> #mEmbeddingEventIndex</text>
</g>
<!-- Node6 -->
<g id="node6" class="node">
<title>Node6</title>
<g id="a_node6"><a xlink:href="../../d9/ddb/classo2_1_1dataformats_1_1MCEventStats.html" target="_top" xlink:title="{o2::dataformats::MCEvent\lStats\n||+ setNHits()\l+ getNHits()\l+ setNTransportedTracks()\l+ getNTransportedTracks()\l+ setNKeptTracks()\l+ getNKeptTracks()\l+ setNSteps()\l+ getNSteps()\l+ add()\l}">
<polygon fill="none" stroke="#000000" points="371,-364.5 371,-520.5 517,-520.5 517,-364.5 371,-364.5"/>
<text text-anchor="start" x="379" y="-508.5" font-family="Helvetica,sans-Serif" font-size="10.00" fill="#000000">o2::dataformats::MCEvent</text>
<text text-anchor="middle" x="444" y="-497.5" font-family="Helvetica,sans-Serif" font-size="10.00" fill="#000000">Stats</text>
<polyline fill="none" stroke="#000000" points="371,-490.5 517,-490.5 "/>
<text text-anchor="middle" x="444" y="-478.5" font-family="Helvetica,sans-Serif" font-size="10.00" fill="#000000"> </text>
<polyline fill="none" stroke="#000000" points="371,-471.5 517,-471.5 "/>
<text text-anchor="start" x="379" y="-459.5" font-family="Helvetica,sans-Serif" font-size="10.00" fill="#000000">+ setNHits()</text>
<text text-anchor="start" x="379" y="-448.5" font-family="Helvetica,sans-Serif" font-size="10.00" fill="#000000">+ getNHits()</text>
<text text-anchor="start" x="379" y="-437.5" font-family="Helvetica,sans-Serif" font-size="10.00" fill="#000000">+ setNTransportedTracks()</text>
<text text-anchor="start" x="379" y="-426.5" font-family="Helvetica,sans-Serif" font-size="10.00" fill="#000000">+ getNTransportedTracks()</text>
<text text-anchor="start" x="379" y="-415.5" font-family="Helvetica,sans-Serif" font-size="10.00" fill="#000000">+ setNKeptTracks()</text>
<text text-anchor="start" x="379" y="-404.5" font-family="Helvetica,sans-Serif" font-size="10.00" fill="#000000">+ getNKeptTracks()</text>
<text text-anchor="start" x="379" y="-393.5" font-family="Helvetica,sans-Serif" font-size="10.00" fill="#000000">+ setNSteps()</text>
<text text-anchor="start" x="379" y="-382.5" font-family="Helvetica,sans-Serif" font-size="10.00" fill="#000000">+ getNSteps()</text>
<text text-anchor="start" x="379" y="-371.5" font-family="Helvetica,sans-Serif" font-size="10.00" fill="#000000">+ add()</text>
</a>
</g>
</g>
<!-- Node6&#45;&gt;Node2 -->
<g id="edge5" class="edge">
<title>Node6&#45;&gt;Node2</title>
<path fill="none" stroke="#404040" d="M427.5117,-364.375C422.2204,-353.2636 415.2313,-342.9363 406,-335 373.7447,-307.2696 350.179,-335.7549 312,-317 310.5828,-316.3038 309.1705,-315.5807 307.7638,-314.8328"/>
<polygon fill="none" stroke="#404040" points="307.4832,-314.6699 300.2859,-315.1171 297.1049,-308.6456 304.3021,-308.1983 307.4832,-314.6699"/>
<text text-anchor="middle" x="451" y="-338" font-family="Helvetica,sans-Serif" font-size="10.00" fill="#000000"> #mEventStats</text>
</g>
<!-- Node7 -->
<g id="node7" class="node">
<title>Node7</title>
<g id="a_node7"><a xlink:href="../../d4/dc3/classfloat.html" target="_top" xlink:title="{float\n||}">
<polygon fill="none" stroke="#000000" points="321,-204.5 321,-261.5 359,-261.5 359,-204.5 321,-204.5"/>
<text text-anchor="middle" x="340" y="-249.5" font-family="Helvetica,sans-Serif" font-size="10.00" fill="#000000">float</text>
<polyline fill="none" stroke="#000000" points="321,-242.5 359,-242.5 "/>
<text text-anchor="middle" x="340" y="-230.5" font-family="Helvetica,sans-Serif" font-size="10.00" fill="#000000"> </text>
<polyline fill="none" stroke="#000000" points="321,-223.5 359,-223.5 "/>
<text text-anchor="middle" x="340" y="-211.5" font-family="Helvetica,sans-Serif" font-size="10.00" fill="#000000"> </text>
</a>
</g>
</g>
<!-- Node7&#45;&gt;Node1 -->
<g id="edge6" class="edge">
<title>Node7&#45;&gt;Node1</title>
<path fill="none" stroke="#404040" d="M334.3902,-204.4126C329.3434,-172.0905 324.9341,-118.4449 341,-76 342.035,-73.2657 343.3077,-70.5854 344.7565,-67.9781"/>
<polygon fill="none" stroke="#404040" points="344.9232,-67.7261 344.899,-60.515 351.5461,-57.7192 351.5703,-64.9303 344.9232,-67.7261"/>
<text text-anchor="middle" x="372" y="-101" font-family="Helvetica,sans-Serif" font-size="10.00" fill="#000000"> +eventtime</text>
</g>
<!-- Node8 -->
<g id="node8" class="node">
<title>Node8</title>
<polygon fill="none" stroke="#bfbfbf" points="400,-204.5 400,-261.5 450,-261.5 450,-204.5 400,-204.5"/>
<text text-anchor="middle" x="425" y="-249.5" font-family="Helvetica,sans-Serif" font-size="10.00" fill="#000000">int32_t</text>
<polyline fill="none" stroke="#bfbfbf" points="400,-242.5 450,-242.5 "/>
<text text-anchor="middle" x="425" y="-230.5" font-family="Helvetica,sans-Serif" font-size="10.00" fill="#000000"> </text>
<polyline fill="none" stroke="#bfbfbf" points="400,-223.5 450,-223.5 "/>
<text text-anchor="middle" x="425" y="-211.5" font-family="Helvetica,sans-Serif" font-size="10.00" fill="#000000"> </text>
</g>
<!-- Node8&#45;&gt;Node1 -->
<g id="edge7" class="edge">
<title>Node8&#45;&gt;Node1</title>
<path fill="none" stroke="#404040" d="M423.4105,-204.4243C421.086,-172.5712 415.5755,-119.7807 403,-76 402.3157,-73.6177 401.5332,-71.1999 400.6818,-68.7823"/>
<polygon fill="none" stroke="#404040" points="400.6805,-68.7788 394.7683,-64.6501 396.3055,-57.6047 402.2177,-61.7334 400.6805,-68.7788"/>
<text text-anchor="middle" x="461" y="-117.5" font-family="Helvetica,sans-Serif" font-size="10.00" fill="#000000"> +runID</text>
<text text-anchor="middle" x="461" y="-106.5" font-family="Helvetica,sans-Serif" font-size="10.00" fill="#000000">+maxEvents</text>
<text text-anchor="middle" x="461" y="-95.5" font-family="Helvetica,sans-Serif" font-size="10.00" fill="#000000">+npersistenttracks</text>
<text text-anchor="middle" x="461" y="-84.5" font-family="Helvetica,sans-Serif" font-size="10.00" fill="#000000">+nprimarytracks</text>
</g>
<!-- Node9 -->
<g id="node9" class="node">
<title>Node9</title>
<polygon fill="none" stroke="#bfbfbf" points="511.5,-204.5 511.5,-261.5 572.5,-261.5 572.5,-204.5 511.5,-204.5"/>
<text text-anchor="middle" x="542" y="-249.5" font-family="Helvetica,sans-Serif" font-size="10.00" fill="#000000">unsigned</text>
<polyline fill="none" stroke="#bfbfbf" points="511.5,-242.5 572.5,-242.5 "/>
<text text-anchor="middle" x="542" y="-230.5" font-family="Helvetica,sans-Serif" font-size="10.00" fill="#000000"> </text>
<polyline fill="none" stroke="#bfbfbf" points="511.5,-223.5 572.5,-223.5 "/>
<text text-anchor="middle" x="542" y="-211.5" font-family="Helvetica,sans-Serif" font-size="10.00" fill="#000000"> </text>
</g>
<!-- Node9&#45;&gt;Node1 -->
<g id="edge8" class="edge">
<title>Node9&#45;&gt;Node1</title>
<path fill="none" stroke="#404040" d="M544.4727,-204.2047C545.8202,-169.6842 542.7094,-111.9936 512,-76 497.9367,-59.5169 477.6241,-48.8143 457.219,-41.8651"/>
<polygon fill="none" stroke="#404040" points="457.0479,-41.8125 450.1371,-43.872 445.578,-38.2849 452.4888,-36.2254 457.0479,-41.8125"/>
<text text-anchor="middle" x="560.5" y="-123" font-family="Helvetica,sans-Serif" font-size="10.00" fill="#000000"> +index</text>
<text text-anchor="middle" x="560.5" y="-112" font-family="Helvetica,sans-Serif" font-size="10.00" fill="#000000">+eventID</text>
<text text-anchor="middle" x="560.5" y="-101" font-family="Helvetica,sans-Serif" font-size="10.00" fill="#000000">+seed</text>
<text text-anchor="middle" x="560.5" y="-90" font-family="Helvetica,sans-Serif" font-size="10.00" fill="#000000">+part</text>
<text text-anchor="middle" x="560.5" y="-79" font-family="Helvetica,sans-Serif" font-size="10.00" fill="#000000">+nparts</text>
</g>
</g>
</svg>
