<?xml version="1.0" encoding="UTF-8" standalone="no"?>
<!DOCTYPE svg PUBLIC "-//W3C//DTD SVG 1.1//EN"
 "http://www.w3.org/Graphics/SVG/1.1/DTD/svg11.dtd">
<!-- Generated by graphviz version 2.40.1 (20161225.0304)
 -->
<!-- Title: o2::itsmft::PayLoadSG::SGPiece Pages: 1 -->
<svg width="136pt" height="193pt"
 viewBox="0.00 0.00 135.50 193.00" xmlns="http://www.w3.org/2000/svg" xmlns:xlink="http://www.w3.org/1999/xlink">
<g id="graph0" class="graph" transform="scale(1 1) rotate(0) translate(4 189)">
<title>o2::itsmft::PayLoadSG::SGPiece</title>
<!-- Node1 -->
<g id="node1" class="node">
<title>Node1</title>
<polygon fill="#bfbfbf" stroke="#000000" points="3.5,-.5 3.5,-79.5 127.5,-79.5 127.5,-.5 3.5,-.5"/>
<text text-anchor="start" x="11.5" y="-67.5" font-family="Helvetica,sans-Serif" font-size="10.00" fill="#000000">o2::itsmft::PayLoadSG</text>
<text text-anchor="middle" x="65.5" y="-56.5" font-family="Helvetica,sans-Serif" font-size="10.00" fill="#000000">::SGPiece</text>
<polyline fill="none" stroke="#000000" points="3.5,-49.5 127.5,-49.5 "/>
<text text-anchor="middle" x="65.5" y="-37.5" font-family="Helvetica,sans-Serif" font-size="10.00" fill="#000000"> </text>
<polyline fill="none" stroke="#000000" points="3.5,-30.5 127.5,-30.5 "/>
<text text-anchor="start" x="11.5" y="-18.5" font-family="Helvetica,sans-Serif" font-size="10.00" fill="#000000">+ SGPiece()</text>
<text text-anchor="start" x="11.5" y="-7.5" font-family="Helvetica,sans-Serif" font-size="10.00" fill="#000000">+ SGPiece()</text>
</g>
<!-- Node2 -->
<g id="node2" class="node">
<title>Node2</title>
<polygon fill="none" stroke="#bfbfbf" points="0,-127.5 0,-184.5 61,-184.5 61,-127.5 0,-127.5"/>
<text text-anchor="middle" x="30.5" y="-172.5" font-family="Helvetica,sans-Serif" font-size="10.00" fill="#000000">unsigned</text>
<polyline fill="none" stroke="#bfbfbf" points="0,-165.5 61,-165.5 "/>
<text text-anchor="middle" x="30.5" y="-153.5" font-family="Helvetica,sans-Serif" font-size="10.00" fill="#000000"> </text>
<polyline fill="none" stroke="#bfbfbf" points="0,-146.5 61,-146.5 "/>
<text text-anchor="middle" x="30.5" y="-134.5" font-family="Helvetica,sans-Serif" font-size="10.00" fill="#000000"> </text>
</g>
<!-- Node2&#45;&gt;Node1 -->
<g id="edge1" class="edge">
<title>Node2&#45;&gt;Node1</title>
<path fill="none" stroke="#404040" d="M38.7978,-127.3577C41.5373,-117.9912 44.6207,-107.5435 47.5,-98 48.1738,-95.7667 48.8655,-93.4863 49.5672,-91.1835"/>
<polygon fill="none" stroke="#404040" points="49.6016,-91.0708 47.5363,-84.1617 53.1196,-79.598 55.1849,-86.507 49.6016,-91.0708"/>
<text text-anchor="middle" x="63" y="-101" font-family="Helvetica,sans-Serif" font-size="10.00" fill="#000000"> +size</text>
</g>
<!-- Node3 -->
<g id="node3" class="node">
<title>Node3</title>
<polygon fill="none" stroke="#bfbfbf" points="79,-127.5 79,-184.5 122,-184.5 122,-127.5 79,-127.5"/>
<text text-anchor="middle" x="100.5" y="-172.5" font-family="Helvetica,sans-Serif" font-size="10.00" fill="#000000">const</text>
<polyline fill="none" stroke="#bfbfbf" points="79,-165.5 122,-165.5 "/>
<text text-anchor="middle" x="100.5" y="-153.5" font-family="Helvetica,sans-Serif" font-size="10.00" fill="#000000"> </text>
<polyline fill="none" stroke="#bfbfbf" points="79,-146.5 122,-146.5 "/>
<text text-anchor="middle" x="100.5" y="-134.5" font-family="Helvetica,sans-Serif" font-size="10.00" fill="#000000"> </text>
</g>
<!-- Node3&#45;&gt;Node1 -->
<g id="edge2" class="edge">
<title>Node3&#45;&gt;Node1</title>
<path fill="none" stroke="#404040" d="M91.8483,-127.3258C88.5654,-116.4455 84.7188,-103.6966 80.9949,-91.3545"/>
<polygon fill="none" stroke="#404040" points="80.951,-91.2088 75.3883,-86.62 77.4846,-79.7203 83.0473,-84.3091 80.951,-91.2088"/>
<text text-anchor="middle" x="102.5" y="-101" font-family="Helvetica,sans-Serif" font-size="10.00" fill="#000000"> +data</text>
</g>
</g>
</svg>
