<?xml version="1.0" encoding="UTF-8" standalone="no"?>
<!DOCTYPE svg PUBLIC "-//W3C//DTD SVG 1.1//EN"
 "http://www.w3.org/Graphics/SVG/1.1/DTD/svg11.dtd">
<!-- Generated by graphviz version 2.40.1 (20161225.0304)
 -->
<!-- Title: o2::framework::SourceInfoHeader Pages: 1 -->
<!--zoomable 1036 -->
<svg id="main" version="1.1" xmlns="http://www.w3.org/2000/svg" xmlns:xlink="http://www.w3.org/1999/xlink" xml:space="preserve" onload="init(evt)">
<style type="text/css"><![CDATA[
.edge:hover path { stroke: red; }
.edge:hover polygon { stroke: red; fill: red; }
]]></style>
<script type="text/javascript"><![CDATA[
var edges = document.getElementsByTagName('g');
if (edges && edges.length) {
  for (var i=0;i<edges.length;i++) {
    if (edges[i].id.substr(0,4)=='edge') {
      edges[i].setAttribute('class','edge');
    }
  }
}
]]></script>
        <defs>
                <circle id="rim" cx="0" cy="0" r="7"/>
                <circle id="rim2" cx="0" cy="0" r="3.5"/>
                <g id="zoomPlus">
                        <use xlink:href="#rim" fill="#404040">
                                <set attributeName="fill" to="#808080" begin="zoomplus.mouseover" end="zoomplus.mouseout"/>
                        </use>
                        <path d="M-4,0h8M0,-4v8" fill="none" stroke="white" stroke-width="1.5" pointer-events="none"/>
                </g>
                <g id="zoomMin">
                        <use xlink:href="#rim" fill="#404040">
                                <set attributeName="fill" to="#808080" begin="zoomminus.mouseover" end="zoomminus.mouseout"/>
                        </use>
                        <path d="M-4,0h8" fill="none" stroke="white" stroke-width="1.5" pointer-events="none"/>
                </g>
                <g id="dirArrow">
                        <path fill="none" stroke="white" stroke-width="1.5" d="M0,-3.0v7 M-2.5,-0.5L0,-3.0L2.5,-0.5"/>
                </g>
               <g id="resetDef">
                       <use xlink:href="#rim2" fill="#404040">
                               <set attributeName="fill" to="#808080" begin="reset.mouseover" end="reset.mouseout"/>
                       </use>
               </g>
        </defs>

<script type="text/javascript">
var viewWidth = 1001;
var viewHeight = 1036;
var sectionId = 'dynsection-1';
</script>
<script xlink:href="../../svgpan.js"/>
<svg id="graph" class="graph">
<g id="viewport">
<title>o2::framework::SourceInfoHeader</title>
<!-- Node2 -->
<g id="node1" class="node">
<title>Node2</title>
<polygon fill="#bfbfbf" stroke="#000000" points="663.4998,-.5 663.4998,-90.5 809.4998,-90.5 809.4998,-.5 663.4998,-.5"/>
<text text-anchor="start" x="671.4998" y="-78.5" font-family="Helvetica,sans-Serif" font-size="10.00" fill="#000000">o2::framework::SourceInfo</text>
<text text-anchor="middle" x="736.4998" y="-67.5" font-family="Helvetica,sans-Serif" font-size="10.00" fill="#000000">Header</text>
<polyline fill="none" stroke="#000000" points="663.4998,-60.5 809.4998,-60.5 "/>
<text text-anchor="middle" x="736.4998" y="-48.5" font-family="Helvetica,sans-Serif" font-size="10.00" fill="#000000"> </text>
<polyline fill="none" stroke="#000000" points="663.4998,-41.5 809.4998,-41.5 "/>
<text text-anchor="start" x="671.4998" y="-29.5" font-family="Helvetica,sans-Serif" font-size="10.00" fill="#000000">+ SourceInfoHeader()</text>
<text text-anchor="start" x="671.4998" y="-18.5" font-family="Helvetica,sans-Serif" font-size="10.00" fill="#000000">+ SourceInfoHeader()</text>
<text text-anchor="start" x="671.4998" y="-7.5" font-family="Helvetica,sans-Serif" font-size="10.00" fill="#000000">+ Get()</text>
</g>
<!-- Node3 -->
<g id="node2" class="node">
<title>Node3</title>
<g id="a_node2"><a xlink:href="../../d8/dbd/structo2_1_1header_1_1BaseHeader.html" target="_top" xlink:title="the base header struct Every header type must begin (i.e. derive) with this. Don&#39;t use this struct di...">
<polygon fill="none" stroke="#000000" points="491.9998,-149.5 491.9998,-316.5 664.9998,-316.5 664.9998,-149.5 491.9998,-149.5"/>
<text text-anchor="middle" x="578.4998" y="-304.5" font-family="Helvetica,sans-Serif" font-size="10.00" fill="#000000">o2::header::BaseHeader</text>
<polyline fill="none" stroke="#000000" points="491.9998,-297.5 664.9998,-297.5 "/>
<text text-anchor="middle" x="578.4998" y="-285.5" font-family="Helvetica,sans-Serif" font-size="10.00" fill="#000000"> </text>
<polyline fill="none" stroke="#000000" points="491.9998,-278.5 664.9998,-278.5 "/>
<text text-anchor="start" x="499.9998" y="-266.5" font-family="Helvetica,sans-Serif" font-size="10.00" fill="#000000">+ BaseHeader()</text>
<text text-anchor="start" x="499.9998" y="-255.5" font-family="Helvetica,sans-Serif" font-size="10.00" fill="#000000">+ BaseHeader()</text>
<text text-anchor="start" x="499.9998" y="-244.5" font-family="Helvetica,sans-Serif" font-size="10.00" fill="#000000">+ BaseHeader()</text>
<text text-anchor="start" x="499.9998" y="-233.5" font-family="Helvetica,sans-Serif" font-size="10.00" fill="#000000">+ size()</text>
<text text-anchor="start" x="499.9998" y="-222.5" font-family="Helvetica,sans-Serif" font-size="10.00" fill="#000000">+ data()</text>
<text text-anchor="start" x="499.9998" y="-211.5" font-family="Helvetica,sans-Serif" font-size="10.00" fill="#000000">+ next()</text>
<text text-anchor="start" x="499.9998" y="-200.5" font-family="Helvetica,sans-Serif" font-size="10.00" fill="#000000">+ next()</text>
<text text-anchor="start" x="499.9998" y="-189.5" font-family="Helvetica,sans-Serif" font-size="10.00" fill="#000000">+ sanityCheck()</text>
<text text-anchor="start" x="499.9998" y="-178.5" font-family="Helvetica,sans-Serif" font-size="10.00" fill="#000000">+ throwInconsistentStackError()</text>
<text text-anchor="start" x="499.9998" y="-167.5" font-family="Helvetica,sans-Serif" font-size="10.00" fill="#000000">+ get()</text>
<text text-anchor="start" x="499.9998" y="-156.5" font-family="Helvetica,sans-Serif" font-size="10.00" fill="#000000">+ get()</text>
</a>
</g>
</g>
<!-- Node3&#45;&gt;Node2 -->
<g id="edge1" class="edge">
<title>Node3&#45;&gt;Node2</title>
<path fill="none" stroke="#191970" d="M655.7592,-141.3156C670.6055,-123.6973 685.5339,-105.9817 698.4455,-90.6593"/>
<polygon fill="none" stroke="#191970" points="652.7187,-139.4923 648.9512,-149.3947 658.0716,-144.003 652.7187,-139.4923"/>
</g>
<!-- Node4 -->
<g id="node3" class="node">
<title>Node4</title>
<g id="a_node3"><a xlink:href="../../d9/db3/structo2_1_1header_1_1Descriptor.html" target="_top" xlink:title="{o2::header::Descriptor\l\&lt; gSizeHeaderDescriptionString \&gt;\n||+ Descriptor()\l+ Descriptor()\l+ Descriptor()\l+ Descriptor()\l+ operator=()\l+ operator ItgType()\l+ runtimeInit()\l+ operator==()\l+ operator==()\l+ operator\&lt;()\l+ operator!=()\l+ operator!=()\l+ as()\l+ print()\l}">
<polygon fill="none" stroke="#000000" points="281.9998,-419.5 281.9998,-630.5 466.9998,-630.5 466.9998,-419.5 281.9998,-419.5"/>
<text text-anchor="start" x="289.9998" y="-618.5" font-family="Helvetica,sans-Serif" font-size="10.00" fill="#000000">o2::header::Descriptor</text>
<text text-anchor="middle" x="374.4998" y="-607.5" font-family="Helvetica,sans-Serif" font-size="10.00" fill="#000000">&lt; gSizeHeaderDescriptionString &gt;</text>
<polyline fill="none" stroke="#000000" points="281.9998,-600.5 466.9998,-600.5 "/>
<text text-anchor="middle" x="374.4998" y="-588.5" font-family="Helvetica,sans-Serif" font-size="10.00" fill="#000000"> </text>
<polyline fill="none" stroke="#000000" points="281.9998,-581.5 466.9998,-581.5 "/>
<text text-anchor="start" x="289.9998" y="-569.5" font-family="Helvetica,sans-Serif" font-size="10.00" fill="#000000">+ Descriptor()</text>
<text text-anchor="start" x="289.9998" y="-558.5" font-family="Helvetica,sans-Serif" font-size="10.00" fill="#000000">+ Descriptor()</text>
<text text-anchor="start" x="289.9998" y="-547.5" font-family="Helvetica,sans-Serif" font-size="10.00" fill="#000000">+ Descriptor()</text>
<text text-anchor="start" x="289.9998" y="-536.5" font-family="Helvetica,sans-Serif" font-size="10.00" fill="#000000">+ Descriptor()</text>
<text text-anchor="start" x="289.9998" y="-525.5" font-family="Helvetica,sans-Serif" font-size="10.00" fill="#000000">+ operator=()</text>
<text text-anchor="start" x="289.9998" y="-514.5" font-family="Helvetica,sans-Serif" font-size="10.00" fill="#000000">+ operator ItgType()</text>
<text text-anchor="start" x="289.9998" y="-503.5" font-family="Helvetica,sans-Serif" font-size="10.00" fill="#000000">+ runtimeInit()</text>
<text text-anchor="start" x="289.9998" y="-492.5" font-family="Helvetica,sans-Serif" font-size="10.00" fill="#000000">+ operator==()</text>
<text text-anchor="start" x="289.9998" y="-481.5" font-family="Helvetica,sans-Serif" font-size="10.00" fill="#000000">+ operator==()</text>
<text text-anchor="start" x="289.9998" y="-470.5" font-family="Helvetica,sans-Serif" font-size="10.00" fill="#000000">+ operator&lt;()</text>
<text text-anchor="start" x="289.9998" y="-459.5" font-family="Helvetica,sans-Serif" font-size="10.00" fill="#000000">+ operator!=()</text>
<text text-anchor="start" x="289.9998" y="-448.5" font-family="Helvetica,sans-Serif" font-size="10.00" fill="#000000">+ operator!=()</text>
<text text-anchor="start" x="289.9998" y="-437.5" font-family="Helvetica,sans-Serif" font-size="10.00" fill="#000000">+ as()</text>
<text text-anchor="start" x="289.9998" y="-426.5" font-family="Helvetica,sans-Serif" font-size="10.00" fill="#000000">+ print()</text>
</a>
</g>
</g>
<!-- Node4&#45;&gt;Node3 -->
<g id="edge2" class="edge">
<title>Node4&#45;&gt;Node3</title>
<path fill="none" stroke="#404040" d="M411.2317,-419.2835C423.8345,-390.4862 439.6211,-360.2881 458.4998,-335 465.8131,-325.2037 474.2323,-315.7179 483.148,-306.7331"/>
<polygon fill="none" stroke="#404040" points="483.2319,-306.6513 484.7391,-299.5994 491.8282,-298.2784 490.321,-305.3303 483.2319,-306.6513"/>
<text text-anchor="middle" x="491.4998" y="-365.5" font-family="Helvetica,sans-Serif" font-size="10.00" fill="#000000"> +description</text>
</g>
<!-- Node5 -->
<g id="node4" class="node">
<title>Node5</title>
<polygon fill="none" stroke="#bfbfbf" points="558.9998,-970.5 558.9998,-1027.5 597.9998,-1027.5 597.9998,-970.5 558.9998,-970.5"/>
<text text-anchor="middle" x="578.4998" y="-1015.5" font-family="Helvetica,sans-Serif" font-size="10.00" fill="#000000">Type</text>
<polyline fill="none" stroke="#bfbfbf" points="558.9998,-1008.5 597.9998,-1008.5 "/>
<text text-anchor="middle" x="578.4998" y="-996.5" font-family="Helvetica,sans-Serif" font-size="10.00" fill="#000000"> </text>
<polyline fill="none" stroke="#bfbfbf" points="558.9998,-989.5 597.9998,-989.5 "/>
<text text-anchor="middle" x="578.4998" y="-977.5" font-family="Helvetica,sans-Serif" font-size="10.00" fill="#000000"> </text>
</g>
<!-- Node5&#45;&gt;Node4 -->
<g id="edge3" class="edge">
<title>Node5&#45;&gt;Node4</title>
<path fill="none" stroke="#404040" d="M598.1476,-990.0661C626.6713,-975.8666 678.437,-945.1635 699.4998,-901 740.0601,-815.9548 755.3948,-764.8523 699.4998,-689 663.8906,-640.6766 628.7486,-663.4995 570.4998,-649 532.2197,-639.4712 515.9731,-649.5789 477.9673,-631.6548"/>
<polygon fill="none" stroke="#404040" points="477.9029,-631.6218 470.7385,-632.4419 467.226,-626.144 474.3904,-625.324 477.9029,-631.6218"/>
<text text-anchor="middle" x="748.9998" y="-792.5" font-family="Helvetica,sans-Serif" font-size="10.00" fill="#000000"> +itg</text>
</g>
<!-- Node9 -->
<g id="node8" class="node">
<title>Node9</title>
<g id="a_node8"><a xlink:href="../../d9/db3/structo2_1_1header_1_1Descriptor.html" target="_top" xlink:title="{o2::header::Descriptor\l\&lt; N, PrinterPolicy \&gt;\n||+ Descriptor()\l+ Descriptor()\l+ Descriptor()\l+ operator=()\l+ operator ItgType()\l+ Descriptor()\l+ runtimeInit()\l+ operator==()\l+ operator\&lt;()\l+ operator!=()\l+ operator==()\l+ operator!=()\l+ as()\l+ print()\l}">
<polygon fill="none" stroke="#000000" points="318.9998,-689.5 318.9998,-900.5 443.9998,-900.5 443.9998,-689.5 318.9998,-689.5"/>
<text text-anchor="start" x="326.9998" y="-888.5" font-family="Helvetica,sans-Serif" font-size="10.00" fill="#000000">o2::header::Descriptor</text>
<text text-anchor="middle" x="381.4998" y="-877.5" font-family="Helvetica,sans-Serif" font-size="10.00" fill="#000000">&lt; N, PrinterPolicy &gt;</text>
<polyline fill="none" stroke="#000000" points="318.9998,-870.5 443.9998,-870.5 "/>
<text text-anchor="middle" x="381.4998" y="-858.5" font-family="Helvetica,sans-Serif" font-size="10.00" fill="#000000"> </text>
<polyline fill="none" stroke="#000000" points="318.9998,-851.5 443.9998,-851.5 "/>
<text text-anchor="start" x="326.9998" y="-839.5" font-family="Helvetica,sans-Serif" font-size="10.00" fill="#000000">+ Descriptor()</text>
<text text-anchor="start" x="326.9998" y="-828.5" font-family="Helvetica,sans-Serif" font-size="10.00" fill="#000000">+ Descriptor()</text>
<text text-anchor="start" x="326.9998" y="-817.5" font-family="Helvetica,sans-Serif" font-size="10.00" fill="#000000">+ Descriptor()</text>
<text text-anchor="start" x="326.9998" y="-806.5" font-family="Helvetica,sans-Serif" font-size="10.00" fill="#000000">+ operator=()</text>
<text text-anchor="start" x="326.9998" y="-795.5" font-family="Helvetica,sans-Serif" font-size="10.00" fill="#000000">+ operator ItgType()</text>
<text text-anchor="start" x="326.9998" y="-784.5" font-family="Helvetica,sans-Serif" font-size="10.00" fill="#000000">+ Descriptor()</text>
<text text-anchor="start" x="326.9998" y="-773.5" font-family="Helvetica,sans-Serif" font-size="10.00" fill="#000000">+ runtimeInit()</text>
<text text-anchor="start" x="326.9998" y="-762.5" font-family="Helvetica,sans-Serif" font-size="10.00" fill="#000000">+ operator==()</text>
<text text-anchor="start" x="326.9998" y="-751.5" font-family="Helvetica,sans-Serif" font-size="10.00" fill="#000000">+ operator&lt;()</text>
<text text-anchor="start" x="326.9998" y="-740.5" font-family="Helvetica,sans-Serif" font-size="10.00" fill="#000000">+ operator!=()</text>
<text text-anchor="start" x="326.9998" y="-729.5" font-family="Helvetica,sans-Serif" font-size="10.00" fill="#000000">+ operator==()</text>
<text text-anchor="start" x="326.9998" y="-718.5" font-family="Helvetica,sans-Serif" font-size="10.00" fill="#000000">+ operator!=()</text>
<text text-anchor="start" x="326.9998" y="-707.5" font-family="Helvetica,sans-Serif" font-size="10.00" fill="#000000">+ as()</text>
<text text-anchor="start" x="326.9998" y="-696.5" font-family="Helvetica,sans-Serif" font-size="10.00" fill="#000000">+ print()</text>
</a>
</g>
</g>
<!-- Node5&#45;&gt;Node9 -->
<g id="edge8" class="edge">
<title>Node5&#45;&gt;Node9</title>
<path fill="none" stroke="#404040" d="M558.9156,-985.4411C534.0256,-967.686 490.4599,-934.8218 458.4998,-901 456.381,-898.7578 454.2706,-896.4557 452.1737,-894.1063"/>
<polygon fill="none" stroke="#404040" points="452.0093,-893.916 445.0596,-891.9918 444.1629,-884.8366 451.1125,-886.7608 452.0093,-893.916"/>
<text text-anchor="middle" x="524.9998" y="-933" font-family="Helvetica,sans-Serif" font-size="10.00" fill="#000000"> +itg</text>
</g>
<!-- Node10 -->
<g id="node9" class="node">
<title>Node10</title>
<g id="a_node9"><a xlink:href="../../d9/db3/structo2_1_1header_1_1Descriptor.html" target="_top" xlink:title="{o2::header::Descriptor\l\&lt; gSizeSerializationMethodString \&gt;\n||+ Descriptor()\l+ Descriptor()\l+ Descriptor()\l+ Descriptor()\l+ operator=()\l+ operator ItgType()\l+ runtimeInit()\l+ operator==()\l+ operator==()\l+ operator\&lt;()\l+ operator!=()\l+ operator!=()\l+ as()\l+ print()\l}">
<polygon fill="none" stroke="#000000" points="72.9998,-419.5 72.9998,-630.5 263.9998,-630.5 263.9998,-419.5 72.9998,-419.5"/>
<text text-anchor="start" x="80.9998" y="-618.5" font-family="Helvetica,sans-Serif" font-size="10.00" fill="#000000">o2::header::Descriptor</text>
<text text-anchor="middle" x="168.4998" y="-607.5" font-family="Helvetica,sans-Serif" font-size="10.00" fill="#000000">&lt; gSizeSerializationMethodString &gt;</text>
<polyline fill="none" stroke="#000000" points="72.9998,-600.5 263.9998,-600.5 "/>
<text text-anchor="middle" x="168.4998" y="-588.5" font-family="Helvetica,sans-Serif" font-size="10.00" fill="#000000"> </text>
<polyline fill="none" stroke="#000000" points="72.9998,-581.5 263.9998,-581.5 "/>
<text text-anchor="start" x="80.9998" y="-569.5" font-family="Helvetica,sans-Serif" font-size="10.00" fill="#000000">+ Descriptor()</text>
<text text-anchor="start" x="80.9998" y="-558.5" font-family="Helvetica,sans-Serif" font-size="10.00" fill="#000000">+ Descriptor()</text>
<text text-anchor="start" x="80.9998" y="-547.5" font-family="Helvetica,sans-Serif" font-size="10.00" fill="#000000">+ Descriptor()</text>
<text text-anchor="start" x="80.9998" y="-536.5" font-family="Helvetica,sans-Serif" font-size="10.00" fill="#000000">+ Descriptor()</text>
<text text-anchor="start" x="80.9998" y="-525.5" font-family="Helvetica,sans-Serif" font-size="10.00" fill="#000000">+ operator=()</text>
<text text-anchor="start" x="80.9998" y="-514.5" font-family="Helvetica,sans-Serif" font-size="10.00" fill="#000000">+ operator ItgType()</text>
<text text-anchor="start" x="80.9998" y="-503.5" font-family="Helvetica,sans-Serif" font-size="10.00" fill="#000000">+ runtimeInit()</text>
<text text-anchor="start" x="80.9998" y="-492.5" font-family="Helvetica,sans-Serif" font-size="10.00" fill="#000000">+ operator==()</text>
<text text-anchor="start" x="80.9998" y="-481.5" font-family="Helvetica,sans-Serif" font-size="10.00" fill="#000000">+ operator==()</text>
<text text-anchor="start" x="80.9998" y="-470.5" font-family="Helvetica,sans-Serif" font-size="10.00" fill="#000000">+ operator&lt;()</text>
<text text-anchor="start" x="80.9998" y="-459.5" font-family="Helvetica,sans-Serif" font-size="10.00" fill="#000000">+ operator!=()</text>
<text text-anchor="start" x="80.9998" y="-448.5" font-family="Helvetica,sans-Serif" font-size="10.00" fill="#000000">+ operator!=()</text>
<text text-anchor="start" x="80.9998" y="-437.5" font-family="Helvetica,sans-Serif" font-size="10.00" fill="#000000">+ as()</text>
<text text-anchor="start" x="80.9998" y="-426.5" font-family="Helvetica,sans-Serif" font-size="10.00" fill="#000000">+ print()</text>
</a>
</g>
</g>
<!-- Node5&#45;&gt;Node10 -->
<g id="edge14" class="edge">
<title>Node5&#45;&gt;Node10</title>
<path fill="none" stroke="#404040" d="M577.3116,-970.2714C574.0404,-897.4461 563.9018,-709.8907 545.4998,-689 522.5551,-662.9523 502.9865,-680.1423 469.4998,-671 437.6304,-662.2993 430.7307,-656.2476 398.4998,-649 346.8666,-637.3894 325.7412,-654.1017 275.1973,-631.7209"/>
<polygon fill="none" stroke="#404040" points="275.1385,-631.6929 268,-632.7135 264.3124,-626.5166 271.4509,-625.496 275.1385,-631.6929"/>
<text text-anchor="middle" x="585.9998" y="-792.5" font-family="Helvetica,sans-Serif" font-size="10.00" fill="#000000"> +itg</text>
</g>
<!-- Node6 -->
<g id="node5" class="node">
<title>Node6</title>
<polygon fill="none" stroke="#bfbfbf" points="85.4998,-970.5 85.4998,-1027.5 123.4998,-1027.5 123.4998,-970.5 85.4998,-970.5"/>
<text text-anchor="middle" x="104.4998" y="-1015.5" font-family="Helvetica,sans-Serif" font-size="10.00" fill="#000000">char</text>
<polyline fill="none" stroke="#bfbfbf" points="85.4998,-1008.5 123.4998,-1008.5 "/>
<text text-anchor="middle" x="104.4998" y="-996.5" font-family="Helvetica,sans-Serif" font-size="10.00" fill="#000000"> </text>
<polyline fill="none" stroke="#bfbfbf" points="85.4998,-989.5 123.4998,-989.5 "/>
<text text-anchor="middle" x="104.4998" y="-977.5" font-family="Helvetica,sans-Serif" font-size="10.00" fill="#000000"> </text>
</g>
<!-- Node6&#45;&gt;Node3 -->
<g id="edge12" class="edge">
<title>Node6&#45;&gt;Node3</title>
<path fill="none" stroke="#404040" d="M90.3686,-970.4792C47.0452,-878.5257 -72.947,-586.1515 63.4998,-419 117.1117,-353.3237 346.0245,-288.8723 479.9321,-255.8217"/>
<polygon fill="none" stroke="#404040" points="480.1344,-255.7722 485.0098,-250.459 491.7895,-252.9159 486.914,-258.2291 480.1344,-255.7722"/>
<text text-anchor="middle" x="37.4998" y="-657.5" font-family="Helvetica,sans-Serif" font-size="10.00" fill="#000000"> +magicString</text>
</g>
<!-- Node6&#45;&gt;Node4 -->
<g id="edge4" class="edge">
<title>Node6&#45;&gt;Node4</title>
<path fill="none" stroke="#404040" d="M123.8114,-981.6041C142.5346,-963.4802 170.0254,-933.2653 183.4998,-901 201.7704,-857.2497 175.0878,-723.603 207.4998,-689 238.3713,-656.0416 271.8061,-698.6636 307.4998,-671 318.1555,-662.7415 327.176,-652.3961 334.7989,-641.0464"/>
<polygon fill="none" stroke="#404040" points="334.8078,-641.032 334.5789,-633.8245 341.1439,-630.8411 341.3728,-638.0486 334.8078,-641.032"/>
<text text-anchor="middle" x="219.9998" y="-792.5" font-family="Helvetica,sans-Serif" font-size="10.00" fill="#000000"> +str</text>
</g>
<!-- Node6&#45;&gt;Node9 -->
<g id="edge9" class="edge">
<title>Node6&#45;&gt;Node9</title>
<path fill="none" stroke="#404040" d="M123.7425,-989.2148C153.8511,-973.9547 213.9886,-943.6787 265.4998,-919 282.7163,-910.7516 289.7458,-913.1147 304.4998,-901 306.3456,-899.4844 308.1695,-897.9148 309.9702,-896.2982"/>
<polygon fill="none" stroke="#404040" points="310.1131,-896.1611 311.6753,-889.1212 318.7745,-887.8556 317.2123,-894.8955 310.1131,-896.1611"/>
<text text-anchor="middle" x="277.9998" y="-933" font-family="Helvetica,sans-Serif" font-size="10.00" fill="#000000"> +str</text>
</g>
<!-- Node6&#45;&gt;Node10 -->
<g id="edge15" class="edge">
<title>Node6&#45;&gt;Node10</title>
<path fill="none" stroke="#404040" d="M97.8182,-970.3304C86.0766,-915.0761 65.0997,-790.3433 88.4998,-689 92.1129,-673.3519 97.4323,-657.47 103.6404,-642.0606"/>
<polygon fill="none" stroke="#404040" points="103.6657,-642.0001 102.2972,-634.9201 108.3063,-630.9337 109.6748,-638.0138 103.6657,-642.0001"/>
<text text-anchor="middle" x="100.9998" y="-792.5" font-family="Helvetica,sans-Serif" font-size="10.00" fill="#000000"> +str</text>
</g>
<!-- Node7 -->
<g id="node6" class="node">
<title>Node7</title>
<polygon fill="none" stroke="#bfbfbf" points="465.9998,-970.5 465.9998,-1027.5 494.9998,-1027.5 494.9998,-970.5 465.9998,-970.5"/>
<text text-anchor="middle" x="480.4998" y="-1015.5" font-family="Helvetica,sans-Serif" font-size="10.00" fill="#000000">int</text>
<polyline fill="none" stroke="#bfbfbf" points="465.9998,-1008.5 494.9998,-1008.5 "/>
<text text-anchor="middle" x="480.4998" y="-996.5" font-family="Helvetica,sans-Serif" font-size="10.00" fill="#000000"> </text>
<polyline fill="none" stroke="#bfbfbf" points="465.9998,-989.5 494.9998,-989.5 "/>
<text text-anchor="middle" x="480.4998" y="-977.5" font-family="Helvetica,sans-Serif" font-size="10.00" fill="#000000"> </text>
</g>
<!-- Node7&#45;&gt;Node4 -->
<g id="edge5" class="edge">
<title>Node7&#45;&gt;Node4</title>
<path fill="none" stroke="#404040" d="M495.0252,-992.7411C522.3322,-980.0662 580.6274,-948.4728 603.4998,-901 644.3968,-816.1162 652.8328,-769.275 603.4998,-689 582.8941,-655.4702 560.5875,-664.7008 524.4998,-649 506.134,-641.0096 497.4156,-642.8876 477.6061,-631.6976"/>
<polygon fill="none" stroke="#404040" points="477.4819,-631.6208 470.2749,-631.8653 467.2774,-625.3067 474.4843,-625.0623 477.4819,-631.6208"/>
<text text-anchor="middle" x="666.4998" y="-803.5" font-family="Helvetica,sans-Serif" font-size="10.00" fill="#000000"> +arraySize</text>
<text text-anchor="middle" x="666.4998" y="-792.5" font-family="Helvetica,sans-Serif" font-size="10.00" fill="#000000">+size</text>
<text text-anchor="middle" x="666.4998" y="-781.5" font-family="Helvetica,sans-Serif" font-size="10.00" fill="#000000">+bitcount</text>
</g>
<!-- Node7&#45;&gt;Node9 -->
<g id="edge10" class="edge">
<title>Node7&#45;&gt;Node9</title>
<path fill="none" stroke="#404040" d="M465.7077,-993.5865C448.9763,-986.6498 422.2724,-972.9579 408.4998,-952 400.668,-940.0823 394.8958,-926.5963 390.6712,-912.6571"/>
<polygon fill="none" stroke="#404040" points="390.6146,-912.4481 385.1842,-907.7035 387.4753,-900.866 392.9056,-905.6106 390.6146,-912.4481"/>
<text text-anchor="middle" x="437.4998" y="-944" font-family="Helvetica,sans-Serif" font-size="10.00" fill="#000000"> +arraySize</text>
<text text-anchor="middle" x="437.4998" y="-933" font-family="Helvetica,sans-Serif" font-size="10.00" fill="#000000">+size</text>
<text text-anchor="middle" x="437.4998" y="-922" font-family="Helvetica,sans-Serif" font-size="10.00" fill="#000000">+bitcount</text>
</g>
<!-- Node7&#45;&gt;Node10 -->
<g id="edge16" class="edge">
<title>Node7&#45;&gt;Node10</title>
<path fill="none" stroke="#404040" d="M481.7507,-970.4336C484.1506,-902.1892 486.474,-732.1462 452.4998,-689 418.2416,-645.4932 387.3249,-665.6126 334.4998,-649 310.3357,-641.4008 299.711,-644.6636 274.9464,-631.8118"/>
<polygon fill="none" stroke="#404040" points="274.7191,-631.6834 267.5275,-632.2135 264.2722,-625.7789 271.4638,-625.2489 274.7191,-631.6834"/>
<text text-anchor="middle" x="512.4998" y="-803.5" font-family="Helvetica,sans-Serif" font-size="10.00" fill="#000000"> +arraySize</text>
<text text-anchor="middle" x="512.4998" y="-792.5" font-family="Helvetica,sans-Serif" font-size="10.00" fill="#000000">+size</text>
<text text-anchor="middle" x="512.4998" y="-781.5" font-family="Helvetica,sans-Serif" font-size="10.00" fill="#000000">+bitcount</text>
</g>
<!-- Node8 -->
<g id="node7" class="node">
<title>Node8</title>
<polygon fill="none" stroke="#bfbfbf" points="212.9998,-970.5 212.9998,-1027.5 319.9998,-1027.5 319.9998,-970.5 212.9998,-970.5"/>
<text text-anchor="middle" x="266.4998" y="-1015.5" font-family="Helvetica,sans-Serif" font-size="10.00" fill="#000000">anonymous:+@72</text>
<polyline fill="none" stroke="#bfbfbf" points="212.9998,-1008.5 319.9998,-1008.5 "/>
<text text-anchor="middle" x="266.4998" y="-996.5" font-family="Helvetica,sans-Serif" font-size="10.00" fill="#000000"> </text>
<polyline fill="none" stroke="#bfbfbf" points="212.9998,-989.5 319.9998,-989.5 "/>
<text text-anchor="middle" x="266.4998" y="-977.5" font-family="Helvetica,sans-Serif" font-size="10.00" fill="#000000"> </text>
</g>
<!-- Node8&#45;&gt;Node4 -->
<g id="edge6" class="edge">
<title>Node8&#45;&gt;Node4</title>
<path fill="none" stroke="#404040" d="M257.2989,-970.1519C240.2704,-910.6715 211.1195,-772.957 275.4998,-689 292.4412,-666.907 316.1151,-690.9837 335.4998,-671 343.6344,-662.614 350.1191,-652.7277 355.2817,-642.1169"/>
<polygon fill="none" stroke="#404040" points="355.4059,-641.8316 354.134,-634.7336 360.1968,-630.8295 361.4687,-637.9275 355.4059,-641.8316"/>
<text text-anchor="middle" x="292.4998" y="-792.5" font-family="Helvetica,sans-Serif" font-size="10.00" fill="#000000"> +@72</text>
</g>
<!-- Node8&#45;&gt;Node9 -->
<g id="edge11" class="edge">
<title>Node8&#45;&gt;Node9</title>
<path fill="none" stroke="#404040" d="M282.7326,-970.2045C291.7654,-954.1809 303.67,-933.0632 316.0763,-911.0555"/>
<polygon fill="none" stroke="#404040" points="316.1061,-911.0026 315.5681,-903.8115 321.9991,-900.5491 322.5371,-907.7401 316.1061,-911.0026"/>
<text text-anchor="middle" x="327.4998" y="-933" font-family="Helvetica,sans-Serif" font-size="10.00" fill="#000000"> +@72</text>
</g>
<!-- Node8&#45;&gt;Node10 -->
<g id="edge17" class="edge">
<title>Node8&#45;&gt;Node10</title>
<path fill="none" stroke="#404040" d="M245.7256,-970.4943C232.3346,-953.7224 213.6924,-933.1045 193.4998,-919 176.1783,-906.901 161.2767,-918.5421 149.4998,-901 122.0303,-860.0833 133.5163,-736.9012 147.595,-642.5707"/>
<polygon fill="none" stroke="#404040" points="147.6061,-642.4975 144.5551,-635.9636 149.4129,-630.6343 152.4639,-637.1681 147.6061,-642.4975"/>
<text text-anchor="middle" x="166.4998" y="-792.5" font-family="Helvetica,sans-Serif" font-size="10.00" fill="#000000"> +@72</text>
</g>
<!-- Node9&#45;&gt;Node4 -->
<g id="edge7" class="edge">
<title>Node9&#45;&gt;Node4</title>
<path fill="none" stroke="#ffa500" d="M388.2377,-679.1336C388.2319,-668.9414 388.0113,-658.7853 387.4998,-649 387.189,-643.0555 386.795,-636.9573 386.3392,-630.8069"/>
<polygon fill="#ffa500" stroke="#ffa500" points="384.7367,-679.3041 388.1747,-689.3256 391.7365,-679.3474 384.7367,-679.3041"/>
<text text-anchor="start" x="388.4998" y="-663" font-family="Helvetica,sans-Serif" font-size="10.00" fill="#000000"> &lt; gSizeHeaderDescription</text>
<text text-anchor="middle" x="454.4998" y="-652" font-family="Helvetica,sans-Serif" font-size="10.00" fill="#000000">String &gt;</text>
</g>
<!-- Node9&#45;&gt;Node10 -->
<g id="edge18" class="edge">
<title>Node9&#45;&gt;Node10</title>
<path fill="none" stroke="#ffa500" d="M310.9703,-693.3371C308.8573,-691.8101 306.7003,-690.3609 304.4998,-689 263.1125,-663.4052 231.3251,-704.9882 196.4998,-671 185.1404,-659.9137 177.6229,-645.728 172.757,-630.5719"/>
<polygon fill="#ffa500" stroke="#ffa500" points="308.8814,-696.1471 318.9012,-699.5904 313.2156,-690.6503 308.8814,-696.1471"/>
<text text-anchor="start" x="196.4998" y="-663" font-family="Helvetica,sans-Serif" font-size="10.00" fill="#000000"> &lt; gSizeSerializationMethod</text>
<text text-anchor="middle" x="265.4998" y="-652" font-family="Helvetica,sans-Serif" font-size="10.00" fill="#000000">String &gt;</text>
</g>
<!-- Node10&#45;&gt;Node3 -->
<g id="edge13" class="edge">
<title>Node10&#45;&gt;Node3</title>
<path fill="none" stroke="#404040" d="M253.0476,-419.0324C280.3456,-389.2546 312.2168,-358.5966 345.4998,-335 386.5084,-305.9261 437.1202,-282.5396 480.6849,-265.5315"/>
<polygon fill="none" stroke="#404040" points="480.6858,-265.5313 484.8562,-259.6484 491.8905,-261.2354 487.7201,-267.1182 480.6858,-265.5313"/>
<text text-anchor="middle" x="381.4998" y="-365.5" font-family="Helvetica,sans-Serif" font-size="10.00" fill="#000000"> +serialization</text>
</g>
<!-- Node11 -->
<g id="node10" class="node">
<title>Node11</title>
<g id="a_node10"><a xlink:href="../../d2/d5f/classunsigned_01int.html" target="_top" xlink:title="{unsigned int\n||}">
<polygon fill="none" stroke="#000000" points="484.9998,-496.5 484.9998,-553.5 561.9998,-553.5 561.9998,-496.5 484.9998,-496.5"/>
<text text-anchor="middle" x="523.4998" y="-541.5" font-family="Helvetica,sans-Serif" font-size="10.00" fill="#000000">unsigned int</text>
<polyline fill="none" stroke="#000000" points="484.9998,-534.5 561.9998,-534.5 "/>
<text text-anchor="middle" x="523.4998" y="-522.5" font-family="Helvetica,sans-Serif" font-size="10.00" fill="#000000"> </text>
<polyline fill="none" stroke="#000000" points="484.9998,-515.5 561.9998,-515.5 "/>
<text text-anchor="middle" x="523.4998" y="-503.5" font-family="Helvetica,sans-Serif" font-size="10.00" fill="#000000"> </text>
</a>
</g>
</g>
<!-- Node11&#45;&gt;Node3 -->
<g id="edge19" class="edge">
<title>Node11&#45;&gt;Node3</title>
<path fill="none" stroke="#404040" d="M522.887,-496.2627C522.7032,-458.6911 524.4985,-391.0637 537.4998,-335 538.0033,-332.8285 538.5463,-330.6429 539.124,-328.4488"/>
<polygon fill="none" stroke="#404040" points="539.1958,-328.1996 537.0135,-321.3266 542.5185,-316.6688 544.7007,-323.5418 539.1958,-328.1996"/>
<text text-anchor="middle" x="574.4998" y="-365.5" font-family="Helvetica,sans-Serif" font-size="10.00" fill="#000000"> +sMagicString</text>
</g>
<!-- Node12 -->
<g id="node11" class="node">
<title>Node12</title>
<polygon fill="none" stroke="#bfbfbf" points="579.9998,-496.5 579.9998,-553.5 686.9998,-553.5 686.9998,-496.5 579.9998,-496.5"/>
<text text-anchor="middle" x="633.4998" y="-541.5" font-family="Helvetica,sans-Serif" font-size="10.00" fill="#000000">anonymous:+@74</text>
<polyline fill="none" stroke="#bfbfbf" points="579.9998,-534.5 686.9998,-534.5 "/>
<text text-anchor="middle" x="633.4998" y="-522.5" font-family="Helvetica,sans-Serif" font-size="10.00" fill="#000000"> </text>
<polyline fill="none" stroke="#bfbfbf" points="579.9998,-515.5 686.9998,-515.5 "/>
<text text-anchor="middle" x="633.4998" y="-503.5" font-family="Helvetica,sans-Serif" font-size="10.00" fill="#000000"> </text>
</g>
<!-- Node12&#45;&gt;Node3 -->
<g id="edge20" class="edge">
<title>Node12&#45;&gt;Node3</title>
<path fill="none" stroke="#404040" d="M631.9526,-496.3848C629.5273,-458.9451 623.7754,-391.4602 611.4998,-335 611.0308,-332.8431 610.5345,-330.6672 610.0144,-328.4786"/>
<polygon fill="none" stroke="#404040" points="609.9747,-328.3217 604.6228,-323.4888 607.0256,-316.6897 612.3775,-321.5227 609.9747,-328.3217"/>
<text text-anchor="middle" x="639.4998" y="-365.5" font-family="Helvetica,sans-Serif" font-size="10.00" fill="#000000"> +@74</text>
</g>
<!-- Node13 -->
<g id="node12" class="node">
<title>Node13</title>
<polygon fill="none" stroke="#bfbfbf" points="704.9998,-496.5 704.9998,-553.5 765.9998,-553.5 765.9998,-496.5 704.9998,-496.5"/>
<text text-anchor="middle" x="735.4998" y="-541.5" font-family="Helvetica,sans-Serif" font-size="10.00" fill="#000000">unsigned</text>
<polyline fill="none" stroke="#bfbfbf" points="704.9998,-534.5 765.9998,-534.5 "/>
<text text-anchor="middle" x="735.4998" y="-522.5" font-family="Helvetica,sans-Serif" font-size="10.00" fill="#000000"> </text>
<polyline fill="none" stroke="#bfbfbf" points="704.9998,-515.5 765.9998,-515.5 "/>
<text text-anchor="middle" x="735.4998" y="-503.5" font-family="Helvetica,sans-Serif" font-size="10.00" fill="#000000"> </text>
</g>
<!-- Node13&#45;&gt;Node3 -->
<g id="edge21" class="edge">
<title>Node13&#45;&gt;Node3</title>
<path fill="none" stroke="#404040" d="M725.3902,-496.142C709.1305,-450.3372 677.2966,-363.2798 660.4998,-335 658.8436,-332.2117 657.1173,-329.4172 655.3336,-326.6259"/>
<polygon fill="none" stroke="#404040" points="655.2828,-326.5491 648.6325,-323.761 648.6483,-316.5499 655.2986,-319.338 655.2828,-326.5491"/>
<text text-anchor="middle" x="734.9998" y="-393" font-family="Helvetica,sans-Serif" font-size="10.00" fill="#000000"> +headerVersion</text>
<text text-anchor="middle" x="734.9998" y="-382" font-family="Helvetica,sans-Serif" font-size="10.00" fill="#000000">+headerSize</text>
<text text-anchor="middle" x="734.9998" y="-371" font-family="Helvetica,sans-Serif" font-size="10.00" fill="#000000">+flagsNextHeader</text>
<text text-anchor="middle" x="734.9998" y="-360" font-family="Helvetica,sans-Serif" font-size="10.00" fill="#000000">+magicStringInt</text>
<text text-anchor="middle" x="734.9998" y="-349" font-family="Helvetica,sans-Serif" font-size="10.00" fill="#000000">+flagsUnused</text>
<text text-anchor="middle" x="734.9998" y="-338" font-family="Helvetica,sans-Serif" font-size="10.00" fill="#000000">+flags</text>
</g>
<!-- Node14 -->
<g id="node13" class="node">
<title>Node14</title>
<polygon fill="none" stroke="#bfbfbf" points="783.9998,-496.5 783.9998,-553.5 826.9998,-553.5 826.9998,-496.5 783.9998,-496.5"/>
<text text-anchor="middle" x="805.4998" y="-541.5" font-family="Helvetica,sans-Serif" font-size="10.00" fill="#000000">const</text>
<polyline fill="none" stroke="#bfbfbf" points="783.9998,-534.5 826.9998,-534.5 "/>
<text text-anchor="middle" x="805.4998" y="-522.5" font-family="Helvetica,sans-Serif" font-size="10.00" fill="#000000"> </text>
<polyline fill="none" stroke="#bfbfbf" points="783.9998,-515.5 826.9998,-515.5 "/>
<text text-anchor="middle" x="805.4998" y="-503.5" font-family="Helvetica,sans-Serif" font-size="10.00" fill="#000000"> </text>
</g>
<!-- Node14&#45;&gt;Node3 -->
<g id="edge22" class="edge">
<title>Node14&#45;&gt;Node3</title>
<path fill="none" stroke="#404040" d="M806.2298,-496.3104C806.7935,-448.9859 804.9739,-357.5391 783.4998,-335 752.078,-302.0199 723.3558,-332.7889 676.5462,-316.8573"/>
<polygon fill="none" stroke="#404040" points="676.371,-316.7855 669.3019,-318.2096 665.2684,-312.232 672.3375,-310.8079 676.371,-316.7855"/>
<text text-anchor="middle" x="856.9998" y="-376.5" font-family="Helvetica,sans-Serif" font-size="10.00" fill="#000000"> +sHeaderType</text>
<text text-anchor="middle" x="856.9998" y="-365.5" font-family="Helvetica,sans-Serif" font-size="10.00" fill="#000000">+sSerializationMethod</text>
<text text-anchor="middle" x="856.9998" y="-354.5" font-family="Helvetica,sans-Serif" font-size="10.00" fill="#000000">+sVersion</text>
</g>
<!-- Node15 -->
<g id="node14" class="node">
<title>Node15</title>
<polygon fill="none" stroke="#bfbfbf" points="885.9998,-496.5 885.9998,-553.5 992.9998,-553.5 992.9998,-496.5 885.9998,-496.5"/>
<text text-anchor="middle" x="939.4998" y="-541.5" font-family="Helvetica,sans-Serif" font-size="10.00" fill="#000000">anonymous:+@76</text>
<polyline fill="none" stroke="#bfbfbf" points="885.9998,-534.5 992.9998,-534.5 "/>
<text text-anchor="middle" x="939.4998" y="-522.5" font-family="Helvetica,sans-Serif" font-size="10.00" fill="#000000"> </text>
<polyline fill="none" stroke="#bfbfbf" points="885.9998,-515.5 992.9998,-515.5 "/>
<text text-anchor="middle" x="939.4998" y="-503.5" font-family="Helvetica,sans-Serif" font-size="10.00" fill="#000000"> </text>
</g>
<!-- Node15&#45;&gt;Node3 -->
<g id="edge23" class="edge">
<title>Node15&#45;&gt;Node3</title>
<path fill="none" stroke="#404040" d="M945.9344,-496.326C953.484,-454.3147 959.9971,-376.5318 916.4998,-335 879.8586,-300.0145 742.3811,-333.2592 676.8339,-316.4986"/>
<polygon fill="none" stroke="#404040" points="676.4917,-316.385 669.5368,-318.2903 665.1032,-312.6032 672.058,-310.6979 676.4917,-316.385"/>
<text text-anchor="middle" x="964.4998" y="-365.5" font-family="Helvetica,sans-Serif" font-size="10.00" fill="#000000"> +@76</text>
</g>
<!-- Node16 -->
<g id="node15" class="node">
<title>Node16</title>
<polygon fill="none" stroke="#bfbfbf" points="682.9998,-204.5 682.9998,-261.5 789.9998,-261.5 789.9998,-204.5 682.9998,-204.5"/>
<text text-anchor="middle" x="736.4998" y="-249.5" font-family="Helvetica,sans-Serif" font-size="10.00" fill="#000000">InputChannelState</text>
<polyline fill="none" stroke="#bfbfbf" points="682.9998,-242.5 789.9998,-242.5 "/>
<text text-anchor="middle" x="736.4998" y="-230.5" font-family="Helvetica,sans-Serif" font-size="10.00" fill="#000000"> </text>
<polyline fill="none" stroke="#bfbfbf" points="682.9998,-223.5 789.9998,-223.5 "/>
<text text-anchor="middle" x="736.4998" y="-211.5" font-family="Helvetica,sans-Serif" font-size="10.00" fill="#000000"> </text>
</g>
<!-- Node16&#45;&gt;Node2 -->
<g id="edge24" class="edge">
<title>Node16&#45;&gt;Node2</title>
<path fill="none" stroke="#404040" d="M736.4998,-204.114C736.4998,-177.3341 736.4998,-136.7038 736.4998,-103.2704"/>
<polygon fill="none" stroke="#404040" points="736.4999,-102.853 732.4998,-96.8531 736.4998,-90.853 740.4998,-96.853 736.4999,-102.853"/>
<text text-anchor="middle" x="754.9998" y="-117.5" font-family="Helvetica,sans-Serif" font-size="10.00" fill="#000000"> +state</text>
</g>
<!-- Node17 -->
<g id="node16" class="node">
<title>Node17</title>
<polygon fill="none" stroke="#bfbfbf" points="808.4998,-204.5 808.4998,-261.5 852.4998,-261.5 852.4998,-204.5 808.4998,-204.5"/>
<text text-anchor="middle" x="830.4998" y="-249.5" font-family="Helvetica,sans-Serif" font-size="10.00" fill="#000000">static</text>
<polyline fill="none" stroke="#bfbfbf" points="808.4998,-242.5 852.4998,-242.5 "/>
<text text-anchor="middle" x="830.4998" y="-230.5" font-family="Helvetica,sans-Serif" font-size="10.00" fill="#000000"> </text>
<polyline fill="none" stroke="#bfbfbf" points="808.4998,-223.5 852.4998,-223.5 "/>
<text text-anchor="middle" x="830.4998" y="-211.5" font-family="Helvetica,sans-Serif" font-size="10.00" fill="#000000"> </text>
</g>
<!-- Node17&#45;&gt;Node2 -->
<g id="edge25" class="edge">
<title>Node17&#45;&gt;Node2</title>
<path fill="none" stroke="#404040" d="M820.5196,-204.2703C814.5876,-187.8809 806.6484,-167.0666 798.4998,-149 790.2444,-130.6967 787.6223,-126.3405 777.4998,-109 775.9658,-106.3722 774.3733,-103.6994 772.7455,-101.0115"/>
<polygon fill="none" stroke="#404040" points="772.6422,-100.8439 766.0874,-97.8378 766.3412,-90.6312 772.8959,-93.6372 772.6422,-100.8439"/>
<text text-anchor="middle" x="826.9998" y="-123" font-family="Helvetica,sans-Serif" font-size="10.00" fill="#000000"> +sHeaderType</text>
<text text-anchor="middle" x="826.9998" y="-112" font-family="Helvetica,sans-Serif" font-size="10.00" fill="#000000">+sVersion</text>
</g>
</g>
</svg>
        <g id="navigator" transform="translate(0 0)" fill="#404254">
                <rect fill="#f2f5e9" fill-opacity="0.5" stroke="#606060" stroke-width=".5" x="0" y="0" width="60" height="60"/>
                <use id="zoomplus" xlink:href="#zoomPlus" x="17" y="9" onmousedown="handleZoom(evt,'in')"/>
                <use id="zoomminus" xlink:href="#zoomMin" x="42" y="9" onmousedown="handleZoom(evt,'out')"/>
                <use id="reset" xlink:href="#resetDef" x="30" y="36" onmousedown="handleReset()"/>
                <g id="arrowUp" xlink:href="#dirArrow" transform="translate(30 24)" onmousedown="handlePan(0,-1)">
                  <use xlink:href="#rim" fill="#404040">
                        <set attributeName="fill" to="#808080" begin="arrowUp.mouseover" end="arrowUp.mouseout"/>
                  </use>
                  <path fill="none" stroke="white" stroke-width="1.5" d="M0,-3.0v7 M-2.5,-0.5L0,-3.0L2.5,-0.5"/>
                </g>
                <g id="arrowRight" xlink:href="#dirArrow" transform="rotate(90) translate(36 -43)" onmousedown="handlePan(1,0)">
                  <use xlink:href="#rim" fill="#404040">
                        <set attributeName="fill" to="#808080" begin="arrowRight.mouseover" end="arrowRight.mouseout"/>
                  </use>
                  <path fill="none" stroke="white" stroke-width="1.5" d="M0,-3.0v7 M-2.5,-0.5L0,-3.0L2.5,-0.5"/>
                </g>
                <g id="arrowDown" xlink:href="#dirArrow" transform="rotate(180) translate(-30 -48)" onmousedown="handlePan(0,1)">
                  <use xlink:href="#rim" fill="#404040">
                        <set attributeName="fill" to="#808080" begin="arrowDown.mouseover" end="arrowDown.mouseout"/>
                  </use>
                  <path fill="none" stroke="white" stroke-width="1.5" d="M0,-3.0v7 M-2.5,-0.5L0,-3.0L2.5,-0.5"/>
                </g>
                <g id="arrowLeft" xlink:href="#dirArrow" transform="rotate(270) translate(-36 17)" onmousedown="handlePan(-1,0)">
                  <use xlink:href="#rim" fill="#404040">
                        <set attributeName="fill" to="#808080" begin="arrowLeft.mouseover" end="arrowLeft.mouseout"/>
                  </use>
                  <path fill="none" stroke="white" stroke-width="1.5" d="M0,-3.0v7 M-2.5,-0.5L0,-3.0L2.5,-0.5"/>
                </g>
        </g>
        <svg viewBox="0 0 15 15" width="100%" height="30px" preserveAspectRatio="xMaxYMin meet">
         <g id="arrow_out" transform="scale(0.3 0.3)">
          <a xlink:href="structo2_1_1framework_1_1SourceInfoHeader__coll__graph_org.svg" target="_base">
           <rect id="button" ry="5" rx="5" y="6" x="6" height="38" width="38"
                fill="#f2f5e9" fill-opacity="0.5" stroke="#606060" stroke-width="1.0"/>
           <path id="arrow"
             d="M 11.500037,31.436501 C 11.940474,20.09759 22.043105,11.32322 32.158766,21.979434 L 37.068811,17.246167 C 37.068811,17.246167 37.088388,32 37.088388,32 L 22.160133,31.978069 C 22.160133,31.978069 26.997745,27.140456 26.997745,27.140456 C 18.528582,18.264221 13.291696,25.230495 11.500037,31.436501 z"
             style="fill:#404040;"/>
          </a>
         </g>
        </svg>
</svg>
