<?xml version="1.0" encoding="UTF-8" standalone="no"?>
<!DOCTYPE svg PUBLIC "-//W3C//DTD SVG 1.1//EN"
 "http://www.w3.org/Graphics/SVG/1.1/DTD/svg11.dtd">
<!-- Generated by graphviz version 2.40.1 (20161225.0304)
 -->
<!-- Title: o2::tpc::ClusterHardwareContainer Pages: 1 -->
<svg width="275pt" height="474pt"
 viewBox="0.00 0.00 275.00 474.00" xmlns="http://www.w3.org/2000/svg" xmlns:xlink="http://www.w3.org/1999/xlink">
<g id="graph0" class="graph" transform="scale(1 1) rotate(0) translate(4 470)">
<title>o2::tpc::ClusterHardwareContainer</title>
<!-- Node1 -->
<g id="node1" class="node">
<title>Node1</title>
<polygon fill="#bfbfbf" stroke="#000000" points="0,-.5 0,-68.5 137,-68.5 137,-.5 0,-.5"/>
<text text-anchor="start" x="8" y="-56.5" font-family="Helvetica,sans-Serif" font-size="10.00" fill="#000000">o2::tpc::ClusterHardware</text>
<text text-anchor="middle" x="68.5" y="-45.5" font-family="Helvetica,sans-Serif" font-size="10.00" fill="#000000">Container</text>
<polyline fill="none" stroke="#000000" points="0,-38.5 137,-38.5 "/>
<text text-anchor="middle" x="68.5" y="-26.5" font-family="Helvetica,sans-Serif" font-size="10.00" fill="#000000"> </text>
<polyline fill="none" stroke="#000000" points="0,-19.5 137,-19.5 "/>
<text text-anchor="middle" x="68.5" y="-7.5" font-family="Helvetica,sans-Serif" font-size="10.00" fill="#000000"> </text>
</g>
<!-- Node2 -->
<g id="node2" class="node">
<title>Node2</title>
<g id="a_node2"><a xlink:href="../../d2/d6b/structo2_1_1tpc_1_1ClusterHardware.html" target="_top" xlink:title="{o2::tpc::ClusterHardware\n||+ getQTotFloat()\l+ getQTot()\l+ getQMax()\l+ getRow()\l+ getFlags()\l+ getPadPre()\l+ getPad()\l+ getTimeLocalPre()\l+ getTimePeak()\l+ getTimeLocal()\l+ getSigmaPad2()\l+ getSigmaTime2()\l+ setCluster()\l+ setCluster()\l}">
<polygon fill="none" stroke="#000000" points="130,-116.5 130,-316.5 267,-316.5 267,-116.5 130,-116.5"/>
<text text-anchor="middle" x="198.5" y="-304.5" font-family="Helvetica,sans-Serif" font-size="10.00" fill="#000000">o2::tpc::ClusterHardware</text>
<polyline fill="none" stroke="#000000" points="130,-297.5 267,-297.5 "/>
<text text-anchor="middle" x="198.5" y="-285.5" font-family="Helvetica,sans-Serif" font-size="10.00" fill="#000000"> </text>
<polyline fill="none" stroke="#000000" points="130,-278.5 267,-278.5 "/>
<text text-anchor="start" x="138" y="-266.5" font-family="Helvetica,sans-Serif" font-size="10.00" fill="#000000">+ getQTotFloat()</text>
<text text-anchor="start" x="138" y="-255.5" font-family="Helvetica,sans-Serif" font-size="10.00" fill="#000000">+ getQTot()</text>
<text text-anchor="start" x="138" y="-244.5" font-family="Helvetica,sans-Serif" font-size="10.00" fill="#000000">+ getQMax()</text>
<text text-anchor="start" x="138" y="-233.5" font-family="Helvetica,sans-Serif" font-size="10.00" fill="#000000">+ getRow()</text>
<text text-anchor="start" x="138" y="-222.5" font-family="Helvetica,sans-Serif" font-size="10.00" fill="#000000">+ getFlags()</text>
<text text-anchor="start" x="138" y="-211.5" font-family="Helvetica,sans-Serif" font-size="10.00" fill="#000000">+ getPadPre()</text>
<text text-anchor="start" x="138" y="-200.5" font-family="Helvetica,sans-Serif" font-size="10.00" fill="#000000">+ getPad()</text>
<text text-anchor="start" x="138" y="-189.5" font-family="Helvetica,sans-Serif" font-size="10.00" fill="#000000">+ getTimeLocalPre()</text>
<text text-anchor="start" x="138" y="-178.5" font-family="Helvetica,sans-Serif" font-size="10.00" fill="#000000">+ getTimePeak()</text>
<text text-anchor="start" x="138" y="-167.5" font-family="Helvetica,sans-Serif" font-size="10.00" fill="#000000">+ getTimeLocal()</text>
<text text-anchor="start" x="138" y="-156.5" font-family="Helvetica,sans-Serif" font-size="10.00" fill="#000000">+ getSigmaPad2()</text>
<text text-anchor="start" x="138" y="-145.5" font-family="Helvetica,sans-Serif" font-size="10.00" fill="#000000">+ getSigmaTime2()</text>
<text text-anchor="start" x="138" y="-134.5" font-family="Helvetica,sans-Serif" font-size="10.00" fill="#000000">+ setCluster()</text>
<text text-anchor="start" x="138" y="-123.5" font-family="Helvetica,sans-Serif" font-size="10.00" fill="#000000">+ setCluster()</text>
</a>
</g>
</g>
<!-- Node2&#45;&gt;Node1 -->
<g id="edge1" class="edge">
<title>Node2&#45;&gt;Node1</title>
<path fill="none" stroke="#404040" d="M129.8835,-120.4369C119.3842,-105.7379 109.0111,-91.2156 99.8646,-78.4104"/>
<polygon fill="none" stroke="#404040" points="99.7881,-78.3033 93.0457,-75.7458 92.8132,-68.5385 99.5556,-71.0959 99.7881,-78.3033"/>
<text text-anchor="middle" x="135.5" y="-90" font-family="Helvetica,sans-Serif" font-size="10.00" fill="#000000"> +clusters</text>
</g>
<!-- Node3 -->
<g id="node3" class="node">
<title>Node3</title>
<polygon fill="none" stroke="#bfbfbf" points="0,-408.5 0,-465.5 61,-465.5 61,-408.5 0,-408.5"/>
<text text-anchor="middle" x="30.5" y="-453.5" font-family="Helvetica,sans-Serif" font-size="10.00" fill="#000000">unsigned</text>
<polyline fill="none" stroke="#bfbfbf" points="0,-446.5 61,-446.5 "/>
<text text-anchor="middle" x="30.5" y="-434.5" font-family="Helvetica,sans-Serif" font-size="10.00" fill="#000000"> </text>
<polyline fill="none" stroke="#bfbfbf" points="0,-427.5 61,-427.5 "/>
<text text-anchor="middle" x="30.5" y="-415.5" font-family="Helvetica,sans-Serif" font-size="10.00" fill="#000000"> </text>
</g>
<!-- Node3&#45;&gt;Node1 -->
<g id="edge3" class="edge">
<title>Node3&#45;&gt;Node1</title>
<path fill="none" stroke="#404040" d="M24.9529,-408.0831C15.1133,-351.1247 -1.9926,-220.8379 24.5,-116 27.6645,-103.4772 33.1753,-90.7888 39.2484,-79.2718"/>
<polygon fill="none" stroke="#404040" points="39.3378,-79.1113 38.7684,-71.9227 45.185,-68.6322 45.7545,-75.8208 39.3378,-79.1113"/>
<text text-anchor="middle" x="73" y="-230.5" font-family="Helvetica,sans-Serif" font-size="10.00" fill="#000000"> +timeBinOffset</text>
<text text-anchor="middle" x="73" y="-219.5" font-family="Helvetica,sans-Serif" font-size="10.00" fill="#000000">+mRDH</text>
<text text-anchor="middle" x="73" y="-208.5" font-family="Helvetica,sans-Serif" font-size="10.00" fill="#000000">+numberOfClusters</text>
<text text-anchor="middle" x="73" y="-197.5" font-family="Helvetica,sans-Serif" font-size="10.00" fill="#000000">+CRU</text>
</g>
<!-- Node3&#45;&gt;Node2 -->
<g id="edge2" class="edge">
<title>Node3&#45;&gt;Node2</title>
<path fill="none" stroke="#404040" d="M52.4631,-408.1735C70.3533,-384.6925 96.726,-350.0783 122.1552,-316.7025"/>
<polygon fill="none" stroke="#404040" points="122.3766,-316.412 122.8311,-309.2152 129.6491,-306.8668 129.1946,-314.0635 122.3766,-316.412"/>
<text text-anchor="middle" x="124.5" y="-382" font-family="Helvetica,sans-Serif" font-size="10.00" fill="#000000"> +word0</text>
<text text-anchor="middle" x="124.5" y="-371" font-family="Helvetica,sans-Serif" font-size="10.00" fill="#000000">+word1</text>
<text text-anchor="middle" x="124.5" y="-360" font-family="Helvetica,sans-Serif" font-size="10.00" fill="#000000">+word2</text>
<text text-anchor="middle" x="124.5" y="-349" font-family="Helvetica,sans-Serif" font-size="10.00" fill="#000000">+word3</text>
<text text-anchor="middle" x="124.5" y="-338" font-family="Helvetica,sans-Serif" font-size="10.00" fill="#000000">+word4</text>
</g>
</g>
</svg>
