<?xml version="1.0" encoding="UTF-8" standalone="no"?>
<!DOCTYPE svg PUBLIC "-//W3C//DTD SVG 1.1//EN"
 "http://www.w3.org/Graphics/SVG/1.1/DTD/svg11.dtd">
<!-- Generated by graphviz version 2.40.1 (20161225.0304)
 -->
<!-- Title: o2::ft0::DigitsTemp Pages: 1 -->
<svg width="337pt" height="584pt"
 viewBox="0.00 0.00 336.50 584.00" xmlns="http://www.w3.org/2000/svg" xmlns:xlink="http://www.w3.org/1999/xlink">
<g id="graph0" class="graph" transform="scale(1 1) rotate(0) translate(4 580)">
<title>o2::ft0::DigitsTemp</title>
<!-- Node2 -->
<g id="node1" class="node">
<title>Node2</title>
<polygon fill="#bfbfbf" stroke="#000000" points="0,-.5 0,-255.5 137,-255.5 137,-.5 0,-.5"/>
<text text-anchor="middle" x="68.5" y="-243.5" font-family="Helvetica,sans-Serif" font-size="10.00" fill="#000000">o2::ft0::DigitsTemp</text>
<polyline fill="none" stroke="#000000" points="0,-236.5 137,-236.5 "/>
<text text-anchor="middle" x="68.5" y="-224.5" font-family="Helvetica,sans-Serif" font-size="10.00" fill="#000000"> </text>
<polyline fill="none" stroke="#000000" points="0,-217.5 137,-217.5 "/>
<text text-anchor="start" x="8" y="-205.5" font-family="Helvetica,sans-Serif" font-size="10.00" fill="#000000">+ DigitsTemp()</text>
<text text-anchor="start" x="8" y="-194.5" font-family="Helvetica,sans-Serif" font-size="10.00" fill="#000000">+ DigitsTemp()</text>
<text text-anchor="start" x="8" y="-183.5" font-family="Helvetica,sans-Serif" font-size="10.00" fill="#000000">+ ~DigitsTemp()</text>
<text text-anchor="start" x="8" y="-172.5" font-family="Helvetica,sans-Serif" font-size="10.00" fill="#000000">+ getTime()</text>
<text text-anchor="start" x="8" y="-161.5" font-family="Helvetica,sans-Serif" font-size="10.00" fill="#000000">+ setTime()</text>
<text text-anchor="start" x="8" y="-150.5" font-family="Helvetica,sans-Serif" font-size="10.00" fill="#000000">+ setInteractionRecord()</text>
<text text-anchor="start" x="8" y="-139.5" font-family="Helvetica,sans-Serif" font-size="10.00" fill="#000000">+ getInteractionRecord()</text>
<text text-anchor="start" x="8" y="-128.5" font-family="Helvetica,sans-Serif" font-size="10.00" fill="#000000">+ getInteractionRecord()</text>
<text text-anchor="start" x="8" y="-117.5" font-family="Helvetica,sans-Serif" font-size="10.00" fill="#000000">+ setInteractionRecord()</text>
<text text-anchor="start" x="8" y="-106.5" font-family="Helvetica,sans-Serif" font-size="10.00" fill="#000000">+ getOrbit()</text>
<text text-anchor="start" x="8" y="-95.5" font-family="Helvetica,sans-Serif" font-size="10.00" fill="#000000">+ getBC()</text>
<text text-anchor="start" x="8" y="-84.5" font-family="Helvetica,sans-Serif" font-size="10.00" fill="#000000">+ getTriggers()</text>
<text text-anchor="start" x="8" y="-73.5" font-family="Helvetica,sans-Serif" font-size="10.00" fill="#000000">+ setTriggers()</text>
<text text-anchor="start" x="8" y="-62.5" font-family="Helvetica,sans-Serif" font-size="10.00" fill="#000000">+ getChDgData()</text>
<text text-anchor="start" x="8" y="-51.5" font-family="Helvetica,sans-Serif" font-size="10.00" fill="#000000">+ getChDgData()</text>
<text text-anchor="start" x="8" y="-40.5" font-family="Helvetica,sans-Serif" font-size="10.00" fill="#000000">+ setChDgData()</text>
<text text-anchor="start" x="8" y="-29.5" font-family="Helvetica,sans-Serif" font-size="10.00" fill="#000000">+ setChDgData()</text>
<text text-anchor="start" x="8" y="-18.5" font-family="Helvetica,sans-Serif" font-size="10.00" fill="#000000">+ printStream()</text>
<text text-anchor="start" x="8" y="-7.5" font-family="Helvetica,sans-Serif" font-size="10.00" fill="#000000">+ cleardigits()</text>
</g>
<!-- Node3 -->
<g id="node2" class="node">
<title>Node3</title>
<g id="a_node2"><a xlink:href="../../d0/d94/classo2_1_1dataformats_1_1TimeStamp.html" target="_top" xlink:title="{DigitBase\n||+ GPUdDefault()\l+ GPUdDefault()\l+ GPUdi()\l+ GPUdi()\l+ GPUdi()\l+ GPUdi()\l+ ClassDefNV()\l}">
<polygon fill="none" stroke="#000000" points="3.5,-320 3.5,-443 101.5,-443 101.5,-320 3.5,-320"/>
<text text-anchor="middle" x="52.5" y="-431" font-family="Helvetica,sans-Serif" font-size="10.00" fill="#000000">DigitBase</text>
<polyline fill="none" stroke="#000000" points="3.5,-424 101.5,-424 "/>
<text text-anchor="middle" x="52.5" y="-412" font-family="Helvetica,sans-Serif" font-size="10.00" fill="#000000"> </text>
<polyline fill="none" stroke="#000000" points="3.5,-405 101.5,-405 "/>
<text text-anchor="start" x="11.5" y="-393" font-family="Helvetica,sans-Serif" font-size="10.00" fill="#000000">+ GPUdDefault()</text>
<text text-anchor="start" x="11.5" y="-382" font-family="Helvetica,sans-Serif" font-size="10.00" fill="#000000">+ GPUdDefault()</text>
<text text-anchor="start" x="11.5" y="-371" font-family="Helvetica,sans-Serif" font-size="10.00" fill="#000000">+ GPUdi()</text>
<text text-anchor="start" x="11.5" y="-360" font-family="Helvetica,sans-Serif" font-size="10.00" fill="#000000">+ GPUdi()</text>
<text text-anchor="start" x="11.5" y="-349" font-family="Helvetica,sans-Serif" font-size="10.00" fill="#000000">+ GPUdi()</text>
<text text-anchor="start" x="11.5" y="-338" font-family="Helvetica,sans-Serif" font-size="10.00" fill="#000000">+ GPUdi()</text>
<text text-anchor="start" x="11.5" y="-327" font-family="Helvetica,sans-Serif" font-size="10.00" fill="#000000">+ ClassDefNV()</text>
</a>
</g>
</g>
<!-- Node3&#45;&gt;Node2 -->
<g id="edge1" class="edge">
<title>Node3&#45;&gt;Node2</title>
<path fill="none" stroke="#191970" d="M57.0428,-309.5251C58.1079,-292.6495 59.2743,-274.17 60.4423,-255.6646"/>
<polygon fill="none" stroke="#191970" points="53.5305,-309.6104 56.3936,-319.8111 60.5166,-310.0514 53.5305,-309.6104"/>
</g>
<!-- Node4 -->
<g id="node3" class="node">
<title>Node4</title>
<g id="a_node3"><a xlink:href="../../db/df8/structo2_1_1ft0_1_1Triggers.html" target="_top" xlink:title="{o2::ft0::Triggers\n||+ Triggers()\l+ Triggers()\l+ getOrA()\l+ getOrC()\l+ getVertex()\l+ getCen()\l+ getSCen()\l+ setTriggers()\l+ cleanTriggers()\l+ ClassDefNV()\l}">
<polygon fill="none" stroke="#000000" points="119.5,-303.5 119.5,-459.5 219.5,-459.5 219.5,-303.5 119.5,-303.5"/>
<text text-anchor="middle" x="169.5" y="-447.5" font-family="Helvetica,sans-Serif" font-size="10.00" fill="#000000">o2::ft0::Triggers</text>
<polyline fill="none" stroke="#000000" points="119.5,-440.5 219.5,-440.5 "/>
<text text-anchor="middle" x="169.5" y="-428.5" font-family="Helvetica,sans-Serif" font-size="10.00" fill="#000000"> </text>
<polyline fill="none" stroke="#000000" points="119.5,-421.5 219.5,-421.5 "/>
<text text-anchor="start" x="127.5" y="-409.5" font-family="Helvetica,sans-Serif" font-size="10.00" fill="#000000">+ Triggers()</text>
<text text-anchor="start" x="127.5" y="-398.5" font-family="Helvetica,sans-Serif" font-size="10.00" fill="#000000">+ Triggers()</text>
<text text-anchor="start" x="127.5" y="-387.5" font-family="Helvetica,sans-Serif" font-size="10.00" fill="#000000">+ getOrA()</text>
<text text-anchor="start" x="127.5" y="-376.5" font-family="Helvetica,sans-Serif" font-size="10.00" fill="#000000">+ getOrC()</text>
<text text-anchor="start" x="127.5" y="-365.5" font-family="Helvetica,sans-Serif" font-size="10.00" fill="#000000">+ getVertex()</text>
<text text-anchor="start" x="127.5" y="-354.5" font-family="Helvetica,sans-Serif" font-size="10.00" fill="#000000">+ getCen()</text>
<text text-anchor="start" x="127.5" y="-343.5" font-family="Helvetica,sans-Serif" font-size="10.00" fill="#000000">+ getSCen()</text>
<text text-anchor="start" x="127.5" y="-332.5" font-family="Helvetica,sans-Serif" font-size="10.00" fill="#000000">+ setTriggers()</text>
<text text-anchor="start" x="127.5" y="-321.5" font-family="Helvetica,sans-Serif" font-size="10.00" fill="#000000">+ cleanTriggers()</text>
<text text-anchor="start" x="127.5" y="-310.5" font-family="Helvetica,sans-Serif" font-size="10.00" fill="#000000">+ ClassDefNV()</text>
</a>
</g>
</g>
<!-- Node4&#45;&gt;Node2 -->
<g id="edge2" class="edge">
<title>Node4&#45;&gt;Node2</title>
<path fill="none" stroke="#404040" d="M138.3725,-303.3732C133.7574,-291.7895 128.8878,-279.5673 123.9545,-267.1852"/>
<polygon fill="none" stroke="#404040" points="123.8531,-266.9306 117.9163,-262.8372 119.4115,-255.7828 125.3482,-259.8761 123.8531,-266.9306"/>
<text text-anchor="middle" x="158" y="-277" font-family="Helvetica,sans-Serif" font-size="10.00" fill="#000000"> +mTrigger</text>
</g>
<!-- Node5 -->
<g id="node4" class="node">
<title>Node5</title>
<polygon fill="none" stroke="#bfbfbf" points="42.5,-518.5 42.5,-575.5 86.5,-575.5 86.5,-518.5 42.5,-518.5"/>
<text text-anchor="middle" x="64.5" y="-563.5" font-family="Helvetica,sans-Serif" font-size="10.00" fill="#000000">int8_t</text>
<polyline fill="none" stroke="#bfbfbf" points="42.5,-556.5 86.5,-556.5 "/>
<text text-anchor="middle" x="64.5" y="-544.5" font-family="Helvetica,sans-Serif" font-size="10.00" fill="#000000"> </text>
<polyline fill="none" stroke="#bfbfbf" points="42.5,-537.5 86.5,-537.5 "/>
<text text-anchor="middle" x="64.5" y="-525.5" font-family="Helvetica,sans-Serif" font-size="10.00" fill="#000000"> </text>
</g>
<!-- Node5&#45;&gt;Node4 -->
<g id="edge3" class="edge">
<title>Node5&#45;&gt;Node4</title>
<path fill="none" stroke="#404040" d="M67.1376,-518.4354C69.5074,-505.1472 73.9978,-489.7268 82.5,-478 91.1838,-466.0227 99.6633,-470.0713 110.5,-460 110.5937,-459.913 110.6873,-459.8257 110.7809,-459.7384"/>
<polygon fill="none" stroke="#404040" points="110.8476,-459.6717 112.2703,-452.6023 119.343,-451.1965 117.9204,-458.2659 110.8476,-459.6717"/>
<text text-anchor="middle" x="107" y="-492" font-family="Helvetica,sans-Serif" font-size="10.00" fill="#000000"> +nChanA</text>
<text text-anchor="middle" x="107" y="-481" font-family="Helvetica,sans-Serif" font-size="10.00" fill="#000000">+nChanC</text>
</g>
<!-- Node6 -->
<g id="node5" class="node">
<title>Node6</title>
<polygon fill="none" stroke="#bfbfbf" points="110.5,-518.5 110.5,-575.5 160.5,-575.5 160.5,-518.5 110.5,-518.5"/>
<text text-anchor="middle" x="135.5" y="-563.5" font-family="Helvetica,sans-Serif" font-size="10.00" fill="#000000">int32_t</text>
<polyline fill="none" stroke="#bfbfbf" points="110.5,-556.5 160.5,-556.5 "/>
<text text-anchor="middle" x="135.5" y="-544.5" font-family="Helvetica,sans-Serif" font-size="10.00" fill="#000000"> </text>
<polyline fill="none" stroke="#bfbfbf" points="110.5,-537.5 160.5,-537.5 "/>
<text text-anchor="middle" x="135.5" y="-525.5" font-family="Helvetica,sans-Serif" font-size="10.00" fill="#000000"> </text>
</g>
<!-- Node6&#45;&gt;Node4 -->
<g id="edge4" class="edge">
<title>Node6&#45;&gt;Node4</title>
<path fill="none" stroke="#404040" d="M135.0398,-518.2766C135.2792,-505.8134 136.1547,-491.1012 138.5,-478 138.89,-475.8213 139.3166,-473.6237 139.7751,-471.4144"/>
<polygon fill="none" stroke="#404040" points="139.819,-471.2229 137.2643,-464.4795 142.5064,-459.5276 145.0611,-466.271 139.819,-471.2229"/>
<text text-anchor="middle" x="160" y="-492" font-family="Helvetica,sans-Serif" font-size="10.00" fill="#000000"> +amplA</text>
<text text-anchor="middle" x="160" y="-481" font-family="Helvetica,sans-Serif" font-size="10.00" fill="#000000">+amplC</text>
</g>
<!-- Node7 -->
<g id="node6" class="node">
<title>Node7</title>
<polygon fill="none" stroke="#bfbfbf" points="178.5,-518.5 178.5,-575.5 228.5,-575.5 228.5,-518.5 178.5,-518.5"/>
<text text-anchor="middle" x="203.5" y="-563.5" font-family="Helvetica,sans-Serif" font-size="10.00" fill="#000000">int16_t</text>
<polyline fill="none" stroke="#bfbfbf" points="178.5,-556.5 228.5,-556.5 "/>
<text text-anchor="middle" x="203.5" y="-544.5" font-family="Helvetica,sans-Serif" font-size="10.00" fill="#000000"> </text>
<polyline fill="none" stroke="#bfbfbf" points="178.5,-537.5 228.5,-537.5 "/>
<text text-anchor="middle" x="203.5" y="-525.5" font-family="Helvetica,sans-Serif" font-size="10.00" fill="#000000"> </text>
</g>
<!-- Node7&#45;&gt;Node4 -->
<g id="edge5" class="edge">
<title>Node7&#45;&gt;Node4</title>
<path fill="none" stroke="#404040" d="M197.5777,-518.1721C194.8831,-505.0561 191.5309,-488.7388 188.0911,-471.9949"/>
<polygon fill="none" stroke="#404040" points="187.9939,-471.5215 182.8683,-466.4492 185.579,-459.767 190.7046,-464.8393 187.9939,-471.5215"/>
<text text-anchor="middle" x="213" y="-492" font-family="Helvetica,sans-Serif" font-size="10.00" fill="#000000"> +timeA</text>
<text text-anchor="middle" x="213" y="-481" font-family="Helvetica,sans-Serif" font-size="10.00" fill="#000000">+timeC</text>
</g>
<!-- Node8 -->
<g id="node7" class="node">
<title>Node8</title>
<polygon fill="none" stroke="#bfbfbf" points="247,-518.5 247,-575.5 308,-575.5 308,-518.5 247,-518.5"/>
<text text-anchor="middle" x="277.5" y="-563.5" font-family="Helvetica,sans-Serif" font-size="10.00" fill="#000000">unsigned</text>
<polyline fill="none" stroke="#bfbfbf" points="247,-556.5 308,-556.5 "/>
<text text-anchor="middle" x="277.5" y="-544.5" font-family="Helvetica,sans-Serif" font-size="10.00" fill="#000000"> </text>
<polyline fill="none" stroke="#bfbfbf" points="247,-537.5 308,-537.5 "/>
<text text-anchor="middle" x="277.5" y="-525.5" font-family="Helvetica,sans-Serif" font-size="10.00" fill="#000000"> </text>
</g>
<!-- Node8&#45;&gt;Node4 -->
<g id="edge6" class="edge">
<title>Node8&#45;&gt;Node4</title>
<path fill="none" stroke="#404040" d="M261.7084,-518.4613C254.5652,-505.899 245.8635,-491.0596 237.5,-478 233.9768,-472.4986 230.2768,-466.8712 226.4986,-461.2343"/>
<polygon fill="none" stroke="#404040" points="226.3654,-461.0377 219.6885,-458.314 219.6346,-451.103 226.3116,-453.8268 226.3654,-461.0377"/>
<text text-anchor="middle" x="289" y="-486.5" font-family="Helvetica,sans-Serif" font-size="10.00" fill="#000000"> +triggersignals</text>
</g>
</g>
</svg>
