<?xml version="1.0" encoding="UTF-8" standalone="no"?>
<!DOCTYPE svg PUBLIC "-//W3C//DTD SVG 1.1//EN"
 "http://www.w3.org/Graphics/SVG/1.1/DTD/svg11.dtd">
<!-- Generated by graphviz version 2.40.1 (20161225.0304)
 -->
<!-- Title: o2::itsmft::Clusterer::ClustererThread Pages: 1 -->
<svg width="1561pt" height="1035pt"
 viewBox="0.00 0.00 1560.50 1035.00" xmlns="http://www.w3.org/2000/svg" xmlns:xlink="http://www.w3.org/1999/xlink">
<g id="graph0" class="graph" transform="scale(1 1) rotate(0) translate(4 1031)">
<title>o2::itsmft::Clusterer::ClustererThread</title>
<!-- Node1 -->
<g id="node1" class="node">
<title>Node1</title>
<polygon fill="#bfbfbf" stroke="#000000" points="774,-.5 774,-189.5 921,-189.5 921,-.5 774,-.5"/>
<text text-anchor="start" x="782" y="-177.5" font-family="Helvetica,sans-Serif" font-size="10.00" fill="#000000">o2::itsmft::Clusterer</text>
<text text-anchor="middle" x="847.5" y="-166.5" font-family="Helvetica,sans-Serif" font-size="10.00" fill="#000000">::ClustererThread</text>
<polyline fill="none" stroke="#000000" points="774,-159.5 921,-159.5 "/>
<text text-anchor="middle" x="847.5" y="-147.5" font-family="Helvetica,sans-Serif" font-size="10.00" fill="#000000"> </text>
<polyline fill="none" stroke="#000000" points="774,-140.5 921,-140.5 "/>
<text text-anchor="start" x="782" y="-128.5" font-family="Helvetica,sans-Serif" font-size="10.00" fill="#000000">+ resetColumn()</text>
<text text-anchor="start" x="782" y="-117.5" font-family="Helvetica,sans-Serif" font-size="10.00" fill="#000000">+ swapColumnBuffers()</text>
<text text-anchor="start" x="782" y="-106.5" font-family="Helvetica,sans-Serif" font-size="10.00" fill="#000000">+ expandPreCluster()</text>
<text text-anchor="start" x="782" y="-95.5" font-family="Helvetica,sans-Serif" font-size="10.00" fill="#000000">+ addNewPrecluster()</text>
<text text-anchor="start" x="782" y="-84.5" font-family="Helvetica,sans-Serif" font-size="10.00" fill="#000000">+ streamCluster()</text>
<text text-anchor="start" x="782" y="-73.5" font-family="Helvetica,sans-Serif" font-size="10.00" fill="#000000">+ fetchMCLabels()</text>
<text text-anchor="start" x="782" y="-62.5" font-family="Helvetica,sans-Serif" font-size="10.00" fill="#000000">+ initChip()</text>
<text text-anchor="start" x="782" y="-51.5" font-family="Helvetica,sans-Serif" font-size="10.00" fill="#000000">+ updateChip()</text>
<text text-anchor="start" x="782" y="-40.5" font-family="Helvetica,sans-Serif" font-size="10.00" fill="#000000">+ finishChip()</text>
<text text-anchor="start" x="782" y="-29.5" font-family="Helvetica,sans-Serif" font-size="10.00" fill="#000000">+ finishChipSingleHitFast()</text>
<text text-anchor="start" x="782" y="-18.5" font-family="Helvetica,sans-Serif" font-size="10.00" fill="#000000">+ process()</text>
<text text-anchor="start" x="782" y="-7.5" font-family="Helvetica,sans-Serif" font-size="10.00" fill="#000000">+ ClustererThread()</text>
</g>
<!-- Node2 -->
<g id="node2" class="node">
<title>Node2</title>
<polygon fill="none" stroke="#bfbfbf" points="0,-413.5 0,-481.5 137,-481.5 137,-413.5 0,-413.5"/>
<text text-anchor="start" x="8" y="-469.5" font-family="Helvetica,sans-Serif" font-size="10.00" fill="#000000">vector&lt; o2::itsmft</text>
<text text-anchor="middle" x="68.5" y="-458.5" font-family="Helvetica,sans-Serif" font-size="10.00" fill="#000000">::Clusterer::ThreadStat &gt;</text>
<polyline fill="none" stroke="#bfbfbf" points="0,-451.5 137,-451.5 "/>
<text text-anchor="middle" x="68.5" y="-439.5" font-family="Helvetica,sans-Serif" font-size="10.00" fill="#000000"> </text>
<polyline fill="none" stroke="#bfbfbf" points="0,-432.5 137,-432.5 "/>
<text text-anchor="middle" x="68.5" y="-420.5" font-family="Helvetica,sans-Serif" font-size="10.00" fill="#000000"> </text>
</g>
<!-- Node2&#45;&gt;Node1 -->
<g id="edge1" class="edge">
<title>Node2&#45;&gt;Node1</title>
<path fill="none" stroke="#404040" d="M74.7684,-413.3677C83.7609,-373.7098 104.0368,-308.774 145.5,-270 234.9344,-186.3662 595.3308,-128.6169 762.0817,-105.8357"/>
<polygon fill="none" stroke="#404040" points="762.0966,-105.8337 767.5056,-101.0648 773.9881,-104.2236 768.579,-108.9925 762.0966,-105.8337"/>
<text text-anchor="middle" x="282.5" y="-227.5" font-family="Helvetica,sans-Serif" font-size="10.00" fill="#000000"> +stats</text>
</g>
<!-- Node3 -->
<g id="node3" class="node">
<title>Node3</title>
<g id="a_node3"><a xlink:href="../../d5/db8/classo2_1_1itsmft_1_1Clusterer.html" target="_top" xlink:title="{o2::itsmft::Clusterer\n||+ Clusterer()\l+ ~Clusterer()\l+ Clusterer()\l+ operator=()\l+ process()\l+ isContinuousReadOut()\l+ setContinuousReadOut()\l+ getMaxBCSeparationToMask()\l+ setMaxBCSeparationToMask()\l+ getMaxRowColDiffToMask()\l+ setMaxRowColDiffToMask()\l+ print()\l+ clear()\l+ setNChips()\l+ loadDictionary()\l+ getTimer()\l+ getTimerMerge()\l}">
<polygon fill="none" stroke="#000000" points="155,-331 155,-564 328,-564 328,-331 155,-331"/>
<text text-anchor="middle" x="241.5" y="-552" font-family="Helvetica,sans-Serif" font-size="10.00" fill="#000000">o2::itsmft::Clusterer</text>
<polyline fill="none" stroke="#000000" points="155,-545 328,-545 "/>
<text text-anchor="middle" x="241.5" y="-533" font-family="Helvetica,sans-Serif" font-size="10.00" fill="#000000"> </text>
<polyline fill="none" stroke="#000000" points="155,-526 328,-526 "/>
<text text-anchor="start" x="163" y="-514" font-family="Helvetica,sans-Serif" font-size="10.00" fill="#000000">+ Clusterer()</text>
<text text-anchor="start" x="163" y="-503" font-family="Helvetica,sans-Serif" font-size="10.00" fill="#000000">+ ~Clusterer()</text>
<text text-anchor="start" x="163" y="-492" font-family="Helvetica,sans-Serif" font-size="10.00" fill="#000000">+ Clusterer()</text>
<text text-anchor="start" x="163" y="-481" font-family="Helvetica,sans-Serif" font-size="10.00" fill="#000000">+ operator=()</text>
<text text-anchor="start" x="163" y="-470" font-family="Helvetica,sans-Serif" font-size="10.00" fill="#000000">+ process()</text>
<text text-anchor="start" x="163" y="-459" font-family="Helvetica,sans-Serif" font-size="10.00" fill="#000000">+ isContinuousReadOut()</text>
<text text-anchor="start" x="163" y="-448" font-family="Helvetica,sans-Serif" font-size="10.00" fill="#000000">+ setContinuousReadOut()</text>
<text text-anchor="start" x="163" y="-437" font-family="Helvetica,sans-Serif" font-size="10.00" fill="#000000">+ getMaxBCSeparationToMask()</text>
<text text-anchor="start" x="163" y="-426" font-family="Helvetica,sans-Serif" font-size="10.00" fill="#000000">+ setMaxBCSeparationToMask()</text>
<text text-anchor="start" x="163" y="-415" font-family="Helvetica,sans-Serif" font-size="10.00" fill="#000000">+ getMaxRowColDiffToMask()</text>
<text text-anchor="start" x="163" y="-404" font-family="Helvetica,sans-Serif" font-size="10.00" fill="#000000">+ setMaxRowColDiffToMask()</text>
<text text-anchor="start" x="163" y="-393" font-family="Helvetica,sans-Serif" font-size="10.00" fill="#000000">+ print()</text>
<text text-anchor="start" x="163" y="-382" font-family="Helvetica,sans-Serif" font-size="10.00" fill="#000000">+ clear()</text>
<text text-anchor="start" x="163" y="-371" font-family="Helvetica,sans-Serif" font-size="10.00" fill="#000000">+ setNChips()</text>
<text text-anchor="start" x="163" y="-360" font-family="Helvetica,sans-Serif" font-size="10.00" fill="#000000">+ loadDictionary()</text>
<text text-anchor="start" x="163" y="-349" font-family="Helvetica,sans-Serif" font-size="10.00" fill="#000000">+ getTimer()</text>
<text text-anchor="start" x="163" y="-338" font-family="Helvetica,sans-Serif" font-size="10.00" fill="#000000">+ getTimerMerge()</text>
</a>
</g>
</g>
<!-- Node3&#45;&gt;Node1 -->
<g id="edge2" class="edge">
<title>Node3&#45;&gt;Node1</title>
<path fill="none" stroke="#404040" d="M290.9249,-330.6953C303.8403,-308.7211 319.3434,-287.2574 337.5,-270 456.0355,-157.3349 650.297,-116.9426 761.7273,-102.6501"/>
<polygon fill="none" stroke="#404040" points="761.9915,-102.6177 767.4574,-97.914 773.9014,-101.1504 768.4356,-105.854 761.9915,-102.6177"/>
<text text-anchor="middle" x="441" y="-227.5" font-family="Helvetica,sans-Serif" font-size="10.00" fill="#000000"> +parent</text>
</g>
<!-- Node4 -->
<g id="node4" class="node">
<title>Node4</title>
<polygon fill="none" stroke="#bfbfbf" points="219.5,-821 219.5,-878 263.5,-878 263.5,-821 219.5,-821"/>
<text text-anchor="middle" x="241.5" y="-866" font-family="Helvetica,sans-Serif" font-size="10.00" fill="#000000">static</text>
<polyline fill="none" stroke="#bfbfbf" points="219.5,-859 263.5,-859 "/>
<text text-anchor="middle" x="241.5" y="-847" font-family="Helvetica,sans-Serif" font-size="10.00" fill="#000000"> </text>
<polyline fill="none" stroke="#bfbfbf" points="219.5,-840 263.5,-840 "/>
<text text-anchor="middle" x="241.5" y="-828" font-family="Helvetica,sans-Serif" font-size="10.00" fill="#000000"> </text>
</g>
<!-- Node4&#45;&gt;Node3 -->
<g id="edge3" class="edge">
<title>Node4&#45;&gt;Node3</title>
<path fill="none" stroke="#404040" d="M241.5,-820.9114C241.5,-770.5439 241.5,-663.1114 241.5,-576.3545"/>
<polygon fill="none" stroke="#404040" points="241.5001,-576.2581 237.5,-570.2581 241.5,-564.2581 245.5,-570.258 241.5001,-576.2581"/>
<text text-anchor="middle" x="273.5" y="-646" font-family="Helvetica,sans-Serif" font-size="10.00" fill="#000000"> +MaxLabels</text>
</g>
<!-- Node5 -->
<g id="node5" class="node">
<title>Node5</title>
<polygon fill="none" stroke="#bfbfbf" points="346.5,-419 346.5,-476 484.5,-476 484.5,-419 346.5,-419"/>
<text text-anchor="middle" x="415.5" y="-464" font-family="Helvetica,sans-Serif" font-size="10.00" fill="#000000">vector&lt; unsigned char &gt;</text>
<polyline fill="none" stroke="#bfbfbf" points="346.5,-457 484.5,-457 "/>
<text text-anchor="middle" x="415.5" y="-445" font-family="Helvetica,sans-Serif" font-size="10.00" fill="#000000"> </text>
<polyline fill="none" stroke="#bfbfbf" points="346.5,-438 484.5,-438 "/>
<text text-anchor="middle" x="415.5" y="-426" font-family="Helvetica,sans-Serif" font-size="10.00" fill="#000000"> </text>
</g>
<!-- Node5&#45;&gt;Node1 -->
<g id="edge4" class="edge">
<title>Node5&#45;&gt;Node1</title>
<path fill="none" stroke="#404040" d="M423.562,-418.9518C434.9471,-382.012 458.3486,-316.8471 493.5,-270 558.9941,-182.7144 679.8978,-136.3175 761.9881,-113.7069"/>
<polygon fill="none" stroke="#404040" points="762.2155,-113.646 766.9764,-108.2299 773.807,-110.5414 769.0461,-115.9576 762.2155,-113.646"/>
<text text-anchor="middle" x="579.5" y="-227.5" font-family="Helvetica,sans-Serif" font-size="10.00" fill="#000000"> +patterns</text>
</g>
<!-- Node6 -->
<g id="node6" class="node">
<title>Node6</title>
<g id="a_node6"><a xlink:href="../../dc/daa/classo2_1_1dataformats_1_1MCTruthContainer.html" target="_top" xlink:title="{o2::dataformats::MCTruth\lContainer\&lt; o2::MCCompLabel \&gt;\n||+ MCTruthContainer()\l+ MCTruthContainer()\l+ MCTruthContainer()\l+ MCTruthContainer()\l+ ~MCTruthContainer()\l+ operator=()\l+ operator=()\l+ getMCTruthHeader()\l+ getElement()\l+ getIndexedSize()\l+ getNElements()\l+ getLabels()\l+ getLabels()\l+ clear()\l+ addElement()\l+ addElements()\l+ addElements()\l+ addElementRandomAccess()\l+ setFrom()\l+ mergeAtBack()\l+ mergeAtBack()\l+ flatten_to()\l+ restore_from()\l+ print()\l+ inflate()\l+ deflate()\l+ ClassDefNV()\l}">
<polygon fill="none" stroke="#000000" points="502.5,-270.5 502.5,-624.5 676.5,-624.5 676.5,-270.5 502.5,-270.5"/>
<text text-anchor="start" x="510.5" y="-612.5" font-family="Helvetica,sans-Serif" font-size="10.00" fill="#000000">o2::dataformats::MCTruth</text>
<text text-anchor="middle" x="589.5" y="-601.5" font-family="Helvetica,sans-Serif" font-size="10.00" fill="#000000">Container&lt; o2::MCCompLabel &gt;</text>
<polyline fill="none" stroke="#000000" points="502.5,-594.5 676.5,-594.5 "/>
<text text-anchor="middle" x="589.5" y="-582.5" font-family="Helvetica,sans-Serif" font-size="10.00" fill="#000000"> </text>
<polyline fill="none" stroke="#000000" points="502.5,-575.5 676.5,-575.5 "/>
<text text-anchor="start" x="510.5" y="-563.5" font-family="Helvetica,sans-Serif" font-size="10.00" fill="#000000">+ MCTruthContainer()</text>
<text text-anchor="start" x="510.5" y="-552.5" font-family="Helvetica,sans-Serif" font-size="10.00" fill="#000000">+ MCTruthContainer()</text>
<text text-anchor="start" x="510.5" y="-541.5" font-family="Helvetica,sans-Serif" font-size="10.00" fill="#000000">+ MCTruthContainer()</text>
<text text-anchor="start" x="510.5" y="-530.5" font-family="Helvetica,sans-Serif" font-size="10.00" fill="#000000">+ MCTruthContainer()</text>
<text text-anchor="start" x="510.5" y="-519.5" font-family="Helvetica,sans-Serif" font-size="10.00" fill="#000000">+ ~MCTruthContainer()</text>
<text text-anchor="start" x="510.5" y="-508.5" font-family="Helvetica,sans-Serif" font-size="10.00" fill="#000000">+ operator=()</text>
<text text-anchor="start" x="510.5" y="-497.5" font-family="Helvetica,sans-Serif" font-size="10.00" fill="#000000">+ operator=()</text>
<text text-anchor="start" x="510.5" y="-486.5" font-family="Helvetica,sans-Serif" font-size="10.00" fill="#000000">+ getMCTruthHeader()</text>
<text text-anchor="start" x="510.5" y="-475.5" font-family="Helvetica,sans-Serif" font-size="10.00" fill="#000000">+ getElement()</text>
<text text-anchor="start" x="510.5" y="-464.5" font-family="Helvetica,sans-Serif" font-size="10.00" fill="#000000">+ getIndexedSize()</text>
<text text-anchor="start" x="510.5" y="-453.5" font-family="Helvetica,sans-Serif" font-size="10.00" fill="#000000">+ getNElements()</text>
<text text-anchor="start" x="510.5" y="-442.5" font-family="Helvetica,sans-Serif" font-size="10.00" fill="#000000">+ getLabels()</text>
<text text-anchor="start" x="510.5" y="-431.5" font-family="Helvetica,sans-Serif" font-size="10.00" fill="#000000">+ getLabels()</text>
<text text-anchor="start" x="510.5" y="-420.5" font-family="Helvetica,sans-Serif" font-size="10.00" fill="#000000">+ clear()</text>
<text text-anchor="start" x="510.5" y="-409.5" font-family="Helvetica,sans-Serif" font-size="10.00" fill="#000000">+ addElement()</text>
<text text-anchor="start" x="510.5" y="-398.5" font-family="Helvetica,sans-Serif" font-size="10.00" fill="#000000">+ addElements()</text>
<text text-anchor="start" x="510.5" y="-387.5" font-family="Helvetica,sans-Serif" font-size="10.00" fill="#000000">+ addElements()</text>
<text text-anchor="start" x="510.5" y="-376.5" font-family="Helvetica,sans-Serif" font-size="10.00" fill="#000000">+ addElementRandomAccess()</text>
<text text-anchor="start" x="510.5" y="-365.5" font-family="Helvetica,sans-Serif" font-size="10.00" fill="#000000">+ setFrom()</text>
<text text-anchor="start" x="510.5" y="-354.5" font-family="Helvetica,sans-Serif" font-size="10.00" fill="#000000">+ mergeAtBack()</text>
<text text-anchor="start" x="510.5" y="-343.5" font-family="Helvetica,sans-Serif" font-size="10.00" fill="#000000">+ mergeAtBack()</text>
<text text-anchor="start" x="510.5" y="-332.5" font-family="Helvetica,sans-Serif" font-size="10.00" fill="#000000">+ flatten_to()</text>
<text text-anchor="start" x="510.5" y="-321.5" font-family="Helvetica,sans-Serif" font-size="10.00" fill="#000000">+ restore_from()</text>
<text text-anchor="start" x="510.5" y="-310.5" font-family="Helvetica,sans-Serif" font-size="10.00" fill="#000000">+ print()</text>
<text text-anchor="start" x="510.5" y="-299.5" font-family="Helvetica,sans-Serif" font-size="10.00" fill="#000000">+ inflate()</text>
<text text-anchor="start" x="510.5" y="-288.5" font-family="Helvetica,sans-Serif" font-size="10.00" fill="#000000">+ deflate()</text>
<text text-anchor="start" x="510.5" y="-277.5" font-family="Helvetica,sans-Serif" font-size="10.00" fill="#000000">+ ClassDefNV()</text>
</a>
</g>
</g>
<!-- Node6&#45;&gt;Node1 -->
<g id="edge5" class="edge">
<title>Node6&#45;&gt;Node1</title>
<path fill="none" stroke="#404040" d="M613.8925,-270.2015C621.9349,-247.9348 632.5387,-226.5128 646.5,-208 675.5348,-169.4996 721.7473,-142.2123 762.5441,-124.1099"/>
<polygon fill="none" stroke="#404040" points="762.5837,-124.0929 766.5202,-118.051 773.6113,-119.3608 769.6749,-125.4027 762.5837,-124.0929"/>
<text text-anchor="middle" x="667" y="-227.5" font-family="Helvetica,sans-Serif" font-size="10.00" fill="#000000"> +labels</text>
</g>
<!-- Node7 -->
<g id="node7" class="node">
<title>Node7</title>
<g id="a_node7"><a xlink:href="../../dc/daa/classo2_1_1dataformats_1_1MCTruthContainer.html" target="_top" xlink:title="A container to hold and manage MC truth information/labels. ">
<polygon fill="none" stroke="#000000" points="505.5,-672.5 505.5,-1026.5 673.5,-1026.5 673.5,-672.5 505.5,-672.5"/>
<text text-anchor="start" x="513.5" y="-1014.5" font-family="Helvetica,sans-Serif" font-size="10.00" fill="#000000">o2::dataformats::MCTruth</text>
<text text-anchor="middle" x="589.5" y="-1003.5" font-family="Helvetica,sans-Serif" font-size="10.00" fill="#000000">Container&lt; TruthElement &gt;</text>
<polyline fill="none" stroke="#000000" points="505.5,-996.5 673.5,-996.5 "/>
<text text-anchor="middle" x="589.5" y="-984.5" font-family="Helvetica,sans-Serif" font-size="10.00" fill="#000000"> </text>
<polyline fill="none" stroke="#000000" points="505.5,-977.5 673.5,-977.5 "/>
<text text-anchor="start" x="513.5" y="-965.5" font-family="Helvetica,sans-Serif" font-size="10.00" fill="#000000">+ MCTruthContainer()</text>
<text text-anchor="start" x="513.5" y="-954.5" font-family="Helvetica,sans-Serif" font-size="10.00" fill="#000000">+ ~MCTruthContainer()</text>
<text text-anchor="start" x="513.5" y="-943.5" font-family="Helvetica,sans-Serif" font-size="10.00" fill="#000000">+ MCTruthContainer()</text>
<text text-anchor="start" x="513.5" y="-932.5" font-family="Helvetica,sans-Serif" font-size="10.00" fill="#000000">+ MCTruthContainer()</text>
<text text-anchor="start" x="513.5" y="-921.5" font-family="Helvetica,sans-Serif" font-size="10.00" fill="#000000">+ MCTruthContainer()</text>
<text text-anchor="start" x="513.5" y="-910.5" font-family="Helvetica,sans-Serif" font-size="10.00" fill="#000000">+ operator=()</text>
<text text-anchor="start" x="513.5" y="-899.5" font-family="Helvetica,sans-Serif" font-size="10.00" fill="#000000">+ operator=()</text>
<text text-anchor="start" x="513.5" y="-888.5" font-family="Helvetica,sans-Serif" font-size="10.00" fill="#000000">+ getMCTruthHeader()</text>
<text text-anchor="start" x="513.5" y="-877.5" font-family="Helvetica,sans-Serif" font-size="10.00" fill="#000000">+ getElement()</text>
<text text-anchor="start" x="513.5" y="-866.5" font-family="Helvetica,sans-Serif" font-size="10.00" fill="#000000">+ getIndexedSize()</text>
<text text-anchor="start" x="513.5" y="-855.5" font-family="Helvetica,sans-Serif" font-size="10.00" fill="#000000">+ getNElements()</text>
<text text-anchor="start" x="513.5" y="-844.5" font-family="Helvetica,sans-Serif" font-size="10.00" fill="#000000">+ getLabels()</text>
<text text-anchor="start" x="513.5" y="-833.5" font-family="Helvetica,sans-Serif" font-size="10.00" fill="#000000">+ getLabels()</text>
<text text-anchor="start" x="513.5" y="-822.5" font-family="Helvetica,sans-Serif" font-size="10.00" fill="#000000">+ clear()</text>
<text text-anchor="start" x="513.5" y="-811.5" font-family="Helvetica,sans-Serif" font-size="10.00" fill="#000000">+ addElement()</text>
<text text-anchor="start" x="513.5" y="-800.5" font-family="Helvetica,sans-Serif" font-size="10.00" fill="#000000">+ addElements()</text>
<text text-anchor="start" x="513.5" y="-789.5" font-family="Helvetica,sans-Serif" font-size="10.00" fill="#000000">+ addElements()</text>
<text text-anchor="start" x="513.5" y="-778.5" font-family="Helvetica,sans-Serif" font-size="10.00" fill="#000000">+ addElementRandomAccess()</text>
<text text-anchor="start" x="513.5" y="-767.5" font-family="Helvetica,sans-Serif" font-size="10.00" fill="#000000">+ setFrom()</text>
<text text-anchor="start" x="513.5" y="-756.5" font-family="Helvetica,sans-Serif" font-size="10.00" fill="#000000">+ mergeAtBack()</text>
<text text-anchor="start" x="513.5" y="-745.5" font-family="Helvetica,sans-Serif" font-size="10.00" fill="#000000">+ mergeAtBack()</text>
<text text-anchor="start" x="513.5" y="-734.5" font-family="Helvetica,sans-Serif" font-size="10.00" fill="#000000">+ flatten_to()</text>
<text text-anchor="start" x="513.5" y="-723.5" font-family="Helvetica,sans-Serif" font-size="10.00" fill="#000000">+ restore_from()</text>
<text text-anchor="start" x="513.5" y="-712.5" font-family="Helvetica,sans-Serif" font-size="10.00" fill="#000000">+ print()</text>
<text text-anchor="start" x="513.5" y="-701.5" font-family="Helvetica,sans-Serif" font-size="10.00" fill="#000000">+ inflate()</text>
<text text-anchor="start" x="513.5" y="-690.5" font-family="Helvetica,sans-Serif" font-size="10.00" fill="#000000">+ deflate()</text>
<text text-anchor="start" x="513.5" y="-679.5" font-family="Helvetica,sans-Serif" font-size="10.00" fill="#000000">+ ClassDefNV()</text>
</a>
</g>
</g>
<!-- Node7&#45;&gt;Node6 -->
<g id="edge6" class="edge">
<title>Node7&#45;&gt;Node6</title>
<path fill="none" stroke="#ffa500" d="M589.5,-662.2865C589.5,-649.7776 589.5,-637.1971 589.5,-624.7401"/>
<polygon fill="#ffa500" stroke="#ffa500" points="586.0001,-662.2993 589.5,-672.2994 593.0001,-662.2994 586.0001,-662.2993"/>
<text text-anchor="middle" x="646.5" y="-646" font-family="Helvetica,sans-Serif" font-size="10.00" fill="#000000"> &lt; o2::MCCompLabel &gt;</text>
</g>
<!-- Node8 -->
<g id="node8" class="node">
<title>Node8</title>
<polygon fill="none" stroke="#bfbfbf" points="695,-419 695,-476 778,-476 778,-419 695,-419"/>
<text text-anchor="middle" x="736.5" y="-464" font-family="Helvetica,sans-Serif" font-size="10.00" fill="#000000">vector&lt; int &gt;</text>
<polyline fill="none" stroke="#bfbfbf" points="695,-457 778,-457 "/>
<text text-anchor="middle" x="736.5" y="-445" font-family="Helvetica,sans-Serif" font-size="10.00" fill="#000000"> </text>
<polyline fill="none" stroke="#bfbfbf" points="695,-438 778,-438 "/>
<text text-anchor="middle" x="736.5" y="-426" font-family="Helvetica,sans-Serif" font-size="10.00" fill="#000000"> </text>
</g>
<!-- Node8&#45;&gt;Node1 -->
<g id="edge7" class="edge">
<title>Node8&#45;&gt;Node1</title>
<path fill="none" stroke="#404040" d="M722.8387,-418.9474C702.6198,-372.3252 670.5808,-278.0345 704.5,-208 717.5314,-181.0935 740.4224,-158.6556 764.1201,-141.053"/>
<polygon fill="none" stroke="#404040" points="764.1665,-141.0199 766.7298,-134.2798 773.9374,-134.0536 771.3741,-140.7937 764.1665,-141.0199"/>
<text text-anchor="middle" x="751.5" y="-233" font-family="Helvetica,sans-Serif" font-size="10.00" fill="#000000"> +preClusterHeads</text>
<text text-anchor="middle" x="751.5" y="-222" font-family="Helvetica,sans-Serif" font-size="10.00" fill="#000000">+preClusterIndices</text>
</g>
<!-- Node9 -->
<g id="node9" class="node">
<title>Node9</title>
<polygon fill="none" stroke="#bfbfbf" points="796,-419 796,-476 825,-476 825,-419 796,-419"/>
<text text-anchor="middle" x="810.5" y="-464" font-family="Helvetica,sans-Serif" font-size="10.00" fill="#000000">int</text>
<polyline fill="none" stroke="#bfbfbf" points="796,-457 825,-457 "/>
<text text-anchor="middle" x="810.5" y="-445" font-family="Helvetica,sans-Serif" font-size="10.00" fill="#000000"> </text>
<polyline fill="none" stroke="#bfbfbf" points="796,-438 825,-438 "/>
<text text-anchor="middle" x="810.5" y="-426" font-family="Helvetica,sans-Serif" font-size="10.00" fill="#000000"> </text>
</g>
<!-- Node9&#45;&gt;Node1 -->
<g id="edge8" class="edge">
<title>Node9&#45;&gt;Node1</title>
<path fill="none" stroke="#404040" d="M806.8063,-418.8483C801.7247,-373.6504 794.5823,-283.2037 807.5,-208 807.8735,-205.8256 808.2847,-203.6374 808.7297,-201.4405"/>
<polygon fill="none" stroke="#404040" points="808.7532,-201.3367 806.1819,-194.5996 811.4118,-189.6348 813.9831,-196.3719 808.7532,-201.3367"/>
<text text-anchor="middle" x="833" y="-244" font-family="Helvetica,sans-Serif" font-size="10.00" fill="#000000"> +curr</text>
<text text-anchor="middle" x="833" y="-233" font-family="Helvetica,sans-Serif" font-size="10.00" fill="#000000">+prev</text>
<text text-anchor="middle" x="833" y="-222" font-family="Helvetica,sans-Serif" font-size="10.00" fill="#000000">+column1</text>
<text text-anchor="middle" x="833" y="-211" font-family="Helvetica,sans-Serif" font-size="10.00" fill="#000000">+column2</text>
</g>
<!-- Node10 -->
<g id="node10" class="node">
<title>Node10</title>
<polygon fill="none" stroke="#bfbfbf" points="843.5,-419 843.5,-476 881.5,-476 881.5,-419 843.5,-419"/>
<text text-anchor="middle" x="862.5" y="-464" font-family="Helvetica,sans-Serif" font-size="10.00" fill="#000000">bool</text>
<polyline fill="none" stroke="#bfbfbf" points="843.5,-457 881.5,-457 "/>
<text text-anchor="middle" x="862.5" y="-445" font-family="Helvetica,sans-Serif" font-size="10.00" fill="#000000"> </text>
<polyline fill="none" stroke="#bfbfbf" points="843.5,-438 881.5,-438 "/>
<text text-anchor="middle" x="862.5" y="-426" font-family="Helvetica,sans-Serif" font-size="10.00" fill="#000000"> </text>
</g>
<!-- Node10&#45;&gt;Node1 -->
<g id="edge9" class="edge">
<title>Node10&#45;&gt;Node1</title>
<path fill="none" stroke="#404040" d="M863.7239,-418.704C865.3614,-373.6862 867.5173,-283.9256 862.5,-208 862.3632,-205.9296 862.2124,-203.8393 862.0491,-201.7342"/>
<polygon fill="none" stroke="#404040" points="862.0292,-201.5052 857.5225,-195.8758 860.9855,-189.5506 865.4922,-195.18 862.0292,-201.5052"/>
<text text-anchor="middle" x="892.5" y="-227.5" font-family="Helvetica,sans-Serif" font-size="10.00" fill="#000000"> +noLeftCol</text>
</g>
<!-- Node11 -->
<g id="node11" class="node">
<title>Node11</title>
<polygon fill="none" stroke="#bfbfbf" points="899,-419 899,-476 1048,-476 1048,-419 899,-419"/>
<text text-anchor="middle" x="973.5" y="-464" font-family="Helvetica,sans-Serif" font-size="10.00" fill="#000000">vector&lt; CompClusterExt &gt;</text>
<polyline fill="none" stroke="#bfbfbf" points="899,-457 1048,-457 "/>
<text text-anchor="middle" x="973.5" y="-445" font-family="Helvetica,sans-Serif" font-size="10.00" fill="#000000"> </text>
<polyline fill="none" stroke="#bfbfbf" points="899,-438 1048,-438 "/>
<text text-anchor="middle" x="973.5" y="-426" font-family="Helvetica,sans-Serif" font-size="10.00" fill="#000000"> </text>
</g>
<!-- Node11&#45;&gt;Node1 -->
<g id="edge10" class="edge">
<title>Node11&#45;&gt;Node1</title>
<path fill="none" stroke="#404040" d="M971.5053,-418.7456C967.4906,-372.6373 956.0388,-280.0343 925.5,-208 924.4416,-205.5035 923.3233,-203.0058 922.1525,-200.5119"/>
<polygon fill="none" stroke="#404040" points="922.0717,-200.3502 915.8107,-196.7724 916.7053,-189.617 922.9662,-193.1948 922.0717,-200.3502"/>
<text text-anchor="middle" x="980" y="-227.5" font-family="Helvetica,sans-Serif" font-size="10.00" fill="#000000"> +compClusters</text>
</g>
<!-- Node12 -->
<g id="node12" class="node">
<title>Node12</title>
<polygon fill="none" stroke="#bfbfbf" points="1065.5,-413.5 1065.5,-481.5 1171.5,-481.5 1171.5,-413.5 1065.5,-413.5"/>
<text text-anchor="start" x="1073.5" y="-469.5" font-family="Helvetica,sans-Serif" font-size="10.00" fill="#000000">vector&lt; o2::itsmft</text>
<text text-anchor="middle" x="1118.5" y="-458.5" font-family="Helvetica,sans-Serif" font-size="10.00" fill="#000000">::PixelData &gt;</text>
<polyline fill="none" stroke="#bfbfbf" points="1065.5,-451.5 1171.5,-451.5 "/>
<text text-anchor="middle" x="1118.5" y="-439.5" font-family="Helvetica,sans-Serif" font-size="10.00" fill="#000000"> </text>
<polyline fill="none" stroke="#bfbfbf" points="1065.5,-432.5 1171.5,-432.5 "/>
<text text-anchor="middle" x="1118.5" y="-420.5" font-family="Helvetica,sans-Serif" font-size="10.00" fill="#000000"> </text>
</g>
<!-- Node12&#45;&gt;Node1 -->
<g id="edge11" class="edge">
<title>Node12&#45;&gt;Node1</title>
<path fill="none" stroke="#404040" d="M1113.0389,-413.1178C1103.3551,-362.4091 1078.7367,-267.1952 1023.5,-208 997.4594,-180.0932 963.1298,-156.052 931.7089,-137.4071"/>
<polygon fill="none" stroke="#404040" points="931.5579,-137.3194 924.3605,-137.7653 921.1808,-131.2931 928.3781,-130.8472 931.5579,-137.3194"/>
<text text-anchor="middle" x="1083" y="-227.5" font-family="Helvetica,sans-Serif" font-size="10.00" fill="#000000"> +pixArrBuff</text>
</g>
<!-- Node13 -->
<g id="node13" class="node">
<title>Node13</title>
<polygon fill="none" stroke="#bfbfbf" points="1190,-419 1190,-476 1251,-476 1251,-419 1190,-419"/>
<text text-anchor="middle" x="1220.5" y="-464" font-family="Helvetica,sans-Serif" font-size="10.00" fill="#000000">unsigned</text>
<polyline fill="none" stroke="#bfbfbf" points="1190,-457 1251,-457 "/>
<text text-anchor="middle" x="1220.5" y="-445" font-family="Helvetica,sans-Serif" font-size="10.00" fill="#000000"> </text>
<polyline fill="none" stroke="#bfbfbf" points="1190,-438 1251,-438 "/>
<text text-anchor="middle" x="1220.5" y="-426" font-family="Helvetica,sans-Serif" font-size="10.00" fill="#000000"> </text>
</g>
<!-- Node13&#45;&gt;Node1 -->
<g id="edge12" class="edge">
<title>Node13&#45;&gt;Node1</title>
<path fill="none" stroke="#404040" d="M1218.9881,-418.6849C1215.9897,-382.0302 1207.06,-317.7601 1180.5,-270 1129.9766,-179.1488 1013.5454,-133.6203 932.6968,-112.1766"/>
<polygon fill="none" stroke="#404040" points="932.662,-112.1677 925.856,-114.5508 921.0386,-109.185 927.8445,-106.8019 932.662,-112.1677"/>
<text text-anchor="middle" x="1186.5" y="-227.5" font-family="Helvetica,sans-Serif" font-size="10.00" fill="#000000"> +currCol</text>
</g>
<!-- Node14 -->
<g id="node14" class="node">
<title>Node14</title>
<polygon fill="none" stroke="#bfbfbf" points="1269,-413.5 1269,-481.5 1390,-481.5 1390,-413.5 1269,-413.5"/>
<text text-anchor="start" x="1277" y="-469.5" font-family="Helvetica,sans-Serif" font-size="10.00" fill="#000000">vector&lt; std::pair&lt;</text>
<text text-anchor="middle" x="1329.5" y="-458.5" font-family="Helvetica,sans-Serif" font-size="10.00" fill="#000000"> int, unsigned int &gt; &gt;</text>
<polyline fill="none" stroke="#bfbfbf" points="1269,-451.5 1390,-451.5 "/>
<text text-anchor="middle" x="1329.5" y="-439.5" font-family="Helvetica,sans-Serif" font-size="10.00" fill="#000000"> </text>
<polyline fill="none" stroke="#bfbfbf" points="1269,-432.5 1390,-432.5 "/>
<text text-anchor="middle" x="1329.5" y="-420.5" font-family="Helvetica,sans-Serif" font-size="10.00" fill="#000000"> </text>
</g>
<!-- Node14&#45;&gt;Node1 -->
<g id="edge13" class="edge">
<title>Node14&#45;&gt;Node1</title>
<path fill="none" stroke="#404040" d="M1323.7492,-413.3287C1312.7568,-359.7075 1283.3269,-256.8872 1213.5,-208 1128.8241,-148.7168 1012.0467,-119.7655 933.3655,-106.168"/>
<polygon fill="none" stroke="#404040" points="932.9115,-106.0923 926.3345,-109.0491 921.0755,-104.1152 927.6525,-101.1584 932.9115,-106.0923"/>
<text text-anchor="middle" x="1274" y="-227.5" font-family="Helvetica,sans-Serif" font-size="10.00" fill="#000000"> +pixels</text>
</g>
<!-- Node15 -->
<g id="node15" class="node">
<title>Node15</title>
<polygon fill="none" stroke="#bfbfbf" points="1408.5,-413.5 1408.5,-481.5 1552.5,-481.5 1552.5,-413.5 1408.5,-413.5"/>
<text text-anchor="start" x="1416.5" y="-469.5" font-family="Helvetica,sans-Serif" font-size="10.00" fill="#000000">array&lt; o2::MCCompLabel,</text>
<text text-anchor="middle" x="1480.5" y="-458.5" font-family="Helvetica,sans-Serif" font-size="10.00" fill="#000000"> MaxLabels &gt;</text>
<polyline fill="none" stroke="#bfbfbf" points="1408.5,-451.5 1552.5,-451.5 "/>
<text text-anchor="middle" x="1480.5" y="-439.5" font-family="Helvetica,sans-Serif" font-size="10.00" fill="#000000"> </text>
<polyline fill="none" stroke="#bfbfbf" points="1408.5,-432.5 1552.5,-432.5 "/>
<text text-anchor="middle" x="1480.5" y="-420.5" font-family="Helvetica,sans-Serif" font-size="10.00" fill="#000000"> </text>
</g>
<!-- Node15&#45;&gt;Node1 -->
<g id="edge14" class="edge">
<title>Node15&#45;&gt;Node1</title>
<path fill="none" stroke="#404040" d="M1471.5261,-413.4201C1460.0282,-374.9972 1436.9774,-312.3718 1399.5,-270 1364.6038,-230.5465 1347.0544,-228.4155 1298.5,-208 1176.4255,-156.6717 1025.5917,-124.7229 932.995,-108.3949"/>
<polygon fill="none" stroke="#404040" points="932.9843,-108.3931 926.3878,-111.3062 921.1617,-106.3375 927.7582,-103.4244 932.9843,-108.3931"/>
<text text-anchor="middle" x="1412" y="-227.5" font-family="Helvetica,sans-Serif" font-size="10.00" fill="#000000"> +labelsBuff</text>
</g>
</g>
</svg>
