<?xml version="1.0" encoding="UTF-8" standalone="no"?>
<!DOCTYPE svg PUBLIC "-//W3C//DTD SVG 1.1//EN"
 "http://www.w3.org/Graphics/SVG/1.1/DTD/svg11.dtd">
<!-- Generated by graphviz version 2.40.1 (20161225.0304)
 -->
<!-- Title: o2::itsmft::CompressedClusters Pages: 1 -->
<!--zoomable 419 -->
<svg id="main" version="1.1" xmlns="http://www.w3.org/2000/svg" xmlns:xlink="http://www.w3.org/1999/xlink" xml:space="preserve" onload="init(evt)">
<style type="text/css"><![CDATA[
.edge:hover path { stroke: red; }
.edge:hover polygon { stroke: red; fill: red; }
]]></style>
<script type="text/javascript"><![CDATA[
var edges = document.getElementsByTagName('g');
if (edges && edges.length) {
  for (var i=0;i<edges.length;i++) {
    if (edges[i].id.substr(0,4)=='edge') {
      edges[i].setAttribute('class','edge');
    }
  }
}
]]></script>
        <defs>
                <circle id="rim" cx="0" cy="0" r="7"/>
                <circle id="rim2" cx="0" cy="0" r="3.5"/>
                <g id="zoomPlus">
                        <use xlink:href="#rim" fill="#404040">
                                <set attributeName="fill" to="#808080" begin="zoomplus.mouseover" end="zoomplus.mouseout"/>
                        </use>
                        <path d="M-4,0h8M0,-4v8" fill="none" stroke="white" stroke-width="1.5" pointer-events="none"/>
                </g>
                <g id="zoomMin">
                        <use xlink:href="#rim" fill="#404040">
                                <set attributeName="fill" to="#808080" begin="zoomminus.mouseover" end="zoomminus.mouseout"/>
                        </use>
                        <path d="M-4,0h8" fill="none" stroke="white" stroke-width="1.5" pointer-events="none"/>
                </g>
                <g id="dirArrow">
                        <path fill="none" stroke="white" stroke-width="1.5" d="M0,-3.0v7 M-2.5,-0.5L0,-3.0L2.5,-0.5"/>
                </g>
               <g id="resetDef">
                       <use xlink:href="#rim2" fill="#404040">
                               <set attributeName="fill" to="#808080" begin="reset.mouseover" end="reset.mouseout"/>
                       </use>
               </g>
        </defs>

<script type="text/javascript">
var viewWidth = 545;
var viewHeight = 419;
var sectionId = 'dynsection-0';
</script>
<script xlink:href="../../svgpan.js"/>
<svg id="graph" class="graph">
<g id="viewport">
<title>o2::itsmft::CompressedClusters</title>
<!-- Node1 -->
<g id="node1" class="node">
<title>Node1</title>
<polygon fill="#bfbfbf" stroke="#000000" points="162,-.5 162,-79.5 332,-79.5 332,-.5 162,-.5"/>
<text text-anchor="middle" x="247" y="-67.5" font-family="Helvetica,sans-Serif" font-size="10.00" fill="#000000">o2::itsmft::CompressedClusters</text>
<polyline fill="none" stroke="#000000" points="162,-60.5 332,-60.5 "/>
<text text-anchor="middle" x="247" y="-48.5" font-family="Helvetica,sans-Serif" font-size="10.00" fill="#000000"> </text>
<polyline fill="none" stroke="#000000" points="162,-41.5 332,-41.5 "/>
<text text-anchor="start" x="170" y="-29.5" font-family="Helvetica,sans-Serif" font-size="10.00" fill="#000000">+ CompressedClusters()</text>
<text text-anchor="start" x="170" y="-18.5" font-family="Helvetica,sans-Serif" font-size="10.00" fill="#000000">+ clear()</text>
<text text-anchor="start" x="170" y="-7.5" font-family="Helvetica,sans-Serif" font-size="10.00" fill="#000000">+ ClassDefNV()</text>
</g>
<!-- Node2 -->
<g id="node2" class="node">
<title>Node2</title>
<polygon fill="none" stroke="#bfbfbf" points="0,-193.5 0,-250.5 110,-250.5 110,-193.5 0,-193.5"/>
<text text-anchor="middle" x="55" y="-238.5" font-family="Helvetica,sans-Serif" font-size="10.00" fill="#000000">vector&lt; uint16_t &gt;</text>
<polyline fill="none" stroke="#bfbfbf" points="0,-231.5 110,-231.5 "/>
<text text-anchor="middle" x="55" y="-219.5" font-family="Helvetica,sans-Serif" font-size="10.00" fill="#000000"> </text>
<polyline fill="none" stroke="#bfbfbf" points="0,-212.5 110,-212.5 "/>
<text text-anchor="middle" x="55" y="-200.5" font-family="Helvetica,sans-Serif" font-size="10.00" fill="#000000"> </text>
</g>
<!-- Node2&#45;&gt;Node1 -->
<g id="edge1" class="edge">
<title>Node2&#45;&gt;Node1</title>
<path fill="none" stroke="#404040" d="M65.2548,-193.3675C76.3349,-165.8852 96.339,-124.7181 125,-98 132.9366,-90.6014 141.9893,-83.9826 151.4953,-78.1035"/>
<polygon fill="none" stroke="#404040" points="151.5867,-78.0503 154.7592,-71.5746 161.957,-72.0124 158.7845,-78.4881 151.5867,-78.0503"/>
<text text-anchor="middle" x="159.5" y="-167" font-family="Helvetica,sans-Serif" font-size="10.00" fill="#000000"> +chipInc</text>
<text text-anchor="middle" x="159.5" y="-156" font-family="Helvetica,sans-Serif" font-size="10.00" fill="#000000">+firstChipROF</text>
<text text-anchor="middle" x="159.5" y="-145" font-family="Helvetica,sans-Serif" font-size="10.00" fill="#000000">+bcIncROF</text>
<text text-anchor="middle" x="159.5" y="-134" font-family="Helvetica,sans-Serif" font-size="10.00" fill="#000000">+pattID</text>
<text text-anchor="middle" x="159.5" y="-123" font-family="Helvetica,sans-Serif" font-size="10.00" fill="#000000">+colInc</text>
<text text-anchor="middle" x="159.5" y="-112" font-family="Helvetica,sans-Serif" font-size="10.00" fill="#000000">+row</text>
<text text-anchor="middle" x="159.5" y="-101" font-family="Helvetica,sans-Serif" font-size="10.00" fill="#000000">+chipMul</text>
</g>
<!-- Node3 -->
<g id="node3" class="node">
<title>Node3</title>
<polygon fill="none" stroke="#bfbfbf" points="128,-193.5 128,-250.5 232,-250.5 232,-193.5 128,-193.5"/>
<text text-anchor="middle" x="180" y="-238.5" font-family="Helvetica,sans-Serif" font-size="10.00" fill="#000000">vector&lt; uint8_t &gt;</text>
<polyline fill="none" stroke="#bfbfbf" points="128,-231.5 232,-231.5 "/>
<text text-anchor="middle" x="180" y="-219.5" font-family="Helvetica,sans-Serif" font-size="10.00" fill="#000000"> </text>
<polyline fill="none" stroke="#bfbfbf" points="128,-212.5 232,-212.5 "/>
<text text-anchor="middle" x="180" y="-200.5" font-family="Helvetica,sans-Serif" font-size="10.00" fill="#000000"> </text>
</g>
<!-- Node3&#45;&gt;Node1 -->
<g id="edge2" class="edge">
<title>Node3&#45;&gt;Node1</title>
<path fill="none" stroke="#404040" d="M190.6163,-193.1616C200.7165,-165.7252 216.1328,-123.8483 228.2941,-90.8131"/>
<polygon fill="none" stroke="#404040" points="228.3002,-90.7963 226.6193,-83.7838 232.4459,-79.5351 234.1268,-86.5476 228.3002,-90.7963"/>
<text text-anchor="middle" x="252" y="-134" font-family="Helvetica,sans-Serif" font-size="10.00" fill="#000000"> +pattMap</text>
</g>
<!-- Node4 -->
<g id="node4" class="node">
<title>Node4</title>
<polygon fill="none" stroke="#bfbfbf" points="250,-193.5 250,-250.5 380,-250.5 380,-193.5 250,-193.5"/>
<text text-anchor="middle" x="315" y="-238.5" font-family="Helvetica,sans-Serif" font-size="10.00" fill="#000000">vector&lt; unsigned int &gt;</text>
<polyline fill="none" stroke="#bfbfbf" points="250,-231.5 380,-231.5 "/>
<text text-anchor="middle" x="315" y="-219.5" font-family="Helvetica,sans-Serif" font-size="10.00" fill="#000000"> </text>
<polyline fill="none" stroke="#bfbfbf" points="250,-212.5 380,-212.5 "/>
<text text-anchor="middle" x="315" y="-200.5" font-family="Helvetica,sans-Serif" font-size="10.00" fill="#000000"> </text>
</g>
<!-- Node4&#45;&gt;Node1 -->
<g id="edge3" class="edge">
<title>Node4&#45;&gt;Node1</title>
<path fill="none" stroke="#404040" d="M309.7928,-193.4201C304.5664,-167.787 295.3643,-129.4756 282,-98 280.9543,-95.5372 279.8181,-93.0541 278.6157,-90.5737"/>
<polygon fill="none" stroke="#404040" points="278.5406,-90.4297 272.2206,-86.9572 272.9952,-79.7878 279.3152,-83.2603 278.5406,-90.4297"/>
<text text-anchor="middle" x="340" y="-139.5" font-family="Helvetica,sans-Serif" font-size="10.00" fill="#000000"> +orbitIncROF</text>
<text text-anchor="middle" x="340" y="-128.5" font-family="Helvetica,sans-Serif" font-size="10.00" fill="#000000">+nclusROF</text>
</g>
<!-- Node5 -->
<g id="node5" class="node">
<title>Node5</title>
<g id="a_node5"><a xlink:href="../../db/d29/structo2_1_1itsmft_1_1CTFHeader.html" target="_top" xlink:title="Header for a single CTF. ">
<polygon fill="none" stroke="#000000" points="398.5,-193.5 398.5,-250.5 521.5,-250.5 521.5,-193.5 398.5,-193.5"/>
<text text-anchor="middle" x="460" y="-238.5" font-family="Helvetica,sans-Serif" font-size="10.00" fill="#000000">o2::itsmft::CTFHeader</text>
<polyline fill="none" stroke="#000000" points="398.5,-231.5 521.5,-231.5 "/>
<text text-anchor="middle" x="460" y="-219.5" font-family="Helvetica,sans-Serif" font-size="10.00" fill="#000000"> </text>
<polyline fill="none" stroke="#000000" points="398.5,-212.5 521.5,-212.5 "/>
<text text-anchor="start" x="406.5" y="-200.5" font-family="Helvetica,sans-Serif" font-size="10.00" fill="#000000">+ ClassDefNV()</text>
</a>
</g>
</g>
<!-- Node5&#45;&gt;Node1 -->
<g id="edge4" class="edge">
<title>Node5&#45;&gt;Node1</title>
<path fill="none" stroke="#404040" d="M447.1028,-193.492C433.3838,-165.9074 409.3424,-124.4887 378,-98 367.5681,-89.1836 355.5838,-81.4807 343.1932,-74.8194"/>
<polygon fill="none" stroke="#404040" points="342.9205,-74.6805 335.7584,-75.5201 332.2287,-69.2318 339.3908,-68.3922 342.9205,-74.6805"/>
<text text-anchor="middle" x="459" y="-134" font-family="Helvetica,sans-Serif" font-size="10.00" fill="#000000"> +header</text>
</g>
<!-- Node6 -->
<g id="node6" class="node">
<title>Node6</title>
<polygon fill="none" stroke="#bfbfbf" points="429.5,-353.5 429.5,-410.5 490.5,-410.5 490.5,-353.5 429.5,-353.5"/>
<text text-anchor="middle" x="460" y="-398.5" font-family="Helvetica,sans-Serif" font-size="10.00" fill="#000000">unsigned</text>
<polyline fill="none" stroke="#bfbfbf" points="429.5,-391.5 490.5,-391.5 "/>
<text text-anchor="middle" x="460" y="-379.5" font-family="Helvetica,sans-Serif" font-size="10.00" fill="#000000"> </text>
<polyline fill="none" stroke="#bfbfbf" points="429.5,-372.5 490.5,-372.5 "/>
<text text-anchor="middle" x="460" y="-360.5" font-family="Helvetica,sans-Serif" font-size="10.00" fill="#000000"> </text>
</g>
<!-- Node6&#45;&gt;Node5 -->
<g id="edge5" class="edge">
<title>Node6&#45;&gt;Node5</title>
<path fill="none" stroke="#404040" d="M460,-353.3952C460,-328.218 460,-291.2632 460,-262.9524"/>
<polygon fill="none" stroke="#404040" points="460.0001,-262.6264 456,-256.6265 460,-250.6264 464,-256.6264 460.0001,-262.6264"/>
<text text-anchor="middle" x="498.5" y="-327" font-family="Helvetica,sans-Serif" font-size="10.00" fill="#000000"> +firstBC</text>
<text text-anchor="middle" x="498.5" y="-316" font-family="Helvetica,sans-Serif" font-size="10.00" fill="#000000">+nPatternBytes</text>
<text text-anchor="middle" x="498.5" y="-305" font-family="Helvetica,sans-Serif" font-size="10.00" fill="#000000">+firstOrbit</text>
<text text-anchor="middle" x="498.5" y="-294" font-family="Helvetica,sans-Serif" font-size="10.00" fill="#000000">+nClusters</text>
<text text-anchor="middle" x="498.5" y="-283" font-family="Helvetica,sans-Serif" font-size="10.00" fill="#000000">+nROFs</text>
<text text-anchor="middle" x="498.5" y="-272" font-family="Helvetica,sans-Serif" font-size="10.00" fill="#000000">+nChips</text>
</g>
</g>
</svg>
        <g id="navigator" transform="translate(0 0)" fill="#404254">
                <rect fill="#f2f5e9" fill-opacity="0.5" stroke="#606060" stroke-width=".5" x="0" y="0" width="60" height="60"/>
                <use id="zoomplus" xlink:href="#zoomPlus" x="17" y="9" onmousedown="handleZoom(evt,'in')"/>
                <use id="zoomminus" xlink:href="#zoomMin" x="42" y="9" onmousedown="handleZoom(evt,'out')"/>
                <use id="reset" xlink:href="#resetDef" x="30" y="36" onmousedown="handleReset()"/>
                <g id="arrowUp" xlink:href="#dirArrow" transform="translate(30 24)" onmousedown="handlePan(0,-1)">
                  <use xlink:href="#rim" fill="#404040">
                        <set attributeName="fill" to="#808080" begin="arrowUp.mouseover" end="arrowUp.mouseout"/>
                  </use>
                  <path fill="none" stroke="white" stroke-width="1.5" d="M0,-3.0v7 M-2.5,-0.5L0,-3.0L2.5,-0.5"/>
                </g>
                <g id="arrowRight" xlink:href="#dirArrow" transform="rotate(90) translate(36 -43)" onmousedown="handlePan(1,0)">
                  <use xlink:href="#rim" fill="#404040">
                        <set attributeName="fill" to="#808080" begin="arrowRight.mouseover" end="arrowRight.mouseout"/>
                  </use>
                  <path fill="none" stroke="white" stroke-width="1.5" d="M0,-3.0v7 M-2.5,-0.5L0,-3.0L2.5,-0.5"/>
                </g>
                <g id="arrowDown" xlink:href="#dirArrow" transform="rotate(180) translate(-30 -48)" onmousedown="handlePan(0,1)">
                  <use xlink:href="#rim" fill="#404040">
                        <set attributeName="fill" to="#808080" begin="arrowDown.mouseover" end="arrowDown.mouseout"/>
                  </use>
                  <path fill="none" stroke="white" stroke-width="1.5" d="M0,-3.0v7 M-2.5,-0.5L0,-3.0L2.5,-0.5"/>
                </g>
                <g id="arrowLeft" xlink:href="#dirArrow" transform="rotate(270) translate(-36 17)" onmousedown="handlePan(-1,0)">
                  <use xlink:href="#rim" fill="#404040">
                        <set attributeName="fill" to="#808080" begin="arrowLeft.mouseover" end="arrowLeft.mouseout"/>
                  </use>
                  <path fill="none" stroke="white" stroke-width="1.5" d="M0,-3.0v7 M-2.5,-0.5L0,-3.0L2.5,-0.5"/>
                </g>
        </g>
        <svg viewBox="0 0 15 15" width="100%" height="30px" preserveAspectRatio="xMaxYMin meet">
         <g id="arrow_out" transform="scale(0.3 0.3)">
          <a xlink:href="structo2_1_1itsmft_1_1CompressedClusters__coll__graph_org.svg" target="_base">
           <rect id="button" ry="5" rx="5" y="6" x="6" height="38" width="38"
                fill="#f2f5e9" fill-opacity="0.5" stroke="#606060" stroke-width="1.0"/>
           <path id="arrow"
             d="M 11.500037,31.436501 C 11.940474,20.09759 22.043105,11.32322 32.158766,21.979434 L 37.068811,17.246167 C 37.068811,17.246167 37.088388,32 37.088388,32 L 22.160133,31.978069 C 22.160133,31.978069 26.997745,27.140456 26.997745,27.140456 C 18.528582,18.264221 13.291696,25.230495 11.500037,31.436501 z"
             style="fill:#404040;"/>
          </a>
         </g>
        </svg>
</svg>
