<?xml version="1.0" encoding="UTF-8" standalone="no"?>
<!DOCTYPE svg PUBLIC "-//W3C//DTD SVG 1.1//EN"
 "http://www.w3.org/Graphics/SVG/1.1/DTD/svg11.dtd">
<!-- Generated by graphviz version 2.40.1 (20161225.0304)
 -->
<!-- Title: o2::itsmft::CompressedClusters Pages: 1 -->
<svg width="545pt" height="419pt"
 viewBox="0.00 0.00 545.00 419.00" xmlns="http://www.w3.org/2000/svg" xmlns:xlink="http://www.w3.org/1999/xlink">
<g id="graph0" class="graph" transform="scale(1 1) rotate(0) translate(4 415)">
<title>o2::itsmft::CompressedClusters</title>
<!-- Node1 -->
<g id="node1" class="node">
<title>Node1</title>
<polygon fill="#bfbfbf" stroke="#000000" points="162,-.5 162,-79.5 332,-79.5 332,-.5 162,-.5"/>
<text text-anchor="middle" x="247" y="-67.5" font-family="Helvetica,sans-Serif" font-size="10.00" fill="#000000">o2::itsmft::CompressedClusters</text>
<polyline fill="none" stroke="#000000" points="162,-60.5 332,-60.5 "/>
<text text-anchor="middle" x="247" y="-48.5" font-family="Helvetica,sans-Serif" font-size="10.00" fill="#000000"> </text>
<polyline fill="none" stroke="#000000" points="162,-41.5 332,-41.5 "/>
<text text-anchor="start" x="170" y="-29.5" font-family="Helvetica,sans-Serif" font-size="10.00" fill="#000000">+ CompressedClusters()</text>
<text text-anchor="start" x="170" y="-18.5" font-family="Helvetica,sans-Serif" font-size="10.00" fill="#000000">+ clear()</text>
<text text-anchor="start" x="170" y="-7.5" font-family="Helvetica,sans-Serif" font-size="10.00" fill="#000000">+ ClassDefNV()</text>
</g>
<!-- Node2 -->
<g id="node2" class="node">
<title>Node2</title>
<polygon fill="none" stroke="#bfbfbf" points="0,-193.5 0,-250.5 110,-250.5 110,-193.5 0,-193.5"/>
<text text-anchor="middle" x="55" y="-238.5" font-family="Helvetica,sans-Serif" font-size="10.00" fill="#000000">vector&lt; uint16_t &gt;</text>
<polyline fill="none" stroke="#bfbfbf" points="0,-231.5 110,-231.5 "/>
<text text-anchor="middle" x="55" y="-219.5" font-family="Helvetica,sans-Serif" font-size="10.00" fill="#000000"> </text>
<polyline fill="none" stroke="#bfbfbf" points="0,-212.5 110,-212.5 "/>
<text text-anchor="middle" x="55" y="-200.5" font-family="Helvetica,sans-Serif" font-size="10.00" fill="#000000"> </text>
</g>
<!-- Node2&#45;&gt;Node1 -->
<g id="edge1" class="edge">
<title>Node2&#45;&gt;Node1</title>
<path fill="none" stroke="#404040" d="M65.2548,-193.3675C76.3349,-165.8852 96.339,-124.7181 125,-98 132.9366,-90.6014 141.9893,-83.9826 151.4953,-78.1035"/>
<polygon fill="none" stroke="#404040" points="151.5867,-78.0503 154.7592,-71.5746 161.957,-72.0124 158.7845,-78.4881 151.5867,-78.0503"/>
<text text-anchor="middle" x="159.5" y="-167" font-family="Helvetica,sans-Serif" font-size="10.00" fill="#000000"> +chipInc</text>
<text text-anchor="middle" x="159.5" y="-156" font-family="Helvetica,sans-Serif" font-size="10.00" fill="#000000">+firstChipROF</text>
<text text-anchor="middle" x="159.5" y="-145" font-family="Helvetica,sans-Serif" font-size="10.00" fill="#000000">+bcIncROF</text>
<text text-anchor="middle" x="159.5" y="-134" font-family="Helvetica,sans-Serif" font-size="10.00" fill="#000000">+pattID</text>
<text text-anchor="middle" x="159.5" y="-123" font-family="Helvetica,sans-Serif" font-size="10.00" fill="#000000">+colInc</text>
<text text-anchor="middle" x="159.5" y="-112" font-family="Helvetica,sans-Serif" font-size="10.00" fill="#000000">+row</text>
<text text-anchor="middle" x="159.5" y="-101" font-family="Helvetica,sans-Serif" font-size="10.00" fill="#000000">+chipMul</text>
</g>
<!-- Node3 -->
<g id="node3" class="node">
<title>Node3</title>
<polygon fill="none" stroke="#bfbfbf" points="128,-193.5 128,-250.5 232,-250.5 232,-193.5 128,-193.5"/>
<text text-anchor="middle" x="180" y="-238.5" font-family="Helvetica,sans-Serif" font-size="10.00" fill="#000000">vector&lt; uint8_t &gt;</text>
<polyline fill="none" stroke="#bfbfbf" points="128,-231.5 232,-231.5 "/>
<text text-anchor="middle" x="180" y="-219.5" font-family="Helvetica,sans-Serif" font-size="10.00" fill="#000000"> </text>
<polyline fill="none" stroke="#bfbfbf" points="128,-212.5 232,-212.5 "/>
<text text-anchor="middle" x="180" y="-200.5" font-family="Helvetica,sans-Serif" font-size="10.00" fill="#000000"> </text>
</g>
<!-- Node3&#45;&gt;Node1 -->
<g id="edge2" class="edge">
<title>Node3&#45;&gt;Node1</title>
<path fill="none" stroke="#404040" d="M190.6163,-193.1616C200.7165,-165.7252 216.1328,-123.8483 228.2941,-90.8131"/>
<polygon fill="none" stroke="#404040" points="228.3002,-90.7963 226.6193,-83.7838 232.4459,-79.5351 234.1268,-86.5476 228.3002,-90.7963"/>
<text text-anchor="middle" x="252" y="-134" font-family="Helvetica,sans-Serif" font-size="10.00" fill="#000000"> +pattMap</text>
</g>
<!-- Node4 -->
<g id="node4" class="node">
<title>Node4</title>
<polygon fill="none" stroke="#bfbfbf" points="250,-193.5 250,-250.5 380,-250.5 380,-193.5 250,-193.5"/>
<text text-anchor="middle" x="315" y="-238.5" font-family="Helvetica,sans-Serif" font-size="10.00" fill="#000000">vector&lt; unsigned int &gt;</text>
<polyline fill="none" stroke="#bfbfbf" points="250,-231.5 380,-231.5 "/>
<text text-anchor="middle" x="315" y="-219.5" font-family="Helvetica,sans-Serif" font-size="10.00" fill="#000000"> </text>
<polyline fill="none" stroke="#bfbfbf" points="250,-212.5 380,-212.5 "/>
<text text-anchor="middle" x="315" y="-200.5" font-family="Helvetica,sans-Serif" font-size="10.00" fill="#000000"> </text>
</g>
<!-- Node4&#45;&gt;Node1 -->
<g id="edge3" class="edge">
<title>Node4&#45;&gt;Node1</title>
<path fill="none" stroke="#404040" d="M309.7928,-193.4201C304.5664,-167.787 295.3643,-129.4756 282,-98 280.9543,-95.5372 279.8181,-93.0541 278.6157,-90.5737"/>
<polygon fill="none" stroke="#404040" points="278.5406,-90.4297 272.2206,-86.9572 272.9952,-79.7878 279.3152,-83.2603 278.5406,-90.4297"/>
<text text-anchor="middle" x="340" y="-139.5" font-family="Helvetica,sans-Serif" font-size="10.00" fill="#000000"> +orbitIncROF</text>
<text text-anchor="middle" x="340" y="-128.5" font-family="Helvetica,sans-Serif" font-size="10.00" fill="#000000">+nclusROF</text>
</g>
<!-- Node5 -->
<g id="node5" class="node">
<title>Node5</title>
<g id="a_node5"><a xlink:href="../../db/d29/structo2_1_1itsmft_1_1CTFHeader.html" target="_top" xlink:title="Header for a single CTF. ">
<polygon fill="none" stroke="#000000" points="398.5,-193.5 398.5,-250.5 521.5,-250.5 521.5,-193.5 398.5,-193.5"/>
<text text-anchor="middle" x="460" y="-238.5" font-family="Helvetica,sans-Serif" font-size="10.00" fill="#000000">o2::itsmft::CTFHeader</text>
<polyline fill="none" stroke="#000000" points="398.5,-231.5 521.5,-231.5 "/>
<text text-anchor="middle" x="460" y="-219.5" font-family="Helvetica,sans-Serif" font-size="10.00" fill="#000000"> </text>
<polyline fill="none" stroke="#000000" points="398.5,-212.5 521.5,-212.5 "/>
<text text-anchor="start" x="406.5" y="-200.5" font-family="Helvetica,sans-Serif" font-size="10.00" fill="#000000">+ ClassDefNV()</text>
</a>
</g>
</g>
<!-- Node5&#45;&gt;Node1 -->
<g id="edge4" class="edge">
<title>Node5&#45;&gt;Node1</title>
<path fill="none" stroke="#404040" d="M447.1028,-193.492C433.3838,-165.9074 409.3424,-124.4887 378,-98 367.5681,-89.1836 355.5838,-81.4807 343.1932,-74.8194"/>
<polygon fill="none" stroke="#404040" points="342.9205,-74.6805 335.7584,-75.5201 332.2287,-69.2318 339.3908,-68.3922 342.9205,-74.6805"/>
<text text-anchor="middle" x="459" y="-134" font-family="Helvetica,sans-Serif" font-size="10.00" fill="#000000"> +header</text>
</g>
<!-- Node6 -->
<g id="node6" class="node">
<title>Node6</title>
<polygon fill="none" stroke="#bfbfbf" points="429.5,-353.5 429.5,-410.5 490.5,-410.5 490.5,-353.5 429.5,-353.5"/>
<text text-anchor="middle" x="460" y="-398.5" font-family="Helvetica,sans-Serif" font-size="10.00" fill="#000000">unsigned</text>
<polyline fill="none" stroke="#bfbfbf" points="429.5,-391.5 490.5,-391.5 "/>
<text text-anchor="middle" x="460" y="-379.5" font-family="Helvetica,sans-Serif" font-size="10.00" fill="#000000"> </text>
<polyline fill="none" stroke="#bfbfbf" points="429.5,-372.5 490.5,-372.5 "/>
<text text-anchor="middle" x="460" y="-360.5" font-family="Helvetica,sans-Serif" font-size="10.00" fill="#000000"> </text>
</g>
<!-- Node6&#45;&gt;Node5 -->
<g id="edge5" class="edge">
<title>Node6&#45;&gt;Node5</title>
<path fill="none" stroke="#404040" d="M460,-353.3952C460,-328.218 460,-291.2632 460,-262.9524"/>
<polygon fill="none" stroke="#404040" points="460.0001,-262.6264 456,-256.6265 460,-250.6264 464,-256.6264 460.0001,-262.6264"/>
<text text-anchor="middle" x="498.5" y="-327" font-family="Helvetica,sans-Serif" font-size="10.00" fill="#000000"> +firstBC</text>
<text text-anchor="middle" x="498.5" y="-316" font-family="Helvetica,sans-Serif" font-size="10.00" fill="#000000">+nPatternBytes</text>
<text text-anchor="middle" x="498.5" y="-305" font-family="Helvetica,sans-Serif" font-size="10.00" fill="#000000">+firstOrbit</text>
<text text-anchor="middle" x="498.5" y="-294" font-family="Helvetica,sans-Serif" font-size="10.00" fill="#000000">+nClusters</text>
<text text-anchor="middle" x="498.5" y="-283" font-family="Helvetica,sans-Serif" font-size="10.00" fill="#000000">+nROFs</text>
<text text-anchor="middle" x="498.5" y="-272" font-family="Helvetica,sans-Serif" font-size="10.00" fill="#000000">+nChips</text>
</g>
</g>
</svg>
