<?xml version="1.0" encoding="UTF-8" standalone="no"?>
<!DOCTYPE svg PUBLIC "-//W3C//DTD SVG 1.1//EN"
 "http://www.w3.org/Graphics/SVG/1.1/DTD/svg11.dtd">
<!-- Generated by graphviz version 2.40.1 (20161225.0304)
 -->
<!-- Title: o2::InteractionTimeRecord Pages: 1 -->
<svg width="454pt" height="805pt"
 viewBox="0.00 0.00 453.50 805.00" xmlns="http://www.w3.org/2000/svg" xmlns:xlink="http://www.w3.org/1999/xlink">
<g id="graph0" class="graph" transform="scale(1 1) rotate(0) translate(4 801)">
<title>o2::InteractionTimeRecord</title>
<!-- Node2 -->
<g id="node1" class="node">
<title>Node2</title>
<polygon fill="#bfbfbf" stroke="#000000" points="0,-.5 0,-222.5 146,-222.5 146,-.5 0,-.5"/>
<text text-anchor="middle" x="73" y="-210.5" font-family="Helvetica,sans-Serif" font-size="10.00" fill="#000000">o2::InteractionTimeRecord</text>
<polyline fill="none" stroke="#000000" points="0,-203.5 146,-203.5 "/>
<text text-anchor="middle" x="73" y="-191.5" font-family="Helvetica,sans-Serif" font-size="10.00" fill="#000000"> </text>
<polyline fill="none" stroke="#000000" points="0,-184.5 146,-184.5 "/>
<text text-anchor="start" x="8" y="-172.5" font-family="Helvetica,sans-Serif" font-size="10.00" fill="#000000">+ InteractionTimeRecord()</text>
<text text-anchor="start" x="8" y="-161.5" font-family="Helvetica,sans-Serif" font-size="10.00" fill="#000000">+ InteractionTimeRecord()</text>
<text text-anchor="start" x="8" y="-150.5" font-family="Helvetica,sans-Serif" font-size="10.00" fill="#000000">+ InteractionTimeRecord()</text>
<text text-anchor="start" x="8" y="-139.5" font-family="Helvetica,sans-Serif" font-size="10.00" fill="#000000">+ setFromNS()</text>
<text text-anchor="start" x="8" y="-128.5" font-family="Helvetica,sans-Serif" font-size="10.00" fill="#000000">+ clear()</text>
<text text-anchor="start" x="8" y="-117.5" font-family="Helvetica,sans-Serif" font-size="10.00" fill="#000000">+ getTimeOffsetWrtBC()</text>
<text text-anchor="start" x="8" y="-106.5" font-family="Helvetica,sans-Serif" font-size="10.00" fill="#000000">+ getTimeNS()</text>
<text text-anchor="start" x="8" y="-95.5" font-family="Helvetica,sans-Serif" font-size="10.00" fill="#000000">+ operator==()</text>
<text text-anchor="start" x="8" y="-84.5" font-family="Helvetica,sans-Serif" font-size="10.00" fill="#000000">+ operator!=()</text>
<text text-anchor="start" x="8" y="-73.5" font-family="Helvetica,sans-Serif" font-size="10.00" fill="#000000">+ operator&gt;()</text>
<text text-anchor="start" x="8" y="-62.5" font-family="Helvetica,sans-Serif" font-size="10.00" fill="#000000">+ operator&gt;=()</text>
<text text-anchor="start" x="8" y="-51.5" font-family="Helvetica,sans-Serif" font-size="10.00" fill="#000000">+ operator&lt;()</text>
<text text-anchor="start" x="8" y="-40.5" font-family="Helvetica,sans-Serif" font-size="10.00" fill="#000000">+ operator&lt;=()</text>
<text text-anchor="start" x="8" y="-29.5" font-family="Helvetica,sans-Serif" font-size="10.00" fill="#000000">+ print()</text>
<text text-anchor="start" x="8" y="-18.5" font-family="Helvetica,sans-Serif" font-size="10.00" fill="#000000">+ asString()</text>
<text text-anchor="start" x="8" y="-7.5" font-family="Helvetica,sans-Serif" font-size="10.00" fill="#000000">+ ClassDefNV()</text>
</g>
<!-- Node3 -->
<g id="node2" class="node">
<title>Node3</title>
<g id="a_node2"><a xlink:href="../../d1/d21/structo2_1_1InteractionRecord.html" target="_top" xlink:title="{o2::InteractionRecord\n||+ InteractionRecord()\l+ InteractionRecord()\l+ InteractionRecord()\l+ InteractionRecord()\l+ clear()\l+ isDummy()\l+ setFromNS()\l+ bc2ns()\l+ operator==()\l+ operator!=()\l+ differenceInBC()\l+ toLong()\l+ setFromLong()\l+ operator\&gt;()\l+ operator\&gt;=()\l+ operator\&lt;()\l+ operator\&lt;=()\l+ operator&#45;&#45;()\l+ operator&#45;&#45;()\l+ operator++()\l+ operator++()\l+ operator+=()\l+ operator&#45;=()\l+ operator+=()\l+ operator&#45;=()\l+ operator+()\l+ operator&#45;()\l+ operator+()\l+ operator&#45;()\l+ print()\l+ asString()\l+ ClassDefNV()\l+ bc2ns()\l+ ns2bc()\l}">
<polygon fill="none" stroke="#000000" points="118.5,-260.5 118.5,-680.5 239.5,-680.5 239.5,-260.5 118.5,-260.5"/>
<text text-anchor="middle" x="179" y="-668.5" font-family="Helvetica,sans-Serif" font-size="10.00" fill="#000000">o2::InteractionRecord</text>
<polyline fill="none" stroke="#000000" points="118.5,-661.5 239.5,-661.5 "/>
<text text-anchor="middle" x="179" y="-649.5" font-family="Helvetica,sans-Serif" font-size="10.00" fill="#000000"> </text>
<polyline fill="none" stroke="#000000" points="118.5,-642.5 239.5,-642.5 "/>
<text text-anchor="start" x="126.5" y="-630.5" font-family="Helvetica,sans-Serif" font-size="10.00" fill="#000000">+ InteractionRecord()</text>
<text text-anchor="start" x="126.5" y="-619.5" font-family="Helvetica,sans-Serif" font-size="10.00" fill="#000000">+ InteractionRecord()</text>
<text text-anchor="start" x="126.5" y="-608.5" font-family="Helvetica,sans-Serif" font-size="10.00" fill="#000000">+ InteractionRecord()</text>
<text text-anchor="start" x="126.5" y="-597.5" font-family="Helvetica,sans-Serif" font-size="10.00" fill="#000000">+ InteractionRecord()</text>
<text text-anchor="start" x="126.5" y="-586.5" font-family="Helvetica,sans-Serif" font-size="10.00" fill="#000000">+ clear()</text>
<text text-anchor="start" x="126.5" y="-575.5" font-family="Helvetica,sans-Serif" font-size="10.00" fill="#000000">+ isDummy()</text>
<text text-anchor="start" x="126.5" y="-564.5" font-family="Helvetica,sans-Serif" font-size="10.00" fill="#000000">+ setFromNS()</text>
<text text-anchor="start" x="126.5" y="-553.5" font-family="Helvetica,sans-Serif" font-size="10.00" fill="#000000">+ bc2ns()</text>
<text text-anchor="start" x="126.5" y="-542.5" font-family="Helvetica,sans-Serif" font-size="10.00" fill="#000000">+ operator==()</text>
<text text-anchor="start" x="126.5" y="-531.5" font-family="Helvetica,sans-Serif" font-size="10.00" fill="#000000">+ operator!=()</text>
<text text-anchor="start" x="126.5" y="-520.5" font-family="Helvetica,sans-Serif" font-size="10.00" fill="#000000">+ differenceInBC()</text>
<text text-anchor="start" x="126.5" y="-509.5" font-family="Helvetica,sans-Serif" font-size="10.00" fill="#000000">+ toLong()</text>
<text text-anchor="start" x="126.5" y="-498.5" font-family="Helvetica,sans-Serif" font-size="10.00" fill="#000000">+ setFromLong()</text>
<text text-anchor="start" x="126.5" y="-487.5" font-family="Helvetica,sans-Serif" font-size="10.00" fill="#000000">+ operator&gt;()</text>
<text text-anchor="start" x="126.5" y="-476.5" font-family="Helvetica,sans-Serif" font-size="10.00" fill="#000000">+ operator&gt;=()</text>
<text text-anchor="start" x="126.5" y="-465.5" font-family="Helvetica,sans-Serif" font-size="10.00" fill="#000000">+ operator&lt;()</text>
<text text-anchor="start" x="126.5" y="-454.5" font-family="Helvetica,sans-Serif" font-size="10.00" fill="#000000">+ operator&lt;=()</text>
<text text-anchor="start" x="126.5" y="-443.5" font-family="Helvetica,sans-Serif" font-size="10.00" fill="#000000">+ operator&#45;&#45;()</text>
<text text-anchor="start" x="126.5" y="-432.5" font-family="Helvetica,sans-Serif" font-size="10.00" fill="#000000">+ operator&#45;&#45;()</text>
<text text-anchor="start" x="126.5" y="-421.5" font-family="Helvetica,sans-Serif" font-size="10.00" fill="#000000">+ operator++()</text>
<text text-anchor="start" x="126.5" y="-410.5" font-family="Helvetica,sans-Serif" font-size="10.00" fill="#000000">+ operator++()</text>
<text text-anchor="start" x="126.5" y="-399.5" font-family="Helvetica,sans-Serif" font-size="10.00" fill="#000000">+ operator+=()</text>
<text text-anchor="start" x="126.5" y="-388.5" font-family="Helvetica,sans-Serif" font-size="10.00" fill="#000000">+ operator&#45;=()</text>
<text text-anchor="start" x="126.5" y="-377.5" font-family="Helvetica,sans-Serif" font-size="10.00" fill="#000000">+ operator+=()</text>
<text text-anchor="start" x="126.5" y="-366.5" font-family="Helvetica,sans-Serif" font-size="10.00" fill="#000000">+ operator&#45;=()</text>
<text text-anchor="start" x="126.5" y="-355.5" font-family="Helvetica,sans-Serif" font-size="10.00" fill="#000000">+ operator+()</text>
<text text-anchor="start" x="126.5" y="-344.5" font-family="Helvetica,sans-Serif" font-size="10.00" fill="#000000">+ operator&#45;()</text>
<text text-anchor="start" x="126.5" y="-333.5" font-family="Helvetica,sans-Serif" font-size="10.00" fill="#000000">+ operator+()</text>
<text text-anchor="start" x="126.5" y="-322.5" font-family="Helvetica,sans-Serif" font-size="10.00" fill="#000000">+ operator&#45;()</text>
<text text-anchor="start" x="126.5" y="-311.5" font-family="Helvetica,sans-Serif" font-size="10.00" fill="#000000">+ print()</text>
<text text-anchor="start" x="126.5" y="-300.5" font-family="Helvetica,sans-Serif" font-size="10.00" fill="#000000">+ asString()</text>
<text text-anchor="start" x="126.5" y="-289.5" font-family="Helvetica,sans-Serif" font-size="10.00" fill="#000000">+ ClassDefNV()</text>
<text text-anchor="start" x="126.5" y="-278.5" font-family="Helvetica,sans-Serif" font-size="10.00" fill="#000000">+ bc2ns()</text>
<text text-anchor="start" x="126.5" y="-267.5" font-family="Helvetica,sans-Serif" font-size="10.00" fill="#000000">+ ns2bc()</text>
</a>
</g>
</g>
<!-- Node3&#45;&gt;Node2 -->
<g id="edge1" class="edge">
<title>Node3&#45;&gt;Node2</title>
<path fill="none" stroke="#191970" d="M115.5684,-255.6704C112.2569,-244.4548 109.0019,-233.4309 105.858,-222.7831"/>
<polygon fill="none" stroke="#191970" points="112.3032,-256.9716 118.4918,-265.5712 119.0166,-254.9893 112.3032,-256.9716"/>
</g>
<!-- Node4 -->
<g id="node3" class="node">
<title>Node4</title>
<polygon fill="none" stroke="#bfbfbf" points="22,-739.5 22,-796.5 72,-796.5 72,-739.5 22,-739.5"/>
<text text-anchor="middle" x="47" y="-784.5" font-family="Helvetica,sans-Serif" font-size="10.00" fill="#000000">double</text>
<polyline fill="none" stroke="#bfbfbf" points="22,-777.5 72,-777.5 "/>
<text text-anchor="middle" x="47" y="-765.5" font-family="Helvetica,sans-Serif" font-size="10.00" fill="#000000"> </text>
<polyline fill="none" stroke="#bfbfbf" points="22,-758.5 72,-758.5 "/>
<text text-anchor="middle" x="47" y="-746.5" font-family="Helvetica,sans-Serif" font-size="10.00" fill="#000000"> </text>
</g>
<!-- Node4&#45;&gt;Node2 -->
<g id="edge6" class="edge">
<title>Node4&#45;&gt;Node2</title>
<path fill="none" stroke="#404040" d="M43.9793,-739.2316C36.3812,-661.5962 18.4955,-441.4301 39,-260 39.9387,-251.6938 41.1639,-243.175 42.5905,-234.6229"/>
<polygon fill="none" stroke="#404040" points="42.6397,-234.3444 39.7475,-227.7387 44.7327,-222.5283 47.6249,-229.134 42.6397,-234.3444"/>
<text text-anchor="middle" x="74" y="-468" font-family="Helvetica,sans-Serif" font-size="10.00" fill="#000000"> +timeInBCNS</text>
</g>
<!-- Node4&#45;&gt;Node3 -->
<g id="edge2" class="edge">
<title>Node4&#45;&gt;Node3</title>
<path fill="none" stroke="#404040" d="M58.9344,-739.3329C65.0857,-726.324 73.3323,-711.1645 83,-699 90.6483,-689.3764 97.0365,-691.1302 104,-681 106.8741,-676.8188 109.6503,-672.5155 112.3311,-668.1134"/>
<polygon fill="none" stroke="#404040" points="112.3728,-668.0419 111.9375,-660.8439 118.4143,-657.6736 118.8496,-664.8716 112.3728,-668.0419"/>
<text text-anchor="middle" x="121" y="-707.5" font-family="Helvetica,sans-Serif" font-size="10.00" fill="#000000"> +DummyTime</text>
</g>
<!-- Node5 -->
<g id="node4" class="node">
<title>Node5</title>
<g id="a_node4"><a xlink:href="../../d2/d5f/classunsigned_01int.html" target="_top" xlink:title="{unsigned int\n||}">
<polygon fill="none" stroke="#000000" points="123.5,-739.5 123.5,-796.5 200.5,-796.5 200.5,-739.5 123.5,-739.5"/>
<text text-anchor="middle" x="162" y="-784.5" font-family="Helvetica,sans-Serif" font-size="10.00" fill="#000000">unsigned int</text>
<polyline fill="none" stroke="#000000" points="123.5,-777.5 200.5,-777.5 "/>
<text text-anchor="middle" x="162" y="-765.5" font-family="Helvetica,sans-Serif" font-size="10.00" fill="#000000"> </text>
<polyline fill="none" stroke="#000000" points="123.5,-758.5 200.5,-758.5 "/>
<text text-anchor="middle" x="162" y="-746.5" font-family="Helvetica,sans-Serif" font-size="10.00" fill="#000000"> </text>
</a>
</g>
</g>
<!-- Node5&#45;&gt;Node3 -->
<g id="edge3" class="edge">
<title>Node5&#45;&gt;Node3</title>
<path fill="none" stroke="#404040" d="M162.0591,-739.4549C162.1765,-727.0233 162.439,-712.2864 163,-699 163.0879,-696.9172 163.179,-694.8238 163.273,-692.7213"/>
<polygon fill="none" stroke="#404040" points="163.2798,-692.5747 159.5655,-686.3937 163.8424,-680.5878 167.5567,-686.7688 163.2798,-692.5747"/>
<text text-anchor="middle" x="200.5" y="-707.5" font-family="Helvetica,sans-Serif" font-size="10.00" fill="#000000"> +DummyOrbit</text>
</g>
<!-- Node6 -->
<g id="node5" class="node">
<title>Node6</title>
<polygon fill="none" stroke="#bfbfbf" points="229.5,-739.5 229.5,-796.5 290.5,-796.5 290.5,-739.5 229.5,-739.5"/>
<text text-anchor="middle" x="260" y="-784.5" font-family="Helvetica,sans-Serif" font-size="10.00" fill="#000000">unsigned</text>
<polyline fill="none" stroke="#bfbfbf" points="229.5,-777.5 290.5,-777.5 "/>
<text text-anchor="middle" x="260" y="-765.5" font-family="Helvetica,sans-Serif" font-size="10.00" fill="#000000"> </text>
<polyline fill="none" stroke="#bfbfbf" points="229.5,-758.5 290.5,-758.5 "/>
<text text-anchor="middle" x="260" y="-746.5" font-family="Helvetica,sans-Serif" font-size="10.00" fill="#000000"> </text>
</g>
<!-- Node6&#45;&gt;Node3 -->
<g id="edge4" class="edge">
<title>Node6&#45;&gt;Node3</title>
<path fill="none" stroke="#404040" d="M252.2334,-739.4744C248.7575,-726.7081 244.3209,-710.413 239.355,-692.1743"/>
<polygon fill="none" stroke="#404040" points="239.3511,-692.1597 233.9153,-687.4213 236.1986,-680.5812 241.6344,-685.3196 239.3511,-692.1597"/>
<text text-anchor="middle" x="261.5" y="-713" font-family="Helvetica,sans-Serif" font-size="10.00" fill="#000000"> +bc</text>
<text text-anchor="middle" x="261.5" y="-702" font-family="Helvetica,sans-Serif" font-size="10.00" fill="#000000">+orbit</text>
</g>
<!-- Node7 -->
<g id="node6" class="node">
<title>Node7</title>
<polygon fill="none" stroke="#bfbfbf" points="308.5,-739.5 308.5,-796.5 445.5,-796.5 445.5,-739.5 308.5,-739.5"/>
<text text-anchor="middle" x="377" y="-784.5" font-family="Helvetica,sans-Serif" font-size="10.00" fill="#000000">static constexpr uint16_t</text>
<polyline fill="none" stroke="#bfbfbf" points="308.5,-777.5 445.5,-777.5 "/>
<text text-anchor="middle" x="377" y="-765.5" font-family="Helvetica,sans-Serif" font-size="10.00" fill="#000000"> </text>
<polyline fill="none" stroke="#bfbfbf" points="308.5,-758.5 445.5,-758.5 "/>
<text text-anchor="middle" x="377" y="-746.5" font-family="Helvetica,sans-Serif" font-size="10.00" fill="#000000"> </text>
</g>
<!-- Node7&#45;&gt;Node3 -->
<g id="edge5" class="edge">
<title>Node7&#45;&gt;Node3</title>
<path fill="none" stroke="#404040" d="M358.0149,-739.4744C332.4866,-701.1176 285.7571,-630.9052 246.4426,-571.8342"/>
<polygon fill="none" stroke="#404040" points="246.3481,-571.6922 239.6938,-568.9135 239.6994,-561.7024 246.3537,-564.4811 246.3481,-571.6922"/>
<text text-anchor="middle" x="375" y="-707.5" font-family="Helvetica,sans-Serif" font-size="10.00" fill="#000000"> +DummyBC</text>
</g>
</g>
</svg>
