<?xml version="1.0" encoding="UTF-8" standalone="no"?>
<!DOCTYPE svg PUBLIC "-//W3C//DTD SVG 1.1//EN"
 "http://www.w3.org/Graphics/SVG/1.1/DTD/svg11.dtd">
<!-- Generated by graphviz version 2.40.1 (20161225.0304)
 -->
<!-- Title: o2::tpc::TPCSectorHeader Pages: 1 -->
<!--zoomable 1025 -->
<svg id="main" version="1.1" xmlns="http://www.w3.org/2000/svg" xmlns:xlink="http://www.w3.org/1999/xlink" xml:space="preserve" onload="init(evt)">
<style type="text/css"><![CDATA[
.edge:hover path { stroke: red; }
.edge:hover polygon { stroke: red; fill: red; }
]]></style>
<script type="text/javascript"><![CDATA[
var edges = document.getElementsByTagName('g');
if (edges && edges.length) {
  for (var i=0;i<edges.length;i++) {
    if (edges[i].id.substr(0,4)=='edge') {
      edges[i].setAttribute('class','edge');
    }
  }
}
]]></script>
        <defs>
                <circle id="rim" cx="0" cy="0" r="7"/>
                <circle id="rim2" cx="0" cy="0" r="3.5"/>
                <g id="zoomPlus">
                        <use xlink:href="#rim" fill="#404040">
                                <set attributeName="fill" to="#808080" begin="zoomplus.mouseover" end="zoomplus.mouseout"/>
                        </use>
                        <path d="M-4,0h8M0,-4v8" fill="none" stroke="white" stroke-width="1.5" pointer-events="none"/>
                </g>
                <g id="zoomMin">
                        <use xlink:href="#rim" fill="#404040">
                                <set attributeName="fill" to="#808080" begin="zoomminus.mouseover" end="zoomminus.mouseout"/>
                        </use>
                        <path d="M-4,0h8" fill="none" stroke="white" stroke-width="1.5" pointer-events="none"/>
                </g>
                <g id="dirArrow">
                        <path fill="none" stroke="white" stroke-width="1.5" d="M0,-3.0v7 M-2.5,-0.5L0,-3.0L2.5,-0.5"/>
                </g>
               <g id="resetDef">
                       <use xlink:href="#rim2" fill="#404040">
                               <set attributeName="fill" to="#808080" begin="reset.mouseover" end="reset.mouseout"/>
                       </use>
               </g>
        </defs>

<script type="text/javascript">
var viewWidth = 1357;
var viewHeight = 1025;
var sectionId = 'dynsection-1';
</script>
<script xlink:href="../../svgpan.js"/>
<svg id="graph" class="graph">
<g id="viewport">
<title>o2::tpc::TPCSectorHeader</title>
<!-- Node2 -->
<g id="node1" class="node">
<title>Node2</title>
<polygon fill="#bfbfbf" stroke="#000000" points="1071.9624,-.5 1071.9624,-68.5 1211.9624,-68.5 1211.9624,-.5 1071.9624,-.5"/>
<text text-anchor="middle" x="1141.9624" y="-56.5" font-family="Helvetica,sans-Serif" font-size="10.00" fill="#000000">o2::tpc::TPCSectorHeader</text>
<polyline fill="none" stroke="#000000" points="1071.9624,-49.5 1211.9624,-49.5 "/>
<text text-anchor="middle" x="1141.9624" y="-37.5" font-family="Helvetica,sans-Serif" font-size="10.00" fill="#000000"> </text>
<polyline fill="none" stroke="#000000" points="1071.9624,-30.5 1211.9624,-30.5 "/>
<text text-anchor="start" x="1079.9624" y="-18.5" font-family="Helvetica,sans-Serif" font-size="10.00" fill="#000000">+ TPCSectorHeader()</text>
<text text-anchor="start" x="1079.9624" y="-7.5" font-family="Helvetica,sans-Serif" font-size="10.00" fill="#000000">+ sector()</text>
</g>
<!-- Node3 -->
<g id="node2" class="node">
<title>Node3</title>
<g id="a_node2"><a xlink:href="../../d8/dbd/structo2_1_1header_1_1BaseHeader.html" target="_top" xlink:title="the base header struct Every header type must begin (i.e. derive) with this. Don&#39;t use this struct di...">
<polygon fill="none" stroke="#000000" points="639.4624,-138.5 639.4624,-305.5 812.4624,-305.5 812.4624,-138.5 639.4624,-138.5"/>
<text text-anchor="middle" x="725.9624" y="-293.5" font-family="Helvetica,sans-Serif" font-size="10.00" fill="#000000">o2::header::BaseHeader</text>
<polyline fill="none" stroke="#000000" points="639.4624,-286.5 812.4624,-286.5 "/>
<text text-anchor="middle" x="725.9624" y="-274.5" font-family="Helvetica,sans-Serif" font-size="10.00" fill="#000000"> </text>
<polyline fill="none" stroke="#000000" points="639.4624,-267.5 812.4624,-267.5 "/>
<text text-anchor="start" x="647.4624" y="-255.5" font-family="Helvetica,sans-Serif" font-size="10.00" fill="#000000">+ BaseHeader()</text>
<text text-anchor="start" x="647.4624" y="-244.5" font-family="Helvetica,sans-Serif" font-size="10.00" fill="#000000">+ BaseHeader()</text>
<text text-anchor="start" x="647.4624" y="-233.5" font-family="Helvetica,sans-Serif" font-size="10.00" fill="#000000">+ BaseHeader()</text>
<text text-anchor="start" x="647.4624" y="-222.5" font-family="Helvetica,sans-Serif" font-size="10.00" fill="#000000">+ size()</text>
<text text-anchor="start" x="647.4624" y="-211.5" font-family="Helvetica,sans-Serif" font-size="10.00" fill="#000000">+ data()</text>
<text text-anchor="start" x="647.4624" y="-200.5" font-family="Helvetica,sans-Serif" font-size="10.00" fill="#000000">+ next()</text>
<text text-anchor="start" x="647.4624" y="-189.5" font-family="Helvetica,sans-Serif" font-size="10.00" fill="#000000">+ next()</text>
<text text-anchor="start" x="647.4624" y="-178.5" font-family="Helvetica,sans-Serif" font-size="10.00" fill="#000000">+ sanityCheck()</text>
<text text-anchor="start" x="647.4624" y="-167.5" font-family="Helvetica,sans-Serif" font-size="10.00" fill="#000000">+ throwInconsistentStackError()</text>
<text text-anchor="start" x="647.4624" y="-156.5" font-family="Helvetica,sans-Serif" font-size="10.00" fill="#000000">+ get()</text>
<text text-anchor="start" x="647.4624" y="-145.5" font-family="Helvetica,sans-Serif" font-size="10.00" fill="#000000">+ get()</text>
</a>
</g>
</g>
<!-- Node3&#45;&gt;Node2 -->
<g id="edge1" class="edge">
<title>Node3&#45;&gt;Node2</title>
<path fill="none" stroke="#191970" d="M821.8278,-178.7914C898.1819,-144.377 1003.2918,-97.0017 1071.9163,-66.0712"/>
<polygon fill="none" stroke="#191970" points="820.3418,-175.622 812.6632,-182.9221 823.2182,-182.0038 820.3418,-175.622"/>
</g>
<!-- Node4 -->
<g id="node3" class="node">
<title>Node4</title>
<g id="a_node3"><a xlink:href="../../d9/db3/structo2_1_1header_1_1Descriptor.html" target="_top" xlink:title="{o2::header::Descriptor\l\&lt; gSizeHeaderDescriptionString \&gt;\n||+ Descriptor()\l+ Descriptor()\l+ Descriptor()\l+ Descriptor()\l+ operator=()\l+ operator ItgType()\l+ runtimeInit()\l+ operator==()\l+ operator==()\l+ operator\&lt;()\l+ operator!=()\l+ operator!=()\l+ as()\l+ print()\l}">
<polygon fill="none" stroke="#000000" points="292.4624,-408.5 292.4624,-619.5 477.4624,-619.5 477.4624,-408.5 292.4624,-408.5"/>
<text text-anchor="start" x="300.4624" y="-607.5" font-family="Helvetica,sans-Serif" font-size="10.00" fill="#000000">o2::header::Descriptor</text>
<text text-anchor="middle" x="384.9624" y="-596.5" font-family="Helvetica,sans-Serif" font-size="10.00" fill="#000000">&lt; gSizeHeaderDescriptionString &gt;</text>
<polyline fill="none" stroke="#000000" points="292.4624,-589.5 477.4624,-589.5 "/>
<text text-anchor="middle" x="384.9624" y="-577.5" font-family="Helvetica,sans-Serif" font-size="10.00" fill="#000000"> </text>
<polyline fill="none" stroke="#000000" points="292.4624,-570.5 477.4624,-570.5 "/>
<text text-anchor="start" x="300.4624" y="-558.5" font-family="Helvetica,sans-Serif" font-size="10.00" fill="#000000">+ Descriptor()</text>
<text text-anchor="start" x="300.4624" y="-547.5" font-family="Helvetica,sans-Serif" font-size="10.00" fill="#000000">+ Descriptor()</text>
<text text-anchor="start" x="300.4624" y="-536.5" font-family="Helvetica,sans-Serif" font-size="10.00" fill="#000000">+ Descriptor()</text>
<text text-anchor="start" x="300.4624" y="-525.5" font-family="Helvetica,sans-Serif" font-size="10.00" fill="#000000">+ Descriptor()</text>
<text text-anchor="start" x="300.4624" y="-514.5" font-family="Helvetica,sans-Serif" font-size="10.00" fill="#000000">+ operator=()</text>
<text text-anchor="start" x="300.4624" y="-503.5" font-family="Helvetica,sans-Serif" font-size="10.00" fill="#000000">+ operator ItgType()</text>
<text text-anchor="start" x="300.4624" y="-492.5" font-family="Helvetica,sans-Serif" font-size="10.00" fill="#000000">+ runtimeInit()</text>
<text text-anchor="start" x="300.4624" y="-481.5" font-family="Helvetica,sans-Serif" font-size="10.00" fill="#000000">+ operator==()</text>
<text text-anchor="start" x="300.4624" y="-470.5" font-family="Helvetica,sans-Serif" font-size="10.00" fill="#000000">+ operator==()</text>
<text text-anchor="start" x="300.4624" y="-459.5" font-family="Helvetica,sans-Serif" font-size="10.00" fill="#000000">+ operator&lt;()</text>
<text text-anchor="start" x="300.4624" y="-448.5" font-family="Helvetica,sans-Serif" font-size="10.00" fill="#000000">+ operator!=()</text>
<text text-anchor="start" x="300.4624" y="-437.5" font-family="Helvetica,sans-Serif" font-size="10.00" fill="#000000">+ operator!=()</text>
<text text-anchor="start" x="300.4624" y="-426.5" font-family="Helvetica,sans-Serif" font-size="10.00" fill="#000000">+ as()</text>
<text text-anchor="start" x="300.4624" y="-415.5" font-family="Helvetica,sans-Serif" font-size="10.00" fill="#000000">+ print()</text>
</a>
</g>
</g>
<!-- Node4&#45;&gt;Node3 -->
<g id="edge2" class="edge">
<title>Node4&#45;&gt;Node3</title>
<path fill="none" stroke="#404040" d="M425.2678,-408.0807C440.68,-377.9593 460.7673,-347.0997 485.9624,-324 525.8087,-287.4675 580.6969,-262.824 627.9266,-246.9266"/>
<polygon fill="none" stroke="#404040" points="628.0318,-246.8923 632.4956,-241.2288 639.4402,-243.1709 634.9765,-248.8344 628.0318,-246.8923"/>
<text text-anchor="middle" x="518.9624" y="-354.5" font-family="Helvetica,sans-Serif" font-size="10.00" fill="#000000"> +description</text>
</g>
<!-- Node5 -->
<g id="node4" class="node">
<title>Node5</title>
<polygon fill="none" stroke="#bfbfbf" points="465.4624,-959.5 465.4624,-1016.5 504.4624,-1016.5 504.4624,-959.5 465.4624,-959.5"/>
<text text-anchor="middle" x="484.9624" y="-1004.5" font-family="Helvetica,sans-Serif" font-size="10.00" fill="#000000">Type</text>
<polyline fill="none" stroke="#bfbfbf" points="465.4624,-997.5 504.4624,-997.5 "/>
<text text-anchor="middle" x="484.9624" y="-985.5" font-family="Helvetica,sans-Serif" font-size="10.00" fill="#000000"> </text>
<polyline fill="none" stroke="#bfbfbf" points="465.4624,-978.5 504.4624,-978.5 "/>
<text text-anchor="middle" x="484.9624" y="-966.5" font-family="Helvetica,sans-Serif" font-size="10.00" fill="#000000"> </text>
</g>
<!-- Node5&#45;&gt;Node4 -->
<g id="edge3" class="edge">
<title>Node5&#45;&gt;Node4</title>
<path fill="none" stroke="#404040" d="M504.5219,-973.6317C526.0151,-956.4991 559.3014,-925.6601 572.9624,-890 606.6691,-802.0132 589.774,-770.7103 572.9624,-678 569.5747,-659.318 572.1297,-650.6404 557.9624,-638 535.8497,-618.2705 518.3621,-632.86 488.2204,-620.1567"/>
<polygon fill="none" stroke="#404040" points="488.1905,-620.1416 481.03,-620.9948 477.4884,-614.7133 484.6489,-613.8601 488.1905,-620.1416"/>
<text text-anchor="middle" x="605.4624" y="-781.5" font-family="Helvetica,sans-Serif" font-size="10.00" fill="#000000"> +itg</text>
</g>
<!-- Node9 -->
<g id="node8" class="node">
<title>Node9</title>
<g id="a_node8"><a xlink:href="../../d9/db3/structo2_1_1header_1_1Descriptor.html" target="_top" xlink:title="{o2::header::Descriptor\l\&lt; N, PrinterPolicy \&gt;\n||+ Descriptor()\l+ Descriptor()\l+ Descriptor()\l+ operator=()\l+ operator ItgType()\l+ Descriptor()\l+ runtimeInit()\l+ operator==()\l+ operator\&lt;()\l+ operator!=()\l+ operator==()\l+ operator!=()\l+ as()\l+ print()\l}">
<polygon fill="none" stroke="#000000" points="321.4624,-678.5 321.4624,-889.5 446.4624,-889.5 446.4624,-678.5 321.4624,-678.5"/>
<text text-anchor="start" x="329.4624" y="-877.5" font-family="Helvetica,sans-Serif" font-size="10.00" fill="#000000">o2::header::Descriptor</text>
<text text-anchor="middle" x="383.9624" y="-866.5" font-family="Helvetica,sans-Serif" font-size="10.00" fill="#000000">&lt; N, PrinterPolicy &gt;</text>
<polyline fill="none" stroke="#000000" points="321.4624,-859.5 446.4624,-859.5 "/>
<text text-anchor="middle" x="383.9624" y="-847.5" font-family="Helvetica,sans-Serif" font-size="10.00" fill="#000000"> </text>
<polyline fill="none" stroke="#000000" points="321.4624,-840.5 446.4624,-840.5 "/>
<text text-anchor="start" x="329.4624" y="-828.5" font-family="Helvetica,sans-Serif" font-size="10.00" fill="#000000">+ Descriptor()</text>
<text text-anchor="start" x="329.4624" y="-817.5" font-family="Helvetica,sans-Serif" font-size="10.00" fill="#000000">+ Descriptor()</text>
<text text-anchor="start" x="329.4624" y="-806.5" font-family="Helvetica,sans-Serif" font-size="10.00" fill="#000000">+ Descriptor()</text>
<text text-anchor="start" x="329.4624" y="-795.5" font-family="Helvetica,sans-Serif" font-size="10.00" fill="#000000">+ operator=()</text>
<text text-anchor="start" x="329.4624" y="-784.5" font-family="Helvetica,sans-Serif" font-size="10.00" fill="#000000">+ operator ItgType()</text>
<text text-anchor="start" x="329.4624" y="-773.5" font-family="Helvetica,sans-Serif" font-size="10.00" fill="#000000">+ Descriptor()</text>
<text text-anchor="start" x="329.4624" y="-762.5" font-family="Helvetica,sans-Serif" font-size="10.00" fill="#000000">+ runtimeInit()</text>
<text text-anchor="start" x="329.4624" y="-751.5" font-family="Helvetica,sans-Serif" font-size="10.00" fill="#000000">+ operator==()</text>
<text text-anchor="start" x="329.4624" y="-740.5" font-family="Helvetica,sans-Serif" font-size="10.00" fill="#000000">+ operator&lt;()</text>
<text text-anchor="start" x="329.4624" y="-729.5" font-family="Helvetica,sans-Serif" font-size="10.00" fill="#000000">+ operator!=()</text>
<text text-anchor="start" x="329.4624" y="-718.5" font-family="Helvetica,sans-Serif" font-size="10.00" fill="#000000">+ operator==()</text>
<text text-anchor="start" x="329.4624" y="-707.5" font-family="Helvetica,sans-Serif" font-size="10.00" fill="#000000">+ operator!=()</text>
<text text-anchor="start" x="329.4624" y="-696.5" font-family="Helvetica,sans-Serif" font-size="10.00" fill="#000000">+ as()</text>
<text text-anchor="start" x="329.4624" y="-685.5" font-family="Helvetica,sans-Serif" font-size="10.00" fill="#000000">+ print()</text>
</a>
</g>
</g>
<!-- Node5&#45;&gt;Node9 -->
<g id="edge8" class="edge">
<title>Node5&#45;&gt;Node9</title>
<path fill="none" stroke="#404040" d="M465.3283,-983.2639C444.7944,-977.1909 413.4437,-964.5159 397.9624,-941 390.1448,-929.1252 384.9237,-915.6042 381.5671,-901.594"/>
<polygon fill="none" stroke="#404040" points="381.5478,-901.498 376.4382,-896.4095 379.1701,-889.7359 384.2796,-894.8243 381.5478,-901.498"/>
<text text-anchor="middle" x="410.4624" y="-922" font-family="Helvetica,sans-Serif" font-size="10.00" fill="#000000"> +itg</text>
</g>
<!-- Node10 -->
<g id="node9" class="node">
<title>Node10</title>
<g id="a_node9"><a xlink:href="../../d9/db3/structo2_1_1header_1_1Descriptor.html" target="_top" xlink:title="{o2::header::Descriptor\l\&lt; gSizeSerializationMethodString \&gt;\n||+ Descriptor()\l+ Descriptor()\l+ Descriptor()\l+ Descriptor()\l+ operator=()\l+ operator ItgType()\l+ runtimeInit()\l+ operator==()\l+ operator==()\l+ operator\&lt;()\l+ operator!=()\l+ operator!=()\l+ as()\l+ print()\l}">
<polygon fill="none" stroke="#000000" points="83.4624,-408.5 83.4624,-619.5 274.4624,-619.5 274.4624,-408.5 83.4624,-408.5"/>
<text text-anchor="start" x="91.4624" y="-607.5" font-family="Helvetica,sans-Serif" font-size="10.00" fill="#000000">o2::header::Descriptor</text>
<text text-anchor="middle" x="178.9624" y="-596.5" font-family="Helvetica,sans-Serif" font-size="10.00" fill="#000000">&lt; gSizeSerializationMethodString &gt;</text>
<polyline fill="none" stroke="#000000" points="83.4624,-589.5 274.4624,-589.5 "/>
<text text-anchor="middle" x="178.9624" y="-577.5" font-family="Helvetica,sans-Serif" font-size="10.00" fill="#000000"> </text>
<polyline fill="none" stroke="#000000" points="83.4624,-570.5 274.4624,-570.5 "/>
<text text-anchor="start" x="91.4624" y="-558.5" font-family="Helvetica,sans-Serif" font-size="10.00" fill="#000000">+ Descriptor()</text>
<text text-anchor="start" x="91.4624" y="-547.5" font-family="Helvetica,sans-Serif" font-size="10.00" fill="#000000">+ Descriptor()</text>
<text text-anchor="start" x="91.4624" y="-536.5" font-family="Helvetica,sans-Serif" font-size="10.00" fill="#000000">+ Descriptor()</text>
<text text-anchor="start" x="91.4624" y="-525.5" font-family="Helvetica,sans-Serif" font-size="10.00" fill="#000000">+ Descriptor()</text>
<text text-anchor="start" x="91.4624" y="-514.5" font-family="Helvetica,sans-Serif" font-size="10.00" fill="#000000">+ operator=()</text>
<text text-anchor="start" x="91.4624" y="-503.5" font-family="Helvetica,sans-Serif" font-size="10.00" fill="#000000">+ operator ItgType()</text>
<text text-anchor="start" x="91.4624" y="-492.5" font-family="Helvetica,sans-Serif" font-size="10.00" fill="#000000">+ runtimeInit()</text>
<text text-anchor="start" x="91.4624" y="-481.5" font-family="Helvetica,sans-Serif" font-size="10.00" fill="#000000">+ operator==()</text>
<text text-anchor="start" x="91.4624" y="-470.5" font-family="Helvetica,sans-Serif" font-size="10.00" fill="#000000">+ operator==()</text>
<text text-anchor="start" x="91.4624" y="-459.5" font-family="Helvetica,sans-Serif" font-size="10.00" fill="#000000">+ operator&lt;()</text>
<text text-anchor="start" x="91.4624" y="-448.5" font-family="Helvetica,sans-Serif" font-size="10.00" fill="#000000">+ operator!=()</text>
<text text-anchor="start" x="91.4624" y="-437.5" font-family="Helvetica,sans-Serif" font-size="10.00" fill="#000000">+ operator!=()</text>
<text text-anchor="start" x="91.4624" y="-426.5" font-family="Helvetica,sans-Serif" font-size="10.00" fill="#000000">+ as()</text>
<text text-anchor="start" x="91.4624" y="-415.5" font-family="Helvetica,sans-Serif" font-size="10.00" fill="#000000">+ print()</text>
</a>
</g>
</g>
<!-- Node5&#45;&gt;Node10 -->
<g id="edge14" class="edge">
<title>Node5&#45;&gt;Node10</title>
<path fill="none" stroke="#404040" d="M486.2422,-959.479C488.7024,-890.9383 491.0047,-719.5672 454.9624,-678 432.7882,-652.4268 411.7585,-674.0456 380.9624,-660 365.5909,-652.9893 365.2492,-645.1935 349.9624,-638 325.1147,-626.3075 312.5001,-633.501 285.3853,-620.5922"/>
<polygon fill="none" stroke="#404040" points="285.2646,-620.5274 278.0864,-621.2158 274.6901,-614.8546 281.8683,-614.1662 285.2646,-620.5274"/>
<text text-anchor="middle" x="500.4624" y="-781.5" font-family="Helvetica,sans-Serif" font-size="10.00" fill="#000000"> +itg</text>
</g>
<!-- Node6 -->
<g id="node5" class="node">
<title>Node6</title>
<polygon fill="none" stroke="#bfbfbf" points="585.9624,-959.5 585.9624,-1016.5 623.9624,-1016.5 623.9624,-959.5 585.9624,-959.5"/>
<text text-anchor="middle" x="604.9624" y="-1004.5" font-family="Helvetica,sans-Serif" font-size="10.00" fill="#000000">char</text>
<polyline fill="none" stroke="#bfbfbf" points="585.9624,-997.5 623.9624,-997.5 "/>
<text text-anchor="middle" x="604.9624" y="-985.5" font-family="Helvetica,sans-Serif" font-size="10.00" fill="#000000"> </text>
<polyline fill="none" stroke="#bfbfbf" points="585.9624,-978.5 623.9624,-978.5 "/>
<text text-anchor="middle" x="604.9624" y="-966.5" font-family="Helvetica,sans-Serif" font-size="10.00" fill="#000000"> </text>
</g>
<!-- Node6&#45;&gt;Node3 -->
<g id="edge12" class="edge">
<title>Node6&#45;&gt;Node3</title>
<path fill="none" stroke="#404040" d="M624.1477,-966.8202C639.9033,-948.0789 661.2972,-919.2367 671.9624,-890 742.6242,-696.2923 741.3317,-450.6574 733.844,-317.8174"/>
<polygon fill="none" stroke="#404040" points="733.8365,-317.6899 729.4886,-311.9371 733.1266,-305.711 737.4746,-311.4638 733.8365,-317.6899"/>
<text text-anchor="middle" x="761.9624" y="-646.5" font-family="Helvetica,sans-Serif" font-size="10.00" fill="#000000"> +magicString</text>
</g>
<!-- Node6&#45;&gt;Node4 -->
<g id="edge4" class="edge">
<title>Node6&#45;&gt;Node4</title>
<path fill="none" stroke="#404040" d="M614.8181,-959.1278C632.4244,-902.463 663.7168,-773.8684 621.9624,-678 611.5398,-654.0698 602.2309,-649.8263 578.9624,-638 544.6566,-620.5641 526.2267,-636.8393 488.7891,-620.6204"/>
<polygon fill="none" stroke="#404040" points="488.4511,-620.4531 481.2992,-621.3759 477.6967,-615.1292 484.8486,-614.2064 488.4511,-620.4531"/>
<text text-anchor="middle" x="655.4624" y="-781.5" font-family="Helvetica,sans-Serif" font-size="10.00" fill="#000000"> +str</text>
</g>
<!-- Node6&#45;&gt;Node9 -->
<g id="edge9" class="edge">
<title>Node6&#45;&gt;Node9</title>
<path fill="none" stroke="#404040" d="M585.5961,-981.6589C564.4299,-974.1279 530.1762,-960.1341 504.9624,-941 486.6374,-927.0937 469.6322,-909.7448 454.507,-891.6994"/>
<polygon fill="none" stroke="#404040" points="454.3555,-891.5137 447.4637,-889.3917 446.7718,-882.2139 453.6636,-884.3359 454.3555,-891.5137"/>
<text text-anchor="middle" x="517.4624" y="-922" font-family="Helvetica,sans-Serif" font-size="10.00" fill="#000000"> +str</text>
</g>
<!-- Node6&#45;&gt;Node10 -->
<g id="edge15" class="edge">
<title>Node6&#45;&gt;Node10</title>
<path fill="none" stroke="#404040" d="M585.7189,-964.2417C571.5521,-945.3292 553.2106,-917.548 543.9624,-890 526.0659,-836.6911 561.0325,-677.4526 520.9624,-638 485.5295,-603.1133 349.6252,-637.4724 286.299,-619.9917"/>
<polygon fill="none" stroke="#404040" points="285.9339,-619.8593 278.9297,-621.5743 274.6527,-615.7684 281.6569,-614.0535 285.9339,-619.8593"/>
<text text-anchor="middle" x="556.4624" y="-781.5" font-family="Helvetica,sans-Serif" font-size="10.00" fill="#000000"> +str</text>
</g>
<!-- Node7 -->
<g id="node6" class="node">
<title>Node7</title>
<polygon fill="none" stroke="#bfbfbf" points="90.4624,-959.5 90.4624,-1016.5 119.4624,-1016.5 119.4624,-959.5 90.4624,-959.5"/>
<text text-anchor="middle" x="104.9624" y="-1004.5" font-family="Helvetica,sans-Serif" font-size="10.00" fill="#000000">int</text>
<polyline fill="none" stroke="#bfbfbf" points="90.4624,-997.5 119.4624,-997.5 "/>
<text text-anchor="middle" x="104.9624" y="-985.5" font-family="Helvetica,sans-Serif" font-size="10.00" fill="#000000"> </text>
<polyline fill="none" stroke="#bfbfbf" points="90.4624,-978.5 119.4624,-978.5 "/>
<text text-anchor="middle" x="104.9624" y="-966.5" font-family="Helvetica,sans-Serif" font-size="10.00" fill="#000000"> </text>
</g>
<!-- Node7&#45;&gt;Node4 -->
<g id="edge5" class="edge">
<title>Node7&#45;&gt;Node4</title>
<path fill="none" stroke="#404040" d="M98.1548,-959.2238C86.0937,-901.0529 67.1688,-767.4149 122.9624,-678 142.1359,-647.2725 160.0184,-650.6337 193.9624,-638 228.5338,-625.1328 244.7081,-636.9765 281.3397,-620.0516"/>
<polygon fill="none" stroke="#404040" points="281.5638,-619.937 285.083,-613.6429 292.2464,-614.4706 288.7272,-620.7647 281.5638,-619.937"/>
<text text-anchor="middle" x="151.9624" y="-792.5" font-family="Helvetica,sans-Serif" font-size="10.00" fill="#000000"> +arraySize</text>
<text text-anchor="middle" x="151.9624" y="-781.5" font-family="Helvetica,sans-Serif" font-size="10.00" fill="#000000">+size</text>
<text text-anchor="middle" x="151.9624" y="-770.5" font-family="Helvetica,sans-Serif" font-size="10.00" fill="#000000">+bitcount</text>
</g>
<!-- Node7&#45;&gt;Node9 -->
<g id="edge10" class="edge">
<title>Node7&#45;&gt;Node9</title>
<path fill="none" stroke="#404040" d="M119.6033,-979.3034C146.1672,-963.7393 204.3397,-930.6365 255.9624,-908 277.976,-898.3471 287.6957,-904.3727 306.9624,-890 308.6858,-888.7143 310.387,-887.3791 312.0652,-885.9996"/>
<polygon fill="none" stroke="#404040" points="312.4656,-885.6424 314.2801,-878.6633 321.4203,-877.654 319.6058,-884.6331 312.4656,-885.6424"/>
<text text-anchor="middle" x="284.9624" y="-933" font-family="Helvetica,sans-Serif" font-size="10.00" fill="#000000"> +arraySize</text>
<text text-anchor="middle" x="284.9624" y="-922" font-family="Helvetica,sans-Serif" font-size="10.00" fill="#000000">+size</text>
<text text-anchor="middle" x="284.9624" y="-911" font-family="Helvetica,sans-Serif" font-size="10.00" fill="#000000">+bitcount</text>
</g>
<!-- Node7&#45;&gt;Node10 -->
<g id="edge16" class="edge">
<title>Node7&#45;&gt;Node10</title>
<path fill="none" stroke="#404040" d="M90.209,-975.9382C70.8842,-959.078 37.9374,-926.4122 24.9624,-890 -6.6645,-801.2443 -9.7223,-765.606 24.9624,-678 36.132,-649.7879 54.7046,-623.5955 75.1584,-600.7952"/>
<polygon fill="none" stroke="#404040" points="75.2407,-600.7063 76.3794,-593.5856 83.3903,-591.898 82.2516,-599.0186 75.2407,-600.7063"/>
<text text-anchor="middle" x="53.9624" y="-792.5" font-family="Helvetica,sans-Serif" font-size="10.00" fill="#000000"> +arraySize</text>
<text text-anchor="middle" x="53.9624" y="-781.5" font-family="Helvetica,sans-Serif" font-size="10.00" fill="#000000">+size</text>
<text text-anchor="middle" x="53.9624" y="-770.5" font-family="Helvetica,sans-Serif" font-size="10.00" fill="#000000">+bitcount</text>
</g>
<!-- Node8 -->
<g id="node7" class="node">
<title>Node8</title>
<polygon fill="none" stroke="#bfbfbf" points="172.4624,-959.5 172.4624,-1016.5 279.4624,-1016.5 279.4624,-959.5 172.4624,-959.5"/>
<text text-anchor="middle" x="225.9624" y="-1004.5" font-family="Helvetica,sans-Serif" font-size="10.00" fill="#000000">anonymous:+@72</text>
<polyline fill="none" stroke="#bfbfbf" points="172.4624,-997.5 279.4624,-997.5 "/>
<text text-anchor="middle" x="225.9624" y="-985.5" font-family="Helvetica,sans-Serif" font-size="10.00" fill="#000000"> </text>
<polyline fill="none" stroke="#bfbfbf" points="172.4624,-978.5 279.4624,-978.5 "/>
<text text-anchor="middle" x="225.9624" y="-966.5" font-family="Helvetica,sans-Serif" font-size="10.00" fill="#000000"> </text>
</g>
<!-- Node8&#45;&gt;Node4 -->
<g id="edge6" class="edge">
<title>Node8&#45;&gt;Node4</title>
<path fill="none" stroke="#404040" d="M231.0078,-959.2798C234.4228,-939.7517 239.0139,-913.3253 242.9624,-890 258.9014,-795.8419 219.73,-753.6888 277.9624,-678 289.8499,-662.5489 304.1267,-673.734 317.9624,-660 326.812,-651.2154 334.6141,-641.0459 341.4647,-630.2431"/>
<polygon fill="none" stroke="#404040" points="341.5967,-630.0218 341.2353,-622.8198 347.7444,-619.7162 348.1057,-626.9183 341.5967,-630.0218"/>
<text text-anchor="middle" x="294.9624" y="-781.5" font-family="Helvetica,sans-Serif" font-size="10.00" fill="#000000"> +@72</text>
</g>
<!-- Node8&#45;&gt;Node9 -->
<g id="edge11" class="edge">
<title>Node8&#45;&gt;Node9</title>
<path fill="none" stroke="#404040" d="M279.9075,-968.3043C293.6424,-961.3184 307.4683,-952.3048 317.9624,-941 328.9695,-929.1425 338.2865,-915.181 346.1331,-900.5569"/>
<polygon fill="none" stroke="#404040" points="346.1563,-900.5111 345.3066,-893.3502 351.5898,-889.8117 352.4395,-896.9726 346.1563,-900.5111"/>
<text text-anchor="middle" x="356.9624" y="-922" font-family="Helvetica,sans-Serif" font-size="10.00" fill="#000000"> +@72</text>
</g>
<!-- Node8&#45;&gt;Node10 -->
<g id="edge17" class="edge">
<title>Node8&#45;&gt;Node10</title>
<path fill="none" stroke="#404040" d="M217.1105,-959.3653C215.5133,-953.3469 214.0216,-947.0029 212.9624,-941 194.6841,-837.412 186.2246,-717.9386 182.3137,-631.7572"/>
<polygon fill="none" stroke="#404040" points="182.3045,-631.5447 178.0462,-625.7252 181.7803,-619.5562 186.0386,-625.3757 182.3045,-631.5447"/>
<text text-anchor="middle" x="221.9624" y="-781.5" font-family="Helvetica,sans-Serif" font-size="10.00" fill="#000000"> +@72</text>
</g>
<!-- Node9&#45;&gt;Node4 -->
<g id="edge7" class="edge">
<title>Node9&#45;&gt;Node4</title>
<path fill="none" stroke="#ffa500" d="M384.3919,-668.0145C384.4511,-652.039 384.5116,-635.701 384.5701,-619.9196"/>
<polygon fill="#ffa500" stroke="#ffa500" points="380.8904,-668.438 384.3533,-678.4509 387.8904,-668.464 380.8904,-668.438"/>
<text text-anchor="start" x="384.9624" y="-652" font-family="Helvetica,sans-Serif" font-size="10.00" fill="#000000"> &lt; gSizeHeaderDescription</text>
<text text-anchor="middle" x="450.9624" y="-641" font-family="Helvetica,sans-Serif" font-size="10.00" fill="#000000">String &gt;</text>
</g>
<!-- Node9&#45;&gt;Node10 -->
<g id="edge18" class="edge">
<title>Node9&#45;&gt;Node10</title>
<path fill="none" stroke="#ffa500" d="M313.3913,-682.4035C311.2909,-680.8564 309.1477,-679.3851 306.9624,-678 270.6654,-654.9947 242.8768,-689.8498 211.9624,-660 200.4653,-648.8989 192.5877,-634.7055 187.2541,-619.5462"/>
<polygon fill="#ffa500" stroke="#ffa500" points="311.2874,-685.2026 321.2798,-688.7246 315.6647,-679.74 311.2874,-685.2026"/>
<text text-anchor="start" x="211.9624" y="-652" font-family="Helvetica,sans-Serif" font-size="10.00" fill="#000000"> &lt; gSizeSerializationMethod</text>
<text text-anchor="middle" x="280.9624" y="-641" font-family="Helvetica,sans-Serif" font-size="10.00" fill="#000000">String &gt;</text>
</g>
<!-- Node10&#45;&gt;Node3 -->
<g id="edge13" class="edge">
<title>Node10&#45;&gt;Node3</title>
<path fill="none" stroke="#404040" d="M261.0208,-408.0267C289.4547,-377.1821 323.4426,-345.9269 359.9624,-324 442.6308,-274.3649 550.2265,-248.1567 627.3272,-234.805"/>
<polygon fill="none" stroke="#404040" points="627.597,-234.7598 632.8511,-229.8207 639.4311,-232.7709 634.177,-237.71 627.597,-234.7598"/>
<text text-anchor="middle" x="395.9624" y="-354.5" font-family="Helvetica,sans-Serif" font-size="10.00" fill="#000000"> +serialization</text>
</g>
<!-- Node11 -->
<g id="node10" class="node">
<title>Node11</title>
<g id="a_node10"><a xlink:href="../../d2/d5f/classunsigned_01int.html" target="_top" xlink:title="{unsigned int\n||}">
<polygon fill="none" stroke="#000000" points="495.4624,-485.5 495.4624,-542.5 572.4624,-542.5 572.4624,-485.5 495.4624,-485.5"/>
<text text-anchor="middle" x="533.9624" y="-530.5" font-family="Helvetica,sans-Serif" font-size="10.00" fill="#000000">unsigned int</text>
<polyline fill="none" stroke="#000000" points="495.4624,-523.5 572.4624,-523.5 "/>
<text text-anchor="middle" x="533.9624" y="-511.5" font-family="Helvetica,sans-Serif" font-size="10.00" fill="#000000"> </text>
<polyline fill="none" stroke="#000000" points="495.4624,-504.5 572.4624,-504.5 "/>
<text text-anchor="middle" x="533.9624" y="-492.5" font-family="Helvetica,sans-Serif" font-size="10.00" fill="#000000"> </text>
</a>
</g>
</g>
<!-- Node11&#45;&gt;Node3 -->
<g id="edge19" class="edge">
<title>Node11&#45;&gt;Node3</title>
<path fill="none" stroke="#404040" d="M535.7041,-485.4414C539.3477,-445.9558 550.5628,-373.918 584.9624,-324 596.8572,-306.7391 612.6617,-291.3421 629.3827,-278.0665"/>
<polygon fill="none" stroke="#404040" points="629.7682,-277.7726 632.1145,-270.9539 639.3111,-270.4971 636.9648,-277.3159 629.7682,-277.7726"/>
<text text-anchor="middle" x="621.9624" y="-354.5" font-family="Helvetica,sans-Serif" font-size="10.00" fill="#000000"> +sMagicString</text>
</g>
<!-- Node12 -->
<g id="node11" class="node">
<title>Node12</title>
<polygon fill="none" stroke="#bfbfbf" points="590.4624,-485.5 590.4624,-542.5 697.4624,-542.5 697.4624,-485.5 590.4624,-485.5"/>
<text text-anchor="middle" x="643.9624" y="-530.5" font-family="Helvetica,sans-Serif" font-size="10.00" fill="#000000">anonymous:+@74</text>
<polyline fill="none" stroke="#bfbfbf" points="590.4624,-523.5 697.4624,-523.5 "/>
<text text-anchor="middle" x="643.9624" y="-511.5" font-family="Helvetica,sans-Serif" font-size="10.00" fill="#000000"> </text>
<polyline fill="none" stroke="#bfbfbf" points="590.4624,-504.5 697.4624,-504.5 "/>
<text text-anchor="middle" x="643.9624" y="-492.5" font-family="Helvetica,sans-Serif" font-size="10.00" fill="#000000"> </text>
</g>
<!-- Node12&#45;&gt;Node3 -->
<g id="edge20" class="edge">
<title>Node12&#45;&gt;Node3</title>
<path fill="none" stroke="#404040" d="M646.7084,-485.4309C650.8615,-447.7554 660.2099,-379.7153 677.9624,-324 678.6865,-321.7273 679.4505,-319.4399 680.2489,-317.1442"/>
<polygon fill="none" stroke="#404040" points="680.3448,-316.8844 678.6713,-309.8702 684.5023,-305.6276 686.1758,-312.6419 680.3448,-316.8844"/>
<text text-anchor="middle" x="694.9624" y="-354.5" font-family="Helvetica,sans-Serif" font-size="10.00" fill="#000000"> +@74</text>
</g>
<!-- Node13 -->
<g id="node12" class="node">
<title>Node13</title>
<polygon fill="none" stroke="#bfbfbf" points="995.4624,-485.5 995.4624,-542.5 1056.4624,-542.5 1056.4624,-485.5 995.4624,-485.5"/>
<text text-anchor="middle" x="1025.9624" y="-530.5" font-family="Helvetica,sans-Serif" font-size="10.00" fill="#000000">unsigned</text>
<polyline fill="none" stroke="#bfbfbf" points="995.4624,-523.5 1056.4624,-523.5 "/>
<text text-anchor="middle" x="1025.9624" y="-511.5" font-family="Helvetica,sans-Serif" font-size="10.00" fill="#000000"> </text>
<polyline fill="none" stroke="#bfbfbf" points="995.4624,-504.5 1056.4624,-504.5 "/>
<text text-anchor="middle" x="1025.9624" y="-492.5" font-family="Helvetica,sans-Serif" font-size="10.00" fill="#000000"> </text>
</g>
<!-- Node13&#45;&gt;Node2 -->
<g id="edge25" class="edge">
<title>Node13&#45;&gt;Node2</title>
<path fill="none" stroke="#404040" d="M1029.9189,-485.4671C1033.3353,-460.3552 1038.2867,-422.7881 1041.9624,-390 1054.4963,-278.1936 1025.891,-243.1288 1065.9624,-138 1074.2026,-116.3814 1088.252,-95.2813 1102.0463,-77.8321"/>
<polygon fill="none" stroke="#404040" points="1102.0516,-77.8256 1102.751,-70.6484 1109.645,-68.5336 1108.9456,-75.7107 1102.0516,-77.8256"/>
<text text-anchor="middle" x="1115.9624" y="-241.5" font-family="Helvetica,sans-Serif" font-size="10.00" fill="#000000"> +sectorBits</text>
<text text-anchor="middle" x="1115.9624" y="-230.5" font-family="Helvetica,sans-Serif" font-size="10.00" fill="#000000">+unused</text>
<text text-anchor="middle" x="1115.9624" y="-219.5" font-family="Helvetica,sans-Serif" font-size="10.00" fill="#000000">+flags</text>
<text text-anchor="middle" x="1115.9624" y="-208.5" font-family="Helvetica,sans-Serif" font-size="10.00" fill="#000000">+activeSectorsFlags</text>
<text text-anchor="middle" x="1115.9624" y="-197.5" font-family="Helvetica,sans-Serif" font-size="10.00" fill="#000000">+activeSectors</text>
</g>
<!-- Node13&#45;&gt;Node3 -->
<g id="edge21" class="edge">
<title>Node13&#45;&gt;Node3</title>
<path fill="none" stroke="#404040" d="M1006.2967,-485.3918C990.0133,-460.8525 967.0248,-424.15 950.9624,-390 937.7411,-361.8906 948.4279,-347.3688 927.9624,-324 900.4008,-292.5284 860.8182,-269.5904 823.9837,-253.532"/>
<polygon fill="none" stroke="#404040" points="823.7182,-253.4204 816.6366,-254.781 812.6569,-248.7675 819.7385,-247.4068 823.7182,-253.4204"/>
<text text-anchor="middle" x="996.4624" y="-382" font-family="Helvetica,sans-Serif" font-size="10.00" fill="#000000"> +headerVersion</text>
<text text-anchor="middle" x="996.4624" y="-371" font-family="Helvetica,sans-Serif" font-size="10.00" fill="#000000">+headerSize</text>
<text text-anchor="middle" x="996.4624" y="-360" font-family="Helvetica,sans-Serif" font-size="10.00" fill="#000000">+flagsNextHeader</text>
<text text-anchor="middle" x="996.4624" y="-349" font-family="Helvetica,sans-Serif" font-size="10.00" fill="#000000">+magicStringInt</text>
<text text-anchor="middle" x="996.4624" y="-338" font-family="Helvetica,sans-Serif" font-size="10.00" fill="#000000">+flagsUnused</text>
<text text-anchor="middle" x="996.4624" y="-327" font-family="Helvetica,sans-Serif" font-size="10.00" fill="#000000">+flags</text>
</g>
<!-- Node14 -->
<g id="node13" class="node">
<title>Node14</title>
<polygon fill="none" stroke="#bfbfbf" points="754.4624,-485.5 754.4624,-542.5 797.4624,-542.5 797.4624,-485.5 754.4624,-485.5"/>
<text text-anchor="middle" x="775.9624" y="-530.5" font-family="Helvetica,sans-Serif" font-size="10.00" fill="#000000">const</text>
<polyline fill="none" stroke="#bfbfbf" points="754.4624,-523.5 797.4624,-523.5 "/>
<text text-anchor="middle" x="775.9624" y="-511.5" font-family="Helvetica,sans-Serif" font-size="10.00" fill="#000000"> </text>
<polyline fill="none" stroke="#bfbfbf" points="754.4624,-504.5 797.4624,-504.5 "/>
<text text-anchor="middle" x="775.9624" y="-492.5" font-family="Helvetica,sans-Serif" font-size="10.00" fill="#000000"> </text>
</g>
<!-- Node14&#45;&gt;Node3 -->
<g id="edge22" class="edge">
<title>Node14&#45;&gt;Node3</title>
<path fill="none" stroke="#404040" d="M771.0771,-485.4702C764.4678,-446.8715 752.3522,-376.1164 742.3395,-317.6425"/>
<polygon fill="none" stroke="#404040" points="742.3279,-317.5744 737.3726,-312.3356 740.3025,-305.7465 745.2578,-310.9853 742.3279,-317.5744"/>
<text text-anchor="middle" x="809.4624" y="-365.5" font-family="Helvetica,sans-Serif" font-size="10.00" fill="#000000"> +sHeaderType</text>
<text text-anchor="middle" x="809.4624" y="-354.5" font-family="Helvetica,sans-Serif" font-size="10.00" fill="#000000">+sSerializationMethod</text>
<text text-anchor="middle" x="809.4624" y="-343.5" font-family="Helvetica,sans-Serif" font-size="10.00" fill="#000000">+sVersion</text>
</g>
<!-- Node15 -->
<g id="node14" class="node">
<title>Node15</title>
<polygon fill="none" stroke="#bfbfbf" points="839.4624,-485.5 839.4624,-542.5 946.4624,-542.5 946.4624,-485.5 839.4624,-485.5"/>
<text text-anchor="middle" x="892.9624" y="-530.5" font-family="Helvetica,sans-Serif" font-size="10.00" fill="#000000">anonymous:+@76</text>
<polyline fill="none" stroke="#bfbfbf" points="839.4624,-523.5 946.4624,-523.5 "/>
<text text-anchor="middle" x="892.9624" y="-511.5" font-family="Helvetica,sans-Serif" font-size="10.00" fill="#000000"> </text>
<polyline fill="none" stroke="#bfbfbf" points="839.4624,-504.5 946.4624,-504.5 "/>
<text text-anchor="middle" x="892.9624" y="-492.5" font-family="Helvetica,sans-Serif" font-size="10.00" fill="#000000"> </text>
</g>
<!-- Node15&#45;&gt;Node3 -->
<g id="edge23" class="edge">
<title>Node15&#45;&gt;Node3</title>
<path fill="none" stroke="#404040" d="M896.1377,-485.32C899.0604,-446.0103 899.1396,-374.5231 868.9624,-324 857.3641,-304.5821 840.4829,-287.854 822.3535,-273.8869"/>
<polygon fill="none" stroke="#404040" points="822.1473,-273.7353 814.9439,-273.4018 812.4812,-266.6243 819.6846,-266.9577 822.1473,-273.7353"/>
<text text-anchor="middle" x="908.9624" y="-354.5" font-family="Helvetica,sans-Serif" font-size="10.00" fill="#000000"> +@76</text>
</g>
<!-- Node16 -->
<g id="node15" class="node">
<title>Node16</title>
<polygon fill="none" stroke="#bfbfbf" points="1174.4624,-193.5 1174.4624,-250.5 1281.4624,-250.5 1281.4624,-193.5 1174.4624,-193.5"/>
<text text-anchor="middle" x="1227.9624" y="-238.5" font-family="Helvetica,sans-Serif" font-size="10.00" fill="#000000">anonymous:+@36</text>
<polyline fill="none" stroke="#bfbfbf" points="1174.4624,-231.5 1281.4624,-231.5 "/>
<text text-anchor="middle" x="1227.9624" y="-219.5" font-family="Helvetica,sans-Serif" font-size="10.00" fill="#000000"> </text>
<polyline fill="none" stroke="#bfbfbf" points="1174.4624,-212.5 1281.4624,-212.5 "/>
<text text-anchor="middle" x="1227.9624" y="-200.5" font-family="Helvetica,sans-Serif" font-size="10.00" fill="#000000"> </text>
</g>
<!-- Node16&#45;&gt;Node2 -->
<g id="edge24" class="edge">
<title>Node16&#45;&gt;Node2</title>
<path fill="none" stroke="#404040" d="M1214.7133,-193.114C1200.8108,-162.8033 1178.7701,-114.7494 1162.5886,-79.47"/>
<polygon fill="none" stroke="#404040" points="1162.5614,-79.4106 1156.4242,-75.6246 1157.5585,-68.5032 1163.6958,-72.2893 1162.5614,-79.4106"/>
<text text-anchor="middle" x="1196.9624" y="-101" font-family="Helvetica,sans-Serif" font-size="10.00" fill="#000000"> +@36</text>
</g>
<!-- Node17 -->
<g id="node16" class="node">
<title>Node17</title>
<polygon fill="none" stroke="#bfbfbf" points="1299.9624,-193.5 1299.9624,-250.5 1343.9624,-250.5 1343.9624,-193.5 1299.9624,-193.5"/>
<text text-anchor="middle" x="1321.9624" y="-238.5" font-family="Helvetica,sans-Serif" font-size="10.00" fill="#000000">static</text>
<polyline fill="none" stroke="#bfbfbf" points="1299.9624,-231.5 1343.9624,-231.5 "/>
<text text-anchor="middle" x="1321.9624" y="-219.5" font-family="Helvetica,sans-Serif" font-size="10.00" fill="#000000"> </text>
<polyline fill="none" stroke="#bfbfbf" points="1299.9624,-212.5 1343.9624,-212.5 "/>
<text text-anchor="middle" x="1321.9624" y="-200.5" font-family="Helvetica,sans-Serif" font-size="10.00" fill="#000000"> </text>
</g>
<!-- Node17&#45;&gt;Node2 -->
<g id="edge26" class="edge">
<title>Node17&#45;&gt;Node2</title>
<path fill="none" stroke="#404040" d="M1316.0124,-193.4017C1311.3488,-176.0696 1303.4986,-154.2442 1290.9624,-138 1271.6811,-113.0156 1244.667,-91.7333 1218.9273,-75.0826"/>
<polygon fill="none" stroke="#404040" points="1218.9267,-75.0823 1211.7182,-75.2777 1208.7654,-68.6988 1215.9739,-68.5035 1218.9267,-75.0823"/>
<text text-anchor="middle" x="1311.4624" y="-112" font-family="Helvetica,sans-Serif" font-size="10.00" fill="#000000"> +sHeaderType</text>
<text text-anchor="middle" x="1311.4624" y="-101" font-family="Helvetica,sans-Serif" font-size="10.00" fill="#000000">+NSectors</text>
<text text-anchor="middle" x="1311.4624" y="-90" font-family="Helvetica,sans-Serif" font-size="10.00" fill="#000000">+sVersion</text>
</g>
</g>
</svg>
        <g id="navigator" transform="translate(0 0)" fill="#404254">
                <rect fill="#f2f5e9" fill-opacity="0.5" stroke="#606060" stroke-width=".5" x="0" y="0" width="60" height="60"/>
                <use id="zoomplus" xlink:href="#zoomPlus" x="17" y="9" onmousedown="handleZoom(evt,'in')"/>
                <use id="zoomminus" xlink:href="#zoomMin" x="42" y="9" onmousedown="handleZoom(evt,'out')"/>
                <use id="reset" xlink:href="#resetDef" x="30" y="36" onmousedown="handleReset()"/>
                <g id="arrowUp" xlink:href="#dirArrow" transform="translate(30 24)" onmousedown="handlePan(0,-1)">
                  <use xlink:href="#rim" fill="#404040">
                        <set attributeName="fill" to="#808080" begin="arrowUp.mouseover" end="arrowUp.mouseout"/>
                  </use>
                  <path fill="none" stroke="white" stroke-width="1.5" d="M0,-3.0v7 M-2.5,-0.5L0,-3.0L2.5,-0.5"/>
                </g>
                <g id="arrowRight" xlink:href="#dirArrow" transform="rotate(90) translate(36 -43)" onmousedown="handlePan(1,0)">
                  <use xlink:href="#rim" fill="#404040">
                        <set attributeName="fill" to="#808080" begin="arrowRight.mouseover" end="arrowRight.mouseout"/>
                  </use>
                  <path fill="none" stroke="white" stroke-width="1.5" d="M0,-3.0v7 M-2.5,-0.5L0,-3.0L2.5,-0.5"/>
                </g>
                <g id="arrowDown" xlink:href="#dirArrow" transform="rotate(180) translate(-30 -48)" onmousedown="handlePan(0,1)">
                  <use xlink:href="#rim" fill="#404040">
                        <set attributeName="fill" to="#808080" begin="arrowDown.mouseover" end="arrowDown.mouseout"/>
                  </use>
                  <path fill="none" stroke="white" stroke-width="1.5" d="M0,-3.0v7 M-2.5,-0.5L0,-3.0L2.5,-0.5"/>
                </g>
                <g id="arrowLeft" xlink:href="#dirArrow" transform="rotate(270) translate(-36 17)" onmousedown="handlePan(-1,0)">
                  <use xlink:href="#rim" fill="#404040">
                        <set attributeName="fill" to="#808080" begin="arrowLeft.mouseover" end="arrowLeft.mouseout"/>
                  </use>
                  <path fill="none" stroke="white" stroke-width="1.5" d="M0,-3.0v7 M-2.5,-0.5L0,-3.0L2.5,-0.5"/>
                </g>
        </g>
        <svg viewBox="0 0 15 15" width="100%" height="30px" preserveAspectRatio="xMaxYMin meet">
         <g id="arrow_out" transform="scale(0.3 0.3)">
          <a xlink:href="structo2_1_1tpc_1_1TPCSectorHeader__coll__graph_org.svg" target="_base">
           <rect id="button" ry="5" rx="5" y="6" x="6" height="38" width="38"
                fill="#f2f5e9" fill-opacity="0.5" stroke="#606060" stroke-width="1.0"/>
           <path id="arrow"
             d="M 11.500037,31.436501 C 11.940474,20.09759 22.043105,11.32322 32.158766,21.979434 L 37.068811,17.246167 C 37.068811,17.246167 37.088388,32 37.088388,32 L 22.160133,31.978069 C 22.160133,31.978069 26.997745,27.140456 26.997745,27.140456 C 18.528582,18.264221 13.291696,25.230495 11.500037,31.436501 z"
             style="fill:#404040;"/>
          </a>
         </g>
        </svg>
</svg>
