<?xml version="1.0" encoding="UTF-8" standalone="no"?>
<!DOCTYPE svg PUBLIC "-//W3C//DTD SVG 1.1//EN"
 "http://www.w3.org/Graphics/SVG/1.1/DTD/svg11.dtd">
<!-- Generated by graphviz version 2.40.1 (20161225.0304)
 -->
<!-- Title: o2::ctf::CTFHeader Pages: 1 -->
<svg width="164pt" height="193pt"
 viewBox="0.00 0.00 163.50 193.00" xmlns="http://www.w3.org/2000/svg" xmlns:xlink="http://www.w3.org/1999/xlink">
<g id="graph0" class="graph" transform="scale(1 1) rotate(0) translate(4 189)">
<title>o2::ctf::CTFHeader</title>
<!-- Node1 -->
<g id="node1" class="node">
<title>Node1</title>
<polygon fill="#bfbfbf" stroke="#000000" points="13,-.5 13,-68.5 120,-68.5 120,-.5 13,-.5"/>
<text text-anchor="middle" x="66.5" y="-56.5" font-family="Helvetica,sans-Serif" font-size="10.00" fill="#000000">o2::ctf::CTFHeader</text>
<polyline fill="none" stroke="#000000" points="13,-49.5 120,-49.5 "/>
<text text-anchor="middle" x="66.5" y="-37.5" font-family="Helvetica,sans-Serif" font-size="10.00" fill="#000000"> </text>
<polyline fill="none" stroke="#000000" points="13,-30.5 120,-30.5 "/>
<text text-anchor="start" x="21" y="-18.5" font-family="Helvetica,sans-Serif" font-size="10.00" fill="#000000">+ describe()</text>
<text text-anchor="start" x="21" y="-7.5" font-family="Helvetica,sans-Serif" font-size="10.00" fill="#000000">+ print()</text>
</g>
<!-- Node2 -->
<g id="node2" class="node">
<title>Node2</title>
<polygon fill="none" stroke="#bfbfbf" points="0,-127.5 0,-184.5 53,-184.5 53,-127.5 0,-127.5"/>
<text text-anchor="middle" x="26.5" y="-172.5" font-family="Helvetica,sans-Serif" font-size="10.00" fill="#000000">mask_t</text>
<polyline fill="none" stroke="#bfbfbf" points="0,-165.5 53,-165.5 "/>
<text text-anchor="middle" x="26.5" y="-153.5" font-family="Helvetica,sans-Serif" font-size="10.00" fill="#000000"> </text>
<polyline fill="none" stroke="#bfbfbf" points="0,-146.5 53,-146.5 "/>
<text text-anchor="middle" x="26.5" y="-134.5" font-family="Helvetica,sans-Serif" font-size="10.00" fill="#000000"> </text>
</g>
<!-- Node2&#45;&gt;Node1 -->
<g id="edge1" class="edge">
<title>Node2&#45;&gt;Node1</title>
<path fill="none" stroke="#404040" d="M23.0206,-127.4656C22.4514,-114.7683 23.1554,-99.8218 27.5,-87 28.3734,-84.4225 29.4251,-81.8674 30.6141,-79.3531"/>
<polygon fill="none" stroke="#404040" points="30.738,-79.1306 30.1644,-71.9423 36.579,-68.6481 37.1527,-75.8363 30.738,-79.1306"/>
<text text-anchor="middle" x="56.5" y="-95.5" font-family="Helvetica,sans-Serif" font-size="10.00" fill="#000000"> +detectors</text>
</g>
<!-- Node3 -->
<g id="node3" class="node">
<title>Node3</title>
<polygon fill="none" stroke="#bfbfbf" points="77,-127.5 77,-184.5 138,-184.5 138,-127.5 77,-127.5"/>
<text text-anchor="middle" x="107.5" y="-172.5" font-family="Helvetica,sans-Serif" font-size="10.00" fill="#000000">unsigned</text>
<polyline fill="none" stroke="#bfbfbf" points="77,-165.5 138,-165.5 "/>
<text text-anchor="middle" x="107.5" y="-153.5" font-family="Helvetica,sans-Serif" font-size="10.00" fill="#000000"> </text>
<polyline fill="none" stroke="#bfbfbf" points="77,-146.5 138,-146.5 "/>
<text text-anchor="middle" x="107.5" y="-134.5" font-family="Helvetica,sans-Serif" font-size="10.00" fill="#000000"> </text>
</g>
<!-- Node3&#45;&gt;Node1 -->
<g id="edge2" class="edge">
<title>Node3&#45;&gt;Node1</title>
<path fill="none" stroke="#404040" d="M98.648,-127.3838C94.7285,-114.9396 89.9953,-100.2126 85.5,-87 84.739,-84.7632 83.9506,-82.4764 83.147,-80.1694"/>
<polygon fill="none" stroke="#404040" points="83.0582,-79.9178 77.287,-75.5942 79.0583,-68.604 84.8295,-72.9276 83.0582,-79.9178"/>
<text text-anchor="middle" x="123.5" y="-101" font-family="Helvetica,sans-Serif" font-size="10.00" fill="#000000"> +firstTForbit</text>
<text text-anchor="middle" x="123.5" y="-90" font-family="Helvetica,sans-Serif" font-size="10.00" fill="#000000">+run</text>
</g>
</g>
</svg>
