<?xml version="1.0" encoding="UTF-8" standalone="no"?>
<!DOCTYPE svg PUBLIC "-//W3C//DTD SVG 1.1//EN"
 "http://www.w3.org/Graphics/SVG/1.1/DTD/svg11.dtd">
<!-- Generated by graphviz version 2.40.1 (20161225.0304)
 -->
<!-- Title: o2::emcal::ChannelHeader Pages: 1 -->
<svg width="271pt" height="226pt"
 viewBox="0.00 0.00 270.50 226.00" xmlns="http://www.w3.org/2000/svg" xmlns:xlink="http://www.w3.org/1999/xlink">
<g id="graph0" class="graph" transform="scale(1 1) rotate(0) translate(4 222)">
<title>o2::emcal::ChannelHeader</title>
<!-- Node1 -->
<g id="node1" class="node">
<title>Node1</title>
<polygon fill="#bfbfbf" stroke="#000000" points="35.5,-.5 35.5,-57.5 181.5,-57.5 181.5,-.5 35.5,-.5"/>
<text text-anchor="middle" x="108.5" y="-45.5" font-family="Helvetica,sans-Serif" font-size="10.00" fill="#000000">o2::emcal::ChannelHeader</text>
<polyline fill="none" stroke="#000000" points="35.5,-38.5 181.5,-38.5 "/>
<text text-anchor="middle" x="108.5" y="-26.5" font-family="Helvetica,sans-Serif" font-size="10.00" fill="#000000"> </text>
<polyline fill="none" stroke="#000000" points="35.5,-19.5 181.5,-19.5 "/>
<text text-anchor="middle" x="108.5" y="-7.5" font-family="Helvetica,sans-Serif" font-size="10.00" fill="#000000"> </text>
</g>
<!-- Node2 -->
<g id="node2" class="node">
<title>Node2</title>
<polygon fill="none" stroke="#bfbfbf" points="0,-160.5 0,-217.5 113,-217.5 113,-160.5 0,-160.5"/>
<text text-anchor="middle" x="56.5" y="-205.5" font-family="Helvetica,sans-Serif" font-size="10.00" fill="#000000">anonymous:+@193</text>
<polyline fill="none" stroke="#bfbfbf" points="0,-198.5 113,-198.5 "/>
<text text-anchor="middle" x="56.5" y="-186.5" font-family="Helvetica,sans-Serif" font-size="10.00" fill="#000000"> </text>
<polyline fill="none" stroke="#bfbfbf" points="0,-179.5 113,-179.5 "/>
<text text-anchor="middle" x="56.5" y="-167.5" font-family="Helvetica,sans-Serif" font-size="10.00" fill="#000000"> </text>
</g>
<!-- Node2&#45;&gt;Node1 -->
<g id="edge1" class="edge">
<title>Node2&#45;&gt;Node1</title>
<path fill="none" stroke="#404040" d="M65.7966,-160.3952C74.0529,-134.9912 86.2062,-97.5963 95.4384,-69.1894"/>
<polygon fill="none" stroke="#404040" points="95.4873,-69.0388 93.5377,-62.0963 99.1964,-57.6264 101.146,-64.569 95.4873,-69.0388"/>
<text text-anchor="middle" x="113.5" y="-106.5" font-family="Helvetica,sans-Serif" font-size="10.00" fill="#000000"> +@193</text>
</g>
<!-- Node3 -->
<g id="node3" class="node">
<title>Node3</title>
<polygon fill="none" stroke="#bfbfbf" points="131,-160.5 131,-217.5 192,-217.5 192,-160.5 131,-160.5"/>
<text text-anchor="middle" x="161.5" y="-205.5" font-family="Helvetica,sans-Serif" font-size="10.00" fill="#000000">unsigned</text>
<polyline fill="none" stroke="#bfbfbf" points="131,-198.5 192,-198.5 "/>
<text text-anchor="middle" x="161.5" y="-186.5" font-family="Helvetica,sans-Serif" font-size="10.00" fill="#000000"> </text>
<polyline fill="none" stroke="#bfbfbf" points="131,-179.5 192,-179.5 "/>
<text text-anchor="middle" x="161.5" y="-167.5" font-family="Helvetica,sans-Serif" font-size="10.00" fill="#000000"> </text>
</g>
<!-- Node3&#45;&gt;Node1 -->
<g id="edge2" class="edge">
<title>Node3&#45;&gt;Node1</title>
<path fill="none" stroke="#404040" d="M158.1837,-160.3461C154.8357,-137.0159 148.539,-103.5533 137.5,-76 136.447,-73.3716 135.251,-70.7243 133.959,-68.0972"/>
<polygon fill="none" stroke="#404040" points="133.9418,-68.0653 127.5674,-64.6937 128.228,-57.5129 134.6023,-60.8845 133.9418,-68.0653"/>
<text text-anchor="middle" x="208.5" y="-134" font-family="Helvetica,sans-Serif" font-size="10.00" fill="#000000"> +mHardwareAddress</text>
<text text-anchor="middle" x="208.5" y="-123" font-family="Helvetica,sans-Serif" font-size="10.00" fill="#000000">+mPayloadSize</text>
<text text-anchor="middle" x="208.5" y="-112" font-family="Helvetica,sans-Serif" font-size="10.00" fill="#000000">+mBadChannel</text>
<text text-anchor="middle" x="208.5" y="-101" font-family="Helvetica,sans-Serif" font-size="10.00" fill="#000000">+mZero1</text>
<text text-anchor="middle" x="208.5" y="-90" font-family="Helvetica,sans-Serif" font-size="10.00" fill="#000000">+mDataWord</text>
<text text-anchor="middle" x="208.5" y="-79" font-family="Helvetica,sans-Serif" font-size="10.00" fill="#000000">+mZero2</text>
</g>
</g>
</svg>
