<?xml version="1.0" encoding="UTF-8" standalone="no"?>
<!DOCTYPE svg PUBLIC "-//W3C//DTD SVG 1.1//EN"
 "http://www.w3.org/Graphics/SVG/1.1/DTD/svg11.dtd">
<!-- Generated by graphviz version 2.40.1 (20161225.0304)
 -->
<!-- Title: TaskD0 Pages: 1 -->
<!--zoomable 893 -->
<svg id="main" version="1.1" xmlns="http://www.w3.org/2000/svg" xmlns:xlink="http://www.w3.org/1999/xlink" xml:space="preserve" onload="init(evt)">
<style type="text/css"><![CDATA[
.edge:hover path { stroke: red; }
.edge:hover polygon { stroke: red; fill: red; }
]]></style>
<script type="text/javascript"><![CDATA[
var edges = document.getElementsByTagName('g');
if (edges && edges.length) {
  for (var i=0;i<edges.length;i++) {
    if (edges[i].id.substr(0,4)=='edge') {
      edges[i].setAttribute('class','edge');
    }
  }
}
]]></script>
        <defs>
                <circle id="rim" cx="0" cy="0" r="7"/>
                <circle id="rim2" cx="0" cy="0" r="3.5"/>
                <g id="zoomPlus">
                        <use xlink:href="#rim" fill="#404040">
                                <set attributeName="fill" to="#808080" begin="zoomplus.mouseover" end="zoomplus.mouseout"/>
                        </use>
                        <path d="M-4,0h8M0,-4v8" fill="none" stroke="white" stroke-width="1.5" pointer-events="none"/>
                </g>
                <g id="zoomMin">
                        <use xlink:href="#rim" fill="#404040">
                                <set attributeName="fill" to="#808080" begin="zoomminus.mouseover" end="zoomminus.mouseout"/>
                        </use>
                        <path d="M-4,0h8" fill="none" stroke="white" stroke-width="1.5" pointer-events="none"/>
                </g>
                <g id="dirArrow">
                        <path fill="none" stroke="white" stroke-width="1.5" d="M0,-3.0v7 M-2.5,-0.5L0,-3.0L2.5,-0.5"/>
                </g>
               <g id="resetDef">
                       <use xlink:href="#rim2" fill="#404040">
                               <set attributeName="fill" to="#808080" begin="reset.mouseover" end="reset.mouseout"/>
                       </use>
               </g>
        </defs>

<script type="text/javascript">
var viewWidth = 773;
var viewHeight = 893;
var sectionId = 'dynsection-0';
</script>
<script xlink:href="../../svgpan.js"/>
<svg id="graph" class="graph">
<g id="viewport">
<title>TaskD0</title>
<!-- Node1 -->
<g id="node1" class="node">
<title>Node1</title>
<polygon fill="#bfbfbf" stroke="#000000" points="330.8466,-.5 330.8466,-57.5 403.8466,-57.5 403.8466,-.5 330.8466,-.5"/>
<text text-anchor="middle" x="367.3466" y="-45.5" font-family="Helvetica,sans-Serif" font-size="10.00" fill="#000000">TaskD0</text>
<polyline fill="none" stroke="#000000" points="330.8466,-38.5 403.8466,-38.5 "/>
<text text-anchor="start" x="338.8466" y="-26.5" font-family="Helvetica,sans-Serif" font-size="10.00" fill="#000000">+ hmass</text>
<polyline fill="none" stroke="#000000" points="330.8466,-19.5 403.8466,-19.5 "/>
<text text-anchor="start" x="338.8466" y="-7.5" font-family="Helvetica,sans-Serif" font-size="10.00" fill="#000000">+ process()</text>
</g>
<!-- Node2 -->
<g id="node2" class="node">
<title>Node2</title>
<g id="a_node2"><a xlink:href="../../d4/d79/structo2_1_1framework_1_1OutputObj.html" target="_top" xlink:title="{o2::framework::OutputObj\l\&lt; TH1F \&gt;\n||+ spec()\l+ OutputObj()\l+ OutputObj()\l+ setObject()\l+ setObject()\l+ setObject()\l+ setHash()\l+ operator&#45;\&gt;()\l+ operator*()\l+ ref()\l}">
<polygon fill="none" stroke="#000000" points="295.8466,-215.5 295.8466,-382.5 438.8466,-382.5 438.8466,-215.5 295.8466,-215.5"/>
<text text-anchor="start" x="303.8466" y="-370.5" font-family="Helvetica,sans-Serif" font-size="10.00" fill="#000000">o2::framework::OutputObj</text>
<text text-anchor="middle" x="367.3466" y="-359.5" font-family="Helvetica,sans-Serif" font-size="10.00" fill="#000000">&lt; TH1F &gt;</text>
<polyline fill="none" stroke="#000000" points="295.8466,-352.5 438.8466,-352.5 "/>
<text text-anchor="middle" x="367.3466" y="-340.5" font-family="Helvetica,sans-Serif" font-size="10.00" fill="#000000"> </text>
<polyline fill="none" stroke="#000000" points="295.8466,-333.5 438.8466,-333.5 "/>
<text text-anchor="start" x="303.8466" y="-321.5" font-family="Helvetica,sans-Serif" font-size="10.00" fill="#000000">+ spec()</text>
<text text-anchor="start" x="303.8466" y="-310.5" font-family="Helvetica,sans-Serif" font-size="10.00" fill="#000000">+ OutputObj()</text>
<text text-anchor="start" x="303.8466" y="-299.5" font-family="Helvetica,sans-Serif" font-size="10.00" fill="#000000">+ OutputObj()</text>
<text text-anchor="start" x="303.8466" y="-288.5" font-family="Helvetica,sans-Serif" font-size="10.00" fill="#000000">+ setObject()</text>
<text text-anchor="start" x="303.8466" y="-277.5" font-family="Helvetica,sans-Serif" font-size="10.00" fill="#000000">+ setObject()</text>
<text text-anchor="start" x="303.8466" y="-266.5" font-family="Helvetica,sans-Serif" font-size="10.00" fill="#000000">+ setObject()</text>
<text text-anchor="start" x="303.8466" y="-255.5" font-family="Helvetica,sans-Serif" font-size="10.00" fill="#000000">+ setHash()</text>
<text text-anchor="start" x="303.8466" y="-244.5" font-family="Helvetica,sans-Serif" font-size="10.00" fill="#000000">+ operator&#45;&gt;()</text>
<text text-anchor="start" x="303.8466" y="-233.5" font-family="Helvetica,sans-Serif" font-size="10.00" fill="#000000">+ operator*()</text>
<text text-anchor="start" x="303.8466" y="-222.5" font-family="Helvetica,sans-Serif" font-size="10.00" fill="#000000">+ ref()</text>
</a>
</g>
</g>
<!-- Node2&#45;&gt;Node1 -->
<g id="edge1" class="edge">
<title>Node2&#45;&gt;Node1</title>
<path fill="none" stroke="#404040" d="M367.3466,-215.4194C367.3466,-166.9966 367.3466,-108.1971 367.3466,-69.7511"/>
<polygon fill="none" stroke="#404040" points="367.3467,-69.5375 363.3466,-63.5376 367.3466,-57.5375 371.3466,-63.5375 367.3467,-69.5375"/>
<text text-anchor="middle" x="406.3466" y="-189" font-family="Helvetica,sans-Serif" font-size="10.00" fill="#000000"> +hdeclengthxy</text>
<text text-anchor="middle" x="406.3466" y="-178" font-family="Helvetica,sans-Serif" font-size="10.00" fill="#000000">+hdeclength</text>
<text text-anchor="middle" x="406.3466" y="-167" font-family="Helvetica,sans-Serif" font-size="10.00" fill="#000000">+hCTS</text>
<text text-anchor="middle" x="406.3466" y="-156" font-family="Helvetica,sans-Serif" font-size="10.00" fill="#000000">+hEta</text>
<text text-anchor="middle" x="406.3466" y="-145" font-family="Helvetica,sans-Serif" font-size="10.00" fill="#000000">+hCt</text>
<text text-anchor="middle" x="406.3466" y="-134" font-family="Helvetica,sans-Serif" font-size="10.00" fill="#000000">+hd0d0</text>
<text text-anchor="middle" x="406.3466" y="-123" font-family="Helvetica,sans-Serif" font-size="10.00" fill="#000000">+hd0</text>
<text text-anchor="middle" x="406.3466" y="-112" font-family="Helvetica,sans-Serif" font-size="10.00" fill="#000000">+hptprong0</text>
<text text-anchor="middle" x="406.3466" y="-101" font-family="Helvetica,sans-Serif" font-size="10.00" fill="#000000">+hptprong1</text>
<text text-anchor="middle" x="406.3466" y="-90" font-family="Helvetica,sans-Serif" font-size="10.00" fill="#000000">+hptcand</text>
<text text-anchor="middle" x="406.3466" y="-79" font-family="Helvetica,sans-Serif" font-size="10.00" fill="#000000">...</text>
</g>
<!-- Node3 -->
<g id="node3" class="node">
<title>Node3</title>
<polygon fill="none" stroke="#bfbfbf" points="119.8466,-662 119.8466,-719 258.8466,-719 258.8466,-662 119.8466,-662"/>
<text text-anchor="middle" x="189.3466" y="-707" font-family="Helvetica,sans-Serif" font-size="10.00" fill="#000000">OutputObjHandlingPolicy</text>
<polyline fill="none" stroke="#bfbfbf" points="119.8466,-700 258.8466,-700 "/>
<text text-anchor="middle" x="189.3466" y="-688" font-family="Helvetica,sans-Serif" font-size="10.00" fill="#000000"> </text>
<polyline fill="none" stroke="#bfbfbf" points="119.8466,-681 258.8466,-681 "/>
<text text-anchor="middle" x="189.3466" y="-669" font-family="Helvetica,sans-Serif" font-size="10.00" fill="#000000"> </text>
</g>
<!-- Node3&#45;&gt;Node2 -->
<g id="edge2" class="edge">
<title>Node3&#45;&gt;Node2</title>
<path fill="none" stroke="#404040" d="M197.0925,-661.6453C200.5836,-647.8978 204.5423,-631.1783 207.3466,-616 222.49,-534.0352 193.8786,-504.456 231.3466,-430 244.5634,-403.7357 265.2119,-379.7955 286.4627,-359.7746"/>
<polygon fill="none" stroke="#404040" points="286.7276,-359.5326 288.4595,-352.5326 295.5872,-351.4388 293.8553,-358.4389 286.7276,-359.5326"/>
<text text-anchor="middle" x="251.8466" y="-506" font-family="Helvetica,sans-Serif" font-size="10.00" fill="#000000"> +policy</text>
</g>
<!-- Node11 -->
<g id="node11" class="node">
<title>Node11</title>
<g id="a_node11"><a xlink:href="../../d4/d79/structo2_1_1framework_1_1OutputObj.html" target="_top" xlink:title="{o2::framework::OutputObj\&lt; T \&gt;\n||+ OutputObj()\l+ OutputObj()\l+ setObject()\l+ setObject()\l+ setObject()\l+ setHash()\l+ spec()\l+ operator&#45;\&gt;()\l+ operator*()\l+ ref()\l}">
<polygon fill="none" stroke="#000000" points="281.3466,-430.5 281.3466,-586.5 453.3466,-586.5 453.3466,-430.5 281.3466,-430.5"/>
<text text-anchor="middle" x="367.3466" y="-574.5" font-family="Helvetica,sans-Serif" font-size="10.00" fill="#000000">o2::framework::OutputObj&lt; T &gt;</text>
<polyline fill="none" stroke="#000000" points="281.3466,-567.5 453.3466,-567.5 "/>
<text text-anchor="middle" x="367.3466" y="-555.5" font-family="Helvetica,sans-Serif" font-size="10.00" fill="#000000"> </text>
<polyline fill="none" stroke="#000000" points="281.3466,-548.5 453.3466,-548.5 "/>
<text text-anchor="start" x="289.3466" y="-536.5" font-family="Helvetica,sans-Serif" font-size="10.00" fill="#000000">+ OutputObj()</text>
<text text-anchor="start" x="289.3466" y="-525.5" font-family="Helvetica,sans-Serif" font-size="10.00" fill="#000000">+ OutputObj()</text>
<text text-anchor="start" x="289.3466" y="-514.5" font-family="Helvetica,sans-Serif" font-size="10.00" fill="#000000">+ setObject()</text>
<text text-anchor="start" x="289.3466" y="-503.5" font-family="Helvetica,sans-Serif" font-size="10.00" fill="#000000">+ setObject()</text>
<text text-anchor="start" x="289.3466" y="-492.5" font-family="Helvetica,sans-Serif" font-size="10.00" fill="#000000">+ setObject()</text>
<text text-anchor="start" x="289.3466" y="-481.5" font-family="Helvetica,sans-Serif" font-size="10.00" fill="#000000">+ setHash()</text>
<text text-anchor="start" x="289.3466" y="-470.5" font-family="Helvetica,sans-Serif" font-size="10.00" fill="#000000">+ spec()</text>
<text text-anchor="start" x="289.3466" y="-459.5" font-family="Helvetica,sans-Serif" font-size="10.00" fill="#000000">+ operator&#45;&gt;()</text>
<text text-anchor="start" x="289.3466" y="-448.5" font-family="Helvetica,sans-Serif" font-size="10.00" fill="#000000">+ operator*()</text>
<text text-anchor="start" x="289.3466" y="-437.5" font-family="Helvetica,sans-Serif" font-size="10.00" fill="#000000">+ ref()</text>
</a>
</g>
</g>
<!-- Node3&#45;&gt;Node11 -->
<g id="edge12" class="edge">
<title>Node3&#45;&gt;Node11</title>
<path fill="none" stroke="#404040" d="M217.5512,-661.6616C235.1874,-643.6291 258.9244,-619.3586 282.2974,-595.4604"/>
<polygon fill="none" stroke="#404040" points="282.4895,-595.2639 283.8251,-588.1776 290.88,-586.6849 289.5445,-593.7712 282.4895,-595.2639"/>
<text text-anchor="middle" x="288.8466" y="-608" font-family="Helvetica,sans-Serif" font-size="10.00" fill="#000000"> +policy</text>
</g>
<!-- Node4 -->
<g id="node4" class="node">
<title>Node4</title>
<polygon fill="none" stroke="#bfbfbf" points="395.8466,-811 395.8466,-868 424.8466,-868 424.8466,-811 395.8466,-811"/>
<text text-anchor="middle" x="410.3466" y="-856" font-family="Helvetica,sans-Serif" font-size="10.00" fill="#000000">int</text>
<polyline fill="none" stroke="#bfbfbf" points="395.8466,-849 424.8466,-849 "/>
<text text-anchor="middle" x="410.3466" y="-837" font-family="Helvetica,sans-Serif" font-size="10.00" fill="#000000"> </text>
<polyline fill="none" stroke="#bfbfbf" points="395.8466,-830 424.8466,-830 "/>
<text text-anchor="middle" x="410.3466" y="-818" font-family="Helvetica,sans-Serif" font-size="10.00" fill="#000000"> </text>
</g>
<!-- Node4&#45;&gt;Node2 -->
<g id="edge3" class="edge">
<title>Node4&#45;&gt;Node2</title>
<path fill="none" stroke="#404040" d="M395.571,-837.9252C334.086,-831.0513 99.6072,-801.5505 54.3466,-747 -36.0447,-638.0554 -3.7006,-540.0459 85.3466,-430 135.1362,-368.4692 220.3998,-334.4483 284.1689,-316.6095"/>
<polygon fill="none" stroke="#404040" points="284.2277,-316.5937 288.9768,-311.1673 295.8124,-313.4639 291.0633,-318.8904 284.2277,-316.5937"/>
<text text-anchor="middle" x="19.3466" y="-608" font-family="Helvetica,sans-Serif" font-size="10.00" fill="#000000"> +label</text>
</g>
<!-- Node6 -->
<g id="node6" class="node">
<title>Node6</title>
<g id="a_node6"><a xlink:href="../../da/d96/structo2_1_1framework_1_1InputSpec.html" target="_top" xlink:title="{o2::framework::InputSpec\n||+ InputSpec()\l+ InputSpec()\l+ InputSpec()\l+ InputSpec()\l+ InputSpec()\l+ operator==()\l}">
<polygon fill="none" stroke="#000000" points="464.3466,-634.5 464.3466,-746.5 606.3466,-746.5 606.3466,-634.5 464.3466,-634.5"/>
<text text-anchor="middle" x="535.3466" y="-734.5" font-family="Helvetica,sans-Serif" font-size="10.00" fill="#000000">o2::framework::InputSpec</text>
<polyline fill="none" stroke="#000000" points="464.3466,-727.5 606.3466,-727.5 "/>
<text text-anchor="middle" x="535.3466" y="-715.5" font-family="Helvetica,sans-Serif" font-size="10.00" fill="#000000"> </text>
<polyline fill="none" stroke="#000000" points="464.3466,-708.5 606.3466,-708.5 "/>
<text text-anchor="start" x="472.3466" y="-696.5" font-family="Helvetica,sans-Serif" font-size="10.00" fill="#000000">+ InputSpec()</text>
<text text-anchor="start" x="472.3466" y="-685.5" font-family="Helvetica,sans-Serif" font-size="10.00" fill="#000000">+ InputSpec()</text>
<text text-anchor="start" x="472.3466" y="-674.5" font-family="Helvetica,sans-Serif" font-size="10.00" fill="#000000">+ InputSpec()</text>
<text text-anchor="start" x="472.3466" y="-663.5" font-family="Helvetica,sans-Serif" font-size="10.00" fill="#000000">+ InputSpec()</text>
<text text-anchor="start" x="472.3466" y="-652.5" font-family="Helvetica,sans-Serif" font-size="10.00" fill="#000000">+ InputSpec()</text>
<text text-anchor="start" x="472.3466" y="-641.5" font-family="Helvetica,sans-Serif" font-size="10.00" fill="#000000">+ operator==()</text>
</a>
</g>
</g>
<!-- Node4&#45;&gt;Node6 -->
<g id="edge8" class="edge">
<title>Node4&#45;&gt;Node6</title>
<path fill="none" stroke="#404040" d="M424.9123,-814.8621C429.3066,-807.9393 434.3079,-800.5241 439.3466,-794 449.2916,-781.1231 460.5346,-767.9645 471.7335,-755.5363"/>
<polygon fill="none" stroke="#404040" points="471.772,-755.4941 472.8619,-748.3658 479.8611,-746.6302 478.7712,-753.7585 471.772,-755.4941"/>
<text text-anchor="middle" x="485.3466" y="-768" font-family="Helvetica,sans-Serif" font-size="10.00" fill="#000000"> +binding</text>
</g>
<!-- Node4&#45;&gt;Node11 -->
<g id="edge13" class="edge">
<title>Node4&#45;&gt;Node11</title>
<path fill="none" stroke="#404040" d="M409.2767,-810.8154C407.3128,-766.451 402.1921,-678.6219 390.3466,-605 389.9975,-602.8307 389.6262,-600.6379 389.2355,-598.4294"/>
<polygon fill="none" stroke="#404040" points="389.2118,-598.3033 384.166,-593.1516 386.9807,-586.5125 392.0265,-591.6643 389.2118,-598.3033"/>
<text text-anchor="middle" x="424.3466" y="-688" font-family="Helvetica,sans-Serif" font-size="10.00" fill="#000000"> +label</text>
</g>
<!-- Node5 -->
<g id="node5" class="node">
<title>Node5</title>
<polygon fill="none" stroke="#bfbfbf" points="63.3466,-662 63.3466,-719 101.3466,-719 101.3466,-662 63.3466,-662"/>
<text text-anchor="middle" x="82.3466" y="-707" font-family="Helvetica,sans-Serif" font-size="10.00" fill="#000000">bool</text>
<polyline fill="none" stroke="#bfbfbf" points="63.3466,-700 101.3466,-700 "/>
<text text-anchor="middle" x="82.3466" y="-688" font-family="Helvetica,sans-Serif" font-size="10.00" fill="#000000"> </text>
<polyline fill="none" stroke="#bfbfbf" points="63.3466,-681 101.3466,-681 "/>
<text text-anchor="middle" x="82.3466" y="-669" font-family="Helvetica,sans-Serif" font-size="10.00" fill="#000000"> </text>
</g>
<!-- Node5&#45;&gt;Node2 -->
<g id="edge4" class="edge">
<title>Node5&#45;&gt;Node2</title>
<path fill="none" stroke="#404040" d="M82.2577,-661.6497C83.5126,-610.1256 92.729,-501.0423 145.3466,-430 180.0534,-383.1402 236.9445,-350.0441 284.4444,-328.8407"/>
<polygon fill="none" stroke="#404040" points="284.6627,-328.746 288.5748,-322.6883 295.6711,-323.9695 291.7591,-330.0272 284.6627,-328.746"/>
<text text-anchor="middle" x="176.3466" y="-506" font-family="Helvetica,sans-Serif" font-size="10.00" fill="#000000"> +isdangling</text>
</g>
<!-- Node5&#45;&gt;Node11 -->
<g id="edge15" class="edge">
<title>Node5&#45;&gt;Node11</title>
<path fill="none" stroke="#404040" d="M91.4095,-661.72C95.7679,-651.7899 101.9238,-641.3312 110.3466,-634 164.9661,-586.4588 201.3958,-619.0134 266.3466,-587 267.7472,-586.3097 269.1471,-585.598 270.5452,-584.8668"/>
<polygon fill="none" stroke="#404040" points="270.7376,-584.7592 274.0235,-578.3403 281.2125,-578.9046 277.9266,-585.3236 270.7376,-584.7592"/>
<text text-anchor="middle" x="210.3466" y="-608" font-family="Helvetica,sans-Serif" font-size="10.00" fill="#000000"> +isdangling</text>
</g>
<!-- Node6&#45;&gt;Node2 -->
<g id="edge5" class="edge">
<title>Node6&#45;&gt;Node2</title>
<path fill="none" stroke="#404040" d="M513.9661,-634.4932C508.5049,-619.2091 502.8971,-602.5687 498.3466,-587 478.2624,-518.2864 491.9565,-495.1781 462.3466,-430 456.6274,-417.4107 449.5957,-404.82 441.9677,-392.6937"/>
<polygon fill="none" stroke="#404040" points="441.9676,-392.6936 435.3461,-389.8377 435.4356,-382.6271 442.0571,-385.483 441.9676,-392.6936"/>
<text text-anchor="middle" x="515.3466" y="-506" font-family="Helvetica,sans-Serif" font-size="10.00" fill="#000000"> +spec</text>
</g>
<!-- Node6&#45;&gt;Node11 -->
<g id="edge16" class="edge">
<title>Node6&#45;&gt;Node11</title>
<path fill="none" stroke="#404040" d="M463.8846,-636.8066C456.3296,-630.1028 448.9905,-623.0992 442.3466,-616 436.5203,-609.7745 430.7929,-603.0685 425.2602,-596.156"/>
<polygon fill="none" stroke="#404040" points="425.2151,-596.098 418.3734,-593.8194 417.8453,-586.6276 424.687,-588.9062 425.2151,-596.098"/>
<text text-anchor="middle" x="459.3466" y="-608" font-family="Helvetica,sans-Serif" font-size="10.00" fill="#000000"> +spec</text>
</g>
<!-- Node7 -->
<g id="node7" class="node">
<title>Node7</title>
<polygon fill="none" stroke="#bfbfbf" points="630.3466,-811 630.3466,-868 718.3466,-868 718.3466,-811 630.3466,-811"/>
<text text-anchor="middle" x="674.3466" y="-856" font-family="Helvetica,sans-Serif" font-size="10.00" fill="#000000">enum Lifetime</text>
<polyline fill="none" stroke="#bfbfbf" points="630.3466,-849 718.3466,-849 "/>
<text text-anchor="middle" x="674.3466" y="-837" font-family="Helvetica,sans-Serif" font-size="10.00" fill="#000000"> </text>
<polyline fill="none" stroke="#bfbfbf" points="630.3466,-830 718.3466,-830 "/>
<text text-anchor="middle" x="674.3466" y="-818" font-family="Helvetica,sans-Serif" font-size="10.00" fill="#000000"> </text>
</g>
<!-- Node7&#45;&gt;Node6 -->
<g id="edge6" class="edge">
<title>Node7&#45;&gt;Node6</title>
<path fill="none" stroke="#404040" d="M647.546,-810.7713C632.8373,-795.0044 613.9626,-774.7719 595.9066,-755.4168"/>
<polygon fill="none" stroke="#404040" points="595.8718,-755.3796 588.8541,-753.7208 587.6861,-746.6049 594.7038,-748.2637 595.8718,-755.3796"/>
<text text-anchor="middle" x="637.3466" y="-768" font-family="Helvetica,sans-Serif" font-size="10.00" fill="#000000"> +lifetime</text>
</g>
<!-- Node8 -->
<g id="node8" class="node">
<title>Node8</title>
<polygon fill="none" stroke="#bfbfbf" points="448.3466,-794.5 448.3466,-884.5 612.3466,-884.5 612.3466,-794.5 448.3466,-794.5"/>
<text text-anchor="start" x="456.3466" y="-872.5" font-family="Helvetica,sans-Serif" font-size="10.00" fill="#000000">variant&lt; o2::framework</text>
<text text-anchor="start" x="456.3466" y="-861.5" font-family="Helvetica,sans-Serif" font-size="10.00" fill="#000000">::ConcreteDataMatcher,</text>
<text text-anchor="start" x="456.3466" y="-850.5" font-family="Helvetica,sans-Serif" font-size="10.00" fill="#000000"> o2::framework::data_matcher</text>
<text text-anchor="middle" x="530.3466" y="-839.5" font-family="Helvetica,sans-Serif" font-size="10.00" fill="#000000">::DataDescriptorMatcher &gt;</text>
<polyline fill="none" stroke="#bfbfbf" points="448.3466,-832.5 612.3466,-832.5 "/>
<text text-anchor="middle" x="530.3466" y="-820.5" font-family="Helvetica,sans-Serif" font-size="10.00" fill="#000000"> </text>
<polyline fill="none" stroke="#bfbfbf" points="448.3466,-813.5 612.3466,-813.5 "/>
<text text-anchor="middle" x="530.3466" y="-801.5" font-family="Helvetica,sans-Serif" font-size="10.00" fill="#000000"> </text>
</g>
<!-- Node8&#45;&gt;Node6 -->
<g id="edge7" class="edge">
<title>Node8&#45;&gt;Node6</title>
<path fill="none" stroke="#404040" d="M531.8603,-794.3907C532.2397,-783.0845 532.6552,-770.7027 533.063,-758.5514"/>
<polygon fill="none" stroke="#404040" points="533.064,-758.5186 529.2675,-752.3878 533.4665,-746.5254 537.263,-752.6562 533.064,-758.5186"/>
<text text-anchor="middle" x="558.3466" y="-768" font-family="Helvetica,sans-Serif" font-size="10.00" fill="#000000"> +matcher</text>
</g>
<!-- Node9 -->
<g id="node9" class="node">
<title>Node9</title>
<polygon fill="none" stroke="#bfbfbf" points="643.8466,-662 643.8466,-719 704.8466,-719 704.8466,-662 643.8466,-662"/>
<text text-anchor="middle" x="674.3466" y="-707" font-family="Helvetica,sans-Serif" font-size="10.00" fill="#000000">unsigned</text>
<polyline fill="none" stroke="#bfbfbf" points="643.8466,-700 704.8466,-700 "/>
<text text-anchor="middle" x="674.3466" y="-688" font-family="Helvetica,sans-Serif" font-size="10.00" fill="#000000"> </text>
<polyline fill="none" stroke="#bfbfbf" points="643.8466,-681 704.8466,-681 "/>
<text text-anchor="middle" x="674.3466" y="-669" font-family="Helvetica,sans-Serif" font-size="10.00" fill="#000000"> </text>
</g>
<!-- Node9&#45;&gt;Node2 -->
<g id="edge9" class="edge">
<title>Node9&#45;&gt;Node2</title>
<path fill="none" stroke="#404040" d="M682.6238,-661.6871C695.5731,-610.2224 714.4819,-501.23 666.3466,-430 617.9768,-358.423 521.2006,-325.6398 450.813,-310.8291"/>
<polygon fill="none" stroke="#404040" points="450.6421,-310.7949 443.9726,-313.5369 438.8764,-308.4351 445.5458,-305.6931 450.6421,-310.7949"/>
<text text-anchor="middle" x="731.3466" y="-506" font-family="Helvetica,sans-Serif" font-size="10.00" fill="#000000"> +mTaskHash</text>
</g>
<!-- Node9&#45;&gt;Node11 -->
<g id="edge17" class="edge">
<title>Node9&#45;&gt;Node11</title>
<path fill="none" stroke="#404040" d="M649.4871,-661.7763C639.6798,-651.8523 627.7865,-641.3831 615.3466,-634 555.9972,-598.7762 528.3537,-619.2676 467.3466,-587 466.3436,-586.4695 465.3406,-585.9287 464.338,-585.3781"/>
<polygon fill="none" stroke="#404040" points="463.9956,-585.1786 456.7976,-585.6133 453.6279,-579.1362 460.8259,-578.7015 463.9956,-585.1786"/>
<text text-anchor="middle" x="607.3466" y="-608" font-family="Helvetica,sans-Serif" font-size="10.00" fill="#000000"> +mTaskHash</text>
</g>
<!-- Node10 -->
<g id="node10" class="node">
<title>Node10</title>
<polygon fill="none" stroke="#bfbfbf" points="541.3466,-480 541.3466,-537 657.3466,-537 657.3466,-480 541.3466,-480"/>
<text text-anchor="middle" x="599.3466" y="-525" font-family="Helvetica,sans-Serif" font-size="10.00" fill="#000000">shared_ptr&lt; TH1F &gt;</text>
<polyline fill="none" stroke="#bfbfbf" points="541.3466,-518 657.3466,-518 "/>
<text text-anchor="middle" x="599.3466" y="-506" font-family="Helvetica,sans-Serif" font-size="10.00" fill="#000000"> </text>
<polyline fill="none" stroke="#bfbfbf" points="541.3466,-499 657.3466,-499 "/>
<text text-anchor="middle" x="599.3466" y="-487" font-family="Helvetica,sans-Serif" font-size="10.00" fill="#000000"> </text>
</g>
<!-- Node10&#45;&gt;Node2 -->
<g id="edge10" class="edge">
<title>Node10&#45;&gt;Node2</title>
<path fill="none" stroke="#404040" d="M576.311,-479.6972C557.6984,-457.196 530.2582,-425.7051 503.3466,-401 486.4058,-385.4483 467.1786,-369.9142 448.626,-355.8278"/>
<polygon fill="none" stroke="#404040" points="448.5974,-355.8063 441.3976,-355.4023 439.0014,-348.601 446.2012,-349.005 448.5974,-355.8063"/>
<text text-anchor="middle" x="535.3466" y="-404" font-family="Helvetica,sans-Serif" font-size="10.00" fill="#000000"> +object</text>
</g>
<!-- Node11&#45;&gt;Node2 -->
<g id="edge11" class="edge">
<title>Node11&#45;&gt;Node2</title>
<path fill="none" stroke="#ffa500" d="M367.3466,-420.1539C367.3466,-407.7421 367.3466,-395.0152 367.3466,-382.6937"/>
<polygon fill="#ffa500" stroke="#ffa500" points="363.8467,-420.4899 367.3466,-430.4899 370.8467,-420.49 363.8467,-420.4899"/>
<text text-anchor="middle" x="392.8466" y="-404" font-family="Helvetica,sans-Serif" font-size="10.00" fill="#000000"> &lt; TH1F &gt;</text>
</g>
<!-- Node12 -->
<g id="node12" class="node">
<title>Node12</title>
<polygon fill="none" stroke="#bfbfbf" points="276.8466,-662 276.8466,-719 373.8466,-719 373.8466,-662 276.8466,-662"/>
<text text-anchor="middle" x="325.3466" y="-707" font-family="Helvetica,sans-Serif" font-size="10.00" fill="#000000">shared_ptr&lt; T &gt;</text>
<polyline fill="none" stroke="#bfbfbf" points="276.8466,-700 373.8466,-700 "/>
<text text-anchor="middle" x="325.3466" y="-688" font-family="Helvetica,sans-Serif" font-size="10.00" fill="#000000"> </text>
<polyline fill="none" stroke="#bfbfbf" points="276.8466,-681 373.8466,-681 "/>
<text text-anchor="middle" x="325.3466" y="-669" font-family="Helvetica,sans-Serif" font-size="10.00" fill="#000000"> </text>
</g>
<!-- Node12&#45;&gt;Node11 -->
<g id="edge14" class="edge">
<title>Node12&#45;&gt;Node11</title>
<path fill="none" stroke="#404040" d="M332.0016,-661.6616C335.9804,-644.42 341.2753,-621.4756 346.5528,-598.6065"/>
<polygon fill="none" stroke="#404040" points="346.6055,-598.3776 344.0572,-591.6318 349.3039,-586.6849 351.8523,-593.4307 346.6055,-598.3776"/>
<text text-anchor="middle" x="365.3466" y="-608" font-family="Helvetica,sans-Serif" font-size="10.00" fill="#000000"> +object</text>
</g>
</g>
</svg>
        <g id="navigator" transform="translate(0 0)" fill="#404254">
                <rect fill="#f2f5e9" fill-opacity="0.5" stroke="#606060" stroke-width=".5" x="0" y="0" width="60" height="60"/>
                <use id="zoomplus" xlink:href="#zoomPlus" x="17" y="9" onmousedown="handleZoom(evt,'in')"/>
                <use id="zoomminus" xlink:href="#zoomMin" x="42" y="9" onmousedown="handleZoom(evt,'out')"/>
                <use id="reset" xlink:href="#resetDef" x="30" y="36" onmousedown="handleReset()"/>
                <g id="arrowUp" xlink:href="#dirArrow" transform="translate(30 24)" onmousedown="handlePan(0,-1)">
                  <use xlink:href="#rim" fill="#404040">
                        <set attributeName="fill" to="#808080" begin="arrowUp.mouseover" end="arrowUp.mouseout"/>
                  </use>
                  <path fill="none" stroke="white" stroke-width="1.5" d="M0,-3.0v7 M-2.5,-0.5L0,-3.0L2.5,-0.5"/>
                </g>
                <g id="arrowRight" xlink:href="#dirArrow" transform="rotate(90) translate(36 -43)" onmousedown="handlePan(1,0)">
                  <use xlink:href="#rim" fill="#404040">
                        <set attributeName="fill" to="#808080" begin="arrowRight.mouseover" end="arrowRight.mouseout"/>
                  </use>
                  <path fill="none" stroke="white" stroke-width="1.5" d="M0,-3.0v7 M-2.5,-0.5L0,-3.0L2.5,-0.5"/>
                </g>
                <g id="arrowDown" xlink:href="#dirArrow" transform="rotate(180) translate(-30 -48)" onmousedown="handlePan(0,1)">
                  <use xlink:href="#rim" fill="#404040">
                        <set attributeName="fill" to="#808080" begin="arrowDown.mouseover" end="arrowDown.mouseout"/>
                  </use>
                  <path fill="none" stroke="white" stroke-width="1.5" d="M0,-3.0v7 M-2.5,-0.5L0,-3.0L2.5,-0.5"/>
                </g>
                <g id="arrowLeft" xlink:href="#dirArrow" transform="rotate(270) translate(-36 17)" onmousedown="handlePan(-1,0)">
                  <use xlink:href="#rim" fill="#404040">
                        <set attributeName="fill" to="#808080" begin="arrowLeft.mouseover" end="arrowLeft.mouseout"/>
                  </use>
                  <path fill="none" stroke="white" stroke-width="1.5" d="M0,-3.0v7 M-2.5,-0.5L0,-3.0L2.5,-0.5"/>
                </g>
        </g>
        <svg viewBox="0 0 15 15" width="100%" height="30px" preserveAspectRatio="xMaxYMin meet">
         <g id="arrow_out" transform="scale(0.3 0.3)">
          <a xlink:href="structTaskD0__coll__graph_org.svg" target="_base">
           <rect id="button" ry="5" rx="5" y="6" x="6" height="38" width="38"
                fill="#f2f5e9" fill-opacity="0.5" stroke="#606060" stroke-width="1.0"/>
           <path id="arrow"
             d="M 11.500037,31.436501 C 11.940474,20.09759 22.043105,11.32322 32.158766,21.979434 L 37.068811,17.246167 C 37.068811,17.246167 37.088388,32 37.088388,32 L 22.160133,31.978069 C 22.160133,31.978069 26.997745,27.140456 26.997745,27.140456 C 18.528582,18.264221 13.291696,25.230495 11.500037,31.436501 z"
             style="fill:#404040;"/>
          </a>
         </g>
        </svg>
</svg>
