<?xml version="1.0" encoding="UTF-8" standalone="no"?>
<!DOCTYPE svg PUBLIC "-//W3C//DTD SVG 1.1//EN"
 "http://www.w3.org/Graphics/SVG/1.1/DTD/svg11.dtd">
<!-- Generated by graphviz version 2.40.1 (20161225.0304)
 -->
<!-- Title: o2::fdd::Digit Pages: 1 -->
<!--zoomable 859 -->
<svg id="main" version="1.1" xmlns="http://www.w3.org/2000/svg" xmlns:xlink="http://www.w3.org/1999/xlink" xml:space="preserve" onload="init(evt)">
<style type="text/css"><![CDATA[
.edge:hover path { stroke: red; }
.edge:hover polygon { stroke: red; fill: red; }
]]></style>
<script type="text/javascript"><![CDATA[
var edges = document.getElementsByTagName('g');
if (edges && edges.length) {
  for (var i=0;i<edges.length;i++) {
    if (edges[i].id.substr(0,4)=='edge') {
      edges[i].setAttribute('class','edge');
    }
  }
}
]]></script>
        <defs>
                <circle id="rim" cx="0" cy="0" r="7"/>
                <circle id="rim2" cx="0" cy="0" r="3.5"/>
                <g id="zoomPlus">
                        <use xlink:href="#rim" fill="#404040">
                                <set attributeName="fill" to="#808080" begin="zoomplus.mouseover" end="zoomplus.mouseout"/>
                        </use>
                        <path d="M-4,0h8M0,-4v8" fill="none" stroke="white" stroke-width="1.5" pointer-events="none"/>
                </g>
                <g id="zoomMin">
                        <use xlink:href="#rim" fill="#404040">
                                <set attributeName="fill" to="#808080" begin="zoomminus.mouseover" end="zoomminus.mouseout"/>
                        </use>
                        <path d="M-4,0h8" fill="none" stroke="white" stroke-width="1.5" pointer-events="none"/>
                </g>
                <g id="dirArrow">
                        <path fill="none" stroke="white" stroke-width="1.5" d="M0,-3.0v7 M-2.5,-0.5L0,-3.0L2.5,-0.5"/>
                </g>
               <g id="resetDef">
                       <use xlink:href="#rim2" fill="#404040">
                               <set attributeName="fill" to="#808080" begin="reset.mouseover" end="reset.mouseout"/>
                       </use>
               </g>
        </defs>

<script type="text/javascript">
var viewWidth = 835;
var viewHeight = 859;
var sectionId = 'dynsection-0';
</script>
<script xlink:href="../../svgpan.js"/>
<svg id="graph" class="graph">
<g id="viewport">
<title>o2::fdd::Digit</title>
<!-- Node1 -->
<g id="node1" class="node">
<title>Node1</title>
<polygon fill="#bfbfbf" stroke="#000000" points="453,-.5 453,-123.5 597,-123.5 597,-.5 453,-.5"/>
<text text-anchor="middle" x="525" y="-111.5" font-family="Helvetica,sans-Serif" font-size="10.00" fill="#000000">o2::fdd::Digit</text>
<polyline fill="none" stroke="#000000" points="453,-104.5 597,-104.5 "/>
<text text-anchor="middle" x="525" y="-92.5" font-family="Helvetica,sans-Serif" font-size="10.00" fill="#000000"> </text>
<polyline fill="none" stroke="#000000" points="453,-85.5 597,-85.5 "/>
<text text-anchor="start" x="461" y="-73.5" font-family="Helvetica,sans-Serif" font-size="10.00" fill="#000000">+ Digit()</text>
<text text-anchor="start" x="461" y="-62.5" font-family="Helvetica,sans-Serif" font-size="10.00" fill="#000000">+ Digit()</text>
<text text-anchor="start" x="461" y="-51.5" font-family="Helvetica,sans-Serif" font-size="10.00" fill="#000000">+ getOrbit()</text>
<text text-anchor="start" x="461" y="-40.5" font-family="Helvetica,sans-Serif" font-size="10.00" fill="#000000">+ getBC()</text>
<text text-anchor="start" x="461" y="-29.5" font-family="Helvetica,sans-Serif" font-size="10.00" fill="#000000">+ getIntRecord()</text>
<text text-anchor="start" x="461" y="-18.5" font-family="Helvetica,sans-Serif" font-size="10.00" fill="#000000">+ getBunchChannelData()</text>
<text text-anchor="start" x="461" y="-7.5" font-family="Helvetica,sans-Serif" font-size="10.00" fill="#000000">+ ClassDefNV()</text>
</g>
<!-- Node2 -->
<g id="node2" class="node">
<title>Node2</title>
<g id="a_node2"><a xlink:href="../../d1/d21/structo2_1_1InteractionRecord.html" target="_top" xlink:title="{o2::InteractionRecord\n||+ InteractionRecord()\l+ InteractionRecord()\l+ InteractionRecord()\l+ InteractionRecord()\l+ clear()\l+ isDummy()\l+ setFromNS()\l+ bc2ns()\l+ operator==()\l+ operator!=()\l+ differenceInBC()\l+ toLong()\l+ setFromLong()\l+ operator\&gt;()\l+ operator\&gt;=()\l+ operator\&lt;()\l+ operator\&lt;=()\l+ operator&#45;&#45;()\l+ operator&#45;&#45;()\l+ operator++()\l+ operator++()\l+ operator+=()\l+ operator&#45;=()\l+ operator+=()\l+ operator&#45;=()\l+ operator+()\l+ operator&#45;()\l+ operator+()\l+ operator&#45;()\l+ print()\l+ asString()\l+ ClassDefNV()\l+ bc2ns()\l+ ns2bc()\l}">
<polygon fill="none" stroke="#000000" points="182.5,-171.5 182.5,-591.5 303.5,-591.5 303.5,-171.5 182.5,-171.5"/>
<text text-anchor="middle" x="243" y="-579.5" font-family="Helvetica,sans-Serif" font-size="10.00" fill="#000000">o2::InteractionRecord</text>
<polyline fill="none" stroke="#000000" points="182.5,-572.5 303.5,-572.5 "/>
<text text-anchor="middle" x="243" y="-560.5" font-family="Helvetica,sans-Serif" font-size="10.00" fill="#000000"> </text>
<polyline fill="none" stroke="#000000" points="182.5,-553.5 303.5,-553.5 "/>
<text text-anchor="start" x="190.5" y="-541.5" font-family="Helvetica,sans-Serif" font-size="10.00" fill="#000000">+ InteractionRecord()</text>
<text text-anchor="start" x="190.5" y="-530.5" font-family="Helvetica,sans-Serif" font-size="10.00" fill="#000000">+ InteractionRecord()</text>
<text text-anchor="start" x="190.5" y="-519.5" font-family="Helvetica,sans-Serif" font-size="10.00" fill="#000000">+ InteractionRecord()</text>
<text text-anchor="start" x="190.5" y="-508.5" font-family="Helvetica,sans-Serif" font-size="10.00" fill="#000000">+ InteractionRecord()</text>
<text text-anchor="start" x="190.5" y="-497.5" font-family="Helvetica,sans-Serif" font-size="10.00" fill="#000000">+ clear()</text>
<text text-anchor="start" x="190.5" y="-486.5" font-family="Helvetica,sans-Serif" font-size="10.00" fill="#000000">+ isDummy()</text>
<text text-anchor="start" x="190.5" y="-475.5" font-family="Helvetica,sans-Serif" font-size="10.00" fill="#000000">+ setFromNS()</text>
<text text-anchor="start" x="190.5" y="-464.5" font-family="Helvetica,sans-Serif" font-size="10.00" fill="#000000">+ bc2ns()</text>
<text text-anchor="start" x="190.5" y="-453.5" font-family="Helvetica,sans-Serif" font-size="10.00" fill="#000000">+ operator==()</text>
<text text-anchor="start" x="190.5" y="-442.5" font-family="Helvetica,sans-Serif" font-size="10.00" fill="#000000">+ operator!=()</text>
<text text-anchor="start" x="190.5" y="-431.5" font-family="Helvetica,sans-Serif" font-size="10.00" fill="#000000">+ differenceInBC()</text>
<text text-anchor="start" x="190.5" y="-420.5" font-family="Helvetica,sans-Serif" font-size="10.00" fill="#000000">+ toLong()</text>
<text text-anchor="start" x="190.5" y="-409.5" font-family="Helvetica,sans-Serif" font-size="10.00" fill="#000000">+ setFromLong()</text>
<text text-anchor="start" x="190.5" y="-398.5" font-family="Helvetica,sans-Serif" font-size="10.00" fill="#000000">+ operator&gt;()</text>
<text text-anchor="start" x="190.5" y="-387.5" font-family="Helvetica,sans-Serif" font-size="10.00" fill="#000000">+ operator&gt;=()</text>
<text text-anchor="start" x="190.5" y="-376.5" font-family="Helvetica,sans-Serif" font-size="10.00" fill="#000000">+ operator&lt;()</text>
<text text-anchor="start" x="190.5" y="-365.5" font-family="Helvetica,sans-Serif" font-size="10.00" fill="#000000">+ operator&lt;=()</text>
<text text-anchor="start" x="190.5" y="-354.5" font-family="Helvetica,sans-Serif" font-size="10.00" fill="#000000">+ operator&#45;&#45;()</text>
<text text-anchor="start" x="190.5" y="-343.5" font-family="Helvetica,sans-Serif" font-size="10.00" fill="#000000">+ operator&#45;&#45;()</text>
<text text-anchor="start" x="190.5" y="-332.5" font-family="Helvetica,sans-Serif" font-size="10.00" fill="#000000">+ operator++()</text>
<text text-anchor="start" x="190.5" y="-321.5" font-family="Helvetica,sans-Serif" font-size="10.00" fill="#000000">+ operator++()</text>
<text text-anchor="start" x="190.5" y="-310.5" font-family="Helvetica,sans-Serif" font-size="10.00" fill="#000000">+ operator+=()</text>
<text text-anchor="start" x="190.5" y="-299.5" font-family="Helvetica,sans-Serif" font-size="10.00" fill="#000000">+ operator&#45;=()</text>
<text text-anchor="start" x="190.5" y="-288.5" font-family="Helvetica,sans-Serif" font-size="10.00" fill="#000000">+ operator+=()</text>
<text text-anchor="start" x="190.5" y="-277.5" font-family="Helvetica,sans-Serif" font-size="10.00" fill="#000000">+ operator&#45;=()</text>
<text text-anchor="start" x="190.5" y="-266.5" font-family="Helvetica,sans-Serif" font-size="10.00" fill="#000000">+ operator+()</text>
<text text-anchor="start" x="190.5" y="-255.5" font-family="Helvetica,sans-Serif" font-size="10.00" fill="#000000">+ operator&#45;()</text>
<text text-anchor="start" x="190.5" y="-244.5" font-family="Helvetica,sans-Serif" font-size="10.00" fill="#000000">+ operator+()</text>
<text text-anchor="start" x="190.5" y="-233.5" font-family="Helvetica,sans-Serif" font-size="10.00" fill="#000000">+ operator&#45;()</text>
<text text-anchor="start" x="190.5" y="-222.5" font-family="Helvetica,sans-Serif" font-size="10.00" fill="#000000">+ print()</text>
<text text-anchor="start" x="190.5" y="-211.5" font-family="Helvetica,sans-Serif" font-size="10.00" fill="#000000">+ asString()</text>
<text text-anchor="start" x="190.5" y="-200.5" font-family="Helvetica,sans-Serif" font-size="10.00" fill="#000000">+ ClassDefNV()</text>
<text text-anchor="start" x="190.5" y="-189.5" font-family="Helvetica,sans-Serif" font-size="10.00" fill="#000000">+ bc2ns()</text>
<text text-anchor="start" x="190.5" y="-178.5" font-family="Helvetica,sans-Serif" font-size="10.00" fill="#000000">+ ns2bc()</text>
</a>
</g>
</g>
<!-- Node2&#45;&gt;Node1 -->
<g id="edge1" class="edge">
<title>Node2&#45;&gt;Node1</title>
<path fill="none" stroke="#404040" d="M303.6451,-312.5294C345.7789,-264.6442 403.2516,-199.3917 454,-142 456.7274,-138.9156 459.5149,-135.7654 462.3317,-132.5839"/>
<polygon fill="none" stroke="#404040" points="462.3649,-132.5464 463.3491,-125.4027 470.3218,-123.5637 469.3376,-130.7073 462.3649,-132.5464"/>
<text text-anchor="middle" x="487.5" y="-145" font-family="Helvetica,sans-Serif" font-size="10.00" fill="#000000"> +mIntRecord</text>
</g>
<!-- Node3 -->
<g id="node3" class="node">
<title>Node3</title>
<polygon fill="none" stroke="#bfbfbf" points="0,-722 0,-779 50,-779 50,-722 0,-722"/>
<text text-anchor="middle" x="25" y="-767" font-family="Helvetica,sans-Serif" font-size="10.00" fill="#000000">double</text>
<polyline fill="none" stroke="#bfbfbf" points="0,-760 50,-760 "/>
<text text-anchor="middle" x="25" y="-748" font-family="Helvetica,sans-Serif" font-size="10.00" fill="#000000"> </text>
<polyline fill="none" stroke="#bfbfbf" points="0,-741 50,-741 "/>
<text text-anchor="middle" x="25" y="-729" font-family="Helvetica,sans-Serif" font-size="10.00" fill="#000000"> </text>
</g>
<!-- Node3&#45;&gt;Node2 -->
<g id="edge2" class="edge">
<title>Node3&#45;&gt;Node2</title>
<path fill="none" stroke="#404040" d="M32.3896,-721.9429C38.2537,-701.3594 47.3887,-673.2311 59,-650 91.3389,-585.2988 137.3391,-518.1735 175.2545,-467.2237"/>
<polygon fill="none" stroke="#404040" points="175.2845,-467.1836 175.6802,-459.9833 182.4788,-457.5792 182.0831,-464.7795 175.2845,-467.1836"/>
<text text-anchor="middle" x="118" y="-618.5" font-family="Helvetica,sans-Serif" font-size="10.00" fill="#000000"> +DummyTime</text>
</g>
<!-- Node4 -->
<g id="node4" class="node">
<title>Node4</title>
<g id="a_node4"><a xlink:href="../../d2/d5f/classunsigned_01int.html" target="_top" xlink:title="{unsigned int\n||}">
<polygon fill="none" stroke="#000000" points="223.5,-722 223.5,-779 300.5,-779 300.5,-722 223.5,-722"/>
<text text-anchor="middle" x="262" y="-767" font-family="Helvetica,sans-Serif" font-size="10.00" fill="#000000">unsigned int</text>
<polyline fill="none" stroke="#000000" points="223.5,-760 300.5,-760 "/>
<text text-anchor="middle" x="262" y="-748" font-family="Helvetica,sans-Serif" font-size="10.00" fill="#000000"> </text>
<polyline fill="none" stroke="#000000" points="223.5,-741 300.5,-741 "/>
<text text-anchor="middle" x="262" y="-729" font-family="Helvetica,sans-Serif" font-size="10.00" fill="#000000"> </text>
</a>
</g>
</g>
<!-- Node4&#45;&gt;Node2 -->
<g id="edge3" class="edge">
<title>Node4&#45;&gt;Node2</title>
<path fill="none" stroke="#404040" d="M256.4509,-721.9013C252.101,-697.984 246.3965,-662.9125 244,-632 243.285,-622.7776 242.682,-613.3584 242.1772,-603.8389"/>
<polygon fill="none" stroke="#404040" points="242.1715,-603.7203 237.8851,-597.9214 241.5892,-591.7344 245.8757,-597.5333 242.1715,-603.7203"/>
<text text-anchor="middle" x="281.5" y="-618.5" font-family="Helvetica,sans-Serif" font-size="10.00" fill="#000000"> +DummyOrbit</text>
</g>
<!-- Node5 -->
<g id="node5" class="node">
<title>Node5</title>
<polygon fill="none" stroke="#bfbfbf" points="351.5,-722 351.5,-779 412.5,-779 412.5,-722 351.5,-722"/>
<text text-anchor="middle" x="382" y="-767" font-family="Helvetica,sans-Serif" font-size="10.00" fill="#000000">unsigned</text>
<polyline fill="none" stroke="#bfbfbf" points="351.5,-760 412.5,-760 "/>
<text text-anchor="middle" x="382" y="-748" font-family="Helvetica,sans-Serif" font-size="10.00" fill="#000000"> </text>
<polyline fill="none" stroke="#bfbfbf" points="351.5,-741 412.5,-741 "/>
<text text-anchor="middle" x="382" y="-729" font-family="Helvetica,sans-Serif" font-size="10.00" fill="#000000"> </text>
</g>
<!-- Node5&#45;&gt;Node2 -->
<g id="edge4" class="edge">
<title>Node5&#45;&gt;Node2</title>
<path fill="none" stroke="#404040" d="M371.2086,-721.8522C357.3987,-685.1916 332.3436,-618.6784 308.0227,-554.1143"/>
<polygon fill="none" stroke="#404040" points="307.8827,-553.7424 302.0244,-549.5376 303.6525,-542.5127 309.5108,-546.7175 307.8827,-553.7424"/>
<text text-anchor="middle" x="353.5" y="-624" font-family="Helvetica,sans-Serif" font-size="10.00" fill="#000000"> +bc</text>
<text text-anchor="middle" x="353.5" y="-613" font-family="Helvetica,sans-Serif" font-size="10.00" fill="#000000">+orbit</text>
</g>
<!-- Node7 -->
<g id="node7" class="node">
<title>Node7</title>
<g id="a_node7"><a xlink:href="../../d1/da6/structo2_1_1fdd_1_1Triggers.html" target="_top" xlink:title="{o2::fdd::Triggers\n||+ Triggers()\l+ Triggers()\l+ cleanTriggers()\l+ getTriggers()\l+ ClassDefNV()\l}">
<polygon fill="none" stroke="#000000" points="475,-331 475,-432 575,-432 575,-331 475,-331"/>
<text text-anchor="middle" x="525" y="-420" font-family="Helvetica,sans-Serif" font-size="10.00" fill="#000000">o2::fdd::Triggers</text>
<polyline fill="none" stroke="#000000" points="475,-413 575,-413 "/>
<text text-anchor="middle" x="525" y="-401" font-family="Helvetica,sans-Serif" font-size="10.00" fill="#000000"> </text>
<polyline fill="none" stroke="#000000" points="475,-394 575,-394 "/>
<text text-anchor="start" x="483" y="-382" font-family="Helvetica,sans-Serif" font-size="10.00" fill="#000000">+ Triggers()</text>
<text text-anchor="start" x="483" y="-371" font-family="Helvetica,sans-Serif" font-size="10.00" fill="#000000">+ Triggers()</text>
<text text-anchor="start" x="483" y="-360" font-family="Helvetica,sans-Serif" font-size="10.00" fill="#000000">+ cleanTriggers()</text>
<text text-anchor="start" x="483" y="-349" font-family="Helvetica,sans-Serif" font-size="10.00" fill="#000000">+ getTriggers()</text>
<text text-anchor="start" x="483" y="-338" font-family="Helvetica,sans-Serif" font-size="10.00" fill="#000000">+ ClassDefNV()</text>
</a>
</g>
</g>
<!-- Node5&#45;&gt;Node7 -->
<g id="edge10" class="edge">
<title>Node5&#45;&gt;Node7</title>
<path fill="none" stroke="#404040" d="M386.5243,-721.9756C391.5432,-693.204 400.7242,-647.7615 414,-610 434.6079,-551.3829 466.1511,-488.0794 490.3523,-443.0005"/>
<polygon fill="none" stroke="#404040" points="490.4672,-442.7881 489.805,-435.6074 496.1787,-432.2344 496.8408,-439.415 490.4672,-442.7881"/>
<text text-anchor="middle" x="453.5" y="-618.5" font-family="Helvetica,sans-Serif" font-size="10.00" fill="#000000"> +triggersignals</text>
</g>
<!-- Node6 -->
<g id="node6" class="node">
<title>Node6</title>
<polygon fill="none" stroke="#bfbfbf" points="68.5,-722 68.5,-779 205.5,-779 205.5,-722 68.5,-722"/>
<text text-anchor="middle" x="137" y="-767" font-family="Helvetica,sans-Serif" font-size="10.00" fill="#000000">static constexpr uint16_t</text>
<polyline fill="none" stroke="#bfbfbf" points="68.5,-760 205.5,-760 "/>
<text text-anchor="middle" x="137" y="-748" font-family="Helvetica,sans-Serif" font-size="10.00" fill="#000000"> </text>
<polyline fill="none" stroke="#bfbfbf" points="68.5,-741 205.5,-741 "/>
<text text-anchor="middle" x="137" y="-729" font-family="Helvetica,sans-Serif" font-size="10.00" fill="#000000"> </text>
</g>
<!-- Node6&#45;&gt;Node2 -->
<g id="edge5" class="edge">
<title>Node6&#45;&gt;Node2</title>
<path fill="none" stroke="#404040" d="M144.5053,-721.9181C152.0238,-693.4877 164.0244,-648.6491 175,-610 176.3294,-605.3186 177.6802,-600.5852 179.0475,-595.8145"/>
<polygon fill="none" stroke="#404040" points="179.1609,-595.4198 176.9751,-588.548 182.4776,-583.8873 184.6635,-590.7591 179.1609,-595.4198"/>
<text text-anchor="middle" x="207" y="-618.5" font-family="Helvetica,sans-Serif" font-size="10.00" fill="#000000"> +DummyBC</text>
</g>
<!-- Node7&#45;&gt;Node1 -->
<g id="edge6" class="edge">
<title>Node7&#45;&gt;Node1</title>
<path fill="none" stroke="#404040" d="M525,-330.8743C525,-278.2792 525,-195.4551 525,-135.6234"/>
<polygon fill="none" stroke="#404040" points="525.0001,-135.6021 521,-129.6021 525,-123.6021 529,-129.602 525.0001,-135.6021"/>
<text text-anchor="middle" x="555" y="-145" font-family="Helvetica,sans-Serif" font-size="10.00" fill="#000000"> +mTriggers</text>
</g>
<!-- Node8 -->
<g id="node8" class="node">
<title>Node8</title>
<polygon fill="none" stroke="#bfbfbf" points="475,-722 475,-779 519,-779 519,-722 475,-722"/>
<text text-anchor="middle" x="497" y="-767" font-family="Helvetica,sans-Serif" font-size="10.00" fill="#000000">int8_t</text>
<polyline fill="none" stroke="#bfbfbf" points="475,-760 519,-760 "/>
<text text-anchor="middle" x="497" y="-748" font-family="Helvetica,sans-Serif" font-size="10.00" fill="#000000"> </text>
<polyline fill="none" stroke="#bfbfbf" points="475,-741 519,-741 "/>
<text text-anchor="middle" x="497" y="-729" font-family="Helvetica,sans-Serif" font-size="10.00" fill="#000000"> </text>
</g>
<!-- Node8&#45;&gt;Node7 -->
<g id="edge7" class="edge">
<title>Node8&#45;&gt;Node7</title>
<path fill="none" stroke="#404040" d="M496.2807,-721.9441C495.7824,-693.5334 495.5827,-648.7094 498,-610 501.5121,-553.759 509.352,-490.1171 515.6837,-444.308"/>
<polygon fill="none" stroke="#404040" points="515.7182,-444.0612 512.5891,-437.5644 517.3827,-432.1772 520.5118,-438.6741 515.7182,-444.0612"/>
<text text-anchor="middle" x="522.5" y="-624" font-family="Helvetica,sans-Serif" font-size="10.00" fill="#000000"> +nChanA</text>
<text text-anchor="middle" x="522.5" y="-613" font-family="Helvetica,sans-Serif" font-size="10.00" fill="#000000">+nChanC</text>
</g>
<!-- Node9 -->
<g id="node9" class="node">
<title>Node9</title>
<polygon fill="none" stroke="#bfbfbf" points="543,-722 543,-779 593,-779 593,-722 543,-722"/>
<text text-anchor="middle" x="568" y="-767" font-family="Helvetica,sans-Serif" font-size="10.00" fill="#000000">int32_t</text>
<polyline fill="none" stroke="#bfbfbf" points="543,-760 593,-760 "/>
<text text-anchor="middle" x="568" y="-748" font-family="Helvetica,sans-Serif" font-size="10.00" fill="#000000"> </text>
<polyline fill="none" stroke="#bfbfbf" points="543,-741 593,-741 "/>
<text text-anchor="middle" x="568" y="-729" font-family="Helvetica,sans-Serif" font-size="10.00" fill="#000000"> </text>
</g>
<!-- Node9&#45;&gt;Node7 -->
<g id="edge8" class="edge">
<title>Node9&#45;&gt;Node7</title>
<path fill="none" stroke="#404040" d="M564.6616,-721.8522C557.7453,-662.5001 541.7109,-524.9033 532.2841,-444.0075"/>
<polygon fill="none" stroke="#404040" points="532.2757,-443.9351 527.6081,-438.4384 530.8867,-432.0157 535.5543,-437.5124 532.2757,-443.9351"/>
<text text-anchor="middle" x="575.5" y="-624" font-family="Helvetica,sans-Serif" font-size="10.00" fill="#000000"> +amplA</text>
<text text-anchor="middle" x="575.5" y="-613" font-family="Helvetica,sans-Serif" font-size="10.00" fill="#000000">+amplC</text>
</g>
<!-- Node10 -->
<g id="node10" class="node">
<title>Node10</title>
<polygon fill="none" stroke="#bfbfbf" points="611,-722 611,-779 661,-779 661,-722 611,-722"/>
<text text-anchor="middle" x="636" y="-767" font-family="Helvetica,sans-Serif" font-size="10.00" fill="#000000">int16_t</text>
<polyline fill="none" stroke="#bfbfbf" points="611,-760 661,-760 "/>
<text text-anchor="middle" x="636" y="-748" font-family="Helvetica,sans-Serif" font-size="10.00" fill="#000000"> </text>
<polyline fill="none" stroke="#bfbfbf" points="611,-741 661,-741 "/>
<text text-anchor="middle" x="636" y="-729" font-family="Helvetica,sans-Serif" font-size="10.00" fill="#000000"> </text>
</g>
<!-- Node10&#45;&gt;Node7 -->
<g id="edge9" class="edge">
<title>Node10&#45;&gt;Node7</title>
<path fill="none" stroke="#404040" d="M629.5339,-721.8037C622.9482,-693.2864 612.1462,-648.3835 601,-610 584.537,-553.3073 563.1123,-489.6349 547.2086,-443.9317"/>
<polygon fill="none" stroke="#404040" points="547.1453,-443.7502 541.3903,-439.405 543.1878,-432.4215 548.9428,-436.7667 547.1453,-443.7502"/>
<text text-anchor="middle" x="626.5" y="-624" font-family="Helvetica,sans-Serif" font-size="10.00" fill="#000000"> +timeA</text>
<text text-anchor="middle" x="626.5" y="-613" font-family="Helvetica,sans-Serif" font-size="10.00" fill="#000000">+timeC</text>
</g>
<!-- Node11 -->
<g id="node11" class="node">
<title>Node11</title>
<g id="a_node11"><a xlink:href="../../de/d0e/classo2_1_1dataformats_1_1RangeRefComp.html" target="_top" xlink:title="{o2::dataformats::RangeRef\lComp\&lt; 5 \&gt;\n||+ RangeRefComp()\l+ RangeRefComp()\l+ RangeRefComp()\l+ set()\l+ getFirstEntry()\l+ getEntries()\l+ setFirstEntry()\l+ setEntries()\l+ changeEntriesBy()\l+ operator==()\l+ ClassDefNV()\l+ getMaxFirstEntry()\l+ getMaxEntries()\l}">
<polygon fill="none" stroke="#000000" points="650.5,-281.5 650.5,-481.5 797.5,-481.5 797.5,-281.5 650.5,-281.5"/>
<text text-anchor="start" x="658.5" y="-469.5" font-family="Helvetica,sans-Serif" font-size="10.00" fill="#000000">o2::dataformats::RangeRef</text>
<text text-anchor="middle" x="724" y="-458.5" font-family="Helvetica,sans-Serif" font-size="10.00" fill="#000000">Comp&lt; 5 &gt;</text>
<polyline fill="none" stroke="#000000" points="650.5,-451.5 797.5,-451.5 "/>
<text text-anchor="middle" x="724" y="-439.5" font-family="Helvetica,sans-Serif" font-size="10.00" fill="#000000"> </text>
<polyline fill="none" stroke="#000000" points="650.5,-432.5 797.5,-432.5 "/>
<text text-anchor="start" x="658.5" y="-420.5" font-family="Helvetica,sans-Serif" font-size="10.00" fill="#000000">+ RangeRefComp()</text>
<text text-anchor="start" x="658.5" y="-409.5" font-family="Helvetica,sans-Serif" font-size="10.00" fill="#000000">+ RangeRefComp()</text>
<text text-anchor="start" x="658.5" y="-398.5" font-family="Helvetica,sans-Serif" font-size="10.00" fill="#000000">+ RangeRefComp()</text>
<text text-anchor="start" x="658.5" y="-387.5" font-family="Helvetica,sans-Serif" font-size="10.00" fill="#000000">+ set()</text>
<text text-anchor="start" x="658.5" y="-376.5" font-family="Helvetica,sans-Serif" font-size="10.00" fill="#000000">+ getFirstEntry()</text>
<text text-anchor="start" x="658.5" y="-365.5" font-family="Helvetica,sans-Serif" font-size="10.00" fill="#000000">+ getEntries()</text>
<text text-anchor="start" x="658.5" y="-354.5" font-family="Helvetica,sans-Serif" font-size="10.00" fill="#000000">+ setFirstEntry()</text>
<text text-anchor="start" x="658.5" y="-343.5" font-family="Helvetica,sans-Serif" font-size="10.00" fill="#000000">+ setEntries()</text>
<text text-anchor="start" x="658.5" y="-332.5" font-family="Helvetica,sans-Serif" font-size="10.00" fill="#000000">+ changeEntriesBy()</text>
<text text-anchor="start" x="658.5" y="-321.5" font-family="Helvetica,sans-Serif" font-size="10.00" fill="#000000">+ operator==()</text>
<text text-anchor="start" x="658.5" y="-310.5" font-family="Helvetica,sans-Serif" font-size="10.00" fill="#000000">+ ClassDefNV()</text>
<text text-anchor="start" x="658.5" y="-299.5" font-family="Helvetica,sans-Serif" font-size="10.00" fill="#000000">+ getMaxFirstEntry()</text>
<text text-anchor="start" x="658.5" y="-288.5" font-family="Helvetica,sans-Serif" font-size="10.00" fill="#000000">+ getMaxEntries()</text>
</a>
</g>
</g>
<!-- Node11&#45;&gt;Node1 -->
<g id="edge11" class="edge">
<title>Node11&#45;&gt;Node1</title>
<path fill="none" stroke="#404040" d="M672.3103,-281.4651C648.4998,-237.6803 618.92,-186.3009 589,-142 587.0868,-139.1672 585.1001,-136.3089 583.0619,-133.4448"/>
<polygon fill="none" stroke="#404040" points="583.0357,-133.4089 576.2684,-130.9184 575.9645,-123.7136 582.7319,-126.2042 583.0357,-133.4089"/>
<text text-anchor="middle" x="605.5" y="-145" font-family="Helvetica,sans-Serif" font-size="10.00" fill="#000000"> +ref</text>
</g>
<!-- Node12 -->
<g id="node12" class="node">
<title>Node12</title>
<g id="a_node12"><a xlink:href="../../de/d0e/classo2_1_1dataformats_1_1RangeRefComp.html" target="_top" xlink:title="{o2::dataformats::RangeRef\lComp\&lt; NBitsN \&gt;\n||+ RangeRefComp()\l+ RangeRefComp()\l+ RangeRefComp()\l+ set()\l+ getFirstEntry()\l+ getEntries()\l+ setFirstEntry()\l+ setEntries()\l+ changeEntriesBy()\l+ operator==()\l+ ClassDefNV()\l+ getMaxFirstEntry()\l+ getMaxEntries()\l}">
<polygon fill="none" stroke="#000000" points="679.5,-650.5 679.5,-850.5 826.5,-850.5 826.5,-650.5 679.5,-650.5"/>
<text text-anchor="start" x="687.5" y="-838.5" font-family="Helvetica,sans-Serif" font-size="10.00" fill="#000000">o2::dataformats::RangeRef</text>
<text text-anchor="middle" x="753" y="-827.5" font-family="Helvetica,sans-Serif" font-size="10.00" fill="#000000">Comp&lt; NBitsN &gt;</text>
<polyline fill="none" stroke="#000000" points="679.5,-820.5 826.5,-820.5 "/>
<text text-anchor="middle" x="753" y="-808.5" font-family="Helvetica,sans-Serif" font-size="10.00" fill="#000000"> </text>
<polyline fill="none" stroke="#000000" points="679.5,-801.5 826.5,-801.5 "/>
<text text-anchor="start" x="687.5" y="-789.5" font-family="Helvetica,sans-Serif" font-size="10.00" fill="#000000">+ RangeRefComp()</text>
<text text-anchor="start" x="687.5" y="-778.5" font-family="Helvetica,sans-Serif" font-size="10.00" fill="#000000">+ RangeRefComp()</text>
<text text-anchor="start" x="687.5" y="-767.5" font-family="Helvetica,sans-Serif" font-size="10.00" fill="#000000">+ RangeRefComp()</text>
<text text-anchor="start" x="687.5" y="-756.5" font-family="Helvetica,sans-Serif" font-size="10.00" fill="#000000">+ set()</text>
<text text-anchor="start" x="687.5" y="-745.5" font-family="Helvetica,sans-Serif" font-size="10.00" fill="#000000">+ getFirstEntry()</text>
<text text-anchor="start" x="687.5" y="-734.5" font-family="Helvetica,sans-Serif" font-size="10.00" fill="#000000">+ getEntries()</text>
<text text-anchor="start" x="687.5" y="-723.5" font-family="Helvetica,sans-Serif" font-size="10.00" fill="#000000">+ setFirstEntry()</text>
<text text-anchor="start" x="687.5" y="-712.5" font-family="Helvetica,sans-Serif" font-size="10.00" fill="#000000">+ setEntries()</text>
<text text-anchor="start" x="687.5" y="-701.5" font-family="Helvetica,sans-Serif" font-size="10.00" fill="#000000">+ changeEntriesBy()</text>
<text text-anchor="start" x="687.5" y="-690.5" font-family="Helvetica,sans-Serif" font-size="10.00" fill="#000000">+ operator==()</text>
<text text-anchor="start" x="687.5" y="-679.5" font-family="Helvetica,sans-Serif" font-size="10.00" fill="#000000">+ ClassDefNV()</text>
<text text-anchor="start" x="687.5" y="-668.5" font-family="Helvetica,sans-Serif" font-size="10.00" fill="#000000">+ getMaxFirstEntry()</text>
<text text-anchor="start" x="687.5" y="-657.5" font-family="Helvetica,sans-Serif" font-size="10.00" fill="#000000">+ getMaxEntries()</text>
</a>
</g>
</g>
<!-- Node12&#45;&gt;Node11 -->
<g id="edge12" class="edge">
<title>Node12&#45;&gt;Node11</title>
<path fill="none" stroke="#ffa500" d="M744.3069,-639.8884C740.3526,-589.5721 735.7079,-530.4731 731.8594,-481.5035"/>
<polygon fill="#ffa500" stroke="#ffa500" points="740.8411,-640.4615 745.1139,-650.1565 747.8196,-639.913 740.8411,-640.4615"/>
<text text-anchor="middle" x="759" y="-618.5" font-family="Helvetica,sans-Serif" font-size="10.00" fill="#000000"> &lt; 5 &gt;</text>
</g>
</g>
</svg>
        <g id="navigator" transform="translate(0 0)" fill="#404254">
                <rect fill="#f2f5e9" fill-opacity="0.5" stroke="#606060" stroke-width=".5" x="0" y="0" width="60" height="60"/>
                <use id="zoomplus" xlink:href="#zoomPlus" x="17" y="9" onmousedown="handleZoom(evt,'in')"/>
                <use id="zoomminus" xlink:href="#zoomMin" x="42" y="9" onmousedown="handleZoom(evt,'out')"/>
                <use id="reset" xlink:href="#resetDef" x="30" y="36" onmousedown="handleReset()"/>
                <g id="arrowUp" xlink:href="#dirArrow" transform="translate(30 24)" onmousedown="handlePan(0,-1)">
                  <use xlink:href="#rim" fill="#404040">
                        <set attributeName="fill" to="#808080" begin="arrowUp.mouseover" end="arrowUp.mouseout"/>
                  </use>
                  <path fill="none" stroke="white" stroke-width="1.5" d="M0,-3.0v7 M-2.5,-0.5L0,-3.0L2.5,-0.5"/>
                </g>
                <g id="arrowRight" xlink:href="#dirArrow" transform="rotate(90) translate(36 -43)" onmousedown="handlePan(1,0)">
                  <use xlink:href="#rim" fill="#404040">
                        <set attributeName="fill" to="#808080" begin="arrowRight.mouseover" end="arrowRight.mouseout"/>
                  </use>
                  <path fill="none" stroke="white" stroke-width="1.5" d="M0,-3.0v7 M-2.5,-0.5L0,-3.0L2.5,-0.5"/>
                </g>
                <g id="arrowDown" xlink:href="#dirArrow" transform="rotate(180) translate(-30 -48)" onmousedown="handlePan(0,1)">
                  <use xlink:href="#rim" fill="#404040">
                        <set attributeName="fill" to="#808080" begin="arrowDown.mouseover" end="arrowDown.mouseout"/>
                  </use>
                  <path fill="none" stroke="white" stroke-width="1.5" d="M0,-3.0v7 M-2.5,-0.5L0,-3.0L2.5,-0.5"/>
                </g>
                <g id="arrowLeft" xlink:href="#dirArrow" transform="rotate(270) translate(-36 17)" onmousedown="handlePan(-1,0)">
                  <use xlink:href="#rim" fill="#404040">
                        <set attributeName="fill" to="#808080" begin="arrowLeft.mouseover" end="arrowLeft.mouseout"/>
                  </use>
                  <path fill="none" stroke="white" stroke-width="1.5" d="M0,-3.0v7 M-2.5,-0.5L0,-3.0L2.5,-0.5"/>
                </g>
        </g>
        <svg viewBox="0 0 15 15" width="100%" height="30px" preserveAspectRatio="xMaxYMin meet">
         <g id="arrow_out" transform="scale(0.3 0.3)">
          <a xlink:href="structo2_1_1fdd_1_1Digit__coll__graph_org.svg" target="_base">
           <rect id="button" ry="5" rx="5" y="6" x="6" height="38" width="38"
                fill="#f2f5e9" fill-opacity="0.5" stroke="#606060" stroke-width="1.0"/>
           <path id="arrow"
             d="M 11.500037,31.436501 C 11.940474,20.09759 22.043105,11.32322 32.158766,21.979434 L 37.068811,17.246167 C 37.068811,17.246167 37.088388,32 37.088388,32 L 22.160133,31.978069 C 22.160133,31.978069 26.997745,27.140456 26.997745,27.140456 C 18.528582,18.264221 13.291696,25.230495 11.500037,31.436501 z"
             style="fill:#404040;"/>
          </a>
         </g>
        </svg>
</svg>
