<?xml version="1.0" encoding="UTF-8" standalone="no"?>
<!DOCTYPE svg PUBLIC "-//W3C//DTD SVG 1.1//EN"
 "http://www.w3.org/Graphics/SVG/1.1/DTD/svg11.dtd">
<!-- Generated by graphviz version 2.40.1 (20161225.0304)
 -->
<!-- Title: test::MetaHeader Pages: 1 -->
<!--zoomable 982 -->
<svg id="main" version="1.1" xmlns="http://www.w3.org/2000/svg" xmlns:xlink="http://www.w3.org/1999/xlink" xml:space="preserve" onload="init(evt)">
<style type="text/css"><![CDATA[
.edge:hover path { stroke: red; }
.edge:hover polygon { stroke: red; fill: red; }
]]></style>
<script type="text/javascript"><![CDATA[
var edges = document.getElementsByTagName('g');
if (edges && edges.length) {
  for (var i=0;i<edges.length;i++) {
    if (edges[i].id.substr(0,4)=='edge') {
      edges[i].setAttribute('class','edge');
    }
  }
}
]]></script>
        <defs>
                <circle id="rim" cx="0" cy="0" r="7"/>
                <circle id="rim2" cx="0" cy="0" r="3.5"/>
                <g id="zoomPlus">
                        <use xlink:href="#rim" fill="#404040">
                                <set attributeName="fill" to="#808080" begin="zoomplus.mouseover" end="zoomplus.mouseout"/>
                        </use>
                        <path d="M-4,0h8M0,-4v8" fill="none" stroke="white" stroke-width="1.5" pointer-events="none"/>
                </g>
                <g id="zoomMin">
                        <use xlink:href="#rim" fill="#404040">
                                <set attributeName="fill" to="#808080" begin="zoomminus.mouseover" end="zoomminus.mouseout"/>
                        </use>
                        <path d="M-4,0h8" fill="none" stroke="white" stroke-width="1.5" pointer-events="none"/>
                </g>
                <g id="dirArrow">
                        <path fill="none" stroke="white" stroke-width="1.5" d="M0,-3.0v7 M-2.5,-0.5L0,-3.0L2.5,-0.5"/>
                </g>
               <g id="resetDef">
                       <use xlink:href="#rim2" fill="#404040">
                               <set attributeName="fill" to="#808080" begin="reset.mouseover" end="reset.mouseout"/>
                       </use>
               </g>
        </defs>

<script type="text/javascript">
var viewWidth = 1054;
var viewHeight = 982;
var sectionId = 'dynsection-1';
</script>
<script xlink:href="../../svgpan.js"/>
<svg id="graph" class="graph">
<g id="viewport">
<title>test::MetaHeader</title>
<!-- Node2 -->
<g id="node1" class="node">
<title>Node2</title>
<polygon fill="#bfbfbf" stroke="#000000" points="850.8395,-.5 850.8395,-57.5 951.8395,-57.5 951.8395,-.5 850.8395,-.5"/>
<text text-anchor="middle" x="901.3395" y="-45.5" font-family="Helvetica,sans-Serif" font-size="10.00" fill="#000000">test::MetaHeader</text>
<polyline fill="none" stroke="#000000" points="850.8395,-38.5 951.8395,-38.5 "/>
<text text-anchor="middle" x="901.3395" y="-26.5" font-family="Helvetica,sans-Serif" font-size="10.00" fill="#000000"> </text>
<polyline fill="none" stroke="#000000" points="850.8395,-19.5 951.8395,-19.5 "/>
<text text-anchor="start" x="858.8395" y="-7.5" font-family="Helvetica,sans-Serif" font-size="10.00" fill="#000000">+ MetaHeader()</text>
</g>
<!-- Node3 -->
<g id="node2" class="node">
<title>Node3</title>
<g id="a_node2"><a xlink:href="../../d8/dbd/structo2_1_1header_1_1BaseHeader.html" target="_top" xlink:title="the base header struct Every header type must begin (i.e. derive) with this. Don&#39;t use this struct di...">
<polygon fill="none" stroke="#000000" points="422.8395,-95.5 422.8395,-262.5 595.8395,-262.5 595.8395,-95.5 422.8395,-95.5"/>
<text text-anchor="middle" x="509.3395" y="-250.5" font-family="Helvetica,sans-Serif" font-size="10.00" fill="#000000">o2::header::BaseHeader</text>
<polyline fill="none" stroke="#000000" points="422.8395,-243.5 595.8395,-243.5 "/>
<text text-anchor="middle" x="509.3395" y="-231.5" font-family="Helvetica,sans-Serif" font-size="10.00" fill="#000000"> </text>
<polyline fill="none" stroke="#000000" points="422.8395,-224.5 595.8395,-224.5 "/>
<text text-anchor="start" x="430.8395" y="-212.5" font-family="Helvetica,sans-Serif" font-size="10.00" fill="#000000">+ BaseHeader()</text>
<text text-anchor="start" x="430.8395" y="-201.5" font-family="Helvetica,sans-Serif" font-size="10.00" fill="#000000">+ BaseHeader()</text>
<text text-anchor="start" x="430.8395" y="-190.5" font-family="Helvetica,sans-Serif" font-size="10.00" fill="#000000">+ BaseHeader()</text>
<text text-anchor="start" x="430.8395" y="-179.5" font-family="Helvetica,sans-Serif" font-size="10.00" fill="#000000">+ size()</text>
<text text-anchor="start" x="430.8395" y="-168.5" font-family="Helvetica,sans-Serif" font-size="10.00" fill="#000000">+ data()</text>
<text text-anchor="start" x="430.8395" y="-157.5" font-family="Helvetica,sans-Serif" font-size="10.00" fill="#000000">+ next()</text>
<text text-anchor="start" x="430.8395" y="-146.5" font-family="Helvetica,sans-Serif" font-size="10.00" fill="#000000">+ next()</text>
<text text-anchor="start" x="430.8395" y="-135.5" font-family="Helvetica,sans-Serif" font-size="10.00" fill="#000000">+ sanityCheck()</text>
<text text-anchor="start" x="430.8395" y="-124.5" font-family="Helvetica,sans-Serif" font-size="10.00" fill="#000000">+ throwInconsistentStackError()</text>
<text text-anchor="start" x="430.8395" y="-113.5" font-family="Helvetica,sans-Serif" font-size="10.00" fill="#000000">+ get()</text>
<text text-anchor="start" x="430.8395" y="-102.5" font-family="Helvetica,sans-Serif" font-size="10.00" fill="#000000">+ get()</text>
</a>
</g>
</g>
<!-- Node3&#45;&gt;Node2 -->
<g id="edge1" class="edge">
<title>Node3&#45;&gt;Node2</title>
<path fill="none" stroke="#191970" d="M605.6307,-142.1539C683.1069,-112.5074 788.9143,-72.0199 850.7061,-48.375"/>
<polygon fill="none" stroke="#191970" points="603.9396,-139.0534 595.8509,-145.8962 606.4413,-145.5911 603.9396,-139.0534"/>
</g>
<!-- Node4 -->
<g id="node3" class="node">
<title>Node4</title>
<g id="a_node3"><a xlink:href="../../d9/db3/structo2_1_1header_1_1Descriptor.html" target="_top" xlink:title="{o2::header::Descriptor\l\&lt; gSizeHeaderDescriptionString \&gt;\n||+ Descriptor()\l+ Descriptor()\l+ Descriptor()\l+ Descriptor()\l+ operator=()\l+ operator ItgType()\l+ runtimeInit()\l+ operator==()\l+ operator==()\l+ operator\&lt;()\l+ operator!=()\l+ operator!=()\l+ as()\l+ print()\l}">
<polygon fill="none" stroke="#000000" points="170.8395,-365.5 170.8395,-576.5 355.8395,-576.5 355.8395,-365.5 170.8395,-365.5"/>
<text text-anchor="start" x="178.8395" y="-564.5" font-family="Helvetica,sans-Serif" font-size="10.00" fill="#000000">o2::header::Descriptor</text>
<text text-anchor="middle" x="263.3395" y="-553.5" font-family="Helvetica,sans-Serif" font-size="10.00" fill="#000000">&lt; gSizeHeaderDescriptionString &gt;</text>
<polyline fill="none" stroke="#000000" points="170.8395,-546.5 355.8395,-546.5 "/>
<text text-anchor="middle" x="263.3395" y="-534.5" font-family="Helvetica,sans-Serif" font-size="10.00" fill="#000000"> </text>
<polyline fill="none" stroke="#000000" points="170.8395,-527.5 355.8395,-527.5 "/>
<text text-anchor="start" x="178.8395" y="-515.5" font-family="Helvetica,sans-Serif" font-size="10.00" fill="#000000">+ Descriptor()</text>
<text text-anchor="start" x="178.8395" y="-504.5" font-family="Helvetica,sans-Serif" font-size="10.00" fill="#000000">+ Descriptor()</text>
<text text-anchor="start" x="178.8395" y="-493.5" font-family="Helvetica,sans-Serif" font-size="10.00" fill="#000000">+ Descriptor()</text>
<text text-anchor="start" x="178.8395" y="-482.5" font-family="Helvetica,sans-Serif" font-size="10.00" fill="#000000">+ Descriptor()</text>
<text text-anchor="start" x="178.8395" y="-471.5" font-family="Helvetica,sans-Serif" font-size="10.00" fill="#000000">+ operator=()</text>
<text text-anchor="start" x="178.8395" y="-460.5" font-family="Helvetica,sans-Serif" font-size="10.00" fill="#000000">+ operator ItgType()</text>
<text text-anchor="start" x="178.8395" y="-449.5" font-family="Helvetica,sans-Serif" font-size="10.00" fill="#000000">+ runtimeInit()</text>
<text text-anchor="start" x="178.8395" y="-438.5" font-family="Helvetica,sans-Serif" font-size="10.00" fill="#000000">+ operator==()</text>
<text text-anchor="start" x="178.8395" y="-427.5" font-family="Helvetica,sans-Serif" font-size="10.00" fill="#000000">+ operator==()</text>
<text text-anchor="start" x="178.8395" y="-416.5" font-family="Helvetica,sans-Serif" font-size="10.00" fill="#000000">+ operator&lt;()</text>
<text text-anchor="start" x="178.8395" y="-405.5" font-family="Helvetica,sans-Serif" font-size="10.00" fill="#000000">+ operator!=()</text>
<text text-anchor="start" x="178.8395" y="-394.5" font-family="Helvetica,sans-Serif" font-size="10.00" fill="#000000">+ operator!=()</text>
<text text-anchor="start" x="178.8395" y="-383.5" font-family="Helvetica,sans-Serif" font-size="10.00" fill="#000000">+ as()</text>
<text text-anchor="start" x="178.8395" y="-372.5" font-family="Helvetica,sans-Serif" font-size="10.00" fill="#000000">+ print()</text>
</a>
</g>
</g>
<!-- Node4&#45;&gt;Node3 -->
<g id="edge2" class="edge">
<title>Node4&#45;&gt;Node3</title>
<path fill="none" stroke="#404040" d="M294.3705,-365.281C306.4273,-335.8448 322.4797,-305.3098 343.3395,-281 362.3241,-258.8756 387.3412,-240.0871 412.1769,-224.896"/>
<polygon fill="none" stroke="#404040" points="412.4678,-224.7237 415.5907,-218.2238 422.7916,-218.6065 419.6688,-225.1064 412.4678,-224.7237"/>
<text text-anchor="middle" x="376.3395" y="-311.5" font-family="Helvetica,sans-Serif" font-size="10.00" fill="#000000"> +description</text>
</g>
<!-- Node5 -->
<g id="node4" class="node">
<title>Node5</title>
<polygon fill="none" stroke="#bfbfbf" points="252.8395,-916.5 252.8395,-973.5 291.8395,-973.5 291.8395,-916.5 252.8395,-916.5"/>
<text text-anchor="middle" x="272.3395" y="-961.5" font-family="Helvetica,sans-Serif" font-size="10.00" fill="#000000">Type</text>
<polyline fill="none" stroke="#bfbfbf" points="252.8395,-954.5 291.8395,-954.5 "/>
<text text-anchor="middle" x="272.3395" y="-942.5" font-family="Helvetica,sans-Serif" font-size="10.00" fill="#000000"> </text>
<polyline fill="none" stroke="#bfbfbf" points="252.8395,-935.5 291.8395,-935.5 "/>
<text text-anchor="middle" x="272.3395" y="-923.5" font-family="Helvetica,sans-Serif" font-size="10.00" fill="#000000"> </text>
</g>
<!-- Node5&#45;&gt;Node4 -->
<g id="edge3" class="edge">
<title>Node5&#45;&gt;Node4</title>
<path fill="none" stroke="#404040" d="M252.5632,-930.6835C230.8307,-913.5983 197.1707,-882.8029 183.3395,-847 149.3856,-759.1082 162.1415,-726.8067 183.3395,-635 186.9527,-619.3519 192.272,-603.47 198.4801,-588.0606"/>
<polygon fill="none" stroke="#404040" points="198.5054,-588.0001 197.1369,-580.9201 203.146,-576.9337 204.5145,-584.0138 198.5054,-588.0001"/>
<text text-anchor="middle" x="195.8395" y="-738.5" font-family="Helvetica,sans-Serif" font-size="10.00" fill="#000000"> +itg</text>
</g>
<!-- Node9 -->
<g id="node8" class="node">
<title>Node9</title>
<g id="a_node8"><a xlink:href="../../d9/db3/structo2_1_1header_1_1Descriptor.html" target="_top" xlink:title="{o2::header::Descriptor\l\&lt; N, PrinterPolicy \&gt;\n||+ Descriptor()\l+ Descriptor()\l+ Descriptor()\l+ operator=()\l+ operator ItgType()\l+ Descriptor()\l+ runtimeInit()\l+ operator==()\l+ operator\&lt;()\l+ operator!=()\l+ operator==()\l+ operator!=()\l+ as()\l+ print()\l}">
<polygon fill="none" stroke="#000000" points="337.8395,-635.5 337.8395,-846.5 462.8395,-846.5 462.8395,-635.5 337.8395,-635.5"/>
<text text-anchor="start" x="345.8395" y="-834.5" font-family="Helvetica,sans-Serif" font-size="10.00" fill="#000000">o2::header::Descriptor</text>
<text text-anchor="middle" x="400.3395" y="-823.5" font-family="Helvetica,sans-Serif" font-size="10.00" fill="#000000">&lt; N, PrinterPolicy &gt;</text>
<polyline fill="none" stroke="#000000" points="337.8395,-816.5 462.8395,-816.5 "/>
<text text-anchor="middle" x="400.3395" y="-804.5" font-family="Helvetica,sans-Serif" font-size="10.00" fill="#000000"> </text>
<polyline fill="none" stroke="#000000" points="337.8395,-797.5 462.8395,-797.5 "/>
<text text-anchor="start" x="345.8395" y="-785.5" font-family="Helvetica,sans-Serif" font-size="10.00" fill="#000000">+ Descriptor()</text>
<text text-anchor="start" x="345.8395" y="-774.5" font-family="Helvetica,sans-Serif" font-size="10.00" fill="#000000">+ Descriptor()</text>
<text text-anchor="start" x="345.8395" y="-763.5" font-family="Helvetica,sans-Serif" font-size="10.00" fill="#000000">+ Descriptor()</text>
<text text-anchor="start" x="345.8395" y="-752.5" font-family="Helvetica,sans-Serif" font-size="10.00" fill="#000000">+ operator=()</text>
<text text-anchor="start" x="345.8395" y="-741.5" font-family="Helvetica,sans-Serif" font-size="10.00" fill="#000000">+ operator ItgType()</text>
<text text-anchor="start" x="345.8395" y="-730.5" font-family="Helvetica,sans-Serif" font-size="10.00" fill="#000000">+ Descriptor()</text>
<text text-anchor="start" x="345.8395" y="-719.5" font-family="Helvetica,sans-Serif" font-size="10.00" fill="#000000">+ runtimeInit()</text>
<text text-anchor="start" x="345.8395" y="-708.5" font-family="Helvetica,sans-Serif" font-size="10.00" fill="#000000">+ operator==()</text>
<text text-anchor="start" x="345.8395" y="-697.5" font-family="Helvetica,sans-Serif" font-size="10.00" fill="#000000">+ operator&lt;()</text>
<text text-anchor="start" x="345.8395" y="-686.5" font-family="Helvetica,sans-Serif" font-size="10.00" fill="#000000">+ operator!=()</text>
<text text-anchor="start" x="345.8395" y="-675.5" font-family="Helvetica,sans-Serif" font-size="10.00" fill="#000000">+ operator==()</text>
<text text-anchor="start" x="345.8395" y="-664.5" font-family="Helvetica,sans-Serif" font-size="10.00" fill="#000000">+ operator!=()</text>
<text text-anchor="start" x="345.8395" y="-653.5" font-family="Helvetica,sans-Serif" font-size="10.00" fill="#000000">+ as()</text>
<text text-anchor="start" x="345.8395" y="-642.5" font-family="Helvetica,sans-Serif" font-size="10.00" fill="#000000">+ print()</text>
</a>
</g>
</g>
<!-- Node5&#45;&gt;Node9 -->
<g id="edge8" class="edge">
<title>Node5&#45;&gt;Node9</title>
<path fill="none" stroke="#404040" d="M291.9156,-933.0029C304.5023,-924.4951 320.4746,-912.1125 331.3395,-898 340.8196,-885.6863 349.3022,-871.8673 356.8001,-857.6687"/>
<polygon fill="none" stroke="#404040" points="356.9086,-857.4551 356.0588,-850.2942 362.3421,-846.7556 363.1918,-853.9165 356.9086,-857.4551"/>
<text text-anchor="middle" x="363.8395" y="-879" font-family="Helvetica,sans-Serif" font-size="10.00" fill="#000000"> +itg</text>
</g>
<!-- Node10 -->
<g id="node9" class="node">
<title>Node10</title>
<g id="a_node9"><a xlink:href="../../d9/db3/structo2_1_1header_1_1Descriptor.html" target="_top" xlink:title="{o2::header::Descriptor\l\&lt; gSizeSerializationMethodString \&gt;\n||+ Descriptor()\l+ Descriptor()\l+ Descriptor()\l+ Descriptor()\l+ operator=()\l+ operator ItgType()\l+ runtimeInit()\l+ operator==()\l+ operator==()\l+ operator\&lt;()\l+ operator!=()\l+ operator!=()\l+ as()\l+ print()\l}">
<polygon fill="none" stroke="#000000" points="593.8395,-365.5 593.8395,-576.5 784.8395,-576.5 784.8395,-365.5 593.8395,-365.5"/>
<text text-anchor="start" x="601.8395" y="-564.5" font-family="Helvetica,sans-Serif" font-size="10.00" fill="#000000">o2::header::Descriptor</text>
<text text-anchor="middle" x="689.3395" y="-553.5" font-family="Helvetica,sans-Serif" font-size="10.00" fill="#000000">&lt; gSizeSerializationMethodString &gt;</text>
<polyline fill="none" stroke="#000000" points="593.8395,-546.5 784.8395,-546.5 "/>
<text text-anchor="middle" x="689.3395" y="-534.5" font-family="Helvetica,sans-Serif" font-size="10.00" fill="#000000"> </text>
<polyline fill="none" stroke="#000000" points="593.8395,-527.5 784.8395,-527.5 "/>
<text text-anchor="start" x="601.8395" y="-515.5" font-family="Helvetica,sans-Serif" font-size="10.00" fill="#000000">+ Descriptor()</text>
<text text-anchor="start" x="601.8395" y="-504.5" font-family="Helvetica,sans-Serif" font-size="10.00" fill="#000000">+ Descriptor()</text>
<text text-anchor="start" x="601.8395" y="-493.5" font-family="Helvetica,sans-Serif" font-size="10.00" fill="#000000">+ Descriptor()</text>
<text text-anchor="start" x="601.8395" y="-482.5" font-family="Helvetica,sans-Serif" font-size="10.00" fill="#000000">+ Descriptor()</text>
<text text-anchor="start" x="601.8395" y="-471.5" font-family="Helvetica,sans-Serif" font-size="10.00" fill="#000000">+ operator=()</text>
<text text-anchor="start" x="601.8395" y="-460.5" font-family="Helvetica,sans-Serif" font-size="10.00" fill="#000000">+ operator ItgType()</text>
<text text-anchor="start" x="601.8395" y="-449.5" font-family="Helvetica,sans-Serif" font-size="10.00" fill="#000000">+ runtimeInit()</text>
<text text-anchor="start" x="601.8395" y="-438.5" font-family="Helvetica,sans-Serif" font-size="10.00" fill="#000000">+ operator==()</text>
<text text-anchor="start" x="601.8395" y="-427.5" font-family="Helvetica,sans-Serif" font-size="10.00" fill="#000000">+ operator==()</text>
<text text-anchor="start" x="601.8395" y="-416.5" font-family="Helvetica,sans-Serif" font-size="10.00" fill="#000000">+ operator&lt;()</text>
<text text-anchor="start" x="601.8395" y="-405.5" font-family="Helvetica,sans-Serif" font-size="10.00" fill="#000000">+ operator!=()</text>
<text text-anchor="start" x="601.8395" y="-394.5" font-family="Helvetica,sans-Serif" font-size="10.00" fill="#000000">+ operator!=()</text>
<text text-anchor="start" x="601.8395" y="-383.5" font-family="Helvetica,sans-Serif" font-size="10.00" fill="#000000">+ as()</text>
<text text-anchor="start" x="601.8395" y="-372.5" font-family="Helvetica,sans-Serif" font-size="10.00" fill="#000000">+ print()</text>
</a>
</g>
</g>
<!-- Node5&#45;&gt;Node10 -->
<g id="edge14" class="edge">
<title>Node5&#45;&gt;Node10</title>
<path fill="none" stroke="#404040" d="M271.1403,-916.3628C268.8895,-847.5605 267.2094,-675.6461 304.3395,-635 332.44,-604.2386 355.5132,-625.3136 396.3395,-617 400.9611,-616.0589 539.8224,-587.8667 582.2746,-575.9463"/>
<polygon fill="none" stroke="#404040" points="582.3644,-575.9159 586.7607,-570.2 593.7279,-572.0597 589.3316,-577.7756 582.3644,-575.9159"/>
<text text-anchor="middle" x="316.8395" y="-738.5" font-family="Helvetica,sans-Serif" font-size="10.00" fill="#000000"> +itg</text>
</g>
<!-- Node6 -->
<g id="node5" class="node">
<title>Node6</title>
<polygon fill="none" stroke="#bfbfbf" points="142.3395,-916.5 142.3395,-973.5 180.3395,-973.5 180.3395,-916.5 142.3395,-916.5"/>
<text text-anchor="middle" x="161.3395" y="-961.5" font-family="Helvetica,sans-Serif" font-size="10.00" fill="#000000">char</text>
<polyline fill="none" stroke="#bfbfbf" points="142.3395,-954.5 180.3395,-954.5 "/>
<text text-anchor="middle" x="161.3395" y="-942.5" font-family="Helvetica,sans-Serif" font-size="10.00" fill="#000000"> </text>
<polyline fill="none" stroke="#bfbfbf" points="142.3395,-935.5 180.3395,-935.5 "/>
<text text-anchor="middle" x="161.3395" y="-923.5" font-family="Helvetica,sans-Serif" font-size="10.00" fill="#000000"> </text>
</g>
<!-- Node6&#45;&gt;Node3 -->
<g id="edge12" class="edge">
<title>Node6&#45;&gt;Node3</title>
<path fill="none" stroke="#404040" d="M142.2258,-916.6053C85.5707,-828.5872 -70.9342,-554.8488 37.3395,-365 75.7004,-297.7375 284.0248,-235.1282 410.745,-202.5102"/>
<polygon fill="none" stroke="#404040" points="411.1176,-202.4151 415.9423,-197.0558 422.7451,-199.448 417.9204,-204.8074 411.1176,-202.4151"/>
<text text-anchor="middle" x="46.3395" y="-603.5" font-family="Helvetica,sans-Serif" font-size="10.00" fill="#000000"> +magicString</text>
</g>
<!-- Node6&#45;&gt;Node4 -->
<g id="edge4" class="edge">
<title>Node6&#45;&gt;Node4</title>
<path fill="none" stroke="#404040" d="M150.9981,-916.2473C132.5443,-860.3267 98.9489,-733.7473 133.3395,-635 140.4476,-614.5902 151.2713,-594.8107 163.7002,-576.4705"/>
<polygon fill="none" stroke="#404040" points="163.8545,-576.2509 164.0335,-569.042 170.7568,-566.4347 170.5777,-573.6436 163.8545,-576.2509"/>
<text text-anchor="middle" x="145.8395" y="-738.5" font-family="Helvetica,sans-Serif" font-size="10.00" fill="#000000"> +str</text>
</g>
<!-- Node6&#45;&gt;Node9 -->
<g id="edge9" class="edge">
<title>Node6&#45;&gt;Node9</title>
<path fill="none" stroke="#404040" d="M180.436,-936.6452C212.472,-921.9618 277.8912,-889.0555 322.3395,-847 324.6268,-844.8359 326.8938,-842.5976 329.1361,-840.2994"/>
<polygon fill="none" stroke="#404040" points="329.4683,-839.9433 330.6358,-832.8273 337.6534,-831.168 336.4859,-838.284 329.4683,-839.9433"/>
<text text-anchor="middle" x="310.8395" y="-879" font-family="Helvetica,sans-Serif" font-size="10.00" fill="#000000"> +str</text>
</g>
<!-- Node6&#45;&gt;Node10 -->
<g id="edge15" class="edge">
<title>Node6&#45;&gt;Node10</title>
<path fill="none" stroke="#404040" d="M177.8928,-916.3333C188.1874,-897.2687 200.8481,-871.3472 208.3395,-847 242.3553,-736.4491 170.1796,-647.3125 273.3395,-595 332.2549,-565.1239 504.1587,-601.7773 582.3996,-577.1339"/>
<polygon fill="none" stroke="#404040" points="582.4666,-577.1085 586.6497,-571.2346 593.6806,-572.8368 589.4975,-578.7106 582.4666,-577.1085"/>
<text text-anchor="middle" x="239.8395" y="-738.5" font-family="Helvetica,sans-Serif" font-size="10.00" fill="#000000"> +str</text>
</g>
<!-- Node7 -->
<g id="node6" class="node">
<title>Node7</title>
<polygon fill="none" stroke="#bfbfbf" points="516.8395,-916.5 516.8395,-973.5 545.8395,-973.5 545.8395,-916.5 516.8395,-916.5"/>
<text text-anchor="middle" x="531.3395" y="-961.5" font-family="Helvetica,sans-Serif" font-size="10.00" fill="#000000">int</text>
<polyline fill="none" stroke="#bfbfbf" points="516.8395,-954.5 545.8395,-954.5 "/>
<text text-anchor="middle" x="531.3395" y="-942.5" font-family="Helvetica,sans-Serif" font-size="10.00" fill="#000000"> </text>
<polyline fill="none" stroke="#bfbfbf" points="516.8395,-935.5 545.8395,-935.5 "/>
<text text-anchor="middle" x="531.3395" y="-923.5" font-family="Helvetica,sans-Serif" font-size="10.00" fill="#000000"> </text>
</g>
<!-- Node7&#45;&gt;Node4 -->
<g id="edge5" class="edge">
<title>Node7&#45;&gt;Node4</title>
<path fill="none" stroke="#404040" d="M532.3891,-916.1032C533.1595,-858.2851 528.1293,-726.1072 472.3395,-635 457.2961,-610.4333 446.783,-608.5076 421.3395,-595 401.0449,-584.2259 390.2994,-589.1758 366.5995,-576.9178"/>
<polygon fill="none" stroke="#404040" points="366.3919,-576.7977 359.1952,-577.253 356.0069,-570.785 363.2036,-570.3297 366.3919,-576.7977"/>
<text text-anchor="middle" x="558.3395" y="-749.5" font-family="Helvetica,sans-Serif" font-size="10.00" fill="#000000"> +arraySize</text>
<text text-anchor="middle" x="558.3395" y="-738.5" font-family="Helvetica,sans-Serif" font-size="10.00" fill="#000000">+size</text>
<text text-anchor="middle" x="558.3395" y="-727.5" font-family="Helvetica,sans-Serif" font-size="10.00" fill="#000000">+bitcount</text>
</g>
<!-- Node7&#45;&gt;Node9 -->
<g id="edge10" class="edge">
<title>Node7&#45;&gt;Node9</title>
<path fill="none" stroke="#404040" d="M516.5777,-941.8192C485.6953,-934.8364 415.9943,-917.2457 402.3395,-898 394.0215,-886.2761 389.0455,-872.7203 386.3877,-858.5847"/>
<polygon fill="none" stroke="#404040" points="386.373,-858.4817 381.5655,-853.1069 384.6778,-846.602 389.4853,-851.9768 386.373,-858.4817"/>
<text text-anchor="middle" x="431.3395" y="-890" font-family="Helvetica,sans-Serif" font-size="10.00" fill="#000000"> +arraySize</text>
<text text-anchor="middle" x="431.3395" y="-879" font-family="Helvetica,sans-Serif" font-size="10.00" fill="#000000">+size</text>
<text text-anchor="middle" x="431.3395" y="-868" font-family="Helvetica,sans-Serif" font-size="10.00" fill="#000000">+bitcount</text>
</g>
<!-- Node7&#45;&gt;Node10 -->
<g id="edge16" class="edge">
<title>Node7&#45;&gt;Node10</title>
<path fill="none" stroke="#404040" d="M545.8879,-928.131C549.7669,-923.9884 554.0711,-919.6877 558.3395,-916 599.1998,-880.6986 631.2968,-893.738 658.3395,-847 682.9692,-804.4325 689.3705,-682.4264 690.4539,-588.8249"/>
<polygon fill="none" stroke="#404040" points="690.455,-588.6888 686.5111,-582.6518 690.5668,-576.6893 694.5107,-582.7263 690.455,-588.6888"/>
<text text-anchor="middle" x="718.3395" y="-749.5" font-family="Helvetica,sans-Serif" font-size="10.00" fill="#000000"> +arraySize</text>
<text text-anchor="middle" x="718.3395" y="-738.5" font-family="Helvetica,sans-Serif" font-size="10.00" fill="#000000">+size</text>
<text text-anchor="middle" x="718.3395" y="-727.5" font-family="Helvetica,sans-Serif" font-size="10.00" fill="#000000">+bitcount</text>
</g>
<!-- Node8 -->
<g id="node7" class="node">
<title>Node8</title>
<polygon fill="none" stroke="#bfbfbf" points="566.8395,-916.5 566.8395,-973.5 673.8395,-973.5 673.8395,-916.5 566.8395,-916.5"/>
<text text-anchor="middle" x="620.3395" y="-961.5" font-family="Helvetica,sans-Serif" font-size="10.00" fill="#000000">anonymous:+@72</text>
<polyline fill="none" stroke="#bfbfbf" points="566.8395,-954.5 673.8395,-954.5 "/>
<text text-anchor="middle" x="620.3395" y="-942.5" font-family="Helvetica,sans-Serif" font-size="10.00" fill="#000000"> </text>
<polyline fill="none" stroke="#bfbfbf" points="566.8395,-935.5 673.8395,-935.5 "/>
<text text-anchor="middle" x="620.3395" y="-923.5" font-family="Helvetica,sans-Serif" font-size="10.00" fill="#000000"> </text>
</g>
<!-- Node8&#45;&gt;Node4 -->
<g id="edge6" class="edge">
<title>Node8&#45;&gt;Node4</title>
<path fill="none" stroke="#404040" d="M620.3039,-916.2725C620.0675,-834.6501 618.4146,-606.494 607.3395,-595 572.1876,-558.5185 432.5725,-594.9438 367.6856,-576.4853"/>
<polygon fill="none" stroke="#404040" points="367.3711,-576.3688 360.3549,-578.0342 356.1191,-572.1983 363.1352,-570.5329 367.3711,-576.3688"/>
<text text-anchor="middle" x="636.3395" y="-738.5" font-family="Helvetica,sans-Serif" font-size="10.00" fill="#000000"> +@72</text>
</g>
<!-- Node8&#45;&gt;Node9 -->
<g id="edge11" class="edge">
<title>Node8&#45;&gt;Node9</title>
<path fill="none" stroke="#404040" d="M578.1789,-916.4236C552.0697,-897.9073 518.4659,-872.5527 491.3395,-847 484.6363,-840.6856 477.9197,-833.9126 471.3411,-826.9558"/>
<polygon fill="none" stroke="#404040" points="471.2552,-826.8632 464.242,-825.1853 463.0934,-818.0663 470.1066,-819.7441 471.2552,-826.8632"/>
<text text-anchor="middle" x="569.3395" y="-879" font-family="Helvetica,sans-Serif" font-size="10.00" fill="#000000"> +@72</text>
</g>
<!-- Node8&#45;&gt;Node10 -->
<g id="edge17" class="edge">
<title>Node8&#45;&gt;Node10</title>
<path fill="none" stroke="#404040" d="M674.0261,-920.4777C702.9217,-904.1369 735.9217,-879.6369 752.3395,-847 792.7966,-766.5756 772.4776,-665.4686 744.5445,-588.3608"/>
<polygon fill="none" stroke="#404040" points="744.3822,-587.9255 738.538,-583.7011 740.1896,-576.6817 746.0338,-580.906 744.3822,-587.9255"/>
<text text-anchor="middle" x="791.3395" y="-738.5" font-family="Helvetica,sans-Serif" font-size="10.00" fill="#000000"> +@72</text>
</g>
<!-- Node9&#45;&gt;Node4 -->
<g id="edge7" class="edge">
<title>Node9&#45;&gt;Node4</title>
<path fill="none" stroke="#ffa500" d="M330.5773,-642.6303C327.8759,-639.9868 325.128,-637.4352 322.3395,-635 309.7561,-624.0106 299.0988,-630.5598 289.3395,-617 280.6917,-604.9845 274.6169,-591.001 270.3957,-576.5397"/>
<polygon fill="#ffa500" stroke="#ffa500" points="328.1206,-645.124 337.6151,-649.8255 333.1248,-640.2293 328.1206,-645.124"/>
<text text-anchor="start" x="289.3395" y="-609" font-family="Helvetica,sans-Serif" font-size="10.00" fill="#000000"> &lt; gSizeHeaderDescription</text>
<text text-anchor="middle" x="355.3395" y="-598" font-family="Helvetica,sans-Serif" font-size="10.00" fill="#000000">String &gt;</text>
</g>
<!-- Node9&#45;&gt;Node10 -->
<g id="edge18" class="edge">
<title>Node9&#45;&gt;Node10</title>
<path fill="none" stroke="#ffa500" d="M470.046,-657.2723C477.0823,-649.5957 484.2499,-642.0593 491.3395,-635 510.7769,-615.6458 514.7485,-608.995 538.3395,-595 557.5775,-583.5874 566.6333,-589.2647 585.3395,-577 588.1424,-575.1623 590.9287,-573.238 593.693,-571.2404"/>
<polygon fill="#ffa500" stroke="#ffa500" points="467.1807,-655.222 463.0611,-664.9831 472.3687,-659.9215 467.1807,-655.222"/>
<text text-anchor="start" x="538.3395" y="-609" font-family="Helvetica,sans-Serif" font-size="10.00" fill="#000000"> &lt; gSizeSerializationMethod</text>
<text text-anchor="middle" x="607.3395" y="-598" font-family="Helvetica,sans-Serif" font-size="10.00" fill="#000000">String &gt;</text>
</g>
<!-- Node10&#45;&gt;Node3 -->
<g id="edge13" class="edge">
<title>Node10&#45;&gt;Node3</title>
<path fill="none" stroke="#404040" d="M593.6045,-373.354C590.8206,-370.5369 588.061,-367.7475 585.3395,-365 577.3777,-356.962 573.3388,-356.5921 567.3395,-347 567.043,-346.5258 555.1065,-311.9872 542.1396,-274.3525"/>
<polygon fill="none" stroke="#404040" points="542.0022,-273.9534 536.2662,-269.5832 538.0941,-262.6076 543.8301,-266.9778 542.0022,-273.9534"/>
<text text-anchor="middle" x="603.3395" y="-311.5" font-family="Helvetica,sans-Serif" font-size="10.00" fill="#000000"> +serialization</text>
</g>
<!-- Node11 -->
<g id="node10" class="node">
<title>Node11</title>
<g id="a_node10"><a xlink:href="../../d2/d5f/classunsigned_01int.html" target="_top" xlink:title="{unsigned int\n||}">
<polygon fill="none" stroke="#000000" points="373.8395,-442.5 373.8395,-499.5 450.8395,-499.5 450.8395,-442.5 373.8395,-442.5"/>
<text text-anchor="middle" x="412.3395" y="-487.5" font-family="Helvetica,sans-Serif" font-size="10.00" fill="#000000">unsigned int</text>
<polyline fill="none" stroke="#000000" points="373.8395,-480.5 450.8395,-480.5 "/>
<text text-anchor="middle" x="412.3395" y="-468.5" font-family="Helvetica,sans-Serif" font-size="10.00" fill="#000000"> </text>
<polyline fill="none" stroke="#000000" points="373.8395,-461.5 450.8395,-461.5 "/>
<text text-anchor="middle" x="412.3395" y="-449.5" font-family="Helvetica,sans-Serif" font-size="10.00" fill="#000000"> </text>
</a>
</g>
</g>
<!-- Node11&#45;&gt;Node3 -->
<g id="edge19" class="edge">
<title>Node11&#45;&gt;Node3</title>
<path fill="none" stroke="#404040" d="M410.2139,-442.4935C408.4263,-404.3013 408.9473,-335.0719 430.3395,-281 431.3438,-278.4616 432.4315,-275.9337 433.5924,-273.4211"/>
<polygon fill="none" stroke="#404040" points="433.6941,-273.2204 432.8391,-266.0601 439.1197,-262.517 439.9747,-269.6772 433.6941,-273.2204"/>
<text text-anchor="middle" x="467.3395" y="-311.5" font-family="Helvetica,sans-Serif" font-size="10.00" fill="#000000"> +sMagicString</text>
</g>
<!-- Node12 -->
<g id="node11" class="node">
<title>Node12</title>
<polygon fill="none" stroke="#bfbfbf" points="468.8395,-442.5 468.8395,-499.5 575.8395,-499.5 575.8395,-442.5 468.8395,-442.5"/>
<text text-anchor="middle" x="522.3395" y="-487.5" font-family="Helvetica,sans-Serif" font-size="10.00" fill="#000000">anonymous:+@74</text>
<polyline fill="none" stroke="#bfbfbf" points="468.8395,-480.5 575.8395,-480.5 "/>
<text text-anchor="middle" x="522.3395" y="-468.5" font-family="Helvetica,sans-Serif" font-size="10.00" fill="#000000"> </text>
<polyline fill="none" stroke="#bfbfbf" points="468.8395,-461.5 575.8395,-461.5 "/>
<text text-anchor="middle" x="522.3395" y="-449.5" font-family="Helvetica,sans-Serif" font-size="10.00" fill="#000000"> </text>
</g>
<!-- Node12&#45;&gt;Node3 -->
<g id="edge20" class="edge">
<title>Node12&#45;&gt;Node3</title>
<path fill="none" stroke="#404040" d="M518.8405,-442.4888C515.9374,-417.3908 512.0224,-379.832 510.3395,-347 509.1444,-323.6832 508.5988,-298.5224 508.4135,-274.9506"/>
<polygon fill="none" stroke="#404040" points="508.4128,-274.7869 504.3804,-268.8086 508.348,-262.7871 512.3803,-268.7654 508.4128,-274.7869"/>
<text text-anchor="middle" x="527.3395" y="-311.5" font-family="Helvetica,sans-Serif" font-size="10.00" fill="#000000"> +@74</text>
</g>
<!-- Node13 -->
<g id="node12" class="node">
<title>Node13</title>
<polygon fill="none" stroke="#bfbfbf" points="836.8395,-442.5 836.8395,-499.5 897.8395,-499.5 897.8395,-442.5 836.8395,-442.5"/>
<text text-anchor="middle" x="867.3395" y="-487.5" font-family="Helvetica,sans-Serif" font-size="10.00" fill="#000000">unsigned</text>
<polyline fill="none" stroke="#bfbfbf" points="836.8395,-480.5 897.8395,-480.5 "/>
<text text-anchor="middle" x="867.3395" y="-468.5" font-family="Helvetica,sans-Serif" font-size="10.00" fill="#000000"> </text>
<polyline fill="none" stroke="#bfbfbf" points="836.8395,-461.5 897.8395,-461.5 "/>
<text text-anchor="middle" x="867.3395" y="-449.5" font-family="Helvetica,sans-Serif" font-size="10.00" fill="#000000"> </text>
</g>
<!-- Node13&#45;&gt;Node2 -->
<g id="edge24" class="edge">
<title>Node13&#45;&gt;Node2</title>
<path fill="none" stroke="#404040" d="M872.9819,-442.0626C877.6321,-417.0118 883.9883,-379.7561 887.3395,-347 897.5001,-247.6877 900.2923,-130.1854 901.0556,-69.6192"/>
<polygon fill="none" stroke="#404040" points="901.0559,-69.5855 897.1231,-63.5413 901.1897,-57.5862 905.1226,-63.6305 901.0559,-69.5855"/>
<text text-anchor="middle" x="921.3395" y="-176.5" font-family="Helvetica,sans-Serif" font-size="10.00" fill="#000000"> +secret</text>
</g>
<!-- Node13&#45;&gt;Node3 -->
<g id="edge21" class="edge">
<title>Node13&#45;&gt;Node3</title>
<path fill="none" stroke="#404040" d="M855.5371,-442.0308C843.8443,-417.2796 823.4561,-382.9164 794.3395,-365 743.912,-333.9703 708.1738,-384.4832 662.3395,-347 638.2932,-327.335 657.399,-306.2744 639.3395,-281 629.7438,-267.5707 617.8948,-255.0256 605.2901,-243.6457"/>
<polygon fill="none" stroke="#404040" points="605.0561,-243.4422 597.9036,-242.5245 595.9998,-235.5692 603.1523,-236.487 605.0561,-243.4422"/>
<text text-anchor="middle" x="707.8395" y="-339" font-family="Helvetica,sans-Serif" font-size="10.00" fill="#000000"> +headerVersion</text>
<text text-anchor="middle" x="707.8395" y="-328" font-family="Helvetica,sans-Serif" font-size="10.00" fill="#000000">+headerSize</text>
<text text-anchor="middle" x="707.8395" y="-317" font-family="Helvetica,sans-Serif" font-size="10.00" fill="#000000">+flagsNextHeader</text>
<text text-anchor="middle" x="707.8395" y="-306" font-family="Helvetica,sans-Serif" font-size="10.00" fill="#000000">+magicStringInt</text>
<text text-anchor="middle" x="707.8395" y="-295" font-family="Helvetica,sans-Serif" font-size="10.00" fill="#000000">+flagsUnused</text>
<text text-anchor="middle" x="707.8395" y="-284" font-family="Helvetica,sans-Serif" font-size="10.00" fill="#000000">+flags</text>
</g>
<!-- Node14 -->
<g id="node13" class="node">
<title>Node14</title>
<polygon fill="none" stroke="#bfbfbf" points="936.8395,-442.5 936.8395,-499.5 979.8395,-499.5 979.8395,-442.5 936.8395,-442.5"/>
<text text-anchor="middle" x="958.3395" y="-487.5" font-family="Helvetica,sans-Serif" font-size="10.00" fill="#000000">const</text>
<polyline fill="none" stroke="#bfbfbf" points="936.8395,-480.5 979.8395,-480.5 "/>
<text text-anchor="middle" x="958.3395" y="-468.5" font-family="Helvetica,sans-Serif" font-size="10.00" fill="#000000"> </text>
<polyline fill="none" stroke="#bfbfbf" points="936.8395,-461.5 979.8395,-461.5 "/>
<text text-anchor="middle" x="958.3395" y="-449.5" font-family="Helvetica,sans-Serif" font-size="10.00" fill="#000000"> </text>
</g>
<!-- Node14&#45;&gt;Node2 -->
<g id="edge25" class="edge">
<title>Node14&#45;&gt;Node2</title>
<path fill="none" stroke="#404040" d="M962.7458,-442.2418C971.4546,-378.0267 986.7272,-218.8779 946.3395,-95 943.2528,-85.5324 938.3574,-76.1835 932.9107,-67.6315"/>
<polygon fill="none" stroke="#404040" points="932.8523,-67.5459 926.1635,-64.8514 926.0781,-57.6408 932.7669,-60.3353 932.8523,-67.5459"/>
<text text-anchor="middle" x="1008.8395" y="-182" font-family="Helvetica,sans-Serif" font-size="10.00" fill="#000000"> +sHeaderType</text>
<text text-anchor="middle" x="1008.8395" y="-171" font-family="Helvetica,sans-Serif" font-size="10.00" fill="#000000">+sVersion</text>
</g>
<!-- Node14&#45;&gt;Node3 -->
<g id="edge22" class="edge">
<title>Node14&#45;&gt;Node3</title>
<path fill="none" stroke="#404040" d="M951.2888,-442.4504C944.0194,-418.6515 930.4237,-385.4465 907.3395,-365 888.7171,-348.5055 876.7062,-357.8901 854.3395,-347 806.1272,-323.526 800.719,-306.1125 753.3395,-281 706.6854,-256.272 652.7066,-233.1765 607.3994,-215.2373"/>
<polygon fill="none" stroke="#404040" points="607.2464,-215.1772 600.1993,-216.7065 596.0772,-210.7897 603.1243,-209.2604 607.2464,-215.1772"/>
<text text-anchor="middle" x="909.8395" y="-322.5" font-family="Helvetica,sans-Serif" font-size="10.00" fill="#000000"> +sHeaderType</text>
<text text-anchor="middle" x="909.8395" y="-311.5" font-family="Helvetica,sans-Serif" font-size="10.00" fill="#000000">+sSerializationMethod</text>
<text text-anchor="middle" x="909.8395" y="-300.5" font-family="Helvetica,sans-Serif" font-size="10.00" fill="#000000">+sVersion</text>
</g>
<!-- Node15 -->
<g id="node14" class="node">
<title>Node15</title>
<polygon fill="none" stroke="#bfbfbf" points="45.8395,-442.5 45.8395,-499.5 152.8395,-499.5 152.8395,-442.5 45.8395,-442.5"/>
<text text-anchor="middle" x="99.3395" y="-487.5" font-family="Helvetica,sans-Serif" font-size="10.00" fill="#000000">anonymous:+@76</text>
<polyline fill="none" stroke="#bfbfbf" points="45.8395,-480.5 152.8395,-480.5 "/>
<text text-anchor="middle" x="99.3395" y="-468.5" font-family="Helvetica,sans-Serif" font-size="10.00" fill="#000000"> </text>
<polyline fill="none" stroke="#bfbfbf" points="45.8395,-461.5 152.8395,-461.5 "/>
<text text-anchor="middle" x="99.3395" y="-449.5" font-family="Helvetica,sans-Serif" font-size="10.00" fill="#000000"> </text>
</g>
<!-- Node15&#45;&gt;Node3 -->
<g id="edge23" class="edge">
<title>Node15&#45;&gt;Node3</title>
<path fill="none" stroke="#404040" d="M112.9042,-442.1917C124.2625,-419.7798 141.876,-388.6249 162.3395,-365 228.4238,-288.7064 333.7286,-238.5412 411.0178,-209.7465"/>
<polygon fill="none" stroke="#404040" points="411.4193,-209.5998 415.6815,-203.7832 422.69,-205.4803 418.4278,-211.297 411.4193,-209.5998"/>
<text text-anchor="middle" x="277.3395" y="-311.5" font-family="Helvetica,sans-Serif" font-size="10.00" fill="#000000"> +@76</text>
</g>
</g>
</svg>
        <g id="navigator" transform="translate(0 0)" fill="#404254">
                <rect fill="#f2f5e9" fill-opacity="0.5" stroke="#606060" stroke-width=".5" x="0" y="0" width="60" height="60"/>
                <use id="zoomplus" xlink:href="#zoomPlus" x="17" y="9" onmousedown="handleZoom(evt,'in')"/>
                <use id="zoomminus" xlink:href="#zoomMin" x="42" y="9" onmousedown="handleZoom(evt,'out')"/>
                <use id="reset" xlink:href="#resetDef" x="30" y="36" onmousedown="handleReset()"/>
                <g id="arrowUp" xlink:href="#dirArrow" transform="translate(30 24)" onmousedown="handlePan(0,-1)">
                  <use xlink:href="#rim" fill="#404040">
                        <set attributeName="fill" to="#808080" begin="arrowUp.mouseover" end="arrowUp.mouseout"/>
                  </use>
                  <path fill="none" stroke="white" stroke-width="1.5" d="M0,-3.0v7 M-2.5,-0.5L0,-3.0L2.5,-0.5"/>
                </g>
                <g id="arrowRight" xlink:href="#dirArrow" transform="rotate(90) translate(36 -43)" onmousedown="handlePan(1,0)">
                  <use xlink:href="#rim" fill="#404040">
                        <set attributeName="fill" to="#808080" begin="arrowRight.mouseover" end="arrowRight.mouseout"/>
                  </use>
                  <path fill="none" stroke="white" stroke-width="1.5" d="M0,-3.0v7 M-2.5,-0.5L0,-3.0L2.5,-0.5"/>
                </g>
                <g id="arrowDown" xlink:href="#dirArrow" transform="rotate(180) translate(-30 -48)" onmousedown="handlePan(0,1)">
                  <use xlink:href="#rim" fill="#404040">
                        <set attributeName="fill" to="#808080" begin="arrowDown.mouseover" end="arrowDown.mouseout"/>
                  </use>
                  <path fill="none" stroke="white" stroke-width="1.5" d="M0,-3.0v7 M-2.5,-0.5L0,-3.0L2.5,-0.5"/>
                </g>
                <g id="arrowLeft" xlink:href="#dirArrow" transform="rotate(270) translate(-36 17)" onmousedown="handlePan(-1,0)">
                  <use xlink:href="#rim" fill="#404040">
                        <set attributeName="fill" to="#808080" begin="arrowLeft.mouseover" end="arrowLeft.mouseout"/>
                  </use>
                  <path fill="none" stroke="white" stroke-width="1.5" d="M0,-3.0v7 M-2.5,-0.5L0,-3.0L2.5,-0.5"/>
                </g>
        </g>
        <svg viewBox="0 0 15 15" width="100%" height="30px" preserveAspectRatio="xMaxYMin meet">
         <g id="arrow_out" transform="scale(0.3 0.3)">
          <a xlink:href="structtest_1_1MetaHeader__coll__graph_org.svg" target="_base">
           <rect id="button" ry="5" rx="5" y="6" x="6" height="38" width="38"
                fill="#f2f5e9" fill-opacity="0.5" stroke="#606060" stroke-width="1.0"/>
           <path id="arrow"
             d="M 11.500037,31.436501 C 11.940474,20.09759 22.043105,11.32322 32.158766,21.979434 L 37.068811,17.246167 C 37.068811,17.246167 37.088388,32 37.088388,32 L 22.160133,31.978069 C 22.160133,31.978069 26.997745,27.140456 26.997745,27.140456 C 18.528582,18.264221 13.291696,25.230495 11.500037,31.436501 z"
             style="fill:#404040;"/>
          </a>
         </g>
        </svg>
</svg>
