<?xml version="1.0" encoding="UTF-8" standalone="no"?>
<!DOCTYPE svg PUBLIC "-//W3C//DTD SVG 1.1//EN"
 "http://www.w3.org/Graphics/SVG/1.1/DTD/svg11.dtd">
<!-- Generated by graphviz version 2.40.1 (20161225.0304)
 -->
<!-- Title: o2::tof::compressed::Union_t Pages: 1 -->
<!--zoomable 342 -->
<svg id="main" version="1.1" xmlns="http://www.w3.org/2000/svg" xmlns:xlink="http://www.w3.org/1999/xlink" xml:space="preserve" onload="init(evt)">
<style type="text/css"><![CDATA[
.edge:hover path { stroke: red; }
.edge:hover polygon { stroke: red; fill: red; }
]]></style>
<script type="text/javascript"><![CDATA[
var edges = document.getElementsByTagName('g');
if (edges && edges.length) {
  for (var i=0;i<edges.length;i++) {
    if (edges[i].id.substr(0,4)=='edge') {
      edges[i].setAttribute('class','edge');
    }
  }
}
]]></script>
        <defs>
                <circle id="rim" cx="0" cy="0" r="7"/>
                <circle id="rim2" cx="0" cy="0" r="3.5"/>
                <g id="zoomPlus">
                        <use xlink:href="#rim" fill="#404040">
                                <set attributeName="fill" to="#808080" begin="zoomplus.mouseover" end="zoomplus.mouseout"/>
                        </use>
                        <path d="M-4,0h8M0,-4v8" fill="none" stroke="white" stroke-width="1.5" pointer-events="none"/>
                </g>
                <g id="zoomMin">
                        <use xlink:href="#rim" fill="#404040">
                                <set attributeName="fill" to="#808080" begin="zoomminus.mouseover" end="zoomminus.mouseout"/>
                        </use>
                        <path d="M-4,0h8" fill="none" stroke="white" stroke-width="1.5" pointer-events="none"/>
                </g>
                <g id="dirArrow">
                        <path fill="none" stroke="white" stroke-width="1.5" d="M0,-3.0v7 M-2.5,-0.5L0,-3.0L2.5,-0.5"/>
                </g>
               <g id="resetDef">
                       <use xlink:href="#rim2" fill="#404040">
                               <set attributeName="fill" to="#808080" begin="reset.mouseover" end="reset.mouseout"/>
                       </use>
               </g>
        </defs>

<script type="text/javascript">
var viewWidth = 869;
var viewHeight = 342;
var sectionId = 'dynsection-0';
</script>
<script xlink:href="../../svgpan.js"/>
<svg id="graph" class="graph">
<g id="viewport">
<title>o2::tof::compressed::Union_t</title>
<!-- Node1 -->
<g id="node1" class="node">
<title>Node1</title>
<polygon fill="#bfbfbf" stroke="#000000" points="323.2206,-.5 323.2206,-68.5 436.2206,-68.5 436.2206,-.5 323.2206,-.5"/>
<text text-anchor="start" x="331.2206" y="-56.5" font-family="Helvetica,sans-Serif" font-size="10.00" fill="#000000">o2::tof::compressed</text>
<text text-anchor="middle" x="379.7206" y="-45.5" font-family="Helvetica,sans-Serif" font-size="10.00" fill="#000000">::Union_t</text>
<polyline fill="none" stroke="#000000" points="323.2206,-38.5 436.2206,-38.5 "/>
<text text-anchor="middle" x="379.7206" y="-26.5" font-family="Helvetica,sans-Serif" font-size="10.00" fill="#000000"> </text>
<polyline fill="none" stroke="#000000" points="323.2206,-19.5 436.2206,-19.5 "/>
<text text-anchor="middle" x="379.7206" y="-7.5" font-family="Helvetica,sans-Serif" font-size="10.00" fill="#000000"> </text>
</g>
<!-- Node2 -->
<g id="node2" class="node">
<title>Node2</title>
<g id="a_node2"><a xlink:href="../../df/d87/structo2_1_1tof_1_1compressed_1_1PackedHit__t.html" target="_top" xlink:title="{o2::tof::compressed\l::PackedHit_t\n||}">
<polygon fill="none" stroke="#000000" points="61.2206,-116.5 61.2206,-184.5 174.2206,-184.5 174.2206,-116.5 61.2206,-116.5"/>
<text text-anchor="start" x="69.2206" y="-172.5" font-family="Helvetica,sans-Serif" font-size="10.00" fill="#000000">o2::tof::compressed</text>
<text text-anchor="middle" x="117.7206" y="-161.5" font-family="Helvetica,sans-Serif" font-size="10.00" fill="#000000">::PackedHit_t</text>
<polyline fill="none" stroke="#000000" points="61.2206,-154.5 174.2206,-154.5 "/>
<text text-anchor="middle" x="117.7206" y="-142.5" font-family="Helvetica,sans-Serif" font-size="10.00" fill="#000000"> </text>
<polyline fill="none" stroke="#000000" points="61.2206,-135.5 174.2206,-135.5 "/>
<text text-anchor="middle" x="117.7206" y="-123.5" font-family="Helvetica,sans-Serif" font-size="10.00" fill="#000000"> </text>
</a>
</g>
</g>
<!-- Node2&#45;&gt;Node1 -->
<g id="edge1" class="edge">
<title>Node2&#45;&gt;Node1</title>
<path fill="none" stroke="#404040" d="M174.3495,-117.2044C192.9524,-106.8905 213.9369,-95.9067 233.7206,-87 258.635,-75.7834 286.7276,-65.2131 311.5683,-56.5379"/>
<polygon fill="none" stroke="#404040" points="311.755,-56.4736 316.1243,-50.7369 323.1002,-52.5637 318.7309,-58.3004 311.755,-56.4736"/>
<text text-anchor="middle" x="264.2206" y="-90" font-family="Helvetica,sans-Serif" font-size="10.00" fill="#000000"> +packedHit</text>
</g>
<!-- Node3 -->
<g id="node3" class="node">
<title>Node3</title>
<polygon fill="none" stroke="#bfbfbf" points="356.2206,-276.5 356.2206,-333.5 417.2206,-333.5 417.2206,-276.5 356.2206,-276.5"/>
<text text-anchor="middle" x="386.7206" y="-321.5" font-family="Helvetica,sans-Serif" font-size="10.00" fill="#000000">unsigned</text>
<polyline fill="none" stroke="#bfbfbf" points="356.2206,-314.5 417.2206,-314.5 "/>
<text text-anchor="middle" x="386.7206" y="-302.5" font-family="Helvetica,sans-Serif" font-size="10.00" fill="#000000"> </text>
<polyline fill="none" stroke="#bfbfbf" points="356.2206,-295.5 417.2206,-295.5 "/>
<text text-anchor="middle" x="386.7206" y="-283.5" font-family="Helvetica,sans-Serif" font-size="10.00" fill="#000000"> </text>
</g>
<!-- Node3&#45;&gt;Node1 -->
<g id="edge11" class="edge">
<title>Node3&#45;&gt;Node1</title>
<path fill="none" stroke="#404040" d="M356.1245,-301.581C251.5965,-288.7279 -79.6176,-237.6891 17.7206,-116 53.7648,-70.9386 216.6379,-49.0331 311.1802,-39.9419"/>
<polygon fill="none" stroke="#404040" points="311.254,-39.9351 316.8562,-35.3945 323.2021,-38.8194 317.6,-43.3599 311.254,-39.9351"/>
<text text-anchor="middle" x="34.7206" y="-148" font-family="Helvetica,sans-Serif" font-size="10.00" fill="#000000"> +data</text>
</g>
<!-- Node3&#45;&gt;Node2 -->
<g id="edge2" class="edge">
<title>Node3&#45;&gt;Node2</title>
<path fill="none" stroke="#404040" d="M355.9072,-300.1352C308.6189,-292.2294 220.8732,-275.6873 194.7206,-258 171.5148,-242.3057 152.9361,-217.1468 139.8462,-195.1128"/>
<polygon fill="none" stroke="#404040" points="139.8002,-195.0318 133.3561,-191.7954 133.865,-184.6023 140.3091,-187.8386 139.8002,-195.0318"/>
<text text-anchor="middle" x="218.2206" y="-250" font-family="Helvetica,sans-Serif" font-size="10.00" fill="#000000"> +chain</text>
<text text-anchor="middle" x="218.2206" y="-239" font-family="Helvetica,sans-Serif" font-size="10.00" fill="#000000">+channel</text>
<text text-anchor="middle" x="218.2206" y="-228" font-family="Helvetica,sans-Serif" font-size="10.00" fill="#000000">+time</text>
<text text-anchor="middle" x="218.2206" y="-217" font-family="Helvetica,sans-Serif" font-size="10.00" fill="#000000">+tot</text>
<text text-anchor="middle" x="218.2206" y="-206" font-family="Helvetica,sans-Serif" font-size="10.00" fill="#000000">+tdcID</text>
</g>
<!-- Node4 -->
<g id="node4" class="node">
<title>Node4</title>
<g id="a_node4"><a xlink:href="../../dc/d31/structo2_1_1tof_1_1compressed_1_1CrateTrailer__t.html" target="_top" xlink:title="{o2::tof::compressed\l::CrateTrailer_t\n||}">
<polygon fill="none" stroke="#000000" points="192.2206,-116.5 192.2206,-184.5 305.2206,-184.5 305.2206,-116.5 192.2206,-116.5"/>
<text text-anchor="start" x="200.2206" y="-172.5" font-family="Helvetica,sans-Serif" font-size="10.00" fill="#000000">o2::tof::compressed</text>
<text text-anchor="middle" x="248.7206" y="-161.5" font-family="Helvetica,sans-Serif" font-size="10.00" fill="#000000">::CrateTrailer_t</text>
<polyline fill="none" stroke="#000000" points="192.2206,-154.5 305.2206,-154.5 "/>
<text text-anchor="middle" x="248.7206" y="-142.5" font-family="Helvetica,sans-Serif" font-size="10.00" fill="#000000"> </text>
<polyline fill="none" stroke="#000000" points="192.2206,-135.5 305.2206,-135.5 "/>
<text text-anchor="middle" x="248.7206" y="-123.5" font-family="Helvetica,sans-Serif" font-size="10.00" fill="#000000"> </text>
</a>
</g>
</g>
<!-- Node3&#45;&gt;Node4 -->
<g id="edge4" class="edge">
<title>Node3&#45;&gt;Node4</title>
<path fill="none" stroke="#404040" d="M356.0628,-301.9921C327.5313,-297.4689 286.1415,-286.1714 263.7206,-258 250.2468,-241.0705 245.8419,-217.7019 245.0814,-197.0759"/>
<polygon fill="none" stroke="#404040" points="245.0811,-196.9948 241.0514,-191.0146 245.0217,-184.9949 249.0513,-190.975 245.0811,-196.9948"/>
<text text-anchor="middle" x="321.2206" y="-250" font-family="Helvetica,sans-Serif" font-size="10.00" fill="#000000"> +mustBeOne</text>
<text text-anchor="middle" x="321.2206" y="-239" font-family="Helvetica,sans-Serif" font-size="10.00" fill="#000000">+numberOfDiagnostics</text>
<text text-anchor="middle" x="321.2206" y="-228" font-family="Helvetica,sans-Serif" font-size="10.00" fill="#000000">+eventCounter</text>
<text text-anchor="middle" x="321.2206" y="-217" font-family="Helvetica,sans-Serif" font-size="10.00" fill="#000000">+undefined</text>
<text text-anchor="middle" x="321.2206" y="-206" font-family="Helvetica,sans-Serif" font-size="10.00" fill="#000000">+numberOfErrors</text>
</g>
<!-- Node5 -->
<g id="node5" class="node">
<title>Node5</title>
<g id="a_node5"><a xlink:href="../../d0/df7/structo2_1_1tof_1_1compressed_1_1CrateOrbit__t.html" target="_top" xlink:title="{o2::tof::compressed\l::CrateOrbit_t\n||}">
<polygon fill="none" stroke="#000000" points="323.2206,-116.5 323.2206,-184.5 436.2206,-184.5 436.2206,-116.5 323.2206,-116.5"/>
<text text-anchor="start" x="331.2206" y="-172.5" font-family="Helvetica,sans-Serif" font-size="10.00" fill="#000000">o2::tof::compressed</text>
<text text-anchor="middle" x="379.7206" y="-161.5" font-family="Helvetica,sans-Serif" font-size="10.00" fill="#000000">::CrateOrbit_t</text>
<polyline fill="none" stroke="#000000" points="323.2206,-154.5 436.2206,-154.5 "/>
<text text-anchor="middle" x="379.7206" y="-142.5" font-family="Helvetica,sans-Serif" font-size="10.00" fill="#000000"> </text>
<polyline fill="none" stroke="#000000" points="323.2206,-135.5 436.2206,-135.5 "/>
<text text-anchor="middle" x="379.7206" y="-123.5" font-family="Helvetica,sans-Serif" font-size="10.00" fill="#000000"> </text>
</a>
</g>
</g>
<!-- Node3&#45;&gt;Node5 -->
<g id="edge6" class="edge">
<title>Node3&#45;&gt;Node5</title>
<path fill="none" stroke="#404040" d="M385.4203,-276.3018C384.4112,-254.0285 382.9917,-222.6993 381.8218,-196.878"/>
<polygon fill="none" stroke="#404040" points="381.8137,-196.6961 377.5462,-190.8834 381.2705,-184.7084 385.538,-190.5212 381.8137,-196.6961"/>
<text text-anchor="middle" x="407.2206" y="-228" font-family="Helvetica,sans-Serif" font-size="10.00" fill="#000000"> +orbitID</text>
</g>
<!-- Node6 -->
<g id="node6" class="node">
<title>Node6</title>
<g id="a_node6"><a xlink:href="../../d5/d0d/structo2_1_1tof_1_1compressed_1_1Word__t.html" target="_top" xlink:title="{o2::tof::compressed\l::Word_t\n||}">
<polygon fill="none" stroke="#000000" points="454.2206,-116.5 454.2206,-184.5 567.2206,-184.5 567.2206,-116.5 454.2206,-116.5"/>
<text text-anchor="start" x="462.2206" y="-172.5" font-family="Helvetica,sans-Serif" font-size="10.00" fill="#000000">o2::tof::compressed</text>
<text text-anchor="middle" x="510.7206" y="-161.5" font-family="Helvetica,sans-Serif" font-size="10.00" fill="#000000">::Word_t</text>
<polyline fill="none" stroke="#000000" points="454.2206,-154.5 567.2206,-154.5 "/>
<text text-anchor="middle" x="510.7206" y="-142.5" font-family="Helvetica,sans-Serif" font-size="10.00" fill="#000000"> </text>
<polyline fill="none" stroke="#000000" points="454.2206,-135.5 567.2206,-135.5 "/>
<text text-anchor="middle" x="510.7206" y="-123.5" font-family="Helvetica,sans-Serif" font-size="10.00" fill="#000000"> </text>
</a>
</g>
</g>
<!-- Node3&#45;&gt;Node6 -->
<g id="edge8" class="edge">
<title>Node3&#45;&gt;Node6</title>
<path fill="none" stroke="#404040" d="M416.8248,-276.376C422.6135,-270.4654 428.4953,-264.16 433.7206,-258 450.5397,-238.1722 467.548,-214.8476 481.2861,-195.0012"/>
<polygon fill="none" stroke="#404040" points="481.3715,-194.8764 481.4628,-187.6659 488.1538,-184.9768 488.0625,-192.1874 481.3715,-194.8764"/>
<text text-anchor="middle" x="504.7206" y="-233.5" font-family="Helvetica,sans-Serif" font-size="10.00" fill="#000000"> +wordType</text>
<text text-anchor="middle" x="504.7206" y="-222.5" font-family="Helvetica,sans-Serif" font-size="10.00" fill="#000000">+undefined</text>
</g>
<!-- Node7 -->
<g id="node7" class="node">
<title>Node7</title>
<g id="a_node7"><a xlink:href="../../df/d7e/structo2_1_1tof_1_1compressed_1_1FrameHeader__t.html" target="_top" xlink:title="{o2::tof::compressed\l::FrameHeader_t\n||}">
<polygon fill="none" stroke="#000000" points="585.2206,-116.5 585.2206,-184.5 698.2206,-184.5 698.2206,-116.5 585.2206,-116.5"/>
<text text-anchor="start" x="593.2206" y="-172.5" font-family="Helvetica,sans-Serif" font-size="10.00" fill="#000000">o2::tof::compressed</text>
<text text-anchor="middle" x="641.7206" y="-161.5" font-family="Helvetica,sans-Serif" font-size="10.00" fill="#000000">::FrameHeader_t</text>
<polyline fill="none" stroke="#000000" points="585.2206,-154.5 698.2206,-154.5 "/>
<text text-anchor="middle" x="641.7206" y="-142.5" font-family="Helvetica,sans-Serif" font-size="10.00" fill="#000000"> </text>
<polyline fill="none" stroke="#000000" points="585.2206,-135.5 698.2206,-135.5 "/>
<text text-anchor="middle" x="641.7206" y="-123.5" font-family="Helvetica,sans-Serif" font-size="10.00" fill="#000000"> </text>
</a>
</g>
</g>
<!-- Node3&#45;&gt;Node7 -->
<g id="edge10" class="edge">
<title>Node3&#45;&gt;Node7</title>
<path fill="none" stroke="#404040" d="M417.4206,-301.8413C450.1719,-297.117 502.1335,-285.587 537.7206,-258 560.4334,-240.3931 552.3325,-224.2127 571.7206,-203 574.9152,-199.5047 578.3698,-196.0822 581.9735,-192.7666"/>
<polygon fill="none" stroke="#404040" points="582.1206,-192.6387 584.0235,-185.6832 591.1759,-184.7645 589.273,-191.72 582.1206,-192.6387"/>
<text text-anchor="middle" x="611.7206" y="-250" font-family="Helvetica,sans-Serif" font-size="10.00" fill="#000000"> +numberOfHits</text>
<text text-anchor="middle" x="611.7206" y="-239" font-family="Helvetica,sans-Serif" font-size="10.00" fill="#000000">+deltaBC</text>
<text text-anchor="middle" x="611.7206" y="-228" font-family="Helvetica,sans-Serif" font-size="10.00" fill="#000000">+trmID</text>
<text text-anchor="middle" x="611.7206" y="-217" font-family="Helvetica,sans-Serif" font-size="10.00" fill="#000000">+frameID</text>
<text text-anchor="middle" x="611.7206" y="-206" font-family="Helvetica,sans-Serif" font-size="10.00" fill="#000000">+mustBeZero</text>
</g>
<!-- Node8 -->
<g id="node8" class="node">
<title>Node8</title>
<g id="a_node8"><a xlink:href="../../d5/da4/structo2_1_1tof_1_1compressed_1_1CrateHeader__t.html" target="_top" xlink:title="{o2::tof::compressed\l::CrateHeader_t\n||}">
<polygon fill="none" stroke="#000000" points="716.2206,-116.5 716.2206,-184.5 829.2206,-184.5 829.2206,-116.5 716.2206,-116.5"/>
<text text-anchor="start" x="724.2206" y="-172.5" font-family="Helvetica,sans-Serif" font-size="10.00" fill="#000000">o2::tof::compressed</text>
<text text-anchor="middle" x="772.7206" y="-161.5" font-family="Helvetica,sans-Serif" font-size="10.00" fill="#000000">::CrateHeader_t</text>
<polyline fill="none" stroke="#000000" points="716.2206,-154.5 829.2206,-154.5 "/>
<text text-anchor="middle" x="772.7206" y="-142.5" font-family="Helvetica,sans-Serif" font-size="10.00" fill="#000000"> </text>
<polyline fill="none" stroke="#000000" points="716.2206,-135.5 829.2206,-135.5 "/>
<text text-anchor="middle" x="772.7206" y="-123.5" font-family="Helvetica,sans-Serif" font-size="10.00" fill="#000000"> </text>
</a>
</g>
</g>
<!-- Node3&#45;&gt;Node8 -->
<g id="edge14" class="edge">
<title>Node3&#45;&gt;Node8</title>
<path fill="none" stroke="#404040" d="M417.5041,-302.2007C478.4924,-296.2285 612.1959,-280.8884 651.7206,-258 679.2974,-242.0305 674.2416,-224.5463 697.7206,-203 701.7149,-199.3345 705.9763,-195.7137 710.3626,-192.1909"/>
<polygon fill="none" stroke="#404040" points="710.6158,-191.9952 712.9163,-185.1608 720.1097,-184.6557 717.8092,-191.4901 710.6158,-191.9952"/>
<text text-anchor="middle" x="733.2206" y="-250" font-family="Helvetica,sans-Serif" font-size="10.00" fill="#000000"> +mustBeOne</text>
<text text-anchor="middle" x="733.2206" y="-239" font-family="Helvetica,sans-Serif" font-size="10.00" fill="#000000">+drmID</text>
<text text-anchor="middle" x="733.2206" y="-228" font-family="Helvetica,sans-Serif" font-size="10.00" fill="#000000">+undefined</text>
<text text-anchor="middle" x="733.2206" y="-217" font-family="Helvetica,sans-Serif" font-size="10.00" fill="#000000">+slotPartMask</text>
<text text-anchor="middle" x="733.2206" y="-206" font-family="Helvetica,sans-Serif" font-size="10.00" fill="#000000">+bunchID</text>
</g>
<!-- Node4&#45;&gt;Node1 -->
<g id="edge3" class="edge">
<title>Node4&#45;&gt;Node1</title>
<path fill="none" stroke="#404040" d="M278.8017,-116.4479C288.0567,-106.5907 298.5052,-96.0543 308.7206,-87 312.7664,-83.414 317.0449,-79.8197 321.4152,-76.2875"/>
<polygon fill="none" stroke="#404040" points="321.6467,-76.1052 323.8859,-69.2506 331.0745,-68.6812 328.8353,-75.5358 321.6467,-76.1052"/>
<text text-anchor="middle" x="342.2206" y="-90" font-family="Helvetica,sans-Serif" font-size="10.00" fill="#000000"> +crateTrailer</text>
</g>
<!-- Node5&#45;&gt;Node1 -->
<g id="edge5" class="edge">
<title>Node5&#45;&gt;Node1</title>
<path fill="none" stroke="#404040" d="M379.7206,-116.3236C379.7206,-105.213 379.7206,-92.6908 379.7206,-80.8451"/>
<polygon fill="none" stroke="#404040" points="379.7207,-80.833 375.7206,-74.833 379.7206,-68.833 383.7206,-74.833 379.7207,-80.833"/>
<text text-anchor="middle" x="410.2206" y="-90" font-family="Helvetica,sans-Serif" font-size="10.00" fill="#000000"> +crateOrbit</text>
</g>
<!-- Node6&#45;&gt;Node1 -->
<g id="edge7" class="edge">
<title>Node6&#45;&gt;Node1</title>
<path fill="none" stroke="#404040" d="M476.3138,-116.3096C466.293,-106.6511 455.2148,-96.2554 444.7206,-87 440.7581,-83.5053 436.6075,-79.9424 432.4024,-76.4013"/>
<polygon fill="none" stroke="#404040" points="432.3895,-76.3905 425.2185,-75.6308 423.1617,-68.7192 430.3327,-69.4789 432.3895,-76.3905"/>
<text text-anchor="middle" x="474.7206" y="-90" font-family="Helvetica,sans-Serif" font-size="10.00" fill="#000000"> +word</text>
</g>
<!-- Node7&#45;&gt;Node1 -->
<g id="edge9" class="edge">
<title>Node7&#45;&gt;Node1</title>
<path fill="none" stroke="#404040" d="M584.9971,-120.4469C581.8719,-118.9171 578.7651,-117.4254 575.7206,-116 533.8289,-96.3874 485.8995,-76.415 447.9232,-61.1502"/>
<polygon fill="none" stroke="#404040" points="447.616,-61.0274 440.5594,-62.5123 436.4747,-56.5697 443.5312,-55.0848 447.616,-61.0274"/>
<text text-anchor="middle" x="571.7206" y="-90" font-family="Helvetica,sans-Serif" font-size="10.00" fill="#000000"> +frameHeader</text>
</g>
<!-- Node8&#45;&gt;Node1 -->
<g id="edge12" class="edge">
<title>Node8&#45;&gt;Node1</title>
<path fill="none" stroke="#404040" d="M716.1477,-120.105C712.9837,-118.6634 709.8272,-117.2842 706.7206,-116 620.9506,-80.5463 515.9215,-57.7376 448.432,-45.5156"/>
<polygon fill="none" stroke="#404040" points="448.0951,-45.4558 441.4877,-48.3442 436.2802,-43.3561 442.8876,-40.4677 448.0951,-45.4558"/>
<text text-anchor="middle" x="691.7206" y="-90" font-family="Helvetica,sans-Serif" font-size="10.00" fill="#000000"> +crateHeader</text>
</g>
<!-- Node9 -->
<g id="node9" class="node">
<title>Node9</title>
<g id="a_node9"><a xlink:href="../../d2/d5f/classunsigned_01int.html" target="_top" xlink:title="{unsigned int\n||}">
<polygon fill="none" stroke="#000000" points="734.2206,-276.5 734.2206,-333.5 811.2206,-333.5 811.2206,-276.5 734.2206,-276.5"/>
<text text-anchor="middle" x="772.7206" y="-321.5" font-family="Helvetica,sans-Serif" font-size="10.00" fill="#000000">unsigned int</text>
<polyline fill="none" stroke="#000000" points="734.2206,-314.5 811.2206,-314.5 "/>
<text text-anchor="middle" x="772.7206" y="-302.5" font-family="Helvetica,sans-Serif" font-size="10.00" fill="#000000"> </text>
<polyline fill="none" stroke="#000000" points="734.2206,-295.5 811.2206,-295.5 "/>
<text text-anchor="middle" x="772.7206" y="-283.5" font-family="Helvetica,sans-Serif" font-size="10.00" fill="#000000"> </text>
</a>
</g>
</g>
<!-- Node9&#45;&gt;Node8 -->
<g id="edge13" class="edge">
<title>Node9&#45;&gt;Node8</title>
<path fill="none" stroke="#404040" d="M772.7206,-276.3018C772.7206,-254.0285 772.7206,-222.6993 772.7206,-196.878"/>
<polygon fill="none" stroke="#404040" points="772.7207,-196.7084 768.7206,-190.7085 772.7206,-184.7084 776.7206,-190.7084 772.7207,-196.7084"/>
<text text-anchor="middle" x="816.7206" y="-228" font-family="Helvetica,sans-Serif" font-size="10.00" fill="#000000"> +slotEnableMask</text>
</g>
</g>
</svg>
        <g id="navigator" transform="translate(0 0)" fill="#404254">
                <rect fill="#f2f5e9" fill-opacity="0.5" stroke="#606060" stroke-width=".5" x="0" y="0" width="60" height="60"/>
                <use id="zoomplus" xlink:href="#zoomPlus" x="17" y="9" onmousedown="handleZoom(evt,'in')"/>
                <use id="zoomminus" xlink:href="#zoomMin" x="42" y="9" onmousedown="handleZoom(evt,'out')"/>
                <use id="reset" xlink:href="#resetDef" x="30" y="36" onmousedown="handleReset()"/>
                <g id="arrowUp" xlink:href="#dirArrow" transform="translate(30 24)" onmousedown="handlePan(0,-1)">
                  <use xlink:href="#rim" fill="#404040">
                        <set attributeName="fill" to="#808080" begin="arrowUp.mouseover" end="arrowUp.mouseout"/>
                  </use>
                  <path fill="none" stroke="white" stroke-width="1.5" d="M0,-3.0v7 M-2.5,-0.5L0,-3.0L2.5,-0.5"/>
                </g>
                <g id="arrowRight" xlink:href="#dirArrow" transform="rotate(90) translate(36 -43)" onmousedown="handlePan(1,0)">
                  <use xlink:href="#rim" fill="#404040">
                        <set attributeName="fill" to="#808080" begin="arrowRight.mouseover" end="arrowRight.mouseout"/>
                  </use>
                  <path fill="none" stroke="white" stroke-width="1.5" d="M0,-3.0v7 M-2.5,-0.5L0,-3.0L2.5,-0.5"/>
                </g>
                <g id="arrowDown" xlink:href="#dirArrow" transform="rotate(180) translate(-30 -48)" onmousedown="handlePan(0,1)">
                  <use xlink:href="#rim" fill="#404040">
                        <set attributeName="fill" to="#808080" begin="arrowDown.mouseover" end="arrowDown.mouseout"/>
                  </use>
                  <path fill="none" stroke="white" stroke-width="1.5" d="M0,-3.0v7 M-2.5,-0.5L0,-3.0L2.5,-0.5"/>
                </g>
                <g id="arrowLeft" xlink:href="#dirArrow" transform="rotate(270) translate(-36 17)" onmousedown="handlePan(-1,0)">
                  <use xlink:href="#rim" fill="#404040">
                        <set attributeName="fill" to="#808080" begin="arrowLeft.mouseover" end="arrowLeft.mouseout"/>
                  </use>
                  <path fill="none" stroke="white" stroke-width="1.5" d="M0,-3.0v7 M-2.5,-0.5L0,-3.0L2.5,-0.5"/>
                </g>
        </g>
        <svg viewBox="0 0 15 15" width="100%" height="30px" preserveAspectRatio="xMaxYMin meet">
         <g id="arrow_out" transform="scale(0.3 0.3)">
          <a xlink:href="uniono2_1_1tof_1_1compressed_1_1Union__t__coll__graph_org.svg" target="_base">
           <rect id="button" ry="5" rx="5" y="6" x="6" height="38" width="38"
                fill="#f2f5e9" fill-opacity="0.5" stroke="#606060" stroke-width="1.0"/>
           <path id="arrow"
             d="M 11.500037,31.436501 C 11.940474,20.09759 22.043105,11.32322 32.158766,21.979434 L 37.068811,17.246167 C 37.068811,17.246167 37.088388,32 37.088388,32 L 22.160133,31.978069 C 22.160133,31.978069 26.997745,27.140456 26.997745,27.140456 C 18.528582,18.264221 13.291696,25.230495 11.500037,31.436501 z"
             style="fill:#404040;"/>
          </a>
         </g>
        </svg>
</svg>
