<?xml version="1.0" encoding="UTF-8" standalone="no"?>
<!DOCTYPE svg PUBLIC "-//W3C//DTD SVG 1.1//EN"
 "http://www.w3.org/Graphics/SVG/1.1/DTD/svg11.dtd">
<!-- Generated by graphviz version 2.40.1 (20161225.0304)
 -->
<!-- Title: /home/travis/build/AliceO2Group/AliceO2/Analysis/DataModel/include/Analysis/RecoDecay.h Pages: 1 -->
<svg width="668pt" height="239pt"
 viewBox="0.00 0.00 668.00 239.00" xmlns="http://www.w3.org/2000/svg" xmlns:xlink="http://www.w3.org/1999/xlink">
<g id="graph0" class="graph" transform="scale(1 1) rotate(0) translate(4 235)">
<title>/home/travis/build/AliceO2Group/AliceO2/Analysis/DataModel/include/Analysis/RecoDecay.h</title>
<!-- Node8 -->
<g id="node1" class="node">
<title>Node8</title>
<polygon fill="#bfbfbf" stroke="#000000" points="312.5,-178.5 312.5,-230.5 467.5,-230.5 467.5,-178.5 312.5,-178.5"/>
<text text-anchor="start" x="320.5" y="-218.5" font-family="Helvetica,sans-Serif" font-size="10.00" fill="#000000">/home/travis/build</text>
<text text-anchor="start" x="320.5" y="-207.5" font-family="Helvetica,sans-Serif" font-size="10.00" fill="#000000">/AliceO2Group/AliceO2</text>
<text text-anchor="start" x="320.5" y="-196.5" font-family="Helvetica,sans-Serif" font-size="10.00" fill="#000000">/Analysis/DataModel/include</text>
<text text-anchor="middle" x="390" y="-185.5" font-family="Helvetica,sans-Serif" font-size="10.00" fill="#000000">/Analysis/RecoDecay.h</text>
</g>
<!-- Node9 -->
<g id="node2" class="node">
<title>Node9</title>
<g id="a_node2"><a xlink:href="../../dc/d0f/SecondaryVertexHF_8h.html" target="_top" xlink:title="Definitions of tables of heavy&#45;flavour decay candidates. ">
<polygon fill="none" stroke="#000000" points="217.5,-89.5 217.5,-141.5 384.5,-141.5 384.5,-89.5 217.5,-89.5"/>
<text text-anchor="start" x="225.5" y="-129.5" font-family="Helvetica,sans-Serif" font-size="10.00" fill="#000000">/home/travis/build</text>
<text text-anchor="start" x="225.5" y="-118.5" font-family="Helvetica,sans-Serif" font-size="10.00" fill="#000000">/AliceO2Group/AliceO2</text>
<text text-anchor="start" x="225.5" y="-107.5" font-family="Helvetica,sans-Serif" font-size="10.00" fill="#000000">/Analysis/DataModel/include</text>
<text text-anchor="middle" x="301" y="-96.5" font-family="Helvetica,sans-Serif" font-size="10.00" fill="#000000">/Analysis/SecondaryVertexHF.h</text>
</a>
</g>
</g>
<!-- Node8&#45;&gt;Node9 -->
<g id="edge1" class="edge">
<title>Node8&#45;&gt;Node9</title>
<path fill="none" stroke="#191970" d="M356.5029,-171.0029C346.7529,-161.2529 336.2511,-150.7511 327.0341,-141.5341"/>
<polygon fill="#191970" stroke="#191970" points="354.2325,-173.6822 363.7784,-178.2784 359.1822,-168.7325 354.2325,-173.6822"/>
</g>
<!-- Node14 -->
<g id="node7" class="node">
<title>Node14</title>
<g id="a_node7"><a xlink:href="../../d1/db5/trackUtilities_8h.html" target="_top" xlink:title="Utilities for manipulating parameters of tracks and vertices. ">
<polygon fill="none" stroke="#000000" points="402.5,-89.5 402.5,-141.5 557.5,-141.5 557.5,-89.5 402.5,-89.5"/>
<text text-anchor="start" x="410.5" y="-129.5" font-family="Helvetica,sans-Serif" font-size="10.00" fill="#000000">/home/travis/build</text>
<text text-anchor="start" x="410.5" y="-118.5" font-family="Helvetica,sans-Serif" font-size="10.00" fill="#000000">/AliceO2Group/AliceO2</text>
<text text-anchor="start" x="410.5" y="-107.5" font-family="Helvetica,sans-Serif" font-size="10.00" fill="#000000">/Analysis/DataModel/include</text>
<text text-anchor="middle" x="480" y="-96.5" font-family="Helvetica,sans-Serif" font-size="10.00" fill="#000000">/Analysis/trackUtilities.h</text>
</a>
</g>
</g>
<!-- Node8&#45;&gt;Node14 -->
<g id="edge6" class="edge">
<title>Node8&#45;&gt;Node14</title>
<path fill="none" stroke="#191970" d="M423.8735,-171.0029C433.733,-161.2529 444.3528,-150.7511 453.6733,-141.5341"/>
<polygon fill="#191970" stroke="#191970" points="421.1657,-168.7583 416.5162,-178.2784 426.0877,-173.7356 421.1657,-168.7583"/>
</g>
<!-- Node10 -->
<g id="node3" class="node">
<title>Node10</title>
<g id="a_node3"><a xlink:href="../../df/ded/dumpDataModel_8cxx.html" target="_top" xlink:title="/home/travis/build\l/AliceO2Group/AliceO2\l/Analysis/DataModel/src\l/dumpDataModel.cxx">
<polygon fill="none" stroke="#000000" points="0,-.5 0,-52.5 134,-52.5 134,-.5 0,-.5"/>
<text text-anchor="start" x="8" y="-40.5" font-family="Helvetica,sans-Serif" font-size="10.00" fill="#000000">/home/travis/build</text>
<text text-anchor="start" x="8" y="-29.5" font-family="Helvetica,sans-Serif" font-size="10.00" fill="#000000">/AliceO2Group/AliceO2</text>
<text text-anchor="start" x="8" y="-18.5" font-family="Helvetica,sans-Serif" font-size="10.00" fill="#000000">/Analysis/DataModel/src</text>
<text text-anchor="middle" x="67" y="-7.5" font-family="Helvetica,sans-Serif" font-size="10.00" fill="#000000">/dumpDataModel.cxx</text>
</a>
</g>
</g>
<!-- Node9&#45;&gt;Node10 -->
<g id="edge2" class="edge">
<title>Node9&#45;&gt;Node10</title>
<path fill="none" stroke="#191970" d="M222.7643,-85.7437C193.9966,-74.8021 161.7038,-62.5198 134.0122,-51.9875"/>
<polygon fill="#191970" stroke="#191970" points="221.7823,-89.1148 232.3734,-89.3984 224.2709,-82.572 221.7823,-89.1148"/>
</g>
<!-- Node11 -->
<g id="node4" class="node">
<title>Node11</title>
<g id="a_node4"><a xlink:href="../../d3/d9f/HFCandidateCreator2Prong_8cxx.html" target="_top" xlink:title="/home/travis/build\l/AliceO2Group/AliceO2\l/Analysis/Tasks/PWGHF\l/HFCandidateCreator2Prong.cxx">
<polygon fill="none" stroke="#000000" points="300,-.5 300,-52.5 472,-52.5 472,-.5 300,-.5"/>
<text text-anchor="start" x="308" y="-40.5" font-family="Helvetica,sans-Serif" font-size="10.00" fill="#000000">/home/travis/build</text>
<text text-anchor="start" x="308" y="-29.5" font-family="Helvetica,sans-Serif" font-size="10.00" fill="#000000">/AliceO2Group/AliceO2</text>
<text text-anchor="start" x="308" y="-18.5" font-family="Helvetica,sans-Serif" font-size="10.00" fill="#000000">/Analysis/Tasks/PWGHF</text>
<text text-anchor="middle" x="386" y="-7.5" font-family="Helvetica,sans-Serif" font-size="10.00" fill="#000000">/HFCandidateCreator2Prong.cxx</text>
</a>
</g>
</g>
<!-- Node9&#45;&gt;Node11 -->
<g id="edge3" class="edge">
<title>Node9&#45;&gt;Node11</title>
<path fill="none" stroke="#191970" d="M332.9916,-82.0029C342.3034,-72.2529 352.3332,-61.7511 361.1359,-52.5341"/>
<polygon fill="#191970" stroke="#191970" points="330.4187,-79.6293 326.0431,-89.2784 335.4809,-84.464 330.4187,-79.6293"/>
</g>
<!-- Node12 -->
<g id="node5" class="node">
<title>Node12</title>
<g id="a_node5"><a xlink:href="../../d2/d43/HFTrackIndexSkimsCreator_8cxx.html" target="_top" xlink:title="/home/travis/build\l/AliceO2Group/AliceO2\l/Analysis/Tasks/PWGHF\l/HFTrackIndexSkimsCreator.cxx">
<polygon fill="none" stroke="#000000" points="490,-.5 490,-52.5 660,-52.5 660,-.5 490,-.5"/>
<text text-anchor="start" x="498" y="-40.5" font-family="Helvetica,sans-Serif" font-size="10.00" fill="#000000">/home/travis/build</text>
<text text-anchor="start" x="498" y="-29.5" font-family="Helvetica,sans-Serif" font-size="10.00" fill="#000000">/AliceO2Group/AliceO2</text>
<text text-anchor="start" x="498" y="-18.5" font-family="Helvetica,sans-Serif" font-size="10.00" fill="#000000">/Analysis/Tasks/PWGHF</text>
<text text-anchor="middle" x="575" y="-7.5" font-family="Helvetica,sans-Serif" font-size="10.00" fill="#000000">/HFTrackIndexSkimsCreator.cxx</text>
</a>
</g>
</g>
<!-- Node9&#45;&gt;Node12 -->
<g id="edge4" class="edge">
<title>Node9&#45;&gt;Node12</title>
<path fill="none" stroke="#191970" d="M391.1182,-86.228C424.5259,-75.3766 462.1627,-63.1515 494.6438,-52.6011"/>
<polygon fill="#191970" stroke="#191970" points="389.7872,-82.9803 381.3577,-89.3984 391.9498,-89.6379 389.7872,-82.9803"/>
</g>
<!-- Node13 -->
<g id="node6" class="node">
<title>Node13</title>
<g id="a_node6"><a xlink:href="../../de/da9/taskD0_8cxx.html" target="_top" xlink:title="/home/travis/build\l/AliceO2Group/AliceO2\l/Analysis/Tasks/PWGHF\l/taskD0.cxx">
<polygon fill="none" stroke="#000000" points="152,-.5 152,-52.5 282,-52.5 282,-.5 152,-.5"/>
<text text-anchor="start" x="160" y="-40.5" font-family="Helvetica,sans-Serif" font-size="10.00" fill="#000000">/home/travis/build</text>
<text text-anchor="start" x="160" y="-29.5" font-family="Helvetica,sans-Serif" font-size="10.00" fill="#000000">/AliceO2Group/AliceO2</text>
<text text-anchor="start" x="160" y="-18.5" font-family="Helvetica,sans-Serif" font-size="10.00" fill="#000000">/Analysis/Tasks/PWGHF</text>
<text text-anchor="middle" x="217" y="-7.5" font-family="Helvetica,sans-Serif" font-size="10.00" fill="#000000">/taskD0.cxx</text>
</a>
</g>
</g>
<!-- Node9&#45;&gt;Node13 -->
<g id="edge5" class="edge">
<title>Node9&#45;&gt;Node13</title>
<path fill="none" stroke="#191970" d="M269.3847,-82.0029C260.1826,-72.2529 250.2707,-61.7511 241.5716,-52.5341"/>
<polygon fill="#191970" stroke="#191970" points="266.8423,-84.4084 276.2516,-89.2784 271.933,-79.6037 266.8423,-84.4084"/>
</g>
<!-- Node14&#45;&gt;Node11 -->
<g id="edge7" class="edge">
<title>Node14&#45;&gt;Node11</title>
<path fill="none" stroke="#191970" d="M444.9237,-82.2894C434.541,-72.459 423.327,-61.8415 413.4967,-52.5341"/>
<polygon fill="#191970" stroke="#191970" points="442.6374,-84.9447 452.3053,-89.2784 447.4501,-79.8615 442.6374,-84.9447"/>
</g>
<!-- Node14&#45;&gt;Node12 -->
<g id="edge8" class="edge">
<title>Node14&#45;&gt;Node12</title>
<path fill="none" stroke="#191970" d="M515.4495,-82.2894C525.9427,-72.459 537.2759,-61.8415 547.2107,-52.5341"/>
<polygon fill="#191970" stroke="#191970" points="512.8942,-79.8873 507.9893,-89.2784 517.68,-84.9958 512.8942,-79.8873"/>
</g>
</g>
</svg>
