<?xml version="1.0" encoding="UTF-8" standalone="no"?>
<!DOCTYPE svg PUBLIC "-//W3C//DTD SVG 1.1//EN"
 "http://www.w3.org/Graphics/SVG/1.1/DTD/svg11.dtd">
<!-- Generated by graphviz version 2.40.1 (20161225.0304)
 -->
<!-- Title: o2::header::TimeStamp Pages: 1 -->
<svg width="222pt" height="281pt"
 viewBox="0.00 0.00 221.50 281.00" xmlns="http://www.w3.org/2000/svg" xmlns:xlink="http://www.w3.org/1999/xlink">
<g id="graph0" class="graph" transform="scale(1 1) rotate(0) translate(4 277)">
<title>o2::header::TimeStamp</title>
<!-- Node1 -->
<g id="node1" class="node">
<title>Node1</title>
<polygon fill="#bfbfbf" stroke="#000000" points="20,-.5 20,-112.5 151,-112.5 151,-.5 20,-.5"/>
<text text-anchor="middle" x="85.5" y="-100.5" font-family="Helvetica,sans-Serif" font-size="10.00" fill="#000000">o2::header::TimeStamp</text>
<polyline fill="none" stroke="#000000" points="20,-93.5 151,-93.5 "/>
<text text-anchor="middle" x="85.5" y="-81.5" font-family="Helvetica,sans-Serif" font-size="10.00" fill="#000000"> </text>
<polyline fill="none" stroke="#000000" points="20,-74.5 151,-74.5 "/>
<text text-anchor="start" x="28" y="-62.5" font-family="Helvetica,sans-Serif" font-size="10.00" fill="#000000">+ TimeStamp()</text>
<text text-anchor="start" x="28" y="-51.5" font-family="Helvetica,sans-Serif" font-size="10.00" fill="#000000">+ TimeStamp()</text>
<text text-anchor="start" x="28" y="-40.5" font-family="Helvetica,sans-Serif" font-size="10.00" fill="#000000">+ TimeStamp()</text>
<text text-anchor="start" x="28" y="-29.5" font-family="Helvetica,sans-Serif" font-size="10.00" fill="#000000">+ ~TimeStamp()</text>
<text text-anchor="start" x="28" y="-18.5" font-family="Helvetica,sans-Serif" font-size="10.00" fill="#000000">+ operator uint64_t()</text>
<text text-anchor="start" x="28" y="-7.5" font-family="Helvetica,sans-Serif" font-size="10.00" fill="#000000">+ get()</text>
</g>
<!-- Node2 -->
<g id="node2" class="node">
<title>Node2</title>
<polygon fill="none" stroke="#bfbfbf" points="0,-215.5 0,-272.5 61,-272.5 61,-215.5 0,-215.5"/>
<text text-anchor="middle" x="30.5" y="-260.5" font-family="Helvetica,sans-Serif" font-size="10.00" fill="#000000">unsigned</text>
<polyline fill="none" stroke="#bfbfbf" points="0,-253.5 61,-253.5 "/>
<text text-anchor="middle" x="30.5" y="-241.5" font-family="Helvetica,sans-Serif" font-size="10.00" fill="#000000"> </text>
<polyline fill="none" stroke="#bfbfbf" points="0,-234.5 61,-234.5 "/>
<text text-anchor="middle" x="30.5" y="-222.5" font-family="Helvetica,sans-Serif" font-size="10.00" fill="#000000"> </text>
</g>
<!-- Node2&#45;&gt;Node1 -->
<g id="edge1" class="edge">
<title>Node2&#45;&gt;Node1</title>
<path fill="none" stroke="#404040" d="M26.036,-215.3603C23.5052,-192.0383 22.4208,-158.5799 31.5,-131 32.3,-128.5699 33.2112,-126.1523 34.2167,-123.7551"/>
<polygon fill="none" stroke="#404040" points="34.3289,-123.5225 33.3347,-116.3802 39.5451,-112.7155 40.5393,-119.8577 34.3289,-123.5225"/>
<text text-anchor="middle" x="75" y="-189" font-family="Helvetica,sans-Serif" font-size="10.00" fill="#000000"> +mUnit</text>
<text text-anchor="middle" x="75" y="-178" font-family="Helvetica,sans-Serif" font-size="10.00" fill="#000000">+mTicks</text>
<text text-anchor="middle" x="75" y="-167" font-family="Helvetica,sans-Serif" font-size="10.00" fill="#000000">+mSubTicks</text>
<text text-anchor="middle" x="75" y="-156" font-family="Helvetica,sans-Serif" font-size="10.00" fill="#000000">+mPeriod</text>
<text text-anchor="middle" x="75" y="-145" font-family="Helvetica,sans-Serif" font-size="10.00" fill="#000000">+mBCNumber</text>
<text text-anchor="middle" x="75" y="-134" font-family="Helvetica,sans-Serif" font-size="10.00" fill="#000000">+mTimeStamp64</text>
</g>
<!-- Node3 -->
<g id="node3" class="node">
<title>Node3</title>
<polygon fill="none" stroke="#bfbfbf" points="118.5,-215.5 118.5,-272.5 162.5,-272.5 162.5,-215.5 118.5,-215.5"/>
<text text-anchor="middle" x="140.5" y="-260.5" font-family="Helvetica,sans-Serif" font-size="10.00" fill="#000000">static</text>
<polyline fill="none" stroke="#bfbfbf" points="118.5,-253.5 162.5,-253.5 "/>
<text text-anchor="middle" x="140.5" y="-241.5" font-family="Helvetica,sans-Serif" font-size="10.00" fill="#000000"> </text>
<polyline fill="none" stroke="#bfbfbf" points="118.5,-234.5 162.5,-234.5 "/>
<text text-anchor="middle" x="140.5" y="-222.5" font-family="Helvetica,sans-Serif" font-size="10.00" fill="#000000"> </text>
</g>
<!-- Node3&#45;&gt;Node1 -->
<g id="edge2" class="edge">
<title>Node3&#45;&gt;Node1</title>
<path fill="none" stroke="#404040" d="M136.724,-215.2309C133.2582,-192.1262 127.3123,-159.0273 118.5,-131 117.7542,-128.6279 116.9552,-126.2302 116.1138,-123.8218"/>
<polygon fill="none" stroke="#404040" points="116.0957,-123.7729 110.2534,-119.5459 111.9082,-112.5272 117.7505,-116.7543 116.0957,-123.7729"/>
<text text-anchor="middle" x="173" y="-167" font-family="Helvetica,sans-Serif" font-size="10.00" fill="#000000"> +sClockLHC</text>
<text text-anchor="middle" x="173" y="-156" font-family="Helvetica,sans-Serif" font-size="10.00" fill="#000000">+sMicroSeconds</text>
</g>
</g>
</svg>
