<?xml version="1.0" encoding="UTF-8" standalone="no"?>
<!DOCTYPE svg PUBLIC "-//W3C//DTD SVG 1.1//EN"
 "http://www.w3.org/Graphics/SVG/1.1/DTD/svg11.dtd">
<!-- Generated by graphviz version 2.40.1 (20161225.0304)
 -->
<!-- Title: o2::mch::PreClusterFinder::DetectionElement Pages: 1 -->
<svg width="485pt" height="204pt"
 viewBox="0.00 0.00 484.50 204.00" xmlns="http://www.w3.org/2000/svg" xmlns:xlink="http://www.w3.org/1999/xlink">
<g id="graph0" class="graph" transform="scale(1 1) rotate(0) translate(4 200)">
<title>o2::mch::PreClusterFinder::DetectionElement</title>
<!-- Node1 -->
<g id="node1" class="node">
<title>Node1</title>
<polygon fill="#bfbfbf" stroke="#000000" points="196,-.5 196,-68.5 337,-68.5 337,-.5 196,-.5"/>
<text text-anchor="start" x="204" y="-56.5" font-family="Helvetica,sans-Serif" font-size="10.00" fill="#000000">o2::mch::PreClusterFinder</text>
<text text-anchor="middle" x="266.5" y="-45.5" font-family="Helvetica,sans-Serif" font-size="10.00" fill="#000000">::DetectionElement</text>
<polyline fill="none" stroke="#000000" points="196,-38.5 337,-38.5 "/>
<text text-anchor="middle" x="266.5" y="-26.5" font-family="Helvetica,sans-Serif" font-size="10.00" fill="#000000"> </text>
<polyline fill="none" stroke="#000000" points="196,-19.5 337,-19.5 "/>
<text text-anchor="middle" x="266.5" y="-7.5" font-family="Helvetica,sans-Serif" font-size="10.00" fill="#000000"> </text>
</g>
<!-- Node2 -->
<g id="node2" class="node">
<title>Node2</title>
<polygon fill="none" stroke="#bfbfbf" points="0,-127.5 0,-195.5 127,-195.5 127,-127.5 0,-127.5"/>
<text text-anchor="start" x="8" y="-183.5" font-family="Helvetica,sans-Serif" font-size="10.00" fill="#000000">vector&lt; const o2::mch</text>
<text text-anchor="middle" x="63.5" y="-172.5" font-family="Helvetica,sans-Serif" font-size="10.00" fill="#000000">::Digit * &gt;</text>
<polyline fill="none" stroke="#bfbfbf" points="0,-165.5 127,-165.5 "/>
<text text-anchor="middle" x="63.5" y="-153.5" font-family="Helvetica,sans-Serif" font-size="10.00" fill="#000000"> </text>
<polyline fill="none" stroke="#bfbfbf" points="0,-146.5 127,-146.5 "/>
<text text-anchor="middle" x="63.5" y="-134.5" font-family="Helvetica,sans-Serif" font-size="10.00" fill="#000000"> </text>
</g>
<!-- Node2&#45;&gt;Node1 -->
<g id="edge1" class="edge">
<title>Node2&#45;&gt;Node1</title>
<path fill="none" stroke="#404040" d="M117.9003,-127.4663C143.6131,-111.38 174.5074,-92.052 201.4503,-75.1961"/>
<polygon fill="none" stroke="#404040" points="201.7764,-74.9922 204.7415,-68.4188 211.9496,-68.6276 208.9845,-75.2009 201.7764,-74.9922"/>
<text text-anchor="middle" x="197" y="-95.5" font-family="Helvetica,sans-Serif" font-size="10.00" fill="#000000"> +digits</text>
</g>
<!-- Node3 -->
<g id="node3" class="node">
<title>Node3</title>
<polygon fill="none" stroke="#bfbfbf" points="145.5,-133 145.5,-190 255.5,-190 255.5,-133 145.5,-133"/>
<text text-anchor="middle" x="200.5" y="-178" font-family="Helvetica,sans-Serif" font-size="10.00" fill="#000000">vector&lt; uint16_t &gt;</text>
<polyline fill="none" stroke="#bfbfbf" points="145.5,-171 255.5,-171 "/>
<text text-anchor="middle" x="200.5" y="-159" font-family="Helvetica,sans-Serif" font-size="10.00" fill="#000000"> </text>
<polyline fill="none" stroke="#bfbfbf" points="145.5,-152 255.5,-152 "/>
<text text-anchor="middle" x="200.5" y="-140" font-family="Helvetica,sans-Serif" font-size="10.00" fill="#000000"> </text>
</g>
<!-- Node3&#45;&gt;Node1 -->
<g id="edge2" class="edge">
<title>Node3&#45;&gt;Node1</title>
<path fill="none" stroke="#404040" d="M215.3117,-132.9987C223.4948,-117.2524 233.8479,-97.3305 243.0988,-79.5297"/>
<polygon fill="none" stroke="#404040" points="243.1534,-79.4245 242.3709,-72.256 248.687,-68.7765 249.4695,-75.9451 243.1534,-79.4245"/>
<text text-anchor="middle" x="271" y="-101" font-family="Helvetica,sans-Serif" font-size="10.00" fill="#000000"> +firedPads</text>
<text text-anchor="middle" x="271" y="-90" font-family="Helvetica,sans-Serif" font-size="10.00" fill="#000000">+orderedPads</text>
</g>
<!-- Node4 -->
<g id="node4" class="node">
<title>Node4</title>
<polygon fill="none" stroke="#bfbfbf" points="274,-127.5 274,-195.5 393,-195.5 393,-127.5 274,-127.5"/>
<text text-anchor="start" x="282" y="-183.5" font-family="Helvetica,sans-Serif" font-size="10.00" fill="#000000">unique_ptr&lt; o2::mch</text>
<text text-anchor="middle" x="333.5" y="-172.5" font-family="Helvetica,sans-Serif" font-size="10.00" fill="#000000">::Mapping::MpDE &gt;</text>
<polyline fill="none" stroke="#bfbfbf" points="274,-165.5 393,-165.5 "/>
<text text-anchor="middle" x="333.5" y="-153.5" font-family="Helvetica,sans-Serif" font-size="10.00" fill="#000000"> </text>
<polyline fill="none" stroke="#bfbfbf" points="274,-146.5 393,-146.5 "/>
<text text-anchor="middle" x="333.5" y="-134.5" font-family="Helvetica,sans-Serif" font-size="10.00" fill="#000000"> </text>
</g>
<!-- Node4&#45;&gt;Node1 -->
<g id="edge3" class="edge">
<title>Node4&#45;&gt;Node1</title>
<path fill="none" stroke="#404040" d="M325.4264,-127.3947C321.5916,-114.3128 316.3273,-99.5286 309.5,-87 307.9673,-84.1874 306.2752,-81.38 304.4747,-78.6086"/>
<polygon fill="none" stroke="#404040" points="304.4712,-78.6035 297.749,-75.9935 297.5727,-68.7845 304.295,-71.3945 304.4712,-78.6035"/>
<text text-anchor="middle" x="346" y="-95.5" font-family="Helvetica,sans-Serif" font-size="10.00" fill="#000000"> +mapping</text>
</g>
<!-- Node5 -->
<g id="node5" class="node">
<title>Node5</title>
<polygon fill="none" stroke="#bfbfbf" points="411,-133 411,-190 472,-190 472,-133 411,-133"/>
<text text-anchor="middle" x="441.5" y="-178" font-family="Helvetica,sans-Serif" font-size="10.00" fill="#000000">unsigned</text>
<polyline fill="none" stroke="#bfbfbf" points="411,-171 472,-171 "/>
<text text-anchor="middle" x="441.5" y="-159" font-family="Helvetica,sans-Serif" font-size="10.00" fill="#000000"> </text>
<polyline fill="none" stroke="#bfbfbf" points="411,-152 472,-152 "/>
<text text-anchor="middle" x="441.5" y="-140" font-family="Helvetica,sans-Serif" font-size="10.00" fill="#000000"> </text>
</g>
<!-- Node5&#45;&gt;Node1 -->
<g id="edge4" class="edge">
<title>Node5&#45;&gt;Node1</title>
<path fill="none" stroke="#404040" d="M421.4113,-132.7297C409.8548,-117.6996 394.3138,-99.8199 377.5,-87 368.4412,-80.093 358.3277,-73.782 347.9946,-68.1191"/>
<polygon fill="none" stroke="#404040" points="347.8116,-68.0233 340.6405,-68.7821 337.1819,-62.4546 344.3529,-61.6957 347.8116,-68.0233"/>
<text text-anchor="middle" x="438.5" y="-101" font-family="Helvetica,sans-Serif" font-size="10.00" fill="#000000"> +nFiredPads</text>
<text text-anchor="middle" x="438.5" y="-90" font-family="Helvetica,sans-Serif" font-size="10.00" fill="#000000">+nOrderedPads</text>
</g>
</g>
</svg>
