<?xml version="1.0" encoding="UTF-8" standalone="no"?>
<!DOCTYPE svg PUBLIC "-//W3C//DTD SVG 1.1//EN"
 "http://www.w3.org/Graphics/SVG/1.1/DTD/svg11.dtd">
<!-- Generated by graphviz version 2.40.1 (20161225.0304)
 -->
<!-- Title: o2::steer::InteractionSampler Pages: 1 -->
<!--zoomable 1151 -->
<svg id="main" version="1.1" xmlns="http://www.w3.org/2000/svg" xmlns:xlink="http://www.w3.org/1999/xlink" xml:space="preserve" onload="init(evt)">
<style type="text/css"><![CDATA[
.edge:hover path { stroke: red; }
.edge:hover polygon { stroke: red; fill: red; }
]]></style>
<script type="text/javascript"><![CDATA[
var edges = document.getElementsByTagName('g');
if (edges && edges.length) {
  for (var i=0;i<edges.length;i++) {
    if (edges[i].id.substr(0,4)=='edge') {
      edges[i].setAttribute('class','edge');
    }
  }
}
]]></script>
        <defs>
                <circle id="rim" cx="0" cy="0" r="7"/>
                <circle id="rim2" cx="0" cy="0" r="3.5"/>
                <g id="zoomPlus">
                        <use xlink:href="#rim" fill="#404040">
                                <set attributeName="fill" to="#808080" begin="zoomplus.mouseover" end="zoomplus.mouseout"/>
                        </use>
                        <path d="M-4,0h8M0,-4v8" fill="none" stroke="white" stroke-width="1.5" pointer-events="none"/>
                </g>
                <g id="zoomMin">
                        <use xlink:href="#rim" fill="#404040">
                                <set attributeName="fill" to="#808080" begin="zoomminus.mouseover" end="zoomminus.mouseout"/>
                        </use>
                        <path d="M-4,0h8" fill="none" stroke="white" stroke-width="1.5" pointer-events="none"/>
                </g>
                <g id="dirArrow">
                        <path fill="none" stroke="white" stroke-width="1.5" d="M0,-3.0v7 M-2.5,-0.5L0,-3.0L2.5,-0.5"/>
                </g>
               <g id="resetDef">
                       <use xlink:href="#rim2" fill="#404040">
                               <set attributeName="fill" to="#808080" begin="reset.mouseover" end="reset.mouseout"/>
                       </use>
               </g>
        </defs>

<script type="text/javascript">
var viewWidth = 1047;
var viewHeight = 1151;
var sectionId = 'dynsection-0';
</script>
<script xlink:href="../../svgpan.js"/>
<svg id="graph" class="graph">
<g id="viewport">
<title>o2::steer::InteractionSampler</title>
<!-- Node1 -->
<g id="node1" class="node">
<title>Node1</title>
<polygon fill="#bfbfbf" stroke="#000000" points="391.1068,-.5 391.1068,-255.5 549.1068,-255.5 549.1068,-.5 391.1068,-.5"/>
<text text-anchor="middle" x="470.1068" y="-243.5" font-family="Helvetica,sans-Serif" font-size="10.00" fill="#000000">o2::steer::InteractionSampler</text>
<polyline fill="none" stroke="#000000" points="391.1068,-236.5 549.1068,-236.5 "/>
<text text-anchor="middle" x="470.1068" y="-224.5" font-family="Helvetica,sans-Serif" font-size="10.00" fill="#000000"> </text>
<polyline fill="none" stroke="#000000" points="391.1068,-217.5 549.1068,-217.5 "/>
<text text-anchor="start" x="399.1068" y="-205.5" font-family="Helvetica,sans-Serif" font-size="10.00" fill="#000000">+ generateCollisionTime()</text>
<text text-anchor="start" x="399.1068" y="-194.5" font-family="Helvetica,sans-Serif" font-size="10.00" fill="#000000">+ generateCollisionTimes()</text>
<text text-anchor="start" x="399.1068" y="-183.5" font-family="Helvetica,sans-Serif" font-size="10.00" fill="#000000">+ init()</text>
<text text-anchor="start" x="399.1068" y="-172.5" font-family="Helvetica,sans-Serif" font-size="10.00" fill="#000000">+ setInteractionRate()</text>
<text text-anchor="start" x="399.1068" y="-161.5" font-family="Helvetica,sans-Serif" font-size="10.00" fill="#000000">+ getInteractionRate()</text>
<text text-anchor="start" x="399.1068" y="-150.5" font-family="Helvetica,sans-Serif" font-size="10.00" fill="#000000">+ setFirstIR()</text>
<text text-anchor="start" x="399.1068" y="-139.5" font-family="Helvetica,sans-Serif" font-size="10.00" fill="#000000">+ getFirstIR()</text>
<text text-anchor="start" x="399.1068" y="-128.5" font-family="Helvetica,sans-Serif" font-size="10.00" fill="#000000">+ setMuPerBC()</text>
<text text-anchor="start" x="399.1068" y="-117.5" font-family="Helvetica,sans-Serif" font-size="10.00" fill="#000000">+ getMuPerBC()</text>
<text text-anchor="start" x="399.1068" y="-106.5" font-family="Helvetica,sans-Serif" font-size="10.00" fill="#000000">+ setBCTimeRMS()</text>
<text text-anchor="start" x="399.1068" y="-95.5" font-family="Helvetica,sans-Serif" font-size="10.00" fill="#000000">+ getBCTimeRMS()</text>
<text text-anchor="start" x="399.1068" y="-84.5" font-family="Helvetica,sans-Serif" font-size="10.00" fill="#000000">+ getBunchFilling()</text>
<text text-anchor="start" x="399.1068" y="-73.5" font-family="Helvetica,sans-Serif" font-size="10.00" fill="#000000">+ getBunchFilling()</text>
<text text-anchor="start" x="399.1068" y="-62.5" font-family="Helvetica,sans-Serif" font-size="10.00" fill="#000000">+ setBunchFilling()</text>
<text text-anchor="start" x="399.1068" y="-51.5" font-family="Helvetica,sans-Serif" font-size="10.00" fill="#000000">+ setBunchFilling()</text>
<text text-anchor="start" x="399.1068" y="-40.5" font-family="Helvetica,sans-Serif" font-size="10.00" fill="#000000">+ print()</text>
<text text-anchor="start" x="399.1068" y="-29.5" font-family="Helvetica,sans-Serif" font-size="10.00" fill="#000000"># simulateInteractingBC()</text>
<text text-anchor="start" x="399.1068" y="-18.5" font-family="Helvetica,sans-Serif" font-size="10.00" fill="#000000"># nextCollidingBC()</text>
<text text-anchor="start" x="399.1068" y="-7.5" font-family="Helvetica,sans-Serif" font-size="10.00" fill="#000000"># ClassDefNV()</text>
</g>
<!-- Node2 -->
<g id="node2" class="node">
<title>Node2</title>
<polygon fill="none" stroke="#bfbfbf" points="86.1068,-1085.5 86.1068,-1142.5 136.1068,-1142.5 136.1068,-1085.5 86.1068,-1085.5"/>
<text text-anchor="middle" x="111.1068" y="-1130.5" font-family="Helvetica,sans-Serif" font-size="10.00" fill="#000000">double</text>
<polyline fill="none" stroke="#bfbfbf" points="86.1068,-1123.5 136.1068,-1123.5 "/>
<text text-anchor="middle" x="111.1068" y="-1111.5" font-family="Helvetica,sans-Serif" font-size="10.00" fill="#000000"> </text>
<polyline fill="none" stroke="#bfbfbf" points="86.1068,-1104.5 136.1068,-1104.5 "/>
<text text-anchor="middle" x="111.1068" y="-1092.5" font-family="Helvetica,sans-Serif" font-size="10.00" fill="#000000"> </text>
</g>
<!-- Node2&#45;&gt;Node1 -->
<g id="edge1" class="edge">
<title>Node2&#45;&gt;Node1</title>
<path fill="none" stroke="#404040" d="M99.0934,-1085.3552C56.1107,-978.0696 -79.9091,-593.0419 66.1068,-336 130.7249,-222.2482 281.1548,-168.5877 379.1057,-144.8992"/>
<polygon fill="none" stroke="#404040" points="379.3955,-144.8312 384.3228,-139.5661 391.0781,-142.0893 386.1508,-147.3545 379.3955,-144.8312"/>
<text text-anchor="middle" x="26.6068" y="-580" font-family="Helvetica,sans-Serif" font-size="10.00" fill="#000000"> #mMuBC</text>
</g>
<!-- Node11 -->
<g id="node11" class="node">
<title>Node11</title>
<g id="a_node11"><a xlink:href="../../d8/d98/structo2_1_1InteractionTimeRecord.html" target="_top" xlink:title="{o2::InteractionTimeRecord\n||+ InteractionTimeRecord()\l+ InteractionTimeRecord()\l+ InteractionTimeRecord()\l+ setFromNS()\l+ clear()\l+ getTimeOffsetWrtBC()\l+ getTimeNS()\l+ operator==()\l+ operator!=()\l+ operator\&gt;()\l+ operator\&gt;=()\l+ operator\&lt;()\l+ operator\&lt;=()\l+ print()\l+ asString()\l+ ClassDefNV()\l}">
<polygon fill="none" stroke="#000000" points="75.1068,-336.5 75.1068,-558.5 221.1068,-558.5 221.1068,-336.5 75.1068,-336.5"/>
<text text-anchor="middle" x="148.1068" y="-546.5" font-family="Helvetica,sans-Serif" font-size="10.00" fill="#000000">o2::InteractionTimeRecord</text>
<polyline fill="none" stroke="#000000" points="75.1068,-539.5 221.1068,-539.5 "/>
<text text-anchor="middle" x="148.1068" y="-527.5" font-family="Helvetica,sans-Serif" font-size="10.00" fill="#000000"> </text>
<polyline fill="none" stroke="#000000" points="75.1068,-520.5 221.1068,-520.5 "/>
<text text-anchor="start" x="83.1068" y="-508.5" font-family="Helvetica,sans-Serif" font-size="10.00" fill="#000000">+ InteractionTimeRecord()</text>
<text text-anchor="start" x="83.1068" y="-497.5" font-family="Helvetica,sans-Serif" font-size="10.00" fill="#000000">+ InteractionTimeRecord()</text>
<text text-anchor="start" x="83.1068" y="-486.5" font-family="Helvetica,sans-Serif" font-size="10.00" fill="#000000">+ InteractionTimeRecord()</text>
<text text-anchor="start" x="83.1068" y="-475.5" font-family="Helvetica,sans-Serif" font-size="10.00" fill="#000000">+ setFromNS()</text>
<text text-anchor="start" x="83.1068" y="-464.5" font-family="Helvetica,sans-Serif" font-size="10.00" fill="#000000">+ clear()</text>
<text text-anchor="start" x="83.1068" y="-453.5" font-family="Helvetica,sans-Serif" font-size="10.00" fill="#000000">+ getTimeOffsetWrtBC()</text>
<text text-anchor="start" x="83.1068" y="-442.5" font-family="Helvetica,sans-Serif" font-size="10.00" fill="#000000">+ getTimeNS()</text>
<text text-anchor="start" x="83.1068" y="-431.5" font-family="Helvetica,sans-Serif" font-size="10.00" fill="#000000">+ operator==()</text>
<text text-anchor="start" x="83.1068" y="-420.5" font-family="Helvetica,sans-Serif" font-size="10.00" fill="#000000">+ operator!=()</text>
<text text-anchor="start" x="83.1068" y="-409.5" font-family="Helvetica,sans-Serif" font-size="10.00" fill="#000000">+ operator&gt;()</text>
<text text-anchor="start" x="83.1068" y="-398.5" font-family="Helvetica,sans-Serif" font-size="10.00" fill="#000000">+ operator&gt;=()</text>
<text text-anchor="start" x="83.1068" y="-387.5" font-family="Helvetica,sans-Serif" font-size="10.00" fill="#000000">+ operator&lt;()</text>
<text text-anchor="start" x="83.1068" y="-376.5" font-family="Helvetica,sans-Serif" font-size="10.00" fill="#000000">+ operator&lt;=()</text>
<text text-anchor="start" x="83.1068" y="-365.5" font-family="Helvetica,sans-Serif" font-size="10.00" fill="#000000">+ print()</text>
<text text-anchor="start" x="83.1068" y="-354.5" font-family="Helvetica,sans-Serif" font-size="10.00" fill="#000000">+ asString()</text>
<text text-anchor="start" x="83.1068" y="-343.5" font-family="Helvetica,sans-Serif" font-size="10.00" fill="#000000">+ ClassDefNV()</text>
</a>
</g>
</g>
<!-- Node2&#45;&gt;Node11 -->
<g id="edge17" class="edge">
<title>Node2&#45;&gt;Node11</title>
<path fill="none" stroke="#404040" d="M110.1778,-1085.271C107.9933,-1007.7333 103.9306,-787.7882 121.1068,-606 122.1786,-594.656 123.5951,-582.8998 125.2191,-571.1512"/>
<polygon fill="none" stroke="#404040" points="125.2689,-570.8055 122.1658,-564.2962 126.9809,-558.9282 130.084,-565.4375 125.2689,-570.8055"/>
<text text-anchor="middle" x="156.1068" y="-814" font-family="Helvetica,sans-Serif" font-size="10.00" fill="#000000"> +timeInBCNS</text>
</g>
<!-- Node12 -->
<g id="node12" class="node">
<title>Node12</title>
<g id="a_node12"><a xlink:href="../../d1/d21/structo2_1_1InteractionRecord.html" target="_top" xlink:title="{o2::InteractionRecord\n||+ InteractionRecord()\l+ InteractionRecord()\l+ InteractionRecord()\l+ InteractionRecord()\l+ clear()\l+ isDummy()\l+ setFromNS()\l+ bc2ns()\l+ operator==()\l+ operator!=()\l+ differenceInBC()\l+ toLong()\l+ setFromLong()\l+ operator\&gt;()\l+ operator\&gt;=()\l+ operator\&lt;()\l+ operator\&lt;=()\l+ operator&#45;&#45;()\l+ operator&#45;&#45;()\l+ operator++()\l+ operator++()\l+ operator+=()\l+ operator&#45;=()\l+ operator+=()\l+ operator&#45;=()\l+ operator+()\l+ operator&#45;()\l+ operator+()\l+ operator&#45;()\l+ print()\l+ asString()\l+ ClassDefNV()\l+ bc2ns()\l+ ns2bc()\l}">
<polygon fill="none" stroke="#000000" points="199.6068,-606.5 199.6068,-1026.5 320.6068,-1026.5 320.6068,-606.5 199.6068,-606.5"/>
<text text-anchor="middle" x="260.1068" y="-1014.5" font-family="Helvetica,sans-Serif" font-size="10.00" fill="#000000">o2::InteractionRecord</text>
<polyline fill="none" stroke="#000000" points="199.6068,-1007.5 320.6068,-1007.5 "/>
<text text-anchor="middle" x="260.1068" y="-995.5" font-family="Helvetica,sans-Serif" font-size="10.00" fill="#000000"> </text>
<polyline fill="none" stroke="#000000" points="199.6068,-988.5 320.6068,-988.5 "/>
<text text-anchor="start" x="207.6068" y="-976.5" font-family="Helvetica,sans-Serif" font-size="10.00" fill="#000000">+ InteractionRecord()</text>
<text text-anchor="start" x="207.6068" y="-965.5" font-family="Helvetica,sans-Serif" font-size="10.00" fill="#000000">+ InteractionRecord()</text>
<text text-anchor="start" x="207.6068" y="-954.5" font-family="Helvetica,sans-Serif" font-size="10.00" fill="#000000">+ InteractionRecord()</text>
<text text-anchor="start" x="207.6068" y="-943.5" font-family="Helvetica,sans-Serif" font-size="10.00" fill="#000000">+ InteractionRecord()</text>
<text text-anchor="start" x="207.6068" y="-932.5" font-family="Helvetica,sans-Serif" font-size="10.00" fill="#000000">+ clear()</text>
<text text-anchor="start" x="207.6068" y="-921.5" font-family="Helvetica,sans-Serif" font-size="10.00" fill="#000000">+ isDummy()</text>
<text text-anchor="start" x="207.6068" y="-910.5" font-family="Helvetica,sans-Serif" font-size="10.00" fill="#000000">+ setFromNS()</text>
<text text-anchor="start" x="207.6068" y="-899.5" font-family="Helvetica,sans-Serif" font-size="10.00" fill="#000000">+ bc2ns()</text>
<text text-anchor="start" x="207.6068" y="-888.5" font-family="Helvetica,sans-Serif" font-size="10.00" fill="#000000">+ operator==()</text>
<text text-anchor="start" x="207.6068" y="-877.5" font-family="Helvetica,sans-Serif" font-size="10.00" fill="#000000">+ operator!=()</text>
<text text-anchor="start" x="207.6068" y="-866.5" font-family="Helvetica,sans-Serif" font-size="10.00" fill="#000000">+ differenceInBC()</text>
<text text-anchor="start" x="207.6068" y="-855.5" font-family="Helvetica,sans-Serif" font-size="10.00" fill="#000000">+ toLong()</text>
<text text-anchor="start" x="207.6068" y="-844.5" font-family="Helvetica,sans-Serif" font-size="10.00" fill="#000000">+ setFromLong()</text>
<text text-anchor="start" x="207.6068" y="-833.5" font-family="Helvetica,sans-Serif" font-size="10.00" fill="#000000">+ operator&gt;()</text>
<text text-anchor="start" x="207.6068" y="-822.5" font-family="Helvetica,sans-Serif" font-size="10.00" fill="#000000">+ operator&gt;=()</text>
<text text-anchor="start" x="207.6068" y="-811.5" font-family="Helvetica,sans-Serif" font-size="10.00" fill="#000000">+ operator&lt;()</text>
<text text-anchor="start" x="207.6068" y="-800.5" font-family="Helvetica,sans-Serif" font-size="10.00" fill="#000000">+ operator&lt;=()</text>
<text text-anchor="start" x="207.6068" y="-789.5" font-family="Helvetica,sans-Serif" font-size="10.00" fill="#000000">+ operator&#45;&#45;()</text>
<text text-anchor="start" x="207.6068" y="-778.5" font-family="Helvetica,sans-Serif" font-size="10.00" fill="#000000">+ operator&#45;&#45;()</text>
<text text-anchor="start" x="207.6068" y="-767.5" font-family="Helvetica,sans-Serif" font-size="10.00" fill="#000000">+ operator++()</text>
<text text-anchor="start" x="207.6068" y="-756.5" font-family="Helvetica,sans-Serif" font-size="10.00" fill="#000000">+ operator++()</text>
<text text-anchor="start" x="207.6068" y="-745.5" font-family="Helvetica,sans-Serif" font-size="10.00" fill="#000000">+ operator+=()</text>
<text text-anchor="start" x="207.6068" y="-734.5" font-family="Helvetica,sans-Serif" font-size="10.00" fill="#000000">+ operator&#45;=()</text>
<text text-anchor="start" x="207.6068" y="-723.5" font-family="Helvetica,sans-Serif" font-size="10.00" fill="#000000">+ operator+=()</text>
<text text-anchor="start" x="207.6068" y="-712.5" font-family="Helvetica,sans-Serif" font-size="10.00" fill="#000000">+ operator&#45;=()</text>
<text text-anchor="start" x="207.6068" y="-701.5" font-family="Helvetica,sans-Serif" font-size="10.00" fill="#000000">+ operator+()</text>
<text text-anchor="start" x="207.6068" y="-690.5" font-family="Helvetica,sans-Serif" font-size="10.00" fill="#000000">+ operator&#45;()</text>
<text text-anchor="start" x="207.6068" y="-679.5" font-family="Helvetica,sans-Serif" font-size="10.00" fill="#000000">+ operator+()</text>
<text text-anchor="start" x="207.6068" y="-668.5" font-family="Helvetica,sans-Serif" font-size="10.00" fill="#000000">+ operator&#45;()</text>
<text text-anchor="start" x="207.6068" y="-657.5" font-family="Helvetica,sans-Serif" font-size="10.00" fill="#000000">+ print()</text>
<text text-anchor="start" x="207.6068" y="-646.5" font-family="Helvetica,sans-Serif" font-size="10.00" fill="#000000">+ asString()</text>
<text text-anchor="start" x="207.6068" y="-635.5" font-family="Helvetica,sans-Serif" font-size="10.00" fill="#000000">+ ClassDefNV()</text>
<text text-anchor="start" x="207.6068" y="-624.5" font-family="Helvetica,sans-Serif" font-size="10.00" fill="#000000">+ bc2ns()</text>
<text text-anchor="start" x="207.6068" y="-613.5" font-family="Helvetica,sans-Serif" font-size="10.00" fill="#000000">+ ns2bc()</text>
</a>
</g>
</g>
<!-- Node2&#45;&gt;Node12 -->
<g id="edge13" class="edge">
<title>Node2&#45;&gt;Node12</title>
<path fill="none" stroke="#404040" d="M130.4194,-1085.2438C139.6513,-1072.362 151.2589,-1057.3304 163.1068,-1045 171.86,-1035.8903 177.8315,-1037.3284 185.1068,-1027 187.9169,-1023.0106 190.6319,-1018.9051 193.2544,-1014.7045"/>
<polygon fill="none" stroke="#404040" points="193.4426,-1014.3884 193.0769,-1007.1866 199.5841,-1004.079 199.9498,-1011.2809 193.4426,-1014.3884"/>
<text text-anchor="middle" x="201.1068" y="-1053.5" font-family="Helvetica,sans-Serif" font-size="10.00" fill="#000000"> +DummyTime</text>
</g>
<!-- Node3 -->
<g id="node3" class="node">
<title>Node3</title>
<g id="a_node3"><a xlink:href="../../d4/dc3/classfloat.html" target="_top" xlink:title="{float\n||}">
<polygon fill="none" stroke="#000000" points="239.1068,-419 239.1068,-476 277.1068,-476 277.1068,-419 239.1068,-419"/>
<text text-anchor="middle" x="258.1068" y="-464" font-family="Helvetica,sans-Serif" font-size="10.00" fill="#000000">float</text>
<polyline fill="none" stroke="#000000" points="239.1068,-457 277.1068,-457 "/>
<text text-anchor="middle" x="258.1068" y="-445" font-family="Helvetica,sans-Serif" font-size="10.00" fill="#000000"> </text>
<polyline fill="none" stroke="#000000" points="239.1068,-438 277.1068,-438 "/>
<text text-anchor="middle" x="258.1068" y="-426" font-family="Helvetica,sans-Serif" font-size="10.00" fill="#000000"> </text>
</a>
</g>
</g>
<!-- Node3&#45;&gt;Node1 -->
<g id="edge2" class="edge">
<title>Node3&#45;&gt;Node1</title>
<path fill="none" stroke="#404040" d="M252.8445,-418.7253C247.7413,-382.5343 244.0111,-319.6165 269.1068,-274 293.8731,-228.9821 339.1163,-194.2459 380.4152,-169.9709"/>
<polygon fill="none" stroke="#404040" points="380.6751,-169.8225 383.9005,-163.3729 391.0945,-163.8695 387.8691,-170.3191 380.6751,-169.8225"/>
<text text-anchor="middle" x="308.1068" y="-310" font-family="Helvetica,sans-Serif" font-size="10.00" fill="#000000"> +Sec2NanoSec</text>
<text text-anchor="middle" x="308.1068" y="-299" font-family="Helvetica,sans-Serif" font-size="10.00" fill="#000000">#mBCTimeRMS</text>
<text text-anchor="middle" x="308.1068" y="-288" font-family="Helvetica,sans-Serif" font-size="10.00" fill="#000000">#mIntRate</text>
<text text-anchor="middle" x="308.1068" y="-277" font-family="Helvetica,sans-Serif" font-size="10.00" fill="#000000">#DefIntRate</text>
</g>
<!-- Node4 -->
<g id="node4" class="node">
<title>Node4</title>
<polygon fill="none" stroke="#bfbfbf" points="299.1068,-419 299.1068,-476 409.1068,-476 409.1068,-419 299.1068,-419"/>
<text text-anchor="middle" x="354.1068" y="-464" font-family="Helvetica,sans-Serif" font-size="10.00" fill="#000000">vector&lt; uint16_t &gt;</text>
<polyline fill="none" stroke="#bfbfbf" points="299.1068,-457 409.1068,-457 "/>
<text text-anchor="middle" x="354.1068" y="-445" font-family="Helvetica,sans-Serif" font-size="10.00" fill="#000000"> </text>
<polyline fill="none" stroke="#bfbfbf" points="299.1068,-438 409.1068,-438 "/>
<text text-anchor="middle" x="354.1068" y="-426" font-family="Helvetica,sans-Serif" font-size="10.00" fill="#000000"> </text>
</g>
<!-- Node4&#45;&gt;Node1 -->
<g id="edge3" class="edge">
<title>Node4&#45;&gt;Node1</title>
<path fill="none" stroke="#404040" d="M350.2107,-418.8881C346.5412,-383.6759 343.876,-322.5847 361.1068,-274 366.8196,-257.8919 374.9765,-242.0795 384.2912,-227.1557"/>
<polygon fill="none" stroke="#404040" points="384.3697,-227.0348 384.2855,-219.8242 390.909,-216.9731 390.9933,-224.1837 384.3697,-227.0348"/>
<text text-anchor="middle" x="407.6068" y="-293.5" font-family="Helvetica,sans-Serif" font-size="10.00" fill="#000000"> #mInteractingBCs</text>
</g>
<!-- Node5 -->
<g id="node5" class="node">
<title>Node5</title>
<polygon fill="none" stroke="#bfbfbf" points="435.6068,-419 435.6068,-476 464.6068,-476 464.6068,-419 435.6068,-419"/>
<text text-anchor="middle" x="450.1068" y="-464" font-family="Helvetica,sans-Serif" font-size="10.00" fill="#000000">int</text>
<polyline fill="none" stroke="#bfbfbf" points="435.6068,-457 464.6068,-457 "/>
<text text-anchor="middle" x="450.1068" y="-445" font-family="Helvetica,sans-Serif" font-size="10.00" fill="#000000"> </text>
<polyline fill="none" stroke="#bfbfbf" points="435.6068,-438 464.6068,-438 "/>
<text text-anchor="middle" x="450.1068" y="-426" font-family="Helvetica,sans-Serif" font-size="10.00" fill="#000000"> </text>
</g>
<!-- Node5&#45;&gt;Node1 -->
<g id="edge4" class="edge">
<title>Node5&#45;&gt;Node1</title>
<path fill="none" stroke="#404040" d="M451.8993,-418.8653C454.052,-384.4748 457.8182,-324.3102 461.3687,-267.5909"/>
<polygon fill="none" stroke="#404040" points="461.3726,-267.527 457.7553,-261.2888 462.1224,-255.5504 465.7397,-261.7886 461.3726,-267.527"/>
<text text-anchor="middle" x="497.6068" y="-299" font-family="Helvetica,sans-Serif" font-size="10.00" fill="#000000"> #mCurrBCIdx</text>
<text text-anchor="middle" x="497.6068" y="-288" font-family="Helvetica,sans-Serif" font-size="10.00" fill="#000000">#mIntBCCache</text>
</g>
<!-- Node6 -->
<g id="node6" class="node">
<title>Node6</title>
<g id="a_node6"><a xlink:href="../../dc/dfc/classo2_1_1math__utils_1_1RandomRing.html" target="_top" xlink:title="{o2::math_utils::RandomRing\l\&lt; 10000 \&gt;\n||+ RandomRing()\l+ RandomRing()\l+ initialize()\l+ initialize()\l+ initialize()\l+ getNextValue()\l+ getNextValueVc()\l+ getRingPosition()\l}">
<polygon fill="none" stroke="#000000" points="482.6068,-375 482.6068,-520 637.6068,-520 637.6068,-375 482.6068,-375"/>
<text text-anchor="start" x="490.6068" y="-508" font-family="Helvetica,sans-Serif" font-size="10.00" fill="#000000">o2::math_utils::RandomRing</text>
<text text-anchor="middle" x="560.1068" y="-497" font-family="Helvetica,sans-Serif" font-size="10.00" fill="#000000">&lt; 10000 &gt;</text>
<polyline fill="none" stroke="#000000" points="482.6068,-490 637.6068,-490 "/>
<text text-anchor="middle" x="560.1068" y="-478" font-family="Helvetica,sans-Serif" font-size="10.00" fill="#000000"> </text>
<polyline fill="none" stroke="#000000" points="482.6068,-471 637.6068,-471 "/>
<text text-anchor="start" x="490.6068" y="-459" font-family="Helvetica,sans-Serif" font-size="10.00" fill="#000000">+ RandomRing()</text>
<text text-anchor="start" x="490.6068" y="-448" font-family="Helvetica,sans-Serif" font-size="10.00" fill="#000000">+ RandomRing()</text>
<text text-anchor="start" x="490.6068" y="-437" font-family="Helvetica,sans-Serif" font-size="10.00" fill="#000000">+ initialize()</text>
<text text-anchor="start" x="490.6068" y="-426" font-family="Helvetica,sans-Serif" font-size="10.00" fill="#000000">+ initialize()</text>
<text text-anchor="start" x="490.6068" y="-415" font-family="Helvetica,sans-Serif" font-size="10.00" fill="#000000">+ initialize()</text>
<text text-anchor="start" x="490.6068" y="-404" font-family="Helvetica,sans-Serif" font-size="10.00" fill="#000000">+ getNextValue()</text>
<text text-anchor="start" x="490.6068" y="-393" font-family="Helvetica,sans-Serif" font-size="10.00" fill="#000000">+ getNextValueVc()</text>
<text text-anchor="start" x="490.6068" y="-382" font-family="Helvetica,sans-Serif" font-size="10.00" fill="#000000">+ getRingPosition()</text>
</a>
</g>
</g>
<!-- Node6&#45;&gt;Node1 -->
<g id="edge5" class="edge">
<title>Node6&#45;&gt;Node1</title>
<path fill="none" stroke="#404040" d="M556.5154,-374.7125C553.634,-343.2744 548.4456,-306.3583 539.1068,-274 538.4509,-271.7273 537.7632,-269.4458 537.0467,-267.1585"/>
<polygon fill="none" stroke="#404040" points="537.0195,-267.0765 531.3317,-262.6437 533.2359,-255.6886 538.9237,-260.1214 537.0195,-267.0765"/>
<text text-anchor="middle" x="602.6068" y="-293.5" font-family="Helvetica,sans-Serif" font-size="10.00" fill="#000000"> #mBCJumpGenerator</text>
</g>
<!-- Node7 -->
<g id="node7" class="node">
<title>Node7</title>
<g id="a_node7"><a xlink:href="../../dc/dfc/classo2_1_1math__utils_1_1RandomRing.html" target="_top" xlink:title="{o2::math_utils::RandomRing\&lt; N \&gt;\n||+ RandomRing()\l+ RandomRing()\l+ initialize()\l+ initialize()\l+ initialize()\l+ getNextValue()\l+ getNextValueVc()\l+ getRingPosition()\l}">
<polygon fill="none" stroke="#000000" points="553.6068,-749.5 553.6068,-883.5 738.6068,-883.5 738.6068,-749.5 553.6068,-749.5"/>
<text text-anchor="middle" x="646.1068" y="-871.5" font-family="Helvetica,sans-Serif" font-size="10.00" fill="#000000">o2::math_utils::RandomRing&lt; N &gt;</text>
<polyline fill="none" stroke="#000000" points="553.6068,-864.5 738.6068,-864.5 "/>
<text text-anchor="middle" x="646.1068" y="-852.5" font-family="Helvetica,sans-Serif" font-size="10.00" fill="#000000"> </text>
<polyline fill="none" stroke="#000000" points="553.6068,-845.5 738.6068,-845.5 "/>
<text text-anchor="start" x="561.6068" y="-833.5" font-family="Helvetica,sans-Serif" font-size="10.00" fill="#000000">+ RandomRing()</text>
<text text-anchor="start" x="561.6068" y="-822.5" font-family="Helvetica,sans-Serif" font-size="10.00" fill="#000000">+ RandomRing()</text>
<text text-anchor="start" x="561.6068" y="-811.5" font-family="Helvetica,sans-Serif" font-size="10.00" fill="#000000">+ initialize()</text>
<text text-anchor="start" x="561.6068" y="-800.5" font-family="Helvetica,sans-Serif" font-size="10.00" fill="#000000">+ initialize()</text>
<text text-anchor="start" x="561.6068" y="-789.5" font-family="Helvetica,sans-Serif" font-size="10.00" fill="#000000">+ initialize()</text>
<text text-anchor="start" x="561.6068" y="-778.5" font-family="Helvetica,sans-Serif" font-size="10.00" fill="#000000">+ getNextValue()</text>
<text text-anchor="start" x="561.6068" y="-767.5" font-family="Helvetica,sans-Serif" font-size="10.00" fill="#000000">+ getNextValueVc()</text>
<text text-anchor="start" x="561.6068" y="-756.5" font-family="Helvetica,sans-Serif" font-size="10.00" fill="#000000">+ getRingPosition()</text>
</a>
</g>
</g>
<!-- Node7&#45;&gt;Node6 -->
<g id="edge6" class="edge">
<title>Node7&#45;&gt;Node6</title>
<path fill="none" stroke="#ffa500" d="M628.0766,-739.1379C613.0487,-674.6578 591.7945,-583.4623 577.0712,-520.2894"/>
<polygon fill="#ffa500" stroke="#ffa500" points="624.7545,-740.3042 630.4331,-749.2488 631.5718,-738.7153 624.7545,-740.3042"/>
<text text-anchor="middle" x="618.1068" y="-580" font-family="Helvetica,sans-Serif" font-size="10.00" fill="#000000"> &lt; 10000 &gt;</text>
</g>
<!-- Node10 -->
<g id="node10" class="node">
<title>Node10</title>
<g id="a_node10"><a xlink:href="../../dc/dfc/classo2_1_1math__utils_1_1RandomRing.html" target="_top" xlink:title="{o2::math_utils::RandomRing\l\&lt; 1000 \&gt;\n||+ RandomRing()\l+ RandomRing()\l+ initialize()\l+ initialize()\l+ initialize()\l+ getNextValue()\l+ getNextValueVc()\l+ getRingPosition()\l}">
<polygon fill="none" stroke="#000000" points="655.6068,-375 655.6068,-520 810.6068,-520 810.6068,-375 655.6068,-375"/>
<text text-anchor="start" x="663.6068" y="-508" font-family="Helvetica,sans-Serif" font-size="10.00" fill="#000000">o2::math_utils::RandomRing</text>
<text text-anchor="middle" x="733.1068" y="-497" font-family="Helvetica,sans-Serif" font-size="10.00" fill="#000000">&lt; 1000 &gt;</text>
<polyline fill="none" stroke="#000000" points="655.6068,-490 810.6068,-490 "/>
<text text-anchor="middle" x="733.1068" y="-478" font-family="Helvetica,sans-Serif" font-size="10.00" fill="#000000"> </text>
<polyline fill="none" stroke="#000000" points="655.6068,-471 810.6068,-471 "/>
<text text-anchor="start" x="663.6068" y="-459" font-family="Helvetica,sans-Serif" font-size="10.00" fill="#000000">+ RandomRing()</text>
<text text-anchor="start" x="663.6068" y="-448" font-family="Helvetica,sans-Serif" font-size="10.00" fill="#000000">+ RandomRing()</text>
<text text-anchor="start" x="663.6068" y="-437" font-family="Helvetica,sans-Serif" font-size="10.00" fill="#000000">+ initialize()</text>
<text text-anchor="start" x="663.6068" y="-426" font-family="Helvetica,sans-Serif" font-size="10.00" fill="#000000">+ initialize()</text>
<text text-anchor="start" x="663.6068" y="-415" font-family="Helvetica,sans-Serif" font-size="10.00" fill="#000000">+ initialize()</text>
<text text-anchor="start" x="663.6068" y="-404" font-family="Helvetica,sans-Serif" font-size="10.00" fill="#000000">+ getNextValue()</text>
<text text-anchor="start" x="663.6068" y="-393" font-family="Helvetica,sans-Serif" font-size="10.00" fill="#000000">+ getNextValueVc()</text>
<text text-anchor="start" x="663.6068" y="-382" font-family="Helvetica,sans-Serif" font-size="10.00" fill="#000000">+ getRingPosition()</text>
</a>
</g>
</g>
<!-- Node7&#45;&gt;Node10 -->
<g id="edge10" class="edge">
<title>Node7&#45;&gt;Node10</title>
<path fill="none" stroke="#ffa500" d="M664.3466,-739.1379C679.5492,-674.6578 701.0506,-583.4623 715.9451,-520.2894"/>
<polygon fill="#ffa500" stroke="#ffa500" points="660.851,-738.7124 661.9628,-749.2488 667.6642,-740.3189 660.851,-738.7124"/>
<text text-anchor="middle" x="727.1068" y="-580" font-family="Helvetica,sans-Serif" font-size="10.00" fill="#000000"> &lt; 1000 &gt;</text>
</g>
<!-- Node8 -->
<g id="node8" class="node">
<title>Node8</title>
<g id="a_node8"><a xlink:href="../../d6/dca/classo2_1_1BunchFilling.html" target="_top" xlink:title="{o2::BunchFilling\n||+ getNBunches()\l+ testBC()\l+ setBC()\l+ setBCTrain()\l+ setBCTrains()\l+ print()\l+ getPattern()\l+ setDefault()\l+ loadFrom()\l}">
<polygon fill="none" stroke="#000000" points="829.1068,-375 829.1068,-520 929.1068,-520 929.1068,-375 829.1068,-375"/>
<text text-anchor="middle" x="879.1068" y="-508" font-family="Helvetica,sans-Serif" font-size="10.00" fill="#000000">o2::BunchFilling</text>
<polyline fill="none" stroke="#000000" points="829.1068,-501 929.1068,-501 "/>
<text text-anchor="middle" x="879.1068" y="-489" font-family="Helvetica,sans-Serif" font-size="10.00" fill="#000000"> </text>
<polyline fill="none" stroke="#000000" points="829.1068,-482 929.1068,-482 "/>
<text text-anchor="start" x="837.1068" y="-470" font-family="Helvetica,sans-Serif" font-size="10.00" fill="#000000">+ getNBunches()</text>
<text text-anchor="start" x="837.1068" y="-459" font-family="Helvetica,sans-Serif" font-size="10.00" fill="#000000">+ testBC()</text>
<text text-anchor="start" x="837.1068" y="-448" font-family="Helvetica,sans-Serif" font-size="10.00" fill="#000000">+ setBC()</text>
<text text-anchor="start" x="837.1068" y="-437" font-family="Helvetica,sans-Serif" font-size="10.00" fill="#000000">+ setBCTrain()</text>
<text text-anchor="start" x="837.1068" y="-426" font-family="Helvetica,sans-Serif" font-size="10.00" fill="#000000">+ setBCTrains()</text>
<text text-anchor="start" x="837.1068" y="-415" font-family="Helvetica,sans-Serif" font-size="10.00" fill="#000000">+ print()</text>
<text text-anchor="start" x="837.1068" y="-404" font-family="Helvetica,sans-Serif" font-size="10.00" fill="#000000">+ getPattern()</text>
<text text-anchor="start" x="837.1068" y="-393" font-family="Helvetica,sans-Serif" font-size="10.00" fill="#000000">+ setDefault()</text>
<text text-anchor="start" x="837.1068" y="-382" font-family="Helvetica,sans-Serif" font-size="10.00" fill="#000000">+ loadFrom()</text>
</a>
</g>
</g>
<!-- Node8&#45;&gt;Node1 -->
<g id="edge7" class="edge">
<title>Node8&#45;&gt;Node1</title>
<path fill="none" stroke="#404040" d="M862.1109,-374.9461C850.9914,-340.7611 833.3295,-301.5415 806.1068,-274 739.1568,-206.2658 635.5717,-167.8186 561.1142,-147.5713"/>
<polygon fill="none" stroke="#404040" points="561.0248,-147.5477 554.2008,-149.8788 549.4244,-144.4763 556.2484,-142.1453 561.0248,-147.5477"/>
<text text-anchor="middle" x="868.1068" y="-293.5" font-family="Helvetica,sans-Serif" font-size="10.00" fill="#000000"> #mBCFilling</text>
</g>
<!-- Node9 -->
<g id="node9" class="node">
<title>Node9</title>
<polygon fill="none" stroke="#bfbfbf" points="947.1068,-419 947.1068,-476 1039.1068,-476 1039.1068,-419 947.1068,-419"/>
<text text-anchor="middle" x="993.1068" y="-464" font-family="Helvetica,sans-Serif" font-size="10.00" fill="#000000">vector&lt; float &gt;</text>
<polyline fill="none" stroke="#bfbfbf" points="947.1068,-457 1039.1068,-457 "/>
<text text-anchor="middle" x="993.1068" y="-445" font-family="Helvetica,sans-Serif" font-size="10.00" fill="#000000"> </text>
<polyline fill="none" stroke="#bfbfbf" points="947.1068,-438 1039.1068,-438 "/>
<text text-anchor="middle" x="993.1068" y="-426" font-family="Helvetica,sans-Serif" font-size="10.00" fill="#000000"> </text>
</g>
<!-- Node9&#45;&gt;Node1 -->
<g id="edge8" class="edge">
<title>Node9&#45;&gt;Node1</title>
<path fill="none" stroke="#404040" d="M985.9453,-418.7906C974.8718,-380.2906 949.928,-312.3488 904.1068,-274 804.8664,-190.9435 656.3477,-154.4806 561.3502,-138.9389"/>
<polygon fill="none" stroke="#404040" points="561.3153,-138.9335 554.7638,-141.9464 549.4628,-137.0576 556.0144,-134.0447 561.3153,-138.9335"/>
<text text-anchor="middle" x="975.6068" y="-293.5" font-family="Helvetica,sans-Serif" font-size="10.00" fill="#000000"> #mTimeInBC</text>
</g>
<!-- Node10&#45;&gt;Node1 -->
<g id="edge9" class="edge">
<title>Node10&#45;&gt;Node1</title>
<path fill="none" stroke="#404040" d="M712.4532,-374.6321C700.827,-341.7562 683.975,-303.7253 661.1068,-274 633.4266,-238.0199 594.7904,-206.259 559.504,-181.6268"/>
<polygon fill="none" stroke="#404040" points="559.0653,-181.3262 551.8548,-181.2346 549.1661,-174.5434 556.3766,-174.6351 559.0653,-181.3262"/>
<text text-anchor="middle" x="745.1068" y="-299" font-family="Helvetica,sans-Serif" font-size="10.00" fill="#000000"> #mCollTimeGenerator</text>
<text text-anchor="middle" x="745.1068" y="-288" font-family="Helvetica,sans-Serif" font-size="10.00" fill="#000000">#mNCollBCGenerator</text>
</g>
<!-- Node11&#45;&gt;Node1 -->
<g id="edge11" class="edge">
<title>Node11&#45;&gt;Node1</title>
<path fill="none" stroke="#404040" d="M165.8887,-336.4741C173.2052,-314.157 183.5319,-292.0465 198.1068,-274 244.6107,-216.4194 320.0955,-178.4755 379.7607,-155.7387"/>
<polygon fill="none" stroke="#404040" points="379.8388,-155.7097 384.0703,-149.8707 391.0877,-151.5309 386.8562,-157.3699 379.8388,-155.7097"/>
<text text-anchor="middle" x="224.1068" y="-299" font-family="Helvetica,sans-Serif" font-size="10.00" fill="#000000"> #mFirstIR</text>
<text text-anchor="middle" x="224.1068" y="-288" font-family="Helvetica,sans-Serif" font-size="10.00" fill="#000000">#mIR</text>
</g>
<!-- Node12&#45;&gt;Node11 -->
<g id="edge12" class="edge">
<title>Node12&#45;&gt;Node11</title>
<path fill="none" stroke="#191970" d="M196.6096,-607.2994C191.5458,-590.616 186.5653,-574.207 181.8377,-558.6314"/>
<polygon fill="none" stroke="#191970" points="193.3458,-608.5974 199.5994,-617.1498 200.0441,-606.5643 193.3458,-608.5974"/>
</g>
<!-- Node13 -->
<g id="node13" class="node">
<title>Node13</title>
<g id="a_node13"><a xlink:href="../../d2/d5f/classunsigned_01int.html" target="_top" xlink:title="{unsigned int\n||}">
<polygon fill="none" stroke="#000000" points="204.6068,-1085.5 204.6068,-1142.5 281.6068,-1142.5 281.6068,-1085.5 204.6068,-1085.5"/>
<text text-anchor="middle" x="243.1068" y="-1130.5" font-family="Helvetica,sans-Serif" font-size="10.00" fill="#000000">unsigned int</text>
<polyline fill="none" stroke="#000000" points="204.6068,-1123.5 281.6068,-1123.5 "/>
<text text-anchor="middle" x="243.1068" y="-1111.5" font-family="Helvetica,sans-Serif" font-size="10.00" fill="#000000"> </text>
<polyline fill="none" stroke="#000000" points="204.6068,-1104.5 281.6068,-1104.5 "/>
<text text-anchor="middle" x="243.1068" y="-1092.5" font-family="Helvetica,sans-Serif" font-size="10.00" fill="#000000"> </text>
</a>
</g>
</g>
<!-- Node13&#45;&gt;Node12 -->
<g id="edge14" class="edge">
<title>Node13&#45;&gt;Node12</title>
<path fill="none" stroke="#404040" d="M243.1659,-1085.4549C243.2833,-1073.0233 243.5458,-1058.2864 244.1068,-1045 244.1947,-1042.9172 244.2858,-1040.8238 244.3798,-1038.7213"/>
<polygon fill="none" stroke="#404040" points="244.3866,-1038.5747 240.6723,-1032.3937 244.9492,-1026.5878 248.6635,-1032.7688 244.3866,-1038.5747"/>
<text text-anchor="middle" x="281.6068" y="-1053.5" font-family="Helvetica,sans-Serif" font-size="10.00" fill="#000000"> +DummyOrbit</text>
</g>
<!-- Node14 -->
<g id="node14" class="node">
<title>Node14</title>
<polygon fill="none" stroke="#bfbfbf" points="310.6068,-1085.5 310.6068,-1142.5 371.6068,-1142.5 371.6068,-1085.5 310.6068,-1085.5"/>
<text text-anchor="middle" x="341.1068" y="-1130.5" font-family="Helvetica,sans-Serif" font-size="10.00" fill="#000000">unsigned</text>
<polyline fill="none" stroke="#bfbfbf" points="310.6068,-1123.5 371.6068,-1123.5 "/>
<text text-anchor="middle" x="341.1068" y="-1111.5" font-family="Helvetica,sans-Serif" font-size="10.00" fill="#000000"> </text>
<polyline fill="none" stroke="#bfbfbf" points="310.6068,-1104.5 371.6068,-1104.5 "/>
<text text-anchor="middle" x="341.1068" y="-1092.5" font-family="Helvetica,sans-Serif" font-size="10.00" fill="#000000"> </text>
</g>
<!-- Node14&#45;&gt;Node12 -->
<g id="edge15" class="edge">
<title>Node14&#45;&gt;Node12</title>
<path fill="none" stroke="#404040" d="M333.3402,-1085.4744C329.8643,-1072.7081 325.4276,-1056.413 320.4618,-1038.1743"/>
<polygon fill="none" stroke="#404040" points="320.4579,-1038.1597 315.0221,-1033.4213 317.3054,-1026.5812 322.7411,-1031.3196 320.4579,-1038.1597"/>
<text text-anchor="middle" x="342.6068" y="-1059" font-family="Helvetica,sans-Serif" font-size="10.00" fill="#000000"> +bc</text>
<text text-anchor="middle" x="342.6068" y="-1048" font-family="Helvetica,sans-Serif" font-size="10.00" fill="#000000">+orbit</text>
</g>
<!-- Node15 -->
<g id="node15" class="node">
<title>Node15</title>
<polygon fill="none" stroke="#bfbfbf" points="389.6068,-1085.5 389.6068,-1142.5 526.6068,-1142.5 526.6068,-1085.5 389.6068,-1085.5"/>
<text text-anchor="middle" x="458.1068" y="-1130.5" font-family="Helvetica,sans-Serif" font-size="10.00" fill="#000000">static constexpr uint16_t</text>
<polyline fill="none" stroke="#bfbfbf" points="389.6068,-1123.5 526.6068,-1123.5 "/>
<text text-anchor="middle" x="458.1068" y="-1111.5" font-family="Helvetica,sans-Serif" font-size="10.00" fill="#000000"> </text>
<polyline fill="none" stroke="#bfbfbf" points="389.6068,-1104.5 526.6068,-1104.5 "/>
<text text-anchor="middle" x="458.1068" y="-1092.5" font-family="Helvetica,sans-Serif" font-size="10.00" fill="#000000"> </text>
</g>
<!-- Node15&#45;&gt;Node12 -->
<g id="edge16" class="edge">
<title>Node15&#45;&gt;Node12</title>
<path fill="none" stroke="#404040" d="M439.1217,-1085.4744C413.5934,-1047.1176 366.8638,-976.9052 327.5494,-917.8342"/>
<polygon fill="none" stroke="#404040" points="327.4549,-917.6922 320.8006,-914.9135 320.8062,-907.7024 327.4605,-910.4811 327.4549,-917.6922"/>
<text text-anchor="middle" x="456.1068" y="-1053.5" font-family="Helvetica,sans-Serif" font-size="10.00" fill="#000000"> +DummyBC</text>
</g>
</g>
</svg>
        <g id="navigator" transform="translate(0 0)" fill="#404254">
                <rect fill="#f2f5e9" fill-opacity="0.5" stroke="#606060" stroke-width=".5" x="0" y="0" width="60" height="60"/>
                <use id="zoomplus" xlink:href="#zoomPlus" x="17" y="9" onmousedown="handleZoom(evt,'in')"/>
                <use id="zoomminus" xlink:href="#zoomMin" x="42" y="9" onmousedown="handleZoom(evt,'out')"/>
                <use id="reset" xlink:href="#resetDef" x="30" y="36" onmousedown="handleReset()"/>
                <g id="arrowUp" xlink:href="#dirArrow" transform="translate(30 24)" onmousedown="handlePan(0,-1)">
                  <use xlink:href="#rim" fill="#404040">
                        <set attributeName="fill" to="#808080" begin="arrowUp.mouseover" end="arrowUp.mouseout"/>
                  </use>
                  <path fill="none" stroke="white" stroke-width="1.5" d="M0,-3.0v7 M-2.5,-0.5L0,-3.0L2.5,-0.5"/>
                </g>
                <g id="arrowRight" xlink:href="#dirArrow" transform="rotate(90) translate(36 -43)" onmousedown="handlePan(1,0)">
                  <use xlink:href="#rim" fill="#404040">
                        <set attributeName="fill" to="#808080" begin="arrowRight.mouseover" end="arrowRight.mouseout"/>
                  </use>
                  <path fill="none" stroke="white" stroke-width="1.5" d="M0,-3.0v7 M-2.5,-0.5L0,-3.0L2.5,-0.5"/>
                </g>
                <g id="arrowDown" xlink:href="#dirArrow" transform="rotate(180) translate(-30 -48)" onmousedown="handlePan(0,1)">
                  <use xlink:href="#rim" fill="#404040">
                        <set attributeName="fill" to="#808080" begin="arrowDown.mouseover" end="arrowDown.mouseout"/>
                  </use>
                  <path fill="none" stroke="white" stroke-width="1.5" d="M0,-3.0v7 M-2.5,-0.5L0,-3.0L2.5,-0.5"/>
                </g>
                <g id="arrowLeft" xlink:href="#dirArrow" transform="rotate(270) translate(-36 17)" onmousedown="handlePan(-1,0)">
                  <use xlink:href="#rim" fill="#404040">
                        <set attributeName="fill" to="#808080" begin="arrowLeft.mouseover" end="arrowLeft.mouseout"/>
                  </use>
                  <path fill="none" stroke="white" stroke-width="1.5" d="M0,-3.0v7 M-2.5,-0.5L0,-3.0L2.5,-0.5"/>
                </g>
        </g>
        <svg viewBox="0 0 15 15" width="100%" height="30px" preserveAspectRatio="xMaxYMin meet">
         <g id="arrow_out" transform="scale(0.3 0.3)">
          <a xlink:href="classo2_1_1steer_1_1InteractionSampler__coll__graph_org.svg" target="_base">
           <rect id="button" ry="5" rx="5" y="6" x="6" height="38" width="38"
                fill="#f2f5e9" fill-opacity="0.5" stroke="#606060" stroke-width="1.0"/>
           <path id="arrow"
             d="M 11.500037,31.436501 C 11.940474,20.09759 22.043105,11.32322 32.158766,21.979434 L 37.068811,17.246167 C 37.068811,17.246167 37.088388,32 37.088388,32 L 22.160133,31.978069 C 22.160133,31.978069 26.997745,27.140456 26.997745,27.140456 C 18.528582,18.264221 13.291696,25.230495 11.500037,31.436501 z"
             style="fill:#404040;"/>
          </a>
         </g>
        </svg>
</svg>
