<?xml version="1.0" encoding="UTF-8" standalone="no"?>
<!DOCTYPE svg PUBLIC "-//W3C//DTD SVG 1.1//EN"
 "http://www.w3.org/Graphics/SVG/1.1/DTD/svg11.dtd">
<!-- Generated by graphviz version 2.40.1 (20161225.0304)
 -->
<!-- Title: o2::itsmft::RUInfo Pages: 1 -->
<svg width="193pt" height="226pt"
 viewBox="0.00 0.00 192.50 226.00" xmlns="http://www.w3.org/2000/svg" xmlns:xlink="http://www.w3.org/1999/xlink">
<g id="graph0" class="graph" transform="scale(1 1) rotate(0) translate(4 222)">
<title>o2::itsmft::RUInfo</title>
<!-- Node1 -->
<g id="node1" class="node">
<title>Node1</title>
<polygon fill="#bfbfbf" stroke="#000000" points="28,-.5 28,-57.5 131,-57.5 131,-.5 28,-.5"/>
<text text-anchor="middle" x="79.5" y="-45.5" font-family="Helvetica,sans-Serif" font-size="10.00" fill="#000000">o2::itsmft::RUInfo</text>
<polyline fill="none" stroke="#000000" points="28,-38.5 131,-38.5 "/>
<text text-anchor="middle" x="79.5" y="-26.5" font-family="Helvetica,sans-Serif" font-size="10.00" fill="#000000"> </text>
<polyline fill="none" stroke="#000000" points="28,-19.5 131,-19.5 "/>
<text text-anchor="middle" x="79.5" y="-7.5" font-family="Helvetica,sans-Serif" font-size="10.00" fill="#000000"> </text>
</g>
<!-- Node2 -->
<g id="node2" class="node">
<title>Node2</title>
<polygon fill="none" stroke="#bfbfbf" points="0,-160.5 0,-217.5 61,-217.5 61,-160.5 0,-160.5"/>
<text text-anchor="middle" x="30.5" y="-205.5" font-family="Helvetica,sans-Serif" font-size="10.00" fill="#000000">unsigned</text>
<polyline fill="none" stroke="#bfbfbf" points="0,-198.5 61,-198.5 "/>
<text text-anchor="middle" x="30.5" y="-186.5" font-family="Helvetica,sans-Serif" font-size="10.00" fill="#000000"> </text>
<polyline fill="none" stroke="#bfbfbf" points="0,-179.5 61,-179.5 "/>
<text text-anchor="middle" x="30.5" y="-167.5" font-family="Helvetica,sans-Serif" font-size="10.00" fill="#000000"> </text>
</g>
<!-- Node2&#45;&gt;Node1 -->
<g id="edge1" class="edge">
<title>Node2&#45;&gt;Node1</title>
<path fill="none" stroke="#404040" d="M24.8784,-160.3762C21.5917,-136.7643 20.0523,-102.8973 31.5,-76 32.7832,-72.9851 34.3628,-70.0659 36.1583,-67.2577"/>
<polygon fill="none" stroke="#404040" points="36.2225,-67.1729 36.6516,-59.9745 43.4613,-57.6021 43.0321,-64.8004 36.2225,-67.1729"/>
<text text-anchor="middle" x="69.5" y="-134" font-family="Helvetica,sans-Serif" font-size="10.00" fill="#000000"> +layer</text>
<text text-anchor="middle" x="69.5" y="-123" font-family="Helvetica,sans-Serif" font-size="10.00" fill="#000000">+firstChipIDSW</text>
<text text-anchor="middle" x="69.5" y="-112" font-family="Helvetica,sans-Serif" font-size="10.00" fill="#000000">+idHW</text>
<text text-anchor="middle" x="69.5" y="-101" font-family="Helvetica,sans-Serif" font-size="10.00" fill="#000000">+ruType</text>
<text text-anchor="middle" x="69.5" y="-90" font-family="Helvetica,sans-Serif" font-size="10.00" fill="#000000">+idSW</text>
<text text-anchor="middle" x="69.5" y="-79" font-family="Helvetica,sans-Serif" font-size="10.00" fill="#000000">+nCables</text>
</g>
<!-- Node3 -->
<g id="node3" class="node">
<title>Node3</title>
<polygon fill="none" stroke="#bfbfbf" points="108,-160.5 108,-217.5 151,-217.5 151,-160.5 108,-160.5"/>
<text text-anchor="middle" x="129.5" y="-205.5" font-family="Helvetica,sans-Serif" font-size="10.00" fill="#000000">const</text>
<polyline fill="none" stroke="#bfbfbf" points="108,-198.5 151,-198.5 "/>
<text text-anchor="middle" x="129.5" y="-186.5" font-family="Helvetica,sans-Serif" font-size="10.00" fill="#000000"> </text>
<polyline fill="none" stroke="#bfbfbf" points="108,-179.5 151,-179.5 "/>
<text text-anchor="middle" x="129.5" y="-167.5" font-family="Helvetica,sans-Serif" font-size="10.00" fill="#000000"> </text>
</g>
<!-- Node3&#45;&gt;Node1 -->
<g id="edge2" class="edge">
<title>Node3&#45;&gt;Node1</title>
<path fill="none" stroke="#404040" d="M126.6915,-160.3889C123.7568,-137.0836 118.0526,-103.6335 107.5,-76 106.5364,-73.4767 105.4414,-70.9341 104.2561,-68.4075"/>
<polygon fill="none" stroke="#404040" points="104.1432,-68.1903 97.8266,-64.7117 98.6081,-57.5431 104.9247,-61.0217 104.1432,-68.1903"/>
<text text-anchor="middle" x="154" y="-112" font-family="Helvetica,sans-Serif" font-size="10.00" fill="#000000"> +DUMMY16</text>
<text text-anchor="middle" x="154" y="-101" font-family="Helvetica,sans-Serif" font-size="10.00" fill="#000000">+DUMMY8</text>
</g>
</g>
</svg>
