<?xml version="1.0" encoding="UTF-8" standalone="no"?>
<!DOCTYPE svg PUBLIC "-//W3C//DTD SVG 1.1//EN"
 "http://www.w3.org/Graphics/SVG/1.1/DTD/svg11.dtd">
<!-- Generated by graphviz version 2.40.1 (20161225.0304)
 -->
<!-- Title: ClusterData Pages: 1 -->
<svg width="106pt" height="248pt"
 viewBox="0.00 0.00 105.50 248.00" xmlns="http://www.w3.org/2000/svg" xmlns:xlink="http://www.w3.org/1999/xlink">
<g id="graph0" class="graph" transform="scale(1 1) rotate(0) translate(4 244)">
<title>ClusterData</title>
<!-- Node1 -->
<g id="node1" class="node">
<title>Node1</title>
<polygon fill="#bfbfbf" stroke="#000000" points="0,-.5 0,-79.5 93,-79.5 93,-.5 0,-.5"/>
<text text-anchor="middle" x="46.5" y="-67.5" font-family="Helvetica,sans-Serif" font-size="10.00" fill="#000000">ClusterData</text>
<polyline fill="none" stroke="#000000" points="0,-60.5 93,-60.5 "/>
<text text-anchor="middle" x="46.5" y="-48.5" font-family="Helvetica,sans-Serif" font-size="10.00" fill="#000000"> </text>
<polyline fill="none" stroke="#000000" points="0,-41.5 93,-41.5 "/>
<text text-anchor="start" x="8" y="-29.5" font-family="Helvetica,sans-Serif" font-size="10.00" fill="#000000">+ ClusterData()</text>
<text text-anchor="start" x="8" y="-18.5" font-family="Helvetica,sans-Serif" font-size="10.00" fill="#000000">+ ClusterData()</text>
<text text-anchor="start" x="8" y="-7.5" font-family="Helvetica,sans-Serif" font-size="10.00" fill="#000000">+ operator==()</text>
</g>
<!-- Node2 -->
<g id="node2" class="node">
<title>Node2</title>
<polygon fill="none" stroke="#bfbfbf" points="16,-182.5 16,-239.5 77,-239.5 77,-182.5 16,-182.5"/>
<text text-anchor="middle" x="46.5" y="-227.5" font-family="Helvetica,sans-Serif" font-size="10.00" fill="#000000">unsigned</text>
<polyline fill="none" stroke="#bfbfbf" points="16,-220.5 77,-220.5 "/>
<text text-anchor="middle" x="46.5" y="-208.5" font-family="Helvetica,sans-Serif" font-size="10.00" fill="#000000"> </text>
<polyline fill="none" stroke="#bfbfbf" points="16,-201.5 77,-201.5 "/>
<text text-anchor="middle" x="46.5" y="-189.5" font-family="Helvetica,sans-Serif" font-size="10.00" fill="#000000"> </text>
</g>
<!-- Node2&#45;&gt;Node1 -->
<g id="edge1" class="edge">
<title>Node2&#45;&gt;Node1</title>
<path fill="none" stroke="#404040" d="M46.5,-182.3784C46.5,-157.7535 46.5,-121.6083 46.5,-91.8995"/>
<polygon fill="none" stroke="#404040" points="46.5001,-91.6136 42.5,-85.6136 46.5,-79.6136 50.5,-85.6135 46.5001,-91.6136"/>
<text text-anchor="middle" x="72" y="-156" font-family="Helvetica,sans-Serif" font-size="10.00" fill="#000000"> +e</text>
<text text-anchor="middle" x="72" y="-145" font-family="Helvetica,sans-Serif" font-size="10.00" fill="#000000">+x</text>
<text text-anchor="middle" x="72" y="-134" font-family="Helvetica,sans-Serif" font-size="10.00" fill="#000000">+clusterid</text>
<text text-anchor="middle" x="72" y="-123" font-family="Helvetica,sans-Serif" font-size="10.00" fill="#000000">+y</text>
<text text-anchor="middle" x="72" y="-112" font-family="Helvetica,sans-Serif" font-size="10.00" fill="#000000">+z</text>
<text text-anchor="middle" x="72" y="-101" font-family="Helvetica,sans-Serif" font-size="10.00" fill="#000000">+magic</text>
</g>
</g>
</svg>
