<?xml version="1.0" encoding="UTF-8" standalone="no"?>
<!DOCTYPE svg PUBLIC "-//W3C//DTD SVG 1.1//EN"
 "http://www.w3.org/Graphics/SVG/1.1/DTD/svg11.dtd">
<!-- Generated by graphviz version 2.40.1 (20161225.0304)
 -->
<!-- Title: o2::itsmft::PixelReader Pages: 1 -->
<svg width="404pt" height="815pt"
 viewBox="0.00 0.00 403.50 815.00" xmlns="http://www.w3.org/2000/svg" xmlns:xlink="http://www.w3.org/1999/xlink">
<g id="graph0" class="graph" transform="scale(1 1) rotate(0) translate(4 811)">
<title>o2::itsmft::PixelReader</title>
<!-- Node5 -->
<g id="node1" class="node">
<title>Node5</title>
<polygon fill="#bfbfbf" stroke="#000000" points="66,-.5 66,-211.5 217,-211.5 217,-.5 66,-.5"/>
<text text-anchor="middle" x="141.5" y="-199.5" font-family="Helvetica,sans-Serif" font-size="10.00" fill="#000000">o2::itsmft::PixelReader</text>
<polyline fill="none" stroke="#000000" points="66,-192.5 217,-192.5 "/>
<text text-anchor="middle" x="141.5" y="-180.5" font-family="Helvetica,sans-Serif" font-size="10.00" fill="#000000"> </text>
<polyline fill="none" stroke="#000000" points="66,-173.5 217,-173.5 "/>
<text text-anchor="start" x="74" y="-161.5" font-family="Helvetica,sans-Serif" font-size="10.00" fill="#000000">+ PixelReader()</text>
<text text-anchor="start" x="74" y="-150.5" font-family="Helvetica,sans-Serif" font-size="10.00" fill="#000000">+ ~PixelReader()</text>
<text text-anchor="start" x="74" y="-139.5" font-family="Helvetica,sans-Serif" font-size="10.00" fill="#000000">+ PixelReader()</text>
<text text-anchor="start" x="74" y="-128.5" font-family="Helvetica,sans-Serif" font-size="10.00" fill="#000000">+ operator=()</text>
<text text-anchor="start" x="74" y="-117.5" font-family="Helvetica,sans-Serif" font-size="10.00" fill="#000000">+ init()</text>
<text text-anchor="start" x="74" y="-106.5" font-family="Helvetica,sans-Serif" font-size="10.00" fill="#000000">+ getNextChipData()</text>
<text text-anchor="start" x="74" y="-95.5" font-family="Helvetica,sans-Serif" font-size="10.00" fill="#000000">+ getNextChipData()</text>
<text text-anchor="start" x="74" y="-84.5" font-family="Helvetica,sans-Serif" font-size="10.00" fill="#000000">+ decodeNextTrigger()</text>
<text text-anchor="start" x="74" y="-73.5" font-family="Helvetica,sans-Serif" font-size="10.00" fill="#000000">+ getDigitsMCTruth()</text>
<text text-anchor="start" x="74" y="-62.5" font-family="Helvetica,sans-Serif" font-size="10.00" fill="#000000">+ getInteractionRecordHB()</text>
<text text-anchor="start" x="74" y="-51.5" font-family="Helvetica,sans-Serif" font-size="10.00" fill="#000000">+ getInteractionRecord()</text>
<text text-anchor="start" x="74" y="-40.5" font-family="Helvetica,sans-Serif" font-size="10.00" fill="#000000">+ getTrigger()</text>
<text text-anchor="start" x="74" y="-29.5" font-family="Helvetica,sans-Serif" font-size="10.00" fill="#000000">+ getDecodeNextAuto()</text>
<text text-anchor="start" x="74" y="-18.5" font-family="Helvetica,sans-Serif" font-size="10.00" fill="#000000">+ setDecodeNextAuto()</text>
<text text-anchor="start" x="74" y="-7.5" font-family="Helvetica,sans-Serif" font-size="10.00" fill="#000000"># ClassDef()</text>
</g>
<!-- Node6 -->
<g id="node2" class="node">
<title>Node6</title>
<g id="a_node2"><a xlink:href="../../d1/d21/structo2_1_1InteractionRecord.html" target="_top" xlink:title="{o2::InteractionRecord\n||+ InteractionRecord()\l+ InteractionRecord()\l+ InteractionRecord()\l+ InteractionRecord()\l+ clear()\l+ isDummy()\l+ setFromNS()\l+ bc2ns()\l+ operator==()\l+ operator!=()\l+ differenceInBC()\l+ toLong()\l+ setFromLong()\l+ operator\&gt;()\l+ operator\&gt;=()\l+ operator\&lt;()\l+ operator\&lt;=()\l+ operator&#45;&#45;()\l+ operator&#45;&#45;()\l+ operator++()\l+ operator++()\l+ operator+=()\l+ operator&#45;=()\l+ operator+=()\l+ operator&#45;=()\l+ operator+()\l+ operator&#45;()\l+ operator+()\l+ operator&#45;()\l+ print()\l+ asString()\l+ ClassDefNV()\l+ bc2ns()\l+ ns2bc()\l}">
<polygon fill="none" stroke="#000000" points="104,-270.5 104,-690.5 225,-690.5 225,-270.5 104,-270.5"/>
<text text-anchor="middle" x="164.5" y="-678.5" font-family="Helvetica,sans-Serif" font-size="10.00" fill="#000000">o2::InteractionRecord</text>
<polyline fill="none" stroke="#000000" points="104,-671.5 225,-671.5 "/>
<text text-anchor="middle" x="164.5" y="-659.5" font-family="Helvetica,sans-Serif" font-size="10.00" fill="#000000"> </text>
<polyline fill="none" stroke="#000000" points="104,-652.5 225,-652.5 "/>
<text text-anchor="start" x="112" y="-640.5" font-family="Helvetica,sans-Serif" font-size="10.00" fill="#000000">+ InteractionRecord()</text>
<text text-anchor="start" x="112" y="-629.5" font-family="Helvetica,sans-Serif" font-size="10.00" fill="#000000">+ InteractionRecord()</text>
<text text-anchor="start" x="112" y="-618.5" font-family="Helvetica,sans-Serif" font-size="10.00" fill="#000000">+ InteractionRecord()</text>
<text text-anchor="start" x="112" y="-607.5" font-family="Helvetica,sans-Serif" font-size="10.00" fill="#000000">+ InteractionRecord()</text>
<text text-anchor="start" x="112" y="-596.5" font-family="Helvetica,sans-Serif" font-size="10.00" fill="#000000">+ clear()</text>
<text text-anchor="start" x="112" y="-585.5" font-family="Helvetica,sans-Serif" font-size="10.00" fill="#000000">+ isDummy()</text>
<text text-anchor="start" x="112" y="-574.5" font-family="Helvetica,sans-Serif" font-size="10.00" fill="#000000">+ setFromNS()</text>
<text text-anchor="start" x="112" y="-563.5" font-family="Helvetica,sans-Serif" font-size="10.00" fill="#000000">+ bc2ns()</text>
<text text-anchor="start" x="112" y="-552.5" font-family="Helvetica,sans-Serif" font-size="10.00" fill="#000000">+ operator==()</text>
<text text-anchor="start" x="112" y="-541.5" font-family="Helvetica,sans-Serif" font-size="10.00" fill="#000000">+ operator!=()</text>
<text text-anchor="start" x="112" y="-530.5" font-family="Helvetica,sans-Serif" font-size="10.00" fill="#000000">+ differenceInBC()</text>
<text text-anchor="start" x="112" y="-519.5" font-family="Helvetica,sans-Serif" font-size="10.00" fill="#000000">+ toLong()</text>
<text text-anchor="start" x="112" y="-508.5" font-family="Helvetica,sans-Serif" font-size="10.00" fill="#000000">+ setFromLong()</text>
<text text-anchor="start" x="112" y="-497.5" font-family="Helvetica,sans-Serif" font-size="10.00" fill="#000000">+ operator&gt;()</text>
<text text-anchor="start" x="112" y="-486.5" font-family="Helvetica,sans-Serif" font-size="10.00" fill="#000000">+ operator&gt;=()</text>
<text text-anchor="start" x="112" y="-475.5" font-family="Helvetica,sans-Serif" font-size="10.00" fill="#000000">+ operator&lt;()</text>
<text text-anchor="start" x="112" y="-464.5" font-family="Helvetica,sans-Serif" font-size="10.00" fill="#000000">+ operator&lt;=()</text>
<text text-anchor="start" x="112" y="-453.5" font-family="Helvetica,sans-Serif" font-size="10.00" fill="#000000">+ operator&#45;&#45;()</text>
<text text-anchor="start" x="112" y="-442.5" font-family="Helvetica,sans-Serif" font-size="10.00" fill="#000000">+ operator&#45;&#45;()</text>
<text text-anchor="start" x="112" y="-431.5" font-family="Helvetica,sans-Serif" font-size="10.00" fill="#000000">+ operator++()</text>
<text text-anchor="start" x="112" y="-420.5" font-family="Helvetica,sans-Serif" font-size="10.00" fill="#000000">+ operator++()</text>
<text text-anchor="start" x="112" y="-409.5" font-family="Helvetica,sans-Serif" font-size="10.00" fill="#000000">+ operator+=()</text>
<text text-anchor="start" x="112" y="-398.5" font-family="Helvetica,sans-Serif" font-size="10.00" fill="#000000">+ operator&#45;=()</text>
<text text-anchor="start" x="112" y="-387.5" font-family="Helvetica,sans-Serif" font-size="10.00" fill="#000000">+ operator+=()</text>
<text text-anchor="start" x="112" y="-376.5" font-family="Helvetica,sans-Serif" font-size="10.00" fill="#000000">+ operator&#45;=()</text>
<text text-anchor="start" x="112" y="-365.5" font-family="Helvetica,sans-Serif" font-size="10.00" fill="#000000">+ operator+()</text>
<text text-anchor="start" x="112" y="-354.5" font-family="Helvetica,sans-Serif" font-size="10.00" fill="#000000">+ operator&#45;()</text>
<text text-anchor="start" x="112" y="-343.5" font-family="Helvetica,sans-Serif" font-size="10.00" fill="#000000">+ operator+()</text>
<text text-anchor="start" x="112" y="-332.5" font-family="Helvetica,sans-Serif" font-size="10.00" fill="#000000">+ operator&#45;()</text>
<text text-anchor="start" x="112" y="-321.5" font-family="Helvetica,sans-Serif" font-size="10.00" fill="#000000">+ print()</text>
<text text-anchor="start" x="112" y="-310.5" font-family="Helvetica,sans-Serif" font-size="10.00" fill="#000000">+ asString()</text>
<text text-anchor="start" x="112" y="-299.5" font-family="Helvetica,sans-Serif" font-size="10.00" fill="#000000">+ ClassDefNV()</text>
<text text-anchor="start" x="112" y="-288.5" font-family="Helvetica,sans-Serif" font-size="10.00" fill="#000000">+ bc2ns()</text>
<text text-anchor="start" x="112" y="-277.5" font-family="Helvetica,sans-Serif" font-size="10.00" fill="#000000">+ ns2bc()</text>
</a>
</g>
</g>
<!-- Node6&#45;&gt;Node5 -->
<g id="edge1" class="edge">
<title>Node6&#45;&gt;Node5</title>
<path fill="none" stroke="#404040" d="M143.5537,-270.4401C143.1656,-264.227 142.8124,-258.0696 142.5,-252 142.0283,-242.8334 141.67,-233.339 141.4025,-223.7927"/>
<polygon fill="none" stroke="#404040" points="141.4001,-223.6904 137.2565,-217.7887 141.1105,-211.6939 145.2541,-217.5956 141.4001,-223.6904"/>
<text text-anchor="middle" x="203" y="-244" font-family="Helvetica,sans-Serif" font-size="10.00" fill="#000000"> #mInteractionRecordHB</text>
<text text-anchor="middle" x="203" y="-233" font-family="Helvetica,sans-Serif" font-size="10.00" fill="#000000">#mInteractionRecord</text>
</g>
<!-- Node7 -->
<g id="node3" class="node">
<title>Node7</title>
<polygon fill="none" stroke="#bfbfbf" points="329.5,-749.5 329.5,-806.5 379.5,-806.5 379.5,-749.5 329.5,-749.5"/>
<text text-anchor="middle" x="354.5" y="-794.5" font-family="Helvetica,sans-Serif" font-size="10.00" fill="#000000">double</text>
<polyline fill="none" stroke="#bfbfbf" points="329.5,-787.5 379.5,-787.5 "/>
<text text-anchor="middle" x="354.5" y="-775.5" font-family="Helvetica,sans-Serif" font-size="10.00" fill="#000000"> </text>
<polyline fill="none" stroke="#bfbfbf" points="329.5,-768.5 379.5,-768.5 "/>
<text text-anchor="middle" x="354.5" y="-756.5" font-family="Helvetica,sans-Serif" font-size="10.00" fill="#000000"> </text>
</g>
<!-- Node7&#45;&gt;Node6 -->
<g id="edge2" class="edge">
<title>Node7&#45;&gt;Node6</title>
<path fill="none" stroke="#404040" d="M334.9033,-749.2344C324.6464,-735.7417 311.1769,-720.2062 296.5,-709 281.3267,-697.4148 270.8879,-704.6091 257.5,-691 248.0191,-681.3625 239.4198,-670.5949 231.6345,-659.1646"/>
<polygon fill="none" stroke="#404040" points="231.5416,-659.0216 224.9176,-656.1715 225.0008,-648.9608 231.6248,-651.811 231.5416,-659.0216"/>
<text text-anchor="middle" x="357.5" y="-717.5" font-family="Helvetica,sans-Serif" font-size="10.00" fill="#000000"> +DummyTime</text>
</g>
<!-- Node8 -->
<g id="node4" class="node">
<title>Node8</title>
<g id="a_node4"><a xlink:href="../../d2/d5f/classunsigned_01int.html" target="_top" xlink:title="{unsigned int\n||}">
<polygon fill="none" stroke="#000000" points="79,-749.5 79,-806.5 156,-806.5 156,-749.5 79,-749.5"/>
<text text-anchor="middle" x="117.5" y="-794.5" font-family="Helvetica,sans-Serif" font-size="10.00" fill="#000000">unsigned int</text>
<polyline fill="none" stroke="#000000" points="79,-787.5 156,-787.5 "/>
<text text-anchor="middle" x="117.5" y="-775.5" font-family="Helvetica,sans-Serif" font-size="10.00" fill="#000000"> </text>
<polyline fill="none" stroke="#000000" points="79,-768.5 156,-768.5 "/>
<text text-anchor="middle" x="117.5" y="-756.5" font-family="Helvetica,sans-Serif" font-size="10.00" fill="#000000"> </text>
</a>
</g>
</g>
<!-- Node8&#45;&gt;Node6 -->
<g id="edge3" class="edge">
<title>Node8&#45;&gt;Node6</title>
<path fill="none" stroke="#404040" d="M122.0066,-749.4744C124.0044,-736.8286 126.5493,-720.7201 129.3977,-702.69"/>
<polygon fill="none" stroke="#404040" points="129.438,-702.4342 126.4234,-695.8835 131.3107,-690.5812 134.3254,-697.1319 129.438,-702.4342"/>
<text text-anchor="middle" x="165" y="-717.5" font-family="Helvetica,sans-Serif" font-size="10.00" fill="#000000"> +DummyOrbit</text>
</g>
<!-- Node9 -->
<g id="node5" class="node">
<title>Node9</title>
<polygon fill="none" stroke="#bfbfbf" points="0,-749.5 0,-806.5 61,-806.5 61,-749.5 0,-749.5"/>
<text text-anchor="middle" x="30.5" y="-794.5" font-family="Helvetica,sans-Serif" font-size="10.00" fill="#000000">unsigned</text>
<polyline fill="none" stroke="#bfbfbf" points="0,-787.5 61,-787.5 "/>
<text text-anchor="middle" x="30.5" y="-775.5" font-family="Helvetica,sans-Serif" font-size="10.00" fill="#000000"> </text>
<polyline fill="none" stroke="#bfbfbf" points="0,-768.5 61,-768.5 "/>
<text text-anchor="middle" x="30.5" y="-756.5" font-family="Helvetica,sans-Serif" font-size="10.00" fill="#000000"> </text>
</g>
<!-- Node9&#45;&gt;Node5 -->
<g id="edge7" class="edge">
<title>Node9&#45;&gt;Node5</title>
<path fill="none" stroke="#404040" d="M25.9251,-749.4024C14.4363,-670.831 -11.1723,-445.8238 40.5,-270 45.3262,-253.5782 52.2604,-237.1666 60.2666,-221.4179"/>
<polygon fill="none" stroke="#404040" points="60.3614,-221.2385 59.6281,-214.0648 65.968,-210.6288 66.7012,-217.8026 60.3614,-221.2385"/>
<text text-anchor="middle" x="68" y="-478" font-family="Helvetica,sans-Serif" font-size="10.00" fill="#000000"> #mTrigger</text>
</g>
<!-- Node9&#45;&gt;Node6 -->
<g id="edge4" class="edge">
<title>Node9&#45;&gt;Node6</title>
<path fill="none" stroke="#404040" d="M52.6492,-749.3482C64.6495,-732.9069 79.1045,-711.5108 89.5,-691 92.7022,-684.6819 95.8291,-678.1944 98.8751,-671.5936"/>
<polygon fill="none" stroke="#404040" points="98.9944,-671.3288 97.8124,-664.2152 103.9242,-660.3881 105.1062,-667.5017 98.9944,-671.3288"/>
<text text-anchor="middle" x="94" y="-723" font-family="Helvetica,sans-Serif" font-size="10.00" fill="#000000"> +bc</text>
<text text-anchor="middle" x="94" y="-712" font-family="Helvetica,sans-Serif" font-size="10.00" fill="#000000">+orbit</text>
</g>
<!-- Node10 -->
<g id="node6" class="node">
<title>Node10</title>
<polygon fill="none" stroke="#bfbfbf" points="174,-749.5 174,-806.5 311,-806.5 311,-749.5 174,-749.5"/>
<text text-anchor="middle" x="242.5" y="-794.5" font-family="Helvetica,sans-Serif" font-size="10.00" fill="#000000">static constexpr uint16_t</text>
<polyline fill="none" stroke="#bfbfbf" points="174,-787.5 311,-787.5 "/>
<text text-anchor="middle" x="242.5" y="-775.5" font-family="Helvetica,sans-Serif" font-size="10.00" fill="#000000"> </text>
<polyline fill="none" stroke="#bfbfbf" points="174,-768.5 311,-768.5 "/>
<text text-anchor="middle" x="242.5" y="-756.5" font-family="Helvetica,sans-Serif" font-size="10.00" fill="#000000"> </text>
</g>
<!-- Node10&#45;&gt;Node6 -->
<g id="edge5" class="edge">
<title>Node10&#45;&gt;Node6</title>
<path fill="none" stroke="#404040" d="M235.021,-749.4744C231.6897,-736.7684 227.4418,-720.5667 222.6873,-702.4323"/>
<polygon fill="none" stroke="#404040" points="222.6235,-702.1889 217.2326,-697.3995 219.5801,-690.5812 224.971,-695.3706 222.6235,-702.1889"/>
<text text-anchor="middle" x="260.5" y="-717.5" font-family="Helvetica,sans-Serif" font-size="10.00" fill="#000000"> +DummyBC</text>
</g>
<!-- Node11 -->
<g id="node7" class="node">
<title>Node11</title>
<polygon fill="none" stroke="#bfbfbf" points="266.5,-452 266.5,-509 304.5,-509 304.5,-452 266.5,-452"/>
<text text-anchor="middle" x="285.5" y="-497" font-family="Helvetica,sans-Serif" font-size="10.00" fill="#000000">bool</text>
<polyline fill="none" stroke="#bfbfbf" points="266.5,-490 304.5,-490 "/>
<text text-anchor="middle" x="285.5" y="-478" font-family="Helvetica,sans-Serif" font-size="10.00" fill="#000000"> </text>
<polyline fill="none" stroke="#bfbfbf" points="266.5,-471 304.5,-471 "/>
<text text-anchor="middle" x="285.5" y="-459" font-family="Helvetica,sans-Serif" font-size="10.00" fill="#000000"> </text>
</g>
<!-- Node11&#45;&gt;Node5 -->
<g id="edge6" class="edge">
<title>Node11&#45;&gt;Node5</title>
<path fill="none" stroke="#404040" d="M289.0233,-451.8702C293.6819,-403.6202 297.7132,-304.1236 263.5,-230 254.3162,-210.1031 240.5369,-191.5232 225.505,-175.1122"/>
<polygon fill="none" stroke="#404040" points="225.3188,-174.9166 218.285,-173.3276 217.0464,-166.2236 224.0803,-167.8126 225.3188,-174.9166"/>
<text text-anchor="middle" x="322.5" y="-238.5" font-family="Helvetica,sans-Serif" font-size="10.00" fill="#000000"> #mDecodeNextAuto</text>
</g>
</g>
</svg>
