<?xml version="1.0" encoding="UTF-8" standalone="no"?>
<!DOCTYPE svg PUBLIC "-//W3C//DTD SVG 1.1//EN"
 "http://www.w3.org/Graphics/SVG/1.1/DTD/svg11.dtd">
<!-- Generated by graphviz version 2.40.1 (20161225.0304)
 -->
<!-- Title: o2::tof::compressed::CrateHeader_t Pages: 1 -->
<svg width="222pt" height="226pt"
 viewBox="0.00 0.00 221.50 226.00" xmlns="http://www.w3.org/2000/svg" xmlns:xlink="http://www.w3.org/1999/xlink">
<g id="graph0" class="graph" transform="scale(1 1) rotate(0) translate(4 222)">
<title>o2::tof::compressed::CrateHeader_t</title>
<!-- Node1 -->
<g id="node1" class="node">
<title>Node1</title>
<polygon fill="#bfbfbf" stroke="#000000" points="37,-.5 37,-68.5 150,-68.5 150,-.5 37,-.5"/>
<text text-anchor="start" x="45" y="-56.5" font-family="Helvetica,sans-Serif" font-size="10.00" fill="#000000">o2::tof::compressed</text>
<text text-anchor="middle" x="93.5" y="-45.5" font-family="Helvetica,sans-Serif" font-size="10.00" fill="#000000">::CrateHeader_t</text>
<polyline fill="none" stroke="#000000" points="37,-38.5 150,-38.5 "/>
<text text-anchor="middle" x="93.5" y="-26.5" font-family="Helvetica,sans-Serif" font-size="10.00" fill="#000000"> </text>
<polyline fill="none" stroke="#000000" points="37,-19.5 150,-19.5 "/>
<text text-anchor="middle" x="93.5" y="-7.5" font-family="Helvetica,sans-Serif" font-size="10.00" fill="#000000"> </text>
</g>
<!-- Node2 -->
<g id="node2" class="node">
<title>Node2</title>
<g id="a_node2"><a xlink:href="../../d2/d5f/classunsigned_01int.html" target="_top" xlink:title="{unsigned int\n||}">
<polygon fill="none" stroke="#000000" points="0,-160.5 0,-217.5 77,-217.5 77,-160.5 0,-160.5"/>
<text text-anchor="middle" x="38.5" y="-205.5" font-family="Helvetica,sans-Serif" font-size="10.00" fill="#000000">unsigned int</text>
<polyline fill="none" stroke="#000000" points="0,-198.5 77,-198.5 "/>
<text text-anchor="middle" x="38.5" y="-186.5" font-family="Helvetica,sans-Serif" font-size="10.00" fill="#000000"> </text>
<polyline fill="none" stroke="#000000" points="0,-179.5 77,-179.5 "/>
<text text-anchor="middle" x="38.5" y="-167.5" font-family="Helvetica,sans-Serif" font-size="10.00" fill="#000000"> </text>
</a>
</g>
</g>
<!-- Node2&#45;&gt;Node1 -->
<g id="edge1" class="edge">
<title>Node2&#45;&gt;Node1</title>
<path fill="none" stroke="#404040" d="M33.0286,-160.0859C30.375,-138.9711 29.5999,-110.1162 39.5,-87 40.7829,-84.0045 42.3278,-81.0947 44.0715,-78.2823"/>
<polygon fill="none" stroke="#404040" points="44.0912,-78.2551 44.3803,-71.0498 51.1426,-68.5455 50.8535,-75.7508 44.0912,-78.2551"/>
<text text-anchor="middle" x="83.5" y="-112" font-family="Helvetica,sans-Serif" font-size="10.00" fill="#000000"> +slotEnableMask</text>
</g>
<!-- Node3 -->
<g id="node3" class="node">
<title>Node3</title>
<polygon fill="none" stroke="#bfbfbf" points="119,-160.5 119,-217.5 180,-217.5 180,-160.5 119,-160.5"/>
<text text-anchor="middle" x="149.5" y="-205.5" font-family="Helvetica,sans-Serif" font-size="10.00" fill="#000000">unsigned</text>
<polyline fill="none" stroke="#bfbfbf" points="119,-198.5 180,-198.5 "/>
<text text-anchor="middle" x="149.5" y="-186.5" font-family="Helvetica,sans-Serif" font-size="10.00" fill="#000000"> </text>
<polyline fill="none" stroke="#bfbfbf" points="119,-179.5 180,-179.5 "/>
<text text-anchor="middle" x="149.5" y="-167.5" font-family="Helvetica,sans-Serif" font-size="10.00" fill="#000000"> </text>
</g>
<!-- Node3&#45;&gt;Node1 -->
<g id="edge2" class="edge">
<title>Node3&#45;&gt;Node1</title>
<path fill="none" stroke="#404040" d="M146.1661,-160.4673C143.0547,-139.5421 137.3648,-110.7574 127.5,-87 126.4108,-84.3768 125.1892,-81.7416 123.8737,-79.1243"/>
<polygon fill="none" stroke="#404040" points="123.8318,-79.0482 117.431,-75.7268 118.0351,-68.5411 124.4358,-71.8624 123.8318,-79.0482"/>
<text text-anchor="middle" x="178" y="-134" font-family="Helvetica,sans-Serif" font-size="10.00" fill="#000000"> +mustBeOne</text>
<text text-anchor="middle" x="178" y="-123" font-family="Helvetica,sans-Serif" font-size="10.00" fill="#000000">+drmID</text>
<text text-anchor="middle" x="178" y="-112" font-family="Helvetica,sans-Serif" font-size="10.00" fill="#000000">+undefined</text>
<text text-anchor="middle" x="178" y="-101" font-family="Helvetica,sans-Serif" font-size="10.00" fill="#000000">+slotPartMask</text>
<text text-anchor="middle" x="178" y="-90" font-family="Helvetica,sans-Serif" font-size="10.00" fill="#000000">+bunchID</text>
</g>
</g>
</svg>
