<?xml version="1.0" encoding="UTF-8" standalone="no"?>
<!DOCTYPE svg PUBLIC "-//W3C//DTD SVG 1.1//EN"
 "http://www.w3.org/Graphics/SVG/1.1/DTD/svg11.dtd">
<!-- Generated by graphviz version 2.40.1 (20161225.0304)
 -->
<!-- Title: o2::algorithm::TableView&lt; RowDescT, ColumnDescT, ParserT &gt;::iterator::value_type Pages: 1 -->
<svg width="272pt" height="320pt"
 viewBox="0.00 0.00 272.00 320.00" xmlns="http://www.w3.org/2000/svg" xmlns:xlink="http://www.w3.org/1999/xlink">
<g id="graph0" class="graph" transform="scale(1 1) rotate(0) translate(4 316)">
<title>o2::algorithm::TableView&lt; RowDescT, ColumnDescT, ParserT &gt;::iterator::value_type</title>
<!-- Node2 -->
<g id="node1" class="node">
<title>Node2</title>
<polygon fill="#bfbfbf" stroke="#000000" points="95,-.5 95,-79.5 264,-79.5 264,-.5 95,-.5"/>
<text text-anchor="start" x="103" y="-67.5" font-family="Helvetica,sans-Serif" font-size="10.00" fill="#000000">o2::algorithm::TableView</text>
<text text-anchor="start" x="103" y="-56.5" font-family="Helvetica,sans-Serif" font-size="10.00" fill="#000000">&lt; RowDescT, ColumnDescT,</text>
<text text-anchor="middle" x="179.5" y="-45.5" font-family="Helvetica,sans-Serif" font-size="10.00" fill="#000000"> ParserT &gt;::iterator::value_type</text>
<polyline fill="none" stroke="#000000" points="95,-38.5 264,-38.5 "/>
<text text-anchor="middle" x="179.5" y="-26.5" font-family="Helvetica,sans-Serif" font-size="10.00" fill="#000000"> </text>
<polyline fill="none" stroke="#000000" points="95,-19.5 264,-19.5 "/>
<text text-anchor="middle" x="179.5" y="-7.5" font-family="Helvetica,sans-Serif" font-size="10.00" fill="#000000"> </text>
</g>
<!-- Node3 -->
<g id="node2" class="node">
<title>Node3</title>
<g id="a_node2"><a xlink:href="../../d9/d66/structo2_1_1algorithm_1_1TableView_1_1FrameData.html" target="_top" xlink:title="descriptor pointing to payload of one frame ">
<polygon fill="none" stroke="#000000" points="6,-127.5 6,-206.5 161,-206.5 161,-127.5 6,-127.5"/>
<text text-anchor="start" x="14" y="-194.5" font-family="Helvetica,sans-Serif" font-size="10.00" fill="#000000">o2::algorithm::TableView</text>
<text text-anchor="start" x="14" y="-183.5" font-family="Helvetica,sans-Serif" font-size="10.00" fill="#000000">&lt; RowDescT, ColumnDescT,</text>
<text text-anchor="middle" x="83.5" y="-172.5" font-family="Helvetica,sans-Serif" font-size="10.00" fill="#000000"> ParserT &gt;::FrameData</text>
<polyline fill="none" stroke="#000000" points="6,-165.5 161,-165.5 "/>
<text text-anchor="middle" x="83.5" y="-153.5" font-family="Helvetica,sans-Serif" font-size="10.00" fill="#000000"> </text>
<polyline fill="none" stroke="#000000" points="6,-146.5 161,-146.5 "/>
<text text-anchor="middle" x="83.5" y="-134.5" font-family="Helvetica,sans-Serif" font-size="10.00" fill="#000000"> </text>
</a>
</g>
</g>
<!-- Node3&#45;&gt;Node2 -->
<g id="edge1" class="edge">
<title>Node3&#45;&gt;Node2</title>
<path fill="none" stroke="#191970" d="M119.9118,-118.8302C129.6762,-105.9127 140.1211,-92.095 149.4952,-79.6938"/>
<polygon fill="none" stroke="#191970" points="116.8497,-117.077 113.6116,-127.1649 122.4338,-121.2981 116.8497,-117.077"/>
</g>
<!-- Node4 -->
<g id="node3" class="node">
<title>Node4</title>
<polygon fill="none" stroke="#bfbfbf" points="0,-254.5 0,-311.5 85,-311.5 85,-254.5 0,-254.5"/>
<text text-anchor="middle" x="42.5" y="-299.5" font-family="Helvetica,sans-Serif" font-size="10.00" fill="#000000">unsigned char</text>
<polyline fill="none" stroke="#bfbfbf" points="0,-292.5 85,-292.5 "/>
<text text-anchor="middle" x="42.5" y="-280.5" font-family="Helvetica,sans-Serif" font-size="10.00" fill="#000000"> </text>
<polyline fill="none" stroke="#bfbfbf" points="0,-273.5 85,-273.5 "/>
<text text-anchor="middle" x="42.5" y="-261.5" font-family="Helvetica,sans-Serif" font-size="10.00" fill="#000000"> </text>
</g>
<!-- Node4&#45;&gt;Node3 -->
<g id="edge2" class="edge">
<title>Node4&#45;&gt;Node3</title>
<path fill="none" stroke="#404040" d="M52.6348,-254.3258C56.4805,-243.4455 60.9865,-230.6966 65.3488,-218.3545"/>
<polygon fill="none" stroke="#404040" points="65.4619,-218.0344 63.6901,-211.0444 69.4609,-206.7203 71.2328,-213.7104 65.4619,-218.0344"/>
<text text-anchor="middle" x="83.5" y="-228" font-family="Helvetica,sans-Serif" font-size="10.00" fill="#000000"> +buffer</text>
</g>
<!-- Node5 -->
<g id="node4" class="node">
<title>Node5</title>
<polygon fill="none" stroke="#bfbfbf" points="103,-254.5 103,-311.5 148,-311.5 148,-254.5 103,-254.5"/>
<text text-anchor="middle" x="125.5" y="-299.5" font-family="Helvetica,sans-Serif" font-size="10.00" fill="#000000">size_t</text>
<polyline fill="none" stroke="#bfbfbf" points="103,-292.5 148,-292.5 "/>
<text text-anchor="middle" x="125.5" y="-280.5" font-family="Helvetica,sans-Serif" font-size="10.00" fill="#000000"> </text>
<polyline fill="none" stroke="#bfbfbf" points="103,-273.5 148,-273.5 "/>
<text text-anchor="middle" x="125.5" y="-261.5" font-family="Helvetica,sans-Serif" font-size="10.00" fill="#000000"> </text>
</g>
<!-- Node5&#45;&gt;Node3 -->
<g id="edge3" class="edge">
<title>Node5&#45;&gt;Node3</title>
<path fill="none" stroke="#404040" d="M115.118,-254.3258C111.1785,-243.4455 106.5626,-230.6966 102.0939,-218.3545"/>
<polygon fill="none" stroke="#404040" points="101.9668,-218.0035 96.1631,-213.7237 97.8815,-206.7203 103.6852,-211.0001 101.9668,-218.0035"/>
<text text-anchor="middle" x="124" y="-228" font-family="Helvetica,sans-Serif" font-size="10.00" fill="#000000"> +size</text>
</g>
<!-- Node6 -->
<g id="node5" class="node">
<title>Node6</title>
<polygon fill="none" stroke="#bfbfbf" points="179,-138.5 179,-195.5 246,-195.5 246,-138.5 179,-138.5"/>
<text text-anchor="middle" x="212.5" y="-183.5" font-family="Helvetica,sans-Serif" font-size="10.00" fill="#000000">RowDescT</text>
<polyline fill="none" stroke="#bfbfbf" points="179,-176.5 246,-176.5 "/>
<text text-anchor="middle" x="212.5" y="-164.5" font-family="Helvetica,sans-Serif" font-size="10.00" fill="#000000"> </text>
<polyline fill="none" stroke="#bfbfbf" points="179,-157.5 246,-157.5 "/>
<text text-anchor="middle" x="212.5" y="-145.5" font-family="Helvetica,sans-Serif" font-size="10.00" fill="#000000"> </text>
</g>
<!-- Node6&#45;&gt;Node2 -->
<g id="edge4" class="edge">
<title>Node6&#45;&gt;Node2</title>
<path fill="none" stroke="#404040" d="M205.0942,-138.4987C201.5204,-124.7452 197.1189,-107.8063 192.98,-91.8775"/>
<polygon fill="none" stroke="#404040" points="192.9021,-91.5773 187.5216,-86.7762 189.8841,-79.963 195.2645,-84.7642 192.9021,-91.5773"/>
<text text-anchor="middle" x="213.5" y="-101" font-family="Helvetica,sans-Serif" font-size="10.00" fill="#000000"> +desc</text>
</g>
</g>
</svg>
