<?xml version="1.0" encoding="UTF-8" standalone="no"?>
<!DOCTYPE svg PUBLIC "-//W3C//DTD SVG 1.1//EN"
 "http://www.w3.org/Graphics/SVG/1.1/DTD/svg11.dtd">
<!-- Generated by graphviz version 2.40.1 (20161225.0304)
 -->
<!-- Title: CentralityQaTask Pages: 1 -->
<svg width="773pt" height="783pt"
 viewBox="0.00 0.00 773.35 783.00" xmlns="http://www.w3.org/2000/svg" xmlns:xlink="http://www.w3.org/1999/xlink">
<g id="graph0" class="graph" transform="scale(1 1) rotate(0) translate(4 779)">
<title>CentralityQaTask</title>
<!-- Node1 -->
<g id="node1" class="node">
<title>Node1</title>
<polygon fill="#bfbfbf" stroke="#000000" points="317.3466,-.5 317.3466,-57.5 417.3466,-57.5 417.3466,-.5 317.3466,-.5"/>
<text text-anchor="middle" x="367.3466" y="-45.5" font-family="Helvetica,sans-Serif" font-size="10.00" fill="#000000">CentralityQaTask</text>
<polyline fill="none" stroke="#000000" points="317.3466,-38.5 417.3466,-38.5 "/>
<text text-anchor="middle" x="367.3466" y="-26.5" font-family="Helvetica,sans-Serif" font-size="10.00" fill="#000000"> </text>
<polyline fill="none" stroke="#000000" points="317.3466,-19.5 417.3466,-19.5 "/>
<text text-anchor="start" x="325.3466" y="-7.5" font-family="Helvetica,sans-Serif" font-size="10.00" fill="#000000">+ process()</text>
</g>
<!-- Node2 -->
<g id="node2" class="node">
<title>Node2</title>
<g id="a_node2"><a xlink:href="../../d4/d79/structo2_1_1framework_1_1OutputObj.html" target="_top" xlink:title="{o2::framework::OutputObj\l\&lt; TH1F \&gt;\n||+ spec()\l+ OutputObj()\l+ OutputObj()\l+ setObject()\l+ setObject()\l+ setObject()\l+ setHash()\l+ operator&#45;\&gt;()\l+ operator*()\l+ ref()\l}">
<polygon fill="none" stroke="#000000" points="295.8466,-105.5 295.8466,-272.5 438.8466,-272.5 438.8466,-105.5 295.8466,-105.5"/>
<text text-anchor="start" x="303.8466" y="-260.5" font-family="Helvetica,sans-Serif" font-size="10.00" fill="#000000">o2::framework::OutputObj</text>
<text text-anchor="middle" x="367.3466" y="-249.5" font-family="Helvetica,sans-Serif" font-size="10.00" fill="#000000">&lt; TH1F &gt;</text>
<polyline fill="none" stroke="#000000" points="295.8466,-242.5 438.8466,-242.5 "/>
<text text-anchor="middle" x="367.3466" y="-230.5" font-family="Helvetica,sans-Serif" font-size="10.00" fill="#000000"> </text>
<polyline fill="none" stroke="#000000" points="295.8466,-223.5 438.8466,-223.5 "/>
<text text-anchor="start" x="303.8466" y="-211.5" font-family="Helvetica,sans-Serif" font-size="10.00" fill="#000000">+ spec()</text>
<text text-anchor="start" x="303.8466" y="-200.5" font-family="Helvetica,sans-Serif" font-size="10.00" fill="#000000">+ OutputObj()</text>
<text text-anchor="start" x="303.8466" y="-189.5" font-family="Helvetica,sans-Serif" font-size="10.00" fill="#000000">+ OutputObj()</text>
<text text-anchor="start" x="303.8466" y="-178.5" font-family="Helvetica,sans-Serif" font-size="10.00" fill="#000000">+ setObject()</text>
<text text-anchor="start" x="303.8466" y="-167.5" font-family="Helvetica,sans-Serif" font-size="10.00" fill="#000000">+ setObject()</text>
<text text-anchor="start" x="303.8466" y="-156.5" font-family="Helvetica,sans-Serif" font-size="10.00" fill="#000000">+ setObject()</text>
<text text-anchor="start" x="303.8466" y="-145.5" font-family="Helvetica,sans-Serif" font-size="10.00" fill="#000000">+ setHash()</text>
<text text-anchor="start" x="303.8466" y="-134.5" font-family="Helvetica,sans-Serif" font-size="10.00" fill="#000000">+ operator&#45;&gt;()</text>
<text text-anchor="start" x="303.8466" y="-123.5" font-family="Helvetica,sans-Serif" font-size="10.00" fill="#000000">+ operator*()</text>
<text text-anchor="start" x="303.8466" y="-112.5" font-family="Helvetica,sans-Serif" font-size="10.00" fill="#000000">+ ref()</text>
</a>
</g>
</g>
<!-- Node2&#45;&gt;Node1 -->
<g id="edge1" class="edge">
<title>Node2&#45;&gt;Node1</title>
<path fill="none" stroke="#404040" d="M367.3466,-105.2512C367.3466,-92.9694 367.3466,-80.8056 367.3466,-69.9212"/>
<polygon fill="none" stroke="#404040" points="367.3467,-69.8011 363.3466,-63.8012 367.3466,-57.8011 371.3466,-63.8011 367.3467,-69.8011"/>
<text text-anchor="middle" x="397.8466" y="-79" font-family="Helvetica,sans-Serif" font-size="10.00" fill="#000000"> +hCentV0M</text>
</g>
<!-- Node3 -->
<g id="node3" class="node">
<title>Node3</title>
<polygon fill="none" stroke="#bfbfbf" points="119.8466,-552 119.8466,-609 258.8466,-609 258.8466,-552 119.8466,-552"/>
<text text-anchor="middle" x="189.3466" y="-597" font-family="Helvetica,sans-Serif" font-size="10.00" fill="#000000">OutputObjHandlingPolicy</text>
<polyline fill="none" stroke="#bfbfbf" points="119.8466,-590 258.8466,-590 "/>
<text text-anchor="middle" x="189.3466" y="-578" font-family="Helvetica,sans-Serif" font-size="10.00" fill="#000000"> </text>
<polyline fill="none" stroke="#bfbfbf" points="119.8466,-571 258.8466,-571 "/>
<text text-anchor="middle" x="189.3466" y="-559" font-family="Helvetica,sans-Serif" font-size="10.00" fill="#000000"> </text>
</g>
<!-- Node3&#45;&gt;Node2 -->
<g id="edge2" class="edge">
<title>Node3&#45;&gt;Node2</title>
<path fill="none" stroke="#404040" d="M197.0925,-551.6453C200.5836,-537.8978 204.5423,-521.1783 207.3466,-506 222.49,-424.0352 193.8786,-394.456 231.3466,-320 244.5634,-293.7357 265.2119,-269.7955 286.4627,-249.7746"/>
<polygon fill="none" stroke="#404040" points="286.7276,-249.5326 288.4595,-242.5326 295.5872,-241.4388 293.8553,-248.4389 286.7276,-249.5326"/>
<text text-anchor="middle" x="251.8466" y="-396" font-family="Helvetica,sans-Serif" font-size="10.00" fill="#000000"> +policy</text>
</g>
<!-- Node11 -->
<g id="node11" class="node">
<title>Node11</title>
<g id="a_node11"><a xlink:href="../../d4/d79/structo2_1_1framework_1_1OutputObj.html" target="_top" xlink:title="{o2::framework::OutputObj\&lt; T \&gt;\n||+ OutputObj()\l+ OutputObj()\l+ setObject()\l+ setObject()\l+ setObject()\l+ setHash()\l+ spec()\l+ operator&#45;\&gt;()\l+ operator*()\l+ ref()\l}">
<polygon fill="none" stroke="#000000" points="281.3466,-320.5 281.3466,-476.5 453.3466,-476.5 453.3466,-320.5 281.3466,-320.5"/>
<text text-anchor="middle" x="367.3466" y="-464.5" font-family="Helvetica,sans-Serif" font-size="10.00" fill="#000000">o2::framework::OutputObj&lt; T &gt;</text>
<polyline fill="none" stroke="#000000" points="281.3466,-457.5 453.3466,-457.5 "/>
<text text-anchor="middle" x="367.3466" y="-445.5" font-family="Helvetica,sans-Serif" font-size="10.00" fill="#000000"> </text>
<polyline fill="none" stroke="#000000" points="281.3466,-438.5 453.3466,-438.5 "/>
<text text-anchor="start" x="289.3466" y="-426.5" font-family="Helvetica,sans-Serif" font-size="10.00" fill="#000000">+ OutputObj()</text>
<text text-anchor="start" x="289.3466" y="-415.5" font-family="Helvetica,sans-Serif" font-size="10.00" fill="#000000">+ OutputObj()</text>
<text text-anchor="start" x="289.3466" y="-404.5" font-family="Helvetica,sans-Serif" font-size="10.00" fill="#000000">+ setObject()</text>
<text text-anchor="start" x="289.3466" y="-393.5" font-family="Helvetica,sans-Serif" font-size="10.00" fill="#000000">+ setObject()</text>
<text text-anchor="start" x="289.3466" y="-382.5" font-family="Helvetica,sans-Serif" font-size="10.00" fill="#000000">+ setObject()</text>
<text text-anchor="start" x="289.3466" y="-371.5" font-family="Helvetica,sans-Serif" font-size="10.00" fill="#000000">+ setHash()</text>
<text text-anchor="start" x="289.3466" y="-360.5" font-family="Helvetica,sans-Serif" font-size="10.00" fill="#000000">+ spec()</text>
<text text-anchor="start" x="289.3466" y="-349.5" font-family="Helvetica,sans-Serif" font-size="10.00" fill="#000000">+ operator&#45;&gt;()</text>
<text text-anchor="start" x="289.3466" y="-338.5" font-family="Helvetica,sans-Serif" font-size="10.00" fill="#000000">+ operator*()</text>
<text text-anchor="start" x="289.3466" y="-327.5" font-family="Helvetica,sans-Serif" font-size="10.00" fill="#000000">+ ref()</text>
</a>
</g>
</g>
<!-- Node3&#45;&gt;Node11 -->
<g id="edge12" class="edge">
<title>Node3&#45;&gt;Node11</title>
<path fill="none" stroke="#404040" d="M217.5512,-551.6616C235.1874,-533.6291 258.9244,-509.3586 282.2974,-485.4604"/>
<polygon fill="none" stroke="#404040" points="282.4895,-485.2639 283.8251,-478.1776 290.88,-476.6849 289.5445,-483.7712 282.4895,-485.2639"/>
<text text-anchor="middle" x="288.8466" y="-498" font-family="Helvetica,sans-Serif" font-size="10.00" fill="#000000"> +policy</text>
</g>
<!-- Node4 -->
<g id="node4" class="node">
<title>Node4</title>
<polygon fill="none" stroke="#bfbfbf" points="395.8466,-701 395.8466,-758 424.8466,-758 424.8466,-701 395.8466,-701"/>
<text text-anchor="middle" x="410.3466" y="-746" font-family="Helvetica,sans-Serif" font-size="10.00" fill="#000000">int</text>
<polyline fill="none" stroke="#bfbfbf" points="395.8466,-739 424.8466,-739 "/>
<text text-anchor="middle" x="410.3466" y="-727" font-family="Helvetica,sans-Serif" font-size="10.00" fill="#000000"> </text>
<polyline fill="none" stroke="#bfbfbf" points="395.8466,-720 424.8466,-720 "/>
<text text-anchor="middle" x="410.3466" y="-708" font-family="Helvetica,sans-Serif" font-size="10.00" fill="#000000"> </text>
</g>
<!-- Node4&#45;&gt;Node2 -->
<g id="edge3" class="edge">
<title>Node4&#45;&gt;Node2</title>
<path fill="none" stroke="#404040" d="M395.571,-727.9252C334.086,-721.0513 99.6072,-691.5505 54.3466,-637 -36.0447,-528.0554 -3.7006,-430.0459 85.3466,-320 135.1362,-258.4692 220.3998,-224.4483 284.1689,-206.6095"/>
<polygon fill="none" stroke="#404040" points="284.2277,-206.5937 288.9768,-201.1673 295.8124,-203.4639 291.0633,-208.8904 284.2277,-206.5937"/>
<text text-anchor="middle" x="19.3466" y="-498" font-family="Helvetica,sans-Serif" font-size="10.00" fill="#000000"> +label</text>
</g>
<!-- Node6 -->
<g id="node6" class="node">
<title>Node6</title>
<g id="a_node6"><a xlink:href="../../da/d96/structo2_1_1framework_1_1InputSpec.html" target="_top" xlink:title="{o2::framework::InputSpec\n||+ InputSpec()\l+ InputSpec()\l+ InputSpec()\l+ InputSpec()\l+ InputSpec()\l+ operator==()\l}">
<polygon fill="none" stroke="#000000" points="464.3466,-524.5 464.3466,-636.5 606.3466,-636.5 606.3466,-524.5 464.3466,-524.5"/>
<text text-anchor="middle" x="535.3466" y="-624.5" font-family="Helvetica,sans-Serif" font-size="10.00" fill="#000000">o2::framework::InputSpec</text>
<polyline fill="none" stroke="#000000" points="464.3466,-617.5 606.3466,-617.5 "/>
<text text-anchor="middle" x="535.3466" y="-605.5" font-family="Helvetica,sans-Serif" font-size="10.00" fill="#000000"> </text>
<polyline fill="none" stroke="#000000" points="464.3466,-598.5 606.3466,-598.5 "/>
<text text-anchor="start" x="472.3466" y="-586.5" font-family="Helvetica,sans-Serif" font-size="10.00" fill="#000000">+ InputSpec()</text>
<text text-anchor="start" x="472.3466" y="-575.5" font-family="Helvetica,sans-Serif" font-size="10.00" fill="#000000">+ InputSpec()</text>
<text text-anchor="start" x="472.3466" y="-564.5" font-family="Helvetica,sans-Serif" font-size="10.00" fill="#000000">+ InputSpec()</text>
<text text-anchor="start" x="472.3466" y="-553.5" font-family="Helvetica,sans-Serif" font-size="10.00" fill="#000000">+ InputSpec()</text>
<text text-anchor="start" x="472.3466" y="-542.5" font-family="Helvetica,sans-Serif" font-size="10.00" fill="#000000">+ InputSpec()</text>
<text text-anchor="start" x="472.3466" y="-531.5" font-family="Helvetica,sans-Serif" font-size="10.00" fill="#000000">+ operator==()</text>
</a>
</g>
</g>
<!-- Node4&#45;&gt;Node6 -->
<g id="edge8" class="edge">
<title>Node4&#45;&gt;Node6</title>
<path fill="none" stroke="#404040" d="M424.9123,-704.8621C429.3066,-697.9393 434.3079,-690.5241 439.3466,-684 449.2916,-671.1231 460.5346,-657.9645 471.7335,-645.5363"/>
<polygon fill="none" stroke="#404040" points="471.772,-645.4941 472.8619,-638.3658 479.8611,-636.6302 478.7712,-643.7585 471.772,-645.4941"/>
<text text-anchor="middle" x="485.3466" y="-658" font-family="Helvetica,sans-Serif" font-size="10.00" fill="#000000"> +binding</text>
</g>
<!-- Node4&#45;&gt;Node11 -->
<g id="edge13" class="edge">
<title>Node4&#45;&gt;Node11</title>
<path fill="none" stroke="#404040" d="M409.2767,-700.8154C407.3128,-656.451 402.1921,-568.6219 390.3466,-495 389.9975,-492.8307 389.6262,-490.6379 389.2355,-488.4294"/>
<polygon fill="none" stroke="#404040" points="389.2118,-488.3033 384.166,-483.1516 386.9807,-476.5125 392.0265,-481.6643 389.2118,-488.3033"/>
<text text-anchor="middle" x="424.3466" y="-578" font-family="Helvetica,sans-Serif" font-size="10.00" fill="#000000"> +label</text>
</g>
<!-- Node5 -->
<g id="node5" class="node">
<title>Node5</title>
<polygon fill="none" stroke="#bfbfbf" points="63.3466,-552 63.3466,-609 101.3466,-609 101.3466,-552 63.3466,-552"/>
<text text-anchor="middle" x="82.3466" y="-597" font-family="Helvetica,sans-Serif" font-size="10.00" fill="#000000">bool</text>
<polyline fill="none" stroke="#bfbfbf" points="63.3466,-590 101.3466,-590 "/>
<text text-anchor="middle" x="82.3466" y="-578" font-family="Helvetica,sans-Serif" font-size="10.00" fill="#000000"> </text>
<polyline fill="none" stroke="#bfbfbf" points="63.3466,-571 101.3466,-571 "/>
<text text-anchor="middle" x="82.3466" y="-559" font-family="Helvetica,sans-Serif" font-size="10.00" fill="#000000"> </text>
</g>
<!-- Node5&#45;&gt;Node2 -->
<g id="edge4" class="edge">
<title>Node5&#45;&gt;Node2</title>
<path fill="none" stroke="#404040" d="M82.2577,-551.6497C83.5126,-500.1256 92.729,-391.0423 145.3466,-320 180.0534,-273.1402 236.9445,-240.0441 284.4444,-218.8407"/>
<polygon fill="none" stroke="#404040" points="284.6627,-218.746 288.5748,-212.6883 295.6711,-213.9695 291.7591,-220.0272 284.6627,-218.746"/>
<text text-anchor="middle" x="176.3466" y="-396" font-family="Helvetica,sans-Serif" font-size="10.00" fill="#000000"> +isdangling</text>
</g>
<!-- Node5&#45;&gt;Node11 -->
<g id="edge15" class="edge">
<title>Node5&#45;&gt;Node11</title>
<path fill="none" stroke="#404040" d="M91.4095,-551.72C95.7679,-541.7899 101.9238,-531.3312 110.3466,-524 164.9661,-476.4588 201.3958,-509.0134 266.3466,-477 267.7472,-476.3097 269.1471,-475.598 270.5452,-474.8668"/>
<polygon fill="none" stroke="#404040" points="270.7376,-474.7592 274.0235,-468.3403 281.2125,-468.9046 277.9266,-475.3236 270.7376,-474.7592"/>
<text text-anchor="middle" x="210.3466" y="-498" font-family="Helvetica,sans-Serif" font-size="10.00" fill="#000000"> +isdangling</text>
</g>
<!-- Node6&#45;&gt;Node2 -->
<g id="edge5" class="edge">
<title>Node6&#45;&gt;Node2</title>
<path fill="none" stroke="#404040" d="M513.9661,-524.4932C508.5049,-509.2091 502.8971,-492.5687 498.3466,-477 478.2624,-408.2864 491.9565,-385.1781 462.3466,-320 456.6274,-307.4107 449.5957,-294.82 441.9677,-282.6937"/>
<polygon fill="none" stroke="#404040" points="441.9676,-282.6936 435.3461,-279.8377 435.4356,-272.6271 442.0571,-275.483 441.9676,-282.6936"/>
<text text-anchor="middle" x="515.3466" y="-396" font-family="Helvetica,sans-Serif" font-size="10.00" fill="#000000"> +spec</text>
</g>
<!-- Node6&#45;&gt;Node11 -->
<g id="edge16" class="edge">
<title>Node6&#45;&gt;Node11</title>
<path fill="none" stroke="#404040" d="M463.8846,-526.8066C456.3296,-520.1028 448.9905,-513.0992 442.3466,-506 436.5203,-499.7745 430.7929,-493.0685 425.2602,-486.156"/>
<polygon fill="none" stroke="#404040" points="425.2151,-486.098 418.3734,-483.8194 417.8453,-476.6276 424.687,-478.9062 425.2151,-486.098"/>
<text text-anchor="middle" x="459.3466" y="-498" font-family="Helvetica,sans-Serif" font-size="10.00" fill="#000000"> +spec</text>
</g>
<!-- Node7 -->
<g id="node7" class="node">
<title>Node7</title>
<polygon fill="none" stroke="#bfbfbf" points="630.3466,-701 630.3466,-758 718.3466,-758 718.3466,-701 630.3466,-701"/>
<text text-anchor="middle" x="674.3466" y="-746" font-family="Helvetica,sans-Serif" font-size="10.00" fill="#000000">enum Lifetime</text>
<polyline fill="none" stroke="#bfbfbf" points="630.3466,-739 718.3466,-739 "/>
<text text-anchor="middle" x="674.3466" y="-727" font-family="Helvetica,sans-Serif" font-size="10.00" fill="#000000"> </text>
<polyline fill="none" stroke="#bfbfbf" points="630.3466,-720 718.3466,-720 "/>
<text text-anchor="middle" x="674.3466" y="-708" font-family="Helvetica,sans-Serif" font-size="10.00" fill="#000000"> </text>
</g>
<!-- Node7&#45;&gt;Node6 -->
<g id="edge6" class="edge">
<title>Node7&#45;&gt;Node6</title>
<path fill="none" stroke="#404040" d="M647.546,-700.7713C632.8373,-685.0044 613.9626,-664.7719 595.9066,-645.4168"/>
<polygon fill="none" stroke="#404040" points="595.8718,-645.3796 588.8541,-643.7208 587.6861,-636.6049 594.7038,-638.2637 595.8718,-645.3796"/>
<text text-anchor="middle" x="637.3466" y="-658" font-family="Helvetica,sans-Serif" font-size="10.00" fill="#000000"> +lifetime</text>
</g>
<!-- Node8 -->
<g id="node8" class="node">
<title>Node8</title>
<polygon fill="none" stroke="#bfbfbf" points="448.3466,-684.5 448.3466,-774.5 612.3466,-774.5 612.3466,-684.5 448.3466,-684.5"/>
<text text-anchor="start" x="456.3466" y="-762.5" font-family="Helvetica,sans-Serif" font-size="10.00" fill="#000000">variant&lt; o2::framework</text>
<text text-anchor="start" x="456.3466" y="-751.5" font-family="Helvetica,sans-Serif" font-size="10.00" fill="#000000">::ConcreteDataMatcher,</text>
<text text-anchor="start" x="456.3466" y="-740.5" font-family="Helvetica,sans-Serif" font-size="10.00" fill="#000000"> o2::framework::data_matcher</text>
<text text-anchor="middle" x="530.3466" y="-729.5" font-family="Helvetica,sans-Serif" font-size="10.00" fill="#000000">::DataDescriptorMatcher &gt;</text>
<polyline fill="none" stroke="#bfbfbf" points="448.3466,-722.5 612.3466,-722.5 "/>
<text text-anchor="middle" x="530.3466" y="-710.5" font-family="Helvetica,sans-Serif" font-size="10.00" fill="#000000"> </text>
<polyline fill="none" stroke="#bfbfbf" points="448.3466,-703.5 612.3466,-703.5 "/>
<text text-anchor="middle" x="530.3466" y="-691.5" font-family="Helvetica,sans-Serif" font-size="10.00" fill="#000000"> </text>
</g>
<!-- Node8&#45;&gt;Node6 -->
<g id="edge7" class="edge">
<title>Node8&#45;&gt;Node6</title>
<path fill="none" stroke="#404040" d="M531.8603,-684.3907C532.2397,-673.0845 532.6552,-660.7027 533.063,-648.5514"/>
<polygon fill="none" stroke="#404040" points="533.064,-648.5186 529.2675,-642.3878 533.4665,-636.5254 537.263,-642.6562 533.064,-648.5186"/>
<text text-anchor="middle" x="558.3466" y="-658" font-family="Helvetica,sans-Serif" font-size="10.00" fill="#000000"> +matcher</text>
</g>
<!-- Node9 -->
<g id="node9" class="node">
<title>Node9</title>
<polygon fill="none" stroke="#bfbfbf" points="643.8466,-552 643.8466,-609 704.8466,-609 704.8466,-552 643.8466,-552"/>
<text text-anchor="middle" x="674.3466" y="-597" font-family="Helvetica,sans-Serif" font-size="10.00" fill="#000000">unsigned</text>
<polyline fill="none" stroke="#bfbfbf" points="643.8466,-590 704.8466,-590 "/>
<text text-anchor="middle" x="674.3466" y="-578" font-family="Helvetica,sans-Serif" font-size="10.00" fill="#000000"> </text>
<polyline fill="none" stroke="#bfbfbf" points="643.8466,-571 704.8466,-571 "/>
<text text-anchor="middle" x="674.3466" y="-559" font-family="Helvetica,sans-Serif" font-size="10.00" fill="#000000"> </text>
</g>
<!-- Node9&#45;&gt;Node2 -->
<g id="edge9" class="edge">
<title>Node9&#45;&gt;Node2</title>
<path fill="none" stroke="#404040" d="M682.6238,-551.6871C695.5731,-500.2224 714.4819,-391.23 666.3466,-320 617.9768,-248.423 521.2006,-215.6398 450.813,-200.8291"/>
<polygon fill="none" stroke="#404040" points="450.6421,-200.7949 443.9726,-203.5369 438.8764,-198.4351 445.5458,-195.6931 450.6421,-200.7949"/>
<text text-anchor="middle" x="731.3466" y="-396" font-family="Helvetica,sans-Serif" font-size="10.00" fill="#000000"> +mTaskHash</text>
</g>
<!-- Node9&#45;&gt;Node11 -->
<g id="edge17" class="edge">
<title>Node9&#45;&gt;Node11</title>
<path fill="none" stroke="#404040" d="M649.4871,-551.7763C639.6798,-541.8523 627.7865,-531.3831 615.3466,-524 555.9972,-488.7762 528.3537,-509.2676 467.3466,-477 466.3436,-476.4695 465.3406,-475.9287 464.338,-475.3781"/>
<polygon fill="none" stroke="#404040" points="463.9956,-475.1786 456.7976,-475.6133 453.6279,-469.1362 460.8259,-468.7015 463.9956,-475.1786"/>
<text text-anchor="middle" x="607.3466" y="-498" font-family="Helvetica,sans-Serif" font-size="10.00" fill="#000000"> +mTaskHash</text>
</g>
<!-- Node10 -->
<g id="node10" class="node">
<title>Node10</title>
<polygon fill="none" stroke="#bfbfbf" points="541.3466,-370 541.3466,-427 657.3466,-427 657.3466,-370 541.3466,-370"/>
<text text-anchor="middle" x="599.3466" y="-415" font-family="Helvetica,sans-Serif" font-size="10.00" fill="#000000">shared_ptr&lt; TH1F &gt;</text>
<polyline fill="none" stroke="#bfbfbf" points="541.3466,-408 657.3466,-408 "/>
<text text-anchor="middle" x="599.3466" y="-396" font-family="Helvetica,sans-Serif" font-size="10.00" fill="#000000"> </text>
<polyline fill="none" stroke="#bfbfbf" points="541.3466,-389 657.3466,-389 "/>
<text text-anchor="middle" x="599.3466" y="-377" font-family="Helvetica,sans-Serif" font-size="10.00" fill="#000000"> </text>
</g>
<!-- Node10&#45;&gt;Node2 -->
<g id="edge10" class="edge">
<title>Node10&#45;&gt;Node2</title>
<path fill="none" stroke="#404040" d="M576.311,-369.6972C557.6984,-347.196 530.2582,-315.7051 503.3466,-291 486.4058,-275.4483 467.1786,-259.9142 448.626,-245.8278"/>
<polygon fill="none" stroke="#404040" points="448.5974,-245.8063 441.3976,-245.4023 439.0014,-238.601 446.2012,-239.005 448.5974,-245.8063"/>
<text text-anchor="middle" x="535.3466" y="-294" font-family="Helvetica,sans-Serif" font-size="10.00" fill="#000000"> +object</text>
</g>
<!-- Node11&#45;&gt;Node2 -->
<g id="edge11" class="edge">
<title>Node11&#45;&gt;Node2</title>
<path fill="none" stroke="#ffa500" d="M367.3466,-310.1539C367.3466,-297.7421 367.3466,-285.0152 367.3466,-272.6937"/>
<polygon fill="#ffa500" stroke="#ffa500" points="363.8467,-310.4899 367.3466,-320.4899 370.8467,-310.49 363.8467,-310.4899"/>
<text text-anchor="middle" x="392.8466" y="-294" font-family="Helvetica,sans-Serif" font-size="10.00" fill="#000000"> &lt; TH1F &gt;</text>
</g>
<!-- Node12 -->
<g id="node12" class="node">
<title>Node12</title>
<polygon fill="none" stroke="#bfbfbf" points="276.8466,-552 276.8466,-609 373.8466,-609 373.8466,-552 276.8466,-552"/>
<text text-anchor="middle" x="325.3466" y="-597" font-family="Helvetica,sans-Serif" font-size="10.00" fill="#000000">shared_ptr&lt; T &gt;</text>
<polyline fill="none" stroke="#bfbfbf" points="276.8466,-590 373.8466,-590 "/>
<text text-anchor="middle" x="325.3466" y="-578" font-family="Helvetica,sans-Serif" font-size="10.00" fill="#000000"> </text>
<polyline fill="none" stroke="#bfbfbf" points="276.8466,-571 373.8466,-571 "/>
<text text-anchor="middle" x="325.3466" y="-559" font-family="Helvetica,sans-Serif" font-size="10.00" fill="#000000"> </text>
</g>
<!-- Node12&#45;&gt;Node11 -->
<g id="edge14" class="edge">
<title>Node12&#45;&gt;Node11</title>
<path fill="none" stroke="#404040" d="M332.0016,-551.6616C335.9804,-534.42 341.2753,-511.4756 346.5528,-488.6065"/>
<polygon fill="none" stroke="#404040" points="346.6055,-488.3776 344.0572,-481.6318 349.3039,-476.6849 351.8523,-483.4307 346.6055,-488.3776"/>
<text text-anchor="middle" x="365.3466" y="-498" font-family="Helvetica,sans-Serif" font-size="10.00" fill="#000000"> +object</text>
</g>
</g>
</svg>
