<?xml version="1.0" encoding="UTF-8" standalone="no"?>
<!DOCTYPE svg PUBLIC "-//W3C//DTD SVG 1.1//EN"
 "http://www.w3.org/Graphics/SVG/1.1/DTD/svg11.dtd">
<!-- Generated by graphviz version 2.40.1 (20161225.0304)
 -->
<!-- Title: o2::mid::ColumnDataMC Pages: 1 -->
<svg width="211pt" height="376pt"
 viewBox="0.00 0.00 211.00 376.00" xmlns="http://www.w3.org/2000/svg" xmlns:xlink="http://www.w3.org/1999/xlink">
<g id="graph0" class="graph" transform="scale(1 1) rotate(0) translate(4 372)">
<title>o2::mid::ColumnDataMC</title>
<!-- Node2 -->
<g id="node1" class="node">
<title>Node2</title>
<polygon fill="#bfbfbf" stroke="#000000" points="43.5,-.5 43.5,-57.5 178.5,-57.5 178.5,-.5 43.5,-.5"/>
<text text-anchor="middle" x="111" y="-45.5" font-family="Helvetica,sans-Serif" font-size="10.00" fill="#000000">o2::mid::ColumnDataMC</text>
<polyline fill="none" stroke="#000000" points="43.5,-38.5 178.5,-38.5 "/>
<text text-anchor="middle" x="111" y="-26.5" font-family="Helvetica,sans-Serif" font-size="10.00" fill="#000000"> </text>
<polyline fill="none" stroke="#000000" points="43.5,-19.5 178.5,-19.5 "/>
<text text-anchor="middle" x="111" y="-7.5" font-family="Helvetica,sans-Serif" font-size="10.00" fill="#000000"> </text>
</g>
<!-- Node3 -->
<g id="node2" class="node">
<title>Node3</title>
<g id="a_node2"><a xlink:href="../../da/d9c/structo2_1_1mid_1_1ColumnData.html" target="_top" xlink:title="Column data structure for MID. ">
<polygon fill="none" stroke="#000000" points="46,-95.5 46,-251.5 176,-251.5 176,-95.5 46,-95.5"/>
<text text-anchor="middle" x="111" y="-239.5" font-family="Helvetica,sans-Serif" font-size="10.00" fill="#000000">o2::mid::ColumnData</text>
<polyline fill="none" stroke="#000000" points="46,-232.5 176,-232.5 "/>
<text text-anchor="middle" x="111" y="-220.5" font-family="Helvetica,sans-Serif" font-size="10.00" fill="#000000"> </text>
<polyline fill="none" stroke="#000000" points="46,-213.5 176,-213.5 "/>
<text text-anchor="start" x="54" y="-201.5" font-family="Helvetica,sans-Serif" font-size="10.00" fill="#000000">+ setBendPattern()</text>
<text text-anchor="start" x="54" y="-190.5" font-family="Helvetica,sans-Serif" font-size="10.00" fill="#000000">+ getBendPattern()</text>
<text text-anchor="start" x="54" y="-179.5" font-family="Helvetica,sans-Serif" font-size="10.00" fill="#000000">+ setNonBendPattern()</text>
<text text-anchor="start" x="54" y="-168.5" font-family="Helvetica,sans-Serif" font-size="10.00" fill="#000000">+ getNonBendPattern()</text>
<text text-anchor="start" x="54" y="-157.5" font-family="Helvetica,sans-Serif" font-size="10.00" fill="#000000">+ setPattern()</text>
<text text-anchor="start" x="54" y="-146.5" font-family="Helvetica,sans-Serif" font-size="10.00" fill="#000000">+ getPattern()</text>
<text text-anchor="start" x="54" y="-135.5" font-family="Helvetica,sans-Serif" font-size="10.00" fill="#000000">+ addStrip()</text>
<text text-anchor="start" x="54" y="-124.5" font-family="Helvetica,sans-Serif" font-size="10.00" fill="#000000">+ isNBPStripFired()</text>
<text text-anchor="start" x="54" y="-113.5" font-family="Helvetica,sans-Serif" font-size="10.00" fill="#000000">+ isBPStripFired()</text>
<text text-anchor="start" x="54" y="-102.5" font-family="Helvetica,sans-Serif" font-size="10.00" fill="#000000">+ isStripFired()</text>
</a>
</g>
</g>
<!-- Node3&#45;&gt;Node2 -->
<g id="edge1" class="edge">
<title>Node3&#45;&gt;Node2</title>
<path fill="none" stroke="#191970" d="M111,-85.0267C111,-75.2547 111,-65.9002 111,-57.7294"/>
<polygon fill="none" stroke="#191970" points="107.5001,-85.3291 111,-95.3292 114.5001,-85.3292 107.5001,-85.3291"/>
</g>
<!-- Node4 -->
<g id="node3" class="node">
<title>Node4</title>
<polygon fill="none" stroke="#bfbfbf" points="0,-310.5 0,-367.5 116,-367.5 116,-310.5 0,-310.5"/>
<text text-anchor="middle" x="58" y="-355.5" font-family="Helvetica,sans-Serif" font-size="10.00" fill="#000000">array&lt; uint16_t, 5 &gt;</text>
<polyline fill="none" stroke="#bfbfbf" points="0,-348.5 116,-348.5 "/>
<text text-anchor="middle" x="58" y="-336.5" font-family="Helvetica,sans-Serif" font-size="10.00" fill="#000000"> </text>
<polyline fill="none" stroke="#bfbfbf" points="0,-329.5 116,-329.5 "/>
<text text-anchor="middle" x="58" y="-317.5" font-family="Helvetica,sans-Serif" font-size="10.00" fill="#000000"> </text>
</g>
<!-- Node4&#45;&gt;Node3 -->
<g id="edge2" class="edge">
<title>Node4&#45;&gt;Node3</title>
<path fill="none" stroke="#404040" d="M67.2319,-310.1721C71.473,-296.9287 76.7592,-280.4217 82.176,-263.5071"/>
<polygon fill="none" stroke="#404040" points="82.2758,-263.1953 80.2963,-256.2612 85.9357,-251.767 87.9151,-258.7011 82.2758,-263.1953"/>
<text text-anchor="middle" x="106" y="-278.5" font-family="Helvetica,sans-Serif" font-size="10.00" fill="#000000"> +patterns</text>
</g>
<!-- Node5 -->
<g id="node4" class="node">
<title>Node5</title>
<polygon fill="none" stroke="#bfbfbf" points="134.5,-310.5 134.5,-367.5 195.5,-367.5 195.5,-310.5 134.5,-310.5"/>
<text text-anchor="middle" x="165" y="-355.5" font-family="Helvetica,sans-Serif" font-size="10.00" fill="#000000">unsigned</text>
<polyline fill="none" stroke="#bfbfbf" points="134.5,-348.5 195.5,-348.5 "/>
<text text-anchor="middle" x="165" y="-336.5" font-family="Helvetica,sans-Serif" font-size="10.00" fill="#000000"> </text>
<polyline fill="none" stroke="#bfbfbf" points="134.5,-329.5 195.5,-329.5 "/>
<text text-anchor="middle" x="165" y="-317.5" font-family="Helvetica,sans-Serif" font-size="10.00" fill="#000000"> </text>
</g>
<!-- Node5&#45;&gt;Node3 -->
<g id="edge3" class="edge">
<title>Node5&#45;&gt;Node3</title>
<path fill="none" stroke="#404040" d="M155.5939,-310.1721C151.2728,-296.9287 145.8868,-280.4217 140.3679,-263.5071"/>
<polygon fill="none" stroke="#404040" points="140.2596,-263.1751 134.5957,-258.7118 136.5373,-251.767 142.2011,-256.2302 140.2596,-263.1751"/>
<text text-anchor="middle" x="176" y="-284" font-family="Helvetica,sans-Serif" font-size="10.00" fill="#000000"> +deId</text>
<text text-anchor="middle" x="176" y="-273" font-family="Helvetica,sans-Serif" font-size="10.00" fill="#000000">+columnId</text>
</g>
</g>
</svg>
