<?xml version="1.0" encoding="UTF-8" standalone="no"?>
<!DOCTYPE svg PUBLIC "-//W3C//DTD SVG 1.1//EN"
 "http://www.w3.org/Graphics/SVG/1.1/DTD/svg11.dtd">
<!-- Generated by graphviz version 2.40.1 (20161225.0304)
 -->
<!-- Title: o2::tpc::ClusterIndexBuffer Pages: 1 -->
<!--zoomable 683 -->
<svg id="main" version="1.1" xmlns="http://www.w3.org/2000/svg" xmlns:xlink="http://www.w3.org/1999/xlink" xml:space="preserve" onload="init(evt)">
<style type="text/css"><![CDATA[
.edge:hover path { stroke: red; }
.edge:hover polygon { stroke: red; fill: red; }
]]></style>
<script type="text/javascript"><![CDATA[
var edges = document.getElementsByTagName('g');
if (edges && edges.length) {
  for (var i=0;i<edges.length;i++) {
    if (edges[i].id.substr(0,4)=='edge') {
      edges[i].setAttribute('class','edge');
    }
  }
}
]]></script>
        <defs>
                <circle id="rim" cx="0" cy="0" r="7"/>
                <circle id="rim2" cx="0" cy="0" r="3.5"/>
                <g id="zoomPlus">
                        <use xlink:href="#rim" fill="#404040">
                                <set attributeName="fill" to="#808080" begin="zoomplus.mouseover" end="zoomplus.mouseout"/>
                        </use>
                        <path d="M-4,0h8M0,-4v8" fill="none" stroke="white" stroke-width="1.5" pointer-events="none"/>
                </g>
                <g id="zoomMin">
                        <use xlink:href="#rim" fill="#404040">
                                <set attributeName="fill" to="#808080" begin="zoomminus.mouseover" end="zoomminus.mouseout"/>
                        </use>
                        <path d="M-4,0h8" fill="none" stroke="white" stroke-width="1.5" pointer-events="none"/>
                </g>
                <g id="dirArrow">
                        <path fill="none" stroke="white" stroke-width="1.5" d="M0,-3.0v7 M-2.5,-0.5L0,-3.0L2.5,-0.5"/>
                </g>
               <g id="resetDef">
                       <use xlink:href="#rim2" fill="#404040">
                               <set attributeName="fill" to="#808080" begin="reset.mouseover" end="reset.mouseout"/>
                       </use>
               </g>
        </defs>

<script type="text/javascript">
var viewWidth = 441;
var viewHeight = 683;
var sectionId = 'dynsection-0';
</script>
<script xlink:href="../../svgpan.js"/>
<svg id="graph" class="graph">
<g id="viewport">
<title>o2::tpc::ClusterIndexBuffer</title>
<!-- Node1 -->
<g id="node1" class="node">
<title>Node1</title>
<polygon fill="#bfbfbf" stroke="#000000" points="223.5,-.5 223.5,-90.5 369.5,-90.5 369.5,-.5 223.5,-.5"/>
<text text-anchor="middle" x="296.5" y="-78.5" font-family="Helvetica,sans-Serif" font-size="10.00" fill="#000000">o2::tpc::ClusterIndexBuffer</text>
<polyline fill="none" stroke="#000000" points="223.5,-71.5 369.5,-71.5 "/>
<text text-anchor="middle" x="296.5" y="-59.5" font-family="Helvetica,sans-Serif" font-size="10.00" fill="#000000"> </text>
<polyline fill="none" stroke="#000000" points="223.5,-52.5 369.5,-52.5 "/>
<text text-anchor="start" x="231.5" y="-40.5" font-family="Helvetica,sans-Serif" font-size="10.00" fill="#000000">+ getNClusters()</text>
<text text-anchor="start" x="231.5" y="-29.5" font-family="Helvetica,sans-Serif" font-size="10.00" fill="#000000">+ getFlatSize()</text>
<text text-anchor="start" x="231.5" y="-18.5" font-family="Helvetica,sans-Serif" font-size="10.00" fill="#000000">+ data()</text>
<text text-anchor="start" x="231.5" y="-7.5" font-family="Helvetica,sans-Serif" font-size="10.00" fill="#000000">+ data()</text>
</g>
<!-- Node2 -->
<g id="node2" class="node">
<title>Node2</title>
<g id="a_node2"><a xlink:href="../../dc/dbc/structo2_1_1tpc_1_1ClusterNative.html" target="_top" xlink:title="{o2::tpc::ClusterNative\n||+ GPUd()\l+ GPUd()\l+ GPUd()\l+ GPUd()\l+ GPUdDefault()\l+ GPUd()\l+ sigmaTimePacked()\l+ sigmaPadPacked()\l+ qMax()\l+ qTot()\l+ GPUd()\l+ GPUd()\l+ GPUd()\l+ GPUd()\l+ GPUd()\l+ GPUd()\l+ GPUd()\l+ GPUd()\l+ GPUd()\l+ GPUd()\l+ GPUd()\l+ GPUd()\l+ GPUd()\l+ GPUd()\l+ GPUd()\l+ GPUd()\l+ GPUd()\l+ GPUd()\l+ GPUd()\l}">
<polygon fill="none" stroke="#000000" points="141,-138.5 141,-503.5 266,-503.5 266,-138.5 141,-138.5"/>
<text text-anchor="middle" x="203.5" y="-491.5" font-family="Helvetica,sans-Serif" font-size="10.00" fill="#000000">o2::tpc::ClusterNative</text>
<polyline fill="none" stroke="#000000" points="141,-484.5 266,-484.5 "/>
<text text-anchor="middle" x="203.5" y="-472.5" font-family="Helvetica,sans-Serif" font-size="10.00" fill="#000000"> </text>
<polyline fill="none" stroke="#000000" points="141,-465.5 266,-465.5 "/>
<text text-anchor="start" x="149" y="-453.5" font-family="Helvetica,sans-Serif" font-size="10.00" fill="#000000">+ GPUd()</text>
<text text-anchor="start" x="149" y="-442.5" font-family="Helvetica,sans-Serif" font-size="10.00" fill="#000000">+ GPUd()</text>
<text text-anchor="start" x="149" y="-431.5" font-family="Helvetica,sans-Serif" font-size="10.00" fill="#000000">+ GPUd()</text>
<text text-anchor="start" x="149" y="-420.5" font-family="Helvetica,sans-Serif" font-size="10.00" fill="#000000">+ GPUd()</text>
<text text-anchor="start" x="149" y="-409.5" font-family="Helvetica,sans-Serif" font-size="10.00" fill="#000000">+ GPUdDefault()</text>
<text text-anchor="start" x="149" y="-398.5" font-family="Helvetica,sans-Serif" font-size="10.00" fill="#000000">+ GPUd()</text>
<text text-anchor="start" x="149" y="-387.5" font-family="Helvetica,sans-Serif" font-size="10.00" fill="#000000">+ sigmaTimePacked()</text>
<text text-anchor="start" x="149" y="-376.5" font-family="Helvetica,sans-Serif" font-size="10.00" fill="#000000">+ sigmaPadPacked()</text>
<text text-anchor="start" x="149" y="-365.5" font-family="Helvetica,sans-Serif" font-size="10.00" fill="#000000">+ qMax()</text>
<text text-anchor="start" x="149" y="-354.5" font-family="Helvetica,sans-Serif" font-size="10.00" fill="#000000">+ qTot()</text>
<text text-anchor="start" x="149" y="-343.5" font-family="Helvetica,sans-Serif" font-size="10.00" fill="#000000">+ GPUd()</text>
<text text-anchor="start" x="149" y="-332.5" font-family="Helvetica,sans-Serif" font-size="10.00" fill="#000000">+ GPUd()</text>
<text text-anchor="start" x="149" y="-321.5" font-family="Helvetica,sans-Serif" font-size="10.00" fill="#000000">+ GPUd()</text>
<text text-anchor="start" x="149" y="-310.5" font-family="Helvetica,sans-Serif" font-size="10.00" fill="#000000">+ GPUd()</text>
<text text-anchor="start" x="149" y="-299.5" font-family="Helvetica,sans-Serif" font-size="10.00" fill="#000000">+ GPUd()</text>
<text text-anchor="start" x="149" y="-288.5" font-family="Helvetica,sans-Serif" font-size="10.00" fill="#000000">+ GPUd()</text>
<text text-anchor="start" x="149" y="-277.5" font-family="Helvetica,sans-Serif" font-size="10.00" fill="#000000">+ GPUd()</text>
<text text-anchor="start" x="149" y="-266.5" font-family="Helvetica,sans-Serif" font-size="10.00" fill="#000000">+ GPUd()</text>
<text text-anchor="start" x="149" y="-255.5" font-family="Helvetica,sans-Serif" font-size="10.00" fill="#000000">+ GPUd()</text>
<text text-anchor="start" x="149" y="-244.5" font-family="Helvetica,sans-Serif" font-size="10.00" fill="#000000">+ GPUd()</text>
<text text-anchor="start" x="149" y="-233.5" font-family="Helvetica,sans-Serif" font-size="10.00" fill="#000000">+ GPUd()</text>
<text text-anchor="start" x="149" y="-222.5" font-family="Helvetica,sans-Serif" font-size="10.00" fill="#000000">+ GPUd()</text>
<text text-anchor="start" x="149" y="-211.5" font-family="Helvetica,sans-Serif" font-size="10.00" fill="#000000">+ GPUd()</text>
<text text-anchor="start" x="149" y="-200.5" font-family="Helvetica,sans-Serif" font-size="10.00" fill="#000000">+ GPUd()</text>
<text text-anchor="start" x="149" y="-189.5" font-family="Helvetica,sans-Serif" font-size="10.00" fill="#000000">+ GPUd()</text>
<text text-anchor="start" x="149" y="-178.5" font-family="Helvetica,sans-Serif" font-size="10.00" fill="#000000">+ GPUd()</text>
<text text-anchor="start" x="149" y="-167.5" font-family="Helvetica,sans-Serif" font-size="10.00" fill="#000000">+ GPUd()</text>
<text text-anchor="start" x="149" y="-156.5" font-family="Helvetica,sans-Serif" font-size="10.00" fill="#000000">+ GPUd()</text>
<text text-anchor="start" x="149" y="-145.5" font-family="Helvetica,sans-Serif" font-size="10.00" fill="#000000">+ GPUd()</text>
</a>
</g>
</g>
<!-- Node2&#45;&gt;Node1 -->
<g id="edge1" class="edge">
<title>Node2&#45;&gt;Node1</title>
<path fill="none" stroke="#404040" d="M265.1441,-138.3877C269.4458,-125.6446 273.5533,-113.4765 277.2957,-102.3901"/>
<polygon fill="none" stroke="#404040" points="277.3671,-102.1784 275.4963,-95.2142 281.2052,-90.8088 283.0761,-97.773 277.3671,-102.1784"/>
<text text-anchor="middle" x="299.5" y="-112" font-family="Helvetica,sans-Serif" font-size="10.00" fill="#000000"> +clusters</text>
</g>
<!-- Node3 -->
<g id="node3" class="node">
<title>Node3</title>
<polygon fill="none" stroke="#bfbfbf" points="0,-617.5 0,-674.5 85,-674.5 85,-617.5 0,-617.5"/>
<text text-anchor="middle" x="42.5" y="-662.5" font-family="Helvetica,sans-Serif" font-size="10.00" fill="#000000">unsigned char</text>
<polyline fill="none" stroke="#bfbfbf" points="0,-655.5 85,-655.5 "/>
<text text-anchor="middle" x="42.5" y="-643.5" font-family="Helvetica,sans-Serif" font-size="10.00" fill="#000000"> </text>
<polyline fill="none" stroke="#bfbfbf" points="0,-636.5 85,-636.5 "/>
<text text-anchor="middle" x="42.5" y="-624.5" font-family="Helvetica,sans-Serif" font-size="10.00" fill="#000000"> </text>
</g>
<!-- Node3&#45;&gt;Node2 -->
<g id="edge2" class="edge">
<title>Node3&#45;&gt;Node2</title>
<path fill="none" stroke="#404040" d="M42.2407,-617.4351C42.9129,-591.6434 46.2056,-553.0846 58.5,-522 75.9308,-477.9286 105.2042,-434.5723 132.903,-399.4742"/>
<polygon fill="none" stroke="#404040" points="133.1543,-399.1609 133.7881,-391.9777 140.6625,-389.8 140.0287,-396.9832 133.1543,-399.1609"/>
<text text-anchor="middle" x="90.5" y="-580" font-family="Helvetica,sans-Serif" font-size="10.00" fill="#000000"> +qtot</text>
<text text-anchor="middle" x="90.5" y="-569" font-family="Helvetica,sans-Serif" font-size="10.00" fill="#000000">+pad</text>
<text text-anchor="middle" x="90.5" y="-558" font-family="Helvetica,sans-Serif" font-size="10.00" fill="#000000">+sigmaTime</text>
<text text-anchor="middle" x="90.5" y="-547" font-family="Helvetica,sans-Serif" font-size="10.00" fill="#000000">+sigmaPad</text>
<text text-anchor="middle" x="90.5" y="-536" font-family="Helvetica,sans-Serif" font-size="10.00" fill="#000000">+qmax</text>
</g>
<!-- Node4 -->
<g id="node4" class="node">
<title>Node4</title>
<polygon fill="none" stroke="#bfbfbf" points="115,-617.5 115,-674.5 144,-674.5 144,-617.5 115,-617.5"/>
<text text-anchor="middle" x="129.5" y="-662.5" font-family="Helvetica,sans-Serif" font-size="10.00" fill="#000000">int</text>
<polyline fill="none" stroke="#bfbfbf" points="115,-655.5 144,-655.5 "/>
<text text-anchor="middle" x="129.5" y="-643.5" font-family="Helvetica,sans-Serif" font-size="10.00" fill="#000000"> </text>
<polyline fill="none" stroke="#bfbfbf" points="115,-636.5 144,-636.5 "/>
<text text-anchor="middle" x="129.5" y="-624.5" font-family="Helvetica,sans-Serif" font-size="10.00" fill="#000000"> </text>
</g>
<!-- Node4&#45;&gt;Node2 -->
<g id="edge3" class="edge">
<title>Node4&#45;&gt;Node2</title>
<path fill="none" stroke="#404040" d="M126.9888,-617.1784C125.4341,-591.8814 124.6989,-554.205 130.5,-522 132.4454,-511.1999 134.9148,-500.2141 137.7612,-489.2296"/>
<polygon fill="none" stroke="#404040" points="137.8502,-488.9012 135.56,-482.0634 140.9909,-477.3195 143.2811,-484.1572 137.8502,-488.9012"/>
<text text-anchor="middle" x="192.5" y="-585.5" font-family="Helvetica,sans-Serif" font-size="10.00" fill="#000000"> +scaleTimePacked</text>
<text text-anchor="middle" x="192.5" y="-574.5" font-family="Helvetica,sans-Serif" font-size="10.00" fill="#000000">+scaleSigmaPadPacked</text>
<text text-anchor="middle" x="192.5" y="-563.5" font-family="Helvetica,sans-Serif" font-size="10.00" fill="#000000">+scaleSigmaTimePacked</text>
<text text-anchor="middle" x="192.5" y="-552.5" font-family="Helvetica,sans-Serif" font-size="10.00" fill="#000000">+f</text>
<text text-anchor="middle" x="192.5" y="-541.5" font-family="Helvetica,sans-Serif" font-size="10.00" fill="#000000">+scalePadPacked</text>
<text text-anchor="middle" x="192.5" y="-530.5" font-family="Helvetica,sans-Serif" font-size="10.00" fill="#000000">+qMax</text>
</g>
<!-- Node5 -->
<g id="node5" class="node">
<title>Node5</title>
<polygon fill="none" stroke="#bfbfbf" points="302,-617.5 302,-674.5 363,-674.5 363,-617.5 302,-617.5"/>
<text text-anchor="middle" x="332.5" y="-662.5" font-family="Helvetica,sans-Serif" font-size="10.00" fill="#000000">unsigned</text>
<polyline fill="none" stroke="#bfbfbf" points="302,-655.5 363,-655.5 "/>
<text text-anchor="middle" x="332.5" y="-643.5" font-family="Helvetica,sans-Serif" font-size="10.00" fill="#000000"> </text>
<polyline fill="none" stroke="#bfbfbf" points="302,-636.5 363,-636.5 "/>
<text text-anchor="middle" x="332.5" y="-624.5" font-family="Helvetica,sans-Serif" font-size="10.00" fill="#000000"> </text>
</g>
<!-- Node5&#45;&gt;Node1 -->
<g id="edge5" class="edge">
<title>Node5&#45;&gt;Node1</title>
<path fill="none" stroke="#404040" d="M363.174,-619.0489C368.2118,-613.0003 372.697,-606.2163 375.5,-599 387.891,-567.0998 377.4379,-556.1673 375.5,-522 365.0388,-337.5561 381.3363,-286.0235 328.5,-109 327.8248,-106.7376 327.0718,-104.4589 326.2565,-102.1789"/>
<polygon fill="none" stroke="#404040" points="326.1786,-101.9834 320.24,-97.8927 321.7319,-90.8376 327.6705,-94.9283 326.1786,-101.9834"/>
<text text-anchor="middle" x="403.5" y="-318.5" font-family="Helvetica,sans-Serif" font-size="10.00" fill="#000000"> +nClusters</text>
</g>
<!-- Node5&#45;&gt;Node2 -->
<g id="edge4" class="edge">
<title>Node5&#45;&gt;Node2</title>
<path fill="none" stroke="#404040" d="M301.8579,-625.3598C292.877,-617.9819 283.7906,-608.9911 277.5,-599 274.5318,-594.2857 264.6421,-559.0818 253.0166,-515.2161"/>
<polygon fill="none" stroke="#404040" points="253.0074,-515.1808 247.6085,-510.4004 249.9446,-503.5782 255.3435,-508.3586 253.0074,-515.1808"/>
<text text-anchor="middle" x="326.5" y="-591" font-family="Helvetica,sans-Serif" font-size="10.00" fill="#000000"> +qTot</text>
<text text-anchor="middle" x="326.5" y="-580" font-family="Helvetica,sans-Serif" font-size="10.00" fill="#000000">+sigmaTimePacked</text>
<text text-anchor="middle" x="326.5" y="-569" font-family="Helvetica,sans-Serif" font-size="10.00" fill="#000000">+timeFlagsPacked</text>
<text text-anchor="middle" x="326.5" y="-558" font-family="Helvetica,sans-Serif" font-size="10.00" fill="#000000">+flags</text>
<text text-anchor="middle" x="326.5" y="-547" font-family="Helvetica,sans-Serif" font-size="10.00" fill="#000000">+sigmaPadPacked</text>
<text text-anchor="middle" x="326.5" y="-536" font-family="Helvetica,sans-Serif" font-size="10.00" fill="#000000">+padPacked</text>
<text text-anchor="middle" x="326.5" y="-525" font-family="Helvetica,sans-Serif" font-size="10.00" fill="#000000">+qMax</text>
</g>
</g>
</svg>
        <g id="navigator" transform="translate(0 0)" fill="#404254">
                <rect fill="#f2f5e9" fill-opacity="0.5" stroke="#606060" stroke-width=".5" x="0" y="0" width="60" height="60"/>
                <use id="zoomplus" xlink:href="#zoomPlus" x="17" y="9" onmousedown="handleZoom(evt,'in')"/>
                <use id="zoomminus" xlink:href="#zoomMin" x="42" y="9" onmousedown="handleZoom(evt,'out')"/>
                <use id="reset" xlink:href="#resetDef" x="30" y="36" onmousedown="handleReset()"/>
                <g id="arrowUp" xlink:href="#dirArrow" transform="translate(30 24)" onmousedown="handlePan(0,-1)">
                  <use xlink:href="#rim" fill="#404040">
                        <set attributeName="fill" to="#808080" begin="arrowUp.mouseover" end="arrowUp.mouseout"/>
                  </use>
                  <path fill="none" stroke="white" stroke-width="1.5" d="M0,-3.0v7 M-2.5,-0.5L0,-3.0L2.5,-0.5"/>
                </g>
                <g id="arrowRight" xlink:href="#dirArrow" transform="rotate(90) translate(36 -43)" onmousedown="handlePan(1,0)">
                  <use xlink:href="#rim" fill="#404040">
                        <set attributeName="fill" to="#808080" begin="arrowRight.mouseover" end="arrowRight.mouseout"/>
                  </use>
                  <path fill="none" stroke="white" stroke-width="1.5" d="M0,-3.0v7 M-2.5,-0.5L0,-3.0L2.5,-0.5"/>
                </g>
                <g id="arrowDown" xlink:href="#dirArrow" transform="rotate(180) translate(-30 -48)" onmousedown="handlePan(0,1)">
                  <use xlink:href="#rim" fill="#404040">
                        <set attributeName="fill" to="#808080" begin="arrowDown.mouseover" end="arrowDown.mouseout"/>
                  </use>
                  <path fill="none" stroke="white" stroke-width="1.5" d="M0,-3.0v7 M-2.5,-0.5L0,-3.0L2.5,-0.5"/>
                </g>
                <g id="arrowLeft" xlink:href="#dirArrow" transform="rotate(270) translate(-36 17)" onmousedown="handlePan(-1,0)">
                  <use xlink:href="#rim" fill="#404040">
                        <set attributeName="fill" to="#808080" begin="arrowLeft.mouseover" end="arrowLeft.mouseout"/>
                  </use>
                  <path fill="none" stroke="white" stroke-width="1.5" d="M0,-3.0v7 M-2.5,-0.5L0,-3.0L2.5,-0.5"/>
                </g>
        </g>
        <svg viewBox="0 0 15 15" width="100%" height="30px" preserveAspectRatio="xMaxYMin meet">
         <g id="arrow_out" transform="scale(0.3 0.3)">
          <a xlink:href="structo2_1_1tpc_1_1ClusterIndexBuffer__coll__graph_org.svg" target="_base">
           <rect id="button" ry="5" rx="5" y="6" x="6" height="38" width="38"
                fill="#f2f5e9" fill-opacity="0.5" stroke="#606060" stroke-width="1.0"/>
           <path id="arrow"
             d="M 11.500037,31.436501 C 11.940474,20.09759 22.043105,11.32322 32.158766,21.979434 L 37.068811,17.246167 C 37.068811,17.246167 37.088388,32 37.088388,32 L 22.160133,31.978069 C 22.160133,31.978069 26.997745,27.140456 26.997745,27.140456 C 18.528582,18.264221 13.291696,25.230495 11.500037,31.436501 z"
             style="fill:#404040;"/>
          </a>
         </g>
        </svg>
</svg>
