<?xml version="1.0" encoding="UTF-8" standalone="no"?>
<!DOCTYPE svg PUBLIC "-//W3C//DTD SVG 1.1//EN"
 "http://www.w3.org/Graphics/SVG/1.1/DTD/svg11.dtd">
<!-- Generated by graphviz version 2.40.1 (20161225.0304)
 -->
<!-- Title: /home/travis/build/AliceO2Group/AliceO2/Detectors/Vertexing/include/DetectorsVertexing/HelixHelper.h Pages: 1 -->
<svg width="676pt" height="239pt"
 viewBox="0.00 0.00 676.00 239.00" xmlns="http://www.w3.org/2000/svg" xmlns:xlink="http://www.w3.org/1999/xlink">
<g id="graph0" class="graph" transform="scale(1 1) rotate(0) translate(4 235)">
<title>/home/travis/build/AliceO2Group/AliceO2/Detectors/Vertexing/include/DetectorsVertexing/HelixHelper.h</title>
<!-- Node49 -->
<g id="node1" class="node">
<title>Node49</title>
<polygon fill="#bfbfbf" stroke="#000000" points="269,-178.5 269,-230.5 451,-230.5 451,-178.5 269,-178.5"/>
<text text-anchor="start" x="277" y="-218.5" font-family="Helvetica,sans-Serif" font-size="10.00" fill="#000000">/home/travis/build</text>
<text text-anchor="start" x="277" y="-207.5" font-family="Helvetica,sans-Serif" font-size="10.00" fill="#000000">/AliceO2Group/AliceO2</text>
<text text-anchor="start" x="277" y="-196.5" font-family="Helvetica,sans-Serif" font-size="10.00" fill="#000000">/Detectors/Vertexing/include</text>
<text text-anchor="middle" x="360" y="-185.5" font-family="Helvetica,sans-Serif" font-size="10.00" fill="#000000">/DetectorsVertexing/HelixHelper.h</text>
</g>
<!-- Node50 -->
<g id="node2" class="node">
<title>Node50</title>
<g id="a_node2"><a xlink:href="../../d6/da5/DCAFitterN_8h.html" target="_top" xlink:title="Defintions for N&#45;prongs secondary vertex fit. ">
<polygon fill="none" stroke="#000000" points="270.5,-89.5 270.5,-141.5 449.5,-141.5 449.5,-89.5 270.5,-89.5"/>
<text text-anchor="start" x="278.5" y="-129.5" font-family="Helvetica,sans-Serif" font-size="10.00" fill="#000000">/home/travis/build</text>
<text text-anchor="start" x="278.5" y="-118.5" font-family="Helvetica,sans-Serif" font-size="10.00" fill="#000000">/AliceO2Group/AliceO2</text>
<text text-anchor="start" x="278.5" y="-107.5" font-family="Helvetica,sans-Serif" font-size="10.00" fill="#000000">/Detectors/Vertexing/include</text>
<text text-anchor="middle" x="360" y="-96.5" font-family="Helvetica,sans-Serif" font-size="10.00" fill="#000000">/DetectorsVertexing/DCAFitterN.h</text>
</a>
</g>
</g>
<!-- Node49&#45;&gt;Node50 -->
<g id="edge1" class="edge">
<title>Node49&#45;&gt;Node50</title>
<path fill="none" stroke="#191970" d="M360,-168.1155C360,-159.2061 360,-149.8475 360,-141.5341"/>
<polygon fill="#191970" stroke="#191970" points="356.5001,-168.2784 360,-178.2784 363.5001,-168.2785 356.5001,-168.2784"/>
</g>
<!-- Node51 -->
<g id="node3" class="node">
<title>Node51</title>
<g id="a_node3"><a xlink:href="../../d3/d9f/HFCandidateCreator2Prong_8cxx.html" target="_top" xlink:title="/home/travis/build\l/AliceO2Group/AliceO2\l/Analysis/Tasks/PWGHF\l/HFCandidateCreator2Prong.cxx">
<polygon fill="none" stroke="#000000" points="0,-.5 0,-52.5 172,-52.5 172,-.5 0,-.5"/>
<text text-anchor="start" x="8" y="-40.5" font-family="Helvetica,sans-Serif" font-size="10.00" fill="#000000">/home/travis/build</text>
<text text-anchor="start" x="8" y="-29.5" font-family="Helvetica,sans-Serif" font-size="10.00" fill="#000000">/AliceO2Group/AliceO2</text>
<text text-anchor="start" x="8" y="-18.5" font-family="Helvetica,sans-Serif" font-size="10.00" fill="#000000">/Analysis/Tasks/PWGHF</text>
<text text-anchor="middle" x="86" y="-7.5" font-family="Helvetica,sans-Serif" font-size="10.00" fill="#000000">/HFCandidateCreator2Prong.cxx</text>
</a>
</g>
</g>
<!-- Node50&#45;&gt;Node51 -->
<g id="edge2" class="edge">
<title>Node50&#45;&gt;Node51</title>
<path fill="none" stroke="#191970" d="M269.8818,-86.228C236.4741,-75.3766 198.8373,-63.1515 166.3562,-52.6011"/>
<polygon fill="#191970" stroke="#191970" points="269.0502,-89.6379 279.6423,-89.3984 271.2128,-82.9803 269.0502,-89.6379"/>
</g>
<!-- Node52 -->
<g id="node4" class="node">
<title>Node52</title>
<g id="a_node4"><a xlink:href="../../d2/d43/HFTrackIndexSkimsCreator_8cxx.html" target="_top" xlink:title="/home/travis/build\l/AliceO2Group/AliceO2\l/Analysis/Tasks/PWGHF\l/HFTrackIndexSkimsCreator.cxx">
<polygon fill="none" stroke="#000000" points="190,-.5 190,-52.5 360,-52.5 360,-.5 190,-.5"/>
<text text-anchor="start" x="198" y="-40.5" font-family="Helvetica,sans-Serif" font-size="10.00" fill="#000000">/home/travis/build</text>
<text text-anchor="start" x="198" y="-29.5" font-family="Helvetica,sans-Serif" font-size="10.00" fill="#000000">/AliceO2Group/AliceO2</text>
<text text-anchor="start" x="198" y="-18.5" font-family="Helvetica,sans-Serif" font-size="10.00" fill="#000000">/Analysis/Tasks/PWGHF</text>
<text text-anchor="middle" x="275" y="-7.5" font-family="Helvetica,sans-Serif" font-size="10.00" fill="#000000">/HFTrackIndexSkimsCreator.cxx</text>
</a>
</g>
</g>
<!-- Node50&#45;&gt;Node52 -->
<g id="edge3" class="edge">
<title>Node50&#45;&gt;Node52</title>
<path fill="none" stroke="#191970" d="M328.0084,-82.0029C318.6966,-72.2529 308.6668,-61.7511 299.8641,-52.5341"/>
<polygon fill="#191970" stroke="#191970" points="325.5191,-84.464 334.9569,-89.2784 330.5813,-79.6293 325.5191,-84.464"/>
</g>
<!-- Node53 -->
<g id="node5" class="node">
<title>Node53</title>
<g id="a_node5"><a xlink:href="../../dd/dce/DCAFitterN_8cxx.html" target="_top" xlink:title="Defintions for N&#45;prongs secondary vertex fit. ">
<polygon fill="none" stroke="#000000" points="378,-.5 378,-52.5 512,-52.5 512,-.5 378,-.5"/>
<text text-anchor="start" x="386" y="-40.5" font-family="Helvetica,sans-Serif" font-size="10.00" fill="#000000">/home/travis/build</text>
<text text-anchor="start" x="386" y="-29.5" font-family="Helvetica,sans-Serif" font-size="10.00" fill="#000000">/AliceO2Group/AliceO2</text>
<text text-anchor="start" x="386" y="-18.5" font-family="Helvetica,sans-Serif" font-size="10.00" fill="#000000">/Detectors/Vertexing/src</text>
<text text-anchor="middle" x="445" y="-7.5" font-family="Helvetica,sans-Serif" font-size="10.00" fill="#000000">/DCAFitterN.cxx</text>
</a>
</g>
</g>
<!-- Node50&#45;&gt;Node53 -->
<g id="edge4" class="edge">
<title>Node50&#45;&gt;Node53</title>
<path fill="none" stroke="#191970" d="M391.9916,-82.0029C401.3034,-72.2529 411.3332,-61.7511 420.1359,-52.5341"/>
<polygon fill="#191970" stroke="#191970" points="389.4187,-79.6293 385.0431,-89.2784 394.4809,-84.464 389.4187,-79.6293"/>
</g>
<!-- Node54 -->
<g id="node6" class="node">
<title>Node54</title>
<g id="a_node6"><a xlink:href="../../dd/de2/testDCAFitterN_8cxx.html" target="_top" xlink:title="/home/travis/build\l/AliceO2Group/AliceO2\l/Detectors/Vertexing/test\l/testDCAFitterN.cxx">
<polygon fill="none" stroke="#000000" points="530,-.5 530,-52.5 668,-52.5 668,-.5 530,-.5"/>
<text text-anchor="start" x="538" y="-40.5" font-family="Helvetica,sans-Serif" font-size="10.00" fill="#000000">/home/travis/build</text>
<text text-anchor="start" x="538" y="-29.5" font-family="Helvetica,sans-Serif" font-size="10.00" fill="#000000">/AliceO2Group/AliceO2</text>
<text text-anchor="start" x="538" y="-18.5" font-family="Helvetica,sans-Serif" font-size="10.00" fill="#000000">/Detectors/Vertexing/test</text>
<text text-anchor="middle" x="599" y="-7.5" font-family="Helvetica,sans-Serif" font-size="10.00" fill="#000000">/testDCAFitterN.cxx</text>
</a>
</g>
</g>
<!-- Node50&#45;&gt;Node54 -->
<g id="edge5" class="edge">
<title>Node50&#45;&gt;Node54</title>
<path fill="none" stroke="#191970" d="M439.8208,-85.7759C468.9407,-74.9321 501.6066,-62.7679 529.7334,-52.2938"/>
<polygon fill="#191970" stroke="#191970" points="438.2429,-82.6287 430.093,-89.3984 440.6858,-89.1886 438.2429,-82.6287"/>
</g>
</g>
</svg>
