<?xml version="1.0" encoding="UTF-8" standalone="no"?>
<!DOCTYPE svg PUBLIC "-//W3C//DTD SVG 1.1//EN"
 "http://www.w3.org/Graphics/SVG/1.1/DTD/svg11.dtd">
<!-- Generated by graphviz version 2.40.1 (20161225.0304)
 -->
<!-- Title: CRUheader Pages: 1 -->
<svg width="162pt" height="303pt"
 viewBox="0.00 0.00 161.50 303.00" xmlns="http://www.w3.org/2000/svg" xmlns:xlink="http://www.w3.org/1999/xlink">
<g id="graph0" class="graph" transform="scale(1 1) rotate(0) translate(4 299)">
<title>CRUheader</title>
<!-- Node1 -->
<g id="node1" class="node">
<title>Node1</title>
<polygon fill="#bfbfbf" stroke="#000000" points="0,-.5 0,-79.5 103,-79.5 103,-.5 0,-.5"/>
<text text-anchor="middle" x="51.5" y="-67.5" font-family="Helvetica,sans-Serif" font-size="10.00" fill="#000000">CRUheader</text>
<polyline fill="none" stroke="#000000" points="0,-60.5 103,-60.5 "/>
<text text-anchor="start" x="8" y="-48.5" font-family="Helvetica,sans-Serif" font-size="10.00" fill="#000000">+ header_size</text>
<text text-anchor="start" x="8" y="-37.5" font-family="Helvetica,sans-Serif" font-size="10.00" fill="#000000">+ packet_counter</text>
<text text-anchor="start" x="8" y="-26.5" font-family="Helvetica,sans-Serif" font-size="10.00" fill="#000000">+ dpw_id</text>
<polyline fill="none" stroke="#000000" points="0,-19.5 103,-19.5 "/>
<text text-anchor="middle" x="51.5" y="-7.5" font-family="Helvetica,sans-Serif" font-size="10.00" fill="#000000"> </text>
</g>
<!-- Node2 -->
<g id="node2" class="node">
<title>Node2</title>
<polygon fill="none" stroke="#bfbfbf" points="21,-237.5 21,-294.5 82,-294.5 82,-237.5 21,-237.5"/>
<text text-anchor="middle" x="51.5" y="-282.5" font-family="Helvetica,sans-Serif" font-size="10.00" fill="#000000">unsigned</text>
<polyline fill="none" stroke="#bfbfbf" points="21,-275.5 82,-275.5 "/>
<text text-anchor="middle" x="51.5" y="-263.5" font-family="Helvetica,sans-Serif" font-size="10.00" fill="#000000"> </text>
<polyline fill="none" stroke="#bfbfbf" points="21,-256.5 82,-256.5 "/>
<text text-anchor="middle" x="51.5" y="-244.5" font-family="Helvetica,sans-Serif" font-size="10.00" fill="#000000"> </text>
</g>
<!-- Node2&#45;&gt;Node1 -->
<g id="edge1" class="edge">
<title>Node2&#45;&gt;Node1</title>
<path fill="none" stroke="#404040" d="M51.5,-237.3769C51.5,-200.8978 51.5,-137.1619 51.5,-91.9955"/>
<polygon fill="none" stroke="#404040" points="51.5001,-91.7868 47.5,-85.7868 51.5,-79.7868 55.5,-85.7867 51.5001,-91.7868"/>
<text text-anchor="middle" x="102.5" y="-211" font-family="Helvetica,sans-Serif" font-size="10.00" fill="#000000"> +memory_size</text>
<text text-anchor="middle" x="102.5" y="-200" font-family="Helvetica,sans-Serif" font-size="10.00" fill="#000000">+priority_bit</text>
<text text-anchor="middle" x="102.5" y="-189" font-family="Helvetica,sans-Serif" font-size="10.00" fill="#000000">+block_length</text>
<text text-anchor="middle" x="102.5" y="-178" font-family="Helvetica,sans-Serif" font-size="10.00" fill="#000000">+cru_id</text>
<text text-anchor="middle" x="102.5" y="-167" font-family="Helvetica,sans-Serif" font-size="10.00" fill="#000000">+fee_id</text>
<text text-anchor="middle" x="102.5" y="-156" font-family="Helvetica,sans-Serif" font-size="10.00" fill="#000000">+header_version</text>
<text text-anchor="middle" x="102.5" y="-145" font-family="Helvetica,sans-Serif" font-size="10.00" fill="#000000">+link_id</text>
<text text-anchor="middle" x="102.5" y="-134" font-family="Helvetica,sans-Serif" font-size="10.00" fill="#000000">+next_packet_offset</text>
<text text-anchor="middle" x="102.5" y="-123" font-family="Helvetica,sans-Serif" font-size="10.00" fill="#000000">+reserved_1</text>
<text text-anchor="middle" x="102.5" y="-112" font-family="Helvetica,sans-Serif" font-size="10.00" fill="#000000">+hb_orbit</text>
<text text-anchor="middle" x="102.5" y="-101" font-family="Helvetica,sans-Serif" font-size="10.00" fill="#000000">...</text>
</g>
</g>
</svg>
