<?xml version="1.0" encoding="UTF-8" standalone="no"?>
<!DOCTYPE svg PUBLIC "-//W3C//DTD SVG 1.1//EN"
 "http://www.w3.org/Graphics/SVG/1.1/DTD/svg11.dtd">
<!-- Generated by graphviz version 2.40.1 (20161225.0304)
 -->
<!-- Title: o2::AliceHLT::RawClusterData Pages: 1 -->
<svg width="309pt" height="419pt"
 viewBox="0.00 0.00 309.00 419.00" xmlns="http://www.w3.org/2000/svg" xmlns:xlink="http://www.w3.org/1999/xlink">
<g id="graph0" class="graph" transform="scale(1 1) rotate(0) translate(4 415)">
<title>o2::AliceHLT::RawClusterData</title>
<!-- Node1 -->
<g id="node1" class="node">
<title>Node1</title>
<polygon fill="#bfbfbf" stroke="#000000" points="114,-.5 114,-57.5 274,-57.5 274,-.5 114,-.5"/>
<text text-anchor="middle" x="194" y="-45.5" font-family="Helvetica,sans-Serif" font-size="10.00" fill="#000000">o2::AliceHLT::RawClusterData</text>
<polyline fill="none" stroke="#000000" points="114,-38.5 274,-38.5 "/>
<text text-anchor="middle" x="194" y="-26.5" font-family="Helvetica,sans-Serif" font-size="10.00" fill="#000000"> </text>
<polyline fill="none" stroke="#000000" points="114,-19.5 274,-19.5 "/>
<text text-anchor="middle" x="194" y="-7.5" font-family="Helvetica,sans-Serif" font-size="10.00" fill="#000000"> </text>
</g>
<!-- Node2 -->
<g id="node2" class="node">
<title>Node2</title>
<g id="a_node2"><a xlink:href="../../d7/d0a/structo2_1_1AliceHLT_1_1RawCluster.html" target="_top" xlink:title="{o2::AliceHLT::RawCluster\n||+ GetPadRow()\l+ GetPad()\l+ GetTime()\l+ GetSigmaPad2()\l+ GetSigmaTime2()\l+ GetCharge()\l+ GetQMax()\l+ GetFlagSplitPad()\l+ GetFlagSplitTime()\l+ GetFlagSplitAny()\l+ GetFlags()\l}">
<polygon fill="none" stroke="#000000" points="64.5,-105.5 64.5,-272.5 201.5,-272.5 201.5,-105.5 64.5,-105.5"/>
<text text-anchor="middle" x="133" y="-260.5" font-family="Helvetica,sans-Serif" font-size="10.00" fill="#000000">o2::AliceHLT::RawCluster</text>
<polyline fill="none" stroke="#000000" points="64.5,-253.5 201.5,-253.5 "/>
<text text-anchor="middle" x="133" y="-241.5" font-family="Helvetica,sans-Serif" font-size="10.00" fill="#000000"> </text>
<polyline fill="none" stroke="#000000" points="64.5,-234.5 201.5,-234.5 "/>
<text text-anchor="start" x="72.5" y="-222.5" font-family="Helvetica,sans-Serif" font-size="10.00" fill="#000000">+ GetPadRow()</text>
<text text-anchor="start" x="72.5" y="-211.5" font-family="Helvetica,sans-Serif" font-size="10.00" fill="#000000">+ GetPad()</text>
<text text-anchor="start" x="72.5" y="-200.5" font-family="Helvetica,sans-Serif" font-size="10.00" fill="#000000">+ GetTime()</text>
<text text-anchor="start" x="72.5" y="-189.5" font-family="Helvetica,sans-Serif" font-size="10.00" fill="#000000">+ GetSigmaPad2()</text>
<text text-anchor="start" x="72.5" y="-178.5" font-family="Helvetica,sans-Serif" font-size="10.00" fill="#000000">+ GetSigmaTime2()</text>
<text text-anchor="start" x="72.5" y="-167.5" font-family="Helvetica,sans-Serif" font-size="10.00" fill="#000000">+ GetCharge()</text>
<text text-anchor="start" x="72.5" y="-156.5" font-family="Helvetica,sans-Serif" font-size="10.00" fill="#000000">+ GetQMax()</text>
<text text-anchor="start" x="72.5" y="-145.5" font-family="Helvetica,sans-Serif" font-size="10.00" fill="#000000">+ GetFlagSplitPad()</text>
<text text-anchor="start" x="72.5" y="-134.5" font-family="Helvetica,sans-Serif" font-size="10.00" fill="#000000">+ GetFlagSplitTime()</text>
<text text-anchor="start" x="72.5" y="-123.5" font-family="Helvetica,sans-Serif" font-size="10.00" fill="#000000">+ GetFlagSplitAny()</text>
<text text-anchor="start" x="72.5" y="-112.5" font-family="Helvetica,sans-Serif" font-size="10.00" fill="#000000">+ GetFlags()</text>
</a>
</g>
</g>
<!-- Node2&#45;&gt;Node1 -->
<g id="edge1" class="edge">
<title>Node2&#45;&gt;Node1</title>
<path fill="none" stroke="#404040" d="M164.9292,-105.2512C169.7135,-92.7024 174.4507,-80.2768 178.6687,-69.2132"/>
<polygon fill="none" stroke="#404040" points="178.7446,-69.0139 177.1445,-61.9825 183.0196,-57.8011 184.6197,-64.8325 178.7446,-69.0139"/>
<text text-anchor="middle" x="203.5" y="-79" font-family="Helvetica,sans-Serif" font-size="10.00" fill="#000000"> +fClusters</text>
</g>
<!-- Node3 -->
<g id="node3" class="node">
<title>Node3</title>
<g id="a_node3"><a xlink:href="../../d4/dc3/classfloat.html" target="_top" xlink:title="{float\n||}">
<polygon fill="none" stroke="#000000" points="0,-353.5 0,-410.5 38,-410.5 38,-353.5 0,-353.5"/>
<text text-anchor="middle" x="19" y="-398.5" font-family="Helvetica,sans-Serif" font-size="10.00" fill="#000000">float</text>
<polyline fill="none" stroke="#000000" points="0,-391.5 38,-391.5 "/>
<text text-anchor="middle" x="19" y="-379.5" font-family="Helvetica,sans-Serif" font-size="10.00" fill="#000000"> </text>
<polyline fill="none" stroke="#000000" points="0,-372.5 38,-372.5 "/>
<text text-anchor="middle" x="19" y="-360.5" font-family="Helvetica,sans-Serif" font-size="10.00" fill="#000000"> </text>
</a>
</g>
</g>
<!-- Node3&#45;&gt;Node2 -->
<g id="edge2" class="edge">
<title>Node3&#45;&gt;Node2</title>
<path fill="none" stroke="#404040" d="M21.0061,-353.1956C23.2444,-334.5957 27.9802,-310.3474 38,-291 43.2035,-280.9524 49.6755,-271.1724 56.7789,-261.8975"/>
<polygon fill="none" stroke="#404040" points="56.8711,-261.7826 57.5079,-254.5996 64.3832,-252.4248 63.7464,-259.6077 56.8711,-261.7826"/>
<text text-anchor="middle" x="75" y="-327" font-family="Helvetica,sans-Serif" font-size="10.00" fill="#000000"> +fTime</text>
<text text-anchor="middle" x="75" y="-316" font-family="Helvetica,sans-Serif" font-size="10.00" fill="#000000">+fPad</text>
<text text-anchor="middle" x="75" y="-305" font-family="Helvetica,sans-Serif" font-size="10.00" fill="#000000">+fSigmaTime2</text>
<text text-anchor="middle" x="75" y="-294" font-family="Helvetica,sans-Serif" font-size="10.00" fill="#000000">+fSigmaPad2</text>
</g>
<!-- Node4 -->
<g id="node4" class="node">
<title>Node4</title>
<polygon fill="none" stroke="#bfbfbf" points="91,-353.5 91,-410.5 141,-410.5 141,-353.5 91,-353.5"/>
<text text-anchor="middle" x="116" y="-398.5" font-family="Helvetica,sans-Serif" font-size="10.00" fill="#000000">int16_t</text>
<polyline fill="none" stroke="#bfbfbf" points="91,-391.5 141,-391.5 "/>
<text text-anchor="middle" x="116" y="-379.5" font-family="Helvetica,sans-Serif" font-size="10.00" fill="#000000"> </text>
<polyline fill="none" stroke="#bfbfbf" points="91,-372.5 141,-372.5 "/>
<text text-anchor="middle" x="116" y="-360.5" font-family="Helvetica,sans-Serif" font-size="10.00" fill="#000000"> </text>
</g>
<!-- Node4&#45;&gt;Node2 -->
<g id="edge3" class="edge">
<title>Node4&#45;&gt;Node2</title>
<path fill="none" stroke="#404040" d="M115.2553,-353.2605C115.0533,-335.3277 115.2649,-311.7831 117,-291 117.1717,-288.943 117.3604,-286.8647 117.5641,-284.7711"/>
<polygon fill="none" stroke="#404040" points="117.5842,-284.5856 114.2568,-278.1881 118.8824,-272.6561 122.2098,-279.0536 117.5842,-284.5856"/>
<text text-anchor="middle" x="143.5" y="-310.5" font-family="Helvetica,sans-Serif" font-size="10.00" fill="#000000"> +fPadRow</text>
</g>
<!-- Node5 -->
<g id="node5" class="node">
<title>Node5</title>
<polygon fill="none" stroke="#bfbfbf" points="192.5,-353.5 192.5,-410.5 253.5,-410.5 253.5,-353.5 192.5,-353.5"/>
<text text-anchor="middle" x="223" y="-398.5" font-family="Helvetica,sans-Serif" font-size="10.00" fill="#000000">unsigned</text>
<polyline fill="none" stroke="#bfbfbf" points="192.5,-391.5 253.5,-391.5 "/>
<text text-anchor="middle" x="223" y="-379.5" font-family="Helvetica,sans-Serif" font-size="10.00" fill="#000000"> </text>
<polyline fill="none" stroke="#bfbfbf" points="192.5,-372.5 253.5,-372.5 "/>
<text text-anchor="middle" x="223" y="-360.5" font-family="Helvetica,sans-Serif" font-size="10.00" fill="#000000"> </text>
</g>
<!-- Node5&#45;&gt;Node1 -->
<g id="edge5" class="edge">
<title>Node5&#45;&gt;Node1</title>
<path fill="none" stroke="#404040" d="M235.1359,-353.3474C237.155,-347.3857 238.9363,-341.0682 240,-335 243.3765,-315.7381 240.2273,-310.5542 240,-291 238.8888,-195.4251 269.5893,-165.1032 235,-76 233.942,-73.2746 232.6511,-70.6012 231.1882,-67.9993"/>
<polygon fill="none" stroke="#404040" points="231.0159,-67.7407 224.3601,-64.9656 224.3618,-57.7545 231.0176,-60.5295 231.0159,-67.7407"/>
<text text-anchor="middle" x="276.5" y="-192" font-family="Helvetica,sans-Serif" font-size="10.00" fill="#000000"> +fCount</text>
<text text-anchor="middle" x="276.5" y="-181" font-family="Helvetica,sans-Serif" font-size="10.00" fill="#000000">+fVersion</text>
</g>
<!-- Node5&#45;&gt;Node2 -->
<g id="edge4" class="edge">
<title>Node5&#45;&gt;Node2</title>
<path fill="none" stroke="#404040" d="M203.6057,-353.3963C199.886,-347.4308 196.1678,-341.0994 193,-335 184.6075,-318.8406 176.5296,-301.234 169.1683,-284.02"/>
<polygon fill="none" stroke="#404040" points="169.0942,-283.8438 163.0796,-279.8658 164.4382,-272.7839 170.4529,-276.7619 169.0942,-283.8438"/>
<text text-anchor="middle" x="216.5" y="-321.5" font-family="Helvetica,sans-Serif" font-size="10.00" fill="#000000"> +fQMax</text>
<text text-anchor="middle" x="216.5" y="-310.5" font-family="Helvetica,sans-Serif" font-size="10.00" fill="#000000">+fCharge</text>
<text text-anchor="middle" x="216.5" y="-299.5" font-family="Helvetica,sans-Serif" font-size="10.00" fill="#000000">+fFlags</text>
</g>
</g>
</svg>
