<?xml version="1.0" encoding="UTF-8" standalone="no"?>
<!DOCTYPE svg PUBLIC "-//W3C//DTD SVG 1.1//EN"
 "http://www.w3.org/Graphics/SVG/1.1/DTD/svg11.dtd">
<!-- Generated by graphviz version 2.40.1 (20161225.0304)
 -->
<!-- Title: o2::itsmft::Clusterer::ThreadStat Pages: 1 -->
<svg width="122pt" height="237pt"
 viewBox="0.00 0.00 122.00 237.00" xmlns="http://www.w3.org/2000/svg" xmlns:xlink="http://www.w3.org/1999/xlink">
<g id="graph0" class="graph" transform="scale(1 1) rotate(0) translate(4 233)">
<title>o2::itsmft::Clusterer::ThreadStat</title>
<!-- Node1 -->
<g id="node1" class="node">
<title>Node1</title>
<polygon fill="#bfbfbf" stroke="#000000" points="0,-.5 0,-68.5 114,-68.5 114,-.5 0,-.5"/>
<text text-anchor="start" x="8" y="-56.5" font-family="Helvetica,sans-Serif" font-size="10.00" fill="#000000">o2::itsmft::Clusterer</text>
<text text-anchor="middle" x="57" y="-45.5" font-family="Helvetica,sans-Serif" font-size="10.00" fill="#000000">::ThreadStat</text>
<polyline fill="none" stroke="#000000" points="0,-38.5 114,-38.5 "/>
<text text-anchor="middle" x="57" y="-26.5" font-family="Helvetica,sans-Serif" font-size="10.00" fill="#000000"> </text>
<polyline fill="none" stroke="#000000" points="0,-19.5 114,-19.5 "/>
<text text-anchor="start" x="8" y="-7.5" font-family="Helvetica,sans-Serif" font-size="10.00" fill="#000000">+ ThreadStat()</text>
</g>
<!-- Node2 -->
<g id="node2" class="node">
<title>Node2</title>
<polygon fill="none" stroke="#bfbfbf" points="26.5,-171.5 26.5,-228.5 87.5,-228.5 87.5,-171.5 26.5,-171.5"/>
<text text-anchor="middle" x="57" y="-216.5" font-family="Helvetica,sans-Serif" font-size="10.00" fill="#000000">unsigned</text>
<polyline fill="none" stroke="#bfbfbf" points="26.5,-209.5 87.5,-209.5 "/>
<text text-anchor="middle" x="57" y="-197.5" font-family="Helvetica,sans-Serif" font-size="10.00" fill="#000000"> </text>
<polyline fill="none" stroke="#bfbfbf" points="26.5,-190.5 87.5,-190.5 "/>
<text text-anchor="middle" x="57" y="-178.5" font-family="Helvetica,sans-Serif" font-size="10.00" fill="#000000"> </text>
</g>
<!-- Node2&#45;&gt;Node1 -->
<g id="edge1" class="edge">
<title>Node2&#45;&gt;Node1</title>
<path fill="none" stroke="#404040" d="M57,-171.1721C57,-146.3248 57,-109.989 57,-81.0279"/>
<polygon fill="none" stroke="#404040" points="57.0001,-80.7164 53,-74.7164 57,-68.7164 61,-74.7164 57.0001,-80.7164"/>
<text text-anchor="middle" x="81.5" y="-145" font-family="Helvetica,sans-Serif" font-size="10.00" fill="#000000"> +firstPatt</text>
<text text-anchor="middle" x="81.5" y="-134" font-family="Helvetica,sans-Serif" font-size="10.00" fill="#000000">+nClus</text>
<text text-anchor="middle" x="81.5" y="-123" font-family="Helvetica,sans-Serif" font-size="10.00" fill="#000000">+firstClus</text>
<text text-anchor="middle" x="81.5" y="-112" font-family="Helvetica,sans-Serif" font-size="10.00" fill="#000000">+firstChip</text>
<text text-anchor="middle" x="81.5" y="-101" font-family="Helvetica,sans-Serif" font-size="10.00" fill="#000000">+nChips</text>
<text text-anchor="middle" x="81.5" y="-90" font-family="Helvetica,sans-Serif" font-size="10.00" fill="#000000">+nPatt</text>
</g>
</g>
</svg>
