<?xml version="1.0" encoding="UTF-8" standalone="no"?>
<!DOCTYPE svg PUBLIC "-//W3C//DTD SVG 1.1//EN"
 "http://www.w3.org/Graphics/SVG/1.1/DTD/svg11.dtd">
<!-- Generated by graphviz version 2.40.1 (20161225.0304)
 -->
<!-- Title: o2::framework::DeviceConnectionId Pages: 1 -->
<svg width="231pt" height="204pt"
 viewBox="0.00 0.00 230.50 204.00" xmlns="http://www.w3.org/2000/svg" xmlns:xlink="http://www.w3.org/1999/xlink">
<g id="graph0" class="graph" transform="scale(1 1) rotate(0) translate(4 200)">
<title>o2::framework::DeviceConnectionId</title>
<!-- Node1 -->
<g id="node1" class="node">
<title>Node1</title>
<polygon fill="#bfbfbf" stroke="#000000" points="0,-.5 0,-57.5 191,-57.5 191,-.5 0,-.5"/>
<text text-anchor="middle" x="95.5" y="-45.5" font-family="Helvetica,sans-Serif" font-size="10.00" fill="#000000">o2::framework::DeviceConnectionId</text>
<polyline fill="none" stroke="#000000" points="0,-38.5 191,-38.5 "/>
<text text-anchor="middle" x="95.5" y="-26.5" font-family="Helvetica,sans-Serif" font-size="10.00" fill="#000000"> </text>
<polyline fill="none" stroke="#000000" points="0,-19.5 191,-19.5 "/>
<text text-anchor="start" x="8" y="-7.5" font-family="Helvetica,sans-Serif" font-size="10.00" fill="#000000">+ operator&lt;()</text>
</g>
<!-- Node2 -->
<g id="node2" class="node">
<title>Node2</title>
<polygon fill="none" stroke="#bfbfbf" points="30,-138.5 30,-195.5 91,-195.5 91,-138.5 30,-138.5"/>
<text text-anchor="middle" x="60.5" y="-183.5" font-family="Helvetica,sans-Serif" font-size="10.00" fill="#000000">unsigned</text>
<polyline fill="none" stroke="#bfbfbf" points="30,-176.5 91,-176.5 "/>
<text text-anchor="middle" x="60.5" y="-164.5" font-family="Helvetica,sans-Serif" font-size="10.00" fill="#000000"> </text>
<polyline fill="none" stroke="#bfbfbf" points="30,-157.5 91,-157.5 "/>
<text text-anchor="middle" x="60.5" y="-145.5" font-family="Helvetica,sans-Serif" font-size="10.00" fill="#000000"> </text>
</g>
<!-- Node2&#45;&gt;Node1 -->
<g id="edge1" class="edge">
<title>Node2&#45;&gt;Node1</title>
<path fill="none" stroke="#404040" d="M64.9995,-138.4565C68.1283,-120.3925 72.7626,-96.6366 78.5,-76 79.1275,-73.7428 79.8118,-71.4389 80.5339,-69.1233"/>
<polygon fill="none" stroke="#404040" points="80.577,-68.9937 78.6794,-62.0368 84.3713,-57.6093 86.2689,-64.5663 80.577,-68.9937"/>
<text text-anchor="middle" x="94" y="-95.5" font-family="Helvetica,sans-Serif" font-size="10.00" fill="#000000"> +port</text>
</g>
<!-- Node3 -->
<g id="node3" class="node">
<title>Node3</title>
<polygon fill="none" stroke="#bfbfbf" points="109,-138.5 109,-195.5 154,-195.5 154,-138.5 109,-138.5"/>
<text text-anchor="middle" x="131.5" y="-183.5" font-family="Helvetica,sans-Serif" font-size="10.00" fill="#000000">size_t</text>
<polyline fill="none" stroke="#bfbfbf" points="109,-176.5 154,-176.5 "/>
<text text-anchor="middle" x="131.5" y="-164.5" font-family="Helvetica,sans-Serif" font-size="10.00" fill="#000000"> </text>
<polyline fill="none" stroke="#bfbfbf" points="109,-157.5 154,-157.5 "/>
<text text-anchor="middle" x="131.5" y="-145.5" font-family="Helvetica,sans-Serif" font-size="10.00" fill="#000000"> </text>
</g>
<!-- Node3&#45;&gt;Node1 -->
<g id="edge2" class="edge">
<title>Node3&#45;&gt;Node1</title>
<path fill="none" stroke="#404040" d="M124.9466,-138.2127C120.7598,-120.262 115.0852,-96.7152 109.5,-76 108.9265,-73.873 108.3259,-71.6957 107.7096,-69.5002"/>
<polygon fill="none" stroke="#404040" points="107.6507,-69.2957 102.1455,-64.6381 104.3275,-57.765 109.8327,-62.4226 107.6507,-69.2957"/>
<text text-anchor="middle" x="171" y="-112" font-family="Helvetica,sans-Serif" font-size="10.00" fill="#000000"> +consumer</text>
<text text-anchor="middle" x="171" y="-101" font-family="Helvetica,sans-Serif" font-size="10.00" fill="#000000">+producerTimeIndex</text>
<text text-anchor="middle" x="171" y="-90" font-family="Helvetica,sans-Serif" font-size="10.00" fill="#000000">+producer</text>
<text text-anchor="middle" x="171" y="-79" font-family="Helvetica,sans-Serif" font-size="10.00" fill="#000000">+timeIndex</text>
</g>
</g>
</svg>
