<?xml version="1.0" encoding="UTF-8" standalone="no"?>
<!DOCTYPE svg PUBLIC "-//W3C//DTD SVG 1.1//EN"
 "http://www.w3.org/Graphics/SVG/1.1/DTD/svg11.dtd">
<!-- Generated by graphviz version 2.40.1 (20161225.0304)
 -->
<!-- Title: o2::ft0::EventHeader Pages: 1 -->
<svg width="326pt" height="292pt"
 viewBox="0.00 0.00 326.00 292.00" xmlns="http://www.w3.org/2000/svg" xmlns:xlink="http://www.w3.org/1999/xlink">
<g id="graph0" class="graph" transform="scale(1 1) rotate(0) translate(4 288)">
<title>o2::ft0::EventHeader</title>
<!-- Node1 -->
<g id="node1" class="node">
<title>Node1</title>
<polygon fill="#bfbfbf" stroke="#000000" points="77,-.5 77,-68.5 194,-68.5 194,-.5 77,-.5"/>
<text text-anchor="middle" x="135.5" y="-56.5" font-family="Helvetica,sans-Serif" font-size="10.00" fill="#000000">o2::ft0::EventHeader</text>
<polyline fill="none" stroke="#000000" points="77,-49.5 194,-49.5 "/>
<text text-anchor="middle" x="135.5" y="-37.5" font-family="Helvetica,sans-Serif" font-size="10.00" fill="#000000"> </text>
<polyline fill="none" stroke="#000000" points="77,-30.5 194,-30.5 "/>
<text text-anchor="start" x="85" y="-18.5" font-family="Helvetica,sans-Serif" font-size="10.00" fill="#000000">+ getIntRec()</text>
<text text-anchor="start" x="85" y="-7.5" font-family="Helvetica,sans-Serif" font-size="10.00" fill="#000000">+ print()</text>
</g>
<!-- Node2 -->
<g id="node2" class="node">
<title>Node2</title>
<polygon fill="none" stroke="#bfbfbf" points="0,-226.5 0,-283.5 61,-283.5 61,-226.5 0,-226.5"/>
<text text-anchor="middle" x="30.5" y="-271.5" font-family="Helvetica,sans-Serif" font-size="10.00" fill="#000000">unsigned</text>
<polyline fill="none" stroke="#bfbfbf" points="0,-264.5 61,-264.5 "/>
<text text-anchor="middle" x="30.5" y="-252.5" font-family="Helvetica,sans-Serif" font-size="10.00" fill="#000000"> </text>
<polyline fill="none" stroke="#bfbfbf" points="0,-245.5 61,-245.5 "/>
<text text-anchor="middle" x="30.5" y="-233.5" font-family="Helvetica,sans-Serif" font-size="10.00" fill="#000000"> </text>
</g>
<!-- Node2&#45;&gt;Node1 -->
<g id="edge1" class="edge">
<title>Node2&#45;&gt;Node1</title>
<path fill="none" stroke="#404040" d="M26.5268,-226.3559C23.1093,-190.7732 22.3551,-129.5681 49.5,-87 54.0498,-79.8651 59.951,-73.552 66.5303,-68.005"/>
<polygon fill="none" stroke="#404040" points="66.9999,-67.6504 69.3779,-60.8427 76.5766,-60.4195 74.1986,-67.2272 66.9999,-67.6504"/>
<text text-anchor="middle" x="90.5" y="-200" font-family="Helvetica,sans-Serif" font-size="10.00" fill="#000000"> +word</text>
<text text-anchor="middle" x="90.5" y="-189" font-family="Helvetica,sans-Serif" font-size="10.00" fill="#000000">+nGBTWords</text>
<text text-anchor="middle" x="90.5" y="-178" font-family="Helvetica,sans-Serif" font-size="10.00" fill="#000000">+startDescriptor</text>
<text text-anchor="middle" x="90.5" y="-167" font-family="Helvetica,sans-Serif" font-size="10.00" fill="#000000">+reservedField1</text>
<text text-anchor="middle" x="90.5" y="-156" font-family="Helvetica,sans-Serif" font-size="10.00" fill="#000000">+reservedField2</text>
<text text-anchor="middle" x="90.5" y="-145" font-family="Helvetica,sans-Serif" font-size="10.00" fill="#000000">+bc</text>
<text text-anchor="middle" x="90.5" y="-134" font-family="Helvetica,sans-Serif" font-size="10.00" fill="#000000">+reservedField3</text>
<text text-anchor="middle" x="90.5" y="-123" font-family="Helvetica,sans-Serif" font-size="10.00" fill="#000000">+orbit</text>
<text text-anchor="middle" x="90.5" y="-112" font-family="Helvetica,sans-Serif" font-size="10.00" fill="#000000">+errorPhase</text>
<text text-anchor="middle" x="90.5" y="-101" font-family="Helvetica,sans-Serif" font-size="10.00" fill="#000000">+phase</text>
<text text-anchor="middle" x="90.5" y="-90" font-family="Helvetica,sans-Serif" font-size="10.00" fill="#000000">...</text>
</g>
<!-- Node3 -->
<g id="node3" class="node">
<title>Node3</title>
<polygon fill="none" stroke="#bfbfbf" points="113.5,-226.5 113.5,-283.5 157.5,-283.5 157.5,-226.5 113.5,-226.5"/>
<text text-anchor="middle" x="135.5" y="-271.5" font-family="Helvetica,sans-Serif" font-size="10.00" fill="#000000">static</text>
<polyline fill="none" stroke="#bfbfbf" points="113.5,-264.5 157.5,-264.5 "/>
<text text-anchor="middle" x="135.5" y="-252.5" font-family="Helvetica,sans-Serif" font-size="10.00" fill="#000000"> </text>
<polyline fill="none" stroke="#bfbfbf" points="113.5,-245.5 157.5,-245.5 "/>
<text text-anchor="middle" x="135.5" y="-233.5" font-family="Helvetica,sans-Serif" font-size="10.00" fill="#000000"> </text>
</g>
<!-- Node3&#45;&gt;Node1 -->
<g id="edge2" class="edge">
<title>Node3&#45;&gt;Node1</title>
<path fill="none" stroke="#404040" d="M135.5,-226.1735C135.5,-189.2261 135.5,-124.7136 135.5,-80.8345"/>
<polygon fill="none" stroke="#404040" points="135.5001,-80.7678 131.5,-74.7679 135.5,-68.7678 139.5,-74.7678 135.5001,-80.7678"/>
<text text-anchor="middle" x="190" y="-161.5" font-family="Helvetica,sans-Serif" font-size="10.00" fill="#000000"> +PayloadPerGBTword</text>
<text text-anchor="middle" x="190" y="-150.5" font-family="Helvetica,sans-Serif" font-size="10.00" fill="#000000">+MaxNelements</text>
<text text-anchor="middle" x="190" y="-139.5" font-family="Helvetica,sans-Serif" font-size="10.00" fill="#000000">+MinNelements</text>
<text text-anchor="middle" x="190" y="-128.5" font-family="Helvetica,sans-Serif" font-size="10.00" fill="#000000">+PayloadSize</text>
</g>
<!-- Node4 -->
<g id="node4" class="node">
<title>Node4</title>
<polygon fill="none" stroke="#bfbfbf" points="217,-226.5 217,-283.5 318,-283.5 318,-226.5 217,-226.5"/>
<text text-anchor="middle" x="267.5" y="-271.5" font-family="Helvetica,sans-Serif" font-size="10.00" fill="#000000">anonymous:+@8</text>
<polyline fill="none" stroke="#bfbfbf" points="217,-264.5 318,-264.5 "/>
<text text-anchor="middle" x="267.5" y="-252.5" font-family="Helvetica,sans-Serif" font-size="10.00" fill="#000000"> </text>
<polyline fill="none" stroke="#bfbfbf" points="217,-245.5 318,-245.5 "/>
<text text-anchor="middle" x="267.5" y="-233.5" font-family="Helvetica,sans-Serif" font-size="10.00" fill="#000000"> </text>
</g>
<!-- Node4&#45;&gt;Node1 -->
<g id="edge3" class="edge">
<title>Node4&#45;&gt;Node1</title>
<path fill="none" stroke="#404040" d="M271.4886,-226.4594C274.9305,-190.4276 275.3927,-128.1841 245.5,-87 235.4477,-73.1506 220.7691,-62.8122 205.3903,-55.1485"/>
<polygon fill="none" stroke="#404040" points="205.0493,-54.9936 197.932,-56.1529 194.1245,-50.0289 201.2418,-48.8696 205.0493,-54.9936"/>
<text text-anchor="middle" x="286.5" y="-145" font-family="Helvetica,sans-Serif" font-size="10.00" fill="#000000"> +@8</text>
</g>
</g>
</svg>
