<?xml version="1.0" encoding="UTF-8" standalone="no"?>
<!DOCTYPE svg PUBLIC "-//W3C//DTD SVG 1.1//EN"
 "http://www.w3.org/Graphics/SVG/1.1/DTD/svg11.dtd">
<!-- Generated by graphviz version 2.40.1 (20161225.0304)
 -->
<!-- Title: o2::framework::AnalysisDataProcessorBuilder::GroupSlicer&lt; G, A &gt; Pages: 1 -->
<!--zoomable 518 -->
<svg id="main" version="1.1" xmlns="http://www.w3.org/2000/svg" xmlns:xlink="http://www.w3.org/1999/xlink" xml:space="preserve" onload="init(evt)">
<style type="text/css"><![CDATA[
.edge:hover path { stroke: red; }
.edge:hover polygon { stroke: red; fill: red; }
]]></style>
<script type="text/javascript"><![CDATA[
var edges = document.getElementsByTagName('g');
if (edges && edges.length) {
  for (var i=0;i<edges.length;i++) {
    if (edges[i].id.substr(0,4)=='edge') {
      edges[i].setAttribute('class','edge');
    }
  }
}
]]></script>
        <defs>
                <circle id="rim" cx="0" cy="0" r="7"/>
                <circle id="rim2" cx="0" cy="0" r="3.5"/>
                <g id="zoomPlus">
                        <use xlink:href="#rim" fill="#404040">
                                <set attributeName="fill" to="#808080" begin="zoomplus.mouseover" end="zoomplus.mouseout"/>
                        </use>
                        <path d="M-4,0h8M0,-4v8" fill="none" stroke="white" stroke-width="1.5" pointer-events="none"/>
                </g>
                <g id="zoomMin">
                        <use xlink:href="#rim" fill="#404040">
                                <set attributeName="fill" to="#808080" begin="zoomminus.mouseover" end="zoomminus.mouseout"/>
                        </use>
                        <path d="M-4,0h8" fill="none" stroke="white" stroke-width="1.5" pointer-events="none"/>
                </g>
                <g id="dirArrow">
                        <path fill="none" stroke="white" stroke-width="1.5" d="M0,-3.0v7 M-2.5,-0.5L0,-3.0L2.5,-0.5"/>
                </g>
               <g id="resetDef">
                       <use xlink:href="#rim2" fill="#404040">
                               <set attributeName="fill" to="#808080" begin="reset.mouseover" end="reset.mouseout"/>
                       </use>
               </g>
        </defs>

<script type="text/javascript">
var viewWidth = 1092;
var viewHeight = 518;
var sectionId = 'dynsection-0';
</script>
<script xlink:href="../../svgpan.js"/>
<svg id="graph" class="graph">
<g id="viewport">
<title>o2::framework::AnalysisDataProcessorBuilder::GroupSlicer&lt; G, A &gt;</title>
<!-- Node1 -->
<g id="node1" class="node">
<title>Node1</title>
<polygon fill="#bfbfbf" stroke="#000000" points="408.5,-.5 408.5,-101.5 569.5,-101.5 569.5,-.5 408.5,-.5"/>
<text text-anchor="start" x="416.5" y="-89.5" font-family="Helvetica,sans-Serif" font-size="10.00" fill="#000000">o2::framework::AnalysisData</text>
<text text-anchor="start" x="416.5" y="-78.5" font-family="Helvetica,sans-Serif" font-size="10.00" fill="#000000">ProcessorBuilder::GroupSlicer</text>
<text text-anchor="middle" x="489" y="-67.5" font-family="Helvetica,sans-Serif" font-size="10.00" fill="#000000">&lt; G, A &gt;</text>
<polyline fill="none" stroke="#000000" points="408.5,-60.5 569.5,-60.5 "/>
<text text-anchor="middle" x="489" y="-48.5" font-family="Helvetica,sans-Serif" font-size="10.00" fill="#000000"> </text>
<polyline fill="none" stroke="#000000" points="408.5,-41.5 569.5,-41.5 "/>
<text text-anchor="start" x="416.5" y="-29.5" font-family="Helvetica,sans-Serif" font-size="10.00" fill="#000000">+ GroupSlicer()</text>
<text text-anchor="start" x="416.5" y="-18.5" font-family="Helvetica,sans-Serif" font-size="10.00" fill="#000000">+ begin()</text>
<text text-anchor="start" x="416.5" y="-7.5" font-family="Helvetica,sans-Serif" font-size="10.00" fill="#000000">+ end()</text>
</g>
<!-- Node2 -->
<g id="node2" class="node">
<title>Node2</title>
<polygon fill="none" stroke="#bfbfbf" points="436,-243 436,-300 486,-300 486,-243 436,-243"/>
<text text-anchor="middle" x="461" y="-288" font-family="Helvetica,sans-Serif" font-size="10.00" fill="#000000">int64_t</text>
<polyline fill="none" stroke="#bfbfbf" points="436,-281 486,-281 "/>
<text text-anchor="middle" x="461" y="-269" font-family="Helvetica,sans-Serif" font-size="10.00" fill="#000000"> </text>
<polyline fill="none" stroke="#bfbfbf" points="436,-262 486,-262 "/>
<text text-anchor="middle" x="461" y="-250" font-family="Helvetica,sans-Serif" font-size="10.00" fill="#000000"> </text>
</g>
<!-- Node2&#45;&gt;Node1 -->
<g id="edge1" class="edge">
<title>Node2&#45;&gt;Node1</title>
<path fill="none" stroke="#404040" d="M464.6605,-242.6735C468.789,-210.1614 475.6279,-156.3051 481.0069,-113.9454"/>
<polygon fill="none" stroke="#404040" points="481.0414,-113.6732 477.8292,-107.2171 482.5532,-101.7688 485.7654,-108.2249 481.0414,-113.6732"/>
<text text-anchor="middle" x="496" y="-123" font-family="Helvetica,sans-Serif" font-size="10.00" fill="#000000"> +max</text>
</g>
<!-- Node3 -->
<g id="node3" class="node">
<title>Node3</title>
<g id="a_node3"><a xlink:href="../../db/d21/structo2_1_1framework_1_1AnalysisDataProcessorBuilder_1_1GroupSlicer_1_1GroupSlicerIterator.html" target="_top" xlink:title="{o2::framework::AnalysisData\lProcessorBuilder::GroupSlicer\l\&lt; G, A \&gt;::GroupSlicerIterator\n||+ GroupSlicerIterator()\l+ GroupSlicerIterator()\l+ GroupSlicerIterator()\l+ operator=()\l+ operator=()\l+ getLabelFromType()\l+ GroupSlicerIterator()\l+ hasIndexTo()\l+ isIndexTo()\l+ operator++()\l+ operator==()\l+ operator!=()\l+ groupingElement()\l+ operator*()\l+ associatedTables()\l+ prepareArgument()\l}">
<polygon fill="none" stroke="#000000" points="504.5,-149.5 504.5,-393.5 665.5,-393.5 665.5,-149.5 504.5,-149.5"/>
<text text-anchor="start" x="512.5" y="-381.5" font-family="Helvetica,sans-Serif" font-size="10.00" fill="#000000">o2::framework::AnalysisData</text>
<text text-anchor="start" x="512.5" y="-370.5" font-family="Helvetica,sans-Serif" font-size="10.00" fill="#000000">ProcessorBuilder::GroupSlicer</text>
<text text-anchor="middle" x="585" y="-359.5" font-family="Helvetica,sans-Serif" font-size="10.00" fill="#000000">&lt; G, A &gt;::GroupSlicerIterator</text>
<polyline fill="none" stroke="#000000" points="504.5,-352.5 665.5,-352.5 "/>
<text text-anchor="middle" x="585" y="-340.5" font-family="Helvetica,sans-Serif" font-size="10.00" fill="#000000"> </text>
<polyline fill="none" stroke="#000000" points="504.5,-333.5 665.5,-333.5 "/>
<text text-anchor="start" x="512.5" y="-321.5" font-family="Helvetica,sans-Serif" font-size="10.00" fill="#000000">+ GroupSlicerIterator()</text>
<text text-anchor="start" x="512.5" y="-310.5" font-family="Helvetica,sans-Serif" font-size="10.00" fill="#000000">+ GroupSlicerIterator()</text>
<text text-anchor="start" x="512.5" y="-299.5" font-family="Helvetica,sans-Serif" font-size="10.00" fill="#000000">+ GroupSlicerIterator()</text>
<text text-anchor="start" x="512.5" y="-288.5" font-family="Helvetica,sans-Serif" font-size="10.00" fill="#000000">+ operator=()</text>
<text text-anchor="start" x="512.5" y="-277.5" font-family="Helvetica,sans-Serif" font-size="10.00" fill="#000000">+ operator=()</text>
<text text-anchor="start" x="512.5" y="-266.5" font-family="Helvetica,sans-Serif" font-size="10.00" fill="#000000">+ getLabelFromType()</text>
<text text-anchor="start" x="512.5" y="-255.5" font-family="Helvetica,sans-Serif" font-size="10.00" fill="#000000">+ GroupSlicerIterator()</text>
<text text-anchor="start" x="512.5" y="-244.5" font-family="Helvetica,sans-Serif" font-size="10.00" fill="#000000">+ hasIndexTo()</text>
<text text-anchor="start" x="512.5" y="-233.5" font-family="Helvetica,sans-Serif" font-size="10.00" fill="#000000">+ isIndexTo()</text>
<text text-anchor="start" x="512.5" y="-222.5" font-family="Helvetica,sans-Serif" font-size="10.00" fill="#000000">+ operator++()</text>
<text text-anchor="start" x="512.5" y="-211.5" font-family="Helvetica,sans-Serif" font-size="10.00" fill="#000000">+ operator==()</text>
<text text-anchor="start" x="512.5" y="-200.5" font-family="Helvetica,sans-Serif" font-size="10.00" fill="#000000">+ operator!=()</text>
<text text-anchor="start" x="512.5" y="-189.5" font-family="Helvetica,sans-Serif" font-size="10.00" fill="#000000">+ groupingElement()</text>
<text text-anchor="start" x="512.5" y="-178.5" font-family="Helvetica,sans-Serif" font-size="10.00" fill="#000000">+ operator*()</text>
<text text-anchor="start" x="512.5" y="-167.5" font-family="Helvetica,sans-Serif" font-size="10.00" fill="#000000">+ associatedTables()</text>
<text text-anchor="start" x="512.5" y="-156.5" font-family="Helvetica,sans-Serif" font-size="10.00" fill="#000000">+ prepareArgument()</text>
</a>
</g>
</g>
<!-- Node3&#45;&gt;Node1 -->
<g id="edge2" class="edge">
<title>Node3&#45;&gt;Node1</title>
<path fill="none" stroke="#404040" d="M531.8059,-149.3199C526.3227,-136.7255 520.9309,-124.3413 515.9213,-112.835"/>
<polygon fill="none" stroke="#404040" points="515.8402,-112.6485 509.7776,-108.744 511.05,-101.6461 517.1126,-105.5505 515.8402,-112.6485"/>
<text text-anchor="middle" x="546.5" y="-123" font-family="Helvetica,sans-Serif" font-size="10.00" fill="#000000"> +mBegin</text>
</g>
<!-- Node4 -->
<g id="node4" class="node">
<title>Node4</title>
<polygon fill="none" stroke="#bfbfbf" points="0,-441.5 0,-509.5 152,-509.5 152,-441.5 0,-441.5"/>
<text text-anchor="start" x="8" y="-497.5" font-family="Helvetica,sans-Serif" font-size="10.00" fill="#000000">array&lt; soa::SelectionVector</text>
<text text-anchor="middle" x="76" y="-486.5" font-family="Helvetica,sans-Serif" font-size="10.00" fill="#000000"> const *, sizeof...(A)&gt;</text>
<polyline fill="none" stroke="#bfbfbf" points="0,-479.5 152,-479.5 "/>
<text text-anchor="middle" x="76" y="-467.5" font-family="Helvetica,sans-Serif" font-size="10.00" fill="#000000"> </text>
<polyline fill="none" stroke="#bfbfbf" points="0,-460.5 152,-460.5 "/>
<text text-anchor="middle" x="76" y="-448.5" font-family="Helvetica,sans-Serif" font-size="10.00" fill="#000000"> </text>
</g>
<!-- Node4&#45;&gt;Node3 -->
<g id="edge3" class="edge">
<title>Node4&#45;&gt;Node3</title>
<path fill="none" stroke="#404040" d="M152.295,-444.0359C155.2247,-442.986 158.1337,-441.97 161,-441 207.2651,-425.3436 218.886,-420.4037 267,-412 313.9372,-403.8019 434.2283,-416.8827 493.4433,-393.3377"/>
<polygon fill="none" stroke="#404040" points="493.5908,-393.2678 497.2966,-387.0817 504.4321,-388.1232 500.7263,-394.3093 493.5908,-393.2678"/>
<text text-anchor="middle" x="297.5" y="-415" font-family="Helvetica,sans-Serif" font-size="10.00" fill="#000000"> +selections</text>
</g>
<!-- Node5 -->
<g id="node5" class="node">
<title>Node5</title>
<polygon fill="none" stroke="#bfbfbf" points="170,-441.5 170,-509.5 326,-509.5 326,-441.5 170,-441.5"/>
<text text-anchor="start" x="178" y="-497.5" font-family="Helvetica,sans-Serif" font-size="10.00" fill="#000000">array&lt; soa::SelectionVector</text>
<text text-anchor="middle" x="248" y="-486.5" font-family="Helvetica,sans-Serif" font-size="10.00" fill="#000000">::const_iterator, sizeof...(A)&gt;</text>
<polyline fill="none" stroke="#bfbfbf" points="170,-479.5 326,-479.5 "/>
<text text-anchor="middle" x="248" y="-467.5" font-family="Helvetica,sans-Serif" font-size="10.00" fill="#000000"> </text>
<polyline fill="none" stroke="#bfbfbf" points="170,-460.5 326,-460.5 "/>
<text text-anchor="middle" x="248" y="-448.5" font-family="Helvetica,sans-Serif" font-size="10.00" fill="#000000"> </text>
</g>
<!-- Node5&#45;&gt;Node3 -->
<g id="edge4" class="edge">
<title>Node5&#45;&gt;Node3</title>
<path fill="none" stroke="#404040" d="M297.0054,-441.3718C315.1047,-430.3032 336.2712,-419.0678 357,-412 412.1131,-393.2084 438.5595,-421.7194 493.6695,-393.7987"/>
<polygon fill="none" stroke="#404040" points="493.8104,-393.7207 497.1198,-387.3138 504.3067,-387.9045 500.9973,-394.3114 493.8104,-393.7207"/>
<text text-anchor="middle" x="377" y="-415" font-family="Helvetica,sans-Serif" font-size="10.00" fill="#000000"> +starts</text>
</g>
<!-- Node6 -->
<g id="node6" class="node">
<title>Node6</title>
<polygon fill="none" stroke="#bfbfbf" points="344.5,-447 344.5,-504 397.5,-504 397.5,-447 344.5,-447"/>
<text text-anchor="middle" x="371" y="-492" font-family="Helvetica,sans-Serif" font-size="10.00" fill="#000000">iterator</text>
<polyline fill="none" stroke="#bfbfbf" points="344.5,-485 397.5,-485 "/>
<text text-anchor="middle" x="371" y="-473" font-family="Helvetica,sans-Serif" font-size="10.00" fill="#000000"> </text>
<polyline fill="none" stroke="#bfbfbf" points="344.5,-466 397.5,-466 "/>
<text text-anchor="middle" x="371" y="-454" font-family="Helvetica,sans-Serif" font-size="10.00" fill="#000000"> </text>
</g>
<!-- Node6&#45;&gt;Node3 -->
<g id="edge5" class="edge">
<title>Node6&#45;&gt;Node3</title>
<path fill="none" stroke="#404040" d="M383.7809,-446.755C390.7171,-434.2859 400.4656,-420.5985 413,-412 441.0041,-392.7895 460.0484,-410.4886 493.9131,-393.4318"/>
<polygon fill="none" stroke="#404040" points="494.041,-393.357 497.199,-386.8741 504.3977,-387.2957 501.2398,-393.7786 494.041,-393.357"/>
<text text-anchor="middle" x="466" y="-415" font-family="Helvetica,sans-Serif" font-size="10.00" fill="#000000"> +mGroupingElement</text>
</g>
<!-- Node7 -->
<g id="node7" class="node">
<title>Node7</title>
<polygon fill="none" stroke="#bfbfbf" points="415.5,-441.5 415.5,-509.5 586.5,-509.5 586.5,-441.5 415.5,-441.5"/>
<text text-anchor="start" x="423.5" y="-497.5" font-family="Helvetica,sans-Serif" font-size="10.00" fill="#000000">array&lt; std::vector</text>
<text text-anchor="middle" x="501" y="-486.5" font-family="Helvetica,sans-Serif" font-size="10.00" fill="#000000">&lt; arrow::Datum &gt;, sizeof...(A)&gt;</text>
<polyline fill="none" stroke="#bfbfbf" points="415.5,-479.5 586.5,-479.5 "/>
<text text-anchor="middle" x="501" y="-467.5" font-family="Helvetica,sans-Serif" font-size="10.00" fill="#000000"> </text>
<polyline fill="none" stroke="#bfbfbf" points="415.5,-460.5 586.5,-460.5 "/>
<text text-anchor="middle" x="501" y="-448.5" font-family="Helvetica,sans-Serif" font-size="10.00" fill="#000000"> </text>
</g>
<!-- Node7&#45;&gt;Node3 -->
<g id="edge6" class="edge">
<title>Node7&#45;&gt;Node3</title>
<path fill="none" stroke="#404040" d="M515.0597,-441.355C519.4383,-430.7214 524.5583,-418.287 530.0014,-405.068"/>
<polygon fill="none" stroke="#404040" points="530.0714,-404.8979 528.6572,-397.8268 534.6405,-393.8017 536.0546,-400.8728 530.0714,-404.8979"/>
<text text-anchor="middle" x="547.5" y="-415" font-family="Helvetica,sans-Serif" font-size="10.00" fill="#000000"> +groups</text>
</g>
<!-- Node8 -->
<g id="node8" class="node">
<title>Node8</title>
<polygon fill="none" stroke="#bfbfbf" points="605,-447 605,-504 735,-504 735,-447 605,-447"/>
<text text-anchor="middle" x="670" y="-492" font-family="Helvetica,sans-Serif" font-size="10.00" fill="#000000">SelectionVector const *</text>
<polyline fill="none" stroke="#bfbfbf" points="605,-485 735,-485 "/>
<text text-anchor="middle" x="670" y="-473" font-family="Helvetica,sans-Serif" font-size="10.00" fill="#000000"> </text>
<polyline fill="none" stroke="#bfbfbf" points="605,-466 735,-466 "/>
<text text-anchor="middle" x="670" y="-454" font-family="Helvetica,sans-Serif" font-size="10.00" fill="#000000"> </text>
</g>
<!-- Node8&#45;&gt;Node3 -->
<g id="edge7" class="edge">
<title>Node8&#45;&gt;Node3</title>
<path fill="none" stroke="#404040" d="M658.0019,-446.7045C653.141,-435.0385 647.1551,-420.6723 640.7202,-405.2284"/>
<polygon fill="none" stroke="#404040" points="640.5802,-404.8924 634.5802,-400.8924 635.9648,-393.8155 641.9648,-397.8155 640.5802,-404.8924"/>
<text text-anchor="middle" x="689.5" y="-415" font-family="Helvetica,sans-Serif" font-size="10.00" fill="#000000"> +groupSelection</text>
</g>
<!-- Node9 -->
<g id="node9" class="node">
<title>Node9</title>
<polygon fill="none" stroke="#bfbfbf" points="753.5,-441.5 753.5,-509.5 898.5,-509.5 898.5,-441.5 753.5,-441.5"/>
<text text-anchor="start" x="761.5" y="-497.5" font-family="Helvetica,sans-Serif" font-size="10.00" fill="#000000">array&lt; std::vector</text>
<text text-anchor="middle" x="826" y="-486.5" font-family="Helvetica,sans-Serif" font-size="10.00" fill="#000000">&lt; uint64_t &gt;, sizeof...(A)&gt;</text>
<polyline fill="none" stroke="#bfbfbf" points="753.5,-479.5 898.5,-479.5 "/>
<text text-anchor="middle" x="826" y="-467.5" font-family="Helvetica,sans-Serif" font-size="10.00" fill="#000000"> </text>
<polyline fill="none" stroke="#bfbfbf" points="753.5,-460.5 898.5,-460.5 "/>
<text text-anchor="middle" x="826" y="-448.5" font-family="Helvetica,sans-Serif" font-size="10.00" fill="#000000"> </text>
</g>
<!-- Node9&#45;&gt;Node3 -->
<g id="edge8" class="edge">
<title>Node9&#45;&gt;Node3</title>
<path fill="none" stroke="#404040" d="M785.662,-441.355C755.5209,-415.8414 713.1335,-379.9616 675.0778,-347.7484"/>
<polygon fill="none" stroke="#404040" points="674.6652,-347.3992 667.5013,-346.5758 665.506,-339.6462 672.67,-340.4696 674.6652,-347.3992"/>
<text text-anchor="middle" x="783.5" y="-415" font-family="Helvetica,sans-Serif" font-size="10.00" fill="#000000"> +offsets</text>
</g>
<!-- Node10 -->
<g id="node10" class="node">
<title>Node10</title>
<polygon fill="none" stroke="#bfbfbf" points="916.5,-447 916.5,-504 977.5,-504 977.5,-447 916.5,-447"/>
<text text-anchor="middle" x="947" y="-492" font-family="Helvetica,sans-Serif" font-size="10.00" fill="#000000">unsigned</text>
<polyline fill="none" stroke="#bfbfbf" points="916.5,-485 977.5,-485 "/>
<text text-anchor="middle" x="947" y="-473" font-family="Helvetica,sans-Serif" font-size="10.00" fill="#000000"> </text>
<polyline fill="none" stroke="#bfbfbf" points="916.5,-466 977.5,-466 "/>
<text text-anchor="middle" x="947" y="-454" font-family="Helvetica,sans-Serif" font-size="10.00" fill="#000000"> </text>
</g>
<!-- Node10&#45;&gt;Node3 -->
<g id="edge9" class="edge">
<title>Node10&#45;&gt;Node3</title>
<path fill="none" stroke="#404040" d="M916.4747,-447.2976C913.6755,-445.0817 910.8278,-442.9503 908,-441 834.1717,-390.0831 743.1817,-343.6295 676.6101,-312.2826"/>
<polygon fill="none" stroke="#404040" points="676.5951,-312.2756 669.4653,-313.3556 665.7261,-307.1896 672.8559,-306.1097 676.5951,-312.2756"/>
<text text-anchor="middle" x="900.5" y="-415" font-family="Helvetica,sans-Serif" font-size="10.00" fill="#000000"> +position</text>
</g>
<!-- Node11 -->
<g id="node11" class="node">
<title>Node11</title>
<polygon fill="none" stroke="#bfbfbf" points="996,-447 996,-504 1084,-504 1084,-447 996,-447"/>
<text text-anchor="middle" x="1040" y="-492" font-family="Helvetica,sans-Serif" font-size="10.00" fill="#000000">tuple&lt; A... &gt; *</text>
<polyline fill="none" stroke="#bfbfbf" points="996,-485 1084,-485 "/>
<text text-anchor="middle" x="1040" y="-473" font-family="Helvetica,sans-Serif" font-size="10.00" fill="#000000"> </text>
<polyline fill="none" stroke="#bfbfbf" points="996,-466 1084,-466 "/>
<text text-anchor="middle" x="1040" y="-454" font-family="Helvetica,sans-Serif" font-size="10.00" fill="#000000"> </text>
</g>
<!-- Node11&#45;&gt;Node3 -->
<g id="edge10" class="edge">
<title>Node11&#45;&gt;Node3</title>
<path fill="none" stroke="#404040" d="M996.8486,-446.8765C993.541,-444.847 990.2323,-442.8672 987,-441 962.3879,-426.7823 955.8516,-423.8151 930,-412 845.4475,-373.3565 747.072,-333.8114 677.0564,-306.5614"/>
<polygon fill="none" stroke="#404040" points="676.8206,-306.4699 669.7797,-308.0273 665.634,-302.127 672.675,-300.5696 676.8206,-306.4699"/>
<text text-anchor="middle" x="969" y="-415" font-family="Helvetica,sans-Serif" font-size="10.00" fill="#000000"> +mAt</text>
</g>
</g>
</svg>
        <g id="navigator" transform="translate(0 0)" fill="#404254">
                <rect fill="#f2f5e9" fill-opacity="0.5" stroke="#606060" stroke-width=".5" x="0" y="0" width="60" height="60"/>
                <use id="zoomplus" xlink:href="#zoomPlus" x="17" y="9" onmousedown="handleZoom(evt,'in')"/>
                <use id="zoomminus" xlink:href="#zoomMin" x="42" y="9" onmousedown="handleZoom(evt,'out')"/>
                <use id="reset" xlink:href="#resetDef" x="30" y="36" onmousedown="handleReset()"/>
                <g id="arrowUp" xlink:href="#dirArrow" transform="translate(30 24)" onmousedown="handlePan(0,-1)">
                  <use xlink:href="#rim" fill="#404040">
                        <set attributeName="fill" to="#808080" begin="arrowUp.mouseover" end="arrowUp.mouseout"/>
                  </use>
                  <path fill="none" stroke="white" stroke-width="1.5" d="M0,-3.0v7 M-2.5,-0.5L0,-3.0L2.5,-0.5"/>
                </g>
                <g id="arrowRight" xlink:href="#dirArrow" transform="rotate(90) translate(36 -43)" onmousedown="handlePan(1,0)">
                  <use xlink:href="#rim" fill="#404040">
                        <set attributeName="fill" to="#808080" begin="arrowRight.mouseover" end="arrowRight.mouseout"/>
                  </use>
                  <path fill="none" stroke="white" stroke-width="1.5" d="M0,-3.0v7 M-2.5,-0.5L0,-3.0L2.5,-0.5"/>
                </g>
                <g id="arrowDown" xlink:href="#dirArrow" transform="rotate(180) translate(-30 -48)" onmousedown="handlePan(0,1)">
                  <use xlink:href="#rim" fill="#404040">
                        <set attributeName="fill" to="#808080" begin="arrowDown.mouseover" end="arrowDown.mouseout"/>
                  </use>
                  <path fill="none" stroke="white" stroke-width="1.5" d="M0,-3.0v7 M-2.5,-0.5L0,-3.0L2.5,-0.5"/>
                </g>
                <g id="arrowLeft" xlink:href="#dirArrow" transform="rotate(270) translate(-36 17)" onmousedown="handlePan(-1,0)">
                  <use xlink:href="#rim" fill="#404040">
                        <set attributeName="fill" to="#808080" begin="arrowLeft.mouseover" end="arrowLeft.mouseout"/>
                  </use>
                  <path fill="none" stroke="white" stroke-width="1.5" d="M0,-3.0v7 M-2.5,-0.5L0,-3.0L2.5,-0.5"/>
                </g>
        </g>
        <svg viewBox="0 0 15 15" width="100%" height="30px" preserveAspectRatio="xMaxYMin meet">
         <g id="arrow_out" transform="scale(0.3 0.3)">
          <a xlink:href="structo2_1_1framework_1_1AnalysisDataProcessorBuilder_1_1GroupSlicer__coll__graph_org.svg" target="_base">
           <rect id="button" ry="5" rx="5" y="6" x="6" height="38" width="38"
                fill="#f2f5e9" fill-opacity="0.5" stroke="#606060" stroke-width="1.0"/>
           <path id="arrow"
             d="M 11.500037,31.436501 C 11.940474,20.09759 22.043105,11.32322 32.158766,21.979434 L 37.068811,17.246167 C 37.068811,17.246167 37.088388,32 37.088388,32 L 22.160133,31.978069 C 22.160133,31.978069 26.997745,27.140456 26.997745,27.140456 C 18.528582,18.264221 13.291696,25.230495 11.500037,31.436501 z"
             style="fill:#404040;"/>
          </a>
         </g>
        </svg>
</svg>
