<?xml version="1.0" encoding="UTF-8" standalone="no"?>
<!DOCTYPE svg PUBLIC "-//W3C//DTD SVG 1.1//EN"
 "http://www.w3.org/Graphics/SVG/1.1/DTD/svg11.dtd">
<!-- Generated by graphviz version 2.40.1 (20161225.0304)
 -->
<!-- Title: o2::tof::CompressedInfos Pages: 1 -->
<!--zoomable 386 -->
<svg id="main" version="1.1" xmlns="http://www.w3.org/2000/svg" xmlns:xlink="http://www.w3.org/1999/xlink" xml:space="preserve" onload="init(evt)">
<style type="text/css"><![CDATA[
.edge:hover path { stroke: red; }
.edge:hover polygon { stroke: red; fill: red; }
]]></style>
<script type="text/javascript"><![CDATA[
var edges = document.getElementsByTagName('g');
if (edges && edges.length) {
  for (var i=0;i<edges.length;i++) {
    if (edges[i].id.substr(0,4)=='edge') {
      edges[i].setAttribute('class','edge');
    }
  }
}
]]></script>
        <defs>
                <circle id="rim" cx="0" cy="0" r="7"/>
                <circle id="rim2" cx="0" cy="0" r="3.5"/>
                <g id="zoomPlus">
                        <use xlink:href="#rim" fill="#404040">
                                <set attributeName="fill" to="#808080" begin="zoomplus.mouseover" end="zoomplus.mouseout"/>
                        </use>
                        <path d="M-4,0h8M0,-4v8" fill="none" stroke="white" stroke-width="1.5" pointer-events="none"/>
                </g>
                <g id="zoomMin">
                        <use xlink:href="#rim" fill="#404040">
                                <set attributeName="fill" to="#808080" begin="zoomminus.mouseover" end="zoomminus.mouseout"/>
                        </use>
                        <path d="M-4,0h8" fill="none" stroke="white" stroke-width="1.5" pointer-events="none"/>
                </g>
                <g id="dirArrow">
                        <path fill="none" stroke="white" stroke-width="1.5" d="M0,-3.0v7 M-2.5,-0.5L0,-3.0L2.5,-0.5"/>
                </g>
               <g id="resetDef">
                       <use xlink:href="#rim2" fill="#404040">
                               <set attributeName="fill" to="#808080" begin="reset.mouseover" end="reset.mouseout"/>
                       </use>
               </g>
        </defs>

<script type="text/javascript">
var viewWidth = 514;
var viewHeight = 386;
var sectionId = 'dynsection-0';
</script>
<script xlink:href="../../svgpan.js"/>
<svg id="graph" class="graph">
<g id="viewport">
<title>o2::tof::CompressedInfos</title>
<!-- Node1 -->
<g id="node1" class="node">
<title>Node1</title>
<polygon fill="#bfbfbf" stroke="#000000" points="173,-.5 173,-79.5 312,-79.5 312,-.5 173,-.5"/>
<text text-anchor="middle" x="242.5" y="-67.5" font-family="Helvetica,sans-Serif" font-size="10.00" fill="#000000">o2::tof::CompressedInfos</text>
<polyline fill="none" stroke="#000000" points="173,-60.5 312,-60.5 "/>
<text text-anchor="middle" x="242.5" y="-48.5" font-family="Helvetica,sans-Serif" font-size="10.00" fill="#000000"> </text>
<polyline fill="none" stroke="#000000" points="173,-41.5 312,-41.5 "/>
<text text-anchor="start" x="181" y="-29.5" font-family="Helvetica,sans-Serif" font-size="10.00" fill="#000000">+ CompressedInfos()</text>
<text text-anchor="start" x="181" y="-18.5" font-family="Helvetica,sans-Serif" font-size="10.00" fill="#000000">+ clear()</text>
<text text-anchor="start" x="181" y="-7.5" font-family="Helvetica,sans-Serif" font-size="10.00" fill="#000000">+ ClassDefNV()</text>
</g>
<!-- Node2 -->
<g id="node2" class="node">
<title>Node2</title>
<g id="a_node2"><a xlink:href="../../df/d44/structo2_1_1tof_1_1CTFHeader.html" target="_top" xlink:title="Header for a single CTF. ">
<polygon fill="none" stroke="#000000" points="0,-171.5 0,-228.5 107,-228.5 107,-171.5 0,-171.5"/>
<text text-anchor="middle" x="53.5" y="-216.5" font-family="Helvetica,sans-Serif" font-size="10.00" fill="#000000">o2::tof::CTFHeader</text>
<polyline fill="none" stroke="#000000" points="0,-209.5 107,-209.5 "/>
<text text-anchor="middle" x="53.5" y="-197.5" font-family="Helvetica,sans-Serif" font-size="10.00" fill="#000000"> </text>
<polyline fill="none" stroke="#000000" points="0,-190.5 107,-190.5 "/>
<text text-anchor="start" x="8" y="-178.5" font-family="Helvetica,sans-Serif" font-size="10.00" fill="#000000">+ ClassDefNV()</text>
</a>
</g>
</g>
<!-- Node2&#45;&gt;Node1 -->
<g id="edge1" class="edge">
<title>Node2&#45;&gt;Node1</title>
<path fill="none" stroke="#404040" d="M73.3935,-171.1812C89.4764,-149.2979 113.6308,-119.4194 139.5,-98 146.6687,-92.0644 154.53,-86.4116 162.6136,-81.1276"/>
<polygon fill="none" stroke="#404040" points="162.7768,-81.025 165.7276,-74.4452 172.9361,-74.6383 169.9853,-81.2181 162.7768,-81.025"/>
<text text-anchor="middle" x="162.5" y="-123" font-family="Helvetica,sans-Serif" font-size="10.00" fill="#000000"> +header</text>
</g>
<!-- Node3 -->
<g id="node3" class="node">
<title>Node3</title>
<polygon fill="none" stroke="#bfbfbf" points="23,-320.5 23,-377.5 84,-377.5 84,-320.5 23,-320.5"/>
<text text-anchor="middle" x="53.5" y="-365.5" font-family="Helvetica,sans-Serif" font-size="10.00" fill="#000000">unsigned</text>
<polyline fill="none" stroke="#bfbfbf" points="23,-358.5 84,-358.5 "/>
<text text-anchor="middle" x="53.5" y="-346.5" font-family="Helvetica,sans-Serif" font-size="10.00" fill="#000000"> </text>
<polyline fill="none" stroke="#bfbfbf" points="23,-339.5 84,-339.5 "/>
<text text-anchor="middle" x="53.5" y="-327.5" font-family="Helvetica,sans-Serif" font-size="10.00" fill="#000000"> </text>
</g>
<!-- Node3&#45;&gt;Node2 -->
<g id="edge2" class="edge">
<title>Node3&#45;&gt;Node2</title>
<path fill="none" stroke="#404040" d="M53.5,-320.2713C53.5,-297.7002 53.5,-265.9774 53.5,-240.7784"/>
<polygon fill="none" stroke="#404040" points="53.5001,-240.6405 49.5,-234.6405 53.5,-228.6405 57.5,-234.6405 53.5001,-240.6405"/>
<text text-anchor="middle" x="92" y="-294" font-family="Helvetica,sans-Serif" font-size="10.00" fill="#000000"> +firstBC</text>
<text text-anchor="middle" x="92" y="-283" font-family="Helvetica,sans-Serif" font-size="10.00" fill="#000000">+nPatternBytes</text>
<text text-anchor="middle" x="92" y="-272" font-family="Helvetica,sans-Serif" font-size="10.00" fill="#000000">+firstOrbit</text>
<text text-anchor="middle" x="92" y="-261" font-family="Helvetica,sans-Serif" font-size="10.00" fill="#000000">+nDigits</text>
<text text-anchor="middle" x="92" y="-250" font-family="Helvetica,sans-Serif" font-size="10.00" fill="#000000">+nROFs</text>
</g>
<!-- Node4 -->
<g id="node4" class="node">
<title>Node4</title>
<polygon fill="none" stroke="#bfbfbf" points="125.5,-171.5 125.5,-228.5 235.5,-228.5 235.5,-171.5 125.5,-171.5"/>
<text text-anchor="middle" x="180.5" y="-216.5" font-family="Helvetica,sans-Serif" font-size="10.00" fill="#000000">vector&lt; uint16_t &gt;</text>
<polyline fill="none" stroke="#bfbfbf" points="125.5,-209.5 235.5,-209.5 "/>
<text text-anchor="middle" x="180.5" y="-197.5" font-family="Helvetica,sans-Serif" font-size="10.00" fill="#000000"> </text>
<polyline fill="none" stroke="#bfbfbf" points="125.5,-190.5 235.5,-190.5 "/>
<text text-anchor="middle" x="180.5" y="-178.5" font-family="Helvetica,sans-Serif" font-size="10.00" fill="#000000"> </text>
</g>
<!-- Node4&#45;&gt;Node1 -->
<g id="edge3" class="edge">
<title>Node4&#45;&gt;Node1</title>
<path fill="none" stroke="#404040" d="M185.8489,-171.1397C190.2542,-150.3086 197.4213,-121.7811 207.5,-98 208.544,-95.5365 209.6789,-93.0528 210.8803,-90.572"/>
<polygon fill="none" stroke="#404040" points="210.9551,-90.4282 210.1784,-83.259 216.4974,-79.7847 217.2741,-86.9538 210.9551,-90.4282"/>
<text text-anchor="middle" x="245.5" y="-145" font-family="Helvetica,sans-Serif" font-size="10.00" fill="#000000"> +stripID</text>
<text text-anchor="middle" x="245.5" y="-134" font-family="Helvetica,sans-Serif" font-size="10.00" fill="#000000">+bcIncROF</text>
<text text-anchor="middle" x="245.5" y="-123" font-family="Helvetica,sans-Serif" font-size="10.00" fill="#000000">+timeFrameInc</text>
<text text-anchor="middle" x="245.5" y="-112" font-family="Helvetica,sans-Serif" font-size="10.00" fill="#000000">+timeTDCInc</text>
<text text-anchor="middle" x="245.5" y="-101" font-family="Helvetica,sans-Serif" font-size="10.00" fill="#000000">+tot</text>
</g>
<!-- Node5 -->
<g id="node5" class="node">
<title>Node5</title>
<polygon fill="none" stroke="#bfbfbf" points="253.5,-171.5 253.5,-228.5 357.5,-228.5 357.5,-171.5 253.5,-171.5"/>
<text text-anchor="middle" x="305.5" y="-216.5" font-family="Helvetica,sans-Serif" font-size="10.00" fill="#000000">vector&lt; uint8_t &gt;</text>
<polyline fill="none" stroke="#bfbfbf" points="253.5,-209.5 357.5,-209.5 "/>
<text text-anchor="middle" x="305.5" y="-197.5" font-family="Helvetica,sans-Serif" font-size="10.00" fill="#000000"> </text>
<polyline fill="none" stroke="#bfbfbf" points="253.5,-190.5 357.5,-190.5 "/>
<text text-anchor="middle" x="305.5" y="-178.5" font-family="Helvetica,sans-Serif" font-size="10.00" fill="#000000"> </text>
</g>
<!-- Node5&#45;&gt;Node1 -->
<g id="edge4" class="edge">
<title>Node5&#45;&gt;Node1</title>
<path fill="none" stroke="#404040" d="M302.4521,-171.3452C299.4828,-150.3592 293.8455,-121.5521 283.5,-98 282.3493,-95.3803 281.0704,-92.7591 279.6959,-90.1581"/>
<polygon fill="none" stroke="#404040" points="279.6128,-90.0148 273.1421,-86.832 273.5913,-79.6349 280.062,-82.8176 279.6128,-90.0148"/>
<text text-anchor="middle" x="332" y="-123" font-family="Helvetica,sans-Serif" font-size="10.00" fill="#000000"> +chanInStrip</text>
</g>
<!-- Node6 -->
<g id="node6" class="node">
<title>Node6</title>
<polygon fill="none" stroke="#bfbfbf" points="375.5,-171.5 375.5,-228.5 505.5,-228.5 505.5,-171.5 375.5,-171.5"/>
<text text-anchor="middle" x="440.5" y="-216.5" font-family="Helvetica,sans-Serif" font-size="10.00" fill="#000000">vector&lt; unsigned int &gt;</text>
<polyline fill="none" stroke="#bfbfbf" points="375.5,-209.5 505.5,-209.5 "/>
<text text-anchor="middle" x="440.5" y="-197.5" font-family="Helvetica,sans-Serif" font-size="10.00" fill="#000000"> </text>
<polyline fill="none" stroke="#bfbfbf" points="375.5,-190.5 505.5,-190.5 "/>
<text text-anchor="middle" x="440.5" y="-178.5" font-family="Helvetica,sans-Serif" font-size="10.00" fill="#000000"> </text>
</g>
<!-- Node6&#45;&gt;Node1 -->
<g id="edge5" class="edge">
<title>Node6&#45;&gt;Node1</title>
<path fill="none" stroke="#404040" d="M426.0888,-171.3259C413.6452,-148.9398 393.8489,-118.3245 369.5,-98 355.8927,-86.6417 339.6968,-77.0399 323.5014,-69.1178"/>
<polygon fill="none" stroke="#404040" points="323.1955,-68.9751 316.0668,-70.0627 312.3211,-63.9008 319.4497,-62.8132 323.1955,-68.9751"/>
<text text-anchor="middle" x="448.5" y="-139.5" font-family="Helvetica,sans-Serif" font-size="10.00" fill="#000000"> +orbitIncROF</text>
<text text-anchor="middle" x="448.5" y="-128.5" font-family="Helvetica,sans-Serif" font-size="10.00" fill="#000000">+pattMap</text>
<text text-anchor="middle" x="448.5" y="-117.5" font-family="Helvetica,sans-Serif" font-size="10.00" fill="#000000">+ndigROF</text>
<text text-anchor="middle" x="448.5" y="-106.5" font-family="Helvetica,sans-Serif" font-size="10.00" fill="#000000">+ndiaROF</text>
</g>
</g>
</svg>
        <g id="navigator" transform="translate(0 0)" fill="#404254">
                <rect fill="#f2f5e9" fill-opacity="0.5" stroke="#606060" stroke-width=".5" x="0" y="0" width="60" height="60"/>
                <use id="zoomplus" xlink:href="#zoomPlus" x="17" y="9" onmousedown="handleZoom(evt,'in')"/>
                <use id="zoomminus" xlink:href="#zoomMin" x="42" y="9" onmousedown="handleZoom(evt,'out')"/>
                <use id="reset" xlink:href="#resetDef" x="30" y="36" onmousedown="handleReset()"/>
                <g id="arrowUp" xlink:href="#dirArrow" transform="translate(30 24)" onmousedown="handlePan(0,-1)">
                  <use xlink:href="#rim" fill="#404040">
                        <set attributeName="fill" to="#808080" begin="arrowUp.mouseover" end="arrowUp.mouseout"/>
                  </use>
                  <path fill="none" stroke="white" stroke-width="1.5" d="M0,-3.0v7 M-2.5,-0.5L0,-3.0L2.5,-0.5"/>
                </g>
                <g id="arrowRight" xlink:href="#dirArrow" transform="rotate(90) translate(36 -43)" onmousedown="handlePan(1,0)">
                  <use xlink:href="#rim" fill="#404040">
                        <set attributeName="fill" to="#808080" begin="arrowRight.mouseover" end="arrowRight.mouseout"/>
                  </use>
                  <path fill="none" stroke="white" stroke-width="1.5" d="M0,-3.0v7 M-2.5,-0.5L0,-3.0L2.5,-0.5"/>
                </g>
                <g id="arrowDown" xlink:href="#dirArrow" transform="rotate(180) translate(-30 -48)" onmousedown="handlePan(0,1)">
                  <use xlink:href="#rim" fill="#404040">
                        <set attributeName="fill" to="#808080" begin="arrowDown.mouseover" end="arrowDown.mouseout"/>
                  </use>
                  <path fill="none" stroke="white" stroke-width="1.5" d="M0,-3.0v7 M-2.5,-0.5L0,-3.0L2.5,-0.5"/>
                </g>
                <g id="arrowLeft" xlink:href="#dirArrow" transform="rotate(270) translate(-36 17)" onmousedown="handlePan(-1,0)">
                  <use xlink:href="#rim" fill="#404040">
                        <set attributeName="fill" to="#808080" begin="arrowLeft.mouseover" end="arrowLeft.mouseout"/>
                  </use>
                  <path fill="none" stroke="white" stroke-width="1.5" d="M0,-3.0v7 M-2.5,-0.5L0,-3.0L2.5,-0.5"/>
                </g>
        </g>
        <svg viewBox="0 0 15 15" width="100%" height="30px" preserveAspectRatio="xMaxYMin meet">
         <g id="arrow_out" transform="scale(0.3 0.3)">
          <a xlink:href="structo2_1_1tof_1_1CompressedInfos__coll__graph_org.svg" target="_base">
           <rect id="button" ry="5" rx="5" y="6" x="6" height="38" width="38"
                fill="#f2f5e9" fill-opacity="0.5" stroke="#606060" stroke-width="1.0"/>
           <path id="arrow"
             d="M 11.500037,31.436501 C 11.940474,20.09759 22.043105,11.32322 32.158766,21.979434 L 37.068811,17.246167 C 37.068811,17.246167 37.088388,32 37.088388,32 L 22.160133,31.978069 C 22.160133,31.978069 26.997745,27.140456 26.997745,27.140456 C 18.528582,18.264221 13.291696,25.230495 11.500037,31.436501 z"
             style="fill:#404040;"/>
          </a>
         </g>
        </svg>
</svg>
