<?xml version="1.0" encoding="UTF-8" standalone="no"?>
<!DOCTYPE svg PUBLIC "-//W3C//DTD SVG 1.1//EN"
 "http://www.w3.org/Graphics/SVG/1.1/DTD/svg11.dtd">
<!-- Generated by graphviz version 2.40.1 (20161225.0304)
 -->
<!-- Title: o2::itsmft::DigitPixelReader Pages: 1 -->
<!--zoomable 1064 -->
<svg id="main" version="1.1" xmlns="http://www.w3.org/2000/svg" xmlns:xlink="http://www.w3.org/1999/xlink" xml:space="preserve" onload="init(evt)">
<style type="text/css"><![CDATA[
.edge:hover path { stroke: red; }
.edge:hover polygon { stroke: red; fill: red; }
]]></style>
<script type="text/javascript"><![CDATA[
var edges = document.getElementsByTagName('g');
if (edges && edges.length) {
  for (var i=0;i<edges.length;i++) {
    if (edges[i].id.substr(0,4)=='edge') {
      edges[i].setAttribute('class','edge');
    }
  }
}
]]></script>
        <defs>
                <circle id="rim" cx="0" cy="0" r="7"/>
                <circle id="rim2" cx="0" cy="0" r="3.5"/>
                <g id="zoomPlus">
                        <use xlink:href="#rim" fill="#404040">
                                <set attributeName="fill" to="#808080" begin="zoomplus.mouseover" end="zoomplus.mouseout"/>
                        </use>
                        <path d="M-4,0h8M0,-4v8" fill="none" stroke="white" stroke-width="1.5" pointer-events="none"/>
                </g>
                <g id="zoomMin">
                        <use xlink:href="#rim" fill="#404040">
                                <set attributeName="fill" to="#808080" begin="zoomminus.mouseover" end="zoomminus.mouseout"/>
                        </use>
                        <path d="M-4,0h8" fill="none" stroke="white" stroke-width="1.5" pointer-events="none"/>
                </g>
                <g id="dirArrow">
                        <path fill="none" stroke="white" stroke-width="1.5" d="M0,-3.0v7 M-2.5,-0.5L0,-3.0L2.5,-0.5"/>
                </g>
               <g id="resetDef">
                       <use xlink:href="#rim2" fill="#404040">
                               <set attributeName="fill" to="#808080" begin="reset.mouseover" end="reset.mouseout"/>
                       </use>
               </g>
        </defs>

<script type="text/javascript">
var viewWidth = 404;
var viewHeight = 1064;
var sectionId = 'dynsection-1';
</script>
<script xlink:href="../../svgpan.js"/>
<svg id="graph" class="graph">
<g id="viewport">
<title>o2::itsmft::DigitPixelReader</title>
<!-- Node2 -->
<g id="node1" class="node">
<title>Node2</title>
<polygon fill="#bfbfbf" stroke="#000000" points="66,-.5 66,-211.5 217,-211.5 217,-.5 66,-.5"/>
<text text-anchor="middle" x="141.5" y="-199.5" font-family="Helvetica,sans-Serif" font-size="10.00" fill="#000000">o2::itsmft::DigitPixelReader</text>
<polyline fill="none" stroke="#000000" points="66,-192.5 217,-192.5 "/>
<text text-anchor="middle" x="141.5" y="-180.5" font-family="Helvetica,sans-Serif" font-size="10.00" fill="#000000"> </text>
<polyline fill="none" stroke="#000000" points="66,-173.5 217,-173.5 "/>
<text text-anchor="start" x="74" y="-161.5" font-family="Helvetica,sans-Serif" font-size="10.00" fill="#000000">+ DigitPixelReader()</text>
<text text-anchor="start" x="74" y="-150.5" font-family="Helvetica,sans-Serif" font-size="10.00" fill="#000000">+ ~DigitPixelReader()</text>
<text text-anchor="start" x="74" y="-139.5" font-family="Helvetica,sans-Serif" font-size="10.00" fill="#000000">+ getMC2ROFRecords()</text>
<text text-anchor="start" x="74" y="-128.5" font-family="Helvetica,sans-Serif" font-size="10.00" fill="#000000">+ setMC2ROFRecords()</text>
<text text-anchor="start" x="74" y="-117.5" font-family="Helvetica,sans-Serif" font-size="10.00" fill="#000000">+ setROFRecords()</text>
<text text-anchor="start" x="74" y="-106.5" font-family="Helvetica,sans-Serif" font-size="10.00" fill="#000000">+ setDigits()</text>
<text text-anchor="start" x="74" y="-95.5" font-family="Helvetica,sans-Serif" font-size="10.00" fill="#000000">+ setDigitsMCTruth()</text>
<text text-anchor="start" x="74" y="-84.5" font-family="Helvetica,sans-Serif" font-size="10.00" fill="#000000">+ getDigitsMCTruth()</text>
<text text-anchor="start" x="74" y="-73.5" font-family="Helvetica,sans-Serif" font-size="10.00" fill="#000000">+ getNextChipData()</text>
<text text-anchor="start" x="74" y="-62.5" font-family="Helvetica,sans-Serif" font-size="10.00" fill="#000000">+ getNextChipData()</text>
<text text-anchor="start" x="74" y="-51.5" font-family="Helvetica,sans-Serif" font-size="10.00" fill="#000000">+ init()</text>
<text text-anchor="start" x="74" y="-40.5" font-family="Helvetica,sans-Serif" font-size="10.00" fill="#000000">+ decodeNextTrigger()</text>
<text text-anchor="start" x="74" y="-29.5" font-family="Helvetica,sans-Serif" font-size="10.00" fill="#000000">+ openInput()</text>
<text text-anchor="start" x="74" y="-18.5" font-family="Helvetica,sans-Serif" font-size="10.00" fill="#000000">+ readNextEntry()</text>
<text text-anchor="start" x="74" y="-7.5" font-family="Helvetica,sans-Serif" font-size="10.00" fill="#000000">+ clear()</text>
</g>
<!-- Node3 -->
<g id="node2" class="node">
<title>Node3</title>
<g id="a_node2"><a xlink:href="../../d1/d4f/classo2_1_1itsmft_1_1PixelReader.html" target="_top" xlink:title="PixelReader class for the ITSMFT. ">
<polygon fill="none" stroke="#000000" points="66,-249.5 66,-460.5 217,-460.5 217,-249.5 66,-249.5"/>
<text text-anchor="middle" x="141.5" y="-448.5" font-family="Helvetica,sans-Serif" font-size="10.00" fill="#000000">o2::itsmft::PixelReader</text>
<polyline fill="none" stroke="#000000" points="66,-441.5 217,-441.5 "/>
<text text-anchor="middle" x="141.5" y="-429.5" font-family="Helvetica,sans-Serif" font-size="10.00" fill="#000000"> </text>
<polyline fill="none" stroke="#000000" points="66,-422.5 217,-422.5 "/>
<text text-anchor="start" x="74" y="-410.5" font-family="Helvetica,sans-Serif" font-size="10.00" fill="#000000">+ PixelReader()</text>
<text text-anchor="start" x="74" y="-399.5" font-family="Helvetica,sans-Serif" font-size="10.00" fill="#000000">+ ~PixelReader()</text>
<text text-anchor="start" x="74" y="-388.5" font-family="Helvetica,sans-Serif" font-size="10.00" fill="#000000">+ PixelReader()</text>
<text text-anchor="start" x="74" y="-377.5" font-family="Helvetica,sans-Serif" font-size="10.00" fill="#000000">+ operator=()</text>
<text text-anchor="start" x="74" y="-366.5" font-family="Helvetica,sans-Serif" font-size="10.00" fill="#000000">+ init()</text>
<text text-anchor="start" x="74" y="-355.5" font-family="Helvetica,sans-Serif" font-size="10.00" fill="#000000">+ getNextChipData()</text>
<text text-anchor="start" x="74" y="-344.5" font-family="Helvetica,sans-Serif" font-size="10.00" fill="#000000">+ getNextChipData()</text>
<text text-anchor="start" x="74" y="-333.5" font-family="Helvetica,sans-Serif" font-size="10.00" fill="#000000">+ decodeNextTrigger()</text>
<text text-anchor="start" x="74" y="-322.5" font-family="Helvetica,sans-Serif" font-size="10.00" fill="#000000">+ getDigitsMCTruth()</text>
<text text-anchor="start" x="74" y="-311.5" font-family="Helvetica,sans-Serif" font-size="10.00" fill="#000000">+ getInteractionRecordHB()</text>
<text text-anchor="start" x="74" y="-300.5" font-family="Helvetica,sans-Serif" font-size="10.00" fill="#000000">+ getInteractionRecord()</text>
<text text-anchor="start" x="74" y="-289.5" font-family="Helvetica,sans-Serif" font-size="10.00" fill="#000000">+ getTrigger()</text>
<text text-anchor="start" x="74" y="-278.5" font-family="Helvetica,sans-Serif" font-size="10.00" fill="#000000">+ getDecodeNextAuto()</text>
<text text-anchor="start" x="74" y="-267.5" font-family="Helvetica,sans-Serif" font-size="10.00" fill="#000000">+ setDecodeNextAuto()</text>
<text text-anchor="start" x="74" y="-256.5" font-family="Helvetica,sans-Serif" font-size="10.00" fill="#000000"># ClassDef()</text>
</a>
</g>
</g>
<!-- Node3&#45;&gt;Node2 -->
<g id="edge1" class="edge">
<title>Node3&#45;&gt;Node2</title>
<path fill="none" stroke="#191970" d="M141.5,-239.1334C141.5,-230.0059 141.5,-220.8163 141.5,-211.762"/>
<polygon fill="none" stroke="#191970" points="138.0001,-239.4015 141.5,-249.4016 145.0001,-239.4016 138.0001,-239.4015"/>
</g>
<!-- Node4 -->
<g id="node3" class="node">
<title>Node4</title>
<g id="a_node3"><a xlink:href="../../d1/d21/structo2_1_1InteractionRecord.html" target="_top" xlink:title="{o2::InteractionRecord\n||+ InteractionRecord()\l+ InteractionRecord()\l+ InteractionRecord()\l+ InteractionRecord()\l+ clear()\l+ isDummy()\l+ setFromNS()\l+ bc2ns()\l+ operator==()\l+ operator!=()\l+ differenceInBC()\l+ toLong()\l+ setFromLong()\l+ operator\&gt;()\l+ operator\&gt;=()\l+ operator\&lt;()\l+ operator\&lt;=()\l+ operator&#45;&#45;()\l+ operator&#45;&#45;()\l+ operator++()\l+ operator++()\l+ operator+=()\l+ operator&#45;=()\l+ operator+=()\l+ operator&#45;=()\l+ operator+()\l+ operator&#45;()\l+ operator+()\l+ operator&#45;()\l+ print()\l+ asString()\l+ ClassDefNV()\l+ bc2ns()\l+ ns2bc()\l}">
<polygon fill="none" stroke="#000000" points="104,-519.5 104,-939.5 225,-939.5 225,-519.5 104,-519.5"/>
<text text-anchor="middle" x="164.5" y="-927.5" font-family="Helvetica,sans-Serif" font-size="10.00" fill="#000000">o2::InteractionRecord</text>
<polyline fill="none" stroke="#000000" points="104,-920.5 225,-920.5 "/>
<text text-anchor="middle" x="164.5" y="-908.5" font-family="Helvetica,sans-Serif" font-size="10.00" fill="#000000"> </text>
<polyline fill="none" stroke="#000000" points="104,-901.5 225,-901.5 "/>
<text text-anchor="start" x="112" y="-889.5" font-family="Helvetica,sans-Serif" font-size="10.00" fill="#000000">+ InteractionRecord()</text>
<text text-anchor="start" x="112" y="-878.5" font-family="Helvetica,sans-Serif" font-size="10.00" fill="#000000">+ InteractionRecord()</text>
<text text-anchor="start" x="112" y="-867.5" font-family="Helvetica,sans-Serif" font-size="10.00" fill="#000000">+ InteractionRecord()</text>
<text text-anchor="start" x="112" y="-856.5" font-family="Helvetica,sans-Serif" font-size="10.00" fill="#000000">+ InteractionRecord()</text>
<text text-anchor="start" x="112" y="-845.5" font-family="Helvetica,sans-Serif" font-size="10.00" fill="#000000">+ clear()</text>
<text text-anchor="start" x="112" y="-834.5" font-family="Helvetica,sans-Serif" font-size="10.00" fill="#000000">+ isDummy()</text>
<text text-anchor="start" x="112" y="-823.5" font-family="Helvetica,sans-Serif" font-size="10.00" fill="#000000">+ setFromNS()</text>
<text text-anchor="start" x="112" y="-812.5" font-family="Helvetica,sans-Serif" font-size="10.00" fill="#000000">+ bc2ns()</text>
<text text-anchor="start" x="112" y="-801.5" font-family="Helvetica,sans-Serif" font-size="10.00" fill="#000000">+ operator==()</text>
<text text-anchor="start" x="112" y="-790.5" font-family="Helvetica,sans-Serif" font-size="10.00" fill="#000000">+ operator!=()</text>
<text text-anchor="start" x="112" y="-779.5" font-family="Helvetica,sans-Serif" font-size="10.00" fill="#000000">+ differenceInBC()</text>
<text text-anchor="start" x="112" y="-768.5" font-family="Helvetica,sans-Serif" font-size="10.00" fill="#000000">+ toLong()</text>
<text text-anchor="start" x="112" y="-757.5" font-family="Helvetica,sans-Serif" font-size="10.00" fill="#000000">+ setFromLong()</text>
<text text-anchor="start" x="112" y="-746.5" font-family="Helvetica,sans-Serif" font-size="10.00" fill="#000000">+ operator&gt;()</text>
<text text-anchor="start" x="112" y="-735.5" font-family="Helvetica,sans-Serif" font-size="10.00" fill="#000000">+ operator&gt;=()</text>
<text text-anchor="start" x="112" y="-724.5" font-family="Helvetica,sans-Serif" font-size="10.00" fill="#000000">+ operator&lt;()</text>
<text text-anchor="start" x="112" y="-713.5" font-family="Helvetica,sans-Serif" font-size="10.00" fill="#000000">+ operator&lt;=()</text>
<text text-anchor="start" x="112" y="-702.5" font-family="Helvetica,sans-Serif" font-size="10.00" fill="#000000">+ operator&#45;&#45;()</text>
<text text-anchor="start" x="112" y="-691.5" font-family="Helvetica,sans-Serif" font-size="10.00" fill="#000000">+ operator&#45;&#45;()</text>
<text text-anchor="start" x="112" y="-680.5" font-family="Helvetica,sans-Serif" font-size="10.00" fill="#000000">+ operator++()</text>
<text text-anchor="start" x="112" y="-669.5" font-family="Helvetica,sans-Serif" font-size="10.00" fill="#000000">+ operator++()</text>
<text text-anchor="start" x="112" y="-658.5" font-family="Helvetica,sans-Serif" font-size="10.00" fill="#000000">+ operator+=()</text>
<text text-anchor="start" x="112" y="-647.5" font-family="Helvetica,sans-Serif" font-size="10.00" fill="#000000">+ operator&#45;=()</text>
<text text-anchor="start" x="112" y="-636.5" font-family="Helvetica,sans-Serif" font-size="10.00" fill="#000000">+ operator+=()</text>
<text text-anchor="start" x="112" y="-625.5" font-family="Helvetica,sans-Serif" font-size="10.00" fill="#000000">+ operator&#45;=()</text>
<text text-anchor="start" x="112" y="-614.5" font-family="Helvetica,sans-Serif" font-size="10.00" fill="#000000">+ operator+()</text>
<text text-anchor="start" x="112" y="-603.5" font-family="Helvetica,sans-Serif" font-size="10.00" fill="#000000">+ operator&#45;()</text>
<text text-anchor="start" x="112" y="-592.5" font-family="Helvetica,sans-Serif" font-size="10.00" fill="#000000">+ operator+()</text>
<text text-anchor="start" x="112" y="-581.5" font-family="Helvetica,sans-Serif" font-size="10.00" fill="#000000">+ operator&#45;()</text>
<text text-anchor="start" x="112" y="-570.5" font-family="Helvetica,sans-Serif" font-size="10.00" fill="#000000">+ print()</text>
<text text-anchor="start" x="112" y="-559.5" font-family="Helvetica,sans-Serif" font-size="10.00" fill="#000000">+ asString()</text>
<text text-anchor="start" x="112" y="-548.5" font-family="Helvetica,sans-Serif" font-size="10.00" fill="#000000">+ ClassDefNV()</text>
<text text-anchor="start" x="112" y="-537.5" font-family="Helvetica,sans-Serif" font-size="10.00" fill="#000000">+ bc2ns()</text>
<text text-anchor="start" x="112" y="-526.5" font-family="Helvetica,sans-Serif" font-size="10.00" fill="#000000">+ ns2bc()</text>
</a>
</g>
</g>
<!-- Node4&#45;&gt;Node3 -->
<g id="edge2" class="edge">
<title>Node4&#45;&gt;Node3</title>
<path fill="none" stroke="#404040" d="M143.5537,-519.4401C143.1656,-513.227 142.8124,-507.0696 142.5,-501 142.0283,-491.8334 141.67,-482.339 141.4025,-472.7927"/>
<polygon fill="none" stroke="#404040" points="141.4001,-472.6904 137.2565,-466.7887 141.1105,-460.6939 145.2541,-466.5956 141.4001,-472.6904"/>
<text text-anchor="middle" x="203" y="-493" font-family="Helvetica,sans-Serif" font-size="10.00" fill="#000000"> #mInteractionRecordHB</text>
<text text-anchor="middle" x="203" y="-482" font-family="Helvetica,sans-Serif" font-size="10.00" fill="#000000">#mInteractionRecord</text>
</g>
<!-- Node5 -->
<g id="node4" class="node">
<title>Node5</title>
<polygon fill="none" stroke="#bfbfbf" points="329.5,-998.5 329.5,-1055.5 379.5,-1055.5 379.5,-998.5 329.5,-998.5"/>
<text text-anchor="middle" x="354.5" y="-1043.5" font-family="Helvetica,sans-Serif" font-size="10.00" fill="#000000">double</text>
<polyline fill="none" stroke="#bfbfbf" points="329.5,-1036.5 379.5,-1036.5 "/>
<text text-anchor="middle" x="354.5" y="-1024.5" font-family="Helvetica,sans-Serif" font-size="10.00" fill="#000000"> </text>
<polyline fill="none" stroke="#bfbfbf" points="329.5,-1017.5 379.5,-1017.5 "/>
<text text-anchor="middle" x="354.5" y="-1005.5" font-family="Helvetica,sans-Serif" font-size="10.00" fill="#000000"> </text>
</g>
<!-- Node5&#45;&gt;Node4 -->
<g id="edge3" class="edge">
<title>Node5&#45;&gt;Node4</title>
<path fill="none" stroke="#404040" d="M334.9033,-998.2344C324.6464,-984.7417 311.1769,-969.2062 296.5,-958 281.3267,-946.4148 270.8879,-953.6091 257.5,-940 248.0191,-930.3625 239.4198,-919.5949 231.6345,-908.1646"/>
<polygon fill="none" stroke="#404040" points="231.5416,-908.0216 224.9176,-905.1715 225.0008,-897.9608 231.6248,-900.811 231.5416,-908.0216"/>
<text text-anchor="middle" x="357.5" y="-966.5" font-family="Helvetica,sans-Serif" font-size="10.00" fill="#000000"> +DummyTime</text>
</g>
<!-- Node6 -->
<g id="node5" class="node">
<title>Node6</title>
<g id="a_node5"><a xlink:href="../../d2/d5f/classunsigned_01int.html" target="_top" xlink:title="{unsigned int\n||}">
<polygon fill="none" stroke="#000000" points="79,-998.5 79,-1055.5 156,-1055.5 156,-998.5 79,-998.5"/>
<text text-anchor="middle" x="117.5" y="-1043.5" font-family="Helvetica,sans-Serif" font-size="10.00" fill="#000000">unsigned int</text>
<polyline fill="none" stroke="#000000" points="79,-1036.5 156,-1036.5 "/>
<text text-anchor="middle" x="117.5" y="-1024.5" font-family="Helvetica,sans-Serif" font-size="10.00" fill="#000000"> </text>
<polyline fill="none" stroke="#000000" points="79,-1017.5 156,-1017.5 "/>
<text text-anchor="middle" x="117.5" y="-1005.5" font-family="Helvetica,sans-Serif" font-size="10.00" fill="#000000"> </text>
</a>
</g>
</g>
<!-- Node6&#45;&gt;Node4 -->
<g id="edge4" class="edge">
<title>Node6&#45;&gt;Node4</title>
<path fill="none" stroke="#404040" d="M122.0066,-998.4744C124.0044,-985.8286 126.5493,-969.7201 129.3977,-951.69"/>
<polygon fill="none" stroke="#404040" points="129.438,-951.4342 126.4234,-944.8835 131.3107,-939.5812 134.3254,-946.1319 129.438,-951.4342"/>
<text text-anchor="middle" x="165" y="-966.5" font-family="Helvetica,sans-Serif" font-size="10.00" fill="#000000"> +DummyOrbit</text>
</g>
<!-- Node7 -->
<g id="node6" class="node">
<title>Node7</title>
<polygon fill="none" stroke="#bfbfbf" points="0,-998.5 0,-1055.5 61,-1055.5 61,-998.5 0,-998.5"/>
<text text-anchor="middle" x="30.5" y="-1043.5" font-family="Helvetica,sans-Serif" font-size="10.00" fill="#000000">unsigned</text>
<polyline fill="none" stroke="#bfbfbf" points="0,-1036.5 61,-1036.5 "/>
<text text-anchor="middle" x="30.5" y="-1024.5" font-family="Helvetica,sans-Serif" font-size="10.00" fill="#000000"> </text>
<polyline fill="none" stroke="#bfbfbf" points="0,-1017.5 61,-1017.5 "/>
<text text-anchor="middle" x="30.5" y="-1005.5" font-family="Helvetica,sans-Serif" font-size="10.00" fill="#000000"> </text>
</g>
<!-- Node7&#45;&gt;Node3 -->
<g id="edge8" class="edge">
<title>Node7&#45;&gt;Node3</title>
<path fill="none" stroke="#404040" d="M25.9251,-998.4024C14.4363,-919.831 -11.1723,-694.8238 40.5,-519 45.3262,-502.5782 52.2604,-486.1666 60.2666,-470.4179"/>
<polygon fill="none" stroke="#404040" points="60.3614,-470.2385 59.6281,-463.0648 65.968,-459.6288 66.7012,-466.8026 60.3614,-470.2385"/>
<text text-anchor="middle" x="68" y="-727" font-family="Helvetica,sans-Serif" font-size="10.00" fill="#000000"> #mTrigger</text>
</g>
<!-- Node7&#45;&gt;Node4 -->
<g id="edge5" class="edge">
<title>Node7&#45;&gt;Node4</title>
<path fill="none" stroke="#404040" d="M52.6492,-998.3482C64.6495,-981.9069 79.1045,-960.5108 89.5,-940 92.7022,-933.6819 95.8291,-927.1944 98.8751,-920.5936"/>
<polygon fill="none" stroke="#404040" points="98.9944,-920.3288 97.8124,-913.2152 103.9242,-909.3881 105.1062,-916.5017 98.9944,-920.3288"/>
<text text-anchor="middle" x="94" y="-972" font-family="Helvetica,sans-Serif" font-size="10.00" fill="#000000"> +bc</text>
<text text-anchor="middle" x="94" y="-961" font-family="Helvetica,sans-Serif" font-size="10.00" fill="#000000">+orbit</text>
</g>
<!-- Node8 -->
<g id="node7" class="node">
<title>Node8</title>
<polygon fill="none" stroke="#bfbfbf" points="174,-998.5 174,-1055.5 311,-1055.5 311,-998.5 174,-998.5"/>
<text text-anchor="middle" x="242.5" y="-1043.5" font-family="Helvetica,sans-Serif" font-size="10.00" fill="#000000">static constexpr uint16_t</text>
<polyline fill="none" stroke="#bfbfbf" points="174,-1036.5 311,-1036.5 "/>
<text text-anchor="middle" x="242.5" y="-1024.5" font-family="Helvetica,sans-Serif" font-size="10.00" fill="#000000"> </text>
<polyline fill="none" stroke="#bfbfbf" points="174,-1017.5 311,-1017.5 "/>
<text text-anchor="middle" x="242.5" y="-1005.5" font-family="Helvetica,sans-Serif" font-size="10.00" fill="#000000"> </text>
</g>
<!-- Node8&#45;&gt;Node4 -->
<g id="edge6" class="edge">
<title>Node8&#45;&gt;Node4</title>
<path fill="none" stroke="#404040" d="M235.021,-998.4744C231.6897,-985.7684 227.4418,-969.5667 222.6873,-951.4323"/>
<polygon fill="none" stroke="#404040" points="222.6235,-951.1889 217.2326,-946.3995 219.5801,-939.5812 224.971,-944.3706 222.6235,-951.1889"/>
<text text-anchor="middle" x="260.5" y="-966.5" font-family="Helvetica,sans-Serif" font-size="10.00" fill="#000000"> +DummyBC</text>
</g>
<!-- Node9 -->
<g id="node8" class="node">
<title>Node9</title>
<polygon fill="none" stroke="#bfbfbf" points="266.5,-701 266.5,-758 304.5,-758 304.5,-701 266.5,-701"/>
<text text-anchor="middle" x="285.5" y="-746" font-family="Helvetica,sans-Serif" font-size="10.00" fill="#000000">bool</text>
<polyline fill="none" stroke="#bfbfbf" points="266.5,-739 304.5,-739 "/>
<text text-anchor="middle" x="285.5" y="-727" font-family="Helvetica,sans-Serif" font-size="10.00" fill="#000000"> </text>
<polyline fill="none" stroke="#bfbfbf" points="266.5,-720 304.5,-720 "/>
<text text-anchor="middle" x="285.5" y="-708" font-family="Helvetica,sans-Serif" font-size="10.00" fill="#000000"> </text>
</g>
<!-- Node9&#45;&gt;Node3 -->
<g id="edge7" class="edge">
<title>Node9&#45;&gt;Node3</title>
<path fill="none" stroke="#404040" d="M289.0233,-700.8702C293.6819,-652.6202 297.7132,-553.1236 263.5,-479 254.3162,-459.1031 240.5369,-440.5232 225.505,-424.1122"/>
<polygon fill="none" stroke="#404040" points="225.3188,-423.9166 218.285,-422.3276 217.0464,-415.2236 224.0803,-416.8126 225.3188,-423.9166"/>
<text text-anchor="middle" x="322.5" y="-487.5" font-family="Helvetica,sans-Serif" font-size="10.00" fill="#000000"> #mDecodeNextAuto</text>
</g>
</g>
</svg>
        <g id="navigator" transform="translate(0 0)" fill="#404254">
                <rect fill="#f2f5e9" fill-opacity="0.5" stroke="#606060" stroke-width=".5" x="0" y="0" width="60" height="60"/>
                <use id="zoomplus" xlink:href="#zoomPlus" x="17" y="9" onmousedown="handleZoom(evt,'in')"/>
                <use id="zoomminus" xlink:href="#zoomMin" x="42" y="9" onmousedown="handleZoom(evt,'out')"/>
                <use id="reset" xlink:href="#resetDef" x="30" y="36" onmousedown="handleReset()"/>
                <g id="arrowUp" xlink:href="#dirArrow" transform="translate(30 24)" onmousedown="handlePan(0,-1)">
                  <use xlink:href="#rim" fill="#404040">
                        <set attributeName="fill" to="#808080" begin="arrowUp.mouseover" end="arrowUp.mouseout"/>
                  </use>
                  <path fill="none" stroke="white" stroke-width="1.5" d="M0,-3.0v7 M-2.5,-0.5L0,-3.0L2.5,-0.5"/>
                </g>
                <g id="arrowRight" xlink:href="#dirArrow" transform="rotate(90) translate(36 -43)" onmousedown="handlePan(1,0)">
                  <use xlink:href="#rim" fill="#404040">
                        <set attributeName="fill" to="#808080" begin="arrowRight.mouseover" end="arrowRight.mouseout"/>
                  </use>
                  <path fill="none" stroke="white" stroke-width="1.5" d="M0,-3.0v7 M-2.5,-0.5L0,-3.0L2.5,-0.5"/>
                </g>
                <g id="arrowDown" xlink:href="#dirArrow" transform="rotate(180) translate(-30 -48)" onmousedown="handlePan(0,1)">
                  <use xlink:href="#rim" fill="#404040">
                        <set attributeName="fill" to="#808080" begin="arrowDown.mouseover" end="arrowDown.mouseout"/>
                  </use>
                  <path fill="none" stroke="white" stroke-width="1.5" d="M0,-3.0v7 M-2.5,-0.5L0,-3.0L2.5,-0.5"/>
                </g>
                <g id="arrowLeft" xlink:href="#dirArrow" transform="rotate(270) translate(-36 17)" onmousedown="handlePan(-1,0)">
                  <use xlink:href="#rim" fill="#404040">
                        <set attributeName="fill" to="#808080" begin="arrowLeft.mouseover" end="arrowLeft.mouseout"/>
                  </use>
                  <path fill="none" stroke="white" stroke-width="1.5" d="M0,-3.0v7 M-2.5,-0.5L0,-3.0L2.5,-0.5"/>
                </g>
        </g>
        <svg viewBox="0 0 15 15" width="100%" height="30px" preserveAspectRatio="xMaxYMin meet">
         <g id="arrow_out" transform="scale(0.3 0.3)">
          <a xlink:href="classo2_1_1itsmft_1_1DigitPixelReader__coll__graph_org.svg" target="_base">
           <rect id="button" ry="5" rx="5" y="6" x="6" height="38" width="38"
                fill="#f2f5e9" fill-opacity="0.5" stroke="#606060" stroke-width="1.0"/>
           <path id="arrow"
             d="M 11.500037,31.436501 C 11.940474,20.09759 22.043105,11.32322 32.158766,21.979434 L 37.068811,17.246167 C 37.068811,17.246167 37.088388,32 37.088388,32 L 22.160133,31.978069 C 22.160133,31.978069 26.997745,27.140456 26.997745,27.140456 C 18.528582,18.264221 13.291696,25.230495 11.500037,31.436501 z"
             style="fill:#404040;"/>
          </a>
         </g>
        </svg>
</svg>
