<?xml version="1.0" encoding="UTF-8" standalone="no"?>
<!DOCTYPE svg PUBLIC "-//W3C//DTD SVG 1.1//EN"
 "http://www.w3.org/Graphics/SVG/1.1/DTD/svg11.dtd">
<!-- Generated by graphviz version 2.40.1 (20161225.0304)
 -->
<!-- Title: o2::mch::raw::DataBlockHeader Pages: 1 -->
<svg width="178pt" height="204pt"
 viewBox="0.00 0.00 178.00 204.00" xmlns="http://www.w3.org/2000/svg" xmlns:xlink="http://www.w3.org/1999/xlink">
<g id="graph0" class="graph" transform="scale(1 1) rotate(0) translate(4 200)">
<title>o2::mch::raw::DataBlockHeader</title>
<!-- Node1 -->
<g id="node1" class="node">
<title>Node1</title>
<polygon fill="#bfbfbf" stroke="#000000" points="0,-.5 0,-57.5 170,-57.5 170,-.5 0,-.5"/>
<text text-anchor="middle" x="85" y="-45.5" font-family="Helvetica,sans-Serif" font-size="10.00" fill="#000000">o2::mch::raw::DataBlockHeader</text>
<polyline fill="none" stroke="#000000" points="0,-38.5 170,-38.5 "/>
<text text-anchor="middle" x="85" y="-26.5" font-family="Helvetica,sans-Serif" font-size="10.00" fill="#000000"> </text>
<polyline fill="none" stroke="#000000" points="0,-19.5 170,-19.5 "/>
<text text-anchor="middle" x="85" y="-7.5" font-family="Helvetica,sans-Serif" font-size="10.00" fill="#000000"> </text>
</g>
<!-- Node2 -->
<g id="node2" class="node">
<title>Node2</title>
<polygon fill="none" stroke="#bfbfbf" points="54.5,-138.5 54.5,-195.5 115.5,-195.5 115.5,-138.5 54.5,-138.5"/>
<text text-anchor="middle" x="85" y="-183.5" font-family="Helvetica,sans-Serif" font-size="10.00" fill="#000000">unsigned</text>
<polyline fill="none" stroke="#bfbfbf" points="54.5,-176.5 115.5,-176.5 "/>
<text text-anchor="middle" x="85" y="-164.5" font-family="Helvetica,sans-Serif" font-size="10.00" fill="#000000"> </text>
<polyline fill="none" stroke="#bfbfbf" points="54.5,-157.5 115.5,-157.5 "/>
<text text-anchor="middle" x="85" y="-145.5" font-family="Helvetica,sans-Serif" font-size="10.00" fill="#000000"> </text>
</g>
<!-- Node2&#45;&gt;Node1 -->
<g id="edge1" class="edge">
<title>Node2&#45;&gt;Node1</title>
<path fill="none" stroke="#404040" d="M85,-138.4063C85,-118.5153 85,-91.7072 85,-69.6065"/>
<polygon fill="none" stroke="#404040" points="85.0001,-69.5571 81,-63.5571 85,-57.5571 89,-63.557 85.0001,-69.5571"/>
<text text-anchor="middle" x="120.5" y="-112" font-family="Helvetica,sans-Serif" font-size="10.00" fill="#000000"> +payloadSize</text>
<text text-anchor="middle" x="120.5" y="-101" font-family="Helvetica,sans-Serif" font-size="10.00" fill="#000000">+bc</text>
<text text-anchor="middle" x="120.5" y="-90" font-family="Helvetica,sans-Serif" font-size="10.00" fill="#000000">+solarId</text>
<text text-anchor="middle" x="120.5" y="-79" font-family="Helvetica,sans-Serif" font-size="10.00" fill="#000000">+orbit</text>
</g>
</g>
</svg>
