<?xml version="1.0" encoding="UTF-8" standalone="no"?>
<!DOCTYPE svg PUBLIC "-//W3C//DTD SVG 1.1//EN"
 "http://www.w3.org/Graphics/SVG/1.1/DTD/svg11.dtd">
<!-- Generated by graphviz version 2.40.1 (20161225.0304)
 -->
<!-- Title: o2::raw::RawFileWriter::LinkData Pages: 1 -->
<svg width="1509pt" height="1068pt"
 viewBox="0.00 0.00 1509.31 1068.00" xmlns="http://www.w3.org/2000/svg" xmlns:xlink="http://www.w3.org/1999/xlink">
<g id="graph0" class="graph" transform="scale(1 1) rotate(0) translate(4 1064)">
<title>o2::raw::RawFileWriter::LinkData</title>
<!-- Node1 -->
<g id="node1" class="node">
<title>Node1</title>
<polygon fill="#bfbfbf" stroke="#000000" points="686.308,-.5 686.308,-266.5 848.308,-266.5 848.308,-.5 686.308,-.5"/>
<text text-anchor="start" x="694.308" y="-254.5" font-family="Helvetica,sans-Serif" font-size="10.00" fill="#000000">o2::raw::RawFileWriter</text>
<text text-anchor="middle" x="767.308" y="-243.5" font-family="Helvetica,sans-Serif" font-size="10.00" fill="#000000">::LinkData</text>
<polyline fill="none" stroke="#000000" points="686.308,-236.5 848.308,-236.5 "/>
<text text-anchor="middle" x="767.308" y="-224.5" font-family="Helvetica,sans-Serif" font-size="10.00" fill="#000000"> </text>
<polyline fill="none" stroke="#000000" points="686.308,-217.5 848.308,-217.5 "/>
<text text-anchor="start" x="694.308" y="-205.5" font-family="Helvetica,sans-Serif" font-size="10.00" fill="#000000">+ LinkData()</text>
<text text-anchor="start" x="694.308" y="-194.5" font-family="Helvetica,sans-Serif" font-size="10.00" fill="#000000">+ ~LinkData()</text>
<text text-anchor="start" x="694.308" y="-183.5" font-family="Helvetica,sans-Serif" font-size="10.00" fill="#000000">+ LinkData()</text>
<text text-anchor="start" x="694.308" y="-172.5" font-family="Helvetica,sans-Serif" font-size="10.00" fill="#000000">+ operator=()</text>
<text text-anchor="start" x="694.308" y="-161.5" font-family="Helvetica,sans-Serif" font-size="10.00" fill="#000000">+ close()</text>
<text text-anchor="start" x="694.308" y="-150.5" font-family="Helvetica,sans-Serif" font-size="10.00" fill="#000000">+ print()</text>
<text text-anchor="start" x="694.308" y="-139.5" font-family="Helvetica,sans-Serif" font-size="10.00" fill="#000000">+ addData()</text>
<text text-anchor="start" x="694.308" y="-128.5" font-family="Helvetica,sans-Serif" font-size="10.00" fill="#000000">+ getLastRDH()</text>
<text text-anchor="start" x="694.308" y="-117.5" font-family="Helvetica,sans-Serif" font-size="10.00" fill="#000000">+ describe()</text>
<text text-anchor="start" x="694.308" y="-106.5" font-family="Helvetica,sans-Serif" font-size="10.00" fill="#000000"># openHBFPage()</text>
<text text-anchor="start" x="694.308" y="-95.5" font-family="Helvetica,sans-Serif" font-size="10.00" fill="#000000"># addHBFPage()</text>
<text text-anchor="start" x="694.308" y="-84.5" font-family="Helvetica,sans-Serif" font-size="10.00" fill="#000000"># closeHBFPage()</text>
<text text-anchor="start" x="694.308" y="-73.5" font-family="Helvetica,sans-Serif" font-size="10.00" fill="#000000"># flushSuperPage()</text>
<text text-anchor="start" x="694.308" y="-62.5" font-family="Helvetica,sans-Serif" font-size="10.00" fill="#000000"># fillEmptyHBHs()</text>
<text text-anchor="start" x="694.308" y="-51.5" font-family="Helvetica,sans-Serif" font-size="10.00" fill="#000000"># addPreformattedCRUPage()</text>
<text text-anchor="start" x="694.308" y="-40.5" font-family="Helvetica,sans-Serif" font-size="10.00" fill="#000000"># cacheData()</text>
<text text-anchor="start" x="694.308" y="-29.5" font-family="Helvetica,sans-Serif" font-size="10.00" fill="#000000"># expandBufferBy()</text>
<text text-anchor="start" x="694.308" y="-18.5" font-family="Helvetica,sans-Serif" font-size="10.00" fill="#000000"># pushBack()</text>
<text text-anchor="start" x="694.308" y="-7.5" font-family="Helvetica,sans-Serif" font-size="10.00" fill="#000000"># pushBack()</text>
</g>
<!-- Node2 -->
<g id="node2" class="node">
<title>Node2</title>
<g id="a_node2"><a xlink:href="../../dd/dfc/structo2_1_1raw_1_1RawFileWriter_1_1PayloadCache.html" target="_top" xlink:title="===================================================================================== ...">
<polygon fill="none" stroke="#000000" points="116.808,-573 116.808,-641 241.808,-641 241.808,-573 116.808,-573"/>
<text text-anchor="start" x="124.808" y="-629" font-family="Helvetica,sans-Serif" font-size="10.00" fill="#000000">o2::raw::RawFileWriter</text>
<text text-anchor="middle" x="179.308" y="-618" font-family="Helvetica,sans-Serif" font-size="10.00" fill="#000000">::PayloadCache</text>
<polyline fill="none" stroke="#000000" points="116.808,-611 241.808,-611 "/>
<text text-anchor="middle" x="179.308" y="-599" font-family="Helvetica,sans-Serif" font-size="10.00" fill="#000000"> </text>
<polyline fill="none" stroke="#000000" points="116.808,-592 241.808,-592 "/>
<text text-anchor="start" x="124.808" y="-580" font-family="Helvetica,sans-Serif" font-size="10.00" fill="#000000">+ ClassDefNV()</text>
</a>
</g>
</g>
<!-- Node2&#45;&gt;Node1 -->
<g id="edge1" class="edge">
<title>Node2&#45;&gt;Node1</title>
<path fill="none" stroke="#404040" d="M169.1242,-572.8622C152.245,-508.6452 126.6161,-368.806 194.308,-285 254.2087,-210.84 527.5792,-164.6657 674.023,-144.8161"/>
<polygon fill="none" stroke="#404040" points="674.1712,-144.7963 679.5875,-140.0357 686.0651,-143.2044 680.6488,-147.965 674.1712,-144.7963"/>
<text text-anchor="middle" x="229.308" y="-299" font-family="Helvetica,sans-Serif" font-size="10.00" fill="#000000"> +cacheBuffer</text>
</g>
<!-- Node3 -->
<g id="node3" class="node">
<title>Node3</title>
<polygon fill="none" stroke="#bfbfbf" points="45.808,-1002.5 45.808,-1059.5 136.808,-1059.5 136.808,-1002.5 45.808,-1002.5"/>
<text text-anchor="middle" x="91.308" y="-1047.5" font-family="Helvetica,sans-Serif" font-size="10.00" fill="#000000">vector&lt; char &gt;</text>
<polyline fill="none" stroke="#bfbfbf" points="45.808,-1040.5 136.808,-1040.5 "/>
<text text-anchor="middle" x="91.308" y="-1028.5" font-family="Helvetica,sans-Serif" font-size="10.00" fill="#000000"> </text>
<polyline fill="none" stroke="#bfbfbf" points="45.808,-1021.5 136.808,-1021.5 "/>
<text text-anchor="middle" x="91.308" y="-1009.5" font-family="Helvetica,sans-Serif" font-size="10.00" fill="#000000"> </text>
</g>
<!-- Node3&#45;&gt;Node1 -->
<g id="edge12" class="edge">
<title>Node3&#45;&gt;Node1</title>
<path fill="none" stroke="#404040" d="M79.8644,-1002.2913C41.6733,-901.4435 -71.3852,-557.5531 67.308,-336 132.2396,-232.2762 498.7799,-169.6775 674.0049,-145.2814"/>
<polygon fill="none" stroke="#404040" points="674.1412,-145.2627 679.5394,-140.4816 686.029,-143.6256 680.6309,-148.4068 674.1412,-145.2627"/>
<text text-anchor="middle" x="87.308" y="-604.5" font-family="Helvetica,sans-Serif" font-size="10.00" fill="#000000"> +buffer</text>
</g>
<!-- Node3&#45;&gt;Node2 -->
<g id="edge2" class="edge">
<title>Node3&#45;&gt;Node2</title>
<path fill="none" stroke="#404040" d="M97.2875,-1002.1901C112.2725,-929.9895 151.5317,-740.8312 169.7573,-653.017"/>
<polygon fill="none" stroke="#404040" points="169.7979,-652.8212 167.1007,-646.1335 172.2366,-641.0716 174.9338,-647.7593 169.7979,-652.8212"/>
<text text-anchor="middle" x="143.808" y="-937.5" font-family="Helvetica,sans-Serif" font-size="10.00" fill="#000000"> +payload</text>
</g>
<!-- Node4 -->
<g id="node4" class="node">
<title>Node4</title>
<polygon fill="none" stroke="#bfbfbf" points="174.308,-1002.5 174.308,-1059.5 212.308,-1059.5 212.308,-1002.5 174.308,-1002.5"/>
<text text-anchor="middle" x="193.308" y="-1047.5" font-family="Helvetica,sans-Serif" font-size="10.00" fill="#000000">bool</text>
<polyline fill="none" stroke="#bfbfbf" points="174.308,-1040.5 212.308,-1040.5 "/>
<text text-anchor="middle" x="193.308" y="-1028.5" font-family="Helvetica,sans-Serif" font-size="10.00" fill="#000000"> </text>
<polyline fill="none" stroke="#bfbfbf" points="174.308,-1021.5 212.308,-1021.5 "/>
<text text-anchor="middle" x="193.308" y="-1009.5" font-family="Helvetica,sans-Serif" font-size="10.00" fill="#000000"> </text>
</g>
<!-- Node4&#45;&gt;Node1 -->
<g id="edge16" class="edge">
<title>Node4&#45;&gt;Node1</title>
<path fill="none" stroke="#404040" d="M212.5406,-1024.1753C229.4905,-1017.0292 253.1689,-1004.0229 264.308,-984 299.3261,-921.054 243.1523,-395.7995 283.308,-336 370.761,-205.7661 559.6019,-159.1119 673.832,-142.5238"/>
<polygon fill="none" stroke="#404040" points="674.1277,-142.4827 679.5187,-137.6934 686.013,-140.8277 680.622,-145.617 674.1277,-142.4827"/>
<text text-anchor="middle" x="315.308" y="-604.5" font-family="Helvetica,sans-Serif" font-size="10.00" fill="#000000"> +startOfRun</text>
</g>
<!-- Node4&#45;&gt;Node2 -->
<g id="edge3" class="edge">
<title>Node4&#45;&gt;Node2</title>
<path fill="none" stroke="#404040" d="M189.8662,-1002.1993C189.2546,-996.1928 188.6914,-989.8957 188.308,-984 180.5642,-864.8969 179.2854,-724.2411 179.1909,-653.1291"/>
<polygon fill="none" stroke="#404040" points="179.191,-653.0919 175.1883,-647.0937 179.1856,-641.0919 183.1883,-647.0901 179.191,-653.0919"/>
<text text-anchor="middle" x="226.308" y="-937.5" font-family="Helvetica,sans-Serif" font-size="10.00" fill="#000000"> +preformatted</text>
</g>
<!-- Node5 -->
<g id="node5" class="node">
<title>Node5</title>
<polygon fill="none" stroke="#bfbfbf" points="352.808,-1002.5 352.808,-1059.5 413.808,-1059.5 413.808,-1002.5 352.808,-1002.5"/>
<text text-anchor="middle" x="383.308" y="-1047.5" font-family="Helvetica,sans-Serif" font-size="10.00" fill="#000000">unsigned</text>
<polyline fill="none" stroke="#bfbfbf" points="352.808,-1040.5 413.808,-1040.5 "/>
<text text-anchor="middle" x="383.308" y="-1028.5" font-family="Helvetica,sans-Serif" font-size="10.00" fill="#000000"> </text>
<polyline fill="none" stroke="#bfbfbf" points="352.808,-1021.5 413.808,-1021.5 "/>
<text text-anchor="middle" x="383.308" y="-1009.5" font-family="Helvetica,sans-Serif" font-size="10.00" fill="#000000"> </text>
</g>
<!-- Node5&#45;&gt;Node1 -->
<g id="edge18" class="edge">
<title>Node5&#45;&gt;Node1</title>
<path fill="none" stroke="#404040" d="M379.6936,-1002.374C365.5812,-886.1415 318.2835,-450.25 387.308,-336 449.431,-233.1736 583.3077,-179.6462 674.3689,-154.0439"/>
<polygon fill="none" stroke="#404040" points="674.5127,-154.0047 679.2437,-148.5625 686.0869,-150.8364 681.3559,-156.2786 674.5127,-154.0047"/>
<text text-anchor="middle" x="427.308" y="-610" font-family="Helvetica,sans-Serif" font-size="10.00" fill="#000000"> +pageCnt</text>
<text text-anchor="middle" x="427.308" y="-599" font-family="Helvetica,sans-Serif" font-size="10.00" fill="#000000">+packetCounter</text>
</g>
<!-- Node5&#45;&gt;Node2 -->
<g id="edge4" class="edge">
<title>Node5&#45;&gt;Node2</title>
<path fill="none" stroke="#404040" d="M352.7607,-1011.9082C341.7324,-1004.1077 329.6996,-994.457 320.308,-984 289.9527,-950.2012 292.4723,-934.4694 268.308,-896 263.1938,-887.8582 260.3373,-886.7298 256.308,-878 221.5311,-802.6524 199.0292,-708.1414 187.8074,-652.9658"/>
<polygon fill="none" stroke="#404040" points="187.7977,-652.9162 182.7031,-647.8128 185.4545,-641.1472 190.5491,-646.2507 187.7977,-652.9162"/>
<text text-anchor="middle" x="342.308" y="-937.5" font-family="Helvetica,sans-Serif" font-size="10.00" fill="#000000"> +trigger</text>
</g>
<!-- Node6 -->
<g id="node6" class="node">
<title>Node6</title>
<g id="a_node6"><a xlink:href="../../d1/d21/structo2_1_1InteractionRecord.html" target="_top" xlink:title="{o2::InteractionRecord\n||+ InteractionRecord()\l+ InteractionRecord()\l+ InteractionRecord()\l+ InteractionRecord()\l+ clear()\l+ isDummy()\l+ setFromNS()\l+ bc2ns()\l+ operator==()\l+ operator!=()\l+ differenceInBC()\l+ toLong()\l+ setFromLong()\l+ operator\&gt;()\l+ operator\&gt;=()\l+ operator\&lt;()\l+ operator\&lt;=()\l+ operator&#45;&#45;()\l+ operator&#45;&#45;()\l+ operator++()\l+ operator++()\l+ operator+=()\l+ operator&#45;=()\l+ operator+=()\l+ operator&#45;=()\l+ operator+()\l+ operator&#45;()\l+ operator+()\l+ operator&#45;()\l+ print()\l+ asString()\l+ ClassDefNV()\l+ bc2ns()\l+ ns2bc()\l}">
<polygon fill="none" stroke="#000000" points="609.808,-397 609.808,-817 730.808,-817 730.808,-397 609.808,-397"/>
<text text-anchor="middle" x="670.308" y="-805" font-family="Helvetica,sans-Serif" font-size="10.00" fill="#000000">o2::InteractionRecord</text>
<polyline fill="none" stroke="#000000" points="609.808,-798 730.808,-798 "/>
<text text-anchor="middle" x="670.308" y="-786" font-family="Helvetica,sans-Serif" font-size="10.00" fill="#000000"> </text>
<polyline fill="none" stroke="#000000" points="609.808,-779 730.808,-779 "/>
<text text-anchor="start" x="617.808" y="-767" font-family="Helvetica,sans-Serif" font-size="10.00" fill="#000000">+ InteractionRecord()</text>
<text text-anchor="start" x="617.808" y="-756" font-family="Helvetica,sans-Serif" font-size="10.00" fill="#000000">+ InteractionRecord()</text>
<text text-anchor="start" x="617.808" y="-745" font-family="Helvetica,sans-Serif" font-size="10.00" fill="#000000">+ InteractionRecord()</text>
<text text-anchor="start" x="617.808" y="-734" font-family="Helvetica,sans-Serif" font-size="10.00" fill="#000000">+ InteractionRecord()</text>
<text text-anchor="start" x="617.808" y="-723" font-family="Helvetica,sans-Serif" font-size="10.00" fill="#000000">+ clear()</text>
<text text-anchor="start" x="617.808" y="-712" font-family="Helvetica,sans-Serif" font-size="10.00" fill="#000000">+ isDummy()</text>
<text text-anchor="start" x="617.808" y="-701" font-family="Helvetica,sans-Serif" font-size="10.00" fill="#000000">+ setFromNS()</text>
<text text-anchor="start" x="617.808" y="-690" font-family="Helvetica,sans-Serif" font-size="10.00" fill="#000000">+ bc2ns()</text>
<text text-anchor="start" x="617.808" y="-679" font-family="Helvetica,sans-Serif" font-size="10.00" fill="#000000">+ operator==()</text>
<text text-anchor="start" x="617.808" y="-668" font-family="Helvetica,sans-Serif" font-size="10.00" fill="#000000">+ operator!=()</text>
<text text-anchor="start" x="617.808" y="-657" font-family="Helvetica,sans-Serif" font-size="10.00" fill="#000000">+ differenceInBC()</text>
<text text-anchor="start" x="617.808" y="-646" font-family="Helvetica,sans-Serif" font-size="10.00" fill="#000000">+ toLong()</text>
<text text-anchor="start" x="617.808" y="-635" font-family="Helvetica,sans-Serif" font-size="10.00" fill="#000000">+ setFromLong()</text>
<text text-anchor="start" x="617.808" y="-624" font-family="Helvetica,sans-Serif" font-size="10.00" fill="#000000">+ operator&gt;()</text>
<text text-anchor="start" x="617.808" y="-613" font-family="Helvetica,sans-Serif" font-size="10.00" fill="#000000">+ operator&gt;=()</text>
<text text-anchor="start" x="617.808" y="-602" font-family="Helvetica,sans-Serif" font-size="10.00" fill="#000000">+ operator&lt;()</text>
<text text-anchor="start" x="617.808" y="-591" font-family="Helvetica,sans-Serif" font-size="10.00" fill="#000000">+ operator&lt;=()</text>
<text text-anchor="start" x="617.808" y="-580" font-family="Helvetica,sans-Serif" font-size="10.00" fill="#000000">+ operator&#45;&#45;()</text>
<text text-anchor="start" x="617.808" y="-569" font-family="Helvetica,sans-Serif" font-size="10.00" fill="#000000">+ operator&#45;&#45;()</text>
<text text-anchor="start" x="617.808" y="-558" font-family="Helvetica,sans-Serif" font-size="10.00" fill="#000000">+ operator++()</text>
<text text-anchor="start" x="617.808" y="-547" font-family="Helvetica,sans-Serif" font-size="10.00" fill="#000000">+ operator++()</text>
<text text-anchor="start" x="617.808" y="-536" font-family="Helvetica,sans-Serif" font-size="10.00" fill="#000000">+ operator+=()</text>
<text text-anchor="start" x="617.808" y="-525" font-family="Helvetica,sans-Serif" font-size="10.00" fill="#000000">+ operator&#45;=()</text>
<text text-anchor="start" x="617.808" y="-514" font-family="Helvetica,sans-Serif" font-size="10.00" fill="#000000">+ operator+=()</text>
<text text-anchor="start" x="617.808" y="-503" font-family="Helvetica,sans-Serif" font-size="10.00" fill="#000000">+ operator&#45;=()</text>
<text text-anchor="start" x="617.808" y="-492" font-family="Helvetica,sans-Serif" font-size="10.00" fill="#000000">+ operator+()</text>
<text text-anchor="start" x="617.808" y="-481" font-family="Helvetica,sans-Serif" font-size="10.00" fill="#000000">+ operator&#45;()</text>
<text text-anchor="start" x="617.808" y="-470" font-family="Helvetica,sans-Serif" font-size="10.00" fill="#000000">+ operator+()</text>
<text text-anchor="start" x="617.808" y="-459" font-family="Helvetica,sans-Serif" font-size="10.00" fill="#000000">+ operator&#45;()</text>
<text text-anchor="start" x="617.808" y="-448" font-family="Helvetica,sans-Serif" font-size="10.00" fill="#000000">+ print()</text>
<text text-anchor="start" x="617.808" y="-437" font-family="Helvetica,sans-Serif" font-size="10.00" fill="#000000">+ asString()</text>
<text text-anchor="start" x="617.808" y="-426" font-family="Helvetica,sans-Serif" font-size="10.00" fill="#000000">+ ClassDefNV()</text>
<text text-anchor="start" x="617.808" y="-415" font-family="Helvetica,sans-Serif" font-size="10.00" fill="#000000">+ bc2ns()</text>
<text text-anchor="start" x="617.808" y="-404" font-family="Helvetica,sans-Serif" font-size="10.00" fill="#000000">+ ns2bc()</text>
</a>
</g>
</g>
<!-- Node5&#45;&gt;Node6 -->
<g id="edge8" class="edge">
<title>Node5&#45;&gt;Node6</title>
<path fill="none" stroke="#404040" d="M413.8246,-1013.6656C430.3758,-1003.7254 448.5956,-991.7261 454.308,-984 478.554,-951.2075 449.5456,-922.7747 480.308,-896 520.9877,-860.5936 560.2453,-914.1029 600.308,-878 615.9969,-863.8619 628.3763,-846.7133 638.1177,-827.9839"/>
<polygon fill="none" stroke="#404040" points="638.1594,-827.898 637.1863,-820.7528 643.4075,-817.1064 644.3807,-824.2516 638.1594,-827.898"/>
<text text-anchor="middle" x="495.808" y="-943" font-family="Helvetica,sans-Serif" font-size="10.00" fill="#000000"> +bc</text>
<text text-anchor="middle" x="495.808" y="-932" font-family="Helvetica,sans-Serif" font-size="10.00" fill="#000000">+orbit</text>
</g>
<!-- Node16 -->
<g id="node16" class="node">
<title>Node16</title>
<g id="a_node16"><a xlink:href="../../d3/d22/structo2_1_1header_1_1RDHAny.html" target="_top" xlink:title="{o2::header::RDHAny\n||+ RDHAny()\l+ RDHAny()\l+ operator=()\l+ GPUhdi()\l+ GPUhdi()\l+ GPUhdi()\l+ GPUhdi()\l+ GPUhdi()\l+ GPUhdi()\l+ GPUhdi()\l+ GPUhdi()\l# copyFrom()\l}">
<polygon fill="none" stroke="#000000" points="476.808,-518 476.808,-696 591.808,-696 591.808,-518 476.808,-518"/>
<text text-anchor="middle" x="534.308" y="-684" font-family="Helvetica,sans-Serif" font-size="10.00" fill="#000000">o2::header::RDHAny</text>
<polyline fill="none" stroke="#000000" points="476.808,-677 591.808,-677 "/>
<text text-anchor="middle" x="534.308" y="-665" font-family="Helvetica,sans-Serif" font-size="10.00" fill="#000000"> </text>
<polyline fill="none" stroke="#000000" points="476.808,-658 591.808,-658 "/>
<text text-anchor="start" x="484.808" y="-646" font-family="Helvetica,sans-Serif" font-size="10.00" fill="#000000">+ RDHAny()</text>
<text text-anchor="start" x="484.808" y="-635" font-family="Helvetica,sans-Serif" font-size="10.00" fill="#000000">+ RDHAny()</text>
<text text-anchor="start" x="484.808" y="-624" font-family="Helvetica,sans-Serif" font-size="10.00" fill="#000000">+ operator=()</text>
<text text-anchor="start" x="484.808" y="-613" font-family="Helvetica,sans-Serif" font-size="10.00" fill="#000000">+ GPUhdi()</text>
<text text-anchor="start" x="484.808" y="-602" font-family="Helvetica,sans-Serif" font-size="10.00" fill="#000000">+ GPUhdi()</text>
<text text-anchor="start" x="484.808" y="-591" font-family="Helvetica,sans-Serif" font-size="10.00" fill="#000000">+ GPUhdi()</text>
<text text-anchor="start" x="484.808" y="-580" font-family="Helvetica,sans-Serif" font-size="10.00" fill="#000000">+ GPUhdi()</text>
<text text-anchor="start" x="484.808" y="-569" font-family="Helvetica,sans-Serif" font-size="10.00" fill="#000000">+ GPUhdi()</text>
<text text-anchor="start" x="484.808" y="-558" font-family="Helvetica,sans-Serif" font-size="10.00" fill="#000000">+ GPUhdi()</text>
<text text-anchor="start" x="484.808" y="-547" font-family="Helvetica,sans-Serif" font-size="10.00" fill="#000000">+ GPUhdi()</text>
<text text-anchor="start" x="484.808" y="-536" font-family="Helvetica,sans-Serif" font-size="10.00" fill="#000000">+ GPUhdi()</text>
<text text-anchor="start" x="484.808" y="-525" font-family="Helvetica,sans-Serif" font-size="10.00" fill="#000000"># copyFrom()</text>
</a>
</g>
</g>
<!-- Node5&#45;&gt;Node16 -->
<g id="edge21" class="edge">
<title>Node5&#45;&gt;Node16</title>
<path fill="none" stroke="#404040" d="M387.9469,-1002.3322C394.1988,-965.1177 405.3458,-903.9634 412.308,-896 427.8535,-878.219 446.3396,-895.4022 462.308,-878 504.3935,-832.136 522.3998,-764.4786 529.8816,-708.241"/>
<polygon fill="none" stroke="#404040" points="529.9143,-707.9713 526.6684,-701.5321 531.3639,-696.0592 534.6098,-702.4984 529.9143,-707.9713"/>
<text text-anchor="middle" x="433.308" y="-976" font-family="Helvetica,sans-Serif" font-size="10.00" fill="#000000"> +word7</text>
<text text-anchor="middle" x="433.308" y="-965" font-family="Helvetica,sans-Serif" font-size="10.00" fill="#000000">+word0</text>
<text text-anchor="middle" x="433.308" y="-954" font-family="Helvetica,sans-Serif" font-size="10.00" fill="#000000">+word1</text>
<text text-anchor="middle" x="433.308" y="-943" font-family="Helvetica,sans-Serif" font-size="10.00" fill="#000000">+word2</text>
<text text-anchor="middle" x="433.308" y="-932" font-family="Helvetica,sans-Serif" font-size="10.00" fill="#000000">+word3</text>
<text text-anchor="middle" x="433.308" y="-921" font-family="Helvetica,sans-Serif" font-size="10.00" fill="#000000">+word4</text>
<text text-anchor="middle" x="433.308" y="-910" font-family="Helvetica,sans-Serif" font-size="10.00" fill="#000000">+word5</text>
<text text-anchor="middle" x="433.308" y="-899" font-family="Helvetica,sans-Serif" font-size="10.00" fill="#000000">+word6</text>
</g>
<!-- Node6&#45;&gt;Node1 -->
<g id="edge5" class="edge">
<title>Node6&#45;&gt;Node1</title>
<path fill="none" stroke="#404040" d="M678.1744,-396.9328C682.5194,-359.2766 688.9281,-320.6825 698.308,-285 698.8758,-282.8403 699.4721,-280.6729 700.0947,-278.5003"/>
<polygon fill="none" stroke="#404040" points="700.1498,-278.3201 698.0817,-271.4119 703.663,-266.8459 705.7312,-273.7541 700.1498,-278.3201"/>
<text text-anchor="middle" x="725.808" y="-299" font-family="Helvetica,sans-Serif" font-size="10.00" fill="#000000"> +updateIR</text>
</g>
<!-- Node7 -->
<g id="node7" class="node">
<title>Node7</title>
<polygon fill="none" stroke="#bfbfbf" points="600.308,-1002.5 600.308,-1059.5 650.308,-1059.5 650.308,-1002.5 600.308,-1002.5"/>
<text text-anchor="middle" x="625.308" y="-1047.5" font-family="Helvetica,sans-Serif" font-size="10.00" fill="#000000">double</text>
<polyline fill="none" stroke="#bfbfbf" points="600.308,-1040.5 650.308,-1040.5 "/>
<text text-anchor="middle" x="625.308" y="-1028.5" font-family="Helvetica,sans-Serif" font-size="10.00" fill="#000000"> </text>
<polyline fill="none" stroke="#bfbfbf" points="600.308,-1021.5 650.308,-1021.5 "/>
<text text-anchor="middle" x="625.308" y="-1009.5" font-family="Helvetica,sans-Serif" font-size="10.00" fill="#000000"> </text>
</g>
<!-- Node7&#45;&gt;Node6 -->
<g id="edge6" class="edge">
<title>Node7&#45;&gt;Node6</title>
<path fill="none" stroke="#404040" d="M620.3376,-1002.2425C619.4924,-996.2329 618.7467,-989.9236 618.308,-984 615.4194,-944.9957 614.8312,-934.9563 618.308,-896 620.248,-874.2639 622.9931,-851.7163 626.2198,-829.2365"/>
<polygon fill="none" stroke="#404040" points="626.2547,-828.9995 623.1723,-822.4804 628.0044,-817.1277 631.0868,-823.6468 626.2547,-828.9995"/>
<text text-anchor="middle" x="656.308" y="-937.5" font-family="Helvetica,sans-Serif" font-size="10.00" fill="#000000"> +DummyTime</text>
</g>
<!-- Node8 -->
<g id="node8" class="node">
<title>Node8</title>
<g id="a_node8"><a xlink:href="../../d2/d5f/classunsigned_01int.html" target="_top" xlink:title="{unsigned int\n||}">
<polygon fill="none" stroke="#000000" points="722.808,-1002.5 722.808,-1059.5 799.808,-1059.5 799.808,-1002.5 722.808,-1002.5"/>
<text text-anchor="middle" x="761.308" y="-1047.5" font-family="Helvetica,sans-Serif" font-size="10.00" fill="#000000">unsigned int</text>
<polyline fill="none" stroke="#000000" points="722.808,-1040.5 799.808,-1040.5 "/>
<text text-anchor="middle" x="761.308" y="-1028.5" font-family="Helvetica,sans-Serif" font-size="10.00" fill="#000000"> </text>
<polyline fill="none" stroke="#000000" points="722.808,-1021.5 799.808,-1021.5 "/>
<text text-anchor="middle" x="761.308" y="-1009.5" font-family="Helvetica,sans-Serif" font-size="10.00" fill="#000000"> </text>
</a>
</g>
</g>
<!-- Node8&#45;&gt;Node1 -->
<g id="edge17" class="edge">
<title>Node8&#45;&gt;Node1</title>
<path fill="none" stroke="#404040" d="M783.8172,-1002.4871C787.3148,-996.6668 790.3976,-990.3664 792.308,-984 803.5496,-946.5393 806.2074,-932.558 792.308,-896 788.5042,-885.9951 780.1723,-887.9818 776.308,-878 735.4955,-772.5776 746.2512,-463.6669 757.1601,-278.544"/>
<polygon fill="none" stroke="#404040" points="757.162,-278.5114 753.5273,-272.2833 757.8783,-266.5328 761.513,-272.7609 757.162,-278.5114"/>
<text text-anchor="middle" x="802.308" y="-604.5" font-family="Helvetica,sans-Serif" font-size="10.00" fill="#000000"> +subspec</text>
</g>
<!-- Node8&#45;&gt;Node6 -->
<g id="edge7" class="edge">
<title>Node8&#45;&gt;Node6</title>
<path fill="none" stroke="#404040" d="M729.3055,-1002.2746C724.6114,-996.6538 720.3436,-990.4775 717.308,-984 703.7384,-955.0438 693.7054,-893.9364 686.4766,-829.1877"/>
<polygon fill="none" stroke="#404040" points="686.4554,-828.9921 681.8308,-823.4593 685.1593,-817.0623 689.784,-822.5951 686.4554,-828.9921"/>
<text text-anchor="middle" x="754.808" y="-937.5" font-family="Helvetica,sans-Serif" font-size="10.00" fill="#000000"> +DummyOrbit</text>
</g>
<!-- Node9 -->
<g id="node9" class="node">
<title>Node9</title>
<polygon fill="none" stroke="#bfbfbf" points="444.808,-1002.5 444.808,-1059.5 581.808,-1059.5 581.808,-1002.5 444.808,-1002.5"/>
<text text-anchor="middle" x="513.308" y="-1047.5" font-family="Helvetica,sans-Serif" font-size="10.00" fill="#000000">static constexpr uint16_t</text>
<polyline fill="none" stroke="#bfbfbf" points="444.808,-1040.5 581.808,-1040.5 "/>
<text text-anchor="middle" x="513.308" y="-1028.5" font-family="Helvetica,sans-Serif" font-size="10.00" fill="#000000"> </text>
<polyline fill="none" stroke="#bfbfbf" points="444.808,-1021.5 581.808,-1021.5 "/>
<text text-anchor="middle" x="513.308" y="-1009.5" font-family="Helvetica,sans-Serif" font-size="10.00" fill="#000000"> </text>
</g>
<!-- Node9&#45;&gt;Node6 -->
<g id="edge9" class="edge">
<title>Node9&#45;&gt;Node6</title>
<path fill="none" stroke="#404040" d="M513.1953,-1002.2524C514.6232,-972.0842 521.4512,-925.0836 548.308,-896 564.8999,-878.0324 583.7242,-895.975 600.308,-878 613.8789,-863.2908 624.8949,-846.3002 633.8269,-828.143"/>
<polygon fill="none" stroke="#404040" points="633.9393,-827.9004 632.8333,-820.7746 638.9855,-817.013 640.0916,-824.1388 633.9393,-827.9004"/>
<text text-anchor="middle" x="580.308" y="-937.5" font-family="Helvetica,sans-Serif" font-size="10.00" fill="#000000"> +DummyBC</text>
</g>
<!-- Node10 -->
<g id="node10" class="node">
<title>Node10</title>
<g id="a_node10"><a xlink:href="../../d0/d0d/classo2_1_1raw_1_1RawFileWriter.html" target="_top" xlink:title="{o2::raw::RawFileWriter\n||+ RawFileWriter()\l+ ~RawFileWriter()\l+ useCaching()\l+ writeConfFile()\l+ close()\l+ registerLink()\l+ registerLink()\l+ setOrigin()\l+ getOrigin()\l+ getLinkWithSubSpec()\l+ getLinkWithSubSpec()\l+ addData()\l+ addData()\l+ setContinuousReadout()\l+ setTriggeredReadout()\l+ setContinuousReadout()\l+ isContinuousReadout()\l+ isTriggeredReadout()\l+ isReadOutModeSet()\l+ isLinkRegistered()\l+ setVerbosity()\l+ getVerbosity()\l+ getNOutputFiles()\l+ getOutputFileName()\l+ getSuperPageSize()\l+ setSuperPageSize()\l+ getIRMax()\l+ getHBFUtils()\l+ setCarryOverCallBack()\l+ setEmptyPageCallBack()\l+ carryOverMethod()\l+ emptyHBFMethod()\l+ getUsedRDHVersion()\l+ useRDHVersion()\l+ getDontFillEmptyHBF()\l+ setDontFillEmptyHBF()\l+ getAddSeparateHBFStopPage()\l+ setAddSeparateHBFStopPage()\l+ setRORCDetector()\l+ setUseRDHStop()\l+ setApplyCarryOverToLastPage()\l+ isRORCDetector()\l+ isCRUDetector()\l+ isRDHStopUsed()\l+ isCarryOverToLastPageApplied()\l}">
<polygon fill="none" stroke="#000000" points="837.308,-336.5 837.308,-877.5 1021.308,-877.5 1021.308,-336.5 837.308,-336.5"/>
<text text-anchor="middle" x="929.308" y="-865.5" font-family="Helvetica,sans-Serif" font-size="10.00" fill="#000000">o2::raw::RawFileWriter</text>
<polyline fill="none" stroke="#000000" points="837.308,-858.5 1021.308,-858.5 "/>
<text text-anchor="middle" x="929.308" y="-846.5" font-family="Helvetica,sans-Serif" font-size="10.00" fill="#000000"> </text>
<polyline fill="none" stroke="#000000" points="837.308,-839.5 1021.308,-839.5 "/>
<text text-anchor="start" x="845.308" y="-827.5" font-family="Helvetica,sans-Serif" font-size="10.00" fill="#000000">+ RawFileWriter()</text>
<text text-anchor="start" x="845.308" y="-816.5" font-family="Helvetica,sans-Serif" font-size="10.00" fill="#000000">+ ~RawFileWriter()</text>
<text text-anchor="start" x="845.308" y="-805.5" font-family="Helvetica,sans-Serif" font-size="10.00" fill="#000000">+ useCaching()</text>
<text text-anchor="start" x="845.308" y="-794.5" font-family="Helvetica,sans-Serif" font-size="10.00" fill="#000000">+ writeConfFile()</text>
<text text-anchor="start" x="845.308" y="-783.5" font-family="Helvetica,sans-Serif" font-size="10.00" fill="#000000">+ close()</text>
<text text-anchor="start" x="845.308" y="-772.5" font-family="Helvetica,sans-Serif" font-size="10.00" fill="#000000">+ registerLink()</text>
<text text-anchor="start" x="845.308" y="-761.5" font-family="Helvetica,sans-Serif" font-size="10.00" fill="#000000">+ registerLink()</text>
<text text-anchor="start" x="845.308" y="-750.5" font-family="Helvetica,sans-Serif" font-size="10.00" fill="#000000">+ setOrigin()</text>
<text text-anchor="start" x="845.308" y="-739.5" font-family="Helvetica,sans-Serif" font-size="10.00" fill="#000000">+ getOrigin()</text>
<text text-anchor="start" x="845.308" y="-728.5" font-family="Helvetica,sans-Serif" font-size="10.00" fill="#000000">+ getLinkWithSubSpec()</text>
<text text-anchor="start" x="845.308" y="-717.5" font-family="Helvetica,sans-Serif" font-size="10.00" fill="#000000">+ getLinkWithSubSpec()</text>
<text text-anchor="start" x="845.308" y="-706.5" font-family="Helvetica,sans-Serif" font-size="10.00" fill="#000000">+ addData()</text>
<text text-anchor="start" x="845.308" y="-695.5" font-family="Helvetica,sans-Serif" font-size="10.00" fill="#000000">+ addData()</text>
<text text-anchor="start" x="845.308" y="-684.5" font-family="Helvetica,sans-Serif" font-size="10.00" fill="#000000">+ setContinuousReadout()</text>
<text text-anchor="start" x="845.308" y="-673.5" font-family="Helvetica,sans-Serif" font-size="10.00" fill="#000000">+ setTriggeredReadout()</text>
<text text-anchor="start" x="845.308" y="-662.5" font-family="Helvetica,sans-Serif" font-size="10.00" fill="#000000">+ setContinuousReadout()</text>
<text text-anchor="start" x="845.308" y="-651.5" font-family="Helvetica,sans-Serif" font-size="10.00" fill="#000000">+ isContinuousReadout()</text>
<text text-anchor="start" x="845.308" y="-640.5" font-family="Helvetica,sans-Serif" font-size="10.00" fill="#000000">+ isTriggeredReadout()</text>
<text text-anchor="start" x="845.308" y="-629.5" font-family="Helvetica,sans-Serif" font-size="10.00" fill="#000000">+ isReadOutModeSet()</text>
<text text-anchor="start" x="845.308" y="-618.5" font-family="Helvetica,sans-Serif" font-size="10.00" fill="#000000">+ isLinkRegistered()</text>
<text text-anchor="start" x="845.308" y="-607.5" font-family="Helvetica,sans-Serif" font-size="10.00" fill="#000000">+ setVerbosity()</text>
<text text-anchor="start" x="845.308" y="-596.5" font-family="Helvetica,sans-Serif" font-size="10.00" fill="#000000">+ getVerbosity()</text>
<text text-anchor="start" x="845.308" y="-585.5" font-family="Helvetica,sans-Serif" font-size="10.00" fill="#000000">+ getNOutputFiles()</text>
<text text-anchor="start" x="845.308" y="-574.5" font-family="Helvetica,sans-Serif" font-size="10.00" fill="#000000">+ getOutputFileName()</text>
<text text-anchor="start" x="845.308" y="-563.5" font-family="Helvetica,sans-Serif" font-size="10.00" fill="#000000">+ getSuperPageSize()</text>
<text text-anchor="start" x="845.308" y="-552.5" font-family="Helvetica,sans-Serif" font-size="10.00" fill="#000000">+ setSuperPageSize()</text>
<text text-anchor="start" x="845.308" y="-541.5" font-family="Helvetica,sans-Serif" font-size="10.00" fill="#000000">+ getIRMax()</text>
<text text-anchor="start" x="845.308" y="-530.5" font-family="Helvetica,sans-Serif" font-size="10.00" fill="#000000">+ getHBFUtils()</text>
<text text-anchor="start" x="845.308" y="-519.5" font-family="Helvetica,sans-Serif" font-size="10.00" fill="#000000">+ setCarryOverCallBack()</text>
<text text-anchor="start" x="845.308" y="-508.5" font-family="Helvetica,sans-Serif" font-size="10.00" fill="#000000">+ setEmptyPageCallBack()</text>
<text text-anchor="start" x="845.308" y="-497.5" font-family="Helvetica,sans-Serif" font-size="10.00" fill="#000000">+ carryOverMethod()</text>
<text text-anchor="start" x="845.308" y="-486.5" font-family="Helvetica,sans-Serif" font-size="10.00" fill="#000000">+ emptyHBFMethod()</text>
<text text-anchor="start" x="845.308" y="-475.5" font-family="Helvetica,sans-Serif" font-size="10.00" fill="#000000">+ getUsedRDHVersion()</text>
<text text-anchor="start" x="845.308" y="-464.5" font-family="Helvetica,sans-Serif" font-size="10.00" fill="#000000">+ useRDHVersion()</text>
<text text-anchor="start" x="845.308" y="-453.5" font-family="Helvetica,sans-Serif" font-size="10.00" fill="#000000">+ getDontFillEmptyHBF()</text>
<text text-anchor="start" x="845.308" y="-442.5" font-family="Helvetica,sans-Serif" font-size="10.00" fill="#000000">+ setDontFillEmptyHBF()</text>
<text text-anchor="start" x="845.308" y="-431.5" font-family="Helvetica,sans-Serif" font-size="10.00" fill="#000000">+ getAddSeparateHBFStopPage()</text>
<text text-anchor="start" x="845.308" y="-420.5" font-family="Helvetica,sans-Serif" font-size="10.00" fill="#000000">+ setAddSeparateHBFStopPage()</text>
<text text-anchor="start" x="845.308" y="-409.5" font-family="Helvetica,sans-Serif" font-size="10.00" fill="#000000">+ setRORCDetector()</text>
<text text-anchor="start" x="845.308" y="-398.5" font-family="Helvetica,sans-Serif" font-size="10.00" fill="#000000">+ setUseRDHStop()</text>
<text text-anchor="start" x="845.308" y="-387.5" font-family="Helvetica,sans-Serif" font-size="10.00" fill="#000000">+ setApplyCarryOverToLastPage()</text>
<text text-anchor="start" x="845.308" y="-376.5" font-family="Helvetica,sans-Serif" font-size="10.00" fill="#000000">+ isRORCDetector()</text>
<text text-anchor="start" x="845.308" y="-365.5" font-family="Helvetica,sans-Serif" font-size="10.00" fill="#000000">+ isCRUDetector()</text>
<text text-anchor="start" x="845.308" y="-354.5" font-family="Helvetica,sans-Serif" font-size="10.00" fill="#000000">+ isRDHStopUsed()</text>
<text text-anchor="start" x="845.308" y="-343.5" font-family="Helvetica,sans-Serif" font-size="10.00" fill="#000000">+ isCarryOverToLastPageApplied()</text>
</a>
</g>
</g>
<!-- Node10&#45;&gt;Node1 -->
<g id="edge10" class="edge">
<title>Node10&#45;&gt;Node1</title>
<path fill="none" stroke="#404040" d="M837.3037,-338.0861C830.2714,-317.5319 823.3519,-297.3073 816.7625,-278.0474"/>
<polygon fill="none" stroke="#404040" points="816.6985,-277.8601 810.9715,-273.478 812.8139,-266.5062 818.5408,-270.8883 816.6985,-277.8601"/>
<text text-anchor="middle" x="848.308" y="-299" font-family="Helvetica,sans-Serif" font-size="10.00" fill="#000000"> +writer</text>
</g>
<!-- Node11 -->
<g id="node11" class="node">
<title>Node11</title>
<polygon fill="none" stroke="#bfbfbf" points="1039.808,-578.5 1039.808,-635.5 1156.808,-635.5 1156.808,-578.5 1039.808,-578.5"/>
<text text-anchor="middle" x="1098.308" y="-623.5" font-family="Helvetica,sans-Serif" font-size="10.00" fill="#000000">unique_ptr&lt; TTree &gt;</text>
<polyline fill="none" stroke="#bfbfbf" points="1039.808,-616.5 1156.808,-616.5 "/>
<text text-anchor="middle" x="1098.308" y="-604.5" font-family="Helvetica,sans-Serif" font-size="10.00" fill="#000000"> </text>
<polyline fill="none" stroke="#bfbfbf" points="1039.808,-597.5 1156.808,-597.5 "/>
<text text-anchor="middle" x="1098.308" y="-585.5" font-family="Helvetica,sans-Serif" font-size="10.00" fill="#000000"> </text>
</g>
<!-- Node11&#45;&gt;Node1 -->
<g id="edge11" class="edge">
<title>Node11&#45;&gt;Node1</title>
<path fill="none" stroke="#404040" d="M1097.2062,-578.4451C1093.9537,-526.2015 1081.1006,-413.4847 1030.308,-336 987.5551,-270.7799 916.5095,-217.9265 859.0303,-182.5904"/>
<polygon fill="none" stroke="#404040" points="858.7321,-182.41 851.5279,-182.7258 848.4655,-176.1972 855.6697,-175.8814 858.7321,-182.41"/>
<text text-anchor="middle" x="1044.808" y="-299" font-family="Helvetica,sans-Serif" font-size="10.00" fill="#000000"> +cacheTree</text>
</g>
<!-- Node12 -->
<g id="node12" class="node">
<title>Node12</title>
<polygon fill="none" stroke="#bfbfbf" points="1175.308,-578.5 1175.308,-635.5 1223.308,-635.5 1223.308,-578.5 1175.308,-578.5"/>
<text text-anchor="middle" x="1199.308" y="-623.5" font-family="Helvetica,sans-Serif" font-size="10.00" fill="#000000">mutex</text>
<polyline fill="none" stroke="#bfbfbf" points="1175.308,-616.5 1223.308,-616.5 "/>
<text text-anchor="middle" x="1199.308" y="-604.5" font-family="Helvetica,sans-Serif" font-size="10.00" fill="#000000"> </text>
<polyline fill="none" stroke="#bfbfbf" points="1175.308,-597.5 1223.308,-597.5 "/>
<text text-anchor="middle" x="1199.308" y="-585.5" font-family="Helvetica,sans-Serif" font-size="10.00" fill="#000000"> </text>
</g>
<!-- Node12&#45;&gt;Node1 -->
<g id="edge13" class="edge">
<title>Node12&#45;&gt;Node1</title>
<path fill="none" stroke="#404040" d="M1203.6138,-578.0958C1209.9044,-525.2843 1215.9852,-411.6786 1166.308,-336 1097.0166,-230.441 954.856,-177.2911 860.299,-152.5533"/>
<polygon fill="none" stroke="#404040" points="860.0661,-152.4941 853.2647,-154.89 848.4371,-149.5333 855.2386,-147.1373 860.0661,-152.4941"/>
<text text-anchor="middle" x="1167.808" y="-299" font-family="Helvetica,sans-Serif" font-size="10.00" fill="#000000"> +mtx</text>
</g>
<!-- Node13 -->
<g id="node13" class="node">
<title>Node13</title>
<polygon fill="none" stroke="#bfbfbf" points="1241.808,-578.5 1241.808,-635.5 1286.808,-635.5 1286.808,-578.5 1241.808,-578.5"/>
<text text-anchor="middle" x="1264.308" y="-623.5" font-family="Helvetica,sans-Serif" font-size="10.00" fill="#000000">size_t</text>
<polyline fill="none" stroke="#bfbfbf" points="1241.808,-616.5 1286.808,-616.5 "/>
<text text-anchor="middle" x="1264.308" y="-604.5" font-family="Helvetica,sans-Serif" font-size="10.00" fill="#000000"> </text>
<polyline fill="none" stroke="#bfbfbf" points="1241.808,-597.5 1286.808,-597.5 "/>
<text text-anchor="middle" x="1264.308" y="-585.5" font-family="Helvetica,sans-Serif" font-size="10.00" fill="#000000"> </text>
</g>
<!-- Node13&#45;&gt;Node1 -->
<g id="edge14" class="edge">
<title>Node13&#45;&gt;Node1</title>
<path fill="none" stroke="#404040" d="M1268.3482,-578.2852C1275.7966,-512.2149 1283.094,-350.1101 1187.308,-285 1086.0763,-216.1882 949.9268,-174.6239 860.454,-152.8745"/>
<polygon fill="none" stroke="#404040" points="860.3637,-152.853 853.5983,-155.3491 848.6922,-150.0642 855.4575,-147.5681 860.3637,-152.853"/>
<text text-anchor="middle" x="1257.308" y="-310" font-family="Helvetica,sans-Serif" font-size="10.00" fill="#000000"> +nRDHWritten</text>
<text text-anchor="middle" x="1257.308" y="-299" font-family="Helvetica,sans-Serif" font-size="10.00" fill="#000000">+nBytesWritten</text>
<text text-anchor="middle" x="1257.308" y="-288" font-family="Helvetica,sans-Serif" font-size="10.00" fill="#000000">+nTFWritten</text>
</g>
<!-- Node14 -->
<g id="node14" class="node">
<title>Node14</title>
<polygon fill="none" stroke="#bfbfbf" points="1330.808,-578.5 1330.808,-635.5 1359.808,-635.5 1359.808,-578.5 1330.808,-578.5"/>
<text text-anchor="middle" x="1345.308" y="-623.5" font-family="Helvetica,sans-Serif" font-size="10.00" fill="#000000">int</text>
<polyline fill="none" stroke="#bfbfbf" points="1330.808,-616.5 1359.808,-616.5 "/>
<text text-anchor="middle" x="1345.308" y="-604.5" font-family="Helvetica,sans-Serif" font-size="10.00" fill="#000000"> </text>
<polyline fill="none" stroke="#bfbfbf" points="1330.808,-597.5 1359.808,-597.5 "/>
<text text-anchor="middle" x="1345.308" y="-585.5" font-family="Helvetica,sans-Serif" font-size="10.00" fill="#000000"> </text>
</g>
<!-- Node14&#45;&gt;Node1 -->
<g id="edge15" class="edge">
<title>Node14&#45;&gt;Node1</title>
<path fill="none" stroke="#404040" d="M1350.6524,-578.353C1360.414,-516.5575 1373.8816,-369.505 1300.308,-285 1242.7838,-218.9289 997.3345,-170.1879 860.4699,-147.56"/>
<polygon fill="none" stroke="#404040" points="860.2252,-147.5201 853.6581,-150.499 848.3826,-145.5828 854.9497,-142.6039 860.2252,-147.5201"/>
<text text-anchor="middle" x="1358.308" y="-310" font-family="Helvetica,sans-Serif" font-size="10.00" fill="#000000"> +counter</text>
<text text-anchor="middle" x="1358.308" y="-299" font-family="Helvetica,sans-Serif" font-size="10.00" fill="#000000">+lastRDHoffset</text>
<text text-anchor="middle" x="1358.308" y="-288" font-family="Helvetica,sans-Serif" font-size="10.00" fill="#000000">+fileName</text>
</g>
<!-- Node15 -->
<g id="node15" class="node">
<title>Node15</title>
<polygon fill="none" stroke="#bfbfbf" points="1422.308,-578.5 1422.308,-635.5 1466.308,-635.5 1466.308,-578.5 1422.308,-578.5"/>
<text text-anchor="middle" x="1444.308" y="-623.5" font-family="Helvetica,sans-Serif" font-size="10.00" fill="#000000">static</text>
<polyline fill="none" stroke="#bfbfbf" points="1422.308,-616.5 1466.308,-616.5 "/>
<text text-anchor="middle" x="1444.308" y="-604.5" font-family="Helvetica,sans-Serif" font-size="10.00" fill="#000000"> </text>
<polyline fill="none" stroke="#bfbfbf" points="1422.308,-597.5 1466.308,-597.5 "/>
<text text-anchor="middle" x="1444.308" y="-585.5" font-family="Helvetica,sans-Serif" font-size="10.00" fill="#000000"> </text>
</g>
<!-- Node15&#45;&gt;Node1 -->
<g id="edge19" class="edge">
<title>Node15&#45;&gt;Node1</title>
<path fill="none" stroke="#404040" d="M1450.0234,-578.1283C1460.532,-515.8906 1475.4825,-368.0205 1400.308,-285 1328.6973,-205.9152 1018.3253,-161.0709 860.3841,-142.9828"/>
<polygon fill="none" stroke="#404040" points="860.2814,-142.9713 853.8701,-146.2721 848.3573,-141.6235 854.7686,-138.3227 860.2814,-142.9713"/>
<text text-anchor="middle" x="1460.808" y="-299" font-family="Helvetica,sans-Serif" font-size="10.00" fill="#000000"> +MarginToFlush</text>
</g>
<!-- Node16&#45;&gt;Node1 -->
<g id="edge20" class="edge">
<title>Node16&#45;&gt;Node1</title>
<path fill="none" stroke="#404040" d="M547.582,-517.9986C557.692,-463.7888 574.3823,-394.028 600.308,-336 618.9983,-294.1669 648.7685,-253.9567 678.0321,-220.5478"/>
<polygon fill="none" stroke="#404040" points="678.2802,-220.2693 679.2849,-213.1285 686.2628,-211.3095 685.2581,-218.4502 678.2802,-220.2693"/>
<text text-anchor="middle" x="654.308" y="-299" font-family="Helvetica,sans-Serif" font-size="10.00" fill="#000000"> +rdhCopy</text>
</g>
</g>
</svg>
