<?xml version="1.0" encoding="UTF-8" standalone="no"?>
<!DOCTYPE svg PUBLIC "-//W3C//DTD SVG 1.1//EN"
 "http://www.w3.org/Graphics/SVG/1.1/DTD/svg11.dtd">
<!-- Generated by graphviz version 2.40.1 (20161225.0304)
 -->
<!-- Title: o2::ft0::CompressedDigits Pages: 1 -->
<svg width="636pt" height="353pt"
 viewBox="0.00 0.00 635.50 353.00" xmlns="http://www.w3.org/2000/svg" xmlns:xlink="http://www.w3.org/1999/xlink">
<g id="graph0" class="graph" transform="scale(1 1) rotate(0) translate(4 349)">
<title>o2::ft0::CompressedDigits</title>
<!-- Node1 -->
<g id="node1" class="node">
<title>Node1</title>
<polygon fill="#bfbfbf" stroke="#000000" points="234,-.5 234,-79.5 377,-79.5 377,-.5 234,-.5"/>
<text text-anchor="middle" x="305.5" y="-67.5" font-family="Helvetica,sans-Serif" font-size="10.00" fill="#000000">o2::ft0::CompressedDigits</text>
<polyline fill="none" stroke="#000000" points="234,-60.5 377,-60.5 "/>
<text text-anchor="middle" x="305.5" y="-48.5" font-family="Helvetica,sans-Serif" font-size="10.00" fill="#000000"> </text>
<polyline fill="none" stroke="#000000" points="234,-41.5 377,-41.5 "/>
<text text-anchor="start" x="242" y="-29.5" font-family="Helvetica,sans-Serif" font-size="10.00" fill="#000000">+ CompressedDigits()</text>
<text text-anchor="start" x="242" y="-18.5" font-family="Helvetica,sans-Serif" font-size="10.00" fill="#000000">+ clear()</text>
<text text-anchor="start" x="242" y="-7.5" font-family="Helvetica,sans-Serif" font-size="10.00" fill="#000000">+ ClassDefNV()</text>
</g>
<!-- Node2 -->
<g id="node2" class="node">
<title>Node2</title>
<g id="a_node2"><a xlink:href="../../dc/d25/structo2_1_1ft0_1_1CTFHeader.html" target="_top" xlink:title="Header for a single CTF. ">
<polygon fill="none" stroke="#000000" points="0,-160.5 0,-217.5 107,-217.5 107,-160.5 0,-160.5"/>
<text text-anchor="middle" x="53.5" y="-205.5" font-family="Helvetica,sans-Serif" font-size="10.00" fill="#000000">o2::ft0::CTFHeader</text>
<polyline fill="none" stroke="#000000" points="0,-198.5 107,-198.5 "/>
<text text-anchor="middle" x="53.5" y="-186.5" font-family="Helvetica,sans-Serif" font-size="10.00" fill="#000000"> </text>
<polyline fill="none" stroke="#000000" points="0,-179.5 107,-179.5 "/>
<text text-anchor="start" x="8" y="-167.5" font-family="Helvetica,sans-Serif" font-size="10.00" fill="#000000">+ ClassDefNV()</text>
</a>
</g>
</g>
<!-- Node2&#45;&gt;Node1 -->
<g id="edge1" class="edge">
<title>Node2&#45;&gt;Node1</title>
<path fill="none" stroke="#404040" d="M85.9976,-160.378C108.859,-141.1584 140.7458,-116.1314 171.5,-98 187.5323,-88.548 205.3901,-79.7471 222.7076,-72.0012"/>
<polygon fill="none" stroke="#404040" points="222.9912,-71.8772 226.8848,-65.8076 233.9851,-67.0672 230.0915,-73.1368 222.9912,-71.8772"/>
<text text-anchor="middle" x="194.5" y="-117.5" font-family="Helvetica,sans-Serif" font-size="10.00" fill="#000000"> +header</text>
</g>
<!-- Node3 -->
<g id="node3" class="node">
<title>Node3</title>
<polygon fill="none" stroke="#bfbfbf" points="23,-287.5 23,-344.5 84,-344.5 84,-287.5 23,-287.5"/>
<text text-anchor="middle" x="53.5" y="-332.5" font-family="Helvetica,sans-Serif" font-size="10.00" fill="#000000">unsigned</text>
<polyline fill="none" stroke="#bfbfbf" points="23,-325.5 84,-325.5 "/>
<text text-anchor="middle" x="53.5" y="-313.5" font-family="Helvetica,sans-Serif" font-size="10.00" fill="#000000"> </text>
<polyline fill="none" stroke="#bfbfbf" points="23,-306.5 84,-306.5 "/>
<text text-anchor="middle" x="53.5" y="-294.5" font-family="Helvetica,sans-Serif" font-size="10.00" fill="#000000"> </text>
</g>
<!-- Node3&#45;&gt;Node2 -->
<g id="edge2" class="edge">
<title>Node3&#45;&gt;Node2</title>
<path fill="none" stroke="#404040" d="M53.5,-287.4987C53.5,-270.5423 53.5,-248.7438 53.5,-229.9661"/>
<polygon fill="none" stroke="#404040" points="53.5001,-229.8456 49.5,-223.8456 53.5,-217.8456 57.5,-223.8455 53.5001,-229.8456"/>
<text text-anchor="middle" x="80" y="-261" font-family="Helvetica,sans-Serif" font-size="10.00" fill="#000000"> +firstBC</text>
<text text-anchor="middle" x="80" y="-250" font-family="Helvetica,sans-Serif" font-size="10.00" fill="#000000">+firstOrbit</text>
<text text-anchor="middle" x="80" y="-239" font-family="Helvetica,sans-Serif" font-size="10.00" fill="#000000">+nTriggers</text>
</g>
<!-- Node4 -->
<g id="node4" class="node">
<title>Node4</title>
<polygon fill="none" stroke="#bfbfbf" points="125.5,-160.5 125.5,-217.5 235.5,-217.5 235.5,-160.5 125.5,-160.5"/>
<text text-anchor="middle" x="180.5" y="-205.5" font-family="Helvetica,sans-Serif" font-size="10.00" fill="#000000">vector&lt; uint16_t &gt;</text>
<polyline fill="none" stroke="#bfbfbf" points="125.5,-198.5 235.5,-198.5 "/>
<text text-anchor="middle" x="180.5" y="-186.5" font-family="Helvetica,sans-Serif" font-size="10.00" fill="#000000"> </text>
<polyline fill="none" stroke="#bfbfbf" points="125.5,-179.5 235.5,-179.5 "/>
<text text-anchor="middle" x="180.5" y="-167.5" font-family="Helvetica,sans-Serif" font-size="10.00" fill="#000000"> </text>
</g>
<!-- Node4&#45;&gt;Node1 -->
<g id="edge3" class="edge">
<title>Node4&#45;&gt;Node1</title>
<path fill="none" stroke="#404040" d="M204.6013,-160.2713C221.4991,-140.1291 244.5109,-112.699 264.2913,-89.1208"/>
<polygon fill="none" stroke="#404040" points="264.5462,-88.8169 265.338,-81.6494 272.2588,-79.6236 271.4669,-86.7911 264.5462,-88.8169"/>
<text text-anchor="middle" x="273" y="-117.5" font-family="Helvetica,sans-Serif" font-size="10.00" fill="#000000"> +bcInc</text>
</g>
<!-- Node5 -->
<g id="node5" class="node">
<title>Node5</title>
<polygon fill="none" stroke="#bfbfbf" points="253.5,-160.5 253.5,-217.5 357.5,-217.5 357.5,-160.5 253.5,-160.5"/>
<text text-anchor="middle" x="305.5" y="-205.5" font-family="Helvetica,sans-Serif" font-size="10.00" fill="#000000">vector&lt; int16_t &gt;</text>
<polyline fill="none" stroke="#bfbfbf" points="253.5,-198.5 357.5,-198.5 "/>
<text text-anchor="middle" x="305.5" y="-186.5" font-family="Helvetica,sans-Serif" font-size="10.00" fill="#000000"> </text>
<polyline fill="none" stroke="#bfbfbf" points="253.5,-179.5 357.5,-179.5 "/>
<text text-anchor="middle" x="305.5" y="-167.5" font-family="Helvetica,sans-Serif" font-size="10.00" fill="#000000"> </text>
</g>
<!-- Node5&#45;&gt;Node1 -->
<g id="edge4" class="edge">
<title>Node5&#45;&gt;Node1</title>
<path fill="none" stroke="#404040" d="M305.5,-160.2713C305.5,-140.8453 305.5,-114.6404 305.5,-91.6499"/>
<polygon fill="none" stroke="#404040" points="305.5001,-91.6236 301.5,-85.6236 305.5,-79.6236 309.5,-85.6235 305.5001,-91.6236"/>
<text text-anchor="middle" x="331.5" y="-123" font-family="Helvetica,sans-Serif" font-size="10.00" fill="#000000"> +qtcAmpl</text>
<text text-anchor="middle" x="331.5" y="-112" font-family="Helvetica,sans-Serif" font-size="10.00" fill="#000000">+cfdTime</text>
</g>
<!-- Node6 -->
<g id="node6" class="node">
<title>Node6</title>
<polygon fill="none" stroke="#bfbfbf" points="375.5,-160.5 375.5,-217.5 479.5,-217.5 479.5,-160.5 375.5,-160.5"/>
<text text-anchor="middle" x="427.5" y="-205.5" font-family="Helvetica,sans-Serif" font-size="10.00" fill="#000000">vector&lt; uint8_t &gt;</text>
<polyline fill="none" stroke="#bfbfbf" points="375.5,-198.5 479.5,-198.5 "/>
<text text-anchor="middle" x="427.5" y="-186.5" font-family="Helvetica,sans-Serif" font-size="10.00" fill="#000000"> </text>
<polyline fill="none" stroke="#bfbfbf" points="375.5,-179.5 479.5,-179.5 "/>
<text text-anchor="middle" x="427.5" y="-167.5" font-family="Helvetica,sans-Serif" font-size="10.00" fill="#000000"> </text>
</g>
<!-- Node6&#45;&gt;Node1 -->
<g id="edge5" class="edge">
<title>Node6&#45;&gt;Node1</title>
<path fill="none" stroke="#404040" d="M408.2657,-160.3517C395.5965,-142.0347 378.301,-118.0413 361.5,-98 358.8571,-94.8474 356.083,-91.6543 353.2426,-88.4714"/>
<polygon fill="none" stroke="#404040" points="353.2072,-88.4327 346.2077,-86.6988 345.1161,-79.5707 352.1156,-81.3046 353.2072,-88.4327"/>
<text text-anchor="middle" x="420.5" y="-134" font-family="Helvetica,sans-Serif" font-size="10.00" fill="#000000"> +trigger</text>
<text text-anchor="middle" x="420.5" y="-123" font-family="Helvetica,sans-Serif" font-size="10.00" fill="#000000">+idChan</text>
<text text-anchor="middle" x="420.5" y="-112" font-family="Helvetica,sans-Serif" font-size="10.00" fill="#000000">+qtcChain</text>
<text text-anchor="middle" x="420.5" y="-101" font-family="Helvetica,sans-Serif" font-size="10.00" fill="#000000">+nChan</text>
</g>
<!-- Node7 -->
<g id="node7" class="node">
<title>Node7</title>
<polygon fill="none" stroke="#bfbfbf" points="497.5,-160.5 497.5,-217.5 627.5,-217.5 627.5,-160.5 497.5,-160.5"/>
<text text-anchor="middle" x="562.5" y="-205.5" font-family="Helvetica,sans-Serif" font-size="10.00" fill="#000000">vector&lt; unsigned int &gt;</text>
<polyline fill="none" stroke="#bfbfbf" points="497.5,-198.5 627.5,-198.5 "/>
<text text-anchor="middle" x="562.5" y="-186.5" font-family="Helvetica,sans-Serif" font-size="10.00" fill="#000000"> </text>
<polyline fill="none" stroke="#bfbfbf" points="497.5,-179.5 627.5,-179.5 "/>
<text text-anchor="middle" x="562.5" y="-167.5" font-family="Helvetica,sans-Serif" font-size="10.00" fill="#000000"> </text>
</g>
<!-- Node7&#45;&gt;Node1 -->
<g id="edge6" class="edge">
<title>Node7&#45;&gt;Node1</title>
<path fill="none" stroke="#404040" d="M532.5137,-160.4092C510.9612,-140.9589 480.5219,-115.6473 450.5,-98 431.2714,-86.6972 409.4275,-76.6692 388.6348,-68.264"/>
<polygon fill="none" stroke="#404040" points="388.3791,-68.1633 381.3303,-69.685 377.2147,-63.7637 384.2635,-62.242 388.3791,-68.1633"/>
<text text-anchor="middle" x="535" y="-117.5" font-family="Helvetica,sans-Serif" font-size="10.00" fill="#000000"> +orbitInc</text>
</g>
</g>
</svg>
