<?xml version="1.0" encoding="UTF-8" standalone="no"?>
<!DOCTYPE svg PUBLIC "-//W3C//DTD SVG 1.1//EN"
 "http://www.w3.org/Graphics/SVG/1.1/DTD/svg11.dtd">
<!-- Generated by graphviz version 2.40.1 (20161225.0304)
 -->
<!-- Title: o2::itsmft::RUDecodeData Pages: 1 -->
<!--zoomable 463 -->
<svg id="main" version="1.1" xmlns="http://www.w3.org/2000/svg" xmlns:xlink="http://www.w3.org/1999/xlink" xml:space="preserve" onload="init(evt)">
<style type="text/css"><![CDATA[
.edge:hover path { stroke: red; }
.edge:hover polygon { stroke: red; fill: red; }
]]></style>
<script type="text/javascript"><![CDATA[
var edges = document.getElementsByTagName('g');
if (edges && edges.length) {
  for (var i=0;i<edges.length;i++) {
    if (edges[i].id.substr(0,4)=='edge') {
      edges[i].setAttribute('class','edge');
    }
  }
}
]]></script>
        <defs>
                <circle id="rim" cx="0" cy="0" r="7"/>
                <circle id="rim2" cx="0" cy="0" r="3.5"/>
                <g id="zoomPlus">
                        <use xlink:href="#rim" fill="#404040">
                                <set attributeName="fill" to="#808080" begin="zoomplus.mouseover" end="zoomplus.mouseout"/>
                        </use>
                        <path d="M-4,0h8M0,-4v8" fill="none" stroke="white" stroke-width="1.5" pointer-events="none"/>
                </g>
                <g id="zoomMin">
                        <use xlink:href="#rim" fill="#404040">
                                <set attributeName="fill" to="#808080" begin="zoomminus.mouseover" end="zoomminus.mouseout"/>
                        </use>
                        <path d="M-4,0h8" fill="none" stroke="white" stroke-width="1.5" pointer-events="none"/>
                </g>
                <g id="dirArrow">
                        <path fill="none" stroke="white" stroke-width="1.5" d="M0,-3.0v7 M-2.5,-0.5L0,-3.0L2.5,-0.5"/>
                </g>
               <g id="resetDef">
                       <use xlink:href="#rim2" fill="#404040">
                               <set attributeName="fill" to="#808080" begin="reset.mouseover" end="reset.mouseout"/>
                       </use>
               </g>
        </defs>

<script type="text/javascript">
var viewWidth = 1012;
var viewHeight = 463;
var sectionId = 'dynsection-0';
</script>
<script xlink:href="../../svgpan.js"/>
<svg id="graph" class="graph">
<g id="viewport">
<title>o2::itsmft::RUDecodeData</title>
<!-- Node1 -->
<g id="node1" class="node">
<title>Node1</title>
<polygon fill="#bfbfbf" stroke="#000000" points="443,-.5 443,-112.5 587,-112.5 587,-.5 443,-.5"/>
<text text-anchor="middle" x="515" y="-100.5" font-family="Helvetica,sans-Serif" font-size="10.00" fill="#000000">o2::itsmft::RUDecodeData</text>
<polyline fill="none" stroke="#000000" points="443,-93.5 587,-93.5 "/>
<text text-anchor="middle" x="515" y="-81.5" font-family="Helvetica,sans-Serif" font-size="10.00" fill="#000000"> </text>
<polyline fill="none" stroke="#000000" points="443,-74.5 587,-74.5 "/>
<text text-anchor="start" x="451" y="-62.5" font-family="Helvetica,sans-Serif" font-size="10.00" fill="#000000">+ RUDecodeData()</text>
<text text-anchor="start" x="451" y="-51.5" font-family="Helvetica,sans-Serif" font-size="10.00" fill="#000000">+ decodeROF()</text>
<text text-anchor="start" x="451" y="-40.5" font-family="Helvetica,sans-Serif" font-size="10.00" fill="#000000">+ clear()</text>
<text text-anchor="start" x="451" y="-29.5" font-family="Helvetica,sans-Serif" font-size="10.00" fill="#000000">+ setROFInfo()</text>
<text text-anchor="start" x="451" y="-18.5" font-family="Helvetica,sans-Serif" font-size="10.00" fill="#000000">+ decodeROF()</text>
<text text-anchor="start" x="451" y="-7.5" font-family="Helvetica,sans-Serif" font-size="10.00" fill="#000000">+ ClassDefNV()</text>
</g>
<!-- Node2 -->
<g id="node2" class="node">
<title>Node2</title>
<polygon fill="none" stroke="#bfbfbf" points="0,-226.5 0,-294.5 106,-294.5 106,-226.5 0,-226.5"/>
<text text-anchor="start" x="8" y="-282.5" font-family="Helvetica,sans-Serif" font-size="10.00" fill="#000000">vector&lt; o2::itsmft</text>
<text text-anchor="middle" x="53" y="-271.5" font-family="Helvetica,sans-Serif" font-size="10.00" fill="#000000">::ChipPixelData &gt;</text>
<polyline fill="none" stroke="#bfbfbf" points="0,-264.5 106,-264.5 "/>
<text text-anchor="middle" x="53" y="-252.5" font-family="Helvetica,sans-Serif" font-size="10.00" fill="#000000"> </text>
<polyline fill="none" stroke="#bfbfbf" points="0,-245.5 106,-245.5 "/>
<text text-anchor="middle" x="53" y="-233.5" font-family="Helvetica,sans-Serif" font-size="10.00" fill="#000000"> </text>
</g>
<!-- Node2&#45;&gt;Node1 -->
<g id="edge1" class="edge">
<title>Node2&#45;&gt;Node1</title>
<path fill="none" stroke="#404040" d="M81.7672,-226.3333C108.5936,-196.6909 151.2523,-154.8912 197,-131 270.696,-92.5132 364.2908,-73.6738 430.8149,-64.6011"/>
<polygon fill="none" stroke="#404040" points="431.0119,-64.5754 436.4421,-59.8306 442.9104,-63.0182 437.4803,-67.763 431.0119,-64.5754"/>
<text text-anchor="middle" x="227.5" y="-167" font-family="Helvetica,sans-Serif" font-size="10.00" fill="#000000"> +chipsData</text>
</g>
<!-- Node3 -->
<g id="node3" class="node">
<title>Node3</title>
<polygon fill="none" stroke="#bfbfbf" points="124,-226.5 124,-294.5 304,-294.5 304,-226.5 124,-226.5"/>
<text text-anchor="start" x="132" y="-282.5" font-family="Helvetica,sans-Serif" font-size="10.00" fill="#000000">array&lt; o2::itsmft::</text>
<text text-anchor="middle" x="214" y="-271.5" font-family="Helvetica,sans-Serif" font-size="10.00" fill="#000000">PayLoadCont, MaxCablesPerRU &gt;</text>
<polyline fill="none" stroke="#bfbfbf" points="124,-264.5 304,-264.5 "/>
<text text-anchor="middle" x="214" y="-252.5" font-family="Helvetica,sans-Serif" font-size="10.00" fill="#000000"> </text>
<polyline fill="none" stroke="#bfbfbf" points="124,-245.5 304,-245.5 "/>
<text text-anchor="middle" x="214" y="-233.5" font-family="Helvetica,sans-Serif" font-size="10.00" fill="#000000"> </text>
</g>
<!-- Node3&#45;&gt;Node1 -->
<g id="edge2" class="edge">
<title>Node3&#45;&gt;Node1</title>
<path fill="none" stroke="#404040" d="M243.2113,-226.2481C268.6901,-197.9515 307.783,-158.1592 348,-131 373.5518,-113.7444 403.7515,-98.8591 431.395,-87.0292"/>
<polygon fill="none" stroke="#404040" points="431.5872,-86.9488 435.5774,-80.9422 442.6566,-82.3153 438.6664,-88.3218 431.5872,-86.9488"/>
<text text-anchor="middle" x="378.5" y="-167" font-family="Helvetica,sans-Serif" font-size="10.00" fill="#000000"> +cableData</text>
</g>
<!-- Node4 -->
<g id="node4" class="node">
<title>Node4</title>
<polygon fill="none" stroke="#bfbfbf" points="322,-226.5 322,-294.5 494,-294.5 494,-226.5 322,-226.5"/>
<text text-anchor="start" x="330" y="-282.5" font-family="Helvetica,sans-Serif" font-size="10.00" fill="#000000">array&lt; const o2::itsmft</text>
<text text-anchor="middle" x="408" y="-271.5" font-family="Helvetica,sans-Serif" font-size="10.00" fill="#000000">::GBTLink *, MaxCablesPerRU &gt;</text>
<polyline fill="none" stroke="#bfbfbf" points="322,-264.5 494,-264.5 "/>
<text text-anchor="middle" x="408" y="-252.5" font-family="Helvetica,sans-Serif" font-size="10.00" fill="#000000"> </text>
<polyline fill="none" stroke="#bfbfbf" points="322,-245.5 494,-245.5 "/>
<text text-anchor="middle" x="408" y="-233.5" font-family="Helvetica,sans-Serif" font-size="10.00" fill="#000000"> </text>
</g>
<!-- Node4&#45;&gt;Node1 -->
<g id="edge3" class="edge">
<title>Node4&#45;&gt;Node1</title>
<path fill="none" stroke="#404040" d="M409.839,-226.3546C412.5692,-199.0364 419.324,-160.5471 436,-131 437.6939,-127.9986 439.5488,-125.046 441.533,-122.1505"/>
<polygon fill="none" stroke="#404040" points="441.5384,-122.1432 441.9331,-114.9428 448.7314,-112.5378 448.3367,-119.7382 441.5384,-122.1432"/>
<text text-anchor="middle" x="472" y="-167" font-family="Helvetica,sans-Serif" font-size="10.00" fill="#000000"> +cableLinkPtr</text>
</g>
<!-- Node5 -->
<g id="node5" class="node">
<title>Node5</title>
<polygon fill="none" stroke="#bfbfbf" points="512.5,-232 512.5,-289 541.5,-289 541.5,-232 512.5,-232"/>
<text text-anchor="middle" x="527" y="-277" font-family="Helvetica,sans-Serif" font-size="10.00" fill="#000000">int</text>
<polyline fill="none" stroke="#bfbfbf" points="512.5,-270 541.5,-270 "/>
<text text-anchor="middle" x="527" y="-258" font-family="Helvetica,sans-Serif" font-size="10.00" fill="#000000"> </text>
<polyline fill="none" stroke="#bfbfbf" points="512.5,-251 541.5,-251 "/>
<text text-anchor="middle" x="527" y="-239" font-family="Helvetica,sans-Serif" font-size="10.00" fill="#000000"> </text>
</g>
<!-- Node5&#45;&gt;Node1 -->
<g id="edge4" class="edge">
<title>Node5&#45;&gt;Node1</title>
<path fill="none" stroke="#404040" d="M519.9026,-231.7815C518.3024,-224.1043 516.8321,-215.7781 516,-208 513.1017,-180.9067 512.3854,-150.9322 512.5596,-124.845"/>
<polygon fill="none" stroke="#404040" points="512.5604,-124.7692 508.6326,-118.7216 512.7043,-112.77 516.6321,-118.8175 512.5604,-124.7692"/>
<text text-anchor="middle" x="563.5" y="-200" font-family="Helvetica,sans-Serif" font-size="10.00" fill="#000000"> +MaxCablesPerRU</text>
<text text-anchor="middle" x="563.5" y="-189" font-family="Helvetica,sans-Serif" font-size="10.00" fill="#000000">+nChipsFired</text>
<text text-anchor="middle" x="563.5" y="-178" font-family="Helvetica,sans-Serif" font-size="10.00" fill="#000000">+lastChipChecked</text>
<text text-anchor="middle" x="563.5" y="-167" font-family="Helvetica,sans-Serif" font-size="10.00" fill="#000000">+MaxLinksPerRU</text>
<text text-anchor="middle" x="563.5" y="-156" font-family="Helvetica,sans-Serif" font-size="10.00" fill="#000000">+ruSWID</text>
<text text-anchor="middle" x="563.5" y="-145" font-family="Helvetica,sans-Serif" font-size="10.00" fill="#000000">+nCables</text>
<text text-anchor="middle" x="563.5" y="-134" font-family="Helvetica,sans-Serif" font-size="10.00" fill="#000000">+MaxChipsPerRU</text>
</g>
<!-- Node6 -->
<g id="node6" class="node">
<title>Node6</title>
<g id="a_node6"><a xlink:href="../../dd/d8d/structo2_1_1itsmft_1_1RUInfo.html" target="_top" xlink:title="{o2::itsmft::RUInfo\n||}">
<polygon fill="none" stroke="#000000" points="559.5,-232 559.5,-289 662.5,-289 662.5,-232 559.5,-232"/>
<text text-anchor="middle" x="611" y="-277" font-family="Helvetica,sans-Serif" font-size="10.00" fill="#000000">o2::itsmft::RUInfo</text>
<polyline fill="none" stroke="#000000" points="559.5,-270 662.5,-270 "/>
<text text-anchor="middle" x="611" y="-258" font-family="Helvetica,sans-Serif" font-size="10.00" fill="#000000"> </text>
<polyline fill="none" stroke="#000000" points="559.5,-251 662.5,-251 "/>
<text text-anchor="middle" x="611" y="-239" font-family="Helvetica,sans-Serif" font-size="10.00" fill="#000000"> </text>
</a>
</g>
</g>
<!-- Node6&#45;&gt;Node1 -->
<g id="edge5" class="edge">
<title>Node6&#45;&gt;Node1</title>
<path fill="none" stroke="#404040" d="M617.9173,-231.8619C622.9852,-204.4894 626.5747,-162.8011 611,-131 607.1086,-123.0544 601.9158,-115.7127 595.9526,-108.9903"/>
<polygon fill="none" stroke="#404040" points="595.769,-108.8021 588.7166,-107.2974 587.3931,-100.2088 594.4455,-101.7134 595.769,-108.8021"/>
<text text-anchor="middle" x="642" y="-167" font-family="Helvetica,sans-Serif" font-size="10.00" fill="#000000"> +ruInfo</text>
</g>
<!-- Node7 -->
<g id="node7" class="node">
<title>Node7</title>
<polygon fill="none" stroke="#bfbfbf" points="530.5,-397.5 530.5,-454.5 591.5,-454.5 591.5,-397.5 530.5,-397.5"/>
<text text-anchor="middle" x="561" y="-442.5" font-family="Helvetica,sans-Serif" font-size="10.00" fill="#000000">unsigned</text>
<polyline fill="none" stroke="#bfbfbf" points="530.5,-435.5 591.5,-435.5 "/>
<text text-anchor="middle" x="561" y="-423.5" font-family="Helvetica,sans-Serif" font-size="10.00" fill="#000000"> </text>
<polyline fill="none" stroke="#bfbfbf" points="530.5,-416.5 591.5,-416.5 "/>
<text text-anchor="middle" x="561" y="-404.5" font-family="Helvetica,sans-Serif" font-size="10.00" fill="#000000"> </text>
</g>
<!-- Node7&#45;&gt;Node6 -->
<g id="edge6" class="edge">
<title>Node7&#45;&gt;Node6</title>
<path fill="none" stroke="#404040" d="M553.9676,-397.4242C549.6085,-373.8408 546.7459,-339.9888 558,-313 560.1037,-307.9551 562.9542,-303.1468 566.248,-298.6341"/>
<polygon fill="none" stroke="#404040" points="566.3779,-298.4778 567.1378,-291.3069 574.0494,-289.2502 573.2895,-296.4212 566.3779,-298.4778"/>
<text text-anchor="middle" x="596" y="-371" font-family="Helvetica,sans-Serif" font-size="10.00" fill="#000000"> +layer</text>
<text text-anchor="middle" x="596" y="-360" font-family="Helvetica,sans-Serif" font-size="10.00" fill="#000000">+firstChipIDSW</text>
<text text-anchor="middle" x="596" y="-349" font-family="Helvetica,sans-Serif" font-size="10.00" fill="#000000">+idHW</text>
<text text-anchor="middle" x="596" y="-338" font-family="Helvetica,sans-Serif" font-size="10.00" fill="#000000">+ruType</text>
<text text-anchor="middle" x="596" y="-327" font-family="Helvetica,sans-Serif" font-size="10.00" fill="#000000">+idSW</text>
<text text-anchor="middle" x="596" y="-316" font-family="Helvetica,sans-Serif" font-size="10.00" fill="#000000">+nCables</text>
</g>
<!-- Node8 -->
<g id="node8" class="node">
<title>Node8</title>
<polygon fill="none" stroke="#bfbfbf" points="638.5,-397.5 638.5,-454.5 681.5,-454.5 681.5,-397.5 638.5,-397.5"/>
<text text-anchor="middle" x="660" y="-442.5" font-family="Helvetica,sans-Serif" font-size="10.00" fill="#000000">const</text>
<polyline fill="none" stroke="#bfbfbf" points="638.5,-435.5 681.5,-435.5 "/>
<text text-anchor="middle" x="660" y="-423.5" font-family="Helvetica,sans-Serif" font-size="10.00" fill="#000000"> </text>
<polyline fill="none" stroke="#bfbfbf" points="638.5,-416.5 681.5,-416.5 "/>
<text text-anchor="middle" x="660" y="-404.5" font-family="Helvetica,sans-Serif" font-size="10.00" fill="#000000"> </text>
</g>
<!-- Node8&#45;&gt;Node6 -->
<g id="edge7" class="edge">
<title>Node8&#45;&gt;Node6</title>
<path fill="none" stroke="#404040" d="M656.6642,-397.0854C653.4475,-373.8984 647.6217,-340.7598 638,-313 636.52,-308.7299 634.7488,-304.3733 632.8306,-300.0866"/>
<polygon fill="none" stroke="#404040" points="632.7058,-299.8267 626.5019,-296.1508 627.509,-289.0104 633.7128,-292.6863 632.7058,-299.8267"/>
<text text-anchor="middle" x="683.5" y="-349" font-family="Helvetica,sans-Serif" font-size="10.00" fill="#000000"> +DUMMY16</text>
<text text-anchor="middle" x="683.5" y="-338" font-family="Helvetica,sans-Serif" font-size="10.00" fill="#000000">+DUMMY8</text>
</g>
<!-- Node9 -->
<g id="node9" class="node">
<title>Node9</title>
<polygon fill="none" stroke="#bfbfbf" points="680.5,-232 680.5,-289 839.5,-289 839.5,-232 680.5,-232"/>
<text text-anchor="middle" x="760" y="-277" font-family="Helvetica,sans-Serif" font-size="10.00" fill="#000000">array&lt; int, MaxLinksPerRU &gt;</text>
<polyline fill="none" stroke="#bfbfbf" points="680.5,-270 839.5,-270 "/>
<text text-anchor="middle" x="760" y="-258" font-family="Helvetica,sans-Serif" font-size="10.00" fill="#000000"> </text>
<polyline fill="none" stroke="#bfbfbf" points="680.5,-251 839.5,-251 "/>
<text text-anchor="middle" x="760" y="-239" font-family="Helvetica,sans-Serif" font-size="10.00" fill="#000000"> </text>
</g>
<!-- Node9&#45;&gt;Node1 -->
<g id="edge8" class="edge">
<title>Node9&#45;&gt;Node1</title>
<path fill="none" stroke="#404040" d="M744.7461,-231.882C728.3795,-203.35 700.0854,-159.7463 666,-131 646.0337,-114.1612 621.6104,-100.0013 598.2737,-88.7015"/>
<polygon fill="none" stroke="#404040" points="598.1538,-88.6453 591.023,-89.7184 587.2898,-83.5488 594.4207,-82.4757 598.1538,-88.6453"/>
<text text-anchor="middle" x="746.5" y="-167" font-family="Helvetica,sans-Serif" font-size="10.00" fill="#000000"> +links</text>
</g>
<!-- Node10 -->
<g id="node10" class="node">
<title>Node10</title>
<polygon fill="none" stroke="#bfbfbf" points="858,-226.5 858,-294.5 1004,-294.5 1004,-226.5 858,-226.5"/>
<text text-anchor="start" x="866" y="-282.5" font-family="Helvetica,sans-Serif" font-size="10.00" fill="#000000">array&lt; uint8_t, MaxCables</text>
<text text-anchor="middle" x="931" y="-271.5" font-family="Helvetica,sans-Serif" font-size="10.00" fill="#000000">PerRU &gt;</text>
<polyline fill="none" stroke="#bfbfbf" points="858,-264.5 1004,-264.5 "/>
<text text-anchor="middle" x="931" y="-252.5" font-family="Helvetica,sans-Serif" font-size="10.00" fill="#000000"> </text>
<polyline fill="none" stroke="#bfbfbf" points="858,-245.5 1004,-245.5 "/>
<text text-anchor="middle" x="931" y="-233.5" font-family="Helvetica,sans-Serif" font-size="10.00" fill="#000000"> </text>
</g>
<!-- Node10&#45;&gt;Node1 -->
<g id="edge9" class="edge">
<title>Node10&#45;&gt;Node1</title>
<path fill="none" stroke="#404040" d="M896.2938,-226.2806C865.0791,-197.221 816.7572,-156.3134 768,-131 714.7651,-103.3618 649.7644,-84.5015 598.9787,-72.6726"/>
<polygon fill="none" stroke="#404040" points="598.7536,-72.6215 592.0163,-75.1924 587.0519,-69.9623 593.7891,-67.3913 598.7536,-72.6215"/>
<text text-anchor="middle" x="905" y="-172.5" font-family="Helvetica,sans-Serif" font-size="10.00" fill="#000000"> +cableHWID</text>
<text text-anchor="middle" x="905" y="-161.5" font-family="Helvetica,sans-Serif" font-size="10.00" fill="#000000">+cableLinkID</text>
</g>
</g>
</svg>
        <g id="navigator" transform="translate(0 0)" fill="#404254">
                <rect fill="#f2f5e9" fill-opacity="0.5" stroke="#606060" stroke-width=".5" x="0" y="0" width="60" height="60"/>
                <use id="zoomplus" xlink:href="#zoomPlus" x="17" y="9" onmousedown="handleZoom(evt,'in')"/>
                <use id="zoomminus" xlink:href="#zoomMin" x="42" y="9" onmousedown="handleZoom(evt,'out')"/>
                <use id="reset" xlink:href="#resetDef" x="30" y="36" onmousedown="handleReset()"/>
                <g id="arrowUp" xlink:href="#dirArrow" transform="translate(30 24)" onmousedown="handlePan(0,-1)">
                  <use xlink:href="#rim" fill="#404040">
                        <set attributeName="fill" to="#808080" begin="arrowUp.mouseover" end="arrowUp.mouseout"/>
                  </use>
                  <path fill="none" stroke="white" stroke-width="1.5" d="M0,-3.0v7 M-2.5,-0.5L0,-3.0L2.5,-0.5"/>
                </g>
                <g id="arrowRight" xlink:href="#dirArrow" transform="rotate(90) translate(36 -43)" onmousedown="handlePan(1,0)">
                  <use xlink:href="#rim" fill="#404040">
                        <set attributeName="fill" to="#808080" begin="arrowRight.mouseover" end="arrowRight.mouseout"/>
                  </use>
                  <path fill="none" stroke="white" stroke-width="1.5" d="M0,-3.0v7 M-2.5,-0.5L0,-3.0L2.5,-0.5"/>
                </g>
                <g id="arrowDown" xlink:href="#dirArrow" transform="rotate(180) translate(-30 -48)" onmousedown="handlePan(0,1)">
                  <use xlink:href="#rim" fill="#404040">
                        <set attributeName="fill" to="#808080" begin="arrowDown.mouseover" end="arrowDown.mouseout"/>
                  </use>
                  <path fill="none" stroke="white" stroke-width="1.5" d="M0,-3.0v7 M-2.5,-0.5L0,-3.0L2.5,-0.5"/>
                </g>
                <g id="arrowLeft" xlink:href="#dirArrow" transform="rotate(270) translate(-36 17)" onmousedown="handlePan(-1,0)">
                  <use xlink:href="#rim" fill="#404040">
                        <set attributeName="fill" to="#808080" begin="arrowLeft.mouseover" end="arrowLeft.mouseout"/>
                  </use>
                  <path fill="none" stroke="white" stroke-width="1.5" d="M0,-3.0v7 M-2.5,-0.5L0,-3.0L2.5,-0.5"/>
                </g>
        </g>
        <svg viewBox="0 0 15 15" width="100%" height="30px" preserveAspectRatio="xMaxYMin meet">
         <g id="arrow_out" transform="scale(0.3 0.3)">
          <a xlink:href="structo2_1_1itsmft_1_1RUDecodeData__coll__graph_org.svg" target="_base">
           <rect id="button" ry="5" rx="5" y="6" x="6" height="38" width="38"
                fill="#f2f5e9" fill-opacity="0.5" stroke="#606060" stroke-width="1.0"/>
           <path id="arrow"
             d="M 11.500037,31.436501 C 11.940474,20.09759 22.043105,11.32322 32.158766,21.979434 L 37.068811,17.246167 C 37.068811,17.246167 37.088388,32 37.088388,32 L 22.160133,31.978069 C 22.160133,31.978069 26.997745,27.140456 26.997745,27.140456 C 18.528582,18.264221 13.291696,25.230495 11.500037,31.436501 z"
             style="fill:#404040;"/>
          </a>
         </g>
        </svg>
</svg>
