<?xml version="1.0" encoding="UTF-8" standalone="no"?>
<!DOCTYPE svg PUBLIC "-//W3C//DTD SVG 1.1//EN"
 "http://www.w3.org/Graphics/SVG/1.1/DTD/svg11.dtd">
<!-- Generated by graphviz version 2.40.1 (20161225.0304)
 -->
<!-- Title: o2::ft0::Digit Pages: 1 -->
<svg width="856pt" height="925pt"
 viewBox="0.00 0.00 856.00 925.00" xmlns="http://www.w3.org/2000/svg" xmlns:xlink="http://www.w3.org/1999/xlink">
<g id="graph0" class="graph" transform="scale(1 1) rotate(0) translate(4 921)">
<title>o2::ft0::Digit</title>
<!-- Node1 -->
<g id="node1" class="node">
<title>Node1</title>
<polygon fill="#bfbfbf" stroke="#000000" points="438,-.5 438,-200.5 582,-200.5 582,-.5 438,-.5"/>
<text text-anchor="middle" x="510" y="-188.5" font-family="Helvetica,sans-Serif" font-size="10.00" fill="#000000">o2::ft0::Digit</text>
<polyline fill="none" stroke="#000000" points="438,-181.5 582,-181.5 "/>
<text text-anchor="middle" x="510" y="-169.5" font-family="Helvetica,sans-Serif" font-size="10.00" fill="#000000"> </text>
<polyline fill="none" stroke="#000000" points="438,-162.5 582,-162.5 "/>
<text text-anchor="start" x="446" y="-150.5" font-family="Helvetica,sans-Serif" font-size="10.00" fill="#000000">+ Digit()</text>
<text text-anchor="start" x="446" y="-139.5" font-family="Helvetica,sans-Serif" font-size="10.00" fill="#000000">+ Digit()</text>
<text text-anchor="start" x="446" y="-128.5" font-family="Helvetica,sans-Serif" font-size="10.00" fill="#000000">+ getOrbit()</text>
<text text-anchor="start" x="446" y="-117.5" font-family="Helvetica,sans-Serif" font-size="10.00" fill="#000000">+ getBC()</text>
<text text-anchor="start" x="446" y="-106.5" font-family="Helvetica,sans-Serif" font-size="10.00" fill="#000000">+ getTriggers()</text>
<text text-anchor="start" x="446" y="-95.5" font-family="Helvetica,sans-Serif" font-size="10.00" fill="#000000">+ getEventID()</text>
<text text-anchor="start" x="446" y="-84.5" font-family="Helvetica,sans-Serif" font-size="10.00" fill="#000000">+ getIntRecord()</text>
<text text-anchor="start" x="446" y="-73.5" font-family="Helvetica,sans-Serif" font-size="10.00" fill="#000000">+ getBunchChannelData()</text>
<text text-anchor="start" x="446" y="-62.5" font-family="Helvetica,sans-Serif" font-size="10.00" fill="#000000">+ printStream()</text>
<text text-anchor="start" x="446" y="-51.5" font-family="Helvetica,sans-Serif" font-size="10.00" fill="#000000">+ setTriggers()</text>
<text text-anchor="start" x="446" y="-40.5" font-family="Helvetica,sans-Serif" font-size="10.00" fill="#000000">+ setEventStatus()</text>
<text text-anchor="start" x="446" y="-29.5" font-family="Helvetica,sans-Serif" font-size="10.00" fill="#000000">+ setStatusFlag()</text>
<text text-anchor="start" x="446" y="-18.5" font-family="Helvetica,sans-Serif" font-size="10.00" fill="#000000">+ getStatusFlag()</text>
<text text-anchor="start" x="446" y="-7.5" font-family="Helvetica,sans-Serif" font-size="10.00" fill="#000000">+ ClassDefNV()</text>
</g>
<!-- Node2 -->
<g id="node2" class="node">
<title>Node2</title>
<g id="a_node2"><a xlink:href="../../d1/d21/structo2_1_1InteractionRecord.html" target="_top" xlink:title="{o2::InteractionRecord\n||+ InteractionRecord()\l+ InteractionRecord()\l+ InteractionRecord()\l+ InteractionRecord()\l+ clear()\l+ isDummy()\l+ setFromNS()\l+ bc2ns()\l+ operator==()\l+ operator!=()\l+ differenceInBC()\l+ toLong()\l+ setFromLong()\l+ operator\&gt;()\l+ operator\&gt;=()\l+ operator\&lt;()\l+ operator\&lt;=()\l+ operator&#45;&#45;()\l+ operator&#45;&#45;()\l+ operator++()\l+ operator++()\l+ operator+=()\l+ operator&#45;=()\l+ operator+=()\l+ operator&#45;=()\l+ operator+()\l+ operator&#45;()\l+ operator+()\l+ operator&#45;()\l+ print()\l+ asString()\l+ ClassDefNV()\l+ bc2ns()\l+ ns2bc()\l}">
<polygon fill="none" stroke="#000000" points="168.5,-248.5 168.5,-668.5 289.5,-668.5 289.5,-248.5 168.5,-248.5"/>
<text text-anchor="middle" x="229" y="-656.5" font-family="Helvetica,sans-Serif" font-size="10.00" fill="#000000">o2::InteractionRecord</text>
<polyline fill="none" stroke="#000000" points="168.5,-649.5 289.5,-649.5 "/>
<text text-anchor="middle" x="229" y="-637.5" font-family="Helvetica,sans-Serif" font-size="10.00" fill="#000000"> </text>
<polyline fill="none" stroke="#000000" points="168.5,-630.5 289.5,-630.5 "/>
<text text-anchor="start" x="176.5" y="-618.5" font-family="Helvetica,sans-Serif" font-size="10.00" fill="#000000">+ InteractionRecord()</text>
<text text-anchor="start" x="176.5" y="-607.5" font-family="Helvetica,sans-Serif" font-size="10.00" fill="#000000">+ InteractionRecord()</text>
<text text-anchor="start" x="176.5" y="-596.5" font-family="Helvetica,sans-Serif" font-size="10.00" fill="#000000">+ InteractionRecord()</text>
<text text-anchor="start" x="176.5" y="-585.5" font-family="Helvetica,sans-Serif" font-size="10.00" fill="#000000">+ InteractionRecord()</text>
<text text-anchor="start" x="176.5" y="-574.5" font-family="Helvetica,sans-Serif" font-size="10.00" fill="#000000">+ clear()</text>
<text text-anchor="start" x="176.5" y="-563.5" font-family="Helvetica,sans-Serif" font-size="10.00" fill="#000000">+ isDummy()</text>
<text text-anchor="start" x="176.5" y="-552.5" font-family="Helvetica,sans-Serif" font-size="10.00" fill="#000000">+ setFromNS()</text>
<text text-anchor="start" x="176.5" y="-541.5" font-family="Helvetica,sans-Serif" font-size="10.00" fill="#000000">+ bc2ns()</text>
<text text-anchor="start" x="176.5" y="-530.5" font-family="Helvetica,sans-Serif" font-size="10.00" fill="#000000">+ operator==()</text>
<text text-anchor="start" x="176.5" y="-519.5" font-family="Helvetica,sans-Serif" font-size="10.00" fill="#000000">+ operator!=()</text>
<text text-anchor="start" x="176.5" y="-508.5" font-family="Helvetica,sans-Serif" font-size="10.00" fill="#000000">+ differenceInBC()</text>
<text text-anchor="start" x="176.5" y="-497.5" font-family="Helvetica,sans-Serif" font-size="10.00" fill="#000000">+ toLong()</text>
<text text-anchor="start" x="176.5" y="-486.5" font-family="Helvetica,sans-Serif" font-size="10.00" fill="#000000">+ setFromLong()</text>
<text text-anchor="start" x="176.5" y="-475.5" font-family="Helvetica,sans-Serif" font-size="10.00" fill="#000000">+ operator&gt;()</text>
<text text-anchor="start" x="176.5" y="-464.5" font-family="Helvetica,sans-Serif" font-size="10.00" fill="#000000">+ operator&gt;=()</text>
<text text-anchor="start" x="176.5" y="-453.5" font-family="Helvetica,sans-Serif" font-size="10.00" fill="#000000">+ operator&lt;()</text>
<text text-anchor="start" x="176.5" y="-442.5" font-family="Helvetica,sans-Serif" font-size="10.00" fill="#000000">+ operator&lt;=()</text>
<text text-anchor="start" x="176.5" y="-431.5" font-family="Helvetica,sans-Serif" font-size="10.00" fill="#000000">+ operator&#45;&#45;()</text>
<text text-anchor="start" x="176.5" y="-420.5" font-family="Helvetica,sans-Serif" font-size="10.00" fill="#000000">+ operator&#45;&#45;()</text>
<text text-anchor="start" x="176.5" y="-409.5" font-family="Helvetica,sans-Serif" font-size="10.00" fill="#000000">+ operator++()</text>
<text text-anchor="start" x="176.5" y="-398.5" font-family="Helvetica,sans-Serif" font-size="10.00" fill="#000000">+ operator++()</text>
<text text-anchor="start" x="176.5" y="-387.5" font-family="Helvetica,sans-Serif" font-size="10.00" fill="#000000">+ operator+=()</text>
<text text-anchor="start" x="176.5" y="-376.5" font-family="Helvetica,sans-Serif" font-size="10.00" fill="#000000">+ operator&#45;=()</text>
<text text-anchor="start" x="176.5" y="-365.5" font-family="Helvetica,sans-Serif" font-size="10.00" fill="#000000">+ operator+=()</text>
<text text-anchor="start" x="176.5" y="-354.5" font-family="Helvetica,sans-Serif" font-size="10.00" fill="#000000">+ operator&#45;=()</text>
<text text-anchor="start" x="176.5" y="-343.5" font-family="Helvetica,sans-Serif" font-size="10.00" fill="#000000">+ operator+()</text>
<text text-anchor="start" x="176.5" y="-332.5" font-family="Helvetica,sans-Serif" font-size="10.00" fill="#000000">+ operator&#45;()</text>
<text text-anchor="start" x="176.5" y="-321.5" font-family="Helvetica,sans-Serif" font-size="10.00" fill="#000000">+ operator+()</text>
<text text-anchor="start" x="176.5" y="-310.5" font-family="Helvetica,sans-Serif" font-size="10.00" fill="#000000">+ operator&#45;()</text>
<text text-anchor="start" x="176.5" y="-299.5" font-family="Helvetica,sans-Serif" font-size="10.00" fill="#000000">+ print()</text>
<text text-anchor="start" x="176.5" y="-288.5" font-family="Helvetica,sans-Serif" font-size="10.00" fill="#000000">+ asString()</text>
<text text-anchor="start" x="176.5" y="-277.5" font-family="Helvetica,sans-Serif" font-size="10.00" fill="#000000">+ ClassDefNV()</text>
<text text-anchor="start" x="176.5" y="-266.5" font-family="Helvetica,sans-Serif" font-size="10.00" fill="#000000">+ bc2ns()</text>
<text text-anchor="start" x="176.5" y="-255.5" font-family="Helvetica,sans-Serif" font-size="10.00" fill="#000000">+ ns2bc()</text>
</a>
</g>
</g>
<!-- Node2&#45;&gt;Node1 -->
<g id="edge1" class="edge">
<title>Node2&#45;&gt;Node1</title>
<path fill="none" stroke="#404040" d="M262.6194,-248.3256C267.9254,-237.9819 274.0152,-228.1209 281,-219 316.9811,-172.015 376.8705,-141.9554 426.3795,-123.8704"/>
<polygon fill="none" stroke="#404040" points="426.4278,-123.8534 430.7546,-118.0846 437.7438,-119.8598 433.417,-125.6286 426.4278,-123.8534"/>
<text text-anchor="middle" x="314.5" y="-222" font-family="Helvetica,sans-Serif" font-size="10.00" fill="#000000"> +mIntRecord</text>
</g>
<!-- Node3 -->
<g id="node3" class="node">
<title>Node3</title>
<polygon fill="none" stroke="#bfbfbf" points="0,-793.5 0,-850.5 50,-850.5 50,-793.5 0,-793.5"/>
<text text-anchor="middle" x="25" y="-838.5" font-family="Helvetica,sans-Serif" font-size="10.00" fill="#000000">double</text>
<polyline fill="none" stroke="#bfbfbf" points="0,-831.5 50,-831.5 "/>
<text text-anchor="middle" x="25" y="-819.5" font-family="Helvetica,sans-Serif" font-size="10.00" fill="#000000"> </text>
<polyline fill="none" stroke="#bfbfbf" points="0,-812.5 50,-812.5 "/>
<text text-anchor="middle" x="25" y="-800.5" font-family="Helvetica,sans-Serif" font-size="10.00" fill="#000000"> </text>
</g>
<!-- Node3&#45;&gt;Node2 -->
<g id="edge2" class="edge">
<title>Node3&#45;&gt;Node2</title>
<path fill="none" stroke="#404040" d="M30.573,-793.3121C36.6892,-765.2565 47.9631,-721.798 65,-687 90.6969,-634.5141 128.2095,-581.1633 160.8743,-539.2271"/>
<polygon fill="none" stroke="#404040" points="160.9945,-539.0742 161.5585,-531.8852 168.4115,-529.6408 167.8474,-536.8299 160.9945,-539.0742"/>
<text text-anchor="middle" x="103" y="-695.5" font-family="Helvetica,sans-Serif" font-size="10.00" fill="#000000"> +DummyTime</text>
</g>
<!-- Node4 -->
<g id="node4" class="node">
<title>Node4</title>
<g id="a_node4"><a xlink:href="../../d2/d5f/classunsigned_01int.html" target="_top" xlink:title="{unsigned int\n||}">
<polygon fill="none" stroke="#000000" points="78.5,-793.5 78.5,-850.5 155.5,-850.5 155.5,-793.5 78.5,-793.5"/>
<text text-anchor="middle" x="117" y="-838.5" font-family="Helvetica,sans-Serif" font-size="10.00" fill="#000000">unsigned int</text>
<polyline fill="none" stroke="#000000" points="78.5,-831.5 155.5,-831.5 "/>
<text text-anchor="middle" x="117" y="-819.5" font-family="Helvetica,sans-Serif" font-size="10.00" fill="#000000"> </text>
<polyline fill="none" stroke="#000000" points="78.5,-812.5 155.5,-812.5 "/>
<text text-anchor="middle" x="117" y="-800.5" font-family="Helvetica,sans-Serif" font-size="10.00" fill="#000000"> </text>
</a>
</g>
</g>
<!-- Node4&#45;&gt;Node2 -->
<g id="edge3" class="edge">
<title>Node4&#45;&gt;Node2</title>
<path fill="none" stroke="#404040" d="M123.4886,-793.3712C129.8806,-765.9168 140.2279,-723.3848 151,-687 155.3145,-672.4268 159.9716,-657.3981 164.7875,-642.3351"/>
<polygon fill="none" stroke="#404040" points="164.8185,-642.2386 162.8511,-635.3011 168.4983,-630.8167 170.4657,-637.7542 164.8185,-642.2386"/>
<text text-anchor="middle" x="188.5" y="-695.5" font-family="Helvetica,sans-Serif" font-size="10.00" fill="#000000"> +DummyOrbit</text>
</g>
<!-- Node5 -->
<g id="node5" class="node">
<title>Node5</title>
<polygon fill="none" stroke="#bfbfbf" points="331.5,-793.5 331.5,-850.5 392.5,-850.5 392.5,-793.5 331.5,-793.5"/>
<text text-anchor="middle" x="362" y="-838.5" font-family="Helvetica,sans-Serif" font-size="10.00" fill="#000000">unsigned</text>
<polyline fill="none" stroke="#bfbfbf" points="331.5,-831.5 392.5,-831.5 "/>
<text text-anchor="middle" x="362" y="-819.5" font-family="Helvetica,sans-Serif" font-size="10.00" fill="#000000"> </text>
<polyline fill="none" stroke="#bfbfbf" points="331.5,-812.5 392.5,-812.5 "/>
<text text-anchor="middle" x="362" y="-800.5" font-family="Helvetica,sans-Serif" font-size="10.00" fill="#000000"> </text>
</g>
<!-- Node5&#45;&gt;Node1 -->
<g id="edge14" class="edge">
<title>Node5&#45;&gt;Node1</title>
<path fill="none" stroke="#404040" d="M359.7566,-793.4216C352.1882,-691.7485 330.2705,-348.3074 371,-248 383.6152,-216.9317 406.0999,-188.5545 429.358,-165.1701"/>
<polygon fill="none" stroke="#404040" points="429.3594,-165.1688 430.8576,-158.115 437.945,-156.7849 436.4468,-163.8387 429.3594,-165.1688"/>
<text text-anchor="middle" x="411" y="-456" font-family="Helvetica,sans-Serif" font-size="10.00" fill="#000000"> +mEventStatus</text>
</g>
<!-- Node5&#45;&gt;Node2 -->
<g id="edge4" class="edge">
<title>Node5&#45;&gt;Node2</title>
<path fill="none" stroke="#404040" d="M350.2049,-793.3309C340.9303,-770.565 327.8146,-737.871 317,-709 309.2549,-688.3233 301.3272,-666.6141 293.5565,-644.9828"/>
<polygon fill="none" stroke="#404040" points="293.5559,-644.981 287.7668,-640.6814 289.509,-633.6839 295.2981,-637.9835 293.5559,-644.981"/>
<text text-anchor="middle" x="332.5" y="-701" font-family="Helvetica,sans-Serif" font-size="10.00" fill="#000000"> +bc</text>
<text text-anchor="middle" x="332.5" y="-690" font-family="Helvetica,sans-Serif" font-size="10.00" fill="#000000">+orbit</text>
</g>
<!-- Node8 -->
<g id="node8" class="node">
<title>Node8</title>
<g id="a_node8"><a xlink:href="../../db/df8/structo2_1_1ft0_1_1Triggers.html" target="_top" xlink:title="{o2::ft0::Triggers\n||+ Triggers()\l+ Triggers()\l+ getOrA()\l+ getOrC()\l+ getVertex()\l+ getCen()\l+ getSCen()\l+ setTriggers()\l+ cleanTriggers()\l+ ClassDefNV()\l}">
<polygon fill="none" stroke="#000000" points="460,-380.5 460,-536.5 560,-536.5 560,-380.5 460,-380.5"/>
<text text-anchor="middle" x="510" y="-524.5" font-family="Helvetica,sans-Serif" font-size="10.00" fill="#000000">o2::ft0::Triggers</text>
<polyline fill="none" stroke="#000000" points="460,-517.5 560,-517.5 "/>
<text text-anchor="middle" x="510" y="-505.5" font-family="Helvetica,sans-Serif" font-size="10.00" fill="#000000"> </text>
<polyline fill="none" stroke="#000000" points="460,-498.5 560,-498.5 "/>
<text text-anchor="start" x="468" y="-486.5" font-family="Helvetica,sans-Serif" font-size="10.00" fill="#000000">+ Triggers()</text>
<text text-anchor="start" x="468" y="-475.5" font-family="Helvetica,sans-Serif" font-size="10.00" fill="#000000">+ Triggers()</text>
<text text-anchor="start" x="468" y="-464.5" font-family="Helvetica,sans-Serif" font-size="10.00" fill="#000000">+ getOrA()</text>
<text text-anchor="start" x="468" y="-453.5" font-family="Helvetica,sans-Serif" font-size="10.00" fill="#000000">+ getOrC()</text>
<text text-anchor="start" x="468" y="-442.5" font-family="Helvetica,sans-Serif" font-size="10.00" fill="#000000">+ getVertex()</text>
<text text-anchor="start" x="468" y="-431.5" font-family="Helvetica,sans-Serif" font-size="10.00" fill="#000000">+ getCen()</text>
<text text-anchor="start" x="468" y="-420.5" font-family="Helvetica,sans-Serif" font-size="10.00" fill="#000000">+ getSCen()</text>
<text text-anchor="start" x="468" y="-409.5" font-family="Helvetica,sans-Serif" font-size="10.00" fill="#000000">+ setTriggers()</text>
<text text-anchor="start" x="468" y="-398.5" font-family="Helvetica,sans-Serif" font-size="10.00" fill="#000000">+ cleanTriggers()</text>
<text text-anchor="start" x="468" y="-387.5" font-family="Helvetica,sans-Serif" font-size="10.00" fill="#000000">+ ClassDefNV()</text>
</a>
</g>
</g>
<!-- Node5&#45;&gt;Node8 -->
<g id="edge11" class="edge">
<title>Node5&#45;&gt;Node8</title>
<path fill="none" stroke="#404040" d="M367.4426,-793.2803C374.2635,-763.7892 388.4297,-717.9491 415,-687 425.3779,-674.9118 436.1072,-681.4884 446,-669 473.2491,-634.6016 488.9304,-588.6824 497.9385,-548.5109"/>
<polygon fill="none" stroke="#404040" points="497.9904,-548.2648 495.3168,-541.5677 500.4705,-536.5239 503.1441,-543.2211 497.9904,-548.2648"/>
<text text-anchor="middle" x="454.5" y="-695.5" font-family="Helvetica,sans-Serif" font-size="10.00" fill="#000000"> +triggersignals</text>
</g>
<!-- Node6 -->
<g id="node6" class="node">
<title>Node6</title>
<polygon fill="none" stroke="#bfbfbf" points="173.5,-793.5 173.5,-850.5 310.5,-850.5 310.5,-793.5 173.5,-793.5"/>
<text text-anchor="middle" x="242" y="-838.5" font-family="Helvetica,sans-Serif" font-size="10.00" fill="#000000">static constexpr uint16_t</text>
<polyline fill="none" stroke="#bfbfbf" points="173.5,-831.5 310.5,-831.5 "/>
<text text-anchor="middle" x="242" y="-819.5" font-family="Helvetica,sans-Serif" font-size="10.00" fill="#000000"> </text>
<polyline fill="none" stroke="#bfbfbf" points="173.5,-812.5 310.5,-812.5 "/>
<text text-anchor="middle" x="242" y="-800.5" font-family="Helvetica,sans-Serif" font-size="10.00" fill="#000000"> </text>
</g>
<!-- Node6&#45;&gt;Node2 -->
<g id="edge5" class="edge">
<title>Node6&#45;&gt;Node2</title>
<path fill="none" stroke="#404040" d="M238.1326,-793.2694C235.2612,-770.4696 231.5804,-737.76 230,-709 229.4925,-699.7638 229.0624,-690.3332 228.7003,-680.8042"/>
<polygon fill="none" stroke="#404040" points="228.6962,-680.6815 224.4892,-674.8247 228.2775,-668.6888 232.4844,-674.5456 228.6962,-680.6815"/>
<text text-anchor="middle" x="262" y="-695.5" font-family="Helvetica,sans-Serif" font-size="10.00" fill="#000000"> +DummyBC</text>
</g>
<!-- Node7 -->
<g id="node7" class="node">
<title>Node7</title>
<polygon fill="none" stroke="#bfbfbf" points="578.5,-430 578.5,-487 607.5,-487 607.5,-430 578.5,-430"/>
<text text-anchor="middle" x="593" y="-475" font-family="Helvetica,sans-Serif" font-size="10.00" fill="#000000">int</text>
<polyline fill="none" stroke="#bfbfbf" points="578.5,-468 607.5,-468 "/>
<text text-anchor="middle" x="593" y="-456" font-family="Helvetica,sans-Serif" font-size="10.00" fill="#000000"> </text>
<polyline fill="none" stroke="#bfbfbf" points="578.5,-449 607.5,-449 "/>
<text text-anchor="middle" x="593" y="-437" font-family="Helvetica,sans-Serif" font-size="10.00" fill="#000000"> </text>
</g>
<!-- Node7&#45;&gt;Node1 -->
<g id="edge6" class="edge">
<title>Node7&#45;&gt;Node1</title>
<path fill="none" stroke="#404040" d="M593.8579,-429.8261C594.4535,-384.2174 592.4902,-292.7623 571,-219 570.3326,-216.7091 569.6199,-214.4104 568.8667,-212.1084"/>
<polygon fill="none" stroke="#404040" points="568.7933,-211.9011 563.0191,-207.5816 564.7855,-200.5901 570.5597,-204.9096 568.7933,-211.9011"/>
<text text-anchor="middle" x="602" y="-222" font-family="Helvetica,sans-Serif" font-size="10.00" fill="#000000"> +mEventID</text>
</g>
<!-- Node8&#45;&gt;Node1 -->
<g id="edge7" class="edge">
<title>Node8&#45;&gt;Node1</title>
<path fill="none" stroke="#404040" d="M510,-380.3778C510,-331.3166 510,-267.2437 510,-212.7851"/>
<polygon fill="none" stroke="#404040" points="510.0001,-212.6046 506,-206.6046 510,-200.6046 514,-206.6045 510.0001,-212.6046"/>
<text text-anchor="middle" x="540" y="-222" font-family="Helvetica,sans-Serif" font-size="10.00" fill="#000000"> +mTriggers</text>
</g>
<!-- Node9 -->
<g id="node9" class="node">
<title>Node9</title>
<polygon fill="none" stroke="#bfbfbf" points="606,-793.5 606,-850.5 650,-850.5 650,-793.5 606,-793.5"/>
<text text-anchor="middle" x="628" y="-838.5" font-family="Helvetica,sans-Serif" font-size="10.00" fill="#000000">int8_t</text>
<polyline fill="none" stroke="#bfbfbf" points="606,-831.5 650,-831.5 "/>
<text text-anchor="middle" x="628" y="-819.5" font-family="Helvetica,sans-Serif" font-size="10.00" fill="#000000"> </text>
<polyline fill="none" stroke="#bfbfbf" points="606,-812.5 650,-812.5 "/>
<text text-anchor="middle" x="628" y="-800.5" font-family="Helvetica,sans-Serif" font-size="10.00" fill="#000000"> </text>
</g>
<!-- Node9&#45;&gt;Node8 -->
<g id="edge8" class="edge">
<title>Node9&#45;&gt;Node8</title>
<path fill="none" stroke="#404040" d="M625.111,-793.4103C621.1207,-764.6454 611.8782,-719.9461 591,-687 584.42,-676.6166 576.6327,-679.3498 570,-669 546.8659,-632.9013 532.4689,-587.7334 523.6014,-548.5027"/>
<polygon fill="none" stroke="#404040" points="523.5504,-548.2658 518.3766,-543.2427 521.0233,-536.5349 526.1972,-541.558 523.5504,-548.2658"/>
<text text-anchor="middle" x="625.5" y="-701" font-family="Helvetica,sans-Serif" font-size="10.00" fill="#000000"> +nChanA</text>
<text text-anchor="middle" x="625.5" y="-690" font-family="Helvetica,sans-Serif" font-size="10.00" fill="#000000">+nChanC</text>
</g>
<!-- Node10 -->
<g id="node10" class="node">
<title>Node10</title>
<polygon fill="none" stroke="#bfbfbf" points="470,-793.5 470,-850.5 520,-850.5 520,-793.5 470,-793.5"/>
<text text-anchor="middle" x="495" y="-838.5" font-family="Helvetica,sans-Serif" font-size="10.00" fill="#000000">int32_t</text>
<polyline fill="none" stroke="#bfbfbf" points="470,-831.5 520,-831.5 "/>
<text text-anchor="middle" x="495" y="-819.5" font-family="Helvetica,sans-Serif" font-size="10.00" fill="#000000"> </text>
<polyline fill="none" stroke="#bfbfbf" points="470,-812.5 520,-812.5 "/>
<text text-anchor="middle" x="495" y="-800.5" font-family="Helvetica,sans-Serif" font-size="10.00" fill="#000000"> </text>
</g>
<!-- Node10&#45;&gt;Node8 -->
<g id="edge9" class="edge">
<title>Node10&#45;&gt;Node8</title>
<path fill="none" stroke="#404040" d="M495.3865,-793.2871C495.8141,-765.9524 496.6302,-723.6632 498,-687 499.7008,-641.4755 502.2859,-590.8838 504.6217,-548.9003"/>
<polygon fill="none" stroke="#404040" points="504.6321,-548.7134 500.9749,-542.4985 505.3051,-536.7323 508.9623,-542.9472 504.6321,-548.7134"/>
<text text-anchor="middle" x="519.5" y="-701" font-family="Helvetica,sans-Serif" font-size="10.00" fill="#000000"> +amplA</text>
<text text-anchor="middle" x="519.5" y="-690" font-family="Helvetica,sans-Serif" font-size="10.00" fill="#000000">+amplC</text>
</g>
<!-- Node11 -->
<g id="node11" class="node">
<title>Node11</title>
<polygon fill="none" stroke="#bfbfbf" points="538,-793.5 538,-850.5 588,-850.5 588,-793.5 538,-793.5"/>
<text text-anchor="middle" x="563" y="-838.5" font-family="Helvetica,sans-Serif" font-size="10.00" fill="#000000">int16_t</text>
<polyline fill="none" stroke="#bfbfbf" points="538,-831.5 588,-831.5 "/>
<text text-anchor="middle" x="563" y="-819.5" font-family="Helvetica,sans-Serif" font-size="10.00" fill="#000000"> </text>
<polyline fill="none" stroke="#bfbfbf" points="538,-812.5 588,-812.5 "/>
<text text-anchor="middle" x="563" y="-800.5" font-family="Helvetica,sans-Serif" font-size="10.00" fill="#000000"> </text>
</g>
<!-- Node11&#45;&gt;Node8 -->
<g id="edge10" class="edge">
<title>Node11&#45;&gt;Node8</title>
<path fill="none" stroke="#404040" d="M558.8412,-793.4768C551.2511,-741.4202 534.8584,-628.9911 523.1591,-548.7515"/>
<polygon fill="none" stroke="#404040" points="523.1277,-548.5357 518.3038,-543.1756 521.3963,-536.6612 526.2201,-542.0213 523.1277,-548.5357"/>
<text text-anchor="middle" x="566.5" y="-701" font-family="Helvetica,sans-Serif" font-size="10.00" fill="#000000"> +timeA</text>
<text text-anchor="middle" x="566.5" y="-690" font-family="Helvetica,sans-Serif" font-size="10.00" fill="#000000">+timeC</text>
</g>
<!-- Node12 -->
<g id="node12" class="node">
<title>Node12</title>
<g id="a_node12"><a xlink:href="../../d7/dc7/classo2_1_1dataformats_1_1RangeReference.html" target="_top" xlink:title="{o2::dataformats::RangeReference\l\&lt; int, int \&gt;\n||+ RangeReference()\l+ RangeReference()\l+ RangeReference()\l+ ~RangeReference()\l+ set()\l+ clear()\l+ getFirstEntry()\l+ getEntries()\l+ setFirstEntry()\l+ setEntries()\l+ changeEntriesBy()\l+ operator==()\l}">
<polygon fill="none" stroke="#000000" points="647,-364 647,-553 827,-553 827,-364 647,-364"/>
<text text-anchor="start" x="655" y="-541" font-family="Helvetica,sans-Serif" font-size="10.00" fill="#000000">o2::dataformats::RangeReference</text>
<text text-anchor="middle" x="737" y="-530" font-family="Helvetica,sans-Serif" font-size="10.00" fill="#000000">&lt; int, int &gt;</text>
<polyline fill="none" stroke="#000000" points="647,-523 827,-523 "/>
<text text-anchor="middle" x="737" y="-511" font-family="Helvetica,sans-Serif" font-size="10.00" fill="#000000"> </text>
<polyline fill="none" stroke="#000000" points="647,-504 827,-504 "/>
<text text-anchor="start" x="655" y="-492" font-family="Helvetica,sans-Serif" font-size="10.00" fill="#000000">+ RangeReference()</text>
<text text-anchor="start" x="655" y="-481" font-family="Helvetica,sans-Serif" font-size="10.00" fill="#000000">+ RangeReference()</text>
<text text-anchor="start" x="655" y="-470" font-family="Helvetica,sans-Serif" font-size="10.00" fill="#000000">+ RangeReference()</text>
<text text-anchor="start" x="655" y="-459" font-family="Helvetica,sans-Serif" font-size="10.00" fill="#000000">+ ~RangeReference()</text>
<text text-anchor="start" x="655" y="-448" font-family="Helvetica,sans-Serif" font-size="10.00" fill="#000000">+ set()</text>
<text text-anchor="start" x="655" y="-437" font-family="Helvetica,sans-Serif" font-size="10.00" fill="#000000">+ clear()</text>
<text text-anchor="start" x="655" y="-426" font-family="Helvetica,sans-Serif" font-size="10.00" fill="#000000">+ getFirstEntry()</text>
<text text-anchor="start" x="655" y="-415" font-family="Helvetica,sans-Serif" font-size="10.00" fill="#000000">+ getEntries()</text>
<text text-anchor="start" x="655" y="-404" font-family="Helvetica,sans-Serif" font-size="10.00" fill="#000000">+ setFirstEntry()</text>
<text text-anchor="start" x="655" y="-393" font-family="Helvetica,sans-Serif" font-size="10.00" fill="#000000">+ setEntries()</text>
<text text-anchor="start" x="655" y="-382" font-family="Helvetica,sans-Serif" font-size="10.00" fill="#000000">+ changeEntriesBy()</text>
<text text-anchor="start" x="655" y="-371" font-family="Helvetica,sans-Serif" font-size="10.00" fill="#000000">+ operator==()</text>
</a>
</g>
</g>
<!-- Node12&#45;&gt;Node1 -->
<g id="edge12" class="edge">
<title>Node12&#45;&gt;Node1</title>
<path fill="none" stroke="#404040" d="M707.415,-363.7311C690.5348,-317.7103 666.5916,-262.9969 636,-219 623.2713,-200.6935 607.3268,-183.0377 591.1026,-167.1951"/>
<polygon fill="none" stroke="#404040" points="590.7622,-166.8704 583.6597,-165.6234 582.0791,-158.5876 589.1816,-159.8346 590.7622,-166.8704"/>
<text text-anchor="middle" x="651.5" y="-222" font-family="Helvetica,sans-Serif" font-size="10.00" fill="#000000"> +ref</text>
</g>
<!-- Node13 -->
<g id="node13" class="node">
<title>Node13</title>
<g id="a_node13"><a xlink:href="../../d7/dc7/classo2_1_1dataformats_1_1RangeReference.html" target="_top" xlink:title="{o2::dataformats::RangeReference\l\&lt; FirstEntry, NElem \&gt;\n||+ RangeReference()\l+ RangeReference()\l+ RangeReference()\l+ ~RangeReference()\l+ set()\l+ clear()\l+ getFirstEntry()\l+ getEntries()\l+ setFirstEntry()\l+ setEntries()\l+ changeEntriesBy()\l+ operator==()\l}">
<polygon fill="none" stroke="#000000" points="668,-727.5 668,-916.5 848,-916.5 848,-727.5 668,-727.5"/>
<text text-anchor="start" x="676" y="-904.5" font-family="Helvetica,sans-Serif" font-size="10.00" fill="#000000">o2::dataformats::RangeReference</text>
<text text-anchor="middle" x="758" y="-893.5" font-family="Helvetica,sans-Serif" font-size="10.00" fill="#000000">&lt; FirstEntry, NElem &gt;</text>
<polyline fill="none" stroke="#000000" points="668,-886.5 848,-886.5 "/>
<text text-anchor="middle" x="758" y="-874.5" font-family="Helvetica,sans-Serif" font-size="10.00" fill="#000000"> </text>
<polyline fill="none" stroke="#000000" points="668,-867.5 848,-867.5 "/>
<text text-anchor="start" x="676" y="-855.5" font-family="Helvetica,sans-Serif" font-size="10.00" fill="#000000">+ RangeReference()</text>
<text text-anchor="start" x="676" y="-844.5" font-family="Helvetica,sans-Serif" font-size="10.00" fill="#000000">+ RangeReference()</text>
<text text-anchor="start" x="676" y="-833.5" font-family="Helvetica,sans-Serif" font-size="10.00" fill="#000000">+ RangeReference()</text>
<text text-anchor="start" x="676" y="-822.5" font-family="Helvetica,sans-Serif" font-size="10.00" fill="#000000">+ ~RangeReference()</text>
<text text-anchor="start" x="676" y="-811.5" font-family="Helvetica,sans-Serif" font-size="10.00" fill="#000000">+ set()</text>
<text text-anchor="start" x="676" y="-800.5" font-family="Helvetica,sans-Serif" font-size="10.00" fill="#000000">+ clear()</text>
<text text-anchor="start" x="676" y="-789.5" font-family="Helvetica,sans-Serif" font-size="10.00" fill="#000000">+ getFirstEntry()</text>
<text text-anchor="start" x="676" y="-778.5" font-family="Helvetica,sans-Serif" font-size="10.00" fill="#000000">+ getEntries()</text>
<text text-anchor="start" x="676" y="-767.5" font-family="Helvetica,sans-Serif" font-size="10.00" fill="#000000">+ setFirstEntry()</text>
<text text-anchor="start" x="676" y="-756.5" font-family="Helvetica,sans-Serif" font-size="10.00" fill="#000000">+ setEntries()</text>
<text text-anchor="start" x="676" y="-745.5" font-family="Helvetica,sans-Serif" font-size="10.00" fill="#000000">+ changeEntriesBy()</text>
<text text-anchor="start" x="676" y="-734.5" font-family="Helvetica,sans-Serif" font-size="10.00" fill="#000000">+ operator==()</text>
</a>
</g>
</g>
<!-- Node13&#45;&gt;Node12 -->
<g id="edge13" class="edge">
<title>Node13&#45;&gt;Node12</title>
<path fill="none" stroke="#ffa500" d="M751.9476,-717.2367C748.9581,-665.4889 745.3784,-603.5268 742.4718,-553.2138"/>
<polygon fill="#ffa500" stroke="#ffa500" points="748.4663,-717.6621 752.5373,-727.4436 755.4546,-717.2583 748.4663,-717.6621"/>
<text text-anchor="middle" x="780" y="-695.5" font-family="Helvetica,sans-Serif" font-size="10.00" fill="#000000"> &lt; int, int &gt;</text>
</g>
</g>
</svg>
