<?xml version="1.0" encoding="UTF-8" standalone="no"?>
<!DOCTYPE svg PUBLIC "-//W3C//DTD SVG 1.1//EN"
 "http://www.w3.org/Graphics/SVG/1.1/DTD/svg11.dtd">
<!-- Generated by graphviz version 2.40.1 (20161225.0304)
 -->
<!-- Title: o2::framework::DanglingContext Pages: 1 -->
<svg width="1437pt" height="529pt"
 viewBox="0.00 0.00 1437.00 529.00" xmlns="http://www.w3.org/2000/svg" xmlns:xlink="http://www.w3.org/1999/xlink">
<g id="graph0" class="graph" transform="scale(1 1) rotate(0) translate(4 525)">
<title>o2::framework::DanglingContext</title>
<!-- Node1 -->
<g id="node1" class="node">
<title>Node1</title>
<polygon fill="#bfbfbf" stroke="#000000" points="722,-.5 722,-68.5 898,-68.5 898,-.5 722,-.5"/>
<text text-anchor="middle" x="810" y="-56.5" font-family="Helvetica,sans-Serif" font-size="10.00" fill="#000000">o2::framework::DanglingContext</text>
<polyline fill="none" stroke="#000000" points="722,-49.5 898,-49.5 "/>
<text text-anchor="middle" x="810" y="-37.5" font-family="Helvetica,sans-Serif" font-size="10.00" fill="#000000"> </text>
<polyline fill="none" stroke="#000000" points="722,-30.5 898,-30.5 "/>
<text text-anchor="start" x="730" y="-18.5" font-family="Helvetica,sans-Serif" font-size="10.00" fill="#000000">+ DanglingContext()</text>
<text text-anchor="start" x="730" y="-7.5" font-family="Helvetica,sans-Serif" font-size="10.00" fill="#000000">+ services()</text>
</g>
<!-- Node2 -->
<g id="node2" class="node">
<title>Node2</title>
<g id="a_node2"><a xlink:href="../../dc/dba/structo2_1_1framework_1_1ServiceRegistry.html" target="_top" xlink:title="{o2::framework::ServiceRegistry\n||+ ServiceRegistry()\l+ ServiceRegistry()\l+ operator=()\l+ preProcessingCallbacks()\l+ postProcessingCallbacks()\l+ preDanglingCallbacks()\l+ postDanglingCallbacks()\l+ preEOSCallbacks()\l+ postEOSCallbacks()\l+ declareService()\l+ bindService()\l+ registerService()\l+ getPos()\l+ get()\l+ registerService()\l+ registerService()\l+ registerService()\l+ active()\l+ get()\l}">
<polygon fill="none" stroke="#000000" points="725,-116.5 725,-371.5 895,-371.5 895,-116.5 725,-116.5"/>
<text text-anchor="middle" x="810" y="-359.5" font-family="Helvetica,sans-Serif" font-size="10.00" fill="#000000">o2::framework::ServiceRegistry</text>
<polyline fill="none" stroke="#000000" points="725,-352.5 895,-352.5 "/>
<text text-anchor="middle" x="810" y="-340.5" font-family="Helvetica,sans-Serif" font-size="10.00" fill="#000000"> </text>
<polyline fill="none" stroke="#000000" points="725,-333.5 895,-333.5 "/>
<text text-anchor="start" x="733" y="-321.5" font-family="Helvetica,sans-Serif" font-size="10.00" fill="#000000">+ ServiceRegistry()</text>
<text text-anchor="start" x="733" y="-310.5" font-family="Helvetica,sans-Serif" font-size="10.00" fill="#000000">+ ServiceRegistry()</text>
<text text-anchor="start" x="733" y="-299.5" font-family="Helvetica,sans-Serif" font-size="10.00" fill="#000000">+ operator=()</text>
<text text-anchor="start" x="733" y="-288.5" font-family="Helvetica,sans-Serif" font-size="10.00" fill="#000000">+ preProcessingCallbacks()</text>
<text text-anchor="start" x="733" y="-277.5" font-family="Helvetica,sans-Serif" font-size="10.00" fill="#000000">+ postProcessingCallbacks()</text>
<text text-anchor="start" x="733" y="-266.5" font-family="Helvetica,sans-Serif" font-size="10.00" fill="#000000">+ preDanglingCallbacks()</text>
<text text-anchor="start" x="733" y="-255.5" font-family="Helvetica,sans-Serif" font-size="10.00" fill="#000000">+ postDanglingCallbacks()</text>
<text text-anchor="start" x="733" y="-244.5" font-family="Helvetica,sans-Serif" font-size="10.00" fill="#000000">+ preEOSCallbacks()</text>
<text text-anchor="start" x="733" y="-233.5" font-family="Helvetica,sans-Serif" font-size="10.00" fill="#000000">+ postEOSCallbacks()</text>
<text text-anchor="start" x="733" y="-222.5" font-family="Helvetica,sans-Serif" font-size="10.00" fill="#000000">+ declareService()</text>
<text text-anchor="start" x="733" y="-211.5" font-family="Helvetica,sans-Serif" font-size="10.00" fill="#000000">+ bindService()</text>
<text text-anchor="start" x="733" y="-200.5" font-family="Helvetica,sans-Serif" font-size="10.00" fill="#000000">+ registerService()</text>
<text text-anchor="start" x="733" y="-189.5" font-family="Helvetica,sans-Serif" font-size="10.00" fill="#000000">+ getPos()</text>
<text text-anchor="start" x="733" y="-178.5" font-family="Helvetica,sans-Serif" font-size="10.00" fill="#000000">+ get()</text>
<text text-anchor="start" x="733" y="-167.5" font-family="Helvetica,sans-Serif" font-size="10.00" fill="#000000">+ registerService()</text>
<text text-anchor="start" x="733" y="-156.5" font-family="Helvetica,sans-Serif" font-size="10.00" fill="#000000">+ registerService()</text>
<text text-anchor="start" x="733" y="-145.5" font-family="Helvetica,sans-Serif" font-size="10.00" fill="#000000">+ registerService()</text>
<text text-anchor="start" x="733" y="-134.5" font-family="Helvetica,sans-Serif" font-size="10.00" fill="#000000">+ active()</text>
<text text-anchor="start" x="733" y="-123.5" font-family="Helvetica,sans-Serif" font-size="10.00" fill="#000000">+ get()</text>
</a>
</g>
</g>
<!-- Node2&#45;&gt;Node1 -->
<g id="edge1" class="edge">
<title>Node2&#45;&gt;Node1</title>
<path fill="none" stroke="#404040" d="M810,-116.3983C810,-103.8711 810,-91.8023 810,-80.9567"/>
<polygon fill="none" stroke="#404040" points="810.0001,-80.8326 806,-74.8327 810,-68.8326 814,-74.8326 810.0001,-80.8326"/>
<text text-anchor="middle" x="841.5" y="-90" font-family="Helvetica,sans-Serif" font-size="10.00" fill="#000000"> +mServices</text>
</g>
<!-- Node3 -->
<g id="node3" class="node">
<title>Node3</title>
<polygon fill="none" stroke="#bfbfbf" points="0,-441.5 0,-520.5 162,-520.5 162,-441.5 0,-441.5"/>
<text text-anchor="start" x="8" y="-508.5" font-family="Helvetica,sans-Serif" font-size="10.00" fill="#000000">array&lt; o2::framework</text>
<text text-anchor="start" x="8" y="-497.5" font-family="Helvetica,sans-Serif" font-size="10.00" fill="#000000">::ServiceMeta, MAX_SERVICES</text>
<text text-anchor="middle" x="81" y="-486.5" font-family="Helvetica,sans-Serif" font-size="10.00" fill="#000000">+MAX_DISTANCE &gt;</text>
<polyline fill="none" stroke="#bfbfbf" points="0,-479.5 162,-479.5 "/>
<text text-anchor="middle" x="81" y="-467.5" font-family="Helvetica,sans-Serif" font-size="10.00" fill="#000000"> </text>
<polyline fill="none" stroke="#bfbfbf" points="0,-460.5 162,-460.5 "/>
<text text-anchor="middle" x="81" y="-448.5" font-family="Helvetica,sans-Serif" font-size="10.00" fill="#000000"> </text>
</g>
<!-- Node3&#45;&gt;Node2 -->
<g id="edge2" class="edge">
<title>Node3&#45;&gt;Node2</title>
<path fill="none" stroke="#404040" d="M153.7784,-441.3495C187.5469,-424.0121 228.6282,-404.3923 267,-390 419.1242,-332.942 602.9602,-288.3639 712.974,-264.1556"/>
<polygon fill="none" stroke="#404040" points="712.9777,-264.1549 717.9845,-258.9653 724.7006,-261.5909 719.6938,-266.7805 712.9777,-264.1549"/>
<text text-anchor="middle" x="310.5" y="-404" font-family="Helvetica,sans-Serif" font-size="10.00" fill="#000000"> +mServicesMeta</text>
</g>
<!-- Node4 -->
<g id="node4" class="node">
<title>Node4</title>
<polygon fill="none" stroke="#bfbfbf" points="180,-447 180,-515 368,-515 368,-447 180,-447"/>
<text text-anchor="start" x="188" y="-503" font-family="Helvetica,sans-Serif" font-size="10.00" fill="#000000">array&lt; unsigned int,</text>
<text text-anchor="middle" x="274" y="-492" font-family="Helvetica,sans-Serif" font-size="10.00" fill="#000000"> MAX_SERVICES+MAX_DISTANCE &gt;</text>
<polyline fill="none" stroke="#bfbfbf" points="180,-485 368,-485 "/>
<text text-anchor="middle" x="274" y="-473" font-family="Helvetica,sans-Serif" font-size="10.00" fill="#000000"> </text>
<polyline fill="none" stroke="#bfbfbf" points="180,-466 368,-466 "/>
<text text-anchor="middle" x="274" y="-454" font-family="Helvetica,sans-Serif" font-size="10.00" fill="#000000"> </text>
</g>
<!-- Node4&#45;&gt;Node2 -->
<g id="edge3" class="edge">
<title>Node4&#45;&gt;Node2</title>
<path fill="none" stroke="#404040" d="M320.3255,-446.8476C346.6242,-428.4533 380.6617,-406.2656 413,-390 511.5857,-340.4131 631.2247,-298.7344 713.2314,-272.7656"/>
<polygon fill="none" stroke="#404040" points="713.3515,-272.7279 717.875,-267.1121 724.7987,-269.1278 720.2751,-274.7436 713.3515,-272.7279"/>
<text text-anchor="middle" x="453.5" y="-404" font-family="Helvetica,sans-Serif" font-size="10.00" fill="#000000"> +mServicesKey</text>
</g>
<!-- Node5 -->
<g id="node5" class="node">
<title>Node5</title>
<polygon fill="none" stroke="#bfbfbf" points="386,-447 386,-515 534,-515 534,-447 386,-447"/>
<text text-anchor="start" x="394" y="-503" font-family="Helvetica,sans-Serif" font-size="10.00" fill="#000000">vector&lt; o2::framework</text>
<text text-anchor="middle" x="460" y="-492" font-family="Helvetica,sans-Serif" font-size="10.00" fill="#000000">::ServiceDanglingHandle &gt;</text>
<polyline fill="none" stroke="#bfbfbf" points="386,-485 534,-485 "/>
<text text-anchor="middle" x="460" y="-473" font-family="Helvetica,sans-Serif" font-size="10.00" fill="#000000"> </text>
<polyline fill="none" stroke="#bfbfbf" points="386,-466 534,-466 "/>
<text text-anchor="middle" x="460" y="-454" font-family="Helvetica,sans-Serif" font-size="10.00" fill="#000000"> </text>
</g>
<!-- Node5&#45;&gt;Node2 -->
<g id="edge4" class="edge">
<title>Node5&#45;&gt;Node2</title>
<path fill="none" stroke="#404040" d="M480.5346,-446.8931C492.8893,-428.4015 509.9029,-406.1053 529,-390 583.9631,-343.6476 656.1049,-306.5514 713.529,-281.3512"/>
<polygon fill="none" stroke="#404040" points="713.7949,-281.2361 717.713,-275.1823 724.8081,-276.4705 720.8901,-282.5244 713.7949,-281.2361"/>
<text text-anchor="middle" x="590.5" y="-409.5" font-family="Helvetica,sans-Serif" font-size="10.00" fill="#000000"> +mPreDanglingHandles</text>
<text text-anchor="middle" x="590.5" y="-398.5" font-family="Helvetica,sans-Serif" font-size="10.00" fill="#000000">+mPostDanglingHandles</text>
</g>
<!-- Node6 -->
<g id="node6" class="node">
<title>Node6</title>
<polygon fill="none" stroke="#bfbfbf" points="552.5,-447 552.5,-515 709.5,-515 709.5,-447 552.5,-447"/>
<text text-anchor="start" x="560.5" y="-503" font-family="Helvetica,sans-Serif" font-size="10.00" fill="#000000">vector&lt; o2::framework</text>
<text text-anchor="middle" x="631" y="-492" font-family="Helvetica,sans-Serif" font-size="10.00" fill="#000000">::ServiceProcessingHandle &gt;</text>
<polyline fill="none" stroke="#bfbfbf" points="552.5,-485 709.5,-485 "/>
<text text-anchor="middle" x="631" y="-473" font-family="Helvetica,sans-Serif" font-size="10.00" fill="#000000"> </text>
<polyline fill="none" stroke="#bfbfbf" points="552.5,-466 709.5,-466 "/>
<text text-anchor="middle" x="631" y="-454" font-family="Helvetica,sans-Serif" font-size="10.00" fill="#000000"> </text>
</g>
<!-- Node6&#45;&gt;Node2 -->
<g id="edge5" class="edge">
<title>Node6&#45;&gt;Node2</title>
<path fill="none" stroke="#404040" d="M644.1791,-446.8075C651.7125,-429.1404 662.039,-407.646 674,-390 686.4634,-371.6127 701.2162,-353.2764 716.3294,-336.1191"/>
<polygon fill="none" stroke="#404040" points="716.7449,-335.6552 717.7679,-328.517 724.7504,-326.7158 723.7275,-333.854 716.7449,-335.6552"/>
<text text-anchor="middle" x="740" y="-409.5" font-family="Helvetica,sans-Serif" font-size="10.00" fill="#000000"> +mPreProcessingHandles</text>
<text text-anchor="middle" x="740" y="-398.5" font-family="Helvetica,sans-Serif" font-size="10.00" fill="#000000">+mPostProcessingHandles</text>
</g>
<!-- Node7 -->
<g id="node7" class="node">
<title>Node7</title>
<polygon fill="none" stroke="#bfbfbf" points="728,-447 728,-515 892,-515 892,-447 728,-447"/>
<text text-anchor="start" x="736" y="-503" font-family="Helvetica,sans-Serif" font-size="10.00" fill="#000000">array&lt; void *, MAX</text>
<text text-anchor="middle" x="810" y="-492" font-family="Helvetica,sans-Serif" font-size="10.00" fill="#000000">_SERVICES+MAX_DISTANCE &gt;</text>
<polyline fill="none" stroke="#bfbfbf" points="728,-485 892,-485 "/>
<text text-anchor="middle" x="810" y="-473" font-family="Helvetica,sans-Serif" font-size="10.00" fill="#000000"> </text>
<polyline fill="none" stroke="#bfbfbf" points="728,-466 892,-466 "/>
<text text-anchor="middle" x="810" y="-454" font-family="Helvetica,sans-Serif" font-size="10.00" fill="#000000"> </text>
</g>
<!-- Node7&#45;&gt;Node2 -->
<g id="edge6" class="edge">
<title>Node7&#45;&gt;Node2</title>
<path fill="none" stroke="#404040" d="M810,-446.7913C810,-429.5439 810,-407.3571 810,-384.0181"/>
<polygon fill="none" stroke="#404040" points="810.0001,-383.7283 806,-377.7283 810,-371.7283 814,-377.7282 810.0001,-383.7283"/>
<text text-anchor="middle" x="855" y="-404" font-family="Helvetica,sans-Serif" font-size="10.00" fill="#000000"> +mServicesValue</text>
</g>
<!-- Node8 -->
<g id="node8" class="node">
<title>Node8</title>
<polygon fill="none" stroke="#bfbfbf" points="910,-447 910,-515 1040,-515 1040,-447 910,-447"/>
<text text-anchor="start" x="918" y="-503" font-family="Helvetica,sans-Serif" font-size="10.00" fill="#000000">vector&lt; o2::framework</text>
<text text-anchor="middle" x="975" y="-492" font-family="Helvetica,sans-Serif" font-size="10.00" fill="#000000">::ServiceSpec &gt;</text>
<polyline fill="none" stroke="#bfbfbf" points="910,-485 1040,-485 "/>
<text text-anchor="middle" x="975" y="-473" font-family="Helvetica,sans-Serif" font-size="10.00" fill="#000000"> </text>
<polyline fill="none" stroke="#bfbfbf" points="910,-466 1040,-466 "/>
<text text-anchor="middle" x="975" y="-454" font-family="Helvetica,sans-Serif" font-size="10.00" fill="#000000"> </text>
</g>
<!-- Node8&#45;&gt;Node2 -->
<g id="edge7" class="edge">
<title>Node8&#45;&gt;Node2</title>
<path fill="none" stroke="#404040" d="M951.1838,-446.7913C937.8495,-427.6383 920.2745,-402.3943 902.0695,-376.2452"/>
<polygon fill="none" stroke="#404040" points="901.9253,-376.0382 895.2143,-373.3995 895.0689,-366.1898 901.7799,-368.8285 901.9253,-376.0382"/>
<text text-anchor="middle" x="955" y="-404" font-family="Helvetica,sans-Serif" font-size="10.00" fill="#000000"> +mSpecs</text>
</g>
<!-- Node9 -->
<g id="node9" class="node">
<title>Node9</title>
<polygon fill="none" stroke="#bfbfbf" points="1058,-447 1058,-515 1188,-515 1188,-447 1058,-447"/>
<text text-anchor="start" x="1066" y="-503" font-family="Helvetica,sans-Serif" font-size="10.00" fill="#000000">vector&lt; o2::framework</text>
<text text-anchor="middle" x="1123" y="-492" font-family="Helvetica,sans-Serif" font-size="10.00" fill="#000000">::ServiceEOSHandle &gt;</text>
<polyline fill="none" stroke="#bfbfbf" points="1058,-485 1188,-485 "/>
<text text-anchor="middle" x="1123" y="-473" font-family="Helvetica,sans-Serif" font-size="10.00" fill="#000000"> </text>
<polyline fill="none" stroke="#bfbfbf" points="1058,-466 1188,-466 "/>
<text text-anchor="middle" x="1123" y="-454" font-family="Helvetica,sans-Serif" font-size="10.00" fill="#000000"> </text>
</g>
<!-- Node9&#45;&gt;Node2 -->
<g id="edge8" class="edge">
<title>Node9&#45;&gt;Node2</title>
<path fill="none" stroke="#404040" d="M1077.8214,-446.7913C1032.8509,-412.7402 962.4541,-359.4365 905.1187,-316.0228"/>
<polygon fill="none" stroke="#404040" points="904.8734,-315.8371 897.6753,-315.4041 895.3065,-308.5931 902.5046,-309.0261 904.8734,-315.8371"/>
<text text-anchor="middle" x="1088.5" y="-409.5" font-family="Helvetica,sans-Serif" font-size="10.00" fill="#000000"> +mPreEOSHandles</text>
<text text-anchor="middle" x="1088.5" y="-398.5" font-family="Helvetica,sans-Serif" font-size="10.00" fill="#000000">+mPostEOSHandles</text>
</g>
<!-- Node10 -->
<g id="node10" class="node">
<title>Node10</title>
<polygon fill="none" stroke="#bfbfbf" points="1206.5,-452.5 1206.5,-509.5 1235.5,-509.5 1235.5,-452.5 1206.5,-452.5"/>
<text text-anchor="middle" x="1221" y="-497.5" font-family="Helvetica,sans-Serif" font-size="10.00" fill="#000000">int</text>
<polyline fill="none" stroke="#bfbfbf" points="1206.5,-490.5 1235.5,-490.5 "/>
<text text-anchor="middle" x="1221" y="-478.5" font-family="Helvetica,sans-Serif" font-size="10.00" fill="#000000"> </text>
<polyline fill="none" stroke="#bfbfbf" points="1206.5,-471.5 1235.5,-471.5 "/>
<text text-anchor="middle" x="1221" y="-459.5" font-family="Helvetica,sans-Serif" font-size="10.00" fill="#000000"> </text>
</g>
<!-- Node10&#45;&gt;Node2 -->
<g id="edge9" class="edge">
<title>Node10&#45;&gt;Node2</title>
<path fill="none" stroke="#404040" d="M1206.2617,-454.0413C1203.3993,-449.5367 1200.2662,-445.0244 1197,-441 1175.9926,-415.1157 1169.8664,-408.2968 1142,-390 1068.1123,-341.4862 975.4278,-302.2768 906.7787,-276.7553"/>
<polygon fill="none" stroke="#404040" points="906.3762,-276.6072 899.3641,-278.2898 895.114,-272.4642 902.1261,-270.7817 906.3762,-276.6072"/>
<text text-anchor="middle" x="1238.5" y="-415" font-family="Helvetica,sans-Serif" font-size="10.00" fill="#000000"> +MAX_DISTANCE</text>
<text text-anchor="middle" x="1238.5" y="-404" font-family="Helvetica,sans-Serif" font-size="10.00" fill="#000000">+MAX_SERVICES</text>
<text text-anchor="middle" x="1238.5" y="-393" font-family="Helvetica,sans-Serif" font-size="10.00" fill="#000000">+MAX_SERVICES_MASK</text>
</g>
<!-- Node11 -->
<g id="node11" class="node">
<title>Node11</title>
<polygon fill="none" stroke="#bfbfbf" points="1289,-441.5 1289,-520.5 1429,-520.5 1429,-441.5 1289,-441.5"/>
<text text-anchor="start" x="1297" y="-508.5" font-family="Helvetica,sans-Serif" font-size="10.00" fill="#000000">array&lt; std::atomic</text>
<text text-anchor="start" x="1297" y="-497.5" font-family="Helvetica,sans-Serif" font-size="10.00" fill="#000000">&lt; bool &gt;, MAX_SERVICES</text>
<text text-anchor="middle" x="1359" y="-486.5" font-family="Helvetica,sans-Serif" font-size="10.00" fill="#000000">+MAX_DISTANCE &gt;</text>
<polyline fill="none" stroke="#bfbfbf" points="1289,-479.5 1429,-479.5 "/>
<text text-anchor="middle" x="1359" y="-467.5" font-family="Helvetica,sans-Serif" font-size="10.00" fill="#000000"> </text>
<polyline fill="none" stroke="#bfbfbf" points="1289,-460.5 1429,-460.5 "/>
<text text-anchor="middle" x="1359" y="-448.5" font-family="Helvetica,sans-Serif" font-size="10.00" fill="#000000"> </text>
</g>
<!-- Node11&#45;&gt;Node2 -->
<g id="edge10" class="edge">
<title>Node11&#45;&gt;Node2</title>
<path fill="none" stroke="#404040" d="M1341.3044,-441.3252C1331.4751,-423.3438 1317.6357,-403.2015 1300,-390 1182.6525,-302.1578 1012.8066,-266.8916 907.0205,-252.9234"/>
<polygon fill="none" stroke="#404040" points="906.9854,-252.919 900.5278,-256.1282 895.0817,-251.4016 901.5394,-248.1924 906.9854,-252.919"/>
<text text-anchor="middle" x="1379" y="-404" font-family="Helvetica,sans-Serif" font-size="10.00" fill="#000000"> +mServicesBooked</text>
</g>
</g>
</svg>
