<?xml version="1.0" encoding="UTF-8" standalone="no"?>
<!DOCTYPE svg PUBLIC "-//W3C//DTD SVG 1.1//EN"
 "http://www.w3.org/Graphics/SVG/1.1/DTD/svg11.dtd">
<!-- Generated by graphviz version 2.40.1 (20161225.0304)
 -->
<!-- Title: o2::soa::CombinationsBlockIndexPolicyBase&lt; T, Ts &gt; Pages: 1 -->
<svg width="813pt" height="596pt"
 viewBox="0.00 0.00 812.93 596.00" xmlns="http://www.w3.org/2000/svg" xmlns:xlink="http://www.w3.org/1999/xlink">
<g id="graph0" class="graph" transform="scale(1 1) rotate(0) translate(4 592)">
<title>o2::soa::CombinationsBlockIndexPolicyBase&lt; T, Ts &gt;</title>
<!-- Node6 -->
<g id="node1" class="node">
<title>Node6</title>
<polygon fill="#bfbfbf" stroke="#000000" points="445.9339,-.5 445.9339,-68.5 655.9339,-68.5 655.9339,-.5 445.9339,-.5"/>
<text text-anchor="start" x="453.9339" y="-56.5" font-family="Helvetica,sans-Serif" font-size="10.00" fill="#000000">o2::soa::CombinationsBlock</text>
<text text-anchor="middle" x="550.9339" y="-45.5" font-family="Helvetica,sans-Serif" font-size="10.00" fill="#000000">IndexPolicyBase&lt; T, Ts &gt;</text>
<polyline fill="none" stroke="#000000" points="445.9339,-38.5 655.9339,-38.5 "/>
<text text-anchor="middle" x="550.9339" y="-26.5" font-family="Helvetica,sans-Serif" font-size="10.00" fill="#000000"> </text>
<polyline fill="none" stroke="#000000" points="445.9339,-19.5 655.9339,-19.5 "/>
<text text-anchor="start" x="453.9339" y="-7.5" font-family="Helvetica,sans-Serif" font-size="10.00" fill="#000000">+ CombinationsBlockIndexPolicyBase()</text>
</g>
<!-- Node7 -->
<g id="node2" class="node">
<title>Node7</title>
<g id="a_node2"><a xlink:href="../../de/dac/structo2_1_1soa_1_1CombinationsIndexPolicyBase.html" target="_top" xlink:title="{o2::soa::CombinationsIndex\lPolicyBase\&lt; Ts... \&gt;\n||+ CombinationsIndexPolicyBase()\l+ moveToEnd()\l+ addOne()\l}">
<polygon fill="none" stroke="#000000" points="199.4339,-116.5 199.4339,-206.5 382.4339,-206.5 382.4339,-116.5 199.4339,-116.5"/>
<text text-anchor="start" x="207.4339" y="-194.5" font-family="Helvetica,sans-Serif" font-size="10.00" fill="#000000">o2::soa::CombinationsIndex</text>
<text text-anchor="middle" x="290.9339" y="-183.5" font-family="Helvetica,sans-Serif" font-size="10.00" fill="#000000">PolicyBase&lt; Ts... &gt;</text>
<polyline fill="none" stroke="#000000" points="199.4339,-176.5 382.4339,-176.5 "/>
<text text-anchor="middle" x="290.9339" y="-164.5" font-family="Helvetica,sans-Serif" font-size="10.00" fill="#000000"> </text>
<polyline fill="none" stroke="#000000" points="199.4339,-157.5 382.4339,-157.5 "/>
<text text-anchor="start" x="207.4339" y="-145.5" font-family="Helvetica,sans-Serif" font-size="10.00" fill="#000000">+ CombinationsIndexPolicyBase()</text>
<text text-anchor="start" x="207.4339" y="-134.5" font-family="Helvetica,sans-Serif" font-size="10.00" fill="#000000">+ moveToEnd()</text>
<text text-anchor="start" x="207.4339" y="-123.5" font-family="Helvetica,sans-Serif" font-size="10.00" fill="#000000">+ addOne()</text>
</a>
</g>
</g>
<!-- Node7&#45;&gt;Node6 -->
<g id="edge1" class="edge">
<title>Node7&#45;&gt;Node6</title>
<path fill="none" stroke="#191970" d="M391.7716,-112.2447C421.571,-97.6888 453.5257,-82.0801 480.926,-68.6962"/>
<polygon fill="none" stroke="#191970" points="390.0494,-109.1906 382.6002,-116.7246 393.1217,-115.4804 390.0494,-109.1906"/>
</g>
<!-- Node8 -->
<g id="node3" class="node">
<title>Node8</title>
<polygon fill="none" stroke="#bfbfbf" points="140.4339,-403.5 140.4339,-471.5 255.4339,-471.5 255.4339,-403.5 140.4339,-403.5"/>
<text text-anchor="start" x="148.4339" y="-459.5" font-family="Helvetica,sans-Serif" font-size="10.00" fill="#000000">tuple&lt; typename Ts</text>
<text text-anchor="middle" x="197.9339" y="-448.5" font-family="Helvetica,sans-Serif" font-size="10.00" fill="#000000">::iterator... &gt;</text>
<polyline fill="none" stroke="#bfbfbf" points="140.4339,-441.5 255.4339,-441.5 "/>
<text text-anchor="middle" x="197.9339" y="-429.5" font-family="Helvetica,sans-Serif" font-size="10.00" fill="#000000"> </text>
<polyline fill="none" stroke="#bfbfbf" points="140.4339,-422.5 255.4339,-422.5 "/>
<text text-anchor="middle" x="197.9339" y="-410.5" font-family="Helvetica,sans-Serif" font-size="10.00" fill="#000000"> </text>
</g>
<!-- Node8&#45;&gt;Node7 -->
<g id="edge2" class="edge">
<title>Node8&#45;&gt;Node7</title>
<path fill="none" stroke="#404040" d="M233.3424,-403.336C245.0152,-389.8076 256.6172,-373.3459 262.9339,-356 279.0852,-311.648 285.957,-258.4243 288.8619,-218.8734"/>
<polygon fill="none" stroke="#404040" points="288.8682,-218.7764 285.2713,-212.5264 289.6572,-206.8024 293.254,-213.0524 288.8682,-218.7764"/>
<text text-anchor="middle" x="312.9339" y="-308" font-family="Helvetica,sans-Serif" font-size="10.00" fill="#000000"> +mCurrent</text>
</g>
<!-- Node12 -->
<g id="node7" class="node">
<title>Node12</title>
<g id="a_node7"><a xlink:href="../../de/dac/structo2_1_1soa_1_1CombinationsIndexPolicyBase.html" target="_top" xlink:title="{o2::soa::CombinationsIndex\lPolicyBase\&lt; Ts \&gt;\n||+ CombinationsIndexPolicyBase()\l+ moveToEnd()\l+ addOne()\l}">
<polygon fill="none" stroke="#000000" points="71.4339,-265.5 71.4339,-355.5 254.4339,-355.5 254.4339,-265.5 71.4339,-265.5"/>
<text text-anchor="start" x="79.4339" y="-343.5" font-family="Helvetica,sans-Serif" font-size="10.00" fill="#000000">o2::soa::CombinationsIndex</text>
<text text-anchor="middle" x="162.9339" y="-332.5" font-family="Helvetica,sans-Serif" font-size="10.00" fill="#000000">PolicyBase&lt; Ts &gt;</text>
<polyline fill="none" stroke="#000000" points="71.4339,-325.5 254.4339,-325.5 "/>
<text text-anchor="middle" x="162.9339" y="-313.5" font-family="Helvetica,sans-Serif" font-size="10.00" fill="#000000"> </text>
<polyline fill="none" stroke="#000000" points="71.4339,-306.5 254.4339,-306.5 "/>
<text text-anchor="start" x="79.4339" y="-294.5" font-family="Helvetica,sans-Serif" font-size="10.00" fill="#000000">+ CombinationsIndexPolicyBase()</text>
<text text-anchor="start" x="79.4339" y="-283.5" font-family="Helvetica,sans-Serif" font-size="10.00" fill="#000000">+ moveToEnd()</text>
<text text-anchor="start" x="79.4339" y="-272.5" font-family="Helvetica,sans-Serif" font-size="10.00" fill="#000000">+ addOne()</text>
</a>
</g>
</g>
<!-- Node8&#45;&gt;Node12 -->
<g id="edge7" class="edge">
<title>Node8&#45;&gt;Node12</title>
<path fill="none" stroke="#404040" d="M188.5546,-403.4663C185.4856,-392.3304 181.9885,-379.6409 178.5856,-367.2934"/>
<polygon fill="none" stroke="#404040" points="178.5574,-367.1906 173.107,-362.469 175.3691,-355.6219 180.8195,-360.3434 178.5574,-367.1906"/>
<text text-anchor="middle" x="211.9339" y="-377" font-family="Helvetica,sans-Serif" font-size="10.00" fill="#000000"> +mCurrent</text>
</g>
<!-- Node9 -->
<g id="node4" class="node">
<title>Node9</title>
<polygon fill="none" stroke="#bfbfbf" points="52.9339,-409 52.9339,-466 90.9339,-466 90.9339,-409 52.9339,-409"/>
<text text-anchor="middle" x="71.9339" y="-454" font-family="Helvetica,sans-Serif" font-size="10.00" fill="#000000">bool</text>
<polyline fill="none" stroke="#bfbfbf" points="52.9339,-447 90.9339,-447 "/>
<text text-anchor="middle" x="71.9339" y="-435" font-family="Helvetica,sans-Serif" font-size="10.00" fill="#000000"> </text>
<polyline fill="none" stroke="#bfbfbf" points="52.9339,-428 90.9339,-428 "/>
<text text-anchor="middle" x="71.9339" y="-416" font-family="Helvetica,sans-Serif" font-size="10.00" fill="#000000"> </text>
</g>
<!-- Node9&#45;&gt;Node7 -->
<g id="edge3" class="edge">
<title>Node9&#45;&gt;Node7</title>
<path fill="none" stroke="#404040" d="M52.7135,-418.0296C38.9451,-402.6309 21.545,-379.8215 13.9339,-356 1.6248,-317.4742 -9.1228,-298.2286 13.9339,-265 34.6835,-235.0962 117.4302,-206.5658 187.1283,-187.0619"/>
<polygon fill="none" stroke="#404040" points="187.5103,-186.9567 192.2322,-181.5065 199.0792,-183.769 194.3573,-189.2191 187.5103,-186.9567"/>
<text text-anchor="middle" x="37.9339" y="-308" font-family="Helvetica,sans-Serif" font-size="10.00" fill="#000000"> +mIsEnd</text>
</g>
<!-- Node9&#45;&gt;Node12 -->
<g id="edge8" class="edge">
<title>Node9&#45;&gt;Node12</title>
<path fill="none" stroke="#404040" d="M91.0105,-410.8766C100.4161,-397.7502 112.1269,-381.4064 123.3494,-365.7443"/>
<polygon fill="none" stroke="#404040" points="123.6351,-365.3455 123.8783,-358.1385 130.6245,-355.5911 130.3813,-362.7981 123.6351,-365.3455"/>
<text text-anchor="middle" x="141.9339" y="-377" font-family="Helvetica,sans-Serif" font-size="10.00" fill="#000000"> +mIsEnd</text>
</g>
<!-- Node10 -->
<g id="node5" class="node">
<title>Node10</title>
<g id="a_node5"><a xlink:href="../../dd/da8/structo2_1_1soa_1_1NTupleType.html" target="_top" xlink:title="{o2::soa::NTupleType\l\&lt; uint64_t, sizeof...(Ts)\&gt;\n||}">
<polygon fill="none" stroke="#000000" points="328.4339,-403.5 328.4339,-471.5 465.4339,-471.5 465.4339,-403.5 328.4339,-403.5"/>
<text text-anchor="start" x="336.4339" y="-459.5" font-family="Helvetica,sans-Serif" font-size="10.00" fill="#000000">o2::soa::NTupleType</text>
<text text-anchor="middle" x="396.9339" y="-448.5" font-family="Helvetica,sans-Serif" font-size="10.00" fill="#000000">&lt; uint64_t, sizeof...(Ts)&gt;</text>
<polyline fill="none" stroke="#000000" points="328.4339,-441.5 465.4339,-441.5 "/>
<text text-anchor="middle" x="396.9339" y="-429.5" font-family="Helvetica,sans-Serif" font-size="10.00" fill="#000000"> </text>
<polyline fill="none" stroke="#000000" points="328.4339,-422.5 465.4339,-422.5 "/>
<text text-anchor="middle" x="396.9339" y="-410.5" font-family="Helvetica,sans-Serif" font-size="10.00" fill="#000000"> </text>
</a>
</g>
</g>
<!-- Node10&#45;&gt;Node6 -->
<g id="edge12" class="edge">
<title>Node10&#45;&gt;Node6</title>
<path fill="none" stroke="#404040" d="M423.7668,-403.3246C433.7581,-389.289 444.4705,-372.483 451.9339,-356 497.4225,-255.5383 478.5389,-220.1018 514.9339,-116 519.1071,-104.0632 524.2861,-91.4391 529.403,-79.7839"/>
<polygon fill="none" stroke="#404040" points="529.5475,-79.4617 528.354,-72.35 534.4596,-68.5131 535.6531,-75.6247 529.5475,-79.4617"/>
<text text-anchor="middle" x="534.9339" y="-239" font-family="Helvetica,sans-Serif" font-size="10.00" fill="#000000"> +mCurrentIndices</text>
<text text-anchor="middle" x="534.9339" y="-228" font-family="Helvetica,sans-Serif" font-size="10.00" fill="#000000">+mBeginIndices</text>
</g>
<!-- Node10&#45;&gt;Node7 -->
<g id="edge4" class="edge">
<title>Node10&#45;&gt;Node7</title>
<path fill="none" stroke="#404040" d="M389.0157,-403.4223C380.3172,-368.1205 365.0136,-311.6873 345.9339,-265 339.4609,-249.1608 331.3061,-232.5599 323.2727,-217.4067"/>
<polygon fill="none" stroke="#404040" points="323.1716,-217.2195 316.8012,-213.8403 317.4703,-206.6603 323.8407,-210.0394 323.1716,-217.2195"/>
<text text-anchor="middle" x="412.4339" y="-308" font-family="Helvetica,sans-Serif" font-size="10.00" fill="#000000"> +mMaxOffset</text>
</g>
<!-- Node10&#45;&gt;Node12 -->
<g id="edge9" class="edge">
<title>Node10&#45;&gt;Node12</title>
<path fill="none" stroke="#404040" d="M334.2262,-403.4663C310.4293,-390.5509 282.7821,-375.5458 256.7333,-361.4082"/>
<polygon fill="none" stroke="#404040" points="256.6186,-361.346 249.4372,-361.9995 246.0718,-355.6219 253.2533,-354.9683 256.6186,-361.346"/>
<text text-anchor="middle" x="330.4339" y="-377" font-family="Helvetica,sans-Serif" font-size="10.00" fill="#000000"> +mMaxOffset</text>
</g>
<!-- Node11 -->
<g id="node6" class="node">
<title>Node11</title>
<g id="a_node6"><a xlink:href="../../dd/da8/structo2_1_1soa_1_1NTupleType.html" target="_top" xlink:title="{o2::soa::NTupleType\l\&lt; T, N, REST \&gt;\n||}">
<polygon fill="none" stroke="#000000" points="340.4339,-519.5 340.4339,-587.5 453.4339,-587.5 453.4339,-519.5 340.4339,-519.5"/>
<text text-anchor="start" x="348.4339" y="-575.5" font-family="Helvetica,sans-Serif" font-size="10.00" fill="#000000">o2::soa::NTupleType</text>
<text text-anchor="middle" x="396.9339" y="-564.5" font-family="Helvetica,sans-Serif" font-size="10.00" fill="#000000">&lt; T, N, REST &gt;</text>
<polyline fill="none" stroke="#000000" points="340.4339,-557.5 453.4339,-557.5 "/>
<text text-anchor="middle" x="396.9339" y="-545.5" font-family="Helvetica,sans-Serif" font-size="10.00" fill="#000000"> </text>
<polyline fill="none" stroke="#000000" points="340.4339,-538.5 453.4339,-538.5 "/>
<text text-anchor="middle" x="396.9339" y="-526.5" font-family="Helvetica,sans-Serif" font-size="10.00" fill="#000000"> </text>
</a>
</g>
</g>
<!-- Node11&#45;&gt;Node10 -->
<g id="edge5" class="edge">
<title>Node11&#45;&gt;Node10</title>
<path fill="none" stroke="#ffa500" d="M396.9339,-509.1851C396.9339,-496.8048 396.9339,-483.5422 396.9339,-471.833"/>
<polygon fill="#ffa500" stroke="#ffa500" points="393.434,-509.3235 396.9339,-519.3236 400.434,-509.3236 393.434,-509.3235"/>
<text text-anchor="middle" x="458.9339" y="-493" font-family="Helvetica,sans-Serif" font-size="10.00" fill="#000000"> &lt; uint64_t, sizeof...(Ts)&gt;</text>
</g>
<!-- Node12&#45;&gt;Node7 -->
<g id="edge6" class="edge">
<title>Node12&#45;&gt;Node7</title>
<path fill="none" stroke="#ffa500" d="M204.8354,-257.3995C213.6497,-246.5651 222.9897,-235.3254 231.9339,-225 237.1559,-218.9716 242.7446,-212.7176 248.3242,-206.5898"/>
<polygon fill="#ffa500" stroke="#ffa500" points="202.0942,-255.2231 198.5234,-265.198 207.5353,-259.6271 202.0942,-255.2231"/>
<text text-anchor="middle" x="254.4339" y="-233.5" font-family="Helvetica,sans-Serif" font-size="10.00" fill="#000000"> &lt; Ts... &gt;</text>
</g>
<!-- Node13 -->
<g id="node8" class="node">
<title>Node13</title>
<polygon fill="none" stroke="#bfbfbf" points="524.4339,-122 524.4339,-201 687.4339,-201 687.4339,-122 524.4339,-122"/>
<text text-anchor="start" x="532.4339" y="-189" font-family="Helvetica,sans-Serif" font-size="10.00" fill="#000000">array&lt; std::vector</text>
<text text-anchor="start" x="532.4339" y="-178" font-family="Helvetica,sans-Serif" font-size="10.00" fill="#000000">&lt; std::pair&lt; uint64</text>
<text text-anchor="middle" x="605.9339" y="-167" font-family="Helvetica,sans-Serif" font-size="10.00" fill="#000000">_t, uint64_t &gt; &gt;, sizeof...(Ts)&gt;</text>
<polyline fill="none" stroke="#bfbfbf" points="524.4339,-160 687.4339,-160 "/>
<text text-anchor="middle" x="605.9339" y="-148" font-family="Helvetica,sans-Serif" font-size="10.00" fill="#000000"> </text>
<polyline fill="none" stroke="#bfbfbf" points="524.4339,-141 687.4339,-141 "/>
<text text-anchor="middle" x="605.9339" y="-129" font-family="Helvetica,sans-Serif" font-size="10.00" fill="#000000"> </text>
</g>
<!-- Node13&#45;&gt;Node6 -->
<g id="edge10" class="edge">
<title>Node13&#45;&gt;Node6</title>
<path fill="none" stroke="#404040" d="M588.6825,-121.6649C582.9233,-108.3663 576.4643,-93.4519 570.5394,-79.7709"/>
<polygon fill="none" stroke="#404040" points="570.4842,-79.6433 564.4292,-75.727 565.7153,-68.6315 571.7703,-72.5478 570.4842,-79.6433"/>
<text text-anchor="middle" x="627.4339" y="-90" font-family="Helvetica,sans-Serif" font-size="10.00" fill="#000000"> +mGroupedIndices</text>
</g>
<!-- Node14 -->
<g id="node9" class="node">
<title>Node14</title>
<polygon fill="none" stroke="#bfbfbf" points="705.4339,-133 705.4339,-190 766.4339,-190 766.4339,-133 705.4339,-133"/>
<text text-anchor="middle" x="735.9339" y="-178" font-family="Helvetica,sans-Serif" font-size="10.00" fill="#000000">unsigned</text>
<polyline fill="none" stroke="#bfbfbf" points="705.4339,-171 766.4339,-171 "/>
<text text-anchor="middle" x="735.9339" y="-159" font-family="Helvetica,sans-Serif" font-size="10.00" fill="#000000"> </text>
<polyline fill="none" stroke="#bfbfbf" points="705.4339,-152 766.4339,-152 "/>
<text text-anchor="middle" x="735.9339" y="-140" font-family="Helvetica,sans-Serif" font-size="10.00" fill="#000000"> </text>
</g>
<!-- Node14&#45;&gt;Node6 -->
<g id="edge11" class="edge">
<title>Node14&#45;&gt;Node6</title>
<path fill="none" stroke="#404040" d="M719.537,-132.6366C709.684,-117.394 695.957,-99.3425 679.9339,-87 674.2277,-82.6045 668.1027,-78.5211 661.7338,-74.7367"/>
<polygon fill="none" stroke="#404040" points="661.2961,-74.4926 654.1076,-75.0636 650.8158,-68.6477 658.0043,-68.0767 661.2961,-74.4926"/>
<text text-anchor="middle" x="747.9339" y="-90" font-family="Helvetica,sans-Serif" font-size="10.00" fill="#000000"> +mSlidingWindowSize</text>
</g>
</g>
</svg>
