<?xml version="1.0" encoding="UTF-8" standalone="no"?>
<!DOCTYPE svg PUBLIC "-//W3C//DTD SVG 1.1//EN"
 "http://www.w3.org/Graphics/SVG/1.1/DTD/svg11.dtd">
<!-- Generated by graphviz version 2.40.1 (20161225.0304)
 -->
<!-- Title: nlohmann::detail::dtoa_impl::boundaries Pages: 1 -->
<svg width="145pt" height="386pt"
 viewBox="0.00 0.00 145.00 386.00" xmlns="http://www.w3.org/2000/svg" xmlns:xlink="http://www.w3.org/1999/xlink">
<g id="graph0" class="graph" transform="scale(1 1) rotate(0) translate(4 382)">
<title>nlohmann::detail::dtoa_impl::boundaries</title>
<!-- Node1 -->
<g id="node1" class="node">
<title>Node1</title>
<polygon fill="#bfbfbf" stroke="#000000" points="0,-.5 0,-68.5 127,-68.5 127,-.5 0,-.5"/>
<text text-anchor="start" x="8" y="-56.5" font-family="Helvetica,sans-Serif" font-size="10.00" fill="#000000">nlohmann::detail::dtoa</text>
<text text-anchor="middle" x="63.5" y="-45.5" font-family="Helvetica,sans-Serif" font-size="10.00" fill="#000000">_impl::boundaries</text>
<polyline fill="none" stroke="#000000" points="0,-38.5 127,-38.5 "/>
<text text-anchor="middle" x="63.5" y="-26.5" font-family="Helvetica,sans-Serif" font-size="10.00" fill="#000000"> </text>
<polyline fill="none" stroke="#000000" points="0,-19.5 127,-19.5 "/>
<text text-anchor="middle" x="63.5" y="-7.5" font-family="Helvetica,sans-Serif" font-size="10.00" fill="#000000"> </text>
</g>
<!-- Node2 -->
<g id="node2" class="node">
<title>Node2</title>
<g id="a_node2"><a xlink:href="../../d4/d54/structnlohmann_1_1detail_1_1dtoa__impl_1_1diyfp.html" target="_top" xlink:title="{nlohmann::detail::dtoa\l_impl::diyfp\n||+ diyfp()\l+ diyfp()\l+ sub()\l+ mul()\l+ normalize()\l+ normalize_to()\l}">
<polygon fill="none" stroke="#000000" points="0,-138.5 0,-261.5 127,-261.5 127,-138.5 0,-138.5"/>
<text text-anchor="start" x="8" y="-249.5" font-family="Helvetica,sans-Serif" font-size="10.00" fill="#000000">nlohmann::detail::dtoa</text>
<text text-anchor="middle" x="63.5" y="-238.5" font-family="Helvetica,sans-Serif" font-size="10.00" fill="#000000">_impl::diyfp</text>
<polyline fill="none" stroke="#000000" points="0,-231.5 127,-231.5 "/>
<text text-anchor="middle" x="63.5" y="-219.5" font-family="Helvetica,sans-Serif" font-size="10.00" fill="#000000"> </text>
<polyline fill="none" stroke="#000000" points="0,-212.5 127,-212.5 "/>
<text text-anchor="start" x="8" y="-200.5" font-family="Helvetica,sans-Serif" font-size="10.00" fill="#000000">+ diyfp()</text>
<text text-anchor="start" x="8" y="-189.5" font-family="Helvetica,sans-Serif" font-size="10.00" fill="#000000">+ diyfp()</text>
<text text-anchor="start" x="8" y="-178.5" font-family="Helvetica,sans-Serif" font-size="10.00" fill="#000000">+ sub()</text>
<text text-anchor="start" x="8" y="-167.5" font-family="Helvetica,sans-Serif" font-size="10.00" fill="#000000">+ mul()</text>
<text text-anchor="start" x="8" y="-156.5" font-family="Helvetica,sans-Serif" font-size="10.00" fill="#000000">+ normalize()</text>
<text text-anchor="start" x="8" y="-145.5" font-family="Helvetica,sans-Serif" font-size="10.00" fill="#000000">+ normalize_to()</text>
</a>
</g>
</g>
<!-- Node2&#45;&gt;Node1 -->
<g id="edge1" class="edge">
<title>Node2&#45;&gt;Node1</title>
<path fill="none" stroke="#404040" d="M63.5,-138.3739C63.5,-119.3501 63.5,-98.73 63.5,-80.914"/>
<polygon fill="none" stroke="#404040" points="63.5001,-80.7917 59.5,-74.7917 63.5,-68.7917 67.5,-74.7917 63.5001,-80.7917"/>
<text text-anchor="middle" x="84.5" y="-112" font-family="Helvetica,sans-Serif" font-size="10.00" fill="#000000"> +minus</text>
<text text-anchor="middle" x="84.5" y="-101" font-family="Helvetica,sans-Serif" font-size="10.00" fill="#000000">+plus</text>
<text text-anchor="middle" x="84.5" y="-90" font-family="Helvetica,sans-Serif" font-size="10.00" fill="#000000">+w</text>
</g>
<!-- Node3 -->
<g id="node3" class="node">
<title>Node3</title>
<polygon fill="none" stroke="#bfbfbf" points="7,-320.5 7,-377.5 36,-377.5 36,-320.5 7,-320.5"/>
<text text-anchor="middle" x="21.5" y="-365.5" font-family="Helvetica,sans-Serif" font-size="10.00" fill="#000000">int</text>
<polyline fill="none" stroke="#bfbfbf" points="7,-358.5 36,-358.5 "/>
<text text-anchor="middle" x="21.5" y="-346.5" font-family="Helvetica,sans-Serif" font-size="10.00" fill="#000000"> </text>
<polyline fill="none" stroke="#bfbfbf" points="7,-339.5 36,-339.5 "/>
<text text-anchor="middle" x="21.5" y="-327.5" font-family="Helvetica,sans-Serif" font-size="10.00" fill="#000000"> </text>
</g>
<!-- Node3&#45;&gt;Node2 -->
<g id="edge2" class="edge">
<title>Node3&#45;&gt;Node2</title>
<path fill="none" stroke="#404040" d="M19.0157,-320.4242C18.6611,-307.8551 19.2578,-293.0205 22.5,-280 23.0657,-277.7284 23.7058,-275.4483 24.4097,-273.1685"/>
<polygon fill="none" stroke="#404040" points="24.4229,-273.131 22.6447,-266.1426 28.4117,-261.8133 30.1899,-268.8018 24.4229,-273.131"/>
<text text-anchor="middle" x="53.5" y="-294" font-family="Helvetica,sans-Serif" font-size="10.00" fill="#000000"> +kPrecision</text>
<text text-anchor="middle" x="53.5" y="-283" font-family="Helvetica,sans-Serif" font-size="10.00" fill="#000000">+e</text>
</g>
<!-- Node4 -->
<g id="node4" class="node">
<title>Node4</title>
<polygon fill="none" stroke="#bfbfbf" points="76,-320.5 76,-377.5 137,-377.5 137,-320.5 76,-320.5"/>
<text text-anchor="middle" x="106.5" y="-365.5" font-family="Helvetica,sans-Serif" font-size="10.00" fill="#000000">unsigned</text>
<polyline fill="none" stroke="#bfbfbf" points="76,-358.5 137,-358.5 "/>
<text text-anchor="middle" x="106.5" y="-346.5" font-family="Helvetica,sans-Serif" font-size="10.00" fill="#000000"> </text>
<polyline fill="none" stroke="#bfbfbf" points="76,-339.5 137,-339.5 "/>
<text text-anchor="middle" x="106.5" y="-327.5" font-family="Helvetica,sans-Serif" font-size="10.00" fill="#000000"> </text>
</g>
<!-- Node4&#45;&gt;Node2 -->
<g id="edge3" class="edge">
<title>Node4&#45;&gt;Node2</title>
<path fill="none" stroke="#404040" d="M98.2092,-320.2713C94.3029,-306.7355 89.4467,-289.9084 84.6164,-273.1709"/>
<polygon fill="none" stroke="#404040" points="84.6159,-273.1687 79.109,-268.513 81.2885,-261.6392 86.7953,-266.2948 84.6159,-273.1687"/>
<text text-anchor="middle" x="100.5" y="-288.5" font-family="Helvetica,sans-Serif" font-size="10.00" fill="#000000"> +f</text>
</g>
</g>
</svg>
