<?xml version="1.0" encoding="UTF-8" standalone="no"?>
<!DOCTYPE svg PUBLIC "-//W3C//DTD SVG 1.1//EN"
 "http://www.w3.org/Graphics/SVG/1.1/DTD/svg11.dtd">
<!-- Generated by graphviz version 2.40.1 (20161225.0304)
 -->
<!-- Title: o2::tof::CTF Pages: 1 -->
<!--zoomable 1487 -->
<svg id="main" version="1.1" xmlns="http://www.w3.org/2000/svg" xmlns:xlink="http://www.w3.org/1999/xlink" xml:space="preserve" onload="init(evt)">
<style type="text/css"><![CDATA[
.edge:hover path { stroke: red; }
.edge:hover polygon { stroke: red; fill: red; }
]]></style>
<script type="text/javascript"><![CDATA[
var edges = document.getElementsByTagName('g');
if (edges && edges.length) {
  for (var i=0;i<edges.length;i++) {
    if (edges[i].id.substr(0,4)=='edge') {
      edges[i].setAttribute('class','edge');
    }
  }
}
]]></script>
        <defs>
                <circle id="rim" cx="0" cy="0" r="7"/>
                <circle id="rim2" cx="0" cy="0" r="3.5"/>
                <g id="zoomPlus">
                        <use xlink:href="#rim" fill="#404040">
                                <set attributeName="fill" to="#808080" begin="zoomplus.mouseover" end="zoomplus.mouseout"/>
                        </use>
                        <path d="M-4,0h8M0,-4v8" fill="none" stroke="white" stroke-width="1.5" pointer-events="none"/>
                </g>
                <g id="zoomMin">
                        <use xlink:href="#rim" fill="#404040">
                                <set attributeName="fill" to="#808080" begin="zoomminus.mouseover" end="zoomminus.mouseout"/>
                        </use>
                        <path d="M-4,0h8" fill="none" stroke="white" stroke-width="1.5" pointer-events="none"/>
                </g>
                <g id="dirArrow">
                        <path fill="none" stroke="white" stroke-width="1.5" d="M0,-3.0v7 M-2.5,-0.5L0,-3.0L2.5,-0.5"/>
                </g>
               <g id="resetDef">
                       <use xlink:href="#rim2" fill="#404040">
                               <set attributeName="fill" to="#808080" begin="reset.mouseover" end="reset.mouseout"/>
                       </use>
               </g>
        </defs>

<script type="text/javascript">
var viewWidth = 910;
var viewHeight = 1487;
var sectionId = 'dynsection-1';
</script>
<script xlink:href="../../svgpan.js"/>
<svg id="graph" class="graph">
<g id="viewport">
<title>o2::tof::CTF</title>
<!-- Node3 -->
<g id="node1" class="node">
<title>Node3</title>
<polygon fill="#bfbfbf" stroke="#000000" points="367,-.5 367,-57.5 460,-57.5 460,-.5 367,-.5"/>
<text text-anchor="middle" x="413.5" y="-45.5" font-family="Helvetica,sans-Serif" font-size="10.00" fill="#000000">o2::tof::CTF</text>
<polyline fill="none" stroke="#000000" points="367,-38.5 460,-38.5 "/>
<text text-anchor="middle" x="413.5" y="-26.5" font-family="Helvetica,sans-Serif" font-size="10.00" fill="#000000"> </text>
<polyline fill="none" stroke="#000000" points="367,-19.5 460,-19.5 "/>
<text text-anchor="start" x="375" y="-7.5" font-family="Helvetica,sans-Serif" font-size="10.00" fill="#000000">+ ClassDefNV()</text>
</g>
<!-- Node4 -->
<g id="node2" class="node">
<title>Node4</title>
<g id="a_node2"><a xlink:href="../../dc/d08/classo2_1_1ctf_1_1EncodedBlocks.html" target="_top" xlink:title="{o2::ctf::EncodedBlocks\l\&lt; CTFHeader, 10, uint32_t \&gt;\n||+ setHeader()\l+ getHeader()\l+ getHeader()\l+ cloneHeader()\l+ getMetadata()\l+ getMetadata()\l+ getBlock()\l+ setANSHeader()\l+ getANSHeader()\l+ getANSHeader()\l+ empty()\l+ flat()\l+ clear()\l+ compactify()\l+ size()\l+ getFreeSize()\l+ copyToFlat()\l+ copyToFlat()\l+ appendToTree()\l+ readFromTree()\l+ encode()\l+ encode()\l+ decode()\l+ decode()\l+ print()\l+ getNBlocks()\l+ getMinAlignedSize()\l+ get()\l+ get()\l+ getImage()\l+ create()\l+ create()\l+ estimateBlockSize()\l+ expand()\l+ readFromTree()\l+ createDictionaryBlocks()\l# init()\l# estimateSize()\l# estimateSizeFromMetadata()\l# fillFlatCopy()\l# ClassDefNV()\l# relocate()\l# fillTreeBranch()\l# readTreeBranch()\l}">
<polygon fill="none" stroke="#000000" points="267,-105.5 267,-646.5 436,-646.5 436,-105.5 267,-105.5"/>
<text text-anchor="start" x="275" y="-634.5" font-family="Helvetica,sans-Serif" font-size="10.00" fill="#000000">o2::ctf::EncodedBlocks</text>
<text text-anchor="middle" x="351.5" y="-623.5" font-family="Helvetica,sans-Serif" font-size="10.00" fill="#000000">&lt; CTFHeader, 10, uint32_t &gt;</text>
<polyline fill="none" stroke="#000000" points="267,-616.5 436,-616.5 "/>
<text text-anchor="middle" x="351.5" y="-604.5" font-family="Helvetica,sans-Serif" font-size="10.00" fill="#000000"> </text>
<polyline fill="none" stroke="#000000" points="267,-597.5 436,-597.5 "/>
<text text-anchor="start" x="275" y="-585.5" font-family="Helvetica,sans-Serif" font-size="10.00" fill="#000000">+ setHeader()</text>
<text text-anchor="start" x="275" y="-574.5" font-family="Helvetica,sans-Serif" font-size="10.00" fill="#000000">+ getHeader()</text>
<text text-anchor="start" x="275" y="-563.5" font-family="Helvetica,sans-Serif" font-size="10.00" fill="#000000">+ getHeader()</text>
<text text-anchor="start" x="275" y="-552.5" font-family="Helvetica,sans-Serif" font-size="10.00" fill="#000000">+ cloneHeader()</text>
<text text-anchor="start" x="275" y="-541.5" font-family="Helvetica,sans-Serif" font-size="10.00" fill="#000000">+ getMetadata()</text>
<text text-anchor="start" x="275" y="-530.5" font-family="Helvetica,sans-Serif" font-size="10.00" fill="#000000">+ getMetadata()</text>
<text text-anchor="start" x="275" y="-519.5" font-family="Helvetica,sans-Serif" font-size="10.00" fill="#000000">+ getBlock()</text>
<text text-anchor="start" x="275" y="-508.5" font-family="Helvetica,sans-Serif" font-size="10.00" fill="#000000">+ setANSHeader()</text>
<text text-anchor="start" x="275" y="-497.5" font-family="Helvetica,sans-Serif" font-size="10.00" fill="#000000">+ getANSHeader()</text>
<text text-anchor="start" x="275" y="-486.5" font-family="Helvetica,sans-Serif" font-size="10.00" fill="#000000">+ getANSHeader()</text>
<text text-anchor="start" x="275" y="-475.5" font-family="Helvetica,sans-Serif" font-size="10.00" fill="#000000">+ empty()</text>
<text text-anchor="start" x="275" y="-464.5" font-family="Helvetica,sans-Serif" font-size="10.00" fill="#000000">+ flat()</text>
<text text-anchor="start" x="275" y="-453.5" font-family="Helvetica,sans-Serif" font-size="10.00" fill="#000000">+ clear()</text>
<text text-anchor="start" x="275" y="-442.5" font-family="Helvetica,sans-Serif" font-size="10.00" fill="#000000">+ compactify()</text>
<text text-anchor="start" x="275" y="-431.5" font-family="Helvetica,sans-Serif" font-size="10.00" fill="#000000">+ size()</text>
<text text-anchor="start" x="275" y="-420.5" font-family="Helvetica,sans-Serif" font-size="10.00" fill="#000000">+ getFreeSize()</text>
<text text-anchor="start" x="275" y="-409.5" font-family="Helvetica,sans-Serif" font-size="10.00" fill="#000000">+ copyToFlat()</text>
<text text-anchor="start" x="275" y="-398.5" font-family="Helvetica,sans-Serif" font-size="10.00" fill="#000000">+ copyToFlat()</text>
<text text-anchor="start" x="275" y="-387.5" font-family="Helvetica,sans-Serif" font-size="10.00" fill="#000000">+ appendToTree()</text>
<text text-anchor="start" x="275" y="-376.5" font-family="Helvetica,sans-Serif" font-size="10.00" fill="#000000">+ readFromTree()</text>
<text text-anchor="start" x="275" y="-365.5" font-family="Helvetica,sans-Serif" font-size="10.00" fill="#000000">+ encode()</text>
<text text-anchor="start" x="275" y="-354.5" font-family="Helvetica,sans-Serif" font-size="10.00" fill="#000000">+ encode()</text>
<text text-anchor="start" x="275" y="-343.5" font-family="Helvetica,sans-Serif" font-size="10.00" fill="#000000">+ decode()</text>
<text text-anchor="start" x="275" y="-332.5" font-family="Helvetica,sans-Serif" font-size="10.00" fill="#000000">+ decode()</text>
<text text-anchor="start" x="275" y="-321.5" font-family="Helvetica,sans-Serif" font-size="10.00" fill="#000000">+ print()</text>
<text text-anchor="start" x="275" y="-310.5" font-family="Helvetica,sans-Serif" font-size="10.00" fill="#000000">+ getNBlocks()</text>
<text text-anchor="start" x="275" y="-299.5" font-family="Helvetica,sans-Serif" font-size="10.00" fill="#000000">+ getMinAlignedSize()</text>
<text text-anchor="start" x="275" y="-288.5" font-family="Helvetica,sans-Serif" font-size="10.00" fill="#000000">+ get()</text>
<text text-anchor="start" x="275" y="-277.5" font-family="Helvetica,sans-Serif" font-size="10.00" fill="#000000">+ get()</text>
<text text-anchor="start" x="275" y="-266.5" font-family="Helvetica,sans-Serif" font-size="10.00" fill="#000000">+ getImage()</text>
<text text-anchor="start" x="275" y="-255.5" font-family="Helvetica,sans-Serif" font-size="10.00" fill="#000000">+ create()</text>
<text text-anchor="start" x="275" y="-244.5" font-family="Helvetica,sans-Serif" font-size="10.00" fill="#000000">+ create()</text>
<text text-anchor="start" x="275" y="-233.5" font-family="Helvetica,sans-Serif" font-size="10.00" fill="#000000">+ estimateBlockSize()</text>
<text text-anchor="start" x="275" y="-222.5" font-family="Helvetica,sans-Serif" font-size="10.00" fill="#000000">+ expand()</text>
<text text-anchor="start" x="275" y="-211.5" font-family="Helvetica,sans-Serif" font-size="10.00" fill="#000000">+ readFromTree()</text>
<text text-anchor="start" x="275" y="-200.5" font-family="Helvetica,sans-Serif" font-size="10.00" fill="#000000">+ createDictionaryBlocks()</text>
<text text-anchor="start" x="275" y="-189.5" font-family="Helvetica,sans-Serif" font-size="10.00" fill="#000000"># init()</text>
<text text-anchor="start" x="275" y="-178.5" font-family="Helvetica,sans-Serif" font-size="10.00" fill="#000000"># estimateSize()</text>
<text text-anchor="start" x="275" y="-167.5" font-family="Helvetica,sans-Serif" font-size="10.00" fill="#000000"># estimateSizeFromMetadata()</text>
<text text-anchor="start" x="275" y="-156.5" font-family="Helvetica,sans-Serif" font-size="10.00" fill="#000000"># fillFlatCopy()</text>
<text text-anchor="start" x="275" y="-145.5" font-family="Helvetica,sans-Serif" font-size="10.00" fill="#000000"># ClassDefNV()</text>
<text text-anchor="start" x="275" y="-134.5" font-family="Helvetica,sans-Serif" font-size="10.00" fill="#000000"># relocate()</text>
<text text-anchor="start" x="275" y="-123.5" font-family="Helvetica,sans-Serif" font-size="10.00" fill="#000000"># fillTreeBranch()</text>
<text text-anchor="start" x="275" y="-112.5" font-family="Helvetica,sans-Serif" font-size="10.00" fill="#000000"># readTreeBranch()</text>
</a>
</g>
</g>
<!-- Node4&#45;&gt;Node3 -->
<g id="edge1" class="edge">
<title>Node4&#45;&gt;Node3</title>
<path fill="none" stroke="#191970" d="M401.7139,-94.9644C404.2783,-80.6115 406.5532,-67.8798 408.4036,-57.5232"/>
<polygon fill="none" stroke="#191970" points="398.2074,-94.6909 399.8938,-105.1506 405.0982,-95.9222 398.2074,-94.6909"/>
</g>
<!-- Node5 -->
<g id="node3" class="node">
<title>Node5</title>
<g id="a_node3"><a xlink:href="../../da/d30/classstd_1_1array_3_01o2_1_1ctf_1_1Block_3_01uint32__t_01_4_00_01N_01_4.html" target="_top" xlink:title="{array\&lt; o2::ctf::Block\l\&lt; uint32_t \&gt;, N \&gt;\n||}">
<polygon fill="none" stroke="#000000" points="0,-931 0,-999 117,-999 117,-931 0,-931"/>
<text text-anchor="start" x="8" y="-987" font-family="Helvetica,sans-Serif" font-size="10.00" fill="#000000">array&lt; o2::ctf::Block</text>
<text text-anchor="middle" x="58.5" y="-976" font-family="Helvetica,sans-Serif" font-size="10.00" fill="#000000">&lt; uint32_t &gt;, N &gt;</text>
<polyline fill="none" stroke="#000000" points="0,-969 117,-969 "/>
<text text-anchor="middle" x="58.5" y="-957" font-family="Helvetica,sans-Serif" font-size="10.00" fill="#000000"> </text>
<polyline fill="none" stroke="#000000" points="0,-950 117,-950 "/>
<text text-anchor="middle" x="58.5" y="-938" font-family="Helvetica,sans-Serif" font-size="10.00" fill="#000000"> </text>
</a>
</g>
</g>
<!-- Node5&#45;&gt;Node4 -->
<g id="edge2" class="edge">
<title>Node5&#45;&gt;Node4</title>
<path fill="none" stroke="#404040" d="M54.6977,-930.8532C49.7491,-873.2756 45.905,-754.4149 85.5,-665 123.4492,-579.3016 197.3244,-502.3197 257.61,-449.3974"/>
<polygon fill="none" stroke="#404040" points="257.7169,-449.3046 259.6268,-442.351 266.78,-441.4394 264.8702,-448.3931 257.7169,-449.3046"/>
<text text-anchor="middle" x="112.5" y="-668" font-family="Helvetica,sans-Serif" font-size="10.00" fill="#000000"> #mBlocks</text>
</g>
<!-- Node6 -->
<g id="node4" class="node">
<title>Node6</title>
<polygon fill="none" stroke="#bfbfbf" points="501,-1294.5 501,-1351.5 662,-1351.5 662,-1294.5 501,-1294.5"/>
<text text-anchor="middle" x="581.5" y="-1339.5" font-family="Helvetica,sans-Serif" font-size="10.00" fill="#000000">array&lt; o2::ctf::Metadata, N &gt;</text>
<polyline fill="none" stroke="#bfbfbf" points="501,-1332.5 662,-1332.5 "/>
<text text-anchor="middle" x="581.5" y="-1320.5" font-family="Helvetica,sans-Serif" font-size="10.00" fill="#000000"> </text>
<polyline fill="none" stroke="#bfbfbf" points="501,-1313.5 662,-1313.5 "/>
<text text-anchor="middle" x="581.5" y="-1301.5" font-family="Helvetica,sans-Serif" font-size="10.00" fill="#000000"> </text>
</g>
<!-- Node6&#45;&gt;Node4 -->
<g id="edge3" class="edge">
<title>Node6&#45;&gt;Node4</title>
<path fill="none" stroke="#404040" d="M595.3001,-1294.4366C599.0574,-1285.2552 602.6097,-1274.8951 604.5,-1265 605.4174,-1260.198 604.7521,-1258.8824 604.5,-1254 590.9264,-991.1723 722.3273,-858.0891 543.5,-665 515.4862,-634.7521 483.8093,-669.7514 445.8029,-646.4391"/>
<polygon fill="none" stroke="#404040" points="445.6456,-646.3226 438.4433,-645.9661 436.0022,-639.1807 443.2045,-639.5372 445.6456,-646.3226"/>
<text text-anchor="middle" x="671" y="-962.5" font-family="Helvetica,sans-Serif" font-size="10.00" fill="#000000"> #mMetadata</text>
</g>
<!-- Node15 -->
<g id="node13" class="node">
<title>Node15</title>
<g id="a_node13"><a xlink:href="../../dc/d08/classo2_1_1ctf_1_1EncodedBlocks.html" target="_top" xlink:title="&lt;&lt;======================== Auxiliary classes =======================&lt;&lt; ">
<polygon fill="none" stroke="#000000" points="357,-694.5 357,-1235.5 526,-1235.5 526,-694.5 357,-694.5"/>
<text text-anchor="start" x="365" y="-1223.5" font-family="Helvetica,sans-Serif" font-size="10.00" fill="#000000">o2::ctf::EncodedBlocks</text>
<text text-anchor="middle" x="441.5" y="-1212.5" font-family="Helvetica,sans-Serif" font-size="10.00" fill="#000000">&lt; H, N, W &gt;</text>
<polyline fill="none" stroke="#000000" points="357,-1205.5 526,-1205.5 "/>
<text text-anchor="middle" x="441.5" y="-1193.5" font-family="Helvetica,sans-Serif" font-size="10.00" fill="#000000"> </text>
<polyline fill="none" stroke="#000000" points="357,-1186.5 526,-1186.5 "/>
<text text-anchor="start" x="365" y="-1174.5" font-family="Helvetica,sans-Serif" font-size="10.00" fill="#000000">+ setHeader()</text>
<text text-anchor="start" x="365" y="-1163.5" font-family="Helvetica,sans-Serif" font-size="10.00" fill="#000000">+ getHeader()</text>
<text text-anchor="start" x="365" y="-1152.5" font-family="Helvetica,sans-Serif" font-size="10.00" fill="#000000">+ getHeader()</text>
<text text-anchor="start" x="365" y="-1141.5" font-family="Helvetica,sans-Serif" font-size="10.00" fill="#000000">+ cloneHeader()</text>
<text text-anchor="start" x="365" y="-1130.5" font-family="Helvetica,sans-Serif" font-size="10.00" fill="#000000">+ getMetadata()</text>
<text text-anchor="start" x="365" y="-1119.5" font-family="Helvetica,sans-Serif" font-size="10.00" fill="#000000">+ getMetadata()</text>
<text text-anchor="start" x="365" y="-1108.5" font-family="Helvetica,sans-Serif" font-size="10.00" fill="#000000">+ getBlock()</text>
<text text-anchor="start" x="365" y="-1097.5" font-family="Helvetica,sans-Serif" font-size="10.00" fill="#000000">+ setANSHeader()</text>
<text text-anchor="start" x="365" y="-1086.5" font-family="Helvetica,sans-Serif" font-size="10.00" fill="#000000">+ getANSHeader()</text>
<text text-anchor="start" x="365" y="-1075.5" font-family="Helvetica,sans-Serif" font-size="10.00" fill="#000000">+ getANSHeader()</text>
<text text-anchor="start" x="365" y="-1064.5" font-family="Helvetica,sans-Serif" font-size="10.00" fill="#000000">+ empty()</text>
<text text-anchor="start" x="365" y="-1053.5" font-family="Helvetica,sans-Serif" font-size="10.00" fill="#000000">+ flat()</text>
<text text-anchor="start" x="365" y="-1042.5" font-family="Helvetica,sans-Serif" font-size="10.00" fill="#000000">+ clear()</text>
<text text-anchor="start" x="365" y="-1031.5" font-family="Helvetica,sans-Serif" font-size="10.00" fill="#000000">+ compactify()</text>
<text text-anchor="start" x="365" y="-1020.5" font-family="Helvetica,sans-Serif" font-size="10.00" fill="#000000">+ size()</text>
<text text-anchor="start" x="365" y="-1009.5" font-family="Helvetica,sans-Serif" font-size="10.00" fill="#000000">+ getFreeSize()</text>
<text text-anchor="start" x="365" y="-998.5" font-family="Helvetica,sans-Serif" font-size="10.00" fill="#000000">+ copyToFlat()</text>
<text text-anchor="start" x="365" y="-987.5" font-family="Helvetica,sans-Serif" font-size="10.00" fill="#000000">+ copyToFlat()</text>
<text text-anchor="start" x="365" y="-976.5" font-family="Helvetica,sans-Serif" font-size="10.00" fill="#000000">+ appendToTree()</text>
<text text-anchor="start" x="365" y="-965.5" font-family="Helvetica,sans-Serif" font-size="10.00" fill="#000000">+ readFromTree()</text>
<text text-anchor="start" x="365" y="-954.5" font-family="Helvetica,sans-Serif" font-size="10.00" fill="#000000">+ encode()</text>
<text text-anchor="start" x="365" y="-943.5" font-family="Helvetica,sans-Serif" font-size="10.00" fill="#000000">+ encode()</text>
<text text-anchor="start" x="365" y="-932.5" font-family="Helvetica,sans-Serif" font-size="10.00" fill="#000000">+ decode()</text>
<text text-anchor="start" x="365" y="-921.5" font-family="Helvetica,sans-Serif" font-size="10.00" fill="#000000">+ decode()</text>
<text text-anchor="start" x="365" y="-910.5" font-family="Helvetica,sans-Serif" font-size="10.00" fill="#000000">+ print()</text>
<text text-anchor="start" x="365" y="-899.5" font-family="Helvetica,sans-Serif" font-size="10.00" fill="#000000">+ getNBlocks()</text>
<text text-anchor="start" x="365" y="-888.5" font-family="Helvetica,sans-Serif" font-size="10.00" fill="#000000">+ getMinAlignedSize()</text>
<text text-anchor="start" x="365" y="-877.5" font-family="Helvetica,sans-Serif" font-size="10.00" fill="#000000">+ get()</text>
<text text-anchor="start" x="365" y="-866.5" font-family="Helvetica,sans-Serif" font-size="10.00" fill="#000000">+ get()</text>
<text text-anchor="start" x="365" y="-855.5" font-family="Helvetica,sans-Serif" font-size="10.00" fill="#000000">+ getImage()</text>
<text text-anchor="start" x="365" y="-844.5" font-family="Helvetica,sans-Serif" font-size="10.00" fill="#000000">+ create()</text>
<text text-anchor="start" x="365" y="-833.5" font-family="Helvetica,sans-Serif" font-size="10.00" fill="#000000">+ create()</text>
<text text-anchor="start" x="365" y="-822.5" font-family="Helvetica,sans-Serif" font-size="10.00" fill="#000000">+ estimateBlockSize()</text>
<text text-anchor="start" x="365" y="-811.5" font-family="Helvetica,sans-Serif" font-size="10.00" fill="#000000">+ expand()</text>
<text text-anchor="start" x="365" y="-800.5" font-family="Helvetica,sans-Serif" font-size="10.00" fill="#000000">+ readFromTree()</text>
<text text-anchor="start" x="365" y="-789.5" font-family="Helvetica,sans-Serif" font-size="10.00" fill="#000000">+ createDictionaryBlocks()</text>
<text text-anchor="start" x="365" y="-778.5" font-family="Helvetica,sans-Serif" font-size="10.00" fill="#000000"># init()</text>
<text text-anchor="start" x="365" y="-767.5" font-family="Helvetica,sans-Serif" font-size="10.00" fill="#000000"># estimateSize()</text>
<text text-anchor="start" x="365" y="-756.5" font-family="Helvetica,sans-Serif" font-size="10.00" fill="#000000"># estimateSizeFromMetadata()</text>
<text text-anchor="start" x="365" y="-745.5" font-family="Helvetica,sans-Serif" font-size="10.00" fill="#000000"># fillFlatCopy()</text>
<text text-anchor="start" x="365" y="-734.5" font-family="Helvetica,sans-Serif" font-size="10.00" fill="#000000"># ClassDefNV()</text>
<text text-anchor="start" x="365" y="-723.5" font-family="Helvetica,sans-Serif" font-size="10.00" fill="#000000"># relocate()</text>
<text text-anchor="start" x="365" y="-712.5" font-family="Helvetica,sans-Serif" font-size="10.00" fill="#000000"># fillTreeBranch()</text>
<text text-anchor="start" x="365" y="-701.5" font-family="Helvetica,sans-Serif" font-size="10.00" fill="#000000"># readTreeBranch()</text>
</a>
</g>
</g>
<!-- Node6&#45;&gt;Node15 -->
<g id="edge14" class="edge">
<title>Node6&#45;&gt;Node15</title>
<path fill="none" stroke="#404040" d="M556.8375,-1294.4945C549.8976,-1285.484 542.8045,-1275.2053 537.5,-1265 534.4262,-1259.0864 531.4275,-1253.0559 528.5037,-1246.9331"/>
<polygon fill="none" stroke="#404040" points="528.3922,-1246.6938 522.2316,-1242.9459 523.3218,-1235.8176 529.4824,-1239.5656 528.3922,-1246.6938"/>
<text text-anchor="middle" x="571" y="-1257" font-family="Helvetica,sans-Serif" font-size="10.00" fill="#000000"> #mMetadata</text>
</g>
<!-- Node7 -->
<g id="node5" class="node">
<title>Node7</title>
<g id="a_node5"><a xlink:href="../../d5/d54/structo2_1_1ctf_1_1CTFHeader.html" target="_top" xlink:title="{o2::ctf::CTFHeader\n||+ describe()\l+ print()\l}">
<polygon fill="none" stroke="#000000" points="67,-1289 67,-1357 174,-1357 174,-1289 67,-1289"/>
<text text-anchor="middle" x="120.5" y="-1345" font-family="Helvetica,sans-Serif" font-size="10.00" fill="#000000">o2::ctf::CTFHeader</text>
<polyline fill="none" stroke="#000000" points="67,-1338 174,-1338 "/>
<text text-anchor="middle" x="120.5" y="-1326" font-family="Helvetica,sans-Serif" font-size="10.00" fill="#000000"> </text>
<polyline fill="none" stroke="#000000" points="67,-1319 174,-1319 "/>
<text text-anchor="start" x="75" y="-1307" font-family="Helvetica,sans-Serif" font-size="10.00" fill="#000000">+ describe()</text>
<text text-anchor="start" x="75" y="-1296" font-family="Helvetica,sans-Serif" font-size="10.00" fill="#000000">+ print()</text>
</a>
</g>
</g>
<!-- Node7&#45;&gt;Node4 -->
<g id="edge4" class="edge">
<title>Node7&#45;&gt;Node4</title>
<path fill="none" stroke="#404040" d="M123.1437,-1288.9006C132.7645,-1166.1719 166.2485,-751.199 183.5,-694 201.6284,-633.8936 231.4324,-571.9471 260.9441,-518.8779"/>
<polygon fill="none" stroke="#404040" points="260.9612,-518.8475 260.4128,-511.6573 266.839,-508.3856 267.3874,-515.5758 260.9612,-518.8475"/>
<text text-anchor="middle" x="212" y="-962.5" font-family="Helvetica,sans-Serif" font-size="10.00" fill="#000000"> #mHeader</text>
</g>
<!-- Node8 -->
<g id="node6" class="node">
<title>Node8</title>
<polygon fill="none" stroke="#bfbfbf" points="52,-1421.5 52,-1478.5 105,-1478.5 105,-1421.5 52,-1421.5"/>
<text text-anchor="middle" x="78.5" y="-1466.5" font-family="Helvetica,sans-Serif" font-size="10.00" fill="#000000">mask_t</text>
<polyline fill="none" stroke="#bfbfbf" points="52,-1459.5 105,-1459.5 "/>
<text text-anchor="middle" x="78.5" y="-1447.5" font-family="Helvetica,sans-Serif" font-size="10.00" fill="#000000"> </text>
<polyline fill="none" stroke="#bfbfbf" points="52,-1440.5 105,-1440.5 "/>
<text text-anchor="middle" x="78.5" y="-1428.5" font-family="Helvetica,sans-Serif" font-size="10.00" fill="#000000"> </text>
</g>
<!-- Node8&#45;&gt;Node7 -->
<g id="edge5" class="edge">
<title>Node8&#45;&gt;Node7</title>
<path fill="none" stroke="#404040" d="M75.1482,-1421.1753C74.633,-1408.56 75.3439,-1393.7582 79.5,-1381 80.983,-1376.4475 82.9594,-1371.9416 85.2453,-1367.5731"/>
<polygon fill="none" stroke="#404040" points="85.3585,-1367.3813 84.9651,-1360.1809 91.4604,-1357.0484 91.8537,-1364.2488 85.3585,-1367.3813"/>
<text text-anchor="middle" x="108.5" y="-1389.5" font-family="Helvetica,sans-Serif" font-size="10.00" fill="#000000"> +detectors</text>
</g>
<!-- Node9 -->
<g id="node7" class="node">
<title>Node9</title>
<polygon fill="none" stroke="#bfbfbf" points="172,-1421.5 172,-1478.5 233,-1478.5 233,-1421.5 172,-1421.5"/>
<text text-anchor="middle" x="202.5" y="-1466.5" font-family="Helvetica,sans-Serif" font-size="10.00" fill="#000000">unsigned</text>
<polyline fill="none" stroke="#bfbfbf" points="172,-1459.5 233,-1459.5 "/>
<text text-anchor="middle" x="202.5" y="-1447.5" font-family="Helvetica,sans-Serif" font-size="10.00" fill="#000000"> </text>
<polyline fill="none" stroke="#bfbfbf" points="172,-1440.5 233,-1440.5 "/>
<text text-anchor="middle" x="202.5" y="-1428.5" font-family="Helvetica,sans-Serif" font-size="10.00" fill="#000000"> </text>
</g>
<!-- Node9&#45;&gt;Node7 -->
<g id="edge6" class="edge">
<title>Node9&#45;&gt;Node7</title>
<path fill="none" stroke="#404040" d="M171.8315,-1421.8197C166.3286,-1415.9216 160.9402,-1409.5076 156.5,-1403 149.2143,-1392.322 142.8026,-1379.9307 137.486,-1368.136"/>
<polygon fill="none" stroke="#404040" points="137.4744,-1368.1089 131.4287,-1364.1783 132.7316,-1357.0859 138.7773,-1361.0164 137.4744,-1368.1089"/>
<text text-anchor="middle" x="188.5" y="-1395" font-family="Helvetica,sans-Serif" font-size="10.00" fill="#000000"> +firstTForbit</text>
<text text-anchor="middle" x="188.5" y="-1384" font-family="Helvetica,sans-Serif" font-size="10.00" fill="#000000">+run</text>
</g>
<!-- Node10 -->
<g id="node8" class="node">
<title>Node10</title>
<g id="a_node8"><a xlink:href="../../dc/dbb/structo2_1_1ctf_1_1ANSHeader.html" target="_top" xlink:title="&gt;&gt;======================== Auxiliary classes =======================&gt;&gt; ">
<polygon fill="none" stroke="#000000" points="192,-1289 192,-1357 301,-1357 301,-1289 192,-1289"/>
<text text-anchor="middle" x="246.5" y="-1345" font-family="Helvetica,sans-Serif" font-size="10.00" fill="#000000">o2::ctf::ANSHeader</text>
<polyline fill="none" stroke="#000000" points="192,-1338 301,-1338 "/>
<text text-anchor="middle" x="246.5" y="-1326" font-family="Helvetica,sans-Serif" font-size="10.00" fill="#000000"> </text>
<polyline fill="none" stroke="#000000" points="192,-1319 301,-1319 "/>
<text text-anchor="start" x="200" y="-1307" font-family="Helvetica,sans-Serif" font-size="10.00" fill="#000000">+ clear()</text>
<text text-anchor="start" x="200" y="-1296" font-family="Helvetica,sans-Serif" font-size="10.00" fill="#000000">+ ClassDefNV()</text>
</a>
</g>
</g>
<!-- Node9&#45;&gt;Node10 -->
<g id="edge8" class="edge">
<title>Node9&#45;&gt;Node10</title>
<path fill="none" stroke="#404040" d="M216.7819,-1421.4951C219.5354,-1415.4673 222.257,-1409.0866 224.5,-1403 228.4871,-1392.1809 232.1317,-1380.3061 235.2582,-1369.0935"/>
<polygon fill="none" stroke="#404040" points="235.3221,-1368.856 233.0179,-1362.0229 238.4392,-1357.2679 240.7433,-1364.101 235.3221,-1368.856"/>
<text text-anchor="middle" x="270.5" y="-1395" font-family="Helvetica,sans-Serif" font-size="10.00" fill="#000000"> +minorVersion</text>
<text text-anchor="middle" x="270.5" y="-1384" font-family="Helvetica,sans-Serif" font-size="10.00" fill="#000000">+majorVersion</text>
</g>
<!-- Node10&#45;&gt;Node4 -->
<g id="edge7" class="edge">
<title>Node10&#45;&gt;Node4</title>
<path fill="none" stroke="#404040" d="M245.3882,-1288.6826C242.84,-1193.6114 239.0836,-918.995 271.5,-694 273.1744,-682.3785 275.0982,-670.5655 277.2205,-658.6672"/>
<polygon fill="none" stroke="#404040" points="277.2424,-658.5476 274.3903,-651.9245 279.407,-646.7445 282.2591,-653.3676 277.2424,-658.5476"/>
<text text-anchor="middle" x="310" y="-962.5" font-family="Helvetica,sans-Serif" font-size="10.00" fill="#000000"> #mANSHeader</text>
</g>
<!-- Node10&#45;&gt;Node15 -->
<g id="edge17" class="edge">
<title>Node10&#45;&gt;Node15</title>
<path fill="none" stroke="#404040" d="M275.2282,-1288.9597C285.1799,-1277.5896 296.5819,-1265.0155 307.5,-1254 315.9185,-1245.5064 320.5702,-1245.7463 327.5,-1236 335.7032,-1224.4629 343.4669,-1212.2448 350.7902,-1199.6288"/>
<polygon fill="none" stroke="#404040" points="350.927,-1199.3871 350.4016,-1192.1952 356.8382,-1188.944 357.3636,-1196.1359 350.927,-1199.3871"/>
<text text-anchor="middle" x="346" y="-1257" font-family="Helvetica,sans-Serif" font-size="10.00" fill="#000000"> #mANSHeader</text>
</g>
<!-- Node11 -->
<g id="node9" class="node">
<title>Node11</title>
<g id="a_node9"><a xlink:href="../../d0/d1c/structo2_1_1ctf_1_1Registry.html" target="_top" xlink:title="registry struct for the buffer start and offsets of writable space ">
<polygon fill="none" stroke="#000000" points="680.5,-1283.5 680.5,-1362.5 802.5,-1362.5 802.5,-1283.5 680.5,-1283.5"/>
<text text-anchor="middle" x="741.5" y="-1350.5" font-family="Helvetica,sans-Serif" font-size="10.00" fill="#000000">o2::ctf::Registry</text>
<polyline fill="none" stroke="#000000" points="680.5,-1343.5 802.5,-1343.5 "/>
<text text-anchor="middle" x="741.5" y="-1331.5" font-family="Helvetica,sans-Serif" font-size="10.00" fill="#000000"> </text>
<polyline fill="none" stroke="#000000" points="680.5,-1324.5 802.5,-1324.5 "/>
<text text-anchor="start" x="688.5" y="-1312.5" font-family="Helvetica,sans-Serif" font-size="10.00" fill="#000000">+ getFreeBlockStart()</text>
<text text-anchor="start" x="688.5" y="-1301.5" font-family="Helvetica,sans-Serif" font-size="10.00" fill="#000000">+ getFreeSize()</text>
<text text-anchor="start" x="688.5" y="-1290.5" font-family="Helvetica,sans-Serif" font-size="10.00" fill="#000000">+ ClassDefNV()</text>
</a>
</g>
</g>
<!-- Node11&#45;&gt;Node4 -->
<g id="edge9" class="edge">
<title>Node11&#45;&gt;Node4</title>
<path fill="none" stroke="#404040" d="M754.0757,-1283.4526C786.0651,-1174.3563 857.8849,-865.8798 708.5,-694 664.2438,-643.0795 625.9491,-676.6628 559.5,-665 536.7098,-661 478.5322,-663.0512 446.3733,-646.293"/>
<polygon fill="none" stroke="#404040" points="446.1868,-646.1695 438.9757,-646.1891 436.184,-639.5403 443.3951,-639.5206 446.1868,-646.1695"/>
<text text-anchor="middle" x="830" y="-962.5" font-family="Helvetica,sans-Serif" font-size="10.00" fill="#000000"> #mRegistry</text>
</g>
<!-- Node11&#45;&gt;Node15 -->
<g id="edge18" class="edge">
<title>Node11&#45;&gt;Node15</title>
<path fill="none" stroke="#404040" d="M680.1484,-1287.1354C642.2056,-1264.798 600.0561,-1239.6312 596.5,-1236 572.7534,-1211.7524 551.3501,-1183.1532 532.5646,-1153.7818"/>
<polygon fill="none" stroke="#404040" points="532.4075,-1153.5312 525.8302,-1150.5748 526.0296,-1143.3664 532.6068,-1146.3229 532.4075,-1153.5312"/>
<text text-anchor="middle" x="672" y="-1257" font-family="Helvetica,sans-Serif" font-size="10.00" fill="#000000"> #mRegistry</text>
</g>
<!-- Node12 -->
<g id="node10" class="node">
<title>Node12</title>
<polygon fill="none" stroke="#bfbfbf" points="662.5,-1421.5 662.5,-1478.5 700.5,-1478.5 700.5,-1421.5 662.5,-1421.5"/>
<text text-anchor="middle" x="681.5" y="-1466.5" font-family="Helvetica,sans-Serif" font-size="10.00" fill="#000000">char</text>
<polyline fill="none" stroke="#bfbfbf" points="662.5,-1459.5 700.5,-1459.5 "/>
<text text-anchor="middle" x="681.5" y="-1447.5" font-family="Helvetica,sans-Serif" font-size="10.00" fill="#000000"> </text>
<polyline fill="none" stroke="#bfbfbf" points="662.5,-1440.5 700.5,-1440.5 "/>
<text text-anchor="middle" x="681.5" y="-1428.5" font-family="Helvetica,sans-Serif" font-size="10.00" fill="#000000"> </text>
</g>
<!-- Node12&#45;&gt;Node11 -->
<g id="edge10" class="edge">
<title>Node12&#45;&gt;Node11</title>
<path fill="none" stroke="#404040" d="M687.5954,-1421.3829C690.8549,-1408.6697 695.4595,-1393.7336 701.5,-1381 702.7385,-1378.3891 704.0892,-1375.7661 705.5206,-1373.1555"/>
<polygon fill="none" stroke="#404040" points="705.6782,-1372.8886 705.2851,-1365.6882 711.7804,-1362.556 712.1735,-1369.7564 705.6782,-1372.8886"/>
<text text-anchor="middle" x="719.5" y="-1389.5" font-family="Helvetica,sans-Serif" font-size="10.00" fill="#000000"> +head</text>
</g>
<!-- Node13 -->
<g id="node11" class="node">
<title>Node13</title>
<polygon fill="none" stroke="#bfbfbf" points="719,-1421.5 719,-1478.5 764,-1478.5 764,-1421.5 719,-1421.5"/>
<text text-anchor="middle" x="741.5" y="-1466.5" font-family="Helvetica,sans-Serif" font-size="10.00" fill="#000000">size_t</text>
<polyline fill="none" stroke="#bfbfbf" points="719,-1459.5 764,-1459.5 "/>
<text text-anchor="middle" x="741.5" y="-1447.5" font-family="Helvetica,sans-Serif" font-size="10.00" fill="#000000"> </text>
<polyline fill="none" stroke="#bfbfbf" points="719,-1440.5 764,-1440.5 "/>
<text text-anchor="middle" x="741.5" y="-1428.5" font-family="Helvetica,sans-Serif" font-size="10.00" fill="#000000"> </text>
</g>
<!-- Node13&#45;&gt;Node11 -->
<g id="edge11" class="edge">
<title>Node13&#45;&gt;Node11</title>
<path fill="none" stroke="#404040" d="M741.5,-1421.4987C741.5,-1407.8801 741.5,-1391.1381 741.5,-1375.3462"/>
<polygon fill="none" stroke="#404040" points="741.5001,-1374.963 737.5,-1368.963 741.5,-1362.963 745.5,-1368.963 741.5001,-1374.963"/>
<text text-anchor="middle" x="778" y="-1395" font-family="Helvetica,sans-Serif" font-size="10.00" fill="#000000"> +offsFreeStart</text>
<text text-anchor="middle" x="778" y="-1384" font-family="Helvetica,sans-Serif" font-size="10.00" fill="#000000">+size</text>
</g>
<!-- Node14 -->
<g id="node12" class="node">
<title>Node14</title>
<polygon fill="none" stroke="#bfbfbf" points="823,-1421.5 823,-1478.5 852,-1478.5 852,-1421.5 823,-1421.5"/>
<text text-anchor="middle" x="837.5" y="-1466.5" font-family="Helvetica,sans-Serif" font-size="10.00" fill="#000000">int</text>
<polyline fill="none" stroke="#bfbfbf" points="823,-1459.5 852,-1459.5 "/>
<text text-anchor="middle" x="837.5" y="-1447.5" font-family="Helvetica,sans-Serif" font-size="10.00" fill="#000000"> </text>
<polyline fill="none" stroke="#bfbfbf" points="823,-1440.5 852,-1440.5 "/>
<text text-anchor="middle" x="837.5" y="-1428.5" font-family="Helvetica,sans-Serif" font-size="10.00" fill="#000000"> </text>
</g>
<!-- Node14&#45;&gt;Node11 -->
<g id="edge12" class="edge">
<title>Node14&#45;&gt;Node11</title>
<path fill="none" stroke="#404040" d="M832.4256,-1421.4085C829.1208,-1408.2669 823.8234,-1392.9768 815.5,-1381 813.2177,-1377.716 810.6946,-1374.5293 807.9975,-1371.4515"/>
<polygon fill="none" stroke="#404040" points="807.7649,-1371.2095 800.7236,-1369.6538 799.4514,-1362.5558 806.4927,-1364.1114 807.7649,-1371.2095"/>
<text text-anchor="middle" x="863.5" y="-1389.5" font-family="Helvetica,sans-Serif" font-size="10.00" fill="#000000"> +nFilledBlocks</text>
</g>
<!-- Node15&#45;&gt;Node4 -->
<g id="edge13" class="edge">
<title>Node15&#45;&gt;Node4</title>
<path fill="none" stroke="#ffa500" d="M398.5864,-684.1545C396.67,-671.6126 394.7485,-659.0377 392.836,-646.5209"/>
<polygon fill="#ffa500" stroke="#ffa500" points="395.1516,-684.8474 400.122,-694.204 402.0713,-683.79 395.1516,-684.8474"/>
<text text-anchor="middle" x="468" y="-668" font-family="Helvetica,sans-Serif" font-size="10.00" fill="#000000"> &lt; CTFHeader, 10, uint32_t &gt;</text>
</g>
<!-- Node16 -->
<g id="node14" class="node">
<title>Node16</title>
<polygon fill="none" stroke="#bfbfbf" points="454,-1294.5 454,-1351.5 483,-1351.5 483,-1294.5 454,-1294.5"/>
<text text-anchor="middle" x="468.5" y="-1339.5" font-family="Helvetica,sans-Serif" font-size="10.00" fill="#000000">H</text>
<polyline fill="none" stroke="#bfbfbf" points="454,-1332.5 483,-1332.5 "/>
<text text-anchor="middle" x="468.5" y="-1320.5" font-family="Helvetica,sans-Serif" font-size="10.00" fill="#000000"> </text>
<polyline fill="none" stroke="#bfbfbf" points="454,-1313.5 483,-1313.5 "/>
<text text-anchor="middle" x="468.5" y="-1301.5" font-family="Helvetica,sans-Serif" font-size="10.00" fill="#000000"> </text>
</g>
<!-- Node16&#45;&gt;Node15 -->
<g id="edge15" class="edge">
<title>Node16&#45;&gt;Node15</title>
<path fill="none" stroke="#404040" d="M462.2498,-1294.2072C460.4471,-1284.9248 458.6567,-1274.5643 457.5,-1265 456.8121,-1259.3123 456.1538,-1253.5603 455.5238,-1247.7602"/>
<polygon fill="none" stroke="#404040" points="455.5204,-1247.7266 450.917,-1242.176 454.27,-1235.7919 458.8734,-1241.3424 455.5204,-1247.7266"/>
<text text-anchor="middle" x="486" y="-1257" font-family="Helvetica,sans-Serif" font-size="10.00" fill="#000000"> #mHeader</text>
</g>
<!-- Node17 -->
<g id="node15" class="node">
<title>Node17</title>
<polygon fill="none" stroke="#bfbfbf" points="319,-1289 319,-1357 436,-1357 436,-1289 319,-1289"/>
<text text-anchor="start" x="327" y="-1345" font-family="Helvetica,sans-Serif" font-size="10.00" fill="#000000">array&lt; o2::ctf::Block</text>
<text text-anchor="middle" x="377.5" y="-1334" font-family="Helvetica,sans-Serif" font-size="10.00" fill="#000000">&lt; W &gt;, N &gt;</text>
<polyline fill="none" stroke="#bfbfbf" points="319,-1327 436,-1327 "/>
<text text-anchor="middle" x="377.5" y="-1315" font-family="Helvetica,sans-Serif" font-size="10.00" fill="#000000"> </text>
<polyline fill="none" stroke="#bfbfbf" points="319,-1308 436,-1308 "/>
<text text-anchor="middle" x="377.5" y="-1296" font-family="Helvetica,sans-Serif" font-size="10.00" fill="#000000"> </text>
</g>
<!-- Node17&#45;&gt;Node15 -->
<g id="edge16" class="edge">
<title>Node17&#45;&gt;Node15</title>
<path fill="none" stroke="#404040" d="M383.5787,-1288.9975C385.6424,-1277.4535 388.1395,-1263.4853 390.9236,-1247.9118"/>
<polygon fill="none" stroke="#404040" points="390.9943,-1247.516 388.1126,-1240.9057 393.1061,-1235.7033 395.9878,-1242.3136 390.9943,-1247.516"/>
<text text-anchor="middle" x="417.5" y="-1257" font-family="Helvetica,sans-Serif" font-size="10.00" fill="#000000"> #mBlocks</text>
</g>
<!-- Node18 -->
<g id="node16" class="node">
<title>Node18</title>
<polygon fill="none" stroke="#bfbfbf" points="453.5,-347.5 453.5,-404.5 497.5,-404.5 497.5,-347.5 453.5,-347.5"/>
<text text-anchor="middle" x="475.5" y="-392.5" font-family="Helvetica,sans-Serif" font-size="10.00" fill="#000000">static</text>
<polyline fill="none" stroke="#bfbfbf" points="453.5,-385.5 497.5,-385.5 "/>
<text text-anchor="middle" x="475.5" y="-373.5" font-family="Helvetica,sans-Serif" font-size="10.00" fill="#000000"> </text>
<polyline fill="none" stroke="#bfbfbf" points="453.5,-366.5 497.5,-366.5 "/>
<text text-anchor="middle" x="475.5" y="-354.5" font-family="Helvetica,sans-Serif" font-size="10.00" fill="#000000"> </text>
</g>
<!-- Node18&#45;&gt;Node3 -->
<g id="edge19" class="edge">
<title>Node18&#45;&gt;Node3</title>
<path fill="none" stroke="#404040" d="M474.7878,-347.4498C472.9808,-297.5335 466.636,-191.4768 444.5,-105 441.4315,-93.0125 436.8779,-80.4129 432.1997,-68.9958"/>
<polygon fill="none" stroke="#404040" points="432.047,-68.638 426.0128,-64.6898 427.3365,-57.6012 433.3707,-61.5494 432.047,-68.638"/>
<text text-anchor="middle" x="449" y="-79" font-family="Helvetica,sans-Serif" font-size="10.00" fill="#000000"> +N</text>
</g>
</g>
</svg>
        <g id="navigator" transform="translate(0 0)" fill="#404254">
                <rect fill="#f2f5e9" fill-opacity="0.5" stroke="#606060" stroke-width=".5" x="0" y="0" width="60" height="60"/>
                <use id="zoomplus" xlink:href="#zoomPlus" x="17" y="9" onmousedown="handleZoom(evt,'in')"/>
                <use id="zoomminus" xlink:href="#zoomMin" x="42" y="9" onmousedown="handleZoom(evt,'out')"/>
                <use id="reset" xlink:href="#resetDef" x="30" y="36" onmousedown="handleReset()"/>
                <g id="arrowUp" xlink:href="#dirArrow" transform="translate(30 24)" onmousedown="handlePan(0,-1)">
                  <use xlink:href="#rim" fill="#404040">
                        <set attributeName="fill" to="#808080" begin="arrowUp.mouseover" end="arrowUp.mouseout"/>
                  </use>
                  <path fill="none" stroke="white" stroke-width="1.5" d="M0,-3.0v7 M-2.5,-0.5L0,-3.0L2.5,-0.5"/>
                </g>
                <g id="arrowRight" xlink:href="#dirArrow" transform="rotate(90) translate(36 -43)" onmousedown="handlePan(1,0)">
                  <use xlink:href="#rim" fill="#404040">
                        <set attributeName="fill" to="#808080" begin="arrowRight.mouseover" end="arrowRight.mouseout"/>
                  </use>
                  <path fill="none" stroke="white" stroke-width="1.5" d="M0,-3.0v7 M-2.5,-0.5L0,-3.0L2.5,-0.5"/>
                </g>
                <g id="arrowDown" xlink:href="#dirArrow" transform="rotate(180) translate(-30 -48)" onmousedown="handlePan(0,1)">
                  <use xlink:href="#rim" fill="#404040">
                        <set attributeName="fill" to="#808080" begin="arrowDown.mouseover" end="arrowDown.mouseout"/>
                  </use>
                  <path fill="none" stroke="white" stroke-width="1.5" d="M0,-3.0v7 M-2.5,-0.5L0,-3.0L2.5,-0.5"/>
                </g>
                <g id="arrowLeft" xlink:href="#dirArrow" transform="rotate(270) translate(-36 17)" onmousedown="handlePan(-1,0)">
                  <use xlink:href="#rim" fill="#404040">
                        <set attributeName="fill" to="#808080" begin="arrowLeft.mouseover" end="arrowLeft.mouseout"/>
                  </use>
                  <path fill="none" stroke="white" stroke-width="1.5" d="M0,-3.0v7 M-2.5,-0.5L0,-3.0L2.5,-0.5"/>
                </g>
        </g>
        <svg viewBox="0 0 15 15" width="100%" height="30px" preserveAspectRatio="xMaxYMin meet">
         <g id="arrow_out" transform="scale(0.3 0.3)">
          <a xlink:href="structo2_1_1tof_1_1CTF__coll__graph_org.svg" target="_base">
           <rect id="button" ry="5" rx="5" y="6" x="6" height="38" width="38"
                fill="#f2f5e9" fill-opacity="0.5" stroke="#606060" stroke-width="1.0"/>
           <path id="arrow"
             d="M 11.500037,31.436501 C 11.940474,20.09759 22.043105,11.32322 32.158766,21.979434 L 37.068811,17.246167 C 37.068811,17.246167 37.088388,32 37.088388,32 L 22.160133,31.978069 C 22.160133,31.978069 26.997745,27.140456 26.997745,27.140456 C 18.528582,18.264221 13.291696,25.230495 11.500037,31.436501 z"
             style="fill:#404040;"/>
          </a>
         </g>
        </svg>
</svg>
