<?xml version="1.0" encoding="UTF-8" standalone="no"?>
<!DOCTYPE svg PUBLIC "-//W3C//DTD SVG 1.1//EN"
 "http://www.w3.org/Graphics/SVG/1.1/DTD/svg11.dtd">
<!-- Generated by graphviz version 2.40.1 (20161225.0304)
 -->
<!-- Title: o2::fdd::Digitizer::BCCache Pages: 1 -->
<svg width="568pt" height="694pt"
 viewBox="0.00 0.00 567.50 694.00" xmlns="http://www.w3.org/2000/svg" xmlns:xlink="http://www.w3.org/1999/xlink">
<g id="graph0" class="graph" transform="scale(1 1) rotate(0) translate(4 690)">
<title>o2::fdd::Digitizer::BCCache</title>
<!-- Node2 -->
<g id="node1" class="node">
<title>Node2</title>
<polygon fill="#bfbfbf" stroke="#000000" points="272,-.5 272,-101.5 370,-101.5 370,-.5 272,-.5"/>
<text text-anchor="start" x="280" y="-89.5" font-family="Helvetica,sans-Serif" font-size="10.00" fill="#000000">o2::fdd::Digitizer</text>
<text text-anchor="middle" x="321" y="-78.5" font-family="Helvetica,sans-Serif" font-size="10.00" fill="#000000">::BCCache</text>
<polyline fill="none" stroke="#000000" points="272,-71.5 370,-71.5 "/>
<text text-anchor="middle" x="321" y="-59.5" font-family="Helvetica,sans-Serif" font-size="10.00" fill="#000000"> </text>
<polyline fill="none" stroke="#000000" points="272,-52.5 370,-52.5 "/>
<text text-anchor="start" x="280" y="-40.5" font-family="Helvetica,sans-Serif" font-size="10.00" fill="#000000">+ BCCache()</text>
<text text-anchor="start" x="280" y="-29.5" font-family="Helvetica,sans-Serif" font-size="10.00" fill="#000000">+ clear()</text>
<text text-anchor="start" x="280" y="-18.5" font-family="Helvetica,sans-Serif" font-size="10.00" fill="#000000">+ operator=()</text>
<text text-anchor="start" x="280" y="-7.5" font-family="Helvetica,sans-Serif" font-size="10.00" fill="#000000">+ print()</text>
</g>
<!-- Node3 -->
<g id="node2" class="node">
<title>Node3</title>
<g id="a_node2"><a xlink:href="../../d1/d21/structo2_1_1InteractionRecord.html" target="_top" xlink:title="{o2::InteractionRecord\n||+ InteractionRecord()\l+ InteractionRecord()\l+ InteractionRecord()\l+ InteractionRecord()\l+ clear()\l+ isDummy()\l+ setFromNS()\l+ bc2ns()\l+ operator==()\l+ operator!=()\l+ differenceInBC()\l+ toLong()\l+ setFromLong()\l+ operator\&gt;()\l+ operator\&gt;=()\l+ operator\&lt;()\l+ operator\&lt;=()\l+ operator&#45;&#45;()\l+ operator&#45;&#45;()\l+ operator++()\l+ operator++()\l+ operator+=()\l+ operator&#45;=()\l+ operator+=()\l+ operator&#45;=()\l+ operator+()\l+ operator&#45;()\l+ operator+()\l+ operator&#45;()\l+ print()\l+ asString()\l+ ClassDefNV()\l+ bc2ns()\l+ ns2bc()\l}">
<polygon fill="none" stroke="#000000" points="112.5,-149.5 112.5,-569.5 233.5,-569.5 233.5,-149.5 112.5,-149.5"/>
<text text-anchor="middle" x="173" y="-557.5" font-family="Helvetica,sans-Serif" font-size="10.00" fill="#000000">o2::InteractionRecord</text>
<polyline fill="none" stroke="#000000" points="112.5,-550.5 233.5,-550.5 "/>
<text text-anchor="middle" x="173" y="-538.5" font-family="Helvetica,sans-Serif" font-size="10.00" fill="#000000"> </text>
<polyline fill="none" stroke="#000000" points="112.5,-531.5 233.5,-531.5 "/>
<text text-anchor="start" x="120.5" y="-519.5" font-family="Helvetica,sans-Serif" font-size="10.00" fill="#000000">+ InteractionRecord()</text>
<text text-anchor="start" x="120.5" y="-508.5" font-family="Helvetica,sans-Serif" font-size="10.00" fill="#000000">+ InteractionRecord()</text>
<text text-anchor="start" x="120.5" y="-497.5" font-family="Helvetica,sans-Serif" font-size="10.00" fill="#000000">+ InteractionRecord()</text>
<text text-anchor="start" x="120.5" y="-486.5" font-family="Helvetica,sans-Serif" font-size="10.00" fill="#000000">+ InteractionRecord()</text>
<text text-anchor="start" x="120.5" y="-475.5" font-family="Helvetica,sans-Serif" font-size="10.00" fill="#000000">+ clear()</text>
<text text-anchor="start" x="120.5" y="-464.5" font-family="Helvetica,sans-Serif" font-size="10.00" fill="#000000">+ isDummy()</text>
<text text-anchor="start" x="120.5" y="-453.5" font-family="Helvetica,sans-Serif" font-size="10.00" fill="#000000">+ setFromNS()</text>
<text text-anchor="start" x="120.5" y="-442.5" font-family="Helvetica,sans-Serif" font-size="10.00" fill="#000000">+ bc2ns()</text>
<text text-anchor="start" x="120.5" y="-431.5" font-family="Helvetica,sans-Serif" font-size="10.00" fill="#000000">+ operator==()</text>
<text text-anchor="start" x="120.5" y="-420.5" font-family="Helvetica,sans-Serif" font-size="10.00" fill="#000000">+ operator!=()</text>
<text text-anchor="start" x="120.5" y="-409.5" font-family="Helvetica,sans-Serif" font-size="10.00" fill="#000000">+ differenceInBC()</text>
<text text-anchor="start" x="120.5" y="-398.5" font-family="Helvetica,sans-Serif" font-size="10.00" fill="#000000">+ toLong()</text>
<text text-anchor="start" x="120.5" y="-387.5" font-family="Helvetica,sans-Serif" font-size="10.00" fill="#000000">+ setFromLong()</text>
<text text-anchor="start" x="120.5" y="-376.5" font-family="Helvetica,sans-Serif" font-size="10.00" fill="#000000">+ operator&gt;()</text>
<text text-anchor="start" x="120.5" y="-365.5" font-family="Helvetica,sans-Serif" font-size="10.00" fill="#000000">+ operator&gt;=()</text>
<text text-anchor="start" x="120.5" y="-354.5" font-family="Helvetica,sans-Serif" font-size="10.00" fill="#000000">+ operator&lt;()</text>
<text text-anchor="start" x="120.5" y="-343.5" font-family="Helvetica,sans-Serif" font-size="10.00" fill="#000000">+ operator&lt;=()</text>
<text text-anchor="start" x="120.5" y="-332.5" font-family="Helvetica,sans-Serif" font-size="10.00" fill="#000000">+ operator&#45;&#45;()</text>
<text text-anchor="start" x="120.5" y="-321.5" font-family="Helvetica,sans-Serif" font-size="10.00" fill="#000000">+ operator&#45;&#45;()</text>
<text text-anchor="start" x="120.5" y="-310.5" font-family="Helvetica,sans-Serif" font-size="10.00" fill="#000000">+ operator++()</text>
<text text-anchor="start" x="120.5" y="-299.5" font-family="Helvetica,sans-Serif" font-size="10.00" fill="#000000">+ operator++()</text>
<text text-anchor="start" x="120.5" y="-288.5" font-family="Helvetica,sans-Serif" font-size="10.00" fill="#000000">+ operator+=()</text>
<text text-anchor="start" x="120.5" y="-277.5" font-family="Helvetica,sans-Serif" font-size="10.00" fill="#000000">+ operator&#45;=()</text>
<text text-anchor="start" x="120.5" y="-266.5" font-family="Helvetica,sans-Serif" font-size="10.00" fill="#000000">+ operator+=()</text>
<text text-anchor="start" x="120.5" y="-255.5" font-family="Helvetica,sans-Serif" font-size="10.00" fill="#000000">+ operator&#45;=()</text>
<text text-anchor="start" x="120.5" y="-244.5" font-family="Helvetica,sans-Serif" font-size="10.00" fill="#000000">+ operator+()</text>
<text text-anchor="start" x="120.5" y="-233.5" font-family="Helvetica,sans-Serif" font-size="10.00" fill="#000000">+ operator&#45;()</text>
<text text-anchor="start" x="120.5" y="-222.5" font-family="Helvetica,sans-Serif" font-size="10.00" fill="#000000">+ operator+()</text>
<text text-anchor="start" x="120.5" y="-211.5" font-family="Helvetica,sans-Serif" font-size="10.00" fill="#000000">+ operator&#45;()</text>
<text text-anchor="start" x="120.5" y="-200.5" font-family="Helvetica,sans-Serif" font-size="10.00" fill="#000000">+ print()</text>
<text text-anchor="start" x="120.5" y="-189.5" font-family="Helvetica,sans-Serif" font-size="10.00" fill="#000000">+ asString()</text>
<text text-anchor="start" x="120.5" y="-178.5" font-family="Helvetica,sans-Serif" font-size="10.00" fill="#000000">+ ClassDefNV()</text>
<text text-anchor="start" x="120.5" y="-167.5" font-family="Helvetica,sans-Serif" font-size="10.00" fill="#000000">+ bc2ns()</text>
<text text-anchor="start" x="120.5" y="-156.5" font-family="Helvetica,sans-Serif" font-size="10.00" fill="#000000">+ ns2bc()</text>
</a>
</g>
</g>
<!-- Node3&#45;&gt;Node2 -->
<g id="edge1" class="edge">
<title>Node3&#45;&gt;Node2</title>
<path fill="none" stroke="#191970" d="M238.0533,-158.432C239.6716,-155.2454 241.3205,-152.099 243,-149 251.9105,-132.5585 263.6368,-116.104 275.2816,-101.5006"/>
<polygon fill="none" stroke="#191970" points="234.8591,-156.9958 233.5736,-167.5124 241.1367,-160.0929 234.8591,-156.9958"/>
</g>
<!-- Node4 -->
<g id="node3" class="node">
<title>Node4</title>
<polygon fill="none" stroke="#bfbfbf" points="0,-628.5 0,-685.5 50,-685.5 50,-628.5 0,-628.5"/>
<text text-anchor="middle" x="25" y="-673.5" font-family="Helvetica,sans-Serif" font-size="10.00" fill="#000000">double</text>
<polyline fill="none" stroke="#bfbfbf" points="0,-666.5 50,-666.5 "/>
<text text-anchor="middle" x="25" y="-654.5" font-family="Helvetica,sans-Serif" font-size="10.00" fill="#000000"> </text>
<polyline fill="none" stroke="#bfbfbf" points="0,-647.5 50,-647.5 "/>
<text text-anchor="middle" x="25" y="-635.5" font-family="Helvetica,sans-Serif" font-size="10.00" fill="#000000"> </text>
</g>
<!-- Node4&#45;&gt;Node3 -->
<g id="edge2" class="edge">
<title>Node4&#45;&gt;Node3</title>
<path fill="none" stroke="#404040" d="M31.2337,-628.2757C34.3921,-615.6791 38.6922,-600.864 44,-588 61.1925,-546.3317 84.3664,-502.738 106.3294,-464.9321"/>
<polygon fill="none" stroke="#404040" points="106.4177,-464.7814 106.001,-457.5824 112.486,-454.4288 112.9027,-461.6279 106.4177,-464.7814"/>
<text text-anchor="middle" x="82" y="-596.5" font-family="Helvetica,sans-Serif" font-size="10.00" fill="#000000"> +DummyTime</text>
</g>
<!-- Node5 -->
<g id="node4" class="node">
<title>Node5</title>
<g id="a_node4"><a xlink:href="../../d2/d5f/classunsigned_01int.html" target="_top" xlink:title="{unsigned int\n||}">
<polygon fill="none" stroke="#000000" points="85.5,-628.5 85.5,-685.5 162.5,-685.5 162.5,-628.5 85.5,-628.5"/>
<text text-anchor="middle" x="124" y="-673.5" font-family="Helvetica,sans-Serif" font-size="10.00" fill="#000000">unsigned int</text>
<polyline fill="none" stroke="#000000" points="85.5,-666.5 162.5,-666.5 "/>
<text text-anchor="middle" x="124" y="-654.5" font-family="Helvetica,sans-Serif" font-size="10.00" fill="#000000"> </text>
<polyline fill="none" stroke="#000000" points="85.5,-647.5 162.5,-647.5 "/>
<text text-anchor="middle" x="124" y="-635.5" font-family="Helvetica,sans-Serif" font-size="10.00" fill="#000000"> </text>
</a>
</g>
</g>
<!-- Node5&#45;&gt;Node3 -->
<g id="edge3" class="edge">
<title>Node5&#45;&gt;Node3</title>
<path fill="none" stroke="#404040" d="M123.1841,-628.3878C123.1467,-615.9444 123.5299,-601.2168 125,-588 125.2311,-585.9227 125.4723,-583.8363 125.7232,-581.7422"/>
<polygon fill="none" stroke="#404040" points="125.7444,-581.575 122.5354,-575.1173 127.2622,-569.6714 130.4712,-576.1291 125.7444,-581.575"/>
<text text-anchor="middle" x="162.5" y="-596.5" font-family="Helvetica,sans-Serif" font-size="10.00" fill="#000000"> +DummyOrbit</text>
</g>
<!-- Node6 -->
<g id="node5" class="node">
<title>Node6</title>
<polygon fill="none" stroke="#bfbfbf" points="191.5,-628.5 191.5,-685.5 252.5,-685.5 252.5,-628.5 191.5,-628.5"/>
<text text-anchor="middle" x="222" y="-673.5" font-family="Helvetica,sans-Serif" font-size="10.00" fill="#000000">unsigned</text>
<polyline fill="none" stroke="#bfbfbf" points="191.5,-666.5 252.5,-666.5 "/>
<text text-anchor="middle" x="222" y="-654.5" font-family="Helvetica,sans-Serif" font-size="10.00" fill="#000000"> </text>
<polyline fill="none" stroke="#bfbfbf" points="191.5,-647.5 252.5,-647.5 "/>
<text text-anchor="middle" x="222" y="-635.5" font-family="Helvetica,sans-Serif" font-size="10.00" fill="#000000"> </text>
</g>
<!-- Node6&#45;&gt;Node3 -->
<g id="edge4" class="edge">
<title>Node6&#45;&gt;Node3</title>
<path fill="none" stroke="#404040" d="M217.3017,-628.4744C215.2089,-615.7684 212.5404,-599.5667 209.5536,-581.4323"/>
<polygon fill="none" stroke="#404040" points="209.5519,-581.4217 204.6299,-576.1515 207.6016,-569.5812 212.5236,-574.8513 209.5519,-581.4217"/>
<text text-anchor="middle" x="229.5" y="-602" font-family="Helvetica,sans-Serif" font-size="10.00" fill="#000000"> +bc</text>
<text text-anchor="middle" x="229.5" y="-591" font-family="Helvetica,sans-Serif" font-size="10.00" fill="#000000">+orbit</text>
</g>
<!-- Node7 -->
<g id="node6" class="node">
<title>Node7</title>
<polygon fill="none" stroke="#bfbfbf" points="270.5,-628.5 270.5,-685.5 407.5,-685.5 407.5,-628.5 270.5,-628.5"/>
<text text-anchor="middle" x="339" y="-673.5" font-family="Helvetica,sans-Serif" font-size="10.00" fill="#000000">static constexpr uint16_t</text>
<polyline fill="none" stroke="#bfbfbf" points="270.5,-666.5 407.5,-666.5 "/>
<text text-anchor="middle" x="339" y="-654.5" font-family="Helvetica,sans-Serif" font-size="10.00" fill="#000000"> </text>
<polyline fill="none" stroke="#bfbfbf" points="270.5,-647.5 407.5,-647.5 "/>
<text text-anchor="middle" x="339" y="-635.5" font-family="Helvetica,sans-Serif" font-size="10.00" fill="#000000"> </text>
</g>
<!-- Node7&#45;&gt;Node3 -->
<g id="edge5" class="edge">
<title>Node7&#45;&gt;Node3</title>
<path fill="none" stroke="#404040" d="M298.5061,-628.1835C279.3905,-612.7967 257.6189,-592.4212 243,-570 241.9811,-568.4374 240.9758,-566.8585 239.9837,-565.2646"/>
<polygon fill="none" stroke="#404040" points="239.7456,-564.8625 233.2458,-561.7395 233.6287,-554.5386 240.1285,-557.6616 239.7456,-564.8625"/>
<text text-anchor="middle" x="308" y="-596.5" font-family="Helvetica,sans-Serif" font-size="10.00" fill="#000000"> +DummyBC</text>
</g>
<!-- Node8 -->
<g id="node7" class="node">
<title>Node8</title>
<polygon fill="none" stroke="#bfbfbf" points="252,-325.5 252,-393.5 390,-393.5 390,-325.5 252,-325.5"/>
<text text-anchor="start" x="260" y="-381.5" font-family="Helvetica,sans-Serif" font-size="10.00" fill="#000000">array&lt; ChannelBCDataF,</text>
<text text-anchor="middle" x="321" y="-370.5" font-family="Helvetica,sans-Serif" font-size="10.00" fill="#000000"> Nchannels &gt;</text>
<polyline fill="none" stroke="#bfbfbf" points="252,-363.5 390,-363.5 "/>
<text text-anchor="middle" x="321" y="-351.5" font-family="Helvetica,sans-Serif" font-size="10.00" fill="#000000"> </text>
<polyline fill="none" stroke="#bfbfbf" points="252,-344.5 390,-344.5 "/>
<text text-anchor="middle" x="321" y="-332.5" font-family="Helvetica,sans-Serif" font-size="10.00" fill="#000000"> </text>
</g>
<!-- Node8&#45;&gt;Node2 -->
<g id="edge6" class="edge">
<title>Node8&#45;&gt;Node2</title>
<path fill="none" stroke="#404040" d="M321,-325.3064C321,-274.4189 321,-177.9096 321,-114.0106"/>
<polygon fill="none" stroke="#404040" points="321.0001,-113.6887 317,-107.6888 321,-101.6887 325,-107.6887 321.0001,-113.6887"/>
<text text-anchor="middle" x="340" y="-123" font-family="Helvetica,sans-Serif" font-size="10.00" fill="#000000"> +pulse</text>
</g>
<!-- Node9 -->
<g id="node8" class="node">
<title>Node9</title>
<polygon fill="none" stroke="#bfbfbf" points="408.5,-331 408.5,-388 559.5,-388 559.5,-331 408.5,-331"/>
<text text-anchor="middle" x="484" y="-376" font-family="Helvetica,sans-Serif" font-size="10.00" fill="#000000">vector&lt; o2::fdd::MCLabel &gt;</text>
<polyline fill="none" stroke="#bfbfbf" points="408.5,-369 559.5,-369 "/>
<text text-anchor="middle" x="484" y="-357" font-family="Helvetica,sans-Serif" font-size="10.00" fill="#000000"> </text>
<polyline fill="none" stroke="#bfbfbf" points="408.5,-350 559.5,-350 "/>
<text text-anchor="middle" x="484" y="-338" font-family="Helvetica,sans-Serif" font-size="10.00" fill="#000000"> </text>
</g>
<!-- Node9&#45;&gt;Node2 -->
<g id="edge7" class="edge">
<title>Node9&#45;&gt;Node2</title>
<path fill="none" stroke="#404040" d="M475.3138,-330.7135C462.0915,-289.0134 434.6425,-210.11 399,-149 391.5224,-136.1794 382.4875,-123.2289 373.2573,-111.1292"/>
<polygon fill="none" stroke="#404040" points="373.2232,-111.0855 366.3781,-108.8174 365.839,-101.6265 372.6841,-103.8946 373.2232,-111.0855"/>
<text text-anchor="middle" x="407.5" y="-123" font-family="Helvetica,sans-Serif" font-size="10.00" fill="#000000"> +labels</text>
</g>
</g>
</svg>
