<?xml version="1.0" encoding="UTF-8" standalone="no"?>
<!DOCTYPE svg PUBLIC "-//W3C//DTD SVG 1.1//EN"
 "http://www.w3.org/Graphics/SVG/1.1/DTD/svg11.dtd">
<!-- Generated by graphviz version 2.40.1 (20161225.0304)
 -->
<!-- Title: o2::vertexing::PVertexerParams Pages: 1 -->
<svg width="644pt" height="1169pt"
 viewBox="0.00 0.00 644.00 1169.00" xmlns="http://www.w3.org/2000/svg" xmlns:xlink="http://www.w3.org/1999/xlink">
<g id="graph0" class="graph" transform="scale(1 1) rotate(0) translate(4 1165)">
<title>o2::vertexing::PVertexerParams</title>
<!-- Node4 -->
<g id="node1" class="node">
<title>Node4</title>
<polygon fill="#bfbfbf" stroke="#000000" points="122.5,-.5 122.5,-90.5 265.5,-90.5 265.5,-.5 122.5,-.5"/>
<text text-anchor="start" x="130.5" y="-78.5" font-family="Helvetica,sans-Serif" font-size="10.00" fill="#000000">o2::vertexing::PVertexer</text>
<text text-anchor="middle" x="194" y="-67.5" font-family="Helvetica,sans-Serif" font-size="10.00" fill="#000000">Params</text>
<polyline fill="none" stroke="#000000" points="122.5,-60.5 265.5,-60.5 "/>
<text text-anchor="start" x="130.5" y="-48.5" font-family="Helvetica,sans-Serif" font-size="10.00" fill="#000000">+ tukey</text>
<text text-anchor="start" x="130.5" y="-37.5" font-family="Helvetica,sans-Serif" font-size="10.00" fill="#000000">+ minScale2</text>
<text text-anchor="start" x="130.5" y="-26.5" font-family="Helvetica,sans-Serif" font-size="10.00" fill="#000000">+ slowConvergenceFactor</text>
<polyline fill="none" stroke="#000000" points="122.5,-19.5 265.5,-19.5 "/>
<text text-anchor="start" x="130.5" y="-7.5" font-family="Helvetica,sans-Serif" font-size="10.00" fill="#000000">+ O2ParamDef()</text>
</g>
<!-- Node5 -->
<g id="node2" class="node">
<title>Node5</title>
<g id="a_node2"><a xlink:href="../../d7/d50/classo2_1_1conf_1_1ConfigurableParamHelper.html" target="_top" xlink:title="{o2::conf::ConfigurableParam\lHelper\&lt; PVertexerParams \&gt;\n||+ getName()\l+ printKeyValues()\l+ output()\l+ getDataMembers()\l+ putKeyValues()\l+ initFrom()\l+ serializeTo()\l+ Instance()\l}">
<polygon fill="none" stroke="#000000" points="34.5,-248.5 34.5,-393.5 189.5,-393.5 189.5,-248.5 34.5,-248.5"/>
<text text-anchor="start" x="42.5" y="-381.5" font-family="Helvetica,sans-Serif" font-size="10.00" fill="#000000">o2::conf::ConfigurableParam</text>
<text text-anchor="middle" x="112" y="-370.5" font-family="Helvetica,sans-Serif" font-size="10.00" fill="#000000">Helper&lt; PVertexerParams &gt;</text>
<polyline fill="none" stroke="#000000" points="34.5,-363.5 189.5,-363.5 "/>
<text text-anchor="middle" x="112" y="-351.5" font-family="Helvetica,sans-Serif" font-size="10.00" fill="#000000"> </text>
<polyline fill="none" stroke="#000000" points="34.5,-344.5 189.5,-344.5 "/>
<text text-anchor="start" x="42.5" y="-332.5" font-family="Helvetica,sans-Serif" font-size="10.00" fill="#000000">+ getName()</text>
<text text-anchor="start" x="42.5" y="-321.5" font-family="Helvetica,sans-Serif" font-size="10.00" fill="#000000">+ printKeyValues()</text>
<text text-anchor="start" x="42.5" y="-310.5" font-family="Helvetica,sans-Serif" font-size="10.00" fill="#000000">+ output()</text>
<text text-anchor="start" x="42.5" y="-299.5" font-family="Helvetica,sans-Serif" font-size="10.00" fill="#000000">+ getDataMembers()</text>
<text text-anchor="start" x="42.5" y="-288.5" font-family="Helvetica,sans-Serif" font-size="10.00" fill="#000000">+ putKeyValues()</text>
<text text-anchor="start" x="42.5" y="-277.5" font-family="Helvetica,sans-Serif" font-size="10.00" fill="#000000">+ initFrom()</text>
<text text-anchor="start" x="42.5" y="-266.5" font-family="Helvetica,sans-Serif" font-size="10.00" fill="#000000">+ serializeTo()</text>
<text text-anchor="start" x="42.5" y="-255.5" font-family="Helvetica,sans-Serif" font-size="10.00" fill="#000000">+ Instance()</text>
</a>
</g>
</g>
<!-- Node5&#45;&gt;Node4 -->
<g id="edge1" class="edge">
<title>Node5&#45;&gt;Node4</title>
<path fill="none" stroke="#191970" d="M136.5849,-238.4009C151.0143,-189.9215 168.6928,-130.5261 180.5895,-90.556"/>
<polygon fill="none" stroke="#191970" points="133.15,-237.6723 133.6518,-248.2552 139.8592,-239.6693 133.15,-237.6723"/>
</g>
<!-- Node6 -->
<g id="node3" class="node">
<title>Node6</title>
<g id="a_node3"><a xlink:href="../../d6/d14/classo2_1_1conf_1_1ConfigurableParam.html" target="_top" xlink:title="{o2::conf::ConfigurableParam\n||+ getName()\l+ printKeyValues()\l+ toString()\l+ printAllRegisteredParamNames()\l+ printAllKeyValuePairs()\l+ readINI()\l+ readJSON()\l+ readConfigFile()\l+ writeJSON()\l+ writeINI()\l+ getValueAs()\l+ setValue()\l+ setValue()\l+ setEnumValue()\l+ setArrayValue()\l+ setValues()\l+ initialize()\l+ toCCDB()\l+ fromCCDB()\l+ updateFromString()\l+ updateFromFile()\l# ConfigurableParam()\l# ~ConfigurableParam()\l# putKeyValues()\l# output()\l# serializeTo()\l# initFrom()\l# setRegisterMode()\l# isInitialized()\l# initPropertyTree()\l# updateThroughStorageMap()\l# updateThroughStorageMapWith\lConversion()\l}">
<polygon fill="none" stroke="#000000" points="34,-624.5 34,-1033.5 222,-1033.5 222,-624.5 34,-624.5"/>
<text text-anchor="middle" x="128" y="-1021.5" font-family="Helvetica,sans-Serif" font-size="10.00" fill="#000000">o2::conf::ConfigurableParam</text>
<polyline fill="none" stroke="#000000" points="34,-1014.5 222,-1014.5 "/>
<text text-anchor="middle" x="128" y="-1002.5" font-family="Helvetica,sans-Serif" font-size="10.00" fill="#000000"> </text>
<polyline fill="none" stroke="#000000" points="34,-995.5 222,-995.5 "/>
<text text-anchor="start" x="42" y="-983.5" font-family="Helvetica,sans-Serif" font-size="10.00" fill="#000000">+ getName()</text>
<text text-anchor="start" x="42" y="-972.5" font-family="Helvetica,sans-Serif" font-size="10.00" fill="#000000">+ printKeyValues()</text>
<text text-anchor="start" x="42" y="-961.5" font-family="Helvetica,sans-Serif" font-size="10.00" fill="#000000">+ toString()</text>
<text text-anchor="start" x="42" y="-950.5" font-family="Helvetica,sans-Serif" font-size="10.00" fill="#000000">+ printAllRegisteredParamNames()</text>
<text text-anchor="start" x="42" y="-939.5" font-family="Helvetica,sans-Serif" font-size="10.00" fill="#000000">+ printAllKeyValuePairs()</text>
<text text-anchor="start" x="42" y="-928.5" font-family="Helvetica,sans-Serif" font-size="10.00" fill="#000000">+ readINI()</text>
<text text-anchor="start" x="42" y="-917.5" font-family="Helvetica,sans-Serif" font-size="10.00" fill="#000000">+ readJSON()</text>
<text text-anchor="start" x="42" y="-906.5" font-family="Helvetica,sans-Serif" font-size="10.00" fill="#000000">+ readConfigFile()</text>
<text text-anchor="start" x="42" y="-895.5" font-family="Helvetica,sans-Serif" font-size="10.00" fill="#000000">+ writeJSON()</text>
<text text-anchor="start" x="42" y="-884.5" font-family="Helvetica,sans-Serif" font-size="10.00" fill="#000000">+ writeINI()</text>
<text text-anchor="start" x="42" y="-873.5" font-family="Helvetica,sans-Serif" font-size="10.00" fill="#000000">+ getValueAs()</text>
<text text-anchor="start" x="42" y="-862.5" font-family="Helvetica,sans-Serif" font-size="10.00" fill="#000000">+ setValue()</text>
<text text-anchor="start" x="42" y="-851.5" font-family="Helvetica,sans-Serif" font-size="10.00" fill="#000000">+ setValue()</text>
<text text-anchor="start" x="42" y="-840.5" font-family="Helvetica,sans-Serif" font-size="10.00" fill="#000000">+ setEnumValue()</text>
<text text-anchor="start" x="42" y="-829.5" font-family="Helvetica,sans-Serif" font-size="10.00" fill="#000000">+ setArrayValue()</text>
<text text-anchor="start" x="42" y="-818.5" font-family="Helvetica,sans-Serif" font-size="10.00" fill="#000000">+ setValues()</text>
<text text-anchor="start" x="42" y="-807.5" font-family="Helvetica,sans-Serif" font-size="10.00" fill="#000000">+ initialize()</text>
<text text-anchor="start" x="42" y="-796.5" font-family="Helvetica,sans-Serif" font-size="10.00" fill="#000000">+ toCCDB()</text>
<text text-anchor="start" x="42" y="-785.5" font-family="Helvetica,sans-Serif" font-size="10.00" fill="#000000">+ fromCCDB()</text>
<text text-anchor="start" x="42" y="-774.5" font-family="Helvetica,sans-Serif" font-size="10.00" fill="#000000">+ updateFromString()</text>
<text text-anchor="start" x="42" y="-763.5" font-family="Helvetica,sans-Serif" font-size="10.00" fill="#000000">+ updateFromFile()</text>
<text text-anchor="start" x="42" y="-752.5" font-family="Helvetica,sans-Serif" font-size="10.00" fill="#000000"># ConfigurableParam()</text>
<text text-anchor="start" x="42" y="-741.5" font-family="Helvetica,sans-Serif" font-size="10.00" fill="#000000"># ~ConfigurableParam()</text>
<text text-anchor="start" x="42" y="-730.5" font-family="Helvetica,sans-Serif" font-size="10.00" fill="#000000"># putKeyValues()</text>
<text text-anchor="start" x="42" y="-719.5" font-family="Helvetica,sans-Serif" font-size="10.00" fill="#000000"># output()</text>
<text text-anchor="start" x="42" y="-708.5" font-family="Helvetica,sans-Serif" font-size="10.00" fill="#000000"># serializeTo()</text>
<text text-anchor="start" x="42" y="-697.5" font-family="Helvetica,sans-Serif" font-size="10.00" fill="#000000"># initFrom()</text>
<text text-anchor="start" x="42" y="-686.5" font-family="Helvetica,sans-Serif" font-size="10.00" fill="#000000"># setRegisterMode()</text>
<text text-anchor="start" x="42" y="-675.5" font-family="Helvetica,sans-Serif" font-size="10.00" fill="#000000"># isInitialized()</text>
<text text-anchor="start" x="42" y="-664.5" font-family="Helvetica,sans-Serif" font-size="10.00" fill="#000000"># initPropertyTree()</text>
<text text-anchor="start" x="42" y="-653.5" font-family="Helvetica,sans-Serif" font-size="10.00" fill="#000000"># updateThroughStorageMap()</text>
<text text-anchor="start" x="42" y="-642.5" font-family="Helvetica,sans-Serif" font-size="10.00" fill="#000000"># updateThroughStorageMapWith</text>
<text text-anchor="start" x="42" y="-631.5" font-family="Helvetica,sans-Serif" font-size="10.00" fill="#000000">Conversion()</text>
</a>
</g>
</g>
<!-- Node6&#45;&gt;Node5 -->
<g id="edge2" class="edge">
<title>Node6&#45;&gt;Node5</title>
<path fill="none" stroke="#191970" d="M119.893,-614.3125C119.5833,-605.0845 119.2842,-595.9493 119,-587 116.9218,-521.5494 114.9989,-447.0257 113.6964,-393.5436"/>
<polygon fill="none" stroke="#191970" points="116.3967,-614.4822 120.233,-624.3581 123.3927,-614.2454 116.3967,-614.4822"/>
</g>
<!-- Node8 -->
<g id="node5" class="node">
<title>Node8</title>
<g id="a_node5"><a xlink:href="../../d7/d50/classo2_1_1conf_1_1ConfigurableParamHelper.html" target="_top" xlink:title="{o2::conf::ConfigurableParam\lHelper\&lt; P \&gt;\n||+ getName()\l+ printKeyValues()\l+ output()\l+ getDataMembers()\l+ putKeyValues()\l+ initFrom()\l+ serializeTo()\l+ Instance()\l}">
<polygon fill="none" stroke="#000000" points="128,-441.5 128,-586.5 282,-586.5 282,-441.5 128,-441.5"/>
<text text-anchor="start" x="136" y="-574.5" font-family="Helvetica,sans-Serif" font-size="10.00" fill="#000000">o2::conf::ConfigurableParam</text>
<text text-anchor="middle" x="205" y="-563.5" font-family="Helvetica,sans-Serif" font-size="10.00" fill="#000000">Helper&lt; P &gt;</text>
<polyline fill="none" stroke="#000000" points="128,-556.5 282,-556.5 "/>
<text text-anchor="middle" x="205" y="-544.5" font-family="Helvetica,sans-Serif" font-size="10.00" fill="#000000"> </text>
<polyline fill="none" stroke="#000000" points="128,-537.5 282,-537.5 "/>
<text text-anchor="start" x="136" y="-525.5" font-family="Helvetica,sans-Serif" font-size="10.00" fill="#000000">+ getName()</text>
<text text-anchor="start" x="136" y="-514.5" font-family="Helvetica,sans-Serif" font-size="10.00" fill="#000000">+ printKeyValues()</text>
<text text-anchor="start" x="136" y="-503.5" font-family="Helvetica,sans-Serif" font-size="10.00" fill="#000000">+ output()</text>
<text text-anchor="start" x="136" y="-492.5" font-family="Helvetica,sans-Serif" font-size="10.00" fill="#000000">+ getDataMembers()</text>
<text text-anchor="start" x="136" y="-481.5" font-family="Helvetica,sans-Serif" font-size="10.00" fill="#000000">+ putKeyValues()</text>
<text text-anchor="start" x="136" y="-470.5" font-family="Helvetica,sans-Serif" font-size="10.00" fill="#000000">+ initFrom()</text>
<text text-anchor="start" x="136" y="-459.5" font-family="Helvetica,sans-Serif" font-size="10.00" fill="#000000">+ serializeTo()</text>
<text text-anchor="start" x="136" y="-448.5" font-family="Helvetica,sans-Serif" font-size="10.00" fill="#000000">+ Instance()</text>
</a>
</g>
</g>
<!-- Node6&#45;&gt;Node8 -->
<g id="edge5" class="edge">
<title>Node6&#45;&gt;Node8</title>
<path fill="none" stroke="#191970" d="M180.4581,-614.3986C182.8216,-604.7297 185.104,-595.3928 187.2621,-586.5639"/>
<polygon fill="none" stroke="#191970" points="177.0438,-613.6266 178.0691,-624.1717 183.8436,-615.2888 177.0438,-613.6266"/>
</g>
<!-- Node7 -->
<g id="node4" class="node">
<title>Node7</title>
<polygon fill="none" stroke="#bfbfbf" points="0,-1103.5 0,-1160.5 44,-1160.5 44,-1103.5 0,-1103.5"/>
<text text-anchor="middle" x="22" y="-1148.5" font-family="Helvetica,sans-Serif" font-size="10.00" fill="#000000">static</text>
<polyline fill="none" stroke="#bfbfbf" points="0,-1141.5 44,-1141.5 "/>
<text text-anchor="middle" x="22" y="-1129.5" font-family="Helvetica,sans-Serif" font-size="10.00" fill="#000000"> </text>
<polyline fill="none" stroke="#bfbfbf" points="0,-1122.5 44,-1122.5 "/>
<text text-anchor="middle" x="22" y="-1110.5" font-family="Helvetica,sans-Serif" font-size="10.00" fill="#000000"> </text>
</g>
<!-- Node7&#45;&gt;Node4 -->
<g id="edge9" class="edge">
<title>Node7&#45;&gt;Node4</title>
<path fill="none" stroke="#404040" d="M19.4648,-1103.1999C14.9532,-1049.3837 6,-929.8773 6,-829 6,-829 6,-829 6,-321 6,-231.455 74.6006,-149.5633 128.9231,-98.7533"/>
<polygon fill="none" stroke="#404040" points="129.0081,-98.6753 130.7234,-91.6712 137.8485,-90.5606 136.1332,-97.5647 129.0081,-98.6753"/>
<text text-anchor="middle" x="38" y="-511.5" font-family="Helvetica,sans-Serif" font-size="10.00" fill="#000000"> +kDefTukey</text>
</g>
<!-- Node7&#45;&gt;Node6 -->
<g id="edge3" class="edge">
<title>Node7&#45;&gt;Node6</title>
<path fill="none" stroke="#404040" d="M31.9722,-1103.4945C37.3313,-1088.1756 44.4745,-1067.7568 52.4561,-1044.9416"/>
<polygon fill="none" stroke="#404040" points="52.4749,-1044.8877 50.6805,-1037.9034 56.4375,-1033.5608 58.2318,-1040.5451 52.4749,-1044.8877"/>
<text text-anchor="middle" x="107" y="-1077" font-family="Helvetica,sans-Serif" font-size="10.00" fill="#000000"> #sEnumRegistry</text>
<text text-anchor="middle" x="107" y="-1066" font-family="Helvetica,sans-Serif" font-size="10.00" fill="#000000">#sValueProvenanceMap</text>
<text text-anchor="middle" x="107" y="-1055" font-family="Helvetica,sans-Serif" font-size="10.00" fill="#000000">#sKeyToStorageMap</text>
</g>
<!-- Node8&#45;&gt;Node5 -->
<g id="edge4" class="edge">
<title>Node8&#45;&gt;Node5</title>
<path fill="none" stroke="#ffa500" d="M165.526,-432.0808C159.3688,-419.3031 153.0435,-406.1763 146.9952,-393.6245"/>
<polygon fill="#ffa500" stroke="#ffa500" points="162.4792,-433.8207 169.9732,-441.31 168.7852,-430.782 162.4792,-433.8207"/>
<text text-anchor="middle" x="213.5" y="-415" font-family="Helvetica,sans-Serif" font-size="10.00" fill="#000000"> &lt; PVertexerParams &gt;</text>
</g>
<!-- Node9 -->
<g id="node6" class="node">
<title>Node9</title>
<g id="a_node6"><a xlink:href="../../d4/dc3/classfloat.html" target="_top" xlink:title="{float\n||}">
<polygon fill="none" stroke="#000000" points="208,-292.5 208,-349.5 246,-349.5 246,-292.5 208,-292.5"/>
<text text-anchor="middle" x="227" y="-337.5" font-family="Helvetica,sans-Serif" font-size="10.00" fill="#000000">float</text>
<polyline fill="none" stroke="#000000" points="208,-330.5 246,-330.5 "/>
<text text-anchor="middle" x="227" y="-318.5" font-family="Helvetica,sans-Serif" font-size="10.00" fill="#000000"> </text>
<polyline fill="none" stroke="#000000" points="208,-311.5 246,-311.5 "/>
<text text-anchor="middle" x="227" y="-299.5" font-family="Helvetica,sans-Serif" font-size="10.00" fill="#000000"> </text>
</a>
</g>
</g>
<!-- Node9&#45;&gt;Node4 -->
<g id="edge6" class="edge">
<title>Node9&#45;&gt;Node4</title>
<path fill="none" stroke="#404040" d="M215.6807,-292.1524C207.343,-270.3328 197.1041,-242.1278 195,-230 187.7021,-187.9348 187.7323,-139.6591 189.4383,-103.0424"/>
<polygon fill="none" stroke="#404040" points="189.4624,-102.5891 185.788,-96.3843 190.1023,-90.6061 193.7767,-96.8109 189.4624,-102.5891"/>
<text text-anchor="middle" x="242" y="-222" font-family="Helvetica,sans-Serif" font-size="10.00" fill="#000000"> +nSigmaFT0cut</text>
<text text-anchor="middle" x="242" y="-211" font-family="Helvetica,sans-Serif" font-size="10.00" fill="#000000">+upscaleFactor</text>
<text text-anchor="middle" x="242" y="-200" font-family="Helvetica,sans-Serif" font-size="10.00" fill="#000000">+maxChi2Mean</text>
<text text-anchor="middle" x="242" y="-189" font-family="Helvetica,sans-Serif" font-size="10.00" fill="#000000">+zHistoBinSize</text>
<text text-anchor="middle" x="242" y="-178" font-family="Helvetica,sans-Serif" font-size="10.00" fill="#000000">+acceptableScale2</text>
<text text-anchor="middle" x="242" y="-167" font-family="Helvetica,sans-Serif" font-size="10.00" fill="#000000">+zHistoRange</text>
<text text-anchor="middle" x="242" y="-156" font-family="Helvetica,sans-Serif" font-size="10.00" fill="#000000">+minZSeedRange</text>
<text text-anchor="middle" x="242" y="-145" font-family="Helvetica,sans-Serif" font-size="10.00" fill="#000000">+minTError</text>
<text text-anchor="middle" x="242" y="-134" font-family="Helvetica,sans-Serif" font-size="10.00" fill="#000000">+maxTError</text>
<text text-anchor="middle" x="242" y="-123" font-family="Helvetica,sans-Serif" font-size="10.00" fill="#000000">+maxScale2</text>
<text text-anchor="middle" x="242" y="-112" font-family="Helvetica,sans-Serif" font-size="10.00" fill="#000000">...</text>
</g>
<!-- Node10 -->
<g id="node7" class="node">
<title>Node10</title>
<polygon fill="none" stroke="#bfbfbf" points="296.5,-292.5 296.5,-349.5 325.5,-349.5 325.5,-292.5 296.5,-292.5"/>
<text text-anchor="middle" x="311" y="-337.5" font-family="Helvetica,sans-Serif" font-size="10.00" fill="#000000">int</text>
<polyline fill="none" stroke="#bfbfbf" points="296.5,-330.5 325.5,-330.5 "/>
<text text-anchor="middle" x="311" y="-318.5" font-family="Helvetica,sans-Serif" font-size="10.00" fill="#000000"> </text>
<polyline fill="none" stroke="#bfbfbf" points="296.5,-311.5 325.5,-311.5 "/>
<text text-anchor="middle" x="311" y="-299.5" font-family="Helvetica,sans-Serif" font-size="10.00" fill="#000000"> </text>
</g>
<!-- Node10&#45;&gt;Node4 -->
<g id="edge7" class="edge">
<title>Node10&#45;&gt;Node4</title>
<path fill="none" stroke="#404040" d="M310.99,-292.3948C310.4938,-241.8403 307.1963,-139.1852 289,-109 285.1017,-102.5332 280.2625,-96.5856 274.8483,-91.1459"/>
<polygon fill="none" stroke="#404040" points="274.7917,-91.0943 267.6623,-90.0114 265.9198,-83.014 273.0492,-84.0968 274.7917,-91.0943"/>
<text text-anchor="middle" x="383.5" y="-189" font-family="Helvetica,sans-Serif" font-size="10.00" fill="#000000"> +minTracksPerVtx</text>
<text text-anchor="middle" x="383.5" y="-178" font-family="Helvetica,sans-Serif" font-size="10.00" fill="#000000">+maxIterations</text>
<text text-anchor="middle" x="383.5" y="-167" font-family="Helvetica,sans-Serif" font-size="10.00" fill="#000000">+minNContributorsForFT0cut</text>
<text text-anchor="middle" x="383.5" y="-156" font-family="Helvetica,sans-Serif" font-size="10.00" fill="#000000">+maxNScaleIncreased</text>
<text text-anchor="middle" x="383.5" y="-145" font-family="Helvetica,sans-Serif" font-size="10.00" fill="#000000">+maxNScaleSlowConvergence</text>
</g>
<!-- Node11 -->
<g id="node8" class="node">
<title>Node11</title>
<polygon fill="none" stroke="#bfbfbf" points="466,-292.5 466,-349.5 504,-349.5 504,-292.5 466,-292.5"/>
<text text-anchor="middle" x="485" y="-337.5" font-family="Helvetica,sans-Serif" font-size="10.00" fill="#000000">bool</text>
<polyline fill="none" stroke="#bfbfbf" points="466,-330.5 504,-330.5 "/>
<text text-anchor="middle" x="485" y="-318.5" font-family="Helvetica,sans-Serif" font-size="10.00" fill="#000000"> </text>
<polyline fill="none" stroke="#bfbfbf" points="466,-311.5 504,-311.5 "/>
<text text-anchor="middle" x="485" y="-299.5" font-family="Helvetica,sans-Serif" font-size="10.00" fill="#000000"> </text>
</g>
<!-- Node11&#45;&gt;Node4 -->
<g id="edge8" class="edge">
<title>Node11&#45;&gt;Node4</title>
<path fill="none" stroke="#404040" d="M491.4264,-292.2586C499.6529,-247.2823 507.9558,-160.1338 463,-109 438.79,-81.4629 347.621,-64.1738 278.0658,-54.7106"/>
<polygon fill="none" stroke="#404040" points="277.6869,-54.6607 271.215,-57.841 265.7901,-53.0902 272.262,-49.9098 277.6869,-54.6607"/>
<text text-anchor="middle" x="566.5" y="-172.5" font-family="Helvetica,sans-Serif" font-size="10.00" fill="#000000"> +requireFT0ValidTimeMean</text>
<text text-anchor="middle" x="566.5" y="-161.5" font-family="Helvetica,sans-Serif" font-size="10.00" fill="#000000">+useTimeInChi2</text>
</g>
</g>
</svg>
