<?xml version="1.0" encoding="UTF-8" standalone="no"?>
<!DOCTYPE svg PUBLIC "-//W3C//DTD SVG 1.1//EN"
 "http://www.w3.org/Graphics/SVG/1.1/DTD/svg11.dtd">
<!-- Generated by graphviz version 2.40.1 (20161225.0304)
 -->
<!-- Title: o2::framework::InputObjectRoute Pages: 1 -->
<svg width="298pt" height="193pt"
 viewBox="0.00 0.00 297.50 193.00" xmlns="http://www.w3.org/2000/svg" xmlns:xlink="http://www.w3.org/1999/xlink">
<g id="graph0" class="graph" transform="scale(1 1) rotate(0) translate(4 189)">
<title>o2::framework::InputObjectRoute</title>
<!-- Node1 -->
<g id="node1" class="node">
<title>Node1</title>
<polygon fill="#bfbfbf" stroke="#000000" points="96.5,-.5 96.5,-68.5 246.5,-68.5 246.5,-.5 96.5,-.5"/>
<text text-anchor="start" x="104.5" y="-56.5" font-family="Helvetica,sans-Serif" font-size="10.00" fill="#000000">o2::framework::InputObject</text>
<text text-anchor="middle" x="171.5" y="-45.5" font-family="Helvetica,sans-Serif" font-size="10.00" fill="#000000">Route</text>
<polyline fill="none" stroke="#000000" points="96.5,-38.5 246.5,-38.5 "/>
<text text-anchor="middle" x="171.5" y="-26.5" font-family="Helvetica,sans-Serif" font-size="10.00" fill="#000000"> </text>
<polyline fill="none" stroke="#000000" points="96.5,-19.5 246.5,-19.5 "/>
<text text-anchor="middle" x="171.5" y="-7.5" font-family="Helvetica,sans-Serif" font-size="10.00" fill="#000000"> </text>
</g>
<!-- Node2 -->
<g id="node2" class="node">
<title>Node2</title>
<polygon fill="none" stroke="#bfbfbf" points="0,-127.5 0,-184.5 139,-184.5 139,-127.5 0,-127.5"/>
<text text-anchor="middle" x="69.5" y="-172.5" font-family="Helvetica,sans-Serif" font-size="10.00" fill="#000000">OutputObjHandlingPolicy</text>
<polyline fill="none" stroke="#bfbfbf" points="0,-165.5 139,-165.5 "/>
<text text-anchor="middle" x="69.5" y="-153.5" font-family="Helvetica,sans-Serif" font-size="10.00" fill="#000000"> </text>
<polyline fill="none" stroke="#bfbfbf" points="0,-146.5 139,-146.5 "/>
<text text-anchor="middle" x="69.5" y="-134.5" font-family="Helvetica,sans-Serif" font-size="10.00" fill="#000000"> </text>
</g>
<!-- Node2&#45;&gt;Node1 -->
<g id="edge1" class="edge">
<title>Node2&#45;&gt;Node1</title>
<path fill="none" stroke="#404040" d="M92.9566,-127.3683C103.2042,-114.9214 115.3952,-100.1965 126.5,-87 129.012,-84.0148 131.6115,-80.9414 134.2358,-77.8504"/>
<polygon fill="none" stroke="#404040" points="134.3385,-77.7297 135.1843,-70.5683 142.1201,-68.5946 141.2743,-75.756 134.3385,-77.7297"/>
<text text-anchor="middle" x="147" y="-95.5" font-family="Helvetica,sans-Serif" font-size="10.00" fill="#000000"> +policy</text>
</g>
<!-- Node3 -->
<g id="node3" class="node">
<title>Node3</title>
<polygon fill="none" stroke="#bfbfbf" points="157,-127.5 157,-184.5 186,-184.5 186,-127.5 157,-127.5"/>
<text text-anchor="middle" x="171.5" y="-172.5" font-family="Helvetica,sans-Serif" font-size="10.00" fill="#000000">int</text>
<polyline fill="none" stroke="#bfbfbf" points="157,-165.5 186,-165.5 "/>
<text text-anchor="middle" x="171.5" y="-153.5" font-family="Helvetica,sans-Serif" font-size="10.00" fill="#000000"> </text>
<polyline fill="none" stroke="#bfbfbf" points="157,-146.5 186,-146.5 "/>
<text text-anchor="middle" x="171.5" y="-134.5" font-family="Helvetica,sans-Serif" font-size="10.00" fill="#000000"> </text>
</g>
<!-- Node3&#45;&gt;Node1 -->
<g id="edge2" class="edge">
<title>Node3&#45;&gt;Node1</title>
<path fill="none" stroke="#404040" d="M171.5,-127.2062C171.5,-113.3632 171.5,-96.4255 171.5,-80.8327"/>
<polygon fill="none" stroke="#404040" points="171.5001,-80.7007 167.5,-74.7008 171.5,-68.7007 175.5,-74.7007 171.5001,-80.7007"/>
<text text-anchor="middle" x="197.5" y="-101" font-family="Helvetica,sans-Serif" font-size="10.00" fill="#000000"> +name</text>
<text text-anchor="middle" x="197.5" y="-90" font-family="Helvetica,sans-Serif" font-size="10.00" fill="#000000">+directory</text>
</g>
<!-- Node4 -->
<g id="node4" class="node">
<title>Node4</title>
<polygon fill="none" stroke="#bfbfbf" points="216,-127.5 216,-184.5 277,-184.5 277,-127.5 216,-127.5"/>
<text text-anchor="middle" x="246.5" y="-172.5" font-family="Helvetica,sans-Serif" font-size="10.00" fill="#000000">unsigned</text>
<polyline fill="none" stroke="#bfbfbf" points="216,-165.5 277,-165.5 "/>
<text text-anchor="middle" x="246.5" y="-153.5" font-family="Helvetica,sans-Serif" font-size="10.00" fill="#000000"> </text>
<polyline fill="none" stroke="#bfbfbf" points="216,-146.5 277,-146.5 "/>
<text text-anchor="middle" x="246.5" y="-134.5" font-family="Helvetica,sans-Serif" font-size="10.00" fill="#000000"> </text>
</g>
<!-- Node4&#45;&gt;Node1 -->
<g id="edge3" class="edge">
<title>Node4&#45;&gt;Node1</title>
<path fill="none" stroke="#404040" d="M240.7013,-127.4849C237.2566,-114.508 232.0502,-99.3315 224.5,-87 222.6001,-83.8969 220.4788,-80.8426 218.2078,-77.8638"/>
<polygon fill="none" stroke="#404040" points="218.2076,-77.8635 211.295,-75.8101 210.5318,-68.6395 217.4444,-70.6929 218.2076,-77.8635"/>
<text text-anchor="middle" x="262" y="-101" font-family="Helvetica,sans-Serif" font-size="10.00" fill="#000000"> +uniqueId</text>
<text text-anchor="middle" x="262" y="-90" font-family="Helvetica,sans-Serif" font-size="10.00" fill="#000000">+taskHash</text>
</g>
</g>
</svg>
