<?xml version="1.0" encoding="UTF-8" standalone="no"?>
<!DOCTYPE svg PUBLIC "-//W3C//DTD SVG 1.1//EN"
 "http://www.w3.org/Graphics/SVG/1.1/DTD/svg11.dtd">
<!-- Generated by graphviz version 2.40.1 (20161225.0304)
 -->
<!-- Title: /home/travis/build/AliceO2Group/AliceO2/GPU/GPUTracking/TPCClusterFinder/MCLabelAccumulator.cxx Pages: 1 -->
<!--zoomable 520 -->
<svg id="main" version="1.1" xmlns="http://www.w3.org/2000/svg" xmlns:xlink="http://www.w3.org/1999/xlink" xml:space="preserve" onload="init(evt)">
<style type="text/css"><![CDATA[
.edge:hover path { stroke: red; }
.edge:hover polygon { stroke: red; fill: red; }
]]></style>
<script type="text/javascript"><![CDATA[
var edges = document.getElementsByTagName('g');
if (edges && edges.length) {
  for (var i=0;i<edges.length;i++) {
    if (edges[i].id.substr(0,4)=='edge') {
      edges[i].setAttribute('class','edge');
    }
  }
}
]]></script>
        <defs>
                <circle id="rim" cx="0" cy="0" r="7"/>
                <circle id="rim2" cx="0" cy="0" r="3.5"/>
                <g id="zoomPlus">
                        <use xlink:href="#rim" fill="#404040">
                                <set attributeName="fill" to="#808080" begin="zoomplus.mouseover" end="zoomplus.mouseout"/>
                        </use>
                        <path d="M-4,0h8M0,-4v8" fill="none" stroke="white" stroke-width="1.5" pointer-events="none"/>
                </g>
                <g id="zoomMin">
                        <use xlink:href="#rim" fill="#404040">
                                <set attributeName="fill" to="#808080" begin="zoomminus.mouseover" end="zoomminus.mouseout"/>
                        </use>
                        <path d="M-4,0h8" fill="none" stroke="white" stroke-width="1.5" pointer-events="none"/>
                </g>
                <g id="dirArrow">
                        <path fill="none" stroke="white" stroke-width="1.5" d="M0,-3.0v7 M-2.5,-0.5L0,-3.0L2.5,-0.5"/>
                </g>
               <g id="resetDef">
                       <use xlink:href="#rim2" fill="#404040">
                               <set attributeName="fill" to="#808080" begin="reset.mouseover" end="reset.mouseout"/>
                       </use>
               </g>
        </defs>

<script type="text/javascript">
var viewWidth = 1545;
var viewHeight = 520;
var sectionId = 'dynsection-0';
</script>
<script xlink:href="../../svgpan.js"/>
<svg id="graph" class="graph">
<g id="viewport">
<title>/home/travis/build/AliceO2Group/AliceO2/GPU/GPUTracking/TPCClusterFinder/MCLabelAccumulator.cxx</title>
<!-- Node0 -->
<g id="node1" class="node">
<title>Node0</title>
<polygon fill="#bfbfbf" stroke="#000000" points="787.5,-459.5 787.5,-511.5 978.5,-511.5 978.5,-459.5 787.5,-459.5"/>
<text text-anchor="start" x="795.5" y="-499.5" font-family="Helvetica,sans-Serif" font-size="10.00" fill="#000000">/home/travis/build</text>
<text text-anchor="start" x="795.5" y="-488.5" font-family="Helvetica,sans-Serif" font-size="10.00" fill="#000000">/AliceO2Group/AliceO2</text>
<text text-anchor="start" x="795.5" y="-477.5" font-family="Helvetica,sans-Serif" font-size="10.00" fill="#000000">/GPU/GPUTracking/TPCClusterFinder</text>
<text text-anchor="middle" x="883" y="-466.5" font-family="Helvetica,sans-Serif" font-size="10.00" fill="#000000">/MCLabelAccumulator.cxx</text>
</g>
<!-- Node1 -->
<g id="node2" class="node">
<title>Node1</title>
<g id="a_node2"><a xlink:href="../../d6/d68/MCLabelAccumulator_8h.html" target="_top" xlink:title="MCLabelAccumulator.h">
<polygon fill="none" stroke="#000000" points="655,-403.5 655,-422.5 783,-422.5 783,-403.5 655,-403.5"/>
<text text-anchor="middle" x="719" y="-410.5" font-family="Helvetica,sans-Serif" font-size="10.00" fill="#000000">MCLabelAccumulator.h</text>
</a>
</g>
</g>
<!-- Node0&#45;&gt;Node1 -->
<g id="edge1" class="edge">
<title>Node0&#45;&gt;Node1</title>
<path fill="none" stroke="#191970" d="M823.7922,-459.3258C798.7632,-448.2612 770.6567,-435.8361 749.8575,-426.6413"/>
<polygon fill="#191970" stroke="#191970" points="751.1279,-423.3762 740.5666,-422.534 748.2976,-429.7785 751.1279,-423.3762"/>
</g>
<!-- Node18 -->
<g id="node19" class="node">
<title>Node18</title>
<g id="a_node19"><a xlink:href="../../d6/d20/GPUHostDataTypes_8h.html" target="_top" xlink:title="GPUHostDataTypes.h">
<polygon fill="none" stroke="#000000" points="942,-403.5 942,-422.5 1062,-422.5 1062,-403.5 942,-403.5"/>
<text text-anchor="middle" x="1002" y="-410.5" font-family="Helvetica,sans-Serif" font-size="10.00" fill="#000000">GPUHostDataTypes.h</text>
</a>
</g>
</g>
<!-- Node0&#45;&gt;Node18 -->
<g id="edge22" class="edge">
<title>Node0&#45;&gt;Node18</title>
<path fill="none" stroke="#191970" d="M925.9617,-459.3258C943.3834,-448.7118 962.86,-436.8458 977.7398,-427.7804"/>
<polygon fill="#191970" stroke="#191970" points="979.6322,-430.7259 986.3511,-422.534 975.9901,-424.748 979.6322,-430.7259"/>
</g>
<!-- Node21 -->
<g id="node22" class="node">
<title>Node21</title>
<g id="a_node22"><a xlink:href="../../db/d14/MCTruthContainer_8h.html" target="_top" xlink:title="Definition of a container to keep Monte Carlo truth external to simulation objects. ">
<polygon fill="none" stroke="#000000" points="1197.5,-336.5 1197.5,-366.5 1324.5,-366.5 1324.5,-336.5 1197.5,-336.5"/>
<text text-anchor="start" x="1205.5" y="-354.5" font-family="Helvetica,sans-Serif" font-size="10.00" fill="#000000">SimulationDataFormat</text>
<text text-anchor="middle" x="1261" y="-343.5" font-family="Helvetica,sans-Serif" font-size="10.00" fill="#000000">/MCTruthContainer.h</text>
</a>
</g>
</g>
<!-- Node0&#45;&gt;Node21 -->
<g id="edge54" class="edge">
<title>Node0&#45;&gt;Node21</title>
<path fill="none" stroke="#191970" d="M963.7429,-459.422C997.054,-448.465 1035.985,-435.4034 1071,-423 1119.5426,-405.8047 1174.5698,-384.9454 1212.8651,-370.2065"/>
<polygon fill="#191970" stroke="#191970" points="1214.1551,-373.4603 1222.2265,-366.5972 1211.6369,-366.929 1214.1551,-373.4603"/>
</g>
<!-- Node29 -->
<g id="node30" class="node">
<title>Node29</title>
<g id="a_node30"><a xlink:href="../../d6/d4b/GPUTPCClusterFinder_8h.html" target="_top" xlink:title="GPUTPCClusterFinder.h">
<polygon fill="none" stroke="#000000" points="257,-342 257,-361 385,-361 385,-342 257,-342"/>
<text text-anchor="middle" x="321" y="-349" font-family="Helvetica,sans-Serif" font-size="10.00" fill="#000000">GPUTPCClusterFinder.h</text>
</a>
</g>
</g>
<!-- Node0&#45;&gt;Node29 -->
<g id="edge38" class="edge">
<title>Node0&#45;&gt;Node29</title>
<path fill="none" stroke="#191970" d="M787.346,-462.6928C666.7204,-433.9316 463.8413,-385.5582 370.5976,-363.3258"/>
<polygon fill="#191970" stroke="#191970" points="371.39,-359.9166 360.8509,-361.0018 369.7664,-366.7258 371.39,-359.9166"/>
</g>
<!-- Node2 -->
<g id="node3" class="node">
<title>Node2</title>
<g id="a_node3"><a xlink:href="../../d9/db0/clusterFinderDefs_8h.html" target="_top" xlink:title="clusterFinderDefs.h">
<polygon fill="none" stroke="#000000" points="412,-224.5 412,-243.5 522,-243.5 522,-224.5 412,-224.5"/>
<text text-anchor="middle" x="467" y="-231.5" font-family="Helvetica,sans-Serif" font-size="10.00" fill="#000000">clusterFinderDefs.h</text>
</a>
</g>
</g>
<!-- Node1&#45;&gt;Node2 -->
<g id="edge2" class="edge">
<title>Node1&#45;&gt;Node2</title>
<path fill="none" stroke="#191970" d="M712.7325,-403.492C702.0991,-387.8996 679.2089,-356.5748 654,-336 605.535,-296.4441 539.467,-264.6264 500.2224,-247.5924"/>
<polygon fill="#191970" stroke="#191970" points="501.4207,-244.2983 490.8499,-243.5846 498.6684,-250.7345 501.4207,-244.2983"/>
</g>
<!-- Node13 -->
<g id="node14" class="node">
<title>Node13</title>
<g id="a_node14"><a xlink:href="../../d7/d60/Array2D_8h.html" target="_top" xlink:title="Array2D.h">
<polygon fill="none" stroke="#000000" points="501.5,-342 501.5,-361 566.5,-361 566.5,-342 501.5,-342"/>
<text text-anchor="middle" x="534" y="-349" font-family="Helvetica,sans-Serif" font-size="10.00" fill="#000000">Array2D.h</text>
</a>
</g>
</g>
<!-- Node1&#45;&gt;Node13 -->
<g id="edge14" class="edge">
<title>Node1&#45;&gt;Node13</title>
<path fill="none" stroke="#191970" d="M690.0938,-403.3906C658.461,-392.8749 607.597,-375.966 572.5771,-364.3243"/>
<polygon fill="#191970" stroke="#191970" points="573.2968,-360.8753 562.7033,-361.0419 571.0885,-367.5178 573.2968,-360.8753"/>
</g>
<!-- Node15 -->
<g id="node16" class="node">
<title>Node15</title>
<g id="a_node16"><a xlink:href="../../d7/dcd/MCCompLabel_8h.html" target="_top" xlink:title="SimulationDataFormat\l/MCCompLabel.h">
<polygon fill="none" stroke="#000000" points="701.5,-336.5 701.5,-366.5 828.5,-366.5 828.5,-336.5 701.5,-336.5"/>
<text text-anchor="start" x="709.5" y="-354.5" font-family="Helvetica,sans-Serif" font-size="10.00" fill="#000000">SimulationDataFormat</text>
<text text-anchor="middle" x="765" y="-343.5" font-family="Helvetica,sans-Serif" font-size="10.00" fill="#000000">/MCCompLabel.h</text>
</a>
</g>
</g>
<!-- Node1&#45;&gt;Node15 -->
<g id="edge18" class="edge">
<title>Node1&#45;&gt;Node15</title>
<path fill="none" stroke="#191970" d="M726.1875,-403.3906C731.9519,-395.6839 740.2846,-384.5434 747.7527,-374.5589"/>
<polygon fill="#191970" stroke="#191970" points="750.5603,-376.6488 753.7471,-366.5446 744.9548,-372.4561 750.5603,-376.6488"/>
</g>
<!-- Node16 -->
<g id="node17" class="node">
<title>Node16</title>
<polygon fill="none" stroke="#bfbfbf" points="601,-342 601,-361 645,-361 645,-342 601,-342"/>
<text text-anchor="middle" x="623" y="-349" font-family="Helvetica,sans-Serif" font-size="10.00" fill="#000000">bitset</text>
</g>
<!-- Node1&#45;&gt;Node16 -->
<g id="edge20" class="edge">
<title>Node1&#45;&gt;Node16</title>
<path fill="none" stroke="#191970" d="M704,-403.3906C688.6419,-393.5519 664.5479,-378.1167 646.6255,-366.6351"/>
<polygon fill="#191970" stroke="#191970" points="648.203,-363.4891 637.8947,-361.0419 644.427,-369.3833 648.203,-363.4891"/>
</g>
<!-- Node17 -->
<g id="node18" class="node">
<title>Node17</title>
<polygon fill="none" stroke="#bfbfbf" points="931.5,-280.5 931.5,-299.5 978.5,-299.5 978.5,-280.5 931.5,-280.5"/>
<text text-anchor="middle" x="955" y="-287.5" font-family="Helvetica,sans-Serif" font-size="10.00" fill="#000000">vector</text>
</g>
<!-- Node1&#45;&gt;Node17 -->
<g id="edge21" class="edge">
<title>Node1&#45;&gt;Node17</title>
<path fill="none" stroke="#191970" d="M749.1065,-403.3588C773.6355,-395.0355 808.8547,-382.0056 838,-367 873.3091,-348.8209 911.1856,-322.4978 933.9826,-305.8209"/>
<polygon fill="#191970" stroke="#191970" points="936.2607,-308.4895 942.2227,-299.7313 932.1003,-302.86 936.2607,-308.4895"/>
</g>
<!-- Node3 -->
<g id="node4" class="node">
<title>Node3</title>
<g id="a_node4"><a xlink:href="../../d2/d6d/GPUDef_8h.html" target="_top" xlink:title="GPUDef.h">
<polygon fill="none" stroke="#000000" points="394.5,-168.5 394.5,-187.5 457.5,-187.5 457.5,-168.5 394.5,-168.5"/>
<text text-anchor="middle" x="426" y="-175.5" font-family="Helvetica,sans-Serif" font-size="10.00" fill="#000000">GPUDef.h</text>
</a>
</g>
</g>
<!-- Node2&#45;&gt;Node3 -->
<g id="edge3" class="edge">
<title>Node2&#45;&gt;Node3</title>
<path fill="none" stroke="#191970" d="M459.8583,-224.2455C454.1556,-216.4564 446.01,-205.3308 439.1375,-195.9439"/>
<polygon fill="#191970" stroke="#191970" points="441.7913,-193.6437 433.0598,-187.6427 436.1432,-197.7789 441.7913,-193.6437"/>
</g>
<!-- Node4 -->
<g id="node5" class="node">
<title>Node4</title>
<g id="a_node5"><a xlink:href="../../df/d21/GPUCommonDef_8h.html" target="_top" xlink:title="GPUCommonDef.h">
<polygon fill="none" stroke="#000000" points="148.5,-56.5 148.5,-75.5 255.5,-75.5 255.5,-56.5 148.5,-56.5"/>
<text text-anchor="middle" x="202" y="-63.5" font-family="Helvetica,sans-Serif" font-size="10.00" fill="#000000">GPUCommonDef.h</text>
</a>
</g>
</g>
<!-- Node3&#45;&gt;Node4 -->
<g id="edge4" class="edge">
<title>Node3&#45;&gt;Node4</title>
<path fill="none" stroke="#191970" d="M418.1514,-168.4738C405.8933,-154.1915 380.8146,-127.2786 354,-112 326.1428,-96.1273 292.2294,-85.1832 263.5101,-77.9652"/>
<polygon fill="#191970" stroke="#191970" points="264.1294,-74.5141 253.5868,-75.5655 262.484,-81.318 264.1294,-74.5141"/>
</g>
<!-- Node7 -->
<g id="node8" class="node">
<title>Node7</title>
<g id="a_node8"><a xlink:href="../../d2/d37/GPUDefConstantsAndSettings_8h.html" target="_top" xlink:title="GPUDefConstantsAndSettings.h">
<polygon fill="none" stroke="#000000" points="173.5,-112.5 173.5,-131.5 344.5,-131.5 344.5,-112.5 173.5,-112.5"/>
<text text-anchor="middle" x="259" y="-119.5" font-family="Helvetica,sans-Serif" font-size="10.00" fill="#000000">GPUDefConstantsAndSettings.h</text>
</a>
</g>
</g>
<!-- Node3&#45;&gt;Node7 -->
<g id="edge7" class="edge">
<title>Node3&#45;&gt;Node7</title>
<path fill="none" stroke="#191970" d="M397.2917,-168.3733C369.6423,-159.1016 327.6424,-145.0178 297.1834,-134.804"/>
<polygon fill="#191970" stroke="#191970" points="297.9276,-131.3621 287.3337,-131.5011 295.7021,-137.9989 297.9276,-131.3621"/>
</g>
<!-- Node8 -->
<g id="node9" class="node">
<title>Node8</title>
<g id="a_node9"><a xlink:href="../../dc/de9/GPUDefGPUParameters_8h.html" target="_top" xlink:title="GPUDefGPUParameters.h">
<polygon fill="none" stroke="#000000" points="583,-112.5 583,-131.5 723,-131.5 723,-112.5 583,-112.5"/>
<text text-anchor="middle" x="653" y="-119.5" font-family="Helvetica,sans-Serif" font-size="10.00" fill="#000000">GPUDefGPUParameters.h</text>
</a>
</g>
</g>
<!-- Node3&#45;&gt;Node8 -->
<g id="edge9" class="edge">
<title>Node3&#45;&gt;Node8</title>
<path fill="none" stroke="#191970" d="M457.5634,-170.2134C495.6178,-160.8256 559.9853,-144.9464 604.3931,-133.9911"/>
<polygon fill="#191970" stroke="#191970" points="605.2358,-137.3883 614.1063,-131.5949 603.5591,-130.592 605.2358,-137.3883"/>
</g>
<!-- Node10 -->
<g id="node11" class="node">
<title>Node10</title>
<g id="a_node11"><a xlink:href="../../d3/d4c/GPUDefOpenCL12Templates_8h.html" target="_top" xlink:title="GPUDefOpenCL12Templates.h">
<polygon fill="none" stroke="#000000" points="401,-112.5 401,-131.5 565,-131.5 565,-112.5 401,-112.5"/>
<text text-anchor="middle" x="483" y="-119.5" font-family="Helvetica,sans-Serif" font-size="10.00" fill="#000000">GPUDefOpenCL12Templates.h</text>
</a>
</g>
</g>
<!-- Node3&#45;&gt;Node10 -->
<g id="edge11" class="edge">
<title>Node3&#45;&gt;Node10</title>
<path fill="none" stroke="#191970" d="M435.9286,-168.2455C444.1838,-160.1352 456.1209,-148.4075 465.9082,-138.7919"/>
<polygon fill="#191970" stroke="#191970" points="468.5046,-141.1476 473.1851,-131.6427 463.5989,-136.1542 468.5046,-141.1476"/>
</g>
<!-- Node11 -->
<g id="node12" class="node">
<title>Node11</title>
<g id="a_node12"><a xlink:href="../../d2/d45/GPUCommonRtypes_8h.html" target="_top" xlink:title="GPUCommonRtypes.h">
<polygon fill="none" stroke="#000000" points="741.5,-112.5 741.5,-131.5 866.5,-131.5 866.5,-112.5 741.5,-112.5"/>
<text text-anchor="middle" x="804" y="-119.5" font-family="Helvetica,sans-Serif" font-size="10.00" fill="#000000">GPUCommonRtypes.h</text>
</a>
</g>
</g>
<!-- Node3&#45;&gt;Node11 -->
<g id="edge12" class="edge">
<title>Node3&#45;&gt;Node11</title>
<path fill="none" stroke="#191970" d="M457.5779,-173.3218C517.3651,-164.4644 648.4937,-145.038 731.1709,-132.7895"/>
<polygon fill="#191970" stroke="#191970" points="731.8755,-136.2234 741.2546,-131.2956 730.8496,-129.299 731.8755,-136.2234"/>
</g>
<!-- Node5 -->
<g id="node6" class="node">
<title>Node5</title>
<g id="a_node6"><a xlink:href="../../d5/d93/GPUCommonDefSettings_8h.html" target="_top" xlink:title="GPUCommonDefSettings.h">
<polygon fill="none" stroke="#000000" points="51,-.5 51,-19.5 199,-19.5 199,-.5 51,-.5"/>
<text text-anchor="middle" x="125" y="-7.5" font-family="Helvetica,sans-Serif" font-size="10.00" fill="#000000">GPUCommonDefSettings.h</text>
</a>
</g>
</g>
<!-- Node4&#45;&gt;Node5 -->
<g id="edge5" class="edge">
<title>Node4&#45;&gt;Node5</title>
<path fill="none" stroke="#191970" d="M188.5876,-56.2455C176.9943,-47.814 160.0252,-35.4729 146.5322,-25.6598"/>
<polygon fill="#191970" stroke="#191970" points="148.4047,-22.6938 138.2587,-19.6427 144.2874,-28.355 148.4047,-22.6938"/>
</g>
<!-- Node6 -->
<g id="node7" class="node">
<title>Node6</title>
<g id="a_node7"><a xlink:href="../../da/d5a/GPUCommonDefAPI_8h.html" target="_top" xlink:title="GPUCommonDefAPI.h">
<polygon fill="none" stroke="#000000" points="217,-.5 217,-19.5 341,-19.5 341,-.5 217,-.5"/>
<text text-anchor="middle" x="279" y="-7.5" font-family="Helvetica,sans-Serif" font-size="10.00" fill="#000000">GPUCommonDefAPI.h</text>
</a>
</g>
</g>
<!-- Node4&#45;&gt;Node6 -->
<g id="edge6" class="edge">
<title>Node4&#45;&gt;Node6</title>
<path fill="none" stroke="#191970" d="M215.4124,-56.2455C227.0057,-47.814 243.9748,-35.4729 257.4678,-25.6598"/>
<polygon fill="#191970" stroke="#191970" points="259.7126,-28.355 265.7413,-19.6427 255.5953,-22.6938 259.7126,-28.355"/>
</g>
<!-- Node7&#45;&gt;Node4 -->
<g id="edge8" class="edge">
<title>Node7&#45;&gt;Node4</title>
<path fill="none" stroke="#191970" d="M249.0714,-112.2455C240.8162,-104.1352 228.8791,-92.4075 219.0918,-82.7919"/>
<polygon fill="#191970" stroke="#191970" points="221.4011,-80.1542 211.8149,-75.6427 216.4954,-85.1476 221.4011,-80.1542"/>
</g>
<!-- Node9 -->
<g id="node10" class="node">
<title>Node9</title>
<g id="a_node10"><a xlink:href="../../d6/dff/GPUDefMacros_8h.html" target="_top" xlink:title="GPUDefMacros.h">
<polygon fill="none" stroke="#000000" points="604,-56.5 604,-75.5 702,-75.5 702,-56.5 604,-56.5"/>
<text text-anchor="middle" x="653" y="-63.5" font-family="Helvetica,sans-Serif" font-size="10.00" fill="#000000">GPUDefMacros.h</text>
</a>
</g>
</g>
<!-- Node8&#45;&gt;Node9 -->
<g id="edge10" class="edge">
<title>Node8&#45;&gt;Node9</title>
<path fill="none" stroke="#191970" d="M653,-112.2455C653,-104.9382 653,-94.6944 653,-85.7046"/>
<polygon fill="#191970" stroke="#191970" points="656.5001,-85.6426 653,-75.6427 649.5001,-85.6427 656.5001,-85.6426"/>
</g>
<!-- Node12 -->
<g id="node13" class="node">
<title>Node12</title>
<polygon fill="none" stroke="#bfbfbf" points="774.5,-56.5 774.5,-75.5 833.5,-75.5 833.5,-56.5 774.5,-56.5"/>
<text text-anchor="middle" x="804" y="-63.5" font-family="Helvetica,sans-Serif" font-size="10.00" fill="#000000">Rtypes.h</text>
</g>
<!-- Node11&#45;&gt;Node12 -->
<g id="edge13" class="edge">
<title>Node11&#45;&gt;Node12</title>
<path fill="none" stroke="#191970" d="M804,-112.2455C804,-104.9382 804,-94.6944 804,-85.7046"/>
<polygon fill="#191970" stroke="#191970" points="807.5001,-85.6426 804,-75.6427 800.5001,-85.6427 807.5001,-85.6426"/>
</g>
<!-- Node13&#45;&gt;Node2 -->
<g id="edge15" class="edge">
<title>Node13&#45;&gt;Node2</title>
<path fill="none" stroke="#191970" d="M533.0777,-341.6009C531.3707,-327.17 526.7513,-299.9099 515,-280 508.2843,-268.6219 497.9774,-258.2219 488.6335,-250.2003"/>
<polygon fill="#191970" stroke="#191970" points="490.7461,-247.4068 480.7847,-243.7984 486.3217,-252.8313 490.7461,-247.4068"/>
</g>
<!-- Node14 -->
<g id="node15" class="node">
<title>Node14</title>
<g id="a_node15"><a xlink:href="../../d1/d90/ChargePos_8h.html" target="_top" xlink:title="ChargePos.h">
<polygon fill="none" stroke="#000000" points="428.5,-280.5 428.5,-299.5 505.5,-299.5 505.5,-280.5 428.5,-280.5"/>
<text text-anchor="middle" x="467" y="-287.5" font-family="Helvetica,sans-Serif" font-size="10.00" fill="#000000">ChargePos.h</text>
</a>
</g>
</g>
<!-- Node13&#45;&gt;Node14 -->
<g id="edge16" class="edge">
<title>Node13&#45;&gt;Node14</title>
<path fill="none" stroke="#191970" d="M523.5313,-341.8906C513.2663,-332.4683 497.4097,-317.9134 485.0994,-306.6137"/>
<polygon fill="#191970" stroke="#191970" points="487.3501,-303.9287 477.6163,-299.7449 482.6166,-309.0856 487.3501,-303.9287"/>
</g>
<!-- Node14&#45;&gt;Node2 -->
<g id="edge17" class="edge">
<title>Node14&#45;&gt;Node2</title>
<path fill="none" stroke="#191970" d="M467,-280.2455C467,-272.9382 467,-262.6944 467,-253.7046"/>
<polygon fill="#191970" stroke="#191970" points="470.5001,-253.6426 467,-243.6427 463.5001,-253.6427 470.5001,-253.6426"/>
</g>
<!-- Node15&#45;&gt;Node11 -->
<g id="edge19" class="edge">
<title>Node15&#45;&gt;Node11</title>
<path fill="none" stroke="#191970" d="M767.5589,-336.4419C774.3702,-296.3599 792.9452,-187.0534 800.6164,-141.9113"/>
<polygon fill="#191970" stroke="#191970" points="804.0931,-142.3432 802.318,-131.8981 797.192,-141.1704 804.0931,-142.3432"/>
</g>
<!-- Node18&#45;&gt;Node4 -->
<g id="edge23" class="edge">
<title>Node18&#45;&gt;Node4</title>
<path fill="none" stroke="#191970" d="M969.088,-403.3503C950.3148,-396.215 927.8381,-384.6282 914,-367 892.2349,-339.2737 895,-325.2487 895,-290 895,-290 895,-290 895,-178 895,-147.4754 899.7482,-131.1775 876,-112 852.4921,-93.0165 429.9826,-74.7845 266.1625,-68.3981"/>
<polygon fill="#191970" stroke="#191970" points="265.8812,-64.8847 255.7531,-67.9947 265.61,-71.8794 265.8812,-64.8847"/>
</g>
<!-- Node18&#45;&gt;Node15 -->
<g id="edge37" class="edge">
<title>Node18&#45;&gt;Node15</title>
<path fill="none" stroke="#191970" d="M965.2288,-403.4581C930.0073,-394.3183 876.004,-380.3048 832.9538,-369.1336"/>
<polygon fill="#191970" stroke="#191970" points="833.6656,-365.7024 823.1071,-366.5784 831.9074,-372.478 833.6656,-365.7024"/>
</g>
<!-- Node18&#45;&gt;Node17 -->
<g id="edge24" class="edge">
<title>Node18&#45;&gt;Node17</title>
<path fill="none" stroke="#191970" d="M1040.0976,-403.4497C1058.8946,-396.6063 1079.8748,-385.2734 1091,-367 1098.1648,-355.2317 1099.0314,-347.1948 1091,-336 1087.8757,-331.6451 1027.5396,-312.3717 988.2922,-300.1959"/>
<polygon fill="#191970" stroke="#191970" points="989.1615,-296.8013 978.5739,-297.1921 987.0944,-303.4892 989.1615,-296.8013"/>
</g>
<!-- Node19 -->
<g id="node20" class="node">
<title>Node19</title>
<polygon fill="none" stroke="#bfbfbf" points="1137,-342 1137,-361 1179,-361 1179,-342 1137,-342"/>
<text text-anchor="middle" x="1158" y="-349" font-family="Helvetica,sans-Serif" font-size="10.00" fill="#000000">array</text>
</g>
<!-- Node18&#45;&gt;Node19 -->
<g id="edge25" class="edge">
<title>Node18&#45;&gt;Node19</title>
<path fill="none" stroke="#191970" d="M1028.597,-403.3551C1053.2208,-394.3157 1090.7827,-380.2467 1123,-367 1124.5635,-366.3572 1126.1618,-365.689 1127.7726,-365.007"/>
<polygon fill="#191970" stroke="#191970" points="1129.1886,-368.208 1136.9793,-361.0277 1126.4114,-361.7824 1129.1886,-368.208"/>
</g>
<!-- Node20 -->
<g id="node21" class="node">
<title>Node20</title>
<g id="a_node21"><a xlink:href="../../d0/dda/DataFormats_2Detectors_2TPC_2include_2DataFormatsTPC_2Constants_8h.html" target="_top" xlink:title="DataFormatsTPC/Constants.h">
<polygon fill="none" stroke="#000000" points="922.5,-342 922.5,-361 1081.5,-361 1081.5,-342 922.5,-342"/>
<text text-anchor="middle" x="1002" y="-349" font-family="Helvetica,sans-Serif" font-size="10.00" fill="#000000">DataFormatsTPC/Constants.h</text>
</a>
</g>
</g>
<!-- Node18&#45;&gt;Node20 -->
<g id="edge26" class="edge">
<title>Node18&#45;&gt;Node20</title>
<path fill="none" stroke="#191970" d="M1002,-403.3906C1002,-394.8657 1002,-382.1392 1002,-371.4235"/>
<polygon fill="#191970" stroke="#191970" points="1005.5001,-371.2448 1002,-361.2449 998.5001,-371.2449 1005.5001,-371.2448"/>
</g>
<!-- Node18&#45;&gt;Node21 -->
<g id="edge27" class="edge">
<title>Node18&#45;&gt;Node21</title>
<path fill="none" stroke="#191970" d="M1042.1846,-403.4581C1080.9187,-394.2606 1140.4381,-380.1276 1187.6282,-368.9223"/>
<polygon fill="#191970" stroke="#191970" points="1188.5782,-372.2941 1197.499,-366.5784 1186.9609,-365.4835 1188.5782,-372.2941"/>
</g>
<!-- Node21&#45;&gt;Node11 -->
<g id="edge28" class="edge">
<title>Node21&#45;&gt;Node11</title>
<path fill="none" stroke="#191970" d="M1324.5033,-347.4277C1388.7956,-340.8321 1474.2185,-323.7595 1440,-280 1370.677,-191.3481 1028.692,-145.3578 876.8538,-129.0345"/>
<polygon fill="#191970" stroke="#191970" points="877.0078,-125.5312 866.6942,-127.9561 876.2689,-132.4921 877.0078,-125.5312"/>
</g>
<!-- Node21&#45;&gt;Node17 -->
<g id="edge36" class="edge">
<title>Node21&#45;&gt;Node17</title>
<path fill="none" stroke="#191970" d="M1197.3226,-337.8576C1194.1722,-337.2209 1191.0513,-336.5984 1188,-336 1102.4868,-319.2296 1077.5475,-320.9798 988.6779,-299.9355"/>
<polygon fill="#191970" stroke="#191970" points="989.2434,-296.4719 978.7028,-297.5423 987.6103,-303.2787 989.2434,-296.4719"/>
</g>
<!-- Node22 -->
<g id="node23" class="node">
<title>Node22</title>
<polygon fill="none" stroke="#bfbfbf" points="1487,-280.5 1487,-299.5 1537,-299.5 1537,-280.5 1487,-280.5"/>
<text text-anchor="middle" x="1512" y="-287.5" font-family="Helvetica,sans-Serif" font-size="10.00" fill="#000000">cstdint</text>
</g>
<!-- Node21&#45;&gt;Node22 -->
<g id="edge29" class="edge">
<title>Node21&#45;&gt;Node22</title>
<path fill="none" stroke="#191970" d="M1323.6667,-336.4975C1365.8971,-326.3332 1422.8389,-312.5231 1473,-300 1474.2589,-299.6857 1475.5402,-299.3644 1476.8342,-299.0388"/>
<polygon fill="#191970" stroke="#191970" points="1478.0039,-302.353 1486.8367,-296.5021 1476.2831,-295.5678 1478.0039,-302.353"/>
</g>
<!-- Node23 -->
<g id="node24" class="node">
<title>Node23</title>
<polygon fill="none" stroke="#bfbfbf" points="997,-280.5 997,-299.5 1049,-299.5 1049,-280.5 997,-280.5"/>
<text text-anchor="middle" x="1023" y="-287.5" font-family="Helvetica,sans-Serif" font-size="10.00" fill="#000000">cassert</text>
</g>
<!-- Node21&#45;&gt;Node23 -->
<g id="edge30" class="edge">
<title>Node21&#45;&gt;Node23</title>
<path fill="none" stroke="#191970" d="M1200.3644,-336.3994C1160.202,-326.3092 1106.3873,-312.6207 1059,-300 1058.9021,-299.9739 1058.804,-299.9478 1058.7057,-299.9216"/>
<polygon fill="#191970" stroke="#191970" points="1059.8956,-296.6178 1049.3284,-297.3831 1058.0665,-303.3746 1059.8956,-296.6178"/>
</g>
<!-- Node24 -->
<g id="node25" class="node">
<title>Node24</title>
<polygon fill="none" stroke="#bfbfbf" points="1067.5,-280.5 1067.5,-299.5 1132.5,-299.5 1132.5,-280.5 1067.5,-280.5"/>
<text text-anchor="middle" x="1100" y="-287.5" font-family="Helvetica,sans-Serif" font-size="10.00" fill="#000000">stdexcept</text>
</g>
<!-- Node21&#45;&gt;Node24 -->
<g id="edge31" class="edge">
<title>Node21&#45;&gt;Node24</title>
<path fill="none" stroke="#191970" d="M1221.615,-336.4554C1194.9873,-326.284 1160.1556,-312.9787 1134.5966,-303.2155"/>
<polygon fill="#191970" stroke="#191970" points="1135.5399,-299.8292 1124.9493,-299.5303 1133.042,-306.3684 1135.5399,-299.8292"/>
</g>
<!-- Node25 -->
<g id="node26" class="node">
<title>Node25</title>
<polygon fill="none" stroke="#bfbfbf" points="1151,-280.5 1151,-299.5 1199,-299.5 1199,-280.5 1151,-280.5"/>
<text text-anchor="middle" x="1175" y="-287.5" font-family="Helvetica,sans-Serif" font-size="10.00" fill="#000000">gsl/gsl</text>
</g>
<!-- Node21&#45;&gt;Node25 -->
<g id="edge32" class="edge">
<title>Node21&#45;&gt;Node25</title>
<path fill="none" stroke="#191970" d="M1239.7416,-336.2977C1226.7282,-326.9917 1210.1097,-315.1075 1196.9683,-305.7099"/>
<polygon fill="#191970" stroke="#191970" points="1198.6829,-302.6332 1188.5129,-299.6633 1194.6111,-308.3271 1198.6829,-302.6332"/>
</g>
<!-- Node26 -->
<g id="node27" class="node">
<title>Node26</title>
<polygon fill="none" stroke="#bfbfbf" points="1217.5,-280.5 1217.5,-299.5 1286.5,-299.5 1286.5,-280.5 1217.5,-280.5"/>
<text text-anchor="middle" x="1252" y="-287.5" font-family="Helvetica,sans-Serif" font-size="10.00" fill="#000000">type_traits</text>
</g>
<!-- Node21&#45;&gt;Node26 -->
<g id="edge33" class="edge">
<title>Node21&#45;&gt;Node26</title>
<path fill="none" stroke="#191970" d="M1258.7753,-336.2977C1257.6041,-328.2945 1256.1538,-318.3843 1254.8959,-309.7889"/>
<polygon fill="#191970" stroke="#191970" points="1258.3522,-309.2347 1253.441,-299.8469 1251.426,-310.2484 1258.3522,-309.2347"/>
</g>
<!-- Node27 -->
<g id="node28" class="node">
<title>Node27</title>
<polygon fill="none" stroke="#bfbfbf" points="1305,-280.5 1305,-299.5 1355,-299.5 1355,-280.5 1305,-280.5"/>
<text text-anchor="middle" x="1330" y="-287.5" font-family="Helvetica,sans-Serif" font-size="10.00" fill="#000000">cstring</text>
</g>
<!-- Node21&#45;&gt;Node27 -->
<g id="edge34" class="edge">
<title>Node21&#45;&gt;Node27</title>
<path fill="none" stroke="#191970" d="M1278.0562,-336.2977C1288.1329,-327.3163 1300.904,-315.9334 1311.2611,-306.702"/>
<polygon fill="#191970" stroke="#191970" points="1313.8159,-309.1135 1318.9522,-299.8469 1309.1583,-303.8879 1313.8159,-309.1135"/>
</g>
<!-- Node28 -->
<g id="node29" class="node">
<title>Node28</title>
<polygon fill="none" stroke="#bfbfbf" points="1373,-280.5 1373,-299.5 1431,-299.5 1431,-280.5 1373,-280.5"/>
<text text-anchor="middle" x="1402" y="-287.5" font-family="Helvetica,sans-Serif" font-size="10.00" fill="#000000">memory</text>
</g>
<!-- Node21&#45;&gt;Node28 -->
<g id="edge35" class="edge">
<title>Node21&#45;&gt;Node28</title>
<path fill="none" stroke="#191970" d="M1295.4925,-336.4554C1318.5028,-326.419 1348.5086,-313.3314 1370.8055,-303.6061"/>
<polygon fill="#191970" stroke="#191970" points="1372.3833,-306.7364 1380.15,-299.5303 1369.5846,-300.3202 1372.3833,-306.7364"/>
</g>
<!-- Node29&#45;&gt;Node3 -->
<g id="edge39" class="edge">
<title>Node29&#45;&gt;Node3</title>
<path fill="none" stroke="#191970" d="M326.7948,-341.9248C343.6072,-314.1443 392.6098,-233.1733 414.8226,-196.4693"/>
<polygon fill="#191970" stroke="#191970" points="417.9104,-198.127 420.0937,-187.7595 411.9217,-194.5027 417.9104,-198.127"/>
</g>
<!-- Node30 -->
<g id="node31" class="node">
<title>Node30</title>
<g id="a_node31"><a xlink:href="../../d6/d57/GPUProcessor_8h.html" target="_top" xlink:title="GPUProcessor.h">
<polygon fill="none" stroke="#000000" points="249.5,-224.5 249.5,-243.5 342.5,-243.5 342.5,-224.5 249.5,-224.5"/>
<text text-anchor="middle" x="296" y="-231.5" font-family="Helvetica,sans-Serif" font-size="10.00" fill="#000000">GPUProcessor.h</text>
</a>
</g>
</g>
<!-- Node29&#45;&gt;Node30 -->
<g id="edge40" class="edge">
<title>Node29&#45;&gt;Node30</title>
<path fill="none" stroke="#191970" d="M318.9541,-341.8845C314.8705,-322.6913 305.6353,-279.286 300.2056,-253.7663"/>
<polygon fill="#191970" stroke="#191970" points="303.5786,-252.801 298.0741,-243.7484 296.7319,-254.2578 303.5786,-252.801"/>
</g>
<!-- Node33 -->
<g id="node34" class="node">
<title>Node33</title>
<g id="a_node34"><a xlink:href="../../d4/dc5/GPUDataTypes_8h.html" target="_top" xlink:title="GPUDataTypes.h">
<polygon fill="none" stroke="#000000" points="0,-224.5 0,-243.5 98,-243.5 98,-224.5 0,-224.5"/>
<text text-anchor="middle" x="49" y="-231.5" font-family="Helvetica,sans-Serif" font-size="10.00" fill="#000000">GPUDataTypes.h</text>
</a>
</g>
</g>
<!-- Node29&#45;&gt;Node33 -->
<g id="edge45" class="edge">
<title>Node29&#45;&gt;Node33</title>
<path fill="none" stroke="#191970" d="M298.7411,-341.8845C250.5054,-321.0474 136.2085,-271.6728 80.5494,-247.6289"/>
<polygon fill="#191970" stroke="#191970" points="81.7531,-244.3363 71.185,-243.5836 78.9771,-250.7623 81.7531,-244.3363"/>
</g>
<!-- Node34 -->
<g id="node35" class="node">
<title>Node34</title>
<g id="a_node35"><a xlink:href="../../d8/dcc/CfFragment_8h.html" target="_top" xlink:title="CfFragment.h">
<polygon fill="none" stroke="#000000" points="211,-280.5 211,-299.5 293,-299.5 293,-280.5 211,-280.5"/>
<text text-anchor="middle" x="252" y="-287.5" font-family="Helvetica,sans-Serif" font-size="10.00" fill="#000000">CfFragment.h</text>
</a>
</g>
</g>
<!-- Node29&#45;&gt;Node34 -->
<g id="edge48" class="edge">
<title>Node29&#45;&gt;Node34</title>
<path fill="none" stroke="#191970" d="M310.2188,-341.8906C299.6474,-332.4683 283.3175,-317.9134 270.6397,-306.6137"/>
<polygon fill="#191970" stroke="#191970" points="272.7272,-303.7858 262.9333,-299.7449 268.0696,-309.0114 272.7272,-303.7858"/>
</g>
<!-- Node30&#45;&gt;Node3 -->
<g id="edge42" class="edge">
<title>Node30&#45;&gt;Node3</title>
<path fill="none" stroke="#191970" d="M318.3478,-224.3733C339.4033,-215.3032 371.1495,-201.6279 394.7175,-191.4755"/>
<polygon fill="#191970" stroke="#191970" points="396.1444,-194.6719 403.9438,-187.5011 393.375,-188.243 396.1444,-194.6719"/>
</g>
<!-- Node30&#45;&gt;Node4 -->
<g id="edge41" class="edge">
<title>Node30&#45;&gt;Node4</title>
<path fill="none" stroke="#191970" d="M295.4101,-224.0567C294.0291,-209.7321 289.4149,-183.3309 274,-168 237.5268,-131.7256 194.1917,-173.6484 164,-132 152.4106,-116.0128 167.2755,-96.2172 181.6733,-82.4975"/>
<polygon fill="#191970" stroke="#191970" points="184.3168,-84.8298 189.4531,-75.5632 179.6591,-79.6042 184.3168,-84.8298"/>
</g>
<!-- Node31 -->
<g id="node32" class="node">
<title>Node31</title>
<polygon fill="none" stroke="#bfbfbf" points="25.5,-168.5 25.5,-187.5 78.5,-187.5 78.5,-168.5 25.5,-168.5"/>
<text text-anchor="middle" x="52" y="-175.5" font-family="Helvetica,sans-Serif" font-size="10.00" fill="#000000">cstddef</text>
</g>
<!-- Node30&#45;&gt;Node31 -->
<g id="edge43" class="edge">
<title>Node30&#45;&gt;Node31</title>
<path fill="none" stroke="#191970" d="M254.3321,-224.4369C207.7364,-213.7428 132.997,-196.5895 88.5797,-186.3953"/>
<polygon fill="#191970" stroke="#191970" points="89.3092,-182.9718 78.7796,-184.1461 87.7433,-189.7945 89.3092,-182.9718"/>
</g>
<!-- Node32 -->
<g id="node33" class="node">
<title>Node32</title>
<polygon fill="none" stroke="#bfbfbf" points="201,-168.5 201,-187.5 265,-187.5 265,-168.5 201,-168.5"/>
<text text-anchor="middle" x="233" y="-175.5" font-family="Helvetica,sans-Serif" font-size="10.00" fill="#000000">algorithm</text>
</g>
<!-- Node30&#45;&gt;Node32 -->
<g id="edge44" class="edge">
<title>Node30&#45;&gt;Node32</title>
<path fill="none" stroke="#191970" d="M285.0262,-224.2455C275.8118,-216.0549 262.4468,-204.1749 251.5703,-194.5069"/>
<polygon fill="#191970" stroke="#191970" points="253.6474,-191.6704 243.848,-187.6427 248.9968,-196.9023 253.6474,-191.6704"/>
</g>
<!-- Node33&#45;&gt;Node4 -->
<g id="edge46" class="edge">
<title>Node33&#45;&gt;Node4</title>
<path fill="none" stroke="#191970" d="M37.9807,-224.3763C24.4179,-211.321 4.5124,-187.4011 16,-168 44.8707,-119.2408 106.2269,-92.2469 150.5901,-78.4688"/>
<polygon fill="#191970" stroke="#191970" points="151.7569,-81.7733 160.3427,-75.5657 149.7597,-75.0642 151.7569,-81.7733"/>
</g>
<!-- Node33&#45;&gt;Node31 -->
<g id="edge47" class="edge">
<title>Node33&#45;&gt;Node31</title>
<path fill="none" stroke="#191970" d="M49.5226,-224.2455C49.914,-216.9382 50.4628,-206.6944 50.9444,-197.7046"/>
<polygon fill="#191970" stroke="#191970" points="54.4434,-197.8156 51.4834,-187.6427 47.4534,-197.4411 54.4434,-197.8156"/>
</g>
<!-- Node34&#45;&gt;Node2 -->
<g id="edge49" class="edge">
<title>Node34&#45;&gt;Node2</title>
<path fill="none" stroke="#191970" d="M288.9598,-280.3733C325.4075,-270.8799 381.2246,-256.3415 420.6289,-246.0781"/>
<polygon fill="#191970" stroke="#191970" points="421.7276,-249.4087 430.5225,-243.5011 419.9631,-242.6348 421.7276,-249.4087"/>
</g>
<!-- Node35 -->
<g id="node36" class="node">
<title>Node35</title>
<g id="a_node36"><a xlink:href="../../d6/da2/GPUCommonMath_8h.html" target="_top" xlink:title="GPUCommonMath.h">
<polygon fill="none" stroke="#000000" points="116.5,-224.5 116.5,-243.5 231.5,-243.5 231.5,-224.5 116.5,-224.5"/>
<text text-anchor="middle" x="174" y="-231.5" font-family="Helvetica,sans-Serif" font-size="10.00" fill="#000000">GPUCommonMath.h</text>
</a>
</g>
</g>
<!-- Node34&#45;&gt;Node35 -->
<g id="edge50" class="edge">
<title>Node34&#45;&gt;Node35</title>
<path fill="none" stroke="#191970" d="M238.4134,-280.2455C226.6695,-271.814 209.4801,-259.4729 195.8118,-249.6598"/>
<polygon fill="#191970" stroke="#191970" points="197.5954,-246.6316 187.4309,-243.6427 193.5129,-252.3179 197.5954,-246.6316"/>
</g>
<!-- Node35&#45;&gt;Node4 -->
<g id="edge51" class="edge">
<title>Node35&#45;&gt;Node4</title>
<path fill="none" stroke="#191970" d="M158.6926,-224.4046C147.2963,-216.2816 132.6141,-203.4994 126,-188 119.4176,-172.5749 119.9532,-130.3257 131,-112 139.3787,-98.1005 153.7524,-87.6298 167.3848,-80.2175"/>
<polygon fill="#191970" stroke="#191970" points="169.2616,-83.1913 176.6214,-75.5699 166.1153,-76.9382 169.2616,-83.1913"/>
</g>
<!-- Node35&#45;&gt;Node32 -->
<g id="edge53" class="edge">
<title>Node35&#45;&gt;Node32</title>
<path fill="none" stroke="#191970" d="M184.277,-224.2455C192.8218,-216.1352 205.1778,-204.4075 215.3085,-194.7919"/>
<polygon fill="#191970" stroke="#191970" points="217.9972,-197.0655 222.8408,-187.6427 213.1782,-191.9884 217.9972,-197.0655"/>
</g>
<!-- Node36 -->
<g id="node37" class="node">
<title>Node36</title>
<polygon fill="none" stroke="#bfbfbf" points="135.5,-168.5 135.5,-187.5 182.5,-187.5 182.5,-168.5 135.5,-168.5"/>
<text text-anchor="middle" x="159" y="-175.5" font-family="Helvetica,sans-Serif" font-size="10.00" fill="#000000">cmath</text>
</g>
<!-- Node35&#45;&gt;Node36 -->
<g id="edge52" class="edge">
<title>Node35&#45;&gt;Node36</title>
<path fill="none" stroke="#191970" d="M171.3872,-224.2455C169.4084,-216.8579 166.6256,-206.4689 164.1988,-197.4087"/>
<polygon fill="#191970" stroke="#191970" points="167.5511,-196.3966 161.5829,-187.6427 160.7895,-198.2078 167.5511,-196.3966"/>
</g>
</g>
</svg>
        <g id="navigator" transform="translate(0 0)" fill="#404254">
                <rect fill="#f2f5e9" fill-opacity="0.5" stroke="#606060" stroke-width=".5" x="0" y="0" width="60" height="60"/>
                <use id="zoomplus" xlink:href="#zoomPlus" x="17" y="9" onmousedown="handleZoom(evt,'in')"/>
                <use id="zoomminus" xlink:href="#zoomMin" x="42" y="9" onmousedown="handleZoom(evt,'out')"/>
                <use id="reset" xlink:href="#resetDef" x="30" y="36" onmousedown="handleReset()"/>
                <g id="arrowUp" xlink:href="#dirArrow" transform="translate(30 24)" onmousedown="handlePan(0,-1)">
                  <use xlink:href="#rim" fill="#404040">
                        <set attributeName="fill" to="#808080" begin="arrowUp.mouseover" end="arrowUp.mouseout"/>
                  </use>
                  <path fill="none" stroke="white" stroke-width="1.5" d="M0,-3.0v7 M-2.5,-0.5L0,-3.0L2.5,-0.5"/>
                </g>
                <g id="arrowRight" xlink:href="#dirArrow" transform="rotate(90) translate(36 -43)" onmousedown="handlePan(1,0)">
                  <use xlink:href="#rim" fill="#404040">
                        <set attributeName="fill" to="#808080" begin="arrowRight.mouseover" end="arrowRight.mouseout"/>
                  </use>
                  <path fill="none" stroke="white" stroke-width="1.5" d="M0,-3.0v7 M-2.5,-0.5L0,-3.0L2.5,-0.5"/>
                </g>
                <g id="arrowDown" xlink:href="#dirArrow" transform="rotate(180) translate(-30 -48)" onmousedown="handlePan(0,1)">
                  <use xlink:href="#rim" fill="#404040">
                        <set attributeName="fill" to="#808080" begin="arrowDown.mouseover" end="arrowDown.mouseout"/>
                  </use>
                  <path fill="none" stroke="white" stroke-width="1.5" d="M0,-3.0v7 M-2.5,-0.5L0,-3.0L2.5,-0.5"/>
                </g>
                <g id="arrowLeft" xlink:href="#dirArrow" transform="rotate(270) translate(-36 17)" onmousedown="handlePan(-1,0)">
                  <use xlink:href="#rim" fill="#404040">
                        <set attributeName="fill" to="#808080" begin="arrowLeft.mouseover" end="arrowLeft.mouseout"/>
                  </use>
                  <path fill="none" stroke="white" stroke-width="1.5" d="M0,-3.0v7 M-2.5,-0.5L0,-3.0L2.5,-0.5"/>
                </g>
        </g>
        <svg viewBox="0 0 15 15" width="100%" height="30px" preserveAspectRatio="xMaxYMin meet">
         <g id="arrow_out" transform="scale(0.3 0.3)">
          <a xlink:href="MCLabelAccumulator_8cxx__incl_org.svg" target="_base">
           <rect id="button" ry="5" rx="5" y="6" x="6" height="38" width="38"
                fill="#f2f5e9" fill-opacity="0.5" stroke="#606060" stroke-width="1.0"/>
           <path id="arrow"
             d="M 11.500037,31.436501 C 11.940474,20.09759 22.043105,11.32322 32.158766,21.979434 L 37.068811,17.246167 C 37.068811,17.246167 37.088388,32 37.088388,32 L 22.160133,31.978069 C 22.160133,31.978069 26.997745,27.140456 26.997745,27.140456 C 18.528582,18.264221 13.291696,25.230495 11.500037,31.436501 z"
             style="fill:#404040;"/>
          </a>
         </g>
        </svg>
</svg>
