<?xml version="1.0" encoding="UTF-8" standalone="no"?>
<!DOCTYPE svg PUBLIC "-//W3C//DTD SVG 1.1//EN"
 "http://www.w3.org/Graphics/SVG/1.1/DTD/svg11.dtd">
<!-- Generated by graphviz version 2.40.1 (20161225.0304)
 -->
<!-- Title: o2::itsmft::GBTLinkDecodingStat Pages: 1 -->
<svg width="494pt" height="215pt"
 viewBox="0.00 0.00 493.50 215.00" xmlns="http://www.w3.org/2000/svg" xmlns:xlink="http://www.w3.org/1999/xlink">
<g id="graph0" class="graph" transform="scale(1 1) rotate(0) translate(4 211)">
<title>o2::itsmft::GBTLinkDecodingStat</title>
<!-- Node1 -->
<g id="node1" class="node">
<title>Node1</title>
<polygon fill="#bfbfbf" stroke="#000000" points="217.5,-.5 217.5,-79.5 393.5,-79.5 393.5,-.5 217.5,-.5"/>
<text text-anchor="middle" x="305.5" y="-67.5" font-family="Helvetica,sans-Serif" font-size="10.00" fill="#000000">o2::itsmft::GBTLinkDecodingStat</text>
<polyline fill="none" stroke="#000000" points="217.5,-60.5 393.5,-60.5 "/>
<text text-anchor="middle" x="305.5" y="-48.5" font-family="Helvetica,sans-Serif" font-size="10.00" fill="#000000"> </text>
<polyline fill="none" stroke="#000000" points="217.5,-41.5 393.5,-41.5 "/>
<text text-anchor="start" x="225.5" y="-29.5" font-family="Helvetica,sans-Serif" font-size="10.00" fill="#000000">+ clear()</text>
<text text-anchor="start" x="225.5" y="-18.5" font-family="Helvetica,sans-Serif" font-size="10.00" fill="#000000">+ print()</text>
<text text-anchor="start" x="225.5" y="-7.5" font-family="Helvetica,sans-Serif" font-size="10.00" fill="#000000">+ ClassDefNV()</text>
</g>
<!-- Node2 -->
<g id="node2" class="node">
<title>Node2</title>
<polygon fill="none" stroke="#bfbfbf" points="0,-138.5 0,-206.5 147,-206.5 147,-138.5 0,-138.5"/>
<text text-anchor="start" x="8" y="-194.5" font-family="Helvetica,sans-Serif" font-size="10.00" fill="#000000">array&lt; int, GBTDataTrailer</text>
<text text-anchor="middle" x="73.5" y="-183.5" font-family="Helvetica,sans-Serif" font-size="10.00" fill="#000000">::MaxStateCombinations &gt;</text>
<polyline fill="none" stroke="#bfbfbf" points="0,-176.5 147,-176.5 "/>
<text text-anchor="middle" x="73.5" y="-164.5" font-family="Helvetica,sans-Serif" font-size="10.00" fill="#000000"> </text>
<polyline fill="none" stroke="#bfbfbf" points="0,-157.5 147,-157.5 "/>
<text text-anchor="middle" x="73.5" y="-145.5" font-family="Helvetica,sans-Serif" font-size="10.00" fill="#000000"> </text>
</g>
<!-- Node2&#45;&gt;Node1 -->
<g id="edge1" class="edge">
<title>Node2&#45;&gt;Node1</title>
<path fill="none" stroke="#404040" d="M122.9027,-138.3315C142.656,-125.1702 165.8268,-110.3472 187.5,-98 194.9998,-93.7274 202.8585,-89.4515 210.8064,-85.2667"/>
<polygon fill="none" stroke="#404040" points="211.0238,-85.1539 214.5062,-78.8394 221.6744,-79.6253 218.192,-85.9398 211.0238,-85.1539"/>
<text text-anchor="middle" x="225.5" y="-106.5" font-family="Helvetica,sans-Serif" font-size="10.00" fill="#000000"> +packetStates</text>
</g>
<!-- Node3 -->
<g id="node3" class="node">
<title>Node3</title>
<polygon fill="none" stroke="#bfbfbf" points="165,-144 165,-201 322,-201 322,-144 165,-144"/>
<text text-anchor="middle" x="243.5" y="-189" font-family="Helvetica,sans-Serif" font-size="10.00" fill="#000000">array&lt; int, NErrorsDefined &gt;</text>
<polyline fill="none" stroke="#bfbfbf" points="165,-182 322,-182 "/>
<text text-anchor="middle" x="243.5" y="-170" font-family="Helvetica,sans-Serif" font-size="10.00" fill="#000000"> </text>
<polyline fill="none" stroke="#bfbfbf" points="165,-163 322,-163 "/>
<text text-anchor="middle" x="243.5" y="-151" font-family="Helvetica,sans-Serif" font-size="10.00" fill="#000000"> </text>
</g>
<!-- Node3&#45;&gt;Node1 -->
<g id="edge2" class="edge">
<title>Node3&#45;&gt;Node1</title>
<path fill="none" stroke="#404040" d="M256.4335,-143.7774C262.7212,-129.9127 270.4306,-113.0573 277.5,-98 278.639,-95.574 279.8102,-93.0939 280.9975,-90.591"/>
<polygon fill="none" stroke="#404040" points="281.089,-90.3992 280.063,-83.2614 286.257,-79.5691 287.283,-86.7068 281.089,-90.3992"/>
<text text-anchor="middle" x="312" y="-106.5" font-family="Helvetica,sans-Serif" font-size="10.00" fill="#000000"> +errorCounts</text>
</g>
<!-- Node4 -->
<g id="node4" class="node">
<title>Node4</title>
<polygon fill="none" stroke="#bfbfbf" points="340,-144 340,-201 401,-201 401,-144 340,-144"/>
<text text-anchor="middle" x="370.5" y="-189" font-family="Helvetica,sans-Serif" font-size="10.00" fill="#000000">unsigned</text>
<polyline fill="none" stroke="#bfbfbf" points="340,-182 401,-182 "/>
<text text-anchor="middle" x="370.5" y="-170" font-family="Helvetica,sans-Serif" font-size="10.00" fill="#000000"> </text>
<polyline fill="none" stroke="#bfbfbf" points="340,-163 401,-163 "/>
<text text-anchor="middle" x="370.5" y="-151" font-family="Helvetica,sans-Serif" font-size="10.00" fill="#000000"> </text>
</g>
<!-- Node4&#45;&gt;Node1 -->
<g id="edge3" class="edge">
<title>Node4&#45;&gt;Node1</title>
<path fill="none" stroke="#404040" d="M363.4478,-143.7552C359.4237,-129.5794 353.7294,-112.4644 346.5,-98 345.1493,-95.2976 343.6816,-92.5812 342.1317,-89.8783"/>
<polygon fill="none" stroke="#404040" points="342.0896,-89.8094 335.544,-86.7836 335.8196,-79.5777 342.3652,-82.6036 342.0896,-89.8094"/>
<text text-anchor="middle" x="381.5" y="-112" font-family="Helvetica,sans-Serif" font-size="10.00" fill="#000000"> +ruLinkID</text>
<text text-anchor="middle" x="381.5" y="-101" font-family="Helvetica,sans-Serif" font-size="10.00" fill="#000000">+nPackets</text>
</g>
<!-- Node5 -->
<g id="node5" class="node">
<title>Node5</title>
<polygon fill="none" stroke="#bfbfbf" points="421.5,-144 421.5,-201 465.5,-201 465.5,-144 421.5,-144"/>
<text text-anchor="middle" x="443.5" y="-189" font-family="Helvetica,sans-Serif" font-size="10.00" fill="#000000">static</text>
<polyline fill="none" stroke="#bfbfbf" points="421.5,-182 465.5,-182 "/>
<text text-anchor="middle" x="443.5" y="-170" font-family="Helvetica,sans-Serif" font-size="10.00" fill="#000000"> </text>
<polyline fill="none" stroke="#bfbfbf" points="421.5,-163 465.5,-163 "/>
<text text-anchor="middle" x="443.5" y="-151" font-family="Helvetica,sans-Serif" font-size="10.00" fill="#000000"> </text>
</g>
<!-- Node5&#45;&gt;Node1 -->
<g id="edge4" class="edge">
<title>Node5&#45;&gt;Node1</title>
<path fill="none" stroke="#404040" d="M436.1164,-143.8052C431.1176,-128.7973 423.2429,-110.9146 411.5,-98 408.0468,-94.2023 404.2854,-90.6007 400.3062,-87.1924"/>
<polygon fill="none" stroke="#404040" points="400.0898,-87.0217 392.9017,-86.4458 390.6686,-79.5892 397.8567,-80.165 400.0898,-87.0217"/>
<text text-anchor="middle" x="455.5" y="-106.5" font-family="Helvetica,sans-Serif" font-size="10.00" fill="#000000"> +ErrNames</text>
</g>
</g>
</svg>
