<?xml version="1.0" encoding="UTF-8" standalone="no"?>
<!DOCTYPE svg PUBLIC "-//W3C//DTD SVG 1.1//EN"
 "http://www.w3.org/Graphics/SVG/1.1/DTD/svg11.dtd">
<!-- Generated by graphviz version 2.40.1 (20161225.0304)
 -->
<!-- Title: TestPages::RawPage Pages: 1 -->
<!--zoomable 617 -->
<svg id="main" version="1.1" xmlns="http://www.w3.org/2000/svg" xmlns:xlink="http://www.w3.org/1999/xlink" xml:space="preserve" onload="init(evt)">
<style type="text/css"><![CDATA[
.edge:hover path { stroke: red; }
.edge:hover polygon { stroke: red; fill: red; }
]]></style>
<script type="text/javascript"><![CDATA[
var edges = document.getElementsByTagName('g');
if (edges && edges.length) {
  for (var i=0;i<edges.length;i++) {
    if (edges[i].id.substr(0,4)=='edge') {
      edges[i].setAttribute('class','edge');
    }
  }
}
]]></script>
        <defs>
                <circle id="rim" cx="0" cy="0" r="7"/>
                <circle id="rim2" cx="0" cy="0" r="3.5"/>
                <g id="zoomPlus">
                        <use xlink:href="#rim" fill="#404040">
                                <set attributeName="fill" to="#808080" begin="zoomplus.mouseover" end="zoomplus.mouseout"/>
                        </use>
                        <path d="M-4,0h8M0,-4v8" fill="none" stroke="white" stroke-width="1.5" pointer-events="none"/>
                </g>
                <g id="zoomMin">
                        <use xlink:href="#rim" fill="#404040">
                                <set attributeName="fill" to="#808080" begin="zoomminus.mouseover" end="zoomminus.mouseout"/>
                        </use>
                        <path d="M-4,0h8" fill="none" stroke="white" stroke-width="1.5" pointer-events="none"/>
                </g>
                <g id="dirArrow">
                        <path fill="none" stroke="white" stroke-width="1.5" d="M0,-3.0v7 M-2.5,-0.5L0,-3.0L2.5,-0.5"/>
                </g>
               <g id="resetDef">
                       <use xlink:href="#rim2" fill="#404040">
                               <set attributeName="fill" to="#808080" begin="reset.mouseover" end="reset.mouseout"/>
                       </use>
               </g>
        </defs>

<script type="text/javascript">
var viewWidth = 1117;
var viewHeight = 617;
var sectionId = 'dynsection-0';
</script>
<script xlink:href="../../svgpan.js"/>
<svg id="graph" class="graph">
<g id="viewport">
<title>TestPages::RawPage</title>
<!-- Node1 -->
<g id="node1" class="node">
<title>Node1</title>
<polygon fill="#bfbfbf" stroke="#000000" points="431,-.5 431,-57.5 546,-57.5 546,-.5 431,-.5"/>
<text text-anchor="middle" x="488.5" y="-45.5" font-family="Helvetica,sans-Serif" font-size="10.00" fill="#000000">TestPages::RawPage</text>
<polyline fill="none" stroke="#000000" points="431,-38.5 546,-38.5 "/>
<text text-anchor="middle" x="488.5" y="-26.5" font-family="Helvetica,sans-Serif" font-size="10.00" fill="#000000"> </text>
<polyline fill="none" stroke="#000000" points="431,-19.5 546,-19.5 "/>
<text text-anchor="middle" x="488.5" y="-7.5" font-family="Helvetica,sans-Serif" font-size="10.00" fill="#000000"> </text>
</g>
<!-- Node2 -->
<g id="node2" class="node">
<title>Node2</title>
<polygon fill="none" stroke="#bfbfbf" points="441.5,-221 441.5,-278 479.5,-278 479.5,-221 441.5,-221"/>
<text text-anchor="middle" x="460.5" y="-266" font-family="Helvetica,sans-Serif" font-size="10.00" fill="#000000">char</text>
<polyline fill="none" stroke="#bfbfbf" points="441.5,-259 479.5,-259 "/>
<text text-anchor="middle" x="460.5" y="-247" font-family="Helvetica,sans-Serif" font-size="10.00" fill="#000000"> </text>
<polyline fill="none" stroke="#bfbfbf" points="441.5,-240 479.5,-240 "/>
<text text-anchor="middle" x="460.5" y="-228" font-family="Helvetica,sans-Serif" font-size="10.00" fill="#000000"> </text>
</g>
<!-- Node2&#45;&gt;Node1 -->
<g id="edge1" class="edge">
<title>Node2&#45;&gt;Node1</title>
<path fill="none" stroke="#404040" d="M464.1605,-220.6735C469.0551,-182.129 477.7591,-113.5847 483.3237,-69.7637"/>
<polygon fill="none" stroke="#404040" points="483.3268,-69.738 480.1146,-63.2819 484.8386,-57.8336 488.0508,-64.2897 483.3268,-69.738"/>
<text text-anchor="middle" x="499.5" y="-79" font-family="Helvetica,sans-Serif" font-size="10.00" fill="#000000"> +data</text>
</g>
<!-- Node3 -->
<g id="node3" class="node">
<title>Node3</title>
<g id="a_node3"><a xlink:href="../../d8/d47/structo2_1_1header_1_1RAWDataHeaderV4.html" target="_top" xlink:title="{o2::header::RAWDataHeaderV4\n|+ word0\l+ version\l+ headerSize\l+ blockLength\l+ zero0\l+ word1\l+ offsetToNext\l+ memorySize\l+ packetCounter\l+ cruID\l+ word2\l+ word3\l+ word4\l+ triggerBC\l+ zero41\l+ heartbeatBC\l+ zero42\l+ word5\l+ word6\l+ detectorField\l+ stop\l+ pageCnt\l|}">
<polygon fill="none" stroke="#000000" points="497,-105.5 497,-393.5 664,-393.5 664,-105.5 497,-105.5"/>
<text text-anchor="middle" x="580.5" y="-381.5" font-family="Helvetica,sans-Serif" font-size="10.00" fill="#000000">o2::header::RAWDataHeaderV4</text>
<polyline fill="none" stroke="#000000" points="497,-374.5 664,-374.5 "/>
<text text-anchor="start" x="505" y="-362.5" font-family="Helvetica,sans-Serif" font-size="10.00" fill="#000000">+ word0</text>
<text text-anchor="start" x="505" y="-351.5" font-family="Helvetica,sans-Serif" font-size="10.00" fill="#000000">+ version</text>
<text text-anchor="start" x="505" y="-340.5" font-family="Helvetica,sans-Serif" font-size="10.00" fill="#000000">+ headerSize</text>
<text text-anchor="start" x="505" y="-329.5" font-family="Helvetica,sans-Serif" font-size="10.00" fill="#000000">+ blockLength</text>
<text text-anchor="start" x="505" y="-318.5" font-family="Helvetica,sans-Serif" font-size="10.00" fill="#000000">+ zero0</text>
<text text-anchor="start" x="505" y="-307.5" font-family="Helvetica,sans-Serif" font-size="10.00" fill="#000000">+ word1</text>
<text text-anchor="start" x="505" y="-296.5" font-family="Helvetica,sans-Serif" font-size="10.00" fill="#000000">+ offsetToNext</text>
<text text-anchor="start" x="505" y="-285.5" font-family="Helvetica,sans-Serif" font-size="10.00" fill="#000000">+ memorySize</text>
<text text-anchor="start" x="505" y="-274.5" font-family="Helvetica,sans-Serif" font-size="10.00" fill="#000000">+ packetCounter</text>
<text text-anchor="start" x="505" y="-263.5" font-family="Helvetica,sans-Serif" font-size="10.00" fill="#000000">+ cruID</text>
<text text-anchor="start" x="505" y="-252.5" font-family="Helvetica,sans-Serif" font-size="10.00" fill="#000000">+ word2</text>
<text text-anchor="start" x="505" y="-241.5" font-family="Helvetica,sans-Serif" font-size="10.00" fill="#000000">+ word3</text>
<text text-anchor="start" x="505" y="-230.5" font-family="Helvetica,sans-Serif" font-size="10.00" fill="#000000">+ word4</text>
<text text-anchor="start" x="505" y="-219.5" font-family="Helvetica,sans-Serif" font-size="10.00" fill="#000000">+ triggerBC</text>
<text text-anchor="start" x="505" y="-208.5" font-family="Helvetica,sans-Serif" font-size="10.00" fill="#000000">+ zero41</text>
<text text-anchor="start" x="505" y="-197.5" font-family="Helvetica,sans-Serif" font-size="10.00" fill="#000000">+ heartbeatBC</text>
<text text-anchor="start" x="505" y="-186.5" font-family="Helvetica,sans-Serif" font-size="10.00" fill="#000000">+ zero42</text>
<text text-anchor="start" x="505" y="-175.5" font-family="Helvetica,sans-Serif" font-size="10.00" fill="#000000">+ word5</text>
<text text-anchor="start" x="505" y="-164.5" font-family="Helvetica,sans-Serif" font-size="10.00" fill="#000000">+ word6</text>
<text text-anchor="start" x="505" y="-153.5" font-family="Helvetica,sans-Serif" font-size="10.00" fill="#000000">+ detectorField</text>
<text text-anchor="start" x="505" y="-142.5" font-family="Helvetica,sans-Serif" font-size="10.00" fill="#000000">+ stop</text>
<text text-anchor="start" x="505" y="-131.5" font-family="Helvetica,sans-Serif" font-size="10.00" fill="#000000">+ pageCnt</text>
<polyline fill="none" stroke="#000000" points="497,-124.5 664,-124.5 "/>
<text text-anchor="middle" x="580.5" y="-112.5" font-family="Helvetica,sans-Serif" font-size="10.00" fill="#000000"> </text>
</a>
</g>
</g>
<!-- Node3&#45;&gt;Node1 -->
<g id="edge2" class="edge">
<title>Node3&#45;&gt;Node1</title>
<path fill="none" stroke="#404040" d="M533.978,-105.3024C529.7196,-95.2583 525.2197,-85.3993 520.5,-76 519.1434,-73.2983 517.6534,-70.5705 516.0814,-67.8613"/>
<polygon fill="none" stroke="#404040" points="516.0429,-67.7991 509.4818,-64.8071 509.7201,-57.5999 516.2812,-60.5919 516.0429,-67.7991"/>
<text text-anchor="middle" x="538.5" y="-79" font-family="Helvetica,sans-Serif" font-size="10.00" fill="#000000"> +rdh</text>
</g>
<!-- Node4 -->
<g id="node4" class="node">
<title>Node4</title>
<polygon fill="none" stroke="#bfbfbf" points="0,-551.5 0,-608.5 113,-608.5 113,-551.5 0,-551.5"/>
<text text-anchor="middle" x="56.5" y="-596.5" font-family="Helvetica,sans-Serif" font-size="10.00" fill="#000000">anonymous:+@148</text>
<polyline fill="none" stroke="#bfbfbf" points="0,-589.5 113,-589.5 "/>
<text text-anchor="middle" x="56.5" y="-577.5" font-family="Helvetica,sans-Serif" font-size="10.00" fill="#000000"> </text>
<polyline fill="none" stroke="#bfbfbf" points="0,-570.5 113,-570.5 "/>
<text text-anchor="middle" x="56.5" y="-558.5" font-family="Helvetica,sans-Serif" font-size="10.00" fill="#000000"> </text>
</g>
<!-- Node4&#45;&gt;Node3 -->
<g id="edge3" class="edge">
<title>Node4&#45;&gt;Node3</title>
<path fill="none" stroke="#404040" d="M65.1225,-551.3879C78.6155,-512.1969 108.7883,-443.1397 161.5,-412 221.2224,-376.7187 407.0983,-425.7298 485.9273,-393.9739"/>
<polygon fill="none" stroke="#404040" points="485.972,-393.9521 489.6063,-387.7237 496.7533,-388.6829 493.119,-394.9113 485.972,-393.9521"/>
<text text-anchor="middle" x="181.5" y="-470" font-family="Helvetica,sans-Serif" font-size="10.00" fill="#000000"> +@148</text>
</g>
<!-- Node5 -->
<g id="node5" class="node">
<title>Node5</title>
<polygon fill="none" stroke="#bfbfbf" points="131,-551.5 131,-608.5 244,-608.5 244,-551.5 131,-551.5"/>
<text text-anchor="middle" x="187.5" y="-596.5" font-family="Helvetica,sans-Serif" font-size="10.00" fill="#000000">anonymous:+@140</text>
<polyline fill="none" stroke="#bfbfbf" points="131,-589.5 244,-589.5 "/>
<text text-anchor="middle" x="187.5" y="-577.5" font-family="Helvetica,sans-Serif" font-size="10.00" fill="#000000"> </text>
<polyline fill="none" stroke="#bfbfbf" points="131,-570.5 244,-570.5 "/>
<text text-anchor="middle" x="187.5" y="-558.5" font-family="Helvetica,sans-Serif" font-size="10.00" fill="#000000"> </text>
</g>
<!-- Node5&#45;&gt;Node3 -->
<g id="edge4" class="edge">
<title>Node5&#45;&gt;Node3</title>
<path fill="none" stroke="#404040" d="M196.5672,-551.323C210.5353,-512.3877 241.3127,-443.9954 293.5,-412 364.3669,-368.5523 409.9729,-433.035 485.7669,-394.6595"/>
<polygon fill="none" stroke="#404040" points="486.2039,-394.4142 489.4778,-387.9891 496.6679,-388.5399 493.394,-394.965 486.2039,-394.4142"/>
<text text-anchor="middle" x="313.5" y="-470" font-family="Helvetica,sans-Serif" font-size="10.00" fill="#000000"> +@140</text>
</g>
<!-- Node6 -->
<g id="node6" class="node">
<title>Node6</title>
<polygon fill="none" stroke="#bfbfbf" points="262,-551.5 262,-608.5 375,-608.5 375,-551.5 262,-551.5"/>
<text text-anchor="middle" x="318.5" y="-596.5" font-family="Helvetica,sans-Serif" font-size="10.00" fill="#000000">anonymous:+@150</text>
<polyline fill="none" stroke="#bfbfbf" points="262,-589.5 375,-589.5 "/>
<text text-anchor="middle" x="318.5" y="-577.5" font-family="Helvetica,sans-Serif" font-size="10.00" fill="#000000"> </text>
<polyline fill="none" stroke="#bfbfbf" points="262,-570.5 375,-570.5 "/>
<text text-anchor="middle" x="318.5" y="-558.5" font-family="Helvetica,sans-Serif" font-size="10.00" fill="#000000"> </text>
</g>
<!-- Node6&#45;&gt;Node3 -->
<g id="edge5" class="edge">
<title>Node6&#45;&gt;Node3</title>
<path fill="none" stroke="#404040" d="M329.1576,-551.3768C344.6217,-513.7792 376.8584,-448.2908 425.5,-412 446.1961,-396.5589 461.3734,-408.0421 486.6626,-394.001"/>
<polygon fill="none" stroke="#404040" points="486.8651,-393.8674 489.6715,-387.2248 496.8826,-387.2605 494.0762,-393.9031 486.8651,-393.8674"/>
<text text-anchor="middle" x="445.5" y="-470" font-family="Helvetica,sans-Serif" font-size="10.00" fill="#000000"> +@150</text>
</g>
<!-- Node7 -->
<g id="node7" class="node">
<title>Node7</title>
<polygon fill="none" stroke="#bfbfbf" points="393,-551.5 393,-608.5 506,-608.5 506,-551.5 393,-551.5"/>
<text text-anchor="middle" x="449.5" y="-596.5" font-family="Helvetica,sans-Serif" font-size="10.00" fill="#000000">anonymous:+@152</text>
<polyline fill="none" stroke="#bfbfbf" points="393,-589.5 506,-589.5 "/>
<text text-anchor="middle" x="449.5" y="-577.5" font-family="Helvetica,sans-Serif" font-size="10.00" fill="#000000"> </text>
<polyline fill="none" stroke="#bfbfbf" points="393,-570.5 506,-570.5 "/>
<text text-anchor="middle" x="449.5" y="-558.5" font-family="Helvetica,sans-Serif" font-size="10.00" fill="#000000"> </text>
</g>
<!-- Node7&#45;&gt;Node3 -->
<g id="edge6" class="edge">
<title>Node7&#45;&gt;Node3</title>
<path fill="none" stroke="#404040" d="M460.8962,-551.2485C474.0578,-518.0432 496.7454,-460.8046 518.8469,-405.0446"/>
<polygon fill="none" stroke="#404040" points="518.9814,-404.7051 517.4738,-397.6534 523.4032,-393.5495 524.9109,-400.6012 518.9814,-404.7051"/>
<text text-anchor="middle" x="534.5" y="-470" font-family="Helvetica,sans-Serif" font-size="10.00" fill="#000000"> +@152</text>
</g>
<!-- Node8 -->
<g id="node8" class="node">
<title>Node8</title>
<polygon fill="none" stroke="#bfbfbf" points="524,-551.5 524,-608.5 637,-608.5 637,-551.5 524,-551.5"/>
<text text-anchor="middle" x="580.5" y="-596.5" font-family="Helvetica,sans-Serif" font-size="10.00" fill="#000000">anonymous:+@154</text>
<polyline fill="none" stroke="#bfbfbf" points="524,-589.5 637,-589.5 "/>
<text text-anchor="middle" x="580.5" y="-577.5" font-family="Helvetica,sans-Serif" font-size="10.00" fill="#000000"> </text>
<polyline fill="none" stroke="#bfbfbf" points="524,-570.5 637,-570.5 "/>
<text text-anchor="middle" x="580.5" y="-558.5" font-family="Helvetica,sans-Serif" font-size="10.00" fill="#000000"> </text>
</g>
<!-- Node8&#45;&gt;Node3 -->
<g id="edge7" class="edge">
<title>Node8&#45;&gt;Node3</title>
<path fill="none" stroke="#404040" d="M580.5,-551.2485C580.5,-518.1819 580.5,-461.2821 580.5,-405.7431"/>
<polygon fill="none" stroke="#404040" points="580.5001,-405.5495 576.5,-399.5495 580.5,-393.5495 584.5,-399.5495 580.5001,-405.5495"/>
<text text-anchor="middle" x="600.5" y="-470" font-family="Helvetica,sans-Serif" font-size="10.00" fill="#000000"> +@154</text>
</g>
<!-- Node9 -->
<g id="node9" class="node">
<title>Node9</title>
<polygon fill="none" stroke="#bfbfbf" points="655,-551.5 655,-608.5 768,-608.5 768,-551.5 655,-551.5"/>
<text text-anchor="middle" x="711.5" y="-596.5" font-family="Helvetica,sans-Serif" font-size="10.00" fill="#000000">anonymous:+@142</text>
<polyline fill="none" stroke="#bfbfbf" points="655,-589.5 768,-589.5 "/>
<text text-anchor="middle" x="711.5" y="-577.5" font-family="Helvetica,sans-Serif" font-size="10.00" fill="#000000"> </text>
<polyline fill="none" stroke="#bfbfbf" points="655,-570.5 768,-570.5 "/>
<text text-anchor="middle" x="711.5" y="-558.5" font-family="Helvetica,sans-Serif" font-size="10.00" fill="#000000"> </text>
</g>
<!-- Node9&#45;&gt;Node3 -->
<g id="edge8" class="edge">
<title>Node9&#45;&gt;Node3</title>
<path fill="none" stroke="#404040" d="M700.1038,-551.2485C686.9422,-518.0432 664.2546,-460.8046 642.1531,-405.0446"/>
<polygon fill="none" stroke="#404040" points="642.0186,-404.7051 636.0891,-400.6012 637.5968,-393.5495 643.5262,-397.6534 642.0186,-404.7051"/>
<text text-anchor="middle" x="711.5" y="-470" font-family="Helvetica,sans-Serif" font-size="10.00" fill="#000000"> +@142</text>
</g>
<!-- Node10 -->
<g id="node10" class="node">
<title>Node10</title>
<polygon fill="none" stroke="#bfbfbf" points="786,-551.5 786,-608.5 899,-608.5 899,-551.5 786,-551.5"/>
<text text-anchor="middle" x="842.5" y="-596.5" font-family="Helvetica,sans-Serif" font-size="10.00" fill="#000000">anonymous:+@144</text>
<polyline fill="none" stroke="#bfbfbf" points="786,-589.5 899,-589.5 "/>
<text text-anchor="middle" x="842.5" y="-577.5" font-family="Helvetica,sans-Serif" font-size="10.00" fill="#000000"> </text>
<polyline fill="none" stroke="#bfbfbf" points="786,-570.5 899,-570.5 "/>
<text text-anchor="middle" x="842.5" y="-558.5" font-family="Helvetica,sans-Serif" font-size="10.00" fill="#000000"> </text>
</g>
<!-- Node10&#45;&gt;Node3 -->
<g id="edge9" class="edge">
<title>Node10&#45;&gt;Node3</title>
<path fill="none" stroke="#404040" d="M826.486,-551.2248C806.8319,-516.8323 771.6423,-458.1436 735.5,-412 716.3989,-387.6132 694.2239,-362.711 672.7229,-339.9625"/>
<polygon fill="none" stroke="#404040" points="672.4832,-339.7109 665.4483,-338.1265 664.205,-331.0234 671.24,-332.6077 672.4832,-339.7109"/>
<text text-anchor="middle" x="833.5" y="-470" font-family="Helvetica,sans-Serif" font-size="10.00" fill="#000000"> +@144</text>
</g>
<!-- Node11 -->
<g id="node11" class="node">
<title>Node11</title>
<polygon fill="none" stroke="#bfbfbf" points="917,-551.5 917,-608.5 978,-608.5 978,-551.5 917,-551.5"/>
<text text-anchor="middle" x="947.5" y="-596.5" font-family="Helvetica,sans-Serif" font-size="10.00" fill="#000000">unsigned</text>
<polyline fill="none" stroke="#bfbfbf" points="917,-589.5 978,-589.5 "/>
<text text-anchor="middle" x="947.5" y="-577.5" font-family="Helvetica,sans-Serif" font-size="10.00" fill="#000000"> </text>
<polyline fill="none" stroke="#bfbfbf" points="917,-570.5 978,-570.5 "/>
<text text-anchor="middle" x="947.5" y="-558.5" font-family="Helvetica,sans-Serif" font-size="10.00" fill="#000000"> </text>
</g>
<!-- Node11&#45;&gt;Node3 -->
<g id="edge10" class="edge">
<title>Node11&#45;&gt;Node3</title>
<path fill="none" stroke="#404040" d="M937.7677,-551.4812C924.3347,-515.4722 897.1853,-453.2529 857.5,-412 806.0259,-358.4926 733.1497,-316.6814 675.0661,-288.8767"/>
<polygon fill="none" stroke="#404040" points="674.8849,-288.7914 667.7522,-289.852 664.0298,-283.6759 671.1625,-282.6153 674.8849,-288.7914"/>
<text text-anchor="middle" x="969.5" y="-525" font-family="Helvetica,sans-Serif" font-size="10.00" fill="#000000"> +word7</text>
<text text-anchor="middle" x="969.5" y="-514" font-family="Helvetica,sans-Serif" font-size="10.00" fill="#000000">+triggerType</text>
<text text-anchor="middle" x="969.5" y="-503" font-family="Helvetica,sans-Serif" font-size="10.00" fill="#000000">+heartbeatOrbit</text>
<text text-anchor="middle" x="969.5" y="-492" font-family="Helvetica,sans-Serif" font-size="10.00" fill="#000000">+linkID</text>
<text text-anchor="middle" x="969.5" y="-481" font-family="Helvetica,sans-Serif" font-size="10.00" fill="#000000">+zero6</text>
<text text-anchor="middle" x="969.5" y="-470" font-family="Helvetica,sans-Serif" font-size="10.00" fill="#000000">+par</text>
<text text-anchor="middle" x="969.5" y="-459" font-family="Helvetica,sans-Serif" font-size="10.00" fill="#000000">+feeId</text>
<text text-anchor="middle" x="969.5" y="-448" font-family="Helvetica,sans-Serif" font-size="10.00" fill="#000000">+endPointID</text>
<text text-anchor="middle" x="969.5" y="-437" font-family="Helvetica,sans-Serif" font-size="10.00" fill="#000000">+priority</text>
<text text-anchor="middle" x="969.5" y="-426" font-family="Helvetica,sans-Serif" font-size="10.00" fill="#000000">+triggerOrbit</text>
<text text-anchor="middle" x="969.5" y="-415" font-family="Helvetica,sans-Serif" font-size="10.00" fill="#000000">...</text>
</g>
<!-- Node12 -->
<g id="node12" class="node">
<title>Node12</title>
<polygon fill="none" stroke="#bfbfbf" points="996,-551.5 996,-608.5 1109,-608.5 1109,-551.5 996,-551.5"/>
<text text-anchor="middle" x="1052.5" y="-596.5" font-family="Helvetica,sans-Serif" font-size="10.00" fill="#000000">anonymous:+@146</text>
<polyline fill="none" stroke="#bfbfbf" points="996,-589.5 1109,-589.5 "/>
<text text-anchor="middle" x="1052.5" y="-577.5" font-family="Helvetica,sans-Serif" font-size="10.00" fill="#000000"> </text>
<polyline fill="none" stroke="#bfbfbf" points="996,-570.5 1109,-570.5 "/>
<text text-anchor="middle" x="1052.5" y="-558.5" font-family="Helvetica,sans-Serif" font-size="10.00" fill="#000000"> </text>
</g>
<!-- Node12&#45;&gt;Node3 -->
<g id="edge11" class="edge">
<title>Node12&#45;&gt;Node3</title>
<path fill="none" stroke="#404040" d="M1053.6325,-551.3887C1053.5233,-514.7057 1047.8512,-451.1709 1013.5,-412 927.2321,-313.6282 775.3471,-274.6493 676.3343,-259.31"/>
<polygon fill="none" stroke="#404040" points="676.0993,-259.2752 669.5766,-262.3499 664.2297,-257.5114 670.7524,-254.4367 676.0993,-259.2752"/>
<text text-anchor="middle" x="1072.5" y="-470" font-family="Helvetica,sans-Serif" font-size="10.00" fill="#000000"> +@146</text>
</g>
</g>
</svg>
        <g id="navigator" transform="translate(0 0)" fill="#404254">
                <rect fill="#f2f5e9" fill-opacity="0.5" stroke="#606060" stroke-width=".5" x="0" y="0" width="60" height="60"/>
                <use id="zoomplus" xlink:href="#zoomPlus" x="17" y="9" onmousedown="handleZoom(evt,'in')"/>
                <use id="zoomminus" xlink:href="#zoomMin" x="42" y="9" onmousedown="handleZoom(evt,'out')"/>
                <use id="reset" xlink:href="#resetDef" x="30" y="36" onmousedown="handleReset()"/>
                <g id="arrowUp" xlink:href="#dirArrow" transform="translate(30 24)" onmousedown="handlePan(0,-1)">
                  <use xlink:href="#rim" fill="#404040">
                        <set attributeName="fill" to="#808080" begin="arrowUp.mouseover" end="arrowUp.mouseout"/>
                  </use>
                  <path fill="none" stroke="white" stroke-width="1.5" d="M0,-3.0v7 M-2.5,-0.5L0,-3.0L2.5,-0.5"/>
                </g>
                <g id="arrowRight" xlink:href="#dirArrow" transform="rotate(90) translate(36 -43)" onmousedown="handlePan(1,0)">
                  <use xlink:href="#rim" fill="#404040">
                        <set attributeName="fill" to="#808080" begin="arrowRight.mouseover" end="arrowRight.mouseout"/>
                  </use>
                  <path fill="none" stroke="white" stroke-width="1.5" d="M0,-3.0v7 M-2.5,-0.5L0,-3.0L2.5,-0.5"/>
                </g>
                <g id="arrowDown" xlink:href="#dirArrow" transform="rotate(180) translate(-30 -48)" onmousedown="handlePan(0,1)">
                  <use xlink:href="#rim" fill="#404040">
                        <set attributeName="fill" to="#808080" begin="arrowDown.mouseover" end="arrowDown.mouseout"/>
                  </use>
                  <path fill="none" stroke="white" stroke-width="1.5" d="M0,-3.0v7 M-2.5,-0.5L0,-3.0L2.5,-0.5"/>
                </g>
                <g id="arrowLeft" xlink:href="#dirArrow" transform="rotate(270) translate(-36 17)" onmousedown="handlePan(-1,0)">
                  <use xlink:href="#rim" fill="#404040">
                        <set attributeName="fill" to="#808080" begin="arrowLeft.mouseover" end="arrowLeft.mouseout"/>
                  </use>
                  <path fill="none" stroke="white" stroke-width="1.5" d="M0,-3.0v7 M-2.5,-0.5L0,-3.0L2.5,-0.5"/>
                </g>
        </g>
        <svg viewBox="0 0 15 15" width="100%" height="30px" preserveAspectRatio="xMaxYMin meet">
         <g id="arrow_out" transform="scale(0.3 0.3)">
          <a xlink:href="structTestPages_1_1RawPage__coll__graph_org.svg" target="_base">
           <rect id="button" ry="5" rx="5" y="6" x="6" height="38" width="38"
                fill="#f2f5e9" fill-opacity="0.5" stroke="#606060" stroke-width="1.0"/>
           <path id="arrow"
             d="M 11.500037,31.436501 C 11.940474,20.09759 22.043105,11.32322 32.158766,21.979434 L 37.068811,17.246167 C 37.068811,17.246167 37.088388,32 37.088388,32 L 22.160133,31.978069 C 22.160133,31.978069 26.997745,27.140456 26.997745,27.140456 C 18.528582,18.264221 13.291696,25.230495 11.500037,31.436501 z"
             style="fill:#404040;"/>
          </a>
         </g>
        </svg>
</svg>
