<?xml version="1.0" encoding="UTF-8" standalone="no"?>
<!DOCTYPE svg PUBLIC "-//W3C//DTD SVG 1.1//EN"
 "http://www.w3.org/Graphics/SVG/1.1/DTD/svg11.dtd">
<!-- Generated by graphviz version 2.40.1 (20161225.0304)
 -->
<!-- Title: o2::zdc::TriggerChannelConfig Pages: 1 -->
<svg width="207pt" height="204pt"
 viewBox="0.00 0.00 206.50 204.00" xmlns="http://www.w3.org/2000/svg" xmlns:xlink="http://www.w3.org/1999/xlink">
<g id="graph0" class="graph" transform="scale(1 1) rotate(0) translate(4 200)">
<title>o2::zdc::TriggerChannelConfig</title>
<!-- Node1 -->
<g id="node1" class="node">
<title>Node1</title>
<polygon fill="#bfbfbf" stroke="#000000" points="6.5,-.5 6.5,-68.5 167.5,-68.5 167.5,-.5 6.5,-.5"/>
<text text-anchor="middle" x="87" y="-56.5" font-family="Helvetica,sans-Serif" font-size="10.00" fill="#000000">o2::zdc::TriggerChannelConfig</text>
<polyline fill="none" stroke="#000000" points="6.5,-49.5 167.5,-49.5 "/>
<text text-anchor="middle" x="87" y="-37.5" font-family="Helvetica,sans-Serif" font-size="10.00" fill="#000000"> </text>
<polyline fill="none" stroke="#000000" points="6.5,-30.5 167.5,-30.5 "/>
<text text-anchor="start" x="14.5" y="-18.5" font-family="Helvetica,sans-Serif" font-size="10.00" fill="#000000">+ print()</text>
<text text-anchor="start" x="14.5" y="-7.5" font-family="Helvetica,sans-Serif" font-size="10.00" fill="#000000">+ ClassDefNV()</text>
</g>
<!-- Node2 -->
<g id="node2" class="node">
<title>Node2</title>
<polygon fill="none" stroke="#bfbfbf" points="0,-138.5 0,-195.5 44,-195.5 44,-138.5 0,-138.5"/>
<text text-anchor="middle" x="22" y="-183.5" font-family="Helvetica,sans-Serif" font-size="10.00" fill="#000000">int8_t</text>
<polyline fill="none" stroke="#bfbfbf" points="0,-176.5 44,-176.5 "/>
<text text-anchor="middle" x="22" y="-164.5" font-family="Helvetica,sans-Serif" font-size="10.00" fill="#000000"> </text>
<polyline fill="none" stroke="#bfbfbf" points="0,-157.5 44,-157.5 "/>
<text text-anchor="middle" x="22" y="-145.5" font-family="Helvetica,sans-Serif" font-size="10.00" fill="#000000"> </text>
</g>
<!-- Node2&#45;&gt;Node1 -->
<g id="edge1" class="edge">
<title>Node2&#45;&gt;Node1</title>
<path fill="none" stroke="#404040" d="M31.0145,-138.1829C36.3138,-122.6517 43.6144,-103.3706 52,-87 53.3765,-84.3127 54.8623,-81.5955 56.418,-78.886"/>
<polygon fill="none" stroke="#404040" points="56.4608,-78.8153 56.1499,-71.6109 62.6806,-68.553 62.9915,-75.7574 56.4608,-78.8153"/>
<text text-anchor="middle" x="67.5" y="-112" font-family="Helvetica,sans-Serif" font-size="10.00" fill="#000000"> +first</text>
<text text-anchor="middle" x="67.5" y="-101" font-family="Helvetica,sans-Serif" font-size="10.00" fill="#000000">+id</text>
<text text-anchor="middle" x="67.5" y="-90" font-family="Helvetica,sans-Serif" font-size="10.00" fill="#000000">+last</text>
</g>
<!-- Node3 -->
<g id="node3" class="node">
<title>Node3</title>
<polygon fill="none" stroke="#bfbfbf" points="62,-138.5 62,-195.5 112,-195.5 112,-138.5 62,-138.5"/>
<text text-anchor="middle" x="87" y="-183.5" font-family="Helvetica,sans-Serif" font-size="10.00" fill="#000000">int16_t</text>
<polyline fill="none" stroke="#bfbfbf" points="62,-176.5 112,-176.5 "/>
<text text-anchor="middle" x="87" y="-164.5" font-family="Helvetica,sans-Serif" font-size="10.00" fill="#000000"> </text>
<polyline fill="none" stroke="#bfbfbf" points="62,-157.5 112,-157.5 "/>
<text text-anchor="middle" x="87" y="-145.5" font-family="Helvetica,sans-Serif" font-size="10.00" fill="#000000"> </text>
</g>
<!-- Node3&#45;&gt;Node1 -->
<g id="edge2" class="edge">
<title>Node3&#45;&gt;Node1</title>
<path fill="none" stroke="#404040" d="M87,-138.2495C87,-121.5167 87,-100.0253 87,-80.9467"/>
<polygon fill="none" stroke="#404040" points="87.0001,-80.8321 83,-74.8321 87,-68.8321 91,-74.8321 87.0001,-80.8321"/>
<text text-anchor="middle" x="116" y="-101" font-family="Helvetica,sans-Serif" font-size="10.00" fill="#000000"> +threshold</text>
</g>
<!-- Node4 -->
<g id="node4" class="node">
<title>Node4</title>
<polygon fill="none" stroke="#bfbfbf" points="137.5,-138.5 137.5,-195.5 198.5,-195.5 198.5,-138.5 137.5,-138.5"/>
<text text-anchor="middle" x="168" y="-183.5" font-family="Helvetica,sans-Serif" font-size="10.00" fill="#000000">unsigned</text>
<polyline fill="none" stroke="#bfbfbf" points="137.5,-176.5 198.5,-176.5 "/>
<text text-anchor="middle" x="168" y="-164.5" font-family="Helvetica,sans-Serif" font-size="10.00" fill="#000000"> </text>
<polyline fill="none" stroke="#bfbfbf" points="137.5,-157.5 198.5,-157.5 "/>
<text text-anchor="middle" x="168" y="-145.5" font-family="Helvetica,sans-Serif" font-size="10.00" fill="#000000"> </text>
</g>
<!-- Node4&#45;&gt;Node1 -->
<g id="edge3" class="edge">
<title>Node4&#45;&gt;Node1</title>
<path fill="none" stroke="#404040" d="M164.2261,-138.3677C161.1451,-122.3483 155.6552,-102.5382 146,-87 144.0371,-83.841 141.8277,-80.7621 139.4462,-77.7817"/>
<polygon fill="none" stroke="#404040" points="139.2945,-77.6102 132.3234,-75.7653 131.3451,-68.6209 138.3162,-70.4657 139.2945,-77.6102"/>
<text text-anchor="middle" x="176" y="-101" font-family="Helvetica,sans-Serif" font-size="10.00" fill="#000000"> +shift</text>
</g>
</g>
</svg>
