<?xml version="1.0" encoding="UTF-8" standalone="no"?>
<!DOCTYPE svg PUBLIC "-//W3C//DTD SVG 1.1//EN"
 "http://www.w3.org/Graphics/SVG/1.1/DTD/svg11.dtd">
<!-- Generated by graphviz version 2.40.1 (20161225.0304)
 -->
<!-- Title: o2::fv0::RawEventData Pages: 1 -->
<!--zoomable 496 -->
<svg id="main" version="1.1" xmlns="http://www.w3.org/2000/svg" xmlns:xlink="http://www.w3.org/1999/xlink" xml:space="preserve" onload="init(evt)">
<style type="text/css"><![CDATA[
.edge:hover path { stroke: red; }
.edge:hover polygon { stroke: red; fill: red; }
]]></style>
<script type="text/javascript"><![CDATA[
var edges = document.getElementsByTagName('g');
if (edges && edges.length) {
  for (var i=0;i<edges.length;i++) {
    if (edges[i].id.substr(0,4)=='edge') {
      edges[i].setAttribute('class','edge');
    }
  }
}
]]></script>
        <defs>
                <circle id="rim" cx="0" cy="0" r="7"/>
                <circle id="rim2" cx="0" cy="0" r="3.5"/>
                <g id="zoomPlus">
                        <use xlink:href="#rim" fill="#404040">
                                <set attributeName="fill" to="#808080" begin="zoomplus.mouseover" end="zoomplus.mouseout"/>
                        </use>
                        <path d="M-4,0h8M0,-4v8" fill="none" stroke="white" stroke-width="1.5" pointer-events="none"/>
                </g>
                <g id="zoomMin">
                        <use xlink:href="#rim" fill="#404040">
                                <set attributeName="fill" to="#808080" begin="zoomminus.mouseover" end="zoomminus.mouseout"/>
                        </use>
                        <path d="M-4,0h8" fill="none" stroke="white" stroke-width="1.5" pointer-events="none"/>
                </g>
                <g id="dirArrow">
                        <path fill="none" stroke="white" stroke-width="1.5" d="M0,-3.0v7 M-2.5,-0.5L0,-3.0L2.5,-0.5"/>
                </g>
               <g id="resetDef">
                       <use xlink:href="#rim2" fill="#404040">
                               <set attributeName="fill" to="#808080" begin="reset.mouseover" end="reset.mouseout"/>
                       </use>
               </g>
        </defs>

<script type="text/javascript">
var viewWidth = 1066;
var viewHeight = 496;
var sectionId = 'dynsection-0';
</script>
<script xlink:href="../../svgpan.js"/>
<svg id="graph" class="graph">
<g id="viewport">
<title>o2::fv0::RawEventData</title>
<!-- Node1 -->
<g id="node1" class="node">
<title>Node1</title>
<polygon fill="#bfbfbf" stroke="#000000" points="604.5,-.5 604.5,-145.5 744.5,-145.5 744.5,-.5 604.5,-.5"/>
<text text-anchor="middle" x="674.5" y="-133.5" font-family="Helvetica,sans-Serif" font-size="10.00" fill="#000000">o2::fv0::RawEventData</text>
<polyline fill="none" stroke="#000000" points="604.5,-126.5 744.5,-126.5 "/>
<text text-anchor="middle" x="674.5" y="-114.5" font-family="Helvetica,sans-Serif" font-size="10.00" fill="#000000"> </text>
<polyline fill="none" stroke="#000000" points="604.5,-107.5 744.5,-107.5 "/>
<text text-anchor="start" x="612.5" y="-95.5" font-family="Helvetica,sans-Serif" font-size="10.00" fill="#000000">+ RawEventData()</text>
<text text-anchor="start" x="612.5" y="-84.5" font-family="Helvetica,sans-Serif" font-size="10.00" fill="#000000">+ getEventHeaderPtr()</text>
<text text-anchor="start" x="612.5" y="-73.5" font-family="Helvetica,sans-Serif" font-size="10.00" fill="#000000">+ getEventDataPtr()</text>
<text text-anchor="start" x="612.5" y="-62.5" font-family="Helvetica,sans-Serif" font-size="10.00" fill="#000000">+ print()</text>
<text text-anchor="start" x="612.5" y="-51.5" font-family="Helvetica,sans-Serif" font-size="10.00" fill="#000000">+ printHexEventHeader()</text>
<text text-anchor="start" x="612.5" y="-40.5" font-family="Helvetica,sans-Serif" font-size="10.00" fill="#000000">+ printHexEventData()</text>
<text text-anchor="start" x="612.5" y="-29.5" font-family="Helvetica,sans-Serif" font-size="10.00" fill="#000000">+ size()</text>
<text text-anchor="start" x="612.5" y="-18.5" font-family="Helvetica,sans-Serif" font-size="10.00" fill="#000000">+ to_vector()</text>
<text text-anchor="start" x="612.5" y="-7.5" font-family="Helvetica,sans-Serif" font-size="10.00" fill="#000000">+ ClassDefNV()</text>
</g>
<!-- Node2 -->
<g id="node2" class="node">
<title>Node2</title>
<g id="a_node2"><a xlink:href="../../da/df0/structo2_1_1fv0_1_1EventData.html" target="_top" xlink:title="{o2::fv0::EventData\n|+ isDoubleEvent\l+ is1TimeLostEvent\l+ isAmpHigh\l|+ generateFlags()\l}">
<polygon fill="none" stroke="#000000" points="243,-193.5 243,-272.5 358,-272.5 358,-193.5 243,-193.5"/>
<text text-anchor="middle" x="300.5" y="-260.5" font-family="Helvetica,sans-Serif" font-size="10.00" fill="#000000">o2::fv0::EventData</text>
<polyline fill="none" stroke="#000000" points="243,-253.5 358,-253.5 "/>
<text text-anchor="start" x="251" y="-241.5" font-family="Helvetica,sans-Serif" font-size="10.00" fill="#000000">+ isDoubleEvent</text>
<text text-anchor="start" x="251" y="-230.5" font-family="Helvetica,sans-Serif" font-size="10.00" fill="#000000">+ is1TimeLostEvent</text>
<text text-anchor="start" x="251" y="-219.5" font-family="Helvetica,sans-Serif" font-size="10.00" fill="#000000">+ isAmpHigh</text>
<polyline fill="none" stroke="#000000" points="243,-212.5 358,-212.5 "/>
<text text-anchor="start" x="251" y="-200.5" font-family="Helvetica,sans-Serif" font-size="10.00" fill="#000000">+ generateFlags()</text>
</a>
</g>
</g>
<!-- Node2&#45;&gt;Node1 -->
<g id="edge1" class="edge">
<title>Node2&#45;&gt;Node1</title>
<path fill="none" stroke="#404040" d="M358.1179,-208.3506C421.0377,-181.4331 522.288,-138.1174 593.259,-107.7555"/>
<polygon fill="none" stroke="#404040" points="593.3461,-107.7183 597.2892,-101.6807 604.3789,-102.9983 600.4359,-109.0359 593.3461,-107.7183"/>
<text text-anchor="middle" x="491" y="-167" font-family="Helvetica,sans-Serif" font-size="10.00" fill="#000000"> +mEventData</text>
</g>
<!-- Node3 -->
<g id="node3" class="node">
<title>Node3</title>
<polygon fill="none" stroke="#bfbfbf" points="0,-430.5 0,-487.5 107,-487.5 107,-430.5 0,-430.5"/>
<text text-anchor="middle" x="53.5" y="-475.5" font-family="Helvetica,sans-Serif" font-size="10.00" fill="#000000">anonymous:+@23</text>
<polyline fill="none" stroke="#bfbfbf" points="0,-468.5 107,-468.5 "/>
<text text-anchor="middle" x="53.5" y="-456.5" font-family="Helvetica,sans-Serif" font-size="10.00" fill="#000000"> </text>
<polyline fill="none" stroke="#bfbfbf" points="0,-449.5 107,-449.5 "/>
<text text-anchor="middle" x="53.5" y="-437.5" font-family="Helvetica,sans-Serif" font-size="10.00" fill="#000000"> </text>
</g>
<!-- Node3&#45;&gt;Node2 -->
<g id="edge2" class="edge">
<title>Node3&#45;&gt;Node2</title>
<path fill="none" stroke="#404040" d="M52.8533,-430.1961C53.6323,-393.007 60.7116,-328.6123 97.5,-291 116.2444,-271.8358 179.843,-255.6361 230.9186,-245.2699"/>
<polygon fill="none" stroke="#404040" points="231.1602,-245.2221 236.2687,-240.1326 242.9316,-242.8907 237.823,-247.9802 231.1602,-245.2221"/>
<text text-anchor="middle" x="114.5" y="-349" font-family="Helvetica,sans-Serif" font-size="10.00" fill="#000000"> +@23</text>
</g>
<!-- Node4 -->
<g id="node4" class="node">
<title>Node4</title>
<polygon fill="none" stroke="#bfbfbf" points="307.5,-430.5 307.5,-487.5 357.5,-487.5 357.5,-430.5 307.5,-430.5"/>
<text text-anchor="middle" x="332.5" y="-475.5" font-family="Helvetica,sans-Serif" font-size="10.00" fill="#000000">int64_t</text>
<polyline fill="none" stroke="#bfbfbf" points="307.5,-468.5 357.5,-468.5 "/>
<text text-anchor="middle" x="332.5" y="-456.5" font-family="Helvetica,sans-Serif" font-size="10.00" fill="#000000"> </text>
<polyline fill="none" stroke="#bfbfbf" points="307.5,-449.5 357.5,-449.5 "/>
<text text-anchor="middle" x="332.5" y="-437.5" font-family="Helvetica,sans-Serif" font-size="10.00" fill="#000000"> </text>
</g>
<!-- Node4&#45;&gt;Node2 -->
<g id="edge3" class="edge">
<title>Node4&#45;&gt;Node2</title>
<path fill="none" stroke="#404040" d="M310.0195,-430.4784C306.5194,-424.6589 303.4283,-418.361 301.5,-412 288.9596,-370.6311 289.7518,-321.3709 293.0903,-285.0086"/>
<polygon fill="none" stroke="#404040" points="293.1267,-284.6553 289.7643,-278.2761 294.3596,-272.7188 297.722,-279.0981 293.1267,-284.6553"/>
<text text-anchor="middle" x="322.5" y="-354.5" font-family="Helvetica,sans-Serif" font-size="10.00" fill="#000000"> +time</text>
<text text-anchor="middle" x="322.5" y="-343.5" font-family="Helvetica,sans-Serif" font-size="10.00" fill="#000000">+charge</text>
</g>
<!-- Node7 -->
<g id="node7" class="node">
<title>Node7</title>
<g id="a_node7"><a xlink:href="../../df/dc6/structo2_1_1fv0_1_1TCMdata.html" target="_top" xlink:title="{o2::fv0::TCMdata\n||}">
<polygon fill="none" stroke="#000000" points="566.5,-204.5 566.5,-261.5 664.5,-261.5 664.5,-204.5 566.5,-204.5"/>
<text text-anchor="middle" x="615.5" y="-249.5" font-family="Helvetica,sans-Serif" font-size="10.00" fill="#000000">o2::fv0::TCMdata</text>
<polyline fill="none" stroke="#000000" points="566.5,-242.5 664.5,-242.5 "/>
<text text-anchor="middle" x="615.5" y="-230.5" font-family="Helvetica,sans-Serif" font-size="10.00" fill="#000000"> </text>
<polyline fill="none" stroke="#000000" points="566.5,-223.5 664.5,-223.5 "/>
<text text-anchor="middle" x="615.5" y="-211.5" font-family="Helvetica,sans-Serif" font-size="10.00" fill="#000000"> </text>
</a>
</g>
</g>
<!-- Node4&#45;&gt;Node7 -->
<g id="edge7" class="edge">
<title>Node4&#45;&gt;Node7</title>
<path fill="none" stroke="#404040" d="M339.4036,-430.2022C340.7976,-424.1956 342.2254,-417.8976 343.5,-412 355.0819,-358.4119 329.3959,-330.4196 367.5,-291 392.9784,-264.642 489.4943,-248.096 554.3355,-239.7093"/>
<polygon fill="none" stroke="#404040" points="554.5436,-239.6833 559.9988,-234.9673 566.4502,-238.189 560.995,-242.905 554.5436,-239.6833"/>
<text text-anchor="middle" x="407.5" y="-376.5" font-family="Helvetica,sans-Serif" font-size="10.00" fill="#000000"> +timeA</text>
<text text-anchor="middle" x="407.5" y="-365.5" font-family="Helvetica,sans-Serif" font-size="10.00" fill="#000000">+timeC</text>
<text text-anchor="middle" x="407.5" y="-354.5" font-family="Helvetica,sans-Serif" font-size="10.00" fill="#000000">+reservedField1</text>
<text text-anchor="middle" x="407.5" y="-343.5" font-family="Helvetica,sans-Serif" font-size="10.00" fill="#000000">+reservedField2</text>
<text text-anchor="middle" x="407.5" y="-332.5" font-family="Helvetica,sans-Serif" font-size="10.00" fill="#000000">+amplA</text>
<text text-anchor="middle" x="407.5" y="-321.5" font-family="Helvetica,sans-Serif" font-size="10.00" fill="#000000">+amplC</text>
</g>
<!-- Node5 -->
<g id="node5" class="node">
<title>Node5</title>
<polygon fill="none" stroke="#bfbfbf" points="125,-430.5 125,-487.5 170,-487.5 170,-430.5 125,-430.5"/>
<text text-anchor="middle" x="147.5" y="-475.5" font-family="Helvetica,sans-Serif" font-size="10.00" fill="#000000">size_t</text>
<polyline fill="none" stroke="#bfbfbf" points="125,-468.5 170,-468.5 "/>
<text text-anchor="middle" x="147.5" y="-456.5" font-family="Helvetica,sans-Serif" font-size="10.00" fill="#000000"> </text>
<polyline fill="none" stroke="#bfbfbf" points="125,-449.5 170,-449.5 "/>
<text text-anchor="middle" x="147.5" y="-437.5" font-family="Helvetica,sans-Serif" font-size="10.00" fill="#000000"> </text>
</g>
<!-- Node5&#45;&gt;Node2 -->
<g id="edge4" class="edge">
<title>Node5&#45;&gt;Node2</title>
<path fill="none" stroke="#404040" d="M140.678,-430.4226C133.8229,-394.3517 128.0287,-332.0671 157.5,-291 174.7895,-266.9078 203.8613,-252.8063 231.2945,-244.5601"/>
<polygon fill="none" stroke="#404040" points="231.3398,-244.5478 236.0675,-239.1027 242.9121,-241.3725 238.1844,-246.8175 231.3398,-244.5478"/>
<text text-anchor="middle" x="222.5" y="-354.5" font-family="Helvetica,sans-Serif" font-size="10.00" fill="#000000"> +PayloadSizeSecondWord</text>
<text text-anchor="middle" x="222.5" y="-343.5" font-family="Helvetica,sans-Serif" font-size="10.00" fill="#000000">+PayloadSizeFirstWord</text>
</g>
<!-- Node6 -->
<g id="node6" class="node">
<title>Node6</title>
<polygon fill="none" stroke="#bfbfbf" points="614,-430.5 614,-487.5 675,-487.5 675,-430.5 614,-430.5"/>
<text text-anchor="middle" x="644.5" y="-475.5" font-family="Helvetica,sans-Serif" font-size="10.00" fill="#000000">unsigned</text>
<polyline fill="none" stroke="#bfbfbf" points="614,-468.5 675,-468.5 "/>
<text text-anchor="middle" x="644.5" y="-456.5" font-family="Helvetica,sans-Serif" font-size="10.00" fill="#000000"> </text>
<polyline fill="none" stroke="#bfbfbf" points="614,-449.5 675,-449.5 "/>
<text text-anchor="middle" x="644.5" y="-437.5" font-family="Helvetica,sans-Serif" font-size="10.00" fill="#000000"> </text>
</g>
<!-- Node6&#45;&gt;Node2 -->
<g id="edge5" class="edge">
<title>Node6&#45;&gt;Node2</title>
<path fill="none" stroke="#404040" d="M613.9217,-455.7875C585.7041,-451.119 544.8913,-439.7226 522.5,-412 488.2954,-369.6514 539.5633,-331.7774 503.5,-291 485.6847,-270.8558 421.5977,-254.7489 370.137,-244.6692"/>
<polygon fill="none" stroke="#404040" points="369.822,-244.6092 363.1791,-247.415 358.0342,-242.3622 364.6771,-239.5565 369.822,-244.6092"/>
<text text-anchor="middle" x="570.5" y="-404" font-family="Helvetica,sans-Serif" font-size="10.00" fill="#000000"> +isEventInTVDC</text>
<text text-anchor="middle" x="570.5" y="-393" font-family="Helvetica,sans-Serif" font-size="10.00" fill="#000000">+is2TimeLostEvent</text>
<text text-anchor="middle" x="570.5" y="-382" font-family="Helvetica,sans-Serif" font-size="10.00" fill="#000000">+isADCinGate</text>
<text text-anchor="middle" x="570.5" y="-371" font-family="Helvetica,sans-Serif" font-size="10.00" fill="#000000">+word</text>
<text text-anchor="middle" x="570.5" y="-360" font-family="Helvetica,sans-Serif" font-size="10.00" fill="#000000">+isTimeInfoLate</text>
<text text-anchor="middle" x="570.5" y="-349" font-family="Helvetica,sans-Serif" font-size="10.00" fill="#000000">+numberADC</text>
<text text-anchor="middle" x="570.5" y="-338" font-family="Helvetica,sans-Serif" font-size="10.00" fill="#000000">+word_zeros</text>
<text text-anchor="middle" x="570.5" y="-327" font-family="Helvetica,sans-Serif" font-size="10.00" fill="#000000">+channelID</text>
<text text-anchor="middle" x="570.5" y="-316" font-family="Helvetica,sans-Serif" font-size="10.00" fill="#000000">+isTimeInfoLost</text>
<text text-anchor="middle" x="570.5" y="-305" font-family="Helvetica,sans-Serif" font-size="10.00" fill="#000000">+reservedField</text>
<text text-anchor="middle" x="570.5" y="-294" font-family="Helvetica,sans-Serif" font-size="10.00" fill="#000000">...</text>
</g>
<!-- Node6&#45;&gt;Node7 -->
<g id="edge10" class="edge">
<title>Node6&#45;&gt;Node7</title>
<path fill="none" stroke="#404040" d="M640.8271,-430.3769C635.7422,-390.7493 626.5299,-318.9569 620.7284,-273.7451"/>
<polygon fill="none" stroke="#404040" points="620.7161,-273.6491 615.985,-268.207 619.1887,-261.7467 623.9199,-267.1888 620.7161,-273.6491"/>
<text text-anchor="middle" x="660.5" y="-387.5" font-family="Helvetica,sans-Serif" font-size="10.00" fill="#000000"> +orA</text>
<text text-anchor="middle" x="660.5" y="-376.5" font-family="Helvetica,sans-Serif" font-size="10.00" fill="#000000">+nChanA</text>
<text text-anchor="middle" x="660.5" y="-365.5" font-family="Helvetica,sans-Serif" font-size="10.00" fill="#000000">+sCen</text>
<text text-anchor="middle" x="660.5" y="-354.5" font-family="Helvetica,sans-Serif" font-size="10.00" fill="#000000">+orC</text>
<text text-anchor="middle" x="660.5" y="-343.5" font-family="Helvetica,sans-Serif" font-size="10.00" fill="#000000">+word</text>
<text text-anchor="middle" x="660.5" y="-332.5" font-family="Helvetica,sans-Serif" font-size="10.00" fill="#000000">+nChanC</text>
<text text-anchor="middle" x="660.5" y="-321.5" font-family="Helvetica,sans-Serif" font-size="10.00" fill="#000000">+vertex</text>
<text text-anchor="middle" x="660.5" y="-310.5" font-family="Helvetica,sans-Serif" font-size="10.00" fill="#000000">+cen</text>
</g>
<!-- Node10 -->
<g id="node10" class="node">
<title>Node10</title>
<g id="a_node10"><a xlink:href="../../da/d4d/structo2_1_1fv0_1_1EventHeader.html" target="_top" xlink:title="{o2::fv0::EventHeader\n||}">
<polygon fill="none" stroke="#000000" points="683,-204.5 683,-261.5 802,-261.5 802,-204.5 683,-204.5"/>
<text text-anchor="middle" x="742.5" y="-249.5" font-family="Helvetica,sans-Serif" font-size="10.00" fill="#000000">o2::fv0::EventHeader</text>
<polyline fill="none" stroke="#000000" points="683,-242.5 802,-242.5 "/>
<text text-anchor="middle" x="742.5" y="-230.5" font-family="Helvetica,sans-Serif" font-size="10.00" fill="#000000"> </text>
<polyline fill="none" stroke="#000000" points="683,-223.5 802,-223.5 "/>
<text text-anchor="middle" x="742.5" y="-211.5" font-family="Helvetica,sans-Serif" font-size="10.00" fill="#000000"> </text>
</a>
</g>
</g>
<!-- Node6&#45;&gt;Node10 -->
<g id="edge14" class="edge">
<title>Node6&#45;&gt;Node10</title>
<path fill="none" stroke="#404040" d="M674.8265,-430.4587C679.6361,-424.7331 684.1277,-418.4735 687.5,-412 712.9571,-363.133 696.4028,-343.0437 714.5,-291 716.5812,-285.0148 719.1132,-278.8372 721.7943,-272.8456"/>
<polygon fill="none" stroke="#404040" points="721.9507,-272.5129 720.8826,-265.3813 727.0548,-261.6524 728.1229,-268.784 721.9507,-272.5129"/>
<text text-anchor="middle" x="755.5" y="-387.5" font-family="Helvetica,sans-Serif" font-size="10.00" fill="#000000"> +word</text>
<text text-anchor="middle" x="755.5" y="-376.5" font-family="Helvetica,sans-Serif" font-size="10.00" fill="#000000">+nGBTWords</text>
<text text-anchor="middle" x="755.5" y="-365.5" font-family="Helvetica,sans-Serif" font-size="10.00" fill="#000000">+startDescriptor</text>
<text text-anchor="middle" x="755.5" y="-354.5" font-family="Helvetica,sans-Serif" font-size="10.00" fill="#000000">+reservedField1</text>
<text text-anchor="middle" x="755.5" y="-343.5" font-family="Helvetica,sans-Serif" font-size="10.00" fill="#000000">+reservedField2</text>
<text text-anchor="middle" x="755.5" y="-332.5" font-family="Helvetica,sans-Serif" font-size="10.00" fill="#000000">+bc</text>
<text text-anchor="middle" x="755.5" y="-321.5" font-family="Helvetica,sans-Serif" font-size="10.00" fill="#000000">+reservedField3</text>
<text text-anchor="middle" x="755.5" y="-310.5" font-family="Helvetica,sans-Serif" font-size="10.00" fill="#000000">+orbit</text>
</g>
<!-- Node7&#45;&gt;Node1 -->
<g id="edge6" class="edge">
<title>Node7&#45;&gt;Node1</title>
<path fill="none" stroke="#404040" d="M621.2487,-204.4434C624.1062,-191.8778 627.9312,-177.0407 632.5,-164 633.3315,-161.6266 634.203,-159.2311 635.1074,-156.8236"/>
<polygon fill="none" stroke="#404040" points="635.1651,-156.6765 633.6354,-149.6295 639.552,-145.5071 641.0817,-152.5541 635.1651,-156.6765"/>
<text text-anchor="middle" x="664.5" y="-167" font-family="Helvetica,sans-Serif" font-size="10.00" fill="#000000"> +mTCMdata</text>
</g>
<!-- Node8 -->
<g id="node8" class="node">
<title>Node8</title>
<polygon fill="none" stroke="#bfbfbf" points="850,-430.5 850,-487.5 879,-487.5 879,-430.5 850,-430.5"/>
<text text-anchor="middle" x="864.5" y="-475.5" font-family="Helvetica,sans-Serif" font-size="10.00" fill="#000000">int</text>
<polyline fill="none" stroke="#bfbfbf" points="850,-468.5 879,-468.5 "/>
<text text-anchor="middle" x="864.5" y="-456.5" font-family="Helvetica,sans-Serif" font-size="10.00" fill="#000000"> </text>
<polyline fill="none" stroke="#bfbfbf" points="850,-449.5 879,-449.5 "/>
<text text-anchor="middle" x="864.5" y="-437.5" font-family="Helvetica,sans-Serif" font-size="10.00" fill="#000000"> </text>
</g>
<!-- Node8&#45;&gt;Node7 -->
<g id="edge8" class="edge">
<title>Node8&#45;&gt;Node7</title>
<path fill="none" stroke="#404040" d="M849.5442,-448.8753C838.2802,-440.3988 823.4623,-427.2573 815.5,-412 790.3144,-363.7398 835.1706,-329.3138 796.5,-291 757.5648,-252.4241 725.5776,-292.8778 674.5,-273 670.6348,-271.4958 666.7703,-269.6998 662.9727,-267.7143"/>
<polygon fill="none" stroke="#404040" points="662.9084,-267.6774 655.7134,-268.1582 652.5022,-261.7015 659.6973,-261.2207 662.9084,-267.6774"/>
<text text-anchor="middle" x="850.5" y="-349" font-family="Helvetica,sans-Serif" font-size="10.00" fill="#000000"> +PayloadSize</text>
</g>
<!-- Node8&#45;&gt;Node10 -->
<g id="edge13" class="edge">
<title>Node8&#45;&gt;Node10</title>
<path fill="none" stroke="#404040" d="M879.0736,-436.9596C883.3004,-429.3704 887.3528,-420.6088 889.5,-412 902.5142,-359.8207 922.9794,-333.0854 889.5,-291 867.351,-263.1576 844.5913,-286.067 811.5,-273 807.1333,-271.2757 802.7129,-269.3064 798.3296,-267.1874"/>
<polygon fill="none" stroke="#404040" points="798.24,-267.1415 791.0758,-267.9629 787.5622,-261.6657 794.7264,-260.8443 798.24,-267.1415"/>
<text text-anchor="middle" x="942.5" y="-349" font-family="Helvetica,sans-Serif" font-size="10.00" fill="#000000"> +PayloadSize</text>
</g>
<!-- Node9 -->
<g id="node9" class="node">
<title>Node9</title>
<polygon fill="none" stroke="#bfbfbf" points="415,-430.5 415,-487.5 522,-487.5 522,-430.5 415,-430.5"/>
<text text-anchor="middle" x="468.5" y="-475.5" font-family="Helvetica,sans-Serif" font-size="10.00" fill="#000000">anonymous:+@27</text>
<polyline fill="none" stroke="#bfbfbf" points="415,-468.5 522,-468.5 "/>
<text text-anchor="middle" x="468.5" y="-456.5" font-family="Helvetica,sans-Serif" font-size="10.00" fill="#000000"> </text>
<polyline fill="none" stroke="#bfbfbf" points="415,-449.5 522,-449.5 "/>
<text text-anchor="middle" x="468.5" y="-437.5" font-family="Helvetica,sans-Serif" font-size="10.00" fill="#000000"> </text>
</g>
<!-- Node9&#45;&gt;Node7 -->
<g id="edge9" class="edge">
<title>Node9&#45;&gt;Node7</title>
<path fill="none" stroke="#404040" d="M459.6918,-430.2996C450.5324,-394.3812 441.1199,-332.5452 469.5,-291 488.5821,-263.066 523.447,-248.5852 554.3212,-241.0785"/>
<polygon fill="none" stroke="#404040" points="554.6367,-241.0095 559.6423,-235.8187 566.359,-238.4427 561.3535,-243.6335 554.6367,-241.0095"/>
<text text-anchor="middle" x="486.5" y="-349" font-family="Helvetica,sans-Serif" font-size="10.00" fill="#000000"> +@27</text>
</g>
<!-- Node10&#45;&gt;Node1 -->
<g id="edge11" class="edge">
<title>Node10&#45;&gt;Node1</title>
<path fill="none" stroke="#404040" d="M730.343,-204.3952C724.6082,-190.9018 717.4358,-174.0254 710.1617,-156.9099"/>
<polygon fill="none" stroke="#404040" points="710.0747,-156.7051 704.0465,-152.7477 705.381,-145.6612 711.4092,-149.6186 710.0747,-156.7051"/>
<text text-anchor="middle" x="759" y="-167" font-family="Helvetica,sans-Serif" font-size="10.00" fill="#000000"> +mEventHeader</text>
</g>
<!-- Node11 -->
<g id="node11" class="node">
<title>Node11</title>
<polygon fill="none" stroke="#bfbfbf" points="951,-430.5 951,-487.5 1058,-487.5 1058,-430.5 951,-430.5"/>
<text text-anchor="middle" x="1004.5" y="-475.5" font-family="Helvetica,sans-Serif" font-size="10.00" fill="#000000">anonymous:+@19</text>
<polyline fill="none" stroke="#bfbfbf" points="951,-468.5 1058,-468.5 "/>
<text text-anchor="middle" x="1004.5" y="-456.5" font-family="Helvetica,sans-Serif" font-size="10.00" fill="#000000"> </text>
<polyline fill="none" stroke="#bfbfbf" points="951,-449.5 1058,-449.5 "/>
<text text-anchor="middle" x="1004.5" y="-437.5" font-family="Helvetica,sans-Serif" font-size="10.00" fill="#000000"> </text>
</g>
<!-- Node11&#45;&gt;Node10 -->
<g id="edge12" class="edge">
<title>Node11&#45;&gt;Node10</title>
<path fill="none" stroke="#404040" d="M1010.109,-430.2817C1015.6335,-392.5775 1018.5868,-326.97 981.5,-291 954.2303,-264.5515 847.6147,-284.7851 811.5,-273 806.4013,-271.3362 801.2658,-269.2601 796.2215,-266.9346"/>
<polygon fill="none" stroke="#404040" points="796.106,-266.8769 788.9504,-267.7701 785.3737,-261.5085 792.5293,-260.6153 796.106,-266.8769"/>
<text text-anchor="middle" x="1029.5" y="-349" font-family="Helvetica,sans-Serif" font-size="10.00" fill="#000000"> +@19</text>
</g>
<!-- Node12 -->
<g id="node12" class="node">
<title>Node12</title>
<polygon fill="none" stroke="#bfbfbf" points="820.5,-204.5 820.5,-261.5 864.5,-261.5 864.5,-204.5 820.5,-204.5"/>
<text text-anchor="middle" x="842.5" y="-249.5" font-family="Helvetica,sans-Serif" font-size="10.00" fill="#000000">static</text>
<polyline fill="none" stroke="#bfbfbf" points="820.5,-242.5 864.5,-242.5 "/>
<text text-anchor="middle" x="842.5" y="-230.5" font-family="Helvetica,sans-Serif" font-size="10.00" fill="#000000"> </text>
<polyline fill="none" stroke="#bfbfbf" points="820.5,-223.5 864.5,-223.5 "/>
<text text-anchor="middle" x="842.5" y="-211.5" font-family="Helvetica,sans-Serif" font-size="10.00" fill="#000000"> </text>
</g>
<!-- Node12&#45;&gt;Node1 -->
<g id="edge15" class="edge">
<title>Node12&#45;&gt;Node1</title>
<path fill="none" stroke="#404040" d="M830.8185,-204.224C824.5711,-191.0421 815.9907,-175.7713 805.5,-164 790.8872,-147.6035 772.7549,-132.6321 754.6865,-119.7765"/>
<polygon fill="none" stroke="#404040" points="754.5483,-119.6811 747.3382,-119.5591 744.6778,-112.8567 751.8879,-112.9787 754.5483,-119.6811"/>
<text text-anchor="middle" x="858" y="-167" font-family="Helvetica,sans-Serif" font-size="10.00" fill="#000000"> +gStartDescriptor</text>
</g>
</g>
</svg>
        <g id="navigator" transform="translate(0 0)" fill="#404254">
                <rect fill="#f2f5e9" fill-opacity="0.5" stroke="#606060" stroke-width=".5" x="0" y="0" width="60" height="60"/>
                <use id="zoomplus" xlink:href="#zoomPlus" x="17" y="9" onmousedown="handleZoom(evt,'in')"/>
                <use id="zoomminus" xlink:href="#zoomMin" x="42" y="9" onmousedown="handleZoom(evt,'out')"/>
                <use id="reset" xlink:href="#resetDef" x="30" y="36" onmousedown="handleReset()"/>
                <g id="arrowUp" xlink:href="#dirArrow" transform="translate(30 24)" onmousedown="handlePan(0,-1)">
                  <use xlink:href="#rim" fill="#404040">
                        <set attributeName="fill" to="#808080" begin="arrowUp.mouseover" end="arrowUp.mouseout"/>
                  </use>
                  <path fill="none" stroke="white" stroke-width="1.5" d="M0,-3.0v7 M-2.5,-0.5L0,-3.0L2.5,-0.5"/>
                </g>
                <g id="arrowRight" xlink:href="#dirArrow" transform="rotate(90) translate(36 -43)" onmousedown="handlePan(1,0)">
                  <use xlink:href="#rim" fill="#404040">
                        <set attributeName="fill" to="#808080" begin="arrowRight.mouseover" end="arrowRight.mouseout"/>
                  </use>
                  <path fill="none" stroke="white" stroke-width="1.5" d="M0,-3.0v7 M-2.5,-0.5L0,-3.0L2.5,-0.5"/>
                </g>
                <g id="arrowDown" xlink:href="#dirArrow" transform="rotate(180) translate(-30 -48)" onmousedown="handlePan(0,1)">
                  <use xlink:href="#rim" fill="#404040">
                        <set attributeName="fill" to="#808080" begin="arrowDown.mouseover" end="arrowDown.mouseout"/>
                  </use>
                  <path fill="none" stroke="white" stroke-width="1.5" d="M0,-3.0v7 M-2.5,-0.5L0,-3.0L2.5,-0.5"/>
                </g>
                <g id="arrowLeft" xlink:href="#dirArrow" transform="rotate(270) translate(-36 17)" onmousedown="handlePan(-1,0)">
                  <use xlink:href="#rim" fill="#404040">
                        <set attributeName="fill" to="#808080" begin="arrowLeft.mouseover" end="arrowLeft.mouseout"/>
                  </use>
                  <path fill="none" stroke="white" stroke-width="1.5" d="M0,-3.0v7 M-2.5,-0.5L0,-3.0L2.5,-0.5"/>
                </g>
        </g>
        <svg viewBox="0 0 15 15" width="100%" height="30px" preserveAspectRatio="xMaxYMin meet">
         <g id="arrow_out" transform="scale(0.3 0.3)">
          <a xlink:href="classo2_1_1fv0_1_1RawEventData__coll__graph_org.svg" target="_base">
           <rect id="button" ry="5" rx="5" y="6" x="6" height="38" width="38"
                fill="#f2f5e9" fill-opacity="0.5" stroke="#606060" stroke-width="1.0"/>
           <path id="arrow"
             d="M 11.500037,31.436501 C 11.940474,20.09759 22.043105,11.32322 32.158766,21.979434 L 37.068811,17.246167 C 37.068811,17.246167 37.088388,32 37.088388,32 L 22.160133,31.978069 C 22.160133,31.978069 26.997745,27.140456 26.997745,27.140456 C 18.528582,18.264221 13.291696,25.230495 11.500037,31.436501 z"
             style="fill:#404040;"/>
          </a>
         </g>
        </svg>
</svg>
