<?xml version="1.0" encoding="UTF-8" standalone="no"?>
<!DOCTYPE svg PUBLIC "-//W3C//DTD SVG 1.1//EN"
 "http://www.w3.org/Graphics/SVG/1.1/DTD/svg11.dtd">
<!-- Generated by graphviz version 2.40.1 (20161225.0304)
 -->
<!-- Title: o2::tof::Digitizer Pages: 1 -->
<svg width="1397pt" height="1511pt"
 viewBox="0.00 0.00 1397.00 1511.00" xmlns="http://www.w3.org/2000/svg" xmlns:xlink="http://www.w3.org/1999/xlink">
<g id="graph0" class="graph" transform="scale(1 1) rotate(0) translate(4 1507)">
<title>o2::tof::Digitizer</title>
<!-- Node2 -->
<g id="node1" class="node">
<title>Node2</title>
<polygon fill="#bfbfbf" stroke="#000000" points="597.5,-.5 597.5,-332.5 758.5,-332.5 758.5,-.5 597.5,-.5"/>
<text text-anchor="middle" x="678" y="-320.5" font-family="Helvetica,sans-Serif" font-size="10.00" fill="#000000">o2::tof::Digitizer</text>
<polyline fill="none" stroke="#000000" points="597.5,-313.5 758.5,-313.5 "/>
<text text-anchor="middle" x="678" y="-301.5" font-family="Helvetica,sans-Serif" font-size="10.00" fill="#000000"> </text>
<polyline fill="none" stroke="#000000" points="597.5,-294.5 758.5,-294.5 "/>
<text text-anchor="start" x="605.5" y="-282.5" font-family="Helvetica,sans-Serif" font-size="10.00" fill="#000000">+ Digitizer()</text>
<text text-anchor="start" x="605.5" y="-271.5" font-family="Helvetica,sans-Serif" font-size="10.00" fill="#000000">+ ~Digitizer()</text>
<text text-anchor="start" x="605.5" y="-260.5" font-family="Helvetica,sans-Serif" font-size="10.00" fill="#000000">+ init()</text>
<text text-anchor="start" x="605.5" y="-249.5" font-family="Helvetica,sans-Serif" font-size="10.00" fill="#000000">+ process()</text>
<text text-anchor="start" x="605.5" y="-238.5" font-family="Helvetica,sans-Serif" font-size="10.00" fill="#000000">+ setCalibApi()</text>
<text text-anchor="start" x="605.5" y="-227.5" font-family="Helvetica,sans-Serif" font-size="10.00" fill="#000000">+ setMCTruthContainer()</text>
<text text-anchor="start" x="605.5" y="-216.5" font-family="Helvetica,sans-Serif" font-size="10.00" fill="#000000">+ getMCTruthPerTimeFrame()</text>
<text text-anchor="start" x="605.5" y="-205.5" font-family="Helvetica,sans-Serif" font-size="10.00" fill="#000000">+ fillOutputContainer()</text>
<text text-anchor="start" x="605.5" y="-194.5" font-family="Helvetica,sans-Serif" font-size="10.00" fill="#000000">+ flushOutputContainer()</text>
<text text-anchor="start" x="605.5" y="-183.5" font-family="Helvetica,sans-Serif" font-size="10.00" fill="#000000">+ initParameters()</text>
<text text-anchor="start" x="605.5" y="-172.5" font-family="Helvetica,sans-Serif" font-size="10.00" fill="#000000">+ printParameters()</text>
<text text-anchor="start" x="605.5" y="-161.5" font-family="Helvetica,sans-Serif" font-size="10.00" fill="#000000">+ getShowerTimeSmeared()</text>
<text text-anchor="start" x="605.5" y="-150.5" font-family="Helvetica,sans-Serif" font-size="10.00" fill="#000000">+ getDigitTimeSmeared()</text>
<text text-anchor="start" x="605.5" y="-139.5" font-family="Helvetica,sans-Serif" font-size="10.00" fill="#000000">+ getCharge()</text>
<text text-anchor="start" x="605.5" y="-128.5" font-family="Helvetica,sans-Serif" font-size="10.00" fill="#000000">+ isFired()</text>
<text text-anchor="start" x="605.5" y="-117.5" font-family="Helvetica,sans-Serif" font-size="10.00" fill="#000000">+ getEffX()</text>
<text text-anchor="start" x="605.5" y="-106.5" font-family="Helvetica,sans-Serif" font-size="10.00" fill="#000000">+ getEffZ()</text>
<text text-anchor="start" x="605.5" y="-95.5" font-family="Helvetica,sans-Serif" font-size="10.00" fill="#000000">+ getFractionOfCharge()</text>
<text text-anchor="start" x="605.5" y="-84.5" font-family="Helvetica,sans-Serif" font-size="10.00" fill="#000000">+ getTimeLastHit()</text>
<text text-anchor="start" x="605.5" y="-73.5" font-family="Helvetica,sans-Serif" font-size="10.00" fill="#000000">+ getTotLastHit()</text>
<text text-anchor="start" x="605.5" y="-62.5" font-family="Helvetica,sans-Serif" font-size="10.00" fill="#000000">+ getXshift()</text>
<text text-anchor="start" x="605.5" y="-51.5" font-family="Helvetica,sans-Serif" font-size="10.00" fill="#000000">+ getZshift()</text>
<text text-anchor="start" x="605.5" y="-40.5" font-family="Helvetica,sans-Serif" font-size="10.00" fill="#000000">+ setEventID()</text>
<text text-anchor="start" x="605.5" y="-29.5" font-family="Helvetica,sans-Serif" font-size="10.00" fill="#000000">+ setSrcID()</text>
<text text-anchor="start" x="605.5" y="-18.5" font-family="Helvetica,sans-Serif" font-size="10.00" fill="#000000">+ test()</text>
<text text-anchor="start" x="605.5" y="-7.5" font-family="Helvetica,sans-Serif" font-size="10.00" fill="#000000">+ testFromHits()</text>
</g>
<!-- Node3 -->
<g id="node2" class="node">
<title>Node3</title>
<g id="a_node2"><a xlink:href="../../db/d26/classo2_1_1tof_1_1WindowFiller.html" target="_top" xlink:title="{o2::tof::WindowFiller\n||+ WindowFiller()\l+ ~WindowFiller()\l+ initObj()\l+ reset()\l+ getCurrentReadoutWindow()\l+ setCurrentReadoutWindow()\l+ setEventTime()\l+ getDigitPerTimeFrame()\l+ getReadoutWindowData()\l+ fillOutputContainer()\l+ flushOutputContainer()\l+ setContinuous()\l+ isContinuous()\l+ resizeVectorFutureDigit()\l+ setFirstIR()\l# fillDigitsInStrip()\l# checkIfReuseFutureDigits()\l# checkIfReuseFutureDigitsRO()\l# insertDigitInFuture()\l# isMergable()\l# ClassDefNV()\l}">
<polygon fill="none" stroke="#000000" points="591.5,-370.5 591.5,-647.5 764.5,-647.5 764.5,-370.5 591.5,-370.5"/>
<text text-anchor="middle" x="678" y="-635.5" font-family="Helvetica,sans-Serif" font-size="10.00" fill="#000000">o2::tof::WindowFiller</text>
<polyline fill="none" stroke="#000000" points="591.5,-628.5 764.5,-628.5 "/>
<text text-anchor="middle" x="678" y="-616.5" font-family="Helvetica,sans-Serif" font-size="10.00" fill="#000000"> </text>
<polyline fill="none" stroke="#000000" points="591.5,-609.5 764.5,-609.5 "/>
<text text-anchor="start" x="599.5" y="-597.5" font-family="Helvetica,sans-Serif" font-size="10.00" fill="#000000">+ WindowFiller()</text>
<text text-anchor="start" x="599.5" y="-586.5" font-family="Helvetica,sans-Serif" font-size="10.00" fill="#000000">+ ~WindowFiller()</text>
<text text-anchor="start" x="599.5" y="-575.5" font-family="Helvetica,sans-Serif" font-size="10.00" fill="#000000">+ initObj()</text>
<text text-anchor="start" x="599.5" y="-564.5" font-family="Helvetica,sans-Serif" font-size="10.00" fill="#000000">+ reset()</text>
<text text-anchor="start" x="599.5" y="-553.5" font-family="Helvetica,sans-Serif" font-size="10.00" fill="#000000">+ getCurrentReadoutWindow()</text>
<text text-anchor="start" x="599.5" y="-542.5" font-family="Helvetica,sans-Serif" font-size="10.00" fill="#000000">+ setCurrentReadoutWindow()</text>
<text text-anchor="start" x="599.5" y="-531.5" font-family="Helvetica,sans-Serif" font-size="10.00" fill="#000000">+ setEventTime()</text>
<text text-anchor="start" x="599.5" y="-520.5" font-family="Helvetica,sans-Serif" font-size="10.00" fill="#000000">+ getDigitPerTimeFrame()</text>
<text text-anchor="start" x="599.5" y="-509.5" font-family="Helvetica,sans-Serif" font-size="10.00" fill="#000000">+ getReadoutWindowData()</text>
<text text-anchor="start" x="599.5" y="-498.5" font-family="Helvetica,sans-Serif" font-size="10.00" fill="#000000">+ fillOutputContainer()</text>
<text text-anchor="start" x="599.5" y="-487.5" font-family="Helvetica,sans-Serif" font-size="10.00" fill="#000000">+ flushOutputContainer()</text>
<text text-anchor="start" x="599.5" y="-476.5" font-family="Helvetica,sans-Serif" font-size="10.00" fill="#000000">+ setContinuous()</text>
<text text-anchor="start" x="599.5" y="-465.5" font-family="Helvetica,sans-Serif" font-size="10.00" fill="#000000">+ isContinuous()</text>
<text text-anchor="start" x="599.5" y="-454.5" font-family="Helvetica,sans-Serif" font-size="10.00" fill="#000000">+ resizeVectorFutureDigit()</text>
<text text-anchor="start" x="599.5" y="-443.5" font-family="Helvetica,sans-Serif" font-size="10.00" fill="#000000">+ setFirstIR()</text>
<text text-anchor="start" x="599.5" y="-432.5" font-family="Helvetica,sans-Serif" font-size="10.00" fill="#000000"># fillDigitsInStrip()</text>
<text text-anchor="start" x="599.5" y="-421.5" font-family="Helvetica,sans-Serif" font-size="10.00" fill="#000000"># checkIfReuseFutureDigits()</text>
<text text-anchor="start" x="599.5" y="-410.5" font-family="Helvetica,sans-Serif" font-size="10.00" fill="#000000"># checkIfReuseFutureDigitsRO()</text>
<text text-anchor="start" x="599.5" y="-399.5" font-family="Helvetica,sans-Serif" font-size="10.00" fill="#000000"># insertDigitInFuture()</text>
<text text-anchor="start" x="599.5" y="-388.5" font-family="Helvetica,sans-Serif" font-size="10.00" fill="#000000"># isMergable()</text>
<text text-anchor="start" x="599.5" y="-377.5" font-family="Helvetica,sans-Serif" font-size="10.00" fill="#000000"># ClassDefNV()</text>
</a>
</g>
</g>
<!-- Node3&#45;&gt;Node2 -->
<g id="edge1" class="edge">
<title>Node3&#45;&gt;Node2</title>
<path fill="none" stroke="#191970" d="M678,-360.0238C678,-350.9865 678,-341.8651 678,-332.7624"/>
<polygon fill="none" stroke="#191970" points="674.5001,-360.1859 678,-370.1859 681.5001,-360.1859 674.5001,-360.1859"/>
</g>
<!-- Node4 -->
<g id="node3" class="node">
<title>Node4</title>
<polygon fill="none" stroke="#bfbfbf" points="0,-789 0,-846 138,-846 138,-789 0,-789"/>
<text text-anchor="middle" x="69" y="-834" font-family="Helvetica,sans-Serif" font-size="10.00" fill="#000000">vector&lt; o2::tof::Strip &gt; *</text>
<polyline fill="none" stroke="#bfbfbf" points="0,-827 138,-827 "/>
<text text-anchor="middle" x="69" y="-815" font-family="Helvetica,sans-Serif" font-size="10.00" fill="#000000"> </text>
<polyline fill="none" stroke="#bfbfbf" points="0,-808 138,-808 "/>
<text text-anchor="middle" x="69" y="-796" font-family="Helvetica,sans-Serif" font-size="10.00" fill="#000000"> </text>
</g>
<!-- Node4&#45;&gt;Node3 -->
<g id="edge2" class="edge">
<title>Node4&#45;&gt;Node3</title>
<path fill="none" stroke="#404040" d="M77.2835,-788.8479C88.6208,-754.6744 112.2341,-698.146 152,-666 276.7808,-565.1294 464.9461,-529.0307 579.1503,-516.1364"/>
<polygon fill="none" stroke="#404040" points="579.4027,-516.1092 584.9372,-511.4865 591.333,-514.8173 585.7984,-519.44 579.4027,-516.1092"/>
<text text-anchor="middle" x="193" y="-680" font-family="Helvetica,sans-Serif" font-size="10.00" fill="#000000"> #mStripsNext</text>
<text text-anchor="middle" x="193" y="-669" font-family="Helvetica,sans-Serif" font-size="10.00" fill="#000000">#mStripsCurrent</text>
</g>
<!-- Node5 -->
<g id="node4" class="node">
<title>Node5</title>
<g id="a_node4"><a xlink:href="../../d1/d21/structo2_1_1InteractionRecord.html" target="_top" xlink:title="{o2::InteractionRecord\n||+ InteractionRecord()\l+ InteractionRecord()\l+ InteractionRecord()\l+ InteractionRecord()\l+ clear()\l+ isDummy()\l+ setFromNS()\l+ bc2ns()\l+ operator==()\l+ operator!=()\l+ differenceInBC()\l+ toLong()\l+ setFromLong()\l+ operator\&gt;()\l+ operator\&gt;=()\l+ operator\&lt;()\l+ operator\&lt;=()\l+ operator&#45;&#45;()\l+ operator&#45;&#45;()\l+ operator++()\l+ operator++()\l+ operator+=()\l+ operator&#45;=()\l+ operator+=()\l+ operator&#45;=()\l+ operator+()\l+ operator&#45;()\l+ operator+()\l+ operator&#45;()\l+ print()\l+ asString()\l+ ClassDefNV()\l+ bc2ns()\l+ ns2bc()\l}">
<polygon fill="none" stroke="#000000" points="277.5,-966.5 277.5,-1386.5 398.5,-1386.5 398.5,-966.5 277.5,-966.5"/>
<text text-anchor="middle" x="338" y="-1374.5" font-family="Helvetica,sans-Serif" font-size="10.00" fill="#000000">o2::InteractionRecord</text>
<polyline fill="none" stroke="#000000" points="277.5,-1367.5 398.5,-1367.5 "/>
<text text-anchor="middle" x="338" y="-1355.5" font-family="Helvetica,sans-Serif" font-size="10.00" fill="#000000"> </text>
<polyline fill="none" stroke="#000000" points="277.5,-1348.5 398.5,-1348.5 "/>
<text text-anchor="start" x="285.5" y="-1336.5" font-family="Helvetica,sans-Serif" font-size="10.00" fill="#000000">+ InteractionRecord()</text>
<text text-anchor="start" x="285.5" y="-1325.5" font-family="Helvetica,sans-Serif" font-size="10.00" fill="#000000">+ InteractionRecord()</text>
<text text-anchor="start" x="285.5" y="-1314.5" font-family="Helvetica,sans-Serif" font-size="10.00" fill="#000000">+ InteractionRecord()</text>
<text text-anchor="start" x="285.5" y="-1303.5" font-family="Helvetica,sans-Serif" font-size="10.00" fill="#000000">+ InteractionRecord()</text>
<text text-anchor="start" x="285.5" y="-1292.5" font-family="Helvetica,sans-Serif" font-size="10.00" fill="#000000">+ clear()</text>
<text text-anchor="start" x="285.5" y="-1281.5" font-family="Helvetica,sans-Serif" font-size="10.00" fill="#000000">+ isDummy()</text>
<text text-anchor="start" x="285.5" y="-1270.5" font-family="Helvetica,sans-Serif" font-size="10.00" fill="#000000">+ setFromNS()</text>
<text text-anchor="start" x="285.5" y="-1259.5" font-family="Helvetica,sans-Serif" font-size="10.00" fill="#000000">+ bc2ns()</text>
<text text-anchor="start" x="285.5" y="-1248.5" font-family="Helvetica,sans-Serif" font-size="10.00" fill="#000000">+ operator==()</text>
<text text-anchor="start" x="285.5" y="-1237.5" font-family="Helvetica,sans-Serif" font-size="10.00" fill="#000000">+ operator!=()</text>
<text text-anchor="start" x="285.5" y="-1226.5" font-family="Helvetica,sans-Serif" font-size="10.00" fill="#000000">+ differenceInBC()</text>
<text text-anchor="start" x="285.5" y="-1215.5" font-family="Helvetica,sans-Serif" font-size="10.00" fill="#000000">+ toLong()</text>
<text text-anchor="start" x="285.5" y="-1204.5" font-family="Helvetica,sans-Serif" font-size="10.00" fill="#000000">+ setFromLong()</text>
<text text-anchor="start" x="285.5" y="-1193.5" font-family="Helvetica,sans-Serif" font-size="10.00" fill="#000000">+ operator&gt;()</text>
<text text-anchor="start" x="285.5" y="-1182.5" font-family="Helvetica,sans-Serif" font-size="10.00" fill="#000000">+ operator&gt;=()</text>
<text text-anchor="start" x="285.5" y="-1171.5" font-family="Helvetica,sans-Serif" font-size="10.00" fill="#000000">+ operator&lt;()</text>
<text text-anchor="start" x="285.5" y="-1160.5" font-family="Helvetica,sans-Serif" font-size="10.00" fill="#000000">+ operator&lt;=()</text>
<text text-anchor="start" x="285.5" y="-1149.5" font-family="Helvetica,sans-Serif" font-size="10.00" fill="#000000">+ operator&#45;&#45;()</text>
<text text-anchor="start" x="285.5" y="-1138.5" font-family="Helvetica,sans-Serif" font-size="10.00" fill="#000000">+ operator&#45;&#45;()</text>
<text text-anchor="start" x="285.5" y="-1127.5" font-family="Helvetica,sans-Serif" font-size="10.00" fill="#000000">+ operator++()</text>
<text text-anchor="start" x="285.5" y="-1116.5" font-family="Helvetica,sans-Serif" font-size="10.00" fill="#000000">+ operator++()</text>
<text text-anchor="start" x="285.5" y="-1105.5" font-family="Helvetica,sans-Serif" font-size="10.00" fill="#000000">+ operator+=()</text>
<text text-anchor="start" x="285.5" y="-1094.5" font-family="Helvetica,sans-Serif" font-size="10.00" fill="#000000">+ operator&#45;=()</text>
<text text-anchor="start" x="285.5" y="-1083.5" font-family="Helvetica,sans-Serif" font-size="10.00" fill="#000000">+ operator+=()</text>
<text text-anchor="start" x="285.5" y="-1072.5" font-family="Helvetica,sans-Serif" font-size="10.00" fill="#000000">+ operator&#45;=()</text>
<text text-anchor="start" x="285.5" y="-1061.5" font-family="Helvetica,sans-Serif" font-size="10.00" fill="#000000">+ operator+()</text>
<text text-anchor="start" x="285.5" y="-1050.5" font-family="Helvetica,sans-Serif" font-size="10.00" fill="#000000">+ operator&#45;()</text>
<text text-anchor="start" x="285.5" y="-1039.5" font-family="Helvetica,sans-Serif" font-size="10.00" fill="#000000">+ operator+()</text>
<text text-anchor="start" x="285.5" y="-1028.5" font-family="Helvetica,sans-Serif" font-size="10.00" fill="#000000">+ operator&#45;()</text>
<text text-anchor="start" x="285.5" y="-1017.5" font-family="Helvetica,sans-Serif" font-size="10.00" fill="#000000">+ print()</text>
<text text-anchor="start" x="285.5" y="-1006.5" font-family="Helvetica,sans-Serif" font-size="10.00" fill="#000000">+ asString()</text>
<text text-anchor="start" x="285.5" y="-995.5" font-family="Helvetica,sans-Serif" font-size="10.00" fill="#000000">+ ClassDefNV()</text>
<text text-anchor="start" x="285.5" y="-984.5" font-family="Helvetica,sans-Serif" font-size="10.00" fill="#000000">+ bc2ns()</text>
<text text-anchor="start" x="285.5" y="-973.5" font-family="Helvetica,sans-Serif" font-size="10.00" fill="#000000">+ ns2bc()</text>
</a>
</g>
</g>
<!-- Node5&#45;&gt;Node3 -->
<g id="edge3" class="edge">
<title>Node5&#45;&gt;Node3</title>
<path fill="none" stroke="#404040" d="M322.4535,-966.4085C318.6146,-862.4518 321.4421,-749.9692 347,-706 397.2886,-619.4848 501.8824,-566.8008 580.1124,-537.9575"/>
<polygon fill="none" stroke="#404040" points="580.1632,-537.9393 584.4532,-532.1431 591.4536,-533.8738 587.1636,-539.67 580.1632,-537.9393"/>
<text text-anchor="middle" x="373" y="-815" font-family="Helvetica,sans-Serif" font-size="10.00" fill="#000000"> #mFirstIR</text>
</g>
<!-- Node17 -->
<g id="node16" class="node">
<title>Node17</title>
<g id="a_node16"><a xlink:href="../../d8/d98/structo2_1_1InteractionTimeRecord.html" target="_top" xlink:title="{o2::InteractionTimeRecord\n||+ InteractionTimeRecord()\l+ InteractionTimeRecord()\l+ InteractionTimeRecord()\l+ setFromNS()\l+ clear()\l+ getTimeOffsetWrtBC()\l+ getTimeNS()\l+ operator==()\l+ operator!=()\l+ operator\&gt;()\l+ operator\&gt;=()\l+ operator\&lt;()\l+ operator\&lt;=()\l+ print()\l+ asString()\l+ ClassDefNV()\l}">
<polygon fill="none" stroke="#000000" points="156,-706.5 156,-928.5 302,-928.5 302,-706.5 156,-706.5"/>
<text text-anchor="middle" x="229" y="-916.5" font-family="Helvetica,sans-Serif" font-size="10.00" fill="#000000">o2::InteractionTimeRecord</text>
<polyline fill="none" stroke="#000000" points="156,-909.5 302,-909.5 "/>
<text text-anchor="middle" x="229" y="-897.5" font-family="Helvetica,sans-Serif" font-size="10.00" fill="#000000"> </text>
<polyline fill="none" stroke="#000000" points="156,-890.5 302,-890.5 "/>
<text text-anchor="start" x="164" y="-878.5" font-family="Helvetica,sans-Serif" font-size="10.00" fill="#000000">+ InteractionTimeRecord()</text>
<text text-anchor="start" x="164" y="-867.5" font-family="Helvetica,sans-Serif" font-size="10.00" fill="#000000">+ InteractionTimeRecord()</text>
<text text-anchor="start" x="164" y="-856.5" font-family="Helvetica,sans-Serif" font-size="10.00" fill="#000000">+ InteractionTimeRecord()</text>
<text text-anchor="start" x="164" y="-845.5" font-family="Helvetica,sans-Serif" font-size="10.00" fill="#000000">+ setFromNS()</text>
<text text-anchor="start" x="164" y="-834.5" font-family="Helvetica,sans-Serif" font-size="10.00" fill="#000000">+ clear()</text>
<text text-anchor="start" x="164" y="-823.5" font-family="Helvetica,sans-Serif" font-size="10.00" fill="#000000">+ getTimeOffsetWrtBC()</text>
<text text-anchor="start" x="164" y="-812.5" font-family="Helvetica,sans-Serif" font-size="10.00" fill="#000000">+ getTimeNS()</text>
<text text-anchor="start" x="164" y="-801.5" font-family="Helvetica,sans-Serif" font-size="10.00" fill="#000000">+ operator==()</text>
<text text-anchor="start" x="164" y="-790.5" font-family="Helvetica,sans-Serif" font-size="10.00" fill="#000000">+ operator!=()</text>
<text text-anchor="start" x="164" y="-779.5" font-family="Helvetica,sans-Serif" font-size="10.00" fill="#000000">+ operator&gt;()</text>
<text text-anchor="start" x="164" y="-768.5" font-family="Helvetica,sans-Serif" font-size="10.00" fill="#000000">+ operator&gt;=()</text>
<text text-anchor="start" x="164" y="-757.5" font-family="Helvetica,sans-Serif" font-size="10.00" fill="#000000">+ operator&lt;()</text>
<text text-anchor="start" x="164" y="-746.5" font-family="Helvetica,sans-Serif" font-size="10.00" fill="#000000">+ operator&lt;=()</text>
<text text-anchor="start" x="164" y="-735.5" font-family="Helvetica,sans-Serif" font-size="10.00" fill="#000000">+ print()</text>
<text text-anchor="start" x="164" y="-724.5" font-family="Helvetica,sans-Serif" font-size="10.00" fill="#000000">+ asString()</text>
<text text-anchor="start" x="164" y="-713.5" font-family="Helvetica,sans-Serif" font-size="10.00" fill="#000000">+ ClassDefNV()</text>
</a>
</g>
</g>
<!-- Node5&#45;&gt;Node17 -->
<g id="edge16" class="edge">
<title>Node5&#45;&gt;Node17</title>
<path fill="none" stroke="#191970" d="M274.5243,-967.4379C270.5293,-954.2799 266.6004,-941.3398 262.8268,-928.9111"/>
<polygon fill="none" stroke="#191970" points="271.1894,-968.5015 277.4438,-977.0533 277.8875,-966.4678 271.1894,-968.5015"/>
</g>
<!-- Node6 -->
<g id="node5" class="node">
<title>Node6</title>
<polygon fill="none" stroke="#bfbfbf" points="181,-1445.5 181,-1502.5 231,-1502.5 231,-1445.5 181,-1445.5"/>
<text text-anchor="middle" x="206" y="-1490.5" font-family="Helvetica,sans-Serif" font-size="10.00" fill="#000000">double</text>
<polyline fill="none" stroke="#bfbfbf" points="181,-1483.5 231,-1483.5 "/>
<text text-anchor="middle" x="206" y="-1471.5" font-family="Helvetica,sans-Serif" font-size="10.00" fill="#000000"> </text>
<polyline fill="none" stroke="#bfbfbf" points="181,-1464.5 231,-1464.5 "/>
<text text-anchor="middle" x="206" y="-1452.5" font-family="Helvetica,sans-Serif" font-size="10.00" fill="#000000"> </text>
</g>
<!-- Node6&#45;&gt;Node5 -->
<g id="edge4" class="edge">
<title>Node6&#45;&gt;Node5</title>
<path fill="none" stroke="#404040" d="M217.3474,-1445.2176C223.2741,-1432.1845 231.3201,-1417.0378 241,-1405 248.9168,-1395.1547 255.7247,-1397.3284 263,-1387 265.8101,-1383.0106 268.5251,-1378.9051 271.1476,-1374.7045"/>
<polygon fill="none" stroke="#404040" points="271.3359,-1374.3884 270.9701,-1367.1866 277.4773,-1364.079 277.843,-1371.2809 271.3359,-1374.3884"/>
<text text-anchor="middle" x="279" y="-1413.5" font-family="Helvetica,sans-Serif" font-size="10.00" fill="#000000"> +DummyTime</text>
</g>
<!-- Node6&#45;&gt;Node17 -->
<g id="edge17" class="edge">
<title>Node6&#45;&gt;Node17</title>
<path fill="none" stroke="#404040" d="M203.3321,-1445.2584C196.6221,-1367.6895 180.8326,-1147.6737 199,-966 199.8272,-957.7284 200.9073,-949.2357 202.1655,-940.7026"/>
<polygon fill="none" stroke="#404040" points="202.1992,-940.4863 199.1752,-933.9399 204.0549,-928.6306 207.079,-935.177 202.1992,-940.4863"/>
<text text-anchor="middle" x="234" y="-1174" font-family="Helvetica,sans-Serif" font-size="10.00" fill="#000000"> +timeInBCNS</text>
</g>
<!-- Node7 -->
<g id="node6" class="node">
<title>Node7</title>
<g id="a_node6"><a xlink:href="../../d2/d5f/classunsigned_01int.html" target="_top" xlink:title="{unsigned int\n||}">
<polygon fill="none" stroke="#000000" points="282.5,-1445.5 282.5,-1502.5 359.5,-1502.5 359.5,-1445.5 282.5,-1445.5"/>
<text text-anchor="middle" x="321" y="-1490.5" font-family="Helvetica,sans-Serif" font-size="10.00" fill="#000000">unsigned int</text>
<polyline fill="none" stroke="#000000" points="282.5,-1483.5 359.5,-1483.5 "/>
<text text-anchor="middle" x="321" y="-1471.5" font-family="Helvetica,sans-Serif" font-size="10.00" fill="#000000"> </text>
<polyline fill="none" stroke="#000000" points="282.5,-1464.5 359.5,-1464.5 "/>
<text text-anchor="middle" x="321" y="-1452.5" font-family="Helvetica,sans-Serif" font-size="10.00" fill="#000000"> </text>
</a>
</g>
</g>
<!-- Node7&#45;&gt;Node5 -->
<g id="edge5" class="edge">
<title>Node7&#45;&gt;Node5</title>
<path fill="none" stroke="#404040" d="M321.0591,-1445.4549C321.1765,-1433.0233 321.439,-1418.2864 322,-1405 322.0879,-1402.9172 322.179,-1400.8238 322.273,-1398.7213"/>
<polygon fill="none" stroke="#404040" points="322.2798,-1398.5747 318.5655,-1392.3937 322.8424,-1386.5878 326.5567,-1392.7688 322.2798,-1398.5747"/>
<text text-anchor="middle" x="359.5" y="-1413.5" font-family="Helvetica,sans-Serif" font-size="10.00" fill="#000000"> +DummyOrbit</text>
</g>
<!-- Node8 -->
<g id="node7" class="node">
<title>Node8</title>
<polygon fill="none" stroke="#bfbfbf" points="388.5,-1445.5 388.5,-1502.5 449.5,-1502.5 449.5,-1445.5 388.5,-1445.5"/>
<text text-anchor="middle" x="419" y="-1490.5" font-family="Helvetica,sans-Serif" font-size="10.00" fill="#000000">unsigned</text>
<polyline fill="none" stroke="#bfbfbf" points="388.5,-1483.5 449.5,-1483.5 "/>
<text text-anchor="middle" x="419" y="-1471.5" font-family="Helvetica,sans-Serif" font-size="10.00" fill="#000000"> </text>
<polyline fill="none" stroke="#bfbfbf" points="388.5,-1464.5 449.5,-1464.5 "/>
<text text-anchor="middle" x="419" y="-1452.5" font-family="Helvetica,sans-Serif" font-size="10.00" fill="#000000"> </text>
</g>
<!-- Node8&#45;&gt;Node5 -->
<g id="edge6" class="edge">
<title>Node8&#45;&gt;Node5</title>
<path fill="none" stroke="#404040" d="M411.2334,-1445.4744C407.7575,-1432.7081 403.3209,-1416.413 398.355,-1398.1743"/>
<polygon fill="none" stroke="#404040" points="398.3511,-1398.1597 392.9153,-1393.4213 395.1986,-1386.5812 400.6344,-1391.3196 398.3511,-1398.1597"/>
<text text-anchor="middle" x="420.5" y="-1419" font-family="Helvetica,sans-Serif" font-size="10.00" fill="#000000"> +bc</text>
<text text-anchor="middle" x="420.5" y="-1408" font-family="Helvetica,sans-Serif" font-size="10.00" fill="#000000">+orbit</text>
</g>
<!-- Node9 -->
<g id="node8" class="node">
<title>Node9</title>
<polygon fill="none" stroke="#bfbfbf" points="467.5,-1445.5 467.5,-1502.5 604.5,-1502.5 604.5,-1445.5 467.5,-1445.5"/>
<text text-anchor="middle" x="536" y="-1490.5" font-family="Helvetica,sans-Serif" font-size="10.00" fill="#000000">static constexpr uint16_t</text>
<polyline fill="none" stroke="#bfbfbf" points="467.5,-1483.5 604.5,-1483.5 "/>
<text text-anchor="middle" x="536" y="-1471.5" font-family="Helvetica,sans-Serif" font-size="10.00" fill="#000000"> </text>
<polyline fill="none" stroke="#bfbfbf" points="467.5,-1464.5 604.5,-1464.5 "/>
<text text-anchor="middle" x="536" y="-1452.5" font-family="Helvetica,sans-Serif" font-size="10.00" fill="#000000"> </text>
</g>
<!-- Node9&#45;&gt;Node5 -->
<g id="edge7" class="edge">
<title>Node9&#45;&gt;Node5</title>
<path fill="none" stroke="#404040" d="M517.0149,-1445.4744C491.4866,-1407.1176 444.7571,-1336.9052 405.4426,-1277.8342"/>
<polygon fill="none" stroke="#404040" points="405.3481,-1277.6922 398.6938,-1274.9135 398.6994,-1267.7024 405.3537,-1270.4811 405.3481,-1277.6922"/>
<text text-anchor="middle" x="534" y="-1413.5" font-family="Helvetica,sans-Serif" font-size="10.00" fill="#000000"> +DummyBC</text>
</g>
<!-- Node10 -->
<g id="node9" class="node">
<title>Node10</title>
<polygon fill="none" stroke="#bfbfbf" points="408,-789 408,-846 538,-846 538,-789 408,-789"/>
<text text-anchor="middle" x="473" y="-834" font-family="Helvetica,sans-Serif" font-size="10.00" fill="#000000">vector&lt; o2::tof::Strip &gt;</text>
<polyline fill="none" stroke="#bfbfbf" points="408,-827 538,-827 "/>
<text text-anchor="middle" x="473" y="-815" font-family="Helvetica,sans-Serif" font-size="10.00" fill="#000000"> </text>
<polyline fill="none" stroke="#bfbfbf" points="408,-808 538,-808 "/>
<text text-anchor="middle" x="473" y="-796" font-family="Helvetica,sans-Serif" font-size="10.00" fill="#000000"> </text>
</g>
<!-- Node10&#45;&gt;Node3 -->
<g id="edge8" class="edge">
<title>Node10&#45;&gt;Node3</title>
<path fill="none" stroke="#404040" d="M485.0761,-788.827C498.7607,-757.5675 522.6189,-706.5853 549,-666 559.5084,-649.8337 571.4098,-633.414 583.6305,-617.5859"/>
<polygon fill="none" stroke="#404040" points="583.8792,-617.2678 584.4242,-610.0773 591.2712,-607.8147 590.7262,-615.0053 583.8792,-617.2678"/>
<text text-anchor="middle" x="573.5" y="-674.5" font-family="Helvetica,sans-Serif" font-size="10.00" fill="#000000"> #mStrips</text>
</g>
<!-- Node11 -->
<g id="node10" class="node">
<title>Node11</title>
<polygon fill="none" stroke="#bfbfbf" points="556,-783.5 556,-851.5 692,-851.5 692,-783.5 556,-783.5"/>
<text text-anchor="start" x="564" y="-839.5" font-family="Helvetica,sans-Serif" font-size="10.00" fill="#000000">vector&lt; o2::tof::Readout</text>
<text text-anchor="middle" x="624" y="-828.5" font-family="Helvetica,sans-Serif" font-size="10.00" fill="#000000">WindowData &gt;</text>
<polyline fill="none" stroke="#bfbfbf" points="556,-821.5 692,-821.5 "/>
<text text-anchor="middle" x="624" y="-809.5" font-family="Helvetica,sans-Serif" font-size="10.00" fill="#000000"> </text>
<polyline fill="none" stroke="#bfbfbf" points="556,-802.5 692,-802.5 "/>
<text text-anchor="middle" x="624" y="-790.5" font-family="Helvetica,sans-Serif" font-size="10.00" fill="#000000"> </text>
</g>
<!-- Node11&#45;&gt;Node3 -->
<g id="edge9" class="edge">
<title>Node11&#45;&gt;Node3</title>
<path fill="none" stroke="#404040" d="M613.56,-783.492C605.5793,-752.5807 597.2979,-705.851 606,-666 606.4713,-663.8417 606.9751,-661.6776 607.5091,-659.5098"/>
<polygon fill="none" stroke="#404040" points="607.5171,-659.4802 605.2167,-652.6458 610.6406,-647.8938 612.941,-654.7282 607.5171,-659.4802"/>
<text text-anchor="middle" x="668" y="-674.5" font-family="Helvetica,sans-Serif" font-size="10.00" fill="#000000"> #mReadoutWindowData</text>
</g>
<!-- Node12 -->
<g id="node11" class="node">
<title>Node12</title>
<polygon fill="none" stroke="#bfbfbf" points="710.5,-789 710.5,-846 841.5,-846 841.5,-789 710.5,-789"/>
<text text-anchor="middle" x="776" y="-834" font-family="Helvetica,sans-Serif" font-size="10.00" fill="#000000">vector&lt; o2::tof::Digit &gt;</text>
<polyline fill="none" stroke="#bfbfbf" points="710.5,-827 841.5,-827 "/>
<text text-anchor="middle" x="776" y="-815" font-family="Helvetica,sans-Serif" font-size="10.00" fill="#000000"> </text>
<polyline fill="none" stroke="#bfbfbf" points="710.5,-808 841.5,-808 "/>
<text text-anchor="middle" x="776" y="-796" font-family="Helvetica,sans-Serif" font-size="10.00" fill="#000000"> </text>
</g>
<!-- Node12&#45;&gt;Node3 -->
<g id="edge10" class="edge">
<title>Node12&#45;&gt;Node3</title>
<path fill="none" stroke="#404040" d="M767.5645,-788.9531C758.4963,-758.4483 743.5534,-708.706 730,-666 729.2834,-663.7421 728.5591,-661.4668 727.8281,-659.1773"/>
<polygon fill="none" stroke="#404040" points="727.7892,-659.0559 722.1479,-654.5641 724.1243,-647.6292 729.7657,-652.1209 727.7892,-659.0559"/>
<text text-anchor="middle" x="795" y="-680" font-family="Helvetica,sans-Serif" font-size="10.00" fill="#000000"> #mFutureDigits</text>
<text text-anchor="middle" x="795" y="-669" font-family="Helvetica,sans-Serif" font-size="10.00" fill="#000000">#mDigitsPerTimeFrame</text>
</g>
<!-- Node13 -->
<g id="node12" class="node">
<title>Node13</title>
<polygon fill="none" stroke="#bfbfbf" points="878.5,-789 878.5,-846 907.5,-846 907.5,-789 878.5,-789"/>
<text text-anchor="middle" x="893" y="-834" font-family="Helvetica,sans-Serif" font-size="10.00" fill="#000000">int</text>
<polyline fill="none" stroke="#bfbfbf" points="878.5,-827 907.5,-827 "/>
<text text-anchor="middle" x="893" y="-815" font-family="Helvetica,sans-Serif" font-size="10.00" fill="#000000"> </text>
<polyline fill="none" stroke="#bfbfbf" points="878.5,-808 907.5,-808 "/>
<text text-anchor="middle" x="893" y="-796" font-family="Helvetica,sans-Serif" font-size="10.00" fill="#000000"> </text>
</g>
<!-- Node13&#45;&gt;Node3 -->
<g id="edge11" class="edge">
<title>Node13&#45;&gt;Node3</title>
<path fill="none" stroke="#404040" d="M891.6108,-788.7403C888.9238,-756.7214 881.0504,-704.4285 858,-666 836.93,-630.8731 805.3199,-599.4787 774.4409,-574.1664"/>
<polygon fill="none" stroke="#404040" points="774.2547,-574.017 767.0714,-573.3832 764.8937,-566.5087 772.077,-567.1426 774.2547,-574.017"/>
<text text-anchor="middle" x="936" y="-674.5" font-family="Helvetica,sans-Serif" font-size="10.00" fill="#000000"> #mIcurrentReadoutWindow</text>
</g>
<!-- Node14 -->
<g id="node13" class="node">
<title>Node14</title>
<polygon fill="none" stroke="#bfbfbf" points="1035,-789 1035,-846 1073,-846 1073,-789 1035,-789"/>
<text text-anchor="middle" x="1054" y="-834" font-family="Helvetica,sans-Serif" font-size="10.00" fill="#000000">bool</text>
<polyline fill="none" stroke="#bfbfbf" points="1035,-827 1073,-827 "/>
<text text-anchor="middle" x="1054" y="-815" font-family="Helvetica,sans-Serif" font-size="10.00" fill="#000000"> </text>
<polyline fill="none" stroke="#bfbfbf" points="1035,-808 1073,-808 "/>
<text text-anchor="middle" x="1054" y="-796" font-family="Helvetica,sans-Serif" font-size="10.00" fill="#000000"> </text>
</g>
<!-- Node14&#45;&gt;Node3 -->
<g id="edge12" class="edge">
<title>Node14&#45;&gt;Node3</title>
<path fill="none" stroke="#404040" d="M1052.3636,-788.8078C1049.0559,-755.6368 1039.077,-701.1119 1009,-666 948.8104,-595.7347 850.1479,-554.63 776.1703,-532.2337"/>
<polygon fill="none" stroke="#404040" points="776.0291,-532.1921 769.1428,-534.3319 764.519,-528.7983 771.4053,-526.6585 776.0291,-532.1921"/>
<text text-anchor="middle" x="1076" y="-680" font-family="Helvetica,sans-Serif" font-size="10.00" fill="#000000"> #mFutureToBeSorted</text>
<text text-anchor="middle" x="1076" y="-669" font-family="Helvetica,sans-Serif" font-size="10.00" fill="#000000">#mContinuous</text>
</g>
<!-- Node15 -->
<g id="node14" class="node">
<title>Node15</title>
<polygon fill="none" stroke="#bfbfbf" points="1161,-789 1161,-846 1205,-846 1205,-789 1161,-789"/>
<text text-anchor="middle" x="1183" y="-834" font-family="Helvetica,sans-Serif" font-size="10.00" fill="#000000">static</text>
<polyline fill="none" stroke="#bfbfbf" points="1161,-827 1205,-827 "/>
<text text-anchor="middle" x="1183" y="-815" font-family="Helvetica,sans-Serif" font-size="10.00" fill="#000000"> </text>
<polyline fill="none" stroke="#bfbfbf" points="1161,-808 1205,-808 "/>
<text text-anchor="middle" x="1183" y="-796" font-family="Helvetica,sans-Serif" font-size="10.00" fill="#000000"> </text>
</g>
<!-- Node15&#45;&gt;Node3 -->
<g id="edge13" class="edge">
<title>Node15&#45;&gt;Node3</title>
<path fill="none" stroke="#404040" d="M1181.0255,-788.7452C1177.2014,-755.0004 1165.9721,-699.4198 1133,-666 1037.4088,-569.111 879.2687,-531.9574 776.8687,-517.748"/>
<polygon fill="none" stroke="#404040" points="776.5606,-517.7072 770.086,-520.882 764.6652,-516.1264 771.1398,-512.9517 776.5606,-517.7072"/>
<text text-anchor="middle" x="1190.5" y="-674.5" font-family="Helvetica,sans-Serif" font-size="10.00" fill="#000000"> #MAXWINDOWS</text>
</g>
<!-- Node16 -->
<g id="node15" class="node">
<title>Node16</title>
<polygon fill="none" stroke="#bfbfbf" points="1272,-789 1272,-846 1310,-846 1310,-789 1272,-789"/>
<text text-anchor="middle" x="1291" y="-834" font-family="Helvetica,sans-Serif" font-size="10.00" fill="#000000">Int_t</text>
<polyline fill="none" stroke="#bfbfbf" points="1272,-827 1310,-827 "/>
<text text-anchor="middle" x="1291" y="-815" font-family="Helvetica,sans-Serif" font-size="10.00" fill="#000000"> </text>
<polyline fill="none" stroke="#bfbfbf" points="1272,-808 1310,-808 "/>
<text text-anchor="middle" x="1291" y="-796" font-family="Helvetica,sans-Serif" font-size="10.00" fill="#000000"> </text>
</g>
<!-- Node16&#45;&gt;Node3 -->
<g id="edge14" class="edge">
<title>Node16&#45;&gt;Node3</title>
<path fill="none" stroke="#404040" d="M1288.5981,-788.9631C1284.1977,-754.9044 1271.7989,-698.4902 1237,-666 1170.3277,-603.7509 918.5572,-551.0521 776.7132,-525.5101"/>
<polygon fill="none" stroke="#404040" points="776.4113,-525.4563 769.8015,-528.339 764.5982,-523.3464 771.208,-520.4637 776.4113,-525.4563"/>
<text text-anchor="middle" x="1321" y="-674.5" font-family="Helvetica,sans-Serif" font-size="10.00" fill="#000000"> #mReadoutWindowCurrent</text>
</g>
<!-- Node17&#45;&gt;Node3 -->
<g id="edge15" class="edge">
<title>Node17&#45;&gt;Node3</title>
<path fill="none" stroke="#404040" d="M230.228,-706.1614C234.3016,-691.5841 240.5842,-677.6801 250,-666 292.1584,-613.7036 466.5784,-561.7338 579.331,-532.6495"/>
<polygon fill="none" stroke="#404040" points="579.4358,-532.6228 584.2572,-527.2605 591.0614,-529.6487 586.24,-535.0109 579.4358,-532.6228"/>
<text text-anchor="middle" x="287" y="-674.5" font-family="Helvetica,sans-Serif" font-size="10.00" fill="#000000"> #mEventTime</text>
</g>
</g>
</svg>
