<?xml version="1.0" encoding="UTF-8" standalone="no"?>
<!DOCTYPE svg PUBLIC "-//W3C//DTD SVG 1.1//EN"
 "http://www.w3.org/Graphics/SVG/1.1/DTD/svg11.dtd">
<!-- Generated by graphviz version 2.40.1 (20161225.0304)
 -->
<!-- Title: /home/travis/build/AliceO2Group/AliceO2/Framework/Core/include/Framework/ASoAHelpers.h Pages: 1 -->
<svg width="2329pt" height="150pt"
 viewBox="0.00 0.00 2328.50 150.00" xmlns="http://www.w3.org/2000/svg" xmlns:xlink="http://www.w3.org/1999/xlink">
<g id="graph0" class="graph" transform="scale(1 1) rotate(0) translate(4 146)">
<title>/home/travis/build/AliceO2Group/AliceO2/Framework/Core/include/Framework/ASoAHelpers.h</title>
<!-- Node45 -->
<g id="node1" class="node">
<title>Node45</title>
<polygon fill="#bfbfbf" stroke="#000000" points="1065.5,-89.5 1065.5,-141.5 1214.5,-141.5 1214.5,-89.5 1065.5,-89.5"/>
<text text-anchor="start" x="1073.5" y="-129.5" font-family="Helvetica,sans-Serif" font-size="10.00" fill="#000000">/home/travis/build</text>
<text text-anchor="start" x="1073.5" y="-118.5" font-family="Helvetica,sans-Serif" font-size="10.00" fill="#000000">/AliceO2Group/AliceO2</text>
<text text-anchor="start" x="1073.5" y="-107.5" font-family="Helvetica,sans-Serif" font-size="10.00" fill="#000000">/Framework/Core/include</text>
<text text-anchor="middle" x="1140" y="-96.5" font-family="Helvetica,sans-Serif" font-size="10.00" fill="#000000">/Framework/ASoAHelpers.h</text>
</g>
<!-- Node46 -->
<g id="node2" class="node">
<title>Node46</title>
<g id="a_node2"><a xlink:href="../../df/d59/correlationsCollection_8cxx.html" target="_top" xlink:title="/home/travis/build\l/AliceO2Group/AliceO2\l/Analysis/Tasks/correlations\lCollection.cxx">
<polygon fill="none" stroke="#000000" points="0,-.5 0,-52.5 152,-52.5 152,-.5 0,-.5"/>
<text text-anchor="start" x="8" y="-40.5" font-family="Helvetica,sans-Serif" font-size="10.00" fill="#000000">/home/travis/build</text>
<text text-anchor="start" x="8" y="-29.5" font-family="Helvetica,sans-Serif" font-size="10.00" fill="#000000">/AliceO2Group/AliceO2</text>
<text text-anchor="start" x="8" y="-18.5" font-family="Helvetica,sans-Serif" font-size="10.00" fill="#000000">/Analysis/Tasks/correlations</text>
<text text-anchor="middle" x="76" y="-7.5" font-family="Helvetica,sans-Serif" font-size="10.00" fill="#000000">Collection.cxx</text>
</a>
</g>
</g>
<!-- Node45&#45;&gt;Node46 -->
<g id="edge1" class="edge">
<title>Node45&#45;&gt;Node46</title>
<path fill="none" stroke="#191970" d="M1055.0576,-112.6778C849.8442,-105.4403 331.4518,-84.5429 161,-53 158.1121,-52.4656 155.1847,-51.8645 152.2395,-51.2096"/>
<polygon fill="#191970" stroke="#191970" points="1055.0633,-116.18 1065.1798,-113.0326 1055.3086,-109.1843 1055.0633,-116.18"/>
</g>
<!-- Node47 -->
<g id="node3" class="node">
<title>Node47</title>
<g id="a_node3"><a xlink:href="../../d4/d39/correlationsMixed_8cxx.html" target="_top" xlink:title="/home/travis/build\l/AliceO2Group/AliceO2\l/Analysis/Tasks/correlations\lMixed.cxx">
<polygon fill="none" stroke="#000000" points="170,-.5 170,-52.5 322,-52.5 322,-.5 170,-.5"/>
<text text-anchor="start" x="178" y="-40.5" font-family="Helvetica,sans-Serif" font-size="10.00" fill="#000000">/home/travis/build</text>
<text text-anchor="start" x="178" y="-29.5" font-family="Helvetica,sans-Serif" font-size="10.00" fill="#000000">/AliceO2Group/AliceO2</text>
<text text-anchor="start" x="178" y="-18.5" font-family="Helvetica,sans-Serif" font-size="10.00" fill="#000000">/Analysis/Tasks/correlations</text>
<text text-anchor="middle" x="246" y="-7.5" font-family="Helvetica,sans-Serif" font-size="10.00" fill="#000000">Mixed.cxx</text>
</a>
</g>
</g>
<!-- Node45&#45;&gt;Node47 -->
<g id="edge2" class="edge">
<title>Node45&#45;&gt;Node47</title>
<path fill="none" stroke="#191970" d="M1055.0797,-111.3653C876.6288,-102.2799 467.8969,-79.2796 331,-53 328.1157,-52.4463 325.1914,-51.8289 322.2488,-51.1601"/>
<polygon fill="#191970" stroke="#191970" points="1055.0439,-114.8679 1065.2082,-111.8786 1055.3982,-107.8768 1055.0439,-114.8679"/>
</g>
<!-- Node48 -->
<g id="node4" class="node">
<title>Node48</title>
<g id="a_node4"><a xlink:href="../../d5/d53/pidTOF_8cxx.html" target="_top" xlink:title="/home/travis/build\l/AliceO2Group/AliceO2\l/Analysis/Tasks/pidTOF.cxx">
<polygon fill="none" stroke="#000000" points="340,-6 340,-47 486,-47 486,-6 340,-6"/>
<text text-anchor="start" x="348" y="-35" font-family="Helvetica,sans-Serif" font-size="10.00" fill="#000000">/home/travis/build</text>
<text text-anchor="start" x="348" y="-24" font-family="Helvetica,sans-Serif" font-size="10.00" fill="#000000">/AliceO2Group/AliceO2</text>
<text text-anchor="middle" x="413" y="-13" font-family="Helvetica,sans-Serif" font-size="10.00" fill="#000000">/Analysis/Tasks/pidTOF.cxx</text>
</a>
</g>
</g>
<!-- Node45&#45;&gt;Node48 -->
<g id="edge3" class="edge">
<title>Node45&#45;&gt;Node48</title>
<path fill="none" stroke="#191970" d="M1055.0143,-113.0992C930.8099,-108.2794 692.9509,-94.0728 495,-53 487.236,-51.389 479.1721,-49.3093 471.2653,-47.0239"/>
<polygon fill="#191970" stroke="#191970" points="1055.0917,-116.6045 1065.2165,-113.4839 1055.3555,-109.6095 1055.0917,-116.6045"/>
</g>
<!-- Node49 -->
<g id="node5" class="node">
<title>Node49</title>
<g id="a_node5"><a xlink:href="../../db/da2/pidTPC_8cxx.html" target="_top" xlink:title="/home/travis/build\l/AliceO2Group/AliceO2\l/Analysis/Tasks/pidTPC.cxx">
<polygon fill="none" stroke="#000000" points="504,-6 504,-47 652,-47 652,-6 504,-6"/>
<text text-anchor="start" x="512" y="-35" font-family="Helvetica,sans-Serif" font-size="10.00" fill="#000000">/home/travis/build</text>
<text text-anchor="start" x="512" y="-24" font-family="Helvetica,sans-Serif" font-size="10.00" fill="#000000">/AliceO2Group/AliceO2</text>
<text text-anchor="middle" x="578" y="-13" font-family="Helvetica,sans-Serif" font-size="10.00" fill="#000000">/Analysis/Tasks/pidTPC.cxx</text>
</a>
</g>
</g>
<!-- Node45&#45;&gt;Node49 -->
<g id="edge4" class="edge">
<title>Node45&#45;&gt;Node49</title>
<path fill="none" stroke="#191970" d="M1055.4515,-109.0831C959.1175,-100.709 797.3725,-83.4092 661,-53 653.4705,-51.321 645.6469,-49.2593 637.9452,-47.0339"/>
<polygon fill="#191970" stroke="#191970" points="1055.1667,-112.5715 1065.4293,-109.9388 1055.7649,-105.5971 1055.1667,-112.5715"/>
</g>
<!-- Node50 -->
<g id="node6" class="node">
<title>Node50</title>
<g id="a_node6"><a xlink:href="../../dc/db0/dptdptcorrelations_8cxx.html" target="_top" xlink:title="/home/travis/build\l/AliceO2Group/AliceO2\l/Analysis/Tasks/PWGCF\l/dptdptcorrelations.cxx">
<polygon fill="none" stroke="#000000" points="670.5,-.5 670.5,-52.5 799.5,-52.5 799.5,-.5 670.5,-.5"/>
<text text-anchor="start" x="678.5" y="-40.5" font-family="Helvetica,sans-Serif" font-size="10.00" fill="#000000">/home/travis/build</text>
<text text-anchor="start" x="678.5" y="-29.5" font-family="Helvetica,sans-Serif" font-size="10.00" fill="#000000">/AliceO2Group/AliceO2</text>
<text text-anchor="start" x="678.5" y="-18.5" font-family="Helvetica,sans-Serif" font-size="10.00" fill="#000000">/Analysis/Tasks/PWGCF</text>
<text text-anchor="middle" x="735" y="-7.5" font-family="Helvetica,sans-Serif" font-size="10.00" fill="#000000">/dptdptcorrelations.cxx</text>
</a>
</g>
</g>
<!-- Node45&#45;&gt;Node50 -->
<g id="edge5" class="edge">
<title>Node45&#45;&gt;Node50</title>
<path fill="none" stroke="#191970" d="M1055.1542,-103.2492C987.7881,-92.6211 891.5327,-75.4203 809,-53 805.9712,-52.1772 802.8892,-51.2883 799.7882,-50.3519"/>
<polygon fill="#191970" stroke="#191970" points="1054.8741,-106.7478 1065.2946,-104.8338 1055.955,-99.8317 1054.8741,-106.7478"/>
</g>
<!-- Node51 -->
<g id="node7" class="node">
<title>Node51</title>
<g id="a_node7"><a xlink:href="../../d9/d14/tableMaker_8cxx.html" target="_top" xlink:title="/home/travis/build\l/AliceO2Group/AliceO2\l/Analysis/Tasks/PWGDQ\l/tableMaker.cxx">
<polygon fill="none" stroke="#000000" points="818,-.5 818,-52.5 950,-52.5 950,-.5 818,-.5"/>
<text text-anchor="start" x="826" y="-40.5" font-family="Helvetica,sans-Serif" font-size="10.00" fill="#000000">/home/travis/build</text>
<text text-anchor="start" x="826" y="-29.5" font-family="Helvetica,sans-Serif" font-size="10.00" fill="#000000">/AliceO2Group/AliceO2</text>
<text text-anchor="start" x="826" y="-18.5" font-family="Helvetica,sans-Serif" font-size="10.00" fill="#000000">/Analysis/Tasks/PWGDQ</text>
<text text-anchor="middle" x="884" y="-7.5" font-family="Helvetica,sans-Serif" font-size="10.00" fill="#000000">/tableMaker.cxx</text>
</a>
</g>
</g>
<!-- Node45&#45;&gt;Node51 -->
<g id="edge6" class="edge">
<title>Node45&#45;&gt;Node51</title>
<path fill="none" stroke="#191970" d="M1055.3871,-86.423C1024.9788,-75.9362 990.4348,-63.9806 959,-53 956.1318,-51.9981 953.2027,-50.9727 950.2443,-49.9352"/>
<polygon fill="#191970" stroke="#191970" points="1054.5107,-89.8229 1065.1054,-89.773 1056.792,-83.2051 1054.5107,-89.8229"/>
</g>
<!-- Node52 -->
<g id="node8" class="node">
<title>Node52</title>
<g id="a_node8"><a xlink:href="../../d4/d5e/reducedEventAnalysis_8cxx.html" target="_top" xlink:title="/home/travis/build\l/AliceO2Group/AliceO2\l/Analysis/Tasks/reducedEvent\lAnalysis.cxx">
<polygon fill="none" stroke="#000000" points="968.5,-.5 968.5,-52.5 1129.5,-52.5 1129.5,-.5 968.5,-.5"/>
<text text-anchor="start" x="976.5" y="-40.5" font-family="Helvetica,sans-Serif" font-size="10.00" fill="#000000">/home/travis/build</text>
<text text-anchor="start" x="976.5" y="-29.5" font-family="Helvetica,sans-Serif" font-size="10.00" fill="#000000">/AliceO2Group/AliceO2</text>
<text text-anchor="start" x="976.5" y="-18.5" font-family="Helvetica,sans-Serif" font-size="10.00" fill="#000000">/Analysis/Tasks/reducedEvent</text>
<text text-anchor="middle" x="1049" y="-7.5" font-family="Helvetica,sans-Serif" font-size="10.00" fill="#000000">Analysis.cxx</text>
</a>
</g>
</g>
<!-- Node45&#45;&gt;Node52 -->
<g id="edge7" class="edge">
<title>Node45&#45;&gt;Node52</title>
<path fill="none" stroke="#191970" d="M1105.7501,-82.0029C1095.7811,-72.2529 1085.0433,-61.7511 1075.6192,-52.5341"/>
<polygon fill="#191970" stroke="#191970" points="1103.5927,-84.7886 1113.1892,-89.2784 1108.4872,-79.7841 1103.5927,-84.7886"/>
</g>
<!-- Node53 -->
<g id="node9" class="node">
<title>Node53</title>
<g id="a_node9"><a xlink:href="../../df/d80/spectraTOF_8cxx.html" target="_top" xlink:title="/home/travis/build\l/AliceO2Group/AliceO2\l/Analysis/Tasks/spectraTOF.cxx">
<polygon fill="none" stroke="#000000" points="1147.5,-6 1147.5,-47 1314.5,-47 1314.5,-6 1147.5,-6"/>
<text text-anchor="start" x="1155.5" y="-35" font-family="Helvetica,sans-Serif" font-size="10.00" fill="#000000">/home/travis/build</text>
<text text-anchor="start" x="1155.5" y="-24" font-family="Helvetica,sans-Serif" font-size="10.00" fill="#000000">/AliceO2Group/AliceO2</text>
<text text-anchor="middle" x="1231" y="-13" font-family="Helvetica,sans-Serif" font-size="10.00" fill="#000000">/Analysis/Tasks/spectraTOF.cxx</text>
</a>
</g>
</g>
<!-- Node45&#45;&gt;Node53 -->
<g id="edge8" class="edge">
<title>Node45&#45;&gt;Node53</title>
<path fill="none" stroke="#191970" d="M1174.1046,-82.1449C1186.1058,-70.4075 1199.2375,-57.5645 1209.8582,-47.1771"/>
<polygon fill="#191970" stroke="#191970" points="1171.5128,-79.7841 1166.8108,-89.2784 1176.4073,-84.7886 1171.5128,-79.7841"/>
</g>
<!-- Node54 -->
<g id="node10" class="node">
<title>Node54</title>
<g id="a_node10"><a xlink:href="../../da/db2/spectraTPC_8cxx.html" target="_top" xlink:title="/home/travis/build\l/AliceO2Group/AliceO2\l/Analysis/Tasks/spectraTPC.cxx">
<polygon fill="none" stroke="#000000" points="1332.5,-6 1332.5,-47 1501.5,-47 1501.5,-6 1332.5,-6"/>
<text text-anchor="start" x="1340.5" y="-35" font-family="Helvetica,sans-Serif" font-size="10.00" fill="#000000">/home/travis/build</text>
<text text-anchor="start" x="1340.5" y="-24" font-family="Helvetica,sans-Serif" font-size="10.00" fill="#000000">/AliceO2Group/AliceO2</text>
<text text-anchor="middle" x="1417" y="-13" font-family="Helvetica,sans-Serif" font-size="10.00" fill="#000000">/Analysis/Tasks/spectraTPC.cxx</text>
</a>
</g>
</g>
<!-- Node45&#45;&gt;Node54 -->
<g id="edge9" class="edge">
<title>Node45&#45;&gt;Node54</title>
<path fill="none" stroke="#191970" d="M1224.1332,-88.468C1265.5877,-75.1487 1314.7663,-59.3477 1353.0878,-47.035"/>
<polygon fill="#191970" stroke="#191970" points="1223.0453,-85.1413 1214.5953,-91.5326 1225.1866,-91.8057 1223.0453,-85.1413"/>
</g>
<!-- Node55 -->
<g id="node11" class="node">
<title>Node55</title>
<g id="a_node11"><a xlink:href="../../d6/ddb/eventMixing_8cxx.html" target="_top" xlink:title="/home/travis/build\l/AliceO2Group/AliceO2\l/Analysis/Tutorials/src\l/eventMixing.cxx">
<polygon fill="none" stroke="#000000" points="1519.5,-.5 1519.5,-52.5 1646.5,-52.5 1646.5,-.5 1519.5,-.5"/>
<text text-anchor="start" x="1527.5" y="-40.5" font-family="Helvetica,sans-Serif" font-size="10.00" fill="#000000">/home/travis/build</text>
<text text-anchor="start" x="1527.5" y="-29.5" font-family="Helvetica,sans-Serif" font-size="10.00" fill="#000000">/AliceO2Group/AliceO2</text>
<text text-anchor="start" x="1527.5" y="-18.5" font-family="Helvetica,sans-Serif" font-size="10.00" fill="#000000">/Analysis/Tutorials/src</text>
<text text-anchor="middle" x="1583" y="-7.5" font-family="Helvetica,sans-Serif" font-size="10.00" fill="#000000">/eventMixing.cxx</text>
</a>
</g>
</g>
<!-- Node45&#45;&gt;Node55 -->
<g id="edge10" class="edge">
<title>Node45&#45;&gt;Node55</title>
<path fill="none" stroke="#191970" d="M1224.7552,-105.7794C1300.5772,-96.0095 1414.3389,-78.6914 1511,-53 1513.7033,-52.2815 1516.4476,-51.5025 1519.2079,-50.6779"/>
<polygon fill="#191970" stroke="#191970" points="1224.2548,-102.3148 1214.7769,-107.0498 1225.1389,-109.2588 1224.2548,-102.3148"/>
</g>
<!-- Node56 -->
<g id="node12" class="node">
<title>Node56</title>
<g id="a_node12"><a xlink:href="../../d0/da7/tracksCombinations_8cxx.html" target="_top" xlink:title="/home/travis/build\l/AliceO2Group/AliceO2\l/Analysis/Tutorials/src\l/tracksCombinations.cxx">
<polygon fill="none" stroke="#000000" points="1664.5,-.5 1664.5,-52.5 1801.5,-52.5 1801.5,-.5 1664.5,-.5"/>
<text text-anchor="start" x="1672.5" y="-40.5" font-family="Helvetica,sans-Serif" font-size="10.00" fill="#000000">/home/travis/build</text>
<text text-anchor="start" x="1672.5" y="-29.5" font-family="Helvetica,sans-Serif" font-size="10.00" fill="#000000">/AliceO2Group/AliceO2</text>
<text text-anchor="start" x="1672.5" y="-18.5" font-family="Helvetica,sans-Serif" font-size="10.00" fill="#000000">/Analysis/Tutorials/src</text>
<text text-anchor="middle" x="1733" y="-7.5" font-family="Helvetica,sans-Serif" font-size="10.00" fill="#000000">/tracksCombinations.cxx</text>
</a>
</g>
</g>
<!-- Node45&#45;&gt;Node56 -->
<g id="edge11" class="edge">
<title>Node45&#45;&gt;Node56</title>
<path fill="none" stroke="#191970" d="M1224.8,-110.7276C1327.826,-103.6732 1506.4204,-87.3922 1656,-53 1658.7556,-52.3664 1661.5506,-51.6701 1664.3621,-50.9247"/>
<polygon fill="#191970" stroke="#191970" points="1224.5058,-107.2394 1214.763,-111.4019 1224.9752,-114.2236 1224.5058,-107.2394"/>
</g>
<!-- Node57 -->
<g id="node13" class="node">
<title>Node57</title>
<g id="a_node13"><a xlink:href="../../d2/d08/benchmark__ASoAHelpers_8cxx.html" target="_top" xlink:title="/home/travis/build\l/AliceO2Group/AliceO2\l/Framework/Core/test/benchmark\l_ASoAHelpers.cxx">
<polygon fill="none" stroke="#000000" points="1819.5,-.5 1819.5,-52.5 1998.5,-52.5 1998.5,-.5 1819.5,-.5"/>
<text text-anchor="start" x="1827.5" y="-40.5" font-family="Helvetica,sans-Serif" font-size="10.00" fill="#000000">/home/travis/build</text>
<text text-anchor="start" x="1827.5" y="-29.5" font-family="Helvetica,sans-Serif" font-size="10.00" fill="#000000">/AliceO2Group/AliceO2</text>
<text text-anchor="start" x="1827.5" y="-18.5" font-family="Helvetica,sans-Serif" font-size="10.00" fill="#000000">/Framework/Core/test/benchmark</text>
<text text-anchor="middle" x="1909" y="-7.5" font-family="Helvetica,sans-Serif" font-size="10.00" fill="#000000">_ASoAHelpers.cxx</text>
</a>
</g>
</g>
<!-- Node45&#45;&gt;Node57 -->
<g id="edge12" class="edge">
<title>Node45&#45;&gt;Node57</title>
<path fill="none" stroke="#191970" d="M1224.6513,-112.2641C1352.528,-106.3311 1602.2086,-90.6668 1811,-53 1813.7752,-52.4993 1816.5863,-51.9578 1819.418,-51.3823"/>
<polygon fill="#191970" stroke="#191970" points="1224.3638,-108.7735 1214.5334,-112.725 1224.6823,-115.7662 1224.3638,-108.7735"/>
</g>
<!-- Node58 -->
<g id="node14" class="node">
<title>Node58</title>
<g id="a_node14"><a xlink:href="../../db/dc9/test__ASoA_8cxx.html" target="_top" xlink:title="/home/travis/build\l/AliceO2Group/AliceO2\l/Framework/Core/test/test\l_ASoA.cxx">
<polygon fill="none" stroke="#000000" points="2016.5,-.5 2016.5,-52.5 2159.5,-52.5 2159.5,-.5 2016.5,-.5"/>
<text text-anchor="start" x="2024.5" y="-40.5" font-family="Helvetica,sans-Serif" font-size="10.00" fill="#000000">/home/travis/build</text>
<text text-anchor="start" x="2024.5" y="-29.5" font-family="Helvetica,sans-Serif" font-size="10.00" fill="#000000">/AliceO2Group/AliceO2</text>
<text text-anchor="start" x="2024.5" y="-18.5" font-family="Helvetica,sans-Serif" font-size="10.00" fill="#000000">/Framework/Core/test/test</text>
<text text-anchor="middle" x="2088" y="-7.5" font-family="Helvetica,sans-Serif" font-size="10.00" fill="#000000">_ASoA.cxx</text>
</a>
</g>
</g>
<!-- Node45&#45;&gt;Node58 -->
<g id="edge13" class="edge">
<title>Node45&#45;&gt;Node58</title>
<path fill="none" stroke="#191970" d="M1224.6191,-112.0806C1412.5232,-104.0532 1859.6625,-82.4334 2008,-53 2010.7267,-52.459 2013.4894,-51.8522 2016.2676,-51.1926"/>
<polygon fill="#191970" stroke="#191970" points="1224.3567,-108.5885 1214.5143,-112.5099 1224.6538,-115.5822 1224.3567,-108.5885"/>
</g>
<!-- Node59 -->
<g id="node15" class="node">
<title>Node59</title>
<g id="a_node15"><a xlink:href="../../da/d00/test__ASoAHelpers_8cxx.html" target="_top" xlink:title="/home/travis/build\l/AliceO2Group/AliceO2\l/Framework/Core/test/test\l_ASoAHelpers.cxx">
<polygon fill="none" stroke="#000000" points="2177.5,-.5 2177.5,-52.5 2320.5,-52.5 2320.5,-.5 2177.5,-.5"/>
<text text-anchor="start" x="2185.5" y="-40.5" font-family="Helvetica,sans-Serif" font-size="10.00" fill="#000000">/home/travis/build</text>
<text text-anchor="start" x="2185.5" y="-29.5" font-family="Helvetica,sans-Serif" font-size="10.00" fill="#000000">/AliceO2Group/AliceO2</text>
<text text-anchor="start" x="2185.5" y="-18.5" font-family="Helvetica,sans-Serif" font-size="10.00" fill="#000000">/Framework/Core/test/test</text>
<text text-anchor="middle" x="2249" y="-7.5" font-family="Helvetica,sans-Serif" font-size="10.00" fill="#000000">_ASoAHelpers.cxx</text>
</a>
</g>
</g>
<!-- Node45&#45;&gt;Node59 -->
<g id="edge14" class="edge">
<title>Node45&#45;&gt;Node59</title>
<path fill="none" stroke="#191970" d="M1224.7432,-113.1793C1437.2855,-106.905 1988.8459,-87.6975 2169,-53 2171.7297,-52.4743 2174.4949,-51.8806 2177.2753,-51.2319"/>
<polygon fill="#191970" stroke="#191970" points="1224.4697,-109.6857 1214.5766,-113.4772 1224.6748,-116.6827 1224.4697,-109.6857"/>
</g>
</g>
</svg>
