<?xml version="1.0" encoding="UTF-8" standalone="no"?>
<!DOCTYPE svg PUBLIC "-//W3C//DTD SVG 1.1//EN"
 "http://www.w3.org/Graphics/SVG/1.1/DTD/svg11.dtd">
<!-- Generated by graphviz version 2.40.1 (20161225.0304)
 -->
<!-- Title: o2::ft0::TCMdataExtended Pages: 1 -->
<svg width="391pt" height="182pt"
 viewBox="0.00 0.00 390.50 182.00" xmlns="http://www.w3.org/2000/svg" xmlns:xlink="http://www.w3.org/1999/xlink">
<g id="graph0" class="graph" transform="scale(1 1) rotate(0) translate(4 178)">
<title>o2::ft0::TCMdataExtended</title>
<!-- Node1 -->
<g id="node1" class="node">
<title>Node1</title>
<polygon fill="#bfbfbf" stroke="#000000" points="111.5,-.5 111.5,-57.5 253.5,-57.5 253.5,-.5 111.5,-.5"/>
<text text-anchor="middle" x="182.5" y="-45.5" font-family="Helvetica,sans-Serif" font-size="10.00" fill="#000000">o2::ft0::TCMdataExtended</text>
<polyline fill="none" stroke="#000000" points="111.5,-38.5 253.5,-38.5 "/>
<text text-anchor="middle" x="182.5" y="-26.5" font-family="Helvetica,sans-Serif" font-size="10.00" fill="#000000"> </text>
<polyline fill="none" stroke="#000000" points="111.5,-19.5 253.5,-19.5 "/>
<text text-anchor="start" x="119.5" y="-7.5" font-family="Helvetica,sans-Serif" font-size="10.00" fill="#000000">+ print()</text>
</g>
<!-- Node2 -->
<g id="node2" class="node">
<title>Node2</title>
<polygon fill="none" stroke="#bfbfbf" points="0,-116.5 0,-173.5 45,-173.5 45,-116.5 0,-116.5"/>
<text text-anchor="middle" x="22.5" y="-161.5" font-family="Helvetica,sans-Serif" font-size="10.00" fill="#000000">size_t</text>
<polyline fill="none" stroke="#bfbfbf" points="0,-154.5 45,-154.5 "/>
<text text-anchor="middle" x="22.5" y="-142.5" font-family="Helvetica,sans-Serif" font-size="10.00" fill="#000000"> </text>
<polyline fill="none" stroke="#bfbfbf" points="0,-135.5 45,-135.5 "/>
<text text-anchor="middle" x="22.5" y="-123.5" font-family="Helvetica,sans-Serif" font-size="10.00" fill="#000000"> </text>
</g>
<!-- Node2&#45;&gt;Node1 -->
<g id="edge1" class="edge">
<title>Node2&#45;&gt;Node1</title>
<path fill="none" stroke="#404040" d="M26.9593,-116.3658C30.4478,-102.5756 36.6209,-86.743 47.5,-76 61.8986,-61.7814 80.8207,-51.8523 99.9239,-44.9226"/>
<polygon fill="none" stroke="#404040" points="100.0924,-44.8667 104.5246,-39.1784 111.4799,-41.0818 107.0478,-46.7701 100.0924,-44.8667"/>
<text text-anchor="middle" x="102" y="-90" font-family="Helvetica,sans-Serif" font-size="10.00" fill="#000000"> +PayloadPerGBTword</text>
<text text-anchor="middle" x="102" y="-79" font-family="Helvetica,sans-Serif" font-size="10.00" fill="#000000">+PayloadSize</text>
</g>
<!-- Node3 -->
<g id="node3" class="node">
<title>Node3</title>
<polygon fill="none" stroke="#bfbfbf" points="93,-116.5 93,-173.5 200,-173.5 200,-116.5 93,-116.5"/>
<text text-anchor="middle" x="146.5" y="-161.5" font-family="Helvetica,sans-Serif" font-size="10.00" fill="#000000">anonymous:+@16</text>
<polyline fill="none" stroke="#bfbfbf" points="93,-154.5 200,-154.5 "/>
<text text-anchor="middle" x="146.5" y="-142.5" font-family="Helvetica,sans-Serif" font-size="10.00" fill="#000000"> </text>
<polyline fill="none" stroke="#bfbfbf" points="93,-135.5 200,-135.5 "/>
<text text-anchor="middle" x="146.5" y="-123.5" font-family="Helvetica,sans-Serif" font-size="10.00" fill="#000000"> </text>
</g>
<!-- Node3&#45;&gt;Node1 -->
<g id="edge2" class="edge">
<title>Node3&#45;&gt;Node1</title>
<path fill="none" stroke="#404040" d="M155.3989,-116.3258C159.7691,-102.2439 165.1107,-85.0322 169.8928,-69.6233"/>
<polygon fill="none" stroke="#404040" points="170.0219,-69.2071 167.98,-62.2911 173.5787,-57.7463 175.6206,-64.6623 170.0219,-69.2071"/>
<text text-anchor="middle" x="184.5" y="-84.5" font-family="Helvetica,sans-Serif" font-size="10.00" fill="#000000"> +@16</text>
</g>
<!-- Node4 -->
<g id="node4" class="node">
<title>Node4</title>
<polygon fill="none" stroke="#bfbfbf" points="218,-116.5 218,-173.5 247,-173.5 247,-116.5 218,-116.5"/>
<text text-anchor="middle" x="232.5" y="-161.5" font-family="Helvetica,sans-Serif" font-size="10.00" fill="#000000">int</text>
<polyline fill="none" stroke="#bfbfbf" points="218,-154.5 247,-154.5 "/>
<text text-anchor="middle" x="232.5" y="-142.5" font-family="Helvetica,sans-Serif" font-size="10.00" fill="#000000"> </text>
<polyline fill="none" stroke="#bfbfbf" points="218,-135.5 247,-135.5 "/>
<text text-anchor="middle" x="232.5" y="-123.5" font-family="Helvetica,sans-Serif" font-size="10.00" fill="#000000"> </text>
</g>
<!-- Node4&#45;&gt;Node1 -->
<g id="edge3" class="edge">
<title>Node4&#45;&gt;Node1</title>
<path fill="none" stroke="#404040" d="M220.6495,-116.4041C215.4506,-103.9635 209.2366,-89.2337 203.5,-76 202.5003,-73.6938 201.4668,-71.327 200.4189,-68.9408"/>
<polygon fill="none" stroke="#404040" points="200.3398,-68.7619 194.2543,-64.8934 195.4846,-57.788 201.5702,-61.6566 200.3398,-68.7619"/>
<text text-anchor="middle" x="254" y="-90" font-family="Helvetica,sans-Serif" font-size="10.00" fill="#000000"> +MaxNelements</text>
<text text-anchor="middle" x="254" y="-79" font-family="Helvetica,sans-Serif" font-size="10.00" fill="#000000">+MinNelements</text>
</g>
<!-- Node5 -->
<g id="node5" class="node">
<title>Node5</title>
<polygon fill="none" stroke="#bfbfbf" points="303,-116.5 303,-173.5 364,-173.5 364,-116.5 303,-116.5"/>
<text text-anchor="middle" x="333.5" y="-161.5" font-family="Helvetica,sans-Serif" font-size="10.00" fill="#000000">unsigned</text>
<polyline fill="none" stroke="#bfbfbf" points="303,-154.5 364,-154.5 "/>
<text text-anchor="middle" x="333.5" y="-142.5" font-family="Helvetica,sans-Serif" font-size="10.00" fill="#000000"> </text>
<polyline fill="none" stroke="#bfbfbf" points="303,-135.5 364,-135.5 "/>
<text text-anchor="middle" x="333.5" y="-123.5" font-family="Helvetica,sans-Serif" font-size="10.00" fill="#000000"> </text>
</g>
<!-- Node5&#45;&gt;Node1 -->
<g id="edge4" class="edge">
<title>Node5&#45;&gt;Node1</title>
<path fill="none" stroke="#404040" d="M325.3094,-116.4845C320.1171,-102.7246 312.1387,-86.8833 300.5,-76 290.1817,-66.3514 277.6382,-58.5886 264.6293,-52.372"/>
<polygon fill="none" stroke="#404040" points="264.605,-52.3613 257.4996,-53.5918 253.631,-47.5062 260.7363,-46.2758 264.605,-52.3613"/>
<text text-anchor="middle" x="349.5" y="-90" font-family="Helvetica,sans-Serif" font-size="10.00" fill="#000000"> +word</text>
<text text-anchor="middle" x="349.5" y="-79" font-family="Helvetica,sans-Serif" font-size="10.00" fill="#000000">+triggerWord</text>
</g>
</g>
</svg>
