<?xml version="1.0" encoding="UTF-8" standalone="no"?>
<!DOCTYPE svg PUBLIC "-//W3C//DTD SVG 1.1//EN"
 "http://www.w3.org/Graphics/SVG/1.1/DTD/svg11.dtd">
<!-- Generated by graphviz version 2.40.1 (20161225.0304)
 -->
<!-- Title: o2::header::RAWDataHeaderV5 Pages: 1 -->
<!--zoomable 479 -->
<svg id="main" version="1.1" xmlns="http://www.w3.org/2000/svg" xmlns:xlink="http://www.w3.org/1999/xlink" xml:space="preserve" onload="init(evt)">
<style type="text/css"><![CDATA[
.edge:hover path { stroke: red; }
.edge:hover polygon { stroke: red; fill: red; }
]]></style>
<script type="text/javascript"><![CDATA[
var edges = document.getElementsByTagName('g');
if (edges && edges.length) {
  for (var i=0;i<edges.length;i++) {
    if (edges[i].id.substr(0,4)=='edge') {
      edges[i].setAttribute('class','edge');
    }
  }
}
]]></script>
        <defs>
                <circle id="rim" cx="0" cy="0" r="7"/>
                <circle id="rim2" cx="0" cy="0" r="3.5"/>
                <g id="zoomPlus">
                        <use xlink:href="#rim" fill="#404040">
                                <set attributeName="fill" to="#808080" begin="zoomplus.mouseover" end="zoomplus.mouseout"/>
                        </use>
                        <path d="M-4,0h8M0,-4v8" fill="none" stroke="white" stroke-width="1.5" pointer-events="none"/>
                </g>
                <g id="zoomMin">
                        <use xlink:href="#rim" fill="#404040">
                                <set attributeName="fill" to="#808080" begin="zoomminus.mouseover" end="zoomminus.mouseout"/>
                        </use>
                        <path d="M-4,0h8" fill="none" stroke="white" stroke-width="1.5" pointer-events="none"/>
                </g>
                <g id="dirArrow">
                        <path fill="none" stroke="white" stroke-width="1.5" d="M0,-3.0v7 M-2.5,-0.5L0,-3.0L2.5,-0.5"/>
                </g>
               <g id="resetDef">
                       <use xlink:href="#rim2" fill="#404040">
                               <set attributeName="fill" to="#808080" begin="reset.mouseover" end="reset.mouseout"/>
                       </use>
               </g>
        </defs>

<script type="text/javascript">
var viewWidth = 1117;
var viewHeight = 479;
var sectionId = 'dynsection-0';
</script>
<script xlink:href="../../svgpan.js"/>
<svg id="graph" class="graph">
<g id="viewport">
<title>o2::header::RAWDataHeaderV5</title>
<!-- Node1 -->
<g id="node1" class="node">
<title>Node1</title>
<polygon fill="#bfbfbf" stroke="#000000" points="497,-.5 497,-255.5 664,-255.5 664,-.5 497,-.5"/>
<text text-anchor="middle" x="580.5" y="-243.5" font-family="Helvetica,sans-Serif" font-size="10.00" fill="#000000">o2::header::RAWDataHeaderV5</text>
<polyline fill="none" stroke="#000000" points="497,-236.5 664,-236.5 "/>
<text text-anchor="start" x="505" y="-224.5" font-family="Helvetica,sans-Serif" font-size="10.00" fill="#000000">+ word0</text>
<text text-anchor="start" x="505" y="-213.5" font-family="Helvetica,sans-Serif" font-size="10.00" fill="#000000">+ version</text>
<text text-anchor="start" x="505" y="-202.5" font-family="Helvetica,sans-Serif" font-size="10.00" fill="#000000">+ zero0</text>
<text text-anchor="start" x="505" y="-191.5" font-family="Helvetica,sans-Serif" font-size="10.00" fill="#000000">+ word1</text>
<text text-anchor="start" x="505" y="-180.5" font-family="Helvetica,sans-Serif" font-size="10.00" fill="#000000">+ offsetToNext</text>
<text text-anchor="start" x="505" y="-169.5" font-family="Helvetica,sans-Serif" font-size="10.00" fill="#000000">+ memorySize</text>
<text text-anchor="start" x="505" y="-158.5" font-family="Helvetica,sans-Serif" font-size="10.00" fill="#000000">+ packetCounter</text>
<text text-anchor="start" x="505" y="-147.5" font-family="Helvetica,sans-Serif" font-size="10.00" fill="#000000">+ word2</text>
<text text-anchor="start" x="505" y="-136.5" font-family="Helvetica,sans-Serif" font-size="10.00" fill="#000000">+ bunchCrossing</text>
<text text-anchor="start" x="505" y="-125.5" font-family="Helvetica,sans-Serif" font-size="10.00" fill="#000000">+ reserved2</text>
<text text-anchor="start" x="505" y="-114.5" font-family="Helvetica,sans-Serif" font-size="10.00" fill="#000000">+ orbit</text>
<text text-anchor="start" x="505" y="-103.5" font-family="Helvetica,sans-Serif" font-size="10.00" fill="#000000">+ word3</text>
<text text-anchor="start" x="505" y="-92.5" font-family="Helvetica,sans-Serif" font-size="10.00" fill="#000000">+ word4</text>
<text text-anchor="start" x="505" y="-81.5" font-family="Helvetica,sans-Serif" font-size="10.00" fill="#000000">+ pageCnt</text>
<text text-anchor="start" x="505" y="-70.5" font-family="Helvetica,sans-Serif" font-size="10.00" fill="#000000">+ stop</text>
<text text-anchor="start" x="505" y="-59.5" font-family="Helvetica,sans-Serif" font-size="10.00" fill="#000000">+ zero4</text>
<text text-anchor="start" x="505" y="-48.5" font-family="Helvetica,sans-Serif" font-size="10.00" fill="#000000">+ word5</text>
<text text-anchor="start" x="505" y="-37.5" font-family="Helvetica,sans-Serif" font-size="10.00" fill="#000000">+ word6</text>
<text text-anchor="start" x="505" y="-26.5" font-family="Helvetica,sans-Serif" font-size="10.00" fill="#000000">+ detectorField</text>
<polyline fill="none" stroke="#000000" points="497,-19.5 664,-19.5 "/>
<text text-anchor="middle" x="580.5" y="-7.5" font-family="Helvetica,sans-Serif" font-size="10.00" fill="#000000"> </text>
</g>
<!-- Node2 -->
<g id="node2" class="node">
<title>Node2</title>
<polygon fill="none" stroke="#bfbfbf" points="0,-413.5 0,-470.5 113,-470.5 113,-413.5 0,-413.5"/>
<text text-anchor="middle" x="56.5" y="-458.5" font-family="Helvetica,sans-Serif" font-size="10.00" fill="#000000">anonymous:+@124</text>
<polyline fill="none" stroke="#bfbfbf" points="0,-451.5 113,-451.5 "/>
<text text-anchor="middle" x="56.5" y="-439.5" font-family="Helvetica,sans-Serif" font-size="10.00" fill="#000000"> </text>
<polyline fill="none" stroke="#bfbfbf" points="0,-432.5 113,-432.5 "/>
<text text-anchor="middle" x="56.5" y="-420.5" font-family="Helvetica,sans-Serif" font-size="10.00" fill="#000000"> </text>
</g>
<!-- Node2&#45;&gt;Node1 -->
<g id="edge1" class="edge">
<title>Node2&#45;&gt;Node1</title>
<path fill="none" stroke="#404040" d="M68.8328,-413.1947C86.1434,-376.0039 121.0439,-311.6075 169.5,-274 263.0075,-201.4275 395.5594,-163.0468 484.611,-144.1604"/>
<polygon fill="none" stroke="#404040" points="484.8561,-144.1098 489.9211,-138.977 496.6071,-141.6782 491.5421,-146.811 484.8561,-144.1098"/>
<text text-anchor="middle" x="189.5" y="-332" font-family="Helvetica,sans-Serif" font-size="10.00" fill="#000000"> +@124</text>
</g>
<!-- Node3 -->
<g id="node3" class="node">
<title>Node3</title>
<polygon fill="none" stroke="#bfbfbf" points="131,-413.5 131,-470.5 244,-470.5 244,-413.5 131,-413.5"/>
<text text-anchor="middle" x="187.5" y="-458.5" font-family="Helvetica,sans-Serif" font-size="10.00" fill="#000000">anonymous:+@116</text>
<polyline fill="none" stroke="#bfbfbf" points="131,-451.5 244,-451.5 "/>
<text text-anchor="middle" x="187.5" y="-439.5" font-family="Helvetica,sans-Serif" font-size="10.00" fill="#000000"> </text>
<polyline fill="none" stroke="#bfbfbf" points="131,-432.5 244,-432.5 "/>
<text text-anchor="middle" x="187.5" y="-420.5" font-family="Helvetica,sans-Serif" font-size="10.00" fill="#000000"> </text>
</g>
<!-- Node3&#45;&gt;Node1 -->
<g id="edge2" class="edge">
<title>Node3&#45;&gt;Node1</title>
<path fill="none" stroke="#404040" d="M201.7106,-413.3061C220.7847,-377.1124 257.6354,-314.698 303.5,-274 356.9632,-226.5595 428.5793,-189.3366 485.598,-164.3503"/>
<polygon fill="none" stroke="#404040" points="485.7797,-164.2719 489.7035,-158.2218 496.7974,-159.5168 492.8736,-165.5669 485.7797,-164.2719"/>
<text text-anchor="middle" x="323.5" y="-332" font-family="Helvetica,sans-Serif" font-size="10.00" fill="#000000"> +@116</text>
</g>
<!-- Node4 -->
<g id="node4" class="node">
<title>Node4</title>
<polygon fill="none" stroke="#bfbfbf" points="262,-413.5 262,-470.5 375,-470.5 375,-413.5 262,-413.5"/>
<text text-anchor="middle" x="318.5" y="-458.5" font-family="Helvetica,sans-Serif" font-size="10.00" fill="#000000">anonymous:+@126</text>
<polyline fill="none" stroke="#bfbfbf" points="262,-451.5 375,-451.5 "/>
<text text-anchor="middle" x="318.5" y="-439.5" font-family="Helvetica,sans-Serif" font-size="10.00" fill="#000000"> </text>
<polyline fill="none" stroke="#bfbfbf" points="262,-432.5 375,-432.5 "/>
<text text-anchor="middle" x="318.5" y="-420.5" font-family="Helvetica,sans-Serif" font-size="10.00" fill="#000000"> </text>
</g>
<!-- Node4&#45;&gt;Node1 -->
<g id="edge3" class="edge">
<title>Node4&#45;&gt;Node1</title>
<path fill="none" stroke="#404040" d="M334.3674,-413.2655C354.0891,-378.6567 389.7784,-319.5028 427.5,-274 445.748,-251.9878 467.0521,-229.8574 487.8644,-209.7176"/>
<polygon fill="none" stroke="#404040" points="488.0768,-209.5142 489.6435,-202.4753 496.7435,-201.2142 495.1768,-208.2531 488.0768,-209.5142"/>
<text text-anchor="middle" x="447.5" y="-332" font-family="Helvetica,sans-Serif" font-size="10.00" fill="#000000"> +@126</text>
</g>
<!-- Node5 -->
<g id="node5" class="node">
<title>Node5</title>
<polygon fill="none" stroke="#bfbfbf" points="393,-413.5 393,-470.5 506,-470.5 506,-413.5 393,-413.5"/>
<text text-anchor="middle" x="449.5" y="-458.5" font-family="Helvetica,sans-Serif" font-size="10.00" fill="#000000">anonymous:+@118</text>
<polyline fill="none" stroke="#bfbfbf" points="393,-451.5 506,-451.5 "/>
<text text-anchor="middle" x="449.5" y="-439.5" font-family="Helvetica,sans-Serif" font-size="10.00" fill="#000000"> </text>
<polyline fill="none" stroke="#bfbfbf" points="393,-432.5 506,-432.5 "/>
<text text-anchor="middle" x="449.5" y="-420.5" font-family="Helvetica,sans-Serif" font-size="10.00" fill="#000000"> </text>
</g>
<!-- Node5&#45;&gt;Node1 -->
<g id="edge4" class="edge">
<title>Node5&#45;&gt;Node1</title>
<path fill="none" stroke="#404040" d="M461.4727,-413.3022C475.4476,-379.8049 499.5723,-321.9795 522.4645,-267.1079"/>
<polygon fill="none" stroke="#404040" points="522.5542,-266.8928 521.1728,-259.8152 527.1747,-255.818 528.5561,-262.8955 522.5542,-266.8928"/>
<text text-anchor="middle" x="539.5" y="-332" font-family="Helvetica,sans-Serif" font-size="10.00" fill="#000000"> +@118</text>
</g>
<!-- Node6 -->
<g id="node6" class="node">
<title>Node6</title>
<polygon fill="none" stroke="#bfbfbf" points="524,-413.5 524,-470.5 637,-470.5 637,-413.5 524,-413.5"/>
<text text-anchor="middle" x="580.5" y="-458.5" font-family="Helvetica,sans-Serif" font-size="10.00" fill="#000000">anonymous:+@128</text>
<polyline fill="none" stroke="#bfbfbf" points="524,-451.5 637,-451.5 "/>
<text text-anchor="middle" x="580.5" y="-439.5" font-family="Helvetica,sans-Serif" font-size="10.00" fill="#000000"> </text>
<polyline fill="none" stroke="#bfbfbf" points="524,-432.5 637,-432.5 "/>
<text text-anchor="middle" x="580.5" y="-420.5" font-family="Helvetica,sans-Serif" font-size="10.00" fill="#000000"> </text>
</g>
<!-- Node6&#45;&gt;Node1 -->
<g id="edge5" class="edge">
<title>Node6&#45;&gt;Node1</title>
<path fill="none" stroke="#404040" d="M580.5,-413.3022C580.5,-380.0147 580.5,-322.7028 580.5,-268.1392"/>
<polygon fill="none" stroke="#404040" points="580.5001,-267.818 576.5,-261.818 580.5,-255.818 584.5,-261.8179 580.5001,-267.818"/>
<text text-anchor="middle" x="600.5" y="-332" font-family="Helvetica,sans-Serif" font-size="10.00" fill="#000000"> +@128</text>
</g>
<!-- Node7 -->
<g id="node7" class="node">
<title>Node7</title>
<polygon fill="none" stroke="#bfbfbf" points="655,-413.5 655,-470.5 768,-470.5 768,-413.5 655,-413.5"/>
<text text-anchor="middle" x="711.5" y="-458.5" font-family="Helvetica,sans-Serif" font-size="10.00" fill="#000000">anonymous:+@120</text>
<polyline fill="none" stroke="#bfbfbf" points="655,-451.5 768,-451.5 "/>
<text text-anchor="middle" x="711.5" y="-439.5" font-family="Helvetica,sans-Serif" font-size="10.00" fill="#000000"> </text>
<polyline fill="none" stroke="#bfbfbf" points="655,-432.5 768,-432.5 "/>
<text text-anchor="middle" x="711.5" y="-420.5" font-family="Helvetica,sans-Serif" font-size="10.00" fill="#000000"> </text>
</g>
<!-- Node7&#45;&gt;Node1 -->
<g id="edge6" class="edge">
<title>Node7&#45;&gt;Node1</title>
<path fill="none" stroke="#404040" d="M699.5273,-413.3022C685.5524,-379.8049 661.4277,-321.9795 638.5355,-267.1079"/>
<polygon fill="none" stroke="#404040" points="638.4458,-266.8928 632.4439,-262.8955 633.8253,-255.818 639.8272,-259.8152 638.4458,-266.8928"/>
<text text-anchor="middle" x="709.5" y="-332" font-family="Helvetica,sans-Serif" font-size="10.00" fill="#000000"> +@120</text>
</g>
<!-- Node8 -->
<g id="node8" class="node">
<title>Node8</title>
<polygon fill="none" stroke="#bfbfbf" points="786,-413.5 786,-470.5 847,-470.5 847,-413.5 786,-413.5"/>
<text text-anchor="middle" x="816.5" y="-458.5" font-family="Helvetica,sans-Serif" font-size="10.00" fill="#000000">unsigned</text>
<polyline fill="none" stroke="#bfbfbf" points="786,-451.5 847,-451.5 "/>
<text text-anchor="middle" x="816.5" y="-439.5" font-family="Helvetica,sans-Serif" font-size="10.00" fill="#000000"> </text>
<polyline fill="none" stroke="#bfbfbf" points="786,-432.5 847,-432.5 "/>
<text text-anchor="middle" x="816.5" y="-420.5" font-family="Helvetica,sans-Serif" font-size="10.00" fill="#000000"> </text>
</g>
<!-- Node8&#45;&gt;Node1 -->
<g id="edge7" class="edge">
<title>Node8&#45;&gt;Node1</title>
<path fill="none" stroke="#404040" d="M805.9022,-413.2545C792.2597,-378.3745 766.35,-318.6932 733.5,-274 716.013,-250.2085 694.414,-226.9569 673.0123,-206.2537"/>
<polygon fill="none" stroke="#404040" points="672.8767,-206.1245 665.7735,-204.8817 664.1887,-197.8468 671.292,-199.0897 672.8767,-206.1245"/>
<text text-anchor="middle" x="831.5" y="-387" font-family="Helvetica,sans-Serif" font-size="10.00" fill="#000000"> +word7</text>
<text text-anchor="middle" x="831.5" y="-376" font-family="Helvetica,sans-Serif" font-size="10.00" fill="#000000">+triggerType</text>
<text text-anchor="middle" x="831.5" y="-365" font-family="Helvetica,sans-Serif" font-size="10.00" fill="#000000">+linkID</text>
<text text-anchor="middle" x="831.5" y="-354" font-family="Helvetica,sans-Serif" font-size="10.00" fill="#000000">+zero6</text>
<text text-anchor="middle" x="831.5" y="-343" font-family="Helvetica,sans-Serif" font-size="10.00" fill="#000000">+detectorPAR</text>
<text text-anchor="middle" x="831.5" y="-332" font-family="Helvetica,sans-Serif" font-size="10.00" fill="#000000">+feeId</text>
<text text-anchor="middle" x="831.5" y="-321" font-family="Helvetica,sans-Serif" font-size="10.00" fill="#000000">+endPointID</text>
<text text-anchor="middle" x="831.5" y="-310" font-family="Helvetica,sans-Serif" font-size="10.00" fill="#000000">+priority</text>
<text text-anchor="middle" x="831.5" y="-299" font-family="Helvetica,sans-Serif" font-size="10.00" fill="#000000">+cruID</text>
<text text-anchor="middle" x="831.5" y="-288" font-family="Helvetica,sans-Serif" font-size="10.00" fill="#000000">+headerSize</text>
<text text-anchor="middle" x="831.5" y="-277" font-family="Helvetica,sans-Serif" font-size="10.00" fill="#000000">...</text>
</g>
<!-- Node9 -->
<g id="node9" class="node">
<title>Node9</title>
<polygon fill="none" stroke="#bfbfbf" points="865,-413.5 865,-470.5 978,-470.5 978,-413.5 865,-413.5"/>
<text text-anchor="middle" x="921.5" y="-458.5" font-family="Helvetica,sans-Serif" font-size="10.00" fill="#000000">anonymous:+@122</text>
<polyline fill="none" stroke="#bfbfbf" points="865,-451.5 978,-451.5 "/>
<text text-anchor="middle" x="921.5" y="-439.5" font-family="Helvetica,sans-Serif" font-size="10.00" fill="#000000"> </text>
<polyline fill="none" stroke="#bfbfbf" points="865,-432.5 978,-432.5 "/>
<text text-anchor="middle" x="921.5" y="-420.5" font-family="Helvetica,sans-Serif" font-size="10.00" fill="#000000"> </text>
</g>
<!-- Node9&#45;&gt;Node1 -->
<g id="edge8" class="edge">
<title>Node9&#45;&gt;Node1</title>
<path fill="none" stroke="#404040" d="M919.397,-413.1948C915.3538,-376.8835 903.5918,-314.345 869.5,-274 819.2913,-214.5818 738.9141,-176.7394 675.657,-154.5093"/>
<polygon fill="none" stroke="#404040" points="675.4092,-154.4245 668.4372,-156.2659 664.0559,-150.5384 671.0279,-148.697 675.4092,-154.4245"/>
<text text-anchor="middle" x="936.5" y="-332" font-family="Helvetica,sans-Serif" font-size="10.00" fill="#000000"> +@122</text>
</g>
<!-- Node10 -->
<g id="node10" class="node">
<title>Node10</title>
<polygon fill="none" stroke="#bfbfbf" points="996,-413.5 996,-470.5 1109,-470.5 1109,-413.5 996,-413.5"/>
<text text-anchor="middle" x="1052.5" y="-458.5" font-family="Helvetica,sans-Serif" font-size="10.00" fill="#000000">anonymous:+@114</text>
<polyline fill="none" stroke="#bfbfbf" points="996,-451.5 1109,-451.5 "/>
<text text-anchor="middle" x="1052.5" y="-439.5" font-family="Helvetica,sans-Serif" font-size="10.00" fill="#000000"> </text>
<polyline fill="none" stroke="#bfbfbf" points="996,-432.5 1109,-432.5 "/>
<text text-anchor="middle" x="1052.5" y="-420.5" font-family="Helvetica,sans-Serif" font-size="10.00" fill="#000000"> </text>
</g>
<!-- Node10&#45;&gt;Node1 -->
<g id="edge9" class="edge">
<title>Node10&#45;&gt;Node1</title>
<path fill="none" stroke="#404040" d="M1043.7481,-413.3713C1031.0648,-376.3738 1004.1904,-312.1884 960.5,-274 879.0144,-202.7761 759.0445,-164.5201 675.7879,-145.2757"/>
<polygon fill="none" stroke="#404040" points="675.7424,-145.2656 669.0101,-147.8495 664.0356,-142.6288 670.7679,-140.045 675.7424,-145.2656"/>
<text text-anchor="middle" x="1055.5" y="-332" font-family="Helvetica,sans-Serif" font-size="10.00" fill="#000000"> +@114</text>
</g>
</g>
</svg>
        <g id="navigator" transform="translate(0 0)" fill="#404254">
                <rect fill="#f2f5e9" fill-opacity="0.5" stroke="#606060" stroke-width=".5" x="0" y="0" width="60" height="60"/>
                <use id="zoomplus" xlink:href="#zoomPlus" x="17" y="9" onmousedown="handleZoom(evt,'in')"/>
                <use id="zoomminus" xlink:href="#zoomMin" x="42" y="9" onmousedown="handleZoom(evt,'out')"/>
                <use id="reset" xlink:href="#resetDef" x="30" y="36" onmousedown="handleReset()"/>
                <g id="arrowUp" xlink:href="#dirArrow" transform="translate(30 24)" onmousedown="handlePan(0,-1)">
                  <use xlink:href="#rim" fill="#404040">
                        <set attributeName="fill" to="#808080" begin="arrowUp.mouseover" end="arrowUp.mouseout"/>
                  </use>
                  <path fill="none" stroke="white" stroke-width="1.5" d="M0,-3.0v7 M-2.5,-0.5L0,-3.0L2.5,-0.5"/>
                </g>
                <g id="arrowRight" xlink:href="#dirArrow" transform="rotate(90) translate(36 -43)" onmousedown="handlePan(1,0)">
                  <use xlink:href="#rim" fill="#404040">
                        <set attributeName="fill" to="#808080" begin="arrowRight.mouseover" end="arrowRight.mouseout"/>
                  </use>
                  <path fill="none" stroke="white" stroke-width="1.5" d="M0,-3.0v7 M-2.5,-0.5L0,-3.0L2.5,-0.5"/>
                </g>
                <g id="arrowDown" xlink:href="#dirArrow" transform="rotate(180) translate(-30 -48)" onmousedown="handlePan(0,1)">
                  <use xlink:href="#rim" fill="#404040">
                        <set attributeName="fill" to="#808080" begin="arrowDown.mouseover" end="arrowDown.mouseout"/>
                  </use>
                  <path fill="none" stroke="white" stroke-width="1.5" d="M0,-3.0v7 M-2.5,-0.5L0,-3.0L2.5,-0.5"/>
                </g>
                <g id="arrowLeft" xlink:href="#dirArrow" transform="rotate(270) translate(-36 17)" onmousedown="handlePan(-1,0)">
                  <use xlink:href="#rim" fill="#404040">
                        <set attributeName="fill" to="#808080" begin="arrowLeft.mouseover" end="arrowLeft.mouseout"/>
                  </use>
                  <path fill="none" stroke="white" stroke-width="1.5" d="M0,-3.0v7 M-2.5,-0.5L0,-3.0L2.5,-0.5"/>
                </g>
        </g>
        <svg viewBox="0 0 15 15" width="100%" height="30px" preserveAspectRatio="xMaxYMin meet">
         <g id="arrow_out" transform="scale(0.3 0.3)">
          <a xlink:href="structo2_1_1header_1_1RAWDataHeaderV5__coll__graph_org.svg" target="_base">
           <rect id="button" ry="5" rx="5" y="6" x="6" height="38" width="38"
                fill="#f2f5e9" fill-opacity="0.5" stroke="#606060" stroke-width="1.0"/>
           <path id="arrow"
             d="M 11.500037,31.436501 C 11.940474,20.09759 22.043105,11.32322 32.158766,21.979434 L 37.068811,17.246167 C 37.068811,17.246167 37.088388,32 37.088388,32 L 22.160133,31.978069 C 22.160133,31.978069 26.997745,27.140456 26.997745,27.140456 C 18.528582,18.264221 13.291696,25.230495 11.500037,31.436501 z"
             style="fill:#404040;"/>
          </a>
         </g>
        </svg>
</svg>
