<?xml version="1.0" encoding="UTF-8" standalone="no"?>
<!DOCTYPE svg PUBLIC "-//W3C//DTD SVG 1.1//EN"
 "http://www.w3.org/Graphics/SVG/1.1/DTD/svg11.dtd">
<!-- Generated by graphviz version 2.40.1 (20161225.0304)
 -->
<!-- Title: o2::zdc::RecEvent Pages: 1 -->
<!--zoomable 672 -->
<svg id="main" version="1.1" xmlns="http://www.w3.org/2000/svg" xmlns:xlink="http://www.w3.org/1999/xlink" xml:space="preserve" onload="init(evt)">
<style type="text/css"><![CDATA[
.edge:hover path { stroke: red; }
.edge:hover polygon { stroke: red; fill: red; }
]]></style>
<script type="text/javascript"><![CDATA[
var edges = document.getElementsByTagName('g');
if (edges && edges.length) {
  for (var i=0;i<edges.length;i++) {
    if (edges[i].id.substr(0,4)=='edge') {
      edges[i].setAttribute('class','edge');
    }
  }
}
]]></script>
        <defs>
                <circle id="rim" cx="0" cy="0" r="7"/>
                <circle id="rim2" cx="0" cy="0" r="3.5"/>
                <g id="zoomPlus">
                        <use xlink:href="#rim" fill="#404040">
                                <set attributeName="fill" to="#808080" begin="zoomplus.mouseover" end="zoomplus.mouseout"/>
                        </use>
                        <path d="M-4,0h8M0,-4v8" fill="none" stroke="white" stroke-width="1.5" pointer-events="none"/>
                </g>
                <g id="zoomMin">
                        <use xlink:href="#rim" fill="#404040">
                                <set attributeName="fill" to="#808080" begin="zoomminus.mouseover" end="zoomminus.mouseout"/>
                        </use>
                        <path d="M-4,0h8" fill="none" stroke="white" stroke-width="1.5" pointer-events="none"/>
                </g>
                <g id="dirArrow">
                        <path fill="none" stroke="white" stroke-width="1.5" d="M0,-3.0v7 M-2.5,-0.5L0,-3.0L2.5,-0.5"/>
                </g>
               <g id="resetDef">
                       <use xlink:href="#rim2" fill="#404040">
                               <set attributeName="fill" to="#808080" begin="reset.mouseover" end="reset.mouseout"/>
                       </use>
               </g>
        </defs>

<script type="text/javascript">
var viewWidth = 1029;
var viewHeight = 672;
var sectionId = 'dynsection-0';
</script>
<script xlink:href="../../svgpan.js"/>
<svg id="graph" class="graph">
<g id="viewport">
<title>o2::zdc::RecEvent</title>
<!-- Node1 -->
<g id="node1" class="node">
<title>Node1</title>
<polygon fill="#bfbfbf" stroke="#000000" points="454.843,-.5 454.843,-68.5 556.843,-68.5 556.843,-.5 454.843,-.5"/>
<text text-anchor="middle" x="505.843" y="-56.5" font-family="Helvetica,sans-Serif" font-size="10.00" fill="#000000">o2::zdc::RecEvent</text>
<polyline fill="none" stroke="#000000" points="454.843,-49.5 556.843,-49.5 "/>
<text text-anchor="middle" x="505.843" y="-37.5" font-family="Helvetica,sans-Serif" font-size="10.00" fill="#000000"> </text>
<polyline fill="none" stroke="#000000" points="454.843,-30.5 556.843,-30.5 "/>
<text text-anchor="start" x="462.843" y="-18.5" font-family="Helvetica,sans-Serif" font-size="10.00" fill="#000000">+ print()</text>
<text text-anchor="start" x="462.843" y="-7.5" font-family="Helvetica,sans-Serif" font-size="10.00" fill="#000000">+ ClassDefNV()</text>
</g>
<!-- Node2 -->
<g id="node2" class="node">
<title>Node2</title>
<g id="a_node2"><a xlink:href="../../d1/d21/structo2_1_1InteractionRecord.html" target="_top" xlink:title="{o2::InteractionRecord\n||+ InteractionRecord()\l+ InteractionRecord()\l+ InteractionRecord()\l+ InteractionRecord()\l+ clear()\l+ isDummy()\l+ setFromNS()\l+ bc2ns()\l+ operator==()\l+ operator!=()\l+ differenceInBC()\l+ toLong()\l+ setFromLong()\l+ operator\&gt;()\l+ operator\&gt;=()\l+ operator\&lt;()\l+ operator\&lt;=()\l+ operator&#45;&#45;()\l+ operator&#45;&#45;()\l+ operator++()\l+ operator++()\l+ operator+=()\l+ operator&#45;=()\l+ operator+=()\l+ operator&#45;=()\l+ operator+()\l+ operator&#45;()\l+ operator+()\l+ operator&#45;()\l+ print()\l+ asString()\l+ ClassDefNV()\l+ bc2ns()\l+ ns2bc()\l}">
<polygon fill="none" stroke="#000000" points="111.343,-127.5 111.343,-547.5 232.343,-547.5 232.343,-127.5 111.343,-127.5"/>
<text text-anchor="middle" x="171.843" y="-535.5" font-family="Helvetica,sans-Serif" font-size="10.00" fill="#000000">o2::InteractionRecord</text>
<polyline fill="none" stroke="#000000" points="111.343,-528.5 232.343,-528.5 "/>
<text text-anchor="middle" x="171.843" y="-516.5" font-family="Helvetica,sans-Serif" font-size="10.00" fill="#000000"> </text>
<polyline fill="none" stroke="#000000" points="111.343,-509.5 232.343,-509.5 "/>
<text text-anchor="start" x="119.343" y="-497.5" font-family="Helvetica,sans-Serif" font-size="10.00" fill="#000000">+ InteractionRecord()</text>
<text text-anchor="start" x="119.343" y="-486.5" font-family="Helvetica,sans-Serif" font-size="10.00" fill="#000000">+ InteractionRecord()</text>
<text text-anchor="start" x="119.343" y="-475.5" font-family="Helvetica,sans-Serif" font-size="10.00" fill="#000000">+ InteractionRecord()</text>
<text text-anchor="start" x="119.343" y="-464.5" font-family="Helvetica,sans-Serif" font-size="10.00" fill="#000000">+ InteractionRecord()</text>
<text text-anchor="start" x="119.343" y="-453.5" font-family="Helvetica,sans-Serif" font-size="10.00" fill="#000000">+ clear()</text>
<text text-anchor="start" x="119.343" y="-442.5" font-family="Helvetica,sans-Serif" font-size="10.00" fill="#000000">+ isDummy()</text>
<text text-anchor="start" x="119.343" y="-431.5" font-family="Helvetica,sans-Serif" font-size="10.00" fill="#000000">+ setFromNS()</text>
<text text-anchor="start" x="119.343" y="-420.5" font-family="Helvetica,sans-Serif" font-size="10.00" fill="#000000">+ bc2ns()</text>
<text text-anchor="start" x="119.343" y="-409.5" font-family="Helvetica,sans-Serif" font-size="10.00" fill="#000000">+ operator==()</text>
<text text-anchor="start" x="119.343" y="-398.5" font-family="Helvetica,sans-Serif" font-size="10.00" fill="#000000">+ operator!=()</text>
<text text-anchor="start" x="119.343" y="-387.5" font-family="Helvetica,sans-Serif" font-size="10.00" fill="#000000">+ differenceInBC()</text>
<text text-anchor="start" x="119.343" y="-376.5" font-family="Helvetica,sans-Serif" font-size="10.00" fill="#000000">+ toLong()</text>
<text text-anchor="start" x="119.343" y="-365.5" font-family="Helvetica,sans-Serif" font-size="10.00" fill="#000000">+ setFromLong()</text>
<text text-anchor="start" x="119.343" y="-354.5" font-family="Helvetica,sans-Serif" font-size="10.00" fill="#000000">+ operator&gt;()</text>
<text text-anchor="start" x="119.343" y="-343.5" font-family="Helvetica,sans-Serif" font-size="10.00" fill="#000000">+ operator&gt;=()</text>
<text text-anchor="start" x="119.343" y="-332.5" font-family="Helvetica,sans-Serif" font-size="10.00" fill="#000000">+ operator&lt;()</text>
<text text-anchor="start" x="119.343" y="-321.5" font-family="Helvetica,sans-Serif" font-size="10.00" fill="#000000">+ operator&lt;=()</text>
<text text-anchor="start" x="119.343" y="-310.5" font-family="Helvetica,sans-Serif" font-size="10.00" fill="#000000">+ operator&#45;&#45;()</text>
<text text-anchor="start" x="119.343" y="-299.5" font-family="Helvetica,sans-Serif" font-size="10.00" fill="#000000">+ operator&#45;&#45;()</text>
<text text-anchor="start" x="119.343" y="-288.5" font-family="Helvetica,sans-Serif" font-size="10.00" fill="#000000">+ operator++()</text>
<text text-anchor="start" x="119.343" y="-277.5" font-family="Helvetica,sans-Serif" font-size="10.00" fill="#000000">+ operator++()</text>
<text text-anchor="start" x="119.343" y="-266.5" font-family="Helvetica,sans-Serif" font-size="10.00" fill="#000000">+ operator+=()</text>
<text text-anchor="start" x="119.343" y="-255.5" font-family="Helvetica,sans-Serif" font-size="10.00" fill="#000000">+ operator&#45;=()</text>
<text text-anchor="start" x="119.343" y="-244.5" font-family="Helvetica,sans-Serif" font-size="10.00" fill="#000000">+ operator+=()</text>
<text text-anchor="start" x="119.343" y="-233.5" font-family="Helvetica,sans-Serif" font-size="10.00" fill="#000000">+ operator&#45;=()</text>
<text text-anchor="start" x="119.343" y="-222.5" font-family="Helvetica,sans-Serif" font-size="10.00" fill="#000000">+ operator+()</text>
<text text-anchor="start" x="119.343" y="-211.5" font-family="Helvetica,sans-Serif" font-size="10.00" fill="#000000">+ operator&#45;()</text>
<text text-anchor="start" x="119.343" y="-200.5" font-family="Helvetica,sans-Serif" font-size="10.00" fill="#000000">+ operator+()</text>
<text text-anchor="start" x="119.343" y="-189.5" font-family="Helvetica,sans-Serif" font-size="10.00" fill="#000000">+ operator&#45;()</text>
<text text-anchor="start" x="119.343" y="-178.5" font-family="Helvetica,sans-Serif" font-size="10.00" fill="#000000">+ print()</text>
<text text-anchor="start" x="119.343" y="-167.5" font-family="Helvetica,sans-Serif" font-size="10.00" fill="#000000">+ asString()</text>
<text text-anchor="start" x="119.343" y="-156.5" font-family="Helvetica,sans-Serif" font-size="10.00" fill="#000000">+ ClassDefNV()</text>
<text text-anchor="start" x="119.343" y="-145.5" font-family="Helvetica,sans-Serif" font-size="10.00" fill="#000000">+ bc2ns()</text>
<text text-anchor="start" x="119.343" y="-134.5" font-family="Helvetica,sans-Serif" font-size="10.00" fill="#000000">+ ns2bc()</text>
</a>
</g>
</g>
<!-- Node2&#45;&gt;Node1 -->
<g id="edge1" class="edge">
<title>Node2&#45;&gt;Node1</title>
<path fill="none" stroke="#404040" d="M232.7019,-135.986C235.3028,-132.8827 238.0149,-129.8825 240.843,-127 294.7994,-72.0041 383.1893,-49.6569 442.8989,-40.6077"/>
<polygon fill="none" stroke="#404040" points="442.9293,-40.6035 448.309,-35.8015 454.8107,-38.9205 449.431,-43.7225 442.9293,-40.6035"/>
<text text-anchor="middle" x="298.343" y="-95.5" font-family="Helvetica,sans-Serif" font-size="10.00" fill="#000000"> +ir</text>
</g>
<!-- Node3 -->
<g id="node3" class="node">
<title>Node3</title>
<polygon fill="none" stroke="#bfbfbf" points="356.843,-606.5 356.843,-663.5 406.843,-663.5 406.843,-606.5 356.843,-606.5"/>
<text text-anchor="middle" x="381.843" y="-651.5" font-family="Helvetica,sans-Serif" font-size="10.00" fill="#000000">double</text>
<polyline fill="none" stroke="#bfbfbf" points="356.843,-644.5 406.843,-644.5 "/>
<text text-anchor="middle" x="381.843" y="-632.5" font-family="Helvetica,sans-Serif" font-size="10.00" fill="#000000"> </text>
<polyline fill="none" stroke="#bfbfbf" points="356.843,-625.5 406.843,-625.5 "/>
<text text-anchor="middle" x="381.843" y="-613.5" font-family="Helvetica,sans-Serif" font-size="10.00" fill="#000000"> </text>
</g>
<!-- Node3&#45;&gt;Node2 -->
<g id="edge2" class="edge">
<title>Node3&#45;&gt;Node2</title>
<path fill="none" stroke="#404040" d="M363.4147,-606.2177C352.8924,-592.0402 338.4855,-575.9052 321.843,-566 293.1238,-548.9072 272.3745,-568.3528 242.2953,-547.6912"/>
<polygon fill="none" stroke="#404040" points="241.9829,-547.4393 234.8014,-546.7867 232.6417,-539.9065 239.8233,-540.5592 241.9829,-547.4393"/>
<text text-anchor="middle" x="384.843" y="-574.5" font-family="Helvetica,sans-Serif" font-size="10.00" fill="#000000"> +DummyTime</text>
</g>
<!-- Node4 -->
<g id="node4" class="node">
<title>Node4</title>
<g id="a_node4"><a xlink:href="../../d2/d5f/classunsigned_01int.html" target="_top" xlink:title="{unsigned int\n||}">
<polygon fill="none" stroke="#000000" points="106.343,-606.5 106.343,-663.5 183.343,-663.5 183.343,-606.5 106.343,-606.5"/>
<text text-anchor="middle" x="144.843" y="-651.5" font-family="Helvetica,sans-Serif" font-size="10.00" fill="#000000">unsigned int</text>
<polyline fill="none" stroke="#000000" points="106.343,-644.5 183.343,-644.5 "/>
<text text-anchor="middle" x="144.843" y="-632.5" font-family="Helvetica,sans-Serif" font-size="10.00" fill="#000000"> </text>
<polyline fill="none" stroke="#000000" points="106.343,-625.5 183.343,-625.5 "/>
<text text-anchor="middle" x="144.843" y="-613.5" font-family="Helvetica,sans-Serif" font-size="10.00" fill="#000000"> </text>
</a>
</g>
</g>
<!-- Node4&#45;&gt;Node2 -->
<g id="edge3" class="edge">
<title>Node4&#45;&gt;Node2</title>
<path fill="none" stroke="#404040" d="M147.4318,-606.4744C148.5795,-593.8286 150.0415,-577.7201 151.6778,-559.69"/>
<polygon fill="none" stroke="#404040" points="151.6921,-559.5321 148.2508,-553.1951 152.7768,-547.5812 156.218,-553.9182 151.6921,-559.5321"/>
<text text-anchor="middle" x="188.343" y="-574.5" font-family="Helvetica,sans-Serif" font-size="10.00" fill="#000000"> +DummyOrbit</text>
</g>
<!-- Node5 -->
<g id="node5" class="node">
<title>Node5</title>
<polygon fill="none" stroke="#bfbfbf" points="27.343,-606.5 27.343,-663.5 88.343,-663.5 88.343,-606.5 27.343,-606.5"/>
<text text-anchor="middle" x="57.843" y="-651.5" font-family="Helvetica,sans-Serif" font-size="10.00" fill="#000000">unsigned</text>
<polyline fill="none" stroke="#bfbfbf" points="27.343,-644.5 88.343,-644.5 "/>
<text text-anchor="middle" x="57.843" y="-632.5" font-family="Helvetica,sans-Serif" font-size="10.00" fill="#000000"> </text>
<polyline fill="none" stroke="#bfbfbf" points="27.343,-625.5 88.343,-625.5 "/>
<text text-anchor="middle" x="57.843" y="-613.5" font-family="Helvetica,sans-Serif" font-size="10.00" fill="#000000"> </text>
</g>
<!-- Node5&#45;&gt;Node1 -->
<g id="edge11" class="edge">
<title>Node5&#45;&gt;Node1</title>
<path fill="none" stroke="#404040" d="M47.4903,-606.4298C18.89,-521.9529 -51.549,-270.324 66.843,-127 113.9498,-69.973 332.8002,-46.6489 442.6266,-38.4081"/>
<polygon fill="none" stroke="#404040" points="442.8543,-38.3916 448.5485,-33.9671 454.8227,-37.5215 449.1286,-41.946 442.8543,-38.3916"/>
<text text-anchor="middle" x="84.343" y="-335" font-family="Helvetica,sans-Serif" font-size="10.00" fill="#000000"> +flags</text>
</g>
<!-- Node5&#45;&gt;Node2 -->
<g id="edge4" class="edge">
<title>Node5&#45;&gt;Node2</title>
<path fill="none" stroke="#404040" d="M71.4217,-606.2458C79.198,-589.4111 88.948,-567.6611 96.843,-548 100.2103,-539.6142 103.5858,-531.0117 106.9401,-522.3014"/>
<polygon fill="none" stroke="#404040" points="107.0522,-522.0077 105.457,-514.9752 111.3349,-510.7979 112.9302,-517.8303 107.0522,-522.0077"/>
<text text-anchor="middle" x="104.343" y="-580" font-family="Helvetica,sans-Serif" font-size="10.00" fill="#000000"> +bc</text>
<text text-anchor="middle" x="104.343" y="-569" font-family="Helvetica,sans-Serif" font-size="10.00" fill="#000000">+orbit</text>
</g>
<!-- Node6 -->
<g id="node6" class="node">
<title>Node6</title>
<polygon fill="none" stroke="#bfbfbf" points="201.343,-606.5 201.343,-663.5 338.343,-663.5 338.343,-606.5 201.343,-606.5"/>
<text text-anchor="middle" x="269.843" y="-651.5" font-family="Helvetica,sans-Serif" font-size="10.00" fill="#000000">static constexpr uint16_t</text>
<polyline fill="none" stroke="#bfbfbf" points="201.343,-644.5 338.343,-644.5 "/>
<text text-anchor="middle" x="269.843" y="-632.5" font-family="Helvetica,sans-Serif" font-size="10.00" fill="#000000"> </text>
<polyline fill="none" stroke="#bfbfbf" points="201.343,-625.5 338.343,-625.5 "/>
<text text-anchor="middle" x="269.843" y="-613.5" font-family="Helvetica,sans-Serif" font-size="10.00" fill="#000000"> </text>
</g>
<!-- Node6&#45;&gt;Node2 -->
<g id="edge5" class="edge">
<title>Node6&#45;&gt;Node2</title>
<path fill="none" stroke="#404040" d="M260.2722,-606.4075C254.6024,-589.4394 247.2891,-567.5005 240.843,-548 239.3247,-543.4071 237.7891,-538.7573 236.2415,-534.0674"/>
<polygon fill="none" stroke="#404040" points="236.1312,-533.7327 230.4533,-529.2873 232.3729,-522.3364 238.0508,-526.7818 236.1312,-533.7327"/>
<text text-anchor="middle" x="285.843" y="-574.5" font-family="Helvetica,sans-Serif" font-size="10.00" fill="#000000"> +DummyBC</text>
</g>
<!-- Node7 -->
<g id="node7" class="node">
<title>Node7</title>
<polygon fill="none" stroke="#bfbfbf" points="250.343,-309 250.343,-366 409.343,-366 409.343,-309 250.343,-309"/>
<text text-anchor="middle" x="329.843" y="-354" font-family="Helvetica,sans-Serif" font-size="10.00" fill="#000000">array&lt; float, NChannelsZN &gt;</text>
<polyline fill="none" stroke="#bfbfbf" points="250.343,-347 409.343,-347 "/>
<text text-anchor="middle" x="329.843" y="-335" font-family="Helvetica,sans-Serif" font-size="10.00" fill="#000000"> </text>
<polyline fill="none" stroke="#bfbfbf" points="250.343,-328 409.343,-328 "/>
<text text-anchor="middle" x="329.843" y="-316" font-family="Helvetica,sans-Serif" font-size="10.00" fill="#000000"> </text>
</g>
<!-- Node7&#45;&gt;Node1 -->
<g id="edge6" class="edge">
<title>Node7&#45;&gt;Node1</title>
<path fill="none" stroke="#404040" d="M336.4098,-308.9922C348.8799,-259.6159 379.7855,-156.7839 434.843,-87 438.1367,-82.8252 441.8415,-78.8179 445.7853,-75.0094"/>
<polygon fill="none" stroke="#404040" points="445.7919,-75.0035 447.5957,-68.0216 454.7342,-67.0013 452.9304,-73.9832 445.7919,-75.0035"/>
<text text-anchor="middle" x="468.343" y="-101" font-family="Helvetica,sans-Serif" font-size="10.00" fill="#000000"> +energyZNA</text>
<text text-anchor="middle" x="468.343" y="-90" font-family="Helvetica,sans-Serif" font-size="10.00" fill="#000000">+energyZNC</text>
</g>
<!-- Node8 -->
<g id="node8" class="node">
<title>Node8</title>
<polygon fill="none" stroke="#bfbfbf" points="426.843,-309 426.843,-366 584.843,-366 584.843,-309 426.843,-309"/>
<text text-anchor="middle" x="505.843" y="-354" font-family="Helvetica,sans-Serif" font-size="10.00" fill="#000000">array&lt; float, NChannelsZP &gt;</text>
<polyline fill="none" stroke="#bfbfbf" points="426.843,-347 584.843,-347 "/>
<text text-anchor="middle" x="505.843" y="-335" font-family="Helvetica,sans-Serif" font-size="10.00" fill="#000000"> </text>
<polyline fill="none" stroke="#bfbfbf" points="426.843,-328 584.843,-328 "/>
<text text-anchor="middle" x="505.843" y="-316" font-family="Helvetica,sans-Serif" font-size="10.00" fill="#000000"> </text>
</g>
<!-- Node8&#45;&gt;Node1 -->
<g id="edge7" class="edge">
<title>Node8&#45;&gt;Node1</title>
<path fill="none" stroke="#404040" d="M505.843,-308.9945C505.843,-256.5119 505.843,-144.1707 505.843,-80.6792"/>
<polygon fill="none" stroke="#404040" points="505.8431,-80.6644 501.843,-74.6644 505.843,-68.6644 509.843,-74.6643 505.8431,-80.6644"/>
<text text-anchor="middle" x="537.843" y="-101" font-family="Helvetica,sans-Serif" font-size="10.00" fill="#000000"> +energyZPA</text>
<text text-anchor="middle" x="537.843" y="-90" font-family="Helvetica,sans-Serif" font-size="10.00" fill="#000000">+energyZPC</text>
</g>
<!-- Node9 -->
<g id="node9" class="node">
<title>Node9</title>
<polygon fill="none" stroke="#bfbfbf" points="603.343,-309 603.343,-366 702.343,-366 702.343,-309 603.343,-309"/>
<text text-anchor="middle" x="652.843" y="-354" font-family="Helvetica,sans-Serif" font-size="10.00" fill="#000000">Point2D&lt; float &gt;</text>
<polyline fill="none" stroke="#bfbfbf" points="603.343,-347 702.343,-347 "/>
<text text-anchor="middle" x="652.843" y="-335" font-family="Helvetica,sans-Serif" font-size="10.00" fill="#000000"> </text>
<polyline fill="none" stroke="#bfbfbf" points="603.343,-328 702.343,-328 "/>
<text text-anchor="middle" x="652.843" y="-316" font-family="Helvetica,sans-Serif" font-size="10.00" fill="#000000"> </text>
</g>
<!-- Node9&#45;&gt;Node1 -->
<g id="edge8" class="edge">
<title>Node9&#45;&gt;Node1</title>
<path fill="none" stroke="#404040" d="M650.6943,-308.6822C645.566,-258.3739 628.6029,-153.5535 573.843,-87 571.0238,-83.5736 567.9415,-80.2346 564.6953,-77.0089"/>
<polygon fill="none" stroke="#404040" points="564.5889,-76.9103 557.4692,-75.7652 555.7879,-68.7528 562.9075,-69.8979 564.5889,-76.9103"/>
<text text-anchor="middle" x="622.343" y="-101" font-family="Helvetica,sans-Serif" font-size="10.00" fill="#000000"> +centroidZNA</text>
<text text-anchor="middle" x="622.343" y="-90" font-family="Helvetica,sans-Serif" font-size="10.00" fill="#000000">+centroidZNC</text>
</g>
<!-- Node10 -->
<g id="node10" class="node">
<title>Node10</title>
<polygon fill="none" stroke="#bfbfbf" points="720.843,-303.5 720.843,-371.5 836.843,-371.5 836.843,-303.5 720.843,-303.5"/>
<text text-anchor="start" x="728.843" y="-359.5" font-family="Helvetica,sans-Serif" font-size="10.00" fill="#000000">array&lt; TDCChannel,</text>
<text text-anchor="middle" x="778.843" y="-348.5" font-family="Helvetica,sans-Serif" font-size="10.00" fill="#000000"> NTDCChannels &gt;</text>
<polyline fill="none" stroke="#bfbfbf" points="720.843,-341.5 836.843,-341.5 "/>
<text text-anchor="middle" x="778.843" y="-329.5" font-family="Helvetica,sans-Serif" font-size="10.00" fill="#000000"> </text>
<polyline fill="none" stroke="#bfbfbf" points="720.843,-322.5 836.843,-322.5 "/>
<text text-anchor="middle" x="778.843" y="-310.5" font-family="Helvetica,sans-Serif" font-size="10.00" fill="#000000"> </text>
</g>
<!-- Node10&#45;&gt;Node1 -->
<g id="edge9" class="edge">
<title>Node10&#45;&gt;Node1</title>
<path fill="none" stroke="#404040" d="M774.1103,-303.1496C766.7331,-259.1525 749.2585,-182.0242 711.843,-127 679.5307,-79.4808 616.6861,-56.0529 568.8661,-44.7068"/>
<polygon fill="none" stroke="#404040" points="568.7725,-44.6861 562.046,-47.2849 557.06,-42.0753 563.7865,-39.4765 568.7725,-44.6861"/>
<text text-anchor="middle" x="731.843" y="-95.5" font-family="Helvetica,sans-Serif" font-size="10.00" fill="#000000"> +tdcChannels</text>
</g>
<!-- Node11 -->
<g id="node11" class="node">
<title>Node11</title>
<polygon fill="none" stroke="#bfbfbf" points="854.843,-309 854.843,-366 1020.843,-366 1020.843,-309 854.843,-309"/>
<text text-anchor="middle" x="937.843" y="-354" font-family="Helvetica,sans-Serif" font-size="10.00" fill="#000000">array&lt; float, NChannelsZEM &gt;</text>
<polyline fill="none" stroke="#bfbfbf" points="854.843,-347 1020.843,-347 "/>
<text text-anchor="middle" x="937.843" y="-335" font-family="Helvetica,sans-Serif" font-size="10.00" fill="#000000"> </text>
<polyline fill="none" stroke="#bfbfbf" points="854.843,-328 1020.843,-328 "/>
<text text-anchor="middle" x="937.843" y="-316" font-family="Helvetica,sans-Serif" font-size="10.00" fill="#000000"> </text>
</g>
<!-- Node11&#45;&gt;Node1 -->
<g id="edge10" class="edge">
<title>Node11&#45;&gt;Node1</title>
<path fill="none" stroke="#404040" d="M931.6319,-308.6561C920.8929,-264.7407 895.1174,-180.5716 845.843,-127 820.5336,-99.4834 807.0236,-99.6512 771.843,-87 704.7196,-62.8619 623.856,-48.9047 569.0395,-41.5333"/>
<polygon fill="none" stroke="#404040" points="568.9656,-41.5237 562.4988,-44.7144 557.0663,-39.9722 563.5332,-36.7815 568.9656,-41.5237"/>
<text text-anchor="middle" x="861.343" y="-95.5" font-family="Helvetica,sans-Serif" font-size="10.00" fill="#000000"> +eneregyZEM</text>
</g>
</g>
</svg>
        <g id="navigator" transform="translate(0 0)" fill="#404254">
                <rect fill="#f2f5e9" fill-opacity="0.5" stroke="#606060" stroke-width=".5" x="0" y="0" width="60" height="60"/>
                <use id="zoomplus" xlink:href="#zoomPlus" x="17" y="9" onmousedown="handleZoom(evt,'in')"/>
                <use id="zoomminus" xlink:href="#zoomMin" x="42" y="9" onmousedown="handleZoom(evt,'out')"/>
                <use id="reset" xlink:href="#resetDef" x="30" y="36" onmousedown="handleReset()"/>
                <g id="arrowUp" xlink:href="#dirArrow" transform="translate(30 24)" onmousedown="handlePan(0,-1)">
                  <use xlink:href="#rim" fill="#404040">
                        <set attributeName="fill" to="#808080" begin="arrowUp.mouseover" end="arrowUp.mouseout"/>
                  </use>
                  <path fill="none" stroke="white" stroke-width="1.5" d="M0,-3.0v7 M-2.5,-0.5L0,-3.0L2.5,-0.5"/>
                </g>
                <g id="arrowRight" xlink:href="#dirArrow" transform="rotate(90) translate(36 -43)" onmousedown="handlePan(1,0)">
                  <use xlink:href="#rim" fill="#404040">
                        <set attributeName="fill" to="#808080" begin="arrowRight.mouseover" end="arrowRight.mouseout"/>
                  </use>
                  <path fill="none" stroke="white" stroke-width="1.5" d="M0,-3.0v7 M-2.5,-0.5L0,-3.0L2.5,-0.5"/>
                </g>
                <g id="arrowDown" xlink:href="#dirArrow" transform="rotate(180) translate(-30 -48)" onmousedown="handlePan(0,1)">
                  <use xlink:href="#rim" fill="#404040">
                        <set attributeName="fill" to="#808080" begin="arrowDown.mouseover" end="arrowDown.mouseout"/>
                  </use>
                  <path fill="none" stroke="white" stroke-width="1.5" d="M0,-3.0v7 M-2.5,-0.5L0,-3.0L2.5,-0.5"/>
                </g>
                <g id="arrowLeft" xlink:href="#dirArrow" transform="rotate(270) translate(-36 17)" onmousedown="handlePan(-1,0)">
                  <use xlink:href="#rim" fill="#404040">
                        <set attributeName="fill" to="#808080" begin="arrowLeft.mouseover" end="arrowLeft.mouseout"/>
                  </use>
                  <path fill="none" stroke="white" stroke-width="1.5" d="M0,-3.0v7 M-2.5,-0.5L0,-3.0L2.5,-0.5"/>
                </g>
        </g>
        <svg viewBox="0 0 15 15" width="100%" height="30px" preserveAspectRatio="xMaxYMin meet">
         <g id="arrow_out" transform="scale(0.3 0.3)">
          <a xlink:href="structo2_1_1zdc_1_1RecEvent__coll__graph_org.svg" target="_base">
           <rect id="button" ry="5" rx="5" y="6" x="6" height="38" width="38"
                fill="#f2f5e9" fill-opacity="0.5" stroke="#606060" stroke-width="1.0"/>
           <path id="arrow"
             d="M 11.500037,31.436501 C 11.940474,20.09759 22.043105,11.32322 32.158766,21.979434 L 37.068811,17.246167 C 37.068811,17.246167 37.088388,32 37.088388,32 L 22.160133,31.978069 C 22.160133,31.978069 26.997745,27.140456 26.997745,27.140456 C 18.528582,18.264221 13.291696,25.230495 11.500037,31.436501 z"
             style="fill:#404040;"/>
          </a>
         </g>
        </svg>
</svg>
