<?xml version="1.0" encoding="UTF-8" standalone="no"?>
<!DOCTYPE svg PUBLIC "-//W3C//DTD SVG 1.1//EN"
 "http://www.w3.org/Graphics/SVG/1.1/DTD/svg11.dtd">
<!-- Generated by graphviz version 2.40.1 (20161225.0304)
 -->
<!-- Title: o2::mch::Mapping::MpDE Pages: 1 -->
<svg width="253pt" height="182pt"
 viewBox="0.00 0.00 253.00 182.00" xmlns="http://www.w3.org/2000/svg" xmlns:xlink="http://www.w3.org/1999/xlink">
<g id="graph0" class="graph" transform="scale(1 1) rotate(0) translate(4 178)">
<title>o2::mch::Mapping::MpDE</title>
<!-- Node1 -->
<g id="node1" class="node">
<title>Node1</title>
<polygon fill="#bfbfbf" stroke="#000000" points="83,-.5 83,-57.5 220,-57.5 220,-.5 83,-.5"/>
<text text-anchor="middle" x="151.5" y="-45.5" font-family="Helvetica,sans-Serif" font-size="10.00" fill="#000000">o2::mch::Mapping::MpDE</text>
<polyline fill="none" stroke="#000000" points="83,-38.5 220,-38.5 "/>
<text text-anchor="middle" x="151.5" y="-26.5" font-family="Helvetica,sans-Serif" font-size="10.00" fill="#000000"> </text>
<polyline fill="none" stroke="#000000" points="83,-19.5 220,-19.5 "/>
<text text-anchor="middle" x="151.5" y="-7.5" font-family="Helvetica,sans-Serif" font-size="10.00" fill="#000000"> </text>
</g>
<!-- Node2 -->
<g id="node2" class="node">
<title>Node2</title>
<polygon fill="none" stroke="#bfbfbf" points="0,-105.5 0,-173.5 119,-173.5 119,-105.5 0,-105.5"/>
<text text-anchor="start" x="8" y="-161.5" font-family="Helvetica,sans-Serif" font-size="10.00" fill="#000000">unique_ptr&lt; o2::mch</text>
<text text-anchor="middle" x="59.5" y="-150.5" font-family="Helvetica,sans-Serif" font-size="10.00" fill="#000000">::Mapping::MpPad[]&gt;</text>
<polyline fill="none" stroke="#bfbfbf" points="0,-143.5 119,-143.5 "/>
<text text-anchor="middle" x="59.5" y="-131.5" font-family="Helvetica,sans-Serif" font-size="10.00" fill="#000000"> </text>
<polyline fill="none" stroke="#bfbfbf" points="0,-124.5 119,-124.5 "/>
<text text-anchor="middle" x="59.5" y="-112.5" font-family="Helvetica,sans-Serif" font-size="10.00" fill="#000000"> </text>
</g>
<!-- Node2&#45;&gt;Node1 -->
<g id="edge1" class="edge">
<title>Node2&#45;&gt;Node1</title>
<path fill="none" stroke="#404040" d="M87.8537,-105.4447C98.0352,-93.2159 109.5761,-79.3543 120.008,-66.8246"/>
<polygon fill="none" stroke="#404040" points="120.0501,-66.774 120.8152,-59.6036 127.7283,-57.5519 126.9632,-64.7223 120.0501,-66.774"/>
<text text-anchor="middle" x="128" y="-79" font-family="Helvetica,sans-Serif" font-size="10.00" fill="#000000"> +pads</text>
</g>
<!-- Node3 -->
<g id="node3" class="node">
<title>Node3</title>
<polygon fill="none" stroke="#bfbfbf" points="137,-111 137,-168 166,-168 166,-111 137,-111"/>
<text text-anchor="middle" x="151.5" y="-156" font-family="Helvetica,sans-Serif" font-size="10.00" fill="#000000">int</text>
<polyline fill="none" stroke="#bfbfbf" points="137,-149 166,-149 "/>
<text text-anchor="middle" x="151.5" y="-137" font-family="Helvetica,sans-Serif" font-size="10.00" fill="#000000"> </text>
<polyline fill="none" stroke="#bfbfbf" points="137,-130 166,-130 "/>
<text text-anchor="middle" x="151.5" y="-118" font-family="Helvetica,sans-Serif" font-size="10.00" fill="#000000"> </text>
</g>
<!-- Node3&#45;&gt;Node1 -->
<g id="edge2" class="edge">
<title>Node3&#45;&gt;Node1</title>
<path fill="none" stroke="#404040" d="M151.5,-110.7559C151.5,-98.2224 151.5,-83.3039 151.5,-69.6631"/>
<polygon fill="none" stroke="#404040" points="151.5001,-69.6002 147.5,-63.6002 151.5,-57.6002 155.5,-63.6002 151.5001,-69.6002"/>
<text text-anchor="middle" x="165" y="-79" font-family="Helvetica,sans-Serif" font-size="10.00" fill="#000000"> +uid</text>
</g>
<!-- Node4 -->
<g id="node4" class="node">
<title>Node4</title>
<polygon fill="none" stroke="#bfbfbf" points="184,-111 184,-168 245,-168 245,-111 184,-111"/>
<text text-anchor="middle" x="214.5" y="-156" font-family="Helvetica,sans-Serif" font-size="10.00" fill="#000000">unsigned</text>
<polyline fill="none" stroke="#bfbfbf" points="184,-149 245,-149 "/>
<text text-anchor="middle" x="214.5" y="-137" font-family="Helvetica,sans-Serif" font-size="10.00" fill="#000000"> </text>
<polyline fill="none" stroke="#bfbfbf" points="184,-130 245,-130 "/>
<text text-anchor="middle" x="214.5" y="-118" font-family="Helvetica,sans-Serif" font-size="10.00" fill="#000000"> </text>
</g>
<!-- Node4&#45;&gt;Node1 -->
<g id="edge3" class="edge">
<title>Node4&#45;&gt;Node1</title>
<path fill="none" stroke="#404040" d="M201.0142,-110.9922C195.5467,-99.915 188.9961,-87.217 182.5,-76 180.9783,-73.3725 179.3695,-70.6907 177.7172,-68.0064"/>
<polygon fill="none" stroke="#404040" points="177.642,-67.8877 171.052,-64.9598 171.2201,-57.7506 177.81,-60.6785 177.642,-67.8877"/>
<text text-anchor="middle" x="207.5" y="-79" font-family="Helvetica,sans-Serif" font-size="10.00" fill="#000000"> +nPads</text>
</g>
</g>
</svg>
