<?xml version="1.0" encoding="UTF-8" standalone="no"?>
<!DOCTYPE svg PUBLIC "-//W3C//DTD SVG 1.1//EN"
 "http://www.w3.org/Graphics/SVG/1.1/DTD/svg11.dtd">
<!-- Generated by graphviz version 2.40.1 (20161225.0304)
 -->
<!-- Title: Union_t Pages: 1 -->
<svg width="1651pt" height="171pt"
 viewBox="0.00 0.00 1651.00 171.00" xmlns="http://www.w3.org/2000/svg" xmlns:xlink="http://www.w3.org/1999/xlink">
<g id="graph0" class="graph" transform="scale(1 1) rotate(0) translate(4 167)">
<title>Union_t</title>
<!-- Node1 -->
<g id="node1" class="node">
<title>Node1</title>
<polygon fill="#bfbfbf" stroke="#000000" points="785.5,-.5 785.5,-57.5 839.5,-57.5 839.5,-.5 785.5,-.5"/>
<text text-anchor="middle" x="812.5" y="-45.5" font-family="Helvetica,sans-Serif" font-size="10.00" fill="#000000">Union_t</text>
<polyline fill="none" stroke="#000000" points="785.5,-38.5 839.5,-38.5 "/>
<text text-anchor="middle" x="812.5" y="-26.5" font-family="Helvetica,sans-Serif" font-size="10.00" fill="#000000"> </text>
<polyline fill="none" stroke="#000000" points="785.5,-19.5 839.5,-19.5 "/>
<text text-anchor="middle" x="812.5" y="-7.5" font-family="Helvetica,sans-Serif" font-size="10.00" fill="#000000"> </text>
</g>
<!-- Node2 -->
<g id="node2" class="node">
<title>Node2</title>
<polygon fill="none" stroke="#bfbfbf" points="0,-105.5 0,-162.5 89,-162.5 89,-105.5 0,-105.5"/>
<text text-anchor="middle" x="44.5" y="-150.5" font-family="Helvetica,sans-Serif" font-size="10.00" fill="#000000">DRMHeadW4_t</text>
<polyline fill="none" stroke="#bfbfbf" points="0,-143.5 89,-143.5 "/>
<text text-anchor="middle" x="44.5" y="-131.5" font-family="Helvetica,sans-Serif" font-size="10.00" fill="#000000"> </text>
<polyline fill="none" stroke="#bfbfbf" points="0,-124.5 89,-124.5 "/>
<text text-anchor="middle" x="44.5" y="-112.5" font-family="Helvetica,sans-Serif" font-size="10.00" fill="#000000"> </text>
</g>
<!-- Node2&#45;&gt;Node1 -->
<g id="edge1" class="edge">
<title>Node2&#45;&gt;Node1</title>
<path fill="none" stroke="#404040" d="M86.3153,-105.4181C104.8541,-94.229 127.4339,-82.5301 149.5,-76 267.4551,-41.0933 648.799,-31.7298 773.0001,-29.5747"/>
<polygon fill="none" stroke="#404040" points="773.1987,-29.5715 779.1315,-25.4724 785.1971,-29.3722 779.2643,-33.4713 773.1987,-29.5715"/>
<text text-anchor="middle" x="186" y="-79" font-family="Helvetica,sans-Serif" font-size="10.00" fill="#000000"> +drmHeadW4</text>
</g>
<!-- Node3 -->
<g id="node3" class="node">
<title>Node3</title>
<polygon fill="none" stroke="#bfbfbf" points="107,-105.5 107,-162.5 196,-162.5 196,-105.5 107,-105.5"/>
<text text-anchor="middle" x="151.5" y="-150.5" font-family="Helvetica,sans-Serif" font-size="10.00" fill="#000000">DRMHeadW3_t</text>
<polyline fill="none" stroke="#bfbfbf" points="107,-143.5 196,-143.5 "/>
<text text-anchor="middle" x="151.5" y="-131.5" font-family="Helvetica,sans-Serif" font-size="10.00" fill="#000000"> </text>
<polyline fill="none" stroke="#bfbfbf" points="107,-124.5 196,-124.5 "/>
<text text-anchor="middle" x="151.5" y="-112.5" font-family="Helvetica,sans-Serif" font-size="10.00" fill="#000000"> </text>
</g>
<!-- Node3&#45;&gt;Node1 -->
<g id="edge2" class="edge">
<title>Node3&#45;&gt;Node1</title>
<path fill="none" stroke="#404040" d="M192.738,-105.3998C210.8723,-94.2796 232.9235,-82.6375 254.5,-76 351.7026,-46.0977 662.7152,-33.6795 773.1433,-30.1393"/>
<polygon fill="none" stroke="#404040" points="773.2969,-30.1346 779.1692,-25.9493 785.2911,-29.76 779.4189,-33.9454 773.2969,-30.1346"/>
<text text-anchor="middle" x="291" y="-79" font-family="Helvetica,sans-Serif" font-size="10.00" fill="#000000"> +drmHeadW3</text>
</g>
<!-- Node4 -->
<g id="node4" class="node">
<title>Node4</title>
<polygon fill="none" stroke="#bfbfbf" points="214.5,-105.5 214.5,-162.5 318.5,-162.5 318.5,-105.5 214.5,-105.5"/>
<text text-anchor="middle" x="266.5" y="-150.5" font-family="Helvetica,sans-Serif" font-size="10.00" fill="#000000">TRMChainTrailer_t</text>
<polyline fill="none" stroke="#bfbfbf" points="214.5,-143.5 318.5,-143.5 "/>
<text text-anchor="middle" x="266.5" y="-131.5" font-family="Helvetica,sans-Serif" font-size="10.00" fill="#000000"> </text>
<polyline fill="none" stroke="#bfbfbf" points="214.5,-124.5 318.5,-124.5 "/>
<text text-anchor="middle" x="266.5" y="-112.5" font-family="Helvetica,sans-Serif" font-size="10.00" fill="#000000"> </text>
</g>
<!-- Node4&#45;&gt;Node1 -->
<g id="edge3" class="edge">
<title>Node4&#45;&gt;Node1</title>
<path fill="none" stroke="#404040" d="M302.0887,-105.2223C317.6003,-94.2144 336.5482,-82.7044 355.5,-76 432.2289,-48.8563 677.0658,-35.1204 773.2093,-30.6657"/>
<polygon fill="none" stroke="#404040" points="773.2436,-30.6643 779.0566,-26.397 785.2314,-30.1215 779.4184,-34.3888 773.2436,-30.6643"/>
<text text-anchor="middle" x="399" y="-79" font-family="Helvetica,sans-Serif" font-size="10.00" fill="#000000"> +trmChainTrailer</text>
</g>
<!-- Node5 -->
<g id="node5" class="node">
<title>Node5</title>
<polygon fill="none" stroke="#bfbfbf" points="337,-105.5 337,-162.5 426,-162.5 426,-105.5 337,-105.5"/>
<text text-anchor="middle" x="381.5" y="-150.5" font-family="Helvetica,sans-Serif" font-size="10.00" fill="#000000">DRMHeadW5_t</text>
<polyline fill="none" stroke="#bfbfbf" points="337,-143.5 426,-143.5 "/>
<text text-anchor="middle" x="381.5" y="-131.5" font-family="Helvetica,sans-Serif" font-size="10.00" fill="#000000"> </text>
<polyline fill="none" stroke="#bfbfbf" points="337,-124.5 426,-124.5 "/>
<text text-anchor="middle" x="381.5" y="-112.5" font-family="Helvetica,sans-Serif" font-size="10.00" fill="#000000"> </text>
</g>
<!-- Node5&#45;&gt;Node1 -->
<g id="edge4" class="edge">
<title>Node5&#45;&gt;Node1</title>
<path fill="none" stroke="#404040" d="M417.6327,-105.2391C433.082,-94.3725 451.838,-82.962 470.5,-76 525.3539,-55.5364 695.6759,-38.9328 773.2714,-32.2163"/>
<polygon fill="none" stroke="#404040" points="773.3761,-32.2075 779.0144,-27.712 785.3327,-31.1876 779.6943,-35.6831 773.3761,-32.2075"/>
<text text-anchor="middle" x="507" y="-79" font-family="Helvetica,sans-Serif" font-size="10.00" fill="#000000"> +drmHeadW5</text>
</g>
<!-- Node6 -->
<g id="node6" class="node">
<title>Node6</title>
<polygon fill="none" stroke="#bfbfbf" points="444.5,-105.5 444.5,-162.5 554.5,-162.5 554.5,-105.5 444.5,-105.5"/>
<text text-anchor="middle" x="499.5" y="-150.5" font-family="Helvetica,sans-Serif" font-size="10.00" fill="#000000">TRMChainHeader_t</text>
<polyline fill="none" stroke="#bfbfbf" points="444.5,-143.5 554.5,-143.5 "/>
<text text-anchor="middle" x="499.5" y="-131.5" font-family="Helvetica,sans-Serif" font-size="10.00" fill="#000000"> </text>
<polyline fill="none" stroke="#bfbfbf" points="444.5,-124.5 554.5,-124.5 "/>
<text text-anchor="middle" x="499.5" y="-112.5" font-family="Helvetica,sans-Serif" font-size="10.00" fill="#000000"> </text>
</g>
<!-- Node6&#45;&gt;Node1 -->
<g id="edge5" class="edge">
<title>Node6&#45;&gt;Node1</title>
<path fill="none" stroke="#404040" d="M524.8647,-105.4989C535.991,-94.6721 549.8488,-83.221 564.5,-76 600.6464,-58.1848 712.8585,-41.7089 773.184,-33.8431"/>
<polygon fill="none" stroke="#404040" points="773.3208,-33.8256 778.7627,-29.0943 785.2232,-32.2979 779.7812,-37.0292 773.3208,-33.8256"/>
<text text-anchor="middle" x="610.5" y="-79" font-family="Helvetica,sans-Serif" font-size="10.00" fill="#000000"> +trmChainHeader</text>
</g>
<!-- Node7 -->
<g id="node7" class="node">
<title>Node7</title>
<polygon fill="none" stroke="#bfbfbf" points="572.5,-105.5 572.5,-162.5 640.5,-162.5 640.5,-105.5 572.5,-105.5"/>
<text text-anchor="middle" x="606.5" y="-150.5" font-family="Helvetica,sans-Serif" font-size="10.00" fill="#000000">TOFOrbit_t</text>
<polyline fill="none" stroke="#bfbfbf" points="572.5,-143.5 640.5,-143.5 "/>
<text text-anchor="middle" x="606.5" y="-131.5" font-family="Helvetica,sans-Serif" font-size="10.00" fill="#000000"> </text>
<polyline fill="none" stroke="#bfbfbf" points="572.5,-124.5 640.5,-124.5 "/>
<text text-anchor="middle" x="606.5" y="-112.5" font-family="Helvetica,sans-Serif" font-size="10.00" fill="#000000"> </text>
</g>
<!-- Node7&#45;&gt;Node1 -->
<g id="edge6" class="edge">
<title>Node7&#45;&gt;Node1</title>
<path fill="none" stroke="#404040" d="M637.4314,-105.2255C649.5757,-94.9972 664.0528,-84.0382 678.5,-76 708.6717,-59.213 745.9359,-46.7269 773.5023,-38.86"/>
<polygon fill="none" stroke="#404040" points="773.8571,-38.7622 778.5776,-33.3109 785.4252,-35.5716 780.7047,-41.0229 773.8571,-38.7622"/>
<text text-anchor="middle" x="703" y="-79" font-family="Helvetica,sans-Serif" font-size="10.00" fill="#000000"> +tofOrbit</text>
</g>
<!-- Node8 -->
<g id="node8" class="node">
<title>Node8</title>
<polygon fill="none" stroke="#bfbfbf" points="658.5,-105.5 658.5,-162.5 742.5,-162.5 742.5,-105.5 658.5,-105.5"/>
<text text-anchor="middle" x="700.5" y="-150.5" font-family="Helvetica,sans-Serif" font-size="10.00" fill="#000000">TRMDataHit_t</text>
<polyline fill="none" stroke="#bfbfbf" points="658.5,-143.5 742.5,-143.5 "/>
<text text-anchor="middle" x="700.5" y="-131.5" font-family="Helvetica,sans-Serif" font-size="10.00" fill="#000000"> </text>
<polyline fill="none" stroke="#bfbfbf" points="658.5,-124.5 742.5,-124.5 "/>
<text text-anchor="middle" x="700.5" y="-112.5" font-family="Helvetica,sans-Serif" font-size="10.00" fill="#000000"> </text>
</g>
<!-- Node8&#45;&gt;Node1 -->
<g id="edge7" class="edge">
<title>Node8&#45;&gt;Node1</title>
<path fill="none" stroke="#404040" d="M717.5577,-105.4965C724.2919,-95.528 732.5596,-84.671 741.5,-76 751.493,-66.3082 763.7417,-57.3867 775.2343,-49.9804"/>
<polygon fill="none" stroke="#404040" points="775.2891,-49.9465 778.2826,-43.386 785.4897,-43.626 782.4963,-50.1864 775.2891,-49.9465"/>
<text text-anchor="middle" x="775" y="-79" font-family="Helvetica,sans-Serif" font-size="10.00" fill="#000000"> +trmDataHit</text>
</g>
<!-- Node9 -->
<g id="node9" class="node">
<title>Node9</title>
<polygon fill="none" stroke="#bfbfbf" points="761,-105.5 761,-162.5 864,-162.5 864,-105.5 761,-105.5"/>
<text text-anchor="middle" x="812.5" y="-150.5" font-family="Helvetica,sans-Serif" font-size="10.00" fill="#000000">TOFDataHeader_t</text>
<polyline fill="none" stroke="#bfbfbf" points="761,-143.5 864,-143.5 "/>
<text text-anchor="middle" x="812.5" y="-131.5" font-family="Helvetica,sans-Serif" font-size="10.00" fill="#000000"> </text>
<polyline fill="none" stroke="#bfbfbf" points="761,-124.5 864,-124.5 "/>
<text text-anchor="middle" x="812.5" y="-112.5" font-family="Helvetica,sans-Serif" font-size="10.00" fill="#000000"> </text>
</g>
<!-- Node9&#45;&gt;Node1 -->
<g id="edge8" class="edge">
<title>Node9&#45;&gt;Node1</title>
<path fill="none" stroke="#404040" d="M812.5,-105.3083C812.5,-94.4281 812.5,-81.817 812.5,-70.0192"/>
<polygon fill="none" stroke="#404040" points="812.5001,-69.657 808.5,-63.6571 812.5,-57.657 816.5,-63.657 812.5001,-69.657"/>
<text text-anchor="middle" x="854.5" y="-79" font-family="Helvetica,sans-Serif" font-size="10.00" fill="#000000"> +tofDataHeader</text>
</g>
<!-- Node10 -->
<g id="node10" class="node">
<title>Node10</title>
<polygon fill="none" stroke="#bfbfbf" points="882,-105.5 882,-162.5 987,-162.5 987,-105.5 882,-105.5"/>
<text text-anchor="middle" x="934.5" y="-150.5" font-family="Helvetica,sans-Serif" font-size="10.00" fill="#000000">TRMDataHeader_t</text>
<polyline fill="none" stroke="#bfbfbf" points="882,-143.5 987,-143.5 "/>
<text text-anchor="middle" x="934.5" y="-131.5" font-family="Helvetica,sans-Serif" font-size="10.00" fill="#000000"> </text>
<polyline fill="none" stroke="#bfbfbf" points="882,-124.5 987,-124.5 "/>
<text text-anchor="middle" x="934.5" y="-112.5" font-family="Helvetica,sans-Serif" font-size="10.00" fill="#000000"> </text>
</g>
<!-- Node10&#45;&gt;Node1 -->
<g id="edge9" class="edge">
<title>Node10&#45;&gt;Node1</title>
<path fill="none" stroke="#404040" d="M921.7104,-105.2419C916.2249,-95.1332 909.0838,-84.2498 900.5,-76 886.2952,-62.3478 867.3395,-51.5485 850.6595,-43.7622"/>
<polygon fill="none" stroke="#404040" points="850.5367,-43.708 843.4316,-44.9398 839.5618,-38.8551 846.6669,-37.6232 850.5367,-43.708"/>
<text text-anchor="middle" x="953.5" y="-79" font-family="Helvetica,sans-Serif" font-size="10.00" fill="#000000"> +trmDataHeader</text>
</g>
<!-- Node11 -->
<g id="node11" class="node">
<title>Node11</title>
<polygon fill="none" stroke="#bfbfbf" points="1005,-105.5 1005,-162.5 1066,-162.5 1066,-105.5 1005,-105.5"/>
<text text-anchor="middle" x="1035.5" y="-150.5" font-family="Helvetica,sans-Serif" font-size="10.00" fill="#000000">unsigned</text>
<polyline fill="none" stroke="#bfbfbf" points="1005,-143.5 1066,-143.5 "/>
<text text-anchor="middle" x="1035.5" y="-131.5" font-family="Helvetica,sans-Serif" font-size="10.00" fill="#000000"> </text>
<polyline fill="none" stroke="#bfbfbf" points="1005,-124.5 1066,-124.5 "/>
<text text-anchor="middle" x="1035.5" y="-112.5" font-family="Helvetica,sans-Serif" font-size="10.00" fill="#000000"> </text>
</g>
<!-- Node11&#45;&gt;Node1 -->
<g id="edge10" class="edge">
<title>Node11&#45;&gt;Node1</title>
<path fill="none" stroke="#404040" d="M1024.3651,-105.2292C1018.94,-94.6277 1011.4079,-83.4101 1001.5,-76 978.0736,-58.4794 899.9666,-43.1709 851.8021,-35.0888"/>
<polygon fill="none" stroke="#404040" points="851.5094,-35.0409 844.9412,-38.0171 839.6676,-33.0988 846.2359,-30.1225 851.5094,-35.0409"/>
<text text-anchor="middle" x="1028.5" y="-79" font-family="Helvetica,sans-Serif" font-size="10.00" fill="#000000"> +data</text>
</g>
<!-- Node12 -->
<g id="node12" class="node">
<title>Node12</title>
<polygon fill="none" stroke="#bfbfbf" points="1084,-105.5 1084,-162.5 1185,-162.5 1185,-105.5 1084,-105.5"/>
<text text-anchor="middle" x="1134.5" y="-150.5" font-family="Helvetica,sans-Serif" font-size="10.00" fill="#000000">DRMDataTrailer_t</text>
<polyline fill="none" stroke="#bfbfbf" points="1084,-143.5 1185,-143.5 "/>
<text text-anchor="middle" x="1134.5" y="-131.5" font-family="Helvetica,sans-Serif" font-size="10.00" fill="#000000"> </text>
<polyline fill="none" stroke="#bfbfbf" points="1084,-124.5 1185,-124.5 "/>
<text text-anchor="middle" x="1134.5" y="-112.5" font-family="Helvetica,sans-Serif" font-size="10.00" fill="#000000"> </text>
</g>
<!-- Node12&#45;&gt;Node1 -->
<g id="edge11" class="edge">
<title>Node12&#45;&gt;Node1</title>
<path fill="none" stroke="#404040" d="M1099.5487,-105.4438C1084.8681,-94.7419 1067.1269,-83.396 1049.5,-76 983.4566,-48.289 900.0835,-36.6349 851.8757,-31.946"/>
<polygon fill="none" stroke="#404040" points="851.7824,-31.9376 845.4444,-35.377 839.8319,-30.8494 846.1699,-27.41 851.7824,-31.9376"/>
<text text-anchor="middle" x="1112" y="-79" font-family="Helvetica,sans-Serif" font-size="10.00" fill="#000000"> +drmDataTrailer</text>
</g>
<!-- Node13 -->
<g id="node13" class="node">
<title>Node13</title>
<polygon fill="none" stroke="#bfbfbf" points="1203,-105.5 1203,-162.5 1292,-162.5 1292,-105.5 1203,-105.5"/>
<text text-anchor="middle" x="1247.5" y="-150.5" font-family="Helvetica,sans-Serif" font-size="10.00" fill="#000000">DRMHeadW2_t</text>
<polyline fill="none" stroke="#bfbfbf" points="1203,-143.5 1292,-143.5 "/>
<text text-anchor="middle" x="1247.5" y="-131.5" font-family="Helvetica,sans-Serif" font-size="10.00" fill="#000000"> </text>
<polyline fill="none" stroke="#bfbfbf" points="1203,-124.5 1292,-124.5 "/>
<text text-anchor="middle" x="1247.5" y="-112.5" font-family="Helvetica,sans-Serif" font-size="10.00" fill="#000000"> </text>
</g>
<!-- Node13&#45;&gt;Node1 -->
<g id="edge12" class="edge">
<title>Node13&#45;&gt;Node1</title>
<path fill="none" stroke="#404040" d="M1211.3727,-105.2245C1195.9243,-94.3557 1177.1674,-82.9474 1158.5,-76 1102.9329,-55.3197 930.2705,-38.8021 851.9016,-32.1599"/>
<polygon fill="none" stroke="#404040" points="851.6847,-32.1419 845.3727,-35.6288 839.7263,-31.1434 846.0384,-27.6565 851.6847,-32.1419"/>
<text text-anchor="middle" x="1218" y="-79" font-family="Helvetica,sans-Serif" font-size="10.00" fill="#000000"> +drmHeadW2</text>
</g>
<!-- Node14 -->
<g id="node14" class="node">
<title>Node14</title>
<polygon fill="none" stroke="#bfbfbf" points="1310,-105.5 1310,-162.5 1417,-162.5 1417,-105.5 1310,-105.5"/>
<text text-anchor="middle" x="1363.5" y="-150.5" font-family="Helvetica,sans-Serif" font-size="10.00" fill="#000000">DRMDataHeader_t</text>
<polyline fill="none" stroke="#bfbfbf" points="1310,-143.5 1417,-143.5 "/>
<text text-anchor="middle" x="1363.5" y="-131.5" font-family="Helvetica,sans-Serif" font-size="10.00" fill="#000000"> </text>
<polyline fill="none" stroke="#bfbfbf" points="1310,-124.5 1417,-124.5 "/>
<text text-anchor="middle" x="1363.5" y="-112.5" font-family="Helvetica,sans-Serif" font-size="10.00" fill="#000000"> </text>
</g>
<!-- Node14&#45;&gt;Node1 -->
<g id="edge13" class="edge">
<title>Node14&#45;&gt;Node1</title>
<path fill="none" stroke="#404040" d="M1321.0684,-105.4808C1302.6068,-94.4448 1280.2525,-82.8442 1258.5,-76 1182.9674,-52.2346 945.9086,-36.5637 851.6821,-31.1273"/>
<polygon fill="none" stroke="#404040" points="851.6043,-31.123 845.3872,-34.7764 839.6236,-30.4427 845.8407,-26.7893 851.6043,-31.123"/>
<text text-anchor="middle" x="1330.5" y="-79" font-family="Helvetica,sans-Serif" font-size="10.00" fill="#000000"> +drmDataHeader</text>
</g>
<!-- Node15 -->
<g id="node15" class="node">
<title>Node15</title>
<polygon fill="none" stroke="#bfbfbf" points="1435.5,-105.5 1435.5,-162.5 1535.5,-162.5 1535.5,-105.5 1435.5,-105.5"/>
<text text-anchor="middle" x="1485.5" y="-150.5" font-family="Helvetica,sans-Serif" font-size="10.00" fill="#000000">TRMDataTrailer_t</text>
<polyline fill="none" stroke="#bfbfbf" points="1435.5,-143.5 1535.5,-143.5 "/>
<text text-anchor="middle" x="1485.5" y="-131.5" font-family="Helvetica,sans-Serif" font-size="10.00" fill="#000000"> </text>
<polyline fill="none" stroke="#bfbfbf" points="1435.5,-124.5 1535.5,-124.5 "/>
<text text-anchor="middle" x="1485.5" y="-112.5" font-family="Helvetica,sans-Serif" font-size="10.00" fill="#000000"> </text>
</g>
<!-- Node15&#45;&gt;Node1 -->
<g id="edge14" class="edge">
<title>Node15&#45;&gt;Node1</title>
<path fill="none" stroke="#404040" d="M1442.9591,-105.398C1424.2794,-94.2774 1401.6006,-82.6357 1379.5,-76 1280.4239,-46.2525 963.904,-33.7198 852.0863,-30.1459"/>
<polygon fill="none" stroke="#404040" points="851.7875,-30.1367 845.6658,-33.9479 839.7933,-29.763 845.9149,-25.9518 851.7875,-30.1367"/>
<text text-anchor="middle" x="1447.5" y="-79" font-family="Helvetica,sans-Serif" font-size="10.00" fill="#000000"> +trmDataTrailer</text>
</g>
<!-- Node16 -->
<g id="node16" class="node">
<title>Node16</title>
<polygon fill="none" stroke="#bfbfbf" points="1554,-105.5 1554,-162.5 1643,-162.5 1643,-105.5 1554,-105.5"/>
<text text-anchor="middle" x="1598.5" y="-150.5" font-family="Helvetica,sans-Serif" font-size="10.00" fill="#000000">DRMHeadW1_t</text>
<polyline fill="none" stroke="#bfbfbf" points="1554,-143.5 1643,-143.5 "/>
<text text-anchor="middle" x="1598.5" y="-131.5" font-family="Helvetica,sans-Serif" font-size="10.00" fill="#000000"> </text>
<polyline fill="none" stroke="#bfbfbf" points="1554,-124.5 1643,-124.5 "/>
<text text-anchor="middle" x="1598.5" y="-112.5" font-family="Helvetica,sans-Serif" font-size="10.00" fill="#000000"> </text>
</g>
<!-- Node16&#45;&gt;Node1 -->
<g id="edge15" class="edge">
<title>Node16&#45;&gt;Node1</title>
<path fill="none" stroke="#404040" d="M1556.2573,-105.4022C1537.5369,-94.2104 1514.7462,-82.5137 1492.5,-76 1371.0357,-40.4353 977.8021,-31.4899 851.7612,-29.5097"/>
<polygon fill="none" stroke="#404040" points="851.7411,-29.5095 845.6818,-33.419 839.7424,-29.3295 845.8018,-25.4199 851.7411,-29.5095"/>
<text text-anchor="middle" x="1556" y="-79" font-family="Helvetica,sans-Serif" font-size="10.00" fill="#000000"> +drmHeadW1</text>
</g>
</g>
</svg>
