<?xml version="1.0" encoding="UTF-8" standalone="no"?>
<!DOCTYPE svg PUBLIC "-//W3C//DTD SVG 1.1//EN"
 "http://www.w3.org/Graphics/SVG/1.1/DTD/svg11.dtd">
<!-- Generated by graphviz version 2.40.1 (20161225.0304)
 -->
<!-- Title: TableReader Pages: 1 -->
<svg width="1269pt" height="871pt"
 viewBox="0.00 0.00 1269.00 871.00" xmlns="http://www.w3.org/2000/svg" xmlns:xlink="http://www.w3.org/1999/xlink">
<g id="graph0" class="graph" transform="scale(1 1) rotate(0) translate(4 867)">
<title>TableReader</title>
<!-- Node1 -->
<g id="node1" class="node">
<title>Node1</title>
<polygon fill="#bfbfbf" stroke="#000000" points="163.5,-.5 163.5,-90.5 286.5,-90.5 286.5,-.5 163.5,-.5"/>
<text text-anchor="middle" x="225" y="-78.5" font-family="Helvetica,sans-Serif" font-size="10.00" fill="#000000">TableReader</text>
<polyline fill="none" stroke="#000000" points="163.5,-71.5 286.5,-71.5 "/>
<text text-anchor="middle" x="225" y="-59.5" font-family="Helvetica,sans-Serif" font-size="10.00" fill="#000000"> </text>
<polyline fill="none" stroke="#000000" points="163.5,-52.5 286.5,-52.5 "/>
<text text-anchor="start" x="171.5" y="-40.5" font-family="Helvetica,sans-Serif" font-size="10.00" fill="#000000">+ init()</text>
<text text-anchor="start" x="171.5" y="-29.5" font-family="Helvetica,sans-Serif" font-size="10.00" fill="#000000">+ DefineCuts()</text>
<text text-anchor="start" x="171.5" y="-18.5" font-family="Helvetica,sans-Serif" font-size="10.00" fill="#000000">+ process()</text>
<text text-anchor="start" x="171.5" y="-7.5" font-family="Helvetica,sans-Serif" font-size="10.00" fill="#000000">+ DefineHistograms()</text>
</g>
<!-- Node2 -->
<g id="node2" class="node">
<title>Node2</title>
<g id="a_node2"><a xlink:href="../../db/d7a/classAnalysisCompositeCut.html" target="_top" xlink:title="{AnalysisCompositeCut\n||+ AnalysisCompositeCut()\l+ AnalysisCompositeCut()\l+ ~AnalysisCompositeCut()\l+ AddCut()\l+ GetUseAND()\l+ GetNCuts()\l+ IsSelected()\l# AnalysisCompositeCut()\l# operator=()\l# ClassDef()\l}">
<polygon fill="none" stroke="#000000" points="148,-166 148,-322 302,-322 302,-166 148,-166"/>
<text text-anchor="middle" x="225" y="-310" font-family="Helvetica,sans-Serif" font-size="10.00" fill="#000000">AnalysisCompositeCut</text>
<polyline fill="none" stroke="#000000" points="148,-303 302,-303 "/>
<text text-anchor="middle" x="225" y="-291" font-family="Helvetica,sans-Serif" font-size="10.00" fill="#000000"> </text>
<polyline fill="none" stroke="#000000" points="148,-284 302,-284 "/>
<text text-anchor="start" x="156" y="-272" font-family="Helvetica,sans-Serif" font-size="10.00" fill="#000000">+ AnalysisCompositeCut()</text>
<text text-anchor="start" x="156" y="-261" font-family="Helvetica,sans-Serif" font-size="10.00" fill="#000000">+ AnalysisCompositeCut()</text>
<text text-anchor="start" x="156" y="-250" font-family="Helvetica,sans-Serif" font-size="10.00" fill="#000000">+ ~AnalysisCompositeCut()</text>
<text text-anchor="start" x="156" y="-239" font-family="Helvetica,sans-Serif" font-size="10.00" fill="#000000">+ AddCut()</text>
<text text-anchor="start" x="156" y="-228" font-family="Helvetica,sans-Serif" font-size="10.00" fill="#000000">+ GetUseAND()</text>
<text text-anchor="start" x="156" y="-217" font-family="Helvetica,sans-Serif" font-size="10.00" fill="#000000">+ GetNCuts()</text>
<text text-anchor="start" x="156" y="-206" font-family="Helvetica,sans-Serif" font-size="10.00" fill="#000000">+ IsSelected()</text>
<text text-anchor="start" x="156" y="-195" font-family="Helvetica,sans-Serif" font-size="10.00" fill="#000000"># AnalysisCompositeCut()</text>
<text text-anchor="start" x="156" y="-184" font-family="Helvetica,sans-Serif" font-size="10.00" fill="#000000"># operator=()</text>
<text text-anchor="start" x="156" y="-173" font-family="Helvetica,sans-Serif" font-size="10.00" fill="#000000"># ClassDef()</text>
</a>
</g>
</g>
<!-- Node2&#45;&gt;Node1 -->
<g id="edge1" class="edge">
<title>Node2&#45;&gt;Node1</title>
<path fill="none" stroke="#404040" d="M225,-165.8325C225,-144.8186 225,-122.4827 225,-102.8325"/>
<polygon fill="none" stroke="#404040" points="225.0001,-102.6654 221,-96.6654 225,-90.6654 229,-96.6654 225.0001,-102.6654"/>
<text text-anchor="middle" x="255" y="-134" font-family="Helvetica,sans-Serif" font-size="10.00" fill="#000000"> +fEventCut</text>
<text text-anchor="middle" x="255" y="-123" font-family="Helvetica,sans-Serif" font-size="10.00" fill="#000000">+fMuonCut</text>
<text text-anchor="middle" x="255" y="-112" font-family="Helvetica,sans-Serif" font-size="10.00" fill="#000000">+fTrackCut</text>
</g>
<!-- Node3 -->
<g id="node3" class="node">
<title>Node3</title>
<g id="a_node3"><a xlink:href="../../de/df4/classAnalysisCut.html" target="_top" xlink:title="{AnalysisCut\n||+ AnalysisCut()\l+ AnalysisCut()\l+ AnalysisCut()\l+ operator=()\l+ ~AnalysisCut()\l+ AddCut()\l+ IsSelected()\l# ClassDef()\l}">
<polygon fill="none" stroke="#000000" points="87.5,-419.5 87.5,-553.5 188.5,-553.5 188.5,-419.5 87.5,-419.5"/>
<text text-anchor="middle" x="138" y="-541.5" font-family="Helvetica,sans-Serif" font-size="10.00" fill="#000000">AnalysisCut</text>
<polyline fill="none" stroke="#000000" points="87.5,-534.5 188.5,-534.5 "/>
<text text-anchor="middle" x="138" y="-522.5" font-family="Helvetica,sans-Serif" font-size="10.00" fill="#000000"> </text>
<polyline fill="none" stroke="#000000" points="87.5,-515.5 188.5,-515.5 "/>
<text text-anchor="start" x="95.5" y="-503.5" font-family="Helvetica,sans-Serif" font-size="10.00" fill="#000000">+ AnalysisCut()</text>
<text text-anchor="start" x="95.5" y="-492.5" font-family="Helvetica,sans-Serif" font-size="10.00" fill="#000000">+ AnalysisCut()</text>
<text text-anchor="start" x="95.5" y="-481.5" font-family="Helvetica,sans-Serif" font-size="10.00" fill="#000000">+ AnalysisCut()</text>
<text text-anchor="start" x="95.5" y="-470.5" font-family="Helvetica,sans-Serif" font-size="10.00" fill="#000000">+ operator=()</text>
<text text-anchor="start" x="95.5" y="-459.5" font-family="Helvetica,sans-Serif" font-size="10.00" fill="#000000">+ ~AnalysisCut()</text>
<text text-anchor="start" x="95.5" y="-448.5" font-family="Helvetica,sans-Serif" font-size="10.00" fill="#000000">+ AddCut()</text>
<text text-anchor="start" x="95.5" y="-437.5" font-family="Helvetica,sans-Serif" font-size="10.00" fill="#000000">+ IsSelected()</text>
<text text-anchor="start" x="95.5" y="-426.5" font-family="Helvetica,sans-Serif" font-size="10.00" fill="#000000"># ClassDef()</text>
</a>
</g>
</g>
<!-- Node3&#45;&gt;Node2 -->
<g id="edge2" class="edge">
<title>Node3&#45;&gt;Node2</title>
<path fill="none" stroke="#191970" d="M165.6025,-409.5619C175.6172,-381.6476 186.9352,-350.1001 196.9851,-322.0875"/>
<polygon fill="none" stroke="#191970" points="162.2014,-408.6777 162.1188,-419.2723 168.7902,-411.0416 162.2014,-408.6777"/>
</g>
<!-- Node4 -->
<g id="node4" class="node">
<title>Node4</title>
<polygon fill="none" stroke="#bfbfbf" points="208,-640 208,-697 266,-697 266,-640 208,-640"/>
<text text-anchor="middle" x="237" y="-685" font-family="Helvetica,sans-Serif" font-size="10.00" fill="#000000">TNamed</text>
<polyline fill="none" stroke="#bfbfbf" points="208,-678 266,-678 "/>
<text text-anchor="middle" x="237" y="-666" font-family="Helvetica,sans-Serif" font-size="10.00" fill="#000000"> </text>
<polyline fill="none" stroke="#bfbfbf" points="208,-659 266,-659 "/>
<text text-anchor="middle" x="237" y="-647" font-family="Helvetica,sans-Serif" font-size="10.00" fill="#000000"> </text>
</g>
<!-- Node4&#45;&gt;Node3 -->
<g id="edge3" class="edge">
<title>Node4&#45;&gt;Node3</title>
<path fill="none" stroke="#191970" d="M216.5269,-630.8627C204.4217,-608.6086 188.7352,-579.7708 174.5684,-553.7268"/>
<polygon fill="none" stroke="#191970" points="213.4602,-632.5495 221.3132,-639.6616 219.6093,-629.2046 213.4602,-632.5495"/>
</g>
<!-- Node5 -->
<g id="node5" class="node">
<title>Node5</title>
<polygon fill="none" stroke="#bfbfbf" points="74,-634.5 74,-702.5 190,-702.5 190,-634.5 74,-634.5"/>
<text text-anchor="start" x="82" y="-690.5" font-family="Helvetica,sans-Serif" font-size="10.00" fill="#000000">vector&lt; AnalysisCut</text>
<text text-anchor="middle" x="132" y="-679.5" font-family="Helvetica,sans-Serif" font-size="10.00" fill="#000000">::CutContainer &gt;</text>
<polyline fill="none" stroke="#bfbfbf" points="74,-672.5 190,-672.5 "/>
<text text-anchor="middle" x="132" y="-660.5" font-family="Helvetica,sans-Serif" font-size="10.00" fill="#000000"> </text>
<polyline fill="none" stroke="#bfbfbf" points="74,-653.5 190,-653.5 "/>
<text text-anchor="middle" x="132" y="-641.5" font-family="Helvetica,sans-Serif" font-size="10.00" fill="#000000"> </text>
</g>
<!-- Node5&#45;&gt;Node3 -->
<g id="edge4" class="edge">
<title>Node5&#45;&gt;Node3</title>
<path fill="none" stroke="#404040" d="M133.1286,-634.2672C133.7674,-614.8878 134.5949,-589.7895 135.3859,-565.7951"/>
<polygon fill="none" stroke="#404040" points="135.3871,-565.7545 131.587,-559.626 135.7826,-553.7611 139.5827,-559.8896 135.3871,-565.7545"/>
<text text-anchor="middle" x="153.5" y="-586" font-family="Helvetica,sans-Serif" font-size="10.00" fill="#000000"> #fCuts</text>
</g>
<!-- Node6 -->
<g id="node6" class="node">
<title>Node6</title>
<polygon fill="none" stroke="#bfbfbf" points="0,-640 0,-697 44,-697 44,-640 0,-640"/>
<text text-anchor="middle" x="22" y="-685" font-family="Helvetica,sans-Serif" font-size="10.00" fill="#000000">static</text>
<polyline fill="none" stroke="#bfbfbf" points="0,-678 44,-678 "/>
<text text-anchor="middle" x="22" y="-666" font-family="Helvetica,sans-Serif" font-size="10.00" fill="#000000"> </text>
<polyline fill="none" stroke="#bfbfbf" points="0,-659 44,-659 "/>
<text text-anchor="middle" x="22" y="-647" font-family="Helvetica,sans-Serif" font-size="10.00" fill="#000000"> </text>
</g>
<!-- Node6&#45;&gt;Node1 -->
<g id="edge25" class="edge">
<title>Node6&#45;&gt;Node1</title>
<path fill="none" stroke="#404040" d="M23.2854,-639.998C26.3749,-583.2011 36.1505,-452.2294 64,-346 86.6039,-259.7796 95.196,-237.6279 139,-160 150.5474,-139.5361 165.2905,-118.5756 179.2957,-100.2746"/>
<polygon fill="none" stroke="#404040" points="179.3871,-100.157 179.9119,-92.965 186.7525,-90.6832 186.2277,-97.8753 179.3871,-100.157"/>
<text text-anchor="middle" x="117" y="-382" font-family="Helvetica,sans-Serif" font-size="10.00" fill="#000000"> +fgMuonFillMap</text>
<text text-anchor="middle" x="117" y="-371" font-family="Helvetica,sans-Serif" font-size="10.00" fill="#000000">+fgTrackFillMap</text>
<text text-anchor="middle" x="117" y="-360" font-family="Helvetica,sans-Serif" font-size="10.00" fill="#000000">+fgEventFillMap</text>
<text text-anchor="middle" x="117" y="-349" font-family="Helvetica,sans-Serif" font-size="10.00" fill="#000000">+fgEventMuonFillMap</text>
</g>
<!-- Node6&#45;&gt;Node3 -->
<g id="edge5" class="edge">
<title>Node6&#45;&gt;Node3</title>
<path fill="none" stroke="#404040" d="M34.4484,-639.6348C42.1741,-622.696 52.751,-601.1273 64,-583 69.0256,-574.9016 74.5799,-566.6584 80.3202,-558.5735"/>
<polygon fill="none" stroke="#404040" points="80.3523,-558.5291 80.6322,-551.3234 87.3913,-548.8104 87.1114,-556.0161 80.3523,-558.5291"/>
<text text-anchor="middle" x="97.5" y="-586" font-family="Helvetica,sans-Serif" font-size="10.00" fill="#000000"> +fgUsedVars</text>
</g>
<!-- Node7 -->
<g id="node7" class="node">
<title>Node7</title>
<polygon fill="none" stroke="#bfbfbf" points="331,-458 331,-515 459,-515 459,-458 331,-458"/>
<text text-anchor="middle" x="395" y="-503" font-family="Helvetica,sans-Serif" font-size="10.00" fill="#000000">vector&lt; AnalysisCut &gt;</text>
<polyline fill="none" stroke="#bfbfbf" points="331,-496 459,-496 "/>
<text text-anchor="middle" x="395" y="-484" font-family="Helvetica,sans-Serif" font-size="10.00" fill="#000000"> </text>
<polyline fill="none" stroke="#bfbfbf" points="331,-477 459,-477 "/>
<text text-anchor="middle" x="395" y="-465" font-family="Helvetica,sans-Serif" font-size="10.00" fill="#000000"> </text>
</g>
<!-- Node7&#45;&gt;Node2 -->
<g id="edge6" class="edge">
<title>Node7&#45;&gt;Node2</title>
<path fill="none" stroke="#404040" d="M374.8312,-457.7298C353.1628,-426.8205 317.6556,-376.1704 286.6447,-331.9343"/>
<polygon fill="none" stroke="#404040" points="286.5821,-331.845 279.8625,-329.2281 279.6937,-322.0189 286.4132,-324.6358 286.5821,-331.845"/>
<text text-anchor="middle" x="350.5" y="-365.5" font-family="Helvetica,sans-Serif" font-size="10.00" fill="#000000"> #fCutList</text>
</g>
<!-- Node8 -->
<g id="node8" class="node">
<title>Node8</title>
<polygon fill="none" stroke="#bfbfbf" points="430,-640 430,-697 468,-697 468,-640 430,-640"/>
<text text-anchor="middle" x="449" y="-685" font-family="Helvetica,sans-Serif" font-size="10.00" fill="#000000">bool</text>
<polyline fill="none" stroke="#bfbfbf" points="430,-678 468,-678 "/>
<text text-anchor="middle" x="449" y="-666" font-family="Helvetica,sans-Serif" font-size="10.00" fill="#000000"> </text>
<polyline fill="none" stroke="#bfbfbf" points="430,-659 468,-659 "/>
<text text-anchor="middle" x="449" y="-647" font-family="Helvetica,sans-Serif" font-size="10.00" fill="#000000"> </text>
</g>
<!-- Node8&#45;&gt;Node2 -->
<g id="edge7" class="edge">
<title>Node8&#45;&gt;Node2</title>
<path fill="none" stroke="#404040" d="M429.7638,-665.8963C386.0014,-658.8282 279.2894,-634.8729 234,-565 190.0185,-497.1449 192.985,-403.138 203.8191,-334.3943"/>
<polygon fill="none" stroke="#404040" points="203.8632,-334.1311 200.9103,-327.5523 205.8472,-322.2963 208.8002,-328.8751 203.8632,-334.1311"/>
<text text-anchor="middle" x="278" y="-484" font-family="Helvetica,sans-Serif" font-size="10.00" fill="#000000"> #fOptionUseAND</text>
</g>
<!-- Node9 -->
<g id="node9" class="node">
<title>Node9</title>
<g id="a_node9"><a xlink:href="../../d4/d79/structo2_1_1framework_1_1OutputObj.html" target="_top" xlink:title="{o2::framework::OutputObj\l\&lt; HistogramManager \&gt;\n||+ spec()\l+ OutputObj()\l+ OutputObj()\l+ setObject()\l+ setObject()\l+ setObject()\l+ setHash()\l+ operator&#45;\&gt;()\l+ operator*()\l+ ref()\l}">
<polygon fill="none" stroke="#000000" points="740.5,-160.5 740.5,-327.5 883.5,-327.5 883.5,-160.5 740.5,-160.5"/>
<text text-anchor="start" x="748.5" y="-315.5" font-family="Helvetica,sans-Serif" font-size="10.00" fill="#000000">o2::framework::OutputObj</text>
<text text-anchor="middle" x="812" y="-304.5" font-family="Helvetica,sans-Serif" font-size="10.00" fill="#000000">&lt; HistogramManager &gt;</text>
<polyline fill="none" stroke="#000000" points="740.5,-297.5 883.5,-297.5 "/>
<text text-anchor="middle" x="812" y="-285.5" font-family="Helvetica,sans-Serif" font-size="10.00" fill="#000000"> </text>
<polyline fill="none" stroke="#000000" points="740.5,-278.5 883.5,-278.5 "/>
<text text-anchor="start" x="748.5" y="-266.5" font-family="Helvetica,sans-Serif" font-size="10.00" fill="#000000">+ spec()</text>
<text text-anchor="start" x="748.5" y="-255.5" font-family="Helvetica,sans-Serif" font-size="10.00" fill="#000000">+ OutputObj()</text>
<text text-anchor="start" x="748.5" y="-244.5" font-family="Helvetica,sans-Serif" font-size="10.00" fill="#000000">+ OutputObj()</text>
<text text-anchor="start" x="748.5" y="-233.5" font-family="Helvetica,sans-Serif" font-size="10.00" fill="#000000">+ setObject()</text>
<text text-anchor="start" x="748.5" y="-222.5" font-family="Helvetica,sans-Serif" font-size="10.00" fill="#000000">+ setObject()</text>
<text text-anchor="start" x="748.5" y="-211.5" font-family="Helvetica,sans-Serif" font-size="10.00" fill="#000000">+ setObject()</text>
<text text-anchor="start" x="748.5" y="-200.5" font-family="Helvetica,sans-Serif" font-size="10.00" fill="#000000">+ setHash()</text>
<text text-anchor="start" x="748.5" y="-189.5" font-family="Helvetica,sans-Serif" font-size="10.00" fill="#000000">+ operator&#45;&gt;()</text>
<text text-anchor="start" x="748.5" y="-178.5" font-family="Helvetica,sans-Serif" font-size="10.00" fill="#000000">+ operator*()</text>
<text text-anchor="start" x="748.5" y="-167.5" font-family="Helvetica,sans-Serif" font-size="10.00" fill="#000000">+ ref()</text>
</a>
</g>
</g>
<!-- Node8&#45;&gt;Node9 -->
<g id="edge12" class="edge">
<title>Node8&#45;&gt;Node9</title>
<path fill="none" stroke="#404040" d="M455.4714,-639.763C469.3069,-580.1288 502.8013,-445.3767 531,-408 580.8237,-341.9598 665.6091,-297.806 729.0463,-272.111"/>
<polygon fill="none" stroke="#404040" points="729.073,-272.1005 733.1784,-266.1721 740.2298,-267.6816 736.1243,-273.61 729.073,-272.1005"/>
<text text-anchor="middle" x="562" y="-484" font-family="Helvetica,sans-Serif" font-size="10.00" fill="#000000"> +isdangling</text>
</g>
<!-- Node17 -->
<g id="node17" class="node">
<title>Node17</title>
<g id="a_node17"><a xlink:href="../../d4/d79/structo2_1_1framework_1_1OutputObj.html" target="_top" xlink:title="{o2::framework::OutputObj\&lt; T \&gt;\n||+ OutputObj()\l+ OutputObj()\l+ setObject()\l+ setObject()\l+ setObject()\l+ setHash()\l+ spec()\l+ operator&#45;\&gt;()\l+ operator*()\l+ ref()\l}">
<polygon fill="none" stroke="#000000" points="659,-408.5 659,-564.5 831,-564.5 831,-408.5 659,-408.5"/>
<text text-anchor="middle" x="745" y="-552.5" font-family="Helvetica,sans-Serif" font-size="10.00" fill="#000000">o2::framework::OutputObj&lt; T &gt;</text>
<polyline fill="none" stroke="#000000" points="659,-545.5 831,-545.5 "/>
<text text-anchor="middle" x="745" y="-533.5" font-family="Helvetica,sans-Serif" font-size="10.00" fill="#000000"> </text>
<polyline fill="none" stroke="#000000" points="659,-526.5 831,-526.5 "/>
<text text-anchor="start" x="667" y="-514.5" font-family="Helvetica,sans-Serif" font-size="10.00" fill="#000000">+ OutputObj()</text>
<text text-anchor="start" x="667" y="-503.5" font-family="Helvetica,sans-Serif" font-size="10.00" fill="#000000">+ OutputObj()</text>
<text text-anchor="start" x="667" y="-492.5" font-family="Helvetica,sans-Serif" font-size="10.00" fill="#000000">+ setObject()</text>
<text text-anchor="start" x="667" y="-481.5" font-family="Helvetica,sans-Serif" font-size="10.00" fill="#000000">+ setObject()</text>
<text text-anchor="start" x="667" y="-470.5" font-family="Helvetica,sans-Serif" font-size="10.00" fill="#000000">+ setObject()</text>
<text text-anchor="start" x="667" y="-459.5" font-family="Helvetica,sans-Serif" font-size="10.00" fill="#000000">+ setHash()</text>
<text text-anchor="start" x="667" y="-448.5" font-family="Helvetica,sans-Serif" font-size="10.00" fill="#000000">+ spec()</text>
<text text-anchor="start" x="667" y="-437.5" font-family="Helvetica,sans-Serif" font-size="10.00" fill="#000000">+ operator&#45;&gt;()</text>
<text text-anchor="start" x="667" y="-426.5" font-family="Helvetica,sans-Serif" font-size="10.00" fill="#000000">+ operator*()</text>
<text text-anchor="start" x="667" y="-415.5" font-family="Helvetica,sans-Serif" font-size="10.00" fill="#000000">+ ref()</text>
</a>
</g>
</g>
<!-- Node8&#45;&gt;Node17 -->
<g id="edge22" class="edge">
<title>Node8&#45;&gt;Node17</title>
<path fill="none" stroke="#404040" d="M457.8706,-639.9369C462.2286,-629.9116 468.4343,-619.3331 477,-612 509.5677,-584.1187 527.7038,-594.5173 569,-583 601.6036,-573.907 612.4817,-579.6394 643,-565 644.6685,-564.1997 646.3357,-563.3689 648.0001,-562.5107"/>
<polygon fill="none" stroke="#404040" points="648.4214,-562.278 651.7393,-555.8755 658.9254,-556.4757 655.6075,-562.8782 648.4214,-562.278"/>
<text text-anchor="middle" x="600" y="-586" font-family="Helvetica,sans-Serif" font-size="10.00" fill="#000000"> +isdangling</text>
</g>
<!-- Node9&#45;&gt;Node1 -->
<g id="edge8" class="edge">
<title>Node9&#45;&gt;Node1</title>
<path fill="none" stroke="#404040" d="M740.3159,-219.7593C628.068,-181.8015 411.9581,-108.7218 298.5632,-70.3761"/>
<polygon fill="none" stroke="#404040" points="298.287,-70.2828 291.3218,-72.15 286.9194,-66.4387 293.8846,-64.5715 298.287,-70.2828"/>
<text text-anchor="middle" x="528.5" y="-123" font-family="Helvetica,sans-Serif" font-size="10.00" fill="#000000"> +fHistMan</text>
</g>
<!-- Node10 -->
<g id="node10" class="node">
<title>Node10</title>
<polygon fill="none" stroke="#bfbfbf" points="1042,-458 1042,-515 1226,-515 1226,-458 1042,-458"/>
<text text-anchor="middle" x="1134" y="-503" font-family="Helvetica,sans-Serif" font-size="10.00" fill="#000000">shared_ptr&lt; HistogramManager &gt;</text>
<polyline fill="none" stroke="#bfbfbf" points="1042,-496 1226,-496 "/>
<text text-anchor="middle" x="1134" y="-484" font-family="Helvetica,sans-Serif" font-size="10.00" fill="#000000"> </text>
<polyline fill="none" stroke="#bfbfbf" points="1042,-477 1226,-477 "/>
<text text-anchor="middle" x="1134" y="-465" font-family="Helvetica,sans-Serif" font-size="10.00" fill="#000000"> </text>
</g>
<!-- Node10&#45;&gt;Node9 -->
<g id="edge9" class="edge">
<title>Node10&#45;&gt;Node9</title>
<path fill="none" stroke="#404040" d="M1110.6224,-457.9458C1084.9051,-427.7017 1041.3123,-379.7525 997,-346 965.5441,-322.0402 927.7713,-300.1705 894.5812,-282.8801"/>
<polygon fill="none" stroke="#404040" points="894.1905,-282.6794 887.0257,-283.4953 883.5168,-277.1955 890.6817,-276.3795 894.1905,-282.6794"/>
<text text-anchor="middle" x="1066" y="-365.5" font-family="Helvetica,sans-Serif" font-size="10.00" fill="#000000"> +object</text>
</g>
<!-- Node11 -->
<g id="node11" class="node">
<title>Node11</title>
<polygon fill="none" stroke="#bfbfbf" points="913.5,-640 913.5,-697 1052.5,-697 1052.5,-640 913.5,-640"/>
<text text-anchor="middle" x="983" y="-685" font-family="Helvetica,sans-Serif" font-size="10.00" fill="#000000">OutputObjHandlingPolicy</text>
<polyline fill="none" stroke="#bfbfbf" points="913.5,-678 1052.5,-678 "/>
<text text-anchor="middle" x="983" y="-666" font-family="Helvetica,sans-Serif" font-size="10.00" fill="#000000"> </text>
<polyline fill="none" stroke="#bfbfbf" points="913.5,-659 1052.5,-659 "/>
<text text-anchor="middle" x="983" y="-647" font-family="Helvetica,sans-Serif" font-size="10.00" fill="#000000"> </text>
</g>
<!-- Node11&#45;&gt;Node9 -->
<g id="edge10" class="edge">
<title>Node11&#45;&gt;Node9</title>
<path fill="none" stroke="#404040" d="M986.3818,-639.6823C990.9704,-590.0465 995.0812,-486.2251 961,-408 945.4024,-372.1995 918.7458,-339.0038 892.2534,-311.9764"/>
<polygon fill="none" stroke="#404040" points="892.1709,-311.8942 885.0976,-310.4913 883.672,-303.4225 890.7453,-304.8254 892.1709,-311.8942"/>
<text text-anchor="middle" x="1009.5" y="-484" font-family="Helvetica,sans-Serif" font-size="10.00" fill="#000000"> +policy</text>
</g>
<!-- Node11&#45;&gt;Node17 -->
<g id="edge19" class="edge">
<title>Node11&#45;&gt;Node17</title>
<path fill="none" stroke="#404040" d="M945.5507,-639.8623C917.4314,-618.3593 877.6067,-587.9051 840.8478,-559.7953"/>
<polygon fill="none" stroke="#404040" points="840.6095,-559.6132 833.4136,-559.1459 831.0772,-552.3238 838.2732,-552.791 840.6095,-559.6132"/>
<text text-anchor="middle" x="905.5" y="-586" font-family="Helvetica,sans-Serif" font-size="10.00" fill="#000000"> +policy</text>
</g>
<!-- Node12 -->
<g id="node12" class="node">
<title>Node12</title>
<polygon fill="none" stroke="#bfbfbf" points="765.5,-789 765.5,-846 794.5,-846 794.5,-789 765.5,-789"/>
<text text-anchor="middle" x="780" y="-834" font-family="Helvetica,sans-Serif" font-size="10.00" fill="#000000">int</text>
<polyline fill="none" stroke="#bfbfbf" points="765.5,-827 794.5,-827 "/>
<text text-anchor="middle" x="780" y="-815" font-family="Helvetica,sans-Serif" font-size="10.00" fill="#000000"> </text>
<polyline fill="none" stroke="#bfbfbf" points="765.5,-808 794.5,-808 "/>
<text text-anchor="middle" x="780" y="-796" font-family="Helvetica,sans-Serif" font-size="10.00" fill="#000000"> </text>
</g>
<!-- Node12&#45;&gt;Node9 -->
<g id="edge11" class="edge">
<title>Node12&#45;&gt;Node9</title>
<path fill="none" stroke="#404040" d="M794.8176,-815.482C863.8005,-805.1557 1153.5639,-751.242 1235,-565 1262.9553,-501.0669 1273.3632,-466.2855 1235,-408 1196.509,-349.5204 1007.4953,-293.1753 895.5732,-264.2004"/>
<polygon fill="none" stroke="#404040" points="895.2805,-264.1254 888.4747,-266.5089 883.6569,-261.1434 890.4627,-258.7598 895.2805,-264.1254"/>
<text text-anchor="middle" x="1243" y="-586" font-family="Helvetica,sans-Serif" font-size="10.00" fill="#000000"> +label</text>
</g>
<!-- Node13 -->
<g id="node13" class="node">
<title>Node13</title>
<g id="a_node13"><a xlink:href="../../da/d96/structo2_1_1framework_1_1InputSpec.html" target="_top" xlink:title="{o2::framework::InputSpec\n||+ InputSpec()\l+ InputSpec()\l+ InputSpec()\l+ InputSpec()\l+ InputSpec()\l+ operator==()\l}">
<polygon fill="none" stroke="#000000" points="486,-612.5 486,-724.5 628,-724.5 628,-612.5 486,-612.5"/>
<text text-anchor="middle" x="557" y="-712.5" font-family="Helvetica,sans-Serif" font-size="10.00" fill="#000000">o2::framework::InputSpec</text>
<polyline fill="none" stroke="#000000" points="486,-705.5 628,-705.5 "/>
<text text-anchor="middle" x="557" y="-693.5" font-family="Helvetica,sans-Serif" font-size="10.00" fill="#000000"> </text>
<polyline fill="none" stroke="#000000" points="486,-686.5 628,-686.5 "/>
<text text-anchor="start" x="494" y="-674.5" font-family="Helvetica,sans-Serif" font-size="10.00" fill="#000000">+ InputSpec()</text>
<text text-anchor="start" x="494" y="-663.5" font-family="Helvetica,sans-Serif" font-size="10.00" fill="#000000">+ InputSpec()</text>
<text text-anchor="start" x="494" y="-652.5" font-family="Helvetica,sans-Serif" font-size="10.00" fill="#000000">+ InputSpec()</text>
<text text-anchor="start" x="494" y="-641.5" font-family="Helvetica,sans-Serif" font-size="10.00" fill="#000000">+ InputSpec()</text>
<text text-anchor="start" x="494" y="-630.5" font-family="Helvetica,sans-Serif" font-size="10.00" fill="#000000">+ InputSpec()</text>
<text text-anchor="start" x="494" y="-619.5" font-family="Helvetica,sans-Serif" font-size="10.00" fill="#000000">+ operator==()</text>
</a>
</g>
</g>
<!-- Node12&#45;&gt;Node13 -->
<g id="edge16" class="edge">
<title>Node12&#45;&gt;Node13</title>
<path fill="none" stroke="#404040" d="M765.3861,-808.1966C739.5324,-791.6897 684.1068,-756.0863 638,-725 637.8978,-724.9311 637.7956,-724.8622 637.6933,-724.7932"/>
<polygon fill="none" stroke="#404040" points="637.9595,-724.9739 630.7486,-724.9143 628.0302,-718.2352 635.2411,-718.2948 637.9595,-724.9739"/>
<text text-anchor="middle" x="705" y="-746" font-family="Helvetica,sans-Serif" font-size="10.00" fill="#000000"> +binding</text>
</g>
<!-- Node12&#45;&gt;Node17 -->
<g id="edge20" class="edge">
<title>Node12&#45;&gt;Node17</title>
<path fill="none" stroke="#404040" d="M776.9856,-788.9926C772.0559,-742.3718 762.0666,-647.901 754.5557,-576.8691"/>
<polygon fill="none" stroke="#404040" points="754.5404,-576.7239 749.9316,-571.1778 753.2784,-564.7904 757.8872,-570.3365 754.5404,-576.7239"/>
<text text-anchor="middle" x="787" y="-666" font-family="Helvetica,sans-Serif" font-size="10.00" fill="#000000"> +label</text>
</g>
<!-- Node13&#45;&gt;Node9 -->
<g id="edge13" class="edge">
<title>Node13&#45;&gt;Node9</title>
<path fill="none" stroke="#404040" d="M584.7645,-612.2117C587.1236,-606.1557 589.266,-600.0105 591,-594 614.121,-513.8585 575.731,-481.0455 616,-408 642.5169,-359.9 689.2204,-319.9699 730.3867,-291.5559"/>
<polygon fill="none" stroke="#404040" points="730.4979,-291.4808 733.2312,-284.8078 740.4421,-284.7642 737.7089,-291.4373 730.4979,-291.4808"/>
<text text-anchor="middle" x="633" y="-484" font-family="Helvetica,sans-Serif" font-size="10.00" fill="#000000"> +spec</text>
</g>
<!-- Node13&#45;&gt;Node17 -->
<g id="edge23" class="edge">
<title>Node13&#45;&gt;Node17</title>
<path fill="none" stroke="#404040" d="M614.9402,-612.4089C627.6845,-600.0714 641.4712,-586.7247 655.1408,-573.4913"/>
<polygon fill="none" stroke="#404040" points="655.4729,-573.1698 657.0016,-566.1226 664.0947,-564.8232 662.566,-571.8704 655.4729,-573.1698"/>
<text text-anchor="middle" x="657" y="-586" font-family="Helvetica,sans-Serif" font-size="10.00" fill="#000000"> +spec</text>
</g>
<!-- Node14 -->
<g id="node14" class="node">
<title>Node14</title>
<polygon fill="none" stroke="#bfbfbf" points="391,-789 391,-846 479,-846 479,-789 391,-789"/>
<text text-anchor="middle" x="435" y="-834" font-family="Helvetica,sans-Serif" font-size="10.00" fill="#000000">enum Lifetime</text>
<polyline fill="none" stroke="#bfbfbf" points="391,-827 479,-827 "/>
<text text-anchor="middle" x="435" y="-815" font-family="Helvetica,sans-Serif" font-size="10.00" fill="#000000"> </text>
<polyline fill="none" stroke="#bfbfbf" points="391,-808 479,-808 "/>
<text text-anchor="middle" x="435" y="-796" font-family="Helvetica,sans-Serif" font-size="10.00" fill="#000000"> </text>
</g>
<!-- Node14&#45;&gt;Node13 -->
<g id="edge14" class="edge">
<title>Node14&#45;&gt;Node13</title>
<path fill="none" stroke="#404040" d="M458.5228,-788.7713C471.3163,-773.1465 487.7007,-753.1361 503.4181,-733.9402"/>
<polygon fill="none" stroke="#404040" points="503.4595,-733.8897 504.1657,-726.7132 511.0617,-724.6049 510.3555,-731.7814 503.4595,-733.8897"/>
<text text-anchor="middle" x="521" y="-746" font-family="Helvetica,sans-Serif" font-size="10.00" fill="#000000"> +lifetime</text>
</g>
<!-- Node15 -->
<g id="node15" class="node">
<title>Node15</title>
<polygon fill="none" stroke="#bfbfbf" points="497,-772.5 497,-862.5 661,-862.5 661,-772.5 497,-772.5"/>
<text text-anchor="start" x="505" y="-850.5" font-family="Helvetica,sans-Serif" font-size="10.00" fill="#000000">variant&lt; o2::framework</text>
<text text-anchor="start" x="505" y="-839.5" font-family="Helvetica,sans-Serif" font-size="10.00" fill="#000000">::ConcreteDataMatcher,</text>
<text text-anchor="start" x="505" y="-828.5" font-family="Helvetica,sans-Serif" font-size="10.00" fill="#000000"> o2::framework::data_matcher</text>
<text text-anchor="middle" x="579" y="-817.5" font-family="Helvetica,sans-Serif" font-size="10.00" fill="#000000">::DataDescriptorMatcher &gt;</text>
<polyline fill="none" stroke="#bfbfbf" points="497,-810.5 661,-810.5 "/>
<text text-anchor="middle" x="579" y="-798.5" font-family="Helvetica,sans-Serif" font-size="10.00" fill="#000000"> </text>
<polyline fill="none" stroke="#bfbfbf" points="497,-791.5 661,-791.5 "/>
<text text-anchor="middle" x="579" y="-779.5" font-family="Helvetica,sans-Serif" font-size="10.00" fill="#000000"> </text>
</g>
<!-- Node15&#45;&gt;Node13 -->
<g id="edge15" class="edge">
<title>Node15&#45;&gt;Node13</title>
<path fill="none" stroke="#404040" d="M572.3396,-772.3907C570.6702,-761.0845 568.842,-748.7027 567.0479,-736.5514"/>
<polygon fill="none" stroke="#404040" points="567.0251,-736.3966 562.1915,-731.0453 565.2722,-724.5254 570.1057,-729.8767 567.0251,-736.3966"/>
<text text-anchor="middle" x="596" y="-746" font-family="Helvetica,sans-Serif" font-size="10.00" fill="#000000"> +matcher</text>
</g>
<!-- Node16 -->
<g id="node16" class="node">
<title>Node16</title>
<polygon fill="none" stroke="#bfbfbf" points="834.5,-640 834.5,-697 895.5,-697 895.5,-640 834.5,-640"/>
<text text-anchor="middle" x="865" y="-685" font-family="Helvetica,sans-Serif" font-size="10.00" fill="#000000">unsigned</text>
<polyline fill="none" stroke="#bfbfbf" points="834.5,-678 895.5,-678 "/>
<text text-anchor="middle" x="865" y="-666" font-family="Helvetica,sans-Serif" font-size="10.00" fill="#000000"> </text>
<polyline fill="none" stroke="#bfbfbf" points="834.5,-659 895.5,-659 "/>
<text text-anchor="middle" x="865" y="-647" font-family="Helvetica,sans-Serif" font-size="10.00" fill="#000000"> </text>
</g>
<!-- Node16&#45;&gt;Node9 -->
<g id="edge17" class="edge">
<title>Node16&#45;&gt;Node9</title>
<path fill="none" stroke="#404040" d="M885.2967,-639.7198C891.5938,-630.8206 898.5686,-620.9941 905,-612 910.74,-603.9728 914.9638,-603.3896 918,-594 919.5042,-589.3483 920.2289,-587.3513 918,-583 911.758,-570.8142 900.0037,-576.7646 893,-565 842.8054,-480.6842 894.2967,-439.6501 865,-346 864.285,-343.7145 863.5206,-341.4191 862.713,-339.1198"/>
<polygon fill="none" stroke="#404040" points="862.6052,-338.8361 856.7351,-334.6479 858.3434,-327.6184 864.2135,-331.8066 862.6052,-338.8361"/>
<text text-anchor="middle" x="927" y="-484" font-family="Helvetica,sans-Serif" font-size="10.00" fill="#000000"> +mTaskHash</text>
</g>
<!-- Node16&#45;&gt;Node17 -->
<g id="edge24" class="edge">
<title>Node16&#45;&gt;Node17</title>
<path fill="none" stroke="#404040" d="M845.7651,-639.7579C838.449,-630.1724 829.5545,-619.9268 820,-612 806.841,-601.0827 797.3272,-606.8078 786,-594 781.0067,-588.354 776.5946,-582.0369 772.7009,-575.369"/>
<polygon fill="none" stroke="#404040" points="772.6342,-575.2435 766.2853,-571.8241 766.9998,-564.6485 773.3487,-568.0679 772.6342,-575.2435"/>
<text text-anchor="middle" x="820" y="-586" font-family="Helvetica,sans-Serif" font-size="10.00" fill="#000000"> +mTaskHash</text>
</g>
<!-- Node17&#45;&gt;Node9 -->
<g id="edge18" class="edge">
<title>Node17&#45;&gt;Node9</title>
<path fill="none" stroke="#ffa500" d="M738.0456,-398.1514C738.7717,-380.6021 741.0612,-362.5074 746,-346 747.8439,-339.8368 750.1853,-333.6944 752.8795,-327.6552"/>
<polygon fill="#ffa500" stroke="#ffa500" points="734.5404,-398.321 737.7905,-408.405 741.5382,-398.4951 734.5404,-398.321"/>
<text text-anchor="middle" x="805.5" y="-365.5" font-family="Helvetica,sans-Serif" font-size="10.00" fill="#000000"> &lt; HistogramManager &gt;</text>
</g>
<!-- Node18 -->
<g id="node18" class="node">
<title>Node18</title>
<polygon fill="none" stroke="#bfbfbf" points="646.5,-640 646.5,-697 743.5,-697 743.5,-640 646.5,-640"/>
<text text-anchor="middle" x="695" y="-685" font-family="Helvetica,sans-Serif" font-size="10.00" fill="#000000">shared_ptr&lt; T &gt;</text>
<polyline fill="none" stroke="#bfbfbf" points="646.5,-678 743.5,-678 "/>
<text text-anchor="middle" x="695" y="-666" font-family="Helvetica,sans-Serif" font-size="10.00" fill="#000000"> </text>
<polyline fill="none" stroke="#bfbfbf" points="646.5,-659 743.5,-659 "/>
<text text-anchor="middle" x="695" y="-647" font-family="Helvetica,sans-Serif" font-size="10.00" fill="#000000"> </text>
</g>
<!-- Node18&#45;&gt;Node17 -->
<g id="edge21" class="edge">
<title>Node18&#45;&gt;Node17</title>
<path fill="none" stroke="#404040" d="M692.1227,-639.9819C691.2155,-623.1624 691.4337,-601.5974 696,-583 696.5628,-580.7077 697.1885,-578.4079 697.8693,-576.107"/>
<polygon fill="none" stroke="#404040" points="697.903,-576.0056 696.0065,-569.0484 701.6991,-564.6218 703.5957,-571.5791 697.903,-576.0056"/>
<text text-anchor="middle" x="717" y="-586" font-family="Helvetica,sans-Serif" font-size="10.00" fill="#000000"> +object</text>
</g>
</g>
</svg>
