<?xml version="1.0" encoding="UTF-8" standalone="no"?>
<!DOCTYPE svg PUBLIC "-//W3C//DTD SVG 1.1//EN"
 "http://www.w3.org/Graphics/SVG/1.1/DTD/svg11.dtd">
<!-- Generated by graphviz version 2.40.1 (20161225.0304)
 -->
<!-- Title: o2::tpc::CTFHeader Pages: 1 -->
<svg width="256pt" height="332pt"
 viewBox="0.00 0.00 255.50 332.00" xmlns="http://www.w3.org/2000/svg" xmlns:xlink="http://www.w3.org/1999/xlink">
<g id="graph0" class="graph" transform="scale(1 1) rotate(0) translate(4 328)">
<title>o2::tpc::CTFHeader</title>
<!-- Node2 -->
<g id="node1" class="node">
<title>Node2</title>
<polygon fill="#bfbfbf" stroke="#000000" points="0,-.5 0,-57.5 109,-57.5 109,-.5 0,-.5"/>
<text text-anchor="middle" x="54.5" y="-45.5" font-family="Helvetica,sans-Serif" font-size="10.00" fill="#000000">o2::tpc::CTFHeader</text>
<polyline fill="none" stroke="#000000" points="0,-38.5 109,-38.5 "/>
<text text-anchor="middle" x="54.5" y="-26.5" font-family="Helvetica,sans-Serif" font-size="10.00" fill="#000000"> </text>
<polyline fill="none" stroke="#000000" points="0,-19.5 109,-19.5 "/>
<text text-anchor="start" x="8" y="-7.5" font-family="Helvetica,sans-Serif" font-size="10.00" fill="#000000">+ ClassDefNV()</text>
</g>
<!-- Node3 -->
<g id="node2" class="node">
<title>Node3</title>
<g id="a_node2"><a xlink:href="../../dd/dd7/structo2_1_1tpc_1_1CompressedClustersCounters.html" target="_top" xlink:title="{o2::tpc::CompressedClusters\lCounters\n||+ ClassDefNV()\l}">
<polygon fill="none" stroke="#000000" points="68.5,-95.5 68.5,-163.5 224.5,-163.5 224.5,-95.5 68.5,-95.5"/>
<text text-anchor="start" x="76.5" y="-151.5" font-family="Helvetica,sans-Serif" font-size="10.00" fill="#000000">o2::tpc::CompressedClusters</text>
<text text-anchor="middle" x="146.5" y="-140.5" font-family="Helvetica,sans-Serif" font-size="10.00" fill="#000000">Counters</text>
<polyline fill="none" stroke="#000000" points="68.5,-133.5 224.5,-133.5 "/>
<text text-anchor="middle" x="146.5" y="-121.5" font-family="Helvetica,sans-Serif" font-size="10.00" fill="#000000"> </text>
<polyline fill="none" stroke="#000000" points="68.5,-114.5 224.5,-114.5 "/>
<text text-anchor="start" x="76.5" y="-102.5" font-family="Helvetica,sans-Serif" font-size="10.00" fill="#000000">+ ClassDefNV()</text>
</a>
</g>
</g>
<!-- Node3&#45;&gt;Node2 -->
<g id="edge1" class="edge">
<title>Node3&#45;&gt;Node2</title>
<path fill="none" stroke="#191970" d="M108.3531,-87.8287C99.0527,-77.6689 89.3109,-67.0271 80.7096,-57.6312"/>
<polygon fill="none" stroke="#191970" points="106.0191,-90.4625 115.353,-95.4753 111.1824,-85.7358 106.0191,-90.4625"/>
</g>
<!-- Node4 -->
<g id="node3" class="node">
<title>Node4</title>
<polygon fill="none" stroke="#bfbfbf" points="1,-266.5 1,-323.5 62,-323.5 62,-266.5 1,-266.5"/>
<text text-anchor="middle" x="31.5" y="-311.5" font-family="Helvetica,sans-Serif" font-size="10.00" fill="#000000">unsigned</text>
<polyline fill="none" stroke="#bfbfbf" points="1,-304.5 62,-304.5 "/>
<text text-anchor="middle" x="31.5" y="-292.5" font-family="Helvetica,sans-Serif" font-size="10.00" fill="#000000"> </text>
<polyline fill="none" stroke="#bfbfbf" points="1,-285.5 62,-285.5 "/>
<text text-anchor="middle" x="31.5" y="-273.5" font-family="Helvetica,sans-Serif" font-size="10.00" fill="#000000"> </text>
</g>
<!-- Node4&#45;&gt;Node2 -->
<g id="edge3" class="edge">
<title>Node4&#45;&gt;Node2</title>
<path fill="none" stroke="#404040" d="M26.1382,-266.4555C19.7644,-227.2927 11.5181,-154.9324 24.5,-95 26.4052,-86.2046 29.5863,-77.1738 33.1821,-68.7253"/>
<polygon fill="none" stroke="#404040" points="33.2619,-68.551 32.1254,-61.43 38.2615,-57.6421 39.398,-64.7631 33.2619,-68.551"/>
<text text-anchor="middle" x="42" y="-127" font-family="Helvetica,sans-Serif" font-size="10.00" fill="#000000"> +flags</text>
</g>
<!-- Node4&#45;&gt;Node3 -->
<g id="edge2" class="edge">
<title>Node4&#45;&gt;Node3</title>
<path fill="none" stroke="#404040" d="M51.5315,-266.1721C69.2615,-240.6563 95.4098,-203.0254 115.7824,-173.7067"/>
<polygon fill="none" stroke="#404040" points="115.8767,-173.5709 116.0156,-166.3611 122.7242,-163.7164 122.5853,-170.9262 115.8767,-173.5709"/>
<text text-anchor="middle" x="178" y="-240" font-family="Helvetica,sans-Serif" font-size="10.00" fill="#000000"> +nAttachedClusters</text>
<text text-anchor="middle" x="178" y="-229" font-family="Helvetica,sans-Serif" font-size="10.00" fill="#000000">+nSliceRows</text>
<text text-anchor="middle" x="178" y="-218" font-family="Helvetica,sans-Serif" font-size="10.00" fill="#000000">+nAttachedClustersReduced</text>
<text text-anchor="middle" x="178" y="-207" font-family="Helvetica,sans-Serif" font-size="10.00" fill="#000000">+nTracks</text>
<text text-anchor="middle" x="178" y="-196" font-family="Helvetica,sans-Serif" font-size="10.00" fill="#000000">+nUnattachedClusters</text>
<text text-anchor="middle" x="178" y="-185" font-family="Helvetica,sans-Serif" font-size="10.00" fill="#000000">+nComppressionModes</text>
</g>
</g>
</svg>
