<?xml version="1.0" encoding="UTF-8" standalone="no"?>
<!DOCTYPE svg PUBLIC "-//W3C//DTD SVG 1.1//EN"
 "http://www.w3.org/Graphics/SVG/1.1/DTD/svg11.dtd">
<!-- Generated by graphviz version 2.40.1 (20161225.0304)
 -->
<!-- Title: o2::framework::ProcessingContext Pages: 1 -->
<!--zoomable 617 -->
<svg id="main" version="1.1" xmlns="http://www.w3.org/2000/svg" xmlns:xlink="http://www.w3.org/1999/xlink" xml:space="preserve" onload="init(evt)">
<style type="text/css"><![CDATA[
.edge:hover path { stroke: red; }
.edge:hover polygon { stroke: red; fill: red; }
]]></style>
<script type="text/javascript"><![CDATA[
var edges = document.getElementsByTagName('g');
if (edges && edges.length) {
  for (var i=0;i<edges.length;i++) {
    if (edges[i].id.substr(0,4)=='edge') {
      edges[i].setAttribute('class','edge');
    }
  }
}
]]></script>
        <defs>
                <circle id="rim" cx="0" cy="0" r="7"/>
                <circle id="rim2" cx="0" cy="0" r="3.5"/>
                <g id="zoomPlus">
                        <use xlink:href="#rim" fill="#404040">
                                <set attributeName="fill" to="#808080" begin="zoomplus.mouseover" end="zoomplus.mouseout"/>
                        </use>
                        <path d="M-4,0h8M0,-4v8" fill="none" stroke="white" stroke-width="1.5" pointer-events="none"/>
                </g>
                <g id="zoomMin">
                        <use xlink:href="#rim" fill="#404040">
                                <set attributeName="fill" to="#808080" begin="zoomminus.mouseover" end="zoomminus.mouseout"/>
                        </use>
                        <path d="M-4,0h8" fill="none" stroke="white" stroke-width="1.5" pointer-events="none"/>
                </g>
                <g id="dirArrow">
                        <path fill="none" stroke="white" stroke-width="1.5" d="M0,-3.0v7 M-2.5,-0.5L0,-3.0L2.5,-0.5"/>
                </g>
               <g id="resetDef">
                       <use xlink:href="#rim2" fill="#404040">
                               <set attributeName="fill" to="#808080" begin="reset.mouseover" end="reset.mouseout"/>
                       </use>
               </g>
        </defs>

<script type="text/javascript">
var viewWidth = 1444;
var viewHeight = 617;
var sectionId = 'dynsection-0';
</script>
<script xlink:href="../../svgpan.js"/>
<svg id="graph" class="graph">
<g id="viewport">
<title>o2::framework::ProcessingContext</title>
<!-- Node1 -->
<g id="node1" class="node">
<title>Node1</title>
<polygon fill="#bfbfbf" stroke="#000000" points="737,-.5 737,-101.5 883,-101.5 883,-.5 737,-.5"/>
<text text-anchor="start" x="745" y="-89.5" font-family="Helvetica,sans-Serif" font-size="10.00" fill="#000000">o2::framework::Processing</text>
<text text-anchor="middle" x="810" y="-78.5" font-family="Helvetica,sans-Serif" font-size="10.00" fill="#000000">Context</text>
<polyline fill="none" stroke="#000000" points="737,-71.5 883,-71.5 "/>
<text text-anchor="middle" x="810" y="-59.5" font-family="Helvetica,sans-Serif" font-size="10.00" fill="#000000"> </text>
<polyline fill="none" stroke="#000000" points="737,-52.5 883,-52.5 "/>
<text text-anchor="start" x="745" y="-40.5" font-family="Helvetica,sans-Serif" font-size="10.00" fill="#000000">+ ProcessingContext()</text>
<text text-anchor="start" x="745" y="-29.5" font-family="Helvetica,sans-Serif" font-size="10.00" fill="#000000">+ inputs()</text>
<text text-anchor="start" x="745" y="-18.5" font-family="Helvetica,sans-Serif" font-size="10.00" fill="#000000">+ services()</text>
<text text-anchor="start" x="745" y="-7.5" font-family="Helvetica,sans-Serif" font-size="10.00" fill="#000000">+ outputs()</text>
</g>
<!-- Node2 -->
<g id="node2" class="node">
<title>Node2</title>
<g id="a_node2"><a xlink:href="../../df/d82/classo2_1_1framework_1_1DataAllocator.html" target="_top" xlink:title="{o2::framework::DataAllocator\n||+ DataAllocator()\l+ newChunk()\l+ newChunk()\l+ adoptChunk()\l+ make()\l+ make_boost()\l+ adopt()\l+ adopt()\l+ adopt()\l+ adopt()\l+ adopt()\l+ adopt_boost()\l+ snapshot()\l+ snapshot()\l+ make()\l+ adopt()\l+ getMemoryResource()\l+ makeVector()\l+ adoptContainer()\l+ adoptContainer()\l+ snapshot()\l+ isAllowed()\l+ findMessageHeader()\l+ findMessageHeader()\l}">
<polygon fill="none" stroke="#000000" points="545.5,-149.5 545.5,-459.5 706.5,-459.5 706.5,-149.5 545.5,-149.5"/>
<text text-anchor="middle" x="626" y="-447.5" font-family="Helvetica,sans-Serif" font-size="10.00" fill="#000000">o2::framework::DataAllocator</text>
<polyline fill="none" stroke="#000000" points="545.5,-440.5 706.5,-440.5 "/>
<text text-anchor="middle" x="626" y="-428.5" font-family="Helvetica,sans-Serif" font-size="10.00" fill="#000000"> </text>
<polyline fill="none" stroke="#000000" points="545.5,-421.5 706.5,-421.5 "/>
<text text-anchor="start" x="553.5" y="-409.5" font-family="Helvetica,sans-Serif" font-size="10.00" fill="#000000">+ DataAllocator()</text>
<text text-anchor="start" x="553.5" y="-398.5" font-family="Helvetica,sans-Serif" font-size="10.00" fill="#000000">+ newChunk()</text>
<text text-anchor="start" x="553.5" y="-387.5" font-family="Helvetica,sans-Serif" font-size="10.00" fill="#000000">+ newChunk()</text>
<text text-anchor="start" x="553.5" y="-376.5" font-family="Helvetica,sans-Serif" font-size="10.00" fill="#000000">+ adoptChunk()</text>
<text text-anchor="start" x="553.5" y="-365.5" font-family="Helvetica,sans-Serif" font-size="10.00" fill="#000000">+ make()</text>
<text text-anchor="start" x="553.5" y="-354.5" font-family="Helvetica,sans-Serif" font-size="10.00" fill="#000000">+ make_boost()</text>
<text text-anchor="start" x="553.5" y="-343.5" font-family="Helvetica,sans-Serif" font-size="10.00" fill="#000000">+ adopt()</text>
<text text-anchor="start" x="553.5" y="-332.5" font-family="Helvetica,sans-Serif" font-size="10.00" fill="#000000">+ adopt()</text>
<text text-anchor="start" x="553.5" y="-321.5" font-family="Helvetica,sans-Serif" font-size="10.00" fill="#000000">+ adopt()</text>
<text text-anchor="start" x="553.5" y="-310.5" font-family="Helvetica,sans-Serif" font-size="10.00" fill="#000000">+ adopt()</text>
<text text-anchor="start" x="553.5" y="-299.5" font-family="Helvetica,sans-Serif" font-size="10.00" fill="#000000">+ adopt()</text>
<text text-anchor="start" x="553.5" y="-288.5" font-family="Helvetica,sans-Serif" font-size="10.00" fill="#000000">+ adopt_boost()</text>
<text text-anchor="start" x="553.5" y="-277.5" font-family="Helvetica,sans-Serif" font-size="10.00" fill="#000000">+ snapshot()</text>
<text text-anchor="start" x="553.5" y="-266.5" font-family="Helvetica,sans-Serif" font-size="10.00" fill="#000000">+ snapshot()</text>
<text text-anchor="start" x="553.5" y="-255.5" font-family="Helvetica,sans-Serif" font-size="10.00" fill="#000000">+ make()</text>
<text text-anchor="start" x="553.5" y="-244.5" font-family="Helvetica,sans-Serif" font-size="10.00" fill="#000000">+ adopt()</text>
<text text-anchor="start" x="553.5" y="-233.5" font-family="Helvetica,sans-Serif" font-size="10.00" fill="#000000">+ getMemoryResource()</text>
<text text-anchor="start" x="553.5" y="-222.5" font-family="Helvetica,sans-Serif" font-size="10.00" fill="#000000">+ makeVector()</text>
<text text-anchor="start" x="553.5" y="-211.5" font-family="Helvetica,sans-Serif" font-size="10.00" fill="#000000">+ adoptContainer()</text>
<text text-anchor="start" x="553.5" y="-200.5" font-family="Helvetica,sans-Serif" font-size="10.00" fill="#000000">+ adoptContainer()</text>
<text text-anchor="start" x="553.5" y="-189.5" font-family="Helvetica,sans-Serif" font-size="10.00" fill="#000000">+ snapshot()</text>
<text text-anchor="start" x="553.5" y="-178.5" font-family="Helvetica,sans-Serif" font-size="10.00" fill="#000000">+ isAllowed()</text>
<text text-anchor="start" x="553.5" y="-167.5" font-family="Helvetica,sans-Serif" font-size="10.00" fill="#000000">+ findMessageHeader()</text>
<text text-anchor="start" x="553.5" y="-156.5" font-family="Helvetica,sans-Serif" font-size="10.00" fill="#000000">+ findMessageHeader()</text>
</a>
</g>
</g>
<!-- Node2&#45;&gt;Node1 -->
<g id="edge1" class="edge">
<title>Node2&#45;&gt;Node1</title>
<path fill="none" stroke="#404040" d="M706.5596,-162.6647C709.6858,-158.016 712.8369,-153.4488 716,-149 725.8607,-135.1311 729.4201,-132.4694 741,-120 743.8532,-116.9276 746.7997,-113.8043 749.7947,-110.6688"/>
<polygon fill="none" stroke="#404040" points="749.9918,-110.4646 751.2815,-103.3698 758.3267,-101.8315 757.037,-108.9264 749.9918,-110.4646"/>
<text text-anchor="middle" x="773.5" y="-123" font-family="Helvetica,sans-Serif" font-size="10.00" fill="#000000"> +mAllocator</text>
</g>
<!-- Node3 -->
<g id="node3" class="node">
<title>Node3</title>
<g id="a_node3"><a xlink:href="../../dc/dba/structo2_1_1framework_1_1ServiceRegistry.html" target="_top" xlink:title="{o2::framework::ServiceRegistry\n||+ ServiceRegistry()\l+ ServiceRegistry()\l+ operator=()\l+ preProcessingCallbacks()\l+ postProcessingCallbacks()\l+ preDanglingCallbacks()\l+ postDanglingCallbacks()\l+ preEOSCallbacks()\l+ postEOSCallbacks()\l+ declareService()\l+ bindService()\l+ registerService()\l+ getPos()\l+ get()\l+ registerService()\l+ registerService()\l+ registerService()\l+ active()\l+ get()\l}">
<polygon fill="none" stroke="#000000" points="725,-177 725,-432 895,-432 895,-177 725,-177"/>
<text text-anchor="middle" x="810" y="-420" font-family="Helvetica,sans-Serif" font-size="10.00" fill="#000000">o2::framework::ServiceRegistry</text>
<polyline fill="none" stroke="#000000" points="725,-413 895,-413 "/>
<text text-anchor="middle" x="810" y="-401" font-family="Helvetica,sans-Serif" font-size="10.00" fill="#000000"> </text>
<polyline fill="none" stroke="#000000" points="725,-394 895,-394 "/>
<text text-anchor="start" x="733" y="-382" font-family="Helvetica,sans-Serif" font-size="10.00" fill="#000000">+ ServiceRegistry()</text>
<text text-anchor="start" x="733" y="-371" font-family="Helvetica,sans-Serif" font-size="10.00" fill="#000000">+ ServiceRegistry()</text>
<text text-anchor="start" x="733" y="-360" font-family="Helvetica,sans-Serif" font-size="10.00" fill="#000000">+ operator=()</text>
<text text-anchor="start" x="733" y="-349" font-family="Helvetica,sans-Serif" font-size="10.00" fill="#000000">+ preProcessingCallbacks()</text>
<text text-anchor="start" x="733" y="-338" font-family="Helvetica,sans-Serif" font-size="10.00" fill="#000000">+ postProcessingCallbacks()</text>
<text text-anchor="start" x="733" y="-327" font-family="Helvetica,sans-Serif" font-size="10.00" fill="#000000">+ preDanglingCallbacks()</text>
<text text-anchor="start" x="733" y="-316" font-family="Helvetica,sans-Serif" font-size="10.00" fill="#000000">+ postDanglingCallbacks()</text>
<text text-anchor="start" x="733" y="-305" font-family="Helvetica,sans-Serif" font-size="10.00" fill="#000000">+ preEOSCallbacks()</text>
<text text-anchor="start" x="733" y="-294" font-family="Helvetica,sans-Serif" font-size="10.00" fill="#000000">+ postEOSCallbacks()</text>
<text text-anchor="start" x="733" y="-283" font-family="Helvetica,sans-Serif" font-size="10.00" fill="#000000">+ declareService()</text>
<text text-anchor="start" x="733" y="-272" font-family="Helvetica,sans-Serif" font-size="10.00" fill="#000000">+ bindService()</text>
<text text-anchor="start" x="733" y="-261" font-family="Helvetica,sans-Serif" font-size="10.00" fill="#000000">+ registerService()</text>
<text text-anchor="start" x="733" y="-250" font-family="Helvetica,sans-Serif" font-size="10.00" fill="#000000">+ getPos()</text>
<text text-anchor="start" x="733" y="-239" font-family="Helvetica,sans-Serif" font-size="10.00" fill="#000000">+ get()</text>
<text text-anchor="start" x="733" y="-228" font-family="Helvetica,sans-Serif" font-size="10.00" fill="#000000">+ registerService()</text>
<text text-anchor="start" x="733" y="-217" font-family="Helvetica,sans-Serif" font-size="10.00" fill="#000000">+ registerService()</text>
<text text-anchor="start" x="733" y="-206" font-family="Helvetica,sans-Serif" font-size="10.00" fill="#000000">+ registerService()</text>
<text text-anchor="start" x="733" y="-195" font-family="Helvetica,sans-Serif" font-size="10.00" fill="#000000">+ active()</text>
<text text-anchor="start" x="733" y="-184" font-family="Helvetica,sans-Serif" font-size="10.00" fill="#000000">+ get()</text>
</a>
</g>
</g>
<!-- Node3&#45;&gt;Node1 -->
<g id="edge2" class="edge">
<title>Node3&#45;&gt;Node1</title>
<path fill="none" stroke="#404040" d="M810,-176.636C810,-154.8331 810,-133.0742 810,-113.94"/>
<polygon fill="none" stroke="#404040" points="810.0001,-113.771 806,-107.771 810,-101.771 814,-107.771 810.0001,-113.771"/>
<text text-anchor="middle" x="841.5" y="-123" font-family="Helvetica,sans-Serif" font-size="10.00" fill="#000000"> +mServices</text>
</g>
<!-- Node4 -->
<g id="node4" class="node">
<title>Node4</title>
<polygon fill="none" stroke="#bfbfbf" points="0,-529.5 0,-608.5 162,-608.5 162,-529.5 0,-529.5"/>
<text text-anchor="start" x="8" y="-596.5" font-family="Helvetica,sans-Serif" font-size="10.00" fill="#000000">array&lt; o2::framework</text>
<text text-anchor="start" x="8" y="-585.5" font-family="Helvetica,sans-Serif" font-size="10.00" fill="#000000">::ServiceMeta, MAX_SERVICES</text>
<text text-anchor="middle" x="81" y="-574.5" font-family="Helvetica,sans-Serif" font-size="10.00" fill="#000000">+MAX_DISTANCE &gt;</text>
<polyline fill="none" stroke="#bfbfbf" points="0,-567.5 162,-567.5 "/>
<text text-anchor="middle" x="81" y="-555.5" font-family="Helvetica,sans-Serif" font-size="10.00" fill="#000000"> </text>
<polyline fill="none" stroke="#bfbfbf" points="0,-548.5 162,-548.5 "/>
<text text-anchor="middle" x="81" y="-536.5" font-family="Helvetica,sans-Serif" font-size="10.00" fill="#000000"> </text>
</g>
<!-- Node4&#45;&gt;Node3 -->
<g id="edge3" class="edge">
<title>Node4&#45;&gt;Node3</title>
<path fill="none" stroke="#404040" d="M140.3099,-529.3419C172.5041,-510.0519 213.8426,-488.753 254,-478 303.5168,-464.7409 670.7896,-485.9453 715,-460 723.9229,-454.7635 732.1164,-448.3273 739.6212,-441.0833"/>
<polygon fill="none" stroke="#404040" points="739.8075,-440.8892 741.0766,-433.7906 748.1172,-432.2319 746.8481,-439.3305 739.8075,-440.8892"/>
<text text-anchor="middle" x="297.5" y="-492" font-family="Helvetica,sans-Serif" font-size="10.00" fill="#000000"> +mServicesMeta</text>
</g>
<!-- Node5 -->
<g id="node5" class="node">
<title>Node5</title>
<polygon fill="none" stroke="#bfbfbf" points="180,-535 180,-603 368,-603 368,-535 180,-535"/>
<text text-anchor="start" x="188" y="-591" font-family="Helvetica,sans-Serif" font-size="10.00" fill="#000000">array&lt; unsigned int,</text>
<text text-anchor="middle" x="274" y="-580" font-family="Helvetica,sans-Serif" font-size="10.00" fill="#000000"> MAX_SERVICES+MAX_DISTANCE &gt;</text>
<polyline fill="none" stroke="#bfbfbf" points="180,-573 368,-573 "/>
<text text-anchor="middle" x="274" y="-561" font-family="Helvetica,sans-Serif" font-size="10.00" fill="#000000"> </text>
<polyline fill="none" stroke="#bfbfbf" points="180,-554 368,-554 "/>
<text text-anchor="middle" x="274" y="-542" font-family="Helvetica,sans-Serif" font-size="10.00" fill="#000000"> </text>
</g>
<!-- Node5&#45;&gt;Node3 -->
<g id="edge4" class="edge">
<title>Node5&#45;&gt;Node3</title>
<path fill="none" stroke="#404040" d="M311.656,-534.955C336.7458,-514.4852 371.5231,-490.1205 407,-478 471.8793,-455.8343 656.2077,-495.2719 715,-460 723.7743,-454.7359 731.8479,-448.3198 739.2578,-441.1269"/>
<polygon fill="none" stroke="#404040" points="739.3594,-441.0206 740.6159,-433.9198 747.6537,-432.3486 746.3973,-439.4494 739.3594,-441.0206"/>
<text text-anchor="middle" x="447.5" y="-492" font-family="Helvetica,sans-Serif" font-size="10.00" fill="#000000"> +mServicesKey</text>
</g>
<!-- Node6 -->
<g id="node6" class="node">
<title>Node6</title>
<polygon fill="none" stroke="#bfbfbf" points="386,-535 386,-603 534,-603 534,-535 386,-535"/>
<text text-anchor="start" x="394" y="-591" font-family="Helvetica,sans-Serif" font-size="10.00" fill="#000000">vector&lt; o2::framework</text>
<text text-anchor="middle" x="460" y="-580" font-family="Helvetica,sans-Serif" font-size="10.00" fill="#000000">::ServiceDanglingHandle &gt;</text>
<polyline fill="none" stroke="#bfbfbf" points="386,-573 534,-573 "/>
<text text-anchor="middle" x="460" y="-561" font-family="Helvetica,sans-Serif" font-size="10.00" fill="#000000"> </text>
<polyline fill="none" stroke="#bfbfbf" points="386,-554 534,-554 "/>
<text text-anchor="middle" x="460" y="-542" font-family="Helvetica,sans-Serif" font-size="10.00" fill="#000000"> </text>
</g>
<!-- Node6&#45;&gt;Node3 -->
<g id="edge5" class="edge">
<title>Node6&#45;&gt;Node3</title>
<path fill="none" stroke="#404040" d="M475.3455,-534.6341C486.2042,-514.5839 502.7917,-490.7895 525,-478 598.505,-435.6694 643.0624,-504.9427 715,-460 723.5815,-454.6387 731.5016,-448.1898 738.7916,-441.0087"/>
<polygon fill="none" stroke="#404040" points="738.8165,-440.9824 740.033,-433.8746 747.0619,-432.2637 745.8454,-439.3715 738.8165,-440.9824"/>
<text text-anchor="middle" x="586.5" y="-497.5" font-family="Helvetica,sans-Serif" font-size="10.00" fill="#000000"> +mPreDanglingHandles</text>
<text text-anchor="middle" x="586.5" y="-486.5" font-family="Helvetica,sans-Serif" font-size="10.00" fill="#000000">+mPostDanglingHandles</text>
</g>
<!-- Node7 -->
<g id="node7" class="node">
<title>Node7</title>
<polygon fill="none" stroke="#bfbfbf" points="552.5,-535 552.5,-603 709.5,-603 709.5,-535 552.5,-535"/>
<text text-anchor="start" x="560.5" y="-591" font-family="Helvetica,sans-Serif" font-size="10.00" fill="#000000">vector&lt; o2::framework</text>
<text text-anchor="middle" x="631" y="-580" font-family="Helvetica,sans-Serif" font-size="10.00" fill="#000000">::ServiceProcessingHandle &gt;</text>
<polyline fill="none" stroke="#bfbfbf" points="552.5,-573 709.5,-573 "/>
<text text-anchor="middle" x="631" y="-561" font-family="Helvetica,sans-Serif" font-size="10.00" fill="#000000"> </text>
<polyline fill="none" stroke="#bfbfbf" points="552.5,-554 709.5,-554 "/>
<text text-anchor="middle" x="631" y="-542" font-family="Helvetica,sans-Serif" font-size="10.00" fill="#000000"> </text>
</g>
<!-- Node7&#45;&gt;Node3 -->
<g id="edge6" class="edge">
<title>Node7&#45;&gt;Node3</title>
<path fill="none" stroke="#404040" d="M640.6339,-534.7533C647.3852,-515.9894 658.0921,-493.4726 674,-478 688.2659,-464.1244 700.0125,-473.093 715,-460 721.5519,-454.2763 727.7924,-447.9879 733.7128,-441.3222"/>
<polygon fill="none" stroke="#404040" points="733.8356,-441.1771 734.6577,-434.013 741.5869,-432.0164 740.7648,-439.1805 733.8356,-441.1771"/>
<text text-anchor="middle" x="740" y="-497.5" font-family="Helvetica,sans-Serif" font-size="10.00" fill="#000000"> +mPreProcessingHandles</text>
<text text-anchor="middle" x="740" y="-486.5" font-family="Helvetica,sans-Serif" font-size="10.00" fill="#000000">+mPostProcessingHandles</text>
</g>
<!-- Node8 -->
<g id="node8" class="node">
<title>Node8</title>
<polygon fill="none" stroke="#bfbfbf" points="728,-535 728,-603 892,-603 892,-535 728,-535"/>
<text text-anchor="start" x="736" y="-591" font-family="Helvetica,sans-Serif" font-size="10.00" fill="#000000">array&lt; void *, MAX</text>
<text text-anchor="middle" x="810" y="-580" font-family="Helvetica,sans-Serif" font-size="10.00" fill="#000000">_SERVICES+MAX_DISTANCE &gt;</text>
<polyline fill="none" stroke="#bfbfbf" points="728,-573 892,-573 "/>
<text text-anchor="middle" x="810" y="-561" font-family="Helvetica,sans-Serif" font-size="10.00" fill="#000000"> </text>
<polyline fill="none" stroke="#bfbfbf" points="728,-554 892,-554 "/>
<text text-anchor="middle" x="810" y="-542" font-family="Helvetica,sans-Serif" font-size="10.00" fill="#000000"> </text>
</g>
<!-- Node8&#45;&gt;Node3 -->
<g id="edge7" class="edge">
<title>Node8&#45;&gt;Node3</title>
<path fill="none" stroke="#404040" d="M810,-534.9627C810,-511.3112 810,-478.0587 810,-444.1552"/>
<polygon fill="none" stroke="#404040" points="810.0001,-444.1506 806,-438.1506 810,-432.1506 814,-438.1506 810.0001,-444.1506"/>
<text text-anchor="middle" x="855" y="-492" font-family="Helvetica,sans-Serif" font-size="10.00" fill="#000000"> +mServicesValue</text>
</g>
<!-- Node9 -->
<g id="node9" class="node">
<title>Node9</title>
<polygon fill="none" stroke="#bfbfbf" points="910,-535 910,-603 1040,-603 1040,-535 910,-535"/>
<text text-anchor="start" x="918" y="-591" font-family="Helvetica,sans-Serif" font-size="10.00" fill="#000000">vector&lt; o2::framework</text>
<text text-anchor="middle" x="975" y="-580" font-family="Helvetica,sans-Serif" font-size="10.00" fill="#000000">::ServiceSpec &gt;</text>
<polyline fill="none" stroke="#bfbfbf" points="910,-573 1040,-573 "/>
<text text-anchor="middle" x="975" y="-561" font-family="Helvetica,sans-Serif" font-size="10.00" fill="#000000"> </text>
<polyline fill="none" stroke="#bfbfbf" points="910,-554 1040,-554 "/>
<text text-anchor="middle" x="975" y="-542" font-family="Helvetica,sans-Serif" font-size="10.00" fill="#000000"> </text>
</g>
<!-- Node9&#45;&gt;Node3 -->
<g id="edge8" class="edge">
<title>Node9&#45;&gt;Node3</title>
<path fill="none" stroke="#404040" d="M952.3187,-534.8256C938.2301,-513.4398 919.8487,-485.2491 904,-460 900.4362,-454.3223 896.8163,-448.5158 893.1743,-442.6409"/>
<polygon fill="none" stroke="#404040" points="892.9102,-442.2136 886.3534,-439.2123 886.602,-432.0054 893.1588,-435.0068 892.9102,-442.2136"/>
<text text-anchor="middle" x="961" y="-492" font-family="Helvetica,sans-Serif" font-size="10.00" fill="#000000"> +mSpecs</text>
</g>
<!-- Node10 -->
<g id="node10" class="node">
<title>Node10</title>
<polygon fill="none" stroke="#bfbfbf" points="1058,-535 1058,-603 1188,-603 1188,-535 1058,-535"/>
<text text-anchor="start" x="1066" y="-591" font-family="Helvetica,sans-Serif" font-size="10.00" fill="#000000">vector&lt; o2::framework</text>
<text text-anchor="middle" x="1123" y="-580" font-family="Helvetica,sans-Serif" font-size="10.00" fill="#000000">::ServiceEOSHandle &gt;</text>
<polyline fill="none" stroke="#bfbfbf" points="1058,-573 1188,-573 "/>
<text text-anchor="middle" x="1123" y="-561" font-family="Helvetica,sans-Serif" font-size="10.00" fill="#000000"> </text>
<polyline fill="none" stroke="#bfbfbf" points="1058,-554 1188,-554 "/>
<text text-anchor="middle" x="1123" y="-542" font-family="Helvetica,sans-Serif" font-size="10.00" fill="#000000"> </text>
</g>
<!-- Node10&#45;&gt;Node3 -->
<g id="edge9" class="edge">
<title>Node10&#45;&gt;Node3</title>
<path fill="none" stroke="#404040" d="M1082.3715,-534.9372C1057.2292,-515.5138 1023.4547,-492.2703 990,-478 954.0808,-462.6785 935.8571,-482.5846 904,-460 896.2192,-454.4839 888.9652,-448.1018 882.222,-441.1352"/>
<polygon fill="none" stroke="#404040" points="882.0152,-440.9073 875.0213,-439.1509 873.9526,-432.0194 880.9466,-433.7758 882.0152,-440.9073"/>
<text text-anchor="middle" x="1096.5" y="-497.5" font-family="Helvetica,sans-Serif" font-size="10.00" fill="#000000"> +mPreEOSHandles</text>
<text text-anchor="middle" x="1096.5" y="-486.5" font-family="Helvetica,sans-Serif" font-size="10.00" fill="#000000">+mPostEOSHandles</text>
</g>
<!-- Node11 -->
<g id="node11" class="node">
<title>Node11</title>
<polygon fill="none" stroke="#bfbfbf" points="1206.5,-540.5 1206.5,-597.5 1235.5,-597.5 1235.5,-540.5 1206.5,-540.5"/>
<text text-anchor="middle" x="1221" y="-585.5" font-family="Helvetica,sans-Serif" font-size="10.00" fill="#000000">int</text>
<polyline fill="none" stroke="#bfbfbf" points="1206.5,-578.5 1235.5,-578.5 "/>
<text text-anchor="middle" x="1221" y="-566.5" font-family="Helvetica,sans-Serif" font-size="10.00" fill="#000000"> </text>
<polyline fill="none" stroke="#bfbfbf" points="1206.5,-559.5 1235.5,-559.5 "/>
<text text-anchor="middle" x="1221" y="-547.5" font-family="Helvetica,sans-Serif" font-size="10.00" fill="#000000"> </text>
</g>
<!-- Node11&#45;&gt;Node3 -->
<g id="edge10" class="edge">
<title>Node11&#45;&gt;Node3</title>
<path fill="none" stroke="#404040" d="M1207.5331,-540.0773C1195.7363,-518.5255 1176.3484,-490.7152 1150,-478 1100.6348,-454.1773 950.7276,-488.6526 904,-460 895.3019,-454.6665 887.3012,-448.1985 879.9606,-440.9678"/>
<polygon fill="none" stroke="#404040" points="879.8785,-440.8808 872.8516,-439.261 871.6442,-432.1516 878.6711,-433.7715 879.8785,-440.8808"/>
<text text-anchor="middle" x="1244.5" y="-503" font-family="Helvetica,sans-Serif" font-size="10.00" fill="#000000"> +MAX_DISTANCE</text>
<text text-anchor="middle" x="1244.5" y="-492" font-family="Helvetica,sans-Serif" font-size="10.00" fill="#000000">+MAX_SERVICES</text>
<text text-anchor="middle" x="1244.5" y="-481" font-family="Helvetica,sans-Serif" font-size="10.00" fill="#000000">+MAX_SERVICES_MASK</text>
</g>
<!-- Node12 -->
<g id="node12" class="node">
<title>Node12</title>
<polygon fill="none" stroke="#bfbfbf" points="1289,-529.5 1289,-608.5 1429,-608.5 1429,-529.5 1289,-529.5"/>
<text text-anchor="start" x="1297" y="-596.5" font-family="Helvetica,sans-Serif" font-size="10.00" fill="#000000">array&lt; std::atomic</text>
<text text-anchor="start" x="1297" y="-585.5" font-family="Helvetica,sans-Serif" font-size="10.00" fill="#000000">&lt; bool &gt;, MAX_SERVICES</text>
<text text-anchor="middle" x="1359" y="-574.5" font-family="Helvetica,sans-Serif" font-size="10.00" fill="#000000">+MAX_DISTANCE &gt;</text>
<polyline fill="none" stroke="#bfbfbf" points="1289,-567.5 1429,-567.5 "/>
<text text-anchor="middle" x="1359" y="-555.5" font-family="Helvetica,sans-Serif" font-size="10.00" fill="#000000"> </text>
<polyline fill="none" stroke="#bfbfbf" points="1289,-548.5 1429,-548.5 "/>
<text text-anchor="middle" x="1359" y="-536.5" font-family="Helvetica,sans-Serif" font-size="10.00" fill="#000000"> </text>
</g>
<!-- Node12&#45;&gt;Node3 -->
<g id="edge11" class="edge">
<title>Node12&#45;&gt;Node3</title>
<path fill="none" stroke="#404040" d="M1346.1194,-529.3246C1337.8034,-510.4071 1324.9279,-489.4511 1306,-478 1229.4893,-431.7123 980.8862,-505.6614 904,-460 895.1299,-454.7322 886.992,-448.2726 879.544,-441.0117"/>
<polygon fill="none" stroke="#404040" points="879.3822,-440.8415 872.3493,-439.2482 871.1152,-432.1434 878.148,-433.7368 879.3822,-440.8415"/>
<text text-anchor="middle" x="1386" y="-492" font-family="Helvetica,sans-Serif" font-size="10.00" fill="#000000"> +mServicesBooked</text>
</g>
<!-- Node13 -->
<g id="node13" class="node">
<title>Node13</title>
<g id="a_node13"><a xlink:href="../../df/d24/classo2_1_1framework_1_1InputRecord.html" target="_top" xlink:title="The input API of the Data Processing Layer This class holds the inputs which are valid for processing...">
<polygon fill="none" stroke="#000000" points="913,-210 913,-399 1065,-399 1065,-210 913,-210"/>
<text text-anchor="middle" x="989" y="-387" font-family="Helvetica,sans-Serif" font-size="10.00" fill="#000000">o2::framework::InputRecord</text>
<polyline fill="none" stroke="#000000" points="913,-380 1065,-380 "/>
<text text-anchor="middle" x="989" y="-368" font-family="Helvetica,sans-Serif" font-size="10.00" fill="#000000"> </text>
<polyline fill="none" stroke="#000000" points="913,-361 1065,-361 "/>
<text text-anchor="start" x="921" y="-349" font-family="Helvetica,sans-Serif" font-size="10.00" fill="#000000">+ InputRecord()</text>
<text text-anchor="start" x="921" y="-338" font-family="Helvetica,sans-Serif" font-size="10.00" fill="#000000">+ getPos()</text>
<text text-anchor="start" x="921" y="-327" font-family="Helvetica,sans-Serif" font-size="10.00" fill="#000000">+ getPos()</text>
<text text-anchor="start" x="921" y="-316" font-family="Helvetica,sans-Serif" font-size="10.00" fill="#000000">+ getByPos()</text>
<text text-anchor="start" x="921" y="-305" font-family="Helvetica,sans-Serif" font-size="10.00" fill="#000000">+ getNofParts()</text>
<text text-anchor="start" x="921" y="-294" font-family="Helvetica,sans-Serif" font-size="10.00" fill="#000000">+ get()</text>
<text text-anchor="start" x="921" y="-283" font-family="Helvetica,sans-Serif" font-size="10.00" fill="#000000">+ get_boost()</text>
<text text-anchor="start" x="921" y="-272" font-family="Helvetica,sans-Serif" font-size="10.00" fill="#000000">+ isValid()</text>
<text text-anchor="start" x="921" y="-261" font-family="Helvetica,sans-Serif" font-size="10.00" fill="#000000">+ isValid()</text>
<text text-anchor="start" x="921" y="-250" font-family="Helvetica,sans-Serif" font-size="10.00" fill="#000000">+ isValid()</text>
<text text-anchor="start" x="921" y="-239" font-family="Helvetica,sans-Serif" font-size="10.00" fill="#000000">+ size()</text>
<text text-anchor="start" x="921" y="-228" font-family="Helvetica,sans-Serif" font-size="10.00" fill="#000000">+ begin()</text>
<text text-anchor="start" x="921" y="-217" font-family="Helvetica,sans-Serif" font-size="10.00" fill="#000000">+ end()</text>
</a>
</g>
</g>
<!-- Node13&#45;&gt;Node1 -->
<g id="edge12" class="edge">
<title>Node13&#45;&gt;Node1</title>
<path fill="none" stroke="#404040" d="M942.0878,-209.693C930.558,-189.0898 917.5906,-167.838 904,-149 893.6966,-134.7184 889.1346,-132.7622 877,-120 874.093,-116.9427 871.1073,-113.8168 868.0866,-110.6656"/>
<polygon fill="none" stroke="#404040" points="867.8349,-110.4038 860.7929,-108.8513 859.5175,-101.7538 866.5595,-103.3064 867.8349,-110.4038"/>
<text text-anchor="middle" x="913" y="-123" font-family="Helvetica,sans-Serif" font-size="10.00" fill="#000000"> +mInputs</text>
</g>
</g>
</svg>
        <g id="navigator" transform="translate(0 0)" fill="#404254">
                <rect fill="#f2f5e9" fill-opacity="0.5" stroke="#606060" stroke-width=".5" x="0" y="0" width="60" height="60"/>
                <use id="zoomplus" xlink:href="#zoomPlus" x="17" y="9" onmousedown="handleZoom(evt,'in')"/>
                <use id="zoomminus" xlink:href="#zoomMin" x="42" y="9" onmousedown="handleZoom(evt,'out')"/>
                <use id="reset" xlink:href="#resetDef" x="30" y="36" onmousedown="handleReset()"/>
                <g id="arrowUp" xlink:href="#dirArrow" transform="translate(30 24)" onmousedown="handlePan(0,-1)">
                  <use xlink:href="#rim" fill="#404040">
                        <set attributeName="fill" to="#808080" begin="arrowUp.mouseover" end="arrowUp.mouseout"/>
                  </use>
                  <path fill="none" stroke="white" stroke-width="1.5" d="M0,-3.0v7 M-2.5,-0.5L0,-3.0L2.5,-0.5"/>
                </g>
                <g id="arrowRight" xlink:href="#dirArrow" transform="rotate(90) translate(36 -43)" onmousedown="handlePan(1,0)">
                  <use xlink:href="#rim" fill="#404040">
                        <set attributeName="fill" to="#808080" begin="arrowRight.mouseover" end="arrowRight.mouseout"/>
                  </use>
                  <path fill="none" stroke="white" stroke-width="1.5" d="M0,-3.0v7 M-2.5,-0.5L0,-3.0L2.5,-0.5"/>
                </g>
                <g id="arrowDown" xlink:href="#dirArrow" transform="rotate(180) translate(-30 -48)" onmousedown="handlePan(0,1)">
                  <use xlink:href="#rim" fill="#404040">
                        <set attributeName="fill" to="#808080" begin="arrowDown.mouseover" end="arrowDown.mouseout"/>
                  </use>
                  <path fill="none" stroke="white" stroke-width="1.5" d="M0,-3.0v7 M-2.5,-0.5L0,-3.0L2.5,-0.5"/>
                </g>
                <g id="arrowLeft" xlink:href="#dirArrow" transform="rotate(270) translate(-36 17)" onmousedown="handlePan(-1,0)">
                  <use xlink:href="#rim" fill="#404040">
                        <set attributeName="fill" to="#808080" begin="arrowLeft.mouseover" end="arrowLeft.mouseout"/>
                  </use>
                  <path fill="none" stroke="white" stroke-width="1.5" d="M0,-3.0v7 M-2.5,-0.5L0,-3.0L2.5,-0.5"/>
                </g>
        </g>
        <svg viewBox="0 0 15 15" width="100%" height="30px" preserveAspectRatio="xMaxYMin meet">
         <g id="arrow_out" transform="scale(0.3 0.3)">
          <a xlink:href="classo2_1_1framework_1_1ProcessingContext__coll__graph_org.svg" target="_base">
           <rect id="button" ry="5" rx="5" y="6" x="6" height="38" width="38"
                fill="#f2f5e9" fill-opacity="0.5" stroke="#606060" stroke-width="1.0"/>
           <path id="arrow"
             d="M 11.500037,31.436501 C 11.940474,20.09759 22.043105,11.32322 32.158766,21.979434 L 37.068811,17.246167 C 37.068811,17.246167 37.088388,32 37.088388,32 L 22.160133,31.978069 C 22.160133,31.978069 26.997745,27.140456 26.997745,27.140456 C 18.528582,18.264221 13.291696,25.230495 11.500037,31.436501 z"
             style="fill:#404040;"/>
          </a>
         </g>
        </svg>
</svg>
