<?xml version="1.0" encoding="UTF-8" standalone="no"?>
<!DOCTYPE svg PUBLIC "-//W3C//DTD SVG 1.1//EN"
 "http://www.w3.org/Graphics/SVG/1.1/DTD/svg11.dtd">
<!-- Generated by graphviz version 2.40.1 (20161225.0304)
 -->
<!-- Title: o2::zdc::Digitizer::ModuleConfAux Pages: 1 -->
<svg width="162pt" height="204pt"
 viewBox="0.00 0.00 162.00 204.00" xmlns="http://www.w3.org/2000/svg" xmlns:xlink="http://www.w3.org/1999/xlink">
<g id="graph0" class="graph" transform="scale(1 1) rotate(0) translate(4 200)">
<title>o2::zdc::Digitizer::ModuleConfAux</title>
<!-- Node1 -->
<g id="node1" class="node">
<title>Node1</title>
<polygon fill="#bfbfbf" stroke="#000000" points="0,-.5 0,-79.5 112,-79.5 112,-.5 0,-.5"/>
<text text-anchor="start" x="8" y="-67.5" font-family="Helvetica,sans-Serif" font-size="10.00" fill="#000000">o2::zdc::Digitizer</text>
<text text-anchor="middle" x="56" y="-56.5" font-family="Helvetica,sans-Serif" font-size="10.00" fill="#000000">::ModuleConfAux</text>
<polyline fill="none" stroke="#000000" points="0,-49.5 112,-49.5 "/>
<text text-anchor="middle" x="56" y="-37.5" font-family="Helvetica,sans-Serif" font-size="10.00" fill="#000000"> </text>
<polyline fill="none" stroke="#000000" points="0,-30.5 112,-30.5 "/>
<text text-anchor="start" x="8" y="-18.5" font-family="Helvetica,sans-Serif" font-size="10.00" fill="#000000">+ ModuleConfAux()</text>
<text text-anchor="start" x="8" y="-7.5" font-family="Helvetica,sans-Serif" font-size="10.00" fill="#000000">+ ModuleConfAux()</text>
</g>
<!-- Node2 -->
<g id="node2" class="node">
<title>Node2</title>
<polygon fill="none" stroke="#bfbfbf" points="10.5,-138.5 10.5,-195.5 39.5,-195.5 39.5,-138.5 10.5,-138.5"/>
<text text-anchor="middle" x="25" y="-183.5" font-family="Helvetica,sans-Serif" font-size="10.00" fill="#000000">int</text>
<polyline fill="none" stroke="#bfbfbf" points="10.5,-176.5 39.5,-176.5 "/>
<text text-anchor="middle" x="25" y="-164.5" font-family="Helvetica,sans-Serif" font-size="10.00" fill="#000000"> </text>
<polyline fill="none" stroke="#bfbfbf" points="10.5,-157.5 39.5,-157.5 "/>
<text text-anchor="middle" x="25" y="-145.5" font-family="Helvetica,sans-Serif" font-size="10.00" fill="#000000"> </text>
</g>
<!-- Node2&#45;&gt;Node1 -->
<g id="edge1" class="edge">
<title>Node2&#45;&gt;Node1</title>
<path fill="none" stroke="#404040" d="M31.957,-138.4987C35.3142,-124.7452 39.4489,-107.8063 43.337,-91.8775"/>
<polygon fill="none" stroke="#404040" points="43.3996,-91.6207 40.9365,-84.8433 46.2453,-79.963 48.7083,-86.7404 43.3996,-91.6207"/>
<text text-anchor="middle" x="52.5" y="-106.5" font-family="Helvetica,sans-Serif" font-size="10.00" fill="#000000"> +id</text>
</g>
<!-- Node3 -->
<g id="node3" class="node">
<title>Node3</title>
<polygon fill="none" stroke="#bfbfbf" points="57.5,-138.5 57.5,-195.5 118.5,-195.5 118.5,-138.5 57.5,-138.5"/>
<text text-anchor="middle" x="88" y="-183.5" font-family="Helvetica,sans-Serif" font-size="10.00" fill="#000000">unsigned</text>
<polyline fill="none" stroke="#bfbfbf" points="57.5,-176.5 118.5,-176.5 "/>
<text text-anchor="middle" x="88" y="-164.5" font-family="Helvetica,sans-Serif" font-size="10.00" fill="#000000"> </text>
<polyline fill="none" stroke="#bfbfbf" points="57.5,-157.5 118.5,-157.5 "/>
<text text-anchor="middle" x="88" y="-145.5" font-family="Helvetica,sans-Serif" font-size="10.00" fill="#000000"> </text>
</g>
<!-- Node3&#45;&gt;Node1 -->
<g id="edge2" class="edge">
<title>Node3&#45;&gt;Node1</title>
<path fill="none" stroke="#404040" d="M80.8186,-138.4987C77.3531,-124.7452 73.085,-107.8063 69.0715,-91.8775"/>
<polygon fill="none" stroke="#404040" points="69.0015,-91.5993 63.6567,-86.7585 66.0694,-79.963 71.4142,-84.8038 69.0015,-91.5993"/>
<text text-anchor="middle" x="114.5" y="-112" font-family="Helvetica,sans-Serif" font-size="10.00" fill="#000000"> +readChannels</text>
<text text-anchor="middle" x="114.5" y="-101" font-family="Helvetica,sans-Serif" font-size="10.00" fill="#000000">+trigChannels</text>
</g>
</g>
</svg>
