<?xml version="1.0" encoding="UTF-8" standalone="no"?>
<!DOCTYPE svg PUBLIC "-//W3C//DTD SVG 1.1//EN"
 "http://www.w3.org/Graphics/SVG/1.1/DTD/svg11.dtd">
<!-- Generated by graphviz version 2.40.1 (20161225.0304)
 -->
<!-- Title: o2::ft0::EventData Pages: 1 -->
<svg width="425pt" height="325pt"
 viewBox="0.00 0.00 424.50 325.00" xmlns="http://www.w3.org/2000/svg" xmlns:xlink="http://www.w3.org/1999/xlink">
<g id="graph0" class="graph" transform="scale(1 1) rotate(0) translate(4 321)">
<title>o2::ft0::EventData</title>
<!-- Node1 -->
<g id="node1" class="node">
<title>Node1</title>
<polygon fill="#bfbfbf" stroke="#000000" points="91.5,-.5 91.5,-101.5 216.5,-101.5 216.5,-.5 91.5,-.5"/>
<text text-anchor="middle" x="154" y="-89.5" font-family="Helvetica,sans-Serif" font-size="10.00" fill="#000000">o2::ft0::EventData</text>
<polyline fill="none" stroke="#000000" points="91.5,-82.5 216.5,-82.5 "/>
<text text-anchor="start" x="99.5" y="-70.5" font-family="Helvetica,sans-Serif" font-size="10.00" fill="#000000">+ isDoubleEvent</text>
<text text-anchor="start" x="99.5" y="-59.5" font-family="Helvetica,sans-Serif" font-size="10.00" fill="#000000">+ isTimeInfoNOTvalid</text>
<polyline fill="none" stroke="#000000" points="91.5,-52.5 216.5,-52.5 "/>
<text text-anchor="start" x="99.5" y="-40.5" font-family="Helvetica,sans-Serif" font-size="10.00" fill="#000000">+ generateFlags()</text>
<text text-anchor="start" x="99.5" y="-29.5" font-family="Helvetica,sans-Serif" font-size="10.00" fill="#000000">+ getFlagWord()</text>
<text text-anchor="start" x="99.5" y="-18.5" font-family="Helvetica,sans-Serif" font-size="10.00" fill="#000000">+ print()</text>
<text text-anchor="start" x="99.5" y="-7.5" font-family="Helvetica,sans-Serif" font-size="10.00" fill="#000000">+ fillChannelData()</text>
</g>
<!-- Node2 -->
<g id="node2" class="node">
<title>Node2</title>
<polygon fill="none" stroke="#bfbfbf" points="0,-259.5 0,-316.5 50,-316.5 50,-259.5 0,-259.5"/>
<text text-anchor="middle" x="25" y="-304.5" font-family="Helvetica,sans-Serif" font-size="10.00" fill="#000000">int64_t</text>
<polyline fill="none" stroke="#bfbfbf" points="0,-297.5 50,-297.5 "/>
<text text-anchor="middle" x="25" y="-285.5" font-family="Helvetica,sans-Serif" font-size="10.00" fill="#000000"> </text>
<polyline fill="none" stroke="#bfbfbf" points="0,-278.5 50,-278.5 "/>
<text text-anchor="middle" x="25" y="-266.5" font-family="Helvetica,sans-Serif" font-size="10.00" fill="#000000"> </text>
</g>
<!-- Node2&#45;&gt;Node1 -->
<g id="edge1" class="edge">
<title>Node2&#45;&gt;Node1</title>
<path fill="none" stroke="#404040" d="M20.8763,-259.4079C17.2676,-223.8787 16.1705,-162.7289 43,-120 52.3625,-105.0892 66.247,-92.8783 81.0522,-83.1005"/>
<polygon fill="none" stroke="#404040" points="81.1905,-83.0152 84.1981,-76.4612 91.4047,-76.7167 88.3971,-83.2707 81.1905,-83.0152"/>
<text text-anchor="middle" x="64" y="-183.5" font-family="Helvetica,sans-Serif" font-size="10.00" fill="#000000"> +time</text>
<text text-anchor="middle" x="64" y="-172.5" font-family="Helvetica,sans-Serif" font-size="10.00" fill="#000000">+charge</text>
</g>
<!-- Node3 -->
<g id="node3" class="node">
<title>Node3</title>
<polygon fill="none" stroke="#bfbfbf" points="68.5,-259.5 68.5,-316.5 129.5,-316.5 129.5,-259.5 68.5,-259.5"/>
<text text-anchor="middle" x="99" y="-304.5" font-family="Helvetica,sans-Serif" font-size="10.00" fill="#000000">unsigned</text>
<polyline fill="none" stroke="#bfbfbf" points="68.5,-297.5 129.5,-297.5 "/>
<text text-anchor="middle" x="99" y="-285.5" font-family="Helvetica,sans-Serif" font-size="10.00" fill="#000000"> </text>
<polyline fill="none" stroke="#bfbfbf" points="68.5,-278.5 129.5,-278.5 "/>
<text text-anchor="middle" x="99" y="-266.5" font-family="Helvetica,sans-Serif" font-size="10.00" fill="#000000"> </text>
</g>
<!-- Node3&#45;&gt;Node1 -->
<g id="edge2" class="edge">
<title>Node3&#45;&gt;Node1</title>
<path fill="none" stroke="#404040" d="M93.6983,-259.412C88.5776,-225.2016 83.7462,-166.6901 100,-120 100.8939,-117.4321 101.9263,-114.8864 103.0734,-112.3723"/>
<polygon fill="none" stroke="#404040" points="103.1667,-112.1954 102.4274,-105.0223 108.7645,-101.581 109.5037,-108.7541 103.1667,-112.1954"/>
<text text-anchor="middle" x="144" y="-233" font-family="Helvetica,sans-Serif" font-size="10.00" fill="#000000"> +isEventInTVDC</text>
<text text-anchor="middle" x="144" y="-222" font-family="Helvetica,sans-Serif" font-size="10.00" fill="#000000">+word</text>
<text text-anchor="middle" x="144" y="-211" font-family="Helvetica,sans-Serif" font-size="10.00" fill="#000000">+isTimeInfoLate</text>
<text text-anchor="middle" x="144" y="-200" font-family="Helvetica,sans-Serif" font-size="10.00" fill="#000000">+numberADC</text>
<text text-anchor="middle" x="144" y="-189" font-family="Helvetica,sans-Serif" font-size="10.00" fill="#000000">+isCFDinADCgate</text>
<text text-anchor="middle" x="144" y="-178" font-family="Helvetica,sans-Serif" font-size="10.00" fill="#000000">+word_zeros</text>
<text text-anchor="middle" x="144" y="-167" font-family="Helvetica,sans-Serif" font-size="10.00" fill="#000000">+channelID</text>
<text text-anchor="middle" x="144" y="-156" font-family="Helvetica,sans-Serif" font-size="10.00" fill="#000000">+isTimeInfoLost</text>
<text text-anchor="middle" x="144" y="-145" font-family="Helvetica,sans-Serif" font-size="10.00" fill="#000000">+reservedField</text>
<text text-anchor="middle" x="144" y="-134" font-family="Helvetica,sans-Serif" font-size="10.00" fill="#000000">+isAmpHigh</text>
<text text-anchor="middle" x="144" y="-123" font-family="Helvetica,sans-Serif" font-size="10.00" fill="#000000">...</text>
</g>
<!-- Node4 -->
<g id="node4" class="node">
<title>Node4</title>
<polygon fill="none" stroke="#bfbfbf" points="188,-259.5 188,-316.5 232,-316.5 232,-259.5 188,-259.5"/>
<text text-anchor="middle" x="210" y="-304.5" font-family="Helvetica,sans-Serif" font-size="10.00" fill="#000000">static</text>
<polyline fill="none" stroke="#bfbfbf" points="188,-297.5 232,-297.5 "/>
<text text-anchor="middle" x="210" y="-285.5" font-family="Helvetica,sans-Serif" font-size="10.00" fill="#000000"> </text>
<polyline fill="none" stroke="#bfbfbf" points="188,-278.5 232,-278.5 "/>
<text text-anchor="middle" x="210" y="-266.5" font-family="Helvetica,sans-Serif" font-size="10.00" fill="#000000"> </text>
</g>
<!-- Node4&#45;&gt;Node1 -->
<g id="edge3" class="edge">
<title>Node4&#45;&gt;Node1</title>
<path fill="none" stroke="#404040" d="M209.0961,-259.4644C207.3799,-225.5544 202.4069,-167.5791 188,-120 187.3179,-117.7473 186.5685,-115.4777 185.7644,-113.2042"/>
<polygon fill="none" stroke="#404040" points="185.7028,-113.0459 179.7971,-108.9078 181.3455,-101.8648 187.2512,-106.0029 185.7028,-113.0459"/>
<text text-anchor="middle" x="272" y="-211" font-family="Helvetica,sans-Serif" font-size="10.00" fill="#000000"> +PayloadSizeSecondWord</text>
<text text-anchor="middle" x="272" y="-200" font-family="Helvetica,sans-Serif" font-size="10.00" fill="#000000">+PayloadSizeFirstWord</text>
<text text-anchor="middle" x="272" y="-189" font-family="Helvetica,sans-Serif" font-size="10.00" fill="#000000">+BitFlagPos</text>
<text text-anchor="middle" x="272" y="-178" font-family="Helvetica,sans-Serif" font-size="10.00" fill="#000000">+PayloadPerGBTword</text>
<text text-anchor="middle" x="272" y="-167" font-family="Helvetica,sans-Serif" font-size="10.00" fill="#000000">+MaxNelements</text>
<text text-anchor="middle" x="272" y="-156" font-family="Helvetica,sans-Serif" font-size="10.00" fill="#000000">+MinNelements</text>
<text text-anchor="middle" x="272" y="-145" font-family="Helvetica,sans-Serif" font-size="10.00" fill="#000000">+PayloadSize</text>
</g>
<!-- Node5 -->
<g id="node5" class="node">
<title>Node5</title>
<polygon fill="none" stroke="#bfbfbf" points="309.5,-259.5 309.5,-316.5 416.5,-316.5 416.5,-259.5 309.5,-259.5"/>
<text text-anchor="middle" x="363" y="-304.5" font-family="Helvetica,sans-Serif" font-size="10.00" fill="#000000">anonymous:+@12</text>
<polyline fill="none" stroke="#bfbfbf" points="309.5,-297.5 416.5,-297.5 "/>
<text text-anchor="middle" x="363" y="-285.5" font-family="Helvetica,sans-Serif" font-size="10.00" fill="#000000"> </text>
<polyline fill="none" stroke="#bfbfbf" points="309.5,-278.5 416.5,-278.5 "/>
<text text-anchor="middle" x="363" y="-266.5" font-family="Helvetica,sans-Serif" font-size="10.00" fill="#000000"> </text>
</g>
<!-- Node5&#45;&gt;Node1 -->
<g id="edge4" class="edge">
<title>Node5&#45;&gt;Node1</title>
<path fill="none" stroke="#404040" d="M367.5394,-259.329C371.6289,-222.8728 372.843,-159.8838 341,-120 326.2525,-101.5285 273.9947,-83.1225 228.459,-69.972"/>
<polygon fill="none" stroke="#404040" points="228.2967,-69.9262 221.4346,-72.1425 216.7495,-66.6607 223.6116,-64.4444 228.2967,-69.9262"/>
<text text-anchor="middle" x="386" y="-178" font-family="Helvetica,sans-Serif" font-size="10.00" fill="#000000"> +@12</text>
</g>
</g>
</svg>
