<?xml version="1.0" encoding="UTF-8" standalone="no"?>
<!DOCTYPE svg PUBLIC "-//W3C//DTD SVG 1.1//EN"
 "http://www.w3.org/Graphics/SVG/1.1/DTD/svg11.dtd">
<!-- Generated by graphviz version 2.40.1 (20161225.0304)
 -->
<!-- Title: o2::trd::HalfCRUHeader Pages: 1 -->
<svg width="569pt" height="325pt"
 viewBox="0.00 0.00 569.00 325.00" xmlns="http://www.w3.org/2000/svg" xmlns:xlink="http://www.w3.org/1999/xlink">
<g id="graph0" class="graph" transform="scale(1 1) rotate(0) translate(4 321)">
<title>o2::trd::HalfCRUHeader</title>
<!-- Node1 -->
<g id="node1" class="node">
<title>Node1</title>
<polygon fill="#bfbfbf" stroke="#000000" points="238,-.5 238,-101.5 369,-101.5 369,-.5 238,-.5"/>
<text text-anchor="middle" x="303.5" y="-89.5" font-family="Helvetica,sans-Serif" font-size="10.00" fill="#000000">o2::trd::HalfCRUHeader</text>
<polyline fill="none" stroke="#000000" points="238,-82.5 369,-82.5 "/>
<text text-anchor="start" x="246" y="-70.5" font-family="Helvetica,sans-Serif" font-size="10.00" fill="#000000">+ BunchCrossing</text>
<text text-anchor="start" x="246" y="-59.5" font-family="Helvetica,sans-Serif" font-size="10.00" fill="#000000">+ word3</text>
<text text-anchor="start" x="246" y="-48.5" font-family="Helvetica,sans-Serif" font-size="10.00" fill="#000000">+ reserved34</text>
<text text-anchor="start" x="246" y="-37.5" font-family="Helvetica,sans-Serif" font-size="10.00" fill="#000000">+ word47</text>
<text text-anchor="start" x="246" y="-26.5" font-family="Helvetica,sans-Serif" font-size="10.00" fill="#000000">+ size</text>
<polyline fill="none" stroke="#000000" points="238,-19.5 369,-19.5 "/>
<text text-anchor="middle" x="303.5" y="-7.5" font-family="Helvetica,sans-Serif" font-size="10.00" fill="#000000"> </text>
</g>
<!-- Node2 -->
<g id="node2" class="node">
<title>Node2</title>
<polygon fill="none" stroke="#bfbfbf" points="0,-259.5 0,-316.5 107,-316.5 107,-259.5 0,-259.5"/>
<text text-anchor="middle" x="53.5" y="-304.5" font-family="Helvetica,sans-Serif" font-size="10.00" fill="#000000">anonymous:+@52</text>
<polyline fill="none" stroke="#bfbfbf" points="0,-297.5 107,-297.5 "/>
<text text-anchor="middle" x="53.5" y="-285.5" font-family="Helvetica,sans-Serif" font-size="10.00" fill="#000000"> </text>
<polyline fill="none" stroke="#bfbfbf" points="0,-278.5 107,-278.5 "/>
<text text-anchor="middle" x="53.5" y="-266.5" font-family="Helvetica,sans-Serif" font-size="10.00" fill="#000000"> </text>
</g>
<!-- Node2&#45;&gt;Node1 -->
<g id="edge1" class="edge">
<title>Node2&#45;&gt;Node1</title>
<path fill="none" stroke="#404040" d="M66.6926,-259.4431C84.6687,-223.1088 119.9056,-160.2499 165.5,-120 183.3698,-104.2249 205.4911,-91.0795 226.7489,-80.6417"/>
<polygon fill="none" stroke="#404040" points="226.913,-80.5641 230.6251,-74.3818 237.7596,-75.4306 234.0474,-81.6129 226.913,-80.5641"/>
<text text-anchor="middle" x="182.5" y="-178" font-family="Helvetica,sans-Serif" font-size="10.00" fill="#000000"> +@52</text>
</g>
<!-- Node3 -->
<g id="node3" class="node">
<title>Node3</title>
<polygon fill="none" stroke="#bfbfbf" points="125,-259.5 125,-316.5 232,-316.5 232,-259.5 125,-259.5"/>
<text text-anchor="middle" x="178.5" y="-304.5" font-family="Helvetica,sans-Serif" font-size="10.00" fill="#000000">anonymous:+@54</text>
<polyline fill="none" stroke="#bfbfbf" points="125,-297.5 232,-297.5 "/>
<text text-anchor="middle" x="178.5" y="-285.5" font-family="Helvetica,sans-Serif" font-size="10.00" fill="#000000"> </text>
<polyline fill="none" stroke="#bfbfbf" points="125,-278.5 232,-278.5 "/>
<text text-anchor="middle" x="178.5" y="-266.5" font-family="Helvetica,sans-Serif" font-size="10.00" fill="#000000"> </text>
</g>
<!-- Node3&#45;&gt;Node1 -->
<g id="edge2" class="edge">
<title>Node3&#45;&gt;Node1</title>
<path fill="none" stroke="#404040" d="M193.0566,-259.347C210.1577,-225.8133 239.5007,-168.6716 265.5,-120 266.832,-117.5064 268.1967,-114.9657 269.58,-112.4016"/>
<polygon fill="none" stroke="#404040" points="269.6144,-112.3383 268.9595,-105.1569 275.3366,-101.7904 275.9914,-108.9718 269.6144,-112.3383"/>
<text text-anchor="middle" x="282.5" y="-178" font-family="Helvetica,sans-Serif" font-size="10.00" fill="#000000"> +@54</text>
</g>
<!-- Node4 -->
<g id="node4" class="node">
<title>Node4</title>
<polygon fill="none" stroke="#bfbfbf" points="250,-259.5 250,-316.5 357,-316.5 357,-259.5 250,-259.5"/>
<text text-anchor="middle" x="303.5" y="-304.5" font-family="Helvetica,sans-Serif" font-size="10.00" fill="#000000">anonymous:+@48</text>
<polyline fill="none" stroke="#bfbfbf" points="250,-297.5 357,-297.5 "/>
<text text-anchor="middle" x="303.5" y="-285.5" font-family="Helvetica,sans-Serif" font-size="10.00" fill="#000000"> </text>
<polyline fill="none" stroke="#bfbfbf" points="250,-278.5 357,-278.5 "/>
<text text-anchor="middle" x="303.5" y="-266.5" font-family="Helvetica,sans-Serif" font-size="10.00" fill="#000000"> </text>
</g>
<!-- Node4&#45;&gt;Node1 -->
<g id="edge3" class="edge">
<title>Node4&#45;&gt;Node1</title>
<path fill="none" stroke="#404040" d="M303.5,-259.4123C303.5,-223.5863 303.5,-161.1618 303.5,-113.9459"/>
<polygon fill="none" stroke="#404040" points="303.5001,-113.6823 299.5,-107.6823 303.5,-101.6823 307.5,-107.6822 303.5001,-113.6823"/>
<text text-anchor="middle" x="320.5" y="-178" font-family="Helvetica,sans-Serif" font-size="10.00" fill="#000000"> +@48</text>
</g>
<!-- Node5 -->
<g id="node5" class="node">
<title>Node5</title>
<polygon fill="none" stroke="#bfbfbf" points="375,-259.5 375,-316.5 436,-316.5 436,-259.5 375,-259.5"/>
<text text-anchor="middle" x="405.5" y="-304.5" font-family="Helvetica,sans-Serif" font-size="10.00" fill="#000000">unsigned</text>
<polyline fill="none" stroke="#bfbfbf" points="375,-297.5 436,-297.5 "/>
<text text-anchor="middle" x="405.5" y="-285.5" font-family="Helvetica,sans-Serif" font-size="10.00" fill="#000000"> </text>
<polyline fill="none" stroke="#bfbfbf" points="375,-278.5 436,-278.5 "/>
<text text-anchor="middle" x="405.5" y="-266.5" font-family="Helvetica,sans-Serif" font-size="10.00" fill="#000000"> </text>
</g>
<!-- Node5&#45;&gt;Node1 -->
<g id="edge4" class="edge">
<title>Node5&#45;&gt;Node1</title>
<path fill="none" stroke="#404040" d="M395.9262,-259.2623C384.3342,-225.4056 363.5999,-167.7224 341.5,-120 340.3794,-117.5801 339.209,-115.1286 338.0029,-112.6642"/>
<polygon fill="none" stroke="#404040" points="337.9429,-112.5454 331.6665,-108.9947 332.5301,-101.8355 338.8065,-105.3861 337.9429,-112.5454"/>
<text text-anchor="middle" x="428.5" y="-233" font-family="Helvetica,sans-Serif" font-size="10.00" fill="#000000"> +StopBit</text>
<text text-anchor="middle" x="428.5" y="-222" font-family="Helvetica,sans-Serif" font-size="10.00" fill="#000000">+EventType</text>
<text text-anchor="middle" x="428.5" y="-211" font-family="Helvetica,sans-Serif" font-size="10.00" fill="#000000">+reserved2</text>
<text text-anchor="middle" x="428.5" y="-200" font-family="Helvetica,sans-Serif" font-size="10.00" fill="#000000">+word12</text>
<text text-anchor="middle" x="428.5" y="-189" font-family="Helvetica,sans-Serif" font-size="10.00" fill="#000000">+reserved5</text>
<text text-anchor="middle" x="428.5" y="-178" font-family="Helvetica,sans-Serif" font-size="10.00" fill="#000000">+errorflag</text>
<text text-anchor="middle" x="428.5" y="-167" font-family="Helvetica,sans-Serif" font-size="10.00" fill="#000000">+reserveda</text>
<text text-anchor="middle" x="428.5" y="-156" font-family="Helvetica,sans-Serif" font-size="10.00" fill="#000000">+EndPoint</text>
<text text-anchor="middle" x="428.5" y="-145" font-family="Helvetica,sans-Serif" font-size="10.00" fill="#000000">+HeaderVersion</text>
<text text-anchor="middle" x="428.5" y="-134" font-family="Helvetica,sans-Serif" font-size="10.00" fill="#000000">+word0</text>
<text text-anchor="middle" x="428.5" y="-123" font-family="Helvetica,sans-Serif" font-size="10.00" fill="#000000">...</text>
</g>
<!-- Node6 -->
<g id="node6" class="node">
<title>Node6</title>
<polygon fill="none" stroke="#bfbfbf" points="454,-259.5 454,-316.5 561,-316.5 561,-259.5 454,-259.5"/>
<text text-anchor="middle" x="507.5" y="-304.5" font-family="Helvetica,sans-Serif" font-size="10.00" fill="#000000">anonymous:+@50</text>
<polyline fill="none" stroke="#bfbfbf" points="454,-297.5 561,-297.5 "/>
<text text-anchor="middle" x="507.5" y="-285.5" font-family="Helvetica,sans-Serif" font-size="10.00" fill="#000000"> </text>
<polyline fill="none" stroke="#bfbfbf" points="454,-278.5 561,-278.5 "/>
<text text-anchor="middle" x="507.5" y="-266.5" font-family="Helvetica,sans-Serif" font-size="10.00" fill="#000000"> </text>
</g>
<!-- Node6&#45;&gt;Node1 -->
<g id="edge5" class="edge">
<title>Node6&#45;&gt;Node1</title>
<path fill="none" stroke="#404040" d="M509.2426,-259.2795C509.8932,-222.7704 505.5735,-159.725 472.5,-120 449.5645,-92.4518 413.9047,-75.7771 381.242,-65.7452"/>
<polygon fill="none" stroke="#404040" points="380.9083,-65.6496 374.0382,-67.8408 369.3731,-62.3419 376.2432,-60.1507 380.9083,-65.6496"/>
<text text-anchor="middle" x="525.5" y="-178" font-family="Helvetica,sans-Serif" font-size="10.00" fill="#000000"> +@50</text>
</g>
</g>
</svg>
