<?xml version="1.0" encoding="UTF-8" standalone="no"?>
<!DOCTYPE svg PUBLIC "-//W3C//DTD SVG 1.1//EN"
 "http://www.w3.org/Graphics/SVG/1.1/DTD/svg11.dtd">
<!-- Generated by graphviz version 2.40.1 (20161225.0304)
 -->
<!-- Title: o2::data::PrimaryChunk Pages: 1 -->
<svg width="592pt" height="634pt"
 viewBox="0.00 0.00 592.00 634.00" xmlns="http://www.w3.org/2000/svg" xmlns:xlink="http://www.w3.org/1999/xlink">
<g id="graph0" class="graph" transform="scale(1 1) rotate(0) translate(4 630)">
<title>o2::data::PrimaryChunk</title>
<!-- Node1 -->
<g id="node1" class="node">
<title>Node1</title>
<polygon fill="#bfbfbf" stroke="#000000" points="221.5,-.5 221.5,-57.5 352.5,-57.5 352.5,-.5 221.5,-.5"/>
<text text-anchor="middle" x="287" y="-45.5" font-family="Helvetica,sans-Serif" font-size="10.00" fill="#000000">o2::data::PrimaryChunk</text>
<polyline fill="none" stroke="#000000" points="221.5,-38.5 352.5,-38.5 "/>
<text text-anchor="middle" x="287" y="-26.5" font-family="Helvetica,sans-Serif" font-size="10.00" fill="#000000"> </text>
<polyline fill="none" stroke="#000000" points="221.5,-19.5 352.5,-19.5 "/>
<text text-anchor="start" x="229.5" y="-7.5" font-family="Helvetica,sans-Serif" font-size="10.00" fill="#000000">+ ClassDefNV()</text>
</g>
<!-- Node2 -->
<g id="node2" class="node">
<title>Node2</title>
<polygon fill="none" stroke="#bfbfbf" points="188,-105.5 188,-162.5 300,-162.5 300,-105.5 188,-105.5"/>
<text text-anchor="middle" x="244" y="-150.5" font-family="Helvetica,sans-Serif" font-size="10.00" fill="#000000">vector&lt; TParticle &gt;</text>
<polyline fill="none" stroke="#bfbfbf" points="188,-143.5 300,-143.5 "/>
<text text-anchor="middle" x="244" y="-131.5" font-family="Helvetica,sans-Serif" font-size="10.00" fill="#000000"> </text>
<polyline fill="none" stroke="#bfbfbf" points="188,-124.5 300,-124.5 "/>
<text text-anchor="middle" x="244" y="-112.5" font-family="Helvetica,sans-Serif" font-size="10.00" fill="#000000"> </text>
</g>
<!-- Node2&#45;&gt;Node1 -->
<g id="edge1" class="edge">
<title>Node2&#45;&gt;Node1</title>
<path fill="none" stroke="#404040" d="M255.7499,-105.3083C260.3479,-94.0808 265.7006,-81.0103 270.6632,-68.8922"/>
<polygon fill="none" stroke="#404040" points="270.7165,-68.7619 269.2888,-61.6935 275.2643,-57.657 276.692,-64.7254 270.7165,-68.7619"/>
<text text-anchor="middle" x="298.5" y="-79" font-family="Helvetica,sans-Serif" font-size="10.00" fill="#000000"> +mParticles</text>
</g>
<!-- Node3 -->
<g id="node3" class="node">
<title>Node3</title>
<g id="a_node3"><a xlink:href="../../d5/dbc/structo2_1_1data_1_1SubEventInfo.html" target="_top" xlink:title="{o2::data::SubEventInfo\n||+ ClassDefNV()\l}">
<polygon fill="none" stroke="#000000" points="318.5,-105.5 318.5,-162.5 445.5,-162.5 445.5,-105.5 318.5,-105.5"/>
<text text-anchor="middle" x="382" y="-150.5" font-family="Helvetica,sans-Serif" font-size="10.00" fill="#000000">o2::data::SubEventInfo</text>
<polyline fill="none" stroke="#000000" points="318.5,-143.5 445.5,-143.5 "/>
<text text-anchor="middle" x="382" y="-131.5" font-family="Helvetica,sans-Serif" font-size="10.00" fill="#000000"> </text>
<polyline fill="none" stroke="#000000" points="318.5,-124.5 445.5,-124.5 "/>
<text text-anchor="start" x="326.5" y="-112.5" font-family="Helvetica,sans-Serif" font-size="10.00" fill="#000000">+ ClassDefNV()</text>
</a>
</g>
</g>
<!-- Node3&#45;&gt;Node1 -->
<g id="edge2" class="edge">
<title>Node3&#45;&gt;Node1</title>
<path fill="none" stroke="#404040" d="M359.0847,-105.2264C351.307,-95.7561 342.4456,-85.2799 334,-76 331.1565,-72.8756 328.1651,-69.6837 325.1263,-66.5074"/>
<polygon fill="none" stroke="#404040" points="324.8904,-66.2651 317.8389,-64.7559 316.5199,-57.6665 323.5714,-59.1756 324.8904,-66.2651"/>
<text text-anchor="middle" x="386" y="-79" font-family="Helvetica,sans-Serif" font-size="10.00" fill="#000000"> +mSubEventInfo</text>
</g>
<!-- Node4 -->
<g id="node4" class="node">
<title>Node4</title>
<g id="a_node4"><a xlink:href="../../d4/db1/classo2_1_1dataformats_1_1MCEventHeader.html" target="_top" xlink:title="{o2::dataformats::MCEvent\lHeader\n||+ MCEventHeader()\l+ MCEventHeader()\l+ operator=()\l+ ~MCEventHeader()\l+ setEmbeddingFileName()\l+ setEmbeddingEventIndex()\l+ getEmbeddedIndex()\l+ Reset()\l+ getMCEventStats()\l# ClassDefOverride()\l}">
<polygon fill="none" stroke="#000000" points="137,-254.5 137,-421.5 297,-421.5 297,-254.5 137,-254.5"/>
<text text-anchor="start" x="145" y="-409.5" font-family="Helvetica,sans-Serif" font-size="10.00" fill="#000000">o2::dataformats::MCEvent</text>
<text text-anchor="middle" x="217" y="-398.5" font-family="Helvetica,sans-Serif" font-size="10.00" fill="#000000">Header</text>
<polyline fill="none" stroke="#000000" points="137,-391.5 297,-391.5 "/>
<text text-anchor="middle" x="217" y="-379.5" font-family="Helvetica,sans-Serif" font-size="10.00" fill="#000000"> </text>
<polyline fill="none" stroke="#000000" points="137,-372.5 297,-372.5 "/>
<text text-anchor="start" x="145" y="-360.5" font-family="Helvetica,sans-Serif" font-size="10.00" fill="#000000">+ MCEventHeader()</text>
<text text-anchor="start" x="145" y="-349.5" font-family="Helvetica,sans-Serif" font-size="10.00" fill="#000000">+ MCEventHeader()</text>
<text text-anchor="start" x="145" y="-338.5" font-family="Helvetica,sans-Serif" font-size="10.00" fill="#000000">+ operator=()</text>
<text text-anchor="start" x="145" y="-327.5" font-family="Helvetica,sans-Serif" font-size="10.00" fill="#000000">+ ~MCEventHeader()</text>
<text text-anchor="start" x="145" y="-316.5" font-family="Helvetica,sans-Serif" font-size="10.00" fill="#000000">+ setEmbeddingFileName()</text>
<text text-anchor="start" x="145" y="-305.5" font-family="Helvetica,sans-Serif" font-size="10.00" fill="#000000">+ setEmbeddingEventIndex()</text>
<text text-anchor="start" x="145" y="-294.5" font-family="Helvetica,sans-Serif" font-size="10.00" fill="#000000">+ getEmbeddedIndex()</text>
<text text-anchor="start" x="145" y="-283.5" font-family="Helvetica,sans-Serif" font-size="10.00" fill="#000000">+ Reset()</text>
<text text-anchor="start" x="145" y="-272.5" font-family="Helvetica,sans-Serif" font-size="10.00" fill="#000000">+ getMCEventStats()</text>
<text text-anchor="start" x="145" y="-261.5" font-family="Helvetica,sans-Serif" font-size="10.00" fill="#000000"># ClassDefOverride()</text>
</a>
</g>
</g>
<!-- Node4&#45;&gt;Node3 -->
<g id="edge3" class="edge">
<title>Node4&#45;&gt;Node3</title>
<path fill="none" stroke="#404040" d="M203.1923,-254.4302C203.3902,-228.2643 208.8817,-201.0271 226,-181 248.3221,-154.8849 268.8569,-170.513 306.4639,-163.0234"/>
<polygon fill="none" stroke="#404040" points="306.4863,-163.0177 311.3186,-157.6653 318.1179,-160.0672 313.2856,-165.4197 306.4863,-163.0177"/>
<text text-anchor="middle" x="276" y="-206" font-family="Helvetica,sans-Serif" font-size="10.00" fill="#000000"> +mMCEventHeader</text>
</g>
<!-- Node5 -->
<g id="node5" class="node">
<title>Node5</title>
<g id="a_node5"><a xlink:href="../../dd/d8f/classFairMCEventHeader.html" target="_top" xlink:title="{FairMCEventHeader\n||}">
<polygon fill="none" stroke="#000000" points="0,-519 0,-576 112,-576 112,-519 0,-519"/>
<text text-anchor="middle" x="56" y="-564" font-family="Helvetica,sans-Serif" font-size="10.00" fill="#000000">FairMCEventHeader</text>
<polyline fill="none" stroke="#000000" points="0,-557 112,-557 "/>
<text text-anchor="middle" x="56" y="-545" font-family="Helvetica,sans-Serif" font-size="10.00" fill="#000000"> </text>
<polyline fill="none" stroke="#000000" points="0,-538 112,-538 "/>
<text text-anchor="middle" x="56" y="-526" font-family="Helvetica,sans-Serif" font-size="10.00" fill="#000000"> </text>
</a>
</g>
</g>
<!-- Node5&#45;&gt;Node4 -->
<g id="edge4" class="edge">
<title>Node5&#45;&gt;Node4</title>
<path fill="none" stroke="#191970" d="M84.1857,-510.8236C103.086,-486.2297 128.7732,-452.8045 152.5215,-421.9021"/>
<polygon fill="none" stroke="#191970" points="81.3671,-508.7474 78.0488,-518.8092 86.9174,-513.0128 81.3671,-508.7474"/>
</g>
<!-- Node6 -->
<g id="node6" class="node">
<title>Node6</title>
<polygon fill="none" stroke="#bfbfbf" points="130.5,-519 130.5,-576 159.5,-576 159.5,-519 130.5,-519"/>
<text text-anchor="middle" x="145" y="-564" font-family="Helvetica,sans-Serif" font-size="10.00" fill="#000000">int</text>
<polyline fill="none" stroke="#bfbfbf" points="130.5,-557 159.5,-557 "/>
<text text-anchor="middle" x="145" y="-545" font-family="Helvetica,sans-Serif" font-size="10.00" fill="#000000"> </text>
<polyline fill="none" stroke="#bfbfbf" points="130.5,-538 159.5,-538 "/>
<text text-anchor="middle" x="145" y="-526" font-family="Helvetica,sans-Serif" font-size="10.00" fill="#000000"> </text>
</g>
<!-- Node6&#45;&gt;Node4 -->
<g id="edge5" class="edge">
<title>Node6&#45;&gt;Node4</title>
<path fill="none" stroke="#404040" d="M140.7636,-518.9373C138.5491,-496.8469 137.7779,-465.7836 146,-440 146.7682,-437.5911 147.6148,-435.189 148.5311,-432.7981"/>
<polygon fill="none" stroke="#404040" points="148.5588,-432.7335 147.2513,-425.6419 153.2945,-421.7075 154.602,-428.7991 148.5588,-432.7335"/>
<text text-anchor="middle" x="207" y="-443" font-family="Helvetica,sans-Serif" font-size="10.00" fill="#000000"> #mEmbeddingFileName</text>
</g>
<!-- Node7 -->
<g id="node7" class="node">
<title>Node7</title>
<polygon fill="none" stroke="#bfbfbf" points="271,-519 271,-576 309,-576 309,-519 271,-519"/>
<text text-anchor="middle" x="290" y="-564" font-family="Helvetica,sans-Serif" font-size="10.00" fill="#000000">Int_t</text>
<polyline fill="none" stroke="#bfbfbf" points="271,-557 309,-557 "/>
<text text-anchor="middle" x="290" y="-545" font-family="Helvetica,sans-Serif" font-size="10.00" fill="#000000"> </text>
<polyline fill="none" stroke="#bfbfbf" points="271,-538 309,-538 "/>
<text text-anchor="middle" x="290" y="-526" font-family="Helvetica,sans-Serif" font-size="10.00" fill="#000000"> </text>
</g>
<!-- Node7&#45;&gt;Node4 -->
<g id="edge6" class="edge">
<title>Node7&#45;&gt;Node4</title>
<path fill="none" stroke="#404040" d="M286.1971,-518.6636C282.8015,-496.7 276.9606,-465.9273 268,-440 267.179,-437.6244 266.314,-435.2336 265.4113,-432.8348"/>
<polygon fill="none" stroke="#404040" points="265.3699,-432.7304 259.4362,-428.6326 260.9367,-421.5793 266.8703,-425.6771 265.3699,-432.7304"/>
<text text-anchor="middle" x="336.5" y="-443" font-family="Helvetica,sans-Serif" font-size="10.00" fill="#000000"> #mEmbeddingEventIndex</text>
</g>
<!-- Node8 -->
<g id="node8" class="node">
<title>Node8</title>
<g id="a_node8"><a xlink:href="../../d9/ddb/classo2_1_1dataformats_1_1MCEventStats.html" target="_top" xlink:title="{o2::dataformats::MCEvent\lStats\n||+ setNHits()\l+ getNHits()\l+ setNTransportedTracks()\l+ getNTransportedTracks()\l+ setNKeptTracks()\l+ getNKeptTracks()\l+ setNSteps()\l+ getNSteps()\l+ add()\l}">
<polygon fill="none" stroke="#000000" points="371,-469.5 371,-625.5 517,-625.5 517,-469.5 371,-469.5"/>
<text text-anchor="start" x="379" y="-613.5" font-family="Helvetica,sans-Serif" font-size="10.00" fill="#000000">o2::dataformats::MCEvent</text>
<text text-anchor="middle" x="444" y="-602.5" font-family="Helvetica,sans-Serif" font-size="10.00" fill="#000000">Stats</text>
<polyline fill="none" stroke="#000000" points="371,-595.5 517,-595.5 "/>
<text text-anchor="middle" x="444" y="-583.5" font-family="Helvetica,sans-Serif" font-size="10.00" fill="#000000"> </text>
<polyline fill="none" stroke="#000000" points="371,-576.5 517,-576.5 "/>
<text text-anchor="start" x="379" y="-564.5" font-family="Helvetica,sans-Serif" font-size="10.00" fill="#000000">+ setNHits()</text>
<text text-anchor="start" x="379" y="-553.5" font-family="Helvetica,sans-Serif" font-size="10.00" fill="#000000">+ getNHits()</text>
<text text-anchor="start" x="379" y="-542.5" font-family="Helvetica,sans-Serif" font-size="10.00" fill="#000000">+ setNTransportedTracks()</text>
<text text-anchor="start" x="379" y="-531.5" font-family="Helvetica,sans-Serif" font-size="10.00" fill="#000000">+ getNTransportedTracks()</text>
<text text-anchor="start" x="379" y="-520.5" font-family="Helvetica,sans-Serif" font-size="10.00" fill="#000000">+ setNKeptTracks()</text>
<text text-anchor="start" x="379" y="-509.5" font-family="Helvetica,sans-Serif" font-size="10.00" fill="#000000">+ getNKeptTracks()</text>
<text text-anchor="start" x="379" y="-498.5" font-family="Helvetica,sans-Serif" font-size="10.00" fill="#000000">+ setNSteps()</text>
<text text-anchor="start" x="379" y="-487.5" font-family="Helvetica,sans-Serif" font-size="10.00" fill="#000000">+ getNSteps()</text>
<text text-anchor="start" x="379" y="-476.5" font-family="Helvetica,sans-Serif" font-size="10.00" fill="#000000">+ add()</text>
</a>
</g>
</g>
<!-- Node8&#45;&gt;Node4 -->
<g id="edge7" class="edge">
<title>Node8&#45;&gt;Node4</title>
<path fill="none" stroke="#404040" d="M427.5117,-469.375C422.2204,-458.2636 415.2313,-447.9363 406,-440 373.7447,-412.2696 350.179,-440.7549 312,-422 310.5828,-421.3038 309.1705,-420.5807 307.7638,-419.8328"/>
<polygon fill="none" stroke="#404040" points="307.4832,-419.6699 300.2859,-420.1171 297.1049,-413.6456 304.3021,-413.1983 307.4832,-419.6699"/>
<text text-anchor="middle" x="451" y="-443" font-family="Helvetica,sans-Serif" font-size="10.00" fill="#000000"> #mEventStats</text>
</g>
<!-- Node9 -->
<g id="node9" class="node">
<title>Node9</title>
<g id="a_node9"><a xlink:href="../../d4/dc3/classfloat.html" target="_top" xlink:title="{float\n||}">
<polygon fill="none" stroke="#000000" points="321,-309.5 321,-366.5 359,-366.5 359,-309.5 321,-309.5"/>
<text text-anchor="middle" x="340" y="-354.5" font-family="Helvetica,sans-Serif" font-size="10.00" fill="#000000">float</text>
<polyline fill="none" stroke="#000000" points="321,-347.5 359,-347.5 "/>
<text text-anchor="middle" x="340" y="-335.5" font-family="Helvetica,sans-Serif" font-size="10.00" fill="#000000"> </text>
<polyline fill="none" stroke="#000000" points="321,-328.5 359,-328.5 "/>
<text text-anchor="middle" x="340" y="-316.5" font-family="Helvetica,sans-Serif" font-size="10.00" fill="#000000"> </text>
</a>
</g>
</g>
<!-- Node9&#45;&gt;Node3 -->
<g id="edge8" class="edge">
<title>Node9&#45;&gt;Node3</title>
<path fill="none" stroke="#404040" d="M334.3902,-309.4126C329.3434,-277.0905 324.9341,-223.4449 341,-181 342.035,-178.2657 343.3077,-175.5854 344.7565,-172.9781"/>
<polygon fill="none" stroke="#404040" points="344.9232,-172.7261 344.899,-165.515 351.5461,-162.7192 351.5703,-169.9303 344.9232,-172.7261"/>
<text text-anchor="middle" x="372" y="-206" font-family="Helvetica,sans-Serif" font-size="10.00" fill="#000000"> +eventtime</text>
</g>
<!-- Node10 -->
<g id="node10" class="node">
<title>Node10</title>
<polygon fill="none" stroke="#bfbfbf" points="400,-309.5 400,-366.5 450,-366.5 450,-309.5 400,-309.5"/>
<text text-anchor="middle" x="425" y="-354.5" font-family="Helvetica,sans-Serif" font-size="10.00" fill="#000000">int32_t</text>
<polyline fill="none" stroke="#bfbfbf" points="400,-347.5 450,-347.5 "/>
<text text-anchor="middle" x="425" y="-335.5" font-family="Helvetica,sans-Serif" font-size="10.00" fill="#000000"> </text>
<polyline fill="none" stroke="#bfbfbf" points="400,-328.5 450,-328.5 "/>
<text text-anchor="middle" x="425" y="-316.5" font-family="Helvetica,sans-Serif" font-size="10.00" fill="#000000"> </text>
</g>
<!-- Node10&#45;&gt;Node3 -->
<g id="edge9" class="edge">
<title>Node10&#45;&gt;Node3</title>
<path fill="none" stroke="#404040" d="M423.4105,-309.4243C421.086,-277.5712 415.5755,-224.7807 403,-181 402.3157,-178.6177 401.5332,-176.1999 400.6818,-173.7823"/>
<polygon fill="none" stroke="#404040" points="400.6805,-173.7788 394.7683,-169.6501 396.3055,-162.6047 402.2177,-166.7334 400.6805,-173.7788"/>
<text text-anchor="middle" x="461" y="-222.5" font-family="Helvetica,sans-Serif" font-size="10.00" fill="#000000"> +runID</text>
<text text-anchor="middle" x="461" y="-211.5" font-family="Helvetica,sans-Serif" font-size="10.00" fill="#000000">+maxEvents</text>
<text text-anchor="middle" x="461" y="-200.5" font-family="Helvetica,sans-Serif" font-size="10.00" fill="#000000">+npersistenttracks</text>
<text text-anchor="middle" x="461" y="-189.5" font-family="Helvetica,sans-Serif" font-size="10.00" fill="#000000">+nprimarytracks</text>
</g>
<!-- Node11 -->
<g id="node11" class="node">
<title>Node11</title>
<polygon fill="none" stroke="#bfbfbf" points="511.5,-309.5 511.5,-366.5 572.5,-366.5 572.5,-309.5 511.5,-309.5"/>
<text text-anchor="middle" x="542" y="-354.5" font-family="Helvetica,sans-Serif" font-size="10.00" fill="#000000">unsigned</text>
<polyline fill="none" stroke="#bfbfbf" points="511.5,-347.5 572.5,-347.5 "/>
<text text-anchor="middle" x="542" y="-335.5" font-family="Helvetica,sans-Serif" font-size="10.00" fill="#000000"> </text>
<polyline fill="none" stroke="#bfbfbf" points="511.5,-328.5 572.5,-328.5 "/>
<text text-anchor="middle" x="542" y="-316.5" font-family="Helvetica,sans-Serif" font-size="10.00" fill="#000000"> </text>
</g>
<!-- Node11&#45;&gt;Node3 -->
<g id="edge10" class="edge">
<title>Node11&#45;&gt;Node3</title>
<path fill="none" stroke="#404040" d="M544.4727,-309.2047C545.8202,-274.6842 542.7094,-216.9936 512,-181 497.9367,-164.5169 477.6241,-153.8143 457.219,-146.8651"/>
<polygon fill="none" stroke="#404040" points="457.0479,-146.8125 450.1371,-148.872 445.578,-143.2849 452.4888,-141.2254 457.0479,-146.8125"/>
<text text-anchor="middle" x="560.5" y="-228" font-family="Helvetica,sans-Serif" font-size="10.00" fill="#000000"> +index</text>
<text text-anchor="middle" x="560.5" y="-217" font-family="Helvetica,sans-Serif" font-size="10.00" fill="#000000">+eventID</text>
<text text-anchor="middle" x="560.5" y="-206" font-family="Helvetica,sans-Serif" font-size="10.00" fill="#000000">+seed</text>
<text text-anchor="middle" x="560.5" y="-195" font-family="Helvetica,sans-Serif" font-size="10.00" fill="#000000">+part</text>
<text text-anchor="middle" x="560.5" y="-184" font-family="Helvetica,sans-Serif" font-size="10.00" fill="#000000">+nparts</text>
</g>
</g>
</svg>
