<?xml version="1.0" encoding="UTF-8" standalone="no"?>
<!DOCTYPE svg PUBLIC "-//W3C//DTD SVG 1.1//EN"
 "http://www.w3.org/Graphics/SVG/1.1/DTD/svg11.dtd">
<!-- Generated by graphviz version 2.40.1 (20161225.0304)
 -->
<!-- Title: o2::soa::CombinationsBlockFullIndexPolicy&lt; T, Ts &gt; Pages: 1 -->
<!--zoomable 873 -->
<svg id="main" version="1.1" xmlns="http://www.w3.org/2000/svg" xmlns:xlink="http://www.w3.org/1999/xlink" xml:space="preserve" onload="init(evt)">
<style type="text/css"><![CDATA[
.edge:hover path { stroke: red; }
.edge:hover polygon { stroke: red; fill: red; }
]]></style>
<script type="text/javascript"><![CDATA[
var edges = document.getElementsByTagName('g');
if (edges && edges.length) {
  for (var i=0;i<edges.length;i++) {
    if (edges[i].id.substr(0,4)=='edge') {
      edges[i].setAttribute('class','edge');
    }
  }
}
]]></script>
        <defs>
                <circle id="rim" cx="0" cy="0" r="7"/>
                <circle id="rim2" cx="0" cy="0" r="3.5"/>
                <g id="zoomPlus">
                        <use xlink:href="#rim" fill="#404040">
                                <set attributeName="fill" to="#808080" begin="zoomplus.mouseover" end="zoomplus.mouseout"/>
                        </use>
                        <path d="M-4,0h8M0,-4v8" fill="none" stroke="white" stroke-width="1.5" pointer-events="none"/>
                </g>
                <g id="zoomMin">
                        <use xlink:href="#rim" fill="#404040">
                                <set attributeName="fill" to="#808080" begin="zoomminus.mouseover" end="zoomminus.mouseout"/>
                        </use>
                        <path d="M-4,0h8" fill="none" stroke="white" stroke-width="1.5" pointer-events="none"/>
                </g>
                <g id="dirArrow">
                        <path fill="none" stroke="white" stroke-width="1.5" d="M0,-3.0v7 M-2.5,-0.5L0,-3.0L2.5,-0.5"/>
                </g>
               <g id="resetDef">
                       <use xlink:href="#rim2" fill="#404040">
                               <set attributeName="fill" to="#808080" begin="reset.mouseover" end="reset.mouseout"/>
                       </use>
               </g>
        </defs>

<script type="text/javascript">
var viewWidth = 879;
var viewHeight = 873;
var sectionId = 'dynsection-1';
</script>
<script xlink:href="../../svgpan.js"/>
<svg id="graph" class="graph">
<g id="viewport">
<title>o2::soa::CombinationsBlockFullIndexPolicy&lt; T, Ts &gt;</title>
<!-- Node5 -->
<g id="node1" class="node">
<title>Node5</title>
<polygon fill="#bfbfbf" stroke="#000000" points="419,-.5 419,-101.5 585,-101.5 585,-.5 419,-.5"/>
<text text-anchor="start" x="427" y="-89.5" font-family="Helvetica,sans-Serif" font-size="10.00" fill="#000000">o2::soa::CombinationsBlock</text>
<text text-anchor="middle" x="502" y="-78.5" font-family="Helvetica,sans-Serif" font-size="10.00" fill="#000000">FullIndexPolicy&lt; T, Ts &gt;</text>
<polyline fill="none" stroke="#000000" points="419,-71.5 585,-71.5 "/>
<text text-anchor="middle" x="502" y="-59.5" font-family="Helvetica,sans-Serif" font-size="10.00" fill="#000000"> </text>
<polyline fill="none" stroke="#000000" points="419,-52.5 585,-52.5 "/>
<text text-anchor="start" x="427" y="-40.5" font-family="Helvetica,sans-Serif" font-size="10.00" fill="#000000">+ CombinationsBlockFullIndex</text>
<text text-anchor="start" x="427" y="-29.5" font-family="Helvetica,sans-Serif" font-size="10.00" fill="#000000">Policy()</text>
<text text-anchor="start" x="427" y="-18.5" font-family="Helvetica,sans-Serif" font-size="10.00" fill="#000000">+ setRanges()</text>
<text text-anchor="start" x="427" y="-7.5" font-family="Helvetica,sans-Serif" font-size="10.00" fill="#000000">+ addOne()</text>
</g>
<!-- Node6 -->
<g id="node2" class="node">
<title>Node6</title>
<g id="a_node2"><a xlink:href="../../d0/d11/structo2_1_1soa_1_1CombinationsBlockIndexPolicyBase.html" target="_top" xlink:title="{o2::soa::CombinationsBlock\lIndexPolicyBase\&lt; T, Ts... \&gt;\n||+ CombinationsBlockIndexPolicyBase()\l}">
<polygon fill="none" stroke="#000000" points="176,-139.5 176,-207.5 386,-207.5 386,-139.5 176,-139.5"/>
<text text-anchor="start" x="184" y="-195.5" font-family="Helvetica,sans-Serif" font-size="10.00" fill="#000000">o2::soa::CombinationsBlock</text>
<text text-anchor="middle" x="281" y="-184.5" font-family="Helvetica,sans-Serif" font-size="10.00" fill="#000000">IndexPolicyBase&lt; T, Ts... &gt;</text>
<polyline fill="none" stroke="#000000" points="176,-177.5 386,-177.5 "/>
<text text-anchor="middle" x="281" y="-165.5" font-family="Helvetica,sans-Serif" font-size="10.00" fill="#000000"> </text>
<polyline fill="none" stroke="#000000" points="176,-158.5 386,-158.5 "/>
<text text-anchor="start" x="184" y="-146.5" font-family="Helvetica,sans-Serif" font-size="10.00" fill="#000000">+ CombinationsBlockIndexPolicyBase()</text>
</a>
</g>
</g>
<!-- Node6&#45;&gt;Node5 -->
<g id="edge1" class="edge">
<title>Node6&#45;&gt;Node5</title>
<path fill="none" stroke="#191970" d="M351.5854,-134.3746C372.9991,-122.505 396.7232,-109.3548 418.8799,-97.0734"/>
<polygon fill="none" stroke="#191970" points="349.6102,-131.4677 342.5608,-139.3769 353.0039,-137.59 349.6102,-131.4677"/>
</g>
<!-- Node7 -->
<g id="node3" class="node">
<title>Node7</title>
<g id="a_node3"><a xlink:href="../../de/dac/structo2_1_1soa_1_1CombinationsIndexPolicyBase.html" target="_top" xlink:title="{o2::soa::CombinationsIndex\lPolicyBase\&lt; Ts... \&gt;\n||+ CombinationsIndexPolicyBase()\l+ moveToEnd()\l+ addOne()\l}">
<polygon fill="none" stroke="#000000" points="422.5,-393.5 422.5,-483.5 605.5,-483.5 605.5,-393.5 422.5,-393.5"/>
<text text-anchor="start" x="430.5" y="-471.5" font-family="Helvetica,sans-Serif" font-size="10.00" fill="#000000">o2::soa::CombinationsIndex</text>
<text text-anchor="middle" x="514" y="-460.5" font-family="Helvetica,sans-Serif" font-size="10.00" fill="#000000">PolicyBase&lt; Ts... &gt;</text>
<polyline fill="none" stroke="#000000" points="422.5,-453.5 605.5,-453.5 "/>
<text text-anchor="middle" x="514" y="-441.5" font-family="Helvetica,sans-Serif" font-size="10.00" fill="#000000"> </text>
<polyline fill="none" stroke="#000000" points="422.5,-434.5 605.5,-434.5 "/>
<text text-anchor="start" x="430.5" y="-422.5" font-family="Helvetica,sans-Serif" font-size="10.00" fill="#000000">+ CombinationsIndexPolicyBase()</text>
<text text-anchor="start" x="430.5" y="-411.5" font-family="Helvetica,sans-Serif" font-size="10.00" fill="#000000">+ moveToEnd()</text>
<text text-anchor="start" x="430.5" y="-400.5" font-family="Helvetica,sans-Serif" font-size="10.00" fill="#000000">+ addOne()</text>
</a>
</g>
</g>
<!-- Node7&#45;&gt;Node6 -->
<g id="edge2" class="edge">
<title>Node7&#45;&gt;Node6</title>
<path fill="none" stroke="#191970" d="M522.5269,-383.306C525.5266,-343.6752 522.7309,-291.0988 495,-255 468.7223,-220.7929 426.2782,-200.9418 386.0915,-189.4224"/>
<polygon fill="none" stroke="#191970" points="519.0342,-383.0684 521.6244,-393.3417 526.006,-383.6954 519.0342,-383.0684"/>
</g>
<!-- Node15 -->
<g id="node11" class="node">
<title>Node15</title>
<g id="a_node11"><a xlink:href="../../d0/d11/structo2_1_1soa_1_1CombinationsBlockIndexPolicyBase.html" target="_top" xlink:title="{o2::soa::CombinationsBlock\lIndexPolicyBase\&lt; T, Ts \&gt;\n||+ CombinationsBlockIndexPolicyBase()\l}">
<polygon fill="none" stroke="#000000" points="276,-266.5 276,-334.5 486,-334.5 486,-266.5 276,-266.5"/>
<text text-anchor="start" x="284" y="-322.5" font-family="Helvetica,sans-Serif" font-size="10.00" fill="#000000">o2::soa::CombinationsBlock</text>
<text text-anchor="middle" x="381" y="-311.5" font-family="Helvetica,sans-Serif" font-size="10.00" fill="#000000">IndexPolicyBase&lt; T, Ts &gt;</text>
<polyline fill="none" stroke="#000000" points="276,-304.5 486,-304.5 "/>
<text text-anchor="middle" x="381" y="-292.5" font-family="Helvetica,sans-Serif" font-size="10.00" fill="#000000"> </text>
<polyline fill="none" stroke="#000000" points="276,-285.5 486,-285.5 "/>
<text text-anchor="start" x="284" y="-273.5" font-family="Helvetica,sans-Serif" font-size="10.00" fill="#000000">+ CombinationsBlockIndexPolicyBase()</text>
</a>
</g>
</g>
<!-- Node7&#45;&gt;Node15 -->
<g id="edge15" class="edge">
<title>Node7&#45;&gt;Node15</title>
<path fill="none" stroke="#191970" d="M463.4643,-386.0644C446.9324,-368.9111 429.0015,-350.3061 414.0954,-334.8396"/>
<polygon fill="none" stroke="#191970" points="460.9913,-388.5421 470.4508,-393.3136 466.0315,-383.6845 460.9913,-388.5421"/>
</g>
<!-- Node8 -->
<g id="node4" class="node">
<title>Node8</title>
<polygon fill="none" stroke="#bfbfbf" points="691.5,-680.5 691.5,-748.5 806.5,-748.5 806.5,-680.5 691.5,-680.5"/>
<text text-anchor="start" x="699.5" y="-736.5" font-family="Helvetica,sans-Serif" font-size="10.00" fill="#000000">tuple&lt; typename Ts</text>
<text text-anchor="middle" x="749" y="-725.5" font-family="Helvetica,sans-Serif" font-size="10.00" fill="#000000">::iterator... &gt;</text>
<polyline fill="none" stroke="#bfbfbf" points="691.5,-718.5 806.5,-718.5 "/>
<text text-anchor="middle" x="749" y="-706.5" font-family="Helvetica,sans-Serif" font-size="10.00" fill="#000000"> </text>
<polyline fill="none" stroke="#bfbfbf" points="691.5,-699.5 806.5,-699.5 "/>
<text text-anchor="middle" x="749" y="-687.5" font-family="Helvetica,sans-Serif" font-size="10.00" fill="#000000"> </text>
</g>
<!-- Node8&#45;&gt;Node7 -->
<g id="edge3" class="edge">
<title>Node8&#45;&gt;Node7</title>
<path fill="none" stroke="#404040" d="M770.1924,-680.4511C773.0034,-674.4964 775.4467,-668.2133 777,-662 786.0114,-625.9545 856.8419,-660.4809 773,-542 732.4295,-484.6679 691.2026,-510.1066 626,-484 622.9982,-482.7981 619.9522,-481.5761 616.8779,-480.3408"/>
<polygon fill="none" stroke="#404040" points="616.7844,-480.3032 609.7247,-481.7729 605.6527,-475.8215 612.7125,-474.3517 616.7844,-480.3032"/>
<text text-anchor="middle" x="842" y="-585" font-family="Helvetica,sans-Serif" font-size="10.00" fill="#000000"> +mCurrent</text>
</g>
<!-- Node12 -->
<g id="node8" class="node">
<title>Node12</title>
<g id="a_node8"><a xlink:href="../../de/dac/structo2_1_1soa_1_1CombinationsIndexPolicyBase.html" target="_top" xlink:title="{o2::soa::CombinationsIndex\lPolicyBase\&lt; Ts \&gt;\n||+ CombinationsIndexPolicyBase()\l+ moveToEnd()\l+ addOne()\l}">
<polygon fill="none" stroke="#000000" points="580.5,-542.5 580.5,-632.5 763.5,-632.5 763.5,-542.5 580.5,-542.5"/>
<text text-anchor="start" x="588.5" y="-620.5" font-family="Helvetica,sans-Serif" font-size="10.00" fill="#000000">o2::soa::CombinationsIndex</text>
<text text-anchor="middle" x="672" y="-609.5" font-family="Helvetica,sans-Serif" font-size="10.00" fill="#000000">PolicyBase&lt; Ts &gt;</text>
<polyline fill="none" stroke="#000000" points="580.5,-602.5 763.5,-602.5 "/>
<text text-anchor="middle" x="672" y="-590.5" font-family="Helvetica,sans-Serif" font-size="10.00" fill="#000000"> </text>
<polyline fill="none" stroke="#000000" points="580.5,-583.5 763.5,-583.5 "/>
<text text-anchor="start" x="588.5" y="-571.5" font-family="Helvetica,sans-Serif" font-size="10.00" fill="#000000">+ CombinationsIndexPolicyBase()</text>
<text text-anchor="start" x="588.5" y="-560.5" font-family="Helvetica,sans-Serif" font-size="10.00" fill="#000000">+ moveToEnd()</text>
<text text-anchor="start" x="588.5" y="-549.5" font-family="Helvetica,sans-Serif" font-size="10.00" fill="#000000">+ addOne()</text>
</a>
</g>
</g>
<!-- Node8&#45;&gt;Node12 -->
<g id="edge8" class="edge">
<title>Node8&#45;&gt;Node12</title>
<path fill="none" stroke="#404040" d="M728.3654,-680.4663C721.4049,-668.9859 713.4433,-655.8545 705.7398,-643.1488"/>
<polygon fill="none" stroke="#404040" points="705.5788,-642.8832 699.0476,-639.8263 699.3573,-632.6219 705.8885,-635.6787 705.5788,-642.8832"/>
<text text-anchor="middle" x="744" y="-654" font-family="Helvetica,sans-Serif" font-size="10.00" fill="#000000"> +mCurrent</text>
</g>
<!-- Node9 -->
<g id="node5" class="node">
<title>Node9</title>
<polygon fill="none" stroke="#bfbfbf" points="541,-686 541,-743 579,-743 579,-686 541,-686"/>
<text text-anchor="middle" x="560" y="-731" font-family="Helvetica,sans-Serif" font-size="10.00" fill="#000000">bool</text>
<polyline fill="none" stroke="#bfbfbf" points="541,-724 579,-724 "/>
<text text-anchor="middle" x="560" y="-712" font-family="Helvetica,sans-Serif" font-size="10.00" fill="#000000"> </text>
<polyline fill="none" stroke="#bfbfbf" points="541,-705 579,-705 "/>
<text text-anchor="middle" x="560" y="-693" font-family="Helvetica,sans-Serif" font-size="10.00" fill="#000000"> </text>
</g>
<!-- Node9&#45;&gt;Node7 -->
<g id="edge4" class="edge">
<title>Node9&#45;&gt;Node7</title>
<path fill="none" stroke="#404040" d="M544.3268,-685.9767C536.7502,-670.7286 528.3694,-651.3584 524,-633 513.2271,-587.7366 511.1463,-534.9356 511.5258,-495.7787"/>
<polygon fill="none" stroke="#404040" points="511.5292,-495.5701 507.6289,-489.5048 511.7276,-483.5717 515.6278,-489.637 511.5292,-495.5701"/>
<text text-anchor="middle" x="548" y="-585" font-family="Helvetica,sans-Serif" font-size="10.00" fill="#000000"> +mIsEnd</text>
</g>
<!-- Node9&#45;&gt;Node12 -->
<g id="edge9" class="edge">
<title>Node9&#45;&gt;Node12</title>
<path fill="none" stroke="#404040" d="M579.2535,-692.6679C591.6098,-678.6567 608.2395,-659.7998 624.005,-641.9229"/>
<polygon fill="none" stroke="#404040" points="624.2062,-641.6947 625.1748,-634.5489 632.1434,-632.6946 631.1749,-639.8403 624.2062,-641.6947"/>
<text text-anchor="middle" x="640" y="-654" font-family="Helvetica,sans-Serif" font-size="10.00" fill="#000000"> +mIsEnd</text>
</g>
<!-- Node10 -->
<g id="node6" class="node">
<title>Node10</title>
<g id="a_node6"><a xlink:href="../../dd/da8/structo2_1_1soa_1_1NTupleType.html" target="_top" xlink:title="{o2::soa::NTupleType\l\&lt; uint64_t, sizeof...(Ts)\&gt;\n||}">
<polygon fill="none" stroke="#000000" points="278.5,-680.5 278.5,-748.5 415.5,-748.5 415.5,-680.5 278.5,-680.5"/>
<text text-anchor="start" x="286.5" y="-736.5" font-family="Helvetica,sans-Serif" font-size="10.00" fill="#000000">o2::soa::NTupleType</text>
<text text-anchor="middle" x="347" y="-725.5" font-family="Helvetica,sans-Serif" font-size="10.00" fill="#000000">&lt; uint64_t, sizeof...(Ts)&gt;</text>
<polyline fill="none" stroke="#000000" points="278.5,-718.5 415.5,-718.5 "/>
<text text-anchor="middle" x="347" y="-706.5" font-family="Helvetica,sans-Serif" font-size="10.00" fill="#000000"> </text>
<polyline fill="none" stroke="#000000" points="278.5,-699.5 415.5,-699.5 "/>
<text text-anchor="middle" x="347" y="-687.5" font-family="Helvetica,sans-Serif" font-size="10.00" fill="#000000"> </text>
</a>
</g>
</g>
<!-- Node10&#45;&gt;Node6 -->
<g id="edge13" class="edge">
<title>Node10&#45;&gt;Node6</title>
<path fill="none" stroke="#404040" d="M278.444,-703.7279C177.3176,-685.8736 0,-646.1983 0,-587.5 0,-587.5 0,-587.5 0,-300.5 0,-278.5855 3.2324,-270.2194 19,-255 40.649,-234.1036 104.7319,-213.9845 164.0972,-198.964"/>
<polygon fill="none" stroke="#404040" points="164.2484,-198.9264 169.1052,-193.5961 175.8934,-196.0292 171.0367,-201.3595 164.2484,-198.9264"/>
<text text-anchor="middle" x="46" y="-441.5" font-family="Helvetica,sans-Serif" font-size="10.00" fill="#000000"> +mCurrentIndices</text>
<text text-anchor="middle" x="46" y="-430.5" font-family="Helvetica,sans-Serif" font-size="10.00" fill="#000000">+mBeginIndices</text>
</g>
<!-- Node10&#45;&gt;Node7 -->
<g id="edge5" class="edge">
<title>Node10&#45;&gt;Node7</title>
<path fill="none" stroke="#404040" d="M362.8865,-680.2283C379.779,-644.7703 408.0103,-588.2129 437,-542 447.2021,-525.7366 459.2056,-508.7598 470.6601,-493.3709"/>
<polygon fill="none" stroke="#404040" points="470.8658,-493.0976 471.2792,-485.8983 478.0836,-483.5109 477.6703,-490.7102 470.8658,-493.0976"/>
<text text-anchor="middle" x="472.5" y="-585" font-family="Helvetica,sans-Serif" font-size="10.00" fill="#000000"> +mMaxOffset</text>
</g>
<!-- Node10&#45;&gt;Node12 -->
<g id="edge10" class="edge">
<title>Node10&#45;&gt;Node12</title>
<path fill="none" stroke="#404040" d="M415.8873,-689.8488C459.1858,-674.1115 516.0987,-652.9812 566,-633 567.0371,-632.5847 568.0792,-632.166 569.1259,-631.7441"/>
<polygon fill="none" stroke="#404040" points="569.3632,-631.6474 573.41,-625.6788 580.4759,-627.1187 576.4291,-633.0873 569.3632,-631.6474"/>
<text text-anchor="middle" x="553.5" y="-654" font-family="Helvetica,sans-Serif" font-size="10.00" fill="#000000"> +mMaxOffset</text>
</g>
<!-- Node10&#45;&gt;Node15 -->
<g id="edge18" class="edge">
<title>Node10&#45;&gt;Node15</title>
<path fill="none" stroke="#404040" d="M346.8118,-680.2076C346.8475,-638.1478 347.7736,-564.7091 353,-502 357.4661,-448.413 366.5236,-387.2947 373.1315,-346.557"/>
<polygon fill="none" stroke="#404040" points="373.1506,-346.4407 370.1761,-339.8717 375.0959,-334.5995 378.0703,-341.1685 373.1506,-346.4407"/>
<text text-anchor="middle" x="399" y="-516" font-family="Helvetica,sans-Serif" font-size="10.00" fill="#000000"> +mCurrentIndices</text>
<text text-anchor="middle" x="399" y="-505" font-family="Helvetica,sans-Serif" font-size="10.00" fill="#000000">+mBeginIndices</text>
</g>
<!-- Node11 -->
<g id="node7" class="node">
<title>Node11</title>
<g id="a_node7"><a xlink:href="../../dd/da8/structo2_1_1soa_1_1NTupleType.html" target="_top" xlink:title="{o2::soa::NTupleType\l\&lt; T, N, REST \&gt;\n||}">
<polygon fill="none" stroke="#000000" points="290.5,-796.5 290.5,-864.5 403.5,-864.5 403.5,-796.5 290.5,-796.5"/>
<text text-anchor="start" x="298.5" y="-852.5" font-family="Helvetica,sans-Serif" font-size="10.00" fill="#000000">o2::soa::NTupleType</text>
<text text-anchor="middle" x="347" y="-841.5" font-family="Helvetica,sans-Serif" font-size="10.00" fill="#000000">&lt; T, N, REST &gt;</text>
<polyline fill="none" stroke="#000000" points="290.5,-834.5 403.5,-834.5 "/>
<text text-anchor="middle" x="347" y="-822.5" font-family="Helvetica,sans-Serif" font-size="10.00" fill="#000000"> </text>
<polyline fill="none" stroke="#000000" points="290.5,-815.5 403.5,-815.5 "/>
<text text-anchor="middle" x="347" y="-803.5" font-family="Helvetica,sans-Serif" font-size="10.00" fill="#000000"> </text>
</a>
</g>
</g>
<!-- Node11&#45;&gt;Node10 -->
<g id="edge6" class="edge">
<title>Node11&#45;&gt;Node10</title>
<path fill="none" stroke="#ffa500" d="M347,-786.1851C347,-773.8048 347,-760.5422 347,-748.833"/>
<polygon fill="#ffa500" stroke="#ffa500" points="343.5001,-786.3235 347,-796.3236 350.5001,-786.3236 343.5001,-786.3235"/>
<text text-anchor="middle" x="409" y="-770" font-family="Helvetica,sans-Serif" font-size="10.00" fill="#000000"> &lt; uint64_t, sizeof...(Ts)&gt;</text>
</g>
<!-- Node12&#45;&gt;Node7 -->
<g id="edge7" class="edge">
<title>Node12&#45;&gt;Node7</title>
<path fill="none" stroke="#ffa500" d="M616.6425,-535.2958C598.8066,-518.4758 579.1996,-499.9857 561.9438,-483.7129"/>
<polygon fill="#ffa500" stroke="#ffa500" points="614.4895,-538.0762 624.166,-542.3907 619.2921,-532.9835 614.4895,-538.0762"/>
<text text-anchor="middle" x="624.5" y="-510.5" font-family="Helvetica,sans-Serif" font-size="10.00" fill="#000000"> &lt; Ts... &gt;</text>
</g>
<!-- Node13 -->
<g id="node9" class="node">
<title>Node13</title>
<polygon fill="none" stroke="#bfbfbf" points="28.5,-272 28.5,-329 113.5,-329 113.5,-272 28.5,-272"/>
<text text-anchor="middle" x="71" y="-317" font-family="Helvetica,sans-Serif" font-size="10.00" fill="#000000">unsigned long</text>
<polyline fill="none" stroke="#bfbfbf" points="28.5,-310 113.5,-310 "/>
<text text-anchor="middle" x="71" y="-298" font-family="Helvetica,sans-Serif" font-size="10.00" fill="#000000"> </text>
<polyline fill="none" stroke="#bfbfbf" points="28.5,-291 113.5,-291 "/>
<text text-anchor="middle" x="71" y="-279" font-family="Helvetica,sans-Serif" font-size="10.00" fill="#000000"> </text>
</g>
<!-- Node13&#45;&gt;Node6 -->
<g id="edge11" class="edge">
<title>Node13&#45;&gt;Node6</title>
<path fill="none" stroke="#404040" d="M79.8645,-271.8387C86.0287,-256.2754 95.7384,-237.8477 110,-226 125.7752,-212.8949 144.7908,-203.0574 164.3253,-195.6738"/>
<polygon fill="none" stroke="#404040" points="164.5494,-195.5949 168.8775,-189.8271 175.8663,-191.6039 171.5382,-197.3717 164.5494,-195.5949"/>
<text text-anchor="middle" x="167" y="-229" font-family="Helvetica,sans-Serif" font-size="10.00" fill="#000000"> +mSlidingWindowSize</text>
</g>
<!-- Node14 -->
<g id="node10" class="node">
<title>Node14</title>
<g id="a_node10"><a xlink:href="../../d8/d9e/classstd_1_1array_3_01std_1_1vector_3_01std_1_1pair_3_01unsigned_01long_00_01unsigned_01long_01_1b82c4f8bf6673cf149eb7ac44244f19.html" target="_top" xlink:title="{array\&lt; std::vector\l\&lt; std::pair\&lt; unsigned\l long, unsigned long \&gt;\l \&gt;, sizeof...(Ts)\&gt;\n||}">
<polygon fill="none" stroke="#000000" points="132,-255.5 132,-345.5 258,-345.5 258,-255.5 132,-255.5"/>
<text text-anchor="start" x="140" y="-333.5" font-family="Helvetica,sans-Serif" font-size="10.00" fill="#000000">array&lt; std::vector</text>
<text text-anchor="start" x="140" y="-322.5" font-family="Helvetica,sans-Serif" font-size="10.00" fill="#000000">&lt; std::pair&lt; unsigned</text>
<text text-anchor="start" x="140" y="-311.5" font-family="Helvetica,sans-Serif" font-size="10.00" fill="#000000"> long, unsigned long &gt;</text>
<text text-anchor="middle" x="195" y="-300.5" font-family="Helvetica,sans-Serif" font-size="10.00" fill="#000000"> &gt;, sizeof...(Ts)&gt;</text>
<polyline fill="none" stroke="#000000" points="132,-293.5 258,-293.5 "/>
<text text-anchor="middle" x="195" y="-281.5" font-family="Helvetica,sans-Serif" font-size="10.00" fill="#000000"> </text>
<polyline fill="none" stroke="#000000" points="132,-274.5 258,-274.5 "/>
<text text-anchor="middle" x="195" y="-262.5" font-family="Helvetica,sans-Serif" font-size="10.00" fill="#000000"> </text>
</a>
</g>
</g>
<!-- Node14&#45;&gt;Node6 -->
<g id="edge12" class="edge">
<title>Node14&#45;&gt;Node6</title>
<path fill="none" stroke="#404040" d="M217.0901,-255.3995C222.5364,-245.4608 228.644,-235.1696 235,-226 237.0732,-223.009 239.2931,-219.9973 241.5966,-217.0108"/>
<polygon fill="none" stroke="#404040" points="241.636,-216.9619 242.2832,-209.7799 249.1616,-207.615 248.5145,-214.797 241.636,-216.9619"/>
<text text-anchor="middle" x="283.5" y="-229" font-family="Helvetica,sans-Serif" font-size="10.00" fill="#000000"> +mGroupedIndices</text>
</g>
<!-- Node15&#45;&gt;Node6 -->
<g id="edge14" class="edge">
<title>Node15&#45;&gt;Node6</title>
<path fill="none" stroke="#ffa500" d="M354.8901,-257.7792C347.841,-247.1184 339.952,-235.9074 332,-226 327.0685,-219.8559 321.5343,-213.6084 315.9786,-207.6681"/>
<polygon fill="#ffa500" stroke="#ffa500" points="351.9637,-259.6992 360.3486,-266.1756 357.8325,-255.8838 351.9637,-259.6992"/>
<text text-anchor="middle" x="367.5" y="-229" font-family="Helvetica,sans-Serif" font-size="10.00" fill="#000000"> &lt; T, Ts... &gt;</text>
</g>
<!-- Node16 -->
<g id="node12" class="node">
<title>Node16</title>
<polygon fill="none" stroke="#bfbfbf" points="133.5,-399 133.5,-478 296.5,-478 296.5,-399 133.5,-399"/>
<text text-anchor="start" x="141.5" y="-466" font-family="Helvetica,sans-Serif" font-size="10.00" fill="#000000">array&lt; std::vector</text>
<text text-anchor="start" x="141.5" y="-455" font-family="Helvetica,sans-Serif" font-size="10.00" fill="#000000">&lt; std::pair&lt; uint64</text>
<text text-anchor="middle" x="215" y="-444" font-family="Helvetica,sans-Serif" font-size="10.00" fill="#000000">_t, uint64_t &gt; &gt;, sizeof...(Ts)&gt;</text>
<polyline fill="none" stroke="#bfbfbf" points="133.5,-437 296.5,-437 "/>
<text text-anchor="middle" x="215" y="-425" font-family="Helvetica,sans-Serif" font-size="10.00" fill="#000000"> </text>
<polyline fill="none" stroke="#bfbfbf" points="133.5,-418 296.5,-418 "/>
<text text-anchor="middle" x="215" y="-406" font-family="Helvetica,sans-Serif" font-size="10.00" fill="#000000"> </text>
</g>
<!-- Node16&#45;&gt;Node15 -->
<g id="edge16" class="edge">
<title>Node16&#45;&gt;Node15</title>
<path fill="none" stroke="#404040" d="M207.1779,-398.625C206.8929,-386.5472 208.9108,-373.8786 216,-364 230.0145,-344.4713 244.4998,-354.4568 267,-346 273.0466,-343.7274 279.2595,-341.355 285.5147,-338.9384"/>
<polygon fill="none" stroke="#404040" points="285.6087,-338.9019 289.751,-332.9992 296.7929,-334.5526 292.6505,-340.4553 285.6087,-338.9019"/>
<text text-anchor="middle" x="264.5" y="-367" font-family="Helvetica,sans-Serif" font-size="10.00" fill="#000000"> +mGroupedIndices</text>
</g>
<!-- Node17 -->
<g id="node13" class="node">
<title>Node17</title>
<polygon fill="none" stroke="#bfbfbf" points="634.5,-410 634.5,-467 695.5,-467 695.5,-410 634.5,-410"/>
<text text-anchor="middle" x="665" y="-455" font-family="Helvetica,sans-Serif" font-size="10.00" fill="#000000">unsigned</text>
<polyline fill="none" stroke="#bfbfbf" points="634.5,-448 695.5,-448 "/>
<text text-anchor="middle" x="665" y="-436" font-family="Helvetica,sans-Serif" font-size="10.00" fill="#000000"> </text>
<polyline fill="none" stroke="#bfbfbf" points="634.5,-429 695.5,-429 "/>
<text text-anchor="middle" x="665" y="-417" font-family="Helvetica,sans-Serif" font-size="10.00" fill="#000000"> </text>
</g>
<!-- Node17&#45;&gt;Node5 -->
<g id="edge19" class="edge">
<title>Node17&#45;&gt;Node5</title>
<path fill="none" stroke="#404040" d="M666.7015,-409.7741C666.8136,-395.758 665.8736,-378.7752 662,-364 637.4575,-270.3871 581.9275,-172.6498 543.2168,-111.8173"/>
<polygon fill="none" stroke="#404040" points="543.1632,-111.7338 536.5546,-108.8482 536.6765,-101.6381 543.2851,-104.5237 543.1632,-111.7338"/>
<text text-anchor="middle" x="659" y="-229" font-family="Helvetica,sans-Serif" font-size="10.00" fill="#000000"> +mCurrentlyFixed</text>
</g>
<!-- Node17&#45;&gt;Node15 -->
<g id="edge17" class="edge">
<title>Node17&#45;&gt;Node15</title>
<path fill="none" stroke="#404040" d="M638.2782,-409.9405C631.2104,-403.6373 623.2382,-397.5047 615,-393 587.9466,-378.2071 577.0579,-385.3127 548,-375 519.3375,-364.8276 488.7403,-351.8355 461.6703,-339.5587"/>
<polygon fill="none" stroke="#404040" points="461.6072,-339.5299 454.4867,-340.669 450.6965,-334.5343 457.8171,-333.3952 461.6072,-339.5299"/>
<text text-anchor="middle" x="605" y="-367" font-family="Helvetica,sans-Serif" font-size="10.00" fill="#000000"> +mSlidingWindowSize</text>
</g>
</g>
</svg>
        <g id="navigator" transform="translate(0 0)" fill="#404254">
                <rect fill="#f2f5e9" fill-opacity="0.5" stroke="#606060" stroke-width=".5" x="0" y="0" width="60" height="60"/>
                <use id="zoomplus" xlink:href="#zoomPlus" x="17" y="9" onmousedown="handleZoom(evt,'in')"/>
                <use id="zoomminus" xlink:href="#zoomMin" x="42" y="9" onmousedown="handleZoom(evt,'out')"/>
                <use id="reset" xlink:href="#resetDef" x="30" y="36" onmousedown="handleReset()"/>
                <g id="arrowUp" xlink:href="#dirArrow" transform="translate(30 24)" onmousedown="handlePan(0,-1)">
                  <use xlink:href="#rim" fill="#404040">
                        <set attributeName="fill" to="#808080" begin="arrowUp.mouseover" end="arrowUp.mouseout"/>
                  </use>
                  <path fill="none" stroke="white" stroke-width="1.5" d="M0,-3.0v7 M-2.5,-0.5L0,-3.0L2.5,-0.5"/>
                </g>
                <g id="arrowRight" xlink:href="#dirArrow" transform="rotate(90) translate(36 -43)" onmousedown="handlePan(1,0)">
                  <use xlink:href="#rim" fill="#404040">
                        <set attributeName="fill" to="#808080" begin="arrowRight.mouseover" end="arrowRight.mouseout"/>
                  </use>
                  <path fill="none" stroke="white" stroke-width="1.5" d="M0,-3.0v7 M-2.5,-0.5L0,-3.0L2.5,-0.5"/>
                </g>
                <g id="arrowDown" xlink:href="#dirArrow" transform="rotate(180) translate(-30 -48)" onmousedown="handlePan(0,1)">
                  <use xlink:href="#rim" fill="#404040">
                        <set attributeName="fill" to="#808080" begin="arrowDown.mouseover" end="arrowDown.mouseout"/>
                  </use>
                  <path fill="none" stroke="white" stroke-width="1.5" d="M0,-3.0v7 M-2.5,-0.5L0,-3.0L2.5,-0.5"/>
                </g>
                <g id="arrowLeft" xlink:href="#dirArrow" transform="rotate(270) translate(-36 17)" onmousedown="handlePan(-1,0)">
                  <use xlink:href="#rim" fill="#404040">
                        <set attributeName="fill" to="#808080" begin="arrowLeft.mouseover" end="arrowLeft.mouseout"/>
                  </use>
                  <path fill="none" stroke="white" stroke-width="1.5" d="M0,-3.0v7 M-2.5,-0.5L0,-3.0L2.5,-0.5"/>
                </g>
        </g>
        <svg viewBox="0 0 15 15" width="100%" height="30px" preserveAspectRatio="xMaxYMin meet">
         <g id="arrow_out" transform="scale(0.3 0.3)">
          <a xlink:href="structo2_1_1soa_1_1CombinationsBlockFullIndexPolicy__coll__graph_org.svg" target="_base">
           <rect id="button" ry="5" rx="5" y="6" x="6" height="38" width="38"
                fill="#f2f5e9" fill-opacity="0.5" stroke="#606060" stroke-width="1.0"/>
           <path id="arrow"
             d="M 11.500037,31.436501 C 11.940474,20.09759 22.043105,11.32322 32.158766,21.979434 L 37.068811,17.246167 C 37.068811,17.246167 37.088388,32 37.088388,32 L 22.160133,31.978069 C 22.160133,31.978069 26.997745,27.140456 26.997745,27.140456 C 18.528582,18.264221 13.291696,25.230495 11.500037,31.436501 z"
             style="fill:#404040;"/>
          </a>
         </g>
        </svg>
</svg>
