<?xml version="1.0" encoding="UTF-8" standalone="no"?>
<!DOCTYPE svg PUBLIC "-//W3C//DTD SVG 1.1//EN"
 "http://www.w3.org/Graphics/SVG/1.1/DTD/svg11.dtd">
<!-- Generated by graphviz version 2.40.1 (20161225.0304)
 -->
<!-- Title: o2::fdd::RecPoint Pages: 1 -->
<svg width="435pt" height="672pt"
 viewBox="0.00 0.00 435.01 672.00" xmlns="http://www.w3.org/2000/svg" xmlns:xlink="http://www.w3.org/1999/xlink">
<g id="graph0" class="graph" transform="scale(1 1) rotate(0) translate(4 668)">
<title>o2::fdd::RecPoint</title>
<!-- Node1 -->
<g id="node1" class="node">
<title>Node1</title>
<polygon fill="#bfbfbf" stroke="#000000" points="13.5066,-.5 13.5066,-79.5 111.5066,-79.5 111.5066,-.5 13.5066,-.5"/>
<text text-anchor="middle" x="62.5066" y="-67.5" font-family="Helvetica,sans-Serif" font-size="10.00" fill="#000000">o2::fdd::RecPoint</text>
<polyline fill="none" stroke="#000000" points="13.5066,-60.5 111.5066,-60.5 "/>
<text text-anchor="middle" x="62.5066" y="-48.5" font-family="Helvetica,sans-Serif" font-size="10.00" fill="#000000"> </text>
<polyline fill="none" stroke="#000000" points="13.5066,-41.5 111.5066,-41.5 "/>
<text text-anchor="start" x="21.5066" y="-29.5" font-family="Helvetica,sans-Serif" font-size="10.00" fill="#000000">+ RecPoint()</text>
<text text-anchor="start" x="21.5066" y="-18.5" font-family="Helvetica,sans-Serif" font-size="10.00" fill="#000000">+ RecPoint()</text>
<text text-anchor="start" x="21.5066" y="-7.5" font-family="Helvetica,sans-Serif" font-size="10.00" fill="#000000">+ ClassDefNV()</text>
</g>
<!-- Node2 -->
<g id="node2" class="node">
<title>Node2</title>
<g id="a_node2"><a xlink:href="../../d1/d21/structo2_1_1InteractionRecord.html" target="_top" xlink:title="{o2::InteractionRecord\n||+ InteractionRecord()\l+ InteractionRecord()\l+ InteractionRecord()\l+ InteractionRecord()\l+ clear()\l+ isDummy()\l+ setFromNS()\l+ bc2ns()\l+ operator==()\l+ operator!=()\l+ differenceInBC()\l+ toLong()\l+ setFromLong()\l+ operator\&gt;()\l+ operator\&gt;=()\l+ operator\&lt;()\l+ operator\&lt;=()\l+ operator&#45;&#45;()\l+ operator&#45;&#45;()\l+ operator++()\l+ operator++()\l+ operator+=()\l+ operator&#45;=()\l+ operator+=()\l+ operator&#45;=()\l+ operator+()\l+ operator&#45;()\l+ operator+()\l+ operator&#45;()\l+ print()\l+ asString()\l+ ClassDefNV()\l+ bc2ns()\l+ ns2bc()\l}">
<polygon fill="none" stroke="#000000" points="122.0066,-127.5 122.0066,-547.5 243.0066,-547.5 243.0066,-127.5 122.0066,-127.5"/>
<text text-anchor="middle" x="182.5066" y="-535.5" font-family="Helvetica,sans-Serif" font-size="10.00" fill="#000000">o2::InteractionRecord</text>
<polyline fill="none" stroke="#000000" points="122.0066,-528.5 243.0066,-528.5 "/>
<text text-anchor="middle" x="182.5066" y="-516.5" font-family="Helvetica,sans-Serif" font-size="10.00" fill="#000000"> </text>
<polyline fill="none" stroke="#000000" points="122.0066,-509.5 243.0066,-509.5 "/>
<text text-anchor="start" x="130.0066" y="-497.5" font-family="Helvetica,sans-Serif" font-size="10.00" fill="#000000">+ InteractionRecord()</text>
<text text-anchor="start" x="130.0066" y="-486.5" font-family="Helvetica,sans-Serif" font-size="10.00" fill="#000000">+ InteractionRecord()</text>
<text text-anchor="start" x="130.0066" y="-475.5" font-family="Helvetica,sans-Serif" font-size="10.00" fill="#000000">+ InteractionRecord()</text>
<text text-anchor="start" x="130.0066" y="-464.5" font-family="Helvetica,sans-Serif" font-size="10.00" fill="#000000">+ InteractionRecord()</text>
<text text-anchor="start" x="130.0066" y="-453.5" font-family="Helvetica,sans-Serif" font-size="10.00" fill="#000000">+ clear()</text>
<text text-anchor="start" x="130.0066" y="-442.5" font-family="Helvetica,sans-Serif" font-size="10.00" fill="#000000">+ isDummy()</text>
<text text-anchor="start" x="130.0066" y="-431.5" font-family="Helvetica,sans-Serif" font-size="10.00" fill="#000000">+ setFromNS()</text>
<text text-anchor="start" x="130.0066" y="-420.5" font-family="Helvetica,sans-Serif" font-size="10.00" fill="#000000">+ bc2ns()</text>
<text text-anchor="start" x="130.0066" y="-409.5" font-family="Helvetica,sans-Serif" font-size="10.00" fill="#000000">+ operator==()</text>
<text text-anchor="start" x="130.0066" y="-398.5" font-family="Helvetica,sans-Serif" font-size="10.00" fill="#000000">+ operator!=()</text>
<text text-anchor="start" x="130.0066" y="-387.5" font-family="Helvetica,sans-Serif" font-size="10.00" fill="#000000">+ differenceInBC()</text>
<text text-anchor="start" x="130.0066" y="-376.5" font-family="Helvetica,sans-Serif" font-size="10.00" fill="#000000">+ toLong()</text>
<text text-anchor="start" x="130.0066" y="-365.5" font-family="Helvetica,sans-Serif" font-size="10.00" fill="#000000">+ setFromLong()</text>
<text text-anchor="start" x="130.0066" y="-354.5" font-family="Helvetica,sans-Serif" font-size="10.00" fill="#000000">+ operator&gt;()</text>
<text text-anchor="start" x="130.0066" y="-343.5" font-family="Helvetica,sans-Serif" font-size="10.00" fill="#000000">+ operator&gt;=()</text>
<text text-anchor="start" x="130.0066" y="-332.5" font-family="Helvetica,sans-Serif" font-size="10.00" fill="#000000">+ operator&lt;()</text>
<text text-anchor="start" x="130.0066" y="-321.5" font-family="Helvetica,sans-Serif" font-size="10.00" fill="#000000">+ operator&lt;=()</text>
<text text-anchor="start" x="130.0066" y="-310.5" font-family="Helvetica,sans-Serif" font-size="10.00" fill="#000000">+ operator&#45;&#45;()</text>
<text text-anchor="start" x="130.0066" y="-299.5" font-family="Helvetica,sans-Serif" font-size="10.00" fill="#000000">+ operator&#45;&#45;()</text>
<text text-anchor="start" x="130.0066" y="-288.5" font-family="Helvetica,sans-Serif" font-size="10.00" fill="#000000">+ operator++()</text>
<text text-anchor="start" x="130.0066" y="-277.5" font-family="Helvetica,sans-Serif" font-size="10.00" fill="#000000">+ operator++()</text>
<text text-anchor="start" x="130.0066" y="-266.5" font-family="Helvetica,sans-Serif" font-size="10.00" fill="#000000">+ operator+=()</text>
<text text-anchor="start" x="130.0066" y="-255.5" font-family="Helvetica,sans-Serif" font-size="10.00" fill="#000000">+ operator&#45;=()</text>
<text text-anchor="start" x="130.0066" y="-244.5" font-family="Helvetica,sans-Serif" font-size="10.00" fill="#000000">+ operator+=()</text>
<text text-anchor="start" x="130.0066" y="-233.5" font-family="Helvetica,sans-Serif" font-size="10.00" fill="#000000">+ operator&#45;=()</text>
<text text-anchor="start" x="130.0066" y="-222.5" font-family="Helvetica,sans-Serif" font-size="10.00" fill="#000000">+ operator+()</text>
<text text-anchor="start" x="130.0066" y="-211.5" font-family="Helvetica,sans-Serif" font-size="10.00" fill="#000000">+ operator&#45;()</text>
<text text-anchor="start" x="130.0066" y="-200.5" font-family="Helvetica,sans-Serif" font-size="10.00" fill="#000000">+ operator+()</text>
<text text-anchor="start" x="130.0066" y="-189.5" font-family="Helvetica,sans-Serif" font-size="10.00" fill="#000000">+ operator&#45;()</text>
<text text-anchor="start" x="130.0066" y="-178.5" font-family="Helvetica,sans-Serif" font-size="10.00" fill="#000000">+ print()</text>
<text text-anchor="start" x="130.0066" y="-167.5" font-family="Helvetica,sans-Serif" font-size="10.00" fill="#000000">+ asString()</text>
<text text-anchor="start" x="130.0066" y="-156.5" font-family="Helvetica,sans-Serif" font-size="10.00" fill="#000000">+ ClassDefNV()</text>
<text text-anchor="start" x="130.0066" y="-145.5" font-family="Helvetica,sans-Serif" font-size="10.00" fill="#000000">+ bc2ns()</text>
<text text-anchor="start" x="130.0066" y="-134.5" font-family="Helvetica,sans-Serif" font-size="10.00" fill="#000000">+ ns2bc()</text>
</a>
</g>
</g>
<!-- Node2&#45;&gt;Node1 -->
<g id="edge1" class="edge">
<title>Node2&#45;&gt;Node1</title>
<path fill="none" stroke="#404040" d="M121.9789,-161.9177C117.2583,-150.0308 112.4143,-138.2976 107.5066,-127 102.3208,-115.0622 96.2133,-102.4859 90.1989,-90.72"/>
<polygon fill="none" stroke="#404040" points="90.0247,-90.3844 83.7096,-86.9031 84.4942,-79.7348 90.8093,-83.2161 90.0247,-90.3844"/>
<text text-anchor="middle" x="133.0066" y="-101" font-family="Helvetica,sans-Serif" font-size="10.00" fill="#000000"> +mIntRecord</text>
</g>
<!-- Node3 -->
<g id="node3" class="node">
<title>Node3</title>
<polygon fill="none" stroke="#bfbfbf" points="3.5066,-606.5 3.5066,-663.5 53.5066,-663.5 53.5066,-606.5 3.5066,-606.5"/>
<text text-anchor="middle" x="28.5066" y="-651.5" font-family="Helvetica,sans-Serif" font-size="10.00" fill="#000000">double</text>
<polyline fill="none" stroke="#bfbfbf" points="3.5066,-644.5 53.5066,-644.5 "/>
<text text-anchor="middle" x="28.5066" y="-632.5" font-family="Helvetica,sans-Serif" font-size="10.00" fill="#000000"> </text>
<polyline fill="none" stroke="#bfbfbf" points="3.5066,-625.5 53.5066,-625.5 "/>
<text text-anchor="middle" x="28.5066" y="-613.5" font-family="Helvetica,sans-Serif" font-size="10.00" fill="#000000"> </text>
</g>
<!-- Node3&#45;&gt;Node1 -->
<g id="edge6" class="edge">
<title>Node3&#45;&gt;Node1</title>
<path fill="none" stroke="#404040" d="M23.3593,-606.4202C10.2982,-528.3526 -20.3063,-305.4177 20.5066,-127 23.3124,-114.7338 28.0809,-102.1851 33.4206,-90.573"/>
<polygon fill="none" stroke="#404040" points="33.4266,-90.5606 32.4502,-83.4158 38.6698,-79.7666 39.6462,-86.9113 33.4266,-90.5606"/>
<text text-anchor="middle" x="66.5066" y="-340.5" font-family="Helvetica,sans-Serif" font-size="10.00" fill="#000000"> +mMeanTimeFDA</text>
<text text-anchor="middle" x="66.5066" y="-329.5" font-family="Helvetica,sans-Serif" font-size="10.00" fill="#000000">+mMeanTimeFDC</text>
</g>
<!-- Node3&#45;&gt;Node2 -->
<g id="edge2" class="edge">
<title>Node3&#45;&gt;Node2</title>
<path fill="none" stroke="#404040" d="M37.7526,-606.1765C43.366,-592.5064 51.755,-576.835 63.5066,-566 79.0402,-551.6778 92.9143,-563.2802 107.5066,-548 109.8133,-545.5845 112.0498,-543.0934 114.218,-540.5344"/>
<polygon fill="none" stroke="#404040" points="114.3271,-540.3966 114.9141,-533.2094 121.7742,-530.9869 121.1872,-538.1741 114.3271,-540.3966"/>
<text text-anchor="middle" x="101.5066" y="-574.5" font-family="Helvetica,sans-Serif" font-size="10.00" fill="#000000"> +DummyTime</text>
</g>
<!-- Node4 -->
<g id="node4" class="node">
<title>Node4</title>
<g id="a_node4"><a xlink:href="../../d2/d5f/classunsigned_01int.html" target="_top" xlink:title="{unsigned int\n||}">
<polygon fill="none" stroke="#000000" points="105.0066,-606.5 105.0066,-663.5 182.0066,-663.5 182.0066,-606.5 105.0066,-606.5"/>
<text text-anchor="middle" x="143.5066" y="-651.5" font-family="Helvetica,sans-Serif" font-size="10.00" fill="#000000">unsigned int</text>
<polyline fill="none" stroke="#000000" points="105.0066,-644.5 182.0066,-644.5 "/>
<text text-anchor="middle" x="143.5066" y="-632.5" font-family="Helvetica,sans-Serif" font-size="10.00" fill="#000000"> </text>
<polyline fill="none" stroke="#000000" points="105.0066,-625.5 182.0066,-625.5 "/>
<text text-anchor="middle" x="143.5066" y="-613.5" font-family="Helvetica,sans-Serif" font-size="10.00" fill="#000000"> </text>
</a>
</g>
</g>
<!-- Node4&#45;&gt;Node2 -->
<g id="edge3" class="edge">
<title>Node4&#45;&gt;Node2</title>
<path fill="none" stroke="#404040" d="M142.9598,-606.4149C142.9699,-593.9762 143.3161,-579.2449 144.5066,-566 144.6922,-563.9347 144.8858,-561.86 145.0869,-559.7769"/>
<polygon fill="none" stroke="#404040" points="145.0945,-559.7021 141.7273,-553.3254 146.3184,-547.7647 149.6856,-554.1414 145.0945,-559.7021"/>
<text text-anchor="middle" x="182.0066" y="-574.5" font-family="Helvetica,sans-Serif" font-size="10.00" fill="#000000"> +DummyOrbit</text>
</g>
<!-- Node5 -->
<g id="node5" class="node">
<title>Node5</title>
<polygon fill="none" stroke="#bfbfbf" points="211.0066,-606.5 211.0066,-663.5 272.0066,-663.5 272.0066,-606.5 211.0066,-606.5"/>
<text text-anchor="middle" x="241.5066" y="-651.5" font-family="Helvetica,sans-Serif" font-size="10.00" fill="#000000">unsigned</text>
<polyline fill="none" stroke="#bfbfbf" points="211.0066,-644.5 272.0066,-644.5 "/>
<text text-anchor="middle" x="241.5066" y="-632.5" font-family="Helvetica,sans-Serif" font-size="10.00" fill="#000000"> </text>
<polyline fill="none" stroke="#bfbfbf" points="211.0066,-625.5 272.0066,-625.5 "/>
<text text-anchor="middle" x="241.5066" y="-613.5" font-family="Helvetica,sans-Serif" font-size="10.00" fill="#000000"> </text>
</g>
<!-- Node5&#45;&gt;Node2 -->
<g id="edge4" class="edge">
<title>Node5&#45;&gt;Node2</title>
<path fill="none" stroke="#404040" d="M235.8494,-606.4744C233.3295,-593.7684 230.1164,-577.5667 226.52,-559.4323"/>
<polygon fill="none" stroke="#404040" points="226.5042,-559.352 221.4134,-554.2447 224.1697,-547.5812 229.2605,-552.6884 226.5042,-559.352"/>
<text text-anchor="middle" x="248.0066" y="-580" font-family="Helvetica,sans-Serif" font-size="10.00" fill="#000000"> +bc</text>
<text text-anchor="middle" x="248.0066" y="-569" font-family="Helvetica,sans-Serif" font-size="10.00" fill="#000000">+orbit</text>
</g>
<!-- Node6 -->
<g id="node6" class="node">
<title>Node6</title>
<polygon fill="none" stroke="#bfbfbf" points="290.0066,-606.5 290.0066,-663.5 427.0066,-663.5 427.0066,-606.5 290.0066,-606.5"/>
<text text-anchor="middle" x="358.5066" y="-651.5" font-family="Helvetica,sans-Serif" font-size="10.00" fill="#000000">static constexpr uint16_t</text>
<polyline fill="none" stroke="#bfbfbf" points="290.0066,-644.5 427.0066,-644.5 "/>
<text text-anchor="middle" x="358.5066" y="-632.5" font-family="Helvetica,sans-Serif" font-size="10.00" fill="#000000"> </text>
<polyline fill="none" stroke="#bfbfbf" points="290.0066,-625.5 427.0066,-625.5 "/>
<text text-anchor="middle" x="358.5066" y="-613.5" font-family="Helvetica,sans-Serif" font-size="10.00" fill="#000000"> </text>
</g>
<!-- Node6&#45;&gt;Node2 -->
<g id="edge5" class="edge">
<title>Node6&#45;&gt;Node2</title>
<path fill="none" stroke="#404040" d="M341.6309,-606.4744C320.4098,-570.6036 282.7068,-506.8726 249.3265,-450.4485"/>
<polygon fill="none" stroke="#404040" points="249.259,-450.3343 242.7613,-447.207 243.1489,-440.0063 249.6466,-443.1336 249.259,-450.3343"/>
<text text-anchor="middle" x="360.5066" y="-574.5" font-family="Helvetica,sans-Serif" font-size="10.00" fill="#000000"> +DummyBC</text>
</g>
</g>
</svg>
