<?xml version="1.0" encoding="UTF-8" standalone="no"?>
<!DOCTYPE svg PUBLIC "-//W3C//DTD SVG 1.1//EN"
 "http://www.w3.org/Graphics/SVG/1.1/DTD/svg11.dtd">
<!-- Generated by graphviz version 2.40.1 (20161225.0304)
 -->
<!-- Title: EventSelectionTask Pages: 1 -->
<svg width="1366pt" height="1256pt"
 viewBox="0.00 0.00 1366.00 1256.00" xmlns="http://www.w3.org/2000/svg" xmlns:xlink="http://www.w3.org/1999/xlink">
<g id="graph0" class="graph" transform="scale(1 1) rotate(0) translate(4 1252)">
<title>EventSelectionTask</title>
<!-- Node1 -->
<g id="node1" class="node">
<title>Node1</title>
<polygon fill="#bfbfbf" stroke="#000000" points="364.5,-.5 364.5,-156.5 475.5,-156.5 475.5,-.5 364.5,-.5"/>
<text text-anchor="middle" x="420" y="-144.5" font-family="Helvetica,sans-Serif" font-size="10.00" fill="#000000">EventSelectionTask</text>
<polyline fill="none" stroke="#000000" points="364.5,-137.5 475.5,-137.5 "/>
<text text-anchor="start" x="372.5" y="-125.5" font-family="Helvetica,sans-Serif" font-size="10.00" fill="#000000">+ hTimeZNAall</text>
<text text-anchor="start" x="372.5" y="-114.5" font-family="Helvetica,sans-Serif" font-size="10.00" fill="#000000">+ hTimeV0Aacc</text>
<polyline fill="none" stroke="#000000" points="364.5,-107.5 475.5,-107.5 "/>
<text text-anchor="start" x="372.5" y="-95.5" font-family="Helvetica,sans-Serif" font-size="10.00" fill="#000000">+ getVZero()</text>
<text text-anchor="start" x="372.5" y="-84.5" font-family="Helvetica,sans-Serif" font-size="10.00" fill="#000000">+ getZdc()</text>
<text text-anchor="start" x="372.5" y="-73.5" font-family="Helvetica,sans-Serif" font-size="10.00" fill="#000000">+ getFDD()</text>
<text text-anchor="start" x="372.5" y="-62.5" font-family="Helvetica,sans-Serif" font-size="10.00" fill="#000000">+ init()</text>
<text text-anchor="start" x="372.5" y="-51.5" font-family="Helvetica,sans-Serif" font-size="10.00" fill="#000000">+ process()</text>
<text text-anchor="start" x="372.5" y="-40.5" font-family="Helvetica,sans-Serif" font-size="10.00" fill="#000000">+ getVZero()</text>
<text text-anchor="start" x="372.5" y="-29.5" font-family="Helvetica,sans-Serif" font-size="10.00" fill="#000000">+ getZdc()</text>
<text text-anchor="start" x="372.5" y="-18.5" font-family="Helvetica,sans-Serif" font-size="10.00" fill="#000000">+ getFDD()</text>
<text text-anchor="start" x="372.5" y="-7.5" font-family="Helvetica,sans-Serif" font-size="10.00" fill="#000000">+ process()</text>
</g>
<!-- Node2 -->
<g id="node2" class="node">
<title>Node2</title>
<g id="a_node2"><a xlink:href="../../d2/d33/structEvSelParameters.html" target="_top" xlink:title="{EvSelParameters\n|+ fV0CDist\l+ fV0ABBlower\l+ fV0ABGlower\l+ fV0ABGupper\l+ fV0CBBlower\l+ fV0CBGupper\l+ fFDABBlower\l+ fFDABBupper\l+ fFDABGupper\l+ fFDCBBlower\l+ fFDCBBupper\l+ fFDCBGupper\l+ fZNABBupper\l+ fZNCBBupper\l|}">
<polygon fill="none" stroke="#000000" points="44.5,-314.5 44.5,-514.5 143.5,-514.5 143.5,-314.5 44.5,-314.5"/>
<text text-anchor="middle" x="94" y="-502.5" font-family="Helvetica,sans-Serif" font-size="10.00" fill="#000000">EvSelParameters</text>
<polyline fill="none" stroke="#000000" points="44.5,-495.5 143.5,-495.5 "/>
<text text-anchor="start" x="52.5" y="-483.5" font-family="Helvetica,sans-Serif" font-size="10.00" fill="#000000">+ fV0CDist</text>
<text text-anchor="start" x="52.5" y="-472.5" font-family="Helvetica,sans-Serif" font-size="10.00" fill="#000000">+ fV0ABBlower</text>
<text text-anchor="start" x="52.5" y="-461.5" font-family="Helvetica,sans-Serif" font-size="10.00" fill="#000000">+ fV0ABGlower</text>
<text text-anchor="start" x="52.5" y="-450.5" font-family="Helvetica,sans-Serif" font-size="10.00" fill="#000000">+ fV0ABGupper</text>
<text text-anchor="start" x="52.5" y="-439.5" font-family="Helvetica,sans-Serif" font-size="10.00" fill="#000000">+ fV0CBBlower</text>
<text text-anchor="start" x="52.5" y="-428.5" font-family="Helvetica,sans-Serif" font-size="10.00" fill="#000000">+ fV0CBGupper</text>
<text text-anchor="start" x="52.5" y="-417.5" font-family="Helvetica,sans-Serif" font-size="10.00" fill="#000000">+ fFDABBlower</text>
<text text-anchor="start" x="52.5" y="-406.5" font-family="Helvetica,sans-Serif" font-size="10.00" fill="#000000">+ fFDABBupper</text>
<text text-anchor="start" x="52.5" y="-395.5" font-family="Helvetica,sans-Serif" font-size="10.00" fill="#000000">+ fFDABGupper</text>
<text text-anchor="start" x="52.5" y="-384.5" font-family="Helvetica,sans-Serif" font-size="10.00" fill="#000000">+ fFDCBBlower</text>
<text text-anchor="start" x="52.5" y="-373.5" font-family="Helvetica,sans-Serif" font-size="10.00" fill="#000000">+ fFDCBBupper</text>
<text text-anchor="start" x="52.5" y="-362.5" font-family="Helvetica,sans-Serif" font-size="10.00" fill="#000000">+ fFDCBGupper</text>
<text text-anchor="start" x="52.5" y="-351.5" font-family="Helvetica,sans-Serif" font-size="10.00" fill="#000000">+ fZNABBupper</text>
<text text-anchor="start" x="52.5" y="-340.5" font-family="Helvetica,sans-Serif" font-size="10.00" fill="#000000">+ fZNCBBupper</text>
<polyline fill="none" stroke="#000000" points="44.5,-333.5 143.5,-333.5 "/>
<text text-anchor="middle" x="94" y="-321.5" font-family="Helvetica,sans-Serif" font-size="10.00" fill="#000000"> </text>
</a>
</g>
</g>
<!-- Node2&#45;&gt;Node1 -->
<g id="edge1" class="edge">
<title>Node2&#45;&gt;Node1</title>
<path fill="none" stroke="#404040" d="M143.5124,-363.4688C200.2469,-304.994 293.3969,-208.9866 355.6965,-144.776"/>
<polygon fill="none" stroke="#404040" points="355.9194,-144.5463 357.2266,-137.4547 364.2755,-135.9338 362.9683,-143.0255 355.9194,-144.5463"/>
<text text-anchor="middle" x="338" y="-233" font-family="Helvetica,sans-Serif" font-size="10.00" fill="#000000"> +par</text>
</g>
<!-- Node3 -->
<g id="node3" class="node">
<title>Node3</title>
<g id="a_node3"><a xlink:href="../../d4/dc3/classfloat.html" target="_top" xlink:title="{float\n||}">
<polygon fill="none" stroke="#000000" points="0,-782.5 0,-839.5 38,-839.5 38,-782.5 0,-782.5"/>
<text text-anchor="middle" x="19" y="-827.5" font-family="Helvetica,sans-Serif" font-size="10.00" fill="#000000">float</text>
<polyline fill="none" stroke="#000000" points="0,-820.5 38,-820.5 "/>
<text text-anchor="middle" x="19" y="-808.5" font-family="Helvetica,sans-Serif" font-size="10.00" fill="#000000"> </text>
<polyline fill="none" stroke="#000000" points="0,-801.5 38,-801.5 "/>
<text text-anchor="middle" x="19" y="-789.5" font-family="Helvetica,sans-Serif" font-size="10.00" fill="#000000"> </text>
</a>
</g>
</g>
<!-- Node3&#45;&gt;Node2 -->
<g id="edge2" class="edge">
<title>Node3&#45;&gt;Node2</title>
<path fill="none" stroke="#404040" d="M17.3058,-782.4155C15.057,-731.3873 13.7483,-621.6531 37,-533 38.0135,-529.1356 39.1549,-525.2458 40.4018,-521.3521"/>
<polygon fill="none" stroke="#404040" points="40.5158,-521.0221 38.696,-514.0444 44.4371,-509.6809 46.2569,-516.6586 40.5158,-521.0221"/>
<text text-anchor="middle" x="75" y="-646" font-family="Helvetica,sans-Serif" font-size="10.00" fill="#000000"> +fV0CBBupper</text>
<text text-anchor="middle" x="75" y="-635" font-family="Helvetica,sans-Serif" font-size="10.00" fill="#000000">+fZNCBBlower</text>
<text text-anchor="middle" x="75" y="-624" font-family="Helvetica,sans-Serif" font-size="10.00" fill="#000000">+fFDCBGlower</text>
<text text-anchor="middle" x="75" y="-613" font-family="Helvetica,sans-Serif" font-size="10.00" fill="#000000">+fV0ABBupper</text>
<text text-anchor="middle" x="75" y="-602" font-family="Helvetica,sans-Serif" font-size="10.00" fill="#000000">+fFDADist</text>
<text text-anchor="middle" x="75" y="-591" font-family="Helvetica,sans-Serif" font-size="10.00" fill="#000000">+fZNABBlower</text>
<text text-anchor="middle" x="75" y="-580" font-family="Helvetica,sans-Serif" font-size="10.00" fill="#000000">+fFDABGlower</text>
<text text-anchor="middle" x="75" y="-569" font-family="Helvetica,sans-Serif" font-size="10.00" fill="#000000">+fV0CBGlower</text>
<text text-anchor="middle" x="75" y="-558" font-family="Helvetica,sans-Serif" font-size="10.00" fill="#000000">+fFDCDist</text>
<text text-anchor="middle" x="75" y="-547" font-family="Helvetica,sans-Serif" font-size="10.00" fill="#000000">+fV0ADist</text>
<text text-anchor="middle" x="75" y="-536" font-family="Helvetica,sans-Serif" font-size="10.00" fill="#000000">...</text>
</g>
<!-- Node4 -->
<g id="node4" class="node">
<title>Node4</title>
<g id="a_node4"><a xlink:href="../../de/de9/structo2_1_1framework_1_1Service.html" target="_top" xlink:title="{o2::framework::Service\l\&lt; o2::ccdb::BasicCCDBManager \&gt;\n||+ operator&#45;\&gt;()\l}">
<polygon fill="none" stroke="#000000" points="236,-380.5 236,-448.5 418,-448.5 418,-380.5 236,-380.5"/>
<text text-anchor="start" x="244" y="-436.5" font-family="Helvetica,sans-Serif" font-size="10.00" fill="#000000">o2::framework::Service</text>
<text text-anchor="middle" x="327" y="-425.5" font-family="Helvetica,sans-Serif" font-size="10.00" fill="#000000">&lt; o2::ccdb::BasicCCDBManager &gt;</text>
<polyline fill="none" stroke="#000000" points="236,-418.5 418,-418.5 "/>
<text text-anchor="middle" x="327" y="-406.5" font-family="Helvetica,sans-Serif" font-size="10.00" fill="#000000"> </text>
<polyline fill="none" stroke="#000000" points="236,-399.5 418,-399.5 "/>
<text text-anchor="start" x="244" y="-387.5" font-family="Helvetica,sans-Serif" font-size="10.00" fill="#000000">+ operator&#45;&gt;()</text>
</a>
</g>
</g>
<!-- Node4&#45;&gt;Node1 -->
<g id="edge3" class="edge">
<title>Node4&#45;&gt;Node1</title>
<path fill="none" stroke="#404040" d="M336.4291,-380.4335C350.0707,-331.1479 375.7912,-238.2222 395.1109,-168.4218"/>
<polygon fill="none" stroke="#404040" points="395.195,-168.118 392.9405,-161.2683 398.3961,-156.5528 400.6506,-163.4024 395.195,-168.118"/>
<text text-anchor="middle" x="410" y="-233" font-family="Helvetica,sans-Serif" font-size="10.00" fill="#000000"> +ccdb</text>
</g>
<!-- Node5 -->
<g id="node5" class="node">
<title>Node5</title>
<g id="a_node5"><a xlink:href="../../da/d73/classo2_1_1ccdb_1_1BasicCCDBManager.html" target="_top" xlink:title="{o2::ccdb::BasicCCDBManager\n||+ setURL()\l+ setTimestamp()\l+ getURL()\l+ getTimestamp()\l+ getForTimeStamp()\l+ get()\l+ isHostReachable()\l+ clearCache()\l+ clearCache()\l+ isCachingEnabled()\l+ setCaching()\l+ isLocalObjectValidityChecking\lEnabled()\l+ setLocalObjectValidityChecking()\l+ setCreatedNotAfter()\l+ getCreatedNotAfter()\l+ resetCreatedNotAfter()\l+ setCreatedNotBefore()\l+ getCreatedNotBefore()\l+ resetCreatedNotBefore()\l+ instance()\l}">
<polygon fill="none" stroke="#000000" points="232.5,-672.5 232.5,-949.5 421.5,-949.5 421.5,-672.5 232.5,-672.5"/>
<text text-anchor="middle" x="327" y="-937.5" font-family="Helvetica,sans-Serif" font-size="10.00" fill="#000000">o2::ccdb::BasicCCDBManager</text>
<polyline fill="none" stroke="#000000" points="232.5,-930.5 421.5,-930.5 "/>
<text text-anchor="middle" x="327" y="-918.5" font-family="Helvetica,sans-Serif" font-size="10.00" fill="#000000"> </text>
<polyline fill="none" stroke="#000000" points="232.5,-911.5 421.5,-911.5 "/>
<text text-anchor="start" x="240.5" y="-899.5" font-family="Helvetica,sans-Serif" font-size="10.00" fill="#000000">+ setURL()</text>
<text text-anchor="start" x="240.5" y="-888.5" font-family="Helvetica,sans-Serif" font-size="10.00" fill="#000000">+ setTimestamp()</text>
<text text-anchor="start" x="240.5" y="-877.5" font-family="Helvetica,sans-Serif" font-size="10.00" fill="#000000">+ getURL()</text>
<text text-anchor="start" x="240.5" y="-866.5" font-family="Helvetica,sans-Serif" font-size="10.00" fill="#000000">+ getTimestamp()</text>
<text text-anchor="start" x="240.5" y="-855.5" font-family="Helvetica,sans-Serif" font-size="10.00" fill="#000000">+ getForTimeStamp()</text>
<text text-anchor="start" x="240.5" y="-844.5" font-family="Helvetica,sans-Serif" font-size="10.00" fill="#000000">+ get()</text>
<text text-anchor="start" x="240.5" y="-833.5" font-family="Helvetica,sans-Serif" font-size="10.00" fill="#000000">+ isHostReachable()</text>
<text text-anchor="start" x="240.5" y="-822.5" font-family="Helvetica,sans-Serif" font-size="10.00" fill="#000000">+ clearCache()</text>
<text text-anchor="start" x="240.5" y="-811.5" font-family="Helvetica,sans-Serif" font-size="10.00" fill="#000000">+ clearCache()</text>
<text text-anchor="start" x="240.5" y="-800.5" font-family="Helvetica,sans-Serif" font-size="10.00" fill="#000000">+ isCachingEnabled()</text>
<text text-anchor="start" x="240.5" y="-789.5" font-family="Helvetica,sans-Serif" font-size="10.00" fill="#000000">+ setCaching()</text>
<text text-anchor="start" x="240.5" y="-778.5" font-family="Helvetica,sans-Serif" font-size="10.00" fill="#000000">+ isLocalObjectValidityChecking</text>
<text text-anchor="start" x="240.5" y="-767.5" font-family="Helvetica,sans-Serif" font-size="10.00" fill="#000000">Enabled()</text>
<text text-anchor="start" x="240.5" y="-756.5" font-family="Helvetica,sans-Serif" font-size="10.00" fill="#000000">+ setLocalObjectValidityChecking()</text>
<text text-anchor="start" x="240.5" y="-745.5" font-family="Helvetica,sans-Serif" font-size="10.00" fill="#000000">+ setCreatedNotAfter()</text>
<text text-anchor="start" x="240.5" y="-734.5" font-family="Helvetica,sans-Serif" font-size="10.00" fill="#000000">+ getCreatedNotAfter()</text>
<text text-anchor="start" x="240.5" y="-723.5" font-family="Helvetica,sans-Serif" font-size="10.00" fill="#000000">+ resetCreatedNotAfter()</text>
<text text-anchor="start" x="240.5" y="-712.5" font-family="Helvetica,sans-Serif" font-size="10.00" fill="#000000">+ setCreatedNotBefore()</text>
<text text-anchor="start" x="240.5" y="-701.5" font-family="Helvetica,sans-Serif" font-size="10.00" fill="#000000">+ getCreatedNotBefore()</text>
<text text-anchor="start" x="240.5" y="-690.5" font-family="Helvetica,sans-Serif" font-size="10.00" fill="#000000">+ resetCreatedNotBefore()</text>
<text text-anchor="start" x="240.5" y="-679.5" font-family="Helvetica,sans-Serif" font-size="10.00" fill="#000000">+ instance()</text>
</a>
</g>
</g>
<!-- Node5&#45;&gt;Node4 -->
<g id="edge4" class="edge">
<title>Node5&#45;&gt;Node4</title>
<path fill="none" stroke="#404040" d="M327,-672.3235C327,-598.4653 327,-512.4458 327,-460.7946"/>
<polygon fill="none" stroke="#404040" points="327.0001,-460.7453 323,-454.7454 327,-448.7453 331,-454.7453 327.0001,-460.7453"/>
<text text-anchor="middle" x="350.5" y="-591" font-family="Helvetica,sans-Serif" font-size="10.00" fill="#000000"> +service</text>
</g>
<!-- Node6 -->
<g id="node6" class="node">
<title>Node6</title>
<g id="a_node6"><a xlink:href="../../de/de9/structo2_1_1framework_1_1Service.html" target="_top" xlink:title="{o2::framework::Service\&lt; T \&gt;\n||+ operator&#45;\&gt;()\l}">
<polygon fill="none" stroke="#000000" points="56,-782.5 56,-839.5 214,-839.5 214,-782.5 56,-782.5"/>
<text text-anchor="middle" x="135" y="-827.5" font-family="Helvetica,sans-Serif" font-size="10.00" fill="#000000">o2::framework::Service&lt; T &gt;</text>
<polyline fill="none" stroke="#000000" points="56,-820.5 214,-820.5 "/>
<text text-anchor="middle" x="135" y="-808.5" font-family="Helvetica,sans-Serif" font-size="10.00" fill="#000000"> </text>
<polyline fill="none" stroke="#000000" points="56,-801.5 214,-801.5 "/>
<text text-anchor="start" x="64" y="-789.5" font-family="Helvetica,sans-Serif" font-size="10.00" fill="#000000">+ operator&#45;&gt;()</text>
</a>
</g>
</g>
<!-- Node6&#45;&gt;Node4 -->
<g id="edge5" class="edge">
<title>Node6&#45;&gt;Node4</title>
<path fill="none" stroke="#ffa500" d="M127.645,-772.2961C118.9766,-715.6582 110.7237,-608.7181 154,-533 175.1358,-496.02 213.0879,-468.09 248.0705,-448.6621"/>
<polygon fill="#ffa500" stroke="#ffa500" points="124.2058,-772.9537 129.2561,-782.2674 131.1161,-771.8372 124.2058,-772.9537"/>
<text text-anchor="middle" x="238.5" y="-591" font-family="Helvetica,sans-Serif" font-size="10.00" fill="#000000"> &lt; o2::ccdb::BasicCCDBManager &gt;</text>
</g>
<!-- Node7 -->
<g id="node7" class="node">
<title>Node7</title>
<polygon fill="none" stroke="#bfbfbf" points="120.5,-1025 120.5,-1082 149.5,-1082 149.5,-1025 120.5,-1025"/>
<text text-anchor="middle" x="135" y="-1070" font-family="Helvetica,sans-Serif" font-size="10.00" fill="#000000">T</text>
<polyline fill="none" stroke="#bfbfbf" points="120.5,-1063 149.5,-1063 "/>
<text text-anchor="middle" x="135" y="-1051" font-family="Helvetica,sans-Serif" font-size="10.00" fill="#000000"> </text>
<polyline fill="none" stroke="#bfbfbf" points="120.5,-1044 149.5,-1044 "/>
<text text-anchor="middle" x="135" y="-1032" font-family="Helvetica,sans-Serif" font-size="10.00" fill="#000000"> </text>
</g>
<!-- Node7&#45;&gt;Node6 -->
<g id="edge6" class="edge">
<title>Node7&#45;&gt;Node6</title>
<path fill="none" stroke="#404040" d="M135,-1024.7298C135,-981.7959 135,-900.7742 135,-851.7591"/>
<polygon fill="none" stroke="#404040" points="135.0001,-851.7328 131,-845.7328 135,-839.7328 139,-845.7327 135.0001,-851.7328"/>
<text text-anchor="middle" x="158.5" y="-971" font-family="Helvetica,sans-Serif" font-size="10.00" fill="#000000"> +service</text>
</g>
<!-- Node8 -->
<g id="node8" class="node">
<title>Node8</title>
<g id="a_node8"><a xlink:href="../../d6/d86/structo2_1_1framework_1_1Produces.html" target="_top" xlink:title="{o2::framework::Produces\l\&lt; aod::EvSels \&gt;\n||}">
<polygon fill="none" stroke="#000000" points="445,-380.5 445,-448.5 583,-448.5 583,-380.5 445,-380.5"/>
<text text-anchor="start" x="453" y="-436.5" font-family="Helvetica,sans-Serif" font-size="10.00" fill="#000000">o2::framework::Produces</text>
<text text-anchor="middle" x="514" y="-425.5" font-family="Helvetica,sans-Serif" font-size="10.00" fill="#000000">&lt; aod::EvSels &gt;</text>
<polyline fill="none" stroke="#000000" points="445,-418.5 583,-418.5 "/>
<text text-anchor="middle" x="514" y="-406.5" font-family="Helvetica,sans-Serif" font-size="10.00" fill="#000000"> </text>
<polyline fill="none" stroke="#000000" points="445,-399.5 583,-399.5 "/>
<text text-anchor="middle" x="514" y="-387.5" font-family="Helvetica,sans-Serif" font-size="10.00" fill="#000000"> </text>
</a>
</g>
</g>
<!-- Node8&#45;&gt;Node1 -->
<g id="edge7" class="edge">
<title>Node8&#45;&gt;Node1</title>
<path fill="none" stroke="#404040" d="M504.4695,-380.4335C490.6813,-331.1479 464.6842,-238.2222 445.1567,-168.4218"/>
<polygon fill="none" stroke="#404040" points="445.0693,-168.1091 439.6006,-163.4086 441.8362,-156.5528 447.3048,-161.2533 445.0693,-168.1091"/>
<text text-anchor="middle" x="498" y="-233" font-family="Helvetica,sans-Serif" font-size="10.00" fill="#000000"> +evsel</text>
</g>
<!-- Node9 -->
<g id="node9" class="node">
<title>Node9</title>
<g id="a_node9"><a xlink:href="../../d6/d86/structo2_1_1framework_1_1Produces.html" target="_top" xlink:title="{o2::framework::Produces\&lt; T \&gt;\n||}">
<polygon fill="none" stroke="#000000" points="439.5,-782.5 439.5,-839.5 606.5,-839.5 606.5,-782.5 439.5,-782.5"/>
<text text-anchor="middle" x="523" y="-827.5" font-family="Helvetica,sans-Serif" font-size="10.00" fill="#000000">o2::framework::Produces&lt; T &gt;</text>
<polyline fill="none" stroke="#000000" points="439.5,-820.5 606.5,-820.5 "/>
<text text-anchor="middle" x="523" y="-808.5" font-family="Helvetica,sans-Serif" font-size="10.00" fill="#000000"> </text>
<polyline fill="none" stroke="#000000" points="439.5,-801.5 606.5,-801.5 "/>
<text text-anchor="middle" x="523" y="-789.5" font-family="Helvetica,sans-Serif" font-size="10.00" fill="#000000"> </text>
</a>
</g>
</g>
<!-- Node9&#45;&gt;Node8 -->
<g id="edge8" class="edge">
<title>Node9&#45;&gt;Node8</title>
<path fill="none" stroke="#ffa500" d="M522.1194,-772.2041C520.3606,-694.7216 516.4394,-521.9712 514.7731,-448.5599"/>
<polygon fill="#ffa500" stroke="#ffa500" points="518.6266,-772.5667 522.3527,-782.4847 525.6248,-772.4078 518.6266,-772.5667"/>
<text text-anchor="middle" x="561" y="-591" font-family="Helvetica,sans-Serif" font-size="10.00" fill="#000000"> &lt; aod::EvSels &gt;</text>
</g>
<!-- Node10 -->
<g id="node10" class="node">
<title>Node10</title>
<g id="a_node10"><a xlink:href="../../d4/d79/structo2_1_1framework_1_1OutputObj.html" target="_top" xlink:title="{o2::framework::OutputObj\l\&lt; TH1F \&gt;\n||+ spec()\l+ OutputObj()\l+ OutputObj()\l+ setObject()\l+ setObject()\l+ setObject()\l+ setHash()\l+ operator&#45;\&gt;()\l+ operator*()\l+ ref()\l}">
<polygon fill="none" stroke="#000000" points="824.5,-331 824.5,-498 967.5,-498 967.5,-331 824.5,-331"/>
<text text-anchor="start" x="832.5" y="-486" font-family="Helvetica,sans-Serif" font-size="10.00" fill="#000000">o2::framework::OutputObj</text>
<text text-anchor="middle" x="896" y="-475" font-family="Helvetica,sans-Serif" font-size="10.00" fill="#000000">&lt; TH1F &gt;</text>
<polyline fill="none" stroke="#000000" points="824.5,-468 967.5,-468 "/>
<text text-anchor="middle" x="896" y="-456" font-family="Helvetica,sans-Serif" font-size="10.00" fill="#000000"> </text>
<polyline fill="none" stroke="#000000" points="824.5,-449 967.5,-449 "/>
<text text-anchor="start" x="832.5" y="-437" font-family="Helvetica,sans-Serif" font-size="10.00" fill="#000000">+ spec()</text>
<text text-anchor="start" x="832.5" y="-426" font-family="Helvetica,sans-Serif" font-size="10.00" fill="#000000">+ OutputObj()</text>
<text text-anchor="start" x="832.5" y="-415" font-family="Helvetica,sans-Serif" font-size="10.00" fill="#000000">+ OutputObj()</text>
<text text-anchor="start" x="832.5" y="-404" font-family="Helvetica,sans-Serif" font-size="10.00" fill="#000000">+ setObject()</text>
<text text-anchor="start" x="832.5" y="-393" font-family="Helvetica,sans-Serif" font-size="10.00" fill="#000000">+ setObject()</text>
<text text-anchor="start" x="832.5" y="-382" font-family="Helvetica,sans-Serif" font-size="10.00" fill="#000000">+ setObject()</text>
<text text-anchor="start" x="832.5" y="-371" font-family="Helvetica,sans-Serif" font-size="10.00" fill="#000000">+ setHash()</text>
<text text-anchor="start" x="832.5" y="-360" font-family="Helvetica,sans-Serif" font-size="10.00" fill="#000000">+ operator&#45;&gt;()</text>
<text text-anchor="start" x="832.5" y="-349" font-family="Helvetica,sans-Serif" font-size="10.00" fill="#000000">+ operator*()</text>
<text text-anchor="start" x="832.5" y="-338" font-family="Helvetica,sans-Serif" font-size="10.00" fill="#000000">+ ref()</text>
</a>
</g>
</g>
<!-- Node10&#45;&gt;Node1 -->
<g id="edge9" class="edge">
<title>Node10&#45;&gt;Node1</title>
<path fill="none" stroke="#404040" d="M824.4805,-364.0156C732.6409,-299.1877 574.5403,-187.5873 485.6387,-124.8332"/>
<polygon fill="none" stroke="#404040" points="485.4798,-124.7211 478.2712,-124.5288 475.6762,-117.8008 482.8847,-117.9931 485.4798,-124.7211"/>
<text text-anchor="middle" x="753.5" y="-288" font-family="Helvetica,sans-Serif" font-size="10.00" fill="#000000"> +hTimeV0Aall</text>
<text text-anchor="middle" x="753.5" y="-277" font-family="Helvetica,sans-Serif" font-size="10.00" fill="#000000">+hTimeFDCacc</text>
<text text-anchor="middle" x="753.5" y="-266" font-family="Helvetica,sans-Serif" font-size="10.00" fill="#000000">+hTimeFDCall</text>
<text text-anchor="middle" x="753.5" y="-255" font-family="Helvetica,sans-Serif" font-size="10.00" fill="#000000">+hTimeZNCacc</text>
<text text-anchor="middle" x="753.5" y="-244" font-family="Helvetica,sans-Serif" font-size="10.00" fill="#000000">+hTimeV0Cacc</text>
<text text-anchor="middle" x="753.5" y="-233" font-family="Helvetica,sans-Serif" font-size="10.00" fill="#000000">+hTimeZNCall</text>
<text text-anchor="middle" x="753.5" y="-222" font-family="Helvetica,sans-Serif" font-size="10.00" fill="#000000">+hTimeFDAacc</text>
<text text-anchor="middle" x="753.5" y="-211" font-family="Helvetica,sans-Serif" font-size="10.00" fill="#000000">+hTimeV0Call</text>
<text text-anchor="middle" x="753.5" y="-200" font-family="Helvetica,sans-Serif" font-size="10.00" fill="#000000">+hTimeFDAall</text>
<text text-anchor="middle" x="753.5" y="-189" font-family="Helvetica,sans-Serif" font-size="10.00" fill="#000000">+hTimeZNAacc</text>
<text text-anchor="middle" x="753.5" y="-178" font-family="Helvetica,sans-Serif" font-size="10.00" fill="#000000">...</text>
</g>
<!-- Node11 -->
<g id="node11" class="node">
<title>Node11</title>
<polygon fill="none" stroke="#bfbfbf" points="573.5,-1025 573.5,-1082 712.5,-1082 712.5,-1025 573.5,-1025"/>
<text text-anchor="middle" x="643" y="-1070" font-family="Helvetica,sans-Serif" font-size="10.00" fill="#000000">OutputObjHandlingPolicy</text>
<polyline fill="none" stroke="#bfbfbf" points="573.5,-1063 712.5,-1063 "/>
<text text-anchor="middle" x="643" y="-1051" font-family="Helvetica,sans-Serif" font-size="10.00" fill="#000000"> </text>
<polyline fill="none" stroke="#bfbfbf" points="573.5,-1044 712.5,-1044 "/>
<text text-anchor="middle" x="643" y="-1032" font-family="Helvetica,sans-Serif" font-size="10.00" fill="#000000"> </text>
</g>
<!-- Node11&#45;&gt;Node10 -->
<g id="edge10" class="edge">
<title>Node11&#45;&gt;Node10</title>
<path fill="none" stroke="#404040" d="M637.5446,-1024.6187C626.5017,-959.3957 606.1646,-796.6778 651,-672 681.2636,-587.8435 755.7862,-516.4433 814.7544,-470.3291"/>
<polygon fill="none" stroke="#404040" points="814.94,-470.1862 817.2534,-463.3562 824.4478,-462.8648 822.1343,-469.6948 814.94,-470.1862"/>
<text text-anchor="middle" x="671.5" y="-808.5" font-family="Helvetica,sans-Serif" font-size="10.00" fill="#000000"> +policy</text>
</g>
<!-- Node19 -->
<g id="node19" class="node">
<title>Node19</title>
<g id="a_node19"><a xlink:href="../../d4/d79/structo2_1_1framework_1_1OutputObj.html" target="_top" xlink:title="{o2::framework::OutputObj\&lt; T \&gt;\n||+ OutputObj()\l+ OutputObj()\l+ setObject()\l+ setObject()\l+ setObject()\l+ setHash()\l+ spec()\l+ operator&#45;\&gt;()\l+ operator*()\l+ ref()\l}">
<polygon fill="none" stroke="#000000" points="905,-733 905,-889 1077,-889 1077,-733 905,-733"/>
<text text-anchor="middle" x="991" y="-877" font-family="Helvetica,sans-Serif" font-size="10.00" fill="#000000">o2::framework::OutputObj&lt; T &gt;</text>
<polyline fill="none" stroke="#000000" points="905,-870 1077,-870 "/>
<text text-anchor="middle" x="991" y="-858" font-family="Helvetica,sans-Serif" font-size="10.00" fill="#000000"> </text>
<polyline fill="none" stroke="#000000" points="905,-851 1077,-851 "/>
<text text-anchor="start" x="913" y="-839" font-family="Helvetica,sans-Serif" font-size="10.00" fill="#000000">+ OutputObj()</text>
<text text-anchor="start" x="913" y="-828" font-family="Helvetica,sans-Serif" font-size="10.00" fill="#000000">+ OutputObj()</text>
<text text-anchor="start" x="913" y="-817" font-family="Helvetica,sans-Serif" font-size="10.00" fill="#000000">+ setObject()</text>
<text text-anchor="start" x="913" y="-806" font-family="Helvetica,sans-Serif" font-size="10.00" fill="#000000">+ setObject()</text>
<text text-anchor="start" x="913" y="-795" font-family="Helvetica,sans-Serif" font-size="10.00" fill="#000000">+ setObject()</text>
<text text-anchor="start" x="913" y="-784" font-family="Helvetica,sans-Serif" font-size="10.00" fill="#000000">+ setHash()</text>
<text text-anchor="start" x="913" y="-773" font-family="Helvetica,sans-Serif" font-size="10.00" fill="#000000">+ spec()</text>
<text text-anchor="start" x="913" y="-762" font-family="Helvetica,sans-Serif" font-size="10.00" fill="#000000">+ operator&#45;&gt;()</text>
<text text-anchor="start" x="913" y="-751" font-family="Helvetica,sans-Serif" font-size="10.00" fill="#000000">+ operator*()</text>
<text text-anchor="start" x="913" y="-740" font-family="Helvetica,sans-Serif" font-size="10.00" fill="#000000">+ ref()</text>
</a>
</g>
</g>
<!-- Node11&#45;&gt;Node19 -->
<g id="edge20" class="edge">
<title>Node11&#45;&gt;Node19</title>
<path fill="none" stroke="#404040" d="M678.0432,-1024.9043C691.4858,-1014.9941 707.3624,-1004.501 723,-997 765.1088,-976.8014 779.0023,-980.5036 824,-968 853.7081,-959.745 865.6358,-967.5321 891,-950 910.367,-936.6133 927.3215,-918.2065 941.5027,-899.1669"/>
<polygon fill="none" stroke="#404040" points="941.673,-898.9293 941.9173,-891.7224 948.6639,-889.176 948.4196,-896.383 941.673,-898.9293"/>
<text text-anchor="middle" x="844.5" y="-971" font-family="Helvetica,sans-Serif" font-size="10.00" fill="#000000"> +policy</text>
</g>
<!-- Node12 -->
<g id="node12" class="node">
<title>Node12</title>
<polygon fill="none" stroke="#bfbfbf" points="1011.5,-1174 1011.5,-1231 1040.5,-1231 1040.5,-1174 1011.5,-1174"/>
<text text-anchor="middle" x="1026" y="-1219" font-family="Helvetica,sans-Serif" font-size="10.00" fill="#000000">int</text>
<polyline fill="none" stroke="#bfbfbf" points="1011.5,-1212 1040.5,-1212 "/>
<text text-anchor="middle" x="1026" y="-1200" font-family="Helvetica,sans-Serif" font-size="10.00" fill="#000000"> </text>
<polyline fill="none" stroke="#bfbfbf" points="1011.5,-1193 1040.5,-1193 "/>
<text text-anchor="middle" x="1026" y="-1181" font-family="Helvetica,sans-Serif" font-size="10.00" fill="#000000"> </text>
</g>
<!-- Node12&#45;&gt;Node10 -->
<g id="edge11" class="edge">
<title>Node12&#45;&gt;Node10</title>
<path fill="none" stroke="#404040" d="M1040.7081,-1199.9576C1077.9314,-1192.7684 1176.7575,-1168.8618 1231,-1110 1364.0308,-965.6404 1364.4082,-852.8278 1288,-672 1233.8666,-543.8876 1077.4621,-472.0996 979.3586,-438.5075"/>
<polygon fill="none" stroke="#404040" points="979.0728,-438.4118 972.1128,-440.2981 967.6946,-434.599 974.6546,-432.7126 979.0728,-438.4118"/>
<text text-anchor="middle" x="1340" y="-971" font-family="Helvetica,sans-Serif" font-size="10.00" fill="#000000"> +label</text>
</g>
<!-- Node14 -->
<g id="node14" class="node">
<title>Node14</title>
<g id="a_node14"><a xlink:href="../../da/d96/structo2_1_1framework_1_1InputSpec.html" target="_top" xlink:title="{o2::framework::InputSpec\n||+ InputSpec()\l+ InputSpec()\l+ InputSpec()\l+ InputSpec()\l+ InputSpec()\l+ operator==()\l}">
<polygon fill="none" stroke="#000000" points="732,-997.5 732,-1109.5 874,-1109.5 874,-997.5 732,-997.5"/>
<text text-anchor="middle" x="803" y="-1097.5" font-family="Helvetica,sans-Serif" font-size="10.00" fill="#000000">o2::framework::InputSpec</text>
<polyline fill="none" stroke="#000000" points="732,-1090.5 874,-1090.5 "/>
<text text-anchor="middle" x="803" y="-1078.5" font-family="Helvetica,sans-Serif" font-size="10.00" fill="#000000"> </text>
<polyline fill="none" stroke="#000000" points="732,-1071.5 874,-1071.5 "/>
<text text-anchor="start" x="740" y="-1059.5" font-family="Helvetica,sans-Serif" font-size="10.00" fill="#000000">+ InputSpec()</text>
<text text-anchor="start" x="740" y="-1048.5" font-family="Helvetica,sans-Serif" font-size="10.00" fill="#000000">+ InputSpec()</text>
<text text-anchor="start" x="740" y="-1037.5" font-family="Helvetica,sans-Serif" font-size="10.00" fill="#000000">+ InputSpec()</text>
<text text-anchor="start" x="740" y="-1026.5" font-family="Helvetica,sans-Serif" font-size="10.00" fill="#000000">+ InputSpec()</text>
<text text-anchor="start" x="740" y="-1015.5" font-family="Helvetica,sans-Serif" font-size="10.00" fill="#000000">+ InputSpec()</text>
<text text-anchor="start" x="740" y="-1004.5" font-family="Helvetica,sans-Serif" font-size="10.00" fill="#000000">+ operator==()</text>
</a>
</g>
</g>
<!-- Node12&#45;&gt;Node14 -->
<g id="edge16" class="edge">
<title>Node12&#45;&gt;Node14</title>
<path fill="none" stroke="#404040" d="M1011.3861,-1193.1966C985.5324,-1176.6897 930.1068,-1141.0863 884,-1110 883.8978,-1109.9311 883.7956,-1109.8622 883.6933,-1109.7932"/>
<polygon fill="none" stroke="#404040" points="883.9595,-1109.9739 876.7486,-1109.9143 874.0302,-1103.2352 881.2411,-1103.2948 883.9595,-1109.9739"/>
<text text-anchor="middle" x="950" y="-1131" font-family="Helvetica,sans-Serif" font-size="10.00" fill="#000000"> +binding</text>
</g>
<!-- Node12&#45;&gt;Node19 -->
<g id="edge21" class="edge">
<title>Node12&#45;&gt;Node19</title>
<path fill="none" stroke="#404040" d="M1023.4264,-1173.7121C1018.3603,-1117.0445 1006.9064,-988.9239 999.0622,-901.1809"/>
<polygon fill="none" stroke="#404040" points="999.0489,-901.0319 994.5305,-895.412 997.9803,-889.0796 1002.4987,-894.6996 999.0489,-901.0319"/>
<text text-anchor="middle" x="1035" y="-1051" font-family="Helvetica,sans-Serif" font-size="10.00" fill="#000000"> +label</text>
</g>
<!-- Node13 -->
<g id="node13" class="node">
<title>Node13</title>
<polygon fill="none" stroke="#bfbfbf" points="1184,-1025 1184,-1082 1222,-1082 1222,-1025 1184,-1025"/>
<text text-anchor="middle" x="1203" y="-1070" font-family="Helvetica,sans-Serif" font-size="10.00" fill="#000000">bool</text>
<polyline fill="none" stroke="#bfbfbf" points="1184,-1063 1222,-1063 "/>
<text text-anchor="middle" x="1203" y="-1051" font-family="Helvetica,sans-Serif" font-size="10.00" fill="#000000"> </text>
<polyline fill="none" stroke="#bfbfbf" points="1184,-1044 1222,-1044 "/>
<text text-anchor="middle" x="1203" y="-1032" font-family="Helvetica,sans-Serif" font-size="10.00" fill="#000000"> </text>
</g>
<!-- Node13&#45;&gt;Node10 -->
<g id="edge12" class="edge">
<title>Node13&#45;&gt;Node10</title>
<path fill="none" stroke="#404040" d="M1208.5428,-1024.7677C1219.8251,-959.1692 1240.2863,-794.5902 1189,-672 1148.5194,-575.2388 1049.772,-501.3059 978.0794,-457.9969"/>
<polygon fill="none" stroke="#404040" points="978.0226,-457.9632 970.8211,-458.3348 967.7082,-451.8302 974.9098,-451.4585 978.0226,-457.9632"/>
<text text-anchor="middle" x="1253" y="-808.5" font-family="Helvetica,sans-Serif" font-size="10.00" fill="#000000"> +isdangling</text>
</g>
<!-- Node13&#45;&gt;Node19 -->
<g id="edge23" class="edge">
<title>Node13&#45;&gt;Node19</title>
<path fill="none" stroke="#404040" d="M1183.9863,-1030.043C1175.0198,-1019.513 1163.9113,-1007.1939 1153,-997 1127.9911,-973.6353 1115.8582,-974.5387 1092,-950 1076.9112,-934.4808 1062.2616,-916.5918 1049.0144,-898.9232"/>
<polygon fill="none" stroke="#404040" points="1048.9271,-898.8047 1042.1468,-896.3495 1041.8053,-889.1465 1048.5856,-891.6017 1048.9271,-898.8047"/>
<text text-anchor="middle" x="1160" y="-971" font-family="Helvetica,sans-Serif" font-size="10.00" fill="#000000"> +isdangling</text>
</g>
<!-- Node14&#45;&gt;Node10 -->
<g id="edge13" class="edge">
<title>Node14&#45;&gt;Node10</title>
<path fill="none" stroke="#404040" d="M831.0894,-997.3008C833.3851,-991.2274 835.4239,-985.0538 837,-979 871.4915,-846.5203 847.4799,-808.1239 862,-672 867.7209,-618.3672 875.5184,-558.6376 882.203,-510.2173"/>
<polygon fill="none" stroke="#404040" points="882.2265,-510.0473 879.0895,-503.5543 883.8765,-498.1613 887.0135,-504.6543 882.2265,-510.0473"/>
<text text-anchor="middle" x="879" y="-808.5" font-family="Helvetica,sans-Serif" font-size="10.00" fill="#000000"> +spec</text>
</g>
<!-- Node14&#45;&gt;Node19 -->
<g id="edge24" class="edge">
<title>Node14&#45;&gt;Node19</title>
<path fill="none" stroke="#404040" d="M852.2561,-997.2449C865.1158,-982.1072 878.7882,-965.6009 891,-950 903.7136,-933.758 916.8813,-916.1097 929.323,-899.0105"/>
<polygon fill="none" stroke="#404040" points="929.5183,-898.7407 929.7971,-891.535 936.5558,-889.0209 936.277,-896.2267 929.5183,-898.7407"/>
<text text-anchor="middle" x="891" y="-971" font-family="Helvetica,sans-Serif" font-size="10.00" fill="#000000"> +spec</text>
</g>
<!-- Node15 -->
<g id="node15" class="node">
<title>Node15</title>
<polygon fill="none" stroke="#bfbfbf" points="637,-1174 637,-1231 725,-1231 725,-1174 637,-1174"/>
<text text-anchor="middle" x="681" y="-1219" font-family="Helvetica,sans-Serif" font-size="10.00" fill="#000000">enum Lifetime</text>
<polyline fill="none" stroke="#bfbfbf" points="637,-1212 725,-1212 "/>
<text text-anchor="middle" x="681" y="-1200" font-family="Helvetica,sans-Serif" font-size="10.00" fill="#000000"> </text>
<polyline fill="none" stroke="#bfbfbf" points="637,-1193 725,-1193 "/>
<text text-anchor="middle" x="681" y="-1181" font-family="Helvetica,sans-Serif" font-size="10.00" fill="#000000"> </text>
</g>
<!-- Node15&#45;&gt;Node14 -->
<g id="edge14" class="edge">
<title>Node15&#45;&gt;Node14</title>
<path fill="none" stroke="#404040" d="M704.5228,-1173.7713C717.3163,-1158.1465 733.7007,-1138.1361 749.4181,-1118.9402"/>
<polygon fill="none" stroke="#404040" points="749.4595,-1118.8897 750.1657,-1111.7132 757.0617,-1109.6049 756.3555,-1116.7814 749.4595,-1118.8897"/>
<text text-anchor="middle" x="767" y="-1131" font-family="Helvetica,sans-Serif" font-size="10.00" fill="#000000"> +lifetime</text>
</g>
<!-- Node16 -->
<g id="node16" class="node">
<title>Node16</title>
<polygon fill="none" stroke="#bfbfbf" points="743,-1157.5 743,-1247.5 907,-1247.5 907,-1157.5 743,-1157.5"/>
<text text-anchor="start" x="751" y="-1235.5" font-family="Helvetica,sans-Serif" font-size="10.00" fill="#000000">variant&lt; o2::framework</text>
<text text-anchor="start" x="751" y="-1224.5" font-family="Helvetica,sans-Serif" font-size="10.00" fill="#000000">::ConcreteDataMatcher,</text>
<text text-anchor="start" x="751" y="-1213.5" font-family="Helvetica,sans-Serif" font-size="10.00" fill="#000000"> o2::framework::data_matcher</text>
<text text-anchor="middle" x="825" y="-1202.5" font-family="Helvetica,sans-Serif" font-size="10.00" fill="#000000">::DataDescriptorMatcher &gt;</text>
<polyline fill="none" stroke="#bfbfbf" points="743,-1195.5 907,-1195.5 "/>
<text text-anchor="middle" x="825" y="-1183.5" font-family="Helvetica,sans-Serif" font-size="10.00" fill="#000000"> </text>
<polyline fill="none" stroke="#bfbfbf" points="743,-1176.5 907,-1176.5 "/>
<text text-anchor="middle" x="825" y="-1164.5" font-family="Helvetica,sans-Serif" font-size="10.00" fill="#000000"> </text>
</g>
<!-- Node16&#45;&gt;Node14 -->
<g id="edge15" class="edge">
<title>Node16&#45;&gt;Node14</title>
<path fill="none" stroke="#404040" d="M818.3396,-1157.3907C816.6702,-1146.0845 814.842,-1133.7027 813.0479,-1121.5514"/>
<polygon fill="none" stroke="#404040" points="813.0251,-1121.3966 808.1915,-1116.0453 811.2722,-1109.5254 816.1057,-1114.8767 813.0251,-1121.3966"/>
<text text-anchor="middle" x="841" y="-1131" font-family="Helvetica,sans-Serif" font-size="10.00" fill="#000000"> +matcher</text>
</g>
<!-- Node17 -->
<g id="node17" class="node">
<title>Node17</title>
<polygon fill="none" stroke="#bfbfbf" points="1082.5,-1025 1082.5,-1082 1143.5,-1082 1143.5,-1025 1082.5,-1025"/>
<text text-anchor="middle" x="1113" y="-1070" font-family="Helvetica,sans-Serif" font-size="10.00" fill="#000000">unsigned</text>
<polyline fill="none" stroke="#bfbfbf" points="1082.5,-1063 1143.5,-1063 "/>
<text text-anchor="middle" x="1113" y="-1051" font-family="Helvetica,sans-Serif" font-size="10.00" fill="#000000"> </text>
<polyline fill="none" stroke="#bfbfbf" points="1082.5,-1044 1143.5,-1044 "/>
<text text-anchor="middle" x="1113" y="-1032" font-family="Helvetica,sans-Serif" font-size="10.00" fill="#000000"> </text>
</g>
<!-- Node17&#45;&gt;Node10 -->
<g id="edge17" class="edge">
<title>Node17&#45;&gt;Node10</title>
<path fill="none" stroke="#404040" d="M1115.2088,-1024.9677C1119.3008,-960.4592 1124.4488,-799.1087 1086,-672 1065.4482,-604.0572 1018.0843,-539.7934 975.7906,-492.4598"/>
<polygon fill="none" stroke="#404040" points="975.7466,-492.4112 968.7528,-490.6541 967.6849,-483.5225 974.6787,-485.2796 975.7466,-492.4112"/>
<text text-anchor="middle" x="1151" y="-808.5" font-family="Helvetica,sans-Serif" font-size="10.00" fill="#000000"> +mTaskHash</text>
</g>
<!-- Node17&#45;&gt;Node19 -->
<g id="edge25" class="edge">
<title>Node17&#45;&gt;Node19</title>
<path fill="none" stroke="#404040" d="M1092.7157,-1024.7969C1085.0576,-1015.2149 1075.8068,-1004.9615 1066,-997 1052.7256,-986.2234 1042.5052,-992.4902 1032,-979 1014.7266,-956.8183 1004.6042,-928.3854 998.7124,-901.2426"/>
<polygon fill="none" stroke="#404040" points="998.6799,-901.0765 993.5977,-895.9607 996.3653,-889.3018 1001.4475,-894.4176 998.6799,-901.0765"/>
<text text-anchor="middle" x="1066" y="-971" font-family="Helvetica,sans-Serif" font-size="10.00" fill="#000000"> +mTaskHash</text>
</g>
<!-- Node18 -->
<g id="node18" class="node">
<title>Node18</title>
<polygon fill="none" stroke="#bfbfbf" points="701,-782.5 701,-839.5 817,-839.5 817,-782.5 701,-782.5"/>
<text text-anchor="middle" x="759" y="-827.5" font-family="Helvetica,sans-Serif" font-size="10.00" fill="#000000">shared_ptr&lt; TH1F &gt;</text>
<polyline fill="none" stroke="#bfbfbf" points="701,-820.5 817,-820.5 "/>
<text text-anchor="middle" x="759" y="-808.5" font-family="Helvetica,sans-Serif" font-size="10.00" fill="#000000"> </text>
<polyline fill="none" stroke="#bfbfbf" points="701,-801.5 817,-801.5 "/>
<text text-anchor="middle" x="759" y="-789.5" font-family="Helvetica,sans-Serif" font-size="10.00" fill="#000000"> </text>
</g>
<!-- Node18&#45;&gt;Node10 -->
<g id="edge18" class="edge">
<title>Node18&#45;&gt;Node10</title>
<path fill="none" stroke="#404040" d="M757.8266,-782.3868C756.7719,-730.3791 759.5072,-617.8864 797,-533 802.4033,-520.7666 809.4601,-508.8011 817.3209,-497.4637"/>
<polygon fill="none" stroke="#404040" points="817.3747,-497.3893 817.6552,-490.1837 824.4145,-487.6712 824.134,-494.8768 817.3747,-497.3893"/>
<text text-anchor="middle" x="818" y="-591" font-family="Helvetica,sans-Serif" font-size="10.00" fill="#000000"> +object</text>
</g>
<!-- Node19&#45;&gt;Node10 -->
<g id="edge19" class="edge">
<title>Node19&#45;&gt;Node10</title>
<path fill="none" stroke="#ffa500" d="M969.8052,-722.5394C953.7415,-655.4948 931.8154,-563.9824 916.0418,-498.1483"/>
<polygon fill="#ffa500" stroke="#ffa500" points="966.4973,-723.7551 972.2311,-732.6644 973.3046,-722.1241 966.4973,-723.7551"/>
<text text-anchor="middle" x="977.5" y="-591" font-family="Helvetica,sans-Serif" font-size="10.00" fill="#000000"> &lt; TH1F &gt;</text>
</g>
<!-- Node20 -->
<g id="node20" class="node">
<title>Node20</title>
<polygon fill="none" stroke="#bfbfbf" points="892.5,-1025 892.5,-1082 989.5,-1082 989.5,-1025 892.5,-1025"/>
<text text-anchor="middle" x="941" y="-1070" font-family="Helvetica,sans-Serif" font-size="10.00" fill="#000000">shared_ptr&lt; T &gt;</text>
<polyline fill="none" stroke="#bfbfbf" points="892.5,-1063 989.5,-1063 "/>
<text text-anchor="middle" x="941" y="-1051" font-family="Helvetica,sans-Serif" font-size="10.00" fill="#000000"> </text>
<polyline fill="none" stroke="#bfbfbf" points="892.5,-1044 989.5,-1044 "/>
<text text-anchor="middle" x="941" y="-1032" font-family="Helvetica,sans-Serif" font-size="10.00" fill="#000000"> </text>
</g>
<!-- Node20&#45;&gt;Node19 -->
<g id="edge22" class="edge">
<title>Node20&#45;&gt;Node19</title>
<path fill="none" stroke="#404040" d="M939.2702,-1024.8255C938.777,-1008.1423 939.027,-986.7673 942,-968 945.503,-945.8874 951.4568,-922.5922 958.0315,-900.9132"/>
<polygon fill="none" stroke="#404040" points="958.0504,-900.8523 956.0199,-893.933 961.6259,-889.3973 963.6565,-896.3167 958.0504,-900.8523"/>
<text text-anchor="middle" x="963" y="-971" font-family="Helvetica,sans-Serif" font-size="10.00" fill="#000000"> +object</text>
</g>
</g>
</svg>
