<?xml version="1.0" encoding="UTF-8" standalone="no"?>
<!DOCTYPE svg PUBLIC "-//W3C//DTD SVG 1.1//EN"
 "http://www.w3.org/Graphics/SVG/1.1/DTD/svg11.dtd">
<!-- Generated by graphviz version 2.40.1 (20161225.0304)
 -->
<!-- Title: o2::framework::AnalysisDataProcessorBuilder::GroupSlicer&lt; G, A &gt;::GroupSlicerIterator Pages: 1 -->
<svg width="1092pt" height="369pt"
 viewBox="0.00 0.00 1092.00 369.00" xmlns="http://www.w3.org/2000/svg" xmlns:xlink="http://www.w3.org/1999/xlink">
<g id="graph0" class="graph" transform="scale(1 1) rotate(0) translate(4 365)">
<title>o2::framework::AnalysisDataProcessorBuilder::GroupSlicer&lt; G, A &gt;::GroupSlicerIterator</title>
<!-- Node1 -->
<g id="node1" class="node">
<title>Node1</title>
<polygon fill="#bfbfbf" stroke="#000000" points="504.5,-.5 504.5,-244.5 665.5,-244.5 665.5,-.5 504.5,-.5"/>
<text text-anchor="start" x="512.5" y="-232.5" font-family="Helvetica,sans-Serif" font-size="10.00" fill="#000000">o2::framework::AnalysisData</text>
<text text-anchor="start" x="512.5" y="-221.5" font-family="Helvetica,sans-Serif" font-size="10.00" fill="#000000">ProcessorBuilder::GroupSlicer</text>
<text text-anchor="middle" x="585" y="-210.5" font-family="Helvetica,sans-Serif" font-size="10.00" fill="#000000">&lt; G, A &gt;::GroupSlicerIterator</text>
<polyline fill="none" stroke="#000000" points="504.5,-203.5 665.5,-203.5 "/>
<text text-anchor="middle" x="585" y="-191.5" font-family="Helvetica,sans-Serif" font-size="10.00" fill="#000000"> </text>
<polyline fill="none" stroke="#000000" points="504.5,-184.5 665.5,-184.5 "/>
<text text-anchor="start" x="512.5" y="-172.5" font-family="Helvetica,sans-Serif" font-size="10.00" fill="#000000">+ GroupSlicerIterator()</text>
<text text-anchor="start" x="512.5" y="-161.5" font-family="Helvetica,sans-Serif" font-size="10.00" fill="#000000">+ GroupSlicerIterator()</text>
<text text-anchor="start" x="512.5" y="-150.5" font-family="Helvetica,sans-Serif" font-size="10.00" fill="#000000">+ GroupSlicerIterator()</text>
<text text-anchor="start" x="512.5" y="-139.5" font-family="Helvetica,sans-Serif" font-size="10.00" fill="#000000">+ operator=()</text>
<text text-anchor="start" x="512.5" y="-128.5" font-family="Helvetica,sans-Serif" font-size="10.00" fill="#000000">+ operator=()</text>
<text text-anchor="start" x="512.5" y="-117.5" font-family="Helvetica,sans-Serif" font-size="10.00" fill="#000000">+ getLabelFromType()</text>
<text text-anchor="start" x="512.5" y="-106.5" font-family="Helvetica,sans-Serif" font-size="10.00" fill="#000000">+ GroupSlicerIterator()</text>
<text text-anchor="start" x="512.5" y="-95.5" font-family="Helvetica,sans-Serif" font-size="10.00" fill="#000000">+ hasIndexTo()</text>
<text text-anchor="start" x="512.5" y="-84.5" font-family="Helvetica,sans-Serif" font-size="10.00" fill="#000000">+ isIndexTo()</text>
<text text-anchor="start" x="512.5" y="-73.5" font-family="Helvetica,sans-Serif" font-size="10.00" fill="#000000">+ operator++()</text>
<text text-anchor="start" x="512.5" y="-62.5" font-family="Helvetica,sans-Serif" font-size="10.00" fill="#000000">+ operator==()</text>
<text text-anchor="start" x="512.5" y="-51.5" font-family="Helvetica,sans-Serif" font-size="10.00" fill="#000000">+ operator!=()</text>
<text text-anchor="start" x="512.5" y="-40.5" font-family="Helvetica,sans-Serif" font-size="10.00" fill="#000000">+ groupingElement()</text>
<text text-anchor="start" x="512.5" y="-29.5" font-family="Helvetica,sans-Serif" font-size="10.00" fill="#000000">+ operator*()</text>
<text text-anchor="start" x="512.5" y="-18.5" font-family="Helvetica,sans-Serif" font-size="10.00" fill="#000000">+ associatedTables()</text>
<text text-anchor="start" x="512.5" y="-7.5" font-family="Helvetica,sans-Serif" font-size="10.00" fill="#000000">+ prepareArgument()</text>
</g>
<!-- Node2 -->
<g id="node2" class="node">
<title>Node2</title>
<polygon fill="none" stroke="#bfbfbf" points="0,-292.5 0,-360.5 152,-360.5 152,-292.5 0,-292.5"/>
<text text-anchor="start" x="8" y="-348.5" font-family="Helvetica,sans-Serif" font-size="10.00" fill="#000000">array&lt; soa::SelectionVector</text>
<text text-anchor="middle" x="76" y="-337.5" font-family="Helvetica,sans-Serif" font-size="10.00" fill="#000000"> const *, sizeof...(A)&gt;</text>
<polyline fill="none" stroke="#bfbfbf" points="0,-330.5 152,-330.5 "/>
<text text-anchor="middle" x="76" y="-318.5" font-family="Helvetica,sans-Serif" font-size="10.00" fill="#000000"> </text>
<polyline fill="none" stroke="#bfbfbf" points="0,-311.5 152,-311.5 "/>
<text text-anchor="middle" x="76" y="-299.5" font-family="Helvetica,sans-Serif" font-size="10.00" fill="#000000"> </text>
</g>
<!-- Node2&#45;&gt;Node1 -->
<g id="edge1" class="edge">
<title>Node2&#45;&gt;Node1</title>
<path fill="none" stroke="#404040" d="M152.448,-295.449C155.3348,-294.2835 158.1932,-293.1306 161,-292 275.3574,-245.9346 407.2477,-193.2847 493.1657,-159.0505"/>
<polygon fill="none" stroke="#404040" points="493.3068,-158.9944 497.4002,-153.0578 504.4546,-154.553 500.3611,-160.4897 493.3068,-158.9944"/>
<text text-anchor="middle" x="261.5" y="-266" font-family="Helvetica,sans-Serif" font-size="10.00" fill="#000000"> +selections</text>
</g>
<!-- Node3 -->
<g id="node3" class="node">
<title>Node3</title>
<polygon fill="none" stroke="#bfbfbf" points="170,-292.5 170,-360.5 326,-360.5 326,-292.5 170,-292.5"/>
<text text-anchor="start" x="178" y="-348.5" font-family="Helvetica,sans-Serif" font-size="10.00" fill="#000000">array&lt; soa::SelectionVector</text>
<text text-anchor="middle" x="248" y="-337.5" font-family="Helvetica,sans-Serif" font-size="10.00" fill="#000000">::const_iterator, sizeof...(A)&gt;</text>
<polyline fill="none" stroke="#bfbfbf" points="170,-330.5 326,-330.5 "/>
<text text-anchor="middle" x="248" y="-318.5" font-family="Helvetica,sans-Serif" font-size="10.00" fill="#000000"> </text>
<polyline fill="none" stroke="#bfbfbf" points="170,-311.5 326,-311.5 "/>
<text text-anchor="middle" x="248" y="-299.5" font-family="Helvetica,sans-Serif" font-size="10.00" fill="#000000"> </text>
</g>
<!-- Node3&#45;&gt;Node1 -->
<g id="edge2" class="edge">
<title>Node3&#45;&gt;Node1</title>
<path fill="none" stroke="#404040" d="M304.4062,-292.355C356.1274,-261.046 433.6361,-214.1268 494.0941,-177.5291"/>
<polygon fill="none" stroke="#404040" points="494.1416,-177.5004 497.203,-170.9713 504.4073,-171.2861 501.3459,-177.8151 494.1416,-177.5004"/>
<text text-anchor="middle" x="368" y="-266" font-family="Helvetica,sans-Serif" font-size="10.00" fill="#000000"> +starts</text>
</g>
<!-- Node4 -->
<g id="node4" class="node">
<title>Node4</title>
<polygon fill="none" stroke="#bfbfbf" points="344.5,-298 344.5,-355 397.5,-355 397.5,-298 344.5,-298"/>
<text text-anchor="middle" x="371" y="-343" font-family="Helvetica,sans-Serif" font-size="10.00" fill="#000000">iterator</text>
<polyline fill="none" stroke="#bfbfbf" points="344.5,-336 397.5,-336 "/>
<text text-anchor="middle" x="371" y="-324" font-family="Helvetica,sans-Serif" font-size="10.00" fill="#000000"> </text>
<polyline fill="none" stroke="#bfbfbf" points="344.5,-317 397.5,-317 "/>
<text text-anchor="middle" x="371" y="-305" font-family="Helvetica,sans-Serif" font-size="10.00" fill="#000000"> </text>
</g>
<!-- Node4&#45;&gt;Node1 -->
<g id="edge3" class="edge">
<title>Node4&#45;&gt;Node1</title>
<path fill="none" stroke="#404040" d="M387.2824,-297.9861C394.4552,-286.5447 403.4262,-273.5886 413,-263 437.2885,-236.137 466.9078,-210.0727 494.6766,-187.8371"/>
<polygon fill="none" stroke="#404040" points="494.9988,-187.5822 497.2225,-180.7225 504.4098,-180.1368 502.1861,-186.9965 494.9988,-187.5822"/>
<text text-anchor="middle" x="466" y="-266" font-family="Helvetica,sans-Serif" font-size="10.00" fill="#000000"> +mGroupingElement</text>
</g>
<!-- Node5 -->
<g id="node5" class="node">
<title>Node5</title>
<polygon fill="none" stroke="#bfbfbf" points="415.5,-292.5 415.5,-360.5 586.5,-360.5 586.5,-292.5 415.5,-292.5"/>
<text text-anchor="start" x="423.5" y="-348.5" font-family="Helvetica,sans-Serif" font-size="10.00" fill="#000000">array&lt; std::vector</text>
<text text-anchor="middle" x="501" y="-337.5" font-family="Helvetica,sans-Serif" font-size="10.00" fill="#000000">&lt; arrow::Datum &gt;, sizeof...(A)&gt;</text>
<polyline fill="none" stroke="#bfbfbf" points="415.5,-330.5 586.5,-330.5 "/>
<text text-anchor="middle" x="501" y="-318.5" font-family="Helvetica,sans-Serif" font-size="10.00" fill="#000000"> </text>
<polyline fill="none" stroke="#bfbfbf" points="415.5,-311.5 586.5,-311.5 "/>
<text text-anchor="middle" x="501" y="-299.5" font-family="Helvetica,sans-Serif" font-size="10.00" fill="#000000"> </text>
</g>
<!-- Node5&#45;&gt;Node1 -->
<g id="edge4" class="edge">
<title>Node5&#45;&gt;Node1</title>
<path fill="none" stroke="#404040" d="M515.0597,-292.355C519.4383,-281.7214 524.5583,-269.287 530.0014,-256.068"/>
<polygon fill="none" stroke="#404040" points="530.0714,-255.8979 528.6572,-248.8268 534.6405,-244.8017 536.0546,-251.8728 530.0714,-255.8979"/>
<text text-anchor="middle" x="547.5" y="-266" font-family="Helvetica,sans-Serif" font-size="10.00" fill="#000000"> +groups</text>
</g>
<!-- Node6 -->
<g id="node6" class="node">
<title>Node6</title>
<polygon fill="none" stroke="#bfbfbf" points="605,-298 605,-355 735,-355 735,-298 605,-298"/>
<text text-anchor="middle" x="670" y="-343" font-family="Helvetica,sans-Serif" font-size="10.00" fill="#000000">SelectionVector const *</text>
<polyline fill="none" stroke="#bfbfbf" points="605,-336 735,-336 "/>
<text text-anchor="middle" x="670" y="-324" font-family="Helvetica,sans-Serif" font-size="10.00" fill="#000000"> </text>
<polyline fill="none" stroke="#bfbfbf" points="605,-317 735,-317 "/>
<text text-anchor="middle" x="670" y="-305" font-family="Helvetica,sans-Serif" font-size="10.00" fill="#000000"> </text>
</g>
<!-- Node6&#45;&gt;Node1 -->
<g id="edge5" class="edge">
<title>Node6&#45;&gt;Node1</title>
<path fill="none" stroke="#404040" d="M658.0019,-297.7045C653.141,-286.0385 647.1551,-271.6723 640.7202,-256.2284"/>
<polygon fill="none" stroke="#404040" points="640.5802,-255.8924 634.5802,-251.8924 635.9648,-244.8155 641.9648,-248.8155 640.5802,-255.8924"/>
<text text-anchor="middle" x="689.5" y="-266" font-family="Helvetica,sans-Serif" font-size="10.00" fill="#000000"> +groupSelection</text>
</g>
<!-- Node7 -->
<g id="node7" class="node">
<title>Node7</title>
<polygon fill="none" stroke="#bfbfbf" points="753.5,-292.5 753.5,-360.5 898.5,-360.5 898.5,-292.5 753.5,-292.5"/>
<text text-anchor="start" x="761.5" y="-348.5" font-family="Helvetica,sans-Serif" font-size="10.00" fill="#000000">array&lt; std::vector</text>
<text text-anchor="middle" x="826" y="-337.5" font-family="Helvetica,sans-Serif" font-size="10.00" fill="#000000">&lt; uint64_t &gt;, sizeof...(A)&gt;</text>
<polyline fill="none" stroke="#bfbfbf" points="753.5,-330.5 898.5,-330.5 "/>
<text text-anchor="middle" x="826" y="-318.5" font-family="Helvetica,sans-Serif" font-size="10.00" fill="#000000"> </text>
<polyline fill="none" stroke="#bfbfbf" points="753.5,-311.5 898.5,-311.5 "/>
<text text-anchor="middle" x="826" y="-299.5" font-family="Helvetica,sans-Serif" font-size="10.00" fill="#000000"> </text>
</g>
<!-- Node7&#45;&gt;Node1 -->
<g id="edge6" class="edge">
<title>Node7&#45;&gt;Node1</title>
<path fill="none" stroke="#404040" d="M785.662,-292.355C755.5209,-266.8414 713.1335,-230.9616 675.0778,-198.7484"/>
<polygon fill="none" stroke="#404040" points="674.6652,-198.3992 667.5013,-197.5758 665.506,-190.6462 672.67,-191.4696 674.6652,-198.3992"/>
<text text-anchor="middle" x="783.5" y="-266" font-family="Helvetica,sans-Serif" font-size="10.00" fill="#000000"> +offsets</text>
</g>
<!-- Node8 -->
<g id="node8" class="node">
<title>Node8</title>
<polygon fill="none" stroke="#bfbfbf" points="916.5,-298 916.5,-355 977.5,-355 977.5,-298 916.5,-298"/>
<text text-anchor="middle" x="947" y="-343" font-family="Helvetica,sans-Serif" font-size="10.00" fill="#000000">unsigned</text>
<polyline fill="none" stroke="#bfbfbf" points="916.5,-336 977.5,-336 "/>
<text text-anchor="middle" x="947" y="-324" font-family="Helvetica,sans-Serif" font-size="10.00" fill="#000000"> </text>
<polyline fill="none" stroke="#bfbfbf" points="916.5,-317 977.5,-317 "/>
<text text-anchor="middle" x="947" y="-305" font-family="Helvetica,sans-Serif" font-size="10.00" fill="#000000"> </text>
</g>
<!-- Node8&#45;&gt;Node1 -->
<g id="edge7" class="edge">
<title>Node8&#45;&gt;Node1</title>
<path fill="none" stroke="#404040" d="M916.4747,-298.2976C913.6755,-296.0817 910.8278,-293.9503 908,-292 834.1717,-241.0831 743.1817,-194.6295 676.6101,-163.2826"/>
<polygon fill="none" stroke="#404040" points="676.5951,-163.2756 669.4653,-164.3556 665.7261,-158.1896 672.8559,-157.1097 676.5951,-163.2756"/>
<text text-anchor="middle" x="900.5" y="-266" font-family="Helvetica,sans-Serif" font-size="10.00" fill="#000000"> +position</text>
</g>
<!-- Node9 -->
<g id="node9" class="node">
<title>Node9</title>
<polygon fill="none" stroke="#bfbfbf" points="996,-298 996,-355 1084,-355 1084,-298 996,-298"/>
<text text-anchor="middle" x="1040" y="-343" font-family="Helvetica,sans-Serif" font-size="10.00" fill="#000000">tuple&lt; A... &gt; *</text>
<polyline fill="none" stroke="#bfbfbf" points="996,-336 1084,-336 "/>
<text text-anchor="middle" x="1040" y="-324" font-family="Helvetica,sans-Serif" font-size="10.00" fill="#000000"> </text>
<polyline fill="none" stroke="#bfbfbf" points="996,-317 1084,-317 "/>
<text text-anchor="middle" x="1040" y="-305" font-family="Helvetica,sans-Serif" font-size="10.00" fill="#000000"> </text>
</g>
<!-- Node9&#45;&gt;Node1 -->
<g id="edge8" class="edge">
<title>Node9&#45;&gt;Node1</title>
<path fill="none" stroke="#404040" d="M996.8486,-297.8765C993.541,-295.847 990.2323,-293.8672 987,-292 962.3879,-277.7823 955.8516,-274.8151 930,-263 845.4475,-224.3565 747.072,-184.8114 677.0564,-157.5614"/>
<polygon fill="none" stroke="#404040" points="676.8206,-157.4699 669.7797,-159.0273 665.634,-153.127 672.675,-151.5696 676.8206,-157.4699"/>
<text text-anchor="middle" x="969" y="-266" font-family="Helvetica,sans-Serif" font-size="10.00" fill="#000000"> +mAt</text>
</g>
</g>
</svg>
