<?xml version="1.0" encoding="UTF-8" standalone="no"?>
<!DOCTYPE svg PUBLIC "-//W3C//DTD SVG 1.1//EN"
 "http://www.w3.org/Graphics/SVG/1.1/DTD/svg11.dtd">
<!-- Generated by graphviz version 2.40.1 (20161225.0304)
 -->
<!-- Title: o2::tpc::ClusterNativeHelper::TreeWriter::BranchData Pages: 1 -->
<svg width="213pt" height="215pt"
 viewBox="0.00 0.00 212.50 215.00" xmlns="http://www.w3.org/2000/svg" xmlns:xlink="http://www.w3.org/1999/xlink">
<g id="graph0" class="graph" transform="scale(1 1) rotate(0) translate(4 211)">
<title>o2::tpc::ClusterNativeHelper::TreeWriter::BranchData</title>
<!-- Node1 -->
<g id="node1" class="node">
<title>Node1</title>
<polygon fill="#bfbfbf" stroke="#000000" points="28.5,-.5 28.5,-68.5 183.5,-68.5 183.5,-.5 28.5,-.5"/>
<text text-anchor="start" x="36.5" y="-56.5" font-family="Helvetica,sans-Serif" font-size="10.00" fill="#000000">o2::tpc::ClusterNativeHelper</text>
<text text-anchor="middle" x="106" y="-45.5" font-family="Helvetica,sans-Serif" font-size="10.00" fill="#000000">::TreeWriter::BranchData</text>
<polyline fill="none" stroke="#000000" points="28.5,-38.5 183.5,-38.5 "/>
<text text-anchor="middle" x="106" y="-26.5" font-family="Helvetica,sans-Serif" font-size="10.00" fill="#000000"> </text>
<polyline fill="none" stroke="#000000" points="28.5,-19.5 183.5,-19.5 "/>
<text text-anchor="start" x="36.5" y="-7.5" font-family="Helvetica,sans-Serif" font-size="10.00" fill="#000000">+ operator=()</text>
</g>
<!-- Node2 -->
<g id="node2" class="node">
<title>Node2</title>
<g id="a_node2"><a xlink:href="../../d4/dc3/classfloat.html" target="_top" xlink:title="{float\n||}">
<polygon fill="none" stroke="#000000" points="0,-149.5 0,-206.5 38,-206.5 38,-149.5 0,-149.5"/>
<text text-anchor="middle" x="19" y="-194.5" font-family="Helvetica,sans-Serif" font-size="10.00" fill="#000000">float</text>
<polyline fill="none" stroke="#000000" points="0,-187.5 38,-187.5 "/>
<text text-anchor="middle" x="19" y="-175.5" font-family="Helvetica,sans-Serif" font-size="10.00" fill="#000000"> </text>
<polyline fill="none" stroke="#000000" points="0,-168.5 38,-168.5 "/>
<text text-anchor="middle" x="19" y="-156.5" font-family="Helvetica,sans-Serif" font-size="10.00" fill="#000000"> </text>
</a>
</g>
</g>
<!-- Node2&#45;&gt;Node1 -->
<g id="edge1" class="edge">
<title>Node2&#45;&gt;Node1</title>
<path fill="none" stroke="#404040" d="M19.8912,-149.4379C21.6467,-130.4826 26.2629,-105.7384 38,-87 40.098,-83.6504 42.4904,-80.4318 45.0936,-77.3528"/>
<polygon fill="none" stroke="#404040" points="45.1925,-77.2486 46.4209,-70.1429 53.4525,-68.5438 52.2241,-75.6495 45.1925,-77.2486"/>
<text text-anchor="middle" x="70" y="-123" font-family="Helvetica,sans-Serif" font-size="10.00" fill="#000000"> +pad</text>
<text text-anchor="middle" x="70" y="-112" font-family="Helvetica,sans-Serif" font-size="10.00" fill="#000000">+time</text>
<text text-anchor="middle" x="70" y="-101" font-family="Helvetica,sans-Serif" font-size="10.00" fill="#000000">+sigmaTime</text>
<text text-anchor="middle" x="70" y="-90" font-family="Helvetica,sans-Serif" font-size="10.00" fill="#000000">+sigmaPad</text>
</g>
<!-- Node3 -->
<g id="node3" class="node">
<title>Node3</title>
<polygon fill="none" stroke="#bfbfbf" points="91.5,-149.5 91.5,-206.5 120.5,-206.5 120.5,-149.5 91.5,-149.5"/>
<text text-anchor="middle" x="106" y="-194.5" font-family="Helvetica,sans-Serif" font-size="10.00" fill="#000000">int</text>
<polyline fill="none" stroke="#bfbfbf" points="91.5,-187.5 120.5,-187.5 "/>
<text text-anchor="middle" x="106" y="-175.5" font-family="Helvetica,sans-Serif" font-size="10.00" fill="#000000"> </text>
<polyline fill="none" stroke="#bfbfbf" points="91.5,-168.5 120.5,-168.5 "/>
<text text-anchor="middle" x="106" y="-156.5" font-family="Helvetica,sans-Serif" font-size="10.00" fill="#000000"> </text>
</g>
<!-- Node3&#45;&gt;Node1 -->
<g id="edge2" class="edge">
<title>Node3&#45;&gt;Node1</title>
<path fill="none" stroke="#404040" d="M106,-149.3055C106,-129.7064 106,-103.3057 106,-80.7629"/>
<polygon fill="none" stroke="#404040" points="106.0001,-80.7037 102,-74.7038 106,-68.7037 110,-74.7037 106.0001,-80.7037"/>
<text text-anchor="middle" x="128.5" y="-112" font-family="Helvetica,sans-Serif" font-size="10.00" fill="#000000"> +sector</text>
<text text-anchor="middle" x="128.5" y="-101" font-family="Helvetica,sans-Serif" font-size="10.00" fill="#000000">+padrow</text>
</g>
<!-- Node4 -->
<g id="node4" class="node">
<title>Node4</title>
<polygon fill="none" stroke="#bfbfbf" points="143.5,-149.5 143.5,-206.5 204.5,-206.5 204.5,-149.5 143.5,-149.5"/>
<text text-anchor="middle" x="174" y="-194.5" font-family="Helvetica,sans-Serif" font-size="10.00" fill="#000000">unsigned</text>
<polyline fill="none" stroke="#bfbfbf" points="143.5,-187.5 204.5,-187.5 "/>
<text text-anchor="middle" x="174" y="-175.5" font-family="Helvetica,sans-Serif" font-size="10.00" fill="#000000"> </text>
<polyline fill="none" stroke="#bfbfbf" points="143.5,-168.5 204.5,-168.5 "/>
<text text-anchor="middle" x="174" y="-156.5" font-family="Helvetica,sans-Serif" font-size="10.00" fill="#000000"> </text>
</g>
<!-- Node4&#45;&gt;Node1 -->
<g id="edge3" class="edge">
<title>Node4&#45;&gt;Node1</title>
<path fill="none" stroke="#404040" d="M170.671,-149.2841C167.6662,-130.7206 162.1006,-106.4796 152,-87 150.5087,-84.1239 148.8272,-81.2759 147.0115,-78.4816"/>
<polygon fill="none" stroke="#404040" points="146.9471,-78.3919 140.1987,-75.8503 139.9493,-68.6435 146.6977,-71.1851 146.9471,-78.3919"/>
<text text-anchor="middle" x="183.5" y="-117.5" font-family="Helvetica,sans-Serif" font-size="10.00" fill="#000000"> +qTot</text>
<text text-anchor="middle" x="183.5" y="-106.5" font-family="Helvetica,sans-Serif" font-size="10.00" fill="#000000">+flags</text>
<text text-anchor="middle" x="183.5" y="-95.5" font-family="Helvetica,sans-Serif" font-size="10.00" fill="#000000">+qMax</text>
</g>
</g>
</svg>
